<svg xmlns="http://www.w3.org/2000/svg" width="205" height="69" viewBox="0 0 205 69">
  <g id="Group_113" data-name="Group 113" transform="translate(-129 -1175)">
    <path id="Path_122" data-name="Path 122" d="M317.675,1175H143.459l-1.575.03a21.935,21.935,0,0,0-3.432.3,11.36,11.36,0,0,0-3.257,1.08,11.081,11.081,0,0,0-2.773,2.04,10.717,10.717,0,0,0-2.018,2.79,11.413,11.413,0,0,0-1.071,3.28,22.731,22.731,0,0,0-.307,3.46c-.016.53-.018,1.06-.026,1.59v39.87c.008.53.01,1.05.026,1.59a22.49,22.49,0,0,0,.307,3.45,11.414,11.414,0,0,0,1.071,3.29,10.667,10.667,0,0,0,2.018,2.78,10.991,10.991,0,0,0,2.773,2.04,11.36,11.36,0,0,0,3.257,1.08,23.236,23.236,0,0,0,3.432.31c.53.01,1.05.02,1.575.02H319.532c.522,0,1.057-.01,1.579-.02a23.157,23.157,0,0,0,3.427-.31,11.456,11.456,0,0,0,3.269-1.08,11.257,11.257,0,0,0,4.794-4.82,11.455,11.455,0,0,0,1.061-3.29,23.414,23.414,0,0,0,.318-3.45c.007-.54.007-1.06.007-1.59.013-.63.013-1.25.013-1.89v-36.1c0-.63,0-1.26-.013-1.88,0-.53,0-1.06-.007-1.59a23.673,23.673,0,0,0-.318-3.46,11.523,11.523,0,0,0-1.061-3.28,11.165,11.165,0,0,0-4.794-4.83,11.775,11.775,0,0,0-3.269-1.08,21.871,21.871,0,0,0-3.427-.3l-1.579-.03Z" fill="#a6a6a6"/>
    <path id="Path_123" data-name="Path 123" d="M143.467,1242.49c-.522,0-1.031-.01-1.549-.02a21.467,21.467,0,0,1-3.2-.28,10.141,10.141,0,0,1-2.838-.94,9.5,9.5,0,0,1-2.394-1.76,9.071,9.071,0,0,1-1.748-2.41,9.886,9.886,0,0,1-.93-2.86,21.385,21.385,0,0,1-.285-3.23c-.011-.36-.025-1.58-.025-1.58v-39.84s.015-1.2.025-1.55a21.626,21.626,0,0,1,.283-3.23,10.019,10.019,0,0,1,.931-2.86,9.084,9.084,0,0,1,1.739-2.41,9.4,9.4,0,0,1,2.4-1.77,10.114,10.114,0,0,1,2.832-.94,21.625,21.625,0,0,1,3.213-.28l1.546-.02H319.524l1.564.02a21.229,21.229,0,0,1,3.184.28,10.01,10.01,0,0,1,2.862.95,9.6,9.6,0,0,1,4.137,4.17,10.02,10.02,0,0,1,.917,2.85,22.332,22.332,0,0,1,.3,3.25c.005.49.005,1.01.005,1.54.013.64.013,1.26.013,1.88v36.1c0,.63,0,1.24-.013,1.86,0,.56,0,1.07-.007,1.6a22.2,22.2,0,0,1-.293,3.2,9.947,9.947,0,0,1-.925,2.88,9.51,9.51,0,0,1-1.739,2.39,9.253,9.253,0,0,1-2.4,1.76,9.968,9.968,0,0,1-2.857.95,21.479,21.479,0,0,1-3.2.28c-.5.01-1.028.02-1.538.02H143.467Z"/>
    <path id="Path_124" data-name="Path 124" d="M171.432,1210.02a8.634,8.634,0,0,1,1.1-4.11,8.475,8.475,0,0,1,2.933-3.05,8.686,8.686,0,0,0-2.981-2.68,8.817,8.817,0,0,0-3.856-1.05c-2.877-.3-5.666,1.74-7.132,1.74-1.494,0-3.751-1.71-6.181-1.66a9.11,9.11,0,0,0-7.663,4.71c-3.313,5.78-.842,14.27,2.332,18.93,1.588,2.29,3.443,4.84,5.872,4.75,2.376-.1,3.263-1.52,6.132-1.52,2.841,0,3.674,1.52,6.152,1.47,2.549-.05,4.156-2.3,5.688-4.61a19,19,0,0,0,2.6-5.33,8.26,8.26,0,0,1-5-7.59Z" fill="#fff"/>
    <path id="Path_125" data-name="Path 125" d="M166.753,1196.06a8.441,8.441,0,0,0,1.909-6.02,8.489,8.489,0,0,0-5.495,2.87,7.856,7.856,0,0,0-1.553,2.7,8,8,0,0,0-.406,3.09,7.1,7.1,0,0,0,3.074-.67A7.021,7.021,0,0,0,166.753,1196.06Z" fill="#fff"/>
    <path id="Path_126" data-name="Path 126" d="M201.469,1221.82H193.36l-1.947,5.79h-3.435l7.681-21.43h3.568l7.681,21.43h-3.493Zm-7.269-2.68h6.428l-3.169-9.39h-.089Z" fill="#fff"/>
    <path id="Path_127" data-name="Path 127" d="M223.5,1219.8c0,4.85-2.58,7.97-6.473,7.97a5.254,5.254,0,0,1-4.88-2.73h-.074v7.73h-3.184v-20.78h3.082v2.6h.059a5.51,5.51,0,0,1,4.938-2.77C220.9,1211.82,223.5,1214.96,223.5,1219.8Zm-3.273,0c0-3.16-1.622-5.24-4.1-5.24-2.433,0-4.069,2.12-4.069,5.24,0,3.14,1.636,5.25,4.069,5.25C218.6,1225.05,220.223,1222.99,220.223,1219.8Z" fill="#fff"/>
    <path id="Path_128" data-name="Path 128" d="M240.567,1219.8c0,4.85-2.58,7.97-6.473,7.97a5.254,5.254,0,0,1-4.88-2.73h-.074v7.73h-3.183v-20.78h3.081v2.6h.059a5.51,5.51,0,0,1,4.938-2.77C237.972,1211.82,240.567,1214.96,240.567,1219.8Zm-3.273,0c0-3.16-1.622-5.24-4.1-5.24-2.433,0-4.069,2.12-4.069,5.24,0,3.14,1.636,5.25,4.069,5.25,2.476,0,4.1-2.06,4.1-5.25Z" fill="#fff"/>
    <path id="Path_129" data-name="Path 129" d="M251.849,1221.64c.236,2.12,2.285,3.52,5.086,3.52,2.683,0,4.614-1.4,4.614-3.31,0-1.67-1.164-2.66-3.921-3.34l-2.757-.67c-3.907-.95-5.72-2.79-5.72-5.78,0-3.69,3.2-6.23,7.74-6.23,4.5,0,7.577,2.54,7.681,6.23h-3.214c-.192-2.14-1.947-3.43-4.512-3.43s-4.319,1.31-4.319,3.21c0,1.51,1.121,2.41,3.863,3.09l2.343.58c4.365,1.04,6.179,2.8,6.179,5.94,0,4-3.171,6.51-8.213,6.51-4.718,0-7.9-2.45-8.109-6.32Z" fill="#fff"/>
    <path id="Path_130" data-name="Path 130" d="M271.783,1208.29v3.7h2.949v2.54h-2.949v8.61c0,1.33.59,1.96,1.887,1.96a9.19,9.19,0,0,0,1.047-.08v2.53a8.066,8.066,0,0,1-1.768.14c-3.14,0-4.365-1.18-4.365-4.21v-8.95h-2.255v-2.54h2.255v-3.7Z" fill="#fff"/>
    <path id="Path_131" data-name="Path 131" d="M276.44,1219.8c0-4.92,2.875-8,7.357-8s7.357,3.08,7.357,8-2.845,8-7.357,8S276.44,1224.72,276.44,1219.8Zm11.47,0c0-3.37-1.534-5.36-4.113-5.36s-4.113,2-4.113,5.36c0,3.38,1.533,5.36,4.113,5.36s4.113-1.98,4.113-5.36Z" fill="#fff"/>
    <path id="Path_132" data-name="Path 132" d="M293.779,1211.99h3.037v2.66h.073a3.716,3.716,0,0,1,3.731-2.83,5.006,5.006,0,0,1,1.091.12v3a4.617,4.617,0,0,0-1.431-.19,3.133,3.133,0,0,0-1.351.24,3.264,3.264,0,0,0-1.128.79,3.148,3.148,0,0,0-.7,1.19,3.214,3.214,0,0,0-.14,1.37v9.27h-3.184Z" fill="#fff"/>
    <path id="Path_133" data-name="Path 133" d="M316.389,1223.02c-.428,2.83-3.17,4.78-6.678,4.78-4.512,0-7.313-3.04-7.313-7.93s2.816-8.07,7.179-8.07c4.291,0,6.99,2.96,6.99,7.7v1.1H305.612v.19a4.082,4.082,0,0,0,2.5,4.13,4.163,4.163,0,0,0,1.673.3,3.474,3.474,0,0,0,2.153-.51,3.51,3.51,0,0,0,1.429-1.69Zm-10.762-4.66h7.754a3.761,3.761,0,0,0-.228-1.52,3.709,3.709,0,0,0-.814-1.3,3.778,3.778,0,0,0-2.762-1.15,3.947,3.947,0,0,0-3.652,2.45,3.978,3.978,0,0,0-.3,1.52Z" fill="#fff"/>
    <path id="Path_134" data-name="Path 134" d="M193.8,1190.06a4.383,4.383,0,0,1,1.961.3,4.451,4.451,0,0,1,1.646,1.11,4.589,4.589,0,0,1,1.2,3.71c0,3.28-1.765,5.17-4.81,5.17h-3.692v-10.29Zm-2.1,8.84h1.927a3.181,3.181,0,0,0,1.4-.23,3.258,3.258,0,0,0,1.163-.81,3.3,3.3,0,0,0,.7-1.24,3.256,3.256,0,0,0,.107-1.42,3.309,3.309,0,0,0-.118-1.42,3.268,3.268,0,0,0-.706-1.22,3.187,3.187,0,0,0-2.547-1.04H191.7Z" fill="#fff"/>
    <path id="Path_135" data-name="Path 135" d="M200.4,1196.47a3.754,3.754,0,0,1,.171-1.52,3.714,3.714,0,0,1,.763-1.31,3.675,3.675,0,0,1,1.226-.89,3.68,3.68,0,0,1,2.957,0,3.685,3.685,0,0,1,1.226.89,3.686,3.686,0,0,1,.933,2.83,3.674,3.674,0,0,1-2.157,3.72,3.69,3.69,0,0,1-2.961,0,3.694,3.694,0,0,1-2.158-3.72Zm5.71,0c0-1.69-.751-2.67-2.069-2.67s-2.068.98-2.068,2.67.745,2.67,2.068,2.67,2.069-.98,2.069-2.67Z" fill="#fff"/>
    <path id="Path_136" data-name="Path 136" d="M217.352,1200.35h-1.58l-1.594-5.72h-.12l-1.588,5.72h-1.564l-2.127-7.76h1.544l1.382,5.92h.114l1.586-5.92h1.461l1.586,5.92h.12l1.375-5.92h1.523Z" fill="#fff"/>
    <path id="Path_137" data-name="Path 137" d="M221.258,1192.59h1.466v1.23h.113a2.343,2.343,0,0,1,.931-1.06,2.278,2.278,0,0,1,1.371-.32,2.441,2.441,0,0,1,1.1.16,2.613,2.613,0,0,1,.922.63,2.569,2.569,0,0,1,.645,2.1v5.02h-1.522v-4.64c0-1.25-.539-1.87-1.665-1.87a1.732,1.732,0,0,0-.745.13,1.775,1.775,0,0,0-.625.43,1.782,1.782,0,0,0-.472,1.41v4.54h-1.522Z" fill="#fff"/>
    <path id="Path_138" data-name="Path 138" d="M230.235,1189.55h1.523v10.8h-1.523Z" fill="#fff"/>
    <path id="Path_139" data-name="Path 139" d="M233.874,1196.47a3.682,3.682,0,0,1,.934-2.83,3.681,3.681,0,0,1,1.225-.89,3.682,3.682,0,0,1,2.958,0,3.685,3.685,0,0,1,1.226.89,3.686,3.686,0,0,1,.933,2.83,3.673,3.673,0,0,1-2.158,3.72,3.687,3.687,0,0,1-2.96,0,3.689,3.689,0,0,1-2.158-3.72Zm5.71,0c0-1.69-.751-2.67-2.07-2.67s-2.067.98-2.067,2.67.744,2.67,2.067,2.67,2.07-.98,2.07-2.67Z" fill="#fff"/>
    <path id="Path_140" data-name="Path 140" d="M242.753,1198.16c0-1.4,1.034-2.21,2.87-2.32l2.089-.12v-.67c0-.82-.539-1.29-1.579-1.29-.85,0-1.439.32-1.608.87h-1.474c.156-1.34,1.4-2.19,3.152-2.19,1.934,0,3.025.97,3.025,2.61v5.3h-1.466v-1.09h-.12a2.677,2.677,0,0,1-.995.93,2.633,2.633,0,0,1-1.322.29,2.238,2.238,0,0,1-.961-.1,2.3,2.3,0,0,1-.837-.49,2.243,2.243,0,0,1-.57-.78A2.367,2.367,0,0,1,242.753,1198.16Zm4.959-.67v-.65l-1.884.13c-1.062.07-1.544.43-1.544,1.12s.6,1.1,1.431,1.1a1.8,1.8,0,0,0,1.356-.42,1.825,1.825,0,0,0,.641-1.28Z" fill="#fff"/>
    <path id="Path_141" data-name="Path 141" d="M251.229,1196.47c0-2.46,1.253-4.01,3.2-4.01a2.519,2.519,0,0,1,2.365,1.36h.114v-4.27h1.522v10.8h-1.458v-1.22h-.121a2.694,2.694,0,0,1-2.422,1.35C252.468,1200.48,251.229,1198.93,251.229,1196.47Zm1.572,0c0,1.64.771,2.64,2.061,2.64s2.076-1.01,2.076-2.64-.8-2.64-2.076-2.64-2.061,1-2.061,2.64Z" fill="#fff"/>
    <path id="Path_142" data-name="Path 142" d="M264.731,1196.47a3.755,3.755,0,0,1,.171-1.52,3.714,3.714,0,0,1,.763-1.31,3.674,3.674,0,0,1,1.226-.89,3.68,3.68,0,0,1,2.957,0,3.685,3.685,0,0,1,1.226.89,3.686,3.686,0,0,1,.933,2.83,3.673,3.673,0,0,1-2.158,3.72,3.687,3.687,0,0,1-2.96,0,3.694,3.694,0,0,1-2.158-3.72Zm5.71,0c0-1.69-.751-2.67-2.069-2.67s-2.068.98-2.068,2.67.744,2.67,2.068,2.67S270.441,1198.16,270.441,1196.47Z" fill="#fff"/>
    <path id="Path_143" data-name="Path 143" d="M274.05,1192.59h1.465v1.23h.114a2.343,2.343,0,0,1,.931-1.06,2.278,2.278,0,0,1,1.371-.32,2.445,2.445,0,0,1,1.1.16,2.631,2.631,0,0,1,.922.63,2.569,2.569,0,0,1,.645,2.1v5.02h-1.522v-4.64c0-1.25-.539-1.87-1.665-1.87a1.736,1.736,0,0,0-.746.13,1.78,1.78,0,0,0-.624.43,1.782,1.782,0,0,0-.472,1.41v4.54H274.05Z" fill="#fff"/>
    <path id="Path_144" data-name="Path 144" d="M289.2,1190.65v1.97h1.671v1.29H289.2v4c0,.81.332,1.17,1.09,1.17a5.645,5.645,0,0,0,.581-.04v1.28a5.754,5.754,0,0,1-.828.08c-1.693,0-2.368-.6-2.368-2.1v-4.39h-1.224v-1.29h1.224v-1.97Z" fill="#fff"/>
    <path id="Path_145" data-name="Path 145" d="M292.954,1189.55h1.509v4.28h.121a2.368,2.368,0,0,1,2.352-1.39,2.56,2.56,0,0,1,1.093.19,2.564,2.564,0,0,1,1.564,2.71v5.01h-1.524v-4.63c0-1.24-.574-1.87-1.65-1.87a1.834,1.834,0,0,0-.771.1,1.9,1.9,0,0,0-.655.43,1.813,1.813,0,0,0-.416.66,1.836,1.836,0,0,0-.1.78v4.53h-1.523Z" fill="#fff"/>
    <path id="Path_146" data-name="Path 146" d="M308.469,1198.26a3.129,3.129,0,0,1-3.342,2.24,3.42,3.42,0,0,1-1.48-.28,3.627,3.627,0,0,1-1.224-.89,3.518,3.518,0,0,1-.74-1.32,4.575,4.575,0,0,1,.739-4.36,3.5,3.5,0,0,1,1.218-.9,3.441,3.441,0,0,1,1.48-.31c2.147,0,3.441,1.47,3.441,3.91v.54h-5.447v.08a2.084,2.084,0,0,0,.1.85,2.014,2.014,0,0,0,.434.72,1.993,1.993,0,0,0,.689.49,1.968,1.968,0,0,0,.827.17,1.852,1.852,0,0,0,1.06-.19,1.886,1.886,0,0,0,.775-.75Zm-5.355-2.51h3.9a1.894,1.894,0,0,0-.1-.77,1.926,1.926,0,0,0-.4-.66,1.85,1.85,0,0,0-.635-.44,1.96,1.96,0,0,0-.757-.14,2.026,2.026,0,0,0-.769.15,2.075,2.075,0,0,0-.651.43,1.971,1.971,0,0,0-.433.66,2.023,2.023,0,0,0-.145.77Z" fill="#fff"/>
  </g>
</svg>
