<svg xmlns="http://www.w3.org/2000/svg" width="102" height="35" viewBox="0 0 102 35">
  <g id="Group_98" data-name="Group 98" transform="translate(-43 -530)">
    <path id="Path_217" data-name="Path 217" d="M44,541.5c0-3.262,0-4.892.533-6.179a7,7,0,0,1,3.788-3.788C49.608,531,51.238,531,54.5,531h79c3.262,0,4.892,0,6.179.533a7,7,0,0,1,3.788,3.788c.533,1.287.533,2.917.533,6.179v12c0,3.262,0,4.892-.533,6.179a7,7,0,0,1-3.788,3.788c-1.287.533-2.917.533-6.179.533h-79c-3.262,0-4.892,0-6.179-.533a7,7,0,0,1-3.788-3.788C44,558.392,44,556.762,44,553.5Z" fill="#fff"/>
    <path id="Path_218" data-name="Path 218" d="M111.938,546.841v1.89h-1.2v1.239h1.2v4.212c0,1.438.657,2.013,2.311,2.013a4.861,4.861,0,0,0,.809-.075v-1.226a4.855,4.855,0,0,1-.567.034c-.741,0-1.066-.342-1.066-1.123V549.97h1.633v-1.239h-1.633v-1.89Z"/>
    <path id="Path_219" data-name="Path 219" d="M119.269,556.3c2.2,0,3.549-1.459,3.549-3.876s-1.356-3.869-3.549-3.869-3.555,1.465-3.555,3.869S117.063,556.3,119.269,556.3Zm0-1.308c-1.293,0-2.019-.938-2.019-2.568s.726-2.561,2.019-2.561,2.02.945,2.02,2.561S120.556,554.99,119.269,554.99Z"/>
    <path id="Path_220" data-name="Path 220" d="M123.972,556.154h1.487v-4.4A1.758,1.758,0,0,1,127.382,550a4.133,4.133,0,0,1,.83.089v-1.452a3.17,3.17,0,0,0-.664-.062,2.044,2.044,0,0,0-2.033,1.267H125.4V548.7h-1.432Z"/>
    <path id="Path_221" data-name="Path 221" d="M131.9,549.806a1.808,1.808,0,0,1,1.854,1.931h-3.805A1.917,1.917,0,0,1,131.9,549.806Zm1.847,4.335a1.811,1.811,0,0,1-1.792.9,1.98,1.98,0,0,1-2.006-2.137v-.082h5.32v-.514c0-2.342-1.266-3.759-3.362-3.759-2.124,0-3.472,1.513-3.472,3.9s1.321,3.849,3.479,3.849a3.059,3.059,0,0,0,3.265-2.157Z"/>
    <path id="Path_222" data-name="Path 222" d="M102.185,553.4c.115,1.832,1.656,3,3.951,3,2.452,0,3.986-1.228,3.986-3.187,0-1.541-.875-2.392-3-2.882l-1.14-.277c-1.348-.312-1.893-.731-1.893-1.462,0-.923.846-1.526,2.115-1.526a1.974,1.974,0,0,1,2.187,1.533h1.563c-.093-1.725-1.627-2.938-3.728-2.938-2.259,0-3.764,1.213-3.764,3.037,0,1.505.853,2.4,2.724,2.833l1.334.319c1.369.319,1.971.788,1.971,1.569,0,.908-.946,1.568-2.237,1.568-1.383,0-2.344-.617-2.48-1.59Z"/>
    <path id="Path_223" data-name="Path 223" d="M86.779,548.573a2.623,2.623,0,0,0-2.366,1.356H84.3V548.7H82.871v9.936h1.487v-3.609h.118a2.461,2.461,0,0,0,2.317,1.254c1.9,0,3.113-1.487,3.113-3.856S88.7,548.573,86.779,548.573Zm-.422,6.383c-1.245,0-2.027-.973-2.027-2.527s.782-2.534,2.034-2.534,2.013.952,2.013,2.527S87.623,554.956,86.357,554.956Z"/>
    <path id="Path_224" data-name="Path 224" d="M95.11,548.573a2.623,2.623,0,0,0-2.366,1.356h-.111V548.7H91.2v9.936h1.487v-3.609h.118a2.461,2.461,0,0,0,2.317,1.254c1.9,0,3.113-1.487,3.113-3.856S97.026,548.573,95.11,548.573Zm-.422,6.383c-1.245,0-2.027-.973-2.027-2.527s.782-2.534,2.034-2.534,2.013.952,2.013,2.527S95.954,554.956,94.688,554.956Z"/>
    <path id="Path_225" data-name="Path 225" d="M80.2,556.154h1.706l-3.735-10.242H76.446L72.71,556.154h1.649l.954-2.718h3.943Zm-2.975-8.382h.122l1.5,4.329H75.721Z"/>
    <path id="Path_226" data-name="Path 226" d="M73.709,538.186v4.941h1.8a2.474,2.474,0,0,0,0-4.941Zm.775.7h.941a1.777,1.777,0,0,1,0,3.544h-.941Z"/>
    <path id="Path_227" data-name="Path 227" d="M80.5,543.2a1.943,1.943,0,1,0-1.778-1.938A1.717,1.717,0,0,0,80.5,543.2Zm0-.654c-.647,0-1.01-.469-1.01-1.284s.363-1.28,1.01-1.28,1.01.472,1.01,1.28S81.141,542.545,80.5,542.545Z"/>
    <path id="Path_228" data-name="Path 228" d="M88.015,539.4h-.744l-.671,2.845h-.059l-.775-2.845h-.713l-.775,2.845h-.055L83.55,539.4H82.8l1.038,3.728H84.6l.775-2.746h.059l.778,2.746h.771Z"/>
    <path id="Path_229" data-name="Path 229" d="M88.871,543.127h.744v-2.181a.859.859,0,0,1,.9-.945c.55,0,.813.3.813.9v2.229h.744v-2.414a1.218,1.218,0,0,0-1.3-1.386,1.129,1.129,0,0,0-1.124.664h-.055V539.4h-.716Z"/>
    <path id="Path_230" data-name="Path 230" d="M93.242,543.127h.744v-5.184h-.744Z"/>
    <path id="Path_231" data-name="Path 231" d="M96.782,543.2A1.943,1.943,0,1,0,95,541.261,1.717,1.717,0,0,0,96.782,543.2Zm0-.654c-.647,0-1.01-.469-1.01-1.284s.363-1.28,1.01-1.28,1.01.472,1.01,1.28S97.425,542.545,96.782,542.545Z"/>
    <path id="Path_232" data-name="Path 232" d="M100.772,542.569c-.405,0-.7-.195-.7-.53s.235-.5.754-.538l.92-.058v.311A.884.884,0,0,1,100.772,542.569Zm-.19.62a1.272,1.272,0,0,0,1.131-.585h.058v.523h.716V540.58c0-.788-.532-1.253-1.477-1.253-.854,0-1.463.411-1.539,1.051h.72c.083-.264.37-.414.785-.414.508,0,.771.222.771.616v.322l-1.02.058c-.9.055-1.4.442-1.4,1.113A1.134,1.134,0,0,0,100.582,543.189Z"/>
    <path id="Path_233" data-name="Path 233" d="M105.011,543.189a1.31,1.31,0,0,0,1.183-.651h.058v.589h.713v-5.184h-.744v2.048h-.055a1.244,1.244,0,0,0-1.155-.654c-.951,0-1.564.746-1.564,1.924S104.053,543.189,105.011,543.189Zm.211-3.191c.622,0,1.013.489,1.013,1.267s-.387,1.263-1.013,1.263-1.007-.476-1.007-1.267S104.6,540,105.222,540Z"/>
    <path id="Path_234" data-name="Path 234" d="M111.787,543.2a1.943,1.943,0,1,0-1.778-1.938A1.717,1.717,0,0,0,111.787,543.2Zm0-.654c-.647,0-1.01-.469-1.01-1.284s.363-1.28,1.01-1.28,1.01.472,1.01,1.28S112.43,542.545,111.787,542.545Z"/>
    <path id="Path_235" data-name="Path 235" d="M114.546,543.127h.743v-2.181a.859.859,0,0,1,.9-.945c.55,0,.813.3.813.9v2.229h.744v-2.414a1.218,1.218,0,0,0-1.3-1.386,1.129,1.129,0,0,0-1.124.664h-.055V539.4h-.716Z"/>
    <path id="Path_236" data-name="Path 236" d="M121.17,538.471v.945h-.6v.619h.6v2.106c0,.719.328,1.007,1.155,1.007a2.371,2.371,0,0,0,.4-.038V542.5a2.305,2.305,0,0,1-.283.017c-.37,0-.533-.171-.533-.561v-1.918h.816v-.619h-.816v-.945Z"/>
    <path id="Path_237" data-name="Path 237" d="M123.728,543.127h.743V540.95a.875.875,0,0,1,.948-.945c.526,0,.806.3.806.9v2.225h.743V540.72a1.233,1.233,0,0,0-1.3-1.39,1.161,1.161,0,0,0-1.148.668h-.059v-2.055h-.736Z"/>
    <path id="Path_238" data-name="Path 238" d="M129.651,539.953a.9.9,0,0,1,.927.966h-1.9A.958.958,0,0,1,129.651,539.953Zm.923,2.168a.9.9,0,0,1-.9.452.99.99,0,0,1-1-1.069v-.041h2.659v-.256a1.647,1.647,0,0,0-1.681-1.88,1.726,1.726,0,0,0-1.736,1.948,1.7,1.7,0,0,0,1.74,1.924,1.529,1.529,0,0,0,1.632-1.078Z"/>
    <path id="Path_239" data-name="Path 239" d="M64.641,547.748a4.106,4.106,0,0,1,1.964-3.425,4.282,4.282,0,0,0-3.326-1.78c-1.4-.146-2.756.829-3.469.829s-1.825-.815-3.007-.791a4.471,4.471,0,0,0-3.728,2.251c-1.612,2.762-.41,6.822,1.134,9.055.772,1.093,1.675,2.315,2.856,2.271,1.156-.047,1.588-.729,2.983-.729s1.787.729,2.993.7c1.24-.02,2.022-1.1,2.767-2.2a9,9,0,0,0,1.265-2.552A3.979,3.979,0,0,1,64.641,547.748Z"/>
    <path id="Path_241" data-name="Path 241" d="M48.321,563.467l-.383.924Zm95.146-3.788.924.382Zm-3.788,3.788.382.924Zm0-31.934-.383.924Zm3.788,3.788.924-.382ZM54.5,532h79v-2h-79Zm88.5,9.5v12h2v-12ZM133.5,563h-79v2h79ZM45,553.5v-12H43v12Zm9.5,9.5c-1.645,0-2.828,0-3.762-.064a6.337,6.337,0,0,1-2.034-.393l-.765,1.848a8.3,8.3,0,0,0,2.663.54c1.018.07,2.281.069,3.9.069ZM43,553.5c0,1.617,0,2.88.069,3.9a8.287,8.287,0,0,0,.54,2.663l1.848-.765a6.356,6.356,0,0,1-.392-2.034C45,556.328,45,555.144,45,553.5Zm5.7,9.043a6,6,0,0,1-3.247-3.247l-1.848.765a8,8,0,0,0,4.329,4.33ZM143,553.5c0,1.644,0,2.828-.064,3.762a6.337,6.337,0,0,1-.393,2.034l1.848.765a8.293,8.293,0,0,0,.54-2.663c.07-1.018.069-2.281.069-3.9ZM133.5,565c1.617,0,2.88,0,3.9-.069a8.293,8.293,0,0,0,2.663-.54l-.765-1.848a6.338,6.338,0,0,1-2.034.393c-.934.063-2.118.064-3.762.064Zm9.043-5.7a6,6,0,0,1-3.247,3.247l.765,1.848a8,8,0,0,0,4.33-4.33ZM133.5,532c1.644,0,2.828,0,3.762.064a6.338,6.338,0,0,1,2.034.393l.765-1.848a8.293,8.293,0,0,0-2.663-.54c-1.018-.07-2.281-.069-3.9-.069Zm11.5,9.5c0-1.617,0-2.88-.069-3.9a8.293,8.293,0,0,0-.54-2.663l-1.848.765a6.337,6.337,0,0,1,.393,2.034c.063.934.064,2.118.064,3.762Zm-5.7-9.043a6,6,0,0,1,3.247,3.247l1.848-.765a8,8,0,0,0-4.33-4.33ZM54.5,530c-1.617,0-2.88,0-3.9.069a8.3,8.3,0,0,0-2.663.54l.765,1.848a6.337,6.337,0,0,1,2.034-.393C51.672,532,52.855,532,54.5,532ZM45,541.5c0-1.644,0-2.828.064-3.762a6.356,6.356,0,0,1,.392-2.034l-1.848-.765a8.287,8.287,0,0,0-.54,2.663C43,538.62,43,539.883,43,541.5Zm2.938-10.891a8,8,0,0,0-4.329,4.33l1.848.765a6,6,0,0,1,3.247-3.247Z"/>
  </g>
</svg>
