<svg xmlns="http://www.w3.org/2000/svg" width="102" height="32" viewBox="0 0 102 32">
  <g id="Group_109" data-name="Group 109" transform="translate(-178 -60)">
    <g id="Group_108" data-name="Group 108" transform="translate(20 -470)">
      <path id="Path_196" data-name="Path 196" d="M159,536a5,5,0,0,1,5-5h90a5,5,0,0,1,5,5v20a5,5,0,0,1-5,5H164a5,5,0,0,1-5-5Z"/>
      <path id="Path_197" data-name="Path 197" d="M209.471,547.313a3.19,3.19,0,1,0,3.163,3.19A3.125,3.125,0,0,0,209.471,547.313Zm0,5.124a1.94,1.94,0,1,1,1.778-1.933A1.835,1.835,0,0,1,209.471,552.437Zm-6.9-5.124a3.19,3.19,0,1,0,3.163,3.19A3.125,3.125,0,0,0,202.572,547.313Zm0,5.124a1.94,1.94,0,1,1,1.778-1.933A1.835,1.835,0,0,1,202.572,552.437Zm-8.206-4.144v1.353h3.2a2.834,2.834,0,0,1-.728,1.7,3.254,3.254,0,0,1-2.47.991,3.6,3.6,0,0,1,0-7.2,3.383,3.383,0,0,1,2.41.967l.943-.955a4.634,4.634,0,0,0-3.353-1.365,4.954,4.954,0,1,0,0,9.908,4.444,4.444,0,0,0,3.412-1.39,4.506,4.506,0,0,0,1.158-3.166,4.446,4.446,0,0,0-.072-.845h-4.5Zm33.561,1.051a2.935,2.935,0,0,0-2.7-2.031,3.015,3.015,0,0,0-2.972,3.19,3.134,3.134,0,0,0,5.753,1.776l-1.074-.725a1.794,1.794,0,0,1-1.552.882,1.6,1.6,0,0,1-1.527-.967l4.212-1.764Zm-4.3,1.063a1.74,1.74,0,0,1,1.647-1.861,1.221,1.221,0,0,1,1.17.677Zm-3.424,3.093h1.383v-9.376h-1.383Zm-2.269-5.473h-.047a2.17,2.17,0,0,0-1.659-.714,3.2,3.2,0,0,0,0,6.381,2.138,2.138,0,0,0,1.659-.725h.047v.459c0,1.22-.644,1.873-1.682,1.873a1.745,1.745,0,0,1-1.587-1.136l-1.205.508a3,3,0,0,0,2.792,1.885c1.623,0,3-.967,3-3.323v-5.727h-1.313v.519Zm-1.586,4.41a1.943,1.943,0,0,1,0-3.867,1.952,1.952,0,0,1,0,3.867Zm18.06-8.313H231.1V553.5h1.381v-3.552h1.93a2.915,2.915,0,1,0,0-5.824Zm.035,4.519h-1.966v-3.214h1.966a1.607,1.607,0,1,1,0,3.214Zm8.543-1.346a2.588,2.588,0,0,0-2.466,1.435l1.226.519a1.306,1.306,0,0,1,1.263-.688,1.336,1.336,0,0,1,1.454,1.206v.1a3.031,3.031,0,0,0-1.442-.362c-1.322,0-2.669.736-2.669,2.111a2.149,2.149,0,0,0,2.3,2.062,1.942,1.942,0,0,0,1.763-.917h.048v.724H245.8v-3.6A2.553,2.553,0,0,0,242.99,547.3Zm-.168,5.138c-.452,0-1.084-.229-1.084-.8,0-.724.787-1,1.466-1a2.439,2.439,0,0,1,1.263.314A1.684,1.684,0,0,1,242.822,552.435Zm7.839-4.933-1.584,4.065h-.047l-1.645-4.065H245.9l2.466,5.681-1.406,3.16H248.4l3.8-8.841Zm-12.449,6h1.382v-9.376h-1.382Z" fill="#fff"/>
      <path id="Path_198" data-name="Path 198" d="M194.124,538.682a2.044,2.044,0,0,1-.551,1.5,2.141,2.141,0,0,1-1.633.666,2.226,2.226,0,0,1-1.636-.675,2.42,2.42,0,0,1,0-3.349,2.223,2.223,0,0,1,1.636-.676,2.274,2.274,0,0,1,.912.188,1.844,1.844,0,0,1,.695.5l-.391.4a1.492,1.492,0,0,0-1.217-.534,1.68,1.68,0,0,0-1.214.5,1.9,1.9,0,0,0,0,2.595,1.754,1.754,0,0,0,2.456,0,1.422,1.422,0,0,0,.372-.911h-1.614v-.541h2.154A1.845,1.845,0,0,1,194.124,538.682Z" fill="#fff"/>
      <path id="Path_199" data-name="Path 199" d="M197.539,536.8h-2.023v1.426h1.825v.541h-1.825V540.2h2.023v.554h-2.594v-4.5h2.594Z" fill="#fff"/>
      <path id="Path_200" data-name="Path 200" d="M199.947,540.75h-.571V536.8h-1.241v-.553h3.054v.553h-1.242Z" fill="#fff"/>
      <path id="Path_201" data-name="Path 201" d="M203.4,540.75v-4.5h.572v4.5Z" fill="#fff"/>
      <path id="Path_202" data-name="Path 202" d="M206.5,540.75h-.571V536.8H204.69v-.553h3.054v.553H206.5Z" fill="#fff"/>
      <path id="Path_203" data-name="Path 203" d="M213.525,540.169a2.289,2.289,0,0,1-3.258,0,2.454,2.454,0,0,1,0-3.338,2.279,2.279,0,0,1,3.255,0,2.446,2.446,0,0,1,0,3.335Zm-2.837-.378a1.694,1.694,0,0,0,2.415,0,1.935,1.935,0,0,0,0-2.583,1.7,1.7,0,0,0-2.415,0,1.938,1.938,0,0,0,0,2.583Z" fill="#fff"/>
      <path id="Path_204" data-name="Path 204" d="M214.981,540.75v-4.5h.695l2.16,3.5h.025l-.025-.867V536.25h.571v4.5h-.6l-2.26-3.671h-.024l.024.867v2.8Z" fill="#fff"/>
      <path id="Path_205" data-name="Path 205" d="M194.124,538.682a2.044,2.044,0,0,1-.551,1.5,2.141,2.141,0,0,1-1.633.666,2.226,2.226,0,0,1-1.636-.675,2.42,2.42,0,0,1,0-3.349,2.223,2.223,0,0,1,1.636-.676,2.274,2.274,0,0,1,.912.188,1.844,1.844,0,0,1,.695.5l-.391.4a1.492,1.492,0,0,0-1.217-.534,1.68,1.68,0,0,0-1.214.5,1.9,1.9,0,0,0,0,2.595,1.754,1.754,0,0,0,2.456,0,1.422,1.422,0,0,0,.372-.911h-1.614v-.541h2.154A1.845,1.845,0,0,1,194.124,538.682Z" fill="none" stroke="#fff" stroke-miterlimit="10" stroke-width="0.2"/>
      <path id="Path_206" data-name="Path 206" d="M197.539,536.8h-2.023v1.426h1.825v.541h-1.825V540.2h2.023v.554h-2.594v-4.5h2.594Z" fill="none" stroke="#fff" stroke-miterlimit="10" stroke-width="0.2"/>
      <path id="Path_207" data-name="Path 207" d="M199.947,540.75h-.571V536.8h-1.241v-.553h3.054v.553h-1.242Z" fill="none" stroke="#fff" stroke-miterlimit="10" stroke-width="0.2"/>
      <path id="Path_208" data-name="Path 208" d="M203.4,540.75v-4.5h.572v4.5Z" fill="none" stroke="#fff" stroke-miterlimit="10" stroke-width="0.2"/>
      <path id="Path_209" data-name="Path 209" d="M206.5,540.75h-.571V536.8H204.69v-.553h3.054v.553H206.5Z" fill="none" stroke="#fff" stroke-miterlimit="10" stroke-width="0.2"/>
      <path id="Path_210" data-name="Path 210" d="M213.525,540.169a2.289,2.289,0,0,1-3.258,0,2.454,2.454,0,0,1,0-3.338,2.279,2.279,0,0,1,3.255,0,2.446,2.446,0,0,1,0,3.335Zm-2.837-.378a1.694,1.694,0,0,0,2.415,0,1.935,1.935,0,0,0,0-2.583,1.7,1.7,0,0,0-2.415,0,1.938,1.938,0,0,0,0,2.583Z" fill="none" stroke="#fff" stroke-miterlimit="10" stroke-width="0.2"/>
      <path id="Path_211" data-name="Path 211" d="M214.981,540.75v-4.5h.695l2.16,3.5h.025l-.025-.867V536.25h.571v4.5h-.6l-2.26-3.671h-.024l.024.867v2.8Z" fill="none" stroke="#fff" stroke-miterlimit="10" stroke-width="0.2"/>
      <g id="Group_93" data-name="Group 93">
        <path id="Path_212" data-name="Path 212" d="M166.73,536.654a1.515,1.515,0,0,0-.343,1.053v16.587a1.516,1.516,0,0,0,.343,1.054l.055.054,9.177-9.292v-.219l-9.177-9.292Z" fill="#00d0fb"/>
        <path id="Path_213" data-name="Path 213" d="M179.021,549.209l-3.059-3.1v-.219l3.059-3.1.069.04,3.625,2.085a1.144,1.144,0,0,1,0,2.166l-3.625,2.085Z" fill="#fed200"/>
        <g id="Group_92" data-name="Group 92">
          <path id="Path_214" data-name="Path 214" d="M179.09,549.169,175.962,546l-9.232,9.347a1.194,1.194,0,0,0,1.54.046Z" fill="#f23049"/>
        </g>
        <path id="Path_215" data-name="Path 215" d="M179.09,542.833l-10.82-6.225a1.194,1.194,0,0,0-1.54.046L175.962,546Z" fill="#00ec73"/>
      </g>
      <path id="Path_216" data-name="Path 216" d="M164,532h90v-2H164Zm94,4v20h2V536Zm-4,24H164v2h90Zm-94-4V536h-2v20Zm4,4a4,4,0,0,1-4-4h-2a6,6,0,0,0,6,6Zm94-4a4,4,0,0,1-4,4v2a6,6,0,0,0,6-6Zm-4-24a4,4,0,0,1,4,4h2a6,6,0,0,0-6-6Zm-90-2a6,6,0,0,0-6,6h2a4,4,0,0,1,4-4Z" fill="#a6a6a6"/>
    </g>
  </g>
</svg>
