<svg xmlns="http://www.w3.org/2000/svg" width="230.806" height="68.67" viewBox="0 0 230.806 68.67">
  <g id="Group_115" data-name="Group 115" transform="translate(-340 -1175)">
    <path id="Path_147" data-name="Path 147" d="M562.258,1243.67H348.548a8.6,8.6,0,0,1-8.548-8.59v-51.5a8.589,8.589,0,0,1,8.548-8.58h213.71a8.588,8.588,0,0,1,8.548,8.58v51.5A8.6,8.6,0,0,1,562.258,1243.67Z"/>
    <path id="Path_148" data-name="Path 148" d="M562.258,1175H348.548a8.589,8.589,0,0,0-8.548,8.58v51.5a8.6,8.6,0,0,0,8.548,8.59h213.71a8.6,8.6,0,0,0,8.548-8.59v-51.5A8.588,8.588,0,0,0,562.258,1175Zm0,1.37a7.207,7.207,0,0,1,7.181,7.21v51.5a7.2,7.2,0,0,1-7.181,7.21H348.548a7.2,7.2,0,0,1-7.18-7.21v-51.5a7.207,7.207,0,0,1,7.18-7.21Z" fill="#a6a6a6"/>
    <path id="Path_149" data-name="Path 149" d="M421.07,1192.58a4.653,4.653,0,0,1-1.274,3.44,4.952,4.952,0,0,1-3.768,1.53,5.38,5.38,0,1,1,0-10.76,5.236,5.236,0,0,1,2.106.43,4.249,4.249,0,0,1,1.6,1.15l-.9.9a3.469,3.469,0,0,0-2.808-1.22,3.869,3.869,0,0,0-2.8,1.15,4.322,4.322,0,0,0,0,5.94,4.078,4.078,0,0,0,5.667-.01,3.242,3.242,0,0,0,.86-2.09h-3.725v-1.23H421A4.34,4.34,0,0,1,421.07,1192.58Z" fill="#fff"/>
    <path id="Path_150" data-name="Path 150" d="M421.07,1192.58H420.9a4.488,4.488,0,0,1-1.223,3.32h0a4.794,4.794,0,0,1-3.645,1.48,5.245,5.245,0,0,1-3.655-8.92,4.941,4.941,0,0,1,3.655-1.5,5.076,5.076,0,0,1,2.038.42,4.011,4.011,0,0,1,1.541,1.1l.131-.11-.121-.12-.9.9.121.12.132-.11a3.655,3.655,0,0,0-2.94-1.28,4.073,4.073,0,0,0-2.92,1.19,4.5,4.5,0,0,0,0,6.19,4.246,4.246,0,0,0,5.906-.01,3.4,3.4,0,0,0,.909-2.19l.016-.19H416.2v-.89H421v-.17l-.169.03a4.184,4.184,0,0,1,.069.74h.342a4.492,4.492,0,0,0-.074-.8l-.025-.14h-5.285v1.58h3.9v-.18l-.17-.01a3.106,3.106,0,0,1-.811,1.98,3.9,3.9,0,0,1-5.427,0,3.945,3.945,0,0,1,2.683-6.79,3.3,3.3,0,0,1,2.677,1.17l.121.14,1.033-1.04.11-.11-.1-.12a4.467,4.467,0,0,0-1.668-1.2,5.4,5.4,0,0,0-2.173-.45,5.555,5.555,0,0,0,0,11.11,5.148,5.148,0,0,0,3.892-1.58l-.124-.12.121.12a4.806,4.806,0,0,0,1.324-3.56Z" fill="#fff"/>
    <path id="Path_151" data-name="Path 151" d="M428.951,1188.28h-4.672v3.27h4.213v1.24h-4.213v3.26h4.672v1.27h-5.989v-10.3h5.989Z" fill="#fff"/>
    <path id="Path_152" data-name="Path 152" d="M428.95,1188.28v-.17h-4.842v3.61h4.213v.89h-4.213v3.61h4.672v.93h-5.647v-9.96h5.647v1.09h.17v0h.171v-1.43h-6.33v10.64h6.33v-1.61H424.45v-2.92h4.213v-1.58H424.45v-2.93h4.671v-.17Z" fill="#fff"/>
    <path id="Path_153" data-name="Path 153" d="M434.509,1197.32H433.19v-9.04h-2.865v-1.26h7.049v1.26h-2.865Z" fill="#fff"/>
    <path id="Path_154" data-name="Path 154" d="M434.509,1197.32v-.17h-1.148v-9.04H430.5v-.92H437.2v.92h-2.865v9.21h.171v0h.171v-8.87h2.865v-1.6h-7.391v1.6h2.865v9.04h1.661v-.17Z" fill="#fff"/>
    <path id="Path_155" data-name="Path 155" d="M442.474,1197.32v-10.3h1.318v10.3Z" fill="#fff"/>
    <path id="Path_156" data-name="Path 156" d="M442.474,1197.32h.171v-10.13h.976v9.96h-1.147v.17h0v.17h1.489v-10.64H442.3v10.64h.171Z" fill="#fff"/>
    <path id="Path_157" data-name="Path 157" d="M449.639,1197.32H448.32v-9.04h-2.865v-1.26H452.5v1.26h-2.865Z" fill="#fff"/>
    <path id="Path_158" data-name="Path 158" d="M449.639,1197.32v-.17h-1.148v-9.04h-2.865v-.92h6.707v.92h-2.865v9.21h.171v0h.171v-8.87h2.865v-1.6h-7.391v1.6h2.865v9.04h1.661v-.17Z" fill="#fff"/>
    <path id="Path_159" data-name="Path 159" d="M459.3,1195.12a3.927,3.927,0,0,0,5.573,0,4.4,4.4,0,0,0,0-5.91,3.927,3.927,0,0,0-5.573,0,4.4,4.4,0,0,0,0,5.91Zm6.548.87a5.312,5.312,0,0,1-7.521,0,5.584,5.584,0,0,1,0-7.64,5.305,5.305,0,0,1,7.515,0,5.574,5.574,0,0,1,.006,7.64Z" fill="#fff"/>
    <path id="Path_160" data-name="Path 160" d="M459.3,1195.12l-.121.12a4.1,4.1,0,0,0,5.816,0,4.568,4.568,0,0,0,0-6.15,4.1,4.1,0,0,0-5.816,0,4.571,4.571,0,0,0,0,6.15l.121-.12.122-.12a4.232,4.232,0,0,1,0-5.67,3.754,3.754,0,0,1,5.33,0,4.232,4.232,0,0,1,0,5.67,3.754,3.754,0,0,1-5.33,0Zm6.548.87-.122-.12a5.139,5.139,0,0,1-7.277,0l0-.01,0,.01a5.413,5.413,0,0,1,0-7.4,5.13,5.13,0,0,1,7.27,0,5.4,5.4,0,0,1,.007,7.4l.122.12.123.12a5.733,5.733,0,0,0-.007-7.87,5.445,5.445,0,0,0-7.76-.01h0a5.758,5.758,0,0,0,0,7.88h0a5.489,5.489,0,0,0,7.767,0Z" fill="#fff"/>
    <path id="Path_161" data-name="Path 161" d="M469.209,1197.32v-10.3h1.6l4.985,8.01h.057l-.057-1.99v-6.02h1.319v10.3h-1.376l-5.216-8.4h-.056l.056,1.98v6.42Z" fill="#fff"/>
    <path id="Path_162" data-name="Path 162" d="M469.21,1197.32h.171v-10.13h1.338l4.985,8.01h.327l-.061-2.16v-5.85h.977v9.96h-1.11l-5.216-8.41h-.327l.062,2.16v6.25H469.21v.17h0v.17H470.7v-6.59l-.056-1.99-.171.01v.17h.056v-.17l-.144.09,5.265,8.48h1.642v-10.64h-1.661v6.2l.057,1.98h.171v-.17H475.8v.17l.145-.09-5.036-8.09h-1.869v10.64h.171Z" fill="#fff"/>
    <path id="Path_163" data-name="Path 163" d="M522.826,1226.5h3.19v-21.46h-3.19Zm28.735-13.73-3.657,9.3h-.11l-3.795-9.3h-3.437l5.692,13-3.245,7.24h3.329l8.77-20.24Zm-18.092,11.29c-1.047,0-2.5-.52-2.5-1.82,0-1.66,1.815-2.29,3.382-2.29a5.61,5.61,0,0,1,2.915.72A3.875,3.875,0,0,1,533.469,1224.06Zm.384-11.76a5.979,5.979,0,0,0-5.691,3.29l2.831,1.18a3.029,3.029,0,0,1,2.915-1.57c1.65,0,3.327.99,3.355,2.76v.22a7.046,7.046,0,0,0-3.328-.83c-3.051,0-6.159,1.69-6.159,4.83,0,2.88,2.5,4.73,5.306,4.73a4.5,4.5,0,0,0,4.071-2.1h.11v1.65h3.079v-8.22C540.342,1214.43,537.51,1212.3,533.853,1212.3Zm-19.716,3.08H509.6v-7.35h4.537a3.676,3.676,0,1,1,0,7.35Zm-.082-10.34h-7.644v21.46H509.6v-8.13h4.455a6.674,6.674,0,1,0,0-13.33Zm-41.683,19.03a4.442,4.442,0,0,1,0-8.85c2.176,0,3.883,1.88,3.883,4.45C476.255,1222.21,474.548,1224.07,472.372,1224.07Zm3.663-10.1h-.11a5.021,5.021,0,0,0-3.829-1.63,7.308,7.308,0,0,0,0,14.6,4.933,4.933,0,0,0,3.829-1.66h.11v1.05c0,2.8-1.487,4.29-3.884,4.29a4.025,4.025,0,0,1-3.663-2.6l-2.782,1.16a6.93,6.93,0,0,0,6.445,4.32c3.746,0,6.914-2.22,6.914-7.61v-13.11h-3.03Zm5.233,12.53h3.2v-21.46h-3.2Zm7.9-7.08a4,4,0,0,1,3.8-4.26,2.817,2.817,0,0,1,2.7,1.55Zm9.916-2.43a6.755,6.755,0,0,0-6.225-4.65c-3.746,0-6.858,2.96-6.858,7.3a7.131,7.131,0,0,0,7.216,7.3,7.222,7.222,0,0,0,6.06-3.23l-2.479-1.66a4.166,4.166,0,0,1-3.581,2.02,3.7,3.7,0,0,1-3.526-2.22l9.723-4.03Zm-77.463-2.41v3.1h7.382a6.5,6.5,0,0,1-1.68,3.9,7.536,7.536,0,0,1-5.7,2.27,8.246,8.246,0,0,1,0-16.49,7.867,7.867,0,0,1,5.564,2.21l2.176-2.18a10.741,10.741,0,0,0-7.74-3.13,11.341,11.341,0,1,0,0,22.68,10.014,10.014,0,0,0,10.55-10.42,10.09,10.09,0,0,0-.166-1.94Zm18.942,9.49a4.438,4.438,0,1,1,4.1-4.43A4.221,4.221,0,0,1,440.568,1224.07Zm0-11.73a7.3,7.3,0,1,0,7.3,7.3A7.182,7.182,0,0,0,440.568,1212.34Zm15.922,11.73a4.438,4.438,0,1,1,4.1-4.43A4.221,4.221,0,0,1,456.49,1224.07Zm0-11.73a7.3,7.3,0,1,0,7.3,7.3A7.181,7.181,0,0,0,456.49,1212.34Z" fill="#fff"/>
    <path id="Path_164" data-name="Path 164" d="M357.968,1230.6l-.127-.12a3.45,3.45,0,0,1-.791-2.41V1190.6a3.306,3.306,0,0,1,.916-2.53l21.183,21.27Zm-.918-40.26c0-.09,0-.18.007-.28C357.053,1190.15,357.05,1190.25,357.05,1190.34Zm.007-.28h0Zm0-.01Z" fill="#00ccf7"/>
    <path id="Path_165" data-name="Path 165" d="M386.209,1216.68l.161-.09,8.365-4.78a3.613,3.613,0,0,0,1.594-1.59,3.608,3.608,0,0,1-1.594,1.59l-8.365,4.78Zm0-.25-7.062-7.1,7.061-7.09,8.525,4.87a3.179,3.179,0,0,1,1.792,2.22v.01a3.179,3.179,0,0,1-1.792,2.22Z" fill="#fccc00"/>
    <path id="Path_166" data-name="Path 166" d="M359.478,1231.41a2.172,2.172,0,0,1-1.51-.56h0a2.177,2.177,0,0,0,1.512.56h0Zm0-.25a2.174,2.174,0,0,1-1.511-.56h0l21.181-21.27,7.062,7.1-24.817,14.15A3.838,3.838,0,0,1,359.479,1231.16Zm-1.517-.31a1.036,1.036,0,0,1-.11-.11Z" fill="#f33244"/>
    <path id="Path_167" data-name="Path 167" d="M379.149,1209.33l-21.183-21.26a2.173,2.173,0,0,1,1.51-.56,3.85,3.85,0,0,1,1.918.58l24.816,14.15Zm7.221-7.25-24.976-14.24a3.85,3.85,0,0,0-1.918-.58h0a3.841,3.841,0,0,1,1.916.58Z" fill="#00ee74"/>
    <path id="Path_168" data-name="Path 168" d="M359.636,1231.41a4.137,4.137,0,0,0,1.758-.57l24.815-14.16-24.815,14.16A4.137,4.137,0,0,1,359.636,1231.41Zm-1.668-.56h0Zm-.116-.11-.011-.01h0S357.849,1230.74,357.852,1230.74Z"/>
    <path id="Path_169" data-name="Path 169" d="M386.209,1216.68l.161-.09Z" fill="#fff"/>
    <path id="Path_170" data-name="Path 170" d="M359.48,1231.41a2.177,2.177,0,0,1-1.512-.56h-.006l-.11-.11s-.007-.01-.011-.01l.127-.13a2.174,2.174,0,0,0,1.511.56,3.838,3.838,0,0,0,1.915-.58l24.817-14.15.159.16-.161.09-24.815,14.16a4.137,4.137,0,0,1-1.758.57Z" fill="#fff"/>
    <path id="Path_171" data-name="Path 171" d="M357.841,1230.73a3.45,3.45,0,0,1-.791-2.41h0a3.45,3.45,0,0,0,.791,2.41Z"/>
    <path id="Path_172" data-name="Path 172" d="M357.841,1230.73a3.45,3.45,0,0,1-.791-2.41v-.25a3.45,3.45,0,0,0,.791,2.41l.127.12Z" fill="#fff"/>
    <path id="Path_173" data-name="Path 173" d="M357.841,1230.73l.127-.13h0Z" fill="#fff"/>
    <path id="Path_174" data-name="Path 174" d="M396.329,1210.22a2.094,2.094,0,0,0,.2-.88h0A2.129,2.129,0,0,1,396.329,1210.22Z"/>
    <path id="Path_175" data-name="Path 175" d="M386.37,1216.59l-.159-.16,8.524-4.87a3.179,3.179,0,0,0,1.792-2.22,2.094,2.094,0,0,1-.2.88,3.613,3.613,0,0,1-1.594,1.59Z" fill="#fff"/>
    <path id="Path_176" data-name="Path 176" d="M396.527,1209.33h0a3.015,3.015,0,0,0-1.792-2.47l-8.365-4.78h0l8.365,4.78A3.007,3.007,0,0,1,396.527,1209.33Z" fill="#404040"/>
    <path id="Path_177" data-name="Path 177" d="M396.527,1209.33a3.2,3.2,0,0,0-1.792-2.22l-8.525-4.87.159-.16h0l8.365,4.78A3.015,3.015,0,0,1,396.527,1209.33Z" fill="#fff"/>
    <path id="Path_178" data-name="Path 178" d="M357.05,1190.34Zm.007-.28Zm0,0v0Zm0-.01c.1-1.77,1.054-2.79,2.4-2.79a2.138,2.138,0,0,0-1.5.56h0c-.042.04-.082.08-.122.12A3.282,3.282,0,0,0,357.058,1190.05Z" fill="#404040"/>
    <path id="Path_179" data-name="Path 179" d="M357.05,1190.6v-.26h0c0-.09,0-.19.007-.28h0v-.01h0a3.282,3.282,0,0,1,.783-2.11l.125.13A3.306,3.306,0,0,0,357.05,1190.6Zm.913-2.78h0Z" fill="#fff"/>
    <path id="Path_180" data-name="Path 180" d="M386.21,1202.24l-24.816-14.15a3.85,3.85,0,0,0-1.918-.58,2.173,2.173,0,0,0-1.51.56l-.125-.13c.04-.04.08-.08.122-.12h0a2.138,2.138,0,0,1,1.5-.56h.013a3.85,3.85,0,0,1,1.918.58l24.976,14.24h0Z" fill="#fff"/>
  </g>
</svg>
