<svg xmlns="http://www.w3.org/2000/svg" width="23" height="18.68" viewBox="0 0 23 18.68">
  <path id="Path_98" data-name="Path 98" d="M359,1403.37a9.98,9.98,0,0,1-2.717.74,4.676,4.676,0,0,0,2.074-2.6,9.633,9.633,0,0,1-2.99,1.14,4.716,4.716,0,0,0-8.156,3.22,4.884,4.884,0,0,0,.109,1.08,13.349,13.349,0,0,1-9.719-4.93,4.715,4.715,0,0,0,1.449,6.3,4.81,4.81,0,0,1-2.13-.58v.05a4.736,4.736,0,0,0,3.778,4.63,4.5,4.5,0,0,1-1.237.16,4.383,4.383,0,0,1-.892-.08,4.759,4.759,0,0,0,4.406,3.28,9.442,9.442,0,0,1-5.847,2.01,8.386,8.386,0,0,1-1.128-.06,13.428,13.428,0,0,0,20.654-11.3c0-.21-.007-.41-.017-.61A9.571,9.571,0,0,0,359,1403.37Z" transform="translate(-336 -1401.16)" fill="#fff"/>
</svg>
