<svg xmlns="http://www.w3.org/2000/svg" width="26.666" height="25.333" viewBox="0 0 26.666 25.333">
  <path id="Path_191" data-name="Path 191" d="M252.667,371H249.76a3.99,3.99,0,0,0-7.093-3.533l-.667.893-.667-.907A3.992,3.992,0,0,0,234.24,371h-2.907a2.646,2.646,0,0,0-2.653,2.667l-.013,14.666A2.657,2.657,0,0,0,231.333,391h21.334a2.657,2.657,0,0,0,2.666-2.667V373.667A2.657,2.657,0,0,0,252.667,371ZM246,368.333a1.333,1.333,0,1,1-1.333,1.334A1.337,1.337,0,0,1,246,368.333Zm-8,0a1.333,1.333,0,1,1-1.333,1.334A1.337,1.337,0,0,1,238,368.333Zm14.667,20H231.333v-2.666h21.334Zm0-6.666H231.333v-8h6.774l-2.774,3.773,2.16,1.56,3.174-4.32L242,372.867l1.333,1.813,3.174,4.32,2.16-1.56-2.774-3.773h6.774Z" transform="translate(-228.667 -365.667)" fill="#173f5f"/>
</svg>
