<svg xmlns="http://www.w3.org/2000/svg" width="23" height="23" viewBox="0 0 23 23">
  <g id="Group_116" data-name="Group 116" transform="translate(-391 -1399)">
    <path id="Path_100" data-name="Path 100" d="M406.812,1399h-8.624a7.19,7.19,0,0,0-7.188,7.19v8.62a7.19,7.19,0,0,0,7.188,7.19h8.624a7.19,7.19,0,0,0,7.188-7.19v-8.62A7.19,7.19,0,0,0,406.812,1399Zm5.032,15.81a5.032,5.032,0,0,1-5.032,5.03h-8.624a5.032,5.032,0,0,1-5.032-5.03v-8.62a5.032,5.032,0,0,1,5.032-5.03h8.624a5.032,5.032,0,0,1,5.032,5.03Z" fill="#fff"/>
    <path id="Path_101" data-name="Path 101" d="M402.5,1404.75a5.75,5.75,0,1,0,5.75,5.75A5.748,5.748,0,0,0,402.5,1404.75Zm0,9.34a3.59,3.59,0,1,1,3.594-3.59A3.6,3.6,0,0,1,402.5,1414.09Z" fill="#fff"/>
    <path id="Path_102" data-name="Path 102" d="M408.681,1405.09a.77.77,0,1,0-.766-.77A.771.771,0,0,0,408.681,1405.09Z" fill="#fff"/>
  </g>
</svg>
