<svg xmlns="http://www.w3.org/2000/svg" width="24" height="24" viewBox="0 0 24 24">
  <g id="Group_104" data-name="Group 104" transform="translate(-268 -26)">
    <rect id="Rectangle_46" data-name="Rectangle 46" width="24" height="24" transform="translate(268 26)" fill="#fff"/>
    <circle id="Ellipse_6" data-name="Ellipse 6" cx="10" cy="10" r="10" transform="translate(270 28)" fill="#c13584"/>
    <path id="Path_181" data-name="Path 181" d="M280,33.081c1.6,0,1.792.006,2.425.035a3.319,3.319,0,0,1,1.114.207,1.982,1.982,0,0,1,1.138,1.139,3.3,3.3,0,0,1,.207,1.114c.029.633.035.822.035,2.424s-.006,1.792-.035,2.424a3.3,3.3,0,0,1-.207,1.114,1.982,1.982,0,0,1-1.138,1.139,3.322,3.322,0,0,1-1.114.207c-.633.029-.823.035-2.425.035s-1.792-.006-2.425-.035a3.322,3.322,0,0,1-1.114-.207,1.982,1.982,0,0,1-1.138-1.139,3.3,3.3,0,0,1-.207-1.114c-.029-.633-.035-.822-.035-2.424s.006-1.792.035-2.424a3.3,3.3,0,0,1,.207-1.114,1.982,1.982,0,0,1,1.138-1.139,3.319,3.319,0,0,1,1.114-.207C278.208,33.087,278.4,33.081,280,33.081ZM280,32c-1.63,0-1.834.007-2.474.036a4.4,4.4,0,0,0-1.456.279,3.067,3.067,0,0,0-1.755,1.755,4.407,4.407,0,0,0-.279,1.456c-.029.64-.036.844-.036,2.474s.007,1.834.036,2.474a4.407,4.407,0,0,0,.279,1.456,3.067,3.067,0,0,0,1.755,1.755,4.4,4.4,0,0,0,1.456.279c.64.029.844.036,2.474.036s1.834-.007,2.474-.036a4.4,4.4,0,0,0,1.456-.279,3.067,3.067,0,0,0,1.755-1.755,4.407,4.407,0,0,0,.279-1.456c.029-.64.036-.844.036-2.474s-.007-1.834-.036-2.474a4.407,4.407,0,0,0-.279-1.456,3.067,3.067,0,0,0-1.755-1.755,4.4,4.4,0,0,0-1.456-.279C281.834,32.007,281.63,32,280,32Z" fill="#fff"/>
    <path id="Path_182" data-name="Path 182" d="M280,34.922A3.081,3.081,0,1,0,283.084,38,3.081,3.081,0,0,0,280,34.922ZM280,40a2,2,0,1,1,2-2A2,2,0,0,1,280,40Z" fill="#fff"/>
    <path id="Path_183" data-name="Path 183" d="M283.925,34.8a.72.72,0,1,1-.72-.72A.72.72,0,0,1,283.925,34.8Z" fill="#fff"/>
  </g>
</svg>
