<svg width="582" height="400" viewBox="0 0 582 400" fill="none" xmlns="http://www.w3.org/2000/svg">
<path d="M60.7433 142.627C82.2898 143.615 103.762 145.838 125.053 149.287C163.007 155.407 200.26 165.279 236.264 178.757C254.01 185.423 271.411 192.92 288.464 201.247C304.964 209.337 321.544 217.977 336.874 228.187C351.541 228.28 366.191 228.307 380.824 228.267C363.894 212.657 345.114 199.447 325.324 187.627C284.951 163.552 242.688 142.797 198.954 125.567C156.346 108.58 112.193 95.7602 67.1133 87.2867C49.1132 93.2401 31.3932 100.017 13.9531 107.617C28.1084 116.043 41.4935 125.7 53.9532 136.477C56.2633 138.507 58.5133 140.557 60.7433 142.627Z" fill="#FFF200"/>
<path d="M220.621 84.2867C255.201 100.607 289.111 118.677 320.971 139.877C336.343 150.089 351.155 161.122 365.341 172.927C378.341 183.747 391.871 195.277 402.851 208.337C404.441 202.727 405.701 197.007 406.851 191.247C400.971 183.787 395.231 176.247 389.021 169.027C381.581 160.36 373.788 152.027 365.641 144.027C336.616 115.429 303.607 91.1776 267.641 72.0267C249.648 62.438 230.974 54.1858 211.771 47.3367C193.356 40.9204 174.547 35.6962 155.461 31.6967C160.916 41.2564 165.707 51.1798 169.801 61.3967C187.121 67.5967 204.051 76.4467 220.621 84.2867Z" fill="#F7941E"/>
<path d="M273.55 157.167C294.35 167.747 314.94 178.927 334.72 191.317C351.85 202.057 368.55 213.997 382.95 228.317H395.26C395.41 228.017 395.55 227.717 395.7 227.407C382.105 211.217 366.754 196.588 349.93 183.787C316.2 157.787 279.13 136.127 240.93 117.427C204.11 99.3768 165.93 84.1868 127.22 70.7368C113.05 73.4268 99.03 77.6568 85.59 81.6068C80.71 83.0368 75.84 84.6068 71 86.1168C94.866 90.6566 118.47 96.4784 141.71 103.557C187.26 117.287 231.26 135.647 273.55 157.167Z" fill="#F7941E"/>
<path d="M306.992 151.637C325.074 162.795 342.442 175.072 358.992 188.397C372.622 199.547 385.692 211.767 396.532 225.707C397.712 223.167 398.762 220.597 399.732 217.987C384.392 203.157 370.102 187.707 353.462 174.197C324.712 150.877 293.072 131.197 260.462 113.727C243.712 104.727 226.671 96.2567 209.461 88.0667C195.631 81.4667 181.031 75.7267 167.411 68.5567C166.975 68.6536 166.525 68.6739 166.081 68.6167C154.521 67.2267 142.821 68.0167 131.211 69.9567C151.211 76.9567 171.041 84.4167 190.611 92.5267C230.901 109.177 270.102 128.487 306.992 151.637Z" fill="#FFF200"/>
<path d="M108.513 226.207C137.088 220.384 166.324 218.48 195.413 220.547C211.413 221.677 227.343 223.547 243.293 225.167C251.453 225.997 259.653 226.677 267.783 227.847C274.173 228.757 280.783 229.987 286.783 232.517C287.807 231.073 289.223 229.952 290.863 229.287C288.083 228.057 285.323 226.787 282.553 225.647C273.833 222.047 265.023 218.657 256.123 215.477C237.943 208.977 219.583 203.107 200.883 198.257C165.113 188.987 128.093 181.357 91.0128 184.637C90.7955 185.081 90.477 185.468 90.0828 185.767C71.6228 199.857 56.5428 217.617 46.8828 238.657C53.8351 237.908 60.8205 237.507 67.8128 237.457C73.4228 235.307 79.2528 233.627 84.9828 231.977C92.7561 229.757 100.599 227.833 108.513 226.207Z" fill="#FFF200"/>
<path d="M120.263 244.597C125.013 243.657 130.113 243.367 134.463 242.697C141.943 241.537 149.463 240.487 156.953 239.697C171.826 238.09 186.753 236.953 201.733 236.287C217.233 235.647 232.733 235.507 248.273 235.957C256.033 236.177 263.783 236.54 271.523 237.047C275.873 237.337 280.783 237.297 285.313 238.167C285.258 237.585 285.258 236.999 285.313 236.417C285.417 235.455 285.677 234.516 286.083 233.637C278.17 231.373 270.082 229.778 261.903 228.867C252.963 227.867 244.003 227.067 235.053 226.187C205.393 223.257 176.053 220.297 146.223 222.787C131.78 224.002 117.437 226.201 103.293 229.367C93.5027 231.557 84.0027 234.567 74.4727 237.497C89.3185 237.833 104.079 239.846 118.473 243.497C119.161 243.688 119.781 244.069 120.263 244.597Z" fill="#F7941E"/>
<path d="M201.262 264.157C217.502 264.337 233.782 264.887 249.992 265.907C279.222 267.747 309.492 271.157 337.522 280.427C332.315 276.787 327.112 273.137 321.912 269.477C313.285 263.397 304.655 257.31 296.022 251.217C293.594 249.614 291.312 247.8 289.202 245.797C282.892 247.177 275.412 245.617 269.112 245.257C261.732 244.843 254.349 244.55 246.962 244.377C232.195 244.017 217.422 244.13 202.642 244.717C187.135 245.383 171.662 246.557 156.222 248.237C148.872 249.047 141.512 249.857 134.222 250.837C129.432 251.477 124.072 253.007 118.972 253.377C113.932 261.85 109.082 270.437 104.422 279.137C121.252 275.397 138.212 272.137 155.092 268.717C170.272 265.534 185.752 264.005 201.262 264.157Z" fill="#FFF200"/>
<path d="M326.961 107.907C343.026 120.189 358.167 133.635 372.261 148.137C384.641 160.917 396.941 174.517 407.171 189.217C408.051 184.427 408.831 179.607 409.591 174.797C406.921 172.567 405.121 169.297 402.921 166.407C399.388 161.793 395.768 157.257 392.061 152.797C384.435 143.597 376.391 134.757 367.931 126.277C338.16 96.4708 303.783 71.6531 266.121 52.7768C245.021 42.2068 222.911 33.8368 200.461 26.6168C189.221 22.9968 177.891 19.6168 166.521 16.4368C158.331 14.1168 149.431 12.4368 141.191 9.61676C145.897 15.8873 150.19 22.4579 154.041 29.2868C154.079 29.3446 154.112 29.4047 154.141 29.4668C176.671 33.4668 198.911 40.2368 220.281 48.3668C258.538 62.9397 294.474 82.996 326.961 107.907Z" fill="#FFF200"/>
<path fill-rule="evenodd" clip-rule="evenodd" d="M538.181 233.38C544.555 234.192 551.012 235.015 557.621 235.897C557.807 235.922 558.002 235.947 558.205 235.974C565.077 236.879 580.287 238.881 569.961 247.537C566.547 250.383 561.808 252.607 557.301 254.723C555.141 255.737 553.033 256.726 551.151 257.747C539.43 264.135 527.832 270.662 516.218 277.198C515.395 277.661 514.573 278.124 513.751 278.587C512.481 279.298 511.827 280.756 512.141 282.177C518.12 311.358 520.432 341.172 519.021 370.927C518.978 371.853 518.992 372.904 519.007 374.003C519.045 376.745 519.086 379.785 518.251 381.927C516.161 387.287 510.361 384.297 506.641 381.927C501.186 378.45 496.332 373.782 491.627 369.258C490.932 368.59 490.241 367.925 489.551 367.267C478.796 356.988 468.706 346.036 459.341 334.477C458.148 333.212 456.259 332.897 454.721 333.707C448.098 337.484 441.476 341.264 434.854 345.046C408.617 360.027 382.37 375.013 356.021 389.777C355.935 389.824 355.849 389.873 355.76 389.923C352.383 391.813 346.564 395.072 344.401 389.917C343.321 387.287 344.531 383.447 345.401 380.917C347.357 375.185 350.208 369.619 353.033 364.104C354.324 361.584 355.609 359.076 356.801 356.567C361.377 346.959 366.055 337.402 370.733 327.845C371.903 325.456 373.073 323.067 374.241 320.677L376.541 315.927C378.227 312.507 379.894 309.08 381.541 305.647C382.662 303.744 382.105 301.297 380.271 300.067C365.737 290.147 351.254 280.147 336.821 270.067C329.447 264.913 322.094 259.733 314.761 254.527C311.639 252.312 308.479 250.021 305.457 247.831L305.231 247.667C304.354 247.031 303.34 246.385 302.284 245.712C299.617 244.013 296.69 242.148 295.071 239.877C291.876 235.314 298.458 235.404 301.786 235.449C302.083 235.453 302.355 235.457 302.591 235.457H315.821H342.281C355.052 235.512 367.824 235.654 380.592 235.796C386.259 235.859 391.925 235.921 397.591 235.977C398.947 236.013 400.222 235.328 400.941 234.177C409.551 218.187 413.461 200.567 416.431 182.887C416.973 179.658 417.481 176.397 417.991 173.123C420.275 158.467 422.603 143.529 428.251 129.887C433.111 118.147 444.181 134.807 446.741 140.097C450.841 148.637 454.411 157.577 457.741 166.437C460.249 173.132 462.812 179.805 465.375 186.477C469.546 197.337 473.717 208.196 477.651 219.147L478.311 221.347C478.934 223.412 480.659 224.956 482.781 225.347C501.734 228.734 519.612 231.013 538.181 233.38ZM412.631 307.427C428.901 325.037 459.401 327.467 478.501 313.287C498.431 298.457 498.671 270.387 484.891 251.127C477.795 241.124 466.992 234.376 454.891 232.387C444.121 230.697 431.251 232.777 424.951 242.647C419.341 251.367 418.591 266.257 422.341 275.847C426.591 286.687 440.231 290.327 450.931 288.937C456.161 288.267 461.351 285.367 463.161 280.147C464.901 275.197 462.501 269.357 459.811 265.147C457.441 261.457 453.231 258.397 448.731 260.397C445.251 261.937 443.631 265.907 445.571 269.207C446.043 270.024 447.04 270.376 447.921 270.037C448.802 269.699 449.306 268.77 449.111 267.847C451.497 266.54 453.024 267.04 453.691 269.347C454.294 270.574 454.805 271.844 455.221 273.147C456.011 276.347 455.241 279.147 452.011 280.147C447.681 281.557 441.201 280.027 437.061 278.297C427.991 274.497 429.251 260.977 431.251 253.047C434.031 242.087 445.661 240.367 455.361 242.547C465.068 244.796 473.443 250.897 478.561 259.447C488.261 275.447 486.851 296.937 469.851 307.167C452.772 317.461 435.833 310.432 419.296 303.57C418.163 303.1 417.031 302.63 415.901 302.167C412.851 300.917 410.631 305.237 412.631 307.427Z" fill="#FFF200"/>
<path d="M373 304.867C362.74 297.913 352.527 290.89 342.36 283.797C325.823 278.653 308.926 274.746 291.81 272.107C260.12 267.417 227.61 265.977 195.6 266.167C187.64 266.144 179.688 266.669 171.8 267.737C163.99 268.877 156.28 270.577 148.55 272.157C133.44 275.257 118.34 278.607 103.16 281.437C98.7865 289.697 94.5965 298.03 90.5898 306.437C107.783 300.951 125.313 296.581 143.07 293.357C180.128 286.793 217.917 285.39 255.36 289.187C275.85 291.187 296.18 294.567 316.42 298.297C334.3 301.587 353.22 303.947 370.11 311.077C371.077 309.01 372.04 306.94 373 304.867Z" fill="#F7941E"/>
<path d="M144.382 176.887C163.541 179.797 182.528 183.74 201.262 188.697C220.716 193.713 239.875 199.809 258.652 206.957C268.211 210.65 277.675 214.583 287.041 218.757C293.181 221.497 299.671 224.047 305.241 227.856C313.621 227.856 322.001 228.086 330.371 228.156H333.951C316.741 218.417 299.681 208.597 281.781 200.097C247.054 183.611 210.772 170.624 173.472 161.327C137.301 152.376 100.362 146.874 63.1523 144.897C67.2523 148.787 71.2423 152.787 75.0823 156.897C80.4823 162.717 86.3222 168.797 90.6622 175.577C108.422 172.697 126.682 174.287 144.382 176.887Z" fill="#F7941E"/>
<path fill-rule="evenodd" clip-rule="evenodd" d="M560.301 229.36C566.089 229.973 572.417 230.642 576.802 234.387C580.262 237.287 582.262 242.197 580.582 246.587C578.698 251.519 572.849 254.349 567.82 256.783L567.819 256.784L567.814 256.786C566.411 257.465 565.073 258.113 563.902 258.767C548.972 267.047 533.972 275.047 518.972 283.047C522.893 299.845 525.501 316.923 526.772 334.127C527.392 343.167 527.662 352.227 527.522 361.287C527.495 363.001 527.515 364.8 527.536 366.643C527.609 373.25 527.689 380.423 525.672 386.287C519.802 403.347 497.952 385.607 490.952 379.287C478.233 367.792 466.443 355.31 455.692 341.957C444.065 348.457 432.475 355.017 420.888 361.574L420.878 361.581L420.867 361.587L420.856 361.593L420.845 361.599L420.834 361.605L420.823 361.611L420.812 361.617L420.801 361.624L420.79 361.63C413.426 365.798 406.063 369.966 398.692 374.117C388.372 379.927 378.072 385.717 367.692 391.377C366.56 391.994 365.373 392.699 364.142 393.431C358.452 396.812 351.823 400.751 345.452 399.107C330.236 395.107 339.82 375.522 344.612 365.73C345.032 364.871 345.415 364.088 345.742 363.397C351.225 351.817 356.615 340.194 362.005 328.571L362.006 328.568L362.008 328.565L362.009 328.562L362.011 328.558L362.012 328.555L362.014 328.552L362.016 328.548L362.017 328.545L362.019 328.542L362.02 328.539C363.477 325.398 364.933 322.257 366.392 319.117C350.699 313.399 333.66 310.608 317.018 307.882L317.018 307.882C312.821 307.195 308.65 306.512 304.532 305.787C266.742 299.127 228.662 295.107 190.262 297.407C153.653 299.554 117.517 306.756 82.8817 318.807C79.7317 319.887 75.8817 316.027 77.2917 312.887C86.9167 291.385 97.9403 270.537 110.292 250.477C87.5585 244.934 63.9266 244.137 40.8717 248.137C37.9017 248.637 34.3717 245.927 35.6817 242.637C45.5217 217.807 61.8417 196.147 83.8417 180.887C80.9946 177.851 78.3305 174.605 75.6636 171.357L75.6632 171.356C73.1127 168.25 70.5596 165.14 67.8417 162.207C61.6417 155.545 55.1066 149.204 48.2617 143.207C34.0356 130.812 18.5278 119.971 2.00169 110.867C-0.73831 109.287 -0.67831 104.617 2.26169 103.287C28.6383 91.3206 55.8216 81.2192 83.6117 73.0567C84.2801 72.8612 84.95 72.665 85.6212 72.4684L85.6789 72.4515C109.123 65.5855 134.269 58.2214 158.952 59.3967C159.132 59.2249 159.334 59.077 159.552 58.9567C155.968 50.0627 151.823 41.4053 147.142 33.0367C144.363 28.095 141.23 23.362 138.101 18.6356L138.101 18.6355C134.879 13.7691 131.662 8.90972 128.842 3.83675C127.302 1.04675 131.012 -1.24325 133.142 0.756748L133.192 0.806748C133.652 0.538017 134.179 0.406189 134.712 0.426748C144.656 0.928451 154.908 4.17206 164.777 7.29406C168.087 8.34134 171.354 9.37493 174.552 10.2867C188.182 14.1667 201.732 18.2867 215.072 22.9467C257.352 37.5667 297.202 57.9168 332.732 85.2168C349.511 98.1573 365.227 112.419 379.732 127.867C386.992 135.587 393.972 143.577 400.552 151.867C403.942 156.157 407.232 160.537 410.442 164.967C410.632 165.237 410.822 165.497 411.022 165.757C412.59 155.311 414.93 144.997 418.022 134.897C418.224 134.271 418.428 133.611 418.638 132.931L418.639 132.928L418.642 132.916L418.643 132.914L418.644 132.911L418.644 132.909C420.547 126.742 422.985 118.836 430.182 118.207C437.632 117.537 443.612 123.457 447.282 129.207C451.335 135.56 454.386 142.667 457.404 149.696L457.405 149.698L457.405 149.698L457.405 149.699L457.406 149.7L457.406 149.7L457.406 149.701L457.406 149.701L457.407 149.702L457.407 149.703L457.407 149.703C458.588 152.453 459.763 155.191 460.992 157.867C470.012 177.627 478.275 197.71 485.782 218.117C486 218.69 486.075 219.308 486.002 219.917C499.152 221.218 512.21 222.969 525.297 224.723C527.198 224.978 529.099 225.233 531.002 225.487C536.694 226.24 542.386 227.011 548.079 227.782C550.926 228.168 553.774 228.553 556.622 228.937C557.805 229.096 559.04 229.227 560.301 229.36ZM141.202 9.58675C145.902 15.8695 150.191 22.4499 154.042 29.2867L154.122 29.4967C176.652 33.5367 198.892 40.2668 220.262 48.3968C258.525 62.9617 294.467 83.0113 326.962 107.917C343.027 120.199 358.167 133.645 372.262 148.147C384.642 160.927 396.942 174.527 407.172 189.227C408.052 184.437 408.832 179.617 409.592 174.807C407.707 173.233 406.256 171.141 404.792 169.031L404.792 169.03C404.182 168.15 403.569 167.267 402.922 166.417C399.382 161.81 395.762 157.273 392.062 152.807C384.415 143.587 376.372 134.747 367.932 126.287C338.163 96.4665 303.786 71.6353 266.122 52.7467C245.022 42.1768 222.912 33.8067 200.462 26.5867C189.222 22.9667 177.892 19.6167 166.522 16.4067C163.392 15.5202 160.159 14.7316 156.899 13.9364C151.628 12.6505 146.287 11.3477 141.202 9.58675ZM155.372 31.6667C174.458 35.6662 193.267 40.8904 211.682 47.3067C230.885 54.1558 249.559 62.4081 267.552 71.9967C303.518 91.1476 336.526 115.399 365.552 143.997C373.672 151.997 381.465 160.33 388.932 168.997C394.282 175.208 399.32 181.672 404.341 188.113C405.148 189.149 405.954 190.184 406.762 191.217C405.662 196.977 404.402 202.697 402.762 208.307C391.762 195.247 378.232 183.717 365.252 172.897C351.066 161.092 336.254 150.059 320.882 139.847C289.022 118.647 255.112 100.577 220.532 84.2567C216.738 82.4663 212.925 80.6219 209.092 78.7677C196.184 72.5232 183.046 66.1672 169.622 61.3867C165.557 51.1756 160.796 41.2556 155.372 31.6967V31.6667ZM167.492 68.5267C167.055 68.6236 166.605 68.6439 166.162 68.5867V68.6167C154.602 67.2267 142.902 68.0167 131.372 69.9267C151.362 76.9267 171.202 84.3867 190.772 92.4967C230.982 109.147 270.182 128.457 307.073 151.607C325.155 162.765 342.522 175.042 359.073 188.367C372.703 199.517 385.773 211.737 396.613 225.677C397.813 223.137 398.813 220.567 399.813 217.957C395.4 213.701 391.073 209.388 386.752 205.081L386.752 205.08L386.752 205.08L386.751 205.08L386.751 205.08L386.751 205.079L386.751 205.079L386.75 205.079L386.749 205.077C376.053 194.415 365.394 183.789 353.543 174.167C324.753 150.847 293.113 131.207 260.542 113.697C243.742 104.687 226.702 96.2267 209.542 88.0367C204.124 85.451 198.587 82.9973 193.038 80.5379L193.036 80.537L193.036 80.5369L193.035 80.5368L193.035 80.5367L193.035 80.5366L193.035 80.5365C184.42 76.7187 175.775 72.8872 167.492 68.5267ZM85.6517 81.5468C86.5186 81.292 87.3879 81.036 88.2595 80.7794C100.901 77.0575 114.026 73.1932 127.282 70.6768C166.012 84.1267 204.172 99.3167 240.992 117.367C279.172 136.067 316.242 157.767 349.992 183.727C366.816 196.528 382.167 211.157 395.762 227.347C395.71 227.453 395.66 227.559 395.61 227.664L395.517 227.858L395.477 227.939L395.418 228.061C395.394 228.11 395.37 228.16 395.345 228.209L395.322 228.257H382.952C368.552 213.987 351.852 202.047 334.722 191.257C314.942 178.867 294.352 167.687 273.552 157.107C231.262 135.647 187.262 117.287 141.772 103.497C118.532 96.4184 94.9277 90.5966 71.0617 86.0567C75.9017 84.4967 80.7717 82.9768 85.6517 81.5468ZM53.9417 136.517C56.2417 138.523 58.5084 140.56 60.7417 142.627C82.2881 143.615 103.76 145.838 125.052 149.287C162.989 155.38 200.228 165.222 236.222 178.667C254.002 185.32 271.402 192.817 288.422 201.157C304.922 209.247 321.502 217.887 336.832 228.097C351.465 228.15 366.115 228.177 380.782 228.177C363.852 212.527 345.072 199.357 325.282 187.527C284.905 163.476 242.643 142.742 198.912 125.527C156.316 108.556 112.176 95.7498 67.1117 87.2868C49.0717 93.2868 31.3484 100.077 13.9417 107.657C28.0969 116.083 41.482 125.74 53.9417 136.517ZM75.0817 156.927C71.2417 152.787 67.2517 148.787 63.1517 144.927C100.376 146.904 137.329 152.412 173.512 161.377C210.812 170.674 247.094 183.661 281.822 200.147C298.59 208.109 314.656 217.23 330.736 226.359C331.821 226.975 332.906 227.591 333.992 228.207H330.412C326.695 228.176 322.976 228.121 319.257 228.066H319.256H319.256H319.255H319.255H319.254L319.248 228.066L319.247 228.066C314.593 227.997 309.937 227.929 305.282 227.907C300.664 224.748 295.415 222.456 290.257 220.203L290.256 220.203L290.256 220.203L290.255 220.203C289.192 219.738 288.132 219.275 287.082 218.807C277.748 214.627 268.285 210.693 258.692 207.007C239.903 199.841 220.73 193.728 201.262 188.697C182.515 183.738 163.514 179.796 144.342 176.887C126.642 174.247 108.342 172.697 90.6217 175.607C86.6781 169.389 81.4392 163.759 76.4324 158.38L76.4218 158.368L76.4165 158.363L76.3902 158.334C75.9519 157.863 75.5154 157.394 75.0817 156.927ZM46.8817 238.657C53.834 237.908 60.8194 237.507 67.8117 237.457C73.0882 235.416 78.5683 233.826 83.9272 232.271L83.9275 232.271L84.9417 231.977C92.7217 229.75 100.565 227.827 108.472 226.207C137.047 220.384 166.282 218.48 195.372 220.547C207.538 221.407 219.676 222.689 231.811 223.971C235.624 224.374 239.438 224.777 243.252 225.167C245.172 225.362 247.094 225.549 249.017 225.736L249.027 225.737L249.037 225.738L249.046 225.739C255.286 226.346 261.534 226.953 267.742 227.847C274.172 228.757 280.742 229.987 286.742 232.517C287.777 231.067 289.207 229.946 290.862 229.287C290.368 229.068 289.875 228.849 289.382 228.629L288.64 228.297L288.638 228.296C286.607 227.388 284.582 226.482 282.552 225.647C273.818 222.04 265.008 218.65 256.122 215.477C237.942 208.977 219.582 203.107 200.882 198.257C165.112 188.997 128.092 181.357 91.0117 184.637C90.7944 185.081 90.4758 185.468 90.0817 185.767C71.6217 199.857 56.5417 217.657 46.8817 238.657ZM75.9608 237.054C76.383 236.924 76.8051 236.794 77.2271 236.664L77.2338 236.662C85.8423 234.007 94.4339 231.357 103.312 229.377C117.462 226.21 131.812 224.012 146.261 222.797C175.751 220.333 204.801 223.204 234.136 226.102L235.091 226.197C237.649 226.448 240.208 226.693 242.767 226.938L242.769 226.938L242.772 226.939L242.776 226.939L242.778 226.939L242.779 226.939L242.78 226.94C249.17 227.551 255.56 228.163 261.941 228.877C270.12 229.788 278.208 231.383 286.121 233.647C285.715 234.526 285.455 235.465 285.351 236.427C285.296 237.009 285.296 237.595 285.351 238.177C282.074 237.548 278.6 237.394 275.282 237.248C274.012 237.192 272.765 237.137 271.561 237.057C263.794 236.543 256.027 236.18 248.261 235.967C232.751 235.517 217.261 235.657 201.721 236.297C186.774 236.923 171.858 238.05 156.971 239.677C149.451 240.487 141.971 241.537 134.481 242.677C132.694 242.952 130.78 243.17 128.816 243.393L128.815 243.394L128.815 243.394H128.815C125.999 243.714 123.079 244.047 120.281 244.577C119.781 244.061 119.148 243.694 118.451 243.517C104.07 239.871 89.324 237.855 74.4917 237.507C74.9815 237.356 75.4712 237.205 75.9608 237.054ZM128.031 251.937C125.021 252.54 121.931 253.159 118.932 253.377C113.892 261.85 109.028 270.437 104.342 279.137C115.791 276.586 127.3 274.285 138.803 271.985L138.808 271.984L138.814 271.983C144.217 270.902 149.618 269.822 155.012 268.717C170.205 265.531 185.699 264.002 201.222 264.157C217.462 264.337 233.742 264.907 249.952 265.907C279.182 267.747 309.482 271.157 337.482 280.427C332.262 276.787 327.058 273.137 321.872 269.477C313.278 263.383 304.648 257.297 295.982 251.217C293.554 249.614 291.271 247.8 289.162 245.797C284.596 246.795 279.418 246.255 274.518 245.743L274.518 245.743C272.645 245.548 270.813 245.356 269.072 245.257C261.692 244.85 254.308 244.557 246.922 244.377C232.135 244.003 217.362 244.117 202.602 244.717C187.082 245.357 171.608 246.53 156.182 248.237C155.454 248.317 154.726 248.398 153.997 248.478L153.905 248.488L153.836 248.496C147.299 249.218 140.728 249.944 134.182 250.837C132.209 251.1 130.139 251.515 128.031 251.937ZM316.422 298.287C296.182 294.557 275.852 291.217 255.362 289.177C217.917 285.393 180.128 286.81 143.072 293.387C125.315 296.611 107.785 300.981 90.5917 306.467C94.5917 298.027 98.7817 289.693 103.162 281.467C113.49 279.541 123.782 277.375 134.065 275.21L134.065 275.21C138.895 274.194 143.723 273.177 148.552 272.187C149.913 271.909 151.274 271.627 152.635 271.345L152.637 271.344C159.002 270.025 165.368 268.706 171.802 267.767C179.69 266.699 187.642 266.174 195.602 266.197C227.602 266.007 260.122 267.447 291.812 272.137C308.928 274.776 325.825 278.683 342.362 283.827C352.528 290.907 362.742 297.93 373.002 304.897C372.042 306.963 371.078 309.033 370.112 311.107C356.307 305.241 341.06 302.597 326.189 300.018H326.189C322.908 299.449 319.646 298.883 316.422 298.287ZM557.322 254.677C561.829 252.566 566.567 250.346 569.981 247.487C580.131 239.011 565.534 236.941 558.515 235.946C558.197 235.901 557.895 235.858 557.611 235.817C550.863 234.915 544.275 234.078 537.769 233.251C518.734 230.831 500.407 228.501 480.881 224.917C479.926 224.732 479.155 224.03 478.881 223.097L477.671 219.097C473.729 208.103 469.548 197.224 465.367 186.346C462.814 179.701 460.26 173.057 457.761 166.387C454.451 157.527 450.881 148.587 446.761 140.047C444.201 134.757 433.131 118.097 428.271 129.837C422.644 143.444 420.333 158.246 418.048 172.875C417.528 176.21 417.008 179.536 416.451 182.837C413.451 200.617 409.571 218.127 400.961 234.127C400.242 235.278 398.968 235.963 397.611 235.927C391.946 235.871 386.281 235.808 380.614 235.746C367.846 235.604 355.074 235.462 342.301 235.407H315.842H302.612C302.355 235.408 302.057 235.404 301.729 235.399C298.371 235.356 291.885 235.272 295.092 239.827C296.711 242.098 299.638 243.963 302.305 245.662C303.361 246.335 304.375 246.981 305.252 247.617C308.405 249.923 311.582 252.21 314.782 254.477C322.115 259.677 329.468 264.857 336.842 270.017C351.301 280.057 365.785 290.057 380.291 300.017C382.126 301.247 382.682 303.694 381.561 305.597C379.895 309.03 378.228 312.457 376.561 315.877L374.261 320.627C373.142 322.918 372.021 325.209 370.899 327.499C366.173 337.157 361.445 346.817 356.821 356.517C355.65 358.973 354.388 361.435 353.12 363.91C350.273 369.463 347.393 375.084 345.421 380.867C344.531 383.397 343.321 387.237 344.421 389.867C346.585 395.021 352.404 391.763 355.781 389.872C355.869 389.823 355.956 389.774 356.041 389.727C382.39 374.964 408.636 359.977 434.872 344.997C441.495 341.215 448.118 337.434 454.741 333.657C456.279 332.846 458.169 333.161 459.361 334.427C468.726 345.986 478.816 356.938 489.571 367.217C490.249 367.863 490.928 368.516 491.611 369.172C496.327 373.705 501.192 378.382 506.661 381.877C510.381 384.267 516.181 387.257 518.271 381.877C519.106 379.734 519.065 376.689 519.027 373.947C519.012 372.849 518.998 371.8 519.041 370.877C520.452 341.122 518.14 311.308 512.161 282.127C511.847 280.706 512.501 279.248 513.771 278.537C526.171 271.527 538.621 264.507 551.171 257.697C553.053 256.676 555.161 255.689 557.322 254.677Z" fill="#231F20"/>
<path d="M478.502 313.287C498.432 298.497 498.672 270.437 484.912 251.237C477.816 241.234 467.014 234.486 454.912 232.497C444.142 230.807 431.272 232.887 424.972 242.747C419.402 251.477 418.612 266.367 422.362 275.957C426.612 286.797 440.252 290.437 450.952 289.047C456.152 288.377 461.372 285.477 463.182 280.257C464.922 275.257 462.522 269.427 459.832 265.257C457.462 261.567 453.252 258.497 448.752 260.507C445.272 262.047 443.652 266.017 445.592 269.307C446.065 270.118 447.057 270.468 447.935 270.133C448.813 269.799 449.319 268.878 449.132 267.957C451.512 266.623 453.039 267.123 453.712 269.457C454.315 270.684 454.826 271.954 455.242 273.257C456.042 276.417 455.242 279.167 452.032 280.257C447.702 281.667 441.222 280.137 437.082 278.407C428.012 274.607 429.252 261.087 431.272 253.157C434.052 242.157 445.682 240.477 455.382 242.657C465.089 244.906 473.464 251.007 478.582 259.557C488.282 275.557 486.872 297.047 469.872 307.277C451.622 318.277 433.532 309.467 415.922 302.277C412.872 301.027 410.622 305.347 412.652 307.537C428.902 324.987 459.402 327.417 478.502 313.287Z" fill="#231F20"/>
</svg>
