<svg width="561" height="547" viewBox="0 0 561 547" fill="none" xmlns="http://www.w3.org/2000/svg">
<path fill-rule="evenodd" clip-rule="evenodd" d="M79.5899 268.411C93.5898 269.941 107.99 275.031 118.89 284.121C130.3 293.641 134.84 306.301 137.579 320.411C139.006 335.638 141.029 350.775 143.649 365.821C142.564 367.578 141.739 369.451 140.911 371.331C139.642 374.212 138.367 377.106 136.139 379.611C135.063 380.822 133.734 381.88 132.402 382.942C130.453 384.494 128.497 386.053 127.31 388.101C123.198 395.186 130.398 405.486 134.986 412.05C135.598 412.926 136.163 413.735 136.649 414.461C143.969 425.401 151.929 436.031 159.839 446.531C160.413 447.292 160.983 448.055 161.554 448.817C165.816 454.512 170.049 460.17 175.209 464.871C179.728 472.173 184.903 479.048 190.669 485.411C199.939 495.621 210.179 504.981 220.449 514.171C224.539 517.801 228.789 521.511 233.299 524.801C224.369 523.421 215.739 520.951 207.299 515.701C195.33 508.251 184.288 498.774 173.527 489.54C172.358 488.536 171.193 487.536 170.029 486.541C147.599 467.371 126.29 445.431 117.36 416.621C116.288 412.944 112.486 410.787 108.78 411.751C80.3999 419.841 50.6601 401.781 31.0302 382.281C11.4004 362.781 10.6104 331.211 18.4003 305.911C26.9803 278.081 51.3401 265.301 79.5899 268.411ZM116.652 383.981C127.262 375.351 130.422 362.171 130.762 349.031C131.382 325.281 125.972 296.031 102.621 284.211C81.3912 273.521 54.0408 281.101 39.6905 299.521C23.9603 319.741 22.5303 351.161 35.1405 373.371C43.2106 387.601 59.2608 392.471 74.6311 394.371C78.5926 394.842 82.5945 394.865 86.5612 394.441C96.5814 396.341 109.452 389.831 116.652 383.981Z" fill="#8DC63F"/>
<path fill-rule="evenodd" clip-rule="evenodd" d="M398.779 316.241C398.624 316.008 398.443 315.794 398.239 315.601C399.899 302.031 401.209 288.511 402.309 274.991C404.163 251.538 405.139 228.065 405.239 204.571C442.089 163.421 513.189 187.231 535.459 232.931C546.949 256.601 547.279 285.851 536.949 309.981C526.889 333.621 502.479 356.811 474.889 352.981C470.709 352.401 467.159 353.951 465.709 358.191C449.589 405.361 412.729 442.541 376.939 475.631C358.159 492.991 338.18 509.551 314.83 520.421C312.93 521.321 310.93 522.161 308.93 522.981C325.2 510.341 338.7 492.931 349.59 474.721C355.361 467.627 361.328 460.706 367.298 453.782C376.212 443.443 385.132 433.098 393.409 422.161C394.599 420.586 395.806 418.998 397.023 417.395C411.242 398.682 426.882 378.098 432.409 355.291C433.254 351.978 431.328 348.59 428.049 347.621C420.571 345.485 413.936 341.092 409.049 335.041C406.381 331.696 404.597 327.881 402.814 324.067C401.569 321.406 400.325 318.744 398.779 316.241ZM437.119 217.871C423.866 225.136 413.984 237.301 409.59 251.761C404.59 268.341 404.75 289.781 415.25 304.161C415.34 304.281 415.44 304.391 415.54 304.501C420.669 314.101 427.899 322.871 436.819 328.321C462.669 344.131 498.158 330.381 515.068 307.881C532.868 284.201 529.928 251.841 510.928 229.751C492.428 208.241 461.549 204.291 437.119 217.871Z" fill="#8DC63F"/>
<path d="M485.73 260.481C486.82 258.131 487.17 252.001 483.13 252.481C481.13 252.731 479.23 255.661 477.43 258.161C477.563 259.501 477.9 260.813 478.43 262.051C480.59 266.961 483.81 264.621 485.73 260.481Z" fill="white"/>
<path fill-rule="evenodd" clip-rule="evenodd" d="M453.821 319.001C439.911 316.271 430.861 303.961 425.271 291.731C422.154 285.108 420.183 278.004 419.441 270.721C419.183 267.332 419.509 263.995 419.833 260.669C419.912 259.862 419.99 259.057 420.061 258.251C422.911 248.041 428.471 239.291 437.211 233.041C454.161 220.901 478.061 219.901 494.301 233.841C510.121 247.421 516.971 271.461 507.821 290.691C498.551 310.171 475.341 323.231 453.821 319.001ZM472.281 241.431C470.81 242.793 469.565 244.38 468.591 246.131C463.851 250.751 463.251 257.531 464.451 263.781C465.671 270.281 469.301 276.891 475.951 279.171C482.601 281.451 489.971 278.761 494.731 273.831C504.471 263.761 504.601 245.551 490.881 238.931C484.741 235.957 477.417 236.941 472.281 241.431Z" fill="white"/>
<path fill-rule="evenodd" clip-rule="evenodd" d="M405.179 45.7111C421.389 62.8711 424.579 101.081 401.439 113.961C381.589 125.031 355.099 114.881 345.069 95.1511C339.129 83.4611 340.009 68.8511 345.429 56.4011C353.029 49.2011 360.329 42.4011 370.639 38.3411C383.179 33.4011 395.859 35.8411 405.179 45.7111ZM370.679 54.0312C366.733 57.1777 364.28 61.828 363.909 66.8612C363.279 77.1313 371.789 86.1413 381.789 87.2013C387.022 87.8072 392.244 85.9749 395.952 82.2317C399.66 78.4885 401.443 73.2493 400.788 68.0212C399.778 58.6312 389.898 46.8211 379.409 50.5011L378.939 50.7011C378.305 50.6397 377.665 50.6667 377.039 50.7811C374.685 51.3286 372.502 52.4445 370.679 54.0312Z" fill="white"/>
<path d="M385.198 68.1912C384.148 65.5312 381.478 64.5512 379.198 63.1912C378.391 64.2521 377.893 65.5151 377.758 66.8412C377.834 69.582 379.812 71.8981 382.508 72.4012C385.488 72.9312 386.188 70.6912 385.198 68.1912Z" fill="white"/>
<path fill-rule="evenodd" clip-rule="evenodd" d="M379.728 339.581C371.348 389.341 356.618 439.221 326.728 480.581C312.908 499.711 294.188 519.371 270.898 526.251C272.338 525.099 273.785 523.957 275.232 522.815C280.367 518.762 285.496 514.714 290.278 510.251C298.865 502.131 306.598 493.154 313.358 483.461C327.498 463.501 337.338 440.671 344.498 417.371C360.588 365.031 364.798 308.271 365.478 253.791C365.962 218.316 364.085 182.847 359.858 147.621C359.488 144.611 357.768 140.771 354.258 140.271C295.188 131.801 304.218 34.0811 353.138 17.4911C402.748 0.671137 445.838 49.5911 443.428 96.5911C442.108 122.311 424.938 152.601 397.058 156.081C393.168 156.581 389.368 159.131 389.558 163.581C392.008 222.311 389.458 281.581 379.728 339.581ZM333.938 57.6211C329.888 66.2287 328.425 75.8278 329.728 85.2511H329.758C332.808 108.201 352.158 126.441 374.648 130.341C398.948 134.591 423.538 121.071 429.208 96.3411C434.818 71.7711 426.428 40.1611 402.818 27.8611C389.048 20.6811 374.288 22.4911 360.708 29.1711C349.578 34.6211 334.268 43.8111 333.938 57.6211Z" fill="#009444"/>
<path fill-rule="evenodd" clip-rule="evenodd" d="M41.5881 348.671C37.9181 325.451 48.5881 299.751 73.2181 294.381C98.868 288.801 112.808 310.381 115.428 333.111C116.718 344.431 117.848 359.781 110.718 369.431C109.097 371.607 107.057 373.436 104.718 374.811C102.789 375.657 100.938 376.503 99.0878 377.35C98.7513 377.503 98.4149 377.657 98.0781 377.811C97.0098 378.193 95.9332 378.548 94.8564 378.903C93.3124 379.413 91.7681 379.922 90.2481 380.511C89.5581 380.671 88.8481 380.811 88.1081 380.921C80.7881 381.991 73.3081 380.461 66.2381 378.581C58.2381 376.461 51.5381 373.841 47.2381 366.321C44.2181 361.031 42.5181 354.671 41.5881 348.671ZM54.4181 340.581C58.9481 351.331 77.528 355.911 86.5881 348.331C96.038 340.431 93.188 324.801 82.9981 319.031C76.9881 315.541 67.5981 316.611 61.868 321.031C59.9503 321.767 58.2189 322.918 56.7981 324.401C52.7081 328.581 52.2181 335.351 54.4181 340.581Z" fill="white"/>
<path d="M74.5894 331.621C71.5894 331.221 69.3194 334.781 67.1094 336.621C67.2675 336.756 67.4346 336.879 67.6094 336.991C69.5494 338.151 76.4594 339.171 77.6094 336.991C78.7594 334.811 76.5894 331.891 74.5894 331.621Z" fill="white"/>
<path fill-rule="evenodd" clip-rule="evenodd" d="M234.459 351.031C230.634 348.31 227.111 345.189 223.949 341.721C217.071 334.197 211.807 325.346 208.479 315.711C202.329 298.011 202.799 278.381 211.979 261.771C230.489 228.301 286.099 209.801 313.599 243.681C326.679 259.791 328.999 283.461 325.999 303.331C322.409 327.061 309.419 345.851 286.499 353.671C275.093 357.561 273.809 366.755 272.347 377.226C272.212 378.194 272.075 379.174 271.929 380.161C269.839 394.321 268.289 408.561 267.419 422.841C265.75 450.672 266.476 478.595 269.589 506.301C264.825 502.046 260.289 497.543 255.999 492.811C247.63 472.855 243.261 451.45 243.139 429.811C243.032 417.79 243.828 405.713 244.62 393.687C244.649 393.238 244.679 392.79 244.709 392.341C244.81 390.79 244.914 389.238 245.018 387.687C245.332 382.998 245.646 378.307 245.909 373.611C245.945 372.933 245.992 372.249 246.04 371.562C246.367 366.809 246.704 361.918 243.629 357.951C241.922 355.745 239.579 354.289 237.236 352.832C236.297 352.248 235.357 351.664 234.459 351.031ZM237.339 252.761C229.4 259.446 223.739 268.434 221.139 278.481C215.379 300.201 223.589 327.431 242.969 339.841C262.619 352.401 290.089 343.361 304.209 326.581C319.869 307.961 318.039 282.081 305.399 262.311C298.729 251.881 288.989 242.261 276.449 239.771C262.949 237.101 249.059 242.391 238.669 250.881C238.065 251.378 237.606 252.027 237.339 252.761Z" fill="#8DC63F"/>
<path fill-rule="evenodd" clip-rule="evenodd" d="M147.771 222.791C147.736 221.643 147.268 220.55 146.461 219.731C145.597 218.19 144.183 217.033 142.501 216.491C120.411 208.981 102.861 191.211 96.5612 168.621C89.3312 142.811 98.6512 118.941 112.331 97.1311C118.521 87.2811 126.361 77.4711 137.621 73.2811C148.701 69.1411 161.411 69.8011 172.701 72.8011C193.554 78.3672 211.444 91.788 222.621 110.251C235.271 131.301 238.281 157.581 232.481 181.251C229.741 192.421 225.371 204.981 216.371 212.721C213.304 215.365 209.871 217.243 206.482 219.095C200.887 222.154 195.415 225.146 191.921 231.411C187.241 239.791 186.721 249.761 186.641 259.151C186.531 273.331 187.221 287.511 188.271 301.651C190.261 328.321 192.841 355.101 197.161 381.511C205.151 430.371 223.191 485.651 265.661 515.441C263.041 517.941 260.461 520.491 257.981 523.141L257.821 523.061C245.331 518.121 235.761 510.121 225.961 501.121C216.431 492.371 206.871 483.571 198.251 473.901C178.981 452.301 170.491 426.671 163.651 399.031C156.524 370.314 151.722 341.069 149.291 311.581C148.111 297.081 147.461 282.511 147.291 267.961C147.211 261.292 147.401 254.605 147.59 247.919C147.828 239.528 148.066 231.14 147.771 222.791ZM104.021 159.791C106.101 169.601 109.931 180.821 117.021 188.391C126.021 204.621 142.981 216.101 162.691 216.221C193.271 216.411 213.641 190.511 216.471 162.221C219.301 133.931 207.101 105.051 179.751 93.9311C154.621 83.7211 126.111 93.3311 111.311 115.861C102.791 128.791 100.901 144.791 104.021 159.791Z" fill="#009444"/>
<path fill-rule="evenodd" clip-rule="evenodd" d="M297.749 275.981C307.949 297.871 299.589 322.641 276.009 330.751C264.969 334.551 253.049 333.491 244.589 324.991C236.589 316.991 232.099 305.401 231.589 294.191C231.177 281.629 235.642 269.395 244.049 260.051C245.795 259.37 247.566 258.614 249.359 257.849C258.038 254.147 267.223 250.229 276.539 253.461C286.409 256.891 293.519 266.901 297.749 275.981ZM269.259 267.621C263.409 268.631 259.769 273.591 257.709 278.751V278.721C253.219 289.971 255.589 305.491 269.169 308.621C283.279 311.941 291.399 295.621 290.399 283.621C290.009 277.519 286.558 272.029 281.229 269.031C278.178 267.279 274.579 266.74 271.149 267.521C270.517 267.489 269.884 267.523 269.259 267.621Z" fill="white"/>
<path d="M271.749 293.581C273.159 294.581 272.749 293.891 273.199 292.711C273.999 290.561 275.049 288.401 275.129 286.051C275.239 282.751 273.639 282.311 271.449 282.051C271.399 282.191 271.349 282.311 271.289 282.461C270.269 285.321 268.659 291.431 271.749 293.581Z" fill="white"/>
<path fill-rule="evenodd" clip-rule="evenodd" d="M131.219 114.151C151.019 97.4711 181.529 103.171 194.529 125.621C207.209 147.571 203.589 184.701 178.869 196.771C166.691 202.706 152.271 201.688 141.049 194.101C131.798 187.818 127.583 178.034 123.353 168.217C121.881 164.8 120.407 161.38 118.719 158.101C118.196 157.026 117.22 156.241 116.059 155.961C115.691 152.976 115.534 149.968 115.589 146.961C115.762 134.268 121.471 122.283 131.219 114.151ZM153.799 140.861C152.302 145.974 153.028 151.481 155.799 156.031C161.979 165.841 176.309 167.031 184.359 158.781C192.609 150.381 190.699 132.881 180.609 126.711C175.537 123.567 169.216 123.217 163.829 125.781C159.669 127.901 156.849 131.451 156.499 135.551C155.285 137.143 154.37 138.942 153.799 140.861Z" fill="white"/>
<path d="M169.34 140.561C168.34 141.191 167.55 141.801 166.7 142.341C166.425 143.99 166.71 145.683 167.51 147.151C168.51 148.871 170.63 150.151 172.58 148.751C174.53 147.351 174.58 141.751 172.71 140.191C171.59 139.251 170.44 139.861 169.34 140.561Z" fill="white"/>
<path fill-rule="evenodd" clip-rule="evenodd" d="M107.589 261.931C83.7994 251.321 52.1994 249.931 30.1094 265.331C10.3894 279.091 2.18938 303.031 0.429376 326.101C-0.570624 339.611 -0.0606241 354.321 4.51938 367.181C9.01938 379.851 17.8094 389.901 27.9694 398.451C49.5494 416.601 77.4194 431.811 106.109 426.671C117.039 455.621 138.819 478.241 162.259 498.001C163.677 499.196 165.1 500.401 166.528 501.612L166.528 501.612C178.036 511.366 189.935 521.451 202.949 528.861C211.612 533.673 221.075 536.875 230.879 538.311C231.257 538.636 231.669 538.918 232.109 539.151C256.719 552.011 289.409 547.041 314.179 537.151C339.949 526.851 362.179 509.801 382.619 491.331C421.409 456.331 458.859 417.521 477.869 368.131C529.179 371.131 562.479 315.131 560.169 268.191C557.609 216.191 518.029 173.841 465.709 169.801C444.949 168.191 420.369 173.361 405.129 188.141C405.049 181.991 404.929 175.841 404.719 169.681C431.519 163.041 450.929 139.911 456.879 112.801C463.345 82.5021 455.077 50.9313 434.589 27.6911C415.169 6.03115 384.049 -4.43885 355.589 1.77115C322.069 9.07115 303.929 41.9511 299.509 73.8211C294.899 107.101 310.509 145.601 345.299 154.001C351.479 211.921 352.449 270.291 346.759 328.321C342.029 376.611 332.759 426.321 307.139 468.321C300.31 479.585 292.159 489.992 282.859 499.321C280.428 474.441 279.92 449.41 281.339 424.451C282.219 409.311 283.799 394.211 286.169 379.231C286.287 378.477 286.363 377.515 286.446 376.475C286.652 373.885 286.896 370.808 287.909 369.231C289.004 367.528 291.101 366.971 293.035 366.458C293.612 366.305 294.173 366.156 294.689 365.981C299.985 364.193 305.001 361.664 309.589 358.471C346.459 332.651 352.159 269.011 324.239 234.681C296.179 200.151 241.369 209.541 213.589 239.031C206.903 246.12 201.665 254.445 198.169 263.541C197.799 253.961 198.169 243.731 202.839 236.541C205.406 232.587 209.465 230.608 213.533 228.626C214.948 227.936 216.364 227.245 217.719 226.471C222.725 223.548 227.099 219.659 230.589 215.031C260.699 176.311 252.129 113.701 217.069 81.3711C200.309 65.9612 178.249 56.1311 155.319 56.0311C128.759 55.8811 110.789 71.3411 97.8094 93.2311C82.6394 118.791 74.0094 147.171 83.8794 176.401C92.3694 201.581 112.199 220.761 136.979 229.701C134.459 247.261 134.209 265.531 134.979 283.601C127.737 274.268 118.338 266.832 107.589 261.931ZM405.219 204.591C442.068 163.441 513.218 187.251 535.438 232.951C546.968 256.621 547.258 285.871 536.928 310.001C526.818 333.621 502.458 356.811 474.868 353.001C470.668 352.421 467.138 354.001 465.688 358.211C449.568 405.381 412.689 442.561 376.919 475.651C358.139 493.011 338.159 509.571 314.809 520.441C312.869 521.341 310.899 522.181 308.909 523.001C325.179 510.361 338.679 492.951 349.569 474.741C355.254 467.771 361.13 460.965 367.007 454.159L367.008 454.159L367.008 454.158L367.008 454.158L367.008 454.158L367.009 454.158L367.009 454.157L367.009 454.157C376.038 443.7 385.068 433.242 393.409 422.181C394.674 420.501 395.96 418.805 397.258 417.094C411.4 398.446 426.913 377.99 432.408 355.311C433.253 351.998 431.327 348.61 428.048 347.641C420.571 345.505 413.935 341.112 409.049 335.061C406.38 331.716 404.597 327.901 402.813 324.087L402.813 324.086C401.568 321.425 400.324 318.764 398.779 316.261C398.623 316.028 398.442 315.814 398.239 315.621C399.899 302.091 401.239 288.531 402.239 275.031C404.139 251.578 405.129 228.098 405.209 204.591H405.219ZM395.109 338.151C389.829 371.781 381.759 404.931 368.689 436.361C373.289 430.641 377.739 424.831 382.039 418.931C389.926 408.164 397.426 397.134 404.539 385.841C410.219 376.821 415.609 367.721 418.799 357.621C409.769 353.821 400.479 346.771 395.109 338.151ZM290.279 510.251C298.866 502.131 306.599 493.154 313.359 483.461C327.469 463.461 337.359 440.671 344.499 417.371C360.589 365.031 364.799 308.271 365.449 253.811C365.933 218.336 364.056 182.867 359.829 147.641C359.459 144.641 357.739 140.791 354.229 140.291C295.159 131.821 304.229 34.1011 353.109 17.5111C402.719 0.691146 445.809 49.5911 443.399 96.6111C442.079 122.331 424.909 152.611 397.029 156.101C393.139 156.591 389.339 159.151 389.529 163.601C391.979 222.291 389.429 281.601 379.699 339.601C371.349 389.381 356.619 439.261 326.699 480.601C312.879 499.731 294.159 519.391 270.869 526.261C272.137 525.254 273.408 524.253 274.68 523.252C280.009 519.058 285.33 514.869 290.279 510.251ZM313.601 243.681C286.1 209.771 230.49 228.301 211.979 261.771C202.799 278.381 202.329 298.031 208.479 315.721C211.809 325.352 217.073 334.2 223.95 341.721C227.111 345.193 230.635 348.317 234.46 351.041C235.345 351.658 236.265 352.23 237.183 352.8C239.551 354.271 241.907 355.734 243.63 357.961C246.706 361.928 246.369 366.819 246.041 371.572C245.994 372.259 245.947 372.943 245.91 373.621C245.647 378.316 245.333 383.005 245.02 387.693L245.019 387.697C244.916 389.248 244.812 390.8 244.71 392.351L244.617 393.763L244.617 393.763C243.826 405.765 243.034 417.793 243.14 429.821C243.263 451.461 247.632 472.865 256 492.821C260.291 497.55 264.827 502.049 269.59 506.301C266.478 478.595 265.752 450.672 267.42 422.841C268.29 408.561 269.84 394.321 271.93 380.161C272.077 379.174 272.214 378.195 272.349 377.226C273.811 366.755 275.095 357.561 286.5 353.671C309.421 345.851 322.411 327.061 326.001 303.331C329.011 283.461 326.681 259.791 313.601 243.681ZM212.889 348.031C216.625 352.413 220.837 356.364 225.449 359.811C226.16 360.351 226.974 360.866 227.804 361.391L227.804 361.391L227.805 361.392C229.787 362.645 231.862 363.958 232.848 365.811C234.153 368.195 233.817 371.375 233.508 374.301C233.42 375.144 233.333 375.966 233.288 376.741C233.072 380.487 232.83 384.23 232.589 387.973L232.588 387.975C231.789 400.35 230.99 412.717 231.128 425.131C231.268 437.831 232.278 451.471 235.308 464.491C232.748 460.051 230.308 455.491 228.158 450.701C215.969 424.271 210.159 395.161 206.459 366.441C205.039 355.231 203.719 343.971 202.589 332.691C205.451 338.166 208.905 343.31 212.889 348.031ZM112.359 97.2011C98.6794 119.011 89.3894 142.881 96.5894 168.691C102.859 191.281 120.409 209.031 142.439 216.601C144.124 217.117 145.553 218.249 146.439 219.771C147.246 220.59 147.714 221.683 147.749 222.831C148.038 231.179 147.802 239.567 147.566 247.947V247.947V247.948V247.948V247.948C147.378 254.646 147.189 261.338 147.269 268.001C147.429 282.551 148.079 297.121 149.269 311.621C151.695 341.119 156.494 370.374 163.619 399.101C170.459 426.741 178.949 452.371 198.219 473.971C206.839 483.641 216.399 492.441 225.929 501.191C235.729 510.191 245.299 518.181 257.789 523.131L257.949 523.211C260.429 520.511 263.009 518.011 265.629 515.511C223.129 485.721 205.129 430.441 197.129 381.581C192.809 355.171 190.239 328.391 188.239 301.721C187.189 287.581 186.499 273.401 186.609 259.221C186.689 249.831 187.209 239.861 191.889 231.481C195.386 225.211 200.864 222.216 206.463 219.154C209.848 217.303 213.277 215.428 216.339 212.791C225.309 205.051 229.709 192.491 232.449 181.321C238.249 157.611 235.239 131.321 222.589 110.321C211.426 91.8703 193.56 78.4511 172.729 72.8711C161.439 69.9211 148.739 69.2111 137.649 73.3511C126.359 77.5411 118.549 87.3411 112.359 97.2011ZM158.369 427.801L158.314 427.723C156.424 421.978 154.722 416.094 153.179 410.041C151.039 401.688 149.089 393.294 147.329 384.861C146.429 385.991 145.499 386.991 144.559 387.991C143.652 388.924 142.615 389.665 141.638 390.362C139.254 392.065 137.227 393.512 138.319 396.881C139.549 400.674 142.175 404.474 144.574 407.943L144.574 407.944C145.179 408.819 145.769 409.673 146.319 410.501C150.078 416.178 154.034 421.723 157.987 427.265L157.987 427.265L158.314 427.723L158.339 427.801H158.369ZM143.658 365.821C141.045 350.754 139.022 335.618 137.588 320.411C134.838 306.301 130.298 293.641 118.889 284.121C107.989 275.021 93.5987 269.941 79.5989 268.411C51.3491 265.301 26.9893 278.081 18.4093 305.911C10.5894 331.211 11.4594 362.891 31.0392 382.281C50.6191 401.671 80.4089 419.841 108.789 411.751C112.495 410.787 116.297 412.944 117.369 416.621C126.298 445.431 147.608 467.371 170.038 486.541C171.167 487.507 172.298 488.479 173.432 489.452C184.223 498.721 195.291 508.227 207.308 515.701C215.748 520.951 224.378 523.421 233.308 524.801C228.798 521.511 224.548 517.831 220.458 514.171C210.188 504.981 199.948 495.621 190.678 485.411C184.912 479.048 179.737 472.173 175.218 464.871C170.046 460.15 165.805 454.484 161.533 448.777C160.972 448.028 160.412 447.279 159.848 446.531C151.938 436.031 143.978 425.401 136.658 414.461C136.169 413.73 135.599 412.915 134.982 412.033C130.386 405.463 123.175 395.154 127.318 388.101C128.514 386.035 130.459 384.492 132.398 382.954C133.734 381.893 135.067 380.836 136.148 379.611C138.376 377.105 139.651 374.212 140.92 371.331C141.747 369.451 142.573 367.578 143.658 365.821Z" fill="#231F20"/>
<path fill-rule="evenodd" clip-rule="evenodd" d="M304.209 326.581C290.089 343.361 262.619 352.401 242.969 339.841C223.589 327.431 215.379 300.201 221.139 278.481C223.739 268.434 229.4 259.446 237.339 252.761C237.606 252.027 238.065 251.378 238.669 250.881C249.059 242.391 262.949 237.101 276.449 239.771C288.989 242.311 298.729 251.881 305.399 262.311C318.039 282.081 319.869 307.961 304.209 326.581ZM249.284 257.854C247.517 258.61 245.77 259.356 244.049 260.031C235.62 269.366 231.133 281.601 231.529 294.171C232.059 305.381 236.529 316.971 244.529 324.971C253.009 333.471 265.009 334.531 276.009 330.731C299.589 322.621 307.949 297.851 297.749 275.961C293.539 266.881 286.409 256.871 276.539 253.441C267.196 250.2 257.985 254.136 249.284 257.854Z" fill="#231F20"/>
<path fill-rule="evenodd" clip-rule="evenodd" d="M290.398 283.651C291.438 295.651 283.278 311.941 269.168 308.651C255.588 305.491 253.218 289.971 257.708 278.721C259.768 273.591 263.408 268.591 269.258 267.591C269.883 267.493 270.516 267.459 271.148 267.491C274.582 266.719 278.181 267.269 281.228 269.031C286.566 272.034 290.018 277.538 290.398 283.651ZM271.324 282.372C271.312 282.401 271.3 282.43 271.288 282.461C270.268 285.321 268.658 291.431 271.748 293.581C272.828 294.311 272.865 294.126 272.991 293.496C273.035 293.28 273.088 293.012 273.198 292.711C273.351 292.301 273.512 291.891 273.674 291.479C274.363 289.731 275.063 287.953 275.128 286.051C275.238 282.751 273.638 282.311 271.448 282.051C271.408 282.162 271.369 282.261 271.324 282.372Z" fill="#231F20"/>
<path fill-rule="evenodd" clip-rule="evenodd" d="M402.85 27.8611C426.46 40.1611 434.87 71.7711 429.24 96.3411C423.59 121.031 398.98 134.591 374.68 130.361C352.16 126.441 332.81 108.201 329.76 85.2511C328.456 75.8278 329.919 66.2287 333.97 57.6211C334.3 43.8111 349.59 34.6411 360.74 29.1711C374.32 22.4911 389.08 20.6811 402.85 27.8611ZM345.43 56.4011C340.01 68.8511 339.13 83.4611 345.07 95.1511C355.1 114.881 381.59 125.031 401.44 113.961C424.58 101.081 421.39 62.8711 405.18 45.7111C395.86 35.8411 383.15 33.4011 370.64 38.3411C360.33 42.4011 353.03 49.2011 345.43 56.4011Z" fill="#231F20"/>
<path fill-rule="evenodd" clip-rule="evenodd" d="M379.408 50.5112C389.898 46.8312 399.788 58.6412 400.788 68.0312C401.44 73.2595 399.655 78.4978 395.945 82.239C392.235 85.9803 387.012 87.8097 381.778 87.2012C371.788 86.1412 363.278 77.1312 363.908 66.8612C364.278 61.828 366.732 57.1777 370.678 54.0312C372.502 52.4481 374.685 51.3357 377.038 50.7912C377.664 50.6767 378.304 50.6497 378.938 50.7112L379.408 50.5112ZM377.728 66.8711C377.804 69.6119 379.783 71.928 382.479 72.431V72.421C385.489 72.931 386.19 70.691 385.169 68.2211C384.347 66.0177 382.382 64.9635 380.425 63.9135C380.002 63.6864 379.579 63.4595 379.168 63.2212C378.361 64.2821 377.863 65.5451 377.728 66.8711Z" fill="#231F20"/>
<path fill-rule="evenodd" clip-rule="evenodd" d="M494.688 273.831C489.908 278.761 482.558 281.451 475.908 279.171C469.328 276.911 465.588 270.281 464.408 263.781C463.248 257.531 463.848 250.751 468.548 246.131C469.522 244.38 470.767 242.793 472.238 241.431C477.374 236.941 484.698 235.957 490.838 238.931C504.558 245.551 504.428 263.761 494.688 273.831ZM485.728 260.521C486.818 258.131 487.128 252.001 483.128 252.521C481.307 252.749 479.568 255.198 477.898 257.552C477.734 257.783 477.57 258.014 477.408 258.241C477.54 259.581 477.878 260.893 478.408 262.131C480.548 267.001 483.808 264.661 485.728 260.521Z" fill="#231F20"/>
<path fill-rule="evenodd" clip-rule="evenodd" d="M436.778 328.321C427.858 322.871 420.628 314.101 415.498 304.501C415.398 304.391 415.298 304.281 415.248 304.161C404.788 289.761 404.648 268.341 409.588 251.761C413.973 237.308 423.84 225.144 437.078 217.871C461.508 204.291 492.388 208.241 510.888 229.751C529.878 251.881 532.828 284.201 515.028 307.881C498.118 330.381 462.628 344.131 436.778 328.321ZM437.198 233.041C428.458 239.251 422.898 248.071 420.048 258.251C419.977 259.063 419.898 259.875 419.819 260.688C419.494 264.009 419.169 267.341 419.418 270.731C420.165 278.011 422.139 285.111 425.258 291.731C430.808 304.001 439.898 316.271 453.808 319.001C475.338 323.231 498.548 310.171 507.808 290.691C516.958 271.461 510.108 247.421 494.288 233.841C478.048 219.901 454.148 220.901 437.198 233.041Z" fill="#231F20"/>
<path fill-rule="evenodd" clip-rule="evenodd" d="M179.789 93.9311C207.139 105.051 219.339 133.891 216.509 162.221C213.659 190.691 193.309 216.411 162.769 216.221C143.06 216.101 126.06 204.621 117.06 188.391C109.93 180.791 106.06 169.601 104.06 159.791C100.94 144.801 102.83 128.861 111.35 115.861C126.15 93.3311 154.659 83.7211 179.789 93.9311ZM123.364 168.236C127.59 178.04 131.806 187.817 141.051 194.111C152.272 201.701 166.692 202.723 178.871 196.791C203.602 184.711 207.212 147.581 194.531 125.631C181.571 103.161 151.021 97.4812 131.22 114.161C121.472 122.293 115.763 134.278 115.59 146.971C115.536 149.978 115.693 152.986 116.06 155.971C117.222 156.251 118.198 157.036 118.72 158.111C120.412 161.391 121.888 164.815 123.364 168.236Z" fill="#231F20"/>
<path fill-rule="evenodd" clip-rule="evenodd" d="M163.808 125.821C169.195 123.257 175.516 123.607 180.587 126.751C190.657 132.921 192.587 150.421 184.297 158.821C176.287 166.991 161.958 165.841 155.778 156.071C153.008 151.521 152.282 146.014 153.778 140.901C154.35 138.982 155.265 137.183 156.478 135.591C156.808 131.491 159.648 127.941 163.808 125.821ZM167.518 147.151C168.588 148.871 170.588 150.161 172.588 148.751C174.528 147.341 174.588 141.721 172.718 140.191C171.568 139.251 170.328 139.931 169.348 140.561C168.858 140.876 168.411 141.186 167.979 141.485C167.548 141.784 167.133 142.071 166.708 142.341C166.433 143.99 166.718 145.683 167.518 147.151Z" fill="#231F20"/>
<path fill-rule="evenodd" clip-rule="evenodd" d="M39.6576 299.521C54.0076 281.101 81.3576 273.501 102.588 284.211C125.968 296.031 131.378 325.281 130.728 349.031C130.388 362.171 127.228 375.351 116.618 383.981C109.418 389.831 96.5276 396.341 86.5276 394.441C82.5609 394.865 78.559 394.842 74.5976 394.371C59.2276 392.441 43.1776 387.571 35.1076 373.371C22.4976 351.161 23.9276 319.741 39.6576 299.521ZM104.588 374.781C106.926 373.406 108.966 371.577 110.588 369.401H110.648C117.778 359.751 116.638 344.411 115.268 333.051C112.718 310.351 98.7775 288.771 73.1276 294.351C48.4576 299.721 37.8276 325.421 41.4576 348.641C42.3876 354.631 44.1076 361.001 47.1076 366.291C51.4276 373.811 58.1076 376.431 66.1076 378.551C73.1776 380.431 80.6576 381.961 87.9776 380.891C88.7176 380.781 89.4276 380.641 90.1176 380.481C91.5846 379.93 93.0743 379.433 94.5646 378.936C95.6951 378.559 96.826 378.182 97.9476 377.781C99.127 377.275 100.301 376.734 101.489 376.186C102.507 375.717 103.535 375.243 104.588 374.781Z" fill="#231F20"/>
<path fill-rule="evenodd" clip-rule="evenodd" d="M61.8696 320.941C67.5996 316.561 76.9996 315.491 82.9996 318.941C93.1896 324.801 96.0396 340.431 86.5896 348.331C77.5896 355.911 58.9596 351.331 54.4296 340.541C52.2296 335.311 52.7196 328.571 56.8096 324.361C58.2225 322.861 59.9507 321.693 61.8696 320.941ZM67.6796 336.941C69.5796 338.071 76.4896 339.091 77.6796 336.941V336.971C78.7796 334.971 76.5896 331.891 74.6596 331.571C72.4917 331.315 70.6724 333.156 68.9857 334.863C68.3695 335.486 67.771 336.092 67.1796 336.571C67.3378 336.706 67.5048 336.829 67.6796 336.941Z" fill="#231F20"/>
</svg>
