<svg width="415" height="574" viewBox="0 0 415 574" fill="none" xmlns="http://www.w3.org/2000/svg">
<path d="M347.175 62.266C339.905 73.396 332.875 85.266 324.805 96.046C327.525 97.956 330.355 99.716 333.255 101.366C340.825 89.566 349.565 78.366 357.255 66.716C365.585 54.086 372.395 40.106 381.105 27.776C379.565 26.556 378.005 25.376 376.455 24.226C375.105 23.226 373.715 22.226 372.305 21.166C369.635 27.836 364.955 34.026 361.235 40.046C356.655 47.506 351.968 54.9127 347.175 62.266Z" fill="#F7941E"/>
<path d="M336.365 103.086L336.595 103.206C340.995 105.556 345.505 107.656 350.065 109.636C356.865 97.636 366.065 86.556 373.405 75.026C377.745 68.226 381.949 61.336 386.015 54.356C388.805 49.576 391.165 44.356 394.545 39.956C391.628 36.8262 388.522 33.8774 385.245 31.126C379.145 44.546 369.895 57.216 361.725 69.306C353.945 80.766 345.845 92.796 336.365 103.086Z" fill="#F7941E"/>
<path d="M389.014 59.8463C385.134 66.3063 381.134 72.693 377.014 79.0063C370.014 89.6663 362.884 101.736 354.014 111.296C357.294 112.67 360.587 114.02 363.894 115.346L365.544 115.976C365.823 115.467 366.158 114.991 366.544 114.556C378.551 100.469 388.429 84.6982 395.864 67.7463C399.354 59.7463 402.604 51.7463 398.034 44.2563C395.654 49.7263 392.014 54.8663 389.014 59.8463Z" fill="#F7941E"/>
<path d="M363.084 130.146C353.724 126.296 344.254 122.656 335.174 118.146C326.465 113.938 318.346 108.606 311.024 102.286C307.476 99.1881 304.234 95.7556 301.344 92.036C300.494 90.946 298.344 86.806 296.744 84.396C292.494 88.096 289.624 93.296 285.744 97.396C289.484 101.806 292.144 107.686 295.574 111.906C301.352 118.754 307.731 125.073 314.634 130.786C329.264 143.346 346.024 159.496 366.744 157.116C369.814 152.476 372.394 147.916 373.354 142.306C374.804 133.956 369.824 132.926 363.084 130.146Z" fill="#E27683"/>
<path d="M38.3444 473.526C36.8611 476.245 35.5485 479.054 34.4144 481.936C30.4744 492.826 38.9044 500.936 46.5944 507.826C53.5244 514.046 62.5044 522.546 72.3544 522.826C79.5844 523.036 83.1344 518.286 85.9844 512.826C76.6791 512.678 67.6284 509.765 59.9844 504.456C49.5644 497.236 41.9044 485.936 38.3444 473.526Z" fill="#E27683"/>
<path d="M286.884 121.546C247.704 177.886 207.884 233.776 167.424 289.216C146.584 317.696 125.664 346.126 104.424 374.286C94.1302 387.913 83.7969 401.516 73.4235 415.096C68.2835 421.836 63.0635 428.516 57.8435 435.196C54.8435 439.046 52.0135 443.106 48.7635 446.756C48.3335 464.496 50.4835 481.826 66.1535 493.216C73.554 498.741 82.871 501.045 91.9935 499.606C98.7435 498.426 104.094 493.496 110.654 492.526C117.444 479.936 126.714 468.346 134.754 456.706C144.574 442.476 154.344 428.216 164.284 414.076L223.284 330.076C261.724 275.396 299.854 220.606 338.964 166.416C328.024 160.906 318.114 152.356 309.134 144.346C301.204 137.276 293.414 129.946 286.884 121.546Z" fill="#BE1E2D"/>
<path d="M320.844 93.0764C327.914 81.2064 336.364 69.8864 343.744 58.3564C348.464 50.9664 353.154 43.5564 357.744 36.0764C361.244 30.3364 364.224 23.7964 368.494 18.5264C367.414 17.8364 366.324 17.1764 365.214 16.5964C359.664 13.6964 356.634 15.1164 353.104 19.9264C347.924 26.9864 344.044 35.2464 339.644 42.8064C331.434 56.9164 323.644 72.8064 312.764 85.3864C313.914 86.6864 315.104 87.9464 316.364 89.1564C317.794 90.5364 319.294 91.8364 320.844 93.0764Z" fill="#F7941E"/>
<path d="M31.4737 509.796C30.6437 510.946 29.7237 512.116 28.8237 513.406C23.8237 520.566 23.4937 526.276 28.6637 533.526C29.4291 534.578 30.2608 535.58 31.1537 536.526C31.9243 537.08 32.5998 537.756 33.1537 538.526C37.1537 542.126 42.4237 544.746 47.3537 542.306C51.0937 540.456 54.3537 535.576 57.3537 531.436C51.9092 528.243 46.8205 524.478 42.1737 520.206C38.3747 516.983 34.7998 513.505 31.4737 509.796V509.796Z" fill="#E27683"/>
<path fill-rule="evenodd" clip-rule="evenodd" d="M409.884 36.1662C403.724 27.4062 394.484 20.3462 386.014 13.9562C385.319 13.4315 384.607 12.8865 383.88 12.3298L383.871 12.3231L383.87 12.3225C376.396 6.60077 367.326 -0.343591 357.724 0.886218C348.634 2.04622 343.064 9.80622 338.724 17.1262C333.231 26.3657 328.006 35.7815 322.788 45.1841L322.779 45.2008L322.765 45.2262C321.778 47.0038 320.792 48.7809 319.804 50.5562C318.966 52.0597 318.114 53.5691 317.257 55.0857L317.257 55.086C313.338 62.0222 309.333 69.1111 306.264 76.4962C305.314 74.6943 303.967 73.1318 302.324 71.9262C290.664 64.3562 277.554 86.6062 276.434 95.8262C276.414 96.0391 276.414 96.2533 276.434 96.4662C275.504 100.726 276.684 105.106 278.734 109.226C278.584 109.406 278.434 109.586 278.294 109.786C238.414 167.293 197.928 224.376 156.834 281.036C140.521 303.551 124.06 325.938 107.58 348.351C103.492 353.91 99.4026 359.471 95.3143 365.036C85.181 378.75 75.021 392.456 64.8343 406.156C59.4277 413.456 54.0277 420.773 48.6343 428.106C47.6232 429.487 46.5775 430.852 45.5313 432.217L45.531 432.218L45.5306 432.218C43.5457 434.809 41.5592 437.402 39.8043 440.106C39.4244 440.552 39.1173 441.055 38.8943 441.596C37.4629 443.929 36.2957 446.415 35.4143 449.006C35.0171 450.332 35.4044 451.769 36.4143 452.716C36.2145 454.766 36.1343 456.827 36.1743 458.886C33.3143 461.516 31.3243 464.956 29.2743 468.696C29.0829 469.045 28.8879 469.398 28.6905 469.755L28.6766 469.781L28.6761 469.781C25.6053 475.343 21.9375 481.986 21.8343 488.356C21.8677 493.029 23.1597 497.606 25.5743 501.606C20.3643 504.806 16.0243 511.606 14.0543 516.276C10.8143 523.966 14.1243 533.026 18.7743 539.886C18.5326 540.281 18.2914 540.676 18.0504 541.071L18.0425 541.084C15.5344 545.19 13.0454 549.264 10.1743 553.156C9.41435 554.186 8.61364 555.201 7.80898 556.22L7.80884 556.22L7.80862 556.221L7.80825 556.221L7.80758 556.222L7.80609 556.224C5.27643 559.429 2.70813 562.682 1.24432 566.626C-0.21568 570.506 4.14432 574.156 7.76432 573.146C17.1143 570.526 25.4243 560.506 30.9143 551.666C35.9943 554.816 41.8343 556.666 47.5843 555.486C57.1943 553.486 64.1743 543.486 69.5343 535.716C72.0346 536.051 74.5697 536.03 77.0643 535.656C89.7143 533.736 97.9043 522.316 101.314 510.656C104.774 509.681 108.037 508.107 110.954 506.006C111.709 505.84 112.402 505.466 112.954 504.926C122.255 496.284 129.753 485.42 137.07 474.819L137.071 474.818C139.194 471.742 141.302 468.688 143.434 465.716C147.134 460.565 150.855 455.415 154.577 450.262L154.579 450.259L154.582 450.255C160.988 441.387 167.4 432.511 173.724 423.606C193.844 395.186 213.944 366.753 234.024 338.306C273.411 282.506 312.978 226.85 352.724 171.336C359.087 172.69 365.674 172.573 371.984 170.996C374.384 170.554 376.323 168.785 376.984 166.436C376.994 166.427 377.003 166.418 377.013 166.409C377.021 166.401 377.03 166.393 377.039 166.385C377.056 166.37 377.073 166.356 377.09 166.341L377.09 166.341C377.139 166.3 377.188 166.258 377.234 166.206C385.314 156.776 393.734 136.766 384.234 125.606C382.781 123.993 381.063 122.641 379.154 121.606C393.044 104.716 404.924 85.6962 412.294 65.0562C415.834 55.0862 416.134 45.0462 409.884 36.1662ZM394.544 39.9562C392.224 42.9699 390.384 46.3794 388.556 49.7675C387.721 51.3148 386.889 52.8576 386.014 54.3562C381.934 61.3229 377.731 68.2129 373.404 75.0262C370.295 79.9249 366.856 84.7322 363.409 89.5521L363.408 89.5527L363.408 89.5535L363.407 89.5543L363.407 89.5552L363.406 89.556L363.406 89.5568L363.405 89.5576C358.704 96.1296 353.987 102.725 350.064 109.606C345.504 107.606 340.994 105.526 336.594 103.176L336.364 103.056C345.64 92.9882 353.594 81.2545 361.211 70.0188L361.714 69.2762C362.983 67.4011 364.277 65.512 365.582 63.6083C372.688 53.238 380.09 42.4348 385.244 31.0962C388.522 33.8573 391.628 36.8162 394.544 39.9562ZM381.134 27.7762C379.594 26.5562 378.034 25.3762 376.484 24.2262C375.844 23.747 375.19 23.2632 374.534 22.7782C373.807 22.241 373.079 21.7022 372.364 21.1662C370.395 26.0862 367.332 30.756 364.367 35.2758C363.312 36.8834 362.27 38.472 361.294 40.0462C356.694 47.5262 351.998 54.9329 347.204 62.2662C345.091 65.5013 342.998 68.7989 340.894 72.1141L340.894 72.1146L340.894 72.1149C335.759 80.205 330.559 88.3998 324.834 96.0462C327.554 97.9562 330.384 99.7162 333.284 101.366C337.361 94.9854 341.79 88.7948 346.218 82.6044L346.218 82.6037L346.219 82.6031L346.219 82.6024L346.219 82.6018L346.22 82.6011L346.22 82.6004L346.221 82.5991L346.222 82.5983L346.222 82.5979C349.981 77.3425 353.74 72.0873 357.284 66.7162C361.002 61.0794 364.417 55.1736 367.833 49.2656L367.833 49.2654L367.834 49.2645C372.072 41.9354 376.312 34.6029 381.134 27.7762ZM339.634 42.8062C341.023 40.4197 342.361 37.9633 343.703 35.497C346.614 30.1507 349.55 24.7575 353.094 19.9262C356.624 15.1162 359.654 13.6962 365.204 16.5962C366.314 17.1762 367.404 17.8362 368.484 18.5262C365.605 22.0792 363.313 26.2095 361.052 30.2827C359.96 32.2511 358.875 34.2061 357.734 36.0762C353.154 43.5562 348.464 50.9662 343.734 58.3562C340.718 63.0684 337.523 67.7454 334.317 72.4393L334.317 72.4399L334.316 72.4403L334.316 72.4405L334.316 72.4411L334.316 72.4415C329.677 79.2322 325.014 86.0581 320.834 93.0762C319.284 91.8362 317.784 90.5362 316.344 89.1562C315.084 87.9462 313.894 86.6862 312.744 85.3862C321.191 75.6234 327.808 63.806 334.199 52.3922L334.2 52.3901L334.201 52.388L334.202 52.3856L334.204 52.3829C336.02 49.1392 337.818 45.9282 339.634 42.8062ZM33.1843 538.566C37.2043 542.166 42.4543 544.786 47.3843 542.346C50.7477 540.682 53.7309 536.56 56.4723 532.772C56.7793 532.348 57.0832 531.928 57.3843 531.516C51.9398 528.323 46.8511 524.558 42.2043 520.286C38.404 517.05 34.8291 513.559 31.5043 509.836C31.1674 510.303 30.8156 510.773 30.4564 511.253L30.4557 511.254C29.9302 511.957 29.3887 512.68 28.8543 513.446C23.8543 520.566 23.5243 526.316 28.6943 533.566C29.4598 534.618 30.2914 535.62 31.1843 536.566C31.9549 537.12 32.6304 537.796 33.1843 538.566ZM72.3843 522.826C62.9874 522.559 54.3823 514.811 47.5935 508.698L47.074 508.23C46.9232 508.095 46.7733 507.96 46.6243 507.826C38.9343 500.926 30.5043 492.826 34.4443 481.936C35.5785 479.054 36.891 476.245 38.3743 473.526C41.9343 485.936 49.5943 497.236 60.0543 504.526C67.6983 509.835 76.7491 512.748 86.0543 512.896C83.1343 518.286 79.5843 523.036 72.3543 522.826H72.3843ZM164.274 414.066L223.274 330.066C232.054 317.583 240.817 305.094 249.578 292.606L249.605 292.567C279.205 250.38 308.787 208.217 338.934 166.406C327.994 160.896 318.104 152.336 309.104 144.336C301.174 137.266 293.384 129.936 286.854 121.536C247.734 177.923 207.914 233.813 167.394 289.206C146.574 317.686 125.654 346.116 104.394 374.276C94.1077 387.91 83.7743 401.513 73.3943 415.086C68.2543 421.826 63.0343 428.506 57.8143 435.186C56.8832 436.381 55.9685 437.596 55.0525 438.813L55.0516 438.814C53.0166 441.518 50.9753 444.229 48.7343 446.746C48.3043 464.486 50.4543 481.816 66.1243 493.206C73.53 498.736 82.8553 501.041 91.9843 499.596C95.3271 499.012 98.3265 497.515 101.3 496.032C104.33 494.519 107.333 493.021 110.644 492.516C115.442 483.621 121.498 475.224 127.46 466.956L127.461 466.955C129.937 463.522 132.397 460.111 134.744 456.696C136.89 453.587 139.034 450.476 141.177 447.365C148.842 436.24 156.506 425.116 164.274 414.066ZM373.364 142.346C372.364 147.956 369.824 152.516 366.754 157.156C347.557 159.361 331.76 145.66 317.906 133.645C316.807 132.692 315.72 131.749 314.644 130.826C307.741 125.113 301.363 118.795 295.584 111.946C293.958 109.945 292.504 107.57 291.026 105.156C289.388 102.479 287.721 99.7546 285.754 97.4362C287.382 95.7121 288.832 93.7935 290.284 91.8737C292.284 89.2281 294.286 86.5803 296.754 84.4362C297.533 85.6168 298.449 87.2126 299.28 88.6616C300.146 90.1705 300.921 91.5202 301.354 92.0762C304.244 95.7958 307.486 99.2283 311.034 102.326C318.356 108.646 326.475 113.978 335.184 118.186C342.179 121.63 349.405 124.581 356.634 127.533C358.789 128.413 360.945 129.293 363.094 130.186C363.725 130.443 364.341 130.685 364.937 130.919C370.702 133.184 374.669 134.743 373.364 142.346ZM366.514 114.606C378.526 100.504 388.404 84.7156 395.834 67.7462C399.324 59.7562 402.574 51.7462 397.984 44.3062C396.269 48.2815 393.878 52.0719 391.548 55.7658C390.672 57.1547 389.804 58.5299 388.984 59.8962C385.111 66.3562 381.111 72.7429 376.984 79.0562C375.683 81.0385 374.376 83.0695 373.054 85.1241C367.266 94.1184 361.189 103.564 353.984 111.346C357.238 112.713 360.531 114.063 363.864 115.396L365.514 116.026C365.794 115.517 366.129 115.041 366.514 114.606Z" fill="#231F20"/>
</svg>
