<svg width="517" height="460" viewBox="0 0 517 460" fill="none" xmlns="http://www.w3.org/2000/svg">
<path fill-rule="evenodd" clip-rule="evenodd" d="M14.2016 297.175C11.9649 269.729 11.9282 242.147 14.0916 214.695C16.1716 188.745 23.0316 165.735 48.0916 153.535C69.9116 142.845 96.2215 139.045 120.092 135.705C143.62 132.574 167.375 131.477 191.092 132.425C207.232 137.654 224.121 135.943 240.836 134.251C246.149 133.713 251.444 133.176 256.692 132.865C281.442 131.395 306.252 132.955 330.932 134.595C355.612 136.235 380.162 137.035 404.882 137.515C427.062 137.945 452.172 140.125 469.172 156.125C484.084 170.15 487.357 192.682 490.251 212.607L490.253 212.615L490.253 212.618L490.253 212.621C490.621 215.152 490.983 217.641 491.362 220.065C495.195 244.839 497.882 269.722 499.422 294.715C500.932 319.215 501.452 343.765 500.832 368.305C500.767 370.867 500.764 373.597 500.761 376.431V376.431V376.432V376.432V376.433C500.739 395.112 500.713 418.299 483.062 427.615C474.332 432.225 463.912 433.205 454.232 433.965C440.912 435.015 427.562 435.255 414.232 435.255C402.745 435.242 391.262 435.015 379.779 434.789H379.777H379.775H379.773H379.772C365.855 434.515 351.938 434.241 338.012 434.345C292.334 434.692 247.123 438.658 201.717 442.642C197.4 443.021 193.082 443.399 188.762 443.775C145.672 447.475 92.9916 450.775 55.0916 425.775C35.8016 413.075 28.3416 392.325 24.0916 370.635C19.3875 346.359 16.0854 321.831 14.2016 297.175ZM445.022 355.675C449.378 357.865 454.623 357.23 458.332 354.065C461.504 351.311 463.178 347.213 462.842 343.025C462.522 339.235 461.182 335.035 458.342 332.335C455.152 329.305 449.962 328.665 446.472 331.075C442.142 331.145 438.872 334.735 437.522 338.575C435.272 344.955 439.022 352.855 445.022 355.675ZM345.942 267.315C353.097 259.297 362.939 254.175 373.612 252.915C391.762 250.545 407.612 257.685 420.612 268.915C421.205 267.534 421.982 266.239 422.922 265.065C422.977 264.992 423.032 264.919 423.088 264.845C423.503 264.295 423.924 263.738 424.392 263.235C425.165 262.546 426.047 261.989 427.002 261.585C426.942 261.585 428.002 260.855 428.002 260.865C428.541 260.514 429.106 260.204 429.692 259.935C431.498 258.964 433.724 259.253 435.222 260.655C436.669 262.131 436.963 264.388 435.942 266.185C435.521 266.905 435.021 267.576 434.452 268.185C434.452 268.185 433.942 268.755 433.992 268.635C433.568 269.558 433.027 270.421 432.382 271.205C431.992 271.585 431.582 271.945 431.172 272.305C429.985 273.419 428.699 274.423 427.332 275.305C427.519 275.509 427.706 275.711 427.892 275.912L427.892 275.912C428.618 276.697 429.333 277.469 430.042 278.305L430.152 278.203C437.532 271.431 445.587 264.039 454.632 260.875C458.722 259.455 462.242 264.565 460.142 268.045C455.291 276.087 446.546 282.308 438.475 288.049C436.429 289.505 434.426 290.929 432.542 292.345C429.742 294.445 425.882 292.635 424.172 290.145C414.172 275.565 397.842 263.805 379.572 263.905C370.172 263.905 361.092 267.285 354.512 274.095C350.645 278.097 348.924 282.641 347.148 287.33C346.301 289.566 345.442 291.835 344.332 294.095C342.822 297.175 338.332 296.095 337.452 293.195C334.542 284.265 340.182 273.955 345.942 267.315ZM267.422 326.645C261.302 334.695 242.162 333.175 239.092 322.465C238.092 318.805 232.232 319.415 232.332 323.385C232.762 338.595 252.212 345.835 265.212 342.125C277.882 338.495 289.622 318.345 281.382 306.345C280.212 304.645 277.532 303.865 275.972 305.645C273.313 308.696 272.397 312.513 271.474 316.359C270.61 319.963 269.739 323.593 267.422 326.645ZM78.5623 363.065C69.9618 362.575 63.1414 353.745 66.3716 345.335C68.5217 339.755 75.7322 335.445 81.5825 337.565C82.2274 337.652 82.8633 337.796 83.4826 337.995C87.4735 339.254 90.582 342.407 91.7831 346.415C94.1532 354.905 87.4028 363.575 78.5623 363.065ZM69.1392 270.344C66.4487 268.171 63.7595 265.998 60.9816 263.925C57.8616 261.595 54.0916 266.065 55.9216 269.075C58.9216 274.225 73.2316 295.165 80.5816 287.365C81.0276 286.901 81.3896 286.363 81.6516 285.775C83.4252 284.406 85.084 282.928 86.7394 281.454C89.9188 278.622 93.086 275.801 97.0316 273.775C105.441 269.42 115.079 268.045 124.372 269.875C133.577 271.752 141.684 277.153 146.962 284.925C148.883 287.675 150.443 290.615 152.002 293.552C154.037 297.387 156.07 301.218 158.902 304.615C162.222 308.625 167.182 304.115 166.632 300.115C163.712 279.255 145.092 260.805 124.472 258.015C114.052 256.605 100.272 258.835 89.4716 264.835C89.1316 264.342 88.7739 263.858 88.4162 263.373C88.2372 263.131 88.0583 262.889 87.8816 262.645C85.6892 259.417 83.2163 256.389 80.4916 253.595C77.8615 251.105 72.8916 253.535 74.1416 257.285C75.4753 260.924 77.1284 264.438 79.0816 267.785C79.2176 268.033 79.3547 268.287 79.4937 268.543C79.9371 269.362 80.399 270.215 80.9016 271.045C79.2583 272.602 77.7927 274.336 76.5316 276.215C75.9401 275.73 75.3602 275.285 74.844 274.889C74.6795 274.763 74.5214 274.641 74.3716 274.525C72.6109 273.149 70.8748 271.746 69.1392 270.344Z" fill="#FFF200"/>
<path d="M89.0918 129.646C100.642 127.396 112.322 125.806 123.762 124.506C144.497 122.106 165.382 121.257 186.243 121.966C186.577 121.42 186.992 120.928 187.473 120.506C186.851 117.045 186.593 113.529 186.703 110.016C181.243 111.886 175.003 111.016 169.233 111.226C162.062 111.546 153.742 113.576 146.902 111.026C144.632 110.176 143.112 106.966 145.332 105.086C151.332 100.036 160.092 99.6355 167.703 99.3355C174.223 99.0855 181.433 98.4955 187.283 101.396C187.373 100.636 187.453 99.9755 187.533 99.3955C187.673 98.3955 187.853 97.4555 188.043 96.5055H187.803C179.283 94.5755 170.953 92.6455 162.312 91.1855C153.152 89.6355 143.152 88.2555 134.822 83.9955C130.772 81.9255 133.252 76.7455 136.902 76.3055C147.282 75.0655 158.982 78.0155 169.183 79.9755C176.713 81.4355 184.833 82.9755 190.283 88.5655C192.16 83.383 195.752 78.9974 200.463 76.1355C185.193 66.9455 170.573 56.8055 155.462 47.3055C141.622 38.6056 120.102 24.5956 103.682 34.6256C87.7318 44.3556 85.2617 68.3055 84.5617 85.0455C84.075 93.62 84.1184 102.216 84.6917 110.786C85.2217 117.416 87.5718 123.416 89.0918 129.646Z" fill="#00AEEF"/>
<path d="M323.092 79.5155C326.552 81.0355 325.092 85.8955 322.092 86.9155C312.662 90.1955 302.092 89.5455 292.292 91.4455C282.727 93.3053 273.368 96.1021 264.352 99.7955C264.612 100.696 264.802 101.606 265.012 102.516C270.403 101.616 275.856 101.148 281.322 101.116C287.402 101.116 293.422 100.766 298.832 103.896C302.442 105.986 301.162 110.716 297.762 112.086C292.112 114.356 285.962 113.086 280.042 112.686C275.382 112.356 270.852 111.856 266.282 111.166C266.423 113.132 266.46 115.105 266.392 117.076C271.332 116.929 276.275 116.872 281.222 116.906C311.952 117.146 342.552 120.566 373.222 121.646C376.902 121.776 380.602 121.836 384.312 121.876C384.242 120.925 384.4 119.973 384.772 119.096C389.392 108.096 389.262 96.0255 389.572 84.2755C389.882 72.5255 389.702 60.6255 389.042 48.8255C388.312 35.8255 385.852 28.2755 374.282 21.3255C369.712 18.5655 364.932 15.4255 359.602 14.4755C353.602 13.4755 347.862 15.4755 342.232 17.3855C323.311 23.7459 305.675 33.4272 290.152 45.9755C277.082 56.5555 266.152 69.2055 255.262 81.9055C257.657 84.9301 259.687 88.2261 261.312 91.7255C278.612 80.8955 304.012 71.0655 323.092 79.5155Z" fill="#00AEEF"/>
<path d="M197.962 120.775C210.622 123.415 223.132 121.305 236.012 119.545C241.772 118.765 247.535 118.169 253.302 117.755C253.952 108.835 252.352 100.055 247.402 92.3753C243.972 87.0853 240.062 83.5353 233.492 83.5553C229.492 83.5553 225.492 84.1053 221.492 84.4053C212.212 85.1153 204.152 85.5653 201.352 95.8153C200.105 100.901 199.348 106.095 199.092 111.325C198.872 113.785 197.932 117.565 197.962 120.775Z" fill="#00AEEF"/>
<path fill-rule="evenodd" clip-rule="evenodd" d="M9.86218 179.535C1.22218 201.895 0.432182 227.835 0.0521818 251.535C-0.367818 278.535 1.78218 305.485 5.25218 332.205C5.54695 334.476 5.83649 336.759 6.1272 339.051C8.84456 360.48 11.6649 382.721 19.8222 402.685C38.0122 447.185 90.6822 457.825 133.882 459.385C165.74 460.575 197.637 457.564 229.516 454.554H229.517H229.517H229.517L229.518 454.554C251.224 452.505 272.921 450.456 294.592 449.735C322.922 448.795 351.232 448.965 379.592 449.805C382.097 449.88 384.604 449.959 387.113 450.037L387.123 450.038C412.464 450.832 438.02 451.633 463.212 448.585C483.152 446.165 502.372 438.885 510.262 418.895C513.902 409.665 514.742 399.625 515.322 389.805C516.182 375.465 516.542 361.085 516.582 346.725C516.752 293.435 513.072 237.995 500.942 185.955C495.092 160.885 481.472 141.035 457.252 130.955C438.822 123.255 419.002 122.265 399.252 122.045C403.713 111.105 404.024 99.2779 404.334 87.4695C404.347 86.9948 404.359 86.52 404.372 86.0454C404.782 70.6754 404.842 54.9554 403.072 39.6554C401.732 28.1154 397.162 19.2554 387.592 12.5154C378.022 5.77538 366.312 -0.724624 354.362 0.0653758C342.955 0.829113 331.069 6.47281 320.787 11.3546L320.132 11.6654C309.146 16.9296 298.723 23.2956 289.022 30.6654C272.832 42.8854 257.962 57.4854 248.152 75.2354C237.432 68.3954 223.032 70.6754 210.672 72.6554H210.552C210.539 72.6422 210.527 72.6291 210.515 72.6159C210.505 72.6054 210.495 72.5948 210.486 72.5842L210.475 72.5714C210.437 72.5294 210.4 72.4874 210.352 72.4454C192.762 56.6654 172.922 42.8554 152.562 30.8454C135.762 20.9354 112.562 12.1954 94.8422 25.0054C78.5122 36.8054 73.4722 58.6254 71.9122 77.5654C70.9077 88.6212 70.7773 99.739 71.5222 110.815C72.0522 117.655 72.8022 125.935 75.9222 132.565C67.63 134.586 59.4792 137.148 51.5222 140.235C32.3722 147.755 17.4122 160.065 9.86218 179.535ZM290.222 45.9754C305.746 33.4271 323.382 23.7457 342.302 17.3854L342.668 17.2622L343.193 17.0853C348.538 15.2819 353.988 13.4428 359.672 14.4754C364.591 15.3983 369.042 18.1014 373.291 20.6823C373.646 20.8979 374 21.1126 374.352 21.3254C385.922 28.2754 388.352 35.8654 389.112 48.8254C389.772 60.6254 389.942 72.4654 389.642 84.2754C389.618 85.2327 389.596 86.1914 389.575 87.1509L389.574 87.165L389.574 87.1794C389.33 98.0465 389.084 109.005 384.842 119.095C384.47 119.972 384.313 120.925 384.382 121.875C380.672 121.875 376.972 121.775 373.292 121.645C360.272 121.187 347.271 120.308 334.271 119.43C316.619 118.236 298.972 117.044 281.292 116.905C276.339 116.865 271.396 116.922 266.462 117.075C266.531 115.105 266.494 113.132 266.352 111.165C270.922 111.855 275.452 112.355 280.112 112.685C281.23 112.765 282.355 112.874 283.484 112.983C288.336 113.452 293.249 113.927 297.832 112.085C301.232 110.715 302.512 105.985 298.902 103.895C293.887 100.994 288.348 101.048 282.723 101.104L282.721 101.104L282.719 101.104L282.716 101.104C282.275 101.108 281.834 101.112 281.392 101.115C275.927 101.148 270.473 101.616 265.082 102.515C265.037 102.318 264.992 102.121 264.948 101.924L264.947 101.922C264.786 101.21 264.626 100.5 264.422 99.7954C273.439 96.102 282.797 93.3051 292.362 91.4454C296.215 90.6968 300.194 90.3441 304.178 89.9908C310.307 89.4475 316.447 88.9031 322.162 86.9154C325.092 85.9154 326.592 81.0354 323.162 79.5154C304.072 71.0854 278.672 80.8954 261.442 91.7254C259.818 88.2259 257.787 84.9299 255.392 81.9054C266.222 69.2054 277.152 56.5554 290.222 45.9754ZM225.242 84.0782C223.995 84.195 222.748 84.3119 221.502 84.4054L221.054 84.4395C211.964 85.1324 204.117 85.7305 201.372 95.8154C200.108 100.9 199.335 106.093 199.062 111.325C198.992 112.277 198.812 113.432 198.618 114.676C198.312 116.633 197.972 118.813 197.972 120.775C209.649 123.21 221.199 121.604 233.029 119.959C234.024 119.821 235.022 119.682 236.021 119.545C241.781 118.772 247.545 118.175 253.311 117.755C253.961 108.835 252.361 100.055 247.411 92.3754C243.981 87.0854 240.071 83.5554 233.501 83.5554C230.748 83.5623 227.995 83.8202 225.242 84.0782ZM84.5022 85.0554C85.2022 68.3154 87.6722 44.3654 103.622 34.6354C119.659 24.8687 140.561 37.995 154.422 46.6994C154.753 46.9074 155.08 47.1128 155.403 47.3154C161.616 51.222 167.747 55.2369 173.874 59.2494L173.875 59.2499L173.876 59.25C182.648 64.9948 191.413 70.7347 200.403 76.1454C195.692 79.0073 192.101 83.3928 190.223 88.5754C184.848 83.0324 176.875 81.4875 169.433 80.0455L169.123 79.9854C167.75 79.7161 166.349 79.4303 164.928 79.1403L164.927 79.1402C155.796 77.2769 145.825 75.2424 136.843 76.3154C133.193 76.7554 130.713 81.9354 134.763 84.0054C142.349 87.885 151.32 89.3759 159.781 90.782C160.61 90.9199 161.435 91.057 162.253 91.1954C170.439 92.5787 178.374 94.384 186.407 96.2114L187.743 96.5154H187.983C187.957 96.6528 187.931 96.7884 187.905 96.9225C187.744 97.7645 187.594 98.5514 187.473 99.4054C187.393 99.9454 187.313 100.605 187.223 101.405C181.859 98.7462 175.351 99.0214 169.28 99.2782C168.73 99.3015 168.184 99.3246 167.643 99.3454C160.033 99.6454 151.263 100.045 145.273 105.095C143.053 106.975 144.573 110.185 146.843 111.035C151.874 112.911 157.707 112.309 163.293 111.732C165.301 111.524 167.277 111.32 169.173 111.235C170.886 111.158 172.639 111.185 174.401 111.212C178.575 111.276 182.797 111.34 186.643 110.025C186.533 113.539 186.791 117.055 187.413 120.515C186.932 120.938 186.518 121.43 186.183 121.975C165.322 121.267 144.437 122.116 123.703 124.515C112.262 125.815 100.582 127.405 89.0322 129.655C88.5574 127.683 87.9975 125.735 87.4364 123.782L87.4364 123.782C86.2249 119.565 85.0081 115.33 84.6322 110.805C84.0722 102.235 84.0422 93.639 84.5422 85.0654L84.5022 85.0554ZM191.002 132.375C167.313 131.449 143.589 132.563 120.092 135.705C96.172 139.065 69.8621 142.845 48.0321 153.535C23.0922 165.695 16.2122 188.745 14.0922 214.695C11.9321 242.148 11.9722 269.729 14.2122 297.175C16.0927 321.831 19.3915 346.359 24.0922 370.635C28.2921 392.325 35.7521 413.065 55.0021 425.725C92.902 450.785 145.582 447.475 188.672 443.725C192.979 443.351 197.283 442.973 201.586 442.596C247.009 438.611 292.248 434.642 337.921 434.295C351.642 434.193 365.355 434.466 379.066 434.739C390.757 434.972 402.447 435.205 414.141 435.205C427.511 435.215 440.861 434.915 454.141 433.915C463.821 433.155 474.241 432.175 482.971 427.565C500.623 418.249 500.649 395.062 500.67 376.383C500.673 373.549 500.677 370.818 500.741 368.255C501.331 343.665 500.841 319.165 499.331 294.665C497.824 269.639 495.138 244.755 491.271 220.015C490.892 217.587 490.529 215.093 490.161 212.557C487.266 192.632 483.993 170.1 469.081 156.075C452.051 140.065 426.971 137.895 404.791 137.465C380.071 136.985 355.541 136.195 330.841 134.545C306.142 132.895 281.352 131.345 256.602 132.815C251.354 133.126 246.059 133.663 240.746 134.201C224.031 135.893 207.142 137.604 191.002 132.375Z" fill="#231F20"/>
<path d="M80.5422 287.315C80.9882 286.851 81.3503 286.313 81.6122 285.725C86.7922 281.725 90.9922 276.855 96.9922 273.725C105.402 269.37 115.04 267.995 124.332 269.825C133.537 271.702 141.644 277.103 146.922 284.875C151.352 291.215 153.922 298.575 158.862 304.565C162.182 308.565 167.142 304.025 166.592 300.065C163.672 279.205 145.052 260.755 124.432 257.965C114.052 256.555 100.272 258.825 89.4322 264.785C88.9222 264.045 88.3722 263.325 87.8422 262.595C85.6499 259.367 83.1769 256.339 80.4522 253.545C77.8222 251.055 72.8522 253.485 74.1022 257.235C75.4359 260.874 77.0891 264.388 79.0422 267.735C79.6122 268.735 80.2022 269.905 80.8622 270.995C79.2189 272.552 77.7533 274.286 76.4922 276.165C75.7122 275.525 74.9522 274.955 74.3322 274.475C69.8422 270.965 65.5122 267.285 60.9422 263.875C57.8222 261.545 54.0822 265.975 55.8422 268.975C58.8822 274.175 73.1922 295.115 80.5422 287.315Z" fill="#231F20"/>
<path d="M344.321 294.065C347.76 287.065 348.79 279.935 354.5 274.065C361.08 267.255 370.16 263.925 379.56 263.875C397.83 263.775 414.13 275.535 424.16 290.115C425.87 292.605 429.73 294.415 432.53 292.315C441.85 285.315 454.049 278.095 460.129 268.015C462.229 264.535 458.709 259.425 454.619 260.845C445.53 264.025 437.44 271.475 430.03 278.275C429.14 277.275 428.24 276.275 427.32 275.275C428.688 274.393 429.973 273.389 431.16 272.275C431.57 271.915 431.98 271.555 432.37 271.175C433.015 270.391 433.556 269.527 433.98 268.605C433.93 268.725 434.44 268.155 434.44 268.155C435.009 267.546 435.509 266.875 435.93 266.155C436.951 264.358 436.657 262.101 435.21 260.625C433.712 259.223 431.487 258.934 429.68 259.905C429.094 260.174 428.53 260.484 427.99 260.835C427.99 260.835 426.99 261.565 426.99 261.555C426.035 261.959 425.154 262.516 424.38 263.205C423.85 263.775 423.38 264.415 422.91 265.035C421.97 266.209 421.193 267.504 420.6 268.885C407.6 257.645 391.73 250.505 373.6 252.885C362.928 254.145 353.086 259.267 345.93 267.285C340.171 273.925 334.531 284.235 337.431 293.155C338.371 296.065 342.811 297.165 344.321 294.065Z" fill="#231F20"/>
<path d="M265.221 342.125C277.891 338.495 289.631 318.355 281.391 306.345C280.221 304.645 277.541 303.865 275.981 305.645C270.831 311.555 272.221 320.335 267.431 326.645C261.311 334.695 242.171 333.175 239.101 322.465C238.051 318.805 232.231 319.465 232.341 323.385C232.771 338.595 252.261 345.835 265.221 342.125Z" fill="#231F20"/>
<path d="M83.4826 338.005C82.8633 337.806 82.2274 337.662 81.5825 337.575C75.7321 335.455 68.5217 339.765 66.3716 345.345C63.1414 353.755 69.9618 362.585 78.5623 363.075C87.4028 363.575 94.1532 354.905 91.7831 346.425C90.5819 342.417 87.4734 339.264 83.4826 338.005Z" fill="#231F20"/>
<path d="M446.484 331.065C442.154 331.135 438.884 334.725 437.534 338.565C435.284 344.945 439.004 352.845 445.034 355.665C449.386 357.853 454.625 357.223 458.334 354.065C461.498 351.322 463.175 347.241 462.854 343.065C462.534 339.275 461.194 335.065 458.354 332.375C455.164 329.275 449.974 328.635 446.484 331.065Z" fill="#231F20"/>
</svg>
