<svg width="501" height="556" viewBox="0 0 501 556" fill="none" xmlns="http://www.w3.org/2000/svg">
<path d="M351.58 49.4831C355.476 43.6198 360.191 38.3431 365.58 33.8131C377.347 24.0617 391.601 17.7865 406.74 15.6931C423.425 13.3586 440.427 15.1193 456.28 20.8231C460.109 22.1943 463.793 23.9394 467.28 26.0331C459.28 17.3831 448.33 11.7831 435.81 9.78313C415.45 6.53313 392.41 12.1031 374.43 21.7831C357.31 31.0131 345.07 45.7831 341.34 64.9931L343.75 65.9931C344.68 60.2131 348.68 53.9531 351.58 49.4831Z" fill="#754C29"/>
<path d="M215.259 205.753C215.319 205.393 215.379 205.033 215.469 204.703C214.729 204.903 214.339 205.193 215.259 205.753Z" fill="white"/>
<path d="M77.349 169.743C69.349 167.933 66.149 154.623 65.349 148.053C64.002 138.465 66.7046 128.749 72.809 121.233C79.369 113.313 89.159 109.813 99.299 110.633C103.549 110.973 110.969 112.073 114.109 115.803C116.859 113.573 119.759 111.493 122.759 109.513C103.409 96.3531 83.209 84.3231 58.859 84.6531C41.489 84.8931 24.629 91.9631 13.409 104.853C11.1971 109.432 9.65464 114.305 8.829 119.323C2.679 156.873 33.989 188.103 70.269 188.743C72.489 182.373 74.799 176.013 77.349 169.743Z" fill="#754C29"/>
<path d="M90.4391 118.273C84.6538 119.665 79.6493 123.279 76.5091 128.333C70.6191 137.423 69.8791 156.563 80.1591 163.073C83.3625 155.698 87.0679 148.551 91.2491 141.683C96.1467 133.721 102.127 126.478 109.019 120.163C105.029 116.483 94.4791 117.383 90.4391 118.273Z" fill="#A97C50"/>
<path d="M126.039 107.403L127.869 106.283C119.259 91.1531 105.679 81.8631 88.6791 77.1531C71.8491 72.4931 52.5591 71.5531 36.8491 80.1531C29.5103 84.1667 23.1673 89.7783 18.2891 96.5731C28.4291 87.6931 42.0791 82.5731 55.5091 81.5731C80.5791 79.5731 106.929 91.6631 126.039 107.403Z" fill="#754C29"/>
<path d="M478.44 45.3031C477.865 43.5097 477.197 41.7474 476.44 40.0231C474.265 36.181 471.238 32.8896 467.59 30.4031C461.32 26.0531 453.88 23.5731 446.59 21.6531C432 17.8431 416.46 16.8631 401.59 19.8931C387.984 22.5831 375.349 28.8713 365 38.1031C360.154 42.4602 355.94 47.4718 352.48 52.9931C349.77 57.3431 348.34 62.4431 345.93 66.8831C346.99 67.3331 348.05 67.7931 349.1 68.2631C349.42 57.2631 361.1 50.7931 370.72 48.2631C383.85 44.8569 397.767 46.2763 409.94 52.2631C415.24 54.8731 420.03 58.4931 422.48 64.0131C425.23 70.2431 424.87 77.4531 425.28 84.1131C426.08 96.9531 425.72 110.113 414.67 118.523L414.53 118.603C421.36 126.183 427.83 134.163 434.03 142.373C452.03 134.063 466.81 122.493 475.26 103.873C483.447 85.3956 484.578 64.5584 478.44 45.3031Z" fill="#754C29"/>
<path d="M409.58 113.223C409.746 113.008 409.938 112.813 410.15 112.643C419.1 105.643 418.37 94.2931 417.77 84.0831C417.49 79.3431 417.77 74.0831 416.5 69.4731C415.05 64.3231 411.63 61.4731 407.07 59.0831C398.239 54.5504 388.257 52.7539 378.4 53.9231C369.54 54.9231 355.95 59.0431 355.4 69.9231C355.379 70.372 355.273 70.8129 355.09 71.2231C375.61 81.5731 393.52 96.2631 409.58 113.223Z" fill="#A97C50"/>
<path d="M278.018 247.343C273.257 247.4 268.509 246.825 263.898 245.633C267.958 256.783 269.978 268.633 274.008 279.773C275.678 269.003 276.968 258.193 278.018 247.343Z" fill="white"/>
<path d="M179.469 257.303C181.009 263.073 182.049 269.023 183.659 274.763C184.559 277.973 185.559 281.143 186.659 284.293C188.489 274.443 190.429 264.603 192.329 254.753C188.173 256.167 183.849 257.025 179.469 257.303H179.469Z" fill="white"/>
<path d="M226.53 204.853C225.606 204.836 224.688 205.017 223.84 205.383C225.27 205.086 226.721 204.902 228.18 204.833L226.53 204.853Z" fill="white"/>
<path d="M224.54 443.633C230.17 445.616 236.065 446.745 242.03 446.983C235.1 435.983 228.41 424.763 221.76 413.563C221.798 423.649 222.728 433.711 224.54 443.633Z" fill="white"/>
<path fill-rule="evenodd" clip-rule="evenodd" d="M291.038 62.5731C328.678 63.8431 362.788 80.5731 390.618 105.403C420.528 132.053 442.438 165.963 463.318 199.823L450.638 195.823C447.338 194.803 444.798 198.613 446.338 201.413C469.159 242.848 484.468 287.994 491.558 334.763C485.754 328.91 479.188 323.865 472.038 319.763C469.678 318.413 466.108 320.053 466.318 323.053C469.27 364.375 466.31 405.907 457.528 446.393C455.175 438.56 452.842 430.726 450.528 422.893C449.558 419.593 443.758 418.963 443.198 422.893C439.38 449.629 431.566 475.639 420.018 500.053C420.061 493.264 420.529 486.484 421.418 479.753C421.948 475.853 416.148 474.853 414.418 477.853C387.098 525.163 331.828 540.763 280.828 546.853C283.397 542.434 285.155 537.591 286.018 532.553C286.458 530.023 284.368 526.773 281.368 527.903C259.078 536.403 234.608 544.933 210.368 541.233C191.068 538.273 172.678 527.573 164.678 509.153C163.248 505.763 157.308 507.433 157.678 511.053L159.298 526.683C108.828 511.403 95.5984 451.533 90.2984 405.333C89.8984 401.433 83.9684 399.863 82.8984 404.333C80.7584 413.3 78.6151 422.27 76.4684 431.243C57.2184 396.573 67.3284 354.473 76.8284 317.893C77.7384 314.403 73.1384 311.363 70.5484 314.243C67.1283 318.014 64.0527 322.084 61.3584 326.403C58.8552 309.073 58.0948 291.535 59.0884 274.053C60.193 273.822 60.9254 272.769 60.7584 271.653C60.4119 266.52 60.3852 261.37 60.6784 256.233C61.8504 246.851 63.5025 237.536 65.6284 228.323C65.8101 227.582 65.7433 226.802 65.4384 226.103C66.7884 220.613 68.3384 215.153 70.0484 209.753C71.5584 205.013 73.1184 200.253 74.7484 195.513C75.8397 194.576 76.3437 193.125 76.0684 191.713C80.1072 180.021 84.8492 168.583 90.2684 157.463C98.4284 141.033 109.268 126.203 124.888 116.203C139.273 106.947 155.384 99.7996 171.089 92.832C172.623 92.1512 174.154 91.4722 175.678 90.7931C211.818 74.6731 250.898 61.1731 291.038 62.5731ZM327.108 96.7931C321.246 91.5036 313.792 88.3129 305.918 87.7231C305.509 87.7333 305.141 87.9739 304.967 88.3445C304.794 88.7152 304.844 89.1522 305.098 89.4731C304.715 90.1093 304.895 90.9345 305.508 91.3531C308.826 93.7567 312.483 95.6541 316.358 96.9831C318.321 97.768 320.373 98.3055 322.468 98.5831C323.678 98.8031 324.908 98.9931 326.158 99.1031C326.701 99.0939 327.187 98.7627 327.393 98.2606C327.6 97.7584 327.488 97.1816 327.108 96.7931ZM118.468 143.203C119.248 142.363 120.048 141.573 120.868 140.813C120.947 140.634 121.067 140.476 121.218 140.353C126.658 135.583 132.338 131.043 139.808 130.453C140.38 130.467 140.888 130.818 141.105 131.347C141.322 131.875 141.205 132.482 140.808 132.893C138.988 134.706 137.102 136.44 135.148 138.093C135.123 138.267 135.054 138.432 134.948 138.573C134.323 139.276 133.533 139.812 132.648 140.133C131.768 140.833 130.868 141.513 129.958 142.133C126.618 144.543 123.258 146.523 119.068 145.473C118.615 145.329 118.266 144.963 118.144 144.503C118.022 144.043 118.145 143.552 118.468 143.203ZM113.954 382.066C114.247 382.028 114.467 381.779 114.468 381.483H114.418C114.338 378.873 114.238 376.276 114.137 373.687L114.137 373.686L114.137 373.685L114.137 373.684L114.137 373.683L114.137 373.682L114.137 373.681L114.137 373.68L114.137 373.679L114.137 373.678L114.137 373.677C113.688 362.072 113.244 350.623 114.658 338.893C116.413 324.156 120.049 309.705 125.478 295.893C125.888 294.843 124.218 294.423 123.808 295.423C113.398 321.573 106.988 353.633 113.308 381.633C113.385 381.919 113.661 382.104 113.954 382.066ZM127.278 414.193C121.638 396.683 122.128 376.423 126.998 358.793C127.278 357.793 128.758 358.203 128.578 359.233C125.258 377.893 125.908 395.143 128.708 413.803C128.816 414.212 128.572 414.63 128.163 414.738C127.755 414.846 127.336 414.602 127.228 414.193H127.278ZM114.018 182.723C114.408 180.183 110.698 177.933 109.408 180.783C100.678 200.113 123.378 214.573 140.488 210.533C158.898 206.193 167.578 184.133 166.818 166.803C166.768 165.213 165.578 163.891 164.001 163.675C162.425 163.46 160.923 164.414 160.448 165.933C159.491 169.108 158.84 172.431 158.19 175.752C156.341 185.194 154.496 194.615 145.618 200.533C131.898 209.723 111.348 200.463 114.018 182.723ZM150.568 464.063C140.108 452.063 135.688 436.253 136.198 420.523C136.198 420.048 136.583 419.663 137.058 419.663C137.533 419.663 137.918 420.048 137.918 420.523C138.208 436.083 143.588 450.083 151.788 463.123C152.258 463.863 151.148 464.723 150.568 464.063ZM185.778 481.763C193.568 493.333 205.678 503.573 219.848 505.903C220.27 505.968 220.674 505.706 220.786 505.294C220.899 504.883 220.685 504.452 220.288 504.293C207.088 499.173 195.558 492.823 187.088 480.993C186.528 480.213 185.228 480.943 185.778 481.763ZM322.098 356.573C321.388 381.793 319.618 410.883 303.698 431.323C303.822 432.338 303.515 433.357 302.852 434.135C302.189 434.912 301.23 435.376 300.208 435.413C297.98 437.802 295.559 440.003 292.968 441.993C280.758 451.343 265.068 453.833 250.078 454.483C234.898 455.153 220.248 452.143 207.838 443.043C181.918 424.043 174.108 391.543 168.988 361.553C162.938 326.143 158.258 289.673 158.228 253.693C152.978 251.315 148.482 247.541 145.228 242.783C143.128 239.683 147.628 236.783 150.128 239.003C162.878 250.283 178.508 253.743 194.348 246.353C201.528 242.993 208.638 237.783 213.198 231.203C215.685 227.382 217.31 223.066 217.958 218.553C213.538 218.333 208.958 217.203 206.118 214.483C201.988 210.573 204.788 205.093 208.248 201.643C208.656 201.088 209.126 200.581 209.648 200.133C215.008 195.563 224.338 195.393 230.808 197.133C235.648 198.423 243.808 201.773 241.868 208.133C240.868 211.493 237.408 213.973 233.638 215.653C244.158 231.843 263.308 242.243 282.878 239.753C293.405 238.291 303.191 233.514 310.818 226.113C314.4 222.702 317.474 218.796 319.948 214.513C321.237 212.287 322.197 209.925 323.155 207.564C324.048 205.364 324.941 203.167 326.098 201.083C327.568 198.443 331.588 199.703 331.638 202.583C331.868 213.963 322.388 225.963 314.248 233.063C313.108 234.063 311.928 235.003 310.718 235.913C319.678 275.263 323.228 316.173 322.098 356.573ZM347.736 151.339C347.814 151.083 347.891 150.827 347.968 150.573L348.049 150.313C349.579 145.38 351.281 139.891 350.878 134.653C350.678 132.033 346.758 130.303 345.398 133.173C343.544 137.113 342.449 141.41 341.353 145.706L341.353 145.707C340.558 148.825 339.763 151.942 338.678 154.923C335.538 163.433 330.618 167.633 321.538 168.793C302.098 171.283 297.578 152.853 294.718 137.853C294.138 134.823 289.418 135.573 289.418 138.573C289.488 156.953 298.678 177.423 320.078 176.183C328.488 175.713 337.768 172.573 342.338 165.043C344.83 160.912 346.334 155.956 347.736 151.339ZM362.908 475.293C362.318 475.883 361.218 475.093 361.718 474.373C374.558 456.263 379.238 436.473 380.718 414.563C380.818 413.093 383.108 413.083 383.008 414.563C381.728 435.393 378.598 459.983 362.908 475.323V475.293ZM412.248 386.793C412.118 388.043 414.248 388.343 414.458 387.093V387.123C419.318 357.833 416.138 328.263 406.968 300.123C406.538 298.813 404.498 299.363 404.898 300.693C413.428 328.583 415.248 357.873 412.248 386.793ZM416.818 280.573C413.868 270.253 410.418 260.893 403.268 252.673C402.478 251.763 403.768 250.443 404.598 251.343C412.008 259.343 417.788 269.293 418.288 280.343C418.299 280.72 418.028 281.047 417.655 281.105C417.282 281.163 416.924 280.936 416.818 280.573ZM427.618 257.663C427.958 258.453 429.118 257.863 428.958 257.103V257.133C424.298 235.303 407.198 217.713 388.348 207.033C388.003 206.832 387.56 206.948 387.358 207.293C387.157 207.638 387.273 208.082 387.618 208.283C407.008 219.663 418.688 237.663 427.618 257.663Z" fill="#754C29"/>
<path d="M280.909 359.183C272.249 365.033 267.129 375.253 262.199 384.183C260.769 386.763 256.199 384.943 257.359 382.183C260.509 374.513 264.099 366.623 269.439 360.253C253.889 354.563 234.669 359.673 222.559 370.183C210.119 380.993 200.559 394.833 188.309 405.803C194.219 419.443 202.809 431.563 215.989 439.623C216.659 440.023 217.339 440.403 217.989 440.773C215.349 427.952 214.417 414.838 215.219 401.773C215.264 400.24 216.308 398.918 217.788 398.518C219.268 398.117 220.836 398.733 221.649 400.033C231.299 415.643 241.169 431.193 250.369 447.083C253.759 446.933 257.159 446.623 260.519 446.203C266.259 445.539 271.889 444.134 277.269 442.023C275.969 435.813 276.069 428.973 275.789 422.863C275.399 414.363 275.329 405.863 275.499 397.353C275.539 395.788 276.603 394.435 278.114 394.027C279.625 393.619 281.225 394.251 282.049 395.583C287.879 405.083 293.799 414.583 299.569 424.083C307.569 412.353 311.079 398.213 312.669 384.243C313.779 374.403 314.279 364.453 314.439 354.503C303.819 352.243 289.789 353.183 280.909 359.183Z" fill="#BE1E2D"/>
<path d="M282.679 422.783C282.889 428.033 283.629 433.463 283.759 438.783C287.842 436.44 291.55 433.498 294.759 430.053C290.579 423.286 286.452 416.48 282.379 409.633C282.406 414.033 282.506 418.416 282.679 422.783Z" fill="white"/>
<path fill-rule="evenodd" clip-rule="evenodd" d="M487.359 46.9131C493.089 68.5631 490.789 92.4531 480.149 112.233C471.609 128.143 456.419 143.123 438.859 148.853C452.119 167.083 464.089 186.253 475.359 204.693C477.079 207.503 474.219 211.353 471.009 210.353L457.409 205.993C480.363 249.928 495.117 297.678 500.949 346.903C501.449 351.143 495.809 351.483 493.809 348.843C488.42 341.614 481.864 335.335 474.409 330.263C476.909 374.701 472.616 419.26 461.679 462.403C460.729 466.143 455.309 465.943 454.309 462.403C452.162 455.15 450.026 447.896 447.899 440.643C442.526 467.369 433.161 493.134 420.119 517.073C418.179 520.643 413.239 518.703 412.969 515.133C412.437 508.146 412.341 501.132 412.679 494.133C380.429 536.573 324.089 550.093 272.889 555.303C269.349 555.663 268.309 551.053 270.219 548.843C273.085 545.541 275.322 541.741 276.819 537.633C254.409 545.823 230.509 552.503 206.609 548.213C191.519 545.503 176.819 538.153 166.819 526.613L167.359 531.743C167.629 534.323 164.739 535.883 162.579 535.393C138.079 529.853 118.379 512.143 105.849 490.853C94.1991 471.043 88.7991 448.633 85.4091 426.043C84.1491 431.303 82.8924 436.556 81.6391 441.803C80.7791 445.183 76.5291 445.163 74.7791 442.703C52.0691 410.873 56.3391 371.693 64.6991 335.433L64.5578 335.719C64.4631 335.911 64.3682 336.102 64.2731 336.294C63.7402 337.369 63.2041 338.451 62.6991 339.563C61.3891 342.413 56.4891 341.673 55.9191 338.673C48.863 301.79 49.8042 263.822 58.6791 227.333C60.7253 218.285 63.2522 209.352 66.2491 200.573L67.6791 196.173C47.0091 195.193 26.9491 185.573 14.2891 168.953C-10.4509 136.583 0.259078 87.2331 38.5491 71.0731C68.4191 58.4331 120.089 70.3131 133.549 103.073C150.519 93.9616 167.949 85.734 185.769 78.4231C223.379 62.5731 264.469 50.5731 305.639 55.8031C315.794 57.0988 325.788 59.4447 335.459 62.8031C338.009 39.1731 357.089 21.1831 377.909 11.8031C398.489 2.51311 423.149 -2.49689 445.319 3.70311C466.679 9.68311 481.679 25.5731 487.359 46.9131ZM435.829 9.80311C415.449 6.53311 392.449 12.1031 374.449 21.8031C357.329 31.0331 345.089 45.7731 341.359 64.9931L343.769 65.9931C344.679 60.2131 348.679 53.9531 351.599 49.5031C355.496 43.6397 360.21 38.3631 365.599 33.8331C377.366 24.0817 391.621 17.8065 406.759 15.7131C423.444 13.3786 440.447 15.1392 456.299 20.8431C460.128 22.2143 463.812 23.9594 467.299 26.0531C459.289 17.4031 448.349 11.8031 435.829 9.80311ZM36.8091 80.1431C52.5191 71.5531 71.8091 72.4931 88.6391 77.1431C105.639 81.8531 119.259 91.1431 127.869 106.273L126.039 107.393C106.929 91.6631 80.5791 79.5731 55.5091 81.5731C42.0791 82.5731 28.4291 87.6931 18.2891 96.5731C23.1548 89.7792 29.4837 84.1645 36.8091 80.1431ZM13.3891 104.853C11.1771 109.432 9.63472 114.305 8.80908 119.323H8.79908C2.67908 156.873 33.9891 188.103 70.2491 188.743C72.4691 182.373 74.7791 176.013 77.3291 169.743C69.3991 167.933 66.1591 154.623 65.3291 148.053C63.9821 138.465 66.6847 128.749 72.7891 121.233C79.3491 113.313 89.1391 109.813 99.2791 110.633C103.529 110.973 110.949 112.073 114.089 115.803C116.839 113.573 119.739 111.513 122.739 109.513C103.389 96.3531 83.1891 84.3231 58.8391 84.6531C41.4691 84.8531 24.6091 91.9631 13.3891 104.853ZM109.029 120.163C102.137 126.478 96.1567 133.721 91.2591 141.683C87.0778 148.551 83.3725 155.698 80.1691 163.073C69.8891 156.563 70.6291 137.423 76.5191 128.333C79.6592 123.279 84.6637 119.665 90.4491 118.273C94.4791 117.383 105.029 116.483 109.019 120.163H109.029ZM463.327 199.849L463.339 199.853H463.329L463.327 199.849ZM390.619 105.403C420.528 132.052 442.437 165.961 463.327 199.849L450.659 195.853C447.399 194.853 444.819 198.643 446.359 201.443C469.18 242.878 484.489 288.024 491.579 334.793C485.774 328.94 479.209 323.895 472.059 319.793C469.699 318.443 466.129 320.123 466.339 323.083C469.291 364.405 466.331 405.937 457.549 446.423C455.229 438.596 452.896 430.763 450.549 422.923C449.549 419.623 443.779 418.993 443.219 422.923C439.401 449.659 431.587 475.669 420.039 500.083C420.082 493.294 420.55 486.514 421.439 479.783C421.949 475.923 416.149 474.893 414.439 477.883C387.119 525.173 331.889 540.773 280.849 546.883C283.418 542.464 285.176 537.621 286.039 532.583C286.479 530.053 284.349 526.803 281.389 527.933C259.069 536.433 234.599 544.933 210.389 541.263C191.089 538.263 172.689 527.603 164.749 509.183C163.289 505.793 157.349 507.463 157.749 511.083L159.369 526.713C108.899 511.433 95.6691 451.563 90.3691 405.363C89.9191 401.463 84.0391 399.893 82.9691 404.363C80.8291 413.336 78.6857 422.306 76.5391 431.273C57.2891 396.603 67.3991 354.503 76.8991 317.923C77.8091 314.433 73.2091 311.393 70.6191 314.273C67.199 318.044 64.1234 322.114 61.4291 326.433C58.9259 309.103 58.1654 291.565 59.1591 274.083C60.2636 273.852 60.9961 272.799 60.8291 271.683C60.458 266.541 60.4079 261.381 60.6791 256.233C61.8279 246.853 63.4567 237.537 65.5591 228.323C65.7408 227.582 65.674 226.802 65.3691 226.103C66.7191 220.613 68.2691 215.153 69.9791 209.753C71.4891 205.013 73.0491 200.253 74.6791 195.513C75.7703 194.576 76.2744 193.125 75.9991 191.713C80.0378 180.021 84.7798 168.583 90.1991 157.463C98.3591 141.033 109.199 126.233 124.819 116.203C139.422 106.848 155.686 99.6471 171.583 92.6086L171.589 92.6058L171.59 92.6056C172.956 92.0007 174.32 91.3969 175.679 90.7931C211.819 74.6731 250.899 61.1731 291.039 62.5731C328.679 63.8431 362.789 80.5731 390.619 105.403ZM355.139 71.1831C355.323 70.7729 355.428 70.332 355.449 69.8831C355.949 59.0431 369.539 54.9431 378.449 53.8831C388.306 52.7138 398.288 54.5104 407.119 59.0431C411.679 61.4531 415.119 64.2831 416.549 69.4331C417.504 72.8064 417.596 76.5525 417.684 80.1829C417.716 81.4923 417.747 82.7867 417.819 84.0431L417.831 84.2428C418.428 94.4011 419.091 105.669 410.199 112.603C409.987 112.773 409.796 112.968 409.629 113.183C393.519 96.2631 375.609 81.5731 355.139 71.1831ZM414.519 118.573C421.349 126.153 427.819 134.133 434.019 142.343C452.049 134.033 466.799 122.463 475.239 103.843C483.422 85.3756 484.557 64.5504 478.429 45.3031C477.854 43.5097 477.187 41.7473 476.429 40.0231C474.255 36.1809 471.227 32.8896 467.579 30.4031C461.339 26.0531 453.899 23.5731 446.579 21.6531C431.939 17.8931 416.399 16.8931 401.579 19.8931C387.977 22.5744 375.342 28.8522 364.989 38.0731C360.144 42.4301 355.93 47.4418 352.469 52.9631C350.954 55.3958 349.838 58.0631 348.728 60.7183C347.853 62.811 346.981 64.8961 345.919 66.8531C346.979 67.3031 348.039 67.7631 349.089 68.2331C349.409 57.1731 361.089 50.7431 370.709 48.2331C383.84 44.8269 397.757 46.2463 409.929 52.2331C415.229 54.8431 420.019 58.4631 422.469 63.9831C424.694 68.9325 424.892 74.5004 425.085 79.9196C425.135 81.3219 425.185 82.7141 425.269 84.0831C426.069 96.9231 425.659 110.033 414.659 118.493L414.519 118.573Z" fill="#231F20"/>
<path d="M166.819 166.803C166.769 165.213 165.578 163.891 164.002 163.675C162.425 163.46 160.924 164.414 160.449 165.933C156.769 178.133 157.589 192.563 145.619 200.533C131.899 209.683 111.349 200.463 114.019 182.723C114.409 180.183 110.699 177.933 109.409 180.783C100.679 200.113 123.379 214.573 140.489 210.573C158.899 206.193 167.579 184.133 166.819 166.803Z" fill="#231F20"/>
<path d="M345.4 133.143C342.2 139.943 341.26 147.803 338.68 154.893C335.57 163.403 330.62 167.603 321.54 168.763C302.1 171.253 297.54 152.763 294.72 137.823C294.14 134.823 289.41 135.553 289.42 138.543C289.49 156.953 298.72 177.423 320.08 176.213C328.49 175.743 337.77 172.603 342.34 165.073C344.97 160.713 346.5 155.433 347.97 150.603C349.52 145.523 351.29 139.983 350.88 134.603C350.68 132.003 346.76 130.273 345.4 133.143Z" fill="#231F20"/>
<path fill-rule="evenodd" clip-rule="evenodd" d="M326.059 201.073C327.529 198.433 331.549 199.693 331.599 202.573C331.829 213.913 322.349 225.913 314.209 233.013C313.069 234.013 311.889 234.953 310.679 235.863C319.679 275.263 323.229 316.173 322.059 356.563C321.349 381.783 319.579 410.873 303.659 431.313C303.783 432.327 303.476 433.347 302.813 434.125C302.149 434.902 301.19 435.366 300.169 435.403C297.941 437.792 295.519 439.993 292.929 441.983C280.719 451.333 265.039 453.823 250.039 454.473C234.859 455.143 220.209 452.133 207.799 443.033C181.879 424.023 174.069 391.543 168.949 361.543C162.899 326.133 158.189 289.683 158.189 253.683C152.939 251.305 148.442 247.531 145.189 242.773C143.089 239.673 147.589 236.763 150.089 238.993C162.839 250.273 178.469 253.733 194.309 246.343C201.489 242.983 208.599 237.773 213.159 231.193C215.646 227.372 217.27 223.056 217.919 218.543C213.499 218.323 208.949 217.193 206.079 214.473C201.949 210.563 204.749 205.083 208.209 201.633C208.616 201.078 209.086 200.571 209.609 200.123C214.969 195.573 224.299 195.403 230.769 197.123C235.609 198.403 243.829 201.753 241.829 208.123C240.799 211.483 237.369 213.963 233.599 215.643C244.119 231.833 263.269 242.233 282.839 239.743C293.365 238.281 303.152 233.503 310.779 226.103C314.36 222.692 317.435 218.786 319.909 214.503C321.198 212.277 322.158 209.914 323.116 207.554L323.116 207.554C324.009 205.354 324.902 203.157 326.059 201.073ZM274.019 279.813C275.689 269.043 277.019 258.233 278.019 247.383V247.343C273.263 247.412 268.518 246.85 263.909 245.673C265.972 251.334 267.516 257.171 269.061 263.01L269.061 263.01C270.556 268.661 272.052 274.315 274.019 279.813ZM181.428 265.463L181.428 265.462C180.818 262.73 180.208 259.997 179.489 257.303C183.853 257.02 188.16 256.163 192.299 254.753C191.781 257.438 191.26 260.122 190.74 262.805C189.35 269.968 187.96 277.128 186.629 284.293C185.559 281.143 184.559 277.973 183.679 274.763C182.821 271.703 182.124 268.583 181.428 265.463ZM221.759 413.573C221.804 423.656 222.741 433.715 224.559 443.633H224.539C230.169 445.619 236.064 446.752 242.029 446.993C235.099 435.973 228.409 424.773 221.759 413.573ZM283.779 438.823L283.779 438.812C287.866 436.487 291.58 433.561 294.799 430.133C290.632 423.353 286.506 416.546 282.419 409.713C282.426 414.08 282.519 418.45 282.699 422.823C282.795 425.211 283.003 427.646 283.212 430.099L283.212 430.099C283.459 432.993 283.708 435.913 283.779 438.812L283.759 438.823H283.779ZM312.719 384.163C313.829 374.323 314.329 364.373 314.489 354.423H314.469C303.819 352.243 289.789 353.183 280.959 359.103C273.016 364.496 268.051 373.54 263.479 381.869C263.067 382.62 262.657 383.366 262.249 384.103C260.819 386.723 256.259 384.903 257.409 382.103C260.559 374.433 264.149 366.543 269.489 360.173C253.939 354.483 234.719 359.593 222.609 370.103C216.181 375.689 210.522 382.076 204.864 388.462C199.571 394.435 194.279 400.407 188.359 405.723C194.269 419.363 202.859 431.483 216.039 439.543C216.679 439.943 217.359 440.323 218.039 440.693C215.399 427.872 214.468 414.758 215.269 401.693C215.315 400.16 216.358 398.838 217.839 398.438C219.319 398.037 220.887 398.652 221.699 399.953C223.88 403.48 226.071 407.004 228.264 410.53C235.775 422.608 243.298 434.704 250.419 447.003C253.809 446.853 257.209 446.543 260.569 446.123C266.31 445.459 271.94 444.054 277.319 441.943C276.307 437.146 276.143 431.907 275.988 426.938C275.944 425.526 275.901 424.135 275.839 422.783C275.449 414.273 275.379 405.783 275.549 397.273C275.589 395.708 276.653 394.355 278.164 393.947C279.676 393.539 281.276 394.171 282.099 395.503C284.228 398.972 286.369 402.436 288.51 405.9C292.233 411.923 295.956 417.947 299.619 424.003C307.609 412.273 311.129 398.163 312.719 384.163Z" fill="#231F20"/>
<path d="M387.609 208.313C407.009 219.703 418.689 237.653 427.609 257.693C427.959 258.483 429.109 257.893 428.949 257.133C424.289 235.303 407.189 217.713 388.329 207.063C387.984 206.864 387.543 206.983 387.344 207.328C387.146 207.673 387.264 208.114 387.609 208.313Z" fill="#231F20"/>
<path d="M403.27 252.703C410.42 260.923 413.87 270.283 416.82 280.603C416.924 280.96 417.273 281.187 417.641 281.136C418.009 281.086 418.285 280.774 418.29 280.403C417.79 269.323 412.01 259.333 404.6 251.403C403.77 250.473 402.48 251.793 403.27 252.703Z" fill="#231F20"/>
<path d="M404.899 300.723C413.429 328.613 415.269 357.903 412.249 386.823C412.119 388.073 414.249 388.373 414.459 387.123C419.319 357.833 416.139 328.263 406.969 300.123C406.539 298.843 404.499 299.393 404.899 300.723Z" fill="#231F20"/>
<path d="M125.429 295.893C125.839 294.843 124.169 294.403 123.759 295.423C113.349 321.573 106.939 353.673 113.259 381.633C113.336 381.919 113.612 382.104 113.905 382.066C114.198 382.028 114.418 381.779 114.419 381.483C113.979 367.173 112.929 353.243 114.609 338.933C116.361 324.183 119.997 309.718 125.429 295.893Z" fill="#231F20"/>
<path d="M128.528 359.233C128.708 358.233 127.228 357.753 126.948 358.793C122.078 376.423 121.588 396.683 127.228 414.193C127.336 414.588 127.743 414.821 128.138 414.713C128.533 414.605 128.766 414.198 128.658 413.803C125.858 395.143 125.208 377.893 128.528 359.233Z" fill="#231F20"/>
<path d="M137.92 420.573C137.92 420.098 137.535 419.713 137.06 419.713C136.585 419.713 136.2 420.098 136.2 420.573C135.69 436.303 140.11 452.103 150.57 464.113C151.15 464.773 152.26 463.913 151.79 463.173C143.59 450.083 138.21 436.083 137.92 420.573Z" fill="#231F20"/>
<path d="M220.289 504.293C207.039 499.173 195.559 492.823 187.089 480.993C186.529 480.213 185.229 480.943 185.779 481.763C193.569 493.333 205.679 503.603 219.849 505.903C220.271 505.968 220.675 505.706 220.787 505.294C220.9 504.883 220.686 504.452 220.289 504.293Z" fill="#231F20"/>
<path d="M380.769 414.573C379.239 436.483 374.559 456.273 361.769 474.383C361.269 475.103 362.369 475.893 362.959 475.303C378.649 459.963 381.779 435.373 383.109 414.573C383.159 413.113 380.869 413.123 380.769 414.573Z" fill="#231F20"/>
<path d="M305.508 91.3531C308.826 93.7567 312.483 95.6541 316.358 96.9831C318.321 97.768 320.373 98.3055 322.468 98.5831C323.678 98.8031 324.908 98.9931 326.158 99.1031C326.701 99.094 327.187 98.7628 327.393 98.2606C327.6 97.7585 327.488 97.1816 327.108 96.7931C321.246 91.5036 313.792 88.3129 305.918 87.7231C305.509 87.7333 305.141 87.9739 304.967 88.3446C304.794 88.7152 304.844 89.1522 305.098 89.4731C304.715 90.1093 304.895 90.9346 305.508 91.3531Z" fill="#231F20"/>
<path d="M119.08 145.503C123.27 146.503 126.63 144.573 129.97 142.163C130.88 141.513 131.78 140.833 132.66 140.163C133.544 139.842 134.335 139.306 134.96 138.603C135.066 138.462 135.135 138.297 135.16 138.123C137.113 136.463 139 134.73 140.82 132.923C141.217 132.512 141.333 131.905 141.117 131.377C140.9 130.848 140.391 130.497 139.82 130.483C132.35 131.073 126.67 135.613 121.23 140.383C121.078 140.506 120.958 140.664 120.88 140.843C120.06 141.603 119.26 142.393 118.48 143.233C118.156 143.582 118.034 144.073 118.156 144.533C118.277 144.993 118.626 145.359 119.08 145.503Z" fill="#231F20"/>
</svg>
