<svg width="513" height="578" viewBox="0 0 513 578" fill="none" xmlns="http://www.w3.org/2000/svg">
<path d="M501.381 391.975C482.081 388.525 463.051 382.295 444.381 376.635C425.241 370.845 406.211 364.635 387.271 358.195C352.451 346.315 317.811 333.865 282.721 322.785C273.971 320.025 265.221 317.085 256.351 314.715C247.021 312.205 238.181 312.335 232.011 320.655C227.451 326.805 224.721 334.345 221.661 341.295C218.001 349.569 214.374 357.852 210.781 366.145C195.551 401.245 181.241 436.755 167.271 472.365C160.658 489.225 154.161 506.125 147.781 523.065C142.151 537.995 137.171 553.315 130.461 567.805C146.281 559.085 162.211 550.495 178.281 542.195C178.171 537.075 180.881 532.415 182.911 527.665C186.164 520.085 189.408 512.502 192.641 504.915C198.751 490.645 205.001 476.445 211.191 462.215C222.384 436.435 233.621 410.662 244.901 384.895C248.991 375.595 253.831 366.895 263.751 363.015C273.911 359.015 285.751 360.615 296.181 362.595C322.511 367.595 348.351 378.375 373.511 387.415C399.191 396.645 424.641 406.505 449.911 416.815C451.322 417.379 452.417 418.529 452.911 419.965C459.271 417.645 465.621 415.295 471.911 412.765C478.429 410.198 484.808 407.291 491.021 404.055C493.591 402.695 496.111 401.265 498.601 399.765C498.851 399.615 506.951 394.435 504.081 393.885C502.932 393.704 501.934 392.998 501.381 391.975Z" fill="#754C29"/>
<path fill-rule="evenodd" clip-rule="evenodd" d="M18.9417 267.614C31.6957 261.816 44.4398 256.022 57.6115 251.156C64.6793 248.549 72.0542 246.507 79.436 244.464C89.9244 241.56 100.427 238.652 110.081 234.116C112.101 233.116 110.961 230.196 109.011 230.116C90.9652 229.41 71.7062 236.875 54.8326 243.416C53.7725 243.827 52.7218 244.234 51.6815 244.636C43.0681 247.982 34.6348 251.719 26.3815 255.846C20.9008 258.413 15.587 261.322 10.4715 264.556C13.8408 256.19 16.6768 247.496 19.4851 238.887C21.0276 234.158 22.5619 229.455 24.1715 224.846C26.7622 217.426 29.3626 210.017 31.9623 202.609C35.845 191.546 39.7262 180.486 43.5715 169.406L82.2415 57.1056C85.2281 48.3189 88.2281 39.5356 91.2415 30.7556C91.8 29.1567 92.3212 27.5324 92.8431 25.9062C93.7507 23.0777 94.6603 20.2432 95.7715 17.5256C98.4815 10.9556 103.311 9.97561 109.901 11.5256C122.326 14.4748 134.64 19.1112 146.828 23.7007C152.493 25.8338 158.131 27.9568 163.741 29.8956C174.125 33.4867 184.521 37.0627 194.916 40.6386C221.343 49.7288 247.767 58.8186 273.991 68.1556C310.531 81.1656 346.871 94.9056 381.871 111.676C367.111 116.066 338.661 127.296 343.111 134.296C343.444 134.823 344.082 135.071 344.684 134.908C345.285 134.745 345.71 134.209 345.731 133.586C345.671 134.546 364.731 128.206 367.511 127.206C369.787 126.354 372.21 125.582 374.67 124.799C377.495 123.9 380.368 122.985 383.121 121.916C379.404 128.679 375.896 135.596 372.392 142.506C369.281 148.643 366.172 154.774 362.921 160.786C353.928 177.466 344.691 194.006 335.211 210.406C325.925 226.392 316.428 242.246 306.721 257.966C303.254 263.581 299.565 269.145 295.865 274.723C289.044 285.01 282.188 295.347 276.631 306.156C275.92 307.664 276.291 309.462 277.541 310.566C271.751 308.836 265.931 307.166 260.061 305.726C252.601 303.886 244.521 302.496 237.171 305.556C230.441 308.356 225.841 313.816 222.281 320.106C222.161 320.001 222.034 319.904 221.901 319.816C215.002 315.425 206.366 313.381 198.347 311.483C197.545 311.293 196.749 311.105 195.961 310.916C186.951 308.746 177.821 307.136 168.651 305.816C159.473 304.485 150.251 303.423 141.025 302.361C131.253 301.236 121.479 300.111 111.751 298.666C92.4015 295.776 73.5015 291.006 54.7515 285.426C50.1174 284.045 45.4833 282.623 40.8492 281.201C35.4833 279.555 30.1174 277.909 24.7515 276.326C23.2998 275.895 21.6785 275.303 19.9616 274.676C16.8174 273.528 13.3525 272.264 10.0215 271.656C12.9991 270.316 15.9707 268.965 18.9417 267.614ZM232.081 171.511C214.361 179.664 196.606 187.835 178.731 195.526C177.591 196.016 178.411 197.846 179.571 197.516C202.451 190.256 224.811 182.686 246.931 173.256C254.71 169.945 262.385 166.448 270.053 162.954C284.366 156.431 298.652 149.921 313.531 144.666C314.677 144.312 315.398 143.183 315.237 141.995C315.076 140.808 314.079 139.911 312.881 139.876C302.165 138.581 292.223 143.356 282.777 147.893C282.448 148.051 282.119 148.208 281.791 148.366C270.618 153.739 259.365 159.012 248.031 164.186C242.716 166.617 237.4 169.063 232.081 171.511Z" fill="#FBB040"/>
<path d="M341.901 215.846C332.294 232.173 322.484 248.376 312.471 264.456C302.891 279.806 293.761 296.456 282.251 310.396C281.86 310.898 281.321 311.265 280.711 311.446L286.781 313.286C323.781 324.466 360.231 337.286 396.831 349.736C414.901 355.846 432.901 361.986 451.181 367.596C467.071 372.496 483.301 376.326 499.251 381.026C496.141 374.026 493.491 366.796 490.581 359.846L482.451 340.346C481.97 340.395 481.485 340.351 481.021 340.216C462.021 334.806 443.711 326.436 424.661 320.786C407.511 315.686 389.661 313.346 372.581 308.116C359.811 304.196 343.191 296.816 344.581 281.116C344.661 280.116 344.781 279.116 344.921 278.116C344.834 277.782 344.866 277.429 345.011 277.116C345.011 277.026 345.081 276.946 345.111 276.866C346.511 268.106 349.961 259.176 355.741 252.416C370.571 219.716 387.311 187.756 402.741 155.416C403.16 154.439 403.998 153.704 405.021 153.416C404.201 151.416 403.371 149.416 402.551 147.416L395.901 131.176C394.971 128.916 393.901 126.656 392.901 124.356C385.901 139.166 377.281 153.496 369.381 167.736C360.428 183.909 351.268 199.946 341.901 215.846Z" fill="#754C29"/>
<path d="M150.202 380.506C150.332 377.506 150.882 373.506 149.852 370.566C148.162 365.796 142.852 365.216 138.742 364.046C124.742 360.046 110.742 356.176 96.7424 352.236C83.3624 348.476 69.8224 345.036 56.6024 340.736C49.1924 338.326 40.4024 335.676 33.2324 331.316C34.1624 333.726 35.0724 336.116 35.9924 338.456C46.1591 364.296 56.3324 390.133 66.5124 415.966C76.6924 441.799 86.8891 467.626 97.1024 493.446L107.102 518.946C116.102 477.576 139.832 440.846 147.912 399.066C149.14 392.945 149.905 386.741 150.202 380.506Z" fill="#FBB040"/>
<path d="M169.662 446.506C183.902 410.786 198.592 375.276 213.572 339.846C215.312 335.736 217.022 331.176 219.032 326.706C209.592 325.126 200.432 321.156 191.032 319.046C182.032 317.046 172.832 315.476 163.652 314.166C145.182 311.526 126.572 309.866 108.122 306.986C88.2817 303.886 68.9517 298.756 49.7617 292.926C40.6517 290.156 31.5517 287.356 22.5017 284.426C18.3017 283.076 11.7617 281.956 6.76172 279.546C16.6617 291.126 23.2517 305.726 28.9917 320.236C34.4717 321.996 39.5317 324.926 44.8617 327.116C50.7156 329.442 56.6832 331.471 62.7417 333.196C75.3117 336.916 87.9617 340.326 100.582 343.866L135.582 353.656C143.472 355.866 153.902 357.226 157.742 365.586C161.372 373.486 159.362 384.516 158.252 392.786C156.92 402.3 154.796 411.686 151.902 420.846C140.152 458.846 118.562 493.966 113.002 533.846C117.132 544.156 121.712 554.486 125.432 564.986C130.642 545.516 138.792 526.616 145.882 507.846C153.648 487.313 161.575 466.866 169.662 446.506Z" fill="#754C29"/>
<path d="M356.302 266.646C353.842 273.206 349.842 284.536 355.622 290.086C365.522 299.596 381.382 301.716 394.252 304.216C409.826 307.292 425.19 311.35 440.252 316.366C452.792 320.506 465.802 324.566 478.052 329.786L475.922 324.686C466.155 301.259 456.412 277.816 446.692 254.356C436.785 230.456 426.902 206.546 417.042 182.626C414.242 175.846 411.452 169.066 408.672 162.286C392.672 195.686 376.912 229.716 358.312 261.836C357.592 263.416 356.902 265.026 356.302 266.646Z" fill="#FBB040"/>
<path d="M366.841 395.586C343.401 387.056 319.471 377.106 294.981 372.026C284.061 369.756 268.561 367.096 259.981 376.346C252.361 384.596 248.741 397.866 244.221 407.956C233.521 431.826 222.941 455.746 212.221 479.626C206.888 491.552 201.528 503.472 196.141 515.386C193.331 521.556 190.571 527.746 187.721 533.896C187.001 535.446 186.341 536.956 185.611 538.386C194.278 533.972 202.988 529.662 211.741 525.456L364.381 464.076L435.431 426.406C437.381 425.656 439.331 424.936 441.281 424.216C416.668 414.236 391.855 404.692 366.841 395.586Z" fill="#FBB040"/>
<path fill-rule="evenodd" clip-rule="evenodd" d="M497.952 356.306L510.752 386.646C514.162 395.846 513.802 401.436 507.432 406.216C495.372 415.276 480.662 421.206 466.662 426.536L214.782 533.176C196.113 542.03 177.847 551.664 159.58 561.297L159.579 561.298L159.577 561.299L159.576 561.299L159.574 561.3L159.572 561.301L159.571 561.302L159.569 561.303C149.453 566.638 139.337 571.973 129.152 577.176C128.037 577.788 126.687 577.788 125.572 577.176C123.702 578.056 121.322 577.796 120.232 575.576C115.866 566.68 112.339 557.289 108.825 547.931L108.824 547.929L108.824 547.928L108.823 547.927L108.823 547.927L108.823 547.926L108.822 547.925C107.395 544.125 105.97 540.33 104.492 536.576C99.465 523.909 94.4484 511.242 89.4417 498.576C79.4684 473.196 69.5117 447.806 59.5717 422.406C49.6317 397.006 39.705 371.602 29.7917 346.196C28.5417 343.012 27.3084 339.822 26.0753 336.631L26.0746 336.63L26.0744 336.629L26.0741 336.628L26.0738 336.628L26.0736 336.627L26.0733 336.626L26.0729 336.625C22.4531 327.26 18.8338 317.896 14.7917 308.716C12.8736 304.359 10.8496 300.042 8.82583 295.726L8.82513 295.724C5.79518 289.262 2.76552 282.8 0.0916863 276.206C-0.118172 275.718 0.050091 275.15 0.491686 274.856C0.503685 274.802 0.518383 274.748 0.533081 274.694C0.567383 274.568 0.601686 274.442 0.601686 274.316V274.266C0.282759 273.68 0.454984 272.948 1.00169 272.566C2.70282 264.739 5.34744 257.003 7.97039 249.33L7.97049 249.33L7.97056 249.33L7.97061 249.33C8.94018 246.494 9.90679 243.666 10.8217 240.846C14.315 230.179 17.8217 219.512 21.3417 208.846C28.7017 186.586 36.1117 164.339 43.5717 142.106C56.8784 102.246 70.2784 62.4224 83.7717 22.6357C84.0644 21.77 84.3499 20.8837 84.6386 19.9876L84.6388 19.9869L84.639 19.9863L84.6391 19.9858L84.6393 19.9854L84.6393 19.9852L84.6395 19.9847C86.688 13.6253 88.896 6.77123 94.9517 3.26574C100.592 -0.00425971 107.592 0.78574 113.592 2.37574C126.953 5.89569 140.148 10.7358 153.268 15.5483C159.493 17.8316 165.701 20.1088 171.902 22.2357C187.659 27.6465 203.513 32.919 219.389 38.1985L219.39 38.1988C278.655 57.9076 338.215 77.7147 394.112 105.186C395.047 105.515 395.783 106.25 396.112 107.186L402.362 123.406C402.702 124.296 403.052 125.186 403.412 126.066L410.692 143.656C415.545 155.389 420.388 167.119 425.222 178.846C434.935 202.299 444.602 225.772 454.222 249.266C464.042 273.179 473.832 297.112 483.592 321.066C488.385 332.812 493.172 344.559 497.952 356.306ZM446.692 254.376C436.805 230.462 426.922 206.552 417.042 182.646V182.626C414.242 175.846 411.448 169.072 408.662 162.306C406.901 165.991 405.142 169.683 403.381 173.38C389.181 203.191 374.85 233.28 358.302 261.856C357.592 263.436 356.912 265.036 356.302 266.666C353.842 273.226 349.842 284.556 355.622 290.106C364.537 298.67 378.286 301.241 390.332 303.493C391.662 303.742 392.972 303.987 394.252 304.236C409.826 307.312 425.19 311.37 440.252 316.386C442.037 316.975 443.833 317.563 445.634 318.153C456.482 321.706 467.546 325.329 478.052 329.806L475.922 324.706C466.168 301.266 456.425 277.822 446.692 254.376ZM395.902 131.176L402.582 147.426C402.992 148.426 403.404 149.426 403.817 150.426C404.229 151.426 404.642 152.426 405.052 153.426C404.029 153.714 403.191 154.449 402.772 155.426C396.818 167.868 390.676 180.256 384.53 192.652L384.528 192.655L384.527 192.658L384.526 192.66L384.524 192.663L384.523 192.666C374.701 212.476 364.868 232.309 355.772 252.426C349.992 259.186 346.542 268.116 345.142 276.876C345.142 276.924 345.116 276.973 345.089 277.024L345.089 277.024C345.071 277.057 345.053 277.09 345.042 277.126C344.897 277.439 344.865 277.792 344.952 278.126C344.812 279.126 344.692 280.126 344.612 281.126C343.262 296.816 359.882 304.196 372.612 308.126C381.355 310.806 390.311 312.727 399.273 314.65C407.799 316.479 416.331 318.309 424.692 320.796C433.879 323.521 442.883 326.874 451.88 330.224C461.538 333.821 471.189 337.415 481.052 340.226C481.516 340.361 482.001 340.405 482.482 340.356L490.612 359.856C491.78 362.646 492.906 365.483 494.037 368.331L494.038 368.333C495.724 372.58 497.42 376.852 499.282 381.036C492.173 378.948 485.028 377.031 477.89 375.116L477.888 375.116L477.887 375.115L477.885 375.115L477.884 375.115L477.882 375.114C468.956 372.72 460.039 370.328 451.212 367.606C435.365 362.742 419.75 357.488 404.095 352.221L404.066 352.211C401.642 351.396 399.218 350.58 396.792 349.766C389.018 347.128 381.253 344.47 373.49 341.813C344.702 331.959 315.933 322.111 286.792 313.306L280.722 311.466C281.332 311.285 281.87 310.918 282.262 310.416C291.087 299.681 298.513 287.424 305.816 275.37L305.818 275.367L305.825 275.355L305.831 275.345C308.048 271.687 310.252 268.048 312.482 264.476C322.482 248.409 332.292 232.206 341.912 215.866C351.285 199.932 360.462 183.889 369.442 167.736C371.478 164.065 373.56 160.389 375.649 156.7L375.667 156.668L375.671 156.663C381.68 146.051 387.75 135.336 392.962 124.356C393.901 126.655 394.901 128.913 395.9 131.172L395.9 131.173L395.901 131.173L395.901 131.174L395.901 131.175L395.901 131.175L395.902 131.176ZM54.8326 243.406C71.7062 236.866 90.9654 229.4 109.012 230.106C110.962 230.186 112.102 233.106 110.112 234.066C100.439 238.653 89.9311 241.56 79.4395 244.462L79.4392 244.462C72.067 246.502 64.7028 248.539 57.6417 251.156C44.436 256.043 31.6601 261.849 18.8731 267.66C15.935 268.996 12.9963 270.331 10.0517 271.656C13.3827 272.264 16.8476 273.529 19.9917 274.676C21.7087 275.303 23.33 275.895 24.7817 276.326C30.4961 278.011 36.2105 279.763 41.9249 281.514C46.2105 282.827 50.4961 284.14 54.7817 285.426C73.5117 291.006 92.4117 295.776 111.782 298.656C121.556 300.114 131.378 301.246 141.202 302.378C150.374 303.436 159.546 304.493 168.682 305.816C177.852 307.136 186.992 308.746 195.992 310.916C196.752 311.098 197.521 311.28 198.295 311.464L198.337 311.474L198.358 311.479L198.369 311.481L198.377 311.483C206.396 313.381 215.032 315.425 221.932 319.816C222.064 319.904 222.191 320.001 222.312 320.106C225.872 313.816 230.472 308.356 237.202 305.556C244.552 302.496 252.632 303.886 260.092 305.726C265.962 307.166 271.782 308.836 277.572 310.566C276.321 309.462 275.95 307.665 276.662 306.156C282.191 295.4 289.007 285.122 295.796 274.886L295.797 274.885L295.798 274.884L295.799 274.883L295.799 274.881C299.531 269.255 303.255 263.64 306.752 257.966C316.498 242.259 325.995 226.406 335.242 210.406C344.708 193.992 353.945 177.452 362.952 160.786C366.231 154.72 369.371 148.533 372.514 142.34L372.514 142.339L372.515 142.339L372.515 142.337L372.516 142.335L372.517 142.334L372.517 142.334C375.995 135.481 379.475 128.623 383.152 121.916C380.367 123.008 377.459 123.931 374.603 124.837C372.177 125.607 369.787 126.365 367.542 127.206C364.762 128.236 345.702 134.586 345.762 133.586C345.741 134.209 345.316 134.745 344.714 134.908C344.112 135.071 343.474 134.823 343.142 134.296C338.692 127.256 367.182 116.066 381.902 111.676C346.902 94.9057 310.682 81.2057 274.012 68.1657C247.984 58.9102 221.861 49.9267 195.738 40.9434C185.057 37.2703 174.376 33.5973 163.702 29.9057C158.093 27.9673 152.455 25.8427 146.791 23.7079C134.601 19.1135 122.285 14.4716 109.852 11.5357C103.262 9.97574 98.4317 10.9557 95.7217 17.5357C94.5339 20.4068 93.558 23.4575 92.5877 26.4909L92.5877 26.491C92.1284 27.9268 91.6704 29.3586 91.1917 30.7657C88.2117 39.5524 85.2117 48.3357 82.1917 57.1157L43.5217 169.416C39.0476 182.443 34.4792 195.446 29.9109 208.449L29.9105 208.45L29.9102 208.451L29.9098 208.452L29.9095 208.453C27.9945 213.903 26.0796 219.354 24.1717 224.806C22.5544 229.433 21.0133 234.153 19.4633 238.9C16.6622 247.479 13.8322 256.147 10.4717 264.516C15.588 261.292 20.9018 258.393 26.3817 255.836C34.6417 251.696 43.075 247.959 51.6817 244.626C52.7206 244.225 53.7698 243.818 54.8284 243.408L54.8326 243.406ZM97.1417 493.446C86.9817 467.606 76.785 441.779 66.5517 415.966C56.3184 390.152 46.145 364.316 36.0317 338.456C35.3855 336.812 34.7442 335.144 34.0974 333.461L34.0943 333.453C33.8214 332.743 33.5474 332.03 33.2717 331.316C39.7163 335.235 47.5019 337.764 54.3631 339.993C55.1354 340.244 55.896 340.491 56.6417 340.736C66.1943 343.843 75.9139 346.501 85.6195 349.155C89.3457 350.174 93.0699 351.193 96.7817 352.236C101.779 353.642 106.777 355.042 111.774 356.442C120.777 358.964 129.779 361.486 138.782 364.046C139.391 364.219 140.027 364.379 140.673 364.542C144.391 365.479 148.452 366.503 149.892 370.576C150.708 372.935 150.511 376.054 150.341 378.758C150.303 379.366 150.266 379.953 150.242 380.506C149.968 386.739 149.226 392.943 148.022 399.066C143.834 420.614 135.501 440.819 127.175 461.01C119.357 479.967 111.544 498.913 107.172 518.946L97.1417 493.446ZM117.106 543.764C120.011 550.774 122.929 557.816 125.452 564.936C129.42 550.105 135.094 535.606 140.707 521.264L140.707 521.263L140.707 521.262C142.463 516.776 144.212 512.306 145.902 507.846C153.655 487.312 161.588 466.866 169.702 446.506C183.902 410.786 198.612 375.276 213.612 339.876C214.253 338.349 214.892 336.769 215.544 335.159C216.658 332.403 217.809 329.557 219.072 326.736C213.759 325.848 208.538 324.204 203.317 322.56C199.25 321.28 195.183 320 191.072 319.076C182.022 317.036 172.872 315.506 163.692 314.196C155.458 313.019 147.197 312.037 138.934 311.055L138.934 311.054L138.932 311.054L138.931 311.054C128.66 309.833 118.386 308.612 108.162 307.016C88.3217 303.956 68.9917 298.786 49.8017 292.956C40.6917 290.186 31.5417 287.386 22.5417 284.456C21.156 284.01 19.5156 283.59 17.7598 283.14L17.7594 283.14L17.7591 283.14C14.1933 282.226 10.1518 281.191 6.80169 279.576C16.7017 291.156 23.2917 305.756 29.0317 320.266C32.3852 321.343 35.5814 322.858 38.7785 324.374L38.7792 324.374C40.8062 325.335 42.8336 326.296 44.9017 327.146C50.7396 329.464 56.6904 331.486 62.7317 333.206C71.6055 335.832 80.5193 338.304 89.4342 340.775L89.4361 340.776L89.438 340.777C93.15 341.806 96.8621 342.835 100.572 343.876L135.572 353.666C136.725 353.989 137.932 354.294 139.165 354.605L139.168 354.606L139.17 354.606C146.373 356.426 154.454 358.467 157.732 365.596C161.037 372.789 159.666 382.585 158.557 390.516L158.556 390.517L158.556 390.518C158.447 391.297 158.341 392.057 158.242 392.796C156.916 402.288 154.802 411.654 151.922 420.796C147.456 435.238 141.569 449.271 135.68 463.306C126.076 486.198 116.469 509.098 113.022 533.796C114.351 537.114 115.727 540.435 117.106 543.762L117.106 543.763L117.106 543.764ZM287.902 494.596C262 503.423 236.625 513.727 211.902 525.456C203.142 529.642 194.432 533.952 185.772 538.386C186.296 537.359 186.784 536.29 187.285 535.195L187.285 535.194C187.481 534.765 187.679 534.332 187.882 533.896C189.725 529.919 191.53 525.925 193.336 521.931C194.322 519.748 195.309 517.566 196.302 515.386C201.715 503.486 207.075 491.566 212.382 479.626C216.573 470.254 220.749 460.877 224.925 451.499L224.93 451.486C231.394 436.971 237.858 422.454 244.382 407.956C245.577 405.287 246.71 402.396 247.87 399.434L247.87 399.434C251.097 391.197 254.537 382.414 260.142 376.346C268.682 367.096 284.142 369.756 295.142 372.026C315.004 376.146 334.499 383.45 353.662 390.63C358.126 392.302 362.573 393.968 367.002 395.586C392.008 404.699 416.848 414.242 441.522 424.216L287.902 494.596ZM491.042 404.056C493.622 402.696 496.132 401.266 498.622 399.766H498.582C498.832 399.616 506.902 394.436 504.042 393.886C502.901 393.699 501.911 392.993 501.362 391.976C484.838 389.016 468.484 384.01 452.356 379.073C449.685 378.256 447.02 377.44 444.362 376.636C425.252 370.846 406.192 364.646 387.252 358.196C377.05 354.715 366.863 351.185 356.676 347.655C332.094 339.138 307.51 330.619 282.702 322.786C280.704 322.156 278.706 321.516 276.707 320.876C269.95 318.713 263.177 316.545 256.332 314.716C246.992 312.206 238.162 312.336 231.992 320.656C228.314 325.616 225.826 331.481 223.396 337.211C222.813 338.585 222.234 339.951 221.642 341.296C217.988 349.562 214.362 357.846 210.762 366.146C195.532 401.246 181.252 436.756 167.252 472.366C160.638 489.212 154.142 506.112 147.762 523.066C146.183 527.252 144.655 531.469 143.127 535.69C139.203 546.522 135.27 557.379 130.442 567.806C146.262 559.086 162.192 550.496 178.262 542.196C178.174 538.117 179.895 534.33 181.61 530.557C182.048 529.594 182.485 528.632 182.892 527.666C186.138 520.079 189.382 512.496 192.622 504.916C196.898 494.927 201.244 484.974 205.589 475.02C207.452 470.753 209.314 466.485 211.172 462.216C222.318 436.396 233.558 410.622 244.892 384.896C248.982 375.596 253.822 366.896 263.742 363.016C273.902 359.046 285.752 360.596 296.172 362.596C317.061 366.57 337.641 374.196 357.818 381.671C363.074 383.619 368.302 385.556 373.502 387.416C399.182 396.646 424.632 406.506 449.902 416.816C451.312 417.379 452.408 418.529 452.902 419.966C459.272 417.636 465.622 415.296 471.902 412.766C478.43 410.199 484.819 407.292 491.042 404.056Z" fill="#231F20"/>
<path d="M179.572 197.516C202.452 190.266 224.812 182.686 246.932 173.256C269.232 163.766 290.682 152.736 313.532 144.666C314.726 144.353 315.501 143.202 315.341 141.978C315.181 140.755 314.136 139.841 312.902 139.846C301.812 138.506 291.552 143.666 281.812 148.336C270.606 153.716 259.352 158.989 248.052 164.156C225.052 174.686 201.992 185.516 178.752 195.496C177.592 196.016 178.412 197.846 179.572 197.516Z" fill="#231F20"/>
</svg>
