<svg width="357" height="582" viewBox="0 0 357 582" fill="none" xmlns="http://www.w3.org/2000/svg">
<path d="M264.743 422.643C261.743 421.893 261.293 418.323 262.813 416.313C262.605 415.529 262.575 414.709 262.723 413.913C267.77 386.973 271.56 359.846 274.093 332.533C249.043 353.113 223.853 373.603 198.013 393.163C193.093 396.893 188.773 398.803 182.713 396.663C174.863 393.893 167.323 389.323 159.953 385.483C147.953 379.233 136.243 372.483 124.693 365.423C128.693 376.953 133.073 388.373 137.883 399.593C140.883 406.593 144.043 413.593 147.213 420.593C149.093 424.713 151.343 428.743 148.953 433.143C146.103 438.373 139.263 442.543 134.843 446.413C128.516 451.953 122.136 457.433 115.703 462.853C106.203 470.853 96.7031 478.973 86.7031 486.413L138.213 480.753C147.78 479.693 157.356 478.653 166.943 477.633C173.343 476.953 182.943 473.813 188.943 477.363C194.943 480.913 197.513 490.893 200.453 496.753L213.283 522.293C219.656 534.959 226.033 547.626 232.413 560.293C235.646 543.626 238.886 526.959 242.133 510.293C244.943 495.883 247.813 477.143 258.983 466.543L324.143 437.113C326.883 436.346 329.694 435.867 332.533 435.683C309.853 431.593 286.963 428.233 264.743 422.643Z" fill="#FFF200"/>
<path d="M195.193 508.963L189.533 497.623C187.823 494.223 186.263 488.743 182.943 486.993C179.623 485.243 172.453 487.283 168.573 487.713L155.803 489.133L150.133 489.753C164.483 502.543 177.753 516.953 191.303 530.443C199.063 538.163 206.816 545.883 214.563 553.603C216.473 555.513 218.433 557.323 220.423 559.083C215.829 549.923 211.223 540.783 206.603 531.663L195.193 508.963Z" fill="#F7941E"/>
<path d="M123.384 443.843C127.624 440.143 136.064 435.073 138.714 430.253C141.214 425.723 134.824 416.533 132.634 411.463C130.044 405.463 127.634 399.393 125.204 393.323C120.538 381.429 116.181 369.429 112.134 357.323C98.4844 337.683 91.9844 314.503 87.0444 291.163C76.4444 241.163 72.6844 189.343 78.2644 138.423C80.9079 113.564 85.9104 89.0137 93.2044 65.1028C95.8844 56.4328 98.7744 47.5328 102.204 38.8528C98.5544 43.1528 95.0044 47.5328 91.6144 52.0828C81.1394 66.2334 71.711 81.1297 63.4044 96.6528C48.0644 125.173 36.2944 155.503 27.4044 186.653C17.7044 220.263 9.8444 255.343 10.5344 290.533C11.2244 328.103 20.4844 365.023 33.2244 400.193C43.8476 429.695 58.3049 457.671 76.2244 483.403C76.4422 483.264 76.6694 483.14 76.9044 483.033C86.9744 474.153 97.5844 465.863 107.834 457.193C113.054 452.786 118.238 448.336 123.384 443.843Z" fill="#F7941E"/>
<path d="M86.0246 184.053C85.8854 214.696 88.6342 245.285 94.2346 275.413C99.0046 301.363 104.945 327.813 118.485 350.643C131.875 358.983 145.615 366.743 159.575 374.053C166.335 377.593 173.145 381.053 180.015 384.373L180.505 384.613C167.235 363.743 158.205 339.003 150.565 315.993C142.405 291.443 136.035 266.343 129.925 241.213C123.365 214.213 117.215 187.083 113.265 159.553C107.095 116.553 106.335 71.8527 117.665 29.7827C107.485 49.6827 101.305 72.1427 96.3646 93.4127C89.5678 123.149 86.0998 153.549 86.0246 184.053Z" fill="#F7941E"/>
<path d="M326.296 423.473C317.261 417.048 308.754 409.912 300.856 402.133C294.026 395.583 284.996 388.133 278.596 379.533C276.862 391.533 274.919 403.483 272.766 415.383C290.626 416.723 308.536 419.913 326.296 423.473Z" fill="#F7941E"/>
<path d="M162.144 320.343C169.964 343.213 180.364 364.143 190.894 385.683C191.753 385.213 192.572 384.675 193.344 384.073C196.244 381.843 199.114 379.563 201.994 377.313C226.467 358.146 250.703 338.69 274.703 318.943C268.223 308.063 259.013 299.133 250.873 289.463C241.763 278.643 233.254 267.303 225.264 255.643C208.654 231.373 194.444 205.533 181.664 179.073C159.144 132.443 135.665 81.9828 128.565 29.8728C122.86 50.744 119.757 72.2403 119.325 93.8728C118.075 146.783 129.995 198.873 142.325 250.003C148.074 273.693 154.254 297.343 162.144 320.343Z" fill="#F7941E"/>
<path fill-rule="evenodd" clip-rule="evenodd" d="M355.764 428.283C354.494 427.513 352.294 426.373 350.444 425.473C335.284 418.163 322.254 408.413 310.004 396.923C299.114 386.723 289.084 376.703 280.624 364.643C282.497 350.136 284.044 335.586 285.264 320.993C285.448 319.529 284.834 318.079 283.654 317.193C280.032 307.686 273.393 300.121 266.674 292.464L266.674 292.464L266.673 292.464L266.673 292.463L266.673 292.463L266.672 292.462C265.618 291.261 264.561 290.057 263.514 288.843C253.929 277.695 244.95 266.042 236.614 253.933C220.605 230.411 206.34 205.749 193.934 180.143C180.934 153.633 169.044 126.423 158.564 98.8028C147.254 68.9828 138.344 38.2028 136.724 6.18278C136.534 2.35278 132.974 0.772778 130.114 1.44278C129.265 0.479911 128.027 -0.0488339 126.745 0.00355581C125.462 0.0559455 124.271 0.683884 123.504 1.71278C123.279 1.97409 123.062 2.2391 122.845 2.50331L122.844 2.50377C122.705 2.67417 122.565 2.84424 122.424 3.01278C122.015 3.20155 121.629 3.4364 121.274 3.71278C95.9238 24.0528 75.9638 52.8428 59.8738 80.7928C43.2938 109.613 30.5338 140.563 20.6438 172.343C10.0438 206.483 1.28384 242.463 0.12384 278.343C-1.11616 316.823 7.07384 355.043 19.3938 391.343C31.7138 427.643 47.5338 466.983 74.5338 495.073C74.7618 495.307 75.0209 495.509 75.3038 495.673C76.1719 496.889 77.6021 497.576 79.0938 497.493L130.184 491.933L138.274 491.043C148.944 503.732 161.027 515.522 173 527.204L173 527.204L173.002 527.206C177.389 531.486 181.761 535.752 186.044 540.043C187.317 541.327 188.59 542.613 189.864 543.899L189.872 543.907L189.874 543.909C196.6 550.699 203.341 557.504 210.174 564.253C210.713 564.788 211.257 565.331 211.805 565.88C217.858 571.934 224.517 578.594 232.724 581.143C233.96 581.523 235.303 581.313 236.364 580.573C237.883 580.079 239.026 578.814 239.364 577.253C243.364 556.906 247.387 536.573 251.434 516.253C251.757 514.614 252.069 512.932 252.386 511.223C255.162 496.248 258.312 479.255 273.024 472.003L354.814 436.493C356.534 434.213 358.054 429.703 355.764 428.283ZM300.854 402.133C308.752 409.912 317.259 417.048 326.294 423.473C308.564 419.913 290.624 416.723 272.764 415.383C274.911 403.463 276.854 391.513 278.594 379.533C283.472 386.064 289.877 391.963 295.672 397.299C297.48 398.964 299.229 400.575 300.854 402.133ZM128.564 29.8828C122.859 50.754 119.756 72.2503 119.324 93.8828C118.074 146.793 129.994 198.903 142.354 250.013C148.074 273.693 154.253 297.293 162.143 320.353C169.607 342.181 179.421 362.242 189.455 382.752L189.455 382.753C189.934 383.732 190.413 384.712 190.893 385.693C191.752 385.223 192.571 384.685 193.343 384.083C195.258 382.611 197.159 381.116 199.059 379.624C200.037 378.855 201.014 378.087 201.993 377.323C226.466 358.136 250.702 338.68 274.702 318.953C270.031 311.109 263.94 304.279 257.854 297.454L257.853 297.452L257.852 297.451L257.851 297.451L257.851 297.45C255.496 294.809 253.143 292.17 250.872 289.473C241.763 278.653 233.263 267.313 225.263 255.653C208.663 231.383 194.443 205.543 181.663 179.083C159.143 132.453 135.634 81.9928 128.564 29.8828ZM117.664 29.7828C106.334 71.8528 107.094 116.533 113.264 159.553C117.264 187.083 123.364 214.213 129.924 241.213C136.035 266.343 142.405 291.443 150.535 315.993C158.175 338.993 167.205 363.743 180.475 384.613L179.985 384.373C173.105 381.053 166.305 377.593 159.545 374.053C145.545 366.743 131.844 358.983 118.464 350.643C104.914 327.813 98.974 301.363 94.2039 275.413C88.6035 245.285 85.8547 214.696 85.9938 184.053C86.0691 153.55 89.5371 123.149 96.334 93.4128C101.304 72.1428 107.534 49.6828 117.664 29.7828ZM76.2238 483.403C76.4417 483.264 76.6689 483.14 76.9038 483.033C83.0653 477.599 89.4288 472.387 95.7884 467.178C99.8227 463.873 103.855 460.57 107.834 457.213C113.047 452.806 118.231 448.356 123.384 443.863C124.666 442.744 126.333 441.499 128.107 440.175L128.107 440.175C132.199 437.119 136.865 433.635 138.714 430.273C140.615 426.828 137.375 420.688 134.751 415.715C133.924 414.148 133.158 412.697 132.634 411.483C130.044 405.483 127.604 399.413 125.204 393.343C120.491 381.469 116.134 369.469 112.134 357.343C98.5338 337.673 91.9838 314.493 87.0438 291.153C76.4438 241.113 72.6838 189.333 78.2638 138.413C80.9073 113.554 85.9099 89.0037 93.2038 65.0928C95.8838 56.4228 98.7738 47.5228 102.204 38.8428C98.5538 43.1428 95.0038 47.5228 91.6138 52.0728C81.1388 66.2234 71.7104 81.1196 63.4038 96.6428C48.1038 125.163 36.3338 155.493 27.4038 186.593C17.7438 220.263 9.88384 255.343 10.5338 290.533C11.2238 328.103 20.4838 365.023 33.2238 400.193C43.847 429.695 58.3043 457.671 76.2238 483.403ZM214.534 553.603C206.794 545.863 199.04 538.143 191.274 530.443C187.117 526.305 182.987 522.08 178.844 517.842L178.839 517.837C169.477 508.261 160.05 498.618 150.104 489.753L155.774 489.133L168.534 487.713C169.505 487.605 170.68 487.394 171.948 487.166L171.948 487.166L171.949 487.166C175.745 486.484 180.378 485.651 182.904 486.993C185.47 488.356 186.957 491.834 188.276 494.917C188.689 495.884 189.086 496.811 189.494 497.623L195.204 508.963L206.614 531.663C211.227 540.783 215.814 549.923 220.374 559.083C218.384 557.343 216.424 555.513 214.534 553.603ZM251.534 475.683C254.507 469.804 259.467 465.17 265.534 462.603L329.564 435.183C323.709 434.117 318.031 433.137 312.444 432.172C296.437 429.409 281.185 426.777 264.714 422.633C261.714 421.883 261.264 418.303 262.784 416.303C262.576 415.519 262.545 414.7 262.694 413.903C267.694 386.929 271.484 359.803 274.064 332.523C248.984 353.103 223.824 373.593 197.984 393.153C193.064 396.883 188.744 398.793 182.684 396.653C176.755 394.561 171.003 391.442 165.368 388.387C163.542 387.396 161.728 386.413 159.924 385.473C147.924 379.223 136.214 372.413 124.664 365.413C128.694 376.943 133.044 388.363 137.854 399.583C140.874 406.633 144.014 413.583 147.184 420.583C147.332 420.908 147.483 421.232 147.633 421.556C149.39 425.34 151.125 429.08 148.924 433.133C146.867 436.957 142.718 440.167 138.906 443.116C137.435 444.254 136.014 445.352 134.784 446.433L134.235 446.915C129.759 450.843 125.297 454.76 120.724 458.603C118.345 460.591 115.97 462.593 113.593 464.598C104.775 472.033 95.9161 479.503 86.6538 486.403L138.164 480.743C147.737 479.696 157.314 478.656 166.894 477.623C168.433 477.46 170.154 477.156 171.963 476.836C177.711 475.819 184.353 474.645 188.894 477.353C193.353 480.012 195.932 486.247 198.177 491.675C198.938 493.514 199.66 495.26 200.404 496.743L213.194 522.323C219.561 534.989 225.937 547.656 232.324 560.323C235.557 543.656 238.797 526.989 242.044 510.323C242.287 509.072 242.53 507.781 242.78 506.458C244.635 496.62 246.818 485.044 251.534 475.683Z" fill="#231F20"/>
</svg>
