<svg width="335" height="576" viewBox="0 0 335 576" fill="none" xmlns="http://www.w3.org/2000/svg">
<path fill-rule="evenodd" clip-rule="evenodd" d="M281.995 76.001C302.375 110.721 314.945 152.661 318.315 192.661C321.805 234.171 317.485 279.461 303.275 318.741C290.245 354.831 262.045 384.731 227.045 400.291C192.595 415.601 154.715 414.721 119.334 404.521C100.124 395.361 82.8141 382.601 69.124 365.471C56.1039 349.181 47.4139 329.821 39.0238 310.881C30.5038 291.631 22.3238 272.091 17.3837 251.561C7.91367 212.191 13.2137 168.501 26.6138 130.561C39.1538 95.041 61.504 62.661 92.5042 40.861C122.064 20.081 158.575 9.54096 194.575 15.281C232.335 21.291 262.735 43.201 281.995 76.001ZM33.1137 179.441C32.5637 191.591 44.1137 203.531 56.5637 198.441C68.0837 193.731 69.0637 176.251 60.6237 168.241C55.4537 163.301 46.0937 163.011 40.7337 167.131C36.1672 169.568 33.2585 174.267 33.1137 179.441ZM219.074 300.441C214.724 325.841 200.744 351.531 173.014 355.661C146.844 359.571 123.014 344.891 109.364 323.231C101.724 311.121 96.9737 297.131 94.6637 283.051C92.2937 268.571 90.4537 252.571 93.8437 238.111C93.0637 235.001 94.2537 231.461 98.2737 230.491C117.506 225.852 136.965 222.211 156.574 219.581C165.414 218.394 174.274 217.394 183.154 216.581C184.965 216.421 186.933 216.154 188.976 215.876L188.977 215.876C195.113 215.043 201.935 214.116 207.284 215.721C213.674 217.661 215.104 223.781 216.354 229.561C217.984 237.031 219.284 244.561 220.184 252.171C222.135 268.231 221.762 284.488 219.074 300.441ZM236.534 168.501C240.024 181.661 261.453 190.651 268.223 175.251C273.563 163.131 266.803 146.241 252.303 147.461C249.173 145.771 244.703 147.351 241.874 149.901C236.796 154.64 234.743 161.791 236.534 168.501Z" fill="#FFF200"/>
<path d="M241.797 504.171C240.91 472.884 240.023 441.598 239.137 410.311C230.702 414.499 221.927 417.965 212.906 420.671C217.816 451.951 219.026 483.591 222.596 515.031C224.196 529.031 231.266 538.531 244.487 543.781C255.107 548.001 267.137 549.291 278.487 548.781C289.837 548.271 302.267 545.411 310.077 536.721C317.887 528.031 317.877 515.961 312.617 506.041C299.917 482.091 267.497 487.731 253.697 507.401C250.117 512.461 241.987 510.781 241.797 504.171Z" fill="#F7941E"/>
<path d="M50.0928 177.351C47.2528 177.481 49.7128 177.471 49.0928 177.821C48.4728 178.171 47.8328 179.821 48.2228 178.581C47.8532 179.918 47.0248 181.083 45.8828 181.871C46.5628 184.401 48.2628 187.151 50.8828 186.401C53.7128 185.611 53.2128 180.251 51.7128 178.341C51.2328 177.711 50.8128 177.321 50.0928 177.351Z" fill="white"/>
<path d="M185.093 426.331C172.829 427.709 160.439 427.484 148.233 425.661C151.613 436.991 153.233 449.171 154.933 460.591C157.333 476.401 159.023 492.331 160.343 508.261C160.683 512.261 156.063 515.491 152.413 514.261C132.463 507.811 99.0331 514.611 95.2531 539.721C93.3231 552.521 105.843 559.721 116.733 561.571C130.163 563.901 143.943 559.971 156.463 555.361C166.383 551.711 177.693 547.151 184.543 538.681C192.643 528.681 190.423 515.131 189.853 503.171C188.643 477.531 187.263 451.951 185.093 426.331Z" fill="#F7941E"/>
<path d="M203.424 233.181C202.674 229.491 203.254 229.471 200.294 228.651C195.294 227.261 186.814 229.471 181.604 229.921C174.491 230.528 167.398 231.298 160.324 232.231C160.803 233.014 161.109 233.89 161.224 234.801C162.764 246.581 166.634 259.011 175.224 267.621C179.182 271.68 184.16 274.598 189.634 276.071C192.984 276.931 202.914 278.431 205.054 274.141C205.625 272.9 206.637 271.916 207.894 271.381C207.693 262.064 206.848 252.772 205.364 243.571C204.778 240.091 204.131 236.628 203.424 233.181Z" fill="white"/>
<path d="M149.105 233.821C133.319 236.214 117.652 239.281 102.105 243.021C102.932 247.039 103.546 251.098 103.945 255.181C104.07 255.396 104.161 255.629 104.215 255.871C106.215 264.961 106.495 274.731 111.765 282.761C117.315 291.221 126.985 293.921 135.985 289.101C154.845 278.991 151.225 252.251 149.135 234.801C149.101 234.476 149.091 234.148 149.105 233.821V233.821Z" fill="white"/>
<path d="M253.706 161.121C252.036 160.921 250.486 162.491 248.906 163.241C249.015 165.382 250.127 167.346 251.906 168.541C252.776 169.131 255.046 170.291 256.216 169.761C255.046 170.291 256.346 167.621 256.406 166.481C256.506 164.431 256.146 161.411 253.706 161.121Z" fill="white"/>
<path fill-rule="evenodd" clip-rule="evenodd" d="M334.885 223.191C334.075 266.311 327.555 314.471 304.425 351.731C291.023 372.991 272.792 390.787 251.215 403.671C251.445 404.314 251.573 404.989 251.595 405.671C252.428 433.451 253.248 461.238 254.055 489.031C269.855 476.781 292.155 472.591 309.555 484.671C326.565 496.471 334.375 521.651 322.845 539.831C310.155 559.841 283.075 562.861 261.565 560.161C237.115 557.091 214.765 545.681 210.655 519.361C208.904 507.945 208.069 496.347 207.238 484.796C206.92 480.38 206.602 475.97 206.235 471.581C204.865 455.451 203.585 439.391 203.235 423.221C200.835 423.781 198.425 424.288 196.005 424.741C196.528 430.855 197.077 436.981 197.626 443.114L197.627 443.118C199.862 468.059 202.109 493.12 202.655 518.001C202.895 529.011 200.875 539.271 193.505 547.771C186.495 555.841 176.705 560.911 166.985 564.911C145.775 573.741 117.985 581.321 96.9846 567.681C77.3346 554.911 79.2046 530.541 95.0746 515.341C108.635 502.351 128.675 497.001 147.075 500.111C145.955 487.451 144.515 474.831 142.855 462.231C142.274 457.828 141.536 453.358 140.792 448.858C139.407 440.481 138.004 431.997 137.575 423.631C123.032 420.227 109.194 414.311 96.6846 406.151C95.9504 405.668 95.3843 404.969 95.0646 404.151C77.818 393.073 63.0681 378.524 51.7546 361.431C38.1501 340.821 28.4614 317.363 19.0563 294.591L18.7546 293.861C9.08461 270.431 1.71461 246.211 0.334608 220.761C-4.06539 139.021 35.0246 49.981 111.935 14.391C147.245 -1.94901 188.335 -5.09901 225.025 8.69099C263.445 23.051 289.385 53.531 306.025 90.191C325.015 132.011 335.745 177.131 334.885 223.191ZM156.425 555.411C166.345 551.731 177.655 547.201 184.505 538.731H184.545C191.563 530.049 190.833 518.732 190.149 508.117L190.149 508.115C190.044 506.48 189.939 504.861 189.865 503.271C188.655 477.581 187.275 452.001 185.105 426.381C172.841 427.759 160.45 427.534 148.245 425.711C151.204 435.632 152.784 446.206 154.299 456.35L154.299 456.35L154.3 456.357C154.515 457.795 154.729 459.224 154.945 460.641C157.355 476.451 159.035 492.381 160.355 508.311C160.695 512.251 156.075 515.491 152.425 514.311C132.425 507.901 99.0346 514.661 95.2146 539.771C93.2846 552.571 105.805 559.731 116.695 561.621C130.125 563.951 143.905 560.021 156.425 555.411ZM253.635 507.391C267.436 487.721 299.856 482.081 312.556 506.031C317.816 515.951 317.766 528.031 310.016 536.711C302.266 545.391 289.666 548.251 278.426 548.771C267.186 549.291 255.065 548.001 244.425 543.771C231.205 538.521 224.135 529.071 222.535 515.021C221.145 502.785 220.113 490.518 219.082 478.255C217.462 459.008 215.844 439.767 212.845 420.661C221.865 417.955 230.64 414.489 239.075 410.301C239.955 441.588 240.842 472.874 241.735 504.161C241.985 510.781 250.115 512.461 253.675 507.391H253.635ZM119.295 404.621C154.675 414.821 192.555 415.701 227.006 400.391L227.046 400.341C262.046 384.781 290.246 354.901 303.316 318.811C317.486 279.481 321.806 234.191 318.316 192.681C314.946 152.661 302.376 110.741 281.996 76.021C262.736 43.221 232.336 21.301 194.575 15.301C158.505 9.56099 122.065 20.101 92.505 40.881C61.4848 62.681 39.1547 95.061 26.6147 130.581C13.2146 168.471 7.91459 212.161 17.3846 251.581C22.3247 272.111 30.5047 291.651 39.0247 310.901C47.4248 329.901 56.1048 349.231 69.0849 365.571C82.7749 382.701 100.065 395.461 119.295 404.621Z" fill="#231F20"/>
<path fill-rule="evenodd" clip-rule="evenodd" d="M216.353 229.611C215.103 223.831 213.673 217.711 207.283 215.771C201.95 214.145 195.135 215.079 189.003 215.918C186.949 216.2 184.972 216.47 183.153 216.631C174.273 217.411 165.413 218.411 156.573 219.631C136.965 222.261 117.506 225.902 98.2732 230.541C94.2732 231.541 93.0632 235.051 93.8432 238.161C90.4532 252.621 92.2932 268.621 94.6632 283.101C96.9732 297.181 101.723 311.171 109.363 323.281C123.033 344.941 146.843 359.621 173.013 355.711C200.743 351.581 214.723 325.891 219.073 300.491C221.756 284.554 222.13 268.314 220.183 252.271C219.283 244.631 217.983 237.081 216.353 229.611ZM135.973 289.101C126.973 293.921 117.303 291.221 111.753 282.761C107.824 276.796 106.658 269.831 105.498 262.906C105.102 260.542 104.707 258.184 104.203 255.871C104.148 255.629 104.057 255.396 103.933 255.181C103.534 251.098 102.92 247.039 102.093 243.021C117.633 239.301 133.3 236.234 149.093 233.821C149.068 234.154 149.068 234.488 149.093 234.821L149.206 235.744C151.333 253.182 154.503 279.168 135.973 289.101ZM189.553 276.031C192.903 276.891 202.833 278.391 204.973 274.101L205.003 274.141C205.569 272.892 206.583 271.9 207.843 271.361C207.642 262.044 206.797 252.752 205.313 243.551C204.753 240.071 204.12 236.608 203.413 233.161C203.279 232.501 203.189 231.959 203.114 231.508C202.769 229.438 202.747 229.304 200.283 228.631C196.72 227.644 191.424 228.471 186.787 229.195C184.891 229.491 183.105 229.77 181.593 229.901C174.487 230.568 167.37 231.331 160.243 232.191C160.722 232.974 161.028 233.85 161.143 234.761C162.723 246.581 166.593 258.971 175.143 267.581C179.101 271.64 184.079 274.558 189.553 276.031Z" fill="#231F20"/>
<path fill-rule="evenodd" clip-rule="evenodd" d="M33.1147 179.391C33.2594 174.217 36.1681 169.518 40.7347 167.081C46.0947 162.961 55.4247 163.251 60.6247 168.141C69.0647 176.201 68.0847 193.681 56.5647 198.391C44.1147 203.531 32.5347 191.591 33.1147 179.391ZM45.9047 181.871C46.5747 184.401 48.2747 187.151 50.9047 186.401C53.7347 185.611 53.2347 180.251 51.7547 178.351C51.2547 177.711 50.8347 177.351 50.1147 177.351C48.4737 177.426 48.5865 177.458 48.8648 177.536C49.07 177.594 49.3649 177.677 49.1147 177.821C48.8252 177.988 48.5165 178.477 48.3232 178.783C48.1515 179.056 48.0708 179.184 48.1751 178.814C48.1998 178.737 48.223 178.659 48.2447 178.581C48.2158 178.674 48.1928 178.751 48.1751 178.814C47.777 180.053 46.9798 181.129 45.9047 181.871Z" fill="#231F20"/>
<path fill-rule="evenodd" clip-rule="evenodd" d="M241.873 149.891C244.703 147.341 249.172 145.761 252.302 147.451C266.802 146.241 273.562 163.131 268.222 175.251C261.452 190.651 240.023 181.661 236.533 168.501C234.739 161.787 236.792 154.632 241.873 149.891ZM256.025 167.961C256.187 167.405 256.351 166.839 256.372 166.451L256.422 166.481C256.502 164.431 256.142 161.411 253.672 161.091C252.524 160.953 251.433 161.653 250.349 162.347C249.857 162.662 249.366 162.977 248.873 163.211C248.982 165.352 250.093 167.316 251.872 168.511C252.735 169.096 254.974 170.242 256.152 169.744C255.418 170.054 255.717 169.025 256.025 167.961Z" fill="#231F20"/>
</svg>
