<svg width="588" height="448" viewBox="0 0 588 448" fill="none" xmlns="http://www.w3.org/2000/svg">
<path d="M177.924 85.7059C166.584 99.7059 158.404 116.466 152.364 133.366C140.173 167.636 137.224 204.514 143.814 240.286C144.344 239.742 144.905 239.228 145.494 238.746C145.804 238.496 146.134 238.256 146.494 238.016C144.187 219.572 145.05 200.869 149.044 182.716C152.864 165.086 159.274 147.166 169.274 132.056C185.924 106.916 214.164 96.4259 242.014 88.7059C258.294 84.1859 274.654 80.1559 291.544 78.8759C308.372 77.6346 325.29 78.6909 341.834 82.0159C357.634 85.1759 374.664 89.8359 387.714 99.6859C400.004 108.966 409.144 122.166 417.714 134.786C427.023 148.31 433.799 163.411 437.714 179.356C441.524 195.136 442.994 211.356 444.404 227.496L444.784 227.676C448.044 206.016 450.924 183.916 447.744 162.016C444.828 142.14 437.71 123.114 426.864 106.206C407.477 76.3731 377.431 55.0688 342.864 46.6459C323.274 41.8759 302.864 41.8159 282.984 44.2059C262.459 46.8442 242.173 51.0906 222.314 56.9059C213.394 59.4359 204.754 62.6859 196.994 67.8459C189.771 72.8012 183.341 78.823 177.924 85.7059Z" fill="#662D91"/>
<path d="M438.774 115.016C442.434 122.104 445.511 129.478 447.974 137.066C448.83 135.997 449.631 134.886 450.374 133.736C451.716 131.558 452.819 129.241 453.664 126.826C455.314 122.073 455.968 117.032 455.584 112.016C454.814 101.666 449.714 92.0159 443.474 83.8959C437.234 75.7759 429.384 68.1759 419.914 63.8959C415.237 61.7655 410.132 60.7391 404.994 60.8959C401.108 60.9429 397.285 61.8875 393.824 63.6559C412.707 76.9263 428.123 94.5411 438.774 115.016Z" fill="#FFF200"/>
<path d="M150.616 240.936C148.786 242.127 147.198 243.654 145.936 245.436C143.6 248.76 141.904 252.49 140.936 256.436C138.58 264.702 137.534 273.286 137.836 281.876C138.216 290.206 140.546 298.546 145.976 305.016C148.247 307.758 151.011 310.051 154.126 311.776C155.554 312.563 157.067 313.184 158.636 313.626C159.636 313.926 160.756 314.046 161.766 314.326C157.506 289.776 153.946 264.886 153.066 239.966C152.206 240.168 151.381 240.495 150.616 240.936Z" fill="#FFF200"/>
<path d="M416.974 57.2858C425.664 59.7458 433.224 65.1758 439.614 71.4258C446.469 77.9649 452.101 85.676 456.244 94.1958C460.034 102.346 462.054 111.296 460.894 120.286C460.29 124.801 458.967 129.19 456.974 133.286C455.294 136.746 453.034 140.836 449.814 143.116C450.114 144.206 450.404 145.296 450.674 146.386C451.349 146.583 451.933 147.012 452.324 147.596C472.954 177.266 490.914 210.166 495.714 246.326C506.484 228.566 516.664 209.896 519.154 189.036C519.504 186.146 523.014 184.866 524.754 187.516C535.194 203.482 543.486 220.754 549.414 238.886C554.604 223.096 555.414 206.156 555.164 189.596C554.904 171.596 555.294 151.686 545.904 135.596C544.904 133.816 546.154 130.876 548.464 131.136C559.273 132.339 569.72 135.742 579.164 141.136C576.164 132.256 572.864 123.466 569.164 114.856C553.434 78.6458 529.764 44.3158 495.254 23.8558C493.024 22.5358 493.784 19.6158 495.924 18.7458C504.004 15.4858 512.077 12.2425 520.144 9.01581C511.664 5.64581 502.144 5.37581 493.094 5.89581C473.754 6.99581 454.854 12.8958 437.854 22.1358C429.255 26.7571 421.155 32.2529 413.684 38.5358C407.634 43.6658 402.114 49.5958 398.754 56.7758C399.844 56.5158 400.914 56.3358 401.914 56.1958C406.955 55.5157 412.083 55.8869 416.974 57.2858Z" fill="#BE1E2D"/>
<path d="M135.893 91.8358C124.32 111.999 126.455 137.225 141.253 155.156C144.227 142.185 148.432 129.527 153.813 117.356C161.083 100.926 170.442 84.7659 183.512 72.2659C185.734 70.1398 188.071 68.1368 190.512 66.2659C181.422 60.1459 170.702 64.0359 161.653 68.5459C151.043 73.8759 141.903 81.4859 135.893 91.8358Z" fill="#FFF200"/>
<path d="M35.0447 124.606C25.0541 142.419 17.9239 161.69 13.9147 181.716C10.4347 199.136 8.73469 217.716 12.7747 235.166C19.3831 219.779 28.6743 205.69 40.2147 193.556C41.7847 191.906 45.3347 193.056 45.0347 195.556C40.4647 234.425 49.0556 273.704 69.4347 307.116C70.34 291.899 73.3694 276.883 78.4347 262.506C78.8289 261.209 80.1069 260.39 81.4501 260.574C82.7933 260.758 83.8039 261.89 83.8347 263.246C85.6447 283.096 98.0447 299.426 111.115 314.016C109.042 305.223 107.576 296.299 106.725 287.306C102.535 242.966 113.285 196.586 137.845 159.306C116.281 134.171 118.956 96.3639 143.845 74.5158C149.803 69.3412 156.556 65.1609 163.845 62.1358C157.815 59.638 151.526 57.8168 145.095 56.7058C137.332 55.5478 129.493 54.9828 121.645 55.0158C106.925 54.9058 92.1447 56.4758 78.1847 61.3858C66.8993 65.4534 56.409 71.4565 47.1847 79.1258C30.5647 92.8158 17.6747 110.696 8.80469 130.256C16.3247 126.576 24.0147 123.276 31.8747 120.356C34.2747 119.486 36.1947 122.586 35.0447 124.606Z" fill="#BE1E2D"/>
<path d="M224.593 290.586C224.163 290.6 223.738 290.681 223.333 290.826C219.463 292.126 219.433 298.906 223.143 300.556L223.453 300.676C225.279 299.806 226.708 298.277 227.453 296.396C227.503 296.226 227.543 296.056 227.583 295.886C227.583 295.406 227.653 294.886 227.663 294.426C227.137 292.817 226.047 291.453 224.593 290.586V290.586Z" fill="white"/>
<path d="M231.235 102.576C279.174 84.5759 336.604 83.9459 380.844 112.216C391.584 119.066 401.294 127.676 408.434 138.286C416.154 149.746 420.344 163.146 424.114 176.286C428.781 192.566 432.824 209.013 436.244 225.626C437.162 225.509 438.094 225.536 439.004 225.706C437.414 208.706 435.654 191.576 431.004 175.076C426.154 157.856 417.314 143.076 406.914 128.666C397.964 116.246 388.254 104.416 374.224 97.5659C359.634 90.4459 342.784 86.6559 326.734 84.7159C310.831 82.7734 294.741 82.9483 278.884 85.2359C263.425 87.5059 248.085 91.5359 233.105 95.9359C219.675 99.8759 206.355 104.936 194.655 112.726C182.465 120.826 173.485 131.966 166.905 144.946C152.695 172.946 147.595 204.896 149.905 236.066C150.882 235.647 151.911 235.365 152.965 235.226C152.965 233.886 152.905 232.546 152.895 231.226C152.635 203.296 155.895 172.846 169.355 147.896C182.045 124.356 207.045 111.666 231.235 102.576Z" fill="#FFF200"/>
<path d="M424.554 201.166C421.174 187.566 417.694 173.826 412.844 160.666C408.294 148.326 401.624 137.306 391.954 128.316C382.744 119.746 371.744 113.176 360.284 108.106C314.044 87.6758 259.044 94.4258 214.634 116.506C203.044 122.286 191.364 129.016 182.794 138.946C174.484 148.616 169.474 160.746 166.034 172.896C158.144 200.696 157.844 229.966 160.344 258.566C163 287.186 167.408 315.616 173.544 343.696C178.332 366.433 184.555 388.845 192.174 410.796L192.264 391.096C192.264 387.756 196.994 387.256 197.954 390.326C202.535 404.806 210.34 418.059 220.784 429.086C220.634 428.766 220.484 428.446 220.344 428.086C217.38 421.559 214.819 414.856 212.674 408.016C204.234 381.426 199.184 353.486 196.534 325.736C195.151 311.583 194.577 297.364 194.814 283.146C194.944 276.036 195.274 268.936 195.884 261.856C196.194 258.306 196.554 254.766 197.004 251.226C197.174 249.856 197.324 248.536 197.564 247.226C191.513 233.577 189.101 218.594 190.564 203.736C190.834 201.146 194.764 201.026 194.694 203.736C194.145 220.532 198.124 237.166 206.214 251.896C208.348 241.255 211.499 230.844 215.624 220.806C216.314 219.106 219.194 218.026 220.134 220.216C237.604 260.926 281.194 277.466 320.514 290.366C313.864 268.474 312.652 245.291 316.984 222.826C317.464 220.306 320.824 220.366 322.044 222.156C334.009 239.631 351.313 252.759 371.364 259.576L368.694 234.106C368.404 231.366 372.764 230.246 373.924 232.696C377.864 240.986 386.274 245.396 393.024 251.106C399.969 257.168 405.395 264.775 408.864 273.316C417.314 293.256 416.134 315.236 414.794 336.376C414.766 336.916 414.582 337.437 414.264 337.876C413.53 345.216 412.287 352.497 410.544 359.666C413.917 356.61 416.894 353.143 419.404 349.346C420.048 348.314 421.292 347.826 422.466 348.143C423.64 348.461 424.468 349.51 424.504 350.726C426.157 372.17 424.604 393.74 419.894 414.726C421.227 412.886 422.514 410.992 423.754 409.046C438.044 386.246 442.894 359.016 443.044 332.346C443.204 302.786 438.984 272.946 433.734 243.916C431.134 229.569 428.074 215.319 424.554 201.166Z" fill="#662D91"/>
<path fill-rule="evenodd" clip-rule="evenodd" d="M375.336 244.016C378.771 247.145 382.384 250.073 386.156 252.786C393.545 258.423 399.41 265.817 403.216 274.296C410.686 290.866 410.686 309.296 409.686 327.206C409.461 327.692 409.24 328.175 409.02 328.655C406.784 333.535 404.699 338.085 400.766 342.146C396.449 346.545 391.317 350.06 385.656 352.496C372.043 358.439 356.676 358.526 342.016 358.61H342.015H342.013C341.134 358.615 340.259 358.62 339.386 358.626L338.584 358.632H338.582H338.581C322.137 358.75 305.638 358.868 289.226 358.416C272.546 357.956 255.526 357.316 239.036 354.556C223.536 351.946 207.356 344.846 202.356 328.676C200.882 315.189 200.082 301.656 199.956 288.076C199.876 280.516 200.066 273.036 200.386 265.516C200.546 261.766 200.786 258.016 201.036 254.266C202.346 256.686 203.746 259.016 205.266 261.266C206.426 263.036 210.066 263.216 210.426 260.596C211.883 249.458 214.473 238.498 218.156 227.886C237.906 268.316 283.866 284.626 324.226 297.676C325.226 297.943 326.293 297.657 327.025 296.925C327.757 296.193 328.043 295.126 327.776 294.126C320.563 273.738 318.334 251.921 321.276 230.496C334.625 247.636 353.004 260.168 373.836 266.336C375.436 266.816 377.636 265.456 377.436 263.596L375.336 244.016ZM208.334 278.089C208.872 278.304 209.487 278.186 209.906 277.786V277.746C210.872 276.885 211.675 275.891 212.49 274.885C213.226 273.974 213.972 273.051 214.856 272.206C215.884 271.222 217.071 270.455 218.246 269.696C219.197 269.081 220.14 268.472 220.986 267.756C222.876 266.156 220.746 263.766 218.826 264.046C213.756 264.786 207.346 271.556 207.406 276.786C207.433 277.365 207.796 277.874 208.334 278.089ZM232.576 323.726C232.27 324.95 231.486 326.002 230.401 326.646C229.315 327.29 228.017 327.474 226.796 327.156C224.129 326.433 222.539 323.702 223.226 321.026C223.498 320.142 224.301 319.527 225.226 319.496C226.283 318.27 227.922 317.715 229.506 318.046C230.664 318.382 231.64 319.167 232.216 320.226C232.793 321.285 232.922 322.531 232.576 323.686V323.726ZM228.95 306.133C231.774 304.243 233.529 301.121 233.676 297.726C233.729 297.02 233.722 296.311 233.656 295.606C233.86 293.918 233.669 292.206 233.096 290.606C232.986 290.196 232.856 289.796 232.716 289.416C232.514 288.904 232.166 288.462 231.716 288.146C230.356 286.315 228.315 285.111 226.056 284.806C224.956 284.369 223.779 284.159 222.596 284.186C218.096 282.786 213.356 286.286 211.956 291.186C211.361 293.324 211.289 295.574 211.746 297.746C211.737 298.79 211.893 299.83 212.206 300.826C212.985 303.306 214.851 305.297 217.276 306.236C217.935 306.664 218.64 307.019 219.376 307.296C222.57 308.455 226.126 308.023 228.95 306.133ZM314.626 320.286C312.236 323.708 308.299 325.714 304.126 325.636C299.816 325.529 295.787 323.476 293.166 320.053C290.545 316.63 289.615 312.204 290.636 308.016C290.787 307.512 291.25 307.167 291.776 307.167C292.302 307.167 292.765 307.512 292.916 308.016C294.166 314.016 297.216 321.206 304.596 320.696C310.153 320.308 311.068 316.195 311.999 312.012C312.387 310.271 312.777 308.518 313.506 307.016C314.326 305.316 316.976 305.846 317.426 307.526C318.486 311.446 316.916 316.956 314.626 320.286ZM387.847 260.366C386.077 259.166 383.676 257.796 381.456 258.016C381.156 257.998 380.871 258.151 380.719 258.41C380.567 258.67 380.574 258.993 380.736 259.246C381.446 260.79 382.804 261.966 384.166 263.147C384.472 263.411 384.778 263.676 385.076 263.946C385.444 264.277 385.801 264.639 386.16 265.003C387.393 266.254 388.65 267.529 390.447 267.676C391.552 267.676 392.447 266.78 392.447 265.676C392.229 263.265 390.083 261.845 388.154 260.57C388.051 260.501 387.948 260.433 387.847 260.366ZM384.646 321.376C383.643 321.971 382.429 322.092 381.329 321.706C380.229 321.32 379.356 320.467 378.946 319.376C378.851 319.247 378.767 319.109 378.696 318.966C377.824 317.339 378.18 315.326 379.556 314.096C380.537 313.214 381.871 312.835 383.17 313.07C384.468 313.304 385.585 314.126 386.196 315.296C387.216 317.415 386.562 319.961 384.646 321.326V321.376ZM374.376 295.876C378.366 299.846 384.986 299.496 389.146 295.976V295.926C393.287 292.271 394.286 286.206 391.536 281.416C388.656 276.817 382.792 275.099 377.886 277.416C375.903 278.398 374.338 280.058 373.476 282.096L373.266 282.356C370.201 286.506 370.676 292.282 374.376 295.876Z" fill="#F2B879"/>
<path d="M381.856 284.406C380.635 286.001 380.158 288.045 380.546 290.016C382.488 290.709 384.654 290.046 385.876 288.386C387.946 285.536 384.546 281.456 381.856 284.406Z" fill="white"/>
<path d="M444.266 233.016C441.966 232.016 439.586 231.346 437.266 230.536C439.566 242.136 441.566 253.786 443.266 265.486C444.876 276.626 446.386 288.216 447.436 299.996C453.766 297.726 457.186 290.576 459.436 284.606C462.509 276.977 463.719 268.726 462.966 260.536C462.165 253.051 459.078 245.995 454.126 240.326C452.416 238.397 450.471 236.69 448.336 235.246C446.598 235.737 444.787 234.745 444.266 233.016Z" fill="#FFF200"/>
<path fill-rule="evenodd" clip-rule="evenodd" d="M4.44455 139.016C11.5992 135.195 18.9419 131.737 26.4446 128.656C17.9228 145.286 11.7858 163.034 8.21455 181.376C4.21455 202.126 2.55455 224.446 9.63455 244.726C10.003 245.933 11.1172 246.758 12.3796 246.758C13.6419 246.758 14.7561 245.933 15.1246 244.726C20.4964 229.822 28.4625 215.985 38.6546 203.856C35.8974 244.13 46.7707 284.161 69.5246 317.506C71.0346 319.706 74.7146 319.006 74.7246 316.106C74.747 302.059 76.6506 288.078 80.3846 274.536C85.9846 294.596 100.645 311.026 114.715 326.116C116.625 328.116 120.165 326.036 119.385 323.396C106.775 280.776 109.515 234.246 126.385 193.176C129.878 184.753 133.965 176.59 138.615 168.746C135.285 189.212 135.214 210.077 138.405 230.566C139.115 235.016 139.945 239.456 140.895 243.856C139.523 245.954 138.367 248.185 137.445 250.516C133.655 259.936 132.095 271.136 132.445 281.256C132.725 290.936 135.355 300.486 141.445 308.126C144.152 311.542 147.502 314.395 151.305 316.526C154.365 318.206 159.025 320.416 162.635 319.416C162.635 319.632 162.687 319.854 162.738 320.073C162.75 320.122 162.761 320.171 162.772 320.22C162.78 320.255 162.788 320.291 162.795 320.326C167.995 349.616 174.795 378.726 184.435 406.896C186.841 413.949 189.421 420.929 192.175 427.836C193.345 430.766 197.985 430.616 197.985 427.046V406.046C205.258 421.011 215.932 434.066 229.155 444.166C229.89 445.118 230.688 446.02 231.545 446.866C232.11 447.488 232.962 447.763 233.785 447.591C234.607 447.418 235.277 446.823 235.545 446.026C236.141 445.392 236.432 444.531 236.344 443.666C236.256 442.8 235.796 442.016 235.085 441.516L233.895 440.646C232.9 438.809 231.822 437.007 230.743 435.202C229.184 432.596 227.622 429.985 226.305 427.256C223.53 421.411 221.122 415.4 219.095 409.256C215.029 396.671 211.69 383.864 209.095 370.896C207.061 361.322 205.378 351.696 204.045 342.016C209.645 349.446 218.515 354.556 227.325 357.366C235.545 359.986 244.195 361.036 252.725 361.986C261.675 362.986 270.655 363.606 279.635 364.046C298.055 364.966 316.495 364.996 334.925 364.886C336.543 364.876 338.17 364.873 339.803 364.87C355.136 364.841 370.983 364.812 385.435 359.326C392.567 356.699 399.073 352.612 404.535 347.326C405.986 345.886 407.342 344.352 408.595 342.736C407.277 350.666 405.422 358.497 403.045 366.176C402.365 368.386 405.045 370.596 407.045 369.266C411.648 366.185 415.803 362.483 419.395 358.266C420.371 380.827 417.713 403.398 411.525 425.116C410.785 427.706 414.225 429.806 416.125 427.786C447.065 394.866 451.125 349.316 447.795 305.586C455.795 303.636 460.495 295.836 463.515 288.686C467.315 279.686 469.325 269.736 468.165 259.936C467.242 251.597 463.842 243.725 458.405 237.336C456.053 234.631 453.293 232.309 450.225 230.456C453.355 209.896 456.365 189.066 454.405 168.246C454.145 165.416 453.785 162.616 453.355 159.816C472.355 188.666 488.165 220.566 490.585 255.466C490.574 256.829 491.483 258.028 492.799 258.385C494.114 258.742 495.505 258.167 496.185 256.986C507.715 238.246 519.185 218.936 523.745 197.306C533.484 213.488 540.992 230.913 546.065 249.106C546.715 251.436 550.555 252.346 551.665 249.836C560.075 230.836 561.535 210.106 561.225 189.616L561.211 188.653L561.202 188.03C560.965 171.271 560.712 153.357 553.685 137.906C564.295 139.951 574.321 144.319 583.045 150.696C585.145 152.216 588.105 149.696 587.375 147.366C574.685 107.366 555.995 68.1958 524.815 39.2458C517.965 32.8932 510.592 27.1295 502.775 22.0158C511.155 18.7225 519.535 15.4092 527.915 12.0758C530.145 11.1858 530.915 8.20582 528.595 6.81582C519.595 1.31582 509.015 -0.104182 498.645 0.00581794C488.212 0.160184 477.842 1.6421 467.785 4.41582C447.507 10.133 428.716 20.1922 412.715 33.8958C404.905 40.4858 397.715 48.2658 394.525 58.0958C392.833 58.7514 391.272 59.7029 389.915 60.9058C379.869 54.2699 369.044 48.8962 357.685 44.9058C317.395 30.8258 274.565 37.7558 234.285 48.0958C224.665 50.5658 214.995 53.0958 205.885 57.0958C201.475 59.0578 197.265 61.4423 193.315 64.2158C188.395 56.9558 178.235 57.5258 170.695 59.6658C170.035 59.8458 169.375 60.0458 168.695 60.2558C158.295 51.9058 143.205 50.4958 130.335 49.7858C114.215 48.8958 97.7346 49.5758 82.1146 53.9558C57.3046 60.9558 36.4346 77.5358 21.1146 97.8758C12.4639 109.488 5.42344 122.217 0.184555 135.716C-0.805445 138.226 2.41455 140.076 4.44455 139.016ZM158.625 313.586C157.055 313.144 155.542 312.523 154.115 311.736C150.999 310.011 148.235 307.718 145.965 304.976C140.535 298.506 138.205 290.166 137.825 281.836C137.522 273.246 138.568 264.662 140.925 256.396C141.893 252.45 143.589 248.72 145.925 245.396C147.186 243.614 148.774 242.087 150.605 240.896C151.365 240.446 152.187 240.109 153.045 239.896C153.925 264.816 157.485 289.706 161.745 314.256C161.331 314.157 160.904 314.076 160.472 313.995C159.859 313.879 159.235 313.762 158.625 313.586ZM152.925 235.236C152.855 233.906 152.855 232.566 152.855 231.236C152.595 203.306 155.815 172.856 169.315 147.906C182.045 124.356 207.045 111.666 231.195 102.586C279.135 84.5658 336.565 83.9558 380.805 112.226C391.545 119.076 401.255 127.686 408.395 138.296C416.075 149.736 420.305 163.136 424.075 176.296C428.741 192.602 432.785 209.049 436.205 225.636C437.123 225.519 438.054 225.546 438.965 225.716C437.375 208.696 435.615 191.586 430.965 175.086C426.115 157.866 417.275 143.076 406.875 128.676C397.925 116.256 388.185 104.426 374.185 97.5758C359.595 90.4558 342.745 86.6658 326.695 84.7258C310.792 82.7834 294.701 82.9582 278.845 85.2458C263.385 87.5158 248.065 91.5458 233.065 95.9458C219.615 99.8858 206.315 104.946 194.615 112.736C182.425 120.836 173.445 131.956 166.865 144.956C152.695 172.986 147.595 204.906 149.865 236.076C150.841 235.657 151.871 235.375 152.925 235.236ZM409.685 327.296C409.46 327.782 409.238 328.265 409.019 328.745C406.782 333.625 404.698 338.175 400.765 342.236C396.448 346.635 391.316 350.15 385.655 352.586C372.118 358.496 356.847 358.598 342.262 358.695L341.281 358.702C340.648 358.706 340.015 358.711 339.385 358.716L338.56 358.722H338.559H338.557H338.556H338.554H338.553H338.551H338.55C322.117 358.84 305.666 358.958 289.225 358.506C272.505 358.046 255.525 357.406 239.035 354.646C223.535 352.036 207.335 344.936 202.355 328.766C200.895 315.286 200.095 301.752 199.955 288.166C199.875 280.636 200.065 273.166 200.385 265.606C200.545 261.856 200.785 258.106 201.035 254.356C202.345 256.746 203.745 259.076 205.265 261.356C206.445 263.126 210.065 263.306 210.425 260.686C211.882 249.548 214.472 238.588 218.155 227.976C237.905 268.406 283.865 284.716 324.225 297.766C325.225 298.033 326.291 297.747 327.023 297.015C327.755 296.283 328.042 295.216 327.775 294.216C320.562 273.828 318.333 252.011 321.275 230.586C334.624 247.726 353.003 260.258 373.835 266.426C375.465 266.906 377.635 265.546 377.435 263.686L375.335 244.016C378.77 247.141 382.383 250.066 386.155 252.776C393.556 258.438 399.421 265.864 403.215 274.376C410.655 290.956 410.655 309.386 409.685 327.296ZM419.825 414.796C421.178 412.956 422.465 411.062 423.685 409.116H423.715C438.045 386.246 442.895 359.016 443.045 332.406C443.205 302.846 438.985 272.976 433.735 243.976C431.135 229.616 428.075 215.366 424.555 201.226C421.175 187.626 417.695 173.886 412.845 160.726C408.295 148.376 401.625 137.376 391.955 128.376C382.745 119.806 371.745 113.236 360.285 108.166C314.035 87.7358 258.995 94.4858 214.635 116.566C203.005 122.346 191.365 129.006 182.795 139.006C174.485 148.676 169.475 160.806 166.035 172.956C158.145 200.756 157.845 230.026 160.345 258.626C163 287.246 167.409 315.676 173.545 343.756C178.333 366.493 184.555 388.905 192.175 410.856L192.265 391.156C192.285 387.816 196.955 387.316 197.955 390.386C202.535 404.866 210.341 418.119 220.785 429.146C220.635 428.786 220.485 428.466 220.345 428.146C217.379 421.606 214.818 414.89 212.675 408.036C204.235 381.446 199.185 353.506 196.535 325.756C195.152 311.603 194.578 297.384 194.815 283.166C194.945 276.056 195.275 268.956 195.885 261.876C196.195 258.326 196.555 254.786 197.005 251.246L197.06 250.792C197.208 249.568 197.351 248.395 197.565 247.246C191.513 233.597 189.102 218.614 190.565 203.756C190.835 201.166 194.765 201.046 194.695 203.756C194.146 220.552 198.125 237.186 206.215 251.916C208.348 241.275 211.5 230.864 215.625 220.826C216.315 219.126 219.195 218.046 220.135 220.236C237.605 260.946 281.195 277.486 320.515 290.386C313.864 268.494 312.652 245.311 316.985 222.846C317.465 220.326 320.825 220.386 322.045 222.176C333.983 239.657 351.262 252.803 371.295 259.646L368.625 234.176C368.335 231.436 372.695 230.316 373.855 232.766C376.769 238.898 382.129 242.907 387.455 246.89C389.328 248.292 391.198 249.69 392.955 251.176C399.9 257.238 405.325 264.845 408.795 273.386C417.245 293.326 416.065 315.306 414.725 336.446C414.696 336.986 414.512 337.507 414.195 337.946C413.46 345.286 412.217 352.567 410.475 359.736C413.848 356.68 416.824 353.213 419.335 349.416C419.979 348.384 421.222 347.896 422.397 348.213C423.571 348.531 424.399 349.58 424.435 350.796C426.088 372.24 424.534 393.81 419.825 414.796ZM454.085 240.316C459.037 245.984 462.124 253.041 462.925 260.526C463.678 268.716 462.468 276.967 459.395 284.596C457.105 290.596 453.685 297.716 447.395 299.986C446.395 288.206 444.835 276.616 443.225 265.476C441.545 253.776 439.545 242.126 437.225 230.526C437.907 230.761 438.592 230.985 439.276 231.208C440.948 231.753 442.614 232.296 444.225 233.006C444.746 234.73 446.55 235.721 448.285 235.236C450.434 236.677 452.393 238.384 454.115 240.316H454.085ZM437.855 22.1358C429.256 26.7571 421.156 32.2529 413.685 38.5358C407.635 43.6658 402.115 49.5958 398.725 56.7758C399.815 56.5158 400.885 56.3358 401.885 56.1958C406.926 55.5158 412.054 55.8869 416.945 57.2858C425.635 59.7458 433.195 65.1758 439.585 71.4258C446.44 77.9649 452.071 85.676 456.215 94.1958C460.005 102.346 462.025 111.286 460.865 120.286C460.261 124.801 458.937 129.19 456.945 133.286C455.265 136.746 453.005 140.836 449.785 143.116C450.085 144.206 450.375 145.296 450.645 146.386C451.319 146.583 451.903 147.012 452.295 147.596C472.925 177.266 490.885 210.166 495.685 246.326C506.455 228.566 516.635 209.896 519.125 189.036C519.475 186.146 522.985 184.866 524.725 187.516C535.165 203.482 543.456 220.754 549.385 238.886C554.575 223.096 555.365 206.156 555.135 189.596C555.118 188.44 555.104 187.277 555.09 186.107C554.884 168.999 554.664 150.628 545.875 135.596C544.835 133.816 546.125 130.876 548.435 131.136C559.243 132.339 569.691 135.742 579.135 141.136C576.135 132.256 572.865 123.466 569.135 114.856C553.405 78.6758 529.735 44.3458 495.225 23.8558C492.995 22.5358 493.755 19.6158 495.895 18.7458C503.968 15.4858 512.051 12.2425 520.145 9.01582C511.665 5.64582 502.175 5.37582 493.095 5.89582C473.755 6.99582 454.855 12.9358 437.855 22.1358ZM397.545 62.0158C399.964 61.2863 402.469 60.8761 404.995 60.7958C410.132 60.639 415.237 61.6655 419.915 63.7958C429.385 68.0758 437.185 75.6458 443.475 83.7958C449.765 91.9458 454.815 101.616 455.585 112.016C455.973 117.042 455.319 122.094 453.665 126.856C452.82 129.271 451.716 131.587 450.375 133.766C449.631 134.916 448.83 136.027 447.975 137.096C445.511 129.508 442.434 122.134 438.775 115.046C428.119 94.54 412.684 76.9 393.775 63.6158C394.992 62.9938 396.252 62.4591 397.545 62.0158ZM222.364 56.9458C213.444 59.4758 204.804 62.7258 197.044 67.8858C189.81 72.8129 183.363 78.8076 177.924 85.6658C166.584 99.6758 158.364 116.426 152.365 133.326C140.174 167.596 137.225 204.474 143.815 240.246C144.345 239.702 144.906 239.188 145.495 238.706C145.67 238.577 145.843 238.451 146.014 238.326C146.12 238.248 146.226 238.171 146.332 238.094L146.495 237.976C144.191 219.531 145.057 200.829 149.055 182.676C152.875 165.016 159.284 147.126 169.284 132.016C185.934 106.876 214.174 96.3858 242.024 88.6658C258.304 84.1458 274.664 80.1158 291.554 78.8358C308.388 77.5861 325.313 78.6358 341.864 81.9558C357.664 85.1158 374.694 89.7758 387.744 99.6258C400.044 108.906 409.184 122.106 417.744 134.726C427.053 148.25 433.829 163.351 437.744 179.296C441.554 195.076 443.024 211.306 444.434 227.436L444.814 227.616C448.083 205.926 450.923 183.876 447.743 162.016C444.841 142.159 437.744 123.147 426.924 106.246C407.537 76.4131 377.491 55.1088 342.924 46.6858C323.334 41.9158 302.974 41.8558 283.044 44.2458C262.516 46.8837 242.227 51.1301 222.364 56.9458ZM190.525 66.2958C188.084 68.1667 185.747 70.1697 183.525 72.2958C170.455 84.7958 161.095 100.956 153.825 117.386C148.444 129.557 144.238 142.215 141.265 155.186C126.466 137.255 124.33 112.029 135.905 91.8658C141.905 81.5158 151.015 73.8658 161.655 68.6058C170.695 64.0658 181.415 60.1758 190.505 66.2958H190.525ZM78.1846 61.4258C66.8815 65.4881 56.3739 71.4915 47.1346 79.1658C30.5146 92.8558 17.6246 110.736 8.74455 130.296C16.2712 126.616 23.9612 123.316 31.8146 120.396C34.2646 119.486 36.1846 122.606 35.0446 124.606C25.0585 142.416 17.9316 161.684 13.9246 181.706C10.4446 199.156 8.78455 217.706 12.7846 235.156C19.393 219.769 28.6842 205.68 40.2246 193.546C41.7946 191.906 45.3446 193.056 45.0446 195.546C40.4567 234.408 49.0264 273.686 69.3846 307.106C70.2899 291.889 73.3193 276.873 78.3846 262.496C78.7788 261.199 80.0568 260.38 81.4 260.564C82.7432 260.748 83.7538 261.88 83.7846 263.236C85.6446 283.096 98.0446 299.426 111.115 314.016C109.039 305.2 107.572 296.253 106.725 287.236C102.535 242.916 113.285 196.536 137.845 159.236C116.281 134.101 118.956 96.2939 143.845 74.4458C149.803 69.2711 156.556 65.0908 163.845 62.0658C157.815 59.5679 151.526 57.7468 145.095 56.6358C137.329 55.5146 129.49 54.9864 121.645 55.0558C106.925 54.9458 92.1846 56.5158 78.1846 61.4258Z" fill="#231F20"/>
<path fill-rule="evenodd" clip-rule="evenodd" d="M232.665 289.376C232.805 289.756 232.935 290.156 233.045 290.566C233.604 292.169 233.782 293.881 233.565 295.566C233.645 296.27 233.665 296.979 233.625 297.686C233.478 301.081 231.723 304.203 228.899 306.093C226.075 307.983 222.519 308.415 219.325 307.256C218.588 306.979 217.884 306.624 217.225 306.196C214.8 305.257 212.934 303.266 212.155 300.786C211.841 299.789 211.686 298.75 211.695 297.706C211.238 295.534 211.31 293.284 211.905 291.146C213.305 286.286 218.045 282.786 222.545 284.146C223.728 284.118 224.905 284.329 226.005 284.766C228.264 285.071 230.305 286.275 231.665 288.106C232.115 288.422 232.463 288.864 232.665 289.376ZM227.458 296.257C227.501 296.133 227.543 296.009 227.543 295.886H227.553C227.593 295.406 227.623 294.916 227.553 294.426C227.045 292.828 225.981 291.465 224.554 290.586C224.124 290.6 223.699 290.681 223.294 290.826C219.425 292.126 219.395 298.906 223.104 300.556L223.414 300.676C225.24 299.806 226.669 298.277 227.413 296.396C227.427 296.349 227.442 296.303 227.458 296.257Z" fill="#231F20"/>
<path d="M229.507 318.016C227.923 317.685 226.283 318.24 225.226 319.466C224.302 319.497 223.499 320.112 223.226 320.996C222.539 323.672 224.13 326.403 226.797 327.126C228.018 327.444 229.317 327.26 230.402 326.616C231.488 325.972 232.271 324.92 232.577 323.696C232.936 322.535 232.813 321.279 232.236 320.211C231.658 319.142 230.675 318.351 229.507 318.016Z" fill="#231F20"/>
<path d="M313.504 307.016C311.024 312.126 312.504 320.146 304.594 320.696C297.215 321.206 294.165 314.016 292.915 308.016C292.764 307.512 292.301 307.167 291.775 307.167C291.25 307.167 290.786 307.512 290.635 308.016C289.604 312.209 290.529 316.643 293.151 320.073C295.773 323.504 299.808 325.561 304.125 325.666C308.297 325.744 312.235 323.738 314.624 320.316C316.914 316.986 318.484 311.476 317.424 307.526C316.974 305.816 314.324 305.286 313.504 307.016Z" fill="#231F20"/>
<path fill-rule="evenodd" clip-rule="evenodd" d="M373.476 282.046C374.339 280.008 375.904 278.347 377.886 277.366C382.798 275.053 388.663 276.78 391.536 281.386C394.303 286.183 393.304 292.266 389.146 295.926C384.986 299.446 378.376 299.826 374.376 295.826C370.676 292.231 370.202 286.456 373.266 282.306L373.476 282.046ZM380.546 290.016C382.495 290.709 384.668 290.038 385.886 288.366L385.876 288.396C387.946 285.536 384.546 281.456 381.856 284.396C380.632 285.994 380.155 288.041 380.546 290.016Z" fill="#231F20"/>
<path d="M379.553 314.016C378.177 315.246 377.821 317.259 378.693 318.886C378.764 319.029 378.848 319.167 378.943 319.296C379.353 320.387 380.226 321.24 381.326 321.626C382.426 322.012 383.64 321.891 384.643 321.296C386.595 319.924 387.254 317.333 386.193 315.196C385.578 314.029 384.46 313.212 383.161 312.981C381.863 312.75 380.531 313.132 379.553 314.016Z" fill="#231F20"/>
<path d="M385.114 263.866C386.744 265.336 388.164 267.406 390.484 267.596C391.589 267.596 392.484 266.7 392.484 265.596C392.254 263.056 389.854 261.596 387.884 260.286C386.114 259.086 383.714 257.716 381.494 257.936C381.211 257.94 380.951 258.095 380.811 258.341C380.671 258.588 380.672 258.89 380.814 259.136C381.644 261.016 383.594 262.486 385.114 263.866Z" fill="#231F20"/>
<path d="M220.983 267.676C222.873 266.076 220.743 263.676 218.823 263.966C213.753 264.726 207.343 271.476 207.403 276.706C207.43 277.285 207.793 277.794 208.331 278.009C208.869 278.224 209.484 278.106 209.903 277.706C211.743 276.066 213.043 273.806 214.853 272.086C216.663 270.366 219.043 269.326 220.983 267.676Z" fill="#231F20"/>
</svg>
