<svg width="455" height="589" viewBox="0 0 455 589" fill="none" xmlns="http://www.w3.org/2000/svg">
<path d="M270.563 543.21C279.643 545.14 289.733 541.38 294.563 533.21C295.563 531.486 296.32 529.632 296.813 527.7C295.984 527.895 295.111 527.727 294.413 527.24C290.003 524.14 286.263 522.37 280.693 522.96C279.152 523.149 277.626 523.436 276.123 523.82C277.722 525.392 278.792 527.423 279.183 529.63C279.663 532.53 276.833 535.41 273.943 533.63C269.233 530.78 266.423 527.1 260.573 526.42C257.247 526.18 253.904 526.409 250.643 527.1C255.023 534.88 261.523 541.29 270.563 543.21Z" fill="#BE1E2D"/>
<path d="M386.632 430.89C383.332 425.98 379.462 423.89 374.402 424.53C375.462 433.72 376.492 442.92 377.402 452.13C377.922 457.26 378.502 462.39 379.092 467.54C381.502 465.23 384.092 463.06 386.022 460.23C388.969 456.076 390.634 451.15 390.812 446.06C391.034 440.692 389.573 435.388 386.632 430.89Z" fill="#F2B879"/>
<path d="M146.982 428.33C154.702 417.78 169.132 417.52 179.982 423.45C184.902 426.14 188.282 430.21 190.872 435.11C193.172 439.45 194.222 444.54 197.942 447.91C200.382 450.11 203.522 448.39 203.942 445.44C204.862 438.52 199.782 430.14 195.692 424.84C190.995 418.833 184.351 414.649 176.902 413.01C165.382 410.32 144.002 411.44 143.632 427.42C143.562 429.36 145.992 429.7 146.982 428.33Z" fill="#231F20"/>
<path d="M180.753 370.91C184.085 370.984 187.346 371.885 190.243 373.53C192.773 374.96 194.693 377.1 197.783 376.93C198.953 376.914 199.897 375.97 199.913 374.8C200.003 366.19 185.913 366.15 180.403 368.33C179.788 368.521 179.4 369.129 179.487 369.768C179.573 370.407 180.109 370.89 180.753 370.91Z" fill="#231F20"/>
<path d="M319.633 377.8C322.713 373.46 327.443 371.41 332.573 370.8C335.133 370.47 338.903 368.62 336.063 365.8C333.223 362.98 327.333 365.27 324.393 366.95C320.674 369.075 317.856 372.48 316.463 376.53C315.723 378.43 318.573 379.29 319.633 377.8Z" fill="#231F20"/>
<path d="M311.064 443.25C315.064 434.73 319.914 427.49 329.554 424.8C334.224 423.5 340.154 422.97 344.054 426.36C346.474 428.48 347.464 431.36 350.844 432.07C352.083 432.358 353.37 431.833 354.054 430.76C357.154 426.34 353.054 420.71 349.504 417.91C343.704 413.37 335.954 413.28 329.074 415.07C316.894 418.25 305.414 429.36 307.394 442.77C307.634 444.45 310.364 444.7 311.064 443.25Z" fill="#231F20"/>
<path fill-rule="evenodd" clip-rule="evenodd" d="M236.633 510.14C236.263 509.21 235.943 508.21 235.633 507.21C235.551 506.929 235.464 506.64 235.376 506.344C234.75 504.262 234.027 501.857 234.193 499.65C233.941 499.167 233.798 498.635 233.773 498.09C233.79 496.168 235.341 494.612 237.263 494.59C237.832 494.59 238.39 494.738 238.883 495.02C244.982 494.905 251.037 495.471 257.101 496.037C261.587 496.456 266.077 496.876 270.593 497.02C275.942 497.227 281.298 496.939 286.593 496.16C288.258 495.905 289.894 495.547 291.527 495.189C294.689 494.497 297.835 493.808 301.133 493.88C302.152 493.941 303.086 494.464 303.67 495.3C304.255 496.136 304.425 497.193 304.133 498.17C308.573 510.43 309.353 528.43 301.783 539.43C295.291 548.675 284.283 553.655 273.053 552.43C261.053 551.13 250.773 543.42 245.053 533.01C241.73 526.758 239.175 520.126 237.443 513.26C237.349 512.907 237.267 512.532 237.184 512.155C237.03 511.455 236.874 510.745 236.633 510.14ZM270.044 530.992C267.23 528.887 264.623 526.937 260.523 526.46H260.553C257.209 526.228 253.849 526.471 250.573 527.18C254.973 534.92 261.413 541.33 270.513 543.25C279.613 545.17 289.703 541.41 294.513 533.25C295.513 531.526 296.271 529.672 296.763 527.74C295.934 527.934 295.062 527.767 294.363 527.28C289.953 524.18 286.213 522.41 280.643 523C279.103 523.189 277.577 523.476 276.073 523.86C277.673 525.432 278.742 527.463 279.133 529.67C279.613 532.54 276.783 535.42 273.893 533.67C272.484 532.818 271.245 531.891 270.044 530.992Z" fill="#231F20"/>
<path d="M386.843 214.44C383.363 211.39 387.033 205.2 391.373 206.65C403.543 210.73 414.073 216.92 424.563 223.57C422.103 219.772 419.372 216.156 416.393 212.75C409.993 205.177 403.326 197.843 396.393 190.75C384.063 178.2 369.123 163.75 350.553 162.68C347.343 162.5 344.833 159.01 346.723 156.01C348.839 152.648 351.28 149.503 354.013 146.62C346.34 148.823 339.071 152.243 332.483 156.75C331.733 157.268 330.794 157.433 329.913 157.2C327.433 157.87 324.733 156.91 324.233 153.61C321.185 133.679 323.363 113.298 330.553 94.4601C309.117 105.45 293.124 124.747 286.303 147.85C285.303 151.24 280.563 152.92 278.033 150.04C265.196 135.466 257.1 117.328 254.823 98.0401C249.123 112.87 248.421 129.155 252.823 144.42C254.213 149.16 248.133 152.42 244.713 149.14C212.123 117.76 197.533 71.7001 196.533 26.8601C182.524 57.942 175.689 91.7776 176.533 125.86C176.653 130.39 169.963 132.35 167.833 128.22C162.033 116.992 157.736 105.05 155.053 92.7001C154.154 106.464 155.819 120.274 159.963 133.43C161.393 137.88 154.553 140.74 152.443 136.6C133.533 99.6001 115.443 60.1301 114.193 18.1201C74.1928 80.8001 71.3728 165.47 109.733 229.67C112.623 234.51 106.333 238.3 102.493 235.26C78.8228 216.51 62.9528 190.57 54.0328 162.26C51.9912 182.676 52.6637 203.271 56.0328 223.51C56.6828 227.51 52.0328 231.09 48.7828 227.73C44.1285 222.976 40.2209 217.544 37.1928 211.62C37.1128 217.62 37.1928 223.62 37.4428 229.62C37.8828 241.48 38.5828 253.7 42.1528 265.1C43.2428 268.59 38.6028 271.1 36.1528 268.62C29.4828 261.87 24.1528 253.51 18.9328 245.31C17.8842 259.236 18.0013 273.224 19.2828 287.13C20.9628 305.96 24.0028 324.24 31.4928 341.63C33.4928 346.22 27.3928 350.11 24.6328 345.63C19.6328 337.5 14.8128 329.34 9.63281 321.39C11.6763 340.605 15.8692 359.53 22.1328 377.81C26.2109 389.448 31.2968 400.707 37.3328 411.46C42.3328 420.39 48.2028 428.61 53.7428 437.12C56.1173 430.638 60.924 425.337 67.1428 422.34C72.3806 419.869 78.321 419.32 83.9228 420.79C84.7481 421.012 85.5595 421.282 86.3528 421.6L87.1128 421.95C87.6128 422.17 88.1128 422.39 88.5728 422.64C88.8628 422.8 89.1328 422.97 89.4028 423.14C89.6728 423.31 90.2428 423.62 90.6328 423.89C91.0228 424.16 91.1728 424.28 91.4428 424.47C91.7128 424.66 92.2028 425.02 92.5628 425.31C92.9228 425.6 93.0728 425.73 93.3328 425.94C93.5928 426.15 94.0628 426.56 94.4128 426.88L95.1128 427.52L96.2528 428.59L96.8228 429.16C97.6228 429.94 98.4128 430.74 99.2228 431.56C100.327 432.344 101.536 432.97 102.813 433.42C103.683 433.78 104.624 433.934 105.563 433.87L105.503 433.72C95.0628 395.39 93.7028 352.78 117.223 318.88C118.118 317.451 119.916 316.882 121.47 317.535C123.025 318.188 123.877 319.871 123.483 321.51C121.851 328.842 121.179 336.355 121.483 343.86C125.338 334.278 130.117 325.095 135.753 316.44C144.013 303.49 152.903 289.22 165.173 279.69C168.033 277.47 173.173 279.37 171.843 283.58C166.431 300.719 165.4 318.94 168.843 336.58C173.763 316.31 182.663 296.9 199.393 283.65C202.573 281.13 207.923 283.34 206.653 287.88C204.449 295.721 203.507 303.863 203.863 312C208.153 304.92 213.693 298.47 219.133 292.43C228.93 281.684 239.951 272.122 251.973 263.94C255.723 261.35 258.763 266.74 256.423 269.71C248.423 279.85 248.863 296.1 248.513 308.36C248.306 315.693 248.453 323.007 248.953 330.3C257.543 309.71 272.343 291.75 286.723 274.9C289.213 271.98 294.393 274.36 294.253 278.02C293.465 300.132 301.23 321.696 315.933 338.23C313.363 314.394 318.701 290.375 331.123 269.87C333.633 265.75 339.123 267.55 340.363 270.98C347.363 275.26 352.633 283.83 356.363 290.28C362.363 300.76 367.753 312.28 370.433 324.1C373.303 336.79 372.743 350.1 371.303 362.96C370.743 367.96 370.083 373.1 369.093 378.2C372.455 372.647 375.32 366.808 377.653 360.75C379.948 354.645 381.799 348.382 383.193 342.01C384.443 336.47 384.783 330.65 387.503 325.58C388.503 323.66 391.333 324.26 391.943 326.16C392.333 327.423 392.607 328.718 392.763 330.03C392.822 330.113 392.875 330.2 392.923 330.29C398.383 342.53 399.463 356.76 398.923 370.03C398.602 376.915 397.695 383.759 396.213 390.49C394.863 396.72 393.523 403.23 388.863 407.82C387.95 408.683 386.616 408.93 385.454 408.451C384.293 407.972 383.521 406.856 383.483 405.6C383.013 399.51 385.593 393.8 386.993 387.95C389.978 375.553 390.937 362.754 389.833 350.05C388.063 355.29 385.833 360.31 384.003 364.54C380.223 372.921 375.596 380.892 370.193 388.33C371.193 397.33 372.243 406.25 373.283 415.21C385.663 411.91 397.593 428.95 399.363 440.05C400.733 448.63 397.813 460.88 391.153 468.37C391.109 470.242 390.949 472.109 390.673 473.96C396.303 468.76 400.253 462.06 403.923 455.01C409.193 444.867 413.392 434.203 416.453 423.19C419.593 411.92 422.193 400.11 422.393 388.38C422.415 382.602 421.981 376.83 421.093 371.12C420.323 365.78 418.563 359.99 420.303 354.74C421.113 352.29 424.623 350.8 426.553 353.09C428.367 355.342 429.667 357.963 430.363 360.77C433.148 363.834 435.423 367.325 437.103 371.11C435.783 363.5 436.693 355.72 435.183 348C433.476 339.992 431.298 332.092 428.663 324.34C426.083 316.34 424.123 307.86 420.663 300.2C417.883 294.09 413.773 288.73 410.603 282.85C409.173 281.24 407.703 279.65 406.183 278.1C401.483 273.31 408.443 266.71 413.423 270.86C422.129 278.087 430.866 285.27 439.633 292.41C429.363 262.24 410.993 235.62 386.843 214.44Z" fill="#F7941E"/>
<path fill-rule="evenodd" clip-rule="evenodd" d="M108.144 437.85C103.634 438.73 99.4939 436.17 96.0639 433.6C95.2603 433.002 94.3446 432.416 93.4012 431.812C92.0904 430.972 90.7259 430.099 89.5339 429.11C88.7539 428.83 87.9539 428.59 87.1539 428.37L86.7239 428.25L85.6039 427.99L85.0639 427.88C84.4939 427.76 83.9139 427.66 83.3439 427.58L82.5339 427.47L81.6539 427.38L80.4439 427.31H79.5539H78.3739H77.7239C77.2773 427.31 76.8444 427.379 76.4082 427.448C76.317 427.462 76.2256 427.476 76.1339 427.49L75.8139 427.55C75.3339 427.63 74.8139 427.73 74.3939 427.85L73.9039 427.98C73.3582 428.128 72.8208 428.305 72.2939 428.51H72.1939C71.6939 428.71 71.1939 428.94 70.7139 429.19L70.3139 429.4C69.7981 429.681 69.2974 429.988 68.8139 430.32C59.7139 436.72 58.2639 448.96 61.9939 458.8C65.6539 468.43 74.1339 477.8 83.8639 481.4C84.9199 481.787 85.9882 482.132 87.0546 482.477C89.8455 483.378 92.6232 484.275 95.1339 485.91C96.3176 486.683 97.4376 487.954 98.5788 489.248L98.5789 489.248L98.579 489.249C99.7419 490.568 100.927 491.912 102.224 492.78C101.475 487.79 101.311 482.729 101.734 477.7C101.774 476.411 102.74 475.34 104.018 475.167C105.296 474.994 106.512 475.769 106.894 477C108.352 481.363 109.396 485.826 110.44 490.291C111.345 494.157 112.25 498.025 113.424 501.83C115.994 510.289 119.694 518.362 124.424 525.83C133.324 539.71 146.224 549.92 160.824 557.31C186.364 570.31 216.414 576.24 244.824 578.07C274.104 579.95 304.224 576.69 331.374 565.07C343.674 559.8 359.374 552.52 366.584 540.66C374.09 528.31 372.433 510.569 371.07 495.969C370.897 494.113 370.728 492.307 370.584 490.57C368.535 465.116 366.224 439.669 363.914 414.234L363.903 414.112C363.432 408.931 362.962 403.75 362.494 398.57L361.444 399.94C358.894 403.19 354.574 399.52 355.184 396.29C355.929 392.297 356.805 388.368 357.679 384.451C359.43 376.597 361.17 368.794 361.824 360.62C362.714 349.5 363.244 337.69 360.824 326.75C358.424 315.97 353.944 305.59 348.974 295.75C346.874 291.546 344.468 287.501 341.774 283.65C340.52 281.889 339.078 280.227 337.645 278.575V278.575L337.645 278.574L337.624 278.55C324.999 299.937 321.116 325.371 326.784 349.55C327.914 354.2 322.684 356.55 319.304 353.91C299.703 338.207 287.508 315.066 285.634 290.02C270.134 308.9 255.784 328.88 251.544 353.53C250.804 357.83 243.544 357.83 242.854 353.53C239.927 337.429 238.973 321.032 240.014 304.7C240.614 296.48 241.464 287.99 243.804 280.03C237.79 285.313 232.087 290.939 226.724 296.88C218.244 306.27 209.074 316.58 205.894 329.11C204.894 333.19 198.444 333.33 197.484 329.11C195.293 319.442 194.718 309.477 195.784 299.62C182.864 315.12 176.344 335.06 173.454 355.13C172.834 359.45 166.934 358.37 165.734 355.13C158.494 335.579 156.839 314.399 160.954 293.96C154.146 301.209 148.596 310.071 143.406 318.358C142.818 319.297 142.234 320.229 141.654 321.15C133.654 333.81 127.084 347.15 123.654 361.78C122.834 365.23 117.364 365.31 116.604 361.78C114.882 353.875 114.163 345.785 114.464 337.7C114.084 338.57 113.724 339.45 113.374 340.33C113.28 340.558 113.192 340.792 113.105 341.022L113.105 341.022L113.105 341.022L113.105 341.022L113.105 341.022C113.081 341.085 113.058 341.148 113.034 341.21C112.804 341.8 112.574 342.39 112.364 342.98C112.234 343.33 112.114 343.68 111.994 344.03L111.994 344.03L111.994 344.031C111.804 344.571 111.614 345.111 111.434 345.66L111.074 346.78L110.594 348.36C110.539 348.555 110.481 348.748 110.424 348.94L110.424 348.941C110.366 349.133 110.309 349.325 110.254 349.52C110.236 349.582 110.217 349.65 110.197 349.722L110.197 349.722C110.088 350.103 109.943 350.611 109.834 351.09C109.752 351.448 109.69 351.664 109.631 351.871L109.631 351.871L109.631 351.872C109.596 351.995 109.561 352.115 109.524 352.26C109.424 352.65 109.264 353.32 109.144 353.85C109.092 354.081 109.049 354.257 109.011 354.414L109.01 354.415L109.01 354.416C108.961 354.619 108.919 354.791 108.874 355.01C108.744 355.56 108.634 356.11 108.524 356.66L108.524 356.66L108.482 356.858L108.482 356.858C108.416 357.17 108.352 357.475 108.294 357.78C108.19 358.31 108.093 358.846 107.998 359.378L107.954 359.62C107.954 359.833 107.902 360.047 107.85 360.26C107.826 360.357 107.803 360.453 107.784 360.55C107.634 361.47 107.494 362.38 107.364 363.3C107.364 363.494 107.328 363.687 107.293 363.88C107.275 363.977 107.257 364.074 107.244 364.17C107.154 364.81 107.074 365.45 106.994 366.09L106.994 366.09C106.944 366.5 106.904 366.9 106.864 367.31C106.846 367.492 106.821 367.72 106.793 367.965C106.759 368.272 106.722 368.605 106.694 368.9L106.574 370.22L106.454 371.72L106.364 373.08L106.274 374.55C106.274 375.01 106.274 375.48 106.204 375.94C106.156 376.252 106.173 376.601 106.189 376.927C106.197 377.082 106.204 377.232 106.204 377.37V378.8V380.21V381.66V383.03V384.53V385.76C106.204 387 106.258 388.247 106.312 389.488V389.488V389.488V389.488V389.488V389.489L106.334 390V390.05C106.334 390.437 106.362 390.828 106.39 391.22C106.407 391.446 106.423 391.673 106.434 391.9C106.434 392.23 106.434 392.55 106.484 392.9L106.604 394.68C106.604 395.04 106.604 395.39 106.674 395.75C106.724 396.34 106.774 396.93 106.814 397.52L106.904 398.52C106.95 399.08 107.004 399.632 107.059 400.19L107.059 400.19L107.074 400.34L107.164 401.34C107.197 401.638 107.228 401.933 107.259 402.228C107.293 402.556 107.327 402.883 107.364 403.21L107.454 404.1C107.509 404.552 107.56 405.004 107.613 405.473L107.613 405.473C107.636 405.678 107.66 405.887 107.684 406.1L107.774 406.81C107.805 407.056 107.835 407.303 107.865 407.55C107.922 408.017 107.978 408.486 108.044 408.95V409.2C108.624 413.61 109.304 418 110.044 422.35C111.06 425.669 111.68 429.096 111.894 432.56V432.7V432.81C111.954 435.46 110.994 437.29 108.144 437.85ZM90.2039 475.16C77.3539 476.9 65.9939 464.31 66.0439 452.06C66.0439 437.95 79.1139 427.47 91.2739 437.77C92.4539 438.77 91.4439 440.66 90.0639 440.69C85.1739 440.79 79.5739 440.95 77.0639 445.69C75.2339 449.06 75.3739 454.16 76.9039 457.69C78.5326 461.435 81.7464 463.259 84.9857 465.098C87.395 466.465 89.8182 467.841 91.6139 470.02C92.8739 471.5 92.7739 474.81 90.2039 475.16ZM324.394 366.89C320.675 369.015 317.857 372.42 316.464 376.47C315.724 378.43 318.574 379.29 319.634 377.74C322.714 373.44 327.444 371.39 332.574 370.74C335.134 370.43 338.954 368.59 336.064 365.74C333.174 362.89 327.334 365.21 324.394 366.89ZM329.074 415.07C335.954 413.28 343.704 413.37 349.504 417.91C353.084 420.71 357.154 426.34 354.054 430.76C353.37 431.834 352.083 432.359 350.844 432.07C348.579 431.608 347.388 430.154 346.12 428.606C345.495 427.844 344.852 427.06 344.054 426.36C340.154 422.97 334.224 423.5 329.554 424.8C319.914 427.49 315.084 434.73 311.064 443.25C310.364 444.74 307.644 444.45 307.394 442.77C305.414 429.36 316.894 418.25 329.074 415.07ZM238.844 495.04C238.351 494.758 237.792 494.61 237.224 494.61C236.284 494.602 235.38 494.969 234.712 495.63C234.044 496.291 233.667 497.191 233.664 498.13C233.688 498.675 233.832 499.207 234.084 499.69C233.95 501.951 234.704 504.371 235.358 506.47C235.398 506.595 235.436 506.72 235.474 506.843C235.515 506.973 235.555 507.103 235.594 507.23C235.725 507.666 235.88 508.077 236.036 508.49L236.036 508.49C236.238 509.025 236.442 509.562 236.594 510.16C236.864 511.22 237.134 512.28 237.404 513.28C239.135 520.146 241.69 526.778 245.014 533.03C250.764 543.45 261.014 551.15 273.014 552.45C284.244 553.675 295.251 548.695 301.744 539.45C309.314 528.43 308.534 510.43 304.094 498.19C304.386 497.213 304.215 496.156 303.631 495.32C303.046 494.484 302.112 493.961 301.094 493.9C297.802 493.828 294.655 494.517 291.49 495.209L291.49 495.209L291.489 495.209C289.856 495.567 288.218 495.925 286.554 496.18C281.258 496.959 275.902 497.247 270.554 497.04C265.979 496.902 261.43 496.479 256.885 496.056L256.885 496.056C250.88 495.496 244.883 494.938 238.844 495.04ZM180.404 368.33C185.954 366.15 200.004 366.19 199.914 374.8C199.898 375.97 198.953 376.914 197.784 376.93C195.547 377.053 193.929 375.95 192.242 374.801L192.242 374.801C191.598 374.362 190.945 373.917 190.244 373.53C187.346 371.885 184.085 370.984 180.754 370.91C180.109 370.89 179.574 370.407 179.487 369.768C179.401 369.129 179.788 368.521 180.404 368.33ZM195.634 424.84C190.946 418.84 184.318 414.658 176.884 413.01C165.364 410.32 143.984 411.44 143.554 427.42C143.504 429.33 145.924 429.68 146.924 428.33C154.634 417.78 169.064 417.52 179.924 423.45C184.814 426.11 188.224 430.21 190.814 435.11C191.54 436.48 192.142 437.925 192.742 439.367C194.043 442.493 195.338 445.604 197.884 447.91C200.354 450.11 203.494 448.39 203.884 445.44C204.804 438.52 199.724 430.14 195.634 424.84Z" fill="#754C29"/>
<path d="M106.974 400.34C106.914 399.73 106.854 399.13 106.804 398.52C106.854 399.13 106.914 399.7 106.974 400.34Z" fill="#231F20"/>
<path d="M107.944 408.89C107.844 408.18 107.764 407.46 107.674 406.75C107.764 407.46 107.844 408.18 107.944 408.89Z" fill="#231F20"/>
<path d="M106.203 375.92C106.203 375.46 106.253 374.99 106.273 374.53C106.253 374.99 106.223 375.46 106.203 375.92Z" fill="#231F20"/>
<path d="M111.832 432.5C111.619 429.036 110.998 425.609 109.982 422.29C109.232 417.94 108.552 413.55 107.982 409.14C108.982 416.87 110.332 424.52 111.772 431.99C111.819 432.21 111.843 432.435 111.842 432.66L111.832 432.5Z" fill="#231F20"/>
<path d="M106.713 397.48C106.713 396.89 106.623 396.3 106.573 395.71C106.633 396.3 106.633 396.89 106.713 397.48Z" fill="#231F20"/>
<path d="M106.113 378.78C106.113 378.31 106.113 377.83 106.113 377.35C106.133 377.83 106.123 378.31 106.113 378.78Z" fill="#231F20"/>
<path d="M86.3538 421.6C85.5605 421.283 84.7491 421.012 83.9238 420.79C84.7491 421.012 85.5605 421.283 86.3538 421.6Z" fill="#231F20"/>
<path fill-rule="evenodd" clip-rule="evenodd" d="M414.633 227.79C434.2 249.969 447.858 276.724 454.343 305.58C455.543 310.89 449.633 313.92 445.613 310.6L438.613 304.8C445.063 317.48 448.963 331.27 447.963 345.15C447.924 345.644 447.803 346.127 447.603 346.58C448.011 350.386 448.185 354.213 448.123 358.04C448.103 359.56 448.023 361.06 447.913 362.56C447.813 366.78 447.403 371.19 445.813 375.02C444.628 379.599 443.073 384.074 441.163 388.4C439.793 391.53 434.863 391.03 433.403 388.3C433.363 389.06 433.343 389.82 433.343 390.58C432.783 403.3 429.823 416 425.703 428C418.703 448.61 407.353 475.5 386.703 485.86C384.013 487.21 380.083 484.95 381.233 481.66C381.566 480.713 381.889 479.76 382.214 478.806C382.796 477.09 383.381 475.369 384.023 473.66C382.712 474.222 381.334 474.612 379.923 474.82C381.453 488.56 382.773 502.36 382.633 516.11C382.443 532.04 378.633 546.77 365.933 557.2C354.003 566.9 339.343 573.76 324.933 578.76C294.743 589.29 261.803 590.98 230.253 587.07C199.933 583.32 167.683 575.84 142.253 558.13C130.043 549.63 119.523 538.68 112.823 525.3C109.302 518.322 106.488 511.009 104.423 503.47C99.4229 503.524 96.6792 500.743 93.1479 497.164C92.7668 496.778 92.3766 496.383 91.9733 495.98C89.1335 493.146 85.3285 491.812 81.5003 490.469C78.6017 489.452 75.6898 488.431 73.1733 486.75C62.3033 479.51 53.4733 467.1 51.7633 454.03C51.43 451.42 51.3864 448.78 51.6333 446.16C51.4533 446.026 51.2889 445.871 51.1433 445.7C35.0233 427.5 24.3933 403.2 15.7933 380.7C6.80117 357.066 1.58077 332.166 0.323296 306.91C0.0932963 302.55 5.6833 301.99 7.8533 304.91C10.9133 309.05 13.9933 313.26 16.9933 317.55C14.7503 308.656 13.0142 299.641 11.7933 290.55C9.50117 271.714 9.6356 252.662 12.1933 233.86C12.7033 229.94 17.1233 228.53 19.5133 231.86C21.6119 234.778 23.853 237.69 26.1125 240.627L26.1126 240.627L26.1128 240.627L26.113 240.627C28.1277 243.246 30.1572 245.883 32.1133 248.56C31.1433 243.04 30.2133 237.52 29.6033 231.94C28.2433 219.76 28.6833 207.31 29.6833 195.12C29.763 193.817 30.4571 192.629 31.5533 191.92C32.6833 188.88 37.4933 188.08 38.4933 192C39.9228 197.929 42.1924 203.623 45.2333 208.91C42.8444 185.858 44.0964 162.573 48.9433 139.91C49.7433 136.07 56.3433 135.81 56.9433 139.91C60.7833 166.14 73.0433 189.96 90.0433 209.83C77.6333 179.61 71.4733 147.15 73.6333 114.15C76.2933 73.4102 91.2333 35.3202 114.953 2.32021C117.193 -0.789791 122.943 -0.0597903 122.753 4.43021C121.323 39.5902 132.963 72.7002 146.883 104.52C146.064 89.8775 147.772 75.2031 151.933 61.1402C153.363 56.3102 160.493 57.3102 160.573 62.3102C160.802 76.4883 163.2 90.5478 167.683 104C170.044 68.46 180.328 33.8986 197.783 2.85021C200.063 -1.18979 207.213 0.40021 206.853 5.31021C203.563 49.8102 213.803 94.5002 240.803 129.74C239.533 110.622 244.659 91.6246 255.373 75.7402C257.883 72.0602 265.133 72.9302 264.633 78.2502C262.56 98.8546 267.947 119.519 279.813 136.49C290.596 110.186 312.043 89.6985 338.813 80.1302C343.243 78.5502 346.263 83.9002 344.473 87.4902C335.407 105.809 331.702 126.317 333.783 146.65C344.073 139.61 356.403 136.13 368.953 135.78C373.483 135.65 374.703 141.71 371.173 143.96C366.409 147.005 362.131 150.75 358.483 155.07C375.913 158.92 389.813 170.24 402.543 182.92C410.936 191.196 418.906 199.891 426.423 208.97C432.943 216.88 438.703 225.4 439.703 235.88C440.043 239.33 435.223 242.24 432.393 240.08C426.683 235.688 420.756 231.586 414.633 227.79ZM331.423 565.11C343.723 559.84 359.433 552.56 366.633 540.7C374.076 528.399 372.483 510.795 371.166 496.24C370.989 494.288 370.818 492.392 370.673 490.57C368.629 465.185 366.324 439.8 364.02 414.42C363.54 409.136 363.061 403.853 362.583 398.57L361.533 399.94C358.983 403.19 354.663 399.52 355.273 396.29C356.017 392.307 356.889 388.387 357.759 384.477L357.759 384.476L357.759 384.476C359.507 376.616 361.245 368.801 361.913 360.62C362.813 349.5 363.343 337.69 360.913 326.75C358.513 315.96 354.063 305.58 349.063 295.75C346.964 291.546 344.557 287.501 341.863 283.65C340.609 281.889 339.167 280.226 337.734 278.574L337.713 278.55C325.088 299.937 321.205 325.371 326.873 349.55C328.003 354.2 322.773 356.59 319.393 353.91C299.766 338.22 287.545 315.077 285.653 290.02C270.153 308.9 255.803 328.88 251.563 353.53C250.873 357.83 243.603 357.83 242.873 353.53C239.949 337.426 238.999 321.025 240.043 304.69C240.643 296.47 241.493 288.02 243.833 280.02C237.819 285.302 232.117 290.929 226.753 296.87C218.273 306.26 209.103 316.57 205.923 329.1C204.883 333.18 198.513 333.32 197.513 329.1C195.322 319.432 194.748 309.467 195.813 299.61C182.893 315.12 176.373 335.05 173.483 355.12C172.863 359.44 166.963 358.36 165.763 355.12C158.524 335.569 156.869 314.389 160.983 293.95C154.175 301.199 148.625 310.061 143.435 318.348C142.847 319.287 142.264 320.219 141.683 321.14C133.683 333.77 127.133 347.14 123.683 361.77C122.863 365.22 117.393 365.3 116.633 361.77C114.893 353.864 114.158 345.77 114.443 337.68C114.063 338.55 113.703 339.43 113.353 340.31C113.259 340.538 113.171 340.772 113.084 341.002C113.061 341.065 113.037 341.128 113.013 341.19L113.013 341.191C112.783 341.781 112.553 342.371 112.343 342.96C112.213 343.31 112.093 343.66 111.973 344.01C111.783 344.55 111.593 345.09 111.413 345.64L111.053 346.76L110.573 348.34C110.55 348.423 110.528 348.499 110.506 348.573C110.485 348.643 110.464 348.71 110.443 348.779C110.381 348.982 110.316 349.194 110.233 349.5C110.18 349.698 110.122 349.917 110.065 350.133C109.972 350.484 109.881 350.829 109.813 351.07C109.703 351.46 109.633 351.71 109.503 352.24C109.373 352.77 109.213 353.44 109.123 353.83C109.091 353.969 109.058 354.107 109.025 354.244L109.025 354.245C108.965 354.493 108.905 354.739 108.853 354.99C108.723 355.54 108.613 356.09 108.503 356.64L108.503 356.64L108.462 356.838C108.396 357.149 108.331 357.455 108.273 357.76C108.169 358.29 108.073 358.827 107.977 359.358L107.933 359.6C107.883 359.91 107.823 360.22 107.763 360.53C107.613 361.45 107.473 362.36 107.343 363.28L107.333 363.337C107.325 363.382 107.317 363.428 107.308 363.474C107.266 363.699 107.223 363.925 107.223 364.15C107.133 364.79 107.053 365.43 106.973 366.069L106.973 366.07C106.947 366.288 106.929 366.469 106.909 366.67C106.891 366.848 106.871 367.042 106.843 367.29C106.783 367.82 106.723 368.35 106.673 368.88L106.553 370.2L106.433 371.7L106.343 373.06L106.253 374.53C106.251 374.586 106.248 374.642 106.245 374.698C106.238 374.812 106.231 374.926 106.223 375.04C106.203 375.328 106.183 375.618 106.183 375.92V377.35V378.78V380.19V381.64V383.01V384.51V385.74C106.213 387.15 106.253 388.57 106.313 389.98V390.03C106.324 390.249 106.34 390.469 106.356 390.69L106.356 390.691L106.356 390.692C106.385 391.086 106.413 391.483 106.413 391.88C106.463 392.23 106.463 392.55 106.463 392.88L106.583 394.66C106.591 394.796 106.603 394.931 106.614 395.065L106.615 395.065C106.634 395.286 106.653 395.506 106.653 395.73C106.669 395.912 106.688 396.093 106.707 396.275C106.75 396.683 106.793 397.092 106.793 397.5L106.883 398.5C106.929 399.06 106.984 399.612 107.039 400.171L107.053 400.32L107.143 401.32C107.156 401.434 107.168 401.547 107.18 401.66C107.189 401.742 107.198 401.824 107.206 401.906L107.238 402.207C107.272 402.536 107.306 402.863 107.343 403.19L107.433 404.08C107.464 404.342 107.493 404.599 107.521 404.852L107.522 404.856L107.522 404.863C107.545 405.062 107.567 405.26 107.59 405.457C107.606 405.594 107.622 405.73 107.638 405.867C107.646 405.938 107.655 406.009 107.663 406.08L107.753 406.79C107.764 406.872 107.774 406.955 107.784 407.037C107.804 407.201 107.824 407.365 107.844 407.529C107.901 407.997 107.958 408.466 108.023 408.93V409.18C109.033 416.91 110.373 424.56 111.813 432.03C111.86 432.25 111.884 432.475 111.883 432.7V432.88C112.003 435.57 111.043 437.4 108.193 437.96C103.683 438.84 99.5433 436.28 96.1133 433.71C95.274 433.064 94.3035 432.449 93.3094 431.819L93.309 431.819C92.0408 431.015 90.7344 430.188 89.6133 429.24L89.2633 429.12C88.5833 428.89 87.9033 428.67 87.2033 428.48L86.7733 428.36L85.6533 428.1L85.1133 427.99C84.5433 427.87 83.9633 427.77 83.3933 427.69L82.5833 427.58L81.7033 427.49L80.4933 427.42H79.6033H78.4233H77.7733C77.2333 427.47 76.7133 427.52 76.1833 427.6L75.8633 427.66C75.3833 427.74 74.9133 427.84 74.4433 427.96L73.9533 428.09C73.4076 428.238 72.8702 428.415 72.3433 428.62H72.2433C71.7633 428.82 71.2433 429.05 70.7633 429.3L70.3633 429.51C69.8475 429.79 69.3468 430.098 68.8633 430.43C59.7633 436.83 58.3133 449.07 62.0433 458.91C65.7033 468.51 74.1833 477.95 83.9133 481.51C84.9694 481.897 86.0377 482.242 87.1041 482.587C89.895 483.488 92.6726 484.385 95.1833 486.02C96.367 486.793 97.487 488.063 98.6282 489.358C99.7912 490.678 100.976 492.022 102.273 492.89C101.519 487.877 101.354 482.792 101.783 477.74C101.824 476.451 102.789 475.38 104.067 475.207C105.345 475.034 106.561 475.809 106.943 477.04C108.39 481.368 109.423 485.796 110.457 490.226C111.368 494.127 112.279 498.03 113.473 501.87C116.044 510.329 119.744 518.401 124.473 525.87C133.373 539.75 146.273 549.96 160.873 557.35C186.423 570.3 216.473 576.28 244.873 578.11C274.153 580.01 304.273 576.75 331.423 565.11ZM380.364 466.367L380.364 466.367C379.939 466.767 379.515 467.166 379.093 467.57C378.503 462.42 377.923 457.29 377.403 452.16C376.483 442.95 375.453 433.75 374.403 424.56C379.463 423.91 383.333 426.01 386.633 430.92C389.577 435.417 391.042 440.72 390.823 446.09C390.63 451.173 388.955 456.088 386.003 460.23L386.023 460.26C384.373 462.595 382.369 464.481 380.364 466.367ZM406.193 278.13C401.493 273.34 408.433 266.74 413.433 270.89L413.413 270.86C422.147 278.087 430.883 285.307 439.623 292.52C429.323 262.32 410.953 235.7 386.803 214.52C383.333 211.47 386.993 205.28 391.333 206.73C403.523 210.81 414.033 217 424.523 223.65C422.063 219.852 419.333 216.236 416.353 212.83C409.967 205.224 403.3 197.89 396.353 190.83C384.023 178.28 369.083 163.84 350.513 162.76C347.303 162.58 344.793 159.09 346.683 156.09C348.799 152.728 351.241 149.583 353.973 146.7C346.3 148.906 339.031 152.33 332.443 156.84C331.693 157.358 330.755 157.523 329.873 157.29C327.393 157.96 324.693 157 324.193 153.7C321.137 133.753 323.314 113.353 330.513 94.5002C309.032 105.489 293.006 124.816 286.183 147.96C285.203 151.35 280.443 153.03 277.913 150.15C265.076 135.576 256.981 117.438 254.703 98.1502C249.003 112.98 248.301 129.265 252.703 144.53C254.093 149.25 248.013 152.55 244.593 149.25C212.073 117.79 197.483 71.6802 196.483 26.8902C182.475 57.9721 175.639 91.8077 176.483 125.89C176.603 130.42 169.913 132.38 167.783 128.25C161.998 117.01 157.718 105.058 155.053 92.7002C154.149 106.452 155.804 120.252 159.933 133.4C161.363 137.85 154.523 140.71 152.413 136.57C133.503 99.5202 115.443 60.0902 114.163 18.0902C74.1733 80.7702 71.3433 165.44 109.703 229.64C112.593 234.48 106.303 238.23 102.463 235.23C78.7933 216.53 62.9233 190.59 54.0033 162.23C51.9617 182.646 52.6342 203.242 56.0033 223.48C56.6533 227.47 52.0133 231.06 48.7533 227.7C44.0993 222.933 40.1949 217.488 37.1733 211.55C37.0933 217.55 37.1933 223.55 37.4233 229.55C37.8633 241.41 38.5633 253.63 42.1333 265.03C43.2633 268.55 38.6233 271.06 36.1333 268.55C29.4633 261.8 24.1333 253.44 18.9133 245.24C17.8647 259.166 17.9818 273.154 19.2633 287.06C20.9433 305.89 23.9833 324.17 31.4733 341.56C33.4533 346.14 27.3733 350.03 24.6133 345.56C23.1589 343.195 21.7205 340.828 20.2842 338.464C16.7828 332.701 13.2936 326.958 9.6133 321.32C11.6776 340.562 15.8974 359.511 22.1933 377.81C26.2713 389.448 31.3573 400.707 37.3933 411.46C40.9468 417.858 44.9879 423.891 49.0312 429.928C50.6316 432.317 52.2323 434.707 53.8033 437.12C56.1778 430.638 60.9845 425.337 67.2033 422.34C72.4411 419.869 78.3815 419.32 83.9833 420.79C84.8086 421.012 85.62 421.282 86.4133 421.6L87.1733 421.95C87.3375 422.029 87.5106 422.107 87.6867 422.187C88.004 422.331 88.331 422.479 88.6333 422.64C88.7751 422.718 88.8763 422.782 88.9918 422.855C89.1124 422.931 89.2487 423.018 89.4633 423.14C89.8833 423.38 90.4133 423.71 90.6933 423.89C90.9085 424.029 91.0469 424.131 91.272 424.299C91.3398 424.349 91.4154 424.405 91.5033 424.47C91.8833 424.75 92.3633 425.11 92.6233 425.31C92.8833 425.51 93.0333 425.63 93.3933 425.94C93.4796 426.015 93.5665 426.089 93.6536 426.163C93.9296 426.399 94.2072 426.637 94.4733 426.88L95.1733 427.52L96.3133 428.59L96.8833 429.16C97.6774 429.934 98.4616 430.728 99.2653 431.542L99.2833 431.56C100.388 432.344 101.596 432.97 102.873 433.42C103.743 433.78 104.684 433.934 105.623 433.87L105.563 433.72C95.1233 395.39 93.7633 352.78 117.283 318.88C118.178 317.452 119.977 316.882 121.531 317.535C123.085 318.188 123.937 319.871 123.543 321.51C121.912 328.842 121.239 336.355 121.543 343.86C125.398 334.279 130.178 325.095 135.813 316.44C136.077 316.026 136.342 315.611 136.607 315.195C144.645 302.583 153.355 288.916 165.233 279.69C168.093 277.47 173.223 279.37 171.903 283.58C166.492 300.719 165.46 318.94 168.903 336.58C173.823 316.31 182.723 296.9 199.453 283.65C202.633 281.13 207.983 283.34 206.713 287.88C204.509 295.721 203.568 303.863 203.923 312C208.193 304.92 213.753 298.43 219.193 292.43C228.99 281.684 240.012 272.122 252.033 263.94C255.783 261.35 258.823 266.71 256.483 269.71C249.223 278.902 248.913 293.113 248.658 304.823C248.632 306.031 248.606 307.213 248.573 308.36C248.36 315.694 248.507 323.007 249.013 330.3C257.633 309.7 272.403 291.75 286.733 274.93C289.263 272.05 294.403 274.39 294.263 278.05C293.476 300.162 301.24 321.726 315.943 338.26C313.374 314.424 318.711 290.405 331.133 269.9C333.643 265.78 339.143 267.58 340.373 271.01C347.373 275.31 352.663 283.86 356.373 290.31C362.443 300.79 367.763 312.31 370.443 324.13C373.313 336.82 372.753 350.15 371.313 362.99C370.753 367.97 370.103 373.13 369.103 378.23C372.466 372.678 375.33 366.838 377.663 360.78C379.958 354.675 381.81 348.412 383.203 342.04C383.549 340.509 383.825 338.957 384.101 337.405C384.823 333.341 385.545 329.279 387.513 325.61C388.543 323.69 391.343 324.29 391.953 326.19C392.343 327.453 392.618 328.748 392.773 330.06C392.832 330.143 392.886 330.23 392.933 330.32C398.413 342.56 399.493 356.79 398.933 370.06C398.612 376.945 397.705 383.789 396.223 390.52L396.148 390.867C394.822 396.991 393.447 403.345 388.873 407.85C387.96 408.713 386.626 408.96 385.465 408.481C384.304 408.002 383.532 406.886 383.493 405.63C383.14 401.242 384.392 397.05 385.643 392.862C386.127 391.238 386.612 389.614 387.003 387.98C389.988 375.583 390.947 362.784 389.843 350.08C388.073 355.32 385.873 360.34 384.013 364.57C380.234 372.951 375.606 380.922 370.203 388.36C370.691 392.732 371.201 397.095 371.711 401.462C372.246 406.044 372.781 410.632 373.293 415.24C385.673 411.94 397.603 428.98 399.373 440.08C400.743 448.66 397.823 460.91 391.163 468.4C391.12 470.272 390.959 472.139 390.683 473.99C396.313 468.79 400.263 462.09 403.933 455.04C409.204 444.897 413.403 434.233 416.463 423.22C419.603 411.95 422.203 400.14 422.403 388.41C422.426 382.632 421.991 376.86 421.103 371.15C420.94 370.038 420.736 368.91 420.531 367.774C419.743 363.415 418.933 358.935 420.313 354.77C421.123 352.32 424.633 350.83 426.563 353.12C428.377 355.372 429.677 357.993 430.373 360.8C433.158 363.865 435.434 367.355 437.113 371.14C436.48 367.488 436.36 363.796 436.24 360.09C436.109 356.075 435.979 352.045 435.193 348.03C433.486 340.022 431.309 332.122 428.673 324.37C427.928 322.033 427.234 319.655 426.537 317.269C424.848 311.486 423.144 305.653 420.673 300.23C419.041 296.643 416.95 293.314 414.861 289.987C413.391 287.647 411.922 285.308 410.613 282.88C409.193 281.27 407.713 279.68 406.193 278.13Z" fill="#231F20"/>
<path d="M106.503 394.64L106.383 392.86L106.503 394.64Z" fill="#231F20"/>
<path d="M106.084 384.51C106.084 384.01 106.084 383.51 106.084 383.01C106.074 383.51 106.074 384.01 106.084 384.51Z" fill="#231F20"/>
<path d="M106.333 391.88C106.333 391.26 106.263 390.64 106.233 390.03C106.263 390.64 106.303 391.26 106.333 391.88Z" fill="#231F20"/>
<path d="M107.264 403.19C107.194 402.57 107.134 401.95 107.064 401.32C107.134 401.95 107.194 402.57 107.264 403.19Z" fill="#231F20"/>
<path d="M106.233 389.98C106.173 388.57 106.133 387.15 106.103 385.74C106.133 387.15 106.173 388.57 106.233 389.98Z" fill="#231F20"/>
<path d="M107.633 406.04C107.553 405.38 107.483 404.73 107.403 404.04C107.433 404.7 107.503 405.38 107.633 406.04Z" fill="#231F20"/>
<path d="M106.074 381.64C106.074 381.16 106.074 380.64 106.074 380.19C106.084 380.7 106.074 381.16 106.074 381.64Z" fill="#231F20"/>
<path d="M85.6328 427.99L86.7528 428.25L85.6328 427.99Z" fill="#231F20"/>
<path d="M113.033 341.19C113.143 340.9 113.253 340.6 113.373 340.31C113.253 340.6 113.143 340.9 113.033 341.19Z" fill="#231F20"/>
<path d="M70.3137 429.49L70.7137 429.28L70.3137 429.49Z" fill="#231F20"/>
<path d="M96.2533 428.59L95.1133 427.52L96.2533 428.59Z" fill="#231F20"/>
<path d="M111.993 344.01C112.113 343.66 112.233 343.31 112.363 342.96C112.233 343.31 112.113 343.7 111.993 344.01Z" fill="#231F20"/>
<path d="M111.074 346.76L111.434 345.64L111.074 346.76Z" fill="#231F20"/>
<path d="M81.6342 427.38L82.5142 427.47L81.6342 427.38Z" fill="#231F20"/>
<path d="M73.9034 428.03L74.3934 427.9L73.9034 428.03Z" fill="#231F20"/>
<path d="M75.8127 427.6L76.1327 427.54L75.8127 427.6Z" fill="#231F20"/>
<path d="M83.3438 427.58C83.9137 427.66 84.4938 427.76 85.0638 427.88C84.4938 427.76 83.9137 427.7 83.3438 427.58Z" fill="#231F20"/>
<path d="M107.784 360.53C107.844 360.22 107.904 359.91 107.954 359.6C107.904 359.91 107.844 360.22 107.784 360.53Z" fill="#231F20"/>
<path d="M107.243 364.15C107.243 363.86 107.313 363.57 107.363 363.28C107.313 363.57 107.283 363.86 107.243 364.15Z" fill="#231F20"/>
<path d="M106.863 367.29C106.863 366.88 106.943 366.48 106.993 366.07C106.943 366.48 106.903 366.88 106.863 367.29Z" fill="#231F20"/>
<path d="M106.363 373.06L106.453 371.7L106.363 373.06Z" fill="#231F20"/>
<path d="M90.6323 423.89C90.2423 423.62 89.8223 423.38 89.4023 423.14C89.8223 423.38 90.2423 423.62 90.6323 423.89Z" fill="#231F20"/>
<path d="M110.254 349.5C110.364 349.11 110.484 348.73 110.594 348.34C110.484 348.7 110.364 349.11 110.254 349.5Z" fill="#231F20"/>
<path d="M106.573 370.2L106.693 368.88L106.573 370.2Z" fill="#231F20"/>
<path d="M88.5733 422.64C88.1033 422.39 87.5733 422.17 87.1133 421.95C87.6333 422.17 88.1033 422.39 88.5733 422.64Z" fill="#231F20"/>
<path d="M94.414 426.88C94.064 426.56 93.694 426.25 93.334 425.94C93.694 426.25 94.064 426.56 94.414 426.88Z" fill="#231F20"/>
<path d="M108.293 357.76C108.363 357.39 108.443 357.02 108.523 356.64C108.443 357.02 108.363 357.39 108.293 357.76Z" fill="#231F20"/>
<path d="M109.523 352.24C109.623 351.85 109.723 351.46 109.833 351.07C109.723 351.46 109.633 351.85 109.523 352.24Z" fill="#231F20"/>
<path d="M108.873 354.99C108.953 354.6 109.053 354.22 109.143 353.83C109.053 354.22 108.953 354.6 108.873 354.99Z" fill="#231F20"/>
<path d="M92.5634 425.31C92.2034 425.02 91.8234 424.74 91.4434 424.47C91.8234 424.75 92.2034 425.02 92.5634 425.31Z" fill="#231F20"/>
<path d="M76.8737 457.61C75.3437 454.12 75.2037 449.02 77.0337 445.61C79.5737 440.91 85.1737 440.75 90.0337 440.61C91.4137 440.61 92.4237 438.69 91.2437 437.69C79.0837 427.39 66.0537 437.87 66.0137 451.98C66.0137 464.23 77.3237 476.82 90.1737 475.08C92.7437 474.73 92.8437 471.42 91.5537 469.86C87.3737 464.83 79.7137 464.14 76.8737 457.61Z" fill="#231F20"/>
</svg>
