<svg width="455" height="548" viewBox="0 0 455 548" fill="none" xmlns="http://www.w3.org/2000/svg">
<path d="M113.633 121.58C144.223 126.23 170.263 142.96 191.353 164.92C188.653 147.92 187.353 130.84 188.443 114.24C172.143 106.56 157.503 98.4398 139.053 96.6398C119.413 94.7198 99.9726 98.9498 82.0526 106.94C66.1726 114.03 49.6426 124.08 38.1426 137.77C59.8226 123.33 87.7026 117.63 113.633 121.58Z" fill="#BE1E2D"/>
<path d="M245.884 46.4797C190.344 87.2597 211.184 163.01 228.204 217.48C232.524 231.27 212.124 236.84 205.524 225.7C177.254 178.01 128.194 128.23 67.4041 148.58C0.864117 170.85 21.9241 247.26 46.8741 293.84C78.7541 353.34 129.874 397.09 184.164 435.5C230.944 468.58 280.714 503.86 333.714 526.6C362.504 525.17 365.164 471.6 368.104 451.3C373.071 416.9 376.854 382.36 379.454 347.68C384.584 279.18 388.674 207.56 370.984 140.47C358.044 91.3497 309.404 -0.170265 245.884 46.4797Z" fill="#E27683"/>
<path d="M368.783 57.3098C361.262 49.8937 352.867 43.4196 343.783 38.0298C347.954 41.8224 351.848 45.9095 355.433 50.2598C396.433 100.06 407.173 169.5 409.093 232C411.313 304.29 404.443 377.52 394.023 449C392.293 460.84 391.133 474.37 388.753 487.64C397.363 476.84 405.753 465.34 415.753 456.3C413.473 435.59 416.543 414.22 418.413 393.62C420.613 369.38 422.8 345.14 424.973 320.9C429.133 273.9 432.913 226.13 425.673 179.24C418.793 134.6 401.633 89.4098 368.783 57.3098Z" fill="#BE1E2D"/>
<path fill-rule="evenodd" clip-rule="evenodd" d="M268.403 7.78972C310.463 -8.88028 337.713 6.04972 362.633 22.3097C402.413 48.2697 428.193 91.5897 441.483 136.28C457.003 188.51 455.583 244.07 451.363 297.82C449.776 318.036 447.889 338.233 446.003 358.431L446.001 358.447C445.215 366.867 444.428 375.287 443.663 383.71C442.884 392.294 442.294 399.985 441.715 407.546L441.714 407.548L441.714 407.55V407.55C440.702 420.75 439.72 433.554 437.813 450.02C437.043 456.88 436.053 460.28 434.813 463.09L367.253 535.9C352.563 550.04 337.043 551.3 315.643 538.4C315.601 538.371 315.578 538.307 315.551 538.273C315.54 538.259 315.528 538.25 315.513 538.25C308.639 534.957 301.998 531.967 295.504 529.042L295.498 529.04L295.497 529.04L295.497 529.039C281.087 522.551 267.402 516.389 253.513 507.98C223.813 490 194.413 471.3 166.133 451.14C117.693 416.59 72.7533 374.72 40.4133 324.45C14.9033 284.8 -11.5067 227.7 5.27326 179.7C17.1833 140.54 48.9533 103.19 84.3133 88.3997C117.723 74.4397 161.133 67.9697 191.643 92.1597C196.223 71.8697 205.553 52.8297 222.113 36.3397C235.403 23.0697 249.323 16.4497 268.403 7.78972ZM139.113 96.6397C119.433 94.7197 99.9933 98.9397 82.1133 106.94C66.2333 114.03 49.7033 124.08 38.2433 137.77C59.8633 123.33 87.6933 117.63 113.693 121.58C144.283 126.23 170.323 142.92 191.413 164.92C188.713 147.94 187.373 130.84 188.503 114.24C186.354 113.227 184.233 112.206 182.128 111.194L182.128 111.193C168.275 104.528 155.13 98.2023 139.113 96.6397ZM379.453 347.63C376.867 382.296 373.083 416.836 368.103 451.25C367.76 453.618 367.421 456.44 367.043 459.58L367.043 459.582C364.186 483.341 359.142 525.287 333.713 526.55C280.872 503.878 231.241 468.76 184.583 435.746L184.163 435.45C129.843 397.04 78.7533 353.29 46.8733 293.79C21.9233 247.21 0.873265 170.79 67.4033 148.53C128.193 128.18 177.253 177.96 205.523 225.65C212.123 236.79 232.523 231.22 228.203 217.43C211.203 163.01 190.343 87.2597 245.883 46.4297C309.403 -0.220286 358.043 91.2997 370.983 140.37C388.633 207.51 384.633 279.13 379.453 347.63ZM418.433 393.62C420.667 369.393 422.853 345.153 424.993 320.9C429.153 273.91 432.933 226.13 425.693 179.24C418.783 134.6 401.603 89.4097 368.783 57.3097C361.262 49.8937 352.867 43.4195 343.783 38.0297C347.961 41.8216 351.861 45.9088 355.453 50.2597C396.473 100.06 407.193 169.5 409.113 232C411.333 304.29 404.463 377.52 394.043 449C393.382 453.527 392.804 458.3 392.209 463.212C391.248 471.148 390.243 479.443 388.773 487.64C390.277 485.749 391.775 483.836 393.277 481.917C400.356 472.877 407.524 463.724 415.773 456.3C413.892 439.239 415.652 421.689 417.376 404.502C417.742 400.856 418.106 397.225 418.433 393.62Z" fill="#231F20"/>
</svg>
