<svg width="427" height="576" viewBox="0 0 427 576" fill="none" xmlns="http://www.w3.org/2000/svg">
<path d="M326.422 390.076C329.422 389.076 332.732 388.436 335.572 387.566L346.342 384.246C346.792 384.106 347.342 383.976 347.852 383.836C341.202 381.786 334.532 379.126 328.912 375.276C328.079 380.216 327.249 385.15 326.422 390.076Z" fill="#009444"/>
<path d="M305.021 484.346C309.721 483.196 314.641 482.456 319.491 481.736C317.821 480.606 316.151 479.486 314.441 478.396C312.351 477.066 310.021 475.836 307.851 474.396C306.898 477.73 305.955 481.046 305.021 484.346Z" fill="#009444"/>
<path d="M304.421 23.4262C296.999 29.3217 289.946 35.667 283.301 42.4262C287.484 45.2241 291.492 48.2766 295.301 51.5662C298.421 42.1762 301.421 32.7962 304.421 23.4262Z" fill="#009444"/>
<path d="M246.242 139.386C248.242 138.546 248.372 135.096 246.942 133.746C246.365 133.249 245.609 133.011 244.852 133.086C244.339 133.673 243.979 134.377 243.802 135.136C243.422 136.726 243.672 140.476 246.242 139.386Z" fill="white"/>
<path d="M177.061 34.2762C180.691 32.2162 184.401 30.2762 188.191 28.5762C185.951 26.0262 184.041 22.8862 181.901 20.5762L176.371 14.5762C176.531 17.4862 176.671 20.3862 176.771 23.2962C176.881 26.9162 177.131 30.6162 177.061 34.2762Z" fill="#009444"/>
<path fill-rule="evenodd" clip-rule="evenodd" d="M18.1108 268.956C25.6266 286.893 37.22 302.832 51.9708 315.506C59.0172 321.575 66.6905 326.875 74.8608 331.316C78.8947 333.52 83.1775 335.187 87.4467 336.849C90.9245 338.202 94.3932 339.552 97.7108 341.186C98.8254 340.954 99.9863 341.199 100.912 341.862C101.837 342.526 102.443 343.546 102.581 344.676C103.247 350.943 103.914 357.216 104.581 363.496C104.648 364.123 104.734 364.762 104.821 365.409C105.287 368.894 105.782 372.586 103.581 375.496C101.576 378.147 98.0655 379.552 94.8232 380.85L94.8227 380.85C93.8448 381.241 92.8913 381.623 92.0108 382.026L86.8408 384.396L90.8408 385.036C91.9363 385.212 93.0627 385.357 94.2007 385.504L94.2016 385.504L94.2028 385.504L94.2041 385.504C97.7291 385.959 101.364 386.428 104.531 387.856C111.011 390.773 112.675 397.713 114.201 404.074C114.354 404.712 114.506 405.344 114.661 405.966C119.531 425.506 124.761 444.906 130.661 464.176C136.561 483.446 143.161 502.386 150.231 521.176C153.637 530.27 157.207 539.3 160.941 548.266C161.257 549.03 161.589 549.868 161.94 550.755L161.942 550.759C164.919 558.281 169.305 569.365 177.891 569.266C176.891 553.366 174.601 537.606 172.151 521.866C171.631 520.983 171.47 519.934 171.701 518.936C171.631 518.546 171.571 518.156 171.511 517.756C171.071 514.936 174.511 513.446 176.051 515.246C176.33 515.244 176.608 515.271 176.881 515.326C201.081 520.066 232.081 525.826 252.071 506.916C255.071 504.066 259.021 507.026 258.501 510.656C256.672 523.087 256.079 535.668 256.731 548.216C256.775 549.016 256.789 549.939 256.804 550.932C256.868 555.133 256.95 560.598 259.401 563.356C263.261 567.706 267.941 559.486 269.401 556.546C278.621 538.256 285.561 518.476 291.891 499.036C298.111 479.916 303.341 460.476 307.891 440.886C312.491 420.886 316.351 400.766 319.741 380.556C320.977 373.188 321.976 365.762 322.975 358.34L322.975 358.339L322.975 358.339L322.975 358.338L322.975 358.338L322.975 358.337L322.975 358.337L322.975 358.336L322.975 358.336L322.976 358.335L322.976 358.335L322.976 358.334L322.976 358.333L322.976 358.333L322.976 358.332L322.976 358.332L322.976 358.331L322.976 358.331L322.976 358.33L322.976 358.33L322.977 358.329L322.977 358.328L322.977 358.328L322.977 358.327L322.977 358.327L322.977 358.326L322.977 358.326L322.977 358.325C324.717 345.394 326.455 332.476 329.441 319.906C329.792 318.39 331.199 317.357 332.751 317.476C356.85 311.612 378.37 298.029 394.031 278.796C408.92 260.158 417.421 237.226 418.281 213.386C418.681 201.786 417.011 188.706 407.741 180.626C403.511 176.936 395.741 173.366 390.741 177.756C386.351 181.606 386.591 188.366 387.531 193.556C387.976 196.053 388.564 198.511 389.15 200.966C389.988 204.469 390.823 207.964 391.241 211.556C391.838 216.95 391.898 222.39 391.421 227.796C390.58 238.945 387.277 249.768 381.751 259.486C371.365 277.18 353.518 289.213 333.221 292.206C331.441 292.466 329.221 291.456 329.361 289.266C330.881 270.376 332.041 251.446 333.051 232.526C333.284 228.181 333.473 223.826 333.662 219.469L333.662 219.467L333.662 219.465L333.662 219.463L333.662 219.46L333.663 219.458L333.663 219.456L333.663 219.454L333.663 219.452L333.663 219.449L333.663 219.447L333.663 219.445L333.663 219.443L333.663 219.441L333.663 219.438L333.663 219.436L333.664 219.434L333.664 219.432L333.664 219.43L333.664 219.427L333.664 219.425L333.664 219.423L333.664 219.421L333.664 219.419L333.664 219.416L333.664 219.414L333.664 219.412L333.665 219.409C334.197 207.142 334.73 194.854 336.241 182.686C332.944 184.278 330.015 186.539 327.641 189.326C326.201 191.116 322.591 189.686 322.901 187.326C323.712 181.155 328.882 178.595 333.949 176.086C334.506 175.811 335.062 175.535 335.611 175.256C341.151 172.436 346.281 169.436 351.451 166.256C347.638 165.744 343.674 165.867 339.705 165.99C333.128 166.194 326.538 166.398 320.601 163.716C320.145 163.449 319.865 162.96 319.865 162.431C319.865 161.903 320.145 161.414 320.601 161.146C323.982 159.804 327.574 159.069 331.211 158.976C329.485 153.75 328.37 148.265 327.257 142.784C326.35 138.325 325.445 133.868 324.211 129.556C323.948 128.742 324.005 127.859 324.371 127.086C323.628 125.513 323.921 123.646 325.111 122.376C330.501 116.296 336.111 110.376 341.941 104.776C335.893 106.089 329.961 107.885 324.201 110.146C322.201 110.946 319.621 109.266 319.141 107.276C315.366 90.7666 307.166 75.597 295.421 63.3962C284.761 52.4562 271.321 44.4862 257.791 37.6062C242.951 30.0562 227.251 25.6662 210.631 29.2262C194.791 32.6262 180.431 40.7362 167.121 49.7062C153.816 58.5623 141.389 68.6718 130.011 79.8962C128.643 81.2326 126.459 81.2326 125.091 79.8962C118.422 72.2754 111.22 65.1375 103.541 58.5362C104.602 61.4985 105.684 64.4576 106.767 67.4177L106.767 67.418C109.962 76.1491 113.16 84.8891 115.811 93.7462C116.647 93.984 117.282 94.6655 117.461 95.5162C117.947 98.7125 116.878 101.037 115.629 103.753C115.413 104.223 115.191 104.706 114.971 105.206L109.491 117.646C108.639 119.584 107.783 121.519 106.927 123.454C104.298 129.399 101.671 135.341 99.1508 141.346C95.9464 148.889 93.1359 156.592 90.7308 164.426C89.4691 168.62 88.4244 172.875 87.6008 177.176C87.3831 178.342 87.2224 179.516 87.062 180.687C86.6846 183.442 86.3097 186.181 85.2008 188.756C84.4508 190.496 82.1108 190.276 81.0108 189.056C79.1583 188.966 77.31 188.869 75.4642 188.772C70.9732 188.536 66.497 188.301 62.0108 188.166C64.2808 189.386 66.5308 190.626 68.7508 191.926C69.2292 192.202 69.714 192.478 70.2023 192.755C73.2563 194.492 76.4471 196.307 79.0508 198.686C80.6908 198.206 82.5208 198.746 82.8908 200.876C83.4921 204.332 83.175 207.871 82.8595 211.392L82.8594 211.393C82.7394 212.732 82.6197 214.068 82.5508 215.396C82.3042 219.956 82.1575 224.516 82.1108 229.076C82.0108 238.836 82.3308 248.626 83.1108 258.356C83.9208 268.416 85.2008 278.466 86.9408 288.406C87.473 291.459 88.1452 294.507 88.8184 297.559L88.8185 297.56C90.1565 303.626 91.498 309.709 91.7508 315.876C91.7354 316.568 91.2659 317.167 90.5977 317.348C89.9295 317.528 89.2223 317.246 88.8608 316.656C85.0908 310.176 83.1108 302.656 81.4808 295.256C62.1308 292.086 48.2508 275.886 39.6208 259.256C36.4529 253.173 33.7697 246.857 31.0876 240.543C29.8413 237.609 28.5952 234.675 27.3008 231.766C25.2008 227.056 22.9908 222.386 20.4408 217.896C19.2904 215.589 17.8886 213.416 16.2608 211.416C13.7208 208.656 11.5908 210.286 10.3308 213.106C6.63515 221.453 8.53043 232.263 10.0642 241.01L10.1808 241.676C11.8028 251.036 14.4626 260.186 18.1108 268.956ZM106.332 277.949L106.332 277.949C106.674 279.62 107.019 281.306 106.881 282.936C106.869 283.4 106.555 283.8 106.108 283.922C105.661 284.045 105.187 283.859 104.941 283.466C101.941 279.346 102.371 271.776 102.701 266.956C102.714 266.424 103.005 265.937 103.467 265.674C103.929 265.41 104.496 265.407 104.961 265.666C106.227 266.419 107.568 267.102 108.914 267.787C111.556 269.132 114.222 270.489 116.401 272.416C117.081 273.026 116.401 274.076 115.541 273.886C112.739 273.194 110.105 271.762 107.505 270.349L107.505 270.348L107.503 270.348L107.502 270.347L107.501 270.346L107.5 270.346L107.498 270.345L107.497 270.345L107.496 270.344L107.495 270.343L107.486 270.339L107.48 270.335C106.859 269.998 106.24 269.661 105.621 269.336C105.571 271.235 105.641 273.136 105.831 275.026C105.931 275.986 106.131 276.965 106.332 277.949ZM111.05 315.751C111.05 316.867 111.635 317.901 112.591 318.476C115.32 319.966 118.127 321.308 121.001 322.496C121.334 322.636 121.674 322.784 122.02 322.934C124.399 323.969 127.033 325.116 129.531 324.356C130.379 324.1 131.033 323.423 131.26 322.566C131.486 321.71 131.252 320.798 130.641 320.156C129.426 318.631 127.413 317.973 125.497 317.346C124.874 317.142 124.262 316.942 123.691 316.716C122.931 316.416 122.181 316.096 121.441 315.776C123.851 314.796 126.311 313.936 128.721 313.186C129.645 312.862 130.214 311.932 130.081 310.961C129.947 309.991 129.149 309.249 128.171 309.186C122.491 308.836 117.591 310.296 112.591 313.026C111.635 313.601 111.05 314.635 111.05 315.751ZM121.281 369.476C122.324 368.75 123.361 368.008 124.398 367.267L124.398 367.267C126.672 365.641 128.946 364.016 131.281 362.546C133.151 361.386 135.121 360.496 136.991 361.986C137.541 362.426 136.991 363.206 136.471 363.246C134.343 363.403 132.577 364.764 130.879 366.073L130.879 366.073C130.406 366.437 129.939 366.797 129.471 367.126L125.151 370.196L125.244 370.224C128.086 371.065 131.086 371.954 133.371 373.556C134.141 374.086 133.941 375.556 132.851 375.456C129.998 375.313 127.055 374.173 124.257 373.089C123.347 372.737 122.452 372.39 121.581 372.086C121.052 371.905 120.675 371.436 120.611 370.881C120.547 370.326 120.807 369.783 121.281 369.486V369.476ZM136.189 428.71C139.515 429.301 143.053 429.931 145.281 426.986L145.261 426.996C145.802 426.105 145.679 424.962 144.961 424.206C143.603 422.603 141.567 422.455 139.546 422.308C138.769 422.251 137.994 422.195 137.261 422.056C135.508 421.713 133.798 421.18 132.161 420.466C133.473 419.144 134.869 417.908 136.341 416.766C136.746 416.452 137.175 416.152 137.605 415.852L137.605 415.852C139.391 414.603 141.188 413.347 141.341 411.026C141.334 410.332 140.951 409.697 140.341 409.366C137.601 407.766 134.331 410.066 132.061 411.686C129.124 413.792 126.466 416.262 124.151 419.036C123.413 419.799 123.063 420.857 123.199 421.91C123.335 422.962 123.943 423.896 124.851 424.446C128.284 426.512 132.061 427.945 136.001 428.676L136.189 428.71ZM148.821 378.706C146.274 362.106 144.141 345.44 142.421 328.706C140.674 311.666 139.381 294.59 138.541 277.476C138.134 268.756 137.841 260.033 137.661 251.306C137.649 250.714 137.636 250.123 137.623 249.531L137.622 249.514L137.622 249.497L137.622 249.48L137.621 249.462C137.451 241.763 137.283 234.105 139.061 226.566C139.333 225.656 140.17 225.032 141.121 225.032C142.071 225.032 142.909 225.656 143.181 226.566C144.791 233.4 144.91 240.311 145.03 247.275L145.031 247.277L145.031 247.278L145.031 247.279L145.031 247.281L145.031 247.282L145.031 247.284L145.031 247.285V247.286C145.054 248.624 145.077 249.964 145.111 251.306C145.321 259.636 145.661 268.086 146.111 276.476C146.984 293.25 148.247 309.993 149.901 326.706C151.661 344.04 153.887 361.346 156.581 378.626C157.794 386.451 159.14 394.189 160.49 401.944L160.49 401.946L160.581 402.466C160.937 404.512 161.381 406.62 161.831 408.759C163.126 414.909 164.475 421.313 163.941 427.226C163.741 429.516 160.591 430.806 159.331 428.476C156.223 422.782 155.022 415.652 153.901 409.002L153.901 408.999L153.9 408.995C153.643 407.473 153.391 405.975 153.121 404.526C151.531 395.976 150.131 387.346 148.801 378.716L148.821 378.706ZM167.187 491.457C173.07 491.891 179.574 492.372 184.421 490.096C186.181 489.276 186.051 486.536 184.461 485.676C179.941 483.256 173.571 483.366 167.791 483.516C168.362 482.223 168.94 480.928 169.52 479.63L169.523 479.623L169.523 479.622C170.972 476.378 172.427 473.12 173.791 469.836C174.129 469.024 174.474 468.211 174.82 467.395C177.176 461.837 179.58 456.165 180.191 450.166C180.132 449.414 179.656 448.759 178.959 448.472C178.262 448.184 177.462 448.314 176.891 448.806C173.42 453.039 171.171 458.04 168.921 463.042C168.455 464.079 167.988 465.116 167.511 466.146C166.094 469.183 164.691 472.228 163.288 475.272L163.287 475.274L163.287 475.275L163.286 475.276L163.286 475.277L163.285 475.278L163.285 475.279L163.284 475.28L163.284 475.281L163.283 475.282L163.283 475.283L163.282 475.285L163.282 475.286L163.281 475.287L163.281 475.288L163.28 475.289L163.28 475.29L163.279 475.291L163.279 475.292L163.278 475.293L163.278 475.294L163.277 475.296L163.277 475.297C161.713 478.69 160.15 482.082 158.571 485.456C157.351 488.036 158.831 491.086 161.831 491.146C163.504 491.185 165.314 491.319 167.187 491.457ZM196.021 291.966C188.415 291.247 180.926 289.598 173.721 287.056C174.405 287.774 175.156 288.451 175.837 289.064L175.838 289.065C176.361 289.536 176.843 289.97 177.221 290.356L183.591 296.756C184.63 297.803 185.726 298.84 186.832 299.888C190.093 302.974 193.446 306.148 195.701 309.896C197.311 312.566 194.071 315.896 191.371 314.216C186.467 311.152 182.23 306.415 178.161 301.866L178.161 301.866L178.161 301.865L178.16 301.865L178.16 301.864C176.611 300.133 175.088 298.43 173.561 296.856C173.083 296.365 172.595 295.876 172.107 295.387L172.106 295.385L172.104 295.384L172.103 295.382L172.101 295.38L172.099 295.379L172.098 295.377C167.923 291.191 163.706 286.963 164.941 280.566C165.446 278.762 167.313 277.704 169.121 278.196C173.738 280.135 178.434 281.89 183.132 283.646C187.592 285.313 192.053 286.98 196.451 288.806C198.011 289.436 198.031 292.126 196.051 291.966H196.021ZM228.341 495.232C229.392 492.893 230.481 490.471 230.961 487.966L230.991 487.986C231.139 487.652 231.098 487.264 230.883 486.969C230.668 486.674 230.311 486.515 229.948 486.554C229.584 486.593 229.269 486.822 229.121 487.156C227.958 489.029 227.005 491.024 226.281 493.106C224.061 488.726 221.901 484.286 220.131 479.726C219.791 478.856 218.391 479.206 218.701 480.116C220.574 485.858 222.784 491.485 225.321 496.966C225.557 497.362 225.984 497.605 226.446 497.605C226.907 497.605 227.334 497.362 227.571 496.966C227.818 496.393 228.078 495.815 228.341 495.232ZM230.671 407.046C229.666 407.191 228.605 407.355 227.503 407.526C219.912 408.704 210.375 410.183 203.721 407.476C201.431 406.546 201.131 403.326 203.721 402.476C206.405 401.63 209.217 401.63 212.028 401.63C213.071 401.63 214.114 401.629 215.151 401.586C216.911 401.516 218.671 401.396 220.421 401.246C212.296 395.397 204.823 388.692 198.131 381.246C196.751 379.666 198.581 376.846 200.501 378.176C205.306 381.536 210.009 385.031 214.71 388.525C220.252 392.643 225.793 396.761 231.501 400.656C233.731 402.166 233.961 406.596 230.701 407.066L230.671 407.046ZM223.011 313.916C220.941 313.676 220.661 316.876 222.531 317.436L222.561 317.456C227.991 319.076 233.421 320.796 238.801 322.526C236.656 323.774 234.428 324.856 232.209 325.933C228.541 327.714 224.896 329.484 221.681 331.976C221.258 332.401 221.091 333.018 221.243 333.598C221.395 334.178 221.844 334.634 222.421 334.796C231.911 336.676 241.421 329.796 248.211 323.636C250.031 322.016 249.031 318.896 246.801 318.296C238.993 316.234 231.04 314.77 223.011 313.916ZM231.091 355.946C231.699 355.966 232.24 356.34 232.473 356.903C232.706 357.465 232.588 358.112 232.171 358.556C229.171 361.616 224.861 365.606 220.311 365.666C219.98 365.655 219.686 365.451 219.56 365.144C219.435 364.837 219.502 364.486 219.731 364.246C221.211 362.67 223.069 361.455 224.932 360.237C225.586 359.809 226.241 359.381 226.881 358.936C222.888 359.214 218.942 359.955 215.121 361.146C214.68 361.248 214.229 361.018 214.054 360.6C213.878 360.183 214.029 359.7 214.411 359.456C219.421 356.346 225.421 355.526 231.121 355.966L231.091 355.946ZM202.591 245.646C206.891 248.406 211.201 251.106 215.681 253.596C216.341 253.956 217.171 253.006 216.531 252.486C211.781 248.686 206.781 245.206 201.781 241.736C201.339 241.49 200.801 241.494 200.363 241.746C199.925 241.998 199.651 242.461 199.641 242.966C199.631 249.826 199.911 257.576 202.911 263.826C203.156 264.151 203.574 264.294 203.967 264.189C204.361 264.083 204.651 263.75 204.701 263.346C204.502 260.391 204.078 257.489 203.653 254.584C203.22 251.63 202.787 248.671 202.591 245.646ZM256.861 380.796C255.861 391.796 254.611 402.796 253.211 413.676C251.811 424.556 250.211 435.566 248.421 446.466C247.547 451.746 246.634 457.016 245.681 462.276C245.536 463.064 245.4 463.857 245.263 464.65C244.505 469.06 243.742 473.497 241.471 477.396C240.381 479.246 236.801 479.176 236.471 476.736C235.862 472.325 236.647 468.178 237.458 463.89C237.566 463.318 237.675 462.744 237.781 462.166C238.807 456.58 239.784 450.983 240.711 445.376C242.504 434.503 244.114 423.606 245.541 412.686C246.961 401.736 248.121 390.776 249.241 379.796C249.496 377.181 249.669 374.479 249.844 371.742C250.353 363.771 250.881 355.509 253.531 348.266C254.171 346.526 256.931 346.186 257.421 348.266C259.369 356.666 258.385 365.994 257.459 374.781C257.244 376.822 257.032 378.833 256.861 380.796ZM264.131 298.356C264.737 290.583 265.101 282.796 265.221 274.996C265.247 272.997 265.288 270.974 265.329 268.933L265.329 268.931V268.93C265.596 255.568 265.879 241.475 262.331 228.766C261.761 226.726 259.131 227.386 258.891 229.236C257.728 238.284 257.912 247.539 258.095 256.78C258.216 262.879 258.337 268.972 258.071 274.996C257.731 282.456 257.247 289.906 256.621 297.346C256.463 299.2 256.224 301.089 255.983 302.995L255.983 302.996C255.295 308.443 254.59 314.024 255.701 319.276C255.997 320.26 256.842 320.979 257.86 321.112C258.879 321.246 259.881 320.77 260.421 319.896C263.101 314.486 263.508 307.997 263.893 301.872L263.893 301.87L263.893 301.869L263.893 301.867L263.893 301.866L263.893 301.864L263.893 301.863L263.894 301.861L263.894 301.86L263.894 301.858L263.894 301.857L263.894 301.856L263.894 301.854L263.894 301.853C263.968 300.67 264.042 299.501 264.131 298.356ZM299.291 455.366C294.842 457.887 289.944 459.514 284.871 460.156C283.743 460.294 282.536 460.518 281.296 460.748C278.138 461.334 274.768 461.96 271.961 461.306C270.696 460.937 269.953 459.632 270.281 458.356C271.221 454.356 275.091 453.516 278.751 453.116C282.034 452.837 285.297 452.357 288.521 451.676C286.147 450.53 283.744 449.449 281.311 448.436C280.715 448.189 280.064 447.965 279.398 447.736C276.779 446.835 273.933 445.857 273.311 443.066C272.402 438.89 279.896 441.01 281.348 441.421L281.401 441.436C287.606 443.36 293.598 445.917 299.281 449.066C300.385 449.731 301.061 450.925 301.063 452.213C301.065 453.502 300.393 454.698 299.291 455.366ZM281.631 402.926C280.801 402.596 280.201 403.996 281.021 404.366V404.376C285.551 406.426 289.951 408.796 294.231 411.246L294.166 411.261L294.166 411.261C291.185 411.957 288.053 412.688 285.621 414.246C285.308 414.45 285.162 414.832 285.26 415.193C285.358 415.553 285.678 415.809 286.051 415.826C289.051 415.947 292.257 414.915 295.279 413.942L295.281 413.942C296.247 413.631 297.195 413.325 298.111 413.066C298.608 412.912 298.971 412.482 299.037 411.966C299.104 411.449 298.863 410.941 298.421 410.666C293.012 407.696 287.402 405.11 281.631 402.926ZM304.021 356.366C299.931 359.966 295.771 363.466 291.491 366.826C290.817 367.355 290.141 367.91 289.458 368.47C286.462 370.928 283.332 373.496 279.651 374.506C277.301 375.156 274.851 372.366 276.331 370.186C278.311 367.294 281.241 365.201 284.139 363.13C285.119 362.429 286.096 361.732 287.031 361.006C288.881 359.556 290.711 358.066 292.531 356.556C285.761 355.886 278.861 355.016 272.681 352.806C271.001 352.206 270.471 349.146 272.681 348.806C280.33 347.772 288.371 348.655 296.154 349.51C297.926 349.704 299.684 349.897 301.421 350.066C304.291 350.416 306.591 354.096 303.991 356.396L304.021 356.366ZM300.331 302.926C304.939 300.95 309.401 298.648 313.681 296.036L313.651 296.066C314.872 295.304 315.454 293.833 315.084 292.442C314.714 291.05 313.48 290.062 312.041 290.006C302.134 289.378 292.273 288.163 282.511 286.366C280.891 286.086 279.491 288.516 281.281 289.276C287.756 292.006 294.524 293.982 301.451 295.166C301.144 295.304 300.837 295.445 300.53 295.587L300.253 295.716C299.56 296.036 298.864 296.358 298.161 296.656C296.941 297.166 295.65 297.6 294.351 298.036C291.571 298.97 288.75 299.919 286.481 301.656C284.451 303.206 285.031 306.406 287.811 306.566C291.571 306.782 295.249 305.16 298.716 303.631C299.26 303.391 299.798 303.154 300.331 302.926ZM284.841 255.896C284.501 255.8 284.266 255.489 284.266 255.136C284.266 254.783 284.501 254.473 284.841 254.376C289.538 253.565 294.463 253.661 299.299 253.756C300.785 253.785 302.262 253.814 303.721 253.816C304.292 253.83 304.801 254.181 305.018 254.71C305.234 255.238 305.118 255.845 304.721 256.256C301.491 259.056 297.721 261.616 293.261 261.536C292.897 261.525 292.582 261.278 292.486 260.926C292.389 260.575 292.533 260.202 292.841 260.006C293.947 259.363 295.07 258.793 296.187 258.226L296.188 258.226C297.172 257.726 298.151 257.229 299.111 256.686C294.34 256.876 289.562 256.611 284.841 255.896ZM311.831 219.216C315.031 215.146 317.881 211.446 317.031 206.066C316.741 204.206 314.311 203.016 312.591 203.526C306.821 205.426 301.001 207.096 295.111 208.526C294.214 208.745 293.308 208.957 292.397 209.17C287.904 210.221 283.303 211.298 279.221 213.376C278.091 213.956 278.261 216.036 279.601 216.246C288.721 217.716 298.891 215.066 308.111 212.346C306.354 214.629 304.461 216.803 302.441 218.856C301.863 219.515 301.265 220.15 300.672 220.78C298.608 222.974 296.591 225.118 295.581 228.046C295.344 228.96 295.609 229.931 296.278 230.597C296.946 231.263 297.918 231.526 298.831 231.286C303.669 229.757 307.278 225.09 310.43 221.012C310.906 220.396 311.372 219.793 311.831 219.216ZM277.841 111.796C282.951 103.076 290.001 95.5762 297.491 88.8562C300.301 86.3362 303.841 88.8562 303.371 92.2862C302.438 99.2324 301.082 106.115 299.311 112.896C299.088 113.743 298.87 114.611 298.649 115.491L298.648 115.495C297.346 120.681 295.942 126.276 292.711 130.396C291.111 132.446 287.611 130.686 287.711 128.316C287.855 124.31 289.263 120.253 290.647 116.265C291.374 114.17 292.094 112.095 292.621 110.056C293.391 107.056 294.071 104.126 294.681 101.136C290.491 105.374 286.547 109.839 282.571 114.341L282.001 114.986C279.961 117.256 276.361 114.286 277.841 111.796ZM256.331 82.3762C254.338 83.7869 252.498 85.4024 250.841 87.1962L250.871 87.1662C250.794 87.2515 250.716 87.3378 250.637 87.425C249.288 88.913 247.684 90.6836 247.391 92.6862C247.301 93.3662 248.201 93.7562 248.711 93.4462C249.789 92.8044 250.645 91.7117 251.476 90.6489L251.477 90.6487C251.902 90.1053 252.321 89.5697 252.761 89.1062C253.677 88.1498 254.649 87.2482 255.671 86.4062C255.635 87.0296 255.565 87.6506 255.461 88.2662C255.121 89.5828 254.861 90.9185 254.681 92.2662C254.687 92.6278 254.907 92.9512 255.241 93.09C255.575 93.2288 255.96 93.1566 256.221 92.9062C258.561 90.5962 258.771 86.5962 258.461 83.5962C258.331 82.6462 257.331 81.6862 256.331 82.3762ZM233.421 115.366C234.623 114.848 235.863 114.424 237.131 114.096C237.393 113.803 237.709 113.562 238.061 113.386C253.281 105.486 268.231 118.866 271.861 133.386C275.021 146.076 271.591 160.956 260.191 168.446C249.126 175.454 234.737 174.175 225.081 165.326C215.291 155.927 212.791 141.235 218.921 129.126C221.986 122.977 227.12 118.106 233.421 115.366ZM209.111 45.3362C208.341 43.1862 204.751 42.0362 203.621 44.6162C198.151 57.0362 194.161 69.9262 192.821 83.4762C192.661 85.6962 196.111 86.0962 196.661 83.9962C199.154 74.0225 202.236 64.2053 205.891 54.5962C206.377 56.0388 206.86 57.4843 207.342 58.9305C209.989 66.8573 212.643 74.8048 215.891 82.4162C217.261 85.6162 222.371 83.3162 221.451 80.0662C219.183 72.1022 216.201 64.2396 213.234 56.4158C211.83 52.7161 210.43 49.0251 209.111 45.3362ZM189.151 174.616C189.693 173.83 190.715 173.537 191.591 173.916C194.655 171.736 199.438 171.388 203.167 171.116L203.179 171.115C203.449 171.095 203.713 171.076 203.971 171.056C208.061 170.746 211.771 172.056 213.501 176.056C215.36 180.301 214.978 186.39 214.688 191.027V191.027L214.687 191.046C214.675 191.242 214.663 191.436 214.651 191.626C214.351 196.526 213.381 201.526 210.801 205.766C206.341 213.106 195.741 216.836 190.551 208.016C187.771 203.296 187.001 197.156 186.551 191.786C186.101 186.416 185.891 179.186 189.151 174.566V174.616ZM163.021 88.1562C160.503 85.6204 157.832 83.2425 155.021 81.0362C154.646 80.6775 154.082 80.6052 153.629 80.858C153.177 81.1107 152.942 81.6293 153.051 82.1362C154.263 87.9617 156.282 93.5893 159.051 98.8562C159.491 99.6562 160.861 99.1162 160.551 98.2262L160.376 97.7341L160.376 97.7338C158.875 93.5128 157.395 89.349 156.221 85.0462C157.834 86.4395 159.384 87.9029 160.871 89.4362C161.602 90.1849 162.292 91.0083 162.985 91.8357L162.985 91.8358C164.272 93.3732 165.572 94.9245 167.171 96.0362C167.791 96.4962 168.811 95.7662 168.511 95.0362C167.576 92.742 165.71 90.8666 163.943 89.091L163.943 89.0901L163.937 89.0849C163.627 88.7728 163.32 88.4638 163.021 88.1562ZM130.021 127.796C134.721 122.936 143.461 117.556 150.901 117.866C157.491 115.586 165.271 120.516 169.901 124.946C175.585 130.368 179.248 137.569 180.281 145.356C181.921 158.416 174.731 171.956 162.281 176.886C148.281 182.436 135.341 175.636 126.601 164.566C117.281 152.656 119.851 138.366 130.061 127.796H130.021ZM100.437 204.132C99.6949 204.328 98.9531 204.524 98.2108 204.716H98.2508C97.32 204.972 96.5584 205.641 96.1856 206.531C95.8127 207.421 95.8699 208.434 96.3408 209.276C98.5676 212.857 101.28 216.111 104.401 218.946C107.141 221.376 110.491 224.306 114.331 224.376C115.047 224.379 115.71 223.999 116.069 223.38C116.428 222.76 116.429 221.996 116.071 221.376C114.919 219.526 113.125 218.175 111.349 216.836C110.428 216.142 109.511 215.451 108.691 214.696C107.078 213.198 105.599 211.562 104.271 209.806C105.674 209.545 107.083 209.302 108.499 209.058C108.869 208.994 109.24 208.93 109.611 208.866C110.154 208.774 110.705 208.693 111.258 208.612C113.769 208.243 116.327 207.867 118.441 206.416C119.277 205.887 119.729 204.92 119.6 203.94C119.472 202.959 118.785 202.142 117.841 201.846C115.047 200.863 112.059 201.467 109.203 202.045C108.951 202.096 108.7 202.147 108.451 202.196C105.754 202.728 103.094 203.43 100.437 204.132Z" fill="#009444"/>
<path fill-rule="evenodd" clip-rule="evenodd" d="M244.942 118.576C269.662 119.256 271.782 165.426 243.662 164.696C231.732 164.386 222.912 153.246 223.542 141.636C224.162 130.346 233.942 120.846 244.942 118.576ZM239.242 128.836C237.878 130.269 236.907 132.029 236.422 133.946C234.602 141.466 239.952 149.556 248.352 147.176C255.612 145.116 258.092 135.666 254.182 129.666C252.267 126.603 248.85 124.81 245.242 124.976C242.699 125.108 240.416 126.577 239.242 128.836Z" fill="white"/>
<path d="M149.981 143.726C151.608 142.324 151.838 139.887 150.501 138.206C149.271 138.191 148.044 138.336 146.851 138.636L146.421 138.796C146.138 139.342 145.91 139.915 145.741 140.506C145.471 141.346 145.241 142.276 144.951 143.176C146.189 144.716 148.44 144.962 149.981 143.726Z" fill="white"/>
<path fill-rule="evenodd" clip-rule="evenodd" d="M172.692 150.506C171.782 162.766 160.922 173.006 148.312 170.606C136.882 168.426 125.652 154.506 129.432 142.886C132.952 132.146 147.452 119.306 158.682 127.086C159.284 127.552 160.136 127.505 160.682 126.976C163.021 128.51 165.103 130.403 166.852 132.586C170.972 137.619 173.055 144.013 172.692 150.506ZM139.192 134.886C138.912 135.201 138.654 135.535 138.422 135.886C136.81 138.579 136.437 141.836 137.399 144.823C138.36 147.811 140.562 150.239 143.442 151.486C149.762 154.026 157.462 150.096 158.922 143.396C160.442 136.436 155.562 129.676 148.302 129.676C144.54 129.611 141.044 131.61 139.192 134.886Z" fill="white"/>
<path fill-rule="evenodd" clip-rule="evenodd" d="M39.6214 315.066C24.5102 300.074 13.1965 281.691 6.62143 261.446C3.26881 251.273 1.21915 240.715 0.521435 230.026C-0.0185651 221.496 0.381435 210.146 7.29143 203.926C20.5905 191.944 33.7243 225.675 39.4419 240.359C40.3237 242.624 41.029 244.435 41.5314 245.556C49.3514 263.026 60.5414 281.526 79.7514 287.146C75.954 268.692 74.0641 249.897 74.1114 231.056C74.1248 225.85 74.2881 220.64 74.6014 215.426C74.6584 214.5 74.6985 213.551 74.7391 212.591V212.59C74.8693 209.507 75.0047 206.302 75.7214 203.336C72.634 202.113 69.64 200.296 66.7098 198.518L66.7096 198.518C64.847 197.388 63.0102 196.273 61.1914 195.336C60.1017 194.78 58.8192 194.252 57.4728 193.698L57.4726 193.698L57.4723 193.697L57.4721 193.697L57.4718 193.697C53.4192 192.029 48.7877 190.121 47.0914 186.496C46.4979 185.417 46.5097 184.107 47.1224 183.039C47.7352 181.97 48.8604 181.299 50.0914 181.266C59.9414 180.866 70.0314 180.576 79.8814 181.506C80.1269 176.588 81.5262 171.333 82.7324 166.802L82.7327 166.801L82.7356 166.79L82.7367 166.786L82.7369 166.786C82.954 165.97 83.1648 165.178 83.3614 164.416C85.6779 155.892 88.5816 147.539 92.0514 139.416C94.646 133.062 97.4254 126.771 100.201 120.487C100.903 118.9 101.604 117.313 102.301 115.726L107.761 103.266C108.037 102.638 108.293 102.01 108.546 101.389C109.055 100.142 109.551 98.9244 110.171 97.7962C103.263 83.6516 98.7008 67.9079 94.3267 52.8135C94.0343 51.8046 93.7428 50.7986 93.4514 49.7962C92.4414 46.3062 96.5914 44.6362 99.0214 46.5562C109.184 54.4827 118.747 63.1497 127.631 72.4862C140.437 59.7437 154.567 48.406 169.781 38.6662C169.257 35.2044 169.171 31.6142 169.085 28.0793V28.0792V28.0791V28.079C169.047 26.4879 169.009 24.9081 168.931 23.3562C168.611 16.8862 168.251 10.3762 167.801 3.8862C167.571 0.496198 172.281 -1.3038 174.501 1.1062C176.514 3.30502 178.543 5.47725 180.569 7.64702L180.57 7.64739L180.57 7.64801C183.667 10.9644 186.759 14.2751 189.781 17.6662L189.813 17.7011C191.925 20.0424 194.306 22.681 195.131 25.6662C202.61 22.7599 210.442 20.8632 218.421 20.0262C236.251 18.2862 252.541 24.8962 267.951 33.2462C271.241 35.0162 274.501 36.8262 277.701 38.8262C287.531 28.3462 298.331 19.2562 309.701 10.4862C312.331 8.4562 316.071 11.8262 315.171 14.6862C313.109 21.1906 310.991 27.6782 308.874 34.1654L308.874 34.1658C306.363 41.8609 303.851 49.5553 301.431 57.2762C303.211 59.1062 304.931 60.9862 306.561 62.9862C315.703 74.0597 322.335 86.9831 326.001 100.866C335.533 97.6575 345.362 95.413 355.341 94.1662C358.991 93.7162 360.971 99.1662 358.341 101.436C348.632 109.697 339.603 118.727 331.341 128.436C334.661 137.896 337.811 148.726 336.901 158.896C338.851 158.946 340.771 158.946 342.601 158.946C349.431 158.926 355.921 159.016 362.241 161.796C364.981 162.996 364.331 166.846 362.241 168.216C356.092 172.231 349.726 175.903 343.171 179.216C342.571 179.536 341.961 179.836 341.351 180.126C342.394 195.808 341.321 211.631 340.257 227.325C340.117 229.394 339.977 231.462 339.841 233.526C338.721 250.846 337.251 268.186 335.721 285.526C363.081 279.686 382.481 254.616 384.331 226.886C384.693 220.387 384.179 213.868 382.801 207.506C382.388 205.508 381.868 203.517 381.347 201.522C380.182 197.056 379.011 192.57 379.011 187.946C379.041 177.946 385.201 168.086 396.121 167.946C407.241 167.796 416.831 176.526 421.451 186.026C426.961 197.326 427.131 210.546 425.701 222.796C419.901 272.05 384.163 312.542 336.011 324.416C335.449 333.419 334.037 342.445 332.636 351.398L332.636 351.399C332.219 354.062 331.803 356.719 331.411 359.366C330.905 362.786 330.381 366.206 329.841 369.626C334.397 370.871 338.871 372.485 343.351 374.102L343.352 374.102L343.353 374.103L343.353 374.103L343.354 374.103L343.354 374.103C348.306 375.89 353.265 377.68 358.351 378.976C359.462 379.294 360.364 380.104 360.799 381.174C361.235 382.243 361.154 383.454 360.581 384.456C357.883 388.958 352.563 390.407 347.62 391.754C346.535 392.049 345.468 392.339 344.451 392.656L331.741 396.656C331.087 396.861 330.448 397.082 329.818 397.3L329.817 397.3L329.817 397.3C328.166 397.871 326.58 398.42 324.951 398.586C324.947 398.606 324.947 398.626 324.951 398.646C320.781 421.796 315.831 444.876 309.781 467.646C312.383 468.837 314.893 470.217 317.291 471.776C321.898 474.59 326.378 477.59 330.731 480.776C332.961 482.396 333.271 486.796 329.871 487.396C327.128 487.881 324.333 488.464 321.511 489.052L321.502 489.054L321.493 489.056L321.492 489.056L321.492 489.056C315.299 490.348 308.98 491.665 302.801 492.036C298.441 506.236 293.571 520.246 288.081 534.036C287.291 536.035 286.513 538.082 285.728 540.15C282.619 548.335 279.388 556.841 274.741 563.946C270.631 570.226 262.801 576.126 255.531 570.866C249.151 566.25 248.956 556.095 248.807 548.379V548.378C248.787 547.303 248.767 546.275 248.731 545.316C248.389 536.35 248.723 527.372 249.731 518.456C228.691 532.066 202.711 529.036 178.441 524.316C181.781 540.066 183.361 556.066 184.361 572.066C184.345 573.469 183.404 574.692 182.051 575.066C165.993 578.601 158.526 559.847 153.31 546.749L153.31 546.748C152.608 544.986 151.947 543.326 151.311 541.836C143.321 523.086 136.571 503.846 130.391 484.426C124.989 467.42 119.985 450.303 114.98 433.183L114.98 433.182L114.979 433.181L114.979 433.181L114.979 433.18L114.974 433.163C114.154 430.357 113.333 427.551 112.511 424.746C111.582 421.504 110.615 418.279 109.646 415.046L109.645 415.044L109.645 415.043L109.645 415.041L109.644 415.04C109.122 413.299 108.599 411.556 108.081 409.806C107.764 408.734 107.496 407.454 107.211 406.095C106.446 402.446 105.562 398.226 103.281 395.916C100.869 393.473 96.0817 393.002 92.1222 392.612L92.1215 392.612L92.1207 392.612L92.1198 392.612L92.1188 392.612C90.9416 392.496 89.8378 392.387 88.8914 392.236L73.2314 389.696C70.1414 389.196 69.5414 384.176 72.3414 382.896L84.7514 377.226C85.7954 376.751 87.067 376.285 88.4062 375.794C91.3516 374.714 94.6241 373.514 96.5214 371.836C98.693 369.916 97.7755 364.803 97.1151 361.121C96.9361 360.124 96.7761 359.231 96.7014 358.536L95.4714 347.396C85.4914 345.936 75.1414 340.306 66.7114 335.516C56.8333 329.902 47.727 323.028 39.6214 315.066ZM319.471 481.736C317.801 480.606 316.131 479.486 314.421 478.396C313.307 477.68 312.117 476.981 310.914 476.275L310.913 476.275L310.91 476.273C309.88 475.668 308.841 475.058 307.831 474.426C306.911 477.74 305.968 481.046 305.001 484.346C309.701 483.196 314.621 482.456 319.471 481.736ZM347.563 383.858C347.109 383.975 346.675 384.087 346.291 384.206L335.521 387.526C334.313 387.896 333.021 388.216 331.704 388.542C329.926 388.982 328.101 389.433 326.371 390.036C327.231 385.11 328.061 380.176 328.861 375.236C334.481 379.126 341.151 381.796 347.801 383.796L347.563 383.858ZM304.141 24.3018L304.421 23.4262C297.011 29.3098 289.968 35.6417 283.331 42.3862C287.515 45.1841 291.522 48.2366 295.331 51.5262C298.325 42.468 301.234 33.3817 304.141 24.3036L304.141 24.3018ZM181.901 20.5662C182.978 21.7335 183.984 23.1083 185.009 24.5098L185.009 24.51C186.022 25.8941 187.054 27.3042 188.191 28.5662C184.401 30.2962 180.691 32.2062 177.061 34.2662C177.111 31.6984 177.002 29.1109 176.895 26.5555C176.85 25.4686 176.804 24.3875 176.771 23.3162C176.671 20.4062 176.531 17.5062 176.371 14.5962L181.901 20.5662ZM16.2614 211.456C13.7214 208.696 11.5914 210.326 10.3314 213.146C6.67496 221.405 8.49146 232.074 9.97996 240.816C10.0343 241.136 10.0882 241.452 10.1414 241.766C11.7663 251.112 14.426 260.248 18.0714 269.006C25.5873 286.943 37.1807 302.882 51.9314 315.556C58.9778 321.625 66.6511 326.925 74.8214 331.366C78.8276 333.533 83.0793 335.195 87.3193 336.851C90.8266 338.221 94.3259 339.588 97.6714 341.236C98.786 341.004 99.9469 341.249 100.872 341.912C101.798 342.576 102.403 343.596 102.541 344.726C103.208 350.993 103.875 357.266 104.541 363.546C104.61 364.144 104.695 364.754 104.781 365.371C105.269 368.879 105.787 372.603 103.541 375.546C101.513 378.205 98.0142 379.606 94.7784 380.902C93.803 381.292 92.8516 381.673 91.9714 382.076L86.8014 384.446L90.8014 385.086C91.898 385.262 93.0256 385.407 94.1647 385.554C97.6897 386.009 101.325 386.478 104.491 387.906C110.971 390.823 112.636 397.763 114.162 404.124C114.315 404.762 114.466 405.394 114.621 406.016C119.521 425.556 124.761 445.026 130.621 464.226C136.481 483.426 143.121 502.396 150.191 521.226C153.625 530.313 157.195 539.343 160.901 548.316C161.189 549.022 161.491 549.791 161.81 550.604C164.76 558.121 169.189 569.406 177.851 569.316C176.841 553.416 174.561 537.656 172.111 521.916C171.592 521.033 171.431 519.984 171.661 518.986C171.591 518.596 171.531 518.206 171.471 517.806C171.011 514.986 174.501 513.496 176.011 515.296C176.29 515.294 176.568 515.321 176.841 515.376C201.031 520.116 232.031 525.876 252.031 506.966C255.051 504.116 258.981 507.076 258.461 510.706C256.633 523.137 256.04 535.719 256.691 548.266C256.735 549.05 256.75 549.958 256.767 550.937C256.837 555.131 256.929 560.642 259.361 563.406C263.191 567.756 267.871 559.536 269.361 556.596C278.581 538.306 285.521 518.526 291.851 499.086C298.111 479.936 303.341 460.526 307.851 440.936C312.451 420.956 316.341 400.696 319.701 380.606C320.919 373.329 321.911 365.962 322.905 358.585C324.656 345.598 326.41 332.578 329.401 319.956C329.753 318.44 331.159 317.407 332.711 317.526C356.832 311.657 378.368 298.055 394.031 278.796C408.932 260.172 417.451 237.251 418.331 213.416C418.731 201.816 417.061 188.736 407.791 180.656C403.561 176.966 395.791 173.396 390.791 177.786C386.401 181.636 386.641 188.396 387.581 193.586C388.021 196.031 388.599 198.454 389.178 200.882C390.02 204.413 390.865 207.954 391.291 211.586C391.87 216.972 391.913 222.402 391.421 227.796C390.559 238.958 387.229 249.788 381.671 259.506C371.286 277.2 353.439 289.233 333.141 292.226C331.361 292.486 329.111 291.476 329.281 289.286C330.801 270.396 331.971 251.466 332.971 232.546C333.201 228.256 333.392 223.958 333.583 219.657C334.13 207.314 334.678 194.95 336.161 182.706C332.865 184.298 329.936 186.559 327.561 189.346C326.121 191.106 322.511 189.676 322.821 187.346C323.637 181.136 328.958 178.517 333.991 176.04C334.509 175.785 335.025 175.532 335.531 175.276C340.961 172.536 346.201 169.476 351.371 166.276C347.559 165.764 343.594 165.887 339.625 166.01C333.049 166.214 326.458 166.418 320.521 163.736C320.066 163.469 319.786 162.98 319.786 162.451C319.786 161.923 320.066 161.434 320.521 161.166C323.903 159.824 327.495 159.089 331.131 158.996C329.446 153.841 328.346 148.435 327.246 143.03C326.323 138.495 325.4 133.961 324.131 129.576C323.868 128.762 323.926 127.879 324.291 127.106C323.548 125.533 323.842 123.666 325.031 122.396C330.421 116.316 336.001 110.416 341.861 104.796C335.815 106.102 329.882 107.892 324.121 110.146C322.061 110.946 319.541 109.276 319.061 107.276C315.315 90.7773 307.15 75.6087 295.441 63.3962C284.811 52.4562 271.341 44.4862 257.811 37.6062C242.971 30.0562 227.271 25.6662 210.651 29.2262C194.811 32.6262 180.451 40.7062 167.141 49.7062C153.83 58.5613 141.396 68.6708 130.011 79.8962C128.644 81.2326 126.459 81.2326 125.091 79.8962C118.421 72.2892 111.22 65.1647 103.541 58.5762C104.602 61.5386 105.685 64.4977 106.768 67.4579C109.963 76.1891 113.16 84.9291 115.811 93.7862C116.647 94.024 117.283 94.7055 117.461 95.5562C117.947 98.7525 116.878 101.077 115.629 103.793C115.413 104.264 115.191 104.746 114.971 105.246L109.491 117.686C108.544 119.84 107.591 121.987 106.637 124.134C104.097 129.854 101.558 135.57 99.1514 141.386C95.947 148.929 93.1365 156.632 90.7314 164.466C89.4697 168.66 88.425 172.915 87.6014 177.216C87.3838 178.382 87.223 179.556 87.0626 180.727C86.6853 183.482 86.3103 186.221 85.2014 188.796C84.4514 190.536 82.1114 190.316 81.0114 189.096C79.159 189.006 77.3108 188.909 75.4652 188.812C70.974 188.576 66.4977 188.341 62.0114 188.206C64.2814 189.426 66.5314 190.666 68.7514 191.966C69.3078 192.29 69.8734 192.613 70.4433 192.939C73.4282 194.644 76.5324 196.417 79.0514 198.726C80.6914 198.246 82.5214 198.786 82.8914 200.916C83.4927 204.372 83.1756 207.912 82.8601 211.432C82.7401 212.772 82.6203 214.108 82.5514 215.436C82.2981 219.996 82.1514 224.556 82.1114 229.116C82.0114 238.876 82.3314 248.666 83.1114 258.396C83.9414 268.446 85.2014 278.506 86.9414 288.446C87.4737 291.499 88.1459 294.547 88.8191 297.6C90.1571 303.666 91.4986 309.749 91.7514 315.916C91.7361 316.608 91.2666 317.207 90.5983 317.388C89.9301 317.568 89.2229 317.286 88.8614 316.696C85.0914 310.216 83.1114 302.716 81.4814 295.296C62.1314 292.086 48.2514 275.886 39.6214 259.296C36.4535 253.213 33.7703 246.897 31.0882 240.583C29.8419 237.649 28.5958 234.715 27.3014 231.806C25.2014 227.096 22.9914 222.426 20.4414 217.936C19.291 215.629 17.8892 213.456 16.2614 211.456Z" fill="#231F20"/>
<path d="M196.691 83.9962C199.184 74.0225 202.266 64.2053 205.921 54.5962C209.041 63.9462 212.051 73.4062 215.921 82.4162C217.291 85.6162 222.401 83.3162 221.481 80.0662C218.111 68.3362 213.221 56.7962 209.111 45.3362C208.341 43.1862 204.751 42.0362 203.621 44.6162C198.151 57.0362 194.161 69.9262 192.851 83.4762C192.641 85.6962 196.141 86.0962 196.691 83.9962Z" fill="#231F20"/>
<path d="M281.982 114.956C286.152 110.236 290.272 105.546 294.662 101.106C294.052 104.106 293.372 107.106 292.602 110.026C291.072 115.946 287.912 122.176 287.692 128.286C287.612 130.656 291.112 132.416 292.692 130.366C296.472 125.546 297.752 118.706 299.292 112.866C301.087 106.087 302.466 99.2039 303.422 92.2562C303.892 88.8662 300.352 86.3062 297.542 88.8262C290.052 95.5462 283.002 103.046 277.892 111.766C276.362 114.286 279.962 117.256 281.982 114.956Z" fill="#231F20"/>
<path d="M279.261 213.376C278.131 213.956 278.261 216.036 279.641 216.246C288.761 217.716 298.931 215.066 308.151 212.346C306.394 214.629 304.501 216.803 302.481 218.856C299.891 221.806 296.921 224.276 295.621 228.046C295.384 228.96 295.649 229.931 296.318 230.597C296.986 231.263 297.958 231.526 298.871 231.286C304.401 229.526 308.341 223.606 311.871 219.216C315.091 215.146 317.871 211.446 317.071 206.066C316.781 204.206 314.351 203.016 312.671 203.556C306.901 205.426 301.081 207.096 295.191 208.556C289.831 209.796 284.171 210.876 279.261 213.376Z" fill="#231F20"/>
<path d="M312.012 289.996C302.105 289.368 292.244 288.153 282.482 286.356C280.862 286.076 279.482 288.506 281.252 289.266C287.727 291.996 294.495 293.972 301.422 295.156C300.332 295.676 299.242 296.156 298.132 296.646C294.302 298.286 289.782 299.136 286.452 301.646C284.452 303.196 285.002 306.396 287.782 306.556C292.132 306.806 296.372 304.556 300.302 302.916C304.91 300.94 309.371 298.638 313.652 296.026C314.849 295.25 315.408 293.789 315.034 292.412C314.659 291.035 313.437 290.058 312.012 289.996Z" fill="#231F20"/>
<path d="M301.422 350.136C292.052 349.226 282.072 347.606 272.682 348.876C270.472 349.176 271.002 352.236 272.682 352.876C278.862 355.086 285.762 355.956 292.532 356.626C290.712 358.136 288.882 359.626 287.032 361.076C283.372 363.946 278.982 366.386 276.332 370.256C274.852 372.436 277.332 375.256 279.652 374.576C284.172 373.336 287.862 369.746 291.492 366.896C295.772 363.536 299.932 360.036 304.022 356.436C306.592 354.096 304.292 350.416 301.422 350.136Z" fill="#231F20"/>
<path d="M299.292 449.066C293.612 445.918 287.624 443.361 281.422 441.436C280.112 441.046 272.422 438.836 273.332 443.066C274.102 446.566 278.382 447.216 281.332 448.436C283.772 449.443 286.175 450.523 288.542 451.676C285.318 452.357 282.055 452.837 278.772 453.116C275.112 453.516 271.242 454.336 270.302 458.356C269.974 459.632 270.718 460.937 271.982 461.306C275.882 462.216 280.912 460.646 284.892 460.156C289.965 459.514 294.863 457.887 299.312 455.366C300.413 454.696 301.083 453.499 301.079 452.211C301.075 450.922 300.397 449.729 299.292 449.066Z" fill="#231F20"/>
<path d="M258.892 229.236C256.962 244.236 258.742 259.846 258.072 274.996C257.732 282.45 257.248 289.9 256.622 297.346C256.012 304.496 254.202 312.186 255.702 319.276C255.997 320.26 256.843 320.979 257.861 321.112C258.88 321.246 259.882 320.77 260.422 319.896C263.622 313.436 263.582 305.436 264.132 298.356C264.745 290.576 265.108 282.79 265.222 274.996C265.452 259.906 266.432 243.416 262.332 228.766C261.762 226.726 259.132 227.386 258.892 229.236Z" fill="#231F20"/>
<path d="M253.521 348.296C249.961 358.026 250.271 369.596 249.231 379.826C248.111 390.826 246.951 401.766 245.531 412.716C244.111 423.666 242.531 434.536 240.701 445.406C239.774 451.006 238.797 456.603 237.771 462.196C236.871 467.106 235.771 471.786 236.461 476.766C236.801 479.206 240.381 479.276 241.461 477.426C244.141 472.826 244.721 467.476 245.671 462.306C246.621 457.136 247.551 451.796 248.421 446.496C250.221 435.596 251.817 424.666 253.211 413.706C254.611 402.776 255.891 391.806 256.861 380.826C257.771 370.376 259.861 358.616 257.411 348.296C256.921 346.216 254.161 346.556 253.521 348.296Z" fill="#231F20"/>
<path d="M222.421 334.796C231.891 336.716 241.421 329.796 248.221 323.696C250.041 322.076 249.041 318.956 246.811 318.356C239.004 316.294 231.051 314.83 223.021 313.976C220.951 313.736 220.671 316.976 222.541 317.496C227.971 319.116 233.391 320.816 238.801 322.496C233.111 325.806 226.801 327.936 221.681 331.946C221.242 332.37 221.065 332.997 221.218 333.587C221.372 334.178 221.831 334.64 222.421 334.796Z" fill="#231F20"/>
<path d="M231.542 400.666C220.982 393.466 211.002 385.506 200.542 378.186C198.622 376.856 196.792 379.676 198.172 381.256C204.864 388.702 212.337 395.407 220.462 401.256C218.712 401.406 216.952 401.526 215.192 401.596C211.362 401.756 207.442 401.326 203.762 402.486C201.172 403.306 201.472 406.486 203.762 407.486C211.382 410.586 222.762 408.196 230.712 407.056C233.962 406.596 233.732 402.166 231.542 400.666Z" fill="#231F20"/>
<path d="M196.482 288.796C187.482 285.046 178.172 281.966 169.152 278.186C167.344 277.694 165.478 278.752 164.972 280.556C163.562 287.706 168.972 292.146 173.592 296.846C179.132 302.556 184.592 309.976 191.402 314.206C194.102 315.896 197.342 312.556 195.732 309.886C192.732 304.886 187.732 300.886 183.622 296.746L177.252 290.346C176.382 289.456 174.962 288.346 173.752 287.046C180.957 289.588 188.446 291.237 196.052 291.956C198.032 292.126 198.012 289.436 196.482 288.796Z" fill="#231F20"/>
<path d="M163.941 427.256C164.661 419.256 161.941 410.326 160.581 402.496C159.221 394.666 157.791 386.626 156.581 378.656C153.914 361.416 151.688 344.11 149.901 326.736C148.221 310.03 146.958 293.286 146.111 276.506C145.671 268.12 145.338 259.73 145.111 251.336C144.901 243.006 145.111 234.746 143.181 226.596C142.909 225.686 142.071 225.062 141.121 225.062C140.171 225.062 139.333 225.686 139.061 226.596C137.141 234.736 137.491 243.016 137.661 251.336C137.828 260.063 138.121 268.786 138.541 277.506C139.354 294.62 140.648 311.696 142.421 328.736C144.134 345.45 146.268 362.116 148.821 378.736C150.151 387.366 151.551 395.996 153.141 404.576C154.591 412.356 155.531 421.506 159.351 428.526C160.591 430.796 163.741 429.546 163.941 427.256Z" fill="#231F20"/>
<path d="M184.422 485.676C179.902 483.256 173.532 483.366 167.752 483.516C169.832 478.986 171.882 474.436 173.752 469.836C176.392 463.496 179.452 457.046 180.152 450.166C180.093 449.414 179.617 448.759 178.92 448.472C178.222 448.184 177.423 448.314 176.852 448.806C172.662 453.916 170.252 460.186 167.472 466.146C164.472 472.576 161.572 479.046 158.532 485.456C157.312 488.036 158.762 491.086 161.792 491.146C168.722 491.306 177.992 493.146 184.382 490.096C186.182 489.276 186.052 486.536 184.422 485.676Z" fill="#231F20"/>
<path d="M137.202 422.066C135.449 421.723 133.739 421.19 132.102 420.476C133.414 419.154 134.811 417.918 136.282 416.776C138.372 415.156 141.092 413.916 141.282 411.036C141.275 410.342 140.892 409.707 140.282 409.376C137.542 407.776 134.282 410.076 132.002 411.696C129.065 413.802 126.407 416.272 124.092 419.046C123.354 419.809 123.004 420.867 123.14 421.92C123.276 422.972 123.884 423.906 124.792 424.456C128.226 426.522 132.002 427.955 135.942 428.686C139.322 429.286 142.942 429.996 145.222 426.996C145.742 426.094 145.595 424.956 144.862 424.216C143.022 421.996 139.842 422.566 137.202 422.066Z" fill="#231F20"/>
<path d="M129.532 324.386C130.38 324.13 131.034 323.453 131.26 322.596C131.487 321.74 131.253 320.828 130.642 320.186C129.032 318.186 126.022 317.666 123.692 316.746C122.932 316.446 122.182 316.126 121.442 315.806C123.852 314.806 126.312 313.966 128.722 313.216C129.646 312.892 130.215 311.962 130.081 310.991C129.948 310.021 129.149 309.279 128.172 309.216C122.492 308.866 117.602 310.326 112.592 313.056C111.636 313.631 111.051 314.665 111.051 315.781C111.051 316.897 111.636 317.931 112.592 318.506C115.32 320.006 118.128 321.358 121.002 322.556C123.632 323.626 126.672 325.256 129.532 324.386Z" fill="#231F20"/>
<path d="M104.421 218.976C107.161 221.426 110.511 224.336 114.351 224.406C115.067 224.409 115.729 224.029 116.089 223.41C116.448 222.79 116.449 222.026 116.091 221.406C114.341 218.596 111.091 216.936 108.711 214.726C107.098 213.228 105.619 211.592 104.291 209.836C106.061 209.506 107.841 209.206 109.631 208.896C112.631 208.386 115.881 208.216 118.461 206.446C119.296 205.917 119.749 204.95 119.62 203.97C119.491 202.989 118.805 202.172 117.861 201.876C114.861 200.806 111.551 201.616 108.471 202.226C105.021 202.906 101.631 203.866 98.2306 204.746C97.2981 205.009 96.539 205.687 96.1735 206.584C95.808 207.481 95.877 208.497 96.3606 209.336C98.5897 212.906 101.302 216.15 104.421 218.976Z" fill="#231F20"/>
<path d="M190.551 207.936C195.741 216.756 206.341 213.026 210.801 205.686C213.381 201.446 214.351 196.446 214.651 191.546C214.941 186.846 215.441 180.406 213.501 175.976C211.771 171.976 208.061 170.696 203.971 170.976C200.151 171.266 194.881 171.496 191.591 173.836C190.715 173.457 189.693 173.751 189.151 174.536C185.891 179.156 186.151 186.276 186.581 191.676C187.011 197.076 187.771 203.216 190.551 207.936Z" fill="#231F20"/>
<path fill-rule="evenodd" clip-rule="evenodd" d="M260.171 168.456C249.106 175.464 234.717 174.185 225.061 165.336C215.276 155.938 212.776 141.252 218.901 129.146C221.965 122.994 227.099 118.118 233.401 115.376C234.603 114.858 235.844 114.434 237.111 114.106C237.374 113.813 237.689 113.572 238.041 113.396C253.261 105.486 268.211 118.866 271.841 133.396C275.001 146.086 271.571 160.966 260.171 168.456ZM244.941 118.576C233.931 120.846 224.161 130.346 223.541 141.636C222.911 153.246 231.731 164.386 243.661 164.696C271.781 165.426 269.631 119.256 244.941 118.576Z" fill="#231F20"/>
<path fill-rule="evenodd" clip-rule="evenodd" d="M254.132 129.666C258.042 135.676 255.562 145.116 248.302 147.176C239.952 149.556 234.602 141.466 236.372 133.946C236.857 132.029 237.828 130.269 239.192 128.836C240.366 126.577 242.649 125.108 245.192 124.976C248.8 124.81 252.217 126.603 254.132 129.666ZM244.852 133.126C244.339 133.713 243.978 134.417 243.802 135.176V135.136C243.422 136.726 243.672 140.476 246.242 139.426C248.222 138.586 248.372 135.136 246.942 133.786C246.365 133.289 245.609 133.051 244.852 133.126Z" fill="#231F20"/>
<path fill-rule="evenodd" clip-rule="evenodd" d="M180.422 145.356C182.022 158.416 174.832 171.956 162.422 176.886C148.422 182.436 135.422 175.636 126.792 164.566C117.382 152.656 119.952 138.366 130.162 127.796C134.862 122.936 143.602 117.556 151.042 117.866C157.622 115.586 165.402 120.516 170.042 124.946C175.727 130.368 179.389 137.569 180.422 145.356ZM158.762 127.086C147.512 119.306 133.032 132.146 129.512 142.886H129.422C125.652 154.506 136.882 168.426 148.392 170.606C161.002 173.006 171.862 162.766 172.772 150.506C173.135 144.013 171.052 137.619 166.932 132.586C165.184 130.403 163.101 128.51 160.762 126.976C160.216 127.505 159.364 127.552 158.762 127.086Z" fill="#231F20"/>
<path fill-rule="evenodd" clip-rule="evenodd" d="M158.901 143.356C157.421 150.056 149.741 153.986 143.421 151.446C140.541 150.199 138.339 147.771 137.378 144.783C136.416 141.796 136.789 138.539 138.401 135.846C138.633 135.495 138.89 135.161 139.171 134.846C141.022 131.57 144.519 129.571 148.281 129.636C155.541 129.666 160.421 136.356 158.901 143.356ZM146.421 138.796C146.138 139.323 145.907 139.875 145.731 140.446L145.741 140.486C145.562 141.043 145.4 141.64 145.236 142.247C145.153 142.555 145.069 142.866 144.981 143.176C146.21 144.703 148.439 144.957 149.981 143.746C151.608 142.344 151.838 139.907 150.501 138.226C149.271 138.211 148.044 138.356 146.851 138.656L146.421 138.796Z" fill="#231F20"/>
<path d="M159.022 98.8862C159.462 99.6862 160.832 99.1462 160.522 98.2562C158.962 93.8662 157.412 89.5462 156.192 85.0762C157.799 86.4762 159.349 87.9395 160.842 89.4662C162.932 91.6062 164.682 94.3562 167.142 96.0662C167.762 96.4962 168.782 95.7662 168.482 95.0662C167.382 92.3662 165.012 90.2462 162.992 88.1862C160.475 85.6504 157.803 83.2725 154.992 81.0662C154.621 80.664 154.022 80.57 153.545 80.8394C153.068 81.1087 152.839 81.6705 152.992 82.1962C154.216 88.0129 156.246 93.6304 159.022 98.8862Z" fill="#231F20"/>
<path d="M248.742 93.4362C250.372 92.4362 251.492 90.4362 252.792 89.0962C253.708 88.1398 254.68 87.2382 255.702 86.3962C255.667 87.0196 255.597 87.6406 255.492 88.2562C255.153 89.5728 254.892 90.9085 254.712 92.2562C254.719 92.6178 254.939 92.9412 255.273 93.08C255.607 93.2188 255.991 93.1466 256.252 92.8962C258.592 90.6362 258.802 86.6262 258.492 83.5862C258.392 82.5862 257.322 81.6762 256.362 82.3662C254.369 83.777 252.529 85.3924 250.872 87.1862C249.482 88.7262 247.702 90.5862 247.422 92.6962C247.332 93.3562 248.232 93.7962 248.742 93.4362Z" fill="#231F20"/>
<path d="M293.272 261.536C297.692 261.616 301.502 259.056 304.732 256.256C305.129 255.845 305.245 255.238 305.028 254.71C304.812 254.181 304.303 253.83 303.732 253.816C297.522 253.816 290.992 253.316 284.852 254.376C284.512 254.473 284.277 254.783 284.277 255.136C284.277 255.489 284.512 255.8 284.852 255.896C289.576 256.612 294.357 256.876 299.132 256.686C297.082 257.846 294.942 258.796 292.862 260.006C292.555 260.201 292.411 260.571 292.505 260.922C292.599 261.272 292.909 261.521 293.272 261.536Z" fill="#231F20"/>
<path d="M201.781 241.736C201.339 241.49 200.801 241.494 200.363 241.746C199.925 241.998 199.651 242.461 199.641 242.966C199.641 249.786 199.921 257.576 202.911 263.826C203.156 264.151 203.574 264.294 203.967 264.189C204.36 264.083 204.65 263.75 204.701 263.346C204.301 257.346 202.981 251.606 202.591 245.646C206.891 248.406 211.201 251.106 215.681 253.596C216.341 253.956 217.171 253.006 216.531 252.486C211.751 248.686 206.801 245.206 201.781 241.736Z" fill="#231F20"/>
<path d="M116.422 272.416C113.132 269.506 108.732 267.896 104.982 265.666C104.517 265.407 103.95 265.41 103.488 265.674C103.025 265.937 102.735 266.424 102.722 266.956C102.392 271.776 102.012 279.346 104.962 283.466C105.207 283.859 105.682 284.045 106.129 283.923C106.576 283.8 106.89 283.4 106.902 282.936C107.122 280.346 106.122 277.616 105.852 275.026C105.662 273.136 105.592 271.235 105.642 269.336C108.862 271.026 112.082 273.026 115.562 273.886C116.352 274.076 117.082 273.026 116.422 272.416Z" fill="#231F20"/>
<path d="M133.421 373.566C131.111 371.946 128.071 371.056 125.201 370.206L129.521 367.136C131.661 365.626 133.791 363.456 136.521 363.256C137.091 363.256 137.591 362.436 137.041 361.996C135.171 360.506 133.201 361.396 131.331 362.556C127.891 364.696 124.621 367.166 121.331 369.486C120.854 369.789 120.596 370.343 120.671 370.903C120.746 371.464 121.141 371.93 121.681 372.096C125.231 373.336 129.171 375.276 132.951 375.466C133.991 375.526 134.191 374.096 133.421 373.566Z" fill="#231F20"/>
<path d="M215.151 361.166C218.972 359.975 222.919 359.234 226.911 358.956C224.451 360.666 221.801 362.136 219.761 364.266C219.533 364.506 219.466 364.857 219.591 365.164C219.716 365.471 220.01 365.675 220.341 365.686C224.891 365.626 229.191 361.636 232.201 358.576C232.618 358.132 232.736 357.485 232.504 356.923C232.271 356.36 231.73 355.986 231.121 355.966C225.391 355.526 219.371 356.346 214.441 359.476C214.06 359.72 213.909 360.203 214.084 360.62C214.26 361.038 214.71 361.268 215.151 361.166Z" fill="#231F20"/>
<path d="M286.082 415.796C290.082 415.956 294.362 414.106 298.142 413.036C298.639 412.882 299.001 412.452 299.068 411.936C299.135 411.419 298.894 410.911 298.452 410.636C293.033 407.668 287.413 405.085 281.632 402.906C280.802 402.576 280.202 403.976 281.022 404.346C285.552 406.396 289.952 408.766 294.262 411.246C291.262 411.916 288.102 412.646 285.652 414.246C285.363 414.458 285.236 414.825 285.331 415.17C285.427 415.514 285.726 415.764 286.082 415.796Z" fill="#231F20"/>
<path d="M229.152 487.216C227.989 489.089 227.036 491.084 226.312 493.166C224.092 488.796 221.932 484.346 220.162 479.786C219.822 478.916 218.422 479.266 218.732 480.176C220.605 485.918 222.815 491.545 225.352 497.026C225.588 497.422 226.016 497.665 226.477 497.665C226.938 497.665 227.366 497.422 227.602 497.026C228.842 494.116 230.392 491.116 230.992 488.026C231.137 487.697 231.095 487.317 230.883 487.027C230.67 486.737 230.32 486.583 229.963 486.622C229.606 486.661 229.297 486.887 229.152 487.216Z" fill="#231F20"/>
</svg>
