<svg width="583" height="392" viewBox="0 0 583 392" fill="none" xmlns="http://www.w3.org/2000/svg">
<path fill-rule="evenodd" clip-rule="evenodd" d="M561.123 140.958C563.364 141.316 565.608 141.675 567.846 142.207C572.216 143.207 573.126 145.407 573.006 148.887C572.432 149.292 571.982 149.85 571.706 150.497C569.297 156.055 566.917 161.628 564.536 167.2C545.452 211.874 526.391 256.493 493.156 292.947C458.772 330.519 414.606 357.776 365.606 371.667C261.406 401.207 143.066 367.887 71.4963 286.207C34.1233 243.383 12.1445 189.291 9.05625 132.537C9.48396 131.57 9.4321 130.459 8.91625 129.537C8.9043 129.222 8.89155 128.907 8.8788 128.592C8.82755 127.327 8.77625 126.06 8.77625 124.787C8.77918 123.936 8.46958 123.114 7.90625 122.477C10.3427 116.438 22.0655 113.979 28.8235 112.561C29.7765 112.361 30.6307 112.182 31.3463 112.017C41.6294 109.628 51.7285 106.507 61.5662 102.677C80.8798 95.2422 99.1486 85.3364 115.916 73.2066C126.215 65.6864 135.49 57.0796 144.773 48.4664C151.093 42.6024 157.415 36.7355 164.066 31.2066C180.836 17.2766 203.436 4.83659 225.896 10.9366C236.533 13.8265 245.62 20.6282 254.382 27.1872C255.595 28.0953 256.802 28.9988 258.006 29.8866C261.091 32.1605 264.17 34.4384 267.25 36.7162C275.113 42.5322 282.976 48.348 290.916 54.0966C291.852 54.8246 293.062 55.1004 294.22 54.8494C295.379 54.5984 296.366 53.8465 296.916 52.7966C304.545 48.0801 310.408 41.2349 316.263 34.3984C323.456 26.0009 330.637 17.6165 341.066 13.2066C366.066 2.63659 391.926 18.2766 411.956 32.1966C432.827 46.6285 452.794 62.3245 471.746 79.1966C476.987 83.8671 482.103 88.6888 487.22 93.5117C498.165 103.827 509.116 114.148 521.306 123.007C530.566 129.717 540.636 135.437 551.566 138.927C554.734 139.938 557.927 140.448 561.123 140.958ZM451.606 265.017C480.576 239.577 510.086 209.077 517.336 169.707V169.667C517.773 167.485 516.674 165.286 514.666 164.327C514.681 163.147 514.174 162.021 513.282 161.25C512.389 160.479 511.201 160.141 510.036 160.327C395.676 172.877 279.166 163.097 165.036 152.567C156.942 151.819 148.787 151.185 140.611 150.549C116.968 148.71 93.1504 146.858 70.1162 142.207C68.9756 141.917 67.7734 142.35 67.08 143.301C66.3866 144.252 66.3416 145.529 66.9663 146.527C64.0417 160.862 73.3553 174.626 81.4772 186.628C82.9643 188.826 84.4115 190.964 85.7363 193.037C95.9662 209.057 106.856 224.827 120.136 238.517C133.606 252.407 149.486 263.727 165.826 274.017L166.557 274.477C182.673 284.628 199.449 295.194 218.166 299.647C236.902 304.053 256.372 303.653 275.474 303.26C276.182 303.245 276.89 303.231 277.596 303.217C298.946 302.737 320.316 301.737 341.596 299.737C362.146 297.787 382.826 295.187 403.006 290.787C422.206 286.607 436.956 277.867 451.606 265.017Z" fill="#BE1E2D"/>
<path d="M418.799 196.356C424.799 206.046 435.329 197.936 441.669 193.266C448.409 188.316 455.919 185.476 463.199 181.526C467.519 179.157 471.584 176.348 475.329 173.146C454.569 174.546 433.759 175.226 412.949 175.346C413.919 182.556 415.129 190.426 418.799 196.356Z" fill="white"/>
<path d="M191.648 163.517C193.228 175.057 194.348 186.327 199.378 197.187C202.638 204.187 206.288 207.087 214.138 207.667C220.608 208.157 227.138 208.307 233.598 208.537C247.478 209.037 261.428 209.407 275.318 209.157C278.978 209.097 280.768 209.757 282.018 205.957C282.918 203.227 282.748 199.747 282.958 196.887C283.468 189.887 283.588 182.887 283.578 175.887C283.563 175.048 283.796 174.223 284.248 173.517C284.318 172.707 284.408 171.907 284.508 171.107C268.508 170.053 252.525 168.86 236.558 167.527C221.565 166.28 206.595 164.943 191.648 163.517Z" fill="white"/>
<path d="M149.316 159.377C137.316 158.167 125.316 156.967 113.316 155.687C118.416 159.747 123.316 164.047 128.706 167.757C136.261 172.986 144.089 177.81 152.156 182.207C156.556 184.607 161.026 186.87 165.566 188.997C168.826 190.527 176.106 195.307 179.146 193.577C182.536 191.637 181.906 182.987 182.146 179.437C182.481 173.822 182.521 168.195 182.266 162.577C171.28 161.557 160.296 160.49 149.316 159.377Z" fill="white"/>
<path d="M293.307 189.626C294.007 196.206 294.507 205.406 298.387 211.106C302.457 217.106 313.106 215.906 319.446 216.256C326.98 216.676 334.516 216.886 342.056 216.886C356.476 216.886 373.306 217.786 387.276 213.786C403.695 209.076 397.765 188.166 402.545 175.686L402.695 175.366C365.986 175.316 329.286 173.906 292.637 171.626C292.797 177.626 292.657 183.626 293.307 189.626Z" fill="white"/>
<path fill-rule="evenodd" clip-rule="evenodd" d="M546.068 126.687C551.658 129.252 557.547 131.106 563.598 132.207C564.888 132.439 566.261 132.568 567.655 132.699C571.48 133.058 575.459 133.431 578.288 135.997C585.848 142.787 581.868 157.337 577.288 164.567C576.902 165.175 576.35 165.661 575.698 165.967C554.258 221.047 527.508 275.687 483.598 316.247C400.628 392.907 276.588 412.237 172.698 369.367C75.8982 329.417 3.80819 237.757 1.52819 131.567C-2.42181 124.127 1.75819 115.017 8.65819 110.647C13.1647 107.793 18.3973 106.594 23.5419 105.415C24.2195 105.26 24.8955 105.105 25.5682 104.947C32.2882 103.377 38.9282 101.497 45.4982 99.3766C69.1265 91.6961 91.3619 80.256 111.348 65.4966C121.043 58.3389 129.795 50.0784 138.544 41.8214C148.104 32.7978 157.66 23.7783 168.438 16.2066C186.398 3.58663 210.148 -4.67337 231.788 2.89663C242.347 6.57432 251.348 13.2084 260.236 19.759C261.087 20.3866 261.938 21.0133 262.788 21.6366C265.863 23.8895 268.943 26.1367 272.023 28.384C279.661 33.9571 287.3 39.5312 294.868 45.1966C298.832 41.2818 302.617 37.017 306.416 32.737C318.773 18.8139 331.273 4.72958 350.548 2.00663C377.268 -1.79337 401.078 13.5766 421.938 28.2066C444.807 44.2619 466.603 61.7925 487.188 80.6866C490.172 83.4203 493.142 86.2103 496.124 89.0109C511.379 103.34 526.929 117.945 546.068 126.687ZM564.567 167.111C566.938 161.562 569.309 156.012 571.708 150.477V150.497C571.982 149.846 572.432 149.285 573.008 148.877C573.128 145.397 572.218 143.157 567.848 142.157C565.627 141.633 563.4 141.277 561.175 140.921C557.962 140.407 554.753 139.893 551.568 138.877C540.638 135.387 530.568 129.667 521.308 122.957C509.121 114.128 498.174 103.801 487.232 93.4794C482.111 88.6491 476.992 83.8201 471.748 79.1466C452.796 62.2746 432.829 46.5785 411.958 32.1466C391.928 18.2866 366.068 2.64663 341.068 13.2066C330.647 17.6132 323.468 25.9853 316.275 34.3755C310.409 41.2174 304.532 48.0713 296.878 52.7966C296.328 53.8466 295.341 54.5984 294.182 54.8494C293.024 55.1004 291.814 54.8247 290.878 54.0966C283.76 48.9688 276.72 43.7537 269.671 38.5318C265.778 35.6477 261.882 32.7615 257.968 29.8866C256.77 29.0034 255.57 28.1047 254.362 27.2013C245.593 20.6379 236.494 13.8286 225.858 10.9366C203.398 4.83663 180.798 17.2766 164.028 31.2066C157.428 36.7053 151.151 42.5319 144.88 48.3534C135.549 57.015 126.23 65.6652 115.878 73.2066C99.1267 85.3361 80.8749 95.2452 61.5782 102.687C51.7405 106.517 41.6414 109.638 31.3582 112.027C30.6426 112.192 29.7884 112.371 28.8354 112.571C22.0774 113.989 10.3546 116.448 7.91819 122.487C8.48152 123.124 8.79112 123.946 8.78819 124.797C8.81819 126.387 8.86819 127.967 8.92819 129.547C9.44404 130.469 9.4959 131.58 9.06819 132.547C12.1558 189.296 34.131 243.384 71.4982 286.207C143.068 367.887 261.408 401.207 365.608 371.647C414.608 357.756 458.774 330.499 493.158 292.927C526.41 256.419 545.473 211.801 564.567 167.111Z" fill="#231F20"/>
<path fill-rule="evenodd" clip-rule="evenodd" d="M514.668 164.317C514.683 163.137 514.176 162.011 513.283 161.24C512.391 160.468 511.203 160.131 510.038 160.317C395.678 172.867 279.168 163.087 165.038 152.557C156.947 151.809 148.798 151.175 140.628 150.539C116.992 148.701 93.1851 146.849 70.1181 142.197C68.9954 141.922 67.8176 142.346 67.1267 143.272C66.4357 144.199 66.3654 145.449 66.9481 146.447C64.0258 160.805 73.3231 174.535 81.4407 186.523C82.9343 188.729 84.3879 190.876 85.7181 192.957C95.9481 208.957 106.838 224.747 120.118 238.437C133.588 252.327 149.468 263.667 165.808 273.937L166.94 274.648C182.932 284.703 199.547 295.151 218.148 299.567C236.959 304.029 256.589 303.598 275.805 303.175H275.805L277.578 303.137C298.948 302.697 320.318 301.677 341.578 299.657C362.128 297.707 382.808 295.107 402.988 290.707C422.188 286.527 436.938 277.787 451.588 264.937C480.588 239.497 510.068 208.997 517.318 169.627C517.743 167.46 516.655 165.279 514.668 164.317ZM182.139 179.477C182.097 180.134 182.084 180.967 182.069 181.899C182.004 186.001 181.909 192.036 179.139 193.617C176.75 194.994 171.622 192.244 167.985 190.294L167.985 190.294C167.055 189.795 166.223 189.348 165.559 189.037C161.019 186.91 156.549 184.647 152.149 182.247C144.094 177.836 136.279 172.999 128.738 167.757C124.872 165.071 121.21 162.08 117.548 159.09L117.548 159.09L117.548 159.09L117.548 159.09L117.548 159.09L117.547 159.089L117.547 159.089C116.151 157.949 114.755 156.81 113.348 155.687C124.015 156.824 134.682 157.899 145.349 158.973L149.349 159.377C160.329 160.483 171.309 161.563 182.289 162.617C182.534 168.235 182.484 173.863 182.139 179.477ZM283.578 175.847C283.563 175.008 283.796 174.183 284.248 173.477V173.507C284.318 172.697 284.408 171.897 284.508 171.057C268.541 170.003 252.558 168.81 236.558 167.477C221.578 166.223 206.608 164.89 191.648 163.477C191.793 164.532 191.934 165.586 192.074 166.637L192.075 166.642C193.471 177.078 194.836 187.282 199.378 197.147C202.638 204.167 206.288 207.047 214.138 207.627C219.357 208.022 224.615 208.196 229.859 208.37L229.86 208.37L229.866 208.37L229.871 208.37C231.114 208.411 232.357 208.452 233.598 208.497C247.478 208.997 261.428 209.367 275.318 209.117C275.848 209.108 276.338 209.114 276.792 209.12C279.509 209.154 280.947 209.172 282.018 205.917C282.702 203.93 282.777 201.547 282.848 199.295C282.875 198.451 282.901 197.626 282.958 196.847C283.468 189.847 283.578 182.847 283.578 175.847ZM402.547 175.657C400.993 179.713 400.571 184.66 400.145 189.653C399.26 200.019 398.359 210.578 387.277 213.757C375.452 217.135 361.63 217.011 348.932 216.897L348.93 216.897C346.595 216.876 344.297 216.855 342.057 216.857C334.518 216.857 326.981 216.647 319.448 216.227C318.316 216.164 317.046 216.15 315.701 216.135C309.512 216.067 301.723 215.981 298.388 211.077C294.933 206.001 294.158 198.152 293.536 191.847L293.536 191.844C293.459 191.069 293.385 190.317 293.308 189.597C292.837 185.248 292.781 180.9 292.725 176.551V176.551C292.703 174.899 292.682 173.248 292.638 171.597C329.288 173.877 365.987 175.287 402.697 175.337L402.547 175.657ZM455.96 185.156C458.374 183.98 460.798 182.799 463.198 181.497V181.527C467.519 179.15 471.584 176.335 475.328 173.127C454.568 174.527 433.758 175.207 412.948 175.327C413.918 182.527 415.128 190.397 418.798 196.327C424.664 205.784 434.826 198.285 441.205 193.578C441.362 193.462 441.516 193.348 441.668 193.237C446.186 189.918 451.051 187.548 455.96 185.156Z" fill="#231F20"/>
</svg>
