<svg width="365" height="577" viewBox="0 0 365 577" fill="none" xmlns="http://www.w3.org/2000/svg">
<path d="M65.4855 398.136C68.4808 408.053 72.0707 417.781 76.2355 427.266C80.5055 436.596 84.8955 442.976 95.5955 444.726C115.345 447.956 135.685 443.136 154.945 439.116C175.505 434.829 196.065 430.523 216.625 426.196C235.185 422.296 254.065 419.036 272.095 413.026C287.785 407.796 306.825 399.466 315.395 384.346C321.085 374.286 318.275 363.426 316.035 352.786C314.095 343.579 311.935 334.419 309.555 325.306C299.808 288.164 286.343 252.099 269.365 217.656C262.445 223.656 252.715 226.086 244.885 221.926C242.885 248.006 265.285 271.316 268.155 297.056C269.395 308.056 267.275 320.396 259.255 328.646C250.305 337.846 239.135 335.036 229.835 328.016C211.595 314.246 205.335 291.356 199.375 270.426C197.625 264.296 195.835 258.176 193.565 252.216C191.495 246.766 188.645 237.916 183.015 235.006C177.875 232.366 174.675 236.716 175.875 241.616C176.798 244.694 177.941 247.702 179.295 250.616C181.655 256.346 184.795 262.246 186.085 268.336C188.025 277.476 182.705 285.266 173.425 286.486C164.145 287.706 156.725 281.606 152.495 273.866C149.685 268.666 148.285 262.936 146.495 257.336C144.875 252.196 138.365 237.336 133.935 248.986C129.315 261.166 135.095 276.376 137.785 288.446C140.915 302.506 144.785 316.636 146.725 330.926C148.215 341.776 147.845 352.926 142.975 362.926C133.515 382.356 111.605 385.586 94.3655 374.246C75.6055 361.916 65.4455 339.446 60.1855 318.366C57.466 306.783 55.6406 295.009 54.7255 283.146C53.8455 273.366 54.7255 258.546 47.1955 250.936C47.4562 254.934 47.406 258.946 47.0455 262.936C46.9637 263.981 46.4667 264.95 45.6655 265.626C45.0068 267.269 44.0083 268.755 42.7355 269.986C40.7195 271.772 38.1377 272.788 35.4455 272.856C32.5838 274.095 29.4101 274.423 26.3555 273.796C32.8955 292.746 38.4255 312.106 44.4355 331.186C51.4155 353.496 58.3555 375.846 65.4855 398.136Z" fill="#8DC63F"/>
<path fill-rule="evenodd" clip-rule="evenodd" d="M38.414 244.396C38.8831 246.995 39.197 249.62 39.354 252.256C38.244 260.606 34.544 270.356 24.414 265.016C23.891 264.739 23.3866 264.429 22.904 264.086L22.724 263.606C22.2874 262.348 21.1428 261.47 19.814 261.376C14.414 255.116 12.644 244.656 11.414 237.266C7.88405 215.986 7.55405 193.616 8.78405 172.116C11.104 131.506 22.284 91.096 46.284 57.846C57.304 42.596 71.184 28.966 87.184 19.036C96.964 12.976 107.334 9.30596 118.964 10.256C129.015 11.0754 138.835 14.4727 148.361 17.7688L148.365 17.7699L148.374 17.7733L148.388 17.7779C149.316 18.0991 150.241 18.4193 151.164 18.736C161.374 22.236 171.164 26.436 179.514 33.436C187.044 39.716 193.364 47.316 199.214 55.136C212.134 72.416 223.474 90.826 234.724 109.206L235.151 109.903L235.151 109.903C247.524 130.077 260.079 150.549 266.604 173.406C269.274 182.586 271.994 193.646 268.994 203.156C267.913 203.727 267.418 205.007 267.834 206.156V206.226C264.344 213.626 251.644 220.186 245.474 211.836C243.474 209.126 238.744 209.036 237.814 212.836C233.279 231.274 240.705 247.367 248.155 263.513L248.156 263.513C250.759 269.154 253.364 274.801 255.464 280.556C259.374 291.256 262.324 303.696 258.124 314.776C255.944 320.536 250.844 327.806 243.764 326.196C238.244 324.936 233.044 320.436 229.244 316.436C217.272 303.923 212.613 287.242 208.019 270.796C206.244 264.44 204.478 258.118 202.304 252.086L202.204 251.809L201.986 251.205L201.982 251.193C198.802 242.367 194.733 231.07 185.594 227.086C177.854 223.706 168.334 227.416 167.114 236.266C166.166 243.162 169.383 249.67 172.558 256.095C174.576 260.179 176.579 264.23 177.484 268.326C178.334 272.136 178.504 276.356 174.224 277.936C171.744 278.777 169.033 278.612 166.674 277.476C160.804 274.656 158.174 267.446 156.334 261.656C155.947 260.431 155.57 259.127 155.18 257.781L155.18 257.78C152.77 249.457 149.89 239.506 141.334 236.356C132.124 232.966 126.654 242.496 124.984 250.136C122.839 259.902 125.171 270.048 127.388 279.693C127.661 280.882 127.933 282.064 128.194 283.236C129.142 287.492 130.112 291.745 131.083 295.999L131.083 295.999L131.083 296L131.083 296.001L131.084 296.001C133.176 305.17 135.269 314.342 137.134 323.556C139.694 336.226 141.214 350.296 134.074 361.826C127.964 371.776 116.934 375.136 106.074 371.006C80.984 361.476 70.384 329.936 65.904 305.936C64.3737 297.833 63.6783 289.686 62.9823 281.532C62.5231 276.153 62.0637 270.77 61.364 265.396C59.894 253.976 54.904 243.206 43.364 239.396C40.214 238.396 37.904 241.586 38.414 244.396ZM217.483 128.786C215.54 128.607 213.745 129.839 213.214 131.716C213.037 132.268 212.952 132.846 212.964 133.426C213.006 135.354 214.556 136.908 216.484 136.956C217.07 136.965 217.653 136.885 218.214 136.716C220.091 136.185 221.323 134.39 221.144 132.447C220.965 130.504 219.426 128.965 217.483 128.786ZM182.724 109.176C185.234 103.176 192.964 99.706 198.804 104.766C205.504 110.566 206.074 121.856 199.064 127.596C192.054 133.336 182.224 129.956 180.934 120.826C180.361 116.851 180.984 112.795 182.724 109.176ZM132.424 171.906C122.444 183.236 113.294 168.676 109.614 160.236H109.564C108.354 157.446 103.884 159.446 104.764 162.276C108.344 174.636 118.534 188.686 133.044 180.686C145.684 173.676 148.404 152.686 140.404 141.346C138.834 139.116 134.274 139.556 134.634 142.906C134.839 144.836 135.168 146.836 135.502 148.867C136.818 156.857 138.212 165.328 132.424 171.906ZM38.454 152.746C43.404 144.746 55.684 150.376 57.654 157.886C59.184 163.726 55.224 169.236 50.074 170.766C49.6263 171.285 49.0402 171.667 48.384 171.866C43.814 173.286 39.324 170.556 37.384 166.366C35.625 161.909 36.0007 156.892 38.404 152.746H38.454ZM35.724 184.606C34.2147 185.021 33.0503 186.224 32.684 187.746L32.634 187.776C32.2849 188.994 32.482 190.304 33.174 191.366L33.094 191.266L33.164 191.396C33.9732 192.76 35.5244 193.502 37.094 193.276C38.4689 193.097 39.6533 192.219 40.224 190.956C40.3339 190.764 40.4341 190.568 40.524 190.366C41.1564 189.456 41.3369 188.306 41.014 187.246C40.5267 185.542 38.9763 184.362 37.204 184.346C36.6448 184.38 36.093 184.491 35.564 184.676L35.724 184.606Z" fill="#BE1E2D"/>
<path d="M49.8856 160.276C49.6885 159.116 48.9438 158.121 47.8856 157.606C47.3377 157.298 46.7315 157.107 46.1056 157.046C45.1056 156.966 45.5956 156.826 45.1856 157.246C45.1089 157.348 45.0387 157.455 44.9756 157.566C44.141 159.103 44.2981 160.988 45.3756 162.366C46.1388 163.215 47.3668 163.467 48.4028 162.987C49.4388 162.507 50.0403 161.407 49.8856 160.276Z" fill="white"/>
<path d="M214.424 434.936C221.274 458.386 227.254 482.026 234.904 505.246C238.904 517.246 242.904 529.366 247.614 541.126C250.204 547.556 260.724 575.056 270.104 566.016C275.104 561.226 272.104 551.016 271.044 545.206C270.044 540.066 268.884 534.966 267.544 529.906C264.454 518.306 260.544 506.906 256.544 495.636C248.944 474.216 240.944 452.866 237.044 430.396C229.504 431.976 221.954 433.436 214.424 434.936Z" fill="#F2B879"/>
<path d="M221.465 71.8459C236.135 94.0059 250.835 116.846 262.745 140.586C268.489 151.697 273.009 163.399 276.225 175.486C278.685 185.216 280.335 196.016 277.225 205.796C286.435 211.616 293.875 220.456 298.955 229.936C301.855 235.356 304.145 241.796 308.665 246.146C315.195 252.446 324.795 249.046 325.665 239.866C326.265 233.316 323.525 226.606 321.445 220.526C319.185 213.926 316.822 207.363 314.355 200.836C309.269 187.389 303.775 174.113 297.875 161.006C285.902 134.518 272.206 108.843 256.875 84.1459C242.875 61.6659 227.185 38.4659 202.045 27.5859C190.615 22.5859 178.415 18.8259 166.365 15.3359C168.825 16.4459 171.245 17.6159 173.595 18.9159C194.515 30.5159 208.585 52.3759 221.465 71.8459Z" fill="#BE1E2D"/>
<path d="M295.385 239.786C292.175 233.336 289.075 227.036 284.385 221.456C281.856 218.478 279.094 215.705 276.125 213.166C297.095 254.939 312.763 299.168 322.765 344.826C324.935 354.826 328.195 365.826 326.765 376.126C325.883 381.736 323.687 387.057 320.355 391.656C325.145 388.336 329.835 384.846 334.355 381.186C340.355 376.366 346.535 371.356 351.695 365.656C358.495 358.166 356.115 350.236 353.805 341.346L340.275 289.346C336.875 276.286 333.185 263.206 330.225 250.016C327.681 254.051 323.459 256.731 318.725 257.316C307.045 259.086 299.955 248.946 295.385 239.786Z" fill="#8DC63F"/>
<path d="M194.775 120.606C196.692 117.662 196.274 113.776 193.775 111.306C193.414 110.936 192.938 110.7 192.425 110.636C192.072 110.952 191.627 111.148 191.155 111.196C190.035 112.346 189.315 114.976 188.545 116.536C188.415 117.799 188.415 119.073 188.545 120.336C189.625 123.676 192.955 122.976 194.775 120.606Z" fill="white"/>
<path fill-rule="evenodd" clip-rule="evenodd" d="M360.062 333.099L360.062 333.099C362.031 339.806 364.05 346.684 364.425 353.486C365.228 368.158 350.716 379.028 339.424 387.486C338.056 388.51 336.735 389.5 335.495 390.456C324.545 398.956 308.965 409.356 295.745 413.956C289.96 415.538 284.828 417.291 279.826 419L279.826 419.001C275.879 420.349 272.015 421.67 267.975 422.856C260.295 425.116 252.505 427.036 244.665 428.776C248.441 449.552 255.494 469.389 262.553 489.241L262.553 489.241C263.57 492.102 264.587 494.962 265.595 497.826C269.065 507.696 272.385 517.666 275.065 527.826C275.239 528.482 275.415 529.142 275.592 529.808C278.07 539.099 280.787 549.289 280.405 558.826C280.095 566.296 276.095 574.266 268.095 575.826C259.665 577.466 253.835 569.876 249.925 563.606C240.082 547.848 234.229 529.268 228.6 511.397C227.681 508.479 226.768 505.58 225.845 502.716C218.825 480.956 211.875 458.786 207.345 436.346C199.491 437.952 191.642 439.636 183.791 441.32L183.789 441.321L183.779 441.323L183.778 441.323L183.777 441.323L183.775 441.324L183.774 441.324C168.559 444.588 153.331 447.856 138.025 450.566C127.855 452.376 117.525 453.736 107.175 453.566C98.6948 453.416 88.8748 452.866 81.5148 448.166C74.4443 443.637 70.9176 435.142 67.7847 427.595L67.7831 427.592C67.5756 427.092 67.3698 426.596 67.1648 426.106C63.1848 416.576 59.9948 406.766 56.9148 396.916C50.1615 375.269 43.4148 353.623 36.6748 331.976C34.7744 325.885 32.8191 319.796 30.8624 313.703L30.8618 313.701L30.8611 313.699L30.8609 313.698C26.1359 298.984 21.4029 284.245 17.4148 269.396C14.3346 266.847 11.8209 263.683 10.0348 260.106C4.16479 248.316 2.92479 234.426 1.82479 221.486C0.528436 206.63 0.161055 191.708 0.724791 176.806C2.72479 128.936 16.3248 80.9559 47.3948 43.6359C58.5048 30.3259 72.8848 16.2959 89.1548 8.21593C93.3982 6.14993 97.8829 4.62146 102.505 3.66593L104.025 3.34593C122.3 -0.564052 141.241 -0.0842566 159.295 4.74593C163.104 5.7789 166.802 6.87993 170.492 7.97841L171.425 8.25593C173.095 8.76357 174.776 9.26746 176.464 9.77334L176.466 9.77366L176.467 9.77419C191.737 14.3503 207.552 19.0898 220.635 28.2559C244.615 45.0759 260.215 72.2559 274.555 97.2559C291.039 125.772 305.411 155.458 317.555 186.076C318.616 188.773 319.725 191.503 320.845 194.259L320.847 194.263L320.848 194.265C325.773 206.386 330.905 219.017 333.105 231.636C333.358 233.077 333.512 234.534 333.565 235.996C333.707 236.226 333.824 236.471 333.915 236.726C338.973 251.509 342.819 266.775 346.651 281.984L346.651 281.985L346.651 281.986L346.651 281.987L346.652 281.988L346.652 281.989C347.91 286.984 349.167 291.972 350.465 296.936C352.991 306.603 355.515 316.269 358.035 325.936C358.651 328.294 359.353 330.685 360.062 333.099ZM256.825 84.1659C242.855 61.6859 227.135 38.4859 201.995 27.6059C190.565 22.6059 178.365 18.8259 166.295 15.3559C168.755 16.4659 171.175 17.6359 173.525 18.9359C193.914 30.2146 207.78 51.1929 220.372 70.2429L220.937 71.0986L221.445 71.8659C236.115 94.0259 250.815 116.816 262.725 140.606C268.464 151.711 272.98 163.406 276.195 175.486C278.655 185.216 280.305 196.016 277.195 205.796C286.405 211.616 293.845 220.456 298.925 229.936C299.661 231.312 300.358 232.755 301.063 234.212C303.132 238.492 305.263 242.901 308.635 246.146C315.195 252.446 324.795 249.046 325.635 239.866C326.164 234.088 324.095 228.187 322.172 222.702L322.169 222.694C321.913 221.964 321.659 221.24 321.415 220.526C319.148 213.926 316.785 207.363 314.325 200.836C309.258 187.349 303.758 174.079 297.825 161.026C285.851 134.538 272.155 108.863 256.825 84.1659ZM22.8748 264.106L22.7248 263.606C22.3047 262.361 21.1923 261.48 19.8848 261.356C14.456 255.097 12.7156 244.641 11.4856 237.251L11.4848 237.246C7.95479 215.966 7.62479 193.596 8.85479 172.096C11.1748 131.486 22.3248 91.0959 46.3548 57.8259C57.3548 42.5759 71.2248 28.9459 87.2548 19.0159C97.0248 12.9559 107.405 9.28592 119.035 10.2359C129.081 11.0579 138.961 14.4742 148.522 17.7801L148.522 17.7801L148.522 17.7802L148.522 17.7802C149.429 18.0939 150.334 18.4066 151.235 18.7159C161.445 22.2159 171.235 26.4359 179.585 33.4159C187.115 39.6959 193.435 47.2959 199.285 55.1159C212.205 72.3959 223.545 90.8059 234.795 109.186L235.626 110.551L235.627 110.551C247.801 130.529 260.155 150.801 266.725 173.396C269.395 182.576 272.095 193.636 269.115 203.146C268.034 203.717 267.539 204.997 267.955 206.146V206.216C264.465 213.616 251.765 220.216 245.595 211.826C243.595 209.116 238.865 209.026 237.935 212.826C233.333 231.284 240.762 247.382 248.219 263.539C250.825 269.186 253.434 274.841 255.535 280.606C259.445 291.306 262.395 303.746 258.195 314.826C256.015 320.586 250.915 327.826 243.835 326.246C238.305 324.986 233.115 320.456 229.315 316.486C217.343 303.988 212.684 287.302 208.091 270.852L208.091 270.852C206.315 264.493 204.549 258.169 202.375 252.136C202.27 251.846 202.164 251.552 202.058 251.256C198.878 242.42 194.808 231.113 185.665 227.136C177.925 223.756 168.405 227.466 167.185 236.316C166.234 243.232 169.457 249.757 172.639 256.2L172.639 256.2C174.646 260.266 176.638 264.298 177.555 268.376C178.405 272.186 178.555 276.376 174.295 277.986C171.815 278.827 169.104 278.662 166.745 277.526C160.875 274.666 158.245 267.526 156.405 261.706C156.014 260.474 155.634 259.163 155.241 257.81L155.24 257.805L155.239 257.802L155.239 257.802C152.825 249.485 149.942 239.553 141.405 236.406C132.195 233.016 126.725 242.546 125.055 250.186C122.911 259.971 125.238 270.087 127.453 279.72C127.728 280.917 128.002 282.106 128.265 283.286C129.171 287.344 130.097 291.399 131.023 295.454L131.023 295.456L131.023 295.458L131.024 295.46C133.162 304.826 135.3 314.194 137.205 323.606C139.765 336.276 141.285 350.346 134.145 361.876C127.985 371.826 116.955 375.186 106.145 371.056C81.0548 361.526 70.4548 329.936 65.9748 305.986C64.4655 297.898 63.7661 289.774 63.0657 281.638C62.6013 276.244 62.1365 270.844 61.4348 265.446C59.9548 254.066 54.9648 243.296 43.4348 239.446C40.2848 238.396 37.9748 241.586 38.4848 244.446C38.9538 247.045 39.2677 249.67 39.4248 252.306C38.3148 260.606 34.6148 270.406 24.4248 265.086C23.8866 264.795 23.3688 264.467 22.8748 264.106ZM267.525 529.876C264.455 518.276 260.525 506.916 256.525 495.606C255.883 493.799 255.238 491.993 254.593 490.186C247.602 470.601 240.594 450.965 237.005 430.366C230.084 431.783 223.139 433.167 216.206 434.547L214.405 434.906C216.738 442.892 218.97 450.901 221.201 458.908C225.522 474.41 229.84 489.904 234.885 505.216C238.855 517.246 242.875 529.336 247.595 541.096C247.679 541.304 247.771 541.534 247.871 541.784L247.887 541.824L247.894 541.842C250.916 549.395 261.032 574.672 270.085 565.986C274.436 561.749 272.705 553.37 271.478 547.435C271.313 546.632 271.156 545.873 271.025 545.176C270.055 540.036 268.865 534.936 267.525 529.876ZM315.395 384.316C306.825 399.436 287.785 407.766 272.095 412.996C257.585 417.833 242.483 420.895 227.45 423.944L227.45 423.944L227.443 423.946C223.83 424.678 220.221 425.41 216.625 426.166C196.065 430.486 175.505 434.793 154.945 439.086C153.565 439.372 152.18 439.663 150.79 439.955L150.789 439.955C132.773 443.738 113.93 447.695 95.5948 444.696C84.8948 442.946 80.5048 436.566 76.2348 427.236C72.07 417.75 68.4802 408.023 65.4848 398.106C60.4497 382.365 55.5095 366.595 50.5653 350.812L50.564 350.807C48.5073 344.242 46.4499 337.674 44.3848 331.106C42.4259 324.877 40.516 318.617 38.6043 312.352L38.6041 312.351C34.6606 299.427 30.7095 286.479 26.3048 273.716C29.3594 274.343 32.5331 274.015 35.3948 272.776C38.089 272.709 40.672 271.688 42.6848 269.896C43.9597 268.671 44.9586 267.188 45.6148 265.546C46.416 264.87 46.913 263.901 46.9948 262.856C47.3553 258.866 47.4055 254.854 47.1448 250.856C53.2615 257.046 53.8273 268.006 54.2991 277.144C54.4073 279.24 54.5106 281.241 54.6748 283.066C55.6182 294.917 57.4704 306.678 60.2148 318.246C65.4748 339.326 75.6348 361.796 94.3948 374.126C111.635 385.466 133.545 382.236 143.005 362.806C147.875 352.806 148.245 341.696 146.755 330.806C145.283 320.292 142.832 309.864 140.392 299.488C139.516 295.761 138.642 292.041 137.815 288.326C137.3 286.015 136.672 283.589 136.025 281.092L136.025 281.091C133.293 270.543 130.229 258.714 133.965 248.866C138.395 237.206 144.905 252.076 146.525 257.216C146.876 258.334 147.213 259.458 147.55 260.581C148.901 265.083 150.252 269.584 152.525 273.746C156.725 281.606 164.205 287.706 173.425 286.506C182.645 285.306 188.025 277.506 186.085 268.356C185.136 263.879 183.188 259.5 181.286 255.221C180.6 253.68 179.92 252.151 179.295 250.636C177.94 247.722 176.797 244.714 175.875 241.636C174.675 236.736 177.875 232.386 183.015 235.026C188.146 237.678 190.968 245.265 192.995 250.715L192.996 250.717C193.193 251.245 193.382 251.754 193.565 252.236C195.835 258.236 197.625 264.316 199.375 270.446C199.464 270.758 199.554 271.071 199.644 271.385L199.785 271.88C205.665 292.414 212.01 314.58 229.835 328.036C239.135 335.036 250.305 337.866 259.255 328.666C267.255 320.416 269.395 308.106 268.155 297.076C266.875 285.602 261.715 274.611 256.566 263.642C250.163 250.004 243.776 236.4 244.885 221.946C252.715 226.106 262.445 223.646 269.365 217.676C286.341 252.112 299.806 288.171 309.555 325.306C311.948 334.419 314.108 343.579 316.035 352.786C316.167 353.415 316.301 354.044 316.436 354.674C318.577 364.706 320.749 374.88 315.395 384.346V384.316ZM334.615 380.999C340.505 376.237 346.631 371.282 351.725 365.656C358.301 358.391 356.259 350.712 353.986 342.162C353.916 341.898 353.845 341.632 353.775 341.366L340.245 289.366C339.344 285.907 338.426 282.446 337.507 278.982C334.957 269.369 332.4 259.732 330.195 250.036C327.648 254.061 323.432 256.733 318.705 257.316C307.005 259.086 299.915 248.946 295.345 239.786C295.239 239.576 295.134 239.366 295.028 239.156C291.901 232.926 288.853 226.854 284.345 221.456C281.816 218.477 279.054 215.705 276.085 213.166C297.055 254.939 312.723 299.168 322.725 344.826C323.062 346.351 323.423 347.899 323.788 349.464C325.818 358.169 327.971 367.395 326.725 376.126C325.864 381.73 323.691 387.051 320.385 391.656C325.155 388.336 329.845 384.846 334.385 381.186L334.615 380.999Z" fill="#231F20"/>
<path fill-rule="evenodd" clip-rule="evenodd" d="M50.0241 170.766C49.5763 171.285 48.9902 171.667 48.3341 171.866C43.7241 173.286 39.2741 170.606 37.3541 166.366C35.6041 161.904 35.9909 156.887 38.4041 152.746C43.3541 144.786 55.6041 150.376 57.6041 157.886C59.1341 163.766 55.1741 169.236 50.0241 170.766ZM45.1541 157.286C45.0773 157.388 45.0072 157.495 44.9441 157.606C44.1009 159.137 44.2462 161.022 45.3141 162.406C46.0709 163.284 47.3179 163.556 48.3712 163.071C49.4245 162.586 50.0294 161.462 49.8541 160.316C49.6569 159.156 48.9122 158.161 47.8541 157.646C47.3061 157.338 46.6999 157.147 46.0741 157.086C45.5596 157.041 45.4611 156.978 45.4024 157.004C45.3562 157.024 45.3348 157.101 45.1541 157.286Z" fill="#231F20"/>
<path d="M132.995 180.696C145.635 173.696 148.335 152.696 140.355 141.356C138.785 139.126 134.225 139.566 134.585 142.916C135.585 152.426 139.635 163.656 132.375 171.916C122.375 183.236 113.245 168.686 109.565 160.246C108.355 157.456 103.885 159.456 104.715 162.296C108.295 174.606 118.485 188.746 132.995 180.696Z" fill="#231F20"/>
<path fill-rule="evenodd" clip-rule="evenodd" d="M198.755 104.776C205.455 110.606 206.015 121.866 199.015 127.606C192.005 133.356 182.175 129.956 180.885 120.836C180.311 116.861 180.935 112.805 182.675 109.186C185.185 103.196 192.915 99.7159 198.755 104.776ZM189.294 114.737C189.039 115.381 188.795 116 188.545 116.506V116.496C188.424 117.764 188.434 119.04 188.575 120.306C189.625 123.686 192.955 122.986 194.775 120.576C196.692 117.632 196.274 113.746 193.775 111.276C193.414 110.906 192.938 110.67 192.425 110.606C192.072 110.922 191.627 111.118 191.155 111.166C190.398 111.943 189.824 113.395 189.294 114.737Z" fill="#231F20"/>
<path d="M216.464 136.946C217.05 136.955 217.633 136.874 218.194 136.706C220.071 136.174 221.303 134.38 221.124 132.437C220.945 130.494 219.406 128.955 217.463 128.776C215.52 128.597 213.725 129.828 213.194 131.706C213.011 132.254 212.92 132.828 212.924 133.406C212.961 135.345 214.525 136.909 216.464 136.946Z" fill="#231F20"/>
<path d="M33.1346 191.276L33.2046 191.406C34.0137 192.77 35.5649 193.512 37.1346 193.286C38.5095 193.107 39.6939 192.229 40.2646 190.966C40.3745 190.774 40.4747 190.578 40.5646 190.376C41.1969 189.466 41.3775 188.316 41.0546 187.256C40.5673 185.552 39.0168 184.372 37.2446 184.356C36.6854 184.39 36.1336 184.501 35.6046 184.686L35.7246 184.606C34.1753 184.996 32.9699 186.213 32.5946 187.766C32.2542 188.993 32.466 190.308 33.1746 191.366L33.1346 191.276Z" fill="#231F20"/>
</svg>
