<svg width="567" height="469" viewBox="0 0 567 469" fill="none" xmlns="http://www.w3.org/2000/svg">
<path d="M446.211 376.51L439.951 376.33C443.311 389.67 440.591 405.86 438.951 419.07C437.431 431.51 435.351 443.88 433.041 456.2C443.651 450.29 449.181 430.78 451.881 421.3C456.081 406.53 458.081 391.63 459.601 376.44C455.142 376.712 450.672 376.735 446.211 376.51Z" fill="#58595B"/>
<path d="M155.36 395.22C155.93 401.81 156.92 408.32 158.06 414.82C160.19 426.94 162.06 439.49 166.63 450.97C168.42 455.47 168.53 455.34 169.32 450.68C169.721 447.651 169.839 444.591 169.67 441.54C169.53 435.744 169.72 429.944 170.24 424.17C171.24 414.04 172.49 400.03 178.24 391.17C170.212 389.679 162.404 387.183 155 383.74C155.25 387.57 155.05 391.5 155.36 395.22Z" fill="#58595B"/>
<path d="M220.39 420.73C219.442 427.551 218.134 434.317 216.47 441C215.63 444.333 214.703 447.667 213.69 451C213.21 452.54 212.57 454.09 212.18 455.66C212.285 455.564 212.403 455.483 212.53 455.42C236.39 443.97 238.58 412.11 243.84 389.27C236.33 388.27 228.84 387.21 221.32 386.38C223.43 397.56 222 409.61 220.39 420.73Z" fill="#58595B"/>
<path fill-rule="evenodd" clip-rule="evenodd" d="M145.59 48.21C144.923 53.0966 144.257 57.98 143.59 62.86C142.92 67.73 149.77 72 152.45 66.58C169.59 31.4 207.02 17.49 243.68 12.87C241.473 15.41 239.287 17.9666 237.12 20.54C233.08 25.31 238.04 31.2 243.54 28.85C274.7 15.57 309.03 13.82 342.43 12.21C367.06 11.03 392.84 10.35 416.32 18.21C413.197 19.7505 410.263 21.65 407.58 23.87C403.97 26.83 406.39 32.3 410.14 33.57C418.75 36.48 427.35 39.42 435.94 42.42C448.696 49.0625 460.355 57.6258 470.51 67.81C468.498 68.3421 466.485 68.8835 464.472 69.4253C462.323 70.0035 460.173 70.5821 458.02 71.15C453.68 72.3 452.17 79.33 456.68 81.43C466.27 85.88 475.84 90.36 485.36 94.96C485.984 95.2601 486.609 95.5596 487.235 95.8593C495.784 99.9543 504.428 104.095 511.51 110.45C517.483 115.787 522.355 122.336 527.157 128.793L527.158 128.793C528.321 130.357 529.48 131.915 530.65 133.45C531.643 134.757 532.691 136.057 533.753 137.374L533.754 137.375L533.755 137.377C534.991 138.911 536.245 140.466 537.45 142.08C534.858 141.276 532.211 140.662 529.53 140.24C524.93 139.52 519.38 144.3 522.73 149.08C541.82 176.34 552.21 208.98 553.54 242.08C550.48 236.73 546.87 231.97 539.87 229.97C537.701 229.409 535.397 230.037 533.814 231.622C532.231 233.207 531.606 235.512 532.17 237.68C538.06 258.23 544.45 280.76 539.45 301.86C537.722 299.255 535.803 296.782 533.71 294.46C529.96 290.31 523.43 293.81 523.22 298.81C522.626 312.453 519.44 325.859 513.83 338.31C511.98 334.59 505.87 333.96 503.52 337.96C496.02 350.92 483.45 357.11 469.02 359.27C466.876 359.495 465.248 361.304 465.25 363.46C459.277 365.774 452.274 365.4 445.703 365.05H445.703H445.702H445.702H445.701H445.7H445.7H445.7H445.699C444.009 364.96 442.348 364.871 440.74 364.83L409.31 364.04C407.134 363.096 404.605 363.524 402.86 365.13L402.23 365.63C401.897 365.896 401.601 366.205 401.35 366.55C393.802 367.128 386.045 367.008 378.367 366.89H378.366H378.366H378.365H378.364H378.363H378.362H378.362H378.361H378.36C373.945 366.822 369.557 366.754 365.25 366.82C361.269 366.882 357.287 366.96 353.304 367.038H353.302H353.3H353.298H353.296H353.294H353.292H353.29H353.288C343.132 367.236 332.973 367.435 322.82 367.37C317.79 367.33 315 375.18 320.09 377.44L320.79 377.75C302.71 380.201 284.453 381.101 266.22 380.44C256.193 380.072 246.185 378.869 236.18 377.667L236.179 377.667H236.179H236.178H236.178H236.178H236.177H236.177H236.177H236.176C222.245 375.992 208.318 374.318 194.35 374.9C192.582 375.009 190.978 375.975 190.055 377.487C189.132 379 189.007 380.868 189.72 382.49C172.82 381.334 156.54 375.664 142.58 366.07C141.327 365.07 139.562 365.025 138.26 365.96C134.689 366.495 131.258 368.849 127.937 371.127C125.919 372.511 123.943 373.867 122 374.77C114.712 378.133 106.862 380.113 98.85 380.61C91.5499 381.138 84.2139 380.373 77.18 378.35C72.9773 376.978 69.072 374.823 65.67 372C72.6932 371.829 79.609 370.237 86 367.32C91.46 364.67 87.48 356.67 82 357.89C70.2837 360.656 58.2286 361.71 46.21 361.02C45.0126 360.947 43.8005 360.886 42.5803 360.825C37.7779 360.583 32.8509 360.335 28.21 359.33C24.8041 358.601 21.6367 357.026 19 354.75C19.91 353.517 20.6094 352.142 21.07 350.68C27.3274 347.535 32.9169 341.711 37.6699 336.76C38.6745 335.713 39.6417 334.705 40.57 333.77C50.78 323.49 60.85 313 69.84 301.69C85.4 282.2 99.37 259.46 99.66 234.14C106.58 237.67 114.87 237.67 121.01 233.51C123.142 235.414 125.856 236.539 128.71 236.7C132.93 236.97 136.52 235.3 139.65 232.87C142.597 240.497 148.613 246.535 156.23 249.51C167.23 253.8 177.85 249.67 187.41 244.1C190.001 250.284 195.682 254.626 202.33 255.5C200.2 258.75 198.17 262.09 196.33 265.5C195.791 266.512 196.061 267.766 196.969 268.466C197.877 269.166 199.158 269.109 200 268.33C205.787 263.072 211.21 257.425 216.23 251.43C217.046 250.51 217.952 249.363 218.935 248.118C222.772 243.259 227.785 236.909 233.23 236.75C239.67 236.562 242.715 247.631 244.292 253.367C244.39 253.723 244.483 254.059 244.57 254.37C246.576 261.475 247.454 268.852 247.17 276.23C246.17 303.05 228.94 324.42 203.94 333.05C197.38 335.31 199.98 344.98 206.82 343.48C241.23 335.9 261.9 299.17 258.04 265.63C256.58 253.03 251.61 227.06 235.22 226.34C226.85 225.98 220.38 231.38 215.43 237.54C212.68 240.96 209.96 244.49 207.34 248.1C204.135 248.509 200.914 247.472 198.551 245.269C196.187 243.066 194.926 239.926 195.11 236.7C195.25 233.26 191.11 231 188.25 232.76L187.899 232.977L187.409 233.28C179.908 237.921 171.097 243.372 161.97 241.29C153.718 239.213 147.694 232.128 146.97 223.65C146.72 219.92 141.87 217 138.97 220.32C137.14 222.42 128.16 232.09 126.42 224.84C125.44 220.72 119.97 220.5 117.85 223.72C113.8 229.89 104.28 227.46 100.02 222.8C94.4994 216.756 93.472 207.251 92.6224 199.391C92.5948 199.135 92.5674 198.882 92.54 198.63C92.14 194.97 88.8 192.74 85.33 194.5C74.58 199.95 73.48 150.97 73.92 145.31C74.8915 131.461 78.9946 118.013 85.92 105.98C86.056 106.432 86.1856 106.884 86.3152 107.336C86.5096 108.014 86.704 108.692 86.92 109.37C88.12 113.13 93.37 114.05 95.45 110.48C103.128 97.216 111.743 84.5171 121.23 72.48C121.734 71.8441 122.24 71.2018 122.749 70.555L122.751 70.5536C129.254 62.3006 136.317 53.3378 145.59 48.21ZM222.621 291.523C221.745 294.26 220.871 296.988 220.59 299.86L220.64 299.83C220.36 302.62 224.27 305 226.56 303.26C236.83 295.38 237.62 274.63 228.83 265.38C227.24 263.71 224.56 265.06 224.47 267.19C224.369 269.534 224.505 271.875 224.64 274.214C224.826 277.413 225.012 280.61 224.59 283.81C224.24 286.468 223.429 288.999 222.621 291.523ZM139 325.14C134.89 336.63 119.45 337.92 112.56 328.21C111.606 326.792 110.89 325.228 110.44 323.58C108.34 320.75 108.56 316.8 109.79 313.31C110.42 309.66 112.09 306.51 115.12 305.17C118.045 302.215 121.89 300.346 126.02 299.87C139.25 298.69 142.49 315.25 139 325.14ZM480 159.43C473.329 155.638 466.057 153.02 458.5 151.69H458.46C457.982 151.542 457.466 151.746 457.216 152.179C456.967 152.613 457.052 153.161 457.42 153.5C458.14 154.19 458.809 154.932 459.42 155.72C459.93 156.32 460.85 155.56 460.48 154.91L460.35 154.68C469.32 157.97 477.74 161.64 485.48 167.48C485.903 167.814 486.432 168.18 487.001 168.575C488.733 169.775 490.84 171.234 491.48 172.83C493.38 174.2 492.92 174.83 490.12 174.83L486.17 174.05C485.036 173.824 483.887 173.557 482.728 173.288L482.727 173.288C478.919 172.404 475.003 171.496 471.17 171.91C469.97 172.04 469.26 173.68 470.51 174.36C474.68 176.64 503.8 185.18 496.2 172.07C493.023 166.571 485.491 162.441 480.119 159.495L480 159.43ZM437.5 306.08C444.08 302.87 451.03 305.08 456.7 309.13C457.56 309.8 458.44 310.45 459.34 311.07C463.26 309.69 464.52 307.543 463.12 304.63C462.765 302.209 461.163 298.903 460.125 296.758L460 296.5C457.505 291.627 454.702 286.918 451.61 282.4C451.225 281.733 451.224 280.912 451.607 280.245C451.991 279.577 452.7 279.164 453.47 279.16C460.099 279.843 464.824 283.678 469.643 287.589L469.644 287.59C471.178 288.835 472.722 290.088 474.34 291.25C473.96 287.715 471.651 283.32 470.16 280.483L470.111 280.391C469.934 280.053 469.768 279.738 469.62 279.45C467.983 276.263 466.087 273.216 463.95 270.34C458.552 263.079 451.893 256.846 444.29 251.94C443.837 251.61 443.708 250.99 443.992 250.506C444.277 250.023 444.881 249.834 445.39 250.07C454.589 254.83 462.523 261.709 468.54 270.14C472.54 275.83 481.01 288.09 478.09 295.47C477.906 296.095 477.447 296.601 476.843 296.846C476.24 297.092 475.558 297.049 474.99 296.73C472.449 295.267 470.088 293.289 467.714 291.3C464.715 288.788 461.697 286.259 458.27 284.73C461.244 289.243 463.77 294.035 465.81 299.04C465.872 299.199 465.936 299.362 466.002 299.531C467.476 303.3 469.902 309.499 467.71 313.27C465.87 316.42 461.82 316.82 458.71 315.61C457.126 314.997 455.798 313.958 454.468 312.918L454.468 312.918C453.389 312.073 452.309 311.228 451.09 310.61C447.222 308.681 443.465 308.967 439.433 309.274C439.098 309.3 438.76 309.325 438.42 309.35C437.643 309.333 436.964 308.82 436.737 308.077C436.51 307.333 436.785 306.528 437.42 306.08H437.5ZM422 200.44C410.395 191.642 395.612 188.159 381.3 190.85C380 191.11 380.24 193.43 381.65 193.32C392.29 192.23 402.85 193.7 412.35 198.82C412.465 198.882 412.59 198.949 412.723 199.019L412.955 199.143C416.132 200.833 423.096 204.538 421.75 206.95C421.162 207.992 411.034 207.788 405.898 207.684C404.479 207.656 403.441 207.635 403.09 207.65C400.84 207.7 400.19 211.14 402.54 211.7C405.76 212.47 429.13 219.47 425.76 224.65C425.111 225.619 417.869 225.068 414.142 224.784C413.216 224.714 412.507 224.66 412.17 224.65C410.956 224.626 409.749 224.594 408.546 224.563C404.327 224.454 400.156 224.345 395.9 224.54C395.267 224.563 394.743 225.039 394.659 225.667C394.575 226.294 394.956 226.891 395.56 227.08C403.72 229.18 411.91 229.44 420.33 229.28C420.917 229.27 421.629 229.299 422.414 229.33C426.387 229.491 432.215 229.726 433.05 225.4C433.815 221.324 428.888 218.487 425.708 216.655C425.353 216.451 425.021 216.259 424.72 216.08C421.611 214.228 418.361 212.623 415 211.28C415.544 211.256 416.088 211.235 416.632 211.214C417.448 211.183 418.264 211.152 419.08 211.11C419.446 211.09 419.842 211.083 420.255 211.074C422.162 211.036 424.431 210.991 425.82 209.75C429.71 206.26 424.68 202.44 422 200.44ZM310.89 73.62C318.17 66.89 327.06 64 336.71 62.45C337.486 62.3253 338.285 62.187 339.1 62.0459L339.1 62.0459C346.063 60.8404 354.201 59.4314 359.59 64.57C359.974 64.9723 360.156 65.5268 360.084 66.0784C360.012 66.63 359.694 67.1195 359.22 67.41C356.227 69.6966 353.173 71.8933 350.06 74C354.62 73.29 359.18 72.6 363.74 72.21C366.96 71.92 370.95 71.7 372.84 74.99C375.51 79.64 371.08 82.56 365.84 84.44C373.01 85.53 380.25 87.86 379.18 92.97C378.441 96.4977 373.927 97.3304 370.564 97.9511C369.923 98.0693 369.323 98.1799 368.8 98.3C366.562 98.8175 364.321 99.3645 362.077 99.9124L362.077 99.9125C355.649 101.482 349.193 103.058 342.67 103.97C340.4 104.29 339.4 101.18 341.67 100.45C348.103 98.4046 354.794 97.0116 361.449 95.6261L361.45 95.626L361.45 95.6259L361.451 95.6258C363.971 95.1012 366.486 94.5775 368.98 94.02C369.03 94.0081 369.131 93.9875 369.271 93.9589C370.548 93.6982 375.095 92.7693 374.68 91.67C374.424 90.9819 369.547 89.827 367.741 89.3996L367.737 89.3987C367.498 89.3419 367.313 89.2981 367.2 89.27C362.805 88.2298 358.315 87.6401 353.8 87.51C352.695 87.6591 351.679 86.8845 351.53 85.78C351.381 84.6754 352.155 83.6591 353.26 83.51C354.486 83.1606 355.719 82.8228 356.954 82.4846C359.536 81.7773 362.123 81.0686 364.66 80.25C365.169 80.084 365.648 79.9749 366.072 79.8784C367.563 79.5389 368.363 79.3568 367.32 77.41C366.262 75.4359 364.381 75.8312 362.4 76.2473C361.873 76.3582 361.338 76.4706 360.81 76.54C356.797 77.0533 352.792 77.6058 348.788 78.1583L348.788 78.1583L348.787 78.1584L348.787 78.1584C346.395 78.4884 344.003 78.8184 341.61 79.14C339.61 79.41 339.16 76.45 340.61 75.54C345.61 72.45 350.43 69.17 355.22 65.79C350.094 62.8834 341.384 64.5849 335.458 65.7425L335.457 65.7427C334.655 65.8994 333.904 66.046 333.22 66.17C325.63 67.53 318.31 69.98 312.29 74.98C311.32 75.8 310 74.49 310.89 73.62ZM309.334 334.79C310.292 336.331 311.67 338.548 311.67 339.42C311.679 343.477 307.52 343.367 304.872 343.296L304.871 343.296L304.856 343.296C304.566 343.288 304.295 343.281 304.05 343.28C300.467 343.203 297.064 342.47 293.647 341.734L293.646 341.734C291.713 341.317 289.776 340.9 287.8 340.6C287.108 340.44 286.402 340.8 286.125 341.454C285.849 342.108 286.083 342.866 286.68 343.25C293.27 347.41 306.22 349.62 313.68 346.55C319.62 344.11 316.51 338.57 313.88 334.2C324.483 333.367 335.135 334.989 345.01 338.94C346.72 339.57 348.07 337.36 347.28 335.94C338.66 320.404 325.837 307.612 310.28 299.03C309.838 298.889 309.357 299.071 309.119 299.469C308.881 299.867 308.947 300.377 309.28 300.7C322.21 308.944 333.064 320.059 341 333.18C331.124 329.921 320.636 328.954 310.33 330.35C309.597 330.372 308.927 330.773 308.562 331.409C308.197 332.045 308.188 332.826 308.54 333.47C308.69 333.753 308.983 334.225 309.332 334.787L309.333 334.788L309.334 334.79ZM244.4 175.61C250.808 171.55 257.996 168.879 265.5 167.77C265.559 167.761 265.619 167.752 265.681 167.743L265.801 167.725C268.719 167.291 273.715 166.547 273.29 171.01C273.154 172.476 271.92 173.833 270.874 174.983L270.874 174.984C270.615 175.269 270.367 175.542 270.15 175.8C267.23 179.3 264.29 182.8 261.35 186.25C263.118 185.974 265.963 185.131 268.239 184.457C269.761 184.006 271.029 183.63 271.55 183.55C275.011 183.022 278.522 182.908 282.01 183.21C286.7 183.65 292.14 184.68 295.55 188.21C300.87 193.71 297.39 203.67 289.43 203.45C288.731 203.425 288.151 202.902 288.054 202.209C287.958 201.516 288.374 200.854 289.04 200.64C294.28 198.64 295.18 193.57 291.04 189.71C289.38 188.17 283.81 187.4 282.04 187.21C277.241 186.744 272.397 187.126 267.73 188.34C266.894 188.549 266.041 188.836 265.187 189.123C261.954 190.211 258.71 191.303 256.36 188.17C255.923 187.396 256.049 186.426 256.67 185.79C257.99 184.238 259.313 182.689 260.636 181.14C262.621 178.817 264.606 176.494 266.58 174.16L268.4 172C269.96 170.667 269.527 170.36 267.1 171.08C265.643 170.946 263.826 171.42 262.226 171.838C261.794 171.95 261.379 172.059 260.99 172.15C257.21 173.04 236.45 179.54 238.32 186.15C238.71 187.56 236.68 188.05 236.18 186.74C234.314 181.956 239.724 178.554 243.501 176.179C243.813 175.982 244.115 175.793 244.4 175.61ZM164.94 138.466C166.611 135.598 169.175 131.196 164.82 129.29C160.535 127.472 153.715 132.728 150.7 135.052L150.69 135.06C147.152 137.776 144.079 141.049 141.59 144.75C141.699 141.302 142.033 137.865 142.59 134.46C142.876 132.727 143.459 130.856 144.051 128.96C144.926 126.151 145.82 123.285 145.79 120.73C145.75 117.69 143.72 115.66 140.86 117.45C139.122 118.531 137.885 121.726 136.951 124.137C136.676 124.847 136.427 125.49 136.2 125.99C134.562 129.693 133.224 133.522 132.2 137.44C130.039 145.589 129.492 154.081 130.59 162.44C130.77 163.7 132.77 163.36 132.77 162.15C132.91 148.58 134.76 135.64 141.18 123.5C141.84 122.25 142.25 121.36 142.41 121L142.375 121.084C142.217 121.468 141.877 122.292 141.34 123.69C140.28 126.871 139.526 130.146 139.09 133.47C138.123 139.418 137.745 145.447 137.96 151.47C138.01 153.15 140.5 154.08 141.33 152.38C143.377 148.006 146.199 144.038 149.66 140.67C151.608 138.809 153.75 137.163 156.05 135.76C157.266 135.025 158.521 134.357 159.81 133.76C162.76 133.75 163.54 134.48 162.17 135.96C162.097 137.163 160.883 138.902 159.819 140.426C159.283 141.194 158.785 141.907 158.49 142.47C157.33 144.68 156.23 146.91 155.23 149.19C153.185 153.454 151.573 157.913 150.42 162.5C150.04 164.17 152.58 165.47 153.34 163.73C154.268 161.595 155.159 159.459 156.047 157.329C158.661 151.062 161.252 144.851 164.7 138.88C164.777 138.746 164.858 138.608 164.94 138.466Z" fill="#F7941E"/>
<path d="M394 377.69H387.46C386.461 389.062 386.29 400.493 386.95 411.89C387.419 419.015 388.421 426.095 389.95 433.07C390.57 435.89 391.95 439.12 392.34 442.07C392.34 441.63 392.34 441.2 392.34 440.85C393.05 428.41 393.99 415.92 396.34 403.66C397.92 395.3 399.98 385.74 403.95 377.66C400.67 378 397.28 377.67 394 377.69Z" fill="#58595B"/>
<path d="M125.671 311.83C121.671 313.89 121.421 317.93 120.051 321.49C120.17 321.696 120.304 321.893 120.451 322.08C123.361 325.65 128.221 324.75 128.931 320.13C129.311 317.66 130.001 309.64 125.671 311.83Z" fill="white"/>
<path fill-rule="evenodd" clip-rule="evenodd" d="M115.101 305.17C118.026 302.215 121.87 300.346 126.001 299.87C139.251 298.69 142.491 315.25 138.981 325.14C134.871 336.63 119.431 337.92 112.541 328.21C111.587 326.792 110.871 325.228 110.421 323.58C108.321 320.75 108.541 316.8 109.771 313.31C110.401 309.66 112.101 306.51 115.101 305.17ZM120.521 322.08C123.431 325.65 128.291 324.75 129.001 320.13H128.931C129.311 317.66 130.001 309.64 125.741 311.83C122.626 313.422 121.787 316.197 120.934 319.019C120.684 319.848 120.432 320.681 120.121 321.49C120.24 321.696 120.374 321.893 120.521 322.08Z" fill="#231F20"/>
<path fill-rule="evenodd" clip-rule="evenodd" d="M116.18 63.84C125.44 52.24 135.39 40.3299 150.18 36C154.07 34.82 156.55 38.4299 156.05 41.8999C156.01 42.1748 155.973 42.4496 155.935 42.7244L155.935 42.7246L155.935 42.7248L155.935 42.7249C155.898 42.9999 155.86 43.2749 155.82 43.5499C179.79 14.9599 219.55 4.20995 256.26 1.05995C261.23 0.58995 262.68 6.90995 260.01 10.0599L257.53 12.9499C284.56 5.25077 313.051 3.42419 341.016 1.63127C341.855 1.57752 342.693 1.5238 343.53 1.46995C375.87 -0.61005 409.92 -1.29005 438.92 15.2399C443.86 18.0399 441.97 26.8299 435.92 26.3599C432.736 26.0921 429.53 26.3079 426.41 27L442.15 32.4799C443.383 32.8816 444.442 33.6932 445.15 34.7799C461.06 42.31 475.091 53.2932 486.22 66.9299C488.98 70.2899 488.38 76.0299 483.52 77.1799C481.4 77.6799 479.28 78.16 477.16 78.6199C483.38 81.4799 489.603 84.34 495.83 87.2C505.61 91.68 514.88 96.52 522.67 104.31C528.583 110.223 533.678 117.006 538.734 123.737C540.338 125.873 541.939 128.004 543.56 130.1C543.907 130.55 544.254 130.997 544.6 131.443C550.472 139.016 555.974 146.111 557.24 155.98C557.83 160.44 551.39 164.13 547.83 161.38C545.987 159.96 544.049 158.667 542.03 157.51C559.74 189.3 568.36 225.21 565.85 261.94C565.769 264.437 564.233 266.655 561.924 267.61C559.616 268.565 556.962 268.08 555.14 266.37C553.661 265.095 552.32 263.667 551.14 262.11C554.86 281.88 555.2 301.89 545.75 320.72C543.19 325.81 535.96 323.95 534.37 319.24C534.05 318.34 533.72 317.47 533.37 316.61C530.089 333.763 523.118 349.998 512.94 364.19C509.72 368.67 501.33 367.65 501.65 361.13C501.668 360.761 501.693 360.392 501.718 360.022L501.718 360.018C501.764 359.339 501.81 358.659 501.81 357.98C494.929 364.007 486.465 367.935 477.42 369.3C477.018 369.909 476.514 370.443 475.93 370.88C474.318 372.082 472.569 373.089 470.72 373.88C470.49 393.89 466.24 414.76 459.49 433.55C454.3 448.01 444.36 469.22 426.2 468.86C422.41 468.79 420.29 465.45 420.93 461.94C421.406 459.328 421.889 456.716 422.372 454.105L422.374 454.095L422.376 454.086L422.377 454.076L422.378 454.075C424.694 441.551 427.012 429.022 428.55 416.37C429.48 408.73 430.14 401.05 430.48 393.37C430.563 391.527 430.593 389.683 430.623 387.84C430.687 383.905 430.751 379.976 431.33 376.08L416.53 375.66C415.45 379.205 414.07 382.632 412.688 386.065C410.923 390.448 409.155 394.84 408 399.5C405.974 407.964 404.587 416.568 403.85 425.24C403.726 426.596 403.714 428.564 403.701 430.87V430.871V430.871V430.871V430.872C403.636 441.764 403.527 460.21 391.33 457.47C384.905 456.026 383.054 448.856 381.627 443.324L381.61 443.26C379.417 434.632 377.955 425.834 377.24 416.96C376.488 408.548 376.522 400.085 377.34 391.68C377.419 390.909 377.492 390.11 377.567 389.291C377.908 385.563 378.286 381.431 379.45 377.75L370.72 377.8C362.31 377.86 353.89 377.86 345.47 377.86C346.58 380.79 345.04 384.95 341.78 385.56C317.768 390.181 293.323 392.169 268.88 391.49C264.1 391.36 259.32 390.99 254.55 390.49C252.75 406.68 248.87 423.33 241.87 438.09C236.2 450.09 226.68 463.99 212.46 466.09C196.346 468.466 201.652 452.365 205.214 441.556L205.214 441.556C205.954 439.311 206.618 437.295 207 435.72C209.209 426.539 210.829 417.227 211.85 407.84C212.17 404.983 212.394 402.121 212.617 399.263C212.972 394.71 213.327 390.167 214.07 385.67C211.66 385.47 209.25 385.31 206.84 385.21C208.76 388.64 206 392.5 202.33 392.72C197.233 393.015 192.121 392.915 187.04 392.42C186.72 397.067 185.354 401.681 183.989 406.294C182.966 409.752 181.943 413.21 181.36 416.68C180.076 425.26 179.554 433.938 179.8 442.61C179.86 450.06 176.4 470.74 164.06 463.94C159.407 461.378 157.542 454.426 156.162 449.278L156.162 449.278C155.985 448.618 155.816 447.988 155.65 447.4C153.474 439.141 151.754 430.768 150.5 422.32L150.402 421.732L150.269 420.933C148.992 413.278 147.706 405.572 147.15 397.83C147.125 397.484 147.1 397.134 147.074 396.781V396.781C146.682 391.408 146.234 385.263 147.82 379.99C145.6 378.71 143.42 377.34 141.31 375.87C137.128 380.806 128.775 384.073 123.632 386.084L123.31 386.21C114.51 389.692 105.124 391.461 95.6601 391.42C83.5401 391.37 58.7801 386.96 55.8501 371.96C49.9901 371.62 44.1701 370.87 38.6501 370.1C30.7301 369 16.9501 366.84 12.9501 358.7C10.9141 359.01 8.83244 358.659 7.01008 357.7C6.60261 357.505 6.21137 357.277 5.84008 357.02C0.790082 355.75 0.0200815 347.41 1.02008 343.23C2.12008 338.61 6.17008 334.49 11.1201 334.4C14.6028 334.386 17.8417 336.186 19.6701 339.15C20.7996 338.381 21.8877 337.553 22.9301 336.67C26.4776 333.595 29.7731 330.196 33.0583 326.808L33.0589 326.807C34.0149 325.821 34.9699 324.836 35.9301 323.86C44.6601 315 53.3401 306.1 61.2801 296.53C77.1435 277.328 88.5874 254.87 94.8001 230.75C87.5501 224.34 85.0601 214.34 83.7401 204.75C66.1401 205.97 64.2401 167.98 64.1401 156.26C64.0001 132.5 70.5401 109.27 85.4601 90.63C88.2401 87.2199 93.2401 90.34 93.4601 93.92C93.4842 94.3861 93.5341 94.8459 93.584 95.3043L93.5841 95.3051L93.6012 95.4631L93.6201 95.6399C100.516 84.6107 108.049 73.9927 116.18 63.84ZM169.67 441.59C169.53 435.794 169.72 429.994 170.24 424.22V424.17C170.278 423.793 170.317 423.412 170.355 423.025C171.367 412.971 172.704 399.676 178.26 391.24C170.235 389.742 162.43 387.239 155.03 383.79C155.129 385.518 155.143 387.267 155.157 389.008C155.173 391.124 155.19 393.229 155.36 395.27C155.93 401.87 156.92 408.37 158.06 414.87C158.275 416.098 158.488 417.331 158.701 418.565C160.596 429.541 162.522 440.701 166.63 451.02C168.42 455.52 168.53 455.39 169.32 450.73C169.721 447.701 169.839 444.641 169.67 441.59ZM212.53 455.44C212.403 455.503 212.285 455.584 212.18 455.68C212.454 454.578 212.836 453.486 213.215 452.401C213.377 451.94 213.538 451.479 213.69 451.02C214.697 447.687 215.623 444.353 216.47 441.02C218.135 434.331 219.443 427.558 220.39 420.73C221.97 409.61 223.39 397.56 221.32 386.35C226.64 386.938 231.95 387.651 237.268 388.366C239.457 388.66 241.647 388.954 243.84 389.24C243.006 392.863 242.248 396.714 241.47 400.674L241.47 400.674L241.469 400.675L241.469 400.676C237.34 421.677 232.604 445.757 212.53 455.39V455.44ZM392.28 440.91C393.02 428.47 393.96 415.98 396.28 403.72V403.67C397.86 395.31 399.92 385.75 403.88 377.75C401.735 377.943 399.515 377.879 397.287 377.815C396.171 377.782 395.052 377.75 393.94 377.75H387.4C386.401 389.122 386.23 400.553 386.89 411.95C387.359 419.075 388.362 426.155 389.89 433.13C390.148 434.316 390.54 435.569 390.936 436.837C391.492 438.615 392.058 440.426 392.28 442.13V440.91ZM451.91 421.35L451.884 421.443C449.174 430.957 443.645 450.369 433.07 456.25C435.38 443.93 437.46 431.56 438.98 419.12C439.163 417.62 439.36 416.082 439.561 414.513V414.513C441.13 402.27 442.932 388.205 439.98 376.38L446.24 376.56C450.711 376.787 455.192 376.763 459.66 376.49C458.11 391.63 456.11 406.53 451.91 421.3V421.35ZM237.08 20.54C239.253 17.9733 241.44 15.4166 243.64 12.87C207 17.49 169.55 31.4 152.49 66.6C149.85 72.02 143 67.7499 143.67 62.88C144.337 57.9933 145.003 53.11 145.67 48.2299C136.39 53.3775 129.284 62.3896 122.756 70.6688C122.271 71.2839 121.789 71.8949 121.31 72.4999C111.824 84.5371 103.208 97.236 95.5301 110.5C93.4501 114.07 88.2001 113.15 87.0001 109.39C86.5901 108.26 86.2901 107.13 86.0001 106C79.0718 118.039 74.9686 131.494 74.0001 145.35C73.5301 151 74.6301 200 85.4901 194.5C88.9601 192.74 92.3001 194.97 92.7001 198.63C92.7278 198.885 92.7556 199.142 92.7836 199.4C93.633 207.25 94.6619 216.759 100.18 222.8C104.44 227.46 113.96 229.89 118.01 223.72C120.13 220.5 125.58 220.72 126.58 224.84C128.32 232.09 137.3 222.42 139.13 220.32C141.99 217 146.84 219.92 147.13 223.65C147.854 232.128 153.878 239.213 162.13 241.29C171.257 243.372 180.068 237.921 187.569 233.28C187.851 233.105 188.132 232.932 188.41 232.76C191.27 231 195.44 233.26 195.27 236.7C195.087 239.926 196.347 243.066 198.711 245.269C201.074 247.472 204.295 248.509 207.5 248.1C210.12 244.49 212.84 240.96 215.59 237.54C220.54 231.34 227.01 225.98 235.38 226.34C251.77 227.06 256.74 253.03 258.2 265.63C262.06 299.17 241.39 335.9 206.98 343.48C200.1 344.98 197.54 335.31 204.1 333.05C229.05 324.42 246.33 303.02 247.33 276.23C247.614 268.852 246.736 261.475 244.73 254.37C244.636 254.033 244.536 253.668 244.429 253.279C242.85 247.518 239.844 236.553 233.39 236.75C227.913 236.917 222.929 243.245 219.106 248.098C218.12 249.351 217.21 250.505 216.39 251.43C211.337 257.415 205.881 263.048 200.06 268.29C199.218 269.069 197.937 269.126 197.029 268.426C196.121 267.726 195.851 266.472 196.39 265.46C198.21 262.09 200.24 258.75 202.39 255.46C195.743 254.586 190.061 250.244 187.47 244.06C177.91 249.63 167.29 253.76 156.29 249.47C148.674 246.495 142.657 240.457 139.71 232.83C136.58 235.26 132.99 236.93 128.77 236.66C125.916 236.499 123.202 235.374 121.07 233.47C114.93 237.63 106.64 237.63 99.7201 234.1C99.4301 259.42 85.4601 282.16 69.9001 301.65C60.8501 313 50.7801 323.49 40.5901 333.77C39.6619 334.705 38.6947 335.713 37.6901 336.759C32.9371 341.711 27.3475 347.535 21.0901 350.68C20.6234 352.143 19.9171 353.518 19.0001 354.75C21.6418 357.02 24.8126 358.588 28.2201 359.31C32.8429 360.316 37.7717 360.563 42.5942 360.805C43.8118 360.867 45.0226 360.927 46.2201 361C58.2343 361.696 70.2861 360.648 82.0001 357.89C87.5001 356.67 91.4801 364.67 86.0001 367.32C79.6091 370.237 72.6933 371.829 65.6701 372C69.0721 374.823 72.9774 376.978 77.1801 378.35C84.214 380.373 91.55 381.138 98.8501 380.61C106.851 380.096 114.687 378.102 121.96 374.73C123.903 373.827 125.879 372.471 127.897 371.087C131.218 368.809 134.649 366.455 138.22 365.92C139.522 364.985 141.287 365.03 142.54 366.03C156.501 375.624 172.78 381.294 189.68 382.45C188.967 380.828 189.093 378.96 190.015 377.447C190.938 375.935 192.542 374.969 194.31 374.86C208.3 374.266 222.233 375.945 236.171 377.624C246.163 378.828 256.159 380.032 266.18 380.4C284.414 381.061 302.67 380.161 320.75 377.71L320.05 377.4C314.96 375.14 317.78 367.33 322.78 367.33C332.939 367.395 343.103 367.196 353.264 366.997C357.247 366.92 361.229 366.842 365.21 366.78C369.519 366.714 373.91 366.782 378.327 366.85C386.005 366.968 393.762 367.088 401.31 366.51C401.561 366.165 401.857 365.856 402.19 365.59L402.82 365.09C404.566 363.483 407.094 363.056 409.27 364L440.7 364.83C442.31 364.871 443.972 364.96 445.663 365.05C452.229 365.401 459.222 365.774 465.21 363.46C465.208 361.304 466.836 359.495 468.98 359.27C483.41 357.11 495.95 350.96 503.48 337.96C505.79 333.91 511.94 334.59 513.79 338.31C519.4 325.859 522.586 312.453 523.18 298.81C523.39 293.77 529.92 290.31 533.67 294.46C535.763 296.782 537.682 299.255 539.41 301.86C544.4 280.76 538.02 258.23 532.13 237.68C531.566 235.512 532.192 233.207 533.775 231.622C535.358 230.037 537.661 229.409 539.83 229.97C546.85 231.93 550.44 236.73 553.5 242.08C552.17 208.98 541.78 176.34 522.69 149.08C519.34 144.3 524.89 139.52 529.49 140.24C532.171 140.662 534.818 141.276 537.41 142.08C536.259 140.559 535.063 139.069 533.88 137.596C532.762 136.204 531.655 134.826 530.61 133.45C529.405 131.873 528.211 130.271 527.014 128.663C522.241 122.255 517.402 115.758 511.47 110.45C504.459 104.159 495.883 100.037 487.444 95.9821C486.734 95.6413 486.026 95.301 485.32 94.9599C475.8 90.3599 466.23 85.88 456.64 81.4299C452.13 79.3299 453.6 72.2999 457.98 71.1499C460.133 70.5821 462.283 70.0036 464.432 69.4254C466.445 68.8836 468.458 68.3421 470.47 67.81C460.315 57.6258 448.656 49.0625 435.9 42.42C434.321 41.8758 432.741 41.3309 431.161 40.7859C424.148 38.3666 417.127 35.9449 410.1 33.57C406.35 32.2999 403.93 26.8699 407.54 23.8699C410.224 21.65 413.157 19.7505 416.28 18.2099C392.8 10.34 367.02 11.0199 342.39 12.2099C308.99 13.8499 274.66 15.57 243.5 28.85C238 31.2 233.08 25.3099 237.08 20.54Z" fill="#231F20"/>
<path d="M226.57 303.23C236.84 295.35 237.63 274.6 228.84 265.35C227.25 263.68 224.57 265.03 224.48 267.16C224.24 272.71 225.28 278.23 224.6 283.78C223.92 289.33 221.18 294.31 220.6 299.83C220.36 302.62 224.27 305 226.57 303.23Z" fill="#231F20"/>
<path d="M141.59 144.73C141.699 141.282 142.033 137.844 142.59 134.44C143.3 130.14 145.84 124.99 145.79 120.71C145.79 117.71 143.72 115.64 140.86 117.43C138.61 118.83 137.17 123.77 136.2 125.97C134.562 129.673 133.224 133.502 132.2 137.42C130.039 145.569 129.492 154.061 130.59 162.42C130.77 163.68 132.75 163.34 132.77 162.13C132.91 148.56 134.77 135.62 141.18 123.48C141.84 122.23 142.25 121.34 142.41 120.98C142.27 121.32 141.92 122.16 141.34 123.67C140.28 126.851 139.526 130.126 139.09 133.45C138.123 139.398 137.745 145.427 137.96 151.45C137.96 153.13 140.5 154.06 141.33 152.36C143.377 147.986 146.199 144.018 149.66 140.65C151.608 138.789 153.75 137.143 156.05 135.74C157.266 135.005 158.521 134.337 159.81 133.74C162.76 133.74 163.54 134.46 162.17 135.94C162.06 137.75 159.37 140.77 158.49 142.45C157.33 144.66 156.24 146.89 155.23 149.17C153.185 153.434 151.573 157.893 150.42 162.48C150.04 164.15 152.58 165.48 153.34 163.71C157 155.29 160.08 146.86 164.7 138.86C166.34 136.02 169.39 131.22 164.82 129.27C160.53 127.45 153.7 132.72 150.69 135.02C147.15 137.742 144.077 141.021 141.59 144.73Z" fill="#231F20"/>
<path d="M238.29 186.15C236.42 179.54 257.18 173.04 260.96 172.15C262.79 171.72 265.22 170.91 267.07 171.08C269.504 170.34 269.937 170.647 268.37 172L266.55 174.16C263.26 178.05 259.94 181.91 256.64 185.79C256.019 186.426 255.893 187.396 256.33 188.17C259.33 192.17 263.74 189.34 267.7 188.34C272.364 187.128 277.204 186.745 282 187.21C283.79 187.4 289.36 188.21 291 189.71C295.15 193.57 294.25 198.71 289 200.64C288.334 200.854 287.918 201.516 288.015 202.209C288.111 202.902 288.691 203.425 289.39 203.45C297.39 203.67 300.83 193.71 295.51 188.21C292.1 184.68 286.66 183.65 281.97 183.21C278.482 182.908 274.971 183.022 271.51 183.55C270.21 183.75 264.26 185.79 261.31 186.25C264.25 182.77 267.19 179.3 270.11 175.8C271.2 174.5 273.11 172.8 273.25 171.01C273.69 166.39 268.32 167.35 265.46 167.77C257.956 168.879 250.768 171.55 244.36 175.61C240.63 177.98 234.12 181.56 236.11 186.74C236.65 188.05 238.68 187.56 238.29 186.15Z" fill="#231F20"/>
<path d="M381.63 193.28C392.27 192.19 402.83 193.66 412.33 198.78C415.1 200.27 423.17 204.33 421.73 206.91C420.98 208.24 404.73 207.54 403.07 207.61C400.82 207.7 400.17 211.1 402.52 211.66C405.71 212.43 429.11 219.43 425.74 224.61C424.93 225.86 413.84 224.7 412.15 224.61C406.68 224.46 401.35 224.25 395.88 224.5C395.247 224.523 394.723 224.999 394.639 225.627C394.555 226.254 394.936 226.851 395.54 227.04C403.7 229.14 411.89 229.4 420.31 229.24C423.87 229.18 432.06 230.54 433.03 225.36C433.88 220.83 427.68 217.83 424.7 216.04C421.591 214.188 418.341 212.583 414.98 211.24C416.34 211.18 417.7 211.14 419.06 211.07C421.12 210.96 424.11 211.22 425.8 209.71C429.69 206.22 424.66 202.44 421.98 200.4C410.38 191.608 395.606 188.125 381.3 190.81C380 191.11 380.24 193.43 381.63 193.28Z" fill="#231F20"/>
<path d="M286.591 343.21C293.151 347.37 306.101 349.58 313.591 346.51C319.531 344.07 316.421 338.51 313.791 334.16C324.394 333.327 335.046 334.949 344.921 338.9C346.631 339.57 347.981 337.36 347.191 335.9C338.57 320.364 325.747 307.572 310.191 298.99C309.749 298.849 309.268 299.031 309.03 299.429C308.791 299.827 308.858 300.337 309.191 300.66C322.158 308.905 333.044 320.034 341.001 333.18C331.137 329.927 320.663 328.96 310.371 330.35C309.637 330.372 308.968 330.773 308.602 331.409C308.237 332.045 308.229 332.826 308.581 333.47C309.141 334.53 311.711 338.23 311.711 339.42C311.711 343.93 306.581 343.29 304.001 343.24C298.391 343.12 293.221 341.39 287.751 340.56C287.049 340.361 286.308 340.711 286.015 341.379C285.723 342.048 285.968 342.829 286.591 343.21Z" fill="#231F20"/>
<path d="M312.27 75C318.27 70 325.61 67.55 333.2 66.19C338.98 65.19 349.42 62.51 355.2 65.81C350.41 69.19 345.57 72.47 340.59 75.56C339.11 76.47 339.54 79.43 341.59 79.16C347.99 78.3 354.38 77.38 360.79 76.56C363.32 76.23 365.91 74.88 367.3 77.43C368.69 79.98 366.94 79.52 364.64 80.27C360.89 81.48 357.03 82.45 353.24 83.53C352.135 83.6791 351.361 84.6954 351.51 85.8C351.659 86.9045 352.675 87.6791 353.78 87.53C358.295 87.6601 362.785 88.2498 367.18 89.29C368.18 89.53 374.37 90.91 374.66 91.69C375.12 92.91 369.47 93.92 368.96 94.04C359.88 96.04 350.52 97.65 341.65 100.47C339.35 101.2 340.35 104.31 342.65 103.99C351.45 102.76 360.13 100.3 368.78 98.32C372.05 97.57 378.28 97.19 379.16 92.99C380.23 87.88 372.99 85.55 365.82 84.46C371.1 82.58 375.53 79.66 372.82 75.01C370.93 71.72 366.94 71.94 363.72 72.23C359.16 72.62 354.6 73.31 350.04 74.02C353.153 71.9066 356.207 69.71 359.2 67.43C359.674 67.1395 359.992 66.65 360.064 66.0984C360.136 65.5468 359.954 64.9923 359.57 64.59C353.57 58.85 344.1 61.28 336.69 62.47C327.04 64.02 318.15 66.91 310.87 73.64C310 74.49 311.32 75.8 312.27 75Z" fill="#231F20"/>
<path d="M459.451 155.69C459.961 156.29 460.881 155.53 460.511 154.88L460.381 154.65C469.381 157.94 477.771 161.65 485.511 167.45C487.251 168.76 490.691 170.68 491.511 172.8C493.411 174.2 492.951 174.88 490.151 174.8L486.201 174.02C481.321 173.02 476.201 171.34 471.201 171.88C470.001 172.01 469.291 173.65 470.541 174.33C474.711 176.61 503.831 185.15 496.231 172.04C493.021 166.5 485.411 162.35 480.031 159.4C473.335 155.599 466.035 152.981 458.451 151.66C457.993 151.564 457.526 151.775 457.297 152.183C457.068 152.59 457.13 153.099 457.451 153.44C458.172 154.14 458.841 154.892 459.451 155.69Z" fill="#231F20"/>
<path d="M438.319 309.41C442.739 309.09 446.799 308.58 450.989 310.67C453.709 312.04 455.739 314.55 458.609 315.67C461.739 316.88 465.789 316.48 467.609 313.33C469.899 309.39 467.149 302.8 465.709 299.1C463.669 294.095 461.143 289.302 458.169 284.79C464.309 287.48 469.169 293.43 474.889 296.79C475.457 297.109 476.139 297.152 476.743 296.906C477.346 296.661 477.805 296.154 477.989 295.53C480.909 288.15 472.469 275.89 468.439 270.2C462.423 261.769 454.488 254.89 445.289 250.13C444.78 249.894 444.176 250.083 443.892 250.566C443.607 251.05 443.736 251.67 444.189 252C451.792 256.906 458.451 263.138 463.849 270.4C465.986 273.276 467.882 276.323 469.519 279.51C470.909 282.21 473.809 287.28 474.239 291.31C467.539 286.5 462.109 280.12 453.369 279.22C452.599 279.224 451.89 279.637 451.507 280.304C451.123 280.972 451.124 281.793 451.509 282.46C454.602 286.978 457.404 291.687 459.899 296.56C460.899 298.69 462.649 302.17 463.019 304.69C464.419 307.603 463.159 309.75 459.239 311.13C458.339 310.51 457.459 309.86 456.599 309.19C450.929 305.19 443.979 302.93 437.399 306.14C436.773 306.579 436.493 307.365 436.7 308.101C436.907 308.837 437.556 309.362 438.319 309.41Z" fill="#231F20"/>
</svg>
