<svg width="314" height="576" viewBox="0 0 314 576" fill="none" xmlns="http://www.w3.org/2000/svg">
<path d="M63.723 259.425C101.123 266.785 139.583 267.895 177.572 266.055C196.292 265.155 214.972 263.515 233.572 261.495C238.382 260.975 243.452 260.815 248.172 259.785C253.172 258.695 254.622 255.005 256.172 250.495C256.172 250.395 256.232 250.305 256.262 250.205C215.666 255.341 174.659 256.4 133.853 253.365C113.853 251.918 93.9562 249.515 74.163 246.155C63.593 244.365 49.1631 242.725 42.0932 233.705C41.7598 237.922 42.0973 242.164 43.0932 246.275C45.5031 255.665 55.4131 257.785 63.723 259.425Z" fill="#BE1E2D"/>
<path d="M9.44338 407.845C8.24338 416.135 6.44338 424.905 7.13338 433.335C7.99338 443.385 14.9434 450.565 25.5134 447.815C35.0134 445.345 40.4234 436.285 44.7634 428.225C44.8452 428.086 44.9354 427.953 45.0334 427.825C43.0334 375.525 41.9434 323.025 43.3034 270.725C35.2534 284.905 31.5634 301.555 27.5734 317.165C22.54 336.845 18.2067 356.678 14.5734 376.665C12.6667 387.038 10.9567 397.432 9.44338 407.845Z" fill="#F7941E"/>
<path fill-rule="evenodd" clip-rule="evenodd" d="M45.0536 209.865C53.3836 212.705 61.6336 215.295 69.9936 217.495C68.1944 198.029 70.1503 177.575 72.0046 158.182C72.0879 157.311 72.171 156.442 72.2536 155.575C72.4563 153.459 72.6527 151.32 72.8506 149.165L72.8507 149.164C74.4292 131.974 76.1021 113.756 81.8335 97.6551C84.4335 90.3551 88.3736 81.7851 95.2635 77.5451C100.764 74.1551 107.504 74.8251 111.594 79.9451C115.824 85.2451 115.784 92.7551 115.594 99.1651C115.254 108.272 114.884 117.375 114.484 126.475C126.074 123.705 138.604 122.995 150.344 122.645C162.601 122.336 174.863 123.004 187.014 124.645C189.134 110.575 195.404 95.4651 206.684 86.6451C211.684 82.7251 218.144 81.3951 223.634 85.1851C229.774 89.4251 231.024 97.1851 230.784 104.105C230.318 117.619 229.291 131.146 228.264 144.672L228.263 144.676C227.746 151.486 227.229 158.297 226.784 165.105C225.45 185.185 224.08 205.265 222.674 225.345L230.954 224.975C235.894 224.725 240.834 224.455 245.774 224.135C246.037 224.118 246.299 224.101 246.559 224.085C250.065 223.866 253.293 223.664 256.254 221.495C256.558 221.278 256.895 221.112 257.254 221.005C281.854 185.175 289.664 139.005 277.034 97.2651C273.854 86.7451 269.604 76.2651 262.474 67.6951C256.344 60.3651 248.914 53.9951 241.474 48.0351C225.826 35.3737 208.312 25.2132 189.554 17.9151C154.054 4.3851 114.354 3.4851 80.3036 21.6751C48.5636 38.6751 24.6336 69.2351 17.5136 104.675C10.1236 141.475 20.5936 181.095 44.9336 209.595C44.978 209.683 45.018 209.773 45.0536 209.865ZM257.154 165.665C256.424 166.935 254.714 166.015 254.934 164.725C255.205 163.142 255.515 161.596 255.823 160.068C256.773 155.341 257.691 150.773 257.314 145.725C257.312 145.283 257.639 144.909 258.078 144.851C258.516 144.792 258.929 145.068 259.044 145.495C260.314 151.955 260.584 159.745 257.154 165.665ZM252.015 85.9251C243.894 68.3551 228.954 57.8351 211.444 50.6651V50.6851C210.984 50.4951 210.724 51.2251 211.114 51.4551C212.94 52.6053 214.794 53.7274 216.65 54.8509C223.297 58.8751 229.975 62.9176 235.564 68.3351C241.2 73.8987 245.733 80.4775 248.925 87.7251C252.328 95.4715 254.543 103.687 255.495 112.095C256.098 117.08 256.086 122.048 256.074 127.021C256.066 130.287 256.058 133.556 256.225 136.835C256.236 137.427 256.676 137.922 257.263 138.002C257.849 138.082 258.406 137.722 258.575 137.155C262.645 120.925 258.905 100.845 252.015 85.9251Z" fill="#88E0FF"/>
<path d="M217.106 351.225C215.316 359.865 211.416 364.225 202.436 365.225C190.436 366.595 178.036 366.525 165.936 366.965C141.156 367.865 115.986 369.275 91.1959 368.225C83.8859 367.915 75.8259 366.825 69.9659 362.055C62.7559 356.175 62.5459 347.165 63.0859 338.575C64.5359 315.155 65.1659 291.255 68.2059 267.945C62.0659 266.945 55.7459 265.775 50.0859 263.365C50.2818 263.83 50.3805 264.33 50.3759 264.835C50.3808 264.882 50.3808 264.929 50.3759 264.975C50.3858 265.065 50.3858 265.155 50.3759 265.245C50.3759 295.375 50.1259 325.495 50.5559 355.625C51.3359 409.558 53.4826 463.452 56.9959 517.305C57.4559 524.195 57.8959 531.095 58.4259 537.985C58.8859 543.795 59.4259 550.455 63.4259 554.985C68.5459 560.715 75.7359 558.985 79.4259 552.765C82.5159 547.545 82.5059 540.945 82.9159 535.085C84.7893 508.565 86.6293 482.048 88.4359 455.535C81.5565 453.284 75.0565 450.007 69.1559 445.815C66.9759 444.215 68.2259 439.875 71.1559 441.055C80.6359 444.895 89.8559 448.735 99.8759 450.995C110.092 453.23 120.509 454.42 130.966 454.545C142.035 454.692 153.104 454.251 164.126 453.225C174.416 452.335 184.756 451.935 194.476 448.285C197.706 447.075 199.306 451.375 197.476 453.515C195.86 455.373 193.794 456.785 191.476 457.615C193.316 488.195 197.156 518.455 204.476 548.245C205.846 553.875 206.686 563.505 212.036 566.905C219.266 571.495 223.436 559.745 224.866 554.585C228.306 542.165 227.726 528.425 228.356 515.645C229.689 488.098 231.059 460.548 232.466 432.995C235.226 378.195 238.059 323.405 240.966 268.625C235.966 269.185 230.966 269.715 226.026 270.215C225.527 297.434 222.541 324.55 217.106 351.225Z" fill="#F7941E"/>
<path d="M238.856 232.615C228.976 233.188 219.089 233.625 209.196 233.925C189.416 234.525 169.629 234.602 149.836 234.155C115.236 233.365 76.7758 231.915 44.7158 217.155C44.1858 219.735 43.6458 222.385 43.1758 225.065C43.5801 225.28 43.924 225.593 44.1758 225.975C48.4758 232.355 55.2358 234.975 62.4958 236.665C70.6558 238.505 79.0358 239.665 87.3158 240.855C106.116 243.608 125.022 245.472 144.036 246.445C181.543 248.311 219.142 246.949 256.416 242.375C256.932 242.304 257.457 242.345 257.956 242.495C258.471 238.237 258.38 233.928 257.686 229.695C252.196 232.715 244.996 232.225 238.856 232.615Z" fill="#BE1E2D"/>
<path d="M249.436 267.645L248.986 267.725C247.186 303.058 245.366 338.355 243.526 373.615L242.656 390.355C252.856 406.625 261.106 426.925 276.866 438.355C284.436 443.835 300.356 449.585 304.936 437.455C309.076 426.455 299.986 412.965 295.826 403.175C277.258 359.912 261.737 315.403 249.376 269.975C249.151 269.211 249.172 268.396 249.436 267.645Z" fill="#F7941E"/>
<path d="M95.8436 166.225C95.6695 167.012 96.0934 167.81 96.8436 168.105C97.9336 168.345 99.0136 167.025 98.9136 166.025C98.8494 165.513 98.6255 165.033 98.2736 164.655C97.1636 164.935 96.0836 165.375 95.8436 166.225Z" fill="white"/>
<path fill-rule="evenodd" clip-rule="evenodd" d="M89.8538 97.4351C91.7438 92.8251 100.544 76.2951 106.234 85.3551C108.897 89.6105 108.434 95.7424 108.036 101.008V101.008V101.008C107.94 102.288 107.847 103.517 107.804 104.655C107.715 106.732 107.625 108.81 107.534 110.887C107.26 117.213 106.985 123.542 106.744 129.865C106.626 131.188 107.322 132.449 108.504 133.055C109.053 133.58 109.811 133.826 110.564 133.725C115.047 133.306 119.495 132.762 123.937 132.219C132.317 131.194 140.675 130.172 149.204 129.995C162.583 129.694 175.964 130.517 189.205 132.455C190.331 132.73 191.522 132.482 192.444 131.779C193.366 131.076 193.922 129.994 193.955 128.835C194.596 121.676 196.541 114.694 199.695 108.235C202.615 102.315 206.805 94.9151 212.695 91.5251C222.825 85.6951 223.365 101.475 223.015 107.255C222.69 112.53 222.309 117.801 221.928 123.071C221.724 125.893 221.521 128.714 221.325 131.535C220.78 139.375 220.23 147.215 219.679 155.055L219.679 155.062C218.027 178.58 216.375 202.098 214.875 225.615C211.085 225.755 207.285 225.895 203.495 225.995C184.862 226.502 166.211 226.555 147.544 226.155C130.154 225.785 112.714 225.045 95.4638 222.655C88.8137 221.735 82.3237 220.485 75.9336 218.965C76.684 210.479 76.9401 201.93 77.1963 193.38C77.4249 185.75 77.6536 178.117 78.2336 170.525C79.5736 153.025 81.5837 135.555 84.5137 118.255C85.7037 111.195 87.1337 104.085 89.8538 97.4351ZM89.3336 165.405C88.5636 169.875 91.8936 174.615 96.5636 174.875C101.371 175.06 105.462 171.403 105.814 166.605C106.034 162.165 101.734 155.925 96.6736 157.745C95.756 158.059 95.0548 158.809 94.8036 159.745C92.1236 160.545 89.8936 162.255 89.3336 165.405ZM171.934 167.315C172.219 165.613 173.047 164.048 174.294 162.855C176.483 160.773 179.57 159.928 182.514 160.605C188.205 162.015 190.795 169.355 187.595 174.125C184.234 179.125 175.944 179.055 172.834 173.805C171.718 171.835 171.396 169.514 171.934 167.315ZM129.524 175.935C129.674 172.975 124.924 172.285 124.314 175.225C124.238 175.602 124.159 175.993 124.076 176.395C123.07 181.328 121.707 188.009 123.584 192.595C125.444 197.085 131.234 197.995 135.444 197.085C144.994 195.015 151.344 182.605 146.544 173.785C145.054 171.055 141.344 172.565 141.104 175.265C141.018 176.217 140.975 177.203 140.932 178.195C140.714 183.217 140.488 188.411 134.644 190.315C133.452 190.787 132.14 190.861 130.904 190.525C129.486 189.969 129.502 189.096 129.526 187.826C129.531 187.519 129.537 187.189 129.524 186.835C129.374 183.205 129.344 179.565 129.524 175.935Z" fill="white"/>
<path fill-rule="evenodd" clip-rule="evenodd" d="M79.2559 362.605C86.3051 364.85 94.0765 364.656 101.558 364.469L101.559 364.469C103.141 364.43 104.709 364.391 106.256 364.375C127.709 364.168 149.146 363.615 170.566 362.715C173.42 362.595 176.293 362.512 179.173 362.428C186.871 362.204 194.621 361.979 202.196 361.055C205.776 360.625 208.256 360.005 210.446 356.995C212.221 354.556 212.662 352.333 213.233 349.463C213.263 349.309 213.294 349.153 213.326 348.995C214.373 343.775 215.319 338.542 216.166 333.295C219.494 312.553 221.388 291.607 221.836 270.605C183.316 274.385 144.506 276.225 105.916 272.945C95.1759 272.025 84.4859 270.668 73.8459 268.875L71.1459 268.435C71.0736 283.803 69.837 299.231 68.6036 314.62C67.9621 322.624 67.3215 330.617 66.8459 338.585C66.1959 349.405 67.8059 358.955 79.2559 362.605ZM127.719 331.319L127.719 331.32L127.616 331.955C127.569 332.24 127.533 332.547 127.496 332.865C127.367 333.967 127.223 335.193 126.556 336.015C125.387 337.441 122.914 337.252 120.909 337.099C120.34 337.056 119.809 337.015 119.356 337.015C117.026 337.015 115.226 336.685 115.096 334.015C114.967 330.71 115.135 327.4 115.596 324.125C115.706 323.325 116.446 323.265 116.986 323.595C117.211 323.465 117.466 323.393 117.726 323.385C121.006 323.218 124.287 323.721 127.366 324.865C128.174 325.124 128.651 325.957 128.466 326.785C128.212 328.292 127.965 329.807 127.72 331.316L127.72 331.317L127.72 331.318L127.72 331.319L127.719 331.319ZM157.505 338.185C158.219 338.175 158.843 337.7 159.045 337.015C159.715 334.225 160.565 328.575 158.025 326.415C157.072 325.587 155.699 325.626 154.469 325.661L154.468 325.661C154.227 325.668 153.991 325.675 153.765 325.675H146.436C145.915 325.682 145.43 325.938 145.131 326.364C144.832 326.79 144.756 327.333 144.926 327.825C144.853 328.681 144.617 329.6 144.377 330.534L144.376 330.534C143.758 332.939 143.113 335.445 145.166 337.245C146.366 338.325 147.856 338.325 149.366 338.325C151.265 338.318 153.169 338.277 155.071 338.235H155.071H155.072H155.072C155.883 338.218 156.695 338.2 157.505 338.185ZM166.496 306.445C167.746 295.365 180.496 286.815 191.136 290.395C191.346 290.465 191.505 290.639 191.556 290.855C196.693 293.289 200.207 298.206 200.846 303.855C202.336 315.065 197.646 328.575 184.286 327.405C173.906 326.515 165.316 316.955 166.496 306.445ZM112.616 295.125C112.3 295.976 112.141 296.877 112.146 297.785C111.485 303.698 111.438 309.663 112.006 315.585C112.022 316.414 112.687 317.084 113.516 317.105C128.609 317.418 143.669 318.205 158.696 319.465C159.67 319.46 160.456 318.669 160.456 317.695C160.503 314.195 160.526 310.695 160.526 307.195C160.529 306.579 160.572 305.918 160.616 305.24V305.24V305.24C160.728 303.529 160.847 301.706 160.346 300.195C159.476 297.601 157.214 297.477 154.79 297.344L154.79 297.344L154.79 297.344C154.345 297.32 153.894 297.295 153.446 297.255C149.193 296.88 144.937 296.49 140.681 296.1C131.888 295.294 123.096 294.489 114.336 293.815C113.536 293.824 112.837 294.356 112.616 295.125ZM83.3857 293.225C87.6053 291.955 92.6249 293.055 96.8245 294.075C97.5877 294.296 98.116 294.991 98.1244 295.785C98.0909 297.508 98.1492 299.338 98.2086 301.206V301.206C98.3444 305.476 98.4866 309.945 97.5545 313.785C96.6246 317.585 93.4848 319.555 89.6252 319.185C86.2354 318.855 81.4159 317.235 80.8559 313.405C80.096 308.175 81.4859 300.935 82.9657 295.675C82.5621 295.352 82.3658 294.836 82.4531 294.326C82.5404 293.817 82.8976 293.395 83.3857 293.225ZM81.9159 326.615C81.5177 326.44 81.0641 326.44 80.6659 326.615V326.585C76.1557 328.546 77.5432 336.497 78.3657 341.21C78.4787 341.857 78.581 342.444 78.6559 342.945C78.8601 343.698 79.5456 344.22 80.3259 344.215C84.8218 344.047 89.3176 343.853 93.8134 343.66C94.9376 343.611 96.0618 343.563 97.1859 343.515C98.1148 343.504 98.8651 342.754 98.8759 341.825C98.8293 337.232 98.8059 332.645 98.8059 328.065C98.7899 327.183 98.0784 326.471 97.1959 326.455C96.0649 326.406 94.8974 326.322 93.7113 326.235C89.7694 325.948 85.6211 325.646 81.9159 326.615Z" fill="#BE1E2D"/>
<path d="M117.773 326.545C117.883 328.005 117.933 329.465 117.963 330.935C117.963 331.345 117.713 333.805 117.963 333.995C118.214 334.185 119.674 333.995 120.184 333.995C121.182 334.076 122.186 334.076 123.184 333.995C123.724 334.245 124.074 334.145 124.184 333.695C124.294 333.245 124.364 332.545 124.444 331.965C124.674 330.455 124.914 328.965 125.145 327.435C122.756 326.723 120.263 326.422 117.773 326.545Z" fill="white"/>
<path d="M181.537 170.045C181.873 169.191 181.584 168.218 180.837 167.685C180.246 167.512 179.608 167.7 179.206 168.165C179.117 168.347 179.04 168.534 178.976 168.725C178.742 169.183 178.789 169.733 179.096 170.145C179.825 170.712 180.857 170.67 181.537 170.045Z" fill="white"/>
<path d="M185.585 309.525C187.435 309.525 188.995 307.245 187.915 305.595C186.915 304.145 185.405 304.535 184.015 304.015C182.915 304.734 182.411 306.085 182.771 307.348C183.131 308.611 184.271 309.494 185.585 309.525Z" fill="white"/>
<path d="M154.685 328.895C152.215 328.755 149.685 328.895 147.215 328.895C147.27 329.39 147.27 329.89 147.215 330.385C147.085 331.575 146.395 333.105 146.875 334.265C147.475 335.715 150.425 335.115 151.775 335.085L156.205 334.985C156.435 333.766 156.495 332.521 156.385 331.285C156.225 329.725 156.315 328.995 154.685 328.895Z" fill="white"/>
<path fill-rule="evenodd" clip-rule="evenodd" d="M180.315 293.795C202.315 286.725 203.315 328.315 182.315 323.615C174.645 321.895 168.815 314.815 169.495 306.855C169.995 301.465 174.085 296.405 179.225 293.585C179.526 293.843 179.94 293.923 180.315 293.795ZM183.505 301.905C181.898 302.437 180.644 303.71 180.135 305.325H180.155C179.72 307.039 180.072 308.858 181.114 310.287C182.156 311.716 183.78 312.606 185.545 312.715C187.428 312.699 189.196 311.809 190.33 310.306C191.464 308.804 191.836 306.86 191.335 305.045C190.445 302.355 185.855 299.255 183.505 301.905Z" fill="white"/>
<path d="M157.004 315.825C157.274 311.525 158.004 304.825 155.774 302.315C153.304 299.555 145.964 300.175 142.264 299.845C133.344 299.065 124.404 298.335 115.484 297.495C115.261 297.907 115.007 298.301 114.724 298.675C114.557 298.898 114.333 299.071 114.074 299.175C114.384 304.175 114.524 309.125 114.924 314.095C128.978 314.182 143.004 314.758 157.004 315.825Z" fill="white"/>
<path d="M87.9147 315.225C90.4547 315.615 93.7447 313.145 94.2747 310.725C94.4533 309.065 94.4867 307.392 94.3747 305.725L94.5547 297.145C91.5547 296.585 88.4547 296.545 85.4347 296.145C84.7747 301.575 81.7347 314.315 87.9147 315.225Z" fill="white"/>
<path d="M95.5042 340.225C95.5042 336.699 95.5276 333.169 95.5742 329.635C92.0374 329.658 88.504 329.411 85.005 328.895C84.742 329.098 84.4259 329.219 84.095 329.245C83.4667 329.284 82.8361 329.227 82.2252 329.075C80.1353 331.495 81.1652 337.235 81.7752 340.725C86.3482 340.512 90.9245 340.345 95.5042 340.225Z" fill="white"/>
<path fill-rule="evenodd" clip-rule="evenodd" d="M10.2244 361.485C6.41105 380.605 3.25438 399.842 0.754382 419.195C-0.865618 431.755 -1.07562 448.335 12.8344 454.045C26.1744 459.525 37.8344 451.285 45.5544 440.855C45.661 443.482 45.7744 446.112 45.8944 448.745C47.1944 478.805 48.6444 508.945 51.1644 538.935C52.0144 549.075 54.5344 561.055 65.2944 565.115C74.8744 568.725 83.8144 562.025 87.2944 553.295C89.5842 547.604 89.9534 541.269 90.3112 535.129C90.3785 533.976 90.4453 532.829 90.5244 531.695C91.1244 523.282 91.7177 514.868 92.3044 506.455C93.451 490.222 94.6077 473.998 95.7744 457.785C107.774 460.845 120.444 461.925 132.104 462.175C144.307 462.299 156.508 461.721 168.644 460.445C170.328 460.288 172.241 460.206 174.274 460.12L174.276 460.12H174.277C177.677 459.975 181.411 459.816 184.964 459.265C185.77 488.425 189.54 517.428 196.214 545.825C196.498 547.059 196.774 548.39 197.062 549.78L197.063 549.782C199.173 559.957 201.945 573.32 213.214 575.475C224.584 577.635 230.444 563.475 232.524 554.695C234.902 544.675 235.249 534.08 235.59 523.655L235.59 523.653C235.704 520.179 235.817 516.724 236.004 513.315C236.844 497.782 237.688 482.258 238.534 466.745C239.694 445.358 240.828 423.965 241.934 402.565C248.254 415.035 255.494 427.485 264.874 437.425C274.254 447.365 292.734 458.065 305.814 448.155C319.607 437.7 311.093 418.923 304.878 405.214C303.906 403.07 302.99 401.05 302.224 399.205C293.844 379.005 286.044 358.572 278.824 337.905C270.714 314.805 263.564 291.415 256.824 267.905C256.591 267.002 256.023 266.223 255.234 265.725C255.648 265.487 256.049 265.227 256.434 264.945C259.854 262.405 261.594 258.365 263.044 254.485C266.59 244.831 267.058 234.316 264.384 224.385C287.774 190.805 296.094 147.735 287.944 107.715C283.474 85.8351 274.554 66.7151 257.944 51.5651C242.394 37.1919 224.762 25.2505 205.644 16.1451C168.644 -1.21489 125.874 -6.43489 87.5644 9.76511C52.7744 24.4851 24.5644 54.4151 13.2744 90.6051C0.194382 132.485 10.4344 180.125 38.8244 213.365C35.594 222.967 34.4186 233.14 35.3744 243.225C35.9444 249.695 38.3744 255.225 42.9744 259.135C32.8944 271.985 28.2244 287.675 23.9744 303.275C18.6944 322.522 14.111 341.925 10.2244 361.485ZM232.494 432.985C231.108 460.538 229.738 488.088 228.384 515.635C228.237 518.62 228.156 521.657 228.074 524.717C227.806 534.761 227.531 545.056 224.894 554.575C223.464 559.735 219.294 571.485 212.064 566.895C207.71 564.128 206.343 557.254 205.247 551.74C204.996 550.479 204.759 549.289 204.504 548.235C197.214 518.445 193.374 488.185 191.504 457.605C193.823 456.775 195.889 455.363 197.504 453.505C199.284 451.365 197.684 447.065 194.504 448.275C186.05 451.45 177.127 452.166 168.175 452.884C166.835 452.992 165.494 453.099 164.154 453.215C153.147 454.263 142.091 454.727 131.034 454.605C120.577 454.48 110.16 453.29 99.9444 451.055C90.4346 448.906 81.6121 445.328 72.6169 441.68C72.1532 441.492 71.6891 441.303 71.2244 441.115C68.2844 439.935 67.0344 444.275 69.2244 445.875C75.125 450.067 81.625 453.344 88.5044 455.595C86.671 482.115 84.831 508.632 82.9844 535.145C82.9322 535.891 82.8868 536.649 82.8409 537.415C82.5267 542.663 82.191 548.27 79.4944 552.825C75.8244 559.045 68.6344 560.775 63.4944 555.045C59.4244 550.475 58.9044 543.815 58.4944 538.045C57.9644 531.155 57.4944 524.255 57.0644 517.365C53.511 463.545 51.3644 409.652 50.6244 355.685C50.3251 334.712 50.3698 313.745 50.4145 292.775C50.434 283.619 50.4535 274.462 50.4444 265.305C50.4543 265.215 50.4543 265.125 50.4444 265.035C50.4492 264.989 50.4492 264.942 50.4444 264.895C50.449 264.39 50.3503 263.89 50.1544 263.425C55.8144 265.835 62.1544 267.005 68.2744 268.005C66.0375 285.386 65.096 303.095 64.1606 320.689C63.8415 326.69 63.5232 332.678 63.1544 338.635C62.6144 347.225 62.8244 356.235 70.0344 362.115C75.8944 366.885 83.9544 367.975 91.2644 368.285C111.904 369.159 132.834 368.328 153.543 367.506C157.707 367.341 161.862 367.176 166.004 367.025C169.186 366.909 172.386 366.829 175.594 366.748C184.586 366.522 193.638 366.295 202.504 365.285C211.504 364.285 215.384 359.935 217.174 351.285C222.619 324.614 225.615 297.501 226.124 270.285C231.124 269.785 236.124 269.285 241.064 268.695C238.138 323.435 235.281 378.198 232.494 432.985ZM73.8444 268.875L71.1444 268.435C71.0714 283.943 69.8128 299.513 68.5565 315.054L68.5565 315.055C67.9204 322.923 67.285 330.784 66.8044 338.625C66.1544 349.425 67.7644 358.975 79.2144 362.625C86.254 364.898 93.9802 364.693 101.399 364.497L101.403 364.497C103.025 364.454 104.632 364.411 106.214 364.395C127.668 364.188 149.104 363.635 170.524 362.735C173.378 362.615 176.251 362.532 179.131 362.448C186.829 362.224 194.579 361.999 202.154 361.075C205.734 360.645 208.214 360.015 210.404 357.015C212.174 354.577 212.615 352.37 213.177 349.55L213.178 349.547C213.213 349.372 213.248 349.195 213.284 349.015C214.324 343.802 215.271 338.568 216.124 333.315C219.452 312.573 221.347 291.627 221.794 270.625C183.284 274.385 144.504 276.245 105.914 272.945C95.161 272.025 84.4711 270.668 73.8444 268.875ZM298.857 409.601L298.857 409.602C303.163 418.389 308.223 428.718 304.934 437.425C300.354 449.555 284.434 443.805 276.864 438.325C265.075 429.797 257.494 416.289 250.148 403.2C247.674 398.792 245.227 394.432 242.654 390.325L243.524 373.585C245.364 338.252 247.184 302.955 248.984 267.695L249.434 267.615C249.177 268.357 249.156 269.161 249.374 269.915C261.733 315.354 277.255 359.872 295.824 403.145C296.679 405.156 297.741 407.324 298.854 409.595L298.857 409.601ZM256.454 242.365C256.97 242.294 257.496 242.335 257.994 242.485C258.524 238.226 258.446 233.913 257.764 229.675C253.308 232.117 247.767 232.292 242.57 232.457C241.318 232.496 240.086 232.535 238.894 232.605C229.021 233.185 219.134 233.622 209.234 233.915C189.441 234.515 169.654 234.592 149.874 234.145C115.274 233.365 76.8144 231.915 44.7544 217.145C44.2144 219.725 43.6844 222.375 43.2144 225.055C43.6187 225.27 43.9626 225.583 44.2144 225.965C48.5344 232.345 55.2744 235.015 62.5344 236.655C69.8498 238.305 77.3421 239.392 84.7806 240.471L84.7885 240.472C85.6446 240.596 86.5 240.72 87.3544 240.845C106.188 243.572 125.094 245.435 144.074 246.435C181.582 248.301 219.18 246.939 256.454 242.365ZM108.484 133.055C109.034 133.58 109.792 133.826 110.544 133.725C115.027 133.306 119.475 132.762 123.917 132.219L123.917 132.219C132.297 131.194 140.655 130.172 149.184 129.995C162.563 129.694 175.943 130.517 189.184 132.455C190.311 132.73 191.501 132.482 192.424 131.779C193.346 131.076 193.901 129.994 193.934 128.835C194.575 121.676 196.521 114.694 199.674 108.235C202.604 102.315 206.794 94.9151 212.674 91.5251C222.804 85.6951 223.344 101.525 222.994 107.255C222.669 112.53 222.288 117.801 221.907 123.07C221.703 125.892 221.5 128.714 221.304 131.535C220.85 138.07 220.394 144.605 219.937 151.139C218.203 175.965 216.469 200.79 214.854 225.615C211.064 225.755 207.264 225.895 203.474 225.995C184.808 226.515 166.158 226.568 147.524 226.155C130.134 225.785 112.694 225.045 95.4444 222.655C88.7944 221.735 82.3044 220.485 75.9144 218.965C76.6648 210.478 76.9209 201.93 77.1771 193.38V193.38C77.4057 185.749 77.6344 178.117 78.2144 170.525C79.5544 153.025 81.5644 135.525 84.4944 118.255C85.6844 111.195 87.1144 104.085 89.8344 97.4351C91.7244 92.8251 100.524 76.2951 106.214 85.3551C108.888 89.6279 108.41 95.7926 108.001 101.072L108.001 101.072C107.904 102.329 107.811 103.536 107.764 104.655C107.675 106.732 107.585 108.809 107.495 110.887L107.495 110.89C107.22 117.215 106.945 123.543 106.704 129.865C106.59 131.192 107.295 132.455 108.484 133.055ZM80.2044 21.6351C48.4644 38.6351 24.5344 69.1951 17.4144 104.635C10.0244 141.435 20.4944 181.055 44.7344 209.565C44.8142 209.664 44.8877 209.767 44.9544 209.875C53.2844 212.715 61.5344 215.305 69.8944 217.505C68.0952 198.039 70.0511 177.585 71.9055 158.192C71.9888 157.321 72.0718 156.452 72.1544 155.585C72.3561 153.477 72.5516 151.347 72.7485 149.202L72.7486 149.2L72.7487 149.199V149.199C74.3281 131.989 75.9996 113.776 81.7344 97.6651C84.3344 90.3651 88.2744 81.7951 95.1644 77.5551C100.664 74.1651 107.404 74.8351 111.494 79.9551C115.774 85.2551 115.734 92.7651 115.494 99.1751C115.161 108.282 114.791 117.385 114.384 126.485C125.974 123.715 138.504 123.005 150.244 122.655C162.501 122.346 174.764 123.014 186.914 124.655C189.034 110.575 195.304 95.4651 206.584 86.6551C211.604 82.7351 218.044 81.4051 223.534 85.1951C229.684 89.4351 230.924 97.1951 230.684 104.115C230.227 117.976 229.165 131.851 228.105 145.708L228.105 145.709L228.105 145.71C227.611 152.166 227.117 158.619 226.684 165.065C225.371 185.145 224.001 205.225 222.574 225.305L230.854 224.935C235.794 224.685 240.734 224.415 245.674 224.095C245.936 224.078 246.197 224.062 246.456 224.045L246.46 224.045C249.965 223.826 253.194 223.624 256.154 221.455C256.458 221.238 256.796 221.072 257.154 220.965C281.754 185.135 289.564 138.975 276.934 97.2251C273.754 86.6551 269.504 76.1751 262.374 67.6551C256.254 60.3251 248.824 53.9951 241.374 47.9951C225.727 35.3337 208.213 25.1732 189.454 17.8751C153.954 4.34511 114.254 3.44511 80.2044 21.6351ZM42.0944 233.705C48.5157 241.961 61.2484 244.041 71.469 245.71C72.39 245.86 73.2906 246.007 74.1644 246.155C93.9377 249.488 113.834 251.892 133.854 253.365C174.677 256.41 215.702 255.358 256.314 250.225C256.314 250.325 256.264 250.415 256.224 250.515C254.704 255.025 253.224 258.715 248.224 259.805C244.899 260.51 241.401 260.812 237.942 261.111L237.941 261.111L237.94 261.111C236.489 261.237 235.045 261.361 233.624 261.515C214.994 263.515 196.314 265.175 177.624 266.075C139.624 267.915 101.174 266.805 63.7744 259.445C55.4644 257.805 45.5544 255.685 43.1244 246.295C42.1164 242.179 41.7687 237.93 42.0944 233.705ZM43.3049 270.745C43.3052 270.731 43.3056 270.718 43.3059 270.705L43.3159 270.725C43.3122 270.732 43.3086 270.738 43.3049 270.745ZM45.036 427.805C42.9964 375.518 41.9464 323.031 43.3049 270.745C36.1146 283.402 32.4036 298.026 28.8306 312.107C28.4021 313.795 27.9756 315.476 27.5452 317.145C22.5184 336.812 18.1849 356.645 14.5447 376.645C12.6513 387.012 10.9512 397.405 9.44449 407.825C9.22634 409.332 8.98737 410.855 8.74668 412.389C7.66335 419.292 6.54525 426.417 7.13439 433.315C7.99442 443.365 14.9447 450.545 25.5152 447.795C35.0156 445.325 40.4258 436.265 44.766 428.205C44.8478 428.066 44.938 427.933 45.036 427.805Z" fill="#231F20"/>
<path d="M135.442 197.055C144.992 194.985 151.342 182.575 146.542 173.755C145.052 171.025 141.342 172.535 141.102 175.235C140.582 181.005 141.682 188.005 134.643 190.285C133.451 190.757 132.139 190.831 130.903 190.495C129.143 189.785 129.593 188.625 129.523 186.805C129.383 183.175 129.353 179.535 129.523 175.905C129.673 172.905 124.923 172.255 124.313 175.195C123.313 180.195 121.543 187.635 123.573 192.565C125.413 197.025 131.233 197.965 135.442 197.055Z" fill="#231F20"/>
<path fill-rule="evenodd" clip-rule="evenodd" d="M182.514 160.605C188.205 162.015 190.795 169.355 187.595 174.125C184.235 179.135 175.944 179.055 172.834 173.805C171.718 171.835 171.396 169.514 171.934 167.315C172.219 165.613 173.047 164.048 174.294 162.855C176.483 160.773 179.57 159.928 182.514 160.605ZM179.204 168.165C179.115 168.347 179.038 168.534 178.974 168.725C178.74 169.183 178.787 169.733 179.094 170.145C179.823 170.712 180.855 170.67 181.535 170.045C181.871 169.191 181.582 168.218 180.835 167.685C180.244 167.512 179.606 167.699 179.204 168.165Z" fill="#231F20"/>
<path fill-rule="evenodd" clip-rule="evenodd" d="M94.8044 159.745C95.0556 158.809 95.7568 158.059 96.6744 157.745C101.734 155.925 106.034 162.165 105.814 166.605C105.462 171.404 101.372 175.06 96.5644 174.875C91.8944 174.615 88.5444 169.915 89.3344 165.405C89.8944 162.255 92.1244 160.545 94.8044 159.745ZM95.8444 166.245C95.6702 167.032 96.0942 167.83 96.8444 168.125C97.9344 168.365 99.0144 167.045 98.9144 166.045C98.8502 165.533 98.6263 165.053 98.2744 164.675C97.1644 164.935 96.0844 165.375 95.8444 166.245Z" fill="#231F20"/>
<path d="M211.116 51.4751C219.486 56.7451 228.416 61.4751 235.566 68.3551C241.202 73.9187 245.735 80.4976 248.927 87.7451C252.331 95.4916 254.546 103.707 255.497 112.115C256.497 120.375 255.807 128.585 256.227 136.855C256.238 137.447 256.679 137.942 257.265 138.022C257.851 138.102 258.408 137.742 258.577 137.175C262.647 120.975 258.907 100.865 252.017 85.9451C243.897 68.3751 228.956 57.8551 211.446 50.6851C210.986 50.4951 210.726 51.2251 211.116 51.4751Z" fill="#231F20"/>
<path d="M257.314 145.695C257.814 152.405 256.044 158.245 254.933 164.695C254.713 165.985 256.424 166.905 257.154 165.635C260.585 159.715 260.295 151.925 259.045 145.435C258.93 145.001 258.507 144.723 258.063 144.79C257.619 144.857 257.296 145.247 257.314 145.695Z" fill="#231F20"/>
<path fill-rule="evenodd" clip-rule="evenodd" d="M89.6245 319.165C86.2348 318.835 81.4152 317.215 80.8552 313.385C80.0953 308.155 81.4852 300.915 82.965 295.665C82.556 295.343 82.3559 294.823 82.4435 294.31C82.5311 293.797 82.8923 293.373 83.385 293.205C87.6046 291.935 92.6242 293.055 96.8238 294.055C97.587 294.276 98.1153 294.971 98.1237 295.765C98.0903 297.484 98.1484 299.311 98.2078 301.177C98.3437 305.445 98.486 309.917 97.5538 313.765C96.6239 317.565 93.4841 319.535 89.6245 319.165ZM89.2782 296.554C87.9889 296.446 86.7049 296.339 85.4352 296.165C85.3402 296.944 85.1958 297.875 85.0366 298.902C84.0908 305 82.6253 314.449 87.9152 315.245C90.4552 315.635 93.7452 313.165 94.2752 310.745C94.4538 309.084 94.4873 307.411 94.3752 305.745L94.5552 297.165C92.8018 296.848 91.0352 296.7 89.2782 296.554Z" fill="#231F20"/>
<path fill-rule="evenodd" clip-rule="evenodd" d="M200.874 303.885C202.314 315.095 197.674 328.605 184.314 327.435C173.904 326.515 165.314 316.955 166.524 306.475C167.774 295.425 180.484 286.845 191.164 290.425C191.374 290.495 191.533 290.669 191.584 290.885C196.721 293.319 200.235 298.236 200.874 303.885ZM179.304 293.585C174.164 296.405 170.074 301.465 169.574 306.855H169.544C168.814 314.815 174.644 321.895 182.394 323.615C203.394 328.315 202.324 286.725 180.394 293.795C180.019 293.923 179.605 293.843 179.304 293.585Z" fill="#231F20"/>
<path fill-rule="evenodd" clip-rule="evenodd" d="M190.349 310.306C189.215 311.809 187.447 312.699 185.565 312.715C183.796 312.611 182.166 311.724 181.12 310.294C180.073 308.865 179.719 307.042 180.155 305.325C180.664 303.71 181.917 302.437 183.525 301.905C185.875 299.255 190.465 302.355 191.355 305.045C191.855 306.86 191.484 308.804 190.349 310.306ZM184.015 304.015C183.395 304.452 182.954 305.098 182.775 305.835C182.607 306.705 182.818 307.604 183.354 308.309C183.891 309.013 184.702 309.456 185.585 309.525C187.435 309.485 188.995 307.245 187.915 305.595C187.268 304.618 186.353 304.476 185.4 304.329C184.939 304.258 184.468 304.185 184.015 304.015Z" fill="#231F20"/>
<path fill-rule="evenodd" clip-rule="evenodd" d="M158.693 319.475C143.667 318.195 128.607 317.408 113.513 317.115C112.688 317.094 112.024 316.43 112.003 315.605C111.435 309.68 111.482 303.711 112.143 297.795C112.138 296.887 112.297 295.986 112.613 295.135C112.834 294.366 113.534 293.834 114.333 293.825C123.315 294.541 132.311 295.357 141.289 296.172C145.345 296.54 149.398 296.907 153.443 297.265C153.893 297.305 154.346 297.33 154.793 297.355C157.226 297.487 159.499 297.611 160.343 300.205C160.839 301.693 160.723 303.493 160.613 305.191C160.567 305.889 160.523 306.57 160.523 307.205C160.477 310.705 160.453 314.205 160.453 317.705C160.453 318.679 159.667 319.47 158.693 319.475ZM115.483 297.495C115.26 297.907 115.006 298.301 114.723 298.675C114.557 298.898 114.332 299.071 114.073 299.175C114.196 301.144 114.292 303.11 114.389 305.078C114.535 308.076 114.682 311.076 114.923 314.095C128.977 314.168 143.004 314.745 157.004 315.825C157.033 315.372 157.067 314.892 157.102 314.393C157.401 310.161 157.796 304.569 155.774 302.315C153.839 300.187 149.057 300.068 145.272 299.974C144.148 299.946 143.112 299.921 142.264 299.845C139.441 299.598 136.617 299.356 133.792 299.115C127.688 298.592 121.581 298.069 115.483 297.495Z" fill="#231F20"/>
<path fill-rule="evenodd" clip-rule="evenodd" d="M117.723 323.365C121.003 323.198 124.284 323.701 127.363 324.845C128.171 325.104 128.648 325.937 128.463 326.765C128.208 328.274 127.962 329.791 127.716 331.301C127.681 331.513 127.647 331.724 127.613 331.935C127.566 332.22 127.53 332.529 127.492 332.848C127.363 333.951 127.22 335.181 126.553 335.995C125.385 337.443 122.884 337.243 120.89 337.083C120.322 337.037 119.796 336.995 119.353 336.995C117.023 336.995 115.223 336.655 115.093 333.995C114.964 330.69 115.131 327.38 115.593 324.105C115.703 323.305 116.443 323.245 116.983 323.575C117.208 323.445 117.462 323.373 117.723 323.365ZM124.233 333.725C124.323 333.155 124.413 332.575 124.493 331.995C124.723 330.485 124.963 328.975 125.243 327.495C122.84 326.767 120.33 326.456 117.823 326.575C117.933 328.035 118.013 329.495 118.013 330.965C118.013 331.065 117.989 331.285 117.96 331.563C117.869 332.424 117.718 333.844 118.013 334.025C118.288 334.194 119.026 334.125 119.616 334.069C119.862 334.046 120.083 334.025 120.233 334.025C121.231 334.106 122.234 334.106 123.233 334.025C123.733 334.275 124.143 334.295 124.233 333.725Z" fill="#231F20"/>
<path fill-rule="evenodd" clip-rule="evenodd" d="M146.433 325.655H153.763C153.992 325.655 154.231 325.648 154.476 325.641C155.705 325.606 157.075 325.566 158.043 326.375C160.563 328.555 159.713 334.245 159.043 336.995C158.841 337.68 158.217 338.155 157.503 338.165C156.671 338.18 155.838 338.2 155.005 338.219C153.124 338.262 151.241 338.305 149.363 338.305C147.853 338.305 146.353 338.275 145.163 337.225C143.11 335.425 143.755 332.919 144.373 330.514C144.614 329.58 144.85 328.661 144.923 327.805C144.752 327.313 144.829 326.77 145.128 326.344C145.427 325.918 145.912 325.662 146.433 325.655ZM151.762 335.125L156.191 335.025C156.414 333.819 156.471 332.587 156.361 331.365C156.35 331.249 156.341 331.138 156.331 331.032C156.211 329.663 156.156 329.028 154.672 328.935C153.024 328.815 151.354 328.855 149.689 328.895C148.858 328.915 148.028 328.935 147.203 328.935C147.257 329.43 147.257 329.93 147.203 330.425C147.163 330.791 147.07 331.189 146.974 331.598C146.759 332.52 146.53 333.502 146.863 334.305C147.337 335.45 149.276 335.298 150.736 335.184C151.124 335.153 151.478 335.125 151.762 335.125Z" fill="#231F20"/>
<path fill-rule="evenodd" clip-rule="evenodd" d="M93.805 343.67C89.3087 343.863 84.8125 344.057 80.3163 344.225C79.5425 344.226 78.8632 343.711 78.6562 342.965C78.5819 342.478 78.4815 341.909 78.3707 341.281C77.5425 336.588 76.1313 328.592 80.6563 326.625C81.0545 326.45 81.5082 326.45 81.9064 326.625C85.6117 325.656 89.7602 325.958 93.7023 326.245C94.8885 326.331 96.056 326.416 97.1871 326.465C98.0696 326.481 98.7812 327.193 98.7972 328.075C98.8439 332.662 98.8672 337.248 98.8672 341.835C98.8564 342.764 98.106 343.514 97.1771 343.525C96.0531 343.573 94.929 343.621 93.805 343.67ZM84.0862 329.225C83.4578 329.264 82.8271 329.207 82.2162 329.055L82.2262 329.025C80.1631 331.414 81.1401 337.077 81.7428 340.569C81.7506 340.615 81.7584 340.66 81.7662 340.705C86.3395 340.532 90.9162 340.365 95.4962 340.205C95.5428 336.672 95.5662 333.142 95.5662 329.615C92.0291 329.638 88.4955 329.391 84.9962 328.875C84.7332 329.078 84.417 329.199 84.0862 329.225Z" fill="#231F20"/>
</svg>
