<svg width="574" height="455" viewBox="0 0 574 455" fill="none" xmlns="http://www.w3.org/2000/svg">
<path d="M222.788 451.49C220.594 451.514 218.481 450.662 216.917 449.123C215.354 447.583 214.468 445.484 214.458 443.29L213.458 341L97.7079 399.5C96.545 400.098 95.2559 400.41 93.9479 400.41C91.1122 400.389 88.479 398.937 86.9479 396.55C85.4366 394.183 85.2367 391.208 86.4179 388.66L138.538 274.99L10.5379 255.99C6.92473 255.42 4.11337 252.547 3.62223 248.923C3.1311 245.298 5.07657 241.78 8.40794 240.27L122.618 189.27L68.1479 108.21C66.4162 105.698 66.2348 102.428 67.6779 99.7399C68.6851 97.8006 70.4246 96.3435 72.5105 95.692C74.5964 95.0405 76.8561 95.2485 78.7879 96.2699L167.338 141.59L213.628 9.05994C214.713 5.94894 217.539 3.77721 220.824 3.52983C224.11 3.28244 227.229 5.00648 228.768 7.91994L276.538 98.3699L389.738 5.64994C391.202 4.42561 393.049 3.75329 394.958 3.74994C397.466 3.76992 399.836 4.90177 401.428 6.83994C402.987 8.75584 403.6 11.2716 403.098 13.6899L383.788 109.42L507.438 65.9099C508.334 65.5933 509.277 65.4309 510.228 65.4299C513.172 65.4506 515.886 67.0298 517.358 69.5799C518.838 72.1235 518.838 75.2664 517.358 77.8099L463.538 172.66L556.778 207.05C560.072 208.26 562.243 211.416 562.196 214.924C562.149 218.433 559.893 221.529 556.568 222.65L445.738 260.18L567.288 368.09C569.904 370.331 570.812 373.985 569.548 377.19C568.374 380.417 565.312 382.569 561.878 382.58C561.087 382.584 560.3 382.479 559.538 382.27L387.688 334.41L414.928 441.09C415.579 443.547 415.05 446.167 413.498 448.18C411.902 450.223 409.46 451.424 406.868 451.44C404.721 451.433 402.663 450.581 401.138 449.07L297.768 348.55L229.538 447.89C228.03 450.141 225.498 451.491 222.788 451.49Z" fill="#00AEEF"/>
<path fill-rule="evenodd" clip-rule="evenodd" d="M210.329 7.90001C211.948 3.14358 216.435 -0.0376569 221.459 0.0100064V6.35282e-06C225.822 -0.0045201 229.827 2.41012 231.859 6.27001L277.649 92.94L387.539 2.94001C389.626 1.21305 392.25 0.268733 394.959 0.270006C398.512 0.289416 401.874 1.88243 404.139 4.62001C406.368 7.34584 407.25 10.9313 406.539 14.38L388.429 104.08L506.249 62.57C507.534 62.1166 508.887 61.8866 510.249 61.89C514.438 61.9146 518.3 64.1557 520.399 67.78C522.505 71.4028 522.505 75.8772 520.399 79.5L468.559 170.77L557.939 203.77C562.618 205.497 565.7 209.985 565.633 214.971C565.565 219.958 562.363 224.36 557.639 225.96L452.539 261.56L569.619 365.48C573.267 368.718 574.543 373.869 572.826 378.435C571.11 383.001 566.757 386.037 561.879 386.07C560.785 386.067 559.695 385.919 558.639 385.63L392.539 339.39L418.319 440.27C419.227 443.744 418.478 447.443 416.289 450.29C414.029 453.182 410.57 454.88 406.899 454.9C403.843 454.893 400.91 453.691 398.729 451.55L298.339 353.91L232.479 449.84C230.318 453.055 226.693 454.976 222.819 454.96C219.701 454.992 216.698 453.778 214.479 451.586C212.26 449.395 211.007 446.409 210.999 443.29L209.999 346.62L99.2592 402.62C94.7951 404.898 89.3773 404.094 85.7675 400.617C82.1577 397.14 81.1505 391.757 83.2592 387.21L133.459 277.77L10.0592 259.47C4.87649 258.708 0.820871 254.613 0.109578 249.423C-0.601715 244.233 2.20253 239.198 6.98923 237.07L117.339 187.76L65.1892 110.16C62.7251 106.581 62.4741 101.923 64.5392 98.1C65.9697 95.3428 68.4372 93.2669 71.3985 92.3291C74.3598 91.3914 77.5724 91.6687 80.3292 93.1L165.329 136.59L210.329 7.90001ZM225.669 9.56001C224.861 7.98275 223.232 6.99617 221.459 7.01001C219.418 6.98973 217.592 8.27904 216.929 10.21L169.309 146.49L77.1992 99.34C76.5164 98.9846 75.759 98.7961 74.9892 98.79C73.2259 98.8122 71.616 99.7977 70.7942 101.358C69.9723 102.918 70.0702 104.803 71.0492 106.27L127.839 190.75L9.83923 243.45C7.89237 244.313 6.75143 246.36 7.04124 248.47C7.33106 250.58 8.98171 252.244 11.0892 252.55L143.689 272.27L89.6192 390.08C88.7438 391.928 89.1462 394.128 90.6189 395.547C92.0917 396.965 94.3057 397.284 96.1192 396.34L216.889 335.34L217.959 443.25C217.964 444.521 218.478 445.737 219.385 446.628C220.292 447.518 221.518 448.009 222.789 447.99C224.355 448 225.819 447.218 226.679 445.91L297.239 343.15L403.539 446.57C404.419 447.46 405.618 447.96 406.869 447.96C408.361 447.975 409.774 447.293 410.69 446.116C411.606 444.939 411.92 443.402 411.539 441.96L382.799 329.42L560.469 378.89C560.912 379.014 561.369 379.078 561.829 379.08C563.801 379.042 565.548 377.8 566.231 375.95C566.914 374.1 566.394 372.02 564.919 370.71L438.919 258.8L555.419 219.33C557.329 218.675 558.621 216.891 558.648 214.872C558.675 212.854 557.431 211.036 555.539 210.33L458.439 174.52L514.349 76.08C515.185 74.6046 515.178 72.7974 514.331 71.3283C513.485 69.8592 511.925 68.947 510.229 68.93C509.674 68.9322 509.123 69.0268 508.599 69.21L379.139 114.76L399.669 13C399.958 11.5875 399.596 10.12 398.682 9.00466C397.768 7.88933 396.401 7.24483 394.959 7.25001C393.861 7.25506 392.8 7.64423 391.959 8.35001L275.449 103.78L225.669 9.56001Z" fill="#231F20"/>
</svg>
