<svg width="556" height="562" viewBox="0 0 556 562" fill="none" xmlns="http://www.w3.org/2000/svg">
<path d="M331.351 288C317.191 316.72 304.351 346.11 288.991 374.21C273.471 402.54 255.611 429.49 239.241 457.32C230.881 471.52 223.077 486.003 215.831 500.77C211.831 508.94 208.521 517.86 204.391 526.21C228.771 503.88 253.891 482.28 278.151 459.85C308.441 431.85 338.151 403.27 367.631 374.41C397.111 345.55 426.511 316.63 455.381 287.16C469.441 272.8 483.381 258.26 498.121 244.61C502.471 240.61 506.921 236.36 511.551 232.29C466.551 227.08 421.671 220.03 376.951 212.12C360.391 236.81 344.651 261 331.351 288Z" fill="#00AEEF"/>
<path d="M396.141 190.45C439.941 197.51 483.831 204.09 527.811 210.45C521.581 189.37 516.271 167.94 510.501 146.75C507.681 136.44 503.241 124.8 500.071 113.09C477.301 130.52 454.711 148.17 431.941 165.6C420.48 174.544 408.528 182.841 396.141 190.45Z" fill="#00AEEF"/>
<path d="M130.75 140.51C140.87 142.59 151.01 144.62 161.13 146.68C160.39 142.52 159.67 138.47 158.8 134.68C155.367 119.787 151.983 104.883 148.65 89.9701C143.92 68.8501 135.91 44.6401 134.81 21.8101C129.16 28.7401 120.81 34.3701 114.45 39.5801C103.59 48.4701 92.45 56.9601 81.25 65.5001C59.35 82.2901 39 99.7101 20 119.52C34.58 119.68 49.41 123.75 63.47 126.66C85.8833 131.287 108.31 135.903 130.75 140.51Z" fill="#00AEEF"/>
<path d="M272.11 363.91C287.84 334.06 300.67 302.83 315.24 272.43C325.66 250.69 337.08 227.43 351.95 207.61C322.72 202.23 293.56 196.55 264.51 190.8C238.59 185.66 212.72 180.294 186.9 174.7C187.59 183.51 186.9 192.58 186.9 201.4C186.9 217.62 186.83 233.84 186.9 250.06C187.114 281.54 187.834 313.014 189.06 344.48C190.334 376.9 192.144 409.29 194.49 441.65C195.66 457.82 197.05 473.98 198.35 490.14C198.5 491.93 198.7 493.76 198.92 495.62L200.26 492.62C206.886 478.021 214.246 463.766 222.31 449.91C238.67 421.09 256.66 393.23 272.11 363.91Z" fill="#88E0FF"/>
<path d="M352.279 153.12C356.959 163.47 364.199 174.32 367.599 185.48C374.169 180.31 381.979 175.99 387.939 171.68C400.299 162.74 412.169 153.05 423.939 143.35C443.039 127.61 461.649 110.59 481.869 96.12C475.099 94.92 468.259 92.66 461.789 91.27C445.789 87.85 429.929 84.27 413.999 80.77C382.149 73.77 350.369 66.49 318.579 59.24L315.189 58.46C323.939 73.82 328.039 93.27 333.879 108.71C339.553 123.703 345.686 138.507 352.279 153.12Z" fill="#88E0FF"/>
<path d="M244.381 116.05C232.711 126.69 220.871 137.14 208.621 147.05C205.751 149.39 202.801 151.97 199.721 154.42C220.694 158.634 241.674 162.794 262.661 166.9C288.707 171.974 314.791 176.744 340.911 181.21C338.281 175.21 336.001 169.1 333.581 163.54C328.247 151.26 323.197 138.857 318.431 126.33C310.581 105.69 304.511 84.7203 298.641 63.5703C291.821 71.3003 283.791 78.3803 276.831 85.2603C266.224 95.7536 255.407 106.017 244.381 116.05Z" fill="#00AEEF"/>
<path d="M156.769 43.5701C160.609 58.3601 163.769 73.3301 167.199 88.2101C170.859 104.03 174.563 119.84 178.309 135.64C178.999 138.54 179.849 141.53 180.729 144.57C186.029 138.71 192.909 133.73 198.329 128.85C209.399 118.85 220.469 108.92 231.269 98.6701C242.719 87.8001 253.889 76.6701 264.929 65.3901C269.689 60.5301 274.289 55.2301 279.119 50.2001C259.566 45.7001 240.026 41.1535 220.499 36.5601C197.859 31.2101 173.099 27.2601 150.359 19.8701C152.939 27.6101 154.729 35.6801 156.769 43.5701Z" fill="#88E0FF"/>
<path d="M167.2 346.93C165.867 313.597 165.1 280.217 164.9 246.79C164.81 230.57 164.83 214.35 165.16 198.13C165.34 188.85 164.91 179.35 166.44 170.28C154.38 167.614 142.32 164.947 130.26 162.28C107.94 157.28 85.6432 152.187 63.3698 147C50.4398 144 36.3698 141.77 23.5898 137.15C40.0898 165.33 50.7498 198.54 62.9998 228C78.5198 265.194 94.2965 302.277 110.33 339.25C126.363 376.224 142.587 413.12 159 449.94C164.76 462.854 170.563 475.747 176.41 488.62C174.98 473.8 173.8 458.94 172.71 444.09C170.343 411.744 168.507 379.357 167.2 346.93Z" fill="#00AEEF"/>
<path fill-rule="evenodd" clip-rule="evenodd" d="M551.77 215C550.451 198.688 545.11 181.538 539.966 165.021C537.703 157.753 535.478 150.607 533.65 143.71C532.864 140.737 532.08 137.762 531.296 134.788L531.293 134.779L531.291 134.77L531.288 134.761L531.286 134.752L531.284 134.744L531.283 134.739L531.282 134.735C528.758 125.164 526.233 115.591 523.65 106.03C523.377 105.012 523.111 103.99 522.844 102.967C520.458 93.8102 518.069 84.6441 510.8 78.1402L465.49 68.5402C454.89 66.1268 444.281 63.7579 433.672 61.389C428.368 60.2046 423.063 59.0202 417.76 57.8302C391.493 51.9581 365.096 46.2639 338.71 40.5721L338.709 40.5718L338.696 40.569L338.683 40.5662L338.67 40.5634L338.657 40.5606C333.157 39.3742 327.658 38.1879 322.16 37.0002C291.2 30.3335 260.22 23.7402 229.22 17.2202C214.905 14.2407 200.589 11.3973 186.273 8.55397C184.589 8.21945 182.905 7.88492 181.22 7.55018C178.142 6.93726 175.053 6.28083 171.956 5.62247L171.955 5.62242C159.336 2.94024 146.565 0.225948 133.71 0.290181C132.36 0.30028 131.053 0.765339 130 1.61018C121.782 4.09972 114.944 10.9161 108.422 17.4177L108.422 17.4178C105.723 20.1089 103.077 22.7461 100.41 25.0002C90.9952 32.9822 81.226 40.5269 71.4614 48.068L71.4613 48.068L71.4613 48.068L71.4613 48.0681L71.4612 48.0681L71.4612 48.0681L71.4611 48.0682L71.4609 48.0683C69.5062 49.5779 67.5517 51.0874 65.6003 52.6002C43.0802 70.0502 19.8903 88.0202 2.60025 110.94C-0.119747 114.55 0.810253 118.56 3.32025 121.4C1.48025 122.4 1.65025 125.01 3.26025 126.28C3.48962 126.461 3.73327 126.632 3.97494 126.801L3.97501 126.801C4.22854 126.979 4.47988 127.156 4.71025 127.34C8.60327 156.182 20.7357 184.842 32.3488 212.275C35.4124 219.512 38.4398 226.663 41.2703 233.71C56.3369 271.137 71.6703 308.47 87.2703 345.71C102.87 382.95 118.824 420 135.13 456.86C143.464 475.74 151.864 494.587 160.33 513.4C167.085 528.498 174.787 543.154 183.39 557.28C184.941 559.173 187.088 560.485 189.48 561C192.711 562.058 196.262 561.114 198.54 558.59C256.945 513.25 311.551 461.51 365.369 410.518L365.422 410.468C371.196 404.997 376.961 399.535 382.72 394.09C412.01 366.38 440.6 337.9 468.93 309.22C472.054 306.057 475.17 302.882 478.286 299.707L478.291 299.702L478.291 299.701L478.292 299.701L478.292 299.701L478.292 299.701L478.292 299.701L478.292 299.701L478.292 299.7C488.72 289.075 499.153 278.443 509.93 268.22C515.237 263.206 521.022 258.538 526.817 253.862C536.66 245.919 546.534 237.951 554.15 228.22C557.63 223.83 555.65 218.21 551.77 215ZM318.58 59.2402C321.706 59.9531 324.832 60.6662 327.958 61.3794L327.963 61.3806C356.624 67.92 385.284 74.4589 414 80.7702C419.31 81.9369 424.618 83.1124 429.926 84.288L429.926 84.2881C440.542 86.6391 451.157 88.9902 461.79 91.2702C464.544 91.8618 467.365 92.611 470.219 93.369L470.219 93.3691C474.07 94.392 477.982 95.4309 481.87 96.1202C467.759 106.219 454.432 117.559 441.175 128.839C435.436 133.723 429.711 138.595 423.94 143.35C412.17 153.05 400.3 162.74 387.94 171.68C385.481 173.447 382.724 175.215 379.875 177.043L379.874 177.043L379.873 177.044C375.771 179.675 371.477 182.43 367.6 185.48C365.441 178.392 361.733 171.434 358.115 164.645L358.115 164.645C356.036 160.745 353.988 156.9 352.28 153.12C345.694 138.507 339.56 123.704 333.88 108.71C331.921 103.529 330.157 97.8962 328.347 92.118L328.347 92.1173L328.347 92.1167C324.765 80.6762 321.004 68.6654 315.19 58.4602L318.58 59.2402ZM318.43 126.38C310.58 105.74 304.51 84.7702 298.64 63.6202C294.128 68.7344 289.086 73.5641 284.175 78.2685L284.175 78.2688L284.175 78.269L284.174 78.2694L284.173 78.2702C281.662 80.6758 279.185 83.0487 276.83 85.4102C266.204 95.9035 255.387 106.15 244.38 116.15C232.71 126.74 220.87 137.15 208.62 147.15C207.432 148.122 206.24 149.123 205.035 150.136L205.033 150.137L205.03 150.14L205.03 150.14C203.296 151.597 201.536 153.076 199.72 154.52C220.687 158.754 241.667 162.914 262.66 167C288.72 172 314.804 176.754 340.91 181.26C339.516 178.1 338.22 174.886 336.949 171.735C335.823 168.944 334.717 166.202 333.58 163.59C328.24 151.29 323.19 138.887 318.43 126.38ZM85.7453 62.0914L85.7467 62.0902C95.4018 54.7081 105.05 47.3315 114.45 39.6102C116.02 38.3263 117.709 37.017 119.449 35.6689L119.449 35.6689C124.767 31.5465 130.553 27.0625 134.81 21.8402C135.606 38.3595 140.02 55.5805 144.191 71.855C145.785 78.0721 147.343 84.1512 148.65 90.0002C151.984 104.914 155.367 119.817 158.8 134.71C159.67 138.47 160.39 142.52 161.13 146.71C157.229 145.916 153.324 145.126 149.419 144.336L149.387 144.33L149.375 144.328C143.165 143.072 136.954 141.815 130.75 140.54C108.31 135.934 85.8736 131.317 63.4403 126.69C60.5468 126.091 57.6208 125.442 54.671 124.788L54.6702 124.788L54.6701 124.788C43.2864 122.264 31.5495 119.661 19.9703 119.55C39.0003 99.7102 59.3503 82.2902 81.2503 65.5302C82.7462 64.3844 84.2429 63.2401 85.7394 62.0959L85.7409 62.0947L85.7423 62.0936L85.7438 62.0925L85.7453 62.0914ZM110.36 339.21C126.387 376.21 142.6 413.12 159 449.94C164.787 462.847 170.59 475.74 176.41 488.62C174.98 473.8 173.8 458.94 172.71 444.09C170.37 411.737 168.534 379.35 167.2 346.93C165.854 313.557 165.087 280.177 164.9 246.79C164.81 230.57 164.83 214.35 165.16 198.13C165.203 195.927 165.211 193.712 165.22 191.492V191.492V191.492V191.491V191.491V191.491V191.491V191.491V191.491C165.247 184.363 165.274 177.196 166.44 170.28L130.26 162.28C107.947 157.26 85.6503 152.167 63.3703 147C59.7829 146.168 56.1108 145.395 52.4028 144.614C42.7459 142.581 32.8451 140.497 23.5603 137.18C35.3794 157.366 44.202 180.132 52.77 202.242L52.7703 202.243L52.7704 202.243C56.1635 210.999 59.5167 219.652 63.0003 228C78.5469 265.14 94.3336 302.21 110.36 339.21ZM180.73 144.57C179.85 141.57 179 138.57 178.31 135.64C174.564 119.84 170.86 104.03 167.2 88.2102C166.175 83.7743 165.175 79.3305 164.175 74.8858L164.175 74.8855L164.175 74.8853L164.175 74.8851C161.821 64.4203 159.465 53.9509 156.77 43.5702C156.353 41.9242 155.943 40.2687 155.532 38.6093C153.974 32.3143 152.402 25.9639 150.36 19.8702C165.751 24.8718 182.067 28.2977 198.025 31.6484L198.025 31.6484C205.645 33.2484 213.183 34.8312 220.5 36.5602C240.027 41.1668 259.567 45.7135 279.12 50.2002C276.831 52.5703 274.593 55.0146 272.365 57.4479L272.365 57.4481L272.365 57.4483L272.364 57.4488L272.364 57.4491C269.892 60.1485 267.434 62.8343 264.93 65.3902C253.93 76.6602 242.72 87.8002 231.27 98.6702C220.669 108.732 209.808 118.513 198.941 128.3L198.33 128.85C196.507 130.492 194.514 132.146 192.472 133.84L192.472 133.84C188.445 137.181 184.227 140.682 180.73 144.57ZM198.35 490.14C198.5 491.93 198.7 493.76 198.92 495.62L200.26 492.62C206.886 478.021 214.246 463.766 222.31 449.91C228.73 438.602 235.4 427.441 242.069 416.282C252.397 399.002 262.723 381.726 272.11 363.91C281.94 345.257 290.637 326.065 299.334 306.874L299.334 306.873L299.334 306.873L299.336 306.869C304.556 295.35 309.776 283.832 315.24 272.43C325.66 250.69 337.08 227.41 351.95 207.61C322.72 202.23 293.56 196.55 264.51 190.8C238.597 185.627 212.727 180.26 186.9 174.7C187.388 180.582 187.224 186.58 187.062 192.543C186.981 195.51 186.9 198.469 186.9 201.4L186.892 204.102V204.107C186.844 219.425 186.796 234.742 186.9 250.06C187.114 281.547 187.834 313.02 189.06 344.48C190.327 376.9 192.137 409.29 194.49 441.65C195.321 453.138 196.264 464.62 197.206 476.102L197.206 476.102L197.206 476.103L197.207 476.112L197.207 476.12C197.591 480.794 197.974 485.467 198.35 490.14ZM462.165 280.223L462.165 280.223L462.161 280.227C459.902 282.543 457.643 284.859 455.38 287.17C426.51 316.64 397.1 345.54 367.63 374.42C338.16 403.3 308.44 431.86 278.15 459.86C265.323 471.72 252.255 483.339 239.184 494.962L239.183 494.962C227.533 505.321 215.879 515.683 204.39 526.22C206.53 521.895 208.454 517.417 210.366 512.969C212.145 508.83 213.912 504.718 215.83 500.78C223.064 485.98 230.867 471.497 239.24 457.33C245.61 446.501 252.205 435.806 258.8 425.11L258.802 425.108C269.156 408.317 279.51 391.526 288.99 374.22C299.099 355.764 308.094 336.751 317.09 317.737C321.79 307.802 326.491 297.867 331.35 288.01C344.65 261.01 360.35 236.83 376.95 212.13C421.67 220.04 466.55 227.13 511.55 232.3C508.086 235.33 504.723 238.461 501.427 241.53L501.425 241.531C500.317 242.563 499.215 243.588 498.12 244.6V244.62C485.721 256.072 473.94 268.15 462.165 280.223ZM396.15 190.452C396.14 190.458 396.13 190.464 396.12 190.47L396.14 190.45C396.144 190.451 396.147 190.451 396.15 190.452ZM431.92 165.65C420.468 174.577 408.526 182.857 396.15 190.452C439.947 197.511 483.834 204.081 527.79 210.5C523.683 196.604 519.976 182.556 516.274 168.525C514.36 161.271 512.447 154.022 510.48 146.8C509.131 141.867 507.411 136.63 505.636 131.227C503.702 125.338 501.703 119.252 500.05 113.15C488.509 121.979 477.015 130.868 465.52 139.757C454.335 148.405 443.149 157.054 431.92 165.65Z" fill="#231F20"/>
</svg>
