<svg width="580" height="512" viewBox="0 0 580 512" fill="none" xmlns="http://www.w3.org/2000/svg">
<path d="M331.499 330.597C303.409 348.297 274.939 365.167 245.199 379.847C257.399 387.654 269.919 394.924 282.759 401.657C306.032 413.854 330.271 424.112 355.229 432.327C367.695 436.427 380.322 440.017 393.109 443.097C405.109 446.007 418.809 446.917 430.629 450.877C440.119 442.457 450.939 435.187 460.948 427.497C473.015 418.197 485.065 408.88 497.098 399.547L562.578 348.917C546.648 345.097 530.798 340.077 515.168 335.507C499.718 330.987 484.788 325.257 470.848 317.167C451.288 305.807 434.459 291.327 419.659 274.907C406.739 284.737 391.659 292.627 378.049 301.227L331.499 330.597Z" fill="#8DC63F"/>
<path d="M217.251 360.597C223.298 365.091 229.454 369.424 235.721 373.597C237.841 372.677 239.961 371.887 241.551 371.077C253.411 365.077 265.104 358.767 276.631 352.147C300.631 338.257 323.891 322.977 347.311 308.077C358.564 300.904 369.821 293.741 381.081 286.587C391.361 280.067 401.631 272.367 412.461 266.517C400.553 251.972 389.8 236.519 380.301 220.297C312.301 255.767 242.101 286.897 175.621 325.197C189.241 337.287 202.551 349.687 217.251 360.597Z" fill="white"/>
<path d="M153.419 410.597C116.779 387.327 78.3289 364.267 49.6489 331.197C39.1789 319.117 29.6489 306.277 20.4289 293.197C17.4613 297.157 14.2729 300.946 10.8789 304.547C26.7289 326.807 48.5289 344.837 68.6389 363.067C96.3989 388.227 124.939 412.527 155.789 433.647C155.719 426.257 156.059 418.817 156.449 411.397C155.378 411.479 154.31 411.197 153.419 410.597Z" fill="#009444"/>
<path d="M131.29 277.637C138.57 288.117 146.53 297.997 154.41 307.967C154.992 308.046 155.541 308.281 156 308.647C159.92 311.737 163.73 314.937 167.52 318.177C169.22 317.357 170.88 316.587 172.19 315.837C185.137 308.364 198.217 301.134 211.43 294.147C265.31 265.547 319.97 237.547 375.02 211.247C370.02 202.337 365.18 193.307 360.59 184.247C332.88 129.687 303.38 72.377 292.05 11.627C254.88 35.787 214.25 53.377 173.88 71.357C153.24 80.557 132.69 89.887 112.75 100.527C94.8805 110.047 77.7105 120.907 58.4805 127.377C58.5405 127.697 58.6205 128.007 58.6705 128.327C58.7702 128.835 58.7702 129.358 58.6705 129.867C70.2905 164.377 83.8205 197.757 101.51 229.707C110.621 246.176 120.561 262.174 131.29 277.637Z" fill="#8DC63F"/>
<path d="M155.88 370.147C155.72 369.907 155.59 369.657 155.45 369.407C154.915 369.502 154.366 369.502 153.83 369.407C144.62 367.687 135.12 360.947 127.16 356.167C119.007 351.26 111.122 345.919 103.54 340.167C88.3217 328.653 74.346 315.582 61.8404 301.167C48.0975 285.428 36.0883 268.256 26.0204 249.947C21.0704 255.767 13.5704 264.187 15.4804 269.237C18.2904 276.667 26.0104 284.517 30.6504 291.017C41.1204 305.697 52.1004 320.017 64.5104 333.147C91.0504 361.147 125.36 379.397 157.01 400.857C157.097 398.917 157.174 396.984 157.24 395.057C157.467 387.317 157.667 379.577 157.84 371.837C157.04 371.472 156.36 370.885 155.88 370.147Z" fill="#009444"/>
<path d="M157.943 327.337C157.745 327.195 157.557 327.038 157.383 326.867C131.513 299.867 110.432 265.867 92.6423 233.187C82.7988 215.176 73.9293 196.649 66.072 177.687C58.382 184.687 46.8019 189.457 37.8318 193.967C32.1517 196.827 24.3116 202.167 17.1016 203.167C23.5116 219.317 29.7717 235.307 38.4118 250.517C57.1202 283.342 82.5154 311.872 112.952 334.257C119.946 339.357 127.179 344.104 134.653 348.497C141.143 352.297 148.653 355.197 154.993 359.397C155.426 359.363 155.862 359.401 156.283 359.507C156.889 359.672 157.478 359.893 158.043 360.167C158.123 355.867 158.213 351.567 158.243 347.267C158.293 342.217 156.773 333.017 157.943 327.337Z" fill="#009444"/>
<path d="M350.88 442.657C325.498 434.165 300.847 423.627 277.17 411.147C263.083 403.72 249.397 395.594 236.11 386.767C235.63 391.794 235.177 396.827 234.75 401.867C253.21 423.117 277.33 431.487 303.88 438.867C320.37 443.457 336.88 447.867 353.42 452.347L379.34 459.397C383.8 460.607 388.96 462.717 393.62 462.767C399.1 462.827 400.5 460.487 401.31 456.667C397.5 455.727 393.74 454.767 390.09 453.887C376.89 450.734 363.82 446.99 350.88 442.657Z" fill="#009444"/>
<path d="M233.75 414.837C233.36 420.177 232.99 425.517 232.68 430.837C232.61 431.977 232.56 433.127 232.5 434.267C254.88 445.777 276.88 456.967 301.041 464.737C313.45 468.726 326.086 471.975 338.881 474.467C342.821 475.24 346.771 475.937 350.731 476.557C353.351 476.967 359.231 479.167 361.271 478.017C362.921 477.087 364.451 473.147 365.601 471.417C366.411 470.217 367.221 469.037 368.041 467.877C351.711 463.557 335.471 458.577 319.271 454.057C291.7 446.347 253.12 439.047 233.75 414.837Z" fill="#009444"/>
<path d="M168.07 332.677C168.07 350.677 167.77 368.597 167.12 386.547C166.49 403.797 166.44 421.737 163.57 438.867C171.67 444.201 179.95 449.301 188.41 454.167C199.248 460.375 210.396 466.026 221.81 471.097C221.47 460.197 221.81 449.157 222.52 438.097L223.05 430.207C223.86 419.207 224.89 408.337 225.81 397.617C226.17 393.447 225.55 385.277 227.16 380.617C220.494 375.951 213.927 371.154 207.46 366.227C194.15 356.017 180.25 344.997 168.07 332.677Z" fill="white"/>
<path d="M232.081 444.787C231.761 454.847 231.551 464.927 230.781 474.937C263.259 488.379 297.617 496.731 332.641 499.697C333.292 494.718 334.328 489.796 335.741 484.977C335.801 484.797 335.881 484.647 335.951 484.477C325.685 482.477 315.525 479.97 305.471 476.957C280.371 469.477 254.381 459.277 232.081 444.787Z" fill="#009444"/>
<path fill-rule="evenodd" clip-rule="evenodd" d="M343.04 505.627C343.486 499.614 344.562 493.665 346.25 487.877C346.393 487.39 346.467 486.885 346.47 486.377C347.96 486.627 349.47 486.867 350.95 487.087C351.845 487.223 352.8 487.406 353.792 487.597L353.797 487.597L353.802 487.599L353.811 487.6L353.813 487.601C358.365 488.474 363.682 489.495 367.33 486.797C371.703 483.56 375.359 476.722 378.18 471.446L378.402 471.031L378.514 470.821L378.65 470.567C381.12 471.167 383.58 471.747 386.05 472.307C393.31 473.937 401.56 474.457 407.35 468.907C410.107 466.374 411.777 462.873 412.01 459.137C418.814 460.663 425.759 461.467 432.73 461.537C433.987 461.616 435.216 461.147 436.102 460.252C436.987 459.357 437.442 458.123 437.35 456.867C444.09 452.337 450.543 447.206 456.95 442.112L456.951 442.11L456.952 442.11L456.952 442.11L456.952 442.11L456.952 442.109L456.953 442.109C460.26 439.48 463.555 436.86 466.87 434.337C478.87 425.21 490.87 416.114 502.87 407.047L575.22 352.277C575.985 351.716 576.611 350.988 577.05 350.147C578.575 348.92 579.301 346.953 578.94 345.029C578.578 343.105 577.187 341.537 575.32 340.947C563.709 336.803 551.735 333.692 539.762 330.581C521.078 325.727 502.396 320.873 485.1 312.097C460.89 299.797 440.17 281.797 422.55 261.287C402.94 238.487 387.31 212.367 373.24 185.877C359.17 159.387 345.98 132.137 333.88 104.637C319.581 72.4127 308.287 38.9374 300.14 4.63715C299.932 3.5159 299.254 2.53716 298.278 1.94699C297.302 1.35682 296.12 1.21135 295.03 1.54715C293.457 -0.237079 290.777 -0.515456 288.87 0.907146C254.479 23.8005 216.875 40.8644 179.359 57.8885L179.347 57.8941L179.339 57.8976C176.762 59.067 174.186 60.2362 171.61 61.4071C152.01 70.3171 132.44 79.4071 113.36 89.4071C107.595 92.4262 101.909 95.6173 96.223 98.8087C81.9062 106.844 67.5861 114.881 51.9905 120.177C49.7359 120.85 48.3834 123.15 48.8905 125.447C48.5819 126.311 48.5608 127.251 48.8305 128.127C52.6905 141.887 57.3105 155.507 62.5305 168.917C56.9094 170.929 51.5413 174.285 46.2498 177.594C43.1255 179.547 40.0278 181.484 36.9205 183.117C28.2105 187.657 19.8805 191.847 10.3805 194.127C9.13435 194.478 8.21513 195.534 8.04046 196.817C7.15696 197.843 6.83531 199.238 7.18046 200.547C10.3193 214.751 15.1785 228.519 21.6505 241.547C20.5687 242.781 19.3883 244.066 18.1692 245.393L18.1688 245.393C13.3138 250.677 7.8464 256.627 5.56046 262.717C3.13312 269.184 7.21754 274.694 10.9543 279.734L10.9552 279.735L10.9557 279.736L10.956 279.736L10.9562 279.736C11.6216 280.634 12.2759 281.517 12.8805 282.387L15.5305 286.197C11.2258 289.845 7.47367 294.011 3.69435 298.208L3.69322 298.209L3.69254 298.21L3.69212 298.21L3.69176 298.21L3.69147 298.211L3.69118 298.211C2.92368 299.063 2.15506 299.917 1.38046 300.767C-0.128832 302.328 -0.433827 304.695 0.630464 306.587C13.2418 325.562 30.0711 341.121 46.7361 356.529L46.7473 356.539C48.7768 358.415 50.8038 360.289 52.8205 362.167C72.3405 380.347 92.2605 398.167 113.07 414.847C153.07 446.987 196.07 475.277 244.7 492.497C274.628 502.994 305.871 509.271 337.53 511.147C340.65 511.337 342.88 508.447 343.04 505.627ZM365.62 471.417C365.259 471.961 364.86 472.723 364.432 473.541C363.497 475.326 362.422 477.379 361.29 478.017C359.863 478.838 356.437 477.952 353.641 477.228L353.64 477.228C352.519 476.938 351.5 476.674 350.75 476.557C346.79 475.937 342.84 475.24 338.9 474.467C326.099 471.976 313.457 468.727 301.04 464.737C276.87 456.967 254.87 445.737 232.5 434.287C232.521 433.901 232.54 433.514 232.559 433.126C232.597 432.369 232.634 431.611 232.68 430.857C232.99 425.517 233.36 420.177 233.75 414.857C250.586 435.899 281.933 444.167 307.963 451.033C311.882 452.066 315.68 453.068 319.29 454.077C325.691 455.863 332.099 457.721 338.515 459.581L338.521 459.583L338.523 459.584L338.524 459.584L338.526 459.584L338.527 459.585L338.528 459.585L338.53 459.585L338.531 459.586L338.532 459.586L338.534 459.586C348.35 462.433 358.189 465.286 368.06 467.897C367.24 469.037 366.43 470.217 365.62 471.417ZM382.992 460.508C386.487 461.597 390.189 462.75 393.62 462.787H393.66C399.14 462.847 400.54 460.547 401.31 456.687C399.859 456.329 398.414 455.968 396.98 455.609L396.966 455.606L396.956 455.603C394.635 455.023 392.342 454.45 390.09 453.907C376.85 450.72 363.78 446.97 350.88 442.657C325.499 434.172 300.848 423.64 277.17 411.167C263.077 403.7 249.39 395.574 236.11 386.787C235.637 391.814 235.184 396.847 234.75 401.887C253.21 423.117 277.33 431.487 303.88 438.887C314.486 441.839 325.111 444.708 335.737 447.577L335.741 447.578L335.745 447.58L335.75 447.581L335.754 447.582L335.759 447.583L335.763 447.584L335.767 447.586L335.772 447.587C341.656 449.176 347.54 450.764 353.42 452.367L379.34 459.417C380.516 459.736 381.741 460.118 382.992 460.507L382.992 460.508ZM470.88 317.187C484.82 325.277 499.75 331.007 515.2 335.527C518.936 336.619 522.684 337.737 526.443 338.858L526.444 338.859C538.412 342.428 550.488 346.03 562.61 348.937L497.1 399.547C485.054 408.88 473.004 418.214 460.95 427.547C457.699 430.048 454.359 432.508 451.007 434.978L451.005 434.979L451.005 434.98C444.048 440.105 437.034 445.273 430.63 450.927C423.558 448.534 415.831 447.261 408.183 446.001L408.183 446.001L408.182 446.001L408.182 446.001L408.182 446.001L408.181 446.001L408.181 446.001L408.181 446.001L408.18 446.001C403.047 445.155 397.95 444.316 393.11 443.147C380.35 440.067 367.724 436.477 355.23 432.377C330.272 424.162 306.034 413.904 282.76 401.707C269.934 394.934 257.414 387.647 245.2 379.847C274.94 365.167 303.41 348.297 331.5 330.597L378.05 301.247C382.491 298.447 387.081 295.723 391.699 292.982L391.7 292.981C401.265 287.304 410.947 281.557 419.66 274.927C434.46 291.347 451.29 305.827 470.88 317.187ZM391.82 279.518C398.567 274.968 405.395 270.364 412.46 266.547C400.554 252.015 389.801 236.575 380.3 220.367C354.702 233.724 328.786 246.465 302.872 259.205L302.871 259.205L302.871 259.205C259.967 280.299 217.067 301.389 175.62 325.267C178.214 327.56 180.796 329.866 183.378 332.172L183.379 332.173L183.385 332.178C194.368 341.987 205.35 351.795 217.25 360.627C223.317 365.087 229.474 369.42 235.72 373.627C236.468 373.303 237.215 372.995 237.939 372.696L237.941 372.695C239.27 372.147 240.521 371.631 241.55 371.107C253.43 365.154 265.124 358.844 276.63 352.177C295.644 341.187 314.157 329.326 332.66 317.472L332.661 317.471L332.661 317.471L332.662 317.47L332.663 317.47L332.663 317.469L332.664 317.469L332.672 317.464C337.549 314.339 342.426 311.215 347.31 308.107C358.564 300.934 369.82 293.77 381.08 286.617C384.653 284.351 388.225 281.943 391.819 279.519L391.82 279.518ZM58.6805 129.867C58.7802 129.359 58.7802 128.836 58.6805 128.327C58.6509 128.138 58.6107 127.952 58.5705 127.765C58.5427 127.637 58.5149 127.508 58.4905 127.377C73.0696 122.469 86.4693 115.036 99.8983 107.586C104.173 105.214 108.451 102.841 112.77 100.547C132.71 89.9072 153.26 80.5471 173.9 71.3771C176.506 70.2147 179.113 69.0541 181.72 67.8934L181.734 67.8874C219.495 51.0764 257.304 34.2442 292.05 11.6471C303.189 71.3695 331.859 127.767 359.181 181.515L360.59 184.287C365.18 193.287 369.98 202.357 375.02 211.287C319.97 237.547 265.31 265.547 211.43 294.147C198.23 301.167 185.15 308.397 172.19 315.837C171.231 316.386 170.069 316.946 168.86 317.528C168.417 317.741 167.968 317.957 167.52 318.177C163.73 314.937 159.92 311.737 156 308.647C155.541 308.281 154.992 308.047 154.41 307.967C153.278 306.53 152.143 305.095 151.009 303.661L151.004 303.654L150.998 303.647C144.248 295.113 137.52 286.605 131.29 277.637C120.564 262.173 110.628 246.176 101.52 229.707C83.8805 197.757 70.3005 164.377 58.6805 129.867ZM68.6505 363.067C96.4105 388.227 124.95 412.527 155.8 433.647C155.73 426.257 156.07 418.817 156.41 411.417C155.349 411.492 154.294 411.21 153.41 410.617C150.582 408.82 147.742 407.025 144.897 405.226C110.891 383.727 76.1061 361.734 49.6405 331.217C39.1705 319.117 29.6305 306.277 20.4205 293.217C17.4555 297.17 14.2704 300.952 10.8805 304.547C24.329 323.423 42.0486 339.257 59.3872 354.75L59.3875 354.75C62.4963 357.528 65.5929 360.295 68.6505 363.067ZM157.22 395.087C157.16 397.02 157.084 398.954 156.99 400.887C149.058 395.509 140.956 390.332 132.851 385.154C108.615 369.671 84.3488 354.167 64.4905 333.177C52.0805 320.077 41.1005 305.727 30.6305 291.047C29.2227 289.075 27.5315 286.979 25.7799 284.808C21.758 279.823 17.4179 274.443 15.4605 269.267C13.6427 264.461 20.3481 256.602 25.2669 250.838C25.5165 250.545 25.7614 250.258 26.0005 249.977C36.0684 268.286 48.0775 285.458 61.8205 301.197C74.3261 315.612 88.3017 328.683 103.52 340.197C111.102 345.949 118.987 351.29 127.14 356.197C128.564 357.048 130.035 357.961 131.542 358.897C138.5 363.217 146.24 368.023 153.81 369.437C154.346 369.532 154.895 369.532 155.43 369.437C155.461 369.492 155.492 369.547 155.522 369.602C155.629 369.797 155.736 369.99 155.86 370.177C156.346 370.932 157.041 371.53 157.86 371.897C157.654 379.617 157.44 387.347 157.22 395.087ZM156.282 359.507C156.888 359.672 157.477 359.893 158.042 360.167C158.053 359.561 158.065 358.955 158.076 358.349C158.146 354.652 158.216 350.948 158.242 347.297C158.259 345.572 158.093 343.363 157.913 340.976C157.567 336.373 157.171 331.107 157.942 327.367C157.744 327.225 157.556 327.068 157.382 326.897C131.512 299.887 110.431 265.917 92.6412 233.217C82.7977 215.206 73.9282 196.679 66.0709 177.717C59.8627 183.384 51.1387 187.572 43.2716 191.349L43.2713 191.349L43.2704 191.349C41.3931 192.251 39.5646 193.128 37.8307 193.997C36.4548 194.69 34.9522 195.528 33.3625 196.415C28.3894 199.189 22.5641 202.439 17.1005 203.197L17.6995 204.707C23.9031 220.343 30.0399 235.811 38.4107 250.547C57.1225 283.361 82.5175 311.88 112.951 334.257C119.958 339.37 127.192 344.117 134.652 348.497C137.419 350.117 140.378 351.574 143.351 353.038L143.351 353.038L143.351 353.038C147.349 355.007 151.373 356.988 154.992 359.397C155.425 359.363 155.861 359.4 156.282 359.507ZM224.935 407.529L224.935 407.53C224.26 415.044 223.578 422.628 223.05 430.237L222.52 438.127C221.84 449.127 221.52 460.197 221.81 471.127C210.396 466.056 199.249 460.405 188.41 454.197C179.937 449.357 171.657 444.257 163.57 438.897C165.94 424.755 166.387 410.061 166.826 395.659C166.918 392.616 167.011 389.586 167.12 386.577C167.77 368.627 168.05 350.667 168.07 332.707C180.25 345.027 194.15 356.047 207.46 366.307C213.907 371.267 220.474 376.064 227.16 380.697C226.051 383.875 226 388.746 225.958 392.831V392.831C225.94 394.671 225.922 396.352 225.81 397.647C225.529 400.925 225.233 404.22 224.935 407.529ZM332.64 499.697C333.291 494.718 334.327 489.796 335.74 484.977C335.779 484.862 335.825 484.76 335.872 484.656C335.898 484.598 335.925 484.539 335.95 484.477C325.63 482.444 315.47 479.937 305.47 476.957C280.37 469.477 254.38 459.277 232.08 444.787C232.046 445.949 232.012 447.112 231.978 448.275C231.72 457.177 231.462 466.092 230.78 474.937C263.258 488.38 297.616 496.731 332.64 499.697Z" fill="#231F20"/>
</svg>
