<svg width="472" height="580" viewBox="0 0 472 580" fill="none" xmlns="http://www.w3.org/2000/svg">
<path d="M377.01 98.5725C384.239 108.195 390.22 118.696 394.81 129.822C395.92 132.482 392.19 135.082 389.96 133.552C387.91 132.116 385.611 131.071 383.18 130.472C393.05 141.662 401.83 154.152 408.12 167.572C418.24 152.082 424.12 134.062 430.89 116.962C434.55 107.736 438.216 98.5025 441.89 89.2625C445.39 80.4225 449.95 71.4425 452.49 62.2625C453.28 59.3925 453.17 57.1925 452.37 55.5225C438.12 60.1425 425.37 68.2525 412.21 75.4325C399.68 82.2825 386.84 88.1325 377.01 98.5725Z" fill="#E27683"/>
<path d="M213.679 81.3125C218.175 79.928 222.759 78.8456 227.399 78.0725C220.712 60.5619 211.259 44.2377 199.399 29.7225C193.959 23.0925 188.059 16.2425 181.399 10.8425C179.549 9.3525 176.789 7.3325 174.199 7.0625C183.129 17.3425 189.879 30.5325 196.199 42.4225C202.809 55.0192 208.647 68.0066 213.679 81.3125Z" fill="#8B5E3C"/>
<path d="M182.939 124.173C177.145 122.743 171.222 121.899 165.259 121.653C162.129 121.523 161.099 118.163 162.869 115.893C174.443 101.279 189.788 90.103 207.249 83.5729C202.279 70.3459 196.498 57.4381 189.939 44.9229C183.639 32.9229 175.509 21.8529 169.259 9.92285C168.779 10.7829 168.409 11.7229 168.019 12.5729C165.679 17.6829 163.679 23.0729 161.759 28.4229C154.971 47.0328 150.047 66.2704 147.059 85.8529C144.359 104.063 144.539 122.663 153.129 139.263C162.486 133.161 172.482 128.1 182.939 124.173Z" fill="#E27683"/>
<path d="M368.951 88.9428C370.531 90.6428 372.041 92.4028 373.511 94.1828C380.991 82.4928 397.451 76.1828 408.901 69.8628C416.901 65.4428 424.901 61.0361 432.901 56.6428C436.272 54.641 439.747 52.8185 443.311 51.1828C431.481 50.4128 412.311 57.0128 406.931 58.8728C390.844 64.5301 375.542 72.2082 361.391 81.7228C364.057 83.9713 366.582 86.3826 368.951 88.9428Z" fill="#8B5E3C"/>
<path d="M101.381 287.082C98.8106 284.582 92.8606 275.002 88.5506 280.722C87.6506 281.922 87.6406 284.722 87.3806 286.182C86.8432 289.197 86.5091 292.244 86.3806 295.302C86.1339 299.362 86.6459 303.431 87.8906 307.302C88.6906 309.642 91.9506 315.502 93.9806 316.752L97.1706 318.162V318.222C103.227 319.529 108.781 322.549 113.171 326.922C120.025 319.415 127.8 312.802 136.311 307.242C122.821 304.742 111.131 296.572 101.381 287.082Z" fill="#8B5E3C"/>
<path d="M108.68 332.113C97.1503 320.473 78.1503 321.473 68.5103 335.413C66.7303 337.993 62.3803 337.193 62.3803 333.753C62.3803 324.583 62.4303 315.423 62.3803 306.263C62.3803 303.643 62.9503 297.823 60.4903 296.113C56.2403 293.113 53.2203 301.333 52.0303 303.953C45.0303 319.433 40.7803 336.593 41.8603 353.663C42.8603 369.433 48.9103 384.453 60.1103 395.723C64.8199 400.508 70.3294 404.434 76.3903 407.323C81.8803 409.913 87.5303 410.553 93.2503 411.713C85.4703 391.503 88.6503 366.713 98.2503 348.113C101.194 342.45 104.687 337.091 108.68 332.113Z" fill="#8B5E3C"/>
<path fill-rule="evenodd" clip-rule="evenodd" d="M373.281 129.393C371.741 127.772 372.151 124.283 374.731 123.893C378.161 123.341 381.665 123.456 385.051 124.232C379.868 113.67 373.289 103.852 365.491 95.0425C356.321 84.7425 344.491 75.2625 329.981 76.1325C327.091 76.3125 325.731 72.4525 327.661 70.5425L343.361 55.0625C334.127 56.6789 324.992 58.8191 316.001 61.4725C315.091 61.7422 314.12 62.016 313.106 62.3016C304.083 64.8433 291.709 68.3289 290.181 78.3525C289.781 80.9325 286.321 81.3525 284.701 79.8025C275.901 71.6025 264.811 61.6825 252.171 62.0025C256.388 68.4372 261.327 74.369 266.891 79.6825C269.461 82.1525 266.761 86.0325 263.591 85.3525C230.241 78.2325 194.711 90.2425 172.061 115.353C179.829 116.161 187.463 117.952 194.781 120.683C197.841 121.823 198.151 126.193 194.781 127.213C157.901 138.382 121.851 163.622 113.571 202.932C119.943 198.731 126.607 194.988 133.511 191.732C136.591 190.283 139.921 194.012 137.281 196.613C129.116 204.686 122.59 214.262 118.061 224.812C136.061 225.402 154.341 229.202 169.631 238.443C170.571 239.013 169.931 240.713 168.861 240.273C152.206 233.352 134.436 229.5 116.411 228.902C114.736 233.408 113.422 238.039 112.481 242.753C128.561 239.913 145.551 239.182 159.901 247.812C160.471 248.163 160.091 249.182 159.431 248.923C143.961 242.792 127.721 243.612 111.791 246.602C110.996 251.652 110.642 256.761 110.731 261.872C113.752 258.623 117.277 255.881 121.171 253.753C122.991 252.753 126.101 253.963 125.801 256.413C124.882 263.572 124.711 270.808 125.291 278.003C128.152 272.905 131.874 268.341 136.291 264.512C137.087 263.758 138.216 263.469 139.277 263.748C140.337 264.027 141.178 264.834 141.501 265.883C145.79 276.493 151.47 286.487 158.391 295.602L161.841 299.952C172.946 313.373 186.599 324.463 202.011 332.582C205.011 334.142 202.361 338.533 199.391 337.052C182.91 328.814 168.34 317.211 156.621 302.992C136.041 314.352 117.041 328.043 105.501 349.263C92.8307 372.573 93.0307 399.412 106.751 422.022C106.959 422.373 107.111 422.754 107.201 423.152C108.971 424.152 109.611 427.283 107.371 428.293C103.676 429.949 99.9549 431.567 96.2314 433.186C74.7581 442.523 53.2181 451.889 36.4207 468.823C26.8705 478.61 19.5707 490.363 15.0307 503.263C10.3507 516.113 6.2707 530.543 7.7307 544.263C8.38181 551.505 11.1658 558.392 15.7307 564.052C19.7307 568.772 27.0007 574.212 33.5807 572.232C42.5839 569.513 42.8083 555.352 42.9646 545.49C43.0008 543.205 43.0333 541.15 43.1707 539.522C45.2907 514.242 51.1707 488.062 66.4607 467.302C79.4607 449.723 98.1007 436.742 119.941 434.022C116.91 416.676 118.902 398.825 125.681 382.573C128.936 374.755 133.29 367.441 138.611 360.853C143.151 355.243 150.391 346.402 158.721 349.022C170.291 352.663 167.721 367.763 163.351 379.723C175.281 374.562 190.021 377.232 200.181 386.152C217.051 400.992 217.881 425.353 210.491 445.152C208.881 449.452 201.941 447.582 203.561 443.242C209.711 426.772 210.431 406.973 197.561 393.413C186.561 381.842 167.691 380.262 157.041 393.152C154.431 396.312 149.671 392.242 151.551 388.913C155.921 381.143 160.311 370.913 159.641 361.742C159.511 359.962 159.211 357.812 157.821 356.562C154.821 353.862 150.681 358.013 148.581 360.133C145.64 363.123 142.964 366.361 140.581 369.812C130.805 383.976 125.535 400.763 125.461 417.973C125.411 432.242 127.891 452.973 142.531 459.492C158.581 466.622 177.431 470.332 194.891 471.152C213.011 472.003 231.081 469.083 247.531 461.293C262.411 454.243 276.331 444.682 289.101 434.342C313.296 414.746 333.81 390.999 349.681 364.212C357.935 350.131 364.925 335.347 370.571 320.033C372.231 315.599 373.826 311.142 375.421 306.684L375.423 306.679L375.425 306.674L375.426 306.672C376.884 302.596 378.342 298.52 379.851 294.462C380.371 293.072 380.911 291.683 381.451 290.303C373.941 283.425 365.43 277.727 356.211 273.402C355.341 272.992 355.981 271.482 356.871 271.852C366.193 275.691 374.855 280.969 382.541 287.492C383.291 285.592 384.051 283.702 384.841 281.822C385.064 281.294 385.546 280.404 386.115 279.355C386.44 278.757 386.792 278.107 387.141 277.443C377.061 270.732 366.331 265.182 354.391 262.072C353.391 261.812 353.841 260.393 354.801 260.583C367.021 262.903 378.091 268.172 388.431 274.742V274.673V273.012C388.234 272.681 388.12 272.307 388.101 271.923C388.101 268.553 390.521 267.923 392.401 269.122C393.383 269.236 394.269 269.768 394.831 270.583C396.416 265.201 397.651 259.723 398.531 254.182C374.801 244.832 350.071 242.622 324.441 244.312C324.102 244.293 323.825 244.036 323.779 243.701C323.733 243.365 323.93 243.043 324.251 242.932C348.681 237.302 375.571 241.572 399.041 250.572C401.004 235.613 400.371 220.427 397.171 205.682C396.311 201.682 401.171 200.013 403.411 203.053L411.321 213.742C413.051 181.912 394.601 151.812 373.281 129.393ZM242.111 245.083C249.831 247.793 250.852 240.258 251.807 233.217L251.881 232.673C249.028 232.339 246.419 230.904 244.611 228.673C239.551 221.872 248.791 218.033 254.331 218.202C259.031 218.342 270.991 222.202 265.691 228.902C264.246 230.69 262.079 231.739 259.781 231.762C259.171 232.02 258.542 232.231 257.901 232.393C257.949 233.388 257.969 234.439 257.989 235.51C258.124 242.645 258.276 250.689 266.971 249.533C269.971 249.132 270.301 253.312 268.371 254.702C263.841 257.962 257.571 254.852 254.911 250.602C254.369 249.726 253.924 248.794 253.581 247.822C253.401 248.053 253.221 248.272 253.021 248.482C249.581 252.152 242.281 253.712 239.451 248.572C238.511 246.852 240.081 244.372 242.111 245.083ZM194.891 168.302C187.031 176.573 188.231 192.893 200.311 196.712C212.961 200.712 224.051 188.723 228.341 178.152C229.411 175.522 225.331 173.243 223.561 175.363C222.369 176.79 221.265 178.356 220.156 179.93L220.156 179.93L220.156 179.93C216.702 184.83 213.196 189.805 206.831 190.902C201.541 191.803 197.071 188.243 196.071 183.143C195.295 179.264 196.692 175.606 198.05 172.05C198.25 171.525 198.449 171.003 198.641 170.482C199.421 168.302 196.371 166.743 194.891 168.302ZM323.061 338.483C316.631 354.483 302.241 367.092 286.431 373.323C270.431 379.633 251.251 379.742 235.431 372.693C229.121 369.883 223.221 365.372 221.031 358.562C218.841 351.753 220.921 344.173 225.531 338.953C230.141 333.733 237.121 330.872 244.071 330.333C246.323 330.161 248.576 330.258 250.828 330.355C253.576 330.473 256.323 330.591 259.071 330.223C264.071 329.553 268.711 327.163 273.071 324.622C288.851 315.533 308.071 303.793 307.011 282.943C306.881 280.353 311.011 279.803 311.531 282.333C315.531 301.493 300.261 315.643 285.531 324.923C285.218 325.12 284.905 325.318 284.59 325.517C284.298 325.703 284.004 325.889 283.71 326.075L283.71 326.076C276.292 330.784 268.308 335.851 259.531 336.923C256.733 337.257 253.856 337.222 250.994 337.186C243.68 337.096 236.461 337.007 230.891 343.103C222.051 352.773 229.531 363.152 239.561 367.182C249.994 371.214 261.341 372.273 272.341 370.242C292.781 366.573 307.031 353.402 317.151 335.992C318.911 332.863 324.461 335.003 323.061 338.483ZM352.311 209.482C357.861 204.852 363.831 199.372 367.991 193.482V193.572C369.541 191.342 366.491 188.412 364.311 189.842C361.122 191.96 358.366 194.857 355.605 197.758C352.004 201.543 348.396 205.335 343.811 207.412C337.761 210.132 332.761 206.812 333.761 200.012C334.164 197.132 334.97 194.245 335.766 191.397C336.055 190.36 336.344 189.328 336.611 188.302C337.331 185.452 333.401 184.562 332.331 187.122C328.551 196.162 322.401 212.003 337.211 214.632C342.871 215.632 348.071 212.992 352.311 209.482Z" fill="#8B5E3C"/>
<path fill-rule="evenodd" clip-rule="evenodd" d="M460.422 293.915C464.519 298.712 469.02 303.982 471.27 309.823C471.81 311.243 469.77 312.273 468.76 311.233C466.128 308.464 463.867 305.302 461.602 302.135C459.728 299.515 457.851 296.891 455.76 294.483C451.46 289.534 446.826 284.887 441.89 280.573C431.26 271.36 419.4 263.673 406.65 257.733C406.316 257.572 405.978 257.425 405.639 257.277L405.639 257.277C405.545 257.236 405.451 257.196 405.357 257.154C405.294 257.127 405.231 257.099 405.168 257.071C405.095 257.039 405.023 257.006 404.95 256.973C403.514 265.379 401.315 273.636 398.38 281.643C401.27 283.753 404.11 285.933 406.91 288.133C407.464 288.568 408.019 289.003 408.574 289.439L408.581 289.445C416.066 295.316 423.656 301.268 430.31 308.053C436.16 314.013 442.52 321.423 443.86 329.923C443.962 330.347 443.741 330.783 443.339 330.952C442.937 331.121 442.471 330.973 442.24 330.603C441.778 329.882 441.321 329.164 440.867 328.451L440.843 328.413L440.824 328.384L440.823 328.383C436.332 321.33 432.078 314.65 425.93 308.683C420.174 303.087 413.89 298.012 407.652 292.975L407.651 292.974L406.748 292.244L406.265 291.854C405.943 291.594 405.621 291.333 405.3 291.073C402.633 288.913 399.933 286.793 397.2 284.713C396.52 286.443 395.82 288.153 395.07 289.863C393.68 292.953 389.29 291.513 388.68 288.713C388.2 289.823 387.74 290.913 387.33 292.013C387.488 292.167 387.645 292.321 387.803 292.474C388.584 293.234 389.361 293.99 390.11 294.823C398.94 304.253 408.04 316.823 410.38 329.823C410.6 330.853 409.15 331.573 408.6 330.573C407.414 328.336 406.277 326.115 405.151 323.917L405.147 323.908L405.146 323.906C400.236 314.317 395.545 305.155 387.99 296.893C387.61 296.472 387.216 296.066 386.821 295.657L386.821 295.657L386.82 295.656L386.819 295.656L386.818 295.654C386.721 295.554 386.624 295.453 386.526 295.352C386.427 295.249 386.328 295.146 386.23 295.043C384.463 300.009 382.723 304.983 381.01 309.963C373.63 331.403 365.18 352.123 353.32 371.513C333.484 403.929 306.944 431.728 275.48 453.043C257.81 464.983 239.01 474.393 217.66 477.223C196.79 479.953 175.43 477.153 155.33 471.223C154.6 471.008 153.858 470.793 153.107 470.576L153.107 470.575C144.833 468.18 135.435 465.459 129.66 458.923C125.37 454.073 122.93 447.403 121.32 440.923C89.4098 444.293 66.8498 471.823 57.4698 500.713C52.7698 515.213 50.5898 530.383 49.5198 545.553C49.432 546.799 49.3624 548.098 49.291 549.43L49.291 549.431C48.785 558.877 48.1882 570.016 40.3798 576.063C30.8498 583.443 17.8298 576.803 11.0198 568.803C2.5298 558.903 -0.000204265 545.693 1.1598 532.983C3.6798 505.573 15.9498 477.863 36.8598 459.613C54.9198 443.733 77.8998 432.983 100.48 424.733C98.6626 422.283 97.0568 419.684 95.6798 416.963C81.9298 419.893 65.6198 409.823 56.3398 400.773C33.1198 378.123 31.3998 343.653 41.1798 314.293C41.2787 313.996 41.386 313.671 41.5016 313.32L41.5022 313.318C44.288 304.869 51.931 281.688 63.9798 290.473C68.4498 293.763 68.9798 300.093 68.9798 305.213V325.333C73.8747 321.189 79.8672 318.556 86.2298 317.753C83.3217 314.018 81.3655 309.632 80.5298 304.973C79.6248 299.5 79.6248 293.916 80.5298 288.443C80.606 287.908 80.6788 287.359 80.7529 286.801C81.3492 282.307 82.0263 277.204 85.2198 273.913C92.1394 266.784 99.0718 274.632 104.46 280.731C105.784 282.23 107.015 283.623 108.13 284.663C117.98 293.833 129.51 300.703 143.08 302.193C143.445 302.234 143.801 302.339 144.13 302.503C146.97 300.903 149.85 299.436 152.77 298.103C146.709 290.038 141.577 281.317 137.47 272.103C132.482 277.252 128.811 283.53 126.77 290.403C125.92 293.143 121.37 293.553 120.77 290.403C119.024 281.232 118.459 271.876 119.09 262.563C115.844 265.138 113.069 268.258 110.89 271.783C109.22 274.503 105.52 273.163 105.22 270.243C104.477 262.817 104.601 255.33 105.59 247.933C103.943 248.286 102.306 248.659 100.68 249.053C90.6798 251.453 80.6698 254.363 70.9998 257.643C66.9409 259.019 62.9366 260.645 58.9307 262.271L58.9305 262.271L58.9302 262.271L58.9299 262.271L58.9296 262.271L58.9294 262.271L58.9291 262.271L58.9288 262.271L58.9285 262.271L58.9282 262.271L58.9279 262.272L58.9276 262.272L58.9273 262.272C53.3907 264.519 47.851 266.767 42.1598 268.363C41.5304 268.5 40.893 268.167 40.647 267.571C40.4009 266.976 40.617 266.29 41.1598 265.943C49.3566 260.705 59.3193 257.416 68.6552 254.334C69.7636 253.969 70.8631 253.606 71.9498 253.243C82.3617 249.78 92.9539 246.886 103.68 244.573L106.16 244.023C107.058 238.879 108.369 233.816 110.08 228.883C105.9 228.923 101.7 229.123 97.4498 229.503C83.962 230.862 70.614 233.364 57.5498 236.983C52.6883 238.278 47.8535 239.831 43.013 241.386C35.6366 243.756 28.247 246.129 20.7298 247.603C19.3698 247.863 18.3498 245.913 19.7298 245.243C31.2635 239.643 44.3768 236.244 56.81 233.021L57.5751 232.823L58.5398 232.573C71.2837 229.144 84.2872 226.766 97.4198 225.463C102.06 225.043 106.8 224.803 111.57 224.753C114.351 217.736 117.942 211.067 122.27 204.883C118.356 207.249 114.54 209.793 110.82 212.513C108.99 213.843 105.79 212.073 106.07 209.783C109.52 181.073 126.09 158.653 148.18 142.653C138.89 127.113 138.18 108.103 140.18 90.5327C142.433 72.2473 146.451 54.2231 152.18 36.7127C155.068 27.5147 158.422 18.4697 162.23 9.61269C164.72 3.89269 168.77 -0.487306 175.54 0.722694C182.47 1.96679 188.007 7.61856 192.84 12.5517C193.252 12.9716 193.658 13.3863 194.06 13.7927C211.681 31.7087 225.381 53.0953 234.29 76.5927C234.352 76.769 234.402 76.9494 234.44 77.1327C241.334 76.4527 248.28 76.4728 255.17 77.1927C250.869 72.1952 247.061 66.7934 243.8 61.0627C243.298 60.1754 243.233 59.1063 243.624 58.1647C244.014 57.2231 244.817 56.5141 245.8 56.2427C261.25 52.9727 274.34 61.8127 285.44 71.6227C289.21 64.0927 298.27 60.3127 306.07 57.7127C321.023 52.7679 336.402 49.2161 352.01 47.1027C355.01 46.6927 357.74 50.0527 355.19 52.5727L337.54 69.9627C344.459 71.1693 351.008 73.951 356.68 78.0927C370.983 67.6398 386.709 59.2884 403.38 53.2927C410.973 50.5221 418.735 48.2408 426.62 46.4627C427.126 46.348 427.638 46.2306 428.153 46.1123C434.553 44.6425 441.571 43.0308 448.05 44.6227C453.36 45.9427 458.34 49.8127 459.7 55.3027C461.116 61.0079 458.358 67.2317 455.908 72.7599C455.296 74.1405 454.703 75.4778 454.2 76.7527L433.92 128.053C433.138 130.029 432.364 132.014 431.589 134.001C426.292 147.583 420.952 161.274 412.63 173.313C412.252 173.872 411.721 174.309 411.1 174.573C417.14 189.943 419.77 206.443 416.99 223.573C416.48 226.783 412.3 226.393 410.79 224.393C409.216 222.259 407.633 220.126 406.04 217.993C407.36 229.708 407.181 241.543 405.51 253.213L407.71 254.213C421.086 260.275 433.515 268.241 444.61 277.863C449.972 282.522 454.986 287.569 459.61 292.963C459.878 293.278 460.149 293.595 460.422 293.915ZM452.45 62.3127C453.24 59.4427 453.13 57.2427 452.33 55.5727C441.159 59.1788 430.922 64.9418 420.67 70.7134L420.669 70.7138L420.669 70.7142L420.668 70.7147L420.667 70.7151L420.666 70.7155L420.665 70.716C417.841 72.3059 415.016 73.8965 412.17 75.4427C410.238 76.496 408.298 77.5261 406.364 78.5536L406.361 78.555L406.355 78.5582L406.352 78.5596C395.764 84.1835 385.319 89.7312 377.01 98.5727C384.229 108.213 390.197 118.731 394.77 129.873C395.92 132.533 392.15 135.133 389.92 133.603C387.87 132.166 385.571 131.121 383.14 130.523C393.01 141.713 401.79 154.203 408.08 167.623C416.274 155.081 421.695 140.88 427.05 126.852L427.052 126.847C428.31 123.551 429.564 120.265 430.85 117.013C434.53 107.786 438.196 98.5527 441.85 89.3127C442.981 86.4524 444.223 83.5785 445.472 80.6891C448.086 74.6382 450.731 68.519 452.45 62.3127ZM406.94 58.8727L407.056 58.8327C412.629 56.9201 431.573 50.4181 443.32 51.1827C439.756 52.8184 436.281 54.641 432.91 56.6427C424.91 61.0427 416.91 65.4494 408.91 69.8627C406.543 71.1741 403.962 72.4834 401.29 73.8388L401.29 73.839C391.044 79.0361 379.462 84.9109 373.53 94.1827C372.06 92.4027 370.53 90.6427 368.97 88.9427C366.604 86.3828 364.083 83.9715 361.42 81.7227C375.565 72.2096 390.86 64.5315 406.94 58.8727ZM199.38 29.7527C193.98 23.1227 188.08 16.2727 181.38 10.8727V10.8427C179.53 9.35269 176.77 7.33269 174.13 7.06269C182.545 16.6746 188.958 28.8305 194.898 40.0891L194.898 40.0896L194.898 40.0897C195.311 40.8721 195.721 41.6501 196.13 42.4227C202.764 55.0178 208.625 68.0051 213.68 81.3127C218.17 79.9392 222.747 78.8669 227.38 78.1027C220.693 60.5921 211.239 44.2679 199.38 29.7527ZM147.06 85.8727C150.048 66.2902 154.972 47.0527 161.76 28.4427C163.68 23.0727 165.68 17.6827 168.02 12.5027C168.133 12.2569 168.244 12.0036 168.356 11.7469L168.357 11.7451L168.358 11.7437L168.358 11.7427L168.358 11.7425C168.634 11.1127 168.919 10.4626 169.26 9.85269C172.416 15.9132 176.052 21.7185 179.69 27.5265C183.255 33.2186 186.822 38.9132 189.94 44.8527C196.502 57.3906 202.283 70.3219 207.25 83.5727C189.785 90.1112 174.439 101.297 162.87 115.923C161.1 118.183 162.13 121.553 165.26 121.683C171.223 121.929 177.146 122.773 182.94 124.203C172.482 128.13 162.486 133.19 153.13 139.293C144.54 122.663 144.36 104.063 147.06 85.8527V85.8727ZM87.3298 286.183C86.7924 289.197 86.4583 292.244 86.3298 295.303C86.0637 299.358 86.5554 303.427 87.7798 307.303C88.5798 309.643 91.8698 315.503 93.8698 316.753L97.0598 318.163V318.223C103.117 319.53 108.67 322.549 113.06 326.923C119.914 319.415 127.689 312.802 136.2 307.243C122.77 304.743 111.08 296.563 101.33 287.083C100.852 286.618 100.258 285.909 99.5784 285.098L99.5782 285.098C96.6042 281.549 92.0085 276.066 88.4998 280.723C87.8387 281.604 87.6578 283.322 87.5053 284.77C87.4502 285.294 87.3988 285.782 87.3298 286.183ZM93.2598 411.713C92.0934 411.476 90.9299 411.261 89.7701 411.047C85.2422 410.211 80.7703 409.385 76.3998 407.323C70.3389 404.434 64.8294 400.508 60.1198 395.723C48.9198 384.453 42.8598 369.433 41.8698 353.663C40.7898 336.593 44.9998 319.433 52.0398 303.953C52.1441 303.723 52.2625 303.451 52.3945 303.147C53.7687 299.986 56.6223 293.421 60.4998 296.113C62.6092 297.579 62.4907 302.067 62.4141 304.969C62.4014 305.451 62.3898 305.889 62.3898 306.263V333.753C62.3898 337.193 66.7398 337.993 68.5198 335.413C78.1598 321.473 97.1598 320.473 108.69 332.113C104.7 337.092 101.21 342.451 98.2698 348.113C88.6798 366.733 85.4798 391.503 93.2598 411.713ZM397.17 205.693C396.31 201.723 401.16 200.063 403.41 203.063L411.3 213.783C413.07 181.943 394.62 151.843 373.3 129.423C371.75 127.803 372.17 124.313 374.75 123.923C378.18 123.371 381.684 123.487 385.07 124.263C379.887 113.7 373.308 103.883 365.51 95.0727C356.34 84.7727 344.53 75.2927 330 76.1627C327.11 76.3427 325.75 72.4827 327.68 70.5727L343.35 55.1227C334.116 56.7391 324.981 58.8793 315.99 61.5327C315.081 61.8024 314.109 62.0761 313.095 62.3618C304.072 64.9035 291.698 68.3891 290.17 78.4127C289.77 80.9927 286.31 81.3727 284.69 79.8627C275.89 71.6627 264.8 61.7427 252.16 62.0627C256.377 68.4974 261.316 74.4292 266.88 79.7427C269.45 82.2127 266.75 86.0927 263.58 85.4127C230.23 78.2527 194.7 90.2627 172.05 115.413C179.818 116.222 187.452 118.013 194.77 120.743C197.83 121.883 198.14 126.273 194.77 127.273C157.89 138.443 121.84 163.683 113.56 202.993C119.932 198.791 126.596 195.048 133.5 191.793C136.58 190.343 139.91 194.073 137.27 196.673C129.105 204.746 122.579 214.322 118.05 224.873C136.09 225.503 154.33 229.263 169.62 238.503C170.56 239.073 169.92 240.773 168.85 240.333C152.195 233.412 134.426 229.56 116.4 228.963C114.725 233.468 113.411 238.099 112.47 242.813C128.55 239.973 145.54 239.243 159.89 247.873C160.42 248.223 160.08 249.243 159.42 248.983C143.95 242.853 127.71 243.663 111.78 246.663C110.985 251.712 110.631 256.822 110.72 261.933C113.741 258.683 117.266 255.941 121.16 253.813C122.98 252.803 126.09 254.023 125.79 256.473C124.871 263.632 124.7 270.868 125.28 278.063C128.141 272.965 131.863 268.401 136.28 264.573C137.081 263.804 138.226 263.511 139.298 263.8C140.369 264.088 141.212 264.916 141.52 265.983C145.809 276.593 151.489 286.587 158.41 295.703L161.86 300.053C172.966 313.473 186.618 324.563 202.03 332.683C205 334.243 202.41 338.633 199.41 337.153C182.929 328.914 168.359 317.311 156.64 303.093C136.06 314.453 117.06 328.143 105.52 349.363C92.8498 372.673 93.0498 399.513 106.77 422.123C106.979 422.473 107.13 422.855 107.22 423.253C108.99 424.273 109.63 427.393 107.39 428.393C103.671 430.06 99.9235 431.689 96.1734 433.319C74.7138 442.645 53.1678 452.008 36.3898 468.923C26.8396 478.71 19.5398 490.463 14.9998 503.363C10.3198 516.163 6.2398 530.593 7.6998 544.363C8.35091 551.605 11.1349 558.492 15.6998 564.153C19.6598 568.873 26.9698 574.333 33.5498 572.333C42.553 569.613 42.7774 555.452 42.9337 545.591C42.9699 543.305 43.0024 541.25 43.1398 539.623C45.2598 514.343 51.1298 488.163 66.4298 467.403C79.3798 449.823 98.0698 436.843 119.91 434.123C116.869 416.741 118.872 398.852 125.68 382.573C128.934 374.748 133.288 367.428 138.61 360.833C143.15 355.223 150.39 346.383 158.72 349.003C170.29 352.643 167.72 367.703 163.35 379.703C175.28 374.543 190.02 377.213 200.18 386.133C217.05 400.983 217.88 425.343 210.49 445.133C208.88 449.433 201.94 447.563 203.56 443.223C209.71 426.753 210.43 406.953 197.56 393.393C186.6 381.823 167.69 380.243 157.04 393.133C154.43 396.293 149.67 392.223 151.55 388.893C155.92 381.123 160.31 370.883 159.64 361.723C159.51 359.943 159.21 357.793 157.82 356.543C154.83 353.843 150.68 357.993 148.58 360.113C145.639 363.103 142.963 366.342 140.58 369.793C130.804 383.957 125.534 400.743 125.46 417.953C125.41 432.223 127.89 452.963 142.53 459.473C158.58 466.603 177.43 470.313 194.89 471.133C213.01 471.983 231.08 469.063 247.53 461.273C262.41 454.223 276.33 444.663 289.1 434.323C313.293 414.733 333.807 390.992 349.68 364.213C357.927 350.128 364.911 335.34 370.55 320.023C372.212 315.585 373.808 311.123 375.405 306.661C376.863 302.585 378.321 298.51 379.83 294.453C380.35 293.063 380.89 291.673 381.43 290.293C373.92 283.415 365.41 277.717 356.19 273.393C355.32 272.983 355.96 271.473 356.85 271.843C366.172 275.681 374.834 280.959 382.52 287.483C383.27 285.583 384.03 283.693 384.82 281.813C385.141 281.051 385.968 279.54 386.874 277.882L387.12 277.433C377.04 270.723 366.31 265.173 354.37 262.063C353.4 261.803 353.78 260.383 354.78 260.573C367 262.893 378.07 268.163 388.41 274.733V274.663V273.003C388.213 272.672 388.1 272.297 388.08 271.913C388.03 268.543 390.5 267.923 392.38 269.113C393.362 269.226 394.248 269.758 394.81 270.573C396.395 265.191 397.631 259.713 398.51 254.173C374.78 244.823 350.05 242.613 324.42 244.303C324.081 244.283 323.804 244.027 323.758 243.691C323.712 243.355 323.909 243.033 324.23 242.923C348.68 237.293 375.57 241.513 399.04 250.573C401.002 235.616 400.369 220.434 397.17 205.693Z" fill="#231F20"/>
<path d="M253.02 248.453C253.22 248.243 253.4 248.023 253.58 247.793C253.923 248.764 254.369 249.696 254.91 250.573C257.57 254.823 263.84 257.933 268.37 254.673C270.3 253.283 270.01 249.103 266.97 249.503C256.97 250.833 258.27 239.993 257.9 232.363C258.542 232.201 259.171 231.99 259.78 231.733C262.075 231.706 264.238 230.658 265.68 228.873C270.98 222.163 259.02 218.313 254.32 218.173C248.78 218.003 239.54 221.843 244.6 228.643C246.409 230.874 249.018 232.31 251.87 232.643C250.87 239.833 250.02 247.833 242.1 245.053C240.1 244.343 238.5 246.823 239.44 248.513C242.28 253.683 249.58 252.123 253.02 248.453Z" fill="#231F20"/>
<path d="M317.1 335.973C306.98 353.383 292.73 366.553 272.29 370.223C261.294 372.253 249.95 371.194 239.52 367.163C229.52 363.163 222 352.753 230.84 343.083C238.59 334.603 249.53 338.083 259.48 336.903C269.01 335.763 277.58 329.903 285.48 324.903C300.23 315.623 315.48 301.473 311.48 282.313C310.96 279.783 306.83 280.313 306.96 282.923C308.06 303.773 288.79 315.513 273.02 324.603C268.62 327.143 264.08 329.513 259.02 330.203C253.96 330.893 249.02 329.933 244.02 330.313C237.07 330.853 230.16 333.633 225.48 338.933C220.8 344.233 218.83 351.833 220.98 358.543C223.13 365.253 229.07 369.863 235.38 372.673C251.19 379.723 270.38 379.613 286.38 373.303C302.19 367.073 316.58 354.423 323.01 338.463C324.46 335.003 318.91 332.863 317.1 335.973Z" fill="#231F20"/>
<path d="M223.561 175.373C218.661 181.233 215.241 189.453 206.831 190.903C201.541 191.803 197.101 188.243 196.071 183.143C195.181 178.693 197.151 174.533 198.641 170.483C199.421 168.343 196.371 166.743 194.891 168.303C187.031 176.573 188.231 192.893 200.311 196.713C212.961 200.713 224.051 188.713 228.311 178.153C229.411 175.573 225.331 173.233 223.561 175.373Z" fill="#231F20"/>
<path d="M364.31 189.863C356.96 194.743 351.91 203.763 343.81 207.433C337.81 210.153 332.81 206.833 333.76 200.033C334.31 196.103 335.63 192.163 336.61 188.323C337.35 185.473 333.4 184.583 332.33 187.143C328.55 196.143 322.4 212.023 337.21 214.653C342.87 215.653 348.07 213.013 352.31 209.503C357.86 204.903 363.83 199.423 367.99 193.503C369.54 191.343 366.49 188.413 364.31 189.863Z" fill="#231F20"/>
</svg>
