<svg width="433" height="596" viewBox="0 0 433 596" fill="none" xmlns="http://www.w3.org/2000/svg">
<path d="M342.16 54.689C340.16 78.209 327.64 98.979 315.16 118.429C327.22 128.199 336.1 140.429 344.32 153.179C348.882 146.778 352.527 139.77 355.149 132.359L354.699 132.459C351.429 133.039 348.309 129.829 350.209 126.619C359.361 111.166 363.813 93.3813 363.019 75.439C362.4 76.0407 361.745 76.6051 361.059 77.129C358.679 78.999 353.949 78.129 354.289 74.329C355.542 60.2325 352.532 46.0846 345.649 33.719C342.991 28.8722 339.809 24.3317 336.16 20.179C341.203 30.9411 343.274 42.8564 342.16 54.689Z" fill="white"/>
<path fill-rule="evenodd" clip-rule="evenodd" d="M333.062 57.959C335.322 42.689 332.252 25.289 321.852 13.519C319.419 30.1956 313.14 46.0775 303.512 59.909C294.692 72.579 281.862 86.479 267.102 93.289C281.689 97.8366 295.511 104.552 308.102 113.209C319.072 96.209 330.072 78.249 333.062 57.959ZM297.062 79.959C293.002 84.369 287.542 89.809 281.252 90.219C280.372 90.269 280.322 89.029 281.062 88.769C286.872 86.669 292.012 81.099 295.892 76.419C297.611 74.3576 299.003 72.0655 300.392 69.7789C301.881 67.329 303.365 64.8856 305.243 62.739C305.723 62.179 306.893 62.599 306.783 63.379C305.913 69.639 301.162 75.439 297.032 79.969L297.062 79.959ZM309.672 56.279C308.993 57.6069 308.235 58.8926 307.402 60.129C306.932 60.829 307.882 61.809 308.542 61.269C309.863 60.339 311.022 59.197 311.972 57.889C312.822 56.679 313.922 54.969 313.492 53.449C313.395 53.1304 313.159 52.8727 312.85 52.7483C312.541 52.624 312.192 52.6463 311.902 52.809C311.022 53.3679 310.571 54.3599 310.133 55.3215C309.983 55.6504 309.835 55.9758 309.672 56.279Z" fill="#F7941E"/>
<path fill-rule="evenodd" clip-rule="evenodd" d="M91.2894 134.999C92.1894 133.909 93.1294 132.839 94.0893 131.799C100.909 123.289 110.809 116.689 119.909 111.469C124.268 108.982 128.758 106.732 133.359 104.729C126.688 102.952 120.559 97.962 115.47 93.8195L115.359 93.729C108.066 87.8241 101.425 81.1562 95.5494 73.839C85.7962 61.6736 77.5092 48.4023 70.8594 34.299C61.9741 68.6054 69.2197 105.091 90.5394 133.399C90.9097 133.867 91.1664 134.415 91.2894 134.999ZM101.219 91.999C101.953 92.8065 102.83 93.5157 103.712 94.2284C105.231 95.4573 106.764 96.6968 107.599 98.469C107.757 98.7552 107.729 99.1074 107.53 99.3657C107.33 99.6241 106.996 99.7393 106.679 99.659C104.066 98.8501 102.566 96.5818 101.119 94.3946L101.119 94.3944C100.778 93.878 100.439 93.3661 100.089 92.879C99.6094 92.129 100.679 91.379 101.219 91.969V91.999ZM82.1594 64.869C81.7507 64.869 81.4194 65.2003 81.4194 65.609V65.579C81.0494 70.249 83.2894 74.239 85.7294 78.009C88.1694 81.779 91.0594 85.919 95.0594 88.069C95.3636 88.2372 95.7424 88.1838 95.9883 87.9379C96.2341 87.6921 96.2875 87.3133 96.1194 87.009C94.7444 84.5033 92.6994 82.147 90.6258 79.758C86.9233 75.4921 83.1301 71.1217 82.8994 65.609C82.8994 65.2003 82.568 64.869 82.1594 64.869Z" fill="#F7941E"/>
<path d="M83.9985 145.409C85.2185 143.409 86.5585 141.329 87.9985 139.309C86.2215 139.804 84.3229 139.157 83.2185 137.679C61.6185 109.149 53.8385 71.369 61.6185 36.679C60.2685 38.469 58.9685 40.329 57.7685 42.289C53.9946 48.4854 50.9224 55.0827 48.6085 61.959C43.7218 76.2351 42.5179 91.5138 45.1085 106.379C45.8485 110.499 40.0485 113.659 37.9185 109.379L35.2885 104.129C33.4885 115.499 39.8485 128.369 44.8585 137.979C51.2285 150.199 60.3685 161.979 74.0685 165.979C76.7934 158.855 80.1152 151.974 83.9985 145.409Z" fill="white"/>
<path fill-rule="evenodd" clip-rule="evenodd" d="M220.787 260.979C229.032 264.528 237.711 266.966 246.597 268.229C264.422 270.752 282.534 270.428 300.257 267.269C334.97 261.326 367.375 245.937 393.917 222.789C400.565 225.903 407.787 227.606 415.127 227.789C414.478 228.588 413.834 229.395 413.191 230.204C410.652 233.392 408.102 236.593 405.127 239.329C398.007 245.829 389.477 250.899 379.617 251.329C374.627 251.549 373.917 258.159 378.467 259.809C391.265 264.473 405.087 265.586 418.467 263.029C414.878 267.108 410.917 270.844 406.637 274.189C399.091 280.556 391.192 286.492 382.977 291.969C374.535 297.573 365.157 301.617 355.287 303.909C345.682 306.018 335.838 306.306 326.04 306.593C324.871 306.628 323.704 306.662 322.537 306.699C318.797 306.819 316.537 312.559 320.467 314.339C327.417 317.537 334.741 319.848 342.267 321.219C328.403 334.59 311.154 343.925 292.377 348.219C272.957 352.709 244.347 353.949 229.547 338.009C228.834 337.179 227.783 336.719 226.689 336.758C225.596 336.797 224.58 337.331 223.927 338.209C218.642 340.941 214.253 344.863 209.86 348.789C206.149 352.105 202.436 355.424 198.177 358.029C187.594 364.508 173.489 366.339 161.339 367.917L160.938 367.969C140.188 370.659 117.188 369.289 99.7777 357.069C107.713 354.462 114.716 349.597 119.928 343.069C122.698 339.589 120.208 334.499 115.528 335.499C79.2878 343.409 39.9379 327.639 18.528 297.639C31.7544 295.402 43.6749 288.323 51.9679 277.779C54.2779 274.869 52.9679 270.669 48.9679 270.459C35.6679 269.739 24.4679 264.379 14.668 256.319C16.9709 256 19.2519 255.54 21.4979 254.939C25.2918 253.923 28.956 252.474 32.4179 250.619C41.6779 259.209 54.7379 263.639 66.7378 266.359C82.0778 269.829 98.0777 271.379 113.738 272.589C146.038 275.069 179.568 272.849 207.737 255.199C208.078 254.982 208.388 254.72 208.657 254.419C211.667 257.084 216.224 259.028 219.391 260.378C219.896 260.593 220.365 260.793 220.787 260.979ZM213.298 305.749C219.578 306.789 225.568 306.109 229.298 300.489C232.988 294.949 237.438 286.269 234.498 279.739C233.788 278.189 231.348 278.019 230.248 279.189C228.165 281.409 227.12 284.64 226.095 287.805C224.278 293.423 222.526 298.835 215.158 298.029C210.592 297.613 206.42 295.271 203.688 291.589C202.04 289.213 201.73 286.792 201.411 284.302C201.226 282.863 201.039 281.4 200.588 279.909C200.381 279.164 199.797 278.582 199.051 278.378C198.306 278.173 197.507 278.374 196.948 278.909C192.828 283.179 194.618 290.649 197.298 295.289C200.608 301.089 206.798 304.679 213.298 305.749Z" fill="white"/>
<path fill-rule="evenodd" clip-rule="evenodd" d="M226.889 346.759C243.259 361.649 271.179 361.129 291.419 357.129C309.058 353.602 325.592 345.889 339.629 334.639C340.852 335.892 342.086 337.14 343.321 338.39L343.322 338.39L343.322 338.391C351.82 346.991 360.393 355.668 366.269 366.319C373.759 379.889 374.209 395.479 373.209 410.609C371.649 434.649 364.389 459.119 347.809 476.889C342.077 462.097 333.02 448.822 321.339 438.089C318.169 435.189 312.129 437.979 313.679 442.549C324.519 474.559 316.539 510.869 294.159 535.719C293.728 523.893 290.685 512.31 285.249 501.799C283.359 498.129 278.219 499.459 277.039 502.869C274.247 510.895 269.797 519.063 265.274 527.365L265.274 527.365C257.906 540.888 250.344 554.767 249.439 568.969C243.459 559.279 238.629 549.079 236.129 537.439C235.667 535.286 235.234 533.109 234.799 530.925L234.799 530.925L234.799 530.925L234.799 530.924L234.799 530.924L234.799 530.924C232.017 516.939 229.176 502.662 218.339 492.499C214.859 489.259 210.159 492.569 210.859 496.849C211.516 500.839 211.91 504.868 212.039 508.909C209.954 504.771 207.462 500.852 204.599 497.209C197.369 487.989 187.869 481.179 178.149 474.819C176.706 473.873 175.252 472.934 173.795 471.994C165.636 466.728 157.407 461.417 150.619 454.399C141.436 444.828 136.348 432.053 136.439 418.789C136.419 415.299 130.889 413.209 129.329 416.869C125.229 426.539 123.529 436.539 124.979 446.539C114.499 438.259 105.689 427.819 100.689 415.329C94.719 400.339 94.959 383.179 102.049 368.689C119.189 377.759 139.409 379.709 158.979 377.489C171.899 376.019 185.979 374.099 197.979 368.659C204.97 365.473 210.672 360.439 216.377 355.402C219.788 352.39 223.2 349.378 226.889 346.759ZM108.499 387.609C106.709 397.109 107.919 407.119 113.919 414.959V414.939C114.079 415.235 114.449 415.344 114.744 415.184C115.039 415.024 115.149 414.655 114.989 414.359C110.989 405.939 108.659 397.369 109.989 388.019C110.129 387.059 108.689 386.609 108.499 387.609ZM178.469 430.849C174.319 424.789 174.609 416.369 175.859 409.459C176.019 408.539 177.589 408.759 177.469 409.669C176.691 415.366 177.73 420.422 178.818 425.716L178.818 425.716C179.128 427.224 179.442 428.752 179.719 430.319C179.777 430.64 179.602 430.957 179.301 431.081C178.999 431.204 178.652 431.099 178.469 430.829V430.849ZM185.159 423.379C187.859 436.319 196.059 451.109 207.159 458.689C207.849 459.129 208.839 458.199 208.359 457.479C206.665 455.073 204.789 452.819 202.913 450.564L202.913 450.563C200.757 447.973 198.601 445.382 196.719 442.559C193.08 437.199 190.331 431.286 188.579 425.049C185.033 412.176 187.341 398.394 194.889 387.379C195.239 386.869 194.469 386.299 194.049 386.729C184.779 396.279 182.509 410.689 185.159 423.379ZM266.539 465.089C267.054 463.893 267.589 462.704 268.123 461.517C271.341 454.362 274.523 447.289 273.099 439.149C273.019 438.712 273.286 438.285 273.714 438.166C274.142 438.046 274.591 438.273 274.749 438.689C278.199 448.449 273.699 458.059 267.939 465.909C267.724 466.301 267.231 466.444 266.839 466.229C266.447 466.014 266.304 465.521 266.519 465.129L266.539 465.089ZM274.029 475.089C273.709 475.889 274.609 476.799 275.289 476.089L275.269 476.049C286.079 464.679 289.719 446.209 288.899 431.019C288.118 414.869 281.724 399.498 270.819 387.559C270.369 387.079 269.489 387.729 269.889 388.289C278.759 400.829 284.719 415.559 285.409 431.019C286.11 446.878 280.558 459.843 274.511 473.962L274.029 475.089ZM339.579 420.499C339.199 421.339 338.029 420.839 337.989 420.069C337.91 418.78 337.871 417.507 337.832 416.246C337.698 411.909 337.569 407.711 335.849 403.489C335.389 402.379 337.259 401.619 337.759 402.679C340.379 408.129 342.159 414.639 339.559 420.459L339.579 420.499ZM352.819 409.349C353.975 401.577 353.873 393.669 352.519 385.929L352.499 385.889C350.069 373.459 343.419 362.739 332.419 356.279C331.869 355.949 331.409 356.769 331.919 357.129C342.369 364.379 348.059 377.129 349.599 389.509C350.367 396.633 350.172 403.827 349.019 410.899C348.628 413.483 347.998 416.094 347.364 418.715C346.343 422.939 345.316 427.19 345.279 431.399C345.301 431.891 345.639 432.312 346.114 432.44C346.59 432.568 347.093 432.373 347.359 431.959C350.712 425.763 351.755 417.64 352.66 410.581C352.714 410.167 352.766 409.756 352.819 409.349Z" fill="#FBB040"/>
<path d="M126.811 216.799C130.501 215.169 130.541 209.079 127.721 206.519C125.721 204.689 122.351 206.889 119.621 209.069C119.407 209.715 119.292 210.389 119.281 211.069C119.261 214.839 123.031 218.459 126.811 216.799Z" fill="white"/>
<path fill-rule="evenodd" clip-rule="evenodd" d="M41.1613 244.959C40.2213 245.679 39.2613 246.369 38.2812 247.039C48.0051 253.337 58.8428 257.719 70.2113 259.949C84.8014 262.949 99.8914 264.259 114.731 265.209C143.732 267.049 174.132 264.569 199.732 249.959C193.572 248.599 188.092 245.369 188.882 239.509C189.509 234.859 193.963 233.709 197.901 232.692L197.952 232.679C203.889 231.137 210.008 230.4 216.142 230.489C220.912 230.579 226.792 230.759 230.452 234.289C233.351 237.008 233.78 241.457 231.452 244.679C228.722 248.399 223.842 249.079 219.582 249.419C218.042 249.539 216.512 249.599 214.972 249.629C215.553 249.931 216.171 250.2 216.78 250.464C217.218 250.654 217.651 250.842 218.062 251.039C222.17 253.009 226.414 254.68 230.762 256.039C238.696 258.502 246.88 260.071 255.162 260.719C271.518 261.969 287.969 260.868 304.012 257.449C333.887 251.196 361.741 237.619 385.072 217.939C374.732 211.339 365.702 202.189 358.692 192.939C352.85 185.232 347.756 176.972 342.667 168.718C333.887 154.481 325.12 140.264 312.542 128.939C293.622 111.939 269.052 102.369 244.442 97.179C229.522 94.039 215.392 94.659 200.382 96.729C186.503 98.4773 172.739 101.042 159.162 104.409C146.275 107.622 133.844 112.443 122.161 118.759C118.273 120.961 114.538 123.423 110.981 126.129C106.978 129.431 103.24 133.042 99.8014 136.929C94.7581 143.024 90.4858 149.718 87.0814 156.859C82.4576 166.207 79.1445 176.069 75.8278 185.941L75.8278 185.941L75.8277 185.941L75.8277 185.941C73.5493 192.723 71.2692 199.51 68.5613 206.139C62.4313 221.059 54.2413 235.019 41.1613 244.959ZM331.921 207.769C332.854 206.862 334.1 206.346 335.401 206.329C336.701 206.352 337.945 206.867 338.881 207.769C339.817 208.693 340.343 209.954 340.343 211.269C340.343 212.584 339.817 213.845 338.881 214.769C337.956 215.702 336.696 216.227 335.381 216.227C334.067 216.227 332.807 215.702 331.881 214.769C330.957 213.847 330.439 212.595 330.441 211.289C330.457 209.962 331.001 208.695 331.951 207.769H331.921ZM322.881 158.819C321.654 156.7 320.087 154.798 318.241 153.189H318.271C317.921 152.899 317.221 153.129 317.381 153.679C318.295 155.912 319.385 158.069 320.641 160.129C320.96 160.702 321.263 161.291 321.567 161.882L321.567 161.883L321.569 161.885C322.388 163.48 323.215 165.087 324.381 166.429C325.081 167.229 326.161 166.349 326.011 165.489C325.591 163.089 324.151 160.819 322.881 158.819ZM315.331 206.239C308.611 213.669 295.331 209.369 290.591 201.659C289.915 201.204 289.417 200.529 289.181 199.749C288.826 198.447 288.721 197.09 288.871 195.749C288.631 189.749 291.981 183.169 298.211 183.649C301.43 181.916 305.198 181.511 308.711 182.519C317.371 185.409 321.581 199.379 315.361 206.239H315.331ZM310.141 137.619C300.321 124.289 282.931 116.429 267.671 111.489H267.701C267.161 111.299 266.911 112.129 267.421 112.379C275.319 115.576 282.858 119.599 289.911 124.379C293.612 126.828 297.006 129.629 300.399 132.43C303.13 134.685 305.861 136.94 308.751 139.009C309.561 139.619 310.731 138.429 310.141 137.619ZM95.6112 232.569V232.999C95.6128 233.917 95.3676 234.818 94.9012 235.609L94.1012 236.609C92.0836 238.62 88.8189 238.62 86.8013 236.609C86.306 236.158 85.9371 235.586 85.7313 234.949C85.409 234.333 85.2571 233.643 85.2912 232.949L85.2313 232.519C85.2064 231.13 85.7607 229.793 86.7612 228.829C87.7388 227.848 89.0665 227.297 90.4512 227.297C91.836 227.297 93.1637 227.848 94.1413 228.829C95.1155 229.826 95.6456 231.175 95.6112 232.569ZM120.651 138.209C119.889 139.071 119.049 139.861 118.141 140.569H118.161C117.481 141.129 118.331 142.129 119.071 141.769C120.163 141.102 121.191 140.335 122.141 139.479C123.118 138.725 123.821 137.671 124.141 136.479C124.221 135.799 123.421 135.579 122.951 135.799C122.295 136.092 121.745 136.812 121.241 137.473L121.241 137.473C121.038 137.738 120.843 137.994 120.651 138.209ZM136.501 202.659C141.981 211.869 138.101 224.739 126.631 226.119C117.061 227.269 109.791 218.199 111.061 209.379C110.912 208.829 110.912 208.249 111.061 207.699C114.441 196.759 129.931 191.599 136.501 202.659ZM84.7105 191.7C81.5627 201.313 78.4114 210.937 72.8013 219.429C72.3013 220.179 73.4912 221.129 74.0713 220.369C81.0795 211.404 84.6622 201.012 88.3038 190.449C88.8867 188.758 89.4711 187.063 90.0713 185.369C92.4915 178.384 95.5756 171.646 99.2812 165.249C101.305 161.805 103.669 158.616 106.033 155.427C107.979 152.802 109.925 150.177 111.681 147.409C112.301 146.429 110.971 145.639 110.191 146.259C100.091 154.219 93.4212 167.739 88.9212 179.509C87.3918 183.512 86.0515 187.605 84.7105 191.7Z" fill="#F7941E"/>
<path d="M303.261 191.129C300.711 192.009 299.381 194.429 298.031 196.849C299.801 199.409 306.751 203.129 308.881 199.399C310.701 196.249 307.001 189.879 303.261 191.129Z" fill="white"/>
<path fill-rule="evenodd" clip-rule="evenodd" d="M22.1597 245.579C29.7232 242.813 36.5612 238.368 42.1597 232.579C54.1597 220.639 60.3497 204.489 65.9197 188.789C66.5179 187.085 67.1117 185.376 67.7059 183.666C68.8895 180.259 70.0747 176.848 71.2997 173.459C55.4597 168.199 44.8097 155.039 37.2997 140.569C30.0897 126.659 21.3197 106.889 31.4197 92.299C32.4532 90.843 34.2527 90.1397 35.9997 90.509C35.9934 79.7957 37.7606 69.1552 41.2297 59.019C46.0797 44.919 54.6797 29.939 66.6797 20.509C68.3597 18.229 72.4497 17.249 73.8397 20.509C81.0197 37.439 89.5697 53.949 101.11 68.359C106.769 75.4897 113.134 82.0296 120.11 87.879C122.274 89.6711 124.669 91.31 127.081 92.9605L127.081 92.9606L127.081 92.9607C131.277 95.8323 135.525 98.7391 138.7 102.549C145.938 99.7102 153.337 97.3027 160.86 95.339C175.071 91.7645 189.47 88.9835 203.99 87.009C217.929 84.8081 232.148 85.0891 245.99 87.839C249.823 88.619 253.63 89.509 257.41 90.509C259.954 88.686 262.561 86.9817 265.166 85.2792L265.167 85.2787C270.006 82.116 274.835 78.9594 279.23 75.059C285.918 69.1742 291.82 62.4522 296.79 55.059C306.924 40.0801 312.939 22.6982 314.23 4.65904C314.432 2.56593 315.923 0.823384 317.96 0.299043C318.461 0.0409286 319.032 -0.0534935 319.59 0.0290427C326.72 1.14904 333.47 6.98904 338.59 11.799C344.133 17.0133 348.854 23.0385 352.59 29.669C357.293 37.9798 360.416 47.0903 361.8 56.539C363.7 54.659 367.87 54.989 368.56 58.149C373.028 78.5859 371.018 99.907 362.81 119.149C364.961 119.714 366.285 121.876 365.81 124.049C363.064 137.392 357.331 149.94 349.04 160.749C349.663 161.746 350.285 162.745 350.908 163.743L350.924 163.77L350.926 163.773C354.443 169.416 357.967 175.07 361.7 180.559C376.02 201.609 396.19 219.539 423.07 217.859C424.085 217.783 425.089 218.106 425.87 218.759C426.174 218.934 426.423 219.19 426.59 219.499C428.22 221.689 427.95 225.489 425.22 226.689C422.09 234.839 414.9 242.329 408.73 247.689C405.242 250.755 401.382 253.369 397.24 255.469C407.43 256.503 417.722 255.165 427.31 251.559C431.25 250.089 433.67 254.899 432.25 257.979C427.92 267.489 420.26 274.489 412.25 280.979C404.24 287.469 396.16 294.009 387.48 299.589C378.33 305.469 368.36 310.139 357.68 312.369C354.53 313.029 351.35 313.509 348.16 313.879C349.08 313.979 350 314.059 350.92 314.119C352.551 314.173 354.001 315.176 354.625 316.685C355.25 318.193 354.935 319.927 353.82 321.119C351.437 323.842 348.917 326.442 346.27 328.909C357.69 338.889 368.97 349.969 375.97 363.609C383.44 378.189 384.3 394.529 383.16 410.609C381.08 439.539 371.55 469.269 349.16 488.879C347.946 490.059 346.204 490.517 344.567 490.087C342.93 489.658 341.637 488.403 341.16 486.779C337.98 476.31 333.028 466.464 326.52 457.669C331.06 491.529 318.41 527.199 292.47 549.959C289.83 552.269 284.4 550.979 284.83 546.799C285.972 536.161 284.767 525.401 281.3 515.279C279.187 519.452 276.749 523.743 274.265 528.117C263.108 547.759 251.008 569.06 263.17 588.689C266.29 593.729 258.84 597.619 255.45 593.199C244 578.299 233.02 562.949 228.45 544.439C227.531 540.752 226.818 536.893 226.099 532.996C224.799 525.955 223.477 518.791 220.87 512.289C220.838 518.931 220.168 525.555 218.87 532.069C218.05 536.179 211.07 536.349 210.39 532.069C208.434 518.701 202.286 506.299 192.83 496.649C186.033 489.82 177.959 484.561 169.91 479.32L169.91 479.32C168.07 478.121 166.231 476.924 164.41 475.709C150.55 466.449 138.44 455.149 132.55 440.589C132.917 445.689 134.071 450.702 135.97 455.449C137.34 458.889 132.71 461.979 129.83 460.159C113.59 449.899 99.7297 435.599 92.7297 417.489C86.1197 400.509 86.5697 380.779 95.7297 364.939C92.6046 362.845 89.6519 360.504 86.8997 357.939C83.7797 355.029 86.5397 350.799 90.0497 350.339C94.3348 349.784 98.477 348.427 102.26 346.339C64.4597 348.379 26.5197 329.129 6.82971 296.269C6.04387 294.872 6.05114 293.164 6.84885 291.774C7.64655 290.384 9.11699 289.516 10.7197 289.489C21.5599 289.156 31.9396 285.03 40.0497 277.829C25.6997 274.879 12.1897 267.349 3.69971 255.349C2.64182 254.888 1.67102 254.249 0.829706 253.459C-0.400294 252.289 -0.310294 249.629 1.41971 248.879C3.96977 247.783 6.40771 247.761 9.02813 247.738H9.0283H9.02953C9.63529 247.733 10.2508 247.728 10.8797 247.709C14.7252 247.569 18.5278 246.851 22.1597 245.579ZM373.19 410.609C374.18 395.479 373.74 379.889 366.25 366.319C360.367 355.664 351.772 346.972 343.27 338.374C342.045 337.136 340.822 335.899 339.61 334.659C325.577 345.899 309.05 353.605 291.42 357.129C271.16 361.129 243.26 361.629 226.8 346.739C223.125 349.355 219.725 352.356 216.328 355.356C210.609 360.404 204.897 365.446 197.89 368.639C185.97 374.079 171.89 375.999 158.89 377.469C139.32 379.669 119.1 377.739 101.96 368.669C94.8697 383.159 94.5997 400.309 100.6 415.309C105.58 427.799 114.41 438.239 124.89 446.519C123.44 436.529 125.14 426.499 129.24 416.849C130.8 413.189 136.35 415.279 136.35 418.769C136.259 432.033 141.346 444.808 150.53 454.379C157.359 461.448 165.643 466.785 173.875 472.09C175.274 472.991 176.671 473.891 178.06 474.799C187.78 481.189 197.28 487.969 204.51 497.189C207.373 500.832 209.865 504.751 211.95 508.889C211.821 504.848 211.427 500.819 210.77 496.829C210.07 492.549 214.79 489.239 218.25 492.479C229.078 502.633 231.923 516.918 234.703 530.879C235.14 533.073 235.575 535.259 236.04 537.419C238.54 549.059 243.35 559.259 249.35 568.949C250.255 554.744 257.82 540.857 265.19 527.33C269.711 519.031 274.159 510.868 276.95 502.849C278.16 499.439 283.27 498.109 285.16 501.779C290.629 512.302 293.696 523.908 294.14 535.759C316.52 510.909 324.5 474.589 313.66 442.589C312.11 438.019 318.15 435.229 321.32 438.129C332.996 448.851 342.052 462.112 347.79 476.889C364.37 459.119 371.63 434.609 373.19 410.609ZM415.16 227.779C414.511 228.578 413.867 229.385 413.224 230.193L413.224 230.194L413.223 230.194L413.223 230.194L413.223 230.194C410.684 233.382 408.135 236.583 405.16 239.319C398.04 245.859 389.51 250.929 379.65 251.319C374.65 251.539 373.95 258.149 378.5 259.799C391.298 264.463 405.12 265.576 418.5 263.019C414.911 267.098 410.95 270.834 406.67 274.179C399.124 280.546 391.225 286.482 383.01 291.959C374.568 297.563 365.19 301.607 355.32 303.899C345.715 306.008 335.871 306.296 326.072 306.583L326.059 306.584C324.895 306.618 323.732 306.652 322.57 306.689C318.83 306.809 316.57 312.549 320.5 314.329C327.449 317.527 334.773 319.839 342.3 321.209C328.436 334.58 311.186 343.915 292.41 348.209C272.99 352.699 244.41 353.939 229.58 337.999C228.867 337.169 227.815 336.709 226.722 336.748C225.628 336.787 224.612 337.321 223.96 338.199C218.655 340.917 214.257 344.854 209.854 348.797C206.156 352.108 202.455 355.422 198.21 358.019C187.627 364.497 173.522 366.329 161.372 367.907L161.371 367.907H161.37L160.97 367.959C140.22 370.649 117.22 369.279 99.8097 357.059C107.745 354.452 114.748 349.587 119.96 343.059C122.73 339.579 120.24 334.469 115.56 335.489C79.2797 343.399 39.9297 327.659 18.5597 297.629C31.7862 295.392 43.7067 288.313 51.9997 277.769C54.2697 274.859 52.9297 270.659 48.9997 270.449C35.7397 269.729 24.4997 264.369 14.6997 256.309C17.0027 255.99 19.2837 255.529 21.5297 254.929C25.3236 253.913 28.9878 252.464 32.4497 250.609C41.7097 259.199 54.7197 263.609 66.7697 266.349C82.1197 269.819 98.1197 271.349 113.77 272.579C146.11 275.059 179.64 272.839 207.77 255.189C208.11 254.972 208.42 254.71 208.69 254.409C211.7 257.074 216.257 259.017 219.423 260.368C219.928 260.583 220.397 260.783 220.82 260.969C229.064 264.518 237.743 266.956 246.63 268.219C264.453 270.728 282.562 270.39 300.28 267.219C334.992 261.276 367.398 245.887 393.94 222.739C400.588 225.868 407.814 227.585 415.16 227.779ZM354.29 74.319C355.543 60.2225 352.533 46.0746 345.65 33.709C342.975 28.8633 339.776 24.3261 336.11 20.179C341.153 30.9411 343.224 42.8564 342.11 54.689C340.11 78.209 327.61 98.979 315.11 118.429C327.17 128.179 336.05 140.409 344.27 153.179C348.832 146.778 352.477 139.77 355.1 132.359L354.65 132.459C351.38 133.039 348.26 129.829 350.16 126.619C359.305 111.164 363.749 93.3793 362.95 75.439C362.353 76.0352 361.722 76.5961 361.06 77.119C358.68 78.989 353.95 78.149 354.29 74.319ZM303.51 59.909C313.138 46.0775 319.417 30.1956 321.85 13.519C332.25 25.289 335.32 42.689 333.06 57.959C330.06 78.249 319.06 96.209 308.13 113.209C295.539 104.552 281.717 97.8366 267.13 93.289C281.86 86.479 294.69 72.579 303.51 59.909ZM95.4997 73.859C85.7627 61.6848 77.4925 48.4068 70.8597 34.299C61.9539 68.604 69.1812 105.098 90.4897 133.419C90.8601 133.887 91.1168 134.435 91.2397 135.019L91.4548 134.758C92.2837 133.753 93.1194 132.739 94.0397 131.819C100.86 123.309 110.76 116.709 119.86 111.489C124.219 109.002 128.708 106.752 133.31 104.749C126.816 102.987 120.797 98.1544 115.722 94.08L115.31 93.749C108.016 87.8441 101.375 81.1762 95.4997 73.859ZM44.8597 137.989C39.8597 128.379 33.4897 115.509 35.2897 104.139L37.9197 109.389C40.0497 113.629 45.8497 110.469 45.1097 106.389C42.5191 91.5238 43.723 76.2451 48.6097 61.969C50.9235 55.0927 53.9958 48.4954 57.7697 42.299C58.9697 40.299 60.2697 38.479 61.6197 36.689C53.8397 71.409 61.6197 109.189 83.2197 137.689C84.3241 139.167 86.2227 139.814 87.9997 139.319C86.5597 141.319 85.2197 143.389 83.9997 145.419C80.1153 151.99 76.7935 158.878 74.0697 166.009C60.3697 161.959 51.2297 150.209 44.8597 137.989ZM99.7997 136.879C94.7564 142.974 90.4841 149.668 87.0797 156.809C82.4181 166.234 79.0887 176.198 75.7617 186.155C73.5219 192.859 71.2832 199.559 68.6397 206.089C62.5097 221.059 54.2697 235.019 41.2697 244.959C40.3297 245.679 39.3897 246.369 38.3897 247.039C48.1135 253.337 58.9512 257.719 70.3197 259.949C84.9097 262.929 99.9997 264.259 114.84 265.209C143.84 267.049 174.2 264.569 199.84 249.959C193.68 248.599 188.2 245.369 188.99 239.509C189.62 234.839 194.11 233.679 198.06 232.679C203.997 231.137 210.116 230.4 216.25 230.489C221.02 230.579 226.9 230.759 230.56 234.289C233.459 237.008 233.888 241.457 231.56 244.679C228.83 248.419 223.95 249.079 219.69 249.419C218.15 249.539 216.62 249.629 215.08 249.629C215.686 249.948 216.334 250.229 216.975 250.507C217.38 250.682 217.782 250.857 218.17 251.039C222.277 253.009 226.522 254.68 230.87 256.039C238.768 258.494 246.915 260.063 255.16 260.719C271.485 261.967 287.905 260.873 303.92 257.469C333.795 251.216 361.649 237.639 384.98 217.959C374.6 211.339 365.6 202.189 358.6 192.959C352.757 185.252 347.664 176.992 342.574 168.738C333.795 154.501 325.028 140.284 312.45 128.959C293.53 111.939 268.96 102.389 244.35 97.199C229.43 94.059 215.29 94.679 200.29 96.749C186.441 98.4943 172.708 101.052 159.16 104.409C146.273 107.622 133.843 112.443 122.16 118.759C118.271 120.961 114.536 123.423 110.98 126.129C106.978 129.415 103.24 133.01 99.7997 136.879Z" fill="#231F20"/>
<path d="M230.229 279.189C224.449 285.349 226.659 299.289 215.139 298.029C210.545 297.62 206.347 295.261 203.609 291.549C201.009 287.799 201.739 283.939 200.509 279.869C200.302 279.124 199.719 278.542 198.973 278.338C198.227 278.133 197.428 278.334 196.869 278.869C192.749 283.139 194.539 290.609 197.219 295.249C200.569 301.049 206.759 304.639 213.219 305.709C219.539 306.709 225.529 306.069 229.219 300.449C232.909 294.829 237.359 286.229 234.399 279.699C233.769 278.129 231.329 278.019 230.229 279.189Z" fill="#231F20"/>
<path fill-rule="evenodd" clip-rule="evenodd" d="M126.628 226.119C117.058 227.269 109.788 218.199 111.058 209.379C110.911 208.814 110.922 208.219 111.088 207.659C114.438 196.759 129.928 191.599 136.498 202.659C141.978 211.869 138.098 224.739 126.628 226.119ZM127.718 206.519C125.698 204.689 122.348 206.889 119.618 209.069C119.406 209.708 119.291 210.376 119.278 211.049C119.258 214.799 123.118 218.429 126.808 216.799C130.498 215.169 130.538 209.079 127.718 206.519Z" fill="#231F20"/>
<path fill-rule="evenodd" clip-rule="evenodd" d="M288.898 195.749C288.658 189.789 292.008 183.169 298.238 183.649C301.457 181.916 305.225 181.511 308.738 182.519C317.358 185.409 321.578 199.379 315.358 206.239C308.618 213.659 295.358 209.369 290.618 201.659C289.942 201.204 289.444 200.529 289.208 199.749C288.853 198.447 288.748 197.09 288.898 195.749ZM298.028 196.879C299.798 199.429 306.748 203.159 308.878 199.429C310.698 196.249 306.998 189.879 303.258 191.159C300.733 192.031 299.404 194.413 298.067 196.81L298.028 196.879Z" fill="#231F20"/>
<path d="M90.4005 227.349C89.0189 227.362 87.6962 227.911 86.7105 228.879C85.71 229.843 85.1557 231.18 85.1805 232.569L85.2405 232.999C85.2064 233.693 85.3583 234.383 85.6805 234.999C85.8863 235.636 86.2552 236.208 86.7505 236.659C88.7682 238.67 92.0328 238.67 94.0505 236.659L94.8505 235.659C95.3168 234.868 95.5621 233.967 95.5605 233.049C95.5605 232.909 95.5605 232.759 95.5605 232.619C95.5681 231.235 95.0206 229.906 94.0405 228.929C93.0734 227.957 91.771 227.392 90.4005 227.349Z" fill="#231F20"/>
<path d="M335.428 216.129C336.729 216.111 337.974 215.595 338.908 214.689C339.843 213.765 340.37 212.504 340.37 211.189C340.37 209.874 339.843 208.613 338.908 207.689C337.971 206.787 336.728 206.272 335.428 206.249C334.126 206.266 332.881 206.782 331.948 207.689C331.033 208.617 330.516 209.866 330.508 211.169C330.505 212.475 331.023 213.727 331.948 214.649C332.874 215.573 334.12 216.103 335.428 216.129Z" fill="#231F20"/>
<path d="M331.92 357.129C342.37 364.389 348.06 377.129 349.58 389.479C350.348 396.603 350.153 403.797 349 410.869C348 417.619 345.32 424.549 345.26 431.369C345.282 431.861 345.62 432.282 346.095 432.41C346.571 432.538 347.074 432.343 347.34 431.929C350.89 425.369 351.85 416.649 352.8 409.319C353.956 401.547 353.854 393.639 352.5 385.899C350.07 373.469 343.42 362.749 332.42 356.279C331.87 355.939 331.41 356.759 331.92 357.129Z" fill="#231F20"/>
<path d="M335.83 403.449C338.05 408.899 337.62 414.309 337.97 420.029C337.97 420.799 339.18 421.299 339.56 420.459C342.2 414.639 340.38 408.119 337.74 402.639C337.24 401.579 335.37 402.339 335.83 403.449Z" fill="#231F20"/>
<path d="M196.698 442.559C193.059 437.199 190.31 431.286 188.558 425.049C185.012 412.176 187.321 398.394 194.868 387.379C195.218 386.869 194.448 386.299 194.028 386.729C184.758 396.279 182.489 410.729 185.138 423.379C187.838 436.319 196.038 451.109 207.137 458.689C207.847 459.169 208.837 458.199 208.337 457.479C204.727 452.309 200.217 447.839 196.698 442.559Z" fill="#231F20"/>
<path d="M177.471 409.649C177.591 408.739 176.021 408.519 175.861 409.439C174.611 416.349 174.321 424.769 178.471 430.829C178.654 431.108 179.01 431.216 179.317 431.086C179.624 430.955 179.794 430.624 179.721 430.299C178.501 423.229 176.511 416.969 177.471 409.649Z" fill="#231F20"/>
<path d="M270.801 387.549C270.351 387.069 269.471 387.719 269.871 388.279C278.741 400.819 284.701 415.549 285.391 431.009C286.111 447.289 280.241 460.519 274.011 475.079C273.691 475.849 274.591 476.759 275.271 476.079C286.081 464.709 289.721 446.239 288.881 431.079C288.117 414.904 281.721 399.506 270.801 387.549Z" fill="#231F20"/>
<path d="M274.732 438.689C274.574 438.273 274.125 438.046 273.697 438.166C273.268 438.285 273.001 438.712 273.082 439.149C274.742 448.639 270.142 456.679 266.522 465.089C266.295 465.476 266.425 465.973 266.812 466.199C267.198 466.425 267.695 466.296 267.922 465.909C273.682 458.059 278.162 448.449 274.732 438.689Z" fill="#231F20"/>
<path d="M109.988 387.999C110.128 386.999 108.688 386.599 108.498 387.589C106.708 397.089 107.888 407.099 113.918 414.939C114.113 415.136 114.417 415.175 114.654 415.032C114.892 414.89 115.001 414.603 114.918 414.339C111.028 405.919 108.658 397.349 109.988 387.999Z" fill="#231F20"/>
<path d="M267.449 112.379C275.348 115.576 282.886 119.599 289.939 124.379C296.619 128.799 302.299 134.379 308.779 139.009C309.589 139.589 310.779 138.429 310.169 137.619C300.349 124.289 282.959 116.429 267.699 111.489C267.159 111.299 266.909 112.129 267.449 112.379Z" fill="#231F20"/>
<path d="M320.672 160.129C321.852 162.249 322.812 164.589 324.412 166.429C325.112 167.229 326.193 166.349 326.043 165.489C325.622 163.089 324.182 160.859 322.912 158.819C321.685 156.7 320.117 154.798 318.271 153.189C317.921 152.899 317.221 153.189 317.411 153.679C318.325 155.912 319.415 158.069 320.672 160.129Z" fill="#231F20"/>
<path d="M74.0495 220.399C82.1995 209.969 85.7195 197.649 90.0495 185.399C92.4698 178.414 95.5539 171.676 99.2595 165.279C102.95 158.999 107.77 153.569 111.66 147.439C112.28 146.439 110.95 145.669 110.17 146.289C100.07 154.289 93.3995 167.769 88.8995 179.539C83.7795 192.939 80.7995 207.349 72.7795 219.459C72.2995 220.179 73.4895 221.129 74.0495 220.399Z" fill="#231F20"/>
<path d="M119.032 141.729C120.123 141.062 121.151 140.295 122.102 139.439C123.078 138.685 123.781 137.631 124.102 136.439C124.182 135.779 123.382 135.539 122.912 135.759C121.992 136.189 121.282 137.419 120.612 138.169C119.849 139.031 119.009 139.821 118.102 140.529C117.482 141.129 118.332 142.129 119.032 141.729Z" fill="#231F20"/>
<path d="M95.0588 88.0391C95.3641 88.2478 95.774 88.2135 96.0403 87.9569C96.3067 87.7002 96.3561 87.2919 96.1588 86.979C92.3288 79.979 83.2988 74.1791 82.9388 65.5791C82.9388 65.1704 82.6075 64.8391 82.1988 64.8391C81.7901 64.8391 81.4588 65.1704 81.4588 65.5791C81.0888 70.2491 83.2888 74.1391 85.7688 77.9791C88.2488 81.819 91.0288 85.8891 95.0588 88.0391Z" fill="#231F20"/>
<path d="M106.679 99.629C106.996 99.7093 107.33 99.594 107.53 99.3357C107.729 99.0774 107.757 98.7252 107.599 98.439C106.279 95.639 103.259 94.169 101.219 91.969C100.679 91.379 99.6095 92.169 100.089 92.849C101.919 95.399 103.449 98.649 106.679 99.629Z" fill="#231F20"/>
<path d="M305.212 62.749C301.582 66.899 299.422 72.159 295.862 76.429C291.982 81.109 286.862 86.679 281.031 88.779C280.291 89.039 280.341 90.279 281.221 90.229C287.512 89.819 292.972 84.379 297.032 79.969C301.092 75.559 305.912 69.639 306.753 63.389C306.863 62.609 305.692 62.189 305.212 62.749Z" fill="#231F20"/>
<path d="M311.969 57.929C312.819 56.719 313.919 55.009 313.489 53.489C313.393 53.1704 313.157 52.9127 312.848 52.7884C312.539 52.664 312.19 52.6863 311.899 52.849C310.719 53.599 310.309 55.129 309.669 56.319C308.99 57.6333 308.231 58.9056 307.399 60.129C306.929 60.789 307.879 61.769 308.539 61.269C309.858 60.351 311.017 59.2227 311.969 57.929Z" fill="#231F20"/>
</svg>
