<svg width="584" height="560" viewBox="0 0 584 560" fill="none" xmlns="http://www.w3.org/2000/svg">
<path d="M500.799 310.83C507.434 313.881 514.315 316.366 521.369 318.26C528.799 320.26 535.859 320.02 543.369 320.7C551.319 306.82 557.369 291.7 562.229 276.51C558.436 278.018 554.438 278.946 550.369 279.26C539.429 280.14 527.939 277.53 517.699 273.85C507.695 270.275 498.309 265.164 489.879 258.7C486.542 256.244 483.484 253.431 480.759 250.31C479.269 259.78 477.839 269.25 476.349 278.71C476.139 280.05 475.939 281.39 475.729 282.71C478.179 296.28 488.279 305.12 500.799 310.83Z" fill="#F7941E"/>
<path d="M253.999 393C252.778 388.752 251.202 384.614 249.289 380.63C248.129 378.22 245.729 371.87 243.389 370.43C237.389 366.71 237.389 378.2 237.469 381.43C237.579 385.51 238.059 389.61 238.469 393.67C239.282 402.45 240.232 411.22 241.319 419.98C243.319 436.58 246.269 453.04 248.749 469.58C255.415 468.913 262.115 468.383 268.849 467.99C265.649 451.243 262.462 434.487 259.289 417.72C257.729 409.43 256.389 401.05 253.999 393Z" fill="#FFF200"/>
<path d="M212.91 421C212.391 419.724 211.424 418.683 210.19 418.07C208.91 416.61 207.677 416.92 206.49 419C203.82 421 203.94 420.6 204.21 423.29C204.48 425.98 205.12 428.78 205.67 431.49C206.683 436.477 207.857 441.43 209.19 446.35C211.67 455.47 215.29 464.21 218.05 473.21C222.93 472.28 227.92 471.67 232.85 471.15C229.24 463.805 226.139 456.221 223.57 448.45C220.4 439.4 217.85 429.25 212.91 421Z" fill="#FFF200"/>
<path d="M303.86 429.2C302.57 425.05 301.17 419.57 298.42 416.13C298.1 414.62 297.15 414.13 295.56 414.58C294.22 413.91 293.32 414.16 292.84 415.33C291.988 416.35 291.37 417.545 291.03 418.83C290.394 420.851 290.015 422.944 289.9 425.06C289.54 429.58 289.6 434.15 289.58 438.67C289.58 443.95 289.64 449.22 289.78 454.49C289.853 456.97 289.933 459.45 290.02 461.93C290.07 463.16 290.23 464.43 290.17 465.65C290.099 466.136 289.999 466.616 289.87 467.09C296.443 466.943 303.01 466.907 309.57 466.98C309.137 458.551 308.242 450.151 306.89 441.82C306.146 437.554 305.134 433.339 303.86 429.2Z" fill="#FFF200"/>
<path d="M352.459 404.81C352.193 401.255 351.576 397.734 350.619 394.3C350.309 393.2 349.959 392.13 349.559 391.06L344.689 388.49C343.279 388.8 341.979 391.18 341.319 392.4C338.269 397.98 338.369 405.15 337.749 411.3C337.029 418.387 336.303 425.473 335.569 432.56C334.369 444.19 332.479 455.93 332.439 467.64C337.439 467.84 342.439 468.1 347.359 468.75C349.489 454.32 351.559 439.86 352.359 425.29C352.873 418.474 352.906 411.631 352.459 404.81Z" fill="#FFF200"/>
<path d="M497.31 362.42C499.977 361 502.62 359.553 505.24 358.08C499.44 356.23 493.78 352.38 489.84 349.34C483.58 344.507 477.681 339.223 472.19 333.53C470.61 331.88 468.92 330.17 467.46 328.32C466.73 331.15 465.95 333.95 465.09 336.72C460.88 350.24 453.09 363.72 439.91 369.94C439.63 371.77 439.31 373.59 438.91 375.39C438.68 377.61 438.42 379.82 438.16 382.04C459.56 382.63 479 372.32 497.31 362.42Z" fill="#F7941E"/>
<path d="M507.87 213.54C515.074 217.379 522.778 220.196 530.76 221.91C545.6 225.09 559.55 223.63 573.87 220.13C573.99 217.87 574.06 215.61 574.06 213.35C574.06 196.24 569.35 178.45 556.37 166.45C549.96 160.53 541.51 156.52 532.66 156.45C523.08 156.38 514.93 161.67 508.29 168.08C498.83 177.22 493.63 188.5 490.18 200.55C494.06 206.31 503.32 211.1 507.87 213.54Z" fill="#F7941E"/>
<path d="M494.859 258.93C502.423 264.06 510.648 268.141 519.309 271.06C528.309 274.11 538.159 276.27 547.739 276C553.367 275.936 558.882 274.406 563.739 271.56L563.859 271.18C568.459 255.91 572.369 239.84 573.619 223.79C557.999 229.03 539.619 228.02 524.229 223.47C514.969 220.782 506.235 216.538 498.399 210.92C495.639 208.92 491.929 206.28 489.449 203.15C488.129 208.15 487.079 213.24 486.119 218.36C484.339 227.95 482.739 237.57 481.219 247.21C484.879 251.93 490.159 255.74 494.859 258.93Z" fill="#FFF200"/>
<path d="M476.579 334.12C480.369 337.78 484.339 341.26 488.449 344.57C492.849 348.1 497.449 351.72 502.649 353.96C504.832 354.914 507.169 355.466 509.549 355.59C514.401 352.787 519.007 349.579 523.319 346C530.624 339.559 536.838 331.978 541.719 323.55C534.359 324.91 525.719 322.81 518.839 320.83C511.075 318.642 503.551 315.681 496.379 311.99C487.189 307.2 477.589 299.14 474.789 288.93C472.959 301.08 471.099 313.38 468.219 325.32C468.939 326.32 469.759 327.18 470.559 328.07C472.469 330.14 474.519 332.15 476.579 334.12Z" fill="#FFF200"/>
<path d="M339.149 148.42C337.699 148.42 336.589 148.27 336.799 149.91C337.069 152.05 339.379 153.06 340.799 152.09C341.035 151.448 341.169 150.773 341.199 150.09C341.209 148.39 340.849 148.48 339.149 148.42Z" fill="white"/>
<path d="M37.4 410.39C34 413.15 30.6 416.01 26.94 418.44C22.86 421.14 17.14 423.72 11.94 423.52C13.9531 427.362 16.6663 430.794 19.94 433.64C21.5029 434.999 23.1752 436.226 24.94 437.31C30.6958 434.766 35.9881 431.282 40.6 427C43.2844 424.361 45.6597 421.426 47.68 418.25C49.12 416.05 50.31 413.25 52.82 412.17C53.2378 411.942 53.736 411.912 54.1776 412.091C54.6192 412.269 54.9577 412.636 55.1 413.09C57.4 419.14 48.97 427.63 44.94 431.31C40.8044 435.163 35.9433 438.154 30.64 440.11C48.64 447.21 70.49 439.85 85.55 428.67C105.09 414.17 118.09 393.24 129.9 372.46C126.679 352.825 124.709 333.005 124 313.12C123.76 306.31 123.59 299.49 123.45 292.67C121.062 298.617 118.238 304.379 115 309.91C108.704 320.73 101.093 330.73 92.34 339.68C75.34 357.24 54.73 371.28 33.34 382.95C22.99 388.58 10.65 392.55 8.65 405.68C8.06321 409.77 8.405 413.94 9.65 417.88C12.2901 417.912 14.9158 417.486 17.41 416.62C21.1893 414.999 24.6969 412.807 27.81 410.12C30.64 407.86 33.41 405.53 36.16 403.17C38.52 401.17 40.16 399.07 43.4 398.98C44.4582 398.98 45.319 399.832 45.33 400.89C45 405.24 40.55 407.82 37.4 410.39Z" fill="#F7941E"/>
<path fill-rule="evenodd" clip-rule="evenodd" d="M148.279 423.05C153.159 441.26 158.799 459.22 164.509 477.19C165.393 479.967 166.263 482.753 167.134 485.541C171.569 499.743 176.022 514.002 182.509 527.41C182.889 528.196 183.286 529.045 183.702 529.934L183.703 529.935C186.755 536.459 190.85 545.212 197.159 548.01C205.289 551.6 207.799 541.01 208.159 535.25C209.339 516.8 206.209 497.72 202.639 479.68C202.595 479.436 202.575 479.188 202.579 478.94C202.571 478.673 202.618 478.407 202.719 478.16C203.245 476.648 204.833 475.783 206.389 476.16C209.472 475.125 212.614 474.277 215.799 473.62C210.269 462.73 207.089 450.01 204.339 438.34C204.177 437.651 203.927 436.752 203.636 435.707C201.69 428.72 197.922 415.19 206.699 414.19C210.539 413.74 213.529 416.51 215.329 419.56C217.986 424.069 219.789 429.26 221.523 434.251C221.792 435.026 222.06 435.797 222.329 436.56C223.05 438.564 223.758 440.569 224.466 442.572L224.466 442.573C227.858 452.177 231.233 461.732 235.949 470.8C236.494 470.747 237.038 470.694 237.581 470.641L237.639 470.635L237.656 470.633C239.624 470.442 241.571 470.252 243.489 470.05L246.199 469.79C242.769 453.99 240.559 437.79 238.509 421.79C237.442 413.35 236.489 404.893 235.649 396.42C235.509 394.977 235.339 393.514 235.167 392.037L235.167 392.037C234.507 386.349 233.826 380.475 234.739 374.91C235.309 371.4 237.209 364.6 242.109 365.57C245.904 366.324 248.516 371.801 250.326 375.598C250.652 376.282 250.952 376.912 251.229 377.45C257.259 389.252 259.668 402.278 262.06 415.218C262.445 417.299 262.83 419.379 263.229 421.45C266.202 436.877 269.159 452.31 272.099 467.75C276.339 467.52 280.589 467.32 284.839 467.18C285.839 467.18 286.779 467.18 287.759 467.12C286.525 460.957 286.635 448.512 286.688 442.534V442.534C286.701 441.149 286.71 440.112 286.699 439.58C286.692 438.535 286.644 437.301 286.592 435.941C286.263 427.411 285.742 413.887 293.849 410.42C297.904 408.675 300.021 412.822 301.561 415.839L301.679 416.07C304.414 421.483 306.533 427.185 307.999 433.07C310.839 444.12 311.899 455.62 312.579 467.01C317.139 467.083 321.695 467.207 326.249 467.38L329.989 467.53C329.942 461.709 330.256 455.892 330.929 450.11C331.789 440.863 332.675 431.62 333.589 422.38C333.812 420.108 333.997 417.818 334.183 415.523C334.647 409.787 335.115 404.015 336.179 398.38C337.129 393.38 339.179 387.61 344.179 385.22C356.459 379.32 355.849 412.22 355.709 417.77C355.279 435.01 352.859 452.11 350.359 469.15C354.782 469.858 359.11 471.069 363.259 472.76C364.605 473.51 365.431 474.939 365.409 476.48C364.965 487.556 362.844 498.394 360.723 509.227C359.829 513.79 358.936 518.352 358.169 522.93C356.719 530.609 356.049 538.416 356.169 546.23C356.18 546.505 356.176 546.826 356.171 547.171C356.147 548.999 356.113 551.509 358.309 551.45C359.287 551.45 360.616 550.413 361.654 549.603C362.017 549.319 362.344 549.064 362.609 548.89C363.913 547.984 365.323 547.242 366.809 546.68C375.979 538.68 382.989 527.74 388.809 517.56C397.809 501.94 404.749 485.12 411.179 468.34C418.026 450.546 423.116 432.125 426.379 413.34C427.999 404.007 429.305 394.63 430.299 385.21C430.568 382.686 430.785 380.147 431.003 377.605C431.247 374.758 431.492 371.907 431.809 369.07C431.696 361.692 432.241 354.236 432.784 346.814C433.106 342.416 433.426 338.03 433.609 333.68C434.189 320.21 434.519 306.68 434.529 293.24C434.589 269.128 433.408 245.03 430.989 221.04C430.299 214.33 429.449 207.64 428.489 200.97C427.298 202.402 425.957 203.703 424.489 204.85C419.109 209.02 412.399 211.04 405.799 212.41C388.571 215.928 370.971 217.272 353.409 216.41C337.409 215.65 319.409 214.12 304.609 207.73C289.809 201.34 284.879 187.18 282.609 172.32C281.077 162.425 280.933 152.365 282.179 142.43V138.84C280.734 138.236 279.247 137.582 277.729 136.914C270.678 133.813 262.947 130.413 255.649 130.29C250.449 130.2 245.059 131.91 240.169 133.49C238.328 134.079 236.508 134.827 234.685 135.576C232.549 136.455 230.409 137.334 228.229 137.96C231.779 146.54 233.009 155.89 233.169 165.15C233.182 165.901 233.197 166.663 233.212 167.435C233.42 178.075 233.665 190.549 228.929 200.05C218.603 220.739 192.031 220.263 171.843 219.901C170.818 219.883 169.808 219.865 168.819 219.85C166.235 219.811 163.65 219.776 161.065 219.741L161.062 219.741H161.061C151.202 219.609 141.336 219.476 131.489 219.08C130.889 249.16 130.779 279.3 131.419 309.34C132.329 348.06 138.259 385.66 148.279 423.05ZM320.769 281.32C336.39 277.403 351.772 272.589 366.839 266.9C373.734 264.357 380.261 260.91 386.249 256.65C391.63 252.68 395.576 247.525 399.582 242.291L399.582 242.291C399.804 242.001 400.026 241.71 400.249 241.42C400.664 240.712 401.537 240.42 402.294 240.735C403.052 241.051 403.459 241.877 403.249 242.67C400.949 255.35 387.959 264.23 377.039 269.47C362.919 276.24 347.459 280.78 332.409 285C327.23 286.442 321.798 287.643 316.308 288.858C295.147 293.539 273.113 298.412 261.299 318C258.868 322.01 257.143 326.407 256.199 331C256.416 331.048 256.634 331.096 256.851 331.145C258.041 331.411 259.229 331.676 260.439 331.82C263.509 332.171 266.615 332.049 269.649 331.46C272.831 330.799 275.893 329.656 278.729 328.07C279.14 327.848 279.532 327.625 279.914 327.408L279.915 327.408C281.584 326.459 283.062 325.618 285.129 325.48C285.854 325.488 286.536 325.829 286.977 326.405C287.418 326.981 287.57 327.728 287.389 328.43C285.979 334.87 275.809 337.73 270.159 338.6C265.839 339.27 260.099 339.4 255.419 337.8C255.309 341.819 255.843 345.829 256.999 349.68C257.609 351.72 258.409 353.699 259.389 355.59C264.509 356.543 269.793 356.066 274.659 354.21C278.031 352.968 280.841 351.009 283.653 349.048L283.653 349.048C285.845 347.52 288.037 345.991 290.499 344.8C291.393 344.309 292.503 344.466 293.227 345.185C293.95 345.903 294.114 347.013 293.629 347.91C290.579 354.59 281.519 358.64 274.779 360.42C270.943 361.509 266.915 361.744 262.979 361.11C267.729 366.99 274.379 371.04 282.169 373.49L283.089 373.77C288.904 374.015 294.594 372.034 298.999 368.23C301.117 366.308 302.572 363.988 304.035 361.655L304.036 361.654C304.963 360.176 305.894 358.692 306.999 357.3C308.179 355.82 310.209 357.23 310.359 358.68C310.999 364.68 306.219 370.44 301.489 373.68C299.581 374.986 297.488 375.998 295.279 376.68C317.369 380.61 340.509 377.33 359.279 364.38C370.369 356.75 379.669 346.64 388.529 336.64C397.529 326.43 404.819 315.53 411.759 303.86C413.919 300.22 420.169 302.65 418.759 306.79C414.024 320.746 403.447 332.252 393.531 343.038C392.64 344.007 391.754 344.971 390.879 345.93C380.259 357.56 368.929 368.93 354.879 376.3C330.509 389 298.999 388.73 273.999 378C255.909 370.21 246.999 351.06 249.359 332.63C249.356 332.614 249.355 332.597 249.355 332.581C249.355 332.567 249.357 332.553 249.359 332.54C249.923 328.102 251.15 323.774 252.999 319.7C257.999 308.7 267.179 299.6 277.869 293.89C287.531 288.755 298.396 286.372 309.13 284.019C313.048 283.16 316.95 282.304 320.769 281.32ZM241.169 236.71C240.149 235.82 238.169 236.04 237.879 237.58C236.999 242.16 240.859 245.72 245.299 246.44C249.491 247.096 253.664 245.152 255.859 241.52C258.052 244.359 261.168 246.343 264.669 247.13C268.03 247.832 271.53 247.012 274.23 244.89C276.931 242.769 278.555 239.562 278.669 236.13C278.651 235.466 278.244 234.874 277.629 234.621C277.015 234.368 276.309 234.501 275.829 234.96C275.008 235.734 274.281 236.676 273.553 237.618C271.629 240.11 269.707 242.599 266.079 241.96C262.657 241.24 259.729 239.043 258.079 235.96C259.205 231.661 259.502 226.806 259.769 222.425C259.824 221.516 259.879 220.628 259.939 219.77C259.972 219.305 260.006 218.836 260.041 218.363C260.475 212.447 260.947 205.998 259.799 200.09L260.019 199.98C260.409 199.766 260.7 199.407 260.829 198.98C265.599 198.43 270.379 197.06 272.489 192.43C273.369 190.56 272.839 187.7 270.369 187.26C264.068 186.08 257.649 185.66 251.249 186.01C251.073 186.021 250.895 186.031 250.714 186.042C246.549 186.29 241.198 186.609 239.329 190.75C237.379 195.07 241.119 197.99 244.569 199.84C247.53 201.447 250.908 202.119 254.259 201.77C253.903 205.392 253.868 209.092 253.832 212.783C253.798 216.357 253.763 219.922 253.439 223.4C253.359 224.234 253.291 225.093 253.223 225.965C252.946 229.473 252.652 233.196 251.499 236.4C250.579 238.94 248.749 241.4 245.579 240.49C244.26 240.107 243.343 239.066 242.444 238.047C242.028 237.574 241.615 237.106 241.169 236.71Z" fill="#F7941E"/>
<path fill-rule="evenodd" clip-rule="evenodd" d="M342.249 107.761C344.636 107.937 347 108.112 349.319 108.23C364.779 109 380.239 109.77 395.649 110.67L395.886 110.681C401.294 110.938 406.945 111.205 412.129 112.93C414.349 125.157 416.725 137.363 419.259 149.55C421.239 159.11 423.119 168.67 424.839 178.26C421.839 187.41 416.939 196.14 407.839 200.2C402.323 202.653 396.111 202.594 390.152 202.537C389.261 202.528 388.375 202.52 387.499 202.52H362.609C349.019 202.49 335.179 202.3 322.019 198.44C316.299 196.75 310.219 194.53 305.669 190.53C300.459 185.99 297.209 179.02 295.089 172.59C294.499 170.71 293.959 168.82 293.499 166.91C293.491 166.846 293.483 166.783 293.476 166.719C293.334 165.529 293.199 164.396 293.199 163.38C293.081 157.217 293.416 151.054 294.199 144.94C295.021 138.83 296.298 132.79 298.019 126.87C298.819 124.11 299.689 121.37 300.689 118.67C300.838 118.271 300.998 117.773 301.175 117.221C301.332 116.736 301.501 116.208 301.689 115.67C303.633 113.986 305.772 112.539 308.059 111.36C318.505 106.004 330.664 106.903 342.249 107.761ZM332.319 162.27C336.889 164.47 341.619 162.74 344.839 159.36C347.662 157.71 349.21 154.519 348.759 151.28C349.039 149.17 348.669 147.024 347.699 145.13C345.429 140.81 339.239 139.9 334.869 141.2C332.238 141.954 330.165 143.985 329.359 146.6C327.927 147.829 326.995 149.54 326.739 151.41C326.025 155.861 328.285 160.259 332.319 162.27Z" fill="#F7941E"/>
<path fill-rule="evenodd" clip-rule="evenodd" d="M192.125 203.31C189.712 203.722 187.3 204.135 184.89 204.56C167 207.71 149.82 208.7 131.85 206.16C131.879 204.983 131.908 203.807 131.936 202.631C131.994 200.222 132.052 197.816 132.12 195.41C132.7 174.31 133.76 153.31 135.7 132.31C136.353 125.203 137.116 118.107 137.99 111.02C140.984 111.163 143.915 111.425 146.6 111.665C147.116 111.711 147.623 111.756 148.12 111.8C159.162 112.907 170.112 114.792 180.89 117.44C182.564 117.826 184.291 118.186 186.044 118.552C193.746 120.159 201.938 121.869 208.26 126.26C210.716 127.972 212.909 130.034 214.77 132.38C215.084 133.39 215.404 134.388 215.722 135.382C217.49 140.901 219.205 146.253 219.57 152.38C219.921 160.536 219.698 168.706 218.9 176.83C218.26 184.59 216.63 193.85 209.76 198.73C206.928 200.748 203.443 201.352 200.069 201.937C199.832 201.978 199.595 202.019 199.36 202.06C196.95 202.485 194.537 202.897 192.125 203.31ZM162.55 143.99C159.241 145.08 156.825 147.936 156.3 151.38C155.67 154.762 156.878 158.224 159.475 160.48C162.072 162.736 165.669 163.447 168.93 162.35C175.49 160.07 177.04 151.57 172.38 146.71V146.65C172.345 146.605 172.304 146.565 172.26 146.53C170.02 144.05 165.73 143.08 162.55 143.99Z" fill="#F7941E"/>
<path d="M262.129 106.75C268.129 101.75 267.489 90.39 268.309 83.45C269.249 75.52 269.999 67.54 271.139 59.64L267.339 59.45C263.429 59.25 259.519 59.13 255.609 59.04C256.259 67.42 256.129 75.85 256.789 84.24C257.379 91.8 257.639 100.3 262.129 106.75Z" fill="#FFF200"/>
<path d="M167.69 152.75C167.44 151.976 166.723 151.448 165.91 151.44C164.67 151.52 164.8 152.8 164.54 153.8C164.408 154.322 164.142 154.801 163.77 155.19C164.239 155.683 164.9 155.946 165.58 155.91C166.365 155.97 167.121 155.602 167.558 154.947C167.996 154.292 168.046 153.452 167.69 152.75Z" fill="white"/>
<path d="M291.548 69.19C291.608 70.84 291.548 72.5 291.688 74.19C291.758 75.02 291.828 75.84 291.908 76.67C294.178 78.29 295.478 78.17 295.828 76.3C297.358 74.38 297.948 70.22 298.558 67.83C299.108 65.68 299.398 63.43 299.918 61.27L290.818 60.74C291.21 63.5419 291.454 66.3625 291.548 69.19Z" fill="#FFF200"/>
<path d="M224.459 85.1C229.169 90.3 229.459 82.93 229.859 80.5C230.259 78.07 230.659 75.44 231.049 72.91C231.769 68.35 232.349 63.73 233.239 59.19C228.329 59.37 223.429 59.65 218.539 60.06C219.229 63.77 219.749 67.52 220.539 71.21C221.329 74.9 221.789 82.15 224.459 85.1Z" fill="#FFF200"/>
<path d="M194.719 107.05C203.509 109.22 212.669 112.44 219.279 118.85C223.047 122.427 225.512 127.161 226.279 132.3C230.149 129.67 234.959 128.04 239.209 126.51C244.689 124.51 250.619 122.43 256.529 122.51C262.709 122.57 268.529 125 274.289 127.06C276.569 127.88 279.649 128.57 282.289 129.75C282.339 124.3 282.709 118.66 285.109 114.06C291.689 101.47 309.529 95.49 322.639 93.42C340.229 90.65 357.919 93.14 375.439 95.16C386.639 96.45 398.709 96.92 409.839 99.88C408.572 92.42 407.372 84.9433 406.239 77.45C402.969 55.51 400.479 33.45 397.409 11.45C384.489 28.38 374.599 46.82 366.409 66.51C366.409 69.17 364.279 71.75 361.119 70.51C346.699 65.07 331.479 63.18 316.169 62.16C311.759 61.87 307.329 61.61 302.909 61.34C302.669 65.75 300.989 70.47 299.609 74.46C298.719 77 297.779 80.92 294.679 81.6C285.969 83.5 288.609 64.83 288.989 60.88C289.005 60.761 289.042 60.6458 289.099 60.54C284.105 60.26 279.105 59.99 274.099 59.73C273.099 70.41 271.489 81.08 270.189 91.73C269.369 98.41 268.769 105.93 262.509 109.88C261.954 110.201 261.254 110.111 260.799 109.66C256.279 103.88 255.209 96.98 254.539 89.88C253.539 79.73 252.699 69.12 253.799 58.95C247.909 58.85 242.019 58.86 236.129 59.03C235.269 66.76 233.739 74.5 232.459 82.16C231.939 85.3 231.089 90.56 226.759 90.22C221.759 89.84 220.439 82.73 219.549 79.02C217.935 72.8502 216.903 66.5425 216.469 60.18C201.469 61.48 185.979 63.31 171.939 69.04C169.974 69.578 167.942 68.4307 167.389 66.47C164.489 51.69 161.579 36.9133 158.659 22.14C155.142 30.4734 152.094 38.9967 149.529 47.67C147.019 56.17 145.529 65.02 143.449 73.67C142.449 82.09 140.789 90.43 139.559 98.83C145.199 99.04 150.859 99.74 156.759 100.5C169.519 102.16 182.259 104 194.719 107.05Z" fill="#F7941E"/>
<path d="M253 319.7C251.149 323.757 249.916 328.068 249.34 332.49C249.335 332.52 249.335 332.55 249.34 332.58C247 351 255.92 370.16 274 378C299 388.78 330.5 389 354.84 376.35C368.92 369.01 380.3 357.54 390.84 345.98C401.38 334.42 413.56 321.98 418.77 306.87C420.19 302.73 413.94 300.3 411.77 303.94C404.83 315.61 397.58 326.51 388.54 336.72C379.68 346.72 370.38 356.83 359.29 364.46C340.48 377.41 317.34 380.69 295.29 376.76C297.499 376.078 299.592 375.066 301.5 373.76C306.23 370.5 311.01 364.76 310.37 358.76C310.22 357.31 308.19 355.9 307.01 357.38C304.16 360.97 302.47 365.17 299.01 368.31C294.594 372.124 288.888 374.105 283.06 373.85L282.14 373.57C274.36 371 267.71 367 263 361.11C266.936 361.744 270.964 361.509 274.8 360.42C281.54 358.64 290.6 354.59 293.65 347.91C294.135 347.013 293.971 345.903 293.248 345.185C292.524 344.466 291.414 344.309 290.52 344.8C284.9 347.52 280.72 352 274.68 354.21C269.814 356.066 264.53 356.543 259.41 355.59C258.43 353.699 257.63 351.72 257.02 349.68C255.859 345.817 255.326 341.792 255.44 337.76C260.12 339.36 265.86 339.23 270.18 338.56C275.83 337.69 286 334.83 287.41 328.39C287.591 327.688 287.439 326.941 286.998 326.365C286.557 325.789 285.875 325.448 285.15 325.44C282.61 325.61 280.96 326.84 278.75 328.03C275.914 329.616 272.852 330.759 269.67 331.42C266.636 332.009 263.53 332.131 260.46 331.78C259.03 331.61 257.63 331.27 256.22 330.96C257.164 326.367 258.889 321.97 261.32 317.96C276.2 293.31 307.32 292.02 332.43 284.96C347.48 280.74 362.94 276.2 377.06 269.43C387.98 264.19 400.97 255.31 403.27 242.63C403.48 241.837 403.073 241.011 402.315 240.695C401.558 240.38 400.685 240.672 400.27 241.38C396.03 246.91 391.95 252.38 386.27 256.61C380.282 260.87 373.755 264.317 366.86 266.86C351.793 272.549 336.411 277.363 320.79 281.28C306.51 284.99 291.08 286.84 277.93 293.85C267.22 299.6 258.07 308.67 253 319.7Z" fill="#231F20"/>
<path d="M245.23 246.47C249.423 247.126 253.595 245.182 255.79 241.55C257.984 244.389 261.1 246.373 264.6 247.16C267.962 247.862 271.461 247.042 274.162 244.92C276.862 242.799 278.486 239.592 278.6 236.16C278.582 235.496 278.175 234.904 277.561 234.651C276.946 234.398 276.24 234.531 275.76 234.99C272.76 237.8 271.03 242.86 266.01 241.99C262.588 241.27 259.66 239.073 258.01 235.99C259.37 230.8 259.52 224.83 259.87 219.8C260.32 213.51 260.97 206.5 259.73 200.12L260 200C260.391 199.786 260.682 199.427 260.81 199C265.58 198.49 270.36 197.08 272.47 192.45C273.32 190.58 272.82 187.72 270.35 187.28C264.057 186.091 257.645 185.662 251.25 186C247.02 186.26 241.35 186.28 239.33 190.74C237.31 195.2 241.12 197.98 244.57 199.83C247.531 201.437 250.909 202.109 254.26 201.76C253.56 208.89 254.1 216.32 253.44 223.39C253.04 227.6 252.94 232.39 251.5 236.39C250.59 238.93 248.75 241.39 245.58 240.48C243.65 239.92 242.58 237.95 241.17 236.7C240.17 235.81 238.17 236.03 237.88 237.57C237 242.16 240.86 245.72 245.23 246.47Z" fill="#231F20"/>
<path fill-rule="evenodd" clip-rule="evenodd" d="M334.87 141.2C339.24 139.9 345.43 140.81 347.7 145.13C348.671 147.024 349.041 149.17 348.76 151.28C349.211 154.519 347.663 157.71 344.84 159.36C341.62 162.74 336.89 164.47 332.32 162.27C328.286 160.259 326.026 155.861 326.74 151.41C326.996 149.54 327.928 147.829 329.36 146.6C330.167 143.985 332.239 141.954 334.87 141.2ZM336.77 149.95C337.07 152.13 339.38 153.13 340.77 152.13V152.09C340.986 151.455 341.104 150.791 341.12 150.12C341.178 148.529 340.849 148.518 339.325 148.467C339.259 148.465 339.191 148.462 339.12 148.46C339.069 148.458 339.018 148.456 338.967 148.455C337.593 148.405 336.568 148.368 336.77 149.95Z" fill="#231F20"/>
<path fill-rule="evenodd" clip-rule="evenodd" d="M172.449 146.76C177.109 151.62 175.559 160.12 168.999 162.4C165.739 163.497 162.142 162.786 159.545 160.53C156.947 158.274 155.739 154.812 156.369 151.43C156.895 147.986 159.311 145.13 162.619 144.04C165.799 143.13 170.089 144.1 172.329 146.58C172.374 146.615 172.415 146.655 172.449 146.7V146.76ZM164.642 153.123C164.604 153.351 164.566 153.582 164.509 153.8H164.539C164.399 154.325 164.123 154.805 163.739 155.19C164.209 155.683 164.87 155.946 165.549 155.91C166.335 155.97 167.091 155.602 167.528 154.947C167.966 154.292 168.016 153.452 167.659 152.75C167.41 151.976 166.693 151.448 165.879 151.44C164.909 151.503 164.778 152.3 164.642 153.123Z" fill="#231F20"/>
<path fill-rule="evenodd" clip-rule="evenodd" d="M81.4893 440.8C60.9993 452.71 32.6593 455.65 13.9993 438.58C-2.00069 424 -5.15069 396.12 15.0893 383.87C20.1478 380.807 25.3327 377.978 30.5185 375.148C36.9991 371.611 43.4811 368.074 49.7193 364.08C61.3695 356.74 72.2953 348.309 82.3493 338.9C91.8177 330.013 100.136 319.975 107.109 309.02C113.087 299.485 116.9 289.437 120.812 279.128C121.475 277.382 122.14 275.629 122.819 273.87C122.908 273.649 123.026 273.44 123.169 273.25C123.009 255.05 123.159 236.84 123.519 218.65C114.859 217.89 106.219 215.97 99.0293 210.89C90.3393 204.75 86.6093 195.51 86.0293 185.18C85.5207 176.07 86.1924 166.748 86.8563 157.535L86.8563 157.535L86.8564 157.534C87.0801 154.43 87.3029 151.337 87.4793 148.27C88.0793 137.33 89.3293 125.82 95.4793 116.4C101.469 107.24 110.619 102.86 121.059 100.46C124.577 99.6562 128.156 99.1511 131.759 98.95L131.879 98.11C132.009 97.232 132.138 96.3524 132.267 95.4716L132.267 95.4712C133.388 87.8145 134.522 80.0705 136.549 72.6C137.589 63.22 140.349 53.71 142.899 45C146.602 32.4967 151.286 20.3054 156.909 8.53999C158.209 5.77999 162.949 6.46999 163.529 9.39999C166.923 26.4667 170.339 43.5267 173.779 60.58C187.389 55.69 202.199 54.1 216.509 52.79C233.422 51.3936 250.407 51.0863 267.359 51.87C268.879 51.9268 270.4 51.9832 271.92 52.0396L271.92 52.0396C287.273 52.6096 302.638 53.1801 317.969 54.09C332.929 54.99 347.899 56.71 362.079 61.71C369.899 39.9 382.469 19.55 397.319 1.82999C399.229 -0.460006 402.269 1.68999 402.569 3.97999C406.139 31.93 410.759 59.87 415.569 87.63C416.439 92.71 417.359 97.71 418.299 102.71L419.549 103.24C433.129 109.42 438.009 121.84 439.179 135.75C439.329 136.69 439.459 137.63 439.559 138.57C439.887 141.893 439.954 145.237 439.759 148.57C439.919 161.37 438.819 174.51 435.629 186.66C435.369 187.64 435.079 188.59 434.759 189.59C436.959 203.14 438.809 216.75 440.049 230.46C442.239 254.79 443.029 279.23 442.859 303.66C442.786 315.58 442.483 327.49 441.949 339.39C441.847 341.645 441.765 343.914 441.683 346.192L441.682 346.2V346.201C441.493 351.454 441.303 356.749 440.849 362C456.156 349.783 459.948 329.278 463.409 310.57L463.479 310.19C466.096 295.625 468.216 280.984 470.336 266.343C471.724 256.758 473.112 247.173 474.639 237.61C475.007 235.304 475.363 232.974 475.722 230.63C478.439 212.881 481.287 194.271 490.049 178.61C498.529 163.46 514.179 148.32 532.709 148.32C550.299 148.35 565.389 160 573.799 174.66C583.489 191.54 584.379 211.56 582.009 230.43C579.333 251.002 574.3 271.198 567.009 290.62C560.429 308.47 552.429 326.42 540.429 341.42C527.959 356.97 510.169 366.21 492.719 375.21C475.519 384.09 456.989 392.07 437.229 390.47C436.459 397.3 435.619 404.11 434.569 410.9C429.819 441.74 419.559 470.61 406.659 498.96C400.659 512.15 393.789 524.96 384.849 536.43C379.939 542.73 374.329 549.39 367.329 553.59C367.203 553.729 367.077 553.869 366.951 554.01C365.369 555.77 363.765 557.554 361.329 558.48C358.357 559.83 354.885 559.446 352.279 557.48C346.887 553.204 347.626 543.538 348.137 536.854L348.139 536.833C348.162 536.536 348.184 536.246 348.205 535.962C348.232 535.604 348.257 535.256 348.279 534.92C348.91 525.538 350.694 516.322 352.477 507.107L352.477 507.106L352.477 507.106C354.256 497.914 356.035 488.723 356.669 479.37C349.069 476.72 340.449 476.18 332.069 475.98C331.854 476.045 331.624 476.045 331.409 475.98C330.049 475.951 328.711 475.928 327.391 475.906H327.388C325.108 475.867 322.884 475.83 320.699 475.76C307.839 475.33 294.959 475.28 282.099 475.57C269.239 475.86 256.399 476.52 243.579 477.62C239.595 477.957 235.561 478.442 231.506 478.929L231.505 478.929H231.505C224.007 479.83 216.436 480.74 208.979 480.74C211.508 490.717 213.29 500.868 214.309 511.11C214.357 511.568 214.406 512.028 214.454 512.489C215.441 521.865 216.502 531.947 214.719 541.22C213.419 547.89 209.669 554.62 202.419 555.89C193.839 557.4 187.269 550.28 183.079 543.81C173.039 528.31 167.109 510.36 161.529 492.92C155.279 473.33 149.259 453.68 143.689 433.92C139.016 417.427 135.119 400.847 131.999 384.18C119.999 406.58 103.499 428 81.4893 440.8ZM532.709 156.45C523.129 156.38 514.979 161.67 508.339 168.08H508.289C498.829 177.22 493.629 188.5 490.229 200.54C493.947 206.068 502.603 210.697 507.324 213.221C507.53 213.332 507.729 213.438 507.919 213.54C515.124 217.379 522.828 220.196 530.809 221.91C545.649 225.13 559.599 223.63 573.919 220.13C574.039 217.87 574.109 215.61 574.109 213.35C574.099 196.24 569.419 178.45 556.419 166.45C550.009 160.53 541.559 156.52 532.709 156.45ZM486.189 218.36C487.189 213.24 488.189 208.14 489.519 203.15C491.916 206.175 495.462 208.742 498.189 210.717L498.189 210.717L498.469 210.92C506.305 216.538 515.04 220.782 524.299 223.47C539.689 228.02 558.069 229.03 573.689 223.79C572.439 239.79 568.529 255.91 563.929 271.18L563.809 271.56C558.953 274.406 553.438 275.936 547.809 276C538.229 276.27 528.419 274.11 519.379 271.06C510.718 268.141 502.493 264.06 494.929 258.93C490.229 255.74 484.929 251.93 481.309 247.21C482.759 237.57 484.359 228 486.139 218.36H486.189ZM478.622 264.337C477.882 269.13 477.144 273.921 476.389 278.71H476.339C476.129 280.05 475.929 281.39 475.759 282.73C478.219 296.28 488.319 305.12 500.839 310.83C507.475 313.881 514.356 316.366 521.409 318.26C526.725 319.66 531.847 319.958 537.073 320.262C539.162 320.383 541.268 320.506 543.409 320.7C551.359 306.82 557.409 291.74 562.269 276.51C558.477 278.018 554.479 278.946 550.409 279.26C539.469 280.14 527.979 277.53 517.739 273.85C507.736 270.275 498.35 265.164 489.919 258.7C486.583 256.244 483.524 253.431 480.799 250.31C480.07 254.946 479.355 259.583 478.64 264.218L478.639 264.223L478.638 264.23L478.637 264.237L478.636 264.244L478.635 264.252L478.634 264.259L478.633 264.266L478.631 264.273L478.63 264.28L478.629 264.287L478.628 264.294L478.627 264.302L478.626 264.311L478.624 264.32L478.623 264.33L478.622 264.337ZM474.839 288.88C477.639 299.09 487.239 307.15 496.429 311.94C503.601 315.631 511.126 318.592 518.889 320.78C525.789 322.78 534.409 324.86 541.769 323.5C536.878 331.949 530.647 339.548 523.319 346C519.01 349.596 514.403 352.821 509.549 355.64C507.17 355.516 504.833 354.964 502.649 354.01C497.419 351.77 492.849 348.15 488.449 344.62C484.339 341.31 480.369 337.83 476.579 334.17C474.519 332.17 472.469 330.17 470.579 328.07L470.418 327.891C469.67 327.059 468.911 326.216 468.239 325.32C471.099 313.33 472.999 301 474.789 288.88H474.839ZM439.969 369.94C439.679 371.77 439.359 373.59 438.969 375.39H438.919C438.843 376.129 438.763 376.867 438.683 377.604L438.682 377.617L438.68 377.633L438.68 377.633C438.521 379.102 438.362 380.569 438.229 382.04C459.619 382.63 479.029 372.32 497.369 362.42C499.989 361.007 502.633 359.56 505.299 358.08C499.499 356.23 493.839 352.34 489.899 349.34C483.639 344.507 477.74 339.223 472.249 333.53C472.134 333.41 472.018 333.289 471.902 333.168L471.663 332.92L471.65 332.906L471.649 332.905C470.248 331.448 468.796 329.938 467.519 328.32C466.789 331.15 466.009 333.95 465.149 336.72C460.969 350.24 453.129 363.74 439.969 369.94ZM218.099 473.19L218.097 473.181C222.962 472.256 227.935 471.648 232.899 471.13C229.289 463.785 226.188 456.201 223.619 448.43C222.838 446.204 222.094 443.91 221.343 441.594L221.342 441.589L221.34 441.584L221.34 441.583C219.045 434.504 216.68 427.209 212.959 420.98C212.44 419.704 211.473 418.663 210.239 418.05C208.959 416.59 207.726 416.9 206.539 418.98C206.231 419.211 205.959 419.409 205.721 419.583C204.846 420.222 204.415 420.537 204.232 420.959C204.054 421.369 204.109 421.879 204.218 422.886C204.231 423.006 204.245 423.134 204.259 423.27C204.503 425.577 204.978 427.876 205.449 430.157L205.45 430.158L205.531 430.551C205.594 430.858 205.657 431.164 205.719 431.47C206.733 436.47 207.906 441.423 209.239 446.33C210.659 451.55 212.452 456.646 214.243 461.737C215.581 465.538 216.917 469.336 218.097 473.181L218.049 473.19H218.099ZM248.809 469.555L248.809 469.56H248.759L248.809 469.555ZM268.819 468.02C262.149 468.406 255.479 468.917 248.809 469.555C247.987 464.074 247.119 458.602 246.251 453.13L246.25 453.125L246.25 453.124C244.499 442.088 242.75 431.055 241.379 419.96C240.286 411.213 239.336 402.443 238.529 393.65C238.445 392.751 238.356 391.851 238.267 390.949C237.954 387.776 237.638 384.587 237.529 381.41C237.449 378.15 237.439 366.66 243.449 370.41C245.341 371.574 247.272 375.946 248.555 378.852C248.859 379.541 249.127 380.148 249.349 380.61C251.243 384.603 252.799 388.747 253.999 393C255.901 399.555 257.141 406.293 258.377 413.007L258.377 413.008L258.378 413.012C258.669 414.593 258.96 416.174 259.259 417.75C262.433 434.51 265.619 451.267 268.819 468.02ZM289.919 467.09L289.92 467.089C296.476 466.95 303.026 466.92 309.569 467C309.144 458.564 308.256 450.158 306.909 441.82C306.175 437.554 305.173 433.339 303.909 429.2C303.743 428.664 303.574 428.106 303.402 427.534C302.235 423.669 300.864 419.126 298.469 416.13C298.149 414.58 297.199 414.1 295.609 414.58C294.269 413.91 293.369 414.16 292.889 415.33C292.037 416.35 291.419 417.545 291.079 418.83C290.444 420.851 290.064 422.944 289.949 425.06C289.629 429.58 289.629 434.15 289.629 438.67C289.609 443.95 289.689 449.22 289.829 454.49C289.903 456.97 289.983 459.45 290.069 461.93C290.086 462.337 290.115 462.749 290.143 463.162C290.201 463.996 290.259 464.834 290.219 465.65C290.148 466.135 290.048 466.616 289.92 467.089L289.869 467.09H289.919ZM334.535 442.044L334.535 442.044C333.514 450.556 332.489 459.106 332.489 467.64H332.439C337.419 467.84 342.429 468.1 347.439 468.75C349.539 454.29 351.609 439.86 352.439 425.29C352.943 418.473 352.966 411.63 352.509 404.81C352.242 401.255 351.626 397.734 350.669 394.3C350.359 393.2 350.009 392.13 349.609 391.06L344.739 388.49C343.369 388.8 342.029 391.18 341.369 392.4C338.917 396.886 338.501 402.401 338.11 407.586V407.587L338.11 407.589C338.014 408.852 337.921 410.096 337.799 411.3C337.079 418.393 336.353 425.48 335.619 432.56C335.294 435.714 334.915 438.876 334.535 442.044ZM427.609 128C429.363 132.377 430.361 137.019 430.559 141.73C430.597 142.705 430.617 143.685 430.638 144.667L430.638 144.673L430.648 145.148C430.652 145.315 430.655 145.483 430.659 145.65C430.55 150.127 430.102 154.59 429.319 159C427.764 150.908 426.159 142.837 424.551 134.751L424.551 134.75L424.55 134.749L424.55 134.749L424.549 134.742L424.548 134.736L424.547 134.73L424.539 134.692L424.537 134.683C423.461 129.273 422.384 123.855 421.319 118.42C424.032 121.163 426.171 124.42 427.609 128ZM424.879 178.22C423.159 168.63 421.299 159.07 419.299 149.51V149.48C416.759 137.293 414.376 125.077 412.149 112.83C407.154 111.168 401.736 110.886 396.501 110.614L396.488 110.613L396.049 110.59L395.669 110.57C385.353 110.016 375.032 109.497 364.709 108.979L364.708 108.979L364.707 108.978L364.706 108.978L364.705 108.978L364.704 108.978L364.703 108.978L364.702 108.978L364.695 108.978L364.684 108.977L364.673 108.977L364.662 108.976L364.651 108.976L364.64 108.975L364.629 108.975L364.618 108.974L364.607 108.973C359.505 108.717 354.402 108.461 349.299 108.2C346.983 108.082 344.623 107.908 342.238 107.731L342.237 107.731L342.236 107.731L342.236 107.731L342.235 107.731L342.234 107.731L342.233 107.731L342.23 107.731L342.23 107.731C330.645 106.873 318.486 105.974 308.039 111.33C305.752 112.509 303.614 113.956 301.669 115.64C301.441 116.28 301.243 116.897 301.068 117.442L301.067 117.443L301.067 117.445L301.066 117.447L301.066 117.447C300.919 117.905 300.788 118.312 300.669 118.64C299.679 121.34 298.799 124.08 297.999 126.84C296.3 132.758 295.043 138.795 294.239 144.9C293.456 151.014 293.122 157.177 293.239 163.34C293.259 164.41 293.389 165.61 293.539 166.87C293.999 168.78 294.509 170.67 295.129 172.55C297.249 178.98 300.499 185.95 305.709 190.49C310.259 194.45 316.339 196.71 322.059 198.4C335.219 202.26 349.039 202.48 362.649 202.48C368.175 202.52 373.701 202.507 379.223 202.493H379.226H379.228H379.231H379.234H379.236H379.239H379.241H379.249H379.251H379.253C382.016 202.487 384.778 202.48 387.539 202.48C388.498 202.476 389.467 202.483 390.444 202.49H390.445H390.446H390.447H390.448H390.449H390.45H390.451H390.452C396.341 202.533 402.478 202.578 407.879 200.16C416.939 196.1 421.879 187.37 424.879 178.22ZM299.919 61.22C299.675 62.2345 299.482 63.2689 299.288 64.3034L299.288 64.3038L299.288 64.3042L299.288 64.3046L299.288 64.305L299.288 64.3054L299.287 64.3058L299.287 64.3061C299.069 65.4733 298.851 66.6407 298.559 67.78C298.424 68.3085 298.29 68.9236 298.147 69.5818C297.642 71.9003 297.021 74.7546 295.829 76.25C295.479 78.12 294.179 78.25 291.909 76.62C291.829 75.79 291.759 74.97 291.689 74.14C291.629 73.1516 291.612 72.1559 291.595 71.1486C291.584 70.4846 291.573 69.8154 291.549 69.14C291.456 66.2991 291.212 63.4651 290.819 60.65L299.919 61.22ZM271.139 59.64L267.339 59.45C263.429 59.25 259.519 59.13 255.609 59.04C255.932 63.2042 256.063 67.3807 256.193 71.5586V71.5593C256.325 75.7887 256.457 80.0194 256.789 84.24C256.839 84.8777 256.887 85.5228 256.935 86.1736C257.454 93.1868 258.021 100.848 262.129 106.75C266.916 102.749 267.473 94.6452 267.928 88.0129L267.928 88.0109C268.041 86.3728 268.147 84.8245 268.309 83.45C268.618 80.8454 268.906 78.2354 269.194 75.6246L269.195 75.6225L269.195 75.6204L269.195 75.6183L269.195 75.6162L269.196 75.6142L269.196 75.6121L269.196 75.6099L269.196 75.6079C269.785 70.2754 270.375 64.9397 271.139 59.64ZM231.705 68.5688L231.705 68.5699C231.491 70.0196 231.277 71.4678 231.049 72.91C230.656 75.4433 230.259 77.9733 229.859 80.5C229.82 80.7527 229.781 81.0589 229.738 81.3988C229.367 84.327 228.679 89.7592 224.459 85.1C222.41 82.8353 221.656 78.0598 221.06 74.2757L221.06 74.2753V74.2752C220.879 73.1304 220.713 72.0763 220.529 71.21C220.061 68.999 219.691 66.7951 219.322 64.5941L219.322 64.5935L219.322 64.593C219.068 63.0811 218.814 61.5706 218.529 60.06C223.429 59.65 228.329 59.37 233.239 59.19C232.631 62.2938 232.167 65.435 231.705 68.5688ZM145.663 63.9582C144.967 67.217 144.271 70.4739 143.489 73.7C142.926 78.5375 142.132 83.3487 141.337 88.1694L141.336 88.1695C140.747 91.7395 140.157 95.3148 139.659 98.91C145.299 99.12 150.959 99.82 156.859 100.58C169.579 102.21 182.319 104.03 194.779 107.1C203.569 109.27 212.729 112.49 219.339 118.9C223.108 122.477 225.572 127.211 226.339 132.35C229.938 129.904 234.35 128.323 238.369 126.883C238.671 126.775 238.972 126.667 239.269 126.56C244.749 124.63 250.679 122.56 256.589 122.56C262.067 122.613 267.294 124.529 272.395 126.398C273.048 126.637 273.7 126.876 274.349 127.11C275.209 127.423 276.19 127.718 277.223 128.028C278.893 128.529 280.699 129.071 282.349 129.8C282.399 124.35 282.769 118.71 285.169 114.11C291.749 101.47 309.589 95.54 322.699 93.47C338.792 90.9358 354.968 92.8209 371.022 94.6917L371.025 94.6921C372.517 94.866 374.009 95.0399 375.499 95.21C378.428 95.5473 381.417 95.8259 384.432 96.1069C392.948 96.9006 401.68 97.7145 409.899 99.93C408.619 92.47 407.419 84.9933 406.299 77.5C404.424 64.8824 402.805 52.2649 401.186 39.6473C399.982 30.2649 398.779 20.8824 397.469 11.5C384.559 28.43 374.669 46.87 366.469 66.56C366.439 69.17 364.339 71.75 361.179 70.56C346.759 65.12 331.539 63.21 316.229 62.21C312.938 61.9935 309.635 61.7938 306.333 61.5941C305.212 61.5263 304.09 61.4585 302.969 61.39C302.739 65.6265 301.179 70.1399 299.833 74.0347L299.669 74.51C299.547 74.8438 299.425 75.2014 299.299 75.5723C298.465 78.0243 297.432 81.0593 294.739 81.65C286.652 83.4183 288.36 67.4123 288.943 61.9606L288.943 61.9526C288.986 61.5501 289.023 61.2054 289.049 60.93C289.065 60.811 289.103 60.6958 289.159 60.59C284.159 60.31 279.159 60.04 274.159 59.78C273.499 66.9086 272.559 74.0284 271.62 81.1363C271.151 84.6873 270.682 88.2353 270.249 91.78C270.209 92.1093 270.169 92.4405 270.129 92.7732C269.356 99.1881 268.521 106.127 262.569 109.93C262.015 110.251 261.314 110.161 260.859 109.71C256.339 103.93 255.269 97.03 254.599 89.93C253.629 79.78 252.759 69.17 253.859 59C247.969 58.9 242.079 58.91 236.189 59.08C235.554 64.7926 234.552 70.5107 233.556 76.1979L233.556 76.1987L233.556 76.1995L233.556 76.2002L233.556 76.201C233.204 78.2084 232.853 80.2119 232.519 82.21L232.512 82.2549C231.991 85.3998 231.129 90.6084 226.819 90.27C222.149 89.9136 220.68 83.6384 219.781 79.7993C219.722 79.5447 219.665 79.3007 219.609 79.07C217.995 72.9002 216.964 66.5925 216.529 60.23C201.479 61.53 185.999 63.36 171.999 69.09C171.05 69.3538 170.034 69.2289 169.177 68.743C168.32 68.2572 167.691 67.4501 167.429 66.5C164.529 51.7267 161.619 36.95 158.699 22.17C155.183 30.5034 152.135 39.0267 149.569 47.7C147.998 53.035 146.83 58.4994 145.663 63.9582ZM132.119 195.38C132.709 174.32 133.759 153.26 135.699 132.28C136.366 125.18 137.129 118.083 137.989 110.99C140.874 111.127 143.668 111.376 146.285 111.609C146.907 111.664 147.519 111.718 148.119 111.77C159.162 112.877 170.112 114.762 180.889 117.41C182.572 117.799 184.311 118.162 186.078 118.531L186.079 118.532C193.758 120.136 201.951 121.848 208.259 126.23C210.716 127.942 212.909 130.004 214.769 132.35C215.091 133.388 215.418 134.414 215.744 135.433L215.744 135.433C217.505 140.945 219.206 146.274 219.569 152.35C219.921 160.506 219.697 168.676 218.899 176.8C218.259 184.56 216.629 193.8 209.759 198.7C206.963 200.713 203.462 201.319 200.093 201.902C199.847 201.945 199.603 201.987 199.359 202.03C196.953 202.454 194.544 202.866 192.136 203.278L192.134 203.278L192.124 203.28L192.114 203.282L192.113 203.282C189.704 203.694 187.296 204.106 184.889 204.53C166.949 207.68 149.819 208.67 131.889 206.1C131.939 202.54 131.999 199 132.119 195.38ZM161.143 219.761H161.143H161.142C151.282 219.629 141.416 219.496 131.569 219.1C130.999 249.18 130.859 279.32 131.579 309.38C132.409 348.07 138.359 385.68 148.359 423.07C153.239 441.28 158.879 459.21 164.589 477.21C165.467 479.971 166.331 482.742 167.196 485.516L167.196 485.517C171.63 499.742 176.087 514.041 182.589 527.43C182.95 528.182 183.326 528.988 183.719 529.832L183.721 529.836C186.78 536.399 190.887 545.213 197.239 548.03C205.369 551.62 207.879 541.03 208.239 535.27C209.419 516.82 206.289 497.7 202.719 479.7C202.675 479.456 202.655 479.208 202.659 478.96C202.651 478.693 202.699 478.427 202.799 478.18C203.326 476.668 204.914 475.803 206.469 476.18C209.552 475.145 212.694 474.297 215.879 473.64C210.349 462.75 207.169 450.03 204.419 438.36C204.258 437.671 204.007 436.771 203.716 435.725C201.77 428.74 198.004 415.219 206.779 414.21C210.619 413.76 213.609 416.53 215.409 419.58C218.082 424.23 219.961 429.595 221.753 434.712L221.76 434.73C221.977 435.351 222.193 435.968 222.409 436.58C223.12 438.554 223.818 440.528 224.515 442.5C227.918 452.126 231.298 461.69 236.029 470.82C236.687 470.755 237.344 470.691 237.999 470.627C239.875 470.444 241.739 470.263 243.569 470.07L246.279 469.81C242.849 453.96 240.639 437.81 238.589 421.81C237.516 413.363 236.563 404.907 235.729 396.44C235.589 394.999 235.42 393.536 235.249 392.061L235.248 392.059C234.588 386.368 233.906 380.488 234.819 374.93C235.389 371.42 237.289 364.59 242.189 365.59C245.983 366.335 248.594 371.814 250.404 375.612C250.731 376.299 251.032 376.931 251.309 377.47C257.333 389.285 259.743 402.299 262.133 415.207L262.133 415.207L262.134 415.209L262.134 415.211C262.521 417.302 262.908 419.39 263.309 421.47C266.276 436.91 269.233 452.343 272.179 467.77C276.419 467.54 280.669 467.34 284.919 467.2C285.889 467.14 286.839 467.14 287.839 467.14C286.517 460.537 286.693 446.72 286.761 441.376V441.374C286.772 440.576 286.779 439.968 286.779 439.6C286.772 438.555 286.725 437.323 286.673 435.963L286.672 435.961C286.344 427.427 285.822 413.89 293.929 410.44C297.958 408.707 300.073 412.815 301.611 415.801L301.759 416.09C304.494 421.503 306.614 427.205 308.079 433.09C310.919 444.14 311.979 455.64 312.659 467.03C317.226 467.097 321.783 467.22 326.329 467.4L330.069 467.55C330.022 461.729 330.336 455.912 331.009 450.13C331.883 440.883 332.769 431.64 333.669 422.4C333.89 420.133 334.074 417.855 334.259 415.574C334.725 409.806 335.191 404.026 336.259 398.4C337.209 393.39 339.259 387.63 344.259 385.24C356.539 379.34 355.929 412.2 355.789 417.79C355.359 435.03 352.939 452.17 350.439 469.17C354.863 469.878 359.191 471.089 363.339 472.78C364.686 473.53 365.511 474.959 365.489 476.5C365.047 487.562 362.93 498.376 360.811 509.198L360.811 509.198L360.811 509.2C359.915 513.776 359.019 518.353 358.249 522.95C356.799 530.629 356.129 538.436 356.249 546.25C356.26 546.525 356.256 546.846 356.252 547.191C356.227 549.019 356.194 551.529 358.389 551.47C359.372 551.44 360.755 550.375 361.804 549.567C362.142 549.307 362.445 549.073 362.689 548.91C363.993 548.004 365.404 547.262 366.889 546.7C376.029 538.7 383.039 527.76 388.889 517.58C397.869 501.96 404.829 485.14 411.259 468.36C418.106 450.566 423.197 432.145 426.459 413.36C428.073 404.027 429.379 394.65 430.379 385.23C430.648 382.706 430.866 380.167 431.084 377.625L431.084 377.623L431.084 377.621C431.328 374.775 431.572 371.926 431.889 369.09C431.764 361.702 432.314 354.234 432.862 346.802C433.185 342.415 433.507 338.039 433.689 333.7C434.269 320.26 434.609 306.75 434.609 293.26C434.67 269.148 433.488 245.05 431.069 221.06C430.379 214.35 429.569 207.66 428.569 200.99C427.378 202.422 426.037 203.723 424.569 204.87C419.189 209.04 412.479 211.06 405.879 212.43C388.652 215.948 371.051 217.292 353.489 216.43C337.519 215.67 319.529 214.16 304.689 207.75C289.849 201.34 284.949 187.2 282.689 172.34C281.158 162.445 281.013 152.385 282.259 142.45V138.86C280.815 138.256 279.328 137.602 277.809 136.934C270.759 133.833 263.027 130.433 255.729 130.31C250.529 130.22 245.139 131.93 240.249 133.51C238.458 134.092 236.654 134.829 234.843 135.569C232.672 136.456 230.49 137.347 228.309 137.98C231.859 146.56 233.089 155.91 233.249 165.17C233.262 165.918 233.277 166.678 233.292 167.447L233.292 167.455C233.501 178.095 233.746 190.569 229.009 200.07C218.684 220.759 192.111 220.283 171.924 219.921C170.898 219.903 169.889 219.885 168.899 219.87C166.315 219.831 163.729 219.796 161.143 219.761ZM116.179 203.22C115.788 203.134 115.388 203.05 114.981 202.964C111.487 202.224 107.515 201.383 104.819 199.09C101.927 196.616 101.656 192.717 101.406 189.119C101.375 188.674 101.345 188.233 101.309 187.8C100.939 183.06 100.749 178.3 100.699 173.55C100.559 163.177 101.257 152.81 102.789 142.55C103.349 138.896 104.235 135.21 105.125 131.507L105.125 131.507C105.348 130.579 105.571 129.65 105.789 128.72C108.669 123.25 112.359 117.97 117.379 114.72C120.969 112.39 125.439 111.37 130.109 111.03C129.409 116.563 128.776 122.1 128.209 127.64C126.159 147.99 124.969 168.41 124.289 188.85C124.11 194.106 123.971 199.381 123.832 204.647L123.829 204.75C121.269 204.29 118.719 203.78 116.179 203.22ZM37.2294 402.168C39.0465 400.522 40.6448 399.075 43.3193 399C44.3698 399 45.2275 399.84 45.2493 400.89C45.0405 404.523 41.903 406.921 39.0394 409.11C38.4738 409.542 37.9189 409.966 37.3993 410.39C36.938 410.764 36.4766 411.141 36.0148 411.517C33.073 413.916 30.1108 416.331 26.9993 418.44C22.9993 421.14 17.2393 423.72 11.9993 423.52C14.0124 427.362 16.7256 430.794 19.9993 433.64C21.5622 434.999 23.2345 436.226 24.9993 437.31C30.7339 434.76 36.0055 431.276 40.5993 427C43.2965 424.37 45.6852 421.441 47.7193 418.27C48.0146 417.819 48.2995 417.343 48.5873 416.862C49.7029 414.997 50.8641 413.056 52.8593 412.19C53.2771 411.962 53.7753 411.932 54.2169 412.111C54.6585 412.289 54.997 412.656 55.1393 413.11C57.4393 419.16 48.9793 427.65 44.9793 431.33C40.8437 435.183 35.9826 438.174 30.6793 440.13C48.6493 447.23 70.5293 439.87 85.5893 428.69C105.129 414.19 118.129 393.26 129.939 372.48C126.708 352.839 124.727 333.012 124.009 313.12C123.769 306.31 123.599 299.49 123.459 292.67C121.068 298.617 118.24 304.38 114.999 309.91C108.68 320.742 101.042 330.748 92.2593 339.7C75.2593 357.26 54.6793 371.3 33.2593 382.97C31.6413 383.85 29.9747 384.69 28.3066 385.53C19.3039 390.065 10.2567 394.623 8.56931 405.7C7.98252 409.79 8.3243 413.96 9.56931 417.9C12.2094 417.932 14.8351 417.506 17.3293 416.64C21.1086 415.019 24.6162 412.827 27.7293 410.14C30.5593 407.88 33.3293 405.55 36.0793 403.19C36.4791 402.848 36.8588 402.504 37.2294 402.168Z" fill="#231F20"/>
</svg>
