<svg width="576" height="359" viewBox="0 0 576 359" fill="none" xmlns="http://www.w3.org/2000/svg">
<path d="M94.5943 354.99C92.1629 354.988 89.8914 353.778 88.5343 351.76C87.1856 349.788 86.9188 347.271 87.8243 345.06L109.894 289.28C105.234 288.6 95.2143 287.68 74.8944 287.68C70.0444 287.68 64.7744 287.74 59.2344 287.84H58.7944C55.3207 287.851 51.8939 287.038 48.7945 285.47C35.7945 278.79 23.9045 265.18 15.3445 247.17C6.85457 229.33 2.72458 209.5 3.71458 191.34C5.31457 162.28 19.6745 141.11 44.1545 131.71C53.8752 127.86 64.2197 125.826 74.6744 125.71C94.5643 125.71 113.244 134.16 128.674 150.16C133.788 155.468 138.332 161.297 142.234 167.55C153.58 140.151 168.365 114.307 186.234 90.64C205.074 66.0099 226.074 46.2799 248.674 31.9099C277.034 13.9099 307.994 4.39992 340.674 3.66992C342.034 3.66992 343.344 3.66992 344.674 3.66992C381.674 3.66992 410.193 15.3799 429.543 38.4599C450.613 63.5799 456.543 97.75 457.873 121.98C458.459 133.24 458.258 144.528 457.273 155.76C467.783 143.99 487.763 126.54 513.773 126.54C522.216 126.596 530.557 128.393 538.273 131.82C559.413 141.02 569.953 154.5 571.423 174.25C572.923 194.38 564.523 220.97 555.223 246.71C546.028 271.933 522.069 288.736 495.223 288.79H174.224L99.2243 353.27C97.9237 354.41 96.2536 355.039 94.5243 355.04L94.5943 354.99Z" fill="#88E0FF"/>
<path fill-rule="evenodd" clip-rule="evenodd" d="M340.624 0.03H344.694L344.724 0C382.814 0 412.304 12.09 432.374 36.09C442.004 47.6 449.374 61.86 454.374 78.47C458.449 92.5621 460.845 107.086 461.514 121.74C461.943 129.887 461.963 138.051 461.574 146.2C462.454 145.36 463.374 144.52 464.324 143.69C479.794 130.06 496.924 122.86 513.794 122.86C522.734 122.913 531.566 124.816 539.734 128.45C551.074 133.38 559.464 139.44 565.264 146.95C571.064 154.46 574.274 163.27 575.064 173.89C576.524 193.58 569.564 217.71 558.654 247.89C548.998 274.594 523.64 292.381 495.244 292.37H175.654L101.654 355.97C99.303 358.01 96.1887 358.94 93.104 358.525C90.0193 358.11 87.2619 356.389 85.534 353.8C83.5231 350.828 83.1185 347.051 84.454 343.72L104.834 292.36C99.274 291.87 89.974 291.36 74.974 291.36C70.134 291.36 64.884 291.42 59.384 291.52H58.864C54.8195 291.53 50.8303 290.581 47.224 288.75C33.504 281.67 21.044 267.47 12.144 248.75C3.37401 230.37 -0.855988 209.92 0.144012 191.16C0.914012 176.96 4.61401 164.46 11.144 154.01C18.524 142.21 29.204 133.57 42.874 128.32C53.0054 124.292 63.7918 122.163 74.694 122.04C95.594 122.04 115.174 130.88 131.334 147.59C135.027 151.431 138.436 155.535 141.534 159.87C152.622 134.474 166.684 110.483 183.424 88.4C202.484 63.46 223.744 43.42 246.744 28.84C275.674 10.47 307.254 0.78 340.624 0.03ZM452.074 168.15C452.074 168.15 480.594 7.28 344.694 7.28H340.764C200.374 10.42 142.874 175.96 142.874 175.96C142.874 175.96 120.864 129.28 74.674 129.28C64.6728 129.405 54.7805 131.375 45.494 135.09C-18.396 159.6 7.95401 260.4 50.494 282.27C53.0728 283.588 55.928 284.273 58.824 284.27H59.194C65.014 284.16 70.244 284.11 74.934 284.11C108.954 284.11 114.854 286.68 114.854 286.68L91.204 346.42C90.7559 347.546 90.8956 348.82 91.5769 349.822C92.2582 350.824 93.3924 351.423 94.604 351.42C95.4637 351.41 96.2911 351.091 96.934 350.52L172.934 285.17H495.174C520.515 285.174 543.143 269.3 551.764 245.47C573.414 185.54 577.764 152.97 536.764 135.15C529.525 131.914 521.694 130.211 513.764 130.15C476.874 130.15 452.074 168.15 452.074 168.15Z" fill="#231F20"/>
</svg>
