<svg width="357" height="589" viewBox="0 0 357 589" fill="none" xmlns="http://www.w3.org/2000/svg">
<path d="M177.781 291.288L174.66 287.488L177.661 292.608C177.668 292.168 177.708 291.728 177.781 291.288Z" fill="white"/>
<path fill-rule="evenodd" clip-rule="evenodd" d="M212.84 432.718C176.427 434.911 139.89 433.874 103.66 429.618C95.2902 428.618 86.9502 427.448 78.6602 426.198C81.4495 438.574 83.0366 451.288 84.6121 463.91L84.6121 463.91C85.1038 467.849 85.5945 471.779 86.1202 475.688C86.9474 481.815 87.7561 487.943 88.5648 494.071L88.5648 494.071C90.1316 505.943 91.6985 517.815 93.4002 529.688C94.5302 537.518 96.2102 543.798 102.31 549.258C106.84 553.438 112.41 556.698 117.84 559.638C129.75 565.938 142.604 570.261 155.9 572.438C182.97 577.128 211.22 573.688 237.31 565.678C238.253 565.388 239.218 565.096 240.199 564.799C252.374 561.117 267.117 556.658 274.65 546.248C281.186 537.214 283.164 525.092 284.994 513.873C285.443 511.121 285.884 508.422 286.38 505.838L295.86 456.638C296.758 451.985 297.521 447.195 298.29 442.367C299.757 433.155 301.247 423.799 303.74 414.968C293.45 421.068 281.85 424.388 269.74 426.448C250.902 429.573 231.907 431.666 212.84 432.718ZM249.01 545.498C230.13 557.498 201.86 556.348 180.8 552.218C180.434 552.112 180.199 551.754 180.249 551.376C180.299 550.998 180.619 550.714 181 550.708C192.782 551.728 204.639 551.487 216.37 549.988C221.618 549.302 226.758 548.094 231.894 546.888C237.396 545.595 242.893 544.304 248.51 543.658C249.5 543.538 249.71 545.018 248.96 545.498H249.01ZM254.1 543.938C255.719 543.64 257.29 543.126 258.77 542.408L258.72 542.438C260.03 541.728 261.74 540.688 262.03 539.058C262.131 538.663 262.046 538.243 261.798 537.919C261.55 537.595 261.168 537.403 260.76 537.398C259.542 537.398 258.608 538.149 257.684 538.892C257.47 539.064 257.257 539.236 257.04 539.398C255.858 540.345 254.6 541.195 253.28 541.938C252.17 542.568 252.96 544.188 254.1 543.938Z" fill="#A97C50"/>
<path d="M86.4598 59.4376C61.3398 58.4376 35.8398 57.6276 10.8398 54.1976C11.1805 54.9756 11.3478 55.8185 11.3298 56.6676C11.2398 63.2576 13.3298 69.8676 18.5398 74.2576C25.0398 79.7776 34.3898 79.5276 42.4298 79.9976C58.7765 80.9509 75.1332 81.8509 91.4998 82.6976C124.75 84.4376 158.04 85.8376 191.34 86.5376C224.64 87.2376 257.94 87.1176 291.2 85.7776C303.77 85.2676 320.13 86.4776 331.12 79.0376C340.03 73.0376 341.44 62.5676 341.61 52.4076C285.49 58.6676 228.73 60.7276 172.29 60.9476C143.67 61.0609 115.06 60.5576 86.4598 59.4376Z" fill="#754C29"/>
<path d="M173.9 45.7776C221.431 45.0876 268.771 42.2076 316.121 38.7776C302.661 18.0276 278.381 15.7776 254.241 15.2076C225.361 14.4876 196.474 14.7742 167.58 16.0676C138.18 17.3976 108.87 19.8876 79.5798 23.1676C73.2098 23.8776 66.8497 24.6576 60.4797 25.3876C53.6697 26.1576 44.2296 25.5176 38.6596 30.0976C34.7596 33.3076 32.9495 38.4476 30.2695 42.6476C50.0696 43.3176 69.8897 44.6476 89.6399 45.2176C117.773 46.031 145.86 46.2176 173.9 45.7776Z" fill="#754C29"/>
<path fill-rule="evenodd" clip-rule="evenodd" d="M88.6018 182.494L88.602 182.494L88.6021 182.494L88.6023 182.494C89.8469 182.538 91.074 182.582 92.2809 182.628C118.461 183.618 144.741 183.438 171.001 182.898C221.954 182.051 272.763 179.098 323.43 174.038C318.837 227.803 314.032 281.548 309.228 335.291L309.227 335.301C307.431 355.393 305.635 375.485 303.85 395.578L303.55 395.818C293.68 404.558 280.79 408.098 268.09 410.428C252.99 413.198 237.61 414.658 222.33 415.918C190.729 418.536 158.98 418.87 127.331 416.918C111.121 415.918 94.9009 414.408 78.831 411.988C78.1278 411.884 77.3488 411.816 76.5398 411.746C74.0009 411.525 71.1673 411.279 69.461 409.808C67.7255 408.311 67.3763 405.202 67.0733 402.505C66.9834 401.706 66.8977 400.942 66.7811 400.268C65.3077 391.694 63.8511 383.118 62.4111 374.538C56.9978 342.371 51.7711 310.171 46.7312 277.938C45.1696 267.933 43.6441 257.921 42.1183 247.909L42.1182 247.908L42.1181 247.907C40.8593 239.647 39.6005 231.386 38.3212 223.128C36.9879 214.541 35.6546 205.951 34.3212 197.358C33.9856 195.167 33.6583 192.975 33.3307 190.781L33.3307 190.781L33.3307 190.781C32.936 188.137 32.5411 185.492 32.1312 182.848C32.0183 182.13 31.8739 181.396 31.7278 180.654C31.253 178.241 30.7612 175.742 31.2812 173.448C48.4841 181.057 70.4088 181.842 88.6018 182.494ZM52.3341 238.958C53.717 247.522 55.1852 256.615 59.1612 263.978C59.4561 264.497 60.067 264.749 60.6421 264.588C61.2173 264.427 61.6088 263.895 61.5912 263.298C61.6838 256.257 59.7442 248.983 57.854 241.895C57.089 239.026 56.3321 236.188 55.7212 233.408C54.2995 227.074 52.9467 220.727 51.594 214.38L51.5939 214.38C50.6443 209.924 49.6947 205.468 48.7212 201.018C48.5212 200.098 46.9712 200.238 47.0512 201.238C47.9812 211.888 49.4412 222.458 51.3312 232.978C51.6823 234.921 52.0058 236.924 52.3341 238.958ZM68.0912 307.348C67.9178 307.915 67.4279 308.328 66.8392 308.404C66.2506 308.479 65.6723 308.203 65.3612 307.698C63.8905 304.996 63.4931 301.821 63.1069 298.736L63.1068 298.736C63.0099 297.961 62.9136 297.192 62.8012 296.438C62.6431 295.376 62.4451 294.296 62.2451 293.204C61.7367 290.431 61.2151 287.586 61.3012 284.788C61.3134 284.111 61.7718 283.523 62.4255 283.347C63.0792 283.171 63.7706 283.448 64.1213 284.028C65.8923 287.423 66.5939 291.273 67.277 295.021C67.3383 295.358 67.3995 295.693 67.4613 296.028C67.5265 296.382 67.5941 296.739 67.6621 297.098L67.6621 297.098L67.6622 297.098L67.6624 297.099C68.3025 300.478 68.977 304.04 68.0912 307.348ZM308.811 200.828C308.841 199.498 306.661 199.108 306.391 200.498C301.331 226.868 299.651 254.158 299.981 280.888C299.981 281.506 300.483 282.008 301.101 282.008C301.72 282.008 302.221 281.506 302.221 280.888C305.491 254.418 308.231 227.548 308.811 200.828ZM295.251 322.778C295.715 319.874 295.967 316.952 296.218 314.032C296.454 311.29 296.69 308.549 297.101 305.828C297.271 304.718 298.931 304.828 299.201 305.828C302.061 315.918 300.411 329.638 294.971 338.618C294.281 339.748 292.061 339.398 292.261 337.888C292.627 335.101 293.242 332.371 293.857 329.64L293.857 329.64C294.37 327.363 294.883 325.087 295.251 322.778ZM221.961 237.568C214.391 227.178 202.821 238.058 197.041 244.958C189.111 254.438 184.581 266.168 180.771 277.838C176.915 272.247 172.776 266.857 168.371 261.688C167.567 260.748 166.694 259.658 165.763 258.495C161.737 253.469 156.612 247.071 151.171 245.488C136.471 241.218 136.741 262.388 139.171 270.738C141.255 277.493 144.445 283.856 148.611 289.568C159.845 308.048 178.562 323.264 194.522 336.239C195.299 336.87 196.069 337.497 196.831 338.118C197.584 338.812 198.639 339.074 199.63 338.812C200.62 338.551 201.409 337.803 201.721 336.828C205.742 325.021 210.237 313.423 214.733 301.822C217.27 295.274 219.808 288.725 222.261 282.138C227.331 268.568 231.311 250.418 221.961 237.568Z" fill="white"/>
<path fill-rule="evenodd" clip-rule="evenodd" d="M316.582 128.618C316.78 126.147 316.962 123.677 317.145 121.206C317.48 116.677 317.815 112.147 318.242 107.618C318.287 107.139 318.328 106.671 318.367 106.213C318.626 103.222 318.846 100.681 320.052 98.4776H319.832C308.565 100.354 296.967 100.639 285.494 100.92C283.026 100.981 280.564 101.041 278.112 101.118C262.845 101.578 247.569 101.748 232.282 101.628C200.602 101.428 168.932 100.328 137.282 98.6276C109.817 97.1091 82.376 95.24 54.9376 93.371C51.2956 93.1229 47.6538 92.8748 44.0119 92.6276C43.47 92.5911 42.9257 92.5554 42.3799 92.5196L42.3799 92.5196C40.982 92.4278 39.5743 92.3355 38.1719 92.2276C41.1515 99.4994 42.077 108.609 42.897 116.681C43.164 119.31 43.4199 121.828 43.7319 124.138C45.5652 137.678 47.0752 151.248 48.2619 164.848C52.2619 165.468 56.1719 166.068 60.0919 166.508C72.3019 167.868 84.5819 168.338 96.8619 168.508C122.622 168.948 148.422 168.448 174.172 167.658C220.872 166.208 267.552 163.178 314.072 158.838C313.922 156.894 314.19 154.81 314.465 152.679L314.465 152.678C314.594 151.685 314.723 150.682 314.812 149.678C315.472 142.628 316.032 135.618 316.582 128.618ZM258.722 121.258C252.642 121.598 246.53 121.359 240.42 121.12L240.42 121.12C236.13 120.952 231.84 120.785 227.562 120.818C219.674 120.885 211.787 121.1 203.899 121.316L203.899 121.316C202.397 121.357 200.894 121.398 199.392 121.438C180.452 121.918 161.852 121.678 143.242 117.848C141.842 117.558 142.462 115.528 143.822 115.748C163.702 118.928 184.042 118.328 204.082 117.388C207.442 117.231 210.878 117.008 214.358 116.782C229.274 115.814 245.006 114.794 259.082 118.678C259.699 118.87 260.086 119.48 259.997 120.12C259.908 120.761 259.368 121.242 258.722 121.258ZM277.062 122.373C281.642 122.974 286.802 123.65 291.082 122.198C291.568 122.043 291.897 121.592 291.897 121.083C291.897 120.573 291.568 120.122 291.082 119.968C287.427 118.946 283.246 119.245 279.252 119.53C277.848 119.63 276.468 119.729 275.142 119.768C274.49 119.768 273.962 120.296 273.962 120.948C273.962 121.599 274.49 122.128 275.142 122.128C275.767 122.204 276.409 122.288 277.062 122.373Z" fill="#A97C50"/>
<path fill-rule="evenodd" clip-rule="evenodd" d="M342.07 36.9076C342.589 36.8617 343.111 36.8617 343.63 36.9076C347.37 33.4376 355.02 35.3176 355.8 42.0276C357.14 54.5976 356.87 68.6776 350.3 79.8976C345.45 88.1876 337.68 93.3676 328.94 96.2976C332.061 99.6209 331.763 103.902 331.452 108.38V108.381V108.381V108.381C331.395 109.198 331.337 110.022 331.3 110.848C330.99 117.848 330.56 124.848 330.05 131.848C329.544 138.848 328.99 145.848 328.39 152.848C328.325 153.593 328.277 154.333 328.23 155.057L328.23 155.06L328.229 155.061L328.229 155.062L328.229 155.063L328.229 155.064C328.176 155.882 328.125 156.68 328.05 157.438L332.3 157.028C336.39 156.618 340.77 161.048 340.39 165.108C335.234 220.648 330.331 276.209 325.429 331.768L325.426 331.807C323.522 353.381 321.619 374.955 319.7 396.528C319.693 396.626 319.677 396.723 319.65 396.818C319.475 399.15 319.25 401.451 319.033 403.668C318.928 404.739 318.825 405.791 318.73 406.818C318.691 407.185 318.628 407.549 318.54 407.908C318.627 408.379 318.668 408.858 318.66 409.338C318.509 417.103 316.902 424.886 315.319 432.555C314.814 434.999 314.312 437.431 313.86 439.848C311.907 450.448 309.93 461.048 307.93 471.648C306.74 478.021 305.633 484.434 304.526 490.856L304.526 490.857L304.525 490.859L304.525 490.861L304.525 490.862L304.525 490.863C302.098 504.934 299.664 519.044 296.32 532.858C292.89 547.018 286.35 559.388 273.72 567.288C260.77 575.428 244.71 579.848 229.94 583.288C200.85 590.048 169.94 591.398 140.94 583.618C127.131 579.977 114.02 574.073 102.14 566.148C88.8403 557.138 82.3103 547.508 80.2403 531.508C78.6944 519.545 77.1882 507.57 75.6836 495.608L75.6829 495.602C74.9199 489.536 74.1574 483.474 73.3903 477.418C72.9046 473.596 72.3826 469.762 71.8594 465.919L71.8591 465.917L71.859 465.917C69.9907 452.196 68.1072 438.363 67.8103 424.568C64.2803 423.808 60.9203 422.538 58.4403 419.928C54.3064 415.589 53.4584 408.601 52.7072 402.41C52.5025 400.724 52.3051 399.096 52.0503 397.598C50.6036 389.018 49.1703 380.438 47.7503 371.858C41.617 334.831 35.7503 297.768 30.1503 260.668C27.3903 242.381 24.747 224.074 22.2203 205.748C21.8628 203.186 21.3186 200.392 20.75 197.472C18.7897 187.405 16.5376 175.839 20.6303 167.158C19.1703 165.268 20.0203 162.158 22.8603 162.158H24.4203C26.1169 161.306 28.1334 161.393 29.7503 162.388C31.4403 162.508 33.1403 162.658 34.8403 162.858C33.8403 150.438 32.6903 138.088 31.3803 125.778C31.1994 124.056 31.0159 122.336 30.8325 120.615L30.8323 120.613L30.8321 120.611L30.8319 120.61L30.8317 120.608L30.8316 120.607C30.2854 115.483 29.7392 110.361 29.2603 105.228C29.1637 104.164 29.0421 103.087 28.9197 102.002C28.5101 98.3709 28.0907 94.6522 28.5603 91.0876C22.1603 89.9876 16.0603 87.9076 10.9203 83.4376C3.32787 76.7335 -0.619354 66.8153 0.290302 56.7276C0.348206 56.1265 0.49305 55.537 0.720302 54.9776C0.532298 53.3412 0.378234 51.7001 0.224348 50.0608C0.157232 49.3458 0.0901507 48.6312 0.0203024 47.9176C-0.279698 44.8876 2.8003 42.3376 5.6003 42.3376C10.2603 42.2976 14.9303 42.3476 19.6003 42.4376C22.1603 34.4376 27.4903 24.9276 33.7403 20.4376C38.5464 16.9166 44.5225 15.9603 50.2841 15.0384C51.0679 14.9129 51.8479 14.7881 52.6203 14.6576C59.9803 13.3576 67.3603 12.1876 74.7703 11.1876C107.15 6.69757 139.74 3.72757 172.39 2.03757C204.89 0.347573 238.09 -1.11243 270.59 1.18757C294.32 2.86757 324.78 11.8376 332.32 37.6376L342.07 36.9076ZM55.6395 25.7765C49.6886 26.1422 43.0356 26.551 38.7103 30.1076C36.0099 32.3474 34.2979 35.5172 32.5993 38.6623C31.8635 40.0245 31.1303 41.3822 30.3203 42.6576C39.4316 42.9659 48.5471 43.4182 57.6581 43.8703L57.6588 43.8703H57.6589H57.659H57.6591H57.6592C68.3472 44.4006 79.0289 44.9307 89.6903 45.2276C117.79 46.0342 145.877 46.2209 173.95 45.7876C221.48 45.0876 268.82 42.2076 316.17 38.7876C302.71 18.0376 278.43 15.8176 254.29 15.2176C225.377 14.4576 196.49 14.7442 167.63 16.0776C138.18 17.4076 108.87 19.8976 79.6303 23.1776C75.9252 23.5905 72.2235 24.0272 68.5212 24.4639L68.5209 24.464L68.5205 24.464L68.5201 24.4641L68.5197 24.4641C65.8573 24.7782 63.1947 25.0922 60.5303 25.3976C59.0063 25.5696 57.3521 25.6713 55.6397 25.7765L55.6395 25.7765ZM295.84 456.658L286.36 505.858C285.868 508.419 285.429 511.095 284.981 513.826C283.134 525.086 281.133 537.286 274.63 546.268C267.11 556.655 252.192 561.177 239.97 564.882L239.875 564.911L239.829 564.925C239.356 565.068 238.887 565.21 238.423 565.352C238.042 565.468 237.664 565.583 237.29 565.698C211.2 573.698 182.95 577.148 155.88 572.458C142.59 570.273 129.742 565.943 117.84 559.638C112.42 556.698 106.84 553.408 102.23 549.288C96.1303 543.828 94.4503 537.548 93.3203 529.718C91.6186 517.845 90.0518 505.973 88.4849 494.101C87.6762 487.973 86.8675 481.845 86.0403 475.718C85.5147 471.81 85.0241 467.88 84.5324 463.941L84.5322 463.94L84.5322 463.939C82.9567 451.318 81.3697 438.604 78.5803 426.228C86.9103 427.478 95.2503 428.658 103.58 429.648C139.838 433.899 176.401 434.926 212.84 432.718C231.94 431.676 250.969 429.59 269.84 426.468C281.91 424.408 293.51 421.088 303.84 414.988C301.261 423.883 299.745 433.32 298.253 442.605L298.252 442.606L298.252 442.609C297.488 447.362 296.731 452.076 295.84 456.658ZM303.47 395.898L303.77 395.658L303.84 395.628C305.771 373.725 307.72 351.823 309.668 329.923L309.671 329.899L309.671 329.895C314.29 277.973 318.909 226.06 323.29 174.168C272.597 179.201 221.787 182.154 170.86 183.028C144.66 183.468 118.38 183.708 92.2003 182.708C90.9932 182.662 89.7659 182.618 88.5211 182.574H88.5209C70.3278 181.922 48.4032 181.137 31.2003 173.528C30.676 175.833 31.1802 178.388 31.6586 180.812C31.8006 181.532 31.9404 182.241 32.0503 182.928C32.4602 185.573 32.8551 188.217 33.2498 190.861C33.5773 193.054 33.9047 195.247 34.2403 197.438C35.5736 206.038 36.907 214.628 38.2403 223.208C39.5196 231.466 40.7784 239.727 42.0371 247.987L42.0373 247.988L42.0375 247.99C43.5632 258.002 45.0887 268.013 46.6503 278.018C51.6836 310.251 56.9103 342.451 62.3303 374.618C63.777 383.191 65.2336 391.768 66.7003 400.348C66.8189 401.034 66.9024 401.81 66.9897 402.621L66.9897 402.622C67.2778 405.3 67.6077 408.368 69.3803 409.888C71.1262 411.384 73.9233 411.618 76.4416 411.829H76.442C77.2554 411.897 78.0398 411.963 78.7503 412.068C94.8203 414.488 111.04 415.998 127.25 416.998C158.9 418.95 190.649 418.616 222.25 415.998C237.53 414.738 252.91 413.278 268.01 410.508C280.71 408.178 293.6 404.638 303.47 395.898ZM314.08 158.818C267.56 163.158 220.88 166.188 174.18 167.638C148.43 168.428 122.63 168.928 96.8703 168.488C84.5903 168.288 72.3103 167.818 60.1003 166.488C56.1803 166.048 52.2303 165.488 48.2703 164.828C47.1036 151.214 45.5936 137.644 43.7403 124.118C43.4283 121.808 43.1724 119.29 42.9054 116.661C42.0854 108.589 41.1599 99.4794 38.1803 92.2076C39.5822 92.3154 40.9893 92.4077 42.3866 92.4994L42.3876 92.4995L42.3912 92.4997C42.936 92.5355 43.4793 92.5711 44.0203 92.6076L45.8429 92.7343C76.3154 94.8522 106.788 96.9702 137.29 98.6076C168.91 100.348 200.58 101.448 232.29 101.608C247.57 101.708 262.847 101.538 278.12 101.098C280.571 101.021 283.03 100.961 285.495 100.901C296.963 100.619 308.548 100.334 319.84 98.4576H320.06C318.855 100.661 318.635 103.202 318.376 106.193C318.336 106.651 318.295 107.119 318.25 107.598C317.831 112.114 317.495 116.63 317.159 121.146L317.158 121.163C316.973 123.641 316.789 126.119 316.59 128.598L316.404 130.932L316.403 130.941C315.907 137.16 315.41 143.379 314.85 149.598C314.758 150.627 314.621 151.646 314.486 152.649L314.486 152.649C314.2 154.785 313.923 156.849 314.1 158.788L314.08 158.818ZM297.831 85.646C309.117 85.4593 321.944 85.247 331.08 79.0676L331.12 79.0376C340.03 73.0076 341.44 62.5676 341.61 52.4176C285.49 58.6776 228.73 60.7376 172.29 60.9576C143.657 61.0776 115.047 60.5709 86.4603 59.4376C84.6503 59.3655 82.8383 59.2944 81.0247 59.2233C57.668 58.3072 34.0375 57.3804 10.8203 54.1976C11.161 54.9756 11.3282 55.8184 11.3103 56.6676C11.2203 63.2576 13.3403 69.8676 18.5203 74.2576C24.2572 79.1295 32.2454 79.5068 39.5422 79.8513C40.5128 79.8971 41.4711 79.9424 42.4103 79.9976C58.7636 80.9576 75.1203 81.8576 91.4803 82.6976C124.75 84.4376 158.02 85.8676 191.3 86.5676C224.58 87.2676 257.9 87.1476 291.16 85.8076C293.29 85.7212 295.528 85.6841 297.831 85.646Z" fill="#231F20"/>
<path d="M302.222 280.888C305.492 254.418 308.222 227.548 308.812 200.828C308.812 199.468 306.662 199.108 306.392 200.498C301.331 226.868 299.651 254.158 299.981 280.888C299.981 281.506 300.483 282.008 301.101 282.008C301.72 282.008 302.222 281.506 302.222 280.888Z" fill="#231F20"/>
<path d="M294.97 338.618C300.41 329.618 302.06 315.918 299.2 305.828C298.93 304.828 297.27 304.718 297.1 305.828C296.21 311.448 296.15 317.148 295.25 322.778C294.44 327.858 292.93 332.778 292.25 337.888C292.06 339.438 294.28 339.748 294.97 338.618Z" fill="#231F20"/>
<path d="M151.152 245.488C136.472 241.218 136.742 262.388 139.152 270.738C141.235 277.493 144.425 283.856 148.592 289.568C160.372 308.948 180.382 324.738 196.812 338.118C197.565 338.812 198.62 339.074 199.61 338.812C200.6 338.551 201.389 337.803 201.702 336.828C207.992 318.358 215.442 300.398 222.242 282.138C227.312 268.548 231.292 250.418 221.942 237.568C214.372 227.178 202.802 238.058 197.022 244.958C189.092 254.428 184.562 266.168 180.732 277.838C176.875 272.247 172.737 266.857 168.332 261.688C164.072 256.688 157.842 247.438 151.152 245.488Z" fill="#231F20"/>
<path d="M55.6886 233.438C53.2986 222.658 51.0786 211.838 48.6886 201.048C48.4886 200.128 46.9386 200.308 47.0186 201.268C47.9486 211.918 49.4086 222.488 51.2986 233.008C53.0986 243.108 54.2086 254.868 59.1286 264.008C59.4328 264.492 60.0174 264.72 60.5691 264.571C61.1209 264.421 61.5103 263.929 61.5286 263.358C61.6586 253.438 57.8386 243.088 55.6886 233.438Z" fill="#231F20"/>
<path d="M64.1183 284.028C63.7677 283.448 63.0764 283.171 62.4228 283.347C61.7692 283.523 61.3109 284.111 61.2988 284.788C61.1788 288.688 62.1986 292.588 62.7985 296.438C63.3984 300.288 63.5184 304.318 65.3581 307.698C65.6691 308.203 66.2473 308.479 66.8358 308.404C67.4244 308.328 67.9141 307.915 68.0876 307.348C69.0874 303.688 68.1376 299.718 67.4577 296.038C66.7078 291.968 66.048 287.728 64.1183 284.028Z" fill="#231F20"/>
<path d="M259.071 118.678C241.721 113.888 221.841 116.558 204.071 117.388C184.071 118.328 163.691 118.928 143.811 115.748C142.451 115.528 141.811 117.558 143.231 117.848C161.841 121.678 180.441 121.918 199.381 121.438C208.771 121.188 218.161 120.898 227.551 120.818C237.921 120.738 248.361 121.818 258.711 121.258C259.357 121.242 259.897 120.761 259.986 120.12C260.075 119.48 259.688 118.87 259.071 118.678Z" fill="#231F20"/>
<path d="M291.081 119.968C286.081 118.588 280.241 119.618 275.141 119.768C274.489 119.768 273.961 120.296 273.961 120.948C273.961 121.599 274.489 122.128 275.141 122.128C280.141 122.738 286.191 123.858 291.081 122.198C291.567 122.043 291.896 121.592 291.896 121.083C291.896 120.573 291.567 120.122 291.081 119.968Z" fill="#231F20"/>
<path d="M248.459 543.658C237.599 544.908 227.189 548.568 216.319 549.988C204.588 551.487 192.731 551.728 180.949 550.708C180.568 550.714 180.248 550.998 180.198 551.376C180.148 551.754 180.382 552.112 180.749 552.218C201.809 556.348 230.079 557.528 248.959 545.498C249.709 545.018 249.499 543.538 248.459 543.658Z" fill="#231F20"/>
<path d="M260.71 537.438C259.21 537.438 258.14 538.577 256.99 539.438C255.807 540.385 254.55 541.234 253.23 541.977C252.12 542.557 252.91 544.177 254.05 543.977C255.668 543.68 257.239 543.165 258.72 542.448C260.03 541.768 261.72 540.727 261.98 539.148C262.099 538.746 262.023 538.311 261.773 537.974C261.523 537.638 261.129 537.439 260.71 537.438Z" fill="#231F20"/>
</svg>
