<svg width="399" height="563" viewBox="0 0 399 563" fill="none" xmlns="http://www.w3.org/2000/svg">
<path fill-rule="evenodd" clip-rule="evenodd" d="M289.854 475.845C255.774 478.872 221.734 481.985 187.734 485.185L163.074 487.535C160.939 487.738 158.733 487.863 156.503 487.99C151.382 488.28 146.137 488.577 141.344 489.845C132.764 492.105 122.834 501.245 128.624 510.355C128.285 514.803 128.729 519.148 129.178 523.551C129.551 527.206 129.928 530.901 129.864 534.725C129.794 538.785 129.084 545.495 125.084 547.785C119.024 551.265 112.324 543.675 108.914 539.605C95.9871 524.145 87.3801 503.72 79.3728 484.717C77.9276 481.288 76.502 477.905 75.074 474.605C55.3533 428.819 40.2355 381.184 29.944 332.405C19.864 284.835 12.324 234.765 15.534 186.035C18.494 141.085 35.004 99.7552 68.184 68.7552C128.634 12.2652 232.284 -6.00479 299.444 48.5552C373.764 108.925 382.804 212.155 381.444 301.155C380.574 357.735 375.884 416.155 362.084 471.155C356.604 493.005 348.394 515.315 332.234 531.615C332.05 531.801 331.858 531.996 331.66 532.198L331.452 532.411L331.254 532.614L331.238 532.63C327.24 536.724 320.829 543.288 315.314 541.505C310.838 540.038 308.381 533.078 306.834 528.696L306.831 528.687C306.702 528.323 306.58 527.978 306.464 527.655C301.417 513.464 298.43 498.624 297.594 483.585C297.354 479.695 294.234 475.465 289.854 475.845ZM33.574 188.275C24.024 188.275 24.044 173.455 33.574 173.455C43.104 173.455 43.114 188.275 33.574 188.275ZM49.444 158.785C39.324 155.335 33.694 142.235 39.554 132.875C42.3681 128.336 47.2216 125.458 52.554 125.165C62.554 120.825 73.634 132.755 73.004 142.595C72.254 153.695 60.194 162.455 49.444 158.785ZM331.622 144.749C329.716 142.486 326.458 141.923 323.904 143.415L323.104 143.875C321.428 144.887 320.404 146.702 320.404 148.66C320.404 150.618 321.428 152.433 323.104 153.445L323.904 153.915C326.458 155.407 329.716 154.844 331.622 152.581C333.527 150.318 333.527 147.012 331.622 144.749ZM294.084 100.535C299.429 96.8735 306.314 96.3216 312.174 99.0852C322.924 104.385 325.924 120.375 317.344 128.925C308.924 137.325 292.924 135.185 287.694 124.275C286.576 121.851 286.065 119.191 286.204 116.525C284.734 110.245 288.904 103.995 294.124 100.535H294.084ZM94.104 191.275C90.404 216.005 91.054 248.225 104.744 269.905C115.434 291.055 133.294 308.285 157.104 316.895C197.724 331.625 240.394 309.035 257.824 270.895C275.874 231.495 270.304 173.625 237.824 142.895C208.494 115.175 163.014 110.405 129.824 134.035C110.604 147.715 97.604 167.875 94.104 191.275Z" fill="#00AEEF"/>
<path d="M307.384 119.075C309.244 117.215 308.154 112.875 305.854 111.855C302.644 110.435 300.424 113.935 299.174 116.705C299.224 116.905 299.264 117.105 299.334 117.315C300.304 120.145 305.214 121.225 307.384 119.075Z" fill="white"/>
<path d="M57.0632 139.025C55.5827 137.994 53.972 137.163 52.2732 136.555C51.3342 137.239 50.6512 138.218 50.3332 139.335C49.5532 142.335 52.0032 146.515 55.3332 145.735C59.0832 144.845 59.9032 141.215 57.0632 139.025Z" fill="white"/>
<path fill-rule="evenodd" clip-rule="evenodd" d="M218.784 146.395C249.744 168.025 258.214 214.255 249.414 249.135C240.694 283.655 208.844 312.945 171.514 305.495C135.414 298.275 116.044 267.445 104.704 234.905C102.454 205.905 106.114 175.685 126.454 154.905C150.905 129.655 190.129 126.04 218.784 146.395ZM170.234 282.215C184.784 285.435 201.804 284.595 214.234 275.685C227.554 266.125 233.834 249.525 236.414 233.905C241.674 202.475 236.534 159.825 201.534 149.085C186.584 144.495 163.474 140.055 149.884 149.915C139.254 157.633 135.66 172.61 132.57 185.481C132.021 187.77 131.488 189.992 130.934 192.095C130.835 192.481 130.781 192.877 130.774 193.275C129.282 199.417 128.302 205.672 127.844 211.975C126.674 228.285 125.554 246.065 135.404 260.065C143.514 271.625 156.574 279.215 170.234 282.215Z" fill="#8DC63F"/>
<path d="M218.274 232.895C209.774 229.645 201.404 227.625 192.274 227.715C188.739 227.837 185.221 228.249 181.754 228.945C186.501 233.079 190.424 238.073 193.314 243.665C197.074 251.335 185.524 258.055 181.854 250.375C177.848 241.693 170.702 234.85 161.854 231.225C154.744 228.325 148.014 228.645 140.924 228.415C141.194 239.925 143.474 250.325 152.794 258.255C161.044 265.255 172.244 268.875 182.974 269.145C196.754 269.485 207.974 264.595 214.654 252.255C217.795 246.329 219.992 239.949 221.164 233.345C220.179 233.421 219.189 233.267 218.274 232.895Z" fill="#BE1E2D"/>
<path d="M181.614 160.845C174.144 159.845 166.804 159.105 160.954 161.715C156.677 165.31 153.17 169.732 150.644 174.715C148.984 179.025 147.644 183.365 145.644 187.355C143.051 196.776 141.547 206.462 141.164 216.225C150.284 213.455 160.504 215.625 169.634 220.435C183.504 210.915 208.094 214.385 221.804 220.035C222.104 220.169 222.395 220.322 222.674 220.495C222.784 218.335 222.854 216.195 222.834 214.075C222.754 201.365 220.834 184.925 213.294 174.205C206.314 164.415 192.754 162.285 181.614 160.845Z" fill="#231F20"/>
<path fill-rule="evenodd" clip-rule="evenodd" d="M154.854 504.023C152.894 504.169 150.93 504.316 148.993 504.595C147.435 504.481 145.874 504.774 144.463 505.445C144.313 505.545 144.183 505.615 144.053 505.685C145.053 508.665 143.513 511.385 141.053 513.015C140.961 517.05 141.524 521.092 142.088 525.141C142.923 531.129 143.76 537.135 142.483 543.165C140.703 551.585 135.373 559.735 126.633 561.975C115.723 564.775 105.713 557.325 99.0434 549.495C83.8805 531.753 73.9996 508.212 64.8132 486.326C63.5305 483.27 62.2615 480.246 60.9934 477.275C38.9876 425.821 22.6708 372.115 12.3334 317.115C2.40344 263.685 -5.59656 206.135 5.40344 152.285C14.9534 105.515 42.6334 66.2053 81.7434 39.2853C120.383 12.6853 168.553 -1.54468 215.483 0.525324C263.783 2.60532 306.593 26.6053 337.133 63.6053C369.813 103.215 386.023 152.625 392.813 202.975C400.563 260.465 399.053 319.685 393.283 377.285C390.586 405.763 386.41 434.081 380.773 462.125C376.103 484.675 369.423 507.745 356.563 527.125C346.623 542.105 324.423 568.595 304.733 553.475C296.093 546.845 292.543 535.355 289.483 525.355C286.229 514.474 284.022 503.307 282.893 492.005C259.993 494.272 237.083 496.465 214.163 498.585L177.163 501.995L157.803 503.785C156.824 503.876 155.839 503.949 154.854 504.023ZM128.633 510.355C122.843 501.245 132.773 492.105 141.353 489.845C146.202 488.542 151.512 488.246 156.693 487.958C158.864 487.837 161.012 487.717 163.093 487.525L187.743 485.205C221.777 481.985 255.817 478.872 289.863 475.865C294.243 475.485 297.363 479.715 297.603 483.605C298.44 498.644 301.427 513.484 306.473 527.675C306.599 528.023 306.73 528.398 306.869 528.792C308.413 533.178 310.837 540.066 315.323 541.525C320.843 543.307 327.241 536.754 331.238 532.66C331.593 532.297 331.929 531.953 332.243 531.635C348.403 515.335 356.613 493.025 362.093 471.175C375.893 416.175 380.583 357.735 381.453 301.175C382.803 212.145 373.763 108.945 299.453 48.5753C232.293 -5.98468 128.643 12.2853 68.1934 68.7753C35.0134 99.7953 18.5434 141.055 15.5434 186.055C12.3334 234.785 19.9034 284.845 29.9534 332.405C40.245 381.184 55.3627 428.819 75.0834 474.605C76.4916 477.866 77.8975 481.208 79.3222 484.594C87.3465 503.667 95.9642 524.149 108.923 539.605C112.333 543.675 119.033 551.265 125.093 547.785C129.093 545.495 129.803 538.725 129.873 534.725C129.937 530.901 129.56 527.206 129.187 523.551C128.738 519.148 128.295 514.803 128.633 510.355Z" fill="#231F20"/>
<path fill-rule="evenodd" clip-rule="evenodd" d="M201.563 149.085C186.563 144.495 163.503 140.085 149.913 149.915C139.283 157.633 135.689 172.61 132.6 185.482C132.051 187.77 131.517 189.992 130.963 192.095C130.864 192.481 130.81 192.877 130.803 193.275C129.312 199.417 128.332 205.672 127.873 211.975C126.703 228.285 125.583 246.025 135.433 260.065C143.543 271.625 156.603 279.195 170.263 282.215C184.783 285.435 201.803 284.595 214.263 275.685C227.583 266.125 233.863 249.525 236.473 233.905C241.703 202.475 236.613 159.845 201.563 149.085ZM214.673 252.255C207.953 264.595 196.773 269.485 182.993 269.145C172.263 268.875 161.063 265.285 152.813 258.255C143.493 250.325 141.213 239.925 140.943 228.415C141.967 228.449 142.983 228.47 143.994 228.492L143.995 228.492C149.985 228.62 155.79 228.744 161.873 231.225C170.721 234.85 177.868 241.693 181.873 250.375C185.543 258.055 197.093 251.375 193.333 243.665C190.443 238.073 186.521 233.079 181.773 228.945C185.24 228.249 188.759 227.837 192.293 227.715C201.443 227.625 209.813 229.645 218.293 232.895C219.215 233.27 220.211 233.424 221.203 233.345C220.025 239.95 217.821 246.331 214.673 252.255ZM221.803 220.095C222.103 220.229 222.394 220.382 222.673 220.555C222.679 220.435 222.685 220.315 222.692 220.195C222.796 218.157 222.899 216.14 222.833 214.175C222.753 201.465 220.873 185.025 213.293 174.305C206.313 164.455 192.753 162.325 181.613 160.905C174.143 159.955 166.803 159.165 160.953 161.775C156.676 165.37 153.169 169.792 150.643 174.775C150.152 176.05 149.69 177.326 149.229 178.594C148.133 181.617 147.052 184.598 145.643 187.415C143.05 196.836 141.546 206.522 141.163 216.285C150.283 213.495 160.503 215.685 169.633 220.495C183.503 210.975 208.093 214.445 221.803 220.095Z" fill="#231F20"/>
<path fill-rule="evenodd" clip-rule="evenodd" d="M237.774 142.845C270.224 173.555 275.774 231.425 257.774 270.845C240.344 309.015 197.674 331.605 157.054 316.855C133.294 308.235 115.434 291.005 104.744 269.855C91.1041 248.175 90.4041 215.955 94.1041 191.225C97.6041 167.825 110.604 147.665 129.824 133.985C163.014 110.355 208.494 115.125 237.774 142.845ZM104.704 234.845C116.044 267.385 135.414 298.215 171.514 305.435V305.465C208.844 312.945 240.694 283.655 249.414 249.075C258.214 214.195 249.784 167.965 218.784 146.335C190.129 125.98 150.905 129.595 126.454 154.845C106.114 175.655 102.454 205.845 104.704 234.845Z" fill="#231F20"/>
<path fill-rule="evenodd" clip-rule="evenodd" d="M39.5241 132.875C42.3382 128.336 47.1916 125.458 52.5241 125.165C62.5741 120.845 73.6041 132.755 72.9441 142.595C72.2241 153.695 60.1641 162.455 49.4141 158.785C39.2941 155.335 33.6641 142.235 39.5241 132.875ZM50.3841 139.335C49.5541 142.365 52.0041 146.515 55.3841 145.735C59.0841 144.845 59.9041 141.215 57.1141 139.025C55.6336 137.994 54.0229 137.163 52.3241 136.555C51.385 137.239 50.702 138.218 50.3841 139.335Z" fill="#231F20"/>
<path fill-rule="evenodd" clip-rule="evenodd" d="M317.384 128.925C308.964 137.275 292.964 135.185 287.734 124.275C286.617 121.854 286.106 119.198 286.244 116.535C284.734 110.245 288.924 103.995 294.124 100.535C299.468 96.8735 306.354 96.3215 312.214 99.0852C322.964 104.385 325.964 120.375 317.384 128.925ZM307.434 119.065C309.294 117.205 308.204 112.845 305.904 111.845C302.644 110.435 300.424 113.935 299.224 116.695C299.237 116.748 299.249 116.801 299.262 116.855C299.297 117.002 299.332 117.151 299.384 117.305C300.354 120.135 305.264 121.215 307.434 119.065Z" fill="#231F20"/>
<path d="M323.143 153.445L323.943 153.915C326.498 155.407 329.756 154.844 331.661 152.581C333.566 150.318 333.566 147.012 331.661 144.749C329.756 142.486 326.498 141.923 323.943 143.415L323.143 143.875C321.468 144.887 320.443 146.703 320.443 148.66C320.443 150.618 321.468 152.433 323.143 153.445Z" fill="#231F20"/>
<path d="M33.573 173.455C24.043 173.455 24.023 188.275 33.573 188.275C43.123 188.275 43.123 173.455 33.573 173.455Z" fill="#231F20"/>
</svg>
