<svg width="478" height="580" viewBox="0 0 478 580" fill="none" xmlns="http://www.w3.org/2000/svg">
<path d="M302.422 184.52C301.262 184 299.222 184.86 298.362 185.8C298.324 186.853 298.757 187.867 299.542 188.57C300.622 189.41 302.652 189.33 303.382 188.09C304.049 186.833 303.63 185.273 302.422 184.52Z" fill="white"/>
<path d="M249.61 120.83C253.92 124.43 259.93 122.1 261.49 116.93C263.18 111.31 258.64 105.7 252.85 105.61C252.012 105.602 251.176 105.717 250.37 105.95C249.07 107.939 248.154 110.154 247.67 112.48C247.461 113.406 247.344 114.351 247.32 115.3L248.09 118.93C248.466 119.658 248.982 120.304 249.61 120.83Z" fill="white"/>
<path fill-rule="evenodd" clip-rule="evenodd" d="M95.3609 188.42C91.9345 188.234 88.5777 187.378 85.4809 185.9C79.4128 181.167 74.7009 174.917 71.8209 167.78C70.0496 162.079 69.0869 156.158 68.9609 150.19C69.1063 147.609 69.4777 145.046 70.0709 142.53C82.4209 127.2 102.001 112 121.881 122.91C131.941 128.42 134.641 139.71 135.061 150.36C135.073 150.664 135.086 150.971 135.099 151.282C135.494 160.808 136.028 173.7 129.201 181.06C125.164 185.407 118.9 186.339 113.323 187.168L113.311 187.17C107.361 188.05 101.361 188.82 95.3609 188.42ZM93.7309 129.14C87.1728 132.408 81.9984 137.913 79.1409 144.66C74.1922 157.135 79.0151 171.358 90.5309 178.25C101.761 184.84 116.601 182.2 124.531 171.84C131.621 162.59 132.491 146.28 125.891 136.5C119.461 126.97 103.551 122.69 93.7309 129.14Z" fill="white"/>
<path d="M193.25 215.93C193.45 222.14 192.84 230.61 198.73 234.57C203.41 237.71 212.22 236.46 218.02 236.04C216.55 226.65 215.35 216.27 216.2 206.84C207.88 207.19 199.2 209.84 191.42 213.37C192.538 213.712 193.288 214.761 193.25 215.93Z" fill="white"/>
<path d="M224.311 235.5C228.831 234.86 233.201 233.31 235.311 228.9C237.651 224.04 235.701 218.71 237.211 213.82C237.32 213.484 237.497 213.174 237.731 212.91C237.021 212.4 236.301 211.91 235.571 211.46C231.246 208.812 226.342 207.254 221.281 206.92C222.036 211.397 222.556 215.909 222.841 220.44C223.321 225.45 224.001 230.48 224.311 235.5Z" fill="white"/>
<path d="M105.6 159.92C108.94 159.21 111.6 155.81 113.15 152.92C114.596 150.155 115.181 147.021 114.83 143.92C113.734 141.253 111.417 139.279 108.61 138.62C105.16 137.81 101.46 139.9 98.0099 141.54C96.0314 144.934 95.4368 148.959 96.3499 152.78C97.3999 156.89 101.05 160.88 105.6 159.92Z" fill="white"/>
<path d="M61.84 219.37C63.39 218.66 63.31 216.76 62.69 215.37C62.3679 214.913 62.0029 214.488 61.6 214.1C61.46 214.41 61.34 214.73 61.21 215.04C60.9006 215.832 60.2257 216.425 59.4 216.63C59.1693 217.176 59.0965 217.775 59.19 218.36C59.44 219.71 60.77 219.86 61.84 219.37Z" fill="white"/>
<path fill-rule="evenodd" clip-rule="evenodd" d="M16.0912 458.25C9.23121 412.34 8.82121 364.89 12.0012 318.66C15.1783 272.272 22.8543 226.303 34.9212 181.4C46.0912 139.88 60.7412 97.7801 87.8712 63.7801C111.851 33.7301 147.291 10.0801 186.511 7.89006C225.001 5.74006 261.071 25.1801 287.181 52.2601C316.171 82.3301 332.661 122 344.291 161.42C355.634 200.014 363.783 239.565 371.9 278.968L371.904 278.985L371.907 279.002L371.911 279.019C372.986 284.236 374.06 289.451 375.141 294.66L375.693 297.322C384.968 342.098 394.257 386.935 406.141 431.06L406.199 431.274C411.56 451.184 416.979 471.309 424.701 490.45C431.161 506.53 439.551 522.37 452.161 534.53C454.415 536.698 456.799 538.725 459.301 540.6C403.811 534.53 352.141 502.24 322.881 454.45C322.04 453.106 320.419 452.471 318.889 452.885C317.359 453.299 316.28 454.666 316.231 456.25C314.897 488.804 323.205 521.028 340.111 548.88C317.2 541.793 296.186 529.62 278.641 513.27C268.828 504.167 260.228 493.839 253.051 482.54C251.321 479.807 249.753 476.806 248.164 473.766L248.164 473.765C243.813 465.438 239.308 456.817 230.891 452.59C228.381 451.34 225.981 452.94 225.691 455.59C223.756 472.852 224.883 490.32 229.021 507.19C213.755 499.543 198.455 491.917 183.121 484.31C181.895 483.642 180.39 483.759 179.283 484.61C178.175 485.46 177.673 486.883 178.001 488.24C181.542 505.134 187.97 521.29 197.001 536C169.515 530.587 145.613 513.772 131.231 489.73C129.441 486.71 125.441 488.32 125.101 491.39C123.084 510.429 127.893 529.566 138.671 545.39C117.739 535.654 98.0879 523.375 80.1612 508.83C78.7012 507.64 75.8512 507.34 74.9212 509.5C67.7659 526.299 68.2511 545.376 76.2512 561.79L75.1012 560.98C74.5453 560.566 73.8634 560.358 73.1712 560.39C37.0312 539.5 21.9712 497.56 16.0912 458.25ZM297.041 194.2C301.291 196.49 307.031 195.11 309.231 190.66L309.181 190.65C311.401 186.15 309.351 180.2 304.691 178.37C302.766 177.631 300.64 177.595 298.691 178.27C298.121 178.21 297.561 178.14 296.991 178.06C295.545 177.709 294.076 178.547 293.641 179.97C292.041 184.85 291.841 191.38 297.041 194.2ZM210.521 110.54C214.831 96.7801 224.711 84.4801 238.211 78.9101C252.471 73.0201 269.331 75.5601 281.971 84.1601C295.321 93.2401 303.391 108.29 305.371 124.16C307.351 140.03 302.761 155.94 290.261 166.29C284.091 174.29 275.471 180.29 266.261 181.66C260.889 182.312 255.457 182.288 250.091 181.59C249.594 181.538 249.092 181.489 248.587 181.438L248.587 181.438C243.919 180.975 239.002 180.487 234.851 178.24C231.388 176.255 228.413 173.522 226.141 170.24C222.179 166.109 218.771 161.48 216.001 156.47C208.501 142.6 205.701 125.78 210.471 110.53L210.521 110.54ZM219.781 200C207.801 200.15 195.571 203.98 184.901 209.24C164.561 219.29 147.241 237.3 141.951 259.57C139.151 263.75 136.911 268.52 140.011 273.34C146.738 283.821 160.485 276.415 169.253 271.692L169.254 271.691C170.157 271.205 171.007 270.747 171.791 270.34C184.801 263.58 200.111 256.86 213.531 266.34C214.707 267.17 215.847 268.046 216.985 268.92L216.986 268.922C220.233 271.416 223.46 273.895 227.421 275.25C233.254 277.114 239.558 276.859 245.221 274.53C255.561 270.43 262.031 260.73 263.411 249.89C264.991 237.41 259.981 225.55 251.781 216.25C243.581 206.95 232.511 199.83 219.781 200ZM61.6212 129.34C68.3312 116.45 78.2012 106.43 92.9012 103.74C106.221 101.31 121.121 99.9601 131.731 109.67C145.191 122 151.461 140 150.081 157.45C149.957 162.291 149 167.074 147.251 171.59L147.071 172.01C145.512 176.598 143.371 180.967 140.701 185.01C137.093 190.574 132.517 195.448 127.191 199.4C120.991 203.9 113.991 205.13 106.481 205.46C95.7612 205.91 83.1512 205.36 75.2212 197.98C65.4912 192.47 58.4412 182.64 55.4912 171.92C51.5512 157.62 54.8912 142.24 61.6212 129.34ZM58.4712 208.01C57.4741 208.715 56.7641 209.755 56.4712 210.94C53.4312 214 52.1612 219.22 54.6712 222.73C57.5512 226.7 63.8112 226.49 67.0512 223.05C70.7812 219.12 69.5412 212.65 65.7812 209.23C63.7912 207.41 60.9012 206.39 58.4712 208.01Z" fill="white"/>
<path fill-rule="evenodd" clip-rule="evenodd" d="M254.39 156.31C244.43 154.33 235.18 147.25 228.31 139.05C227.771 137.794 227.313 136.505 226.94 135.19C225.01 128.41 224.96 121.48 225.55 114.56C230.74 100.66 243.62 89.41 259 89.12C269.6 88.93 278.96 95.64 285.24 104.39C288.62 112.92 290.05 122.55 288.43 131.34C283.95 141.686 275.511 149.804 265 153.88C261.586 155.156 258.019 155.973 254.39 156.31ZM254.11 93.4L243.11 96.31C224.74 107.49 227.09 137.92 248.87 143.68C255.11 145.33 260.31 144.03 264.31 140.98C273.49 136.76 278.45 126.98 277.31 116.98C276.11 106.11 271.49 93.4 254.11 93.4Z" fill="white"/>
<path fill-rule="evenodd" clip-rule="evenodd" d="M124.551 171.84C116.551 182.2 101.761 184.84 90.5514 178.25C79.0356 171.358 74.2127 157.135 79.1614 144.66C82.0189 137.913 87.1933 132.408 93.7514 129.14C103.571 122.69 119.481 126.97 125.911 136.5C132.551 146.28 131.641 162.59 124.551 171.84ZM99.1039 141.099C98.734 141.278 98.3663 141.457 98.0014 141.63C95.9862 145.062 95.3906 149.145 96.3414 153.01C97.3914 157.01 101.041 161.01 105.591 160.01C108.931 159.26 111.631 155.86 113.141 153.01C114.587 150.245 115.172 147.11 114.821 144.01C113.725 141.343 111.409 139.369 108.601 138.71C105.516 137.986 102.231 139.58 99.1039 141.099Z" fill="#231F20"/>
<path fill-rule="evenodd" clip-rule="evenodd" d="M264.38 141C260.4 144.05 255.18 145.35 248.94 143.7C227.09 137.92 224.74 107.49 243.18 96.33L254.18 93.42C271.56 93.42 276.13 106.13 277.38 117C278.49 126.94 273.53 136.76 264.38 141ZM250.37 105.95C249.07 107.939 248.154 110.154 247.67 112.48C247.461 113.406 247.344 114.351 247.32 115.3L248.09 118.93C248.466 119.658 248.983 120.304 249.61 120.83C253.92 124.43 259.93 122.1 261.49 116.93C263.18 111.31 258.64 105.7 252.85 105.61C252.012 105.602 251.176 105.717 250.37 105.95Z" fill="#231F20"/>
<path fill-rule="evenodd" clip-rule="evenodd" d="M106.481 205.48C95.7611 205.93 83.1511 205.38 75.2211 198C65.4911 192.46 58.4411 182.63 55.4911 171.9C51.5511 157.61 54.9111 142.22 61.6211 129.33C68.3311 116.44 78.2011 106.42 92.9011 103.73C106.221 101.3 121.121 99.95 131.731 109.66C145.191 121.98 151.461 139.94 150.081 157.44C149.957 162.281 149 167.064 147.251 171.58L147.071 172C145.512 176.588 143.371 180.957 140.701 185C137.095 190.575 132.52 195.459 127.191 199.42C120.991 203.92 113.991 205.15 106.481 205.48ZM121.881 122.94C102.071 112.05 82.4211 127.23 70.0711 142.56V142.53C69.4914 145.047 69.1333 147.61 69.0011 150.19C69.1113 156.166 70.0606 162.098 71.8211 167.81C74.7011 174.947 79.413 181.197 85.4811 185.93C88.5779 187.408 91.9347 188.264 95.3611 188.45C101.311 188.85 107.411 188.08 113.311 187.2L113.349 187.194C118.92 186.366 125.21 185.43 129.201 181.09C136.028 173.73 135.494 160.838 135.099 151.312C135.086 151.001 135.073 150.694 135.061 150.39C134.641 139.74 131.941 128.45 121.881 122.94Z" fill="#231F20"/>
<path fill-rule="evenodd" clip-rule="evenodd" d="M234.831 178.25C231.369 176.265 228.393 173.532 226.121 170.25C222.188 166.117 218.807 161.492 216.061 156.49C208.501 142.62 205.731 125.8 210.501 110.55C214.811 96.79 224.691 84.49 238.191 78.92C252.451 73.03 269.311 75.57 281.951 84.17C295.301 93.27 303.351 108.21 305.351 124.17C307.351 140.13 302.741 155.95 290.241 166.3C284.041 174.3 275.421 180.31 266.241 181.67C260.87 182.322 255.437 182.298 250.071 181.6C249.574 181.548 249.072 181.499 248.567 181.448C243.899 180.985 238.982 180.497 234.831 178.25ZM259.011 89.12C243.631 89.41 230.751 100.66 225.561 114.56C225.001 121.48 225.001 128.41 226.941 135.19C227.311 136.505 227.766 137.794 228.301 139.05C235.171 147.25 244.381 154.31 254.381 156.31C258.013 155.974 261.585 155.157 265.001 153.88C275.507 149.818 283.949 141.719 288.441 131.39C290.061 122.55 288.631 112.92 285.251 104.39C279.011 95.64 269.611 88.93 259.011 89.12Z" fill="#231F20"/>
<path fill-rule="evenodd" clip-rule="evenodd" d="M36.2208 153.62C37.7308 148.83 39.3208 144.03 41.0008 139.26C28.0508 137.87 16.0808 129.21 8.92078 118.73C1.16078 107.38 -1.15922 92.63 2.07078 79.33C5.43078 65.54 15.1208 54.46 25.8708 45.69C36.3708 37.12 48.5308 30.69 62.4508 31.84C74.3859 32.7909 85.4395 38.4942 93.1308 47.67C94.5808 46.15 96.0608 44.63 97.5808 43.15C124.861 16.54 162.131 -1.76996 200.911 1.15004C238.221 4.00004 272.081 24.69 296.731 52.1C301.581 38.3 320.491 35.69 333.391 35.69C349.001 35.67 361.941 43.8 365.871 59.49C369.711 74.8 364.061 92.84 354.641 105.13C350.421 110.66 344.861 115.44 338.191 117.66C337.735 117.804 337.271 117.917 336.801 118C343.24 133.842 348.73 150.055 353.241 166.55C364.142 205.429 372.289 245.095 380.417 284.671C381.847 291.635 383.277 298.596 384.721 305.55C394.471 352.47 404.431 399.43 417.611 445.55C417.903 446.574 418.197 447.605 418.493 448.643C428.416 483.467 440.435 525.642 475.801 542.15C479.111 543.7 477.391 548.96 473.981 548.87C414.481 547.41 357.461 516.59 323.271 468.11C324.209 498.516 333.892 528.006 351.161 553.05C352.991 555.72 349.951 558.93 347.161 558.25C301.198 546.954 262.299 516.464 240.351 474.53L240.249 474.334C237.932 469.876 235.568 465.33 232.001 461.93C230.773 479.132 232.722 496.413 237.751 512.91C238.671 515.96 235.241 518.08 232.671 516.81C217.271 509.15 201.881 501.483 186.501 493.81C190.719 509.915 197.695 525.167 207.121 538.89C208.511 540.93 206.691 544.42 204.121 544.12C174.998 540.777 148.591 525.43 131.271 501.78C131.718 520.397 139.154 538.164 152.101 551.55C154.231 553.73 152.111 558.4 148.881 557.08C123.941 546.896 100.537 533.296 79.3408 516.67C72.9562 536.529 78.0437 558.29 92.5708 573.26C95.2108 575.93 91.6708 580.84 88.4608 578.58L71.7108 566.81C71.3729 566.572 71.0786 566.278 70.8408 565.94C63.0879 561.578 55.9545 556.197 49.6308 549.94C18.6408 519.4 10.4908 474.72 6.70078 433.13C2.39667 385.538 2.83215 337.636 8.00078 290.13C12.899 243.81 22.3514 198.086 36.2208 153.62ZM186.561 7.89004C147.341 10.08 111.921 33.73 87.9208 63.78H87.8708C60.7408 97.8 46.0908 139.88 34.9108 181.4C22.8169 226.301 15.114 272.27 11.9108 318.66C8.73078 364.89 9.14078 412.34 16.0008 458.25C21.9208 497.56 37.0008 539.5 73.1508 560.37C73.8429 560.338 74.5249 560.546 75.0808 560.96L76.2308 561.77C68.2307 545.356 67.7455 526.279 74.9008 509.48C75.8308 507.32 78.6808 507.62 80.1408 508.81C98.0674 523.355 117.719 535.634 138.651 545.37C127.873 529.546 123.064 510.409 125.081 491.37C125.421 488.3 129.421 486.71 131.211 489.71C145.593 513.764 169.503 530.587 197.001 536C187.957 521.309 181.513 505.17 177.951 488.29C177.622 486.933 178.125 485.51 179.232 484.66C180.34 483.809 181.845 483.692 183.071 484.36C198.384 491.973 213.684 499.6 228.971 507.24C224.833 490.37 223.705 472.902 225.641 455.64C225.931 452.98 228.331 451.38 230.841 452.64C239.258 456.867 243.763 465.488 248.114 473.815C249.702 476.856 251.27 479.857 253.001 482.59C260.186 493.891 268.797 504.219 278.621 513.32C296.166 529.67 317.179 541.843 340.091 548.93C323.184 521.078 314.877 488.854 316.211 456.3C316.259 454.716 317.338 453.349 318.869 452.935C320.399 452.521 322.02 453.156 322.861 454.5C352.121 502.29 403.791 534.58 459.281 540.65C456.779 538.775 454.394 536.748 452.141 534.58C439.531 522.42 431.171 506.58 424.681 490.5C416.931 471.29 411.501 451.11 406.121 431.11C394.256 386.98 384.973 342.217 375.695 297.479L375.121 294.71C374.048 289.543 372.983 284.37 371.916 279.195C363.785 239.734 355.622 200.121 344.271 161.47C332.661 121.95 316.181 82.33 287.181 52.26C261.071 25.18 225.001 5.74004 186.561 7.89004Z" fill="#231F20"/>
<path fill-rule="evenodd" clip-rule="evenodd" d="M140.001 273.36C146.722 283.822 160.451 276.438 169.22 271.722L169.22 271.722C170.132 271.231 170.99 270.77 171.781 270.36C184.781 263.59 200.101 256.87 213.521 266.36C214.697 267.191 215.838 268.067 216.976 268.941C220.223 271.436 223.45 273.915 227.411 275.27C233.244 277.134 239.548 276.879 245.211 274.55C255.551 270.45 262.021 260.75 263.401 249.91C265.001 237.41 260.001 225.5 251.801 216.25C243.601 207 232.511 199.83 219.801 200C207.801 200.15 195.591 204 184.921 209.24C164.581 219.24 147.261 237.3 141.991 259.59C139.171 263.77 136.931 268.54 140.001 273.36ZM235.561 211.46C236.291 211.92 237.011 212.4 237.721 212.91C237.487 213.174 237.31 213.484 237.201 213.82C236.527 216.003 236.543 218.274 236.558 220.551C236.577 223.375 236.597 226.21 235.301 228.9C233.171 233.31 228.801 234.9 224.301 235.5C224.091 232.496 223.772 229.473 223.454 226.452C223.242 224.446 223.031 222.44 222.851 220.44C222.566 215.909 222.046 211.397 221.291 206.92C226.355 207.252 231.263 208.81 235.591 211.46H235.561ZM216.171 206.841C216.171 206.841 216.171 206.84 216.171 206.84H216.201C216.191 206.84 216.181 206.841 216.171 206.841ZM216.171 206.841C207.86 207.196 199.232 209.814 191.391 213.37C192.509 213.713 193.259 214.761 193.221 215.93C193.244 216.639 193.256 217.376 193.269 218.133C193.367 224.007 193.483 231.027 198.701 234.57C202.798 237.319 210.06 236.703 215.697 236.226C216.499 236.158 217.269 236.092 217.991 236.04C216.521 226.65 215.321 216.271 216.171 206.841Z" fill="#231F20"/>
<path fill-rule="evenodd" clip-rule="evenodd" d="M296.94 178.05C297.51 178.13 298.07 178.2 298.64 178.26C300.58 177.592 302.694 177.628 304.61 178.36C309.35 180.2 311.37 186.2 309.18 190.65C306.99 195.1 301.24 196.48 296.99 194.19C291.79 191.37 292.03 184.84 293.59 179.96C294.025 178.537 295.494 177.699 296.94 178.05ZM299.54 188.57C300.62 189.41 302.65 189.33 303.38 188.09C304.048 186.833 303.628 185.273 302.42 184.52C301.26 184 299.22 184.86 298.36 185.8C298.323 186.853 298.755 187.867 299.54 188.57Z" fill="#231F20"/>
<path fill-rule="evenodd" clip-rule="evenodd" d="M65.8216 209.23C69.5816 212.65 70.7916 219.12 67.0916 223.05C63.8516 226.49 57.5916 226.7 54.7516 222.73C52.2016 219.22 53.5116 213.94 56.5116 210.94C56.8045 209.755 57.5145 208.715 58.5116 208.01C60.9416 206.39 63.8216 207.41 65.8216 209.23ZM61.2116 215.09C60.9022 215.882 60.2273 216.475 59.4016 216.68C59.169 217.229 59.0962 217.832 59.1916 218.42C59.4416 219.76 60.7716 219.91 61.8416 219.42C63.3916 218.66 63.3116 216.76 62.6916 215.42C62.3695 214.963 62.0045 214.538 61.6016 214.15C61.5132 214.346 61.4328 214.545 61.3528 214.744C61.3061 214.86 61.2595 214.976 61.2116 215.09Z" fill="#231F20"/>
</svg>
