<svg width="445" height="581" viewBox="0 0 445 581" fill="none" xmlns="http://www.w3.org/2000/svg">
<path d="M164.908 335.683C166.586 334.1 168.042 332.297 169.238 330.323C166.514 323.535 164.177 316.597 162.238 309.543C159.918 310.543 157.568 311.543 155.238 312.463C157.224 316.178 158.955 320.024 160.418 323.973C161.938 327.663 164.208 331.673 164.908 335.683Z" fill="white"/>
<path fill-rule="evenodd" clip-rule="evenodd" d="M73.6794 231.043C79.9164 228.788 86.5329 227.769 93.1594 228.043C101.159 228.563 105.309 233.393 108.479 239.943L114.829 238.393C115.428 238.25 116.094 238.125 116.791 237.995C119.495 237.489 122.667 236.896 124.169 234.773C125.063 233.506 125.663 231.837 126.248 230.211C126.586 229.272 126.918 228.347 127.299 227.523C128.419 225.133 129.609 222.783 130.919 220.523C133.593 215.717 136.925 211.307 140.819 207.423C140.799 207.399 140.777 207.375 140.755 207.351L140.754 207.35C140.712 207.304 140.669 207.256 140.629 207.203C130.208 192.624 126.02 175.181 121.901 158.024L121.629 156.893C117.419 139.373 113.459 121.543 110.949 103.593C106.519 71.8933 106.809 38.9033 117.399 8.44332C112.348 8.82153 107.269 8.30011 102.399 6.90332C101.258 12.2525 100.105 17.6038 98.9517 22.958C92.0818 54.848 85.1902 86.8387 80.5494 119.093C75.3346 156.173 73.0375 193.604 73.6794 231.043ZM82.0494 157.973C82.4382 163.049 82.25 168.18 82.0625 173.291C81.9752 175.672 81.888 178.049 81.8594 180.413C81.8271 183.083 81.8308 185.769 81.8346 188.462C81.8414 193.274 81.8481 198.112 81.6494 202.933C81.6087 203.165 81.4179 203.34 81.1838 203.361C80.9498 203.382 80.7307 203.244 80.6494 203.023C79.9328 195.252 79.6457 187.447 79.7894 179.643C79.7894 178.802 79.7869 177.959 79.7845 177.114L79.7845 177.114C79.7659 170.713 79.747 164.212 80.7894 157.913C80.8914 157.654 81.1475 157.489 81.4259 157.502C81.7043 157.516 81.943 157.705 82.0194 157.973H82.0494ZM82.0544 148.693C82.3192 148.707 82.5568 148.531 82.6194 148.273H82.5894C82.6435 147.982 82.7024 147.683 82.7623 147.379C83.1348 145.49 83.5486 143.391 83.1094 141.573C83.017 141.327 82.787 141.159 82.5241 141.146C82.2612 141.133 82.0157 141.277 81.8994 141.513C81.2073 143.261 81.3534 145.42 81.4831 147.337C81.5034 147.636 81.5232 147.929 81.5394 148.213C81.5731 148.476 81.7896 148.678 82.0544 148.693Z" fill="#FFF200"/>
<path d="M43.0685 268.443C41.7885 261.883 42.4285 255.233 46.3785 249.493C51.1085 242.623 58.7685 237.643 66.1585 234.103C66.9985 233.693 67.8685 233.313 68.7385 232.933C67.8771 195.156 70.0238 157.37 75.1585 119.933C77.6085 101.793 80.9086 83.7933 84.5085 65.8433C82.3385 69.2833 80.1086 72.6833 78.1185 76.1333C74.0085 83.2633 70.1685 90.5533 66.5385 97.9533C40.5661 150.926 28.1938 209.533 30.5385 268.483C32.1385 268.297 33.7385 268.147 35.3385 268.033C37.9203 267.746 40.5316 267.885 43.0685 268.443Z" fill="#FFF200"/>
<path d="M170.819 326.643C172.509 320.563 171.009 312.803 169.399 306.403C167.549 307.243 165.659 308.063 163.779 308.883C166.459 314.666 168.809 320.595 170.819 326.643Z" fill="white"/>
<path d="M180.509 461.034C159.536 442.493 141.31 421.062 126.379 397.384C111.889 374.434 99.6587 348.954 93.0687 322.514C88.5287 323.364 83.9687 322.894 79.9987 319.724C72.4987 313.724 66.1887 305.214 59.9987 297.914C58.3287 295.914 56.6587 293.914 54.9987 291.844C54.5674 292.017 54.1027 292.093 53.6387 292.064C49.2987 291.754 44.9587 291.294 40.6387 290.894C38.2987 290.674 35.6387 290.184 33.1387 289.954C38.4787 331.954 49.4087 372.704 67.9787 410.954C84.8677 445.738 107.266 477.565 134.309 505.204C161.069 532.474 192.139 556.064 229.389 566.484C264.129 576.214 301.029 575.794 336.389 569.584C356.119 566.114 375.769 560.864 393.809 552.004C409.649 544.234 427.189 532.804 435.149 516.364C403.569 524.674 371.149 529.464 338.419 527.934C279.619 525.134 224.399 499.794 180.509 461.034Z" fill="#FFF200"/>
<path d="M50.9482 286.203C48.3978 282.523 46.3088 278.543 44.7282 274.353C35.2782 272.153 25.0482 274.243 15.8082 276.843C9.55823 278.603 6.53823 282.753 6.23823 289.203C5.96121 294.112 7.66104 298.927 10.9582 302.573C11.6789 303.47 12.5735 304.211 13.5882 304.753L17.9082 303.243C18.4982 302.573 18.2682 300.053 18.3182 299.243C18.3437 296.921 18.6322 294.61 19.1782 292.353C20.0782 289.353 22.0582 286.353 25.0682 285.133C28.9682 283.503 33.9682 284.683 37.9982 285.043C42.3082 285.463 46.6782 285.793 50.9482 286.203Z" fill="#00AEEF"/>
<path fill-rule="evenodd" clip-rule="evenodd" d="M131.728 231.363C131.361 232.182 131.03 233.062 130.696 233.955C129.938 235.973 129.158 238.053 127.868 239.613C126.116 241.668 123.463 242.133 120.895 242.584C120.401 242.67 119.91 242.757 119.428 242.854C115.548 243.627 111.668 244.383 107.788 245.124C107.084 245.435 106.285 245.453 105.568 245.173C104.851 244.894 104.275 244.339 103.968 243.633C101.628 238.373 99.0783 234.143 92.8283 233.693C88.0044 233.522 83.1848 234.137 78.5583 235.514C69.5583 237.924 60.5583 242.563 53.9283 249.264C38.653 264.79 56.8532 285.647 67.9148 298.323C68.302 298.767 68.6804 299.2 69.0483 299.623C72.3817 303.483 75.8117 307.28 79.3383 311.013C79.5242 311.212 79.7098 311.411 79.8956 311.61L79.8972 311.612C82.4693 314.374 85.0828 317.181 89.1483 317.284C95.6183 317.444 104.148 312.683 109.148 308.973C116.958 303.213 116.388 294.734 115.438 286.044C115.171 283.595 114.899 281.15 114.627 278.706L114.627 278.702L114.626 278.694C114.368 276.38 114.111 274.067 113.858 271.754C113.762 270.899 113.611 269.993 113.456 269.065C113.045 266.605 112.607 263.99 113.108 261.753C113.758 258.873 116.008 258.103 118.558 257.253C119.11 257.072 119.694 256.857 120.298 256.634C122.682 255.757 125.391 254.761 127.768 255.183C132.598 256.032 135.159 262.105 137.082 266.668C137.425 267.48 137.747 268.245 138.058 268.924C141.508 276.413 145.198 284.154 153.628 286.924C161.428 289.453 169.628 287.493 177.158 284.854C177.392 284.771 177.627 284.688 177.863 284.605C185.037 282.079 193.591 279.067 197.618 272.203C201.888 264.924 200.188 255.923 197.878 248.323C195.22 239.74 192.088 231.311 188.498 223.073C185.368 215.813 181.368 207.803 173.778 204.373C159.488 197.903 144.778 209.003 137.428 220.533C135.267 224 133.362 227.619 131.728 231.363ZM106.328 292.993C105.932 294.528 105.344 296.006 104.578 297.393C102.818 303.003 98.3183 307.143 91.0383 306.393C80.2283 305.263 71.8283 295.773 67.0383 286.723C62.4883 278.023 59.4783 267.424 62.6083 257.723C65.2183 249.674 72.9383 242.933 81.6883 243.293C91.3083 243.694 97.9583 252.633 101.878 260.483C106.728 270.154 109.058 282.404 106.328 292.993ZM167.888 215.073C165.807 214.727 163.679 214.781 161.618 215.233C153.118 216.088 145.866 221.753 142.978 229.793C138.388 243.214 143.378 262.684 153.638 272.343C163.328 281.504 179.478 282.693 187.938 271.343C197.678 258.234 192.318 241.753 184.568 229.233C180.718 223.003 175.558 216.423 167.888 215.073Z" fill="#00AEEF"/>
<path d="M163.279 337.143C160.689 333.693 159.519 328.843 157.969 324.863C156.316 321.023 154.93 317.074 153.819 313.043C150.449 314.373 147.039 315.643 143.609 316.823C147.749 325.063 150.359 334.393 152.869 343.273C156.665 341.841 160.186 339.768 163.279 337.143Z" fill="white"/>
<path d="M129.529 320.974C126.459 321.714 123.379 322.344 120.309 322.824C121.671 333.033 129.086 341.398 139.059 343.974C136.959 340.914 135.709 337.084 134.289 333.724C132.448 329.573 130.859 325.315 129.529 320.974Z" fill="white"/>
<path d="M131.59 320.453C133.46 324.523 135.06 328.703 136.86 332.793C138.54 336.613 140.86 340.403 141.79 344.493C144.525 344.835 147.299 344.703 149.99 344.103C147.35 335.183 143.83 326.523 141.3 317.613C138.08 318.663 134.84 319.623 131.59 320.453Z" fill="white"/>
<path fill-rule="evenodd" clip-rule="evenodd" d="M181.652 293.273C208.715 330.182 235.94 367.314 269.968 398.193C301.031 426.355 336.124 449.719 374.088 467.513C394.468 477.063 415.948 485.673 437.838 491.233C437.591 492.831 437.318 494.429 437.044 496.027L437.043 496.033L436.951 496.576L436.838 497.233C436.732 497.787 436.799 498.359 437.028 498.873L435.378 510.393C378.668 525.393 317.878 527.793 262.778 505.393C211.688 484.633 167.728 447.993 136.508 402.693C119.158 377.523 107.118 350.153 97.6484 321.243C98.3584 320.983 99.0784 320.703 99.7784 320.403C106.958 317.363 115.038 313.533 119.038 306.533C122.93 299.784 121.913 291.56 120.976 283.988C120.844 282.922 120.713 281.868 120.598 280.833C120.413 279.191 120.203 277.544 119.993 275.894L119.993 275.894L119.993 275.893C119.554 272.46 119.115 269.015 118.898 265.583C118.731 262.978 119.345 262.823 121.169 262.362C121.634 262.244 122.178 262.107 122.808 261.903C126.128 260.873 127.868 261.493 129.518 264.493C130.799 266.83 131.907 269.265 133.014 271.695C135.574 277.315 138.123 282.912 142.758 287.233C148.528 292.633 156.678 294.433 164.378 293.843C169.564 293.369 174.665 292.212 179.548 290.403C180.25 291.36 180.951 292.316 181.652 293.273ZM115.488 319.608C114.767 320.189 114.381 321.09 114.458 322.013C116.078 340.803 133.808 354.053 152.258 349.303C161.078 347.033 170.718 339.583 174.888 331.413C179.328 322.723 176.248 310.393 173.888 301.513C173.353 300.055 171.742 299.3 170.278 299.823C161.765 303.71 153.098 307.247 144.278 310.433C140.26 311.881 136.178 313.157 132.096 314.431C127.381 315.904 122.668 317.377 118.058 319.113C117.173 318.841 116.21 319.026 115.488 319.608ZM253.758 489.753C245.508 488.513 237.268 483.943 230.138 479.833C222.9 475.621 215.999 470.853 209.498 465.573C195.748 454.513 183.808 441.793 172.158 428.573C171.878 428.243 172.408 427.763 172.718 428.053C174.764 429.996 176.806 431.948 178.85 433.902C189.036 443.639 199.27 453.422 210.238 462.233C217.116 467.844 224.436 472.887 232.128 477.313C236.192 479.605 240.447 481.39 244.699 483.174L244.699 483.174C247.98 484.55 251.26 485.926 254.448 487.533C254.845 487.657 255.146 487.982 255.237 488.387C255.329 488.792 255.197 489.215 254.892 489.497C254.587 489.779 254.155 489.877 253.758 489.753ZM273.909 496.036C275.151 496.639 276.432 497.261 277.758 497.353H277.738C278.268 497.383 278.848 496.793 278.438 496.283C277.207 494.821 275.196 494.172 273.396 493.592C273.252 493.546 273.109 493.499 272.968 493.453C271.034 492.778 269.014 492.381 266.968 492.273C266.558 492.253 266.498 492.863 266.828 493.023C268.036 493.591 269.275 494.085 270.515 494.579C271.153 494.833 271.793 495.088 272.428 495.353C272.916 495.554 273.41 495.794 273.909 496.036Z" fill="#FFF200"/>
<path fill-rule="evenodd" clip-rule="evenodd" d="M441.679 486.203C421.489 479.923 401.679 473.403 382.309 464.703C363.563 456.266 345.464 446.46 328.159 435.363C293.189 412.961 261.785 385.431 234.999 353.693C223.712 340.272 213.065 326.319 202.422 312.37L202.421 312.369L202.421 312.369L202.421 312.369L202.421 312.368L202.42 312.368L202.42 312.367L202.419 312.366L202.418 312.365L202.417 312.364L202.417 312.363C196.353 304.416 190.289 296.469 184.109 288.623C186.179 287.753 188.199 286.813 190.109 285.843C197.179 282.303 202.869 277.113 205.029 269.303C207.469 260.463 205.029 251.303 202.249 242.923C199.079 233.343 195.579 223.643 190.919 214.683C186.919 206.983 181.089 200.133 172.419 197.793C164.589 195.673 156.119 197.373 149.089 201.183C147.771 201.909 146.499 202.714 145.279 203.593C135.463 189.79 131.501 173.193 127.622 156.947C127.454 156.245 127.287 155.544 127.119 154.843C123.019 137.733 119.219 120.533 116.769 103.093C112.209 70.6534 112.619 37.2034 124.229 6.20339C124.899 4.40339 123.709 1.66339 121.399 2.11339C114.756 3.48801 107.865 3.04933 101.449 0.843395C100.672 0.499254 99.7815 0.525023 99.026 0.913492C98.2704 1.30196 97.7311 2.01142 97.5591 2.84339C95.1682 14.6851 92.6678 26.502 90.1668 38.3221C89.1217 43.2613 88.0765 48.201 87.0391 53.1434C82.9402 57.5744 79.6586 63.0441 76.5267 68.2643C76.0751 69.0172 75.6265 69.7648 75.1791 70.5034C71.3191 76.9034 67.6524 83.4167 64.1791 90.0434C57.1879 103.536 51.0979 117.476 45.9491 131.773C35.5676 160.352 28.8213 190.122 25.8691 220.383C24.3529 236.647 23.9553 252.995 24.6791 269.313C21.3391 269.893 18.0291 270.623 14.7891 271.483C9.12907 272.983 4.78907 275.553 2.47907 281.113C0.533806 285.909 0.183195 291.203 1.47907 296.213C2.71907 301.113 5.59907 306.213 9.93907 308.993C13.7291 311.413 19.0991 311.603 21.9391 307.563C23.2446 305.679 23.4447 302.762 23.6454 299.838C23.9505 295.393 24.2569 290.93 28.4491 290.043C33.8291 368.133 70.0591 444.983 122.889 502.113C149.689 531.113 181.389 557.253 219.309 569.843C254.789 581.623 293.139 582.583 329.879 576.993C352.259 573.583 374.749 568.163 395.219 558.283C413.429 549.483 435.219 535.813 442.029 515.573C442.225 515 442.25 514.381 442.099 513.793C442.853 508.962 443.058 504.061 442.709 499.183L442.979 497.183C443.047 496.741 443.009 496.289 442.869 495.863L442.897 495.709C443.268 493.67 443.64 491.622 444.079 489.593C444.317 488.003 443.258 486.507 441.679 486.203ZM173.789 204.343C181.379 207.773 185.379 215.783 188.509 223.043C192.099 231.281 195.231 239.71 197.889 248.293C200.199 255.893 201.889 264.893 197.629 272.173C193.602 279.037 185.048 282.049 177.874 284.575C177.637 284.658 177.402 284.741 177.169 284.823C169.679 287.463 161.439 289.423 153.639 286.893C145.209 284.163 141.519 276.423 138.069 268.893C137.758 268.215 137.435 267.45 137.093 266.638C135.169 262.075 132.609 256.002 127.779 255.153C125.389 254.731 122.693 255.725 120.316 256.601L120.315 256.601C119.709 256.825 119.123 257.041 118.569 257.223C116.019 258.073 113.769 258.843 113.119 261.723C112.619 263.95 113.054 266.56 113.465 269.021C113.621 269.953 113.773 270.863 113.869 271.723C114.122 274.036 114.379 276.348 114.636 278.661L114.638 278.671L114.638 278.674L114.638 278.677L114.639 278.68L114.639 278.683L114.639 278.686C114.911 281.127 115.183 283.569 115.449 286.013C116.399 294.703 116.969 303.183 109.159 308.943C104.159 312.653 95.6191 317.413 89.1591 317.253C85.0936 317.151 82.4801 314.344 79.9079 311.582L79.9025 311.576L79.7666 311.43L79.5748 311.224C79.4996 311.144 79.4243 311.064 79.3491 310.983C75.8424 307.25 72.4124 303.453 69.0591 299.593C68.6911 299.17 68.3127 298.737 67.9256 298.293C56.864 285.617 38.6637 264.76 53.9391 249.233C60.5191 242.533 69.5591 237.893 78.5691 235.483C83.1955 234.107 88.0152 233.492 92.8391 233.663C99.0891 234.113 101.639 238.343 103.979 243.603C104.286 244.309 104.862 244.863 105.579 245.143C106.296 245.423 107.095 245.405 107.799 245.093C111.679 244.353 115.559 243.597 119.439 242.823C119.918 242.728 120.406 242.642 120.896 242.557C123.477 242.105 126.123 241.642 127.879 239.583C129.201 238.033 129.967 235.957 130.711 233.94C131.042 233.042 131.369 232.156 131.739 231.333C133.375 227.579 135.283 223.949 137.449 220.473C144.789 208.973 159.499 197.873 173.789 204.343ZM117.409 8.41339C112.357 8.79161 107.279 8.27019 102.409 6.87339C101.268 12.2206 100.116 17.5699 98.9628 22.9218C92.0926 54.8131 85.2016 86.8009 80.5691 119.023C75.3383 156.118 73.0278 193.567 73.6591 231.023C79.8961 228.768 86.5126 227.75 93.1391 228.023C101.119 228.543 105.289 233.373 108.459 239.923L114.809 238.373C115.407 238.23 116.073 238.105 116.77 237.975L116.771 237.975C119.475 237.469 122.646 236.876 124.149 234.753C125.068 233.456 125.695 231.716 126.296 230.044C126.617 229.152 126.931 228.279 127.279 227.503C128.399 225.143 129.589 222.793 130.899 220.503C133.572 215.697 136.905 211.287 140.799 207.403C140.788 207.39 140.776 207.377 140.764 207.364C140.756 207.354 140.747 207.344 140.738 207.334L140.735 207.331L140.734 207.331L140.715 207.309L140.691 207.283C140.663 207.251 140.635 207.218 140.609 207.183C130.152 192.568 125.989 175.171 121.851 157.882L121.609 156.873C117.389 139.253 113.439 121.573 110.929 103.573C106.499 71.8634 106.789 38.8734 117.409 8.41339ZM66.5391 97.9234C70.1691 90.5234 74.0091 83.2334 78.1191 76.1034C79.658 73.4487 81.3272 70.8236 83.0037 68.1871C83.5059 67.3973 84.0088 66.6064 84.5091 65.8134C80.9091 83.8134 77.6091 101.813 75.1591 119.903C70.0244 157.34 67.8776 195.126 68.7391 232.903L68.7389 232.903L68.7387 232.904L68.7384 232.904L68.7382 232.904C67.8685 233.284 66.9988 233.664 66.1591 234.073C58.7691 237.613 51.1591 242.593 46.3791 249.463C42.3791 255.203 41.7891 261.853 43.0691 268.413C40.537 267.846 37.9292 267.698 35.3491 267.973C33.7491 268.087 32.1491 268.237 30.5491 268.423C28.2063 209.484 40.575 150.888 66.5391 97.9234ZM19.1791 292.393C20.0691 289.353 22.0691 286.433 25.0691 285.173C28.1484 283.91 31.9134 284.361 35.3207 284.769C36.2288 284.878 37.1115 284.984 37.9491 285.053C39.5529 285.193 41.1526 285.326 42.7488 285.459C45.4919 285.687 48.2245 285.914 50.9491 286.173C48.3986 282.493 46.3096 278.513 44.7291 274.323C35.2791 272.123 25.0491 274.213 15.8091 276.813C9.55907 278.573 6.53907 282.723 6.23907 289.173C5.95389 294.092 7.65426 298.919 10.9591 302.573C11.6758 303.484 12.5707 304.24 13.5891 304.793L17.9091 303.283C18.4063 302.71 18.3566 300.83 18.3287 299.774C18.3235 299.577 18.3191 299.409 18.3191 299.283C18.3445 296.962 18.633 294.65 19.1791 292.393ZM393.839 551.963C375.839 560.823 356.149 566.073 336.419 569.543C301.099 575.753 264.199 576.173 229.419 566.443C192.169 556.023 161.099 532.443 134.339 505.163C107.297 477.525 84.8981 445.698 68.0091 410.913C49.4391 372.703 38.5091 331.983 33.1691 289.913C34.4875 290.033 35.8275 290.222 37.1386 290.408C38.3535 290.579 39.5437 290.748 40.6691 290.853C41.8968 290.967 43.1253 291.085 44.3542 291.203L44.3567 291.204C47.4611 291.502 50.5676 291.801 53.6691 292.023C54.1331 292.052 54.5978 291.977 55.0291 291.803C56.6491 293.873 58.3191 295.883 60.0291 297.873C61.2843 299.363 62.5462 300.905 63.8238 302.466L63.8242 302.466C68.8063 308.553 74.0281 314.932 80.0291 319.683C84.0291 322.853 88.5591 323.323 93.0991 322.473C99.6891 348.913 111.919 374.393 126.409 397.343C141.34 421.022 159.566 442.453 180.539 460.993C224.429 499.753 279.649 525.093 338.479 527.853C371.209 529.383 403.629 524.593 435.209 516.283C427.219 532.763 409.679 544.193 393.839 551.963ZM437.029 498.883C436.799 498.369 436.733 497.797 436.839 497.243C436.916 496.795 436.994 496.345 437.071 495.896C437.336 494.362 437.602 492.825 437.849 491.293C415.959 485.733 394.479 477.123 374.099 467.573C336.138 449.759 301.051 426.374 269.999 398.193C235.971 367.314 208.746 330.182 181.683 293.273C180.982 292.316 180.28 291.36 179.579 290.403C174.696 292.212 169.595 293.369 164.409 293.843C156.709 294.433 148.559 292.633 142.789 287.233C138.185 282.941 135.648 277.374 133.105 271.794C131.981 269.327 130.855 266.857 129.549 264.493C127.899 261.503 126.159 260.903 122.839 261.903C122.229 262.094 121.7 262.226 121.245 262.339C119.385 262.801 118.76 262.957 118.929 265.583C119.145 269.015 119.585 272.46 120.023 275.894C120.234 277.544 120.444 279.191 120.629 280.833C120.744 281.872 120.875 282.928 121.008 283.997C121.944 291.559 122.959 299.752 119.069 306.533C115.029 313.563 106.989 317.403 99.8091 320.403C99.1091 320.703 98.3891 320.983 97.6791 321.243C107.119 350.153 119.159 377.573 136.509 402.703C167.729 448.003 211.689 484.643 262.779 505.403C317.879 527.793 378.669 525.403 435.379 510.403L437.029 498.883Z" fill="#231F20"/>
<path d="M153.68 272.373C163.37 281.503 179.52 282.693 187.98 271.373C197.72 258.313 192.36 241.783 184.61 229.263C180.76 223.033 175.61 216.453 167.93 215.103C165.849 214.757 163.721 214.811 161.66 215.263C153.152 216.123 145.898 221.801 143.02 229.853C138.39 243.243 143.38 262.713 153.68 272.373Z" fill="#231F20"/>
<path d="M81.7395 243.323C72.9895 242.963 65.2695 249.703 62.6595 257.753C59.5295 267.413 62.5395 278.013 67.0895 286.753C71.8295 295.803 80.2295 305.293 91.0895 306.423C98.3695 307.183 102.87 303.043 104.63 297.423C105.395 296.036 105.983 294.558 106.38 293.023C109.11 282.433 106.78 270.183 101.98 260.543C98.0095 252.663 91.3595 243.723 81.7395 243.323Z" fill="#231F20"/>
<path fill-rule="evenodd" clip-rule="evenodd" d="M173.918 301.513C176.278 310.413 179.358 322.723 174.918 331.413C170.748 339.573 161.108 347.033 152.318 349.303C133.838 354.013 116.108 340.803 114.488 322.013C114.411 321.09 114.797 320.189 115.518 319.607C116.24 319.026 117.203 318.841 118.088 319.113C122.698 317.377 127.411 315.904 132.126 314.431C136.207 313.156 140.29 311.881 144.308 310.433C153.095 307.233 161.762 303.697 170.308 299.823C171.772 299.3 173.383 300.054 173.918 301.513ZM170.818 326.653C172.508 320.573 171.008 312.813 169.398 306.413V306.403C168.165 306.963 166.923 307.514 165.68 308.066L165.679 308.066L165.678 308.067C165.058 308.342 164.438 308.617 163.818 308.893C166.484 314.677 168.821 320.606 170.818 326.653ZM162.278 309.573C164.217 316.627 166.554 323.565 169.278 330.353C168.082 332.326 166.626 334.129 164.948 335.713C164.459 332.916 163.187 330.119 161.96 327.421C161.433 326.261 160.913 325.119 160.468 324.003C159.005 320.054 157.274 316.208 155.288 312.493C156.262 312.082 157.242 311.677 158.222 311.273C159.576 310.713 160.932 310.153 162.278 309.573ZM143.621 316.849L143.608 316.853V316.823L143.621 316.849ZM152.794 343.039C150.309 334.218 147.713 325.001 143.621 316.849C147.047 315.67 150.453 314.402 153.818 313.073C154.928 317.104 156.315 321.053 157.968 324.893C158.371 325.933 158.749 327.029 159.132 328.142C160.223 331.311 161.362 334.62 163.278 337.173C160.185 339.798 156.664 341.871 152.868 343.303L152.794 343.039L152.794 343.039ZM120.308 322.853L120.312 322.853C121.673 333.06 129.086 341.426 139.058 344.003C137.454 341.665 136.345 338.877 135.278 336.193L135.278 336.193C134.949 335.364 134.623 334.546 134.288 333.753C132.448 329.602 130.859 325.345 129.528 321.003C126.46 321.743 123.381 322.373 120.312 322.853L120.308 322.823V322.853ZM138.502 336.271C139.829 338.95 141.173 341.663 141.788 344.523V344.493C144.522 344.845 147.296 344.723 149.988 344.133C148.754 340.041 147.356 336.004 145.96 331.973C144.312 327.215 142.668 322.466 141.298 317.643C138.078 318.693 134.838 319.653 131.588 320.483C132.656 322.806 133.635 325.165 134.614 327.523C135.35 329.296 136.086 331.068 136.858 332.823C137.364 333.972 137.931 335.119 138.502 336.271Z" fill="#231F20"/>
<path d="M80.7391 157.913C79.5391 165.043 79.7391 172.433 79.7391 179.643C79.5954 187.446 79.8825 195.252 80.5991 203.023C80.6804 203.244 80.8995 203.382 81.1335 203.361C81.3676 203.34 81.5584 203.165 81.5991 202.933C81.9091 195.443 81.7291 187.933 81.8091 180.413C81.8891 172.893 82.5691 165.413 81.9991 157.973C81.9408 157.681 81.6906 157.465 81.3925 157.451C81.0944 157.437 80.8249 157.627 80.7391 157.913Z" fill="#231F20"/>
<path d="M81.8689 141.513C81.0689 143.513 81.3889 146.103 81.5089 148.213C81.5426 148.476 81.7592 148.678 82.024 148.693C82.2887 148.707 82.5263 148.531 82.5889 148.273C82.9789 146.173 83.5889 143.683 83.0789 141.573C82.9865 141.327 82.7565 141.159 82.4936 141.146C82.2307 141.133 81.9853 141.277 81.8689 141.513Z" fill="#231F20"/>
<path d="M232.129 477.384C224.437 472.957 217.116 467.914 210.239 462.304C197.069 451.724 184.959 439.744 172.719 428.124C172.409 427.834 171.879 428.314 172.159 428.644C183.809 441.834 195.749 454.554 209.499 465.644C216.001 470.91 222.902 475.664 230.139 479.864C237.269 483.974 245.509 488.544 253.759 489.784C254.319 489.881 254.865 489.55 255.039 489.009C255.213 488.467 254.961 487.881 254.449 487.634C247.119 483.914 239.329 481.444 232.129 477.384Z" fill="#231F20"/>
<path d="M272.96 493.453C271.026 492.778 269.006 492.381 266.96 492.273C266.55 492.273 266.49 492.863 266.82 493.023C268.65 493.883 270.55 494.573 272.42 495.353C274.12 496.053 275.89 497.223 277.75 497.353C278.28 497.353 278.86 496.793 278.44 496.283C277.1 494.703 274.86 494.073 272.96 493.453Z" fill="#231F20"/>
</svg>
