<svg width="537" height="569" viewBox="0 0 537 569" fill="none" xmlns="http://www.w3.org/2000/svg">
<path d="M75.6543 387.277L181.834 267.137L314.634 117.517L344.254 152.757L402.464 204.327L429.024 220.157L346.804 321.297L240.084 433.607L191.064 486.717L125.704 441.777L75.6543 387.277Z" fill="#F7941E"/>
<path d="M167.693 455.917C156.418 446.217 140.832 443.253 126.783 448.137C123.393 449.327 120.583 446.277 120.313 443.217C119.003 428.517 118.073 412.757 106.913 401.657C102.044 396.847 95.7987 393.67 89.0434 392.567C84.3334 391.837 77.2034 392.137 72.5834 395.117L70.4234 397.547C70.1183 397.892 69.7433 398.168 69.3234 398.357C69.0476 398.671 68.7062 398.92 68.3234 399.087C65.3234 410.827 59.5934 422.397 55.3234 433.547C50.4834 445.797 45.7834 458.057 41.0034 470.297C32.4168 492.297 23.8634 514.347 15.3434 536.447L15.2734 536.627C19.7151 539.666 23.9602 542.982 27.9834 546.557C30.0434 548.287 32.6634 550.117 34.4034 552.367C41.5568 549.807 48.6934 547.214 55.8134 544.587C77.3234 536.587 98.6634 528.177 119.893 519.517C131.267 514.85 142.6 510.12 153.893 505.327C163.183 501.327 172.363 496.837 181.833 493.327C181.573 478.967 179.163 466.017 167.693 455.917Z" fill="#F2B879"/>
<path d="M11.6138 545.217C10.3112 548.143 9.56842 551.287 9.42383 554.487C9.42383 562.667 18.9638 557.867 23.5038 556.277C23.0038 555.827 22.5038 555.367 22.0238 554.937C18.4738 551.797 14.8738 548.657 11.6138 545.217Z" fill="#414042"/>
<path fill-rule="evenodd" clip-rule="evenodd" d="M372.093 107.347C381.073 116.294 390.22 125.084 399.533 133.717C401.786 135.799 404.061 137.942 406.364 140.111L406.364 140.111C421.938 154.783 438.805 170.672 459.033 177.127C459.965 177.408 460.809 177.925 461.483 178.627C471.99 166.827 482.743 155.244 493.743 143.877C496.538 141.001 499.393 138.177 502.248 135.353C505.818 131.822 509.387 128.29 512.843 124.657C518.763 118.447 524.843 111.207 526.203 102.437C528.845 85.1662 513.066 70.2466 501.321 59.1408C500.573 58.4339 499.842 57.7425 499.133 57.0669C485.476 44.0491 470.669 32.2945 454.893 21.9469C454.531 21.7086 454.167 21.4679 453.8 21.2256C446.47 16.3825 438.134 10.8745 429.163 10.6269C419.743 10.3669 413.293 17.1069 407.423 23.4669C388.796 43.7736 370.28 64.1936 351.873 84.7269C353.167 86.2179 354.386 87.7755 355.606 89.3348L355.606 89.3348C356.931 91.028 358.257 92.7231 359.683 94.3369C363.683 98.7969 367.853 103.117 372.093 107.347ZM504.273 117.347C509.746 110.05 507.648 103.585 505.158 95.9115C504.918 95.1718 504.674 94.4209 504.433 93.6569C504.335 93.4783 504.339 93.2608 504.445 93.0864C504.55 92.912 504.741 92.8072 504.945 92.8114C505.149 92.8156 505.335 92.9283 505.433 93.1069C509.353 97.5969 512.593 102.567 512.433 108.777C512.333 113.347 510.373 117.777 506.033 119.587C505.418 119.778 504.749 119.565 504.356 119.054C503.964 118.544 503.93 117.842 504.273 117.297V117.347ZM482.923 62.8769C476.653 57.0772 469.781 51.9648 462.423 47.6269C461.693 47.1969 460.793 48.2769 461.493 48.8669C467.805 53.8137 473.816 59.1332 479.493 64.7969C481.69 66.9743 483.751 69.3764 485.818 71.7856C489.039 75.5394 492.275 79.3107 496.063 82.2769C496.713 82.7669 498.133 82.2769 497.713 81.2769C494.823 74.1269 488.453 68.0569 482.923 62.8769Z" fill="#E27683"/>
<path d="M388.524 152.857C406.344 169.757 426.594 184.007 450.014 191.697C451.304 190.207 452.584 188.697 453.874 187.237C430.004 178.807 410.794 159.237 392.614 142.367C382.134 132.654 371.971 122.624 362.124 112.277C356.434 106.277 349.454 99.357 345.904 91.407L340.754 97.157C348.104 107.057 355.234 116.917 363.384 126.277C371.424 135.477 379.674 144.467 388.524 152.857Z" fill="#58595B"/>
<path d="M346.663 147.177C355.363 155.997 363.943 164.947 372.863 173.547C389.973 190.057 408.443 205.107 430.413 214.547C435.793 208.16 441.216 201.827 446.683 195.547C423.683 187.707 403.683 173.457 386.123 156.787C376.044 147.085 366.529 136.815 357.623 126.027C350.853 117.947 343.103 109.227 338.833 99.3169C332.253 106.65 325.683 113.984 319.123 121.317C329.423 128.427 337.973 138.387 346.663 147.177Z" fill="#939598"/>
<path fill-rule="evenodd" clip-rule="evenodd" d="M481.784 28.7369C496.884 40.4969 512.104 53.4969 524.024 68.4969C534.274 81.4269 540.564 97.0069 533.504 113.107C528.237 125.119 517.988 134.826 508.168 144.126C504.826 147.292 501.533 150.411 498.504 153.557C463.064 190.392 430.863 229.998 398.661 269.605L398.66 269.606L398.659 269.607L398.658 269.608L398.657 269.61L398.656 269.611L398.655 269.612L398.654 269.613L398.653 269.614C381.691 290.477 364.73 311.339 347.294 331.797L193.034 497.697C192.486 498.712 191.592 499.496 190.514 499.907C190.09 500.804 189.389 501.54 188.514 502.007C178.697 507.196 168.189 511.323 157.778 515.411C154.306 516.775 150.845 518.134 147.424 519.527C134.091 524.974 120.687 530.28 107.214 535.447C83.0405 544.7 58.7405 553.594 34.3138 562.127C32.7719 562.663 31.0358 563.387 29.1809 564.161C21.3162 567.442 11.3162 571.613 4.92384 566.127C-3.21616 559.187 0.823843 548.457 4.03384 540.127C13.6472 515.187 23.3138 490.277 33.0338 465.397C36.4041 456.742 39.8398 448.111 43.2738 439.484L43.2747 439.481C44.8637 435.49 46.4523 431.499 48.0338 427.507C49.2431 424.465 50.3963 421.328 51.5596 418.164C54.9276 409.003 58.3805 399.612 63.5238 391.607C64.0964 390.607 65.1834 390.015 66.3338 390.077C67.7143 388.556 69.3571 387.296 71.1838 386.357C76.5572 380.277 81.9405 374.207 87.3338 368.147C110.391 342.215 133.404 316.244 156.416 290.274L156.43 290.258L156.432 290.256C191.779 250.365 227.126 210.474 262.634 170.727C291.754 138.06 320.894 105.394 350.054 72.7269L393.784 23.7269C394.148 23.3189 394.513 22.9097 394.878 22.4998L394.881 22.4967C405.642 10.4185 416.902 -2.21897 434.784 1.13687C450.385 4.06213 465.106 15.6362 477.769 25.5923C479.132 26.6635 480.471 27.7159 481.784 28.7369ZM315.184 125.737C290.01 154.07 264.757 182.34 239.424 210.547C187.691 267.994 135.861 325.357 83.9338 382.637C91.3428 382.14 98.7402 383.76 105.264 387.307C116.218 374.134 127.654 361.338 139.085 348.548L139.087 348.546C143.778 343.297 148.468 338.049 153.124 332.777C154.451 331.271 155.776 329.765 157.102 328.258L157.103 328.257C170.016 313.579 182.938 298.89 197.004 285.287C200.755 281.66 204.535 278.074 208.312 274.491L208.316 274.487C219.479 263.897 230.616 253.333 240.904 241.797C252.541 228.721 264.022 215.502 275.503 202.283L275.504 202.281L275.508 202.277C292.999 182.138 310.489 161.999 328.534 142.367C323.594 137.235 319.126 131.669 315.184 125.737ZM330.894 144.897C332.127 146.198 333.364 147.489 334.595 148.773L334.596 148.774C336.629 150.895 338.644 152.998 340.594 155.097C347.754 162.827 354.934 170.547 362.304 178.097C325.752 216.859 289.99 256.407 254.226 295.957L254.225 295.959C228.171 324.772 202.116 353.585 175.754 382.097C166.734 391.857 157.677 401.58 148.584 411.267C146.444 413.548 144.246 415.816 142.039 418.093L142.039 418.094C138.141 422.117 134.214 426.169 130.524 430.377C128.934 414.167 121.454 397.587 107.934 388.867C120.905 375.179 133.338 360.984 145.772 346.788C161.426 328.917 177.079 311.046 193.804 294.187C199.785 288.164 205.977 282.368 212.168 276.572L212.169 276.572C221.058 268.25 229.945 259.93 238.204 250.947C248.58 239.675 258.633 228.1 268.684 216.527C272.999 211.558 277.314 206.59 281.654 201.647C285.329 197.449 289.011 193.259 292.694 189.069L292.697 189.065L292.7 189.062L292.703 189.058L292.706 189.055L292.709 189.051L292.712 189.048C305.558 174.432 318.399 159.821 330.884 144.897H330.894ZM21.6031 556.979C22.2833 556.716 22.9158 556.472 23.4738 556.277L23.5138 556.257C23.0338 555.807 22.5238 555.347 22.0338 554.917C21.5723 554.507 21.1101 554.099 20.6481 553.69L20.6476 553.69C17.5459 550.947 14.4511 548.211 11.6138 545.217C10.3009 548.141 9.54791 551.285 9.39384 554.487C9.46401 561.661 16.7498 558.851 21.6031 556.979ZM153.884 505.277C142.59 510.11 131.257 514.84 119.884 519.467C98.6538 528.127 77.3138 536.577 55.8038 544.537C48.6905 547.197 41.5638 549.807 34.4238 552.367C33.0951 550.649 31.2533 549.175 29.5395 547.805L29.5385 547.804C29.0083 547.38 28.4905 546.966 28.0038 546.557C23.9806 542.982 19.7355 539.666 15.2938 536.627L15.3638 536.447C23.8772 514.387 32.4305 492.337 41.0238 470.297C44.2106 462.137 47.3618 453.968 50.513 445.798C52.0885 441.714 53.6639 437.63 55.2438 433.547C56.5433 430.193 57.9657 426.801 59.4013 423.378L59.4018 423.377L59.402 423.376C62.7388 415.42 66.1464 407.295 68.2438 399.087C68.6266 398.92 68.968 398.671 69.2438 398.357C69.6638 398.168 70.0387 397.892 70.3438 397.547L72.5438 395.117C77.1638 392.117 84.2938 391.837 89.0038 392.567C95.7591 393.67 102.004 396.847 106.874 401.657C117.559 412.284 118.866 427.184 120.108 441.334C120.163 441.963 120.218 442.591 120.274 443.217C120.544 446.277 123.354 449.327 126.744 448.137C140.792 443.252 156.379 446.217 167.654 455.917C179.124 466.017 181.534 478.967 181.794 493.317C175.641 495.585 169.598 498.312 163.564 501.036C160.34 502.491 157.119 503.944 153.884 505.327V505.277ZM130.844 436.727C146.204 434.217 162.044 437.727 174.204 447.937V447.987C178.577 451.713 182.302 456.14 185.224 461.087C190.296 455.527 195.389 449.988 200.481 444.45L200.485 444.444L200.496 444.433L200.497 444.432L200.498 444.431L200.499 444.429L200.5 444.428C210.973 433.037 221.444 421.648 231.734 410.087C289.694 344.747 347.694 279.447 405.734 214.187C391.864 205.647 379.374 194.977 367.684 183.407C367.232 182.975 366.793 182.529 366.352 182.082L366.352 182.082L366.352 182.081L366.35 182.08L366.344 182.074C366.241 181.969 366.137 181.863 366.033 181.758L365.921 181.645C365.842 181.565 365.763 181.486 365.684 181.407C354.673 193.805 343.416 206.022 332.163 218.234L332.162 218.235L332.16 218.237L332.159 218.238L332.159 218.239L332.158 218.24L332.157 218.241C326.457 224.426 320.759 230.611 315.094 236.817C283.754 271.244 252.337 305.607 220.844 339.907C205.194 356.957 189.524 373.977 173.664 390.827C165.744 399.26 157.784 407.657 149.784 416.017C148.045 417.827 146.309 419.678 144.565 421.539L144.564 421.54C140.129 426.272 135.631 431.071 130.844 435.427V436.727ZM347.804 314.187C320.624 346.187 292.504 377.507 261.804 406.187C247.853 419.221 235.625 432.576 222.857 446.521L222.856 446.522C213.212 457.055 203.26 467.925 192.024 479.247C191.075 473.849 189.279 468.635 186.704 463.797C209.737 442.032 230.781 417.93 251.719 393.951L251.72 393.949L251.722 393.948L251.723 393.946C258.682 385.976 265.629 378.02 272.634 370.167C302.407 336.767 332.167 303.36 361.914 269.947C377.774 252.154 393.611 234.337 409.424 216.497C413.821 219.046 418.355 221.353 423.004 223.407C412.733 235.722 402.557 248.125 392.38 260.527L392.379 260.528L392.376 260.533L392.374 260.534C377.615 278.522 362.855 296.511 347.804 314.237V314.187ZM372.874 173.587C389.984 190.057 408.424 205.107 430.424 214.587C435.804 208.207 441.224 201.864 446.684 195.557C423.704 187.717 403.674 173.467 386.124 156.797C376.045 147.092 366.529 136.819 357.624 126.027C357.066 125.363 356.502 124.695 355.934 124.023C349.587 116.506 342.753 108.413 338.834 99.3169C332.254 106.65 325.684 113.984 319.124 121.317C327.18 126.878 334.165 134.188 340.989 141.329C342.89 143.319 344.778 145.295 346.674 147.217C348.987 149.562 351.292 151.917 353.597 154.271L353.597 154.271L353.598 154.272C359.961 160.772 366.326 167.274 372.874 173.587ZM450.024 191.697L450.016 191.694C450.176 191.51 450.336 191.325 450.495 191.14C450.668 190.94 450.841 190.74 451.014 190.54C451.968 189.436 452.92 188.334 453.884 187.237C432.439 179.663 414.755 163.09 398.2 147.575C396.328 145.821 394.471 144.08 392.624 142.367C382.124 132.674 371.961 122.644 362.134 112.277C361.589 111.701 361.032 111.117 360.467 110.526C355.138 104.942 349.124 98.6404 345.914 91.4069L340.764 97.1569C341.649 98.3495 342.532 99.5416 343.413 100.732C349.847 109.425 356.226 118.044 363.394 126.277C371.404 135.477 379.684 144.467 388.534 152.857C406.352 169.755 426.599 184.004 450.016 191.694L450.014 191.697H450.024ZM512.854 124.657C518.774 118.437 524.874 111.207 526.214 102.437H526.204C528.85 85.1384 513.016 70.1987 501.24 59.0873C500.511 58.399 499.797 57.7254 499.104 57.0669C485.447 44.0491 470.64 32.2944 454.864 21.9469C454.531 21.7286 454.196 21.5082 453.859 21.2863C446.5 16.4458 438.045 10.885 429.134 10.6269C419.814 10.3569 413.264 17.1069 407.424 23.4669C388.844 43.8069 370.341 64.2302 351.914 84.7369C353.208 86.2279 354.427 87.7856 355.647 89.3449C356.971 91.038 358.297 92.7331 359.724 94.3469C363.694 98.8269 367.864 103.117 372.104 107.347C381.064 116.32 390.211 125.11 399.544 133.717C401.791 135.792 404.059 137.927 406.355 140.088C421.94 154.758 438.805 170.633 459.044 177.127C459.976 177.408 460.819 177.925 461.494 178.627C471.967 166.794 482.721 155.21 493.754 143.877C496.549 141.001 499.404 138.177 502.259 135.353C505.828 131.822 509.398 128.29 512.854 124.657Z" fill="#231F20"/>
<path d="M479.483 64.7969C485.103 70.3669 489.833 77.4069 496.053 82.2769C496.713 82.8069 498.123 82.3569 497.703 81.2769C494.813 74.1269 488.443 68.0569 482.913 62.8769C476.646 57.0777 469.777 51.9653 462.423 47.6269C461.703 47.1969 460.803 48.2769 461.503 48.8269C467.809 53.7872 473.813 59.1201 479.483 64.7969Z" fill="#231F20"/>
<path d="M505.995 119.537C510.335 117.727 512.295 113.297 512.395 108.727C512.545 102.517 509.305 97.547 505.395 93.057C505.243 92.7808 504.896 92.6801 504.62 92.832C504.344 92.9839 504.243 93.3308 504.395 93.607C507.135 102.337 510.265 109.247 504.235 117.297C503.927 117.84 503.978 118.516 504.364 119.007C504.75 119.498 505.394 119.707 505.995 119.537Z" fill="#231F20"/>
</svg>
