<svg width="469" height="574" viewBox="0 0 469 574" fill="none" xmlns="http://www.w3.org/2000/svg">
<path d="M81.4207 384.447C74.794 382.894 68.356 380.624 62.2207 377.677C67.5007 387.567 71.2807 398.287 76.7507 408.117C81.8807 417.367 87.6907 426.437 95.6807 433.497C97.8628 435.431 100.227 437.149 102.741 438.627C103.571 439.107 104.991 440.357 105.951 439.987C107.151 439.537 105.751 437.907 105.281 436.827C102.801 431.187 100.021 425.657 97.3907 420.077C92.0707 408.767 86.2507 397.457 81.4807 385.917C81.2747 385.452 81.2532 384.927 81.4207 384.447Z" fill="#58595B"/>
<path d="M327.661 217.607C327.971 209.217 329.041 201.307 333.351 194.457C330.891 185.087 329.601 175.627 325.901 166.457C324.568 163.123 323.055 159.867 321.361 156.687C318.818 157.527 316.379 158.654 314.091 160.047C310.84 161.868 307.841 164.107 305.171 166.707C300.072 171.683 296.07 177.672 293.421 184.287C287.311 199.287 288.701 215.817 294.541 230.697C297.645 238.372 301.758 245.599 306.771 252.187C311.481 258.497 317.531 264.137 320.131 271.767C324.921 285.827 314.651 298.667 314.911 312.407C323.161 309.167 325.351 296.507 327.311 289.007C330.021 278.607 332.231 268.097 334.011 257.487C334.007 257.447 334.007 257.406 334.011 257.367C333.211 255.84 332.485 254.27 331.831 252.657C327.361 241.567 327.221 229.397 327.661 217.607Z" fill="#58595B"/>
<path d="M48.6904 304.617C47.8391 304.432 46.9508 304.53 46.1604 304.897C45.6304 306.487 45.6304 308.147 46.8704 309.027C49.4804 310.897 50.8104 305.317 48.6904 304.617Z" fill="white"/>
<path d="M142.57 320.737C144.84 321.147 145.74 318.627 145.29 316.737C144.74 314.507 142.91 314.477 141.1 314.737C139.79 317.257 139.42 320.167 142.57 320.737Z" fill="white"/>
<path d="M453.5 370.056C462.39 347.866 461.14 324.626 450.45 303.276C445.171 292.833 438.544 283.127 430.74 274.406C424.18 267.036 417.55 259.816 414.74 250.246C414.413 249.738 414.252 249.14 414.28 248.536C414.28 248.536 414.28 248.536 414.28 248.486C414.139 247.979 414.178 247.438 414.39 246.956C415.39 233.336 418.74 219.956 420.28 206.406C421.978 192.377 422.393 178.221 421.52 164.116C419.52 135.816 409.57 109.666 394.31 85.9064C370.31 48.5164 334.51 19.7364 290.14 11.6264C265.23 7.07643 239.44 7.93643 214.31 10.0664C190.5 12.0664 166.7 16.4964 145.07 27.0664C108.13 45.0664 79.4304 76.6364 61.0704 113.006C40.4104 153.926 33.7004 200.356 37.8104 245.726C40.2771 237.626 43.1238 229.656 46.3504 221.816C48.6404 216.286 51.6504 204.596 59.3504 204.416C67.2204 204.236 68.7904 218.096 70.5304 223.326C73.7976 232.785 76.335 242.48 78.1204 252.326C80.1204 252.246 82.1204 252.266 83.8104 252.266C93.3572 252.266 102.864 253.506 112.09 255.956C120.263 258.133 128.176 261.187 135.69 265.066C122.51 237.456 119.69 205.566 126.18 175.606C137.75 122.146 182.91 69.6664 240 65.3264C255.71 64.1364 271.6 67.1264 286.27 72.6564C300.27 77.9264 312.41 85.2264 321.72 97.1164C331.03 109.006 337.77 122.566 343.34 136.356C348.57 149.286 353.08 163.286 354.64 177.266C356.524 176.345 358.453 175.52 360.42 174.796C363.16 173.846 364.11 177.606 362.22 179.056C354.98 184.626 346.59 188.716 341.12 196.186C340.908 197.077 340.392 197.866 339.66 198.416C334.25 207.556 335.13 220.416 335.58 230.646C336.04 241.146 338.65 250.906 344.58 259.646C350.01 267.646 357.46 273.176 364.01 280.086C369.74 286.136 367.01 295.236 364.46 302.206C361.6 310.026 357.35 317.206 353.62 324.606C351.508 328.65 349.768 332.878 348.42 337.236C347.42 340.596 345.72 346.236 347.1 349.716C349.99 356.926 358.24 345.946 360.31 343.456C363.49 339.623 366.557 335.703 369.51 331.696C379.76 317.796 387.92 303.016 395.79 287.796C395.803 287.491 395.853 287.189 395.94 286.896C398.441 278.55 402.321 270.681 407.42 263.616C409.09 261.246 412.58 260.956 414.19 263.616C427.57 285.816 434.19 313.616 430.44 339.366C427.05 362.826 413.84 382.696 399.18 400.706C385.79 417.156 370.91 432.576 359.85 450.796C347.824 470.734 341.325 493.515 341.02 516.796C340.716 528.583 342.172 540.349 345.34 551.706C346.8 556.706 349.2 562.606 354.65 564.176C361.25 566.076 363.36 559.926 362.36 554.556C361.27 548.736 358.36 543.396 357.3 537.556C356.255 531.909 355.996 526.145 356.53 520.426C357.686 509.352 360.988 498.609 366.25 488.796C377.68 466.956 396.25 449.676 412.09 431.136C427.93 412.596 444.42 392.846 453.5 370.056Z" fill="#58595B"/>
<path fill-rule="evenodd" clip-rule="evenodd" d="M87.9119 258.657C95.9959 259.295 103.992 260.769 111.772 263.057C119.565 265.316 127.082 268.438 134.182 272.367C137.354 274.007 140.335 275.993 143.072 278.287C144.267 279.367 145.242 280.622 146.213 281.872C147.192 283.132 148.167 284.387 149.362 285.457C150.142 286.188 151.278 286.395 152.265 285.986C153.253 285.576 153.909 284.625 153.942 283.557C153.982 280.337 152.412 277.477 150.152 275.007C155.287 272.262 160.012 268.789 164.737 265.317C169.462 261.844 174.187 258.372 179.322 255.627C179.403 255.583 179.492 255.535 179.589 255.482C181.465 254.466 186.235 251.882 187.652 254.107C188.595 255.567 188.507 259.14 188.441 261.821V261.821V261.822C188.419 262.722 188.399 263.521 188.422 264.107C188.639 270.66 188.305 277.22 187.422 283.717C186.589 289.918 185.282 296.046 183.512 302.047C183.302 302.756 183.066 303.464 182.828 304.175L182.828 304.175C182.149 306.208 181.463 308.26 181.382 310.417C181.279 313.137 182.251 315.499 183.26 317.952L183.32 318.096C183.371 318.219 183.421 318.343 183.472 318.467C187.182 327.477 190.402 336.717 191.182 346.327C190.263 345.278 189.292 344.277 188.272 343.327C186.752 341.887 183.622 342.307 183.212 344.657C182.446 349.191 181.36 353.665 179.962 358.047C179.813 358.508 179.66 359.016 179.498 359.554L179.498 359.557L179.498 359.557C178.816 361.828 177.976 364.624 176.562 366.637C176.402 363.663 176.099 360.693 175.652 357.727C175.272 355.227 171.542 355.047 170.422 357.047C163.469 369.308 152.338 378.66 139.062 383.397L139.462 382.687C139.959 381.801 139.953 380.719 139.447 379.839C138.94 378.959 138.007 378.411 136.992 378.397C131.299 378.551 125.663 379.562 120.272 381.397C119.408 381.701 118.489 382.069 117.532 382.451C113.239 384.169 108.202 386.185 104.162 384.067C104.418 383.271 104.289 382.402 103.813 381.715C103.336 381.029 102.567 380.604 101.732 380.567C100.205 380.391 98.6828 380.231 97.1645 380.071C90.7067 379.389 84.3214 378.715 77.9819 376.967C70.2287 374.847 62.7955 371.696 55.8819 367.597C52.9019 365.837 50.1619 369.777 52.3119 372.217C53.4119 373.467 48.2419 372.647 47.7219 372.357C46.7701 371.742 45.8999 371.01 45.1319 370.177C43.1826 368.199 41.55 365.932 40.2919 363.457C38.0049 358.762 36.3505 353.786 35.3719 348.657C35.0267 347.535 34.0588 346.717 32.8949 346.564C31.731 346.412 30.5849 346.952 29.9619 347.947C28.4121 350.817 27.3158 353.911 26.7119 357.117C9.91188 343.717 9.47188 319.517 16.7119 300.367C17.6319 297.957 14.3919 296.737 12.7919 298.087C10.6819 299.847 8.55188 301.587 6.42188 303.317C9.18567 291.78 15.7123 281.492 24.9719 274.077C26.9919 272.507 24.7719 269.577 22.6119 270.077L15.3919 271.777C17.2919 269.957 19.1919 268.147 21.1919 266.397C21.8206 265.841 22.5086 265.195 23.2444 264.503C27.2131 260.774 32.5747 255.736 37.5519 256.647C39.0644 257.032 40.6095 256.146 41.0419 254.647C43.1819 246.787 45.6319 239.027 48.4719 231.397C50.0119 227.257 51.6419 223.117 53.4019 219.117C53.5951 218.669 53.8079 218.098 54.0453 217.461L54.0454 217.46L54.0455 217.46C55.0982 214.634 56.634 210.511 59.0819 210.177C61.8156 209.799 63.1004 214.894 63.9542 218.28C64.1404 219.018 64.3061 219.675 64.4619 220.177C65.3757 223.15 66.1633 226.161 66.9505 229.17L66.9506 229.17C67.2488 230.31 67.5469 231.449 67.8519 232.587C68.4308 234.763 69.0003 236.946 69.5702 239.131L69.5707 239.132L69.571 239.134L69.5711 239.134L69.5713 239.135C70.7632 243.703 71.9568 248.278 73.2419 252.817C69.1219 253.527 65.3619 255.157 63.6219 258.947C63.19 259.717 63.3884 260.688 64.0881 261.227C64.7877 261.766 65.7769 261.711 66.4119 261.097C68.8734 259.247 71.8445 258.199 74.9219 258.097C75.3136 258.632 75.9455 258.939 76.6087 258.915C77.2719 258.891 77.88 258.539 78.2319 257.977C80.6785 257.998 83.1303 258.226 85.373 258.434L85.3732 258.434L85.3733 258.434L85.3734 258.434C86.2563 258.516 87.1068 258.594 87.9119 258.657ZM40.1219 312.567C43.9719 318.687 53.6619 318.417 56.4219 311.417C59.1419 304.507 54.6219 295.577 46.3719 297.517C45.187 297.851 44.093 298.45 43.1719 299.267C41.4384 300.124 40.0742 301.581 39.3319 303.367C38.056 306.375 38.3518 309.82 40.1219 312.567ZM107.802 365.167C103.732 365.987 100.032 363.997 97.6219 360.787C94.8919 357.147 93.3919 352.397 92.3419 347.837C91.3419 351.767 89.9919 355.687 87.5819 358.677C80.3019 367.677 69.0619 358.217 72.1019 348.567C72.2812 347.96 72.8011 347.516 73.4283 347.434C74.0555 347.352 74.6723 347.647 75.0019 348.187C75.3217 348.784 75.6257 349.699 75.9641 350.717C77.1495 354.282 78.7567 359.117 82.9419 356.037C85.3923 354.239 86.4408 349.358 87.1724 345.951C87.3037 345.34 87.4247 344.776 87.5419 344.287C88.4419 340.497 89.0919 336.667 89.6519 332.817C89.7832 331.882 89.8712 330.927 89.9596 329.967L89.9596 329.967L89.9597 329.967C90.0462 329.026 90.1332 328.082 90.2619 327.147C88.1464 326.896 86.1045 326.216 84.2619 325.147C80.5619 322.917 83.2119 318.037 87.0119 318.627C89.9697 319.082 93.1067 318.642 96.2017 318.208C98.0665 317.946 99.916 317.687 101.702 317.627C106.752 317.417 107.982 325.827 102.912 326.527C102.819 326.539 102.726 326.552 102.633 326.565C102.522 326.581 102.411 326.596 102.3 326.612L102.3 326.612C100.25 326.899 98.0936 327.2 95.9119 327.337C95.9433 328.938 95.8463 330.54 95.6219 332.127C95.6378 332.433 95.6525 332.739 95.6672 333.045C95.7265 334.278 95.7857 335.509 95.9219 336.727C96.3426 340.512 97.0819 344.255 98.1319 347.917C99.5919 353.097 103.362 364.207 109.792 357.307C110.792 356.247 113.002 356.677 113.252 358.227C113.862 361.737 111.222 364.467 107.782 365.167H107.802ZM151.602 312.867C149.659 309.268 145.628 307.321 141.602 308.037H141.582C139.653 307.964 137.775 308.662 136.362 309.977C134.315 311.922 133.128 314.603 133.062 317.427C132.902 323.867 138.962 329.347 145.372 327.867C151.932 326.397 154.542 318.567 151.602 312.867Z" fill="#939598"/>
<path d="M170.731 372.107C170.811 370.377 170.831 368.677 170.791 366.977C167.045 372.004 162.608 376.478 157.611 380.267C161.541 384.417 164.851 389.347 168.931 393.357C174.019 398.369 179.682 402.763 185.801 406.447C191.902 410.145 198.426 413.096 205.231 415.237C209.195 416.451 213.221 417.453 217.291 418.237C220.651 418.897 224.481 419.997 227.921 419.677C229.521 419.537 231.221 419.757 230.671 417.677C230.251 416.107 227.051 414.267 225.811 413.497C222.826 411.803 219.709 410.351 216.491 409.157C210.363 406.696 204.455 403.719 198.831 400.257C188.901 394.017 179.231 385.557 173.671 374.997C172.893 375.021 172.138 374.726 171.583 374.18C171.028 373.635 170.72 372.885 170.731 372.107Z" fill="#58595B"/>
<path d="M335.522 166.047C338.022 172.504 339.832 179.208 340.922 186.047C342.802 184.437 344.779 182.944 346.842 181.577C343.082 165.707 339.782 150.167 333.232 135.107C327.232 121.327 319.842 106.897 309.112 96.1666C298.912 85.9866 284.582 80.3766 270.842 76.7966C257.102 73.2166 242.632 72.1466 228.582 74.9666C202.402 80.2266 179.262 96.3966 162.312 116.657C151.468 129.665 143.038 144.509 137.422 160.487C142.505 150.869 148.796 141.94 156.142 133.917C170.685 118.151 189.155 106.532 209.662 100.247C230.662 93.7966 254.662 91.9766 275.182 100.727C294.182 108.817 310.252 122.907 321.952 139.727C327.588 147.88 332.149 156.726 335.522 166.047Z" fill="#939598"/>
<path d="M109.801 357.257C103.371 364.157 99.6005 353.047 98.1405 347.867C97.0906 344.205 96.3513 340.462 95.9305 336.677C95.7605 335.157 95.7105 333.617 95.6305 332.077C95.855 330.49 95.9519 328.888 95.9205 327.287C98.2805 327.137 100.651 326.787 102.921 326.477C107.991 325.777 106.761 317.367 101.711 317.577C96.9605 317.777 91.7605 319.347 87.0205 318.577C83.2205 317.987 80.5705 322.867 84.2705 325.097C86.1131 326.166 88.155 326.846 90.2705 327.097C90.0105 328.987 89.9205 330.917 89.6605 332.767C89.1005 336.617 88.4505 340.447 87.5505 344.237C86.7805 347.457 85.8405 353.867 82.9505 355.987C77.5705 359.987 76.4505 350.827 75.0105 348.137C74.681 347.597 74.0642 347.302 73.437 347.384C72.8098 347.466 72.2899 347.91 72.1105 348.517C69.1105 358.167 80.3105 367.647 87.5905 358.627C90.0005 355.627 91.3605 351.717 92.3505 347.787C93.3505 352.347 94.9005 357.097 97.6305 360.737C100.041 363.947 103.741 365.937 107.811 365.117C111.251 364.417 113.891 361.687 113.291 358.117C113.011 356.627 110.801 356.197 109.801 357.257Z" fill="#231F20"/>
<path fill-rule="evenodd" clip-rule="evenodd" d="M406.631 450.727C423.901 431.397 441.481 411.267 454.221 388.567C467.421 365.067 472.811 338.797 463.801 312.797C459.318 300.317 452.722 288.701 444.301 278.457C440.08 273.31 435.601 268.381 430.881 263.687C427.371 260.117 423.881 256.537 421.231 252.347C421.231 252.326 421.241 252.308 421.254 252.29C421.26 252.281 421.266 252.273 421.273 252.265C421.288 252.246 421.303 252.227 421.311 252.207C421.855 250.937 421.679 249.756 421.488 248.478C421.448 248.206 421.406 247.929 421.371 247.647C421.371 247.387 421.331 247.127 421.251 246.867C425.551 235.057 427.191 222.347 428.781 209.867C430.547 196.718 431.216 183.446 430.781 170.187C429.824 144.084 422.809 118.562 410.291 95.6366C388.821 56.1966 354.651 21.4666 310.941 7.84657C286.031 0.0765657 259.561 -0.733434 233.691 0.676566C207.691 2.08657 181.001 4.86657 156.391 13.9966C116.721 28.7166 84.6612 59.2066 63.2712 95.2566C35.8312 141.517 24.8212 198.257 33.1512 251.347C29.1622 252.344 25.7699 255.091 22.3593 257.854L22.3312 257.877C16.0744 262.808 10.3198 268.344 5.1512 274.407C3.5712 276.307 5.0012 279.497 7.6812 278.757C10.1012 278.077 12.5512 277.457 15.0112 276.857C6.88531 285.848 1.79793 297.17 0.471203 309.217C0.211203 311.507 3.1612 312.097 4.5712 310.927L9.5712 306.777C3.5712 328.057 7.1712 352.577 27.5712 364.987C28.4909 365.499 29.6121 365.492 30.5253 364.968C31.4384 364.444 32.01 363.479 32.0312 362.427C32.043 361.51 32.1064 360.596 32.2212 359.687C34.6512 366.747 38.3812 373.467 44.6912 377.437C48.1412 379.617 53.0012 380.557 56.1612 377.337C56.744 376.757 57.2212 376.08 57.5712 375.337C57.4873 375.601 57.4634 375.881 57.5012 376.157C59.5012 390.327 67.4412 404.717 74.6212 416.877C81.0012 427.707 88.9712 438.227 100.111 444.497C103.911 446.637 109.911 448.757 112.361 443.497C114.234 439.46 111.408 434.432 109.181 430.471C108.649 429.526 108.152 428.642 107.761 427.847C106.724 425.742 105.693 423.633 104.662 421.523L104.661 421.52C102.175 416.432 99.688 411.342 97.1012 406.317C95.5045 403.222 93.9989 400.065 92.4932 396.908L92.4928 396.907C90.651 393.045 88.8094 389.183 86.8012 385.437C90.4697 385.998 94.1818 386.222 97.8912 386.107C98.0527 386.55 98.3287 386.944 98.6912 387.247C103.231 391.177 108.941 391.557 114.561 389.857C116.594 389.242 118.529 388.58 120.427 387.93C123.776 386.784 127.012 385.677 130.471 384.937C129.885 385.47 129.267 385.968 128.621 386.427C127.333 387.19 126.805 388.787 127.385 390.168C127.965 391.549 129.474 392.291 130.921 391.907C138.768 390.585 146.269 387.701 152.981 383.427C155.111 387.527 158.421 391.247 161.411 394.537C165.606 399.092 170.234 403.229 175.231 406.887C185.746 414.637 197.714 420.191 210.421 423.217C210.912 423.336 211.495 423.486 212.153 423.655C219.774 425.619 237.412 430.163 237.881 418.887C238.131 412.947 231.071 408.737 226.471 406.597C224.035 405.465 221.555 404.452 219.076 403.439L219.075 403.438C215.66 402.044 212.247 400.65 208.951 398.947C196.611 392.577 186.731 384.117 179.341 372.627C181.157 370.771 182.561 368.552 183.461 366.117C185.349 361.526 186.851 356.786 187.951 351.947C189.319 353.749 190.517 355.674 191.531 357.697C193.061 360.697 196.941 358.847 197.271 356.137C198.068 349.028 197.563 341.834 195.781 334.907C194.863 331.253 193.741 327.654 192.421 324.127C191.932 322.793 191.323 321.445 190.709 320.087L190.709 320.087C189.753 317.972 188.787 315.834 188.251 313.697C187.461 310.458 188.475 307.556 189.522 304.558L189.522 304.557L189.522 304.557L189.522 304.556L189.523 304.555L189.523 304.555C189.801 303.758 190.082 302.955 190.331 302.137C191.518 298.232 192.493 294.266 193.251 290.257C194.561 283.366 195.251 276.371 195.311 269.357C195.311 268.361 195.337 267.278 195.364 266.142C195.489 260.869 195.642 254.451 193.371 250.247C190.611 245.137 184.141 246.537 179.731 248.317C174.519 250.417 169.854 253.881 165.297 257.264C164.171 258.101 163.051 258.932 161.931 259.737C160.752 260.583 159.555 261.422 158.354 262.264L158.353 262.265C154.203 265.173 150 268.119 146.301 271.547C145.001 270.547 143.651 269.667 142.301 268.847C132.581 245.157 127.701 219.017 130.091 193.477C130.847 191.316 131.569 189.146 132.289 186.978L132.289 186.978C134.38 180.688 136.466 174.413 139.381 168.427C143.631 159.577 149.009 151.315 155.381 143.847C168.512 128.637 185.355 117.083 204.271 110.307C223.141 103.507 245.901 100.087 265.331 106.427C283.411 112.317 299.451 125.487 310.931 140.427C313.612 143.944 316.083 147.617 318.331 151.427C317.034 151.843 315.772 152.368 314.64 152.838L314.451 152.917C308.858 155.311 303.769 158.741 299.451 163.027C290.805 171.693 285.097 182.854 283.131 194.937C280.881 208.937 283.511 223.097 289.061 235.997C291.984 242.79 295.639 249.245 299.961 255.247C301.301 257.114 302.799 258.925 304.305 260.745L304.306 260.746C307.452 264.549 310.632 268.393 312.471 272.877C315.26 279.714 313.031 286.883 310.932 293.635C310.697 294.387 310.465 295.135 310.241 295.877C308.051 303.017 306.391 310.357 308.151 317.767C308.651 319.847 310.721 320.547 312.601 320.297C323.721 318.767 329.011 308.397 331.901 298.697C335.027 288.017 337.58 277.178 339.551 266.227C342.721 270.408 346.233 274.318 350.051 277.917C350.922 278.753 351.932 279.582 352.97 280.432C356.399 283.246 360.12 286.299 360.051 290.637C359.941 295.527 357.511 301.027 355.541 305.397C354.072 308.661 352.446 311.854 350.82 315.046C348.163 320.262 345.508 325.475 343.541 330.997C341.181 337.587 337.721 350.557 344.031 355.997C352.031 362.877 360.551 352.867 365.231 347.257C379.431 330.257 392.631 311.147 401.841 290.757C402.417 290.285 402.829 289.645 403.021 288.927C403.381 287.687 403.781 286.457 404.211 285.247C404.339 284.929 404.47 284.613 404.6 284.297L404.601 284.297L404.601 284.296L404.601 284.296L404.601 284.295C404.808 283.795 405.015 283.295 405.211 282.787C405.294 282.588 405.351 282.38 405.381 282.167C406.633 279.025 408.184 276.012 410.011 273.167C419.751 294.807 426.221 318.047 421.411 341.947C416.991 363.947 403.691 382.377 389.681 399.317C386.787 402.816 383.837 406.285 380.884 409.758C369.538 423.1 358.139 436.504 349.681 451.897C338.315 472.782 332.464 496.22 332.681 519.997C332.791 531.767 334.191 543.997 337.681 555.287C340.591 564.727 347.551 574.097 358.551 573.127C369.891 572.127 372.791 560.007 370.381 550.667C369.8 548.413 369.052 546.23 368.305 544.053C367.137 540.646 365.974 537.252 365.461 533.617C364.597 526.947 364.912 520.177 366.391 513.617C371.614 489.806 388.059 471.455 403.855 453.829C404.783 452.792 405.71 451.759 406.631 450.727ZM100.06 425.595L100.06 425.595C101.855 429.322 103.65 433.05 105.311 436.827C105.425 437.088 105.593 437.382 105.766 437.683C106.307 438.627 106.891 439.646 105.981 439.987C105.206 440.274 104.201 439.586 103.403 439.039C103.171 438.881 102.957 438.734 102.771 438.627C100.258 437.149 97.8933 435.431 95.7112 433.497C87.7112 426.437 81.9112 417.367 76.7812 408.117C73.8964 402.932 71.4816 397.5 69.0689 392.073C66.9069 387.21 64.7466 382.351 62.2512 377.677C68.3865 380.623 74.8245 382.893 81.4512 384.447C81.2837 384.926 81.3052 385.452 81.5112 385.917C84.9816 394.383 89.0386 402.742 93.0703 411.049C94.5337 414.064 95.9938 417.073 97.4212 420.077C98.2895 421.919 99.1741 423.756 100.059 425.593L100.059 425.593L100.059 425.594L100.06 425.594L100.06 425.595ZM216.531 409.167C210.403 406.707 204.495 403.729 198.871 400.267H198.831C188.901 394.027 179.231 385.567 173.711 375.017C172.931 375.041 172.175 374.745 171.619 374.197C171.064 373.649 170.757 372.897 170.771 372.117C170.831 370.387 170.831 368.687 170.831 366.987C167.085 372.014 162.648 376.488 157.651 380.277C159.425 382.15 161.073 384.184 162.722 386.22C164.726 388.695 166.733 391.172 168.971 393.367C174.059 398.379 179.722 402.773 185.841 406.457C191.942 410.155 198.466 413.106 205.271 415.247C209.235 416.461 213.261 417.463 217.331 418.247C218.01 418.38 218.708 418.531 219.418 418.685C222.223 419.293 225.216 419.942 227.961 419.687C228.176 419.666 228.392 419.653 228.604 419.64C229.977 419.554 231.187 419.479 230.711 417.687C230.326 416.248 227.606 414.582 226.2 413.721L226.199 413.72L226.199 413.72L226.194 413.718C226.068 413.641 225.953 413.57 225.851 413.507C222.866 411.813 219.749 410.361 216.531 409.167ZM143.071 278.267C144.286 279.355 145.273 280.623 146.26 281.891C147.223 283.128 148.186 284.365 149.361 285.437C150.141 286.168 151.277 286.375 152.265 285.966C153.252 285.556 153.908 284.605 153.941 283.537C153.941 280.317 152.411 277.457 150.151 274.987C155.286 272.242 160.011 268.769 164.736 265.297C169.461 261.824 174.186 258.352 179.321 255.607C179.368 255.581 179.418 255.555 179.47 255.526L179.589 255.462C181.464 254.446 186.235 251.862 187.651 254.087C188.595 255.584 188.507 259.145 188.44 261.813C188.418 262.709 188.399 263.504 188.421 264.087C188.638 270.64 188.304 277.2 187.421 283.697C186.597 289.907 185.296 296.045 183.531 302.057C183.325 302.754 183.094 303.452 182.862 304.153C182.184 306.205 181.498 308.28 181.401 310.427C181.279 313.141 182.276 315.545 183.303 318.023L183.401 318.259L183.491 318.477C187.201 327.477 190.421 336.727 191.201 346.337C190.282 345.288 189.311 344.287 188.291 343.337C186.771 341.897 183.641 342.337 183.231 344.667C182.465 349.201 181.379 353.675 179.981 358.057C179.832 358.519 179.679 359.028 179.517 359.566L179.517 359.567L179.517 359.567C178.835 361.838 177.996 364.634 176.581 366.647C176.421 363.68 176.118 360.71 175.671 357.737C175.291 355.237 171.561 355.067 170.441 357.057C163.47 369.342 152.304 378.704 138.991 383.427L139.391 382.717C139.888 381.831 139.883 380.749 139.376 379.869C138.869 378.989 137.937 378.441 136.921 378.427C131.229 378.581 125.592 379.592 120.201 381.427C119.306 381.736 118.351 382.116 117.357 382.512C113.086 384.212 108.099 386.198 104.091 384.097C104.348 383.301 104.219 382.432 103.742 381.745C103.265 381.059 102.496 380.634 101.661 380.597C100.127 380.42 98.5949 380.258 97.0662 380.097C90.626 379.417 84.2392 378.742 77.9112 376.997C70.158 374.877 62.7248 371.726 55.8112 367.627C52.8112 365.867 50.0912 369.807 52.2412 372.247C53.3412 373.497 48.1712 372.677 47.6512 372.387C46.6994 371.772 45.8292 371.039 45.0612 370.207C43.1119 368.229 41.4794 365.962 40.2212 363.487C37.9343 358.792 36.2799 353.816 35.3012 348.687C34.956 347.565 33.9881 346.747 32.8242 346.594C31.6603 346.441 30.5142 346.982 29.8912 347.977C28.3414 350.847 27.2451 353.941 26.6412 357.147C9.8612 343.747 9.4212 319.547 16.6412 300.397C17.5612 297.987 14.3212 296.767 12.7212 298.117C10.6112 299.877 8.4812 301.617 6.3512 303.347C9.12826 291.803 15.6731 281.514 24.9512 274.107C26.9512 272.487 24.7512 269.557 22.5912 270.107L15.4212 271.727C17.3212 269.907 19.2412 268.097 21.2212 266.347C21.8326 265.804 22.5015 265.174 23.2171 264.5L23.2178 264.5C27.1836 260.766 32.5833 255.682 37.5812 256.597C39.0937 256.982 40.6388 256.096 41.0712 254.597C43.2112 246.737 45.6612 238.977 48.5012 231.347C50.0412 227.207 51.6712 223.107 53.4312 219.067C53.597 218.664 53.7808 218.16 53.9857 217.597L53.9864 217.596L53.9865 217.595C55.0172 214.768 56.5844 210.468 59.1112 210.127C61.8427 209.757 63.1275 214.845 63.9813 218.225L63.9814 218.226C64.1685 218.966 64.3348 219.625 64.4912 220.127C65.405 223.1 66.1926 226.11 66.9798 229.119L66.9799 229.12C67.2781 230.26 67.5762 231.399 67.8812 232.537C68.4604 234.714 69.0302 236.898 69.6004 239.084C70.7923 243.652 71.986 248.228 73.2712 252.767C69.1512 253.477 65.3912 255.107 63.6512 258.897C63.2193 259.667 63.4178 260.638 64.1174 261.177C64.817 261.716 65.8062 261.661 66.4412 261.047C68.9027 259.197 71.8739 258.149 74.9512 258.047C75.3429 258.582 75.9749 258.889 76.638 258.865C77.3012 258.841 77.9093 258.489 78.2612 257.927C80.6898 257.927 83.1236 258.16 85.3528 258.374H85.3532H85.3535L85.3544 258.374C86.2546 258.46 87.1215 258.543 87.9412 258.607C96.0252 259.245 104.021 260.719 111.801 263.007C119.58 265.265 127.084 268.384 134.171 272.307C137.335 273.965 140.306 275.967 143.031 278.277L143.071 278.267ZM209.651 100.247C230.621 93.7966 254.631 91.9766 275.171 100.727C294.131 108.797 310.241 122.907 321.941 139.797C327.582 147.936 332.149 156.769 335.531 166.077C338.031 172.534 339.841 179.238 340.931 186.077C342.811 184.467 344.788 182.974 346.851 181.607C346.467 179.985 346.088 178.367 345.709 176.753C342.383 162.566 339.122 148.658 333.241 135.137C327.241 121.357 319.851 106.927 309.121 96.1966C298.921 85.9866 284.651 80.3966 270.851 76.7766C257.051 73.1566 242.591 72.1266 228.591 74.9466C202.411 80.2066 179.321 96.3766 162.321 116.637C151.472 129.651 143.039 144.501 137.421 160.487C142.501 150.869 148.788 141.94 156.131 133.917C170.674 118.151 189.144 106.532 209.651 100.247ZM334.001 257.487C332.221 268.097 330.001 278.607 327.301 289.007C327.064 289.894 326.826 290.854 326.575 291.863C324.707 299.372 322.175 309.55 314.901 312.407C314.794 306.747 316.472 301.24 318.148 295.738C320.542 287.882 322.932 280.035 320.121 271.767C318.226 266.204 314.497 261.699 310.79 257.221C309.412 255.557 308.037 253.896 306.761 252.187C301.747 245.599 297.635 238.372 294.531 230.697C288.691 215.817 287.301 199.307 293.411 184.287C296.074 177.703 300.079 171.746 305.171 166.797C307.841 164.197 310.84 161.958 314.091 160.137C316.379 158.744 318.818 157.617 321.361 156.777C323.035 159.963 324.548 163.22 325.901 166.547C328.419 172.76 329.826 179.125 331.239 185.524L331.24 185.526C331.903 188.53 332.569 191.541 333.351 194.547C329.041 201.397 327.971 209.307 327.661 217.697C327.221 229.487 327.361 241.697 331.851 252.747C332.518 254.36 333.245 255.93 334.031 257.457C334.026 257.461 334.021 257.466 334.016 257.471C334.011 257.476 334.006 257.481 334.001 257.487ZM357.311 537.507C356.266 531.859 356.007 526.095 356.541 520.377C357.7 509.32 360.998 498.594 366.251 488.797C374.799 472.471 387.346 458.645 399.739 444.99C403.917 440.386 408.077 435.801 412.061 431.147C427.861 412.687 444.341 392.847 453.471 370.057C462.361 347.867 461.111 324.627 450.421 303.277C445.135 292.832 438.502 283.126 430.691 274.407C430.432 274.113 430.172 273.82 429.913 273.527C423.65 266.458 417.428 259.436 414.691 250.247C414.363 249.738 414.203 249.141 414.231 248.537V248.487C414.09 247.979 414.129 247.439 414.341 246.957C414.89 239.244 416.212 231.622 417.535 223.993C418.549 218.149 419.563 212.301 420.231 206.407C421.929 192.377 422.344 178.222 421.471 164.117C419.511 135.817 409.521 109.667 394.261 85.9066C370.241 48.5166 334.421 19.7366 290.091 11.6266C265.181 7.06657 239.391 7.93657 214.261 10.0666C190.421 12.0866 166.651 16.4966 144.991 27.0666C108.061 45.0066 79.3612 76.6366 60.9912 113.007C40.3312 153.927 33.6212 200.357 37.7312 245.727C40.1845 237.62 43.0312 229.65 46.2712 221.817C46.6302 220.964 47.0054 219.966 47.4112 218.886C49.6392 212.957 52.7915 204.569 59.2712 204.417C65.637 204.271 67.8809 213.311 69.427 219.54C69.7923 221.012 70.1186 222.327 70.4512 223.327C73.7183 232.785 76.2558 242.48 78.0412 252.327C80.0712 252.267 82.0412 252.267 83.7312 252.267C93.278 252.266 102.784 253.506 112.011 255.957C120.184 258.133 128.096 261.187 135.611 265.067C122.431 237.457 119.611 205.607 126.101 175.607C137.671 122.147 182.831 69.6666 239.921 65.3266C255.631 64.1366 271.521 67.1266 286.191 72.6566C300.181 77.9266 312.421 85.3666 321.641 97.1166C330.861 108.867 337.691 122.567 343.261 136.357C348.491 149.267 353.001 163.267 354.561 177.267C356.471 176.359 358.427 175.552 360.421 174.847C363.161 173.897 364.111 177.657 362.221 179.107C360.074 180.759 357.826 182.28 355.582 183.799C350.261 187.4 344.969 190.982 341.121 196.237C340.909 197.127 340.393 197.916 339.661 198.467C334.514 207.163 335.061 219.208 335.513 229.186C335.536 229.695 335.559 230.199 335.581 230.697C336.021 241.187 338.581 250.947 344.581 259.697C348.178 264.996 352.662 269.212 357.183 273.463C359.487 275.629 361.8 277.804 364.011 280.137C369.741 286.187 367.011 295.257 364.461 302.257C362.404 307.92 359.598 313.237 356.789 318.558C355.72 320.584 354.65 322.61 353.621 324.657C351.515 328.685 349.778 332.895 348.431 337.237L348.387 337.385C347.392 340.762 345.751 346.327 347.111 349.717C349.799 356.421 357.121 347.397 359.799 344.096C360.001 343.847 360.176 343.631 360.321 343.457C363.495 339.617 366.561 335.697 369.521 331.697C379.791 317.817 387.921 303.017 395.791 287.817C395.804 287.512 395.854 287.209 395.941 286.917C398.443 278.563 402.326 270.687 407.431 263.617C409.101 261.247 412.591 260.957 414.201 263.617C427.581 285.817 434.181 313.617 430.451 339.367C427.061 362.827 413.851 382.707 399.191 400.707C395.493 405.249 391.682 409.714 387.869 414.18C377.874 425.887 367.867 437.608 359.861 450.797C347.835 470.734 341.336 493.515 341.031 516.797C340.732 528.567 342.188 540.316 345.351 551.657C346.811 556.607 349.211 562.557 354.661 564.127C361.261 566.027 363.371 559.877 362.371 554.507C361.841 551.61 360.848 548.827 359.851 546.034C358.855 543.242 357.856 540.44 357.311 537.507Z" fill="#231F20"/>
<path fill-rule="evenodd" clip-rule="evenodd" d="M151.551 312.906C154.491 318.566 151.881 326.396 145.321 327.906C138.911 329.386 132.851 323.886 132.981 317.526C133.046 314.703 134.234 312.022 136.281 310.076C137.696 308.727 139.596 308.006 141.551 308.076C145.577 307.361 149.608 309.308 151.551 312.906ZM145.291 316.796C144.741 314.526 142.911 314.496 141.101 314.796C139.791 317.256 139.421 320.166 142.571 320.796C144.841 321.166 145.741 318.646 145.291 316.796Z" fill="#231F20"/>
<path fill-rule="evenodd" clip-rule="evenodd" d="M43.1508 299.266C44.0719 298.449 45.1659 297.851 46.3508 297.516C54.6208 295.576 59.1608 304.436 56.4008 311.416C53.6408 318.396 43.9508 318.686 40.1008 312.566C38.3307 309.82 38.0349 306.375 39.3108 303.366C40.0531 301.581 41.4173 300.124 43.1508 299.266ZM46.1608 304.896C45.6308 306.486 45.6308 308.146 46.8708 309.026C49.4808 310.896 50.8108 305.316 48.6908 304.616C47.8395 304.432 46.9511 304.53 46.1608 304.896Z" fill="#231F20"/>
</svg>
