<svg width="237" height="579" viewBox="0 0 237 579" fill="none" xmlns="http://www.w3.org/2000/svg">
<path d="M130.845 474.168C123.805 473.354 116.759 472.551 109.705 471.758C103.845 471.091 97.9788 470.474 92.1055 469.908C96.9355 477.828 101.355 485.848 106.105 493.658C114.759 487.695 123.022 481.185 130.845 474.168Z" fill="#F2B879"/>
<path fill-rule="evenodd" clip-rule="evenodd" d="M77.4564 510.668C68.2388 515.303 58.7402 519.358 49.0164 522.808C42.8874 514.147 37.6981 504.858 33.5364 495.098C30.7627 488.524 29.0101 481.781 27.2539 475.023C26.1861 470.915 25.1171 466.801 23.8164 462.718C40.6345 464.87 57.6134 466.529 74.5646 468.184C79.5859 468.675 84.6048 469.165 89.6164 469.668C92.6836 479.028 96.9418 487.954 102.286 496.228C94.3014 501.526 86.0103 506.348 77.4564 510.668ZM61.8164 487.378C61.8064 484.398 59.3164 482.038 56.3164 483.188L56.2864 483.168C53.2264 484.358 52.5664 487.898 53.0164 490.808C53.2345 492.227 54.2479 493.395 55.6222 493.811C56.9965 494.227 58.4877 493.818 59.4564 492.758C59.6094 492.606 59.7498 492.442 59.8764 492.268C61.1343 490.952 61.8301 489.198 61.8164 487.378Z" fill="#F7941E"/>
<path fill-rule="evenodd" clip-rule="evenodd" d="M84.7277 561.098C72.5277 550.508 61.0477 539.228 51.3477 526.098C60.6244 522.831 69.6944 519.004 78.5077 514.638C87.4761 510.21 96.1596 505.227 104.508 499.718C108.597 505.813 113.01 511.685 117.728 517.308C123.324 524.033 129.527 530.229 136.258 535.818C135.828 536.068 135.398 536.319 134.969 536.571C133.561 537.396 132.153 538.221 130.728 538.988C115.949 547.274 100.743 554.007 85.4159 560.793L84.7277 561.098ZM95.9077 522.028L95.8277 522.098V522.058C94.8748 523.06 94.5588 524.51 95.0077 525.818C95.0155 525.841 95.0278 525.863 95.04 525.885C95.0591 525.918 95.0777 525.951 95.0777 525.988C95.5092 527.167 96.4107 528.114 97.5671 528.603C98.7235 529.092 100.031 529.079 101.178 528.568C101.56 528.339 101.898 528.044 102.178 527.698C102.949 526.922 103.395 525.881 103.428 524.788C103.449 522.946 102.211 521.328 100.428 520.868L100.108 520.798C99.9129 520.754 99.716 520.721 99.5177 520.698H99.1477H98.7777H98.5577L98.1977 520.768C97.9969 520.805 97.7995 520.858 97.6077 520.928L97.2977 521.048C97.0994 521.135 96.9087 521.239 96.7277 521.358L96.4977 521.508C96.2852 521.662 96.0877 521.836 95.9077 522.028Z" fill="#F2B879"/>
<path d="M29.3675 495.448C25.2975 485.448 21.2274 473.448 21.9974 462.498C17.6841 461.938 13.3841 461.344 9.09745 460.718C7.60766 472.617 7.58751 484.654 9.03745 496.558C9.14708 496.519 9.26146 496.496 9.37745 496.488C11.7214 496.535 13.6957 498.253 14.0675 500.568C15.8492 504.137 14.8366 508.469 11.6574 510.878C12.1075 512.728 12.5774 514.578 13.1174 516.408C14.5752 521.561 16.3896 526.606 18.5475 531.508C27.3375 529.028 36.2975 527.138 44.9874 524.228C38.7521 515.23 33.5146 505.579 29.3675 495.448Z" fill="#F2B879"/>
<path d="M80.5574 235.957C88.3184 232.26 96.4646 229.433 104.847 227.527C96.3374 188.527 72.5174 154.447 38.0574 134.147C35.4283 172.879 51.171 210.591 80.5574 235.957Z" fill="#009444"/>
<path fill-rule="evenodd" clip-rule="evenodd" d="M132.628 224.788C129.498 224.668 126.338 224.728 123.158 224.918C123.261 224.465 123.278 223.997 123.208 223.538C116.958 182.118 116.908 139.188 125.798 98.4876C125.9 98.2391 125.961 97.9756 125.978 97.7076C132.638 67.6576 144.188 38.8376 161.788 12.7676C168.068 47.8076 167.688 83.5976 167.288 119.088C167.078 138.268 166.078 157.038 161.418 175.728C157.058 193.178 150.678 210.038 144.268 226.828C141.633 225.981 138.914 225.427 136.158 225.178C137.324 219.55 137.361 213.508 137.398 207.646C137.41 205.665 137.422 203.705 137.478 201.788C137.531 199.921 137.637 198.001 137.746 196.055C138.11 189.515 138.491 182.679 136.888 176.568C136.751 176.11 136.33 175.796 135.853 175.796C135.375 175.796 134.954 176.11 134.818 176.568C133.147 182.393 133.231 188.939 133.311 195.245C133.339 197.47 133.367 199.665 133.318 201.788C133.267 204.01 133.148 206.275 133.027 208.557C132.74 213.977 132.449 219.496 133.068 224.788C132.921 224.777 132.774 224.777 132.628 224.788ZM138.845 149.337C138.27 149.26 137.724 149.612 137.558 150.168C135.848 155.628 135.338 162.598 135.498 168.208C135.423 168.76 135.811 169.268 136.363 169.343C136.915 169.417 137.423 169.03 137.498 168.478C139.178 163.118 140.388 156.118 139.868 150.478C139.854 149.898 139.42 149.414 138.845 149.337Z" fill="#009444"/>
<path d="M128.957 232.098C133.067 237.388 137.107 242.598 141.336 247.658C143.956 244.398 146.476 240.728 149.336 237.478C143.416 234.838 137.337 233.838 131.207 231.958L128.957 232.098Z" fill="#F2B879"/>
<path fill-rule="evenodd" clip-rule="evenodd" d="M41.418 335.457L51.948 328.537C55.9444 325.901 59.99 323.307 64.0422 320.708C74.2565 314.157 84.5126 307.579 94.128 300.247C94.5879 299.899 95.0401 299.54 95.4918 299.18C95.7669 298.962 96.0417 298.743 96.318 298.527C104.118 309.721 112.425 320.541 121.238 330.987C127.351 338.227 133.661 345.277 140.168 352.137C130.268 358.817 120.148 365.197 110.008 371.497C106.261 373.826 102.323 376.038 98.3625 378.264C94.0894 380.666 89.7884 383.083 85.668 385.677C83.5455 383.686 81.3235 381.761 79.1017 379.836C76.3932 377.49 73.685 375.144 71.158 372.677C64.2942 366.068 57.9113 358.976 52.058 351.457C48.147 346.375 44.5919 341.029 41.418 335.457ZM93.668 348.497C95.2727 348.002 96.4087 346.572 96.528 344.897C96.6089 341.957 94.6599 339.346 91.818 338.587C89.848 338.217 88.798 339.657 88.388 341.407C88.0375 341.852 87.8068 342.378 87.718 342.937C87.5743 343.257 87.4702 343.593 87.408 343.937C87.1931 345.008 87.4252 346.119 88.0502 347.015C88.6753 347.91 89.6391 348.51 90.718 348.677C91.4777 348.882 92.2782 348.882 93.038 348.677L93.348 348.597L93.668 348.497Z" fill="#F7941E"/>
<path fill-rule="evenodd" clip-rule="evenodd" d="M93.988 288.638C89.2013 281.558 84.6113 274.351 80.218 267.018C78.018 263.408 75.868 259.798 73.948 256.068C73.4662 255.163 73.0255 254.228 72.5843 253.293C71.9816 252.014 71.3781 250.734 70.668 249.528C72.998 247.948 75.408 246.438 77.948 245.058C92.918 236.958 108.888 233.658 125.498 232.328C129.136 239.002 133.564 245.213 138.688 250.828C134.228 256.028 129.688 261.168 125.018 266.168C116.284 275.743 106.949 284.751 97.068 293.138C95.988 291.638 94.988 290.148 93.988 288.638ZM103.088 249.338C102.88 249.184 102.596 249.184 102.388 249.338C99.628 251.578 101.308 256.008 104.678 256.478C106.569 256.771 108.431 255.804 109.278 254.088C109.415 253.834 109.523 253.566 109.598 253.288C109.964 252.221 109.823 251.045 109.215 250.095C108.608 249.145 107.6 248.524 106.478 248.408C105.813 248.258 105.12 248.299 104.478 248.528C104.222 248.621 103.978 248.742 103.748 248.888C103.511 249.011 103.289 249.162 103.088 249.338Z" fill="#F7941E"/>
<path d="M135.445 540.507C120.335 549.037 104.325 557.427 87.8555 563.787C90.2555 565.827 92.6721 567.851 95.1055 569.857C104.129 570.157 113.161 569.689 122.105 568.457C122.995 568.327 123.885 568.187 124.785 568.027C125.255 564.547 127.965 561.237 131.535 560.757C134.446 560.324 137.295 561.858 138.535 564.527C145.993 562.075 152.801 557.973 158.455 552.527C158.895 552.087 159.315 551.627 159.735 551.167C152.509 547.59 145.667 543.284 139.315 538.317C138.015 539.017 136.735 539.777 135.445 540.507Z" fill="#F7941E"/>
<path fill-rule="evenodd" clip-rule="evenodd" d="M163.164 477.928L175.314 479.368C176.086 479.46 176.835 479.513 177.55 479.564C180.866 479.799 183.438 479.982 184.014 483.758C185.014 489.988 183.014 497.868 180.914 504.628C174.634 511.038 167.404 515.978 159.794 521.108C153.361 525.408 146.831 529.538 140.205 533.498C133.335 527.972 127 521.811 121.285 515.098C116.517 509.449 112.172 503.456 108.285 497.168C118.156 490.384 127.536 482.912 136.355 474.808C145.301 475.848 154.238 476.888 163.164 477.928ZM149.264 500.591C151.442 501.466 153.932 500.592 155.085 498.548C156.495 495.638 154.285 491.388 150.815 491.798C150.443 491.847 150.094 492.007 149.815 492.258C148.264 492.511 146.98 493.599 146.475 495.088C145.893 497.362 147.086 499.715 149.264 500.591Z" fill="#F7941E"/>
<path d="M74.5078 568.438C76.668 568.698 78.8182 568.908 80.9683 569.088C83.1185 569.268 85.5687 569.418 87.8789 569.558C86.2588 568.258 84.6586 566.918 83.0585 565.558C80.2183 566.591 77.368 567.551 74.5078 568.438Z" fill="#F2B879"/>
<path fill-rule="evenodd" clip-rule="evenodd" d="M46.6055 527.708L47.2855 527.478C56.8684 540.561 67.9057 552.514 80.1855 563.108C76.8521 564.581 73.5188 566.078 70.1855 567.598C70.0787 567.648 69.9834 567.719 69.9055 567.808C59.6955 566.218 49.6255 563.388 40.7655 558.098C31.3255 552.478 24.8255 544.188 20.1055 534.778C29.1055 533.378 38.1155 530.488 46.6055 527.708ZM49.5055 555.488C50.2942 554.445 50.678 553.152 50.5855 551.848C51.1755 549.028 49.9055 546.048 46.3455 546.028C44.4214 546.108 42.64 547.065 41.5097 548.624C40.3793 550.183 40.0241 552.174 40.5455 554.028C41.5855 557.758 46.2955 560.788 48.9255 556.658C49.1603 556.29 49.3548 555.897 49.5055 555.488Z" fill="#F7941E"/>
<path d="M143.316 535.948C149.332 540.506 155.741 544.522 162.466 547.948C170.086 538.088 174.406 525.238 178.106 513.468C173.816 516.768 168.936 519.538 165.336 521.988C158.156 526.861 150.816 531.514 143.316 535.948Z" fill="#F2B879"/>
<path fill-rule="evenodd" clip-rule="evenodd" d="M43.02 330.699C42.022 331.411 41.0211 332.125 40.0166 332.837C39.4366 331.847 38.9166 330.847 38.4566 329.797C36.3653 325.621 34.8881 321.253 33.4147 316.895C32.3446 313.731 31.2765 310.573 29.9766 307.497C32.8366 300.267 35.9466 293.167 39.3966 286.317C46.4366 272.317 55.7566 260.367 68.0666 251.317C69.0825 255.804 71.9939 260.404 74.535 264.418C75.2956 265.62 76.0231 266.769 76.6566 267.847C81.1699 275.521 85.9032 283.057 90.8566 290.457C91.9666 292.157 93.0966 293.807 94.2266 295.457L92.7666 296.637C83.5615 303.839 73.6676 310.261 63.8079 316.66C60.2787 318.95 56.7539 321.238 53.2666 323.557C49.8708 325.813 46.4631 328.244 43.02 330.699ZM55.6796 277.003C54.5148 277.179 53.471 277.819 52.7866 278.777H52.7366C52.0481 279.706 51.7949 280.887 52.0422 282.016C52.2895 283.145 53.0131 284.112 54.0266 284.667C54.5182 284.958 55.068 285.135 55.6366 285.187C57.2422 285.923 59.1435 285.435 60.1966 284.017C61.4666 281.956 60.9299 279.264 58.9666 277.847C58.0304 277.133 56.8443 276.828 55.6796 277.003Z" fill="#F2B879"/>
<path d="M80.7144 153.328C81.7144 157.238 83.3344 161.328 83.9944 165.328C94.2763 178.428 102.22 193.205 107.474 209.008C105.014 198.658 102.854 188.218 100.724 177.838C99.0144 169.638 97.3944 161.398 96.0144 153.168C94.8544 146.378 93.9144 139.698 95.5244 132.918C95.6938 132.345 96.2551 131.982 96.8466 132.062C97.438 132.142 97.8829 132.641 97.8944 133.238C98.0344 149.088 102.054 164.918 105.324 180.368C108.534 195.538 112.464 210.528 115.894 225.638L116.764 225.518V225.408C109.364 183.518 109.334 139.118 118.564 97.0777C109.32 74.9647 98.2486 53.6609 85.4644 33.3877C78.5459 54.3219 74.8372 76.183 74.4644 98.2277C74.2494 110.873 75.1596 123.513 77.1844 135.998C78.1111 141.811 79.2878 147.588 80.7144 153.328Z" fill="#8DC63F"/>
<path d="M35.3547 330.438C32.6347 324.828 29.5547 318.368 28.2447 311.948C24.0347 323.068 20.4047 334.438 17.1847 345.678C17.0547 346.128 16.9347 346.578 16.8047 347.018C23.9847 343.748 30.8047 339.268 37.4847 334.598C36.7547 333.228 36.0147 331.838 35.3547 330.438Z" fill="#F7941E"/>
<path d="M153.255 239.527C150.505 243.477 146.925 247.127 143.875 250.637C147.893 255.323 152.191 259.761 156.745 263.928C167.673 273.563 179.113 282.603 191.014 291.008C187.014 277.248 180.614 264.208 170.794 253.587C165.706 248.026 159.79 243.283 153.255 239.527V239.527Z" fill="#F7941E"/>
<path fill-rule="evenodd" clip-rule="evenodd" d="M126.865 269.737C131.775 264.507 136.555 259.137 141.225 253.688C145.695 258.488 150.415 262.987 154.945 267.167C166.635 278.007 179.505 287.608 192.505 296.748C192.938 298.514 193.335 300.281 193.695 302.048C193.725 302.193 193.752 302.34 193.78 302.488C193.807 302.635 193.835 302.783 193.865 302.928C192.249 304.618 190.636 306.316 189.022 308.014C174.768 323.011 160.412 338.115 143.345 349.927C136.858 343.161 130.615 336.214 124.615 329.088C115.682 318.474 107.215 307.501 99.2148 296.167C108.99 287.961 118.226 279.133 126.865 269.737ZM146.195 302.868C147.426 304.678 149.838 305.243 151.745 304.167C153.483 303.122 154.397 301.115 154.045 299.118V298.757C154.011 297.59 153.509 296.485 152.651 295.693C151.793 294.901 150.651 294.488 149.485 294.548C147.505 294.717 145.135 296.788 145.825 298.868C145.416 300.198 145.549 301.635 146.195 302.868Z" fill="#F2B879"/>
<path d="M164.687 192.038C160.757 204.748 156.027 217.228 151.277 229.658C156.436 232.184 161.302 235.269 165.787 238.858C166.12 238.443 166.535 238.102 167.007 237.858C185.001 228.687 199.203 213.49 207.137 194.918C214.047 179.138 218.137 162.298 225.667 146.828C213.871 150.403 202.728 155.856 192.667 162.978C181.157 171.168 172.817 181.058 164.687 192.038Z" fill="#8DC63F"/>
<path d="M188.306 418.007C185.7 416.728 183.03 415.583 180.306 414.577C169.589 410.374 158.554 407.03 147.306 404.577C124.596 399.527 101.306 397.937 78.1059 398.017C66.4059 398.017 54.7259 398.577 43.0559 399.297C37.2559 399.647 31.4359 399.947 25.6459 400.517C22.1659 400.857 18.2259 401.337 15.2659 403.387C13.6659 404.487 11.4659 408.277 11.3359 411.187C11.8625 411.067 12.4094 411.067 12.9359 411.187C40.5659 417.247 67.5159 423.587 95.8359 425.697C120.377 427.552 145.037 427.153 169.506 424.507C172.976 424.127 176.436 423.707 179.896 423.227C182.626 422.847 186.496 422.947 189.016 421.857C192.346 420.387 191.246 419.547 188.306 418.007Z" fill="#FFF200"/>
<path fill-rule="evenodd" clip-rule="evenodd" d="M174.165 328.267L188.015 314.437C188.897 313.559 189.818 312.689 190.749 311.809C192.107 310.525 193.488 309.22 194.805 307.837C199.805 336.937 198.205 366.717 196.305 396.217C183.993 389.816 173.265 379.446 163.211 369.728C161.8 368.364 160.402 367.013 159.015 365.687C154.535 361.407 150.175 357.007 145.875 352.557L146.875 351.867C156.845 344.907 165.575 336.837 174.165 328.267ZM183.335 351.657C183.956 351.64 184.563 351.472 185.105 351.167C186.807 350.094 187.531 347.979 186.845 346.087C186.235 344.207 184.355 342.597 182.305 343.207C181.69 343.401 181.142 343.765 180.725 344.257C180.546 344.423 180.385 344.607 180.245 344.807C179.828 345.479 179.562 346.233 179.465 347.017C179.462 347.044 179.462 347.071 179.465 347.097C179.115 348.987 179.455 351.317 181.685 351.797C182.237 351.913 182.81 351.864 183.335 351.657Z" fill="#F7941E"/>
<path fill-rule="evenodd" clip-rule="evenodd" d="M78.5869 390.538C70.3668 390.628 62.1466 390.948 53.9564 391.448C45.5829 391.928 37.2293 392.634 28.8958 393.568L28.7974 393.577C22.3429 394.225 15.2002 394.941 10.2254 399.568L10.0154 399.768C9.59878 392.691 9.72917 385.594 10.4054 378.538C11.503 369.148 13.3082 359.855 15.8055 350.738C20.7647 349.217 25.1832 346.248 29.5078 343.342C30.2759 342.826 31.0411 342.311 31.8059 341.807L38.876 337.167C42.0421 342.735 45.5837 348.081 49.4763 353.168C54.9503 360.292 60.9043 367.034 67.2967 373.348C68.0673 374.117 68.8431 374.896 69.6248 375.682C73.7024 379.781 77.9424 384.043 82.457 387.778C81.137 388.671 79.847 389.591 78.5869 390.538ZM38.2315 364.954C36.9942 364.927 35.8037 365.426 34.9554 366.327H34.9154C33.2054 368.087 32.1354 371.327 34.0954 373.317C35.6725 374.92 38.2219 375.025 39.9254 373.557C40.2131 373.289 40.4502 372.97 40.6254 372.617C41.6245 371.967 42.2899 370.913 42.4475 369.731C42.605 368.549 42.2391 367.357 41.4454 366.467C40.6367 365.531 39.4688 364.981 38.2315 364.954Z" fill="#F2B879"/>
<path fill-rule="evenodd" clip-rule="evenodd" d="M111.734 374.468C122.164 368.098 132.554 361.598 142.664 354.718C147.374 359.608 152.164 364.428 157.104 369.138C158.387 370.353 159.68 371.589 160.985 372.836C171.571 382.957 182.94 393.826 196.044 400.138C195.978 401.175 195.911 402.213 195.844 403.251C195.639 406.436 195.433 409.623 195.244 412.798C192.916 411.186 190.117 410.058 187.581 409.036C187.002 408.802 186.437 408.575 185.894 408.348C172.427 402.78 158.428 398.595 144.114 395.858C126.416 392.538 108.461 390.768 90.4544 390.568C89.8944 389.938 89.3144 389.318 88.7344 388.708C93.8029 385.917 98.7768 382.718 103.653 379.583C106.378 377.831 109.071 376.099 111.734 374.468ZM148.374 387.048C148.812 386.534 149.129 385.929 149.304 385.278C149.726 383.422 148.831 381.518 147.134 380.658C144.784 379.528 143.184 380.848 142.414 382.848C142.18 383.176 142.011 383.546 141.914 383.938C141.814 384.423 141.814 384.923 141.914 385.408C141.871 386.178 141.98 386.949 142.234 387.678C142.66 388.976 143.95 389.787 145.304 389.608H145.424C147.044 389.908 148.054 388.578 148.374 387.048Z" fill="#F2B879"/>
<path fill-rule="evenodd" clip-rule="evenodd" d="M187.558 158.018C200.729 148.032 215.891 140.993 232.019 137.378C235.179 136.678 238.019 139.968 236.299 142.948C230.027 153.552 226.021 165.139 222.012 176.74L222.012 176.74C218.995 185.466 215.977 194.2 211.989 202.528C203.509 220.318 189.408 235.328 171.508 243.838C171.687 244.009 171.868 244.178 172.048 244.346L172.049 244.348C172.311 244.592 172.57 244.835 172.818 245.078C186.098 258.048 194.499 274.888 199.099 292.738C204.479 313.548 205.119 335.328 204.989 356.738C204.859 377.448 204.369 398.658 201.369 419.238C202.629 421.328 201.309 424.908 199.969 426.718C199.818 426.975 199.618 427.2 199.379 427.378C198.428 428.403 197.179 429.103 195.809 429.378C194.984 429.508 194.143 429.508 193.319 429.378C193.19 429.361 193.063 429.334 192.939 429.298C189.346 430.505 185.05 430.815 181.107 431.101H181.106C179.429 431.222 177.816 431.339 176.348 431.518C168.715 432.458 161.065 433.185 153.398 433.698C137.289 434.776 121.13 434.89 105.008 434.038C80.7179 432.758 55.2877 429.948 31.2876 423.688C28.3193 423.325 25.3719 422.808 22.4575 422.138C19.1119 421.546 15.8533 420.538 12.7575 419.138C10.0151 418.457 7.71746 416.592 6.48743 414.048C3.21741 409.608 2.2974 403.658 3.29741 398.148C2.0174 379.268 6.56743 359.328 11.7275 341.758C17.8275 320.968 25.0775 299.578 35.2376 280.388C44.3676 263.088 57.3777 248.648 74.4678 239.088C42.5576 212.208 25.8975 168.728 31.5576 127.348C31.8876 124.948 35.0176 124.208 36.8076 125.208C50.7461 132.832 63.4087 142.586 74.3378 154.118C74.3231 154.056 74.3086 153.994 74.2942 153.931C74.2739 153.844 74.2539 153.756 74.2338 153.667L74.2337 153.667L74.2337 153.667L74.2337 153.667C74.1713 153.393 74.1087 153.118 74.0378 152.848C72.5511 146.748 71.3345 140.591 70.3878 134.378C68.5459 122.397 67.6697 110.288 67.7678 98.1676C68.0107 73.057 72.5287 48.1712 81.1279 24.5776C81.536 23.276 82.6631 22.3301 84.0158 22.1541C85.3685 21.978 86.7002 22.6038 87.4279 23.7576C100.333 43.5073 111.614 64.2722 121.158 85.8476C129.068 55.7276 141.938 27.0476 160.518 1.72757C162.278 -0.612436 166.558 -0.812436 167.278 2.60757C175.388 40.9476 175.208 80.1276 174.788 119.128C174.588 137.918 173.658 156.428 169.388 174.768C174.892 168.613 180.977 163.003 187.558 158.018ZM125.977 97.7476C125.96 98.0156 125.899 98.2791 125.797 98.5276C116.907 139.228 116.957 182.168 123.207 223.618C123.272 224.064 123.255 224.518 123.157 224.958C126.337 224.768 129.497 224.708 132.627 224.828C132.774 224.817 132.921 224.817 133.067 224.828C132.448 219.545 132.74 214.029 133.026 208.608C133.147 206.323 133.267 204.055 133.317 201.828C133.367 199.705 133.339 197.51 133.311 195.285V195.285C133.23 188.979 133.147 182.433 134.817 176.608C134.954 176.15 135.375 175.836 135.852 175.836C136.33 175.836 136.751 176.15 136.887 176.608C138.49 182.719 138.11 189.555 137.745 196.095L137.745 196.096L137.745 196.097L137.745 196.097C137.637 198.042 137.53 199.962 137.477 201.828C137.422 203.744 137.41 205.704 137.397 207.685V207.686V207.687C137.361 213.548 137.323 219.59 136.157 225.218C138.913 225.467 141.633 226.021 144.267 226.868C150.677 210.078 157.057 193.218 161.417 175.768C166.077 157.078 167.077 138.308 167.287 119.128C167.687 83.6376 168.067 47.8076 161.787 12.8076C144.187 38.8776 132.637 67.7476 125.977 97.7476ZM149.297 237.528C147.666 239.407 146.136 241.428 144.62 243.428C143.515 244.886 142.419 246.333 141.297 247.708C137.173 242.774 133.23 237.698 129.226 232.544L128.917 232.148L131.127 232.008C133.136 232.605 135.138 233.114 137.131 233.621L137.131 233.621C141.242 234.665 145.31 235.7 149.297 237.478V237.528ZM85.4274 33.3276C78.5089 54.2618 74.8002 76.1229 74.4274 98.1676C74.2166 110.827 75.1335 123.481 77.1674 135.978C78.1207 141.831 79.3107 147.621 80.7374 153.348C81.1139 154.857 81.5928 156.391 82.0766 157.941L82.0766 157.941C82.8392 160.383 83.6136 162.863 84.0174 165.348C94.2892 178.44 102.226 193.207 107.477 208.998C105.017 198.648 102.857 188.208 100.727 177.828C99.0474 169.608 97.3974 161.368 95.9874 153.098C94.8274 146.308 93.8874 139.628 95.4974 132.848C95.6668 132.275 96.2281 131.912 96.8195 131.992C97.4109 132.072 97.8558 132.571 97.8674 133.168C97.996 146.781 100.954 160.357 103.856 173.677C104.339 175.895 104.821 178.105 105.287 180.308C107.184 189.269 109.331 198.167 111.478 207.064L111.478 207.064C112.966 213.229 114.454 219.393 115.857 225.578L116.727 225.458V225.348C109.327 183.458 109.297 139.018 118.527 97.0176C109.283 74.9046 98.2116 53.6008 85.4274 33.3276ZM38.0174 134.168C72.4774 154.468 96.2974 188.538 104.807 227.548C96.4246 229.453 88.2784 232.28 80.5174 235.978C51.131 210.611 35.3883 172.899 38.0174 134.168ZM125.407 232.368C108.797 233.698 92.8574 236.998 77.8574 245.098L77.8974 245.078C75.3574 246.458 72.9474 247.968 70.5774 249.618C71.3357 250.856 71.9466 252.171 72.5556 253.483L72.5556 253.483L72.5557 253.483L72.5558 253.483L72.5558 253.483L72.5559 253.483L72.556 253.483L72.5561 253.484L72.5561 253.484L72.5562 253.484L72.5563 253.484C72.9751 254.386 73.393 255.286 73.8574 256.158C75.6366 259.508 77.5952 262.777 79.5491 266.038C79.7587 266.388 79.9682 266.738 80.1774 267.088C84.5641 274.421 89.1541 281.628 93.9474 288.708C94.4136 289.4 94.8925 290.092 95.3715 290.785C95.9302 291.592 96.489 292.4 97.0274 293.208C106.892 284.81 116.211 275.792 124.927 266.208C129.597 261.198 134.137 256.068 138.597 250.868C133.474 245.253 129.045 239.041 125.407 232.368ZM121.197 331.008C127.284 338.261 133.594 345.311 140.127 352.158C130.227 358.838 120.127 365.218 109.967 371.518C106.22 373.846 102.283 376.058 98.3219 378.284C94.0488 380.686 89.7479 383.103 85.6274 385.698C83.3925 383.581 81.0472 381.548 78.708 379.521L78.7075 379.52C76.1172 377.275 73.5345 375.036 71.1174 372.698C64.2514 366.069 57.8685 358.957 52.0174 351.418C48.1065 346.336 44.5514 340.99 41.3774 335.418L51.9074 328.498C55.8123 325.928 59.7593 323.397 63.711 320.863C74.0282 314.247 84.3767 307.612 94.0874 300.208C94.5474 299.859 94.9998 299.5 95.4516 299.14C95.7265 298.922 96.0012 298.703 96.2774 298.488C104.104 309.694 112.424 320.528 121.237 330.988L121.197 331.008ZM68.0174 251.368C55.7074 260.368 46.3474 272.368 39.3474 286.368C35.8974 293.218 32.7874 300.318 29.9274 307.588C31.2295 310.664 32.299 313.827 33.3708 316.997L33.3709 316.997C34.8426 321.35 36.3187 325.716 38.4074 329.888C38.7434 330.488 39.047 331.088 39.3506 331.688C39.553 332.088 39.7554 332.488 39.9674 332.888C40.9273 332.207 41.884 331.525 42.838 330.844L42.8634 330.826L42.9233 330.784L42.9537 330.762L42.9701 330.75C46.4134 328.294 49.8214 325.864 53.2174 323.608C56.693 321.296 60.2045 319.016 63.7202 316.733C73.587 310.326 83.4865 303.898 92.7174 296.688L94.1774 295.508C93.6092 294.658 93.041 293.818 92.4754 292.982L92.4725 292.978L92.4657 292.968C91.9097 292.146 91.3561 291.328 90.8074 290.508C85.8607 283.101 81.1274 275.564 76.6074 267.898C75.9739 266.819 75.2465 265.67 74.4858 264.469C71.9447 260.454 69.0333 255.855 68.0174 251.368ZM17.1874 345.678C20.4074 334.438 24.0374 323.068 28.2474 311.948C29.5574 318.368 32.6374 324.828 35.3574 330.438C36.0374 331.838 36.7574 333.228 37.4874 334.598C30.8274 339.268 23.9874 343.748 16.8074 347.018C16.8566 346.851 16.8987 346.689 16.9412 346.525C17.0109 346.256 17.0818 345.982 17.1874 345.678ZM10.4074 378.498C9.72915 385.567 9.59876 392.678 10.0174 399.768L10.2174 399.508C15.1748 394.945 22.229 394.206 28.6448 393.533L28.8874 393.508C37.2274 392.614 45.5841 391.918 53.9574 391.418C62.1474 390.918 70.3674 390.598 78.5874 390.508C79.8341 389.554 81.1241 388.634 82.4574 387.748C77.9812 384.062 73.775 379.829 69.7293 375.758C68.9124 374.936 68.1021 374.121 67.2974 373.318C60.9048 367.001 54.951 360.255 49.4774 353.128C45.5849 348.041 42.0434 342.695 38.8774 337.128L31.8074 341.768C31.0567 342.263 30.3053 342.769 29.5509 343.276L29.5485 343.278C25.2187 346.192 20.7886 349.173 15.8074 350.698C13.3101 359.815 11.505 369.108 10.4074 378.498ZM189.017 421.838C187.25 422.602 184.819 422.786 182.583 422.955H182.583C181.63 423.028 180.713 423.097 179.897 423.208C176.437 423.688 172.977 424.108 169.507 424.488C145.039 427.133 120.379 427.532 95.8374 425.678C69.972 423.75 45.2493 418.295 20.1076 412.747L20.107 412.746C17.7213 412.22 15.3319 411.693 12.9374 411.168C12.4109 411.047 11.8639 411.047 11.3374 411.168C11.4674 408.258 13.6674 404.468 15.2674 403.368C18.2674 401.318 22.1674 400.838 25.6474 400.498C30.518 400.018 35.4099 399.73 40.2932 399.442L40.2943 399.442L40.2954 399.442L40.2965 399.442L40.2976 399.442L40.2988 399.441L40.326 399.44L40.3539 399.438L40.3806 399.437C41.2732 399.384 42.1656 399.331 43.0574 399.278C54.7274 398.558 66.4074 398.038 78.1074 397.998C101.317 397.918 124.597 399.508 147.307 404.558C158.555 407.01 169.59 410.354 180.307 414.558C183.031 415.563 185.701 416.708 188.307 417.988C191.247 419.548 192.347 420.388 189.017 421.838ZM187.643 409.097C190.163 410.109 192.937 411.222 195.247 412.838L195.217 412.798C195.416 409.452 195.634 406.094 195.85 402.754C195.906 401.89 195.962 401.028 196.017 400.168C183.032 393.887 171.751 383.123 161.247 373.102L161.246 373.101L161.241 373.095C159.84 371.759 158.453 370.435 157.077 369.138C152.167 364.468 147.377 359.648 142.667 354.758C132.557 361.638 122.167 368.138 111.737 374.508C109.166 376.088 106.563 377.764 103.927 379.461C98.9765 382.649 93.9123 385.909 88.7374 388.748C89.3174 389.358 89.8974 389.978 90.4574 390.608C108.464 390.807 126.419 392.577 144.117 395.898C158.431 398.635 172.43 402.819 185.897 408.388C186.458 408.622 187.043 408.857 187.643 409.097ZM196.307 396.258C184.045 389.864 173.317 379.511 163.257 369.803L163.256 369.802L163.255 369.801L163.254 369.801C161.829 368.426 160.418 367.064 159.017 365.728C154.537 361.448 150.177 357.048 145.877 352.598L146.877 351.908C156.877 344.908 165.577 336.908 174.167 328.308L188.017 314.438C188.908 313.547 189.839 312.658 190.78 311.761L190.782 311.759L190.782 311.759L190.782 311.758L190.783 311.758C192.123 310.479 193.481 309.182 194.767 307.838C199.777 336.938 198.177 366.718 196.277 396.218L196.307 396.258ZM193.897 302.988C193.867 302.843 193.84 302.695 193.812 302.548C193.785 302.4 193.757 302.253 193.727 302.108L193.697 302.068C193.337 300.294 192.941 298.514 192.507 296.728C179.467 287.588 166.637 277.988 154.947 267.148C150.417 262.948 145.697 258.448 141.227 253.648C136.557 259.098 131.777 264.468 126.867 269.698C118.23 279.107 108.994 287.949 99.2174 296.168C107.211 307.554 115.677 318.554 124.617 329.168C130.664 336.268 136.917 343.208 143.377 349.988C160.512 338.128 174.955 322.923 189.292 307.829L189.292 307.829C190.827 306.212 192.361 304.597 193.897 302.988ZM191.017 291.008C179.134 282.601 167.71 273.561 156.797 263.928C152.244 259.761 147.946 255.323 143.927 250.638C144.747 249.695 145.604 248.742 146.474 247.775C148.841 245.145 151.296 242.416 153.307 239.528C159.825 243.288 165.725 248.03 170.797 253.588C180.567 264.168 186.937 277.248 191.017 291.008ZM167.017 237.877C185.025 228.714 199.242 213.516 207.186 194.937H207.136C210.188 187.942 212.698 180.735 215.206 173.535C218.353 164.502 221.495 155.482 225.696 146.908C213.9 150.483 202.757 155.936 192.696 163.058C181.167 171.147 172.827 181.057 164.697 192.057C160.767 204.767 156.037 217.247 151.287 229.677C156.446 232.204 161.312 235.289 165.797 238.877C166.13 238.462 166.545 238.122 167.017 237.877Z" fill="#231F20"/>
<path fill-rule="evenodd" clip-rule="evenodd" d="M143.736 467.428C153.87 468.574 163.99 469.758 174.096 470.978C174.845 471.067 175.627 471.145 176.429 471.225L176.429 471.225C182.335 471.816 189.273 472.509 191.536 478.638C193.892 485.018 191.727 494.121 190.094 500.985L190.094 500.987C189.946 501.61 189.802 502.215 189.666 502.798C187.374 511.904 184.458 520.842 180.936 529.548C175.216 544.438 167.776 557.968 153.776 566.438C141.346 573.978 126.566 576.718 112.246 577.658C83.9062 579.508 48.4862 577.988 26.4862 557.578C13.9262 545.918 7.42621 528.368 3.63621 512.038C-0.455953 494.472 -1.10121 476.279 1.73621 458.468C1.78969 458.118 1.90123 457.78 2.06621 457.468C1.96777 456.604 2.23654 455.738 2.807 455.082C3.37745 454.426 4.19715 454.04 5.06621 454.018C23.3442 454.622 41.6041 456.541 59.8041 458.454C65.0936 459.01 70.3779 459.565 75.6562 460.088C98.3662 462.338 121.056 464.858 143.736 467.428ZM130.846 474.178C123.8 473.358 116.753 472.554 109.706 471.768C103.853 471.128 97.9862 470.511 92.1062 469.918C94.5638 473.947 96.9153 478.003 99.2581 482.044C101.52 485.945 103.773 489.831 106.106 493.668C114.76 487.705 123.023 481.195 130.846 474.178ZM117.706 517.308C123.303 524.032 129.505 530.228 136.236 535.818C134.396 536.888 132.566 537.948 130.706 538.988C115.927 547.274 100.722 554.006 85.3947 560.793L85.3946 560.793L84.7062 561.098C72.5062 550.508 61.0262 539.228 51.3262 526.098C60.62 522.832 69.7067 519.005 78.5362 514.638C87.5047 510.21 96.1882 505.227 104.536 499.718C108.616 505.812 113.019 511.684 117.726 517.308H117.706ZM102.256 496.228C96.9221 487.952 92.6739 479.026 89.6162 469.668C84.6486 469.169 79.6764 468.683 74.703 468.197C57.7206 466.537 40.7236 464.876 23.8462 462.718C25.1469 466.801 26.2159 470.915 27.2837 475.023C29.0399 481.78 30.7925 488.524 33.5662 495.098C37.7184 504.856 42.8976 514.145 49.0162 522.808C58.7298 519.357 68.2183 515.302 77.4262 510.668C85.9801 506.348 94.2712 501.526 102.256 496.228ZM13.1162 516.408C12.5762 514.578 12.1162 512.728 11.6562 510.878L11.6562 510.878C14.8354 508.468 15.848 504.136 14.0662 500.568C13.6945 498.253 11.7202 496.535 9.37621 496.488C9.26023 496.495 9.14584 496.519 9.03621 496.558C7.58627 484.654 7.60642 472.617 9.09621 460.718C13.3829 461.344 17.6829 461.938 21.9962 462.498C21.2262 473.498 25.2962 485.438 29.3662 495.448C33.5229 505.58 38.7704 515.231 45.0162 524.228C39.522 526.067 33.9199 527.5 28.3211 528.931C25.0644 529.763 21.8088 530.596 18.5762 531.508C16.4081 526.607 14.5837 521.561 13.1162 516.408ZM40.7662 558.098C49.6262 563.388 59.6962 566.218 69.9062 567.808C69.9871 567.718 70.0859 567.646 70.1962 567.598C73.5295 566.084 76.8629 564.588 80.1962 563.108C67.9129 552.515 56.8722 540.562 47.2862 527.478L46.6062 527.708C38.1062 530.488 29.1062 533.378 20.1062 534.778C24.8262 544.188 31.3262 552.478 40.7662 558.098ZM81.0162 569.088C78.8662 568.908 76.7162 568.698 74.5562 568.438C77.4162 567.544 80.2662 566.591 83.1062 565.578L83.1072 565.578L83.1082 565.579L83.1092 565.58L83.1102 565.581C84.7089 566.92 86.3076 568.259 87.9262 569.578L87.4583 569.546L86.7932 569.501H86.7931C84.826 569.369 82.8965 569.239 81.0162 569.088ZM138.586 564.488C146.043 562.035 152.852 557.933 158.506 552.488H158.456C158.679 552.265 158.896 552.038 159.11 551.813L159.111 551.812L159.112 551.812C159.321 551.592 159.529 551.375 159.736 551.168C152.524 547.562 145.699 543.23 139.366 538.238C138.85 538.534 138.334 538.833 137.818 539.132C137.044 539.581 136.27 540.03 135.496 540.468C120.386 548.998 104.376 557.388 87.9062 563.748C90.2995 565.794 92.7162 567.818 95.1562 569.818C104.18 570.117 113.212 569.649 122.156 568.418C123.046 568.288 123.936 568.148 124.836 567.988C125.306 564.508 128.016 561.198 131.586 560.718C134.497 560.284 137.346 561.818 138.586 564.488ZM162.507 547.918L162.478 547.903C170.092 538.045 174.409 525.162 178.128 513.398C175.346 515.537 172.316 517.454 169.548 519.205C168.047 520.155 166.623 521.056 165.357 521.918C158.184 526.824 150.85 531.491 143.356 535.918C149.364 540.469 155.763 544.48 162.478 547.903L162.467 547.918H162.507ZM159.805 521.118C167.415 515.988 174.645 511.048 180.925 504.638H180.885C183.015 497.868 185.015 489.988 184.055 483.758C183.454 479.982 180.878 479.799 177.562 479.564C176.847 479.513 176.097 479.46 175.325 479.368L163.175 477.928C154.242 476.881 145.306 475.841 136.366 474.808C127.547 482.916 118.168 490.391 108.296 497.178C112.183 503.466 116.528 509.459 121.296 515.108C127.011 521.821 133.346 527.982 140.216 533.508C146.856 529.554 153.385 525.424 159.805 521.118Z" fill="#231F20"/>
<path d="M104.646 256.478C106.537 256.771 108.399 255.804 109.246 254.088C109.383 253.834 109.491 253.566 109.566 253.288C109.932 252.221 109.791 251.045 109.183 250.095C108.576 249.145 107.568 248.524 106.446 248.408C105.781 248.258 105.088 248.299 104.446 248.528C104.191 248.621 103.946 248.742 103.716 248.888C103.479 249.011 103.257 249.162 103.056 249.338C102.848 249.184 102.564 249.184 102.356 249.338C99.626 251.578 101.306 256.008 104.646 256.478Z" fill="#231F20"/>
<path d="M154.015 298.727C153.982 297.56 153.479 296.455 152.621 295.663C151.763 294.871 150.622 294.458 149.455 294.517C147.455 294.687 145.105 296.757 145.795 298.837C145.387 300.167 145.52 301.605 146.165 302.837C147.396 304.648 149.809 305.213 151.715 304.137C153.461 303.081 154.369 301.053 153.995 299.047C154.015 298.967 154.015 298.857 154.015 298.727Z" fill="#231F20"/>
<path d="M88.3863 341.368C88.0359 341.812 87.8052 342.339 87.7163 342.898C87.5727 343.217 87.4686 343.553 87.4063 343.898C87.1915 344.968 87.4236 346.08 88.0486 346.975C88.6737 347.87 89.6374 348.471 90.7163 348.638C91.4761 348.843 92.2766 348.843 93.0363 348.638L93.3463 348.558L93.6663 348.458C95.2711 347.963 96.407 346.533 96.5263 344.858C96.6262 341.903 94.6733 339.27 91.8163 338.508C89.8463 338.168 88.7963 339.618 88.3863 341.368Z" fill="#231F20"/>
<path d="M54.0143 284.668C54.5059 284.958 55.0558 285.135 55.6243 285.188C57.2299 285.923 59.1312 285.435 60.1843 284.018C61.4543 281.956 60.9177 279.264 58.9543 277.848C58.0181 277.133 56.8321 276.828 55.6673 277.004C54.5026 277.179 53.4587 277.819 52.7743 278.778C52.0819 279.7 51.8209 280.875 52.0585 282.004C52.296 283.132 53.0089 284.103 54.0143 284.668Z" fill="#231F20"/>
<path d="M39.8382 373.588C40.1259 373.319 40.3631 373 40.5383 372.648C41.5375 371.997 42.203 370.943 42.3606 369.761C42.5182 368.579 42.1522 367.387 41.3584 366.498C40.5496 365.561 39.3816 365.011 38.1441 364.984C36.9067 364.957 35.716 365.456 34.8676 366.358C33.1575 368.118 32.0873 371.358 33.9575 373.358C35.5436 374.988 38.1296 375.089 39.8382 373.588Z" fill="#231F20"/>
<path d="M147.147 380.627C144.797 379.497 143.197 380.857 142.427 382.817C142.192 383.146 142.023 383.516 141.927 383.907C141.827 384.392 141.827 384.893 141.927 385.377C141.883 386.148 141.992 386.919 142.247 387.647C142.673 388.945 143.962 389.756 145.317 389.577H145.437C147.057 389.877 148.067 388.577 148.387 387.017C148.824 386.504 149.141 385.899 149.317 385.247C149.738 383.392 148.843 381.488 147.147 380.627Z" fill="#231F20"/>
<path d="M182.328 343.218C181.713 343.412 181.165 343.776 180.748 344.268C180.569 344.433 180.408 344.617 180.268 344.818C179.852 345.489 179.585 346.243 179.488 347.028C179.485 347.054 179.485 347.081 179.488 347.108C179.138 348.998 179.488 351.328 181.708 351.808C182.26 351.923 182.834 351.874 183.358 351.668C183.979 351.65 184.587 351.482 185.128 351.178C186.838 350.11 187.571 347.994 186.888 346.098C186.258 344.238 184.378 342.608 182.328 343.218Z" fill="#231F20"/>
<path d="M137.495 168.538C139.175 163.148 140.385 156.148 139.865 150.538C139.85 149.958 139.417 149.474 138.842 149.397C138.267 149.32 137.721 149.672 137.555 150.228C135.845 155.658 135.335 162.628 135.465 168.298C135.398 168.858 135.799 169.366 136.36 169.433C136.92 169.499 137.428 169.098 137.495 168.538Z" fill="#231F20"/>
<path d="M150.806 491.798C150.434 491.847 150.086 492.007 149.806 492.258C148.256 492.511 146.971 493.599 146.467 495.088C145.783 497.393 146.965 499.841 149.196 500.737C151.427 501.634 153.974 500.685 155.076 498.548C156.495 495.638 154.286 491.388 150.806 491.798Z" fill="#231F20"/>
<path d="M95.0657 525.917C95.4972 527.097 96.3988 528.044 97.5552 528.533C98.7116 529.022 100.019 529.009 101.166 528.497C101.548 528.269 101.886 527.974 102.166 527.627C102.937 526.851 103.383 525.811 103.416 524.717C103.437 522.876 102.199 521.258 100.416 520.797L100.096 520.727C99.901 520.684 99.704 520.65 99.5057 520.627H99.1357C99.0157 520.627 98.8857 520.627 98.7657 520.627H98.5457L98.1857 520.697C97.9849 520.734 97.7876 520.788 97.5957 520.857L97.2857 520.977C97.0875 521.065 96.8968 521.168 96.7157 521.287L96.4857 521.437C96.2733 521.592 96.0758 521.766 95.8957 521.957L95.8157 522.027C94.8858 523.013 94.5676 524.428 94.9857 525.717C95.0157 525.807 95.0157 525.857 95.0657 525.917Z" fill="#231F20"/>
<path d="M59.4248 492.757C59.5777 492.606 59.7182 492.442 59.8448 492.267C61.1026 490.952 61.7985 489.198 61.7848 487.377C61.7848 484.377 59.2848 482.037 56.2848 483.187C53.2848 484.337 52.5648 487.897 52.9848 490.807C53.2028 492.227 54.2162 493.395 55.5905 493.811C56.9649 494.227 58.456 493.817 59.4248 492.757Z" fill="#231F20"/>
<path d="M46.3478 546.067C44.4237 546.148 42.6424 547.105 41.512 548.664C40.3816 550.223 40.0265 552.214 40.5478 554.067C41.5478 557.797 46.2978 560.827 48.9278 556.697C49.1627 556.329 49.3571 555.937 49.5078 555.527C50.2966 554.485 50.6803 553.192 50.5878 551.887C51.1778 549.027 49.9078 546.047 46.3478 546.067Z" fill="#231F20"/>
</svg>
