<svg width="556" height="484" viewBox="0 0 556 484" fill="none" xmlns="http://www.w3.org/2000/svg">
<path fill-rule="evenodd" clip-rule="evenodd" d="M130.399 245.814H130.4C135.928 245.581 141.433 245.35 146.893 245.216C205.893 243.766 264.813 245.056 323.753 247.486C346.562 248.424 369.364 249.479 392.17 250.534L392.175 250.535L392.191 250.535L392.207 250.536L392.224 250.537L392.24 250.538L392.256 250.538L392.272 250.539L392.288 250.54L392.304 250.54L392.32 250.541L392.336 250.542C399.161 250.858 405.987 251.174 412.813 251.486C427.353 252.153 441.896 252.786 456.443 253.386L456.862 253.404H456.862C470.197 253.948 483.761 254.503 496.963 252.216C519.493 248.326 544.763 233.456 544.963 207.766C545.053 196.026 541.313 178.766 530.143 172.576C521.623 167.816 509.833 169.006 502.843 175.926C498.683 180.036 493.033 174.826 495.223 170.046C508.223 141.786 502.713 108.906 486.813 83.0465C473.633 61.6065 453.723 44.9265 432.073 32.4965C409.013 19.2665 382.563 10.5765 355.773 11.1165C330.473 11.6265 306.633 21.4565 289.523 40.2665C273.683 57.6521 265.152 80.4733 265.703 103.986C265.863 109.606 258.753 110.586 255.913 106.636C239.913 84.3965 209.773 72.9465 183.133 79.7065C156.493 86.4665 135.133 110.636 131.733 138.026C130.933 144.466 120.793 144.566 121.473 138.126C101.163 117.046 67.873 122.826 44.553 136.546C22.733 149.386 3.82297 172.936 12.263 199.546C19.503 222.336 41.743 236.866 63.973 242.356C85.5486 247.698 108.163 246.748 130.399 245.814ZM502.733 238.176C503.759 238.06 504.653 236.662 505.338 235.589L505.338 235.589C505.534 235.282 505.713 235.002 505.873 234.786C506.333 234.167 506.752 233.621 507.166 233.081L507.171 233.075C507.404 232.771 507.636 232.469 507.873 232.156C508.082 231.889 508.292 231.608 508.505 231.32C509.652 229.779 510.915 228.081 512.803 227.676C513.078 227.606 513.369 227.665 513.595 227.837C513.821 228.008 513.957 228.273 513.963 228.556C513.89 231.081 511.502 233.473 509.554 235.424L509.554 235.424C509.11 235.869 508.689 236.291 508.323 236.686L508.233 236.785L508.138 236.888C508.076 236.956 508.012 237.026 507.948 237.097L507.945 237.1C506.493 238.701 504.572 240.817 502.323 239.596C501.623 239.206 502.043 238.256 502.733 238.176ZM483.983 150.956C486.783 147.386 486.783 142.256 485.143 138.176V138.126C484.643 136.876 482.423 136.866 482.563 138.526C482.762 141.005 482.582 143.394 482.4 145.795C482.29 147.25 482.179 148.71 482.153 150.196C482.143 151.046 483.393 151.706 483.983 150.956ZM457.053 64.8965C465.773 72.6665 472.743 81.1265 477.423 91.8965C481.473 101.276 485.253 113.366 483.073 123.646C482.886 124.249 482.328 124.659 481.698 124.659C481.067 124.659 480.51 124.249 480.323 123.646C479.436 119.992 478.818 116.374 478.204 112.781C477.101 106.327 476.011 99.9526 473.403 93.5865C469.335 83.3935 463.351 74.0752 455.773 66.1365C454.953 65.2965 456.193 64.0765 457.053 64.8465V64.8965ZM471.163 242.776C462.163 242.326 453.163 241.826 444.163 241.136C443.682 241.059 443.23 241.386 443.153 241.866C443.076 242.347 443.402 242.799 443.883 242.876C453.683 244.947 463.624 246.284 473.623 246.876C474.618 246.934 475.696 247.028 476.825 247.125C483.125 247.671 491.033 248.356 495.273 243.776C495.923 243.116 495.513 241.686 494.433 241.776C493.847 241.827 493.264 241.877 492.684 241.927L492.683 241.928L492.682 241.928L492.681 241.928L492.671 241.929C485.413 242.558 478.613 243.147 471.163 242.776ZM413.423 168.096C418.243 165.386 423.913 166.696 428.763 168.536C429.169 168.693 429.532 168.943 429.823 169.266C431.222 169.726 432.526 170.434 433.673 171.356C435.343 172.749 436.633 174.541 437.423 176.566C440.983 183.006 439.423 192.046 432.313 196.306C421.503 202.806 409.263 193.766 407.723 182.396C407.023 177.026 408.423 170.936 413.423 168.096ZM246.185 101.376C245.644 100.931 245.104 100.486 244.593 100.026C244.198 99.7759 243.681 99.833 243.35 100.164C243.02 100.495 242.962 101.011 243.213 101.406C243.605 101.855 243.986 102.317 244.366 102.779C244.858 103.376 245.349 103.972 245.863 104.536C246.646 105.541 247.681 106.321 248.863 106.796C249.179 106.882 249.517 106.792 249.75 106.562C249.983 106.331 250.076 105.994 249.993 105.676C249.51 104.496 248.727 103.462 247.723 102.676C247.224 102.232 246.704 101.804 246.186 101.377L246.186 101.377L246.185 101.376ZM239.213 184.936C239.863 191.256 241.073 197.066 246.813 200.776C250.983 203.476 257.283 204.876 262.133 203.546C270.401 201.289 270.329 192.942 270.26 184.964C270.216 179.935 270.174 175.053 272.223 171.936C273.043 170.686 274.923 169.936 276.283 170.866C283.813 176.156 280.993 190.596 278.493 198.096C275.733 206.386 270.353 212.466 261.283 213.276C246.473 214.586 223.883 200.466 233.283 183.276C234.943 180.336 238.913 182.026 239.213 184.936ZM199.417 85.8891L199.417 85.8891C196.838 86.4937 194.259 87.0984 191.653 87.4665C190.643 87.6065 190.873 89.3365 191.953 89.2565C194.469 89.0537 197.02 88.6212 199.584 88.1865C204.735 87.3135 209.936 86.4318 215.003 87.3865C219.014 88.1433 222.517 90.0509 226.026 91.9621C228.405 93.2578 230.788 94.5551 233.333 95.4965C234.253 95.8465 234.863 94.5565 234.253 93.9265C229.244 88.7975 222.727 85.4025 215.653 84.2365C210.09 83.3869 204.755 84.6377 199.417 85.8891ZM102.423 135.666C102.616 135.738 102.822 135.812 103.035 135.888C105.255 136.682 108.335 137.784 108.043 140.576C108.035 140.916 107.873 141.234 107.602 141.44C107.332 141.646 106.983 141.719 106.653 141.636C105.359 141.406 104.505 140.482 103.643 139.549C103.007 138.86 102.367 138.167 101.543 137.746C100.423 137.166 101.223 135.226 102.423 135.666ZM106.223 180.696C102.561 181.707 99.5931 184.393 98.223 187.936H98.233C95.7447 191.17 94.936 195.392 96.053 199.316C98.373 206.476 106.853 210.066 113.853 207.796C121.103 205.169 125.223 197.515 123.423 190.016C121.493 182.696 113.363 178.696 106.223 180.696ZM52.103 138.936C56.773 132.836 65.003 130.746 72.263 129.426C79.523 128.106 89.423 127.666 94.723 133.646C95.0342 133.988 95.091 134.491 94.8636 134.893C94.6363 135.296 94.1762 135.507 93.723 135.416C92.1869 135.113 90.7103 134.781 89.2648 134.456L89.2644 134.456C83.8969 133.248 78.9589 132.137 73.003 132.956C66.413 133.866 58.533 135.246 53.663 140.126C52.883 140.916 51.423 139.866 52.113 138.966L52.103 138.936ZM50.733 221.526C42.663 216.846 35.933 209.526 33.103 200.526L33.093 200.556C32.9399 200.207 32.5537 200.022 32.1854 200.122C31.817 200.222 31.5777 200.577 31.623 200.956C35.633 220.686 57.953 234.156 77.483 233.156C78.2238 233.121 78.8339 232.562 78.9343 231.827C79.0347 231.092 78.597 230.39 77.893 230.156C74.612 229.053 71.3104 228.275 68.0251 227.5C62.1384 226.112 56.3039 224.736 50.733 221.526Z" fill="#88E0FF"/>
<path d="M396.424 261.796C394.474 266.846 392.424 271.876 390.704 277.016C388.99 282.4 386.891 287.654 384.424 292.736L408.924 290.736C412.924 290.416 414.824 295.146 413.224 298.236C404.904 314.283 396.57 330.323 388.224 346.356L402.644 336.126C407.914 330.076 413.644 324.336 418.794 318.346C423.334 313.053 427.82 307.72 432.254 302.346C434.254 299.856 436.254 297.136 438.344 294.616L434.484 294.676C430.924 294.766 427.994 290.296 430.184 287.196C435.544 279.586 440.754 271.816 446.184 264.266C436.774 263.846 427.354 263.316 417.944 262.866L396.424 261.796Z" fill="#FFF200"/>
<path d="M434.814 304.896C430.687 310.003 426.49 315.053 422.224 320.046C420.714 321.816 419.224 323.626 417.684 325.456C432.044 315.276 446.4 305.093 460.754 294.906C454.834 294.66 448.914 294.54 442.994 294.546C440.644 298.236 437.514 301.546 434.814 304.896Z" fill="#F7941E"/>
<path d="M392.673 261.606L391.203 261.536C385.991 272.739 379.864 283.492 372.883 293.686L380.143 293.086C382.953 286.326 385.863 279.676 388.313 272.746C389.571 268.96 391.027 265.241 392.673 261.606Z" fill="#F7941E"/>
<path d="M109.593 195.796C111.943 195.296 112.353 192.426 113.533 190.426C113.423 190.315 113.306 190.212 113.183 190.116C111.083 188.516 107.053 188.726 106.603 191.816C106.333 193.646 107.423 196.246 109.593 195.796Z" fill="white"/>
<path d="M427.323 181.986C427.191 181.359 427.161 180.714 427.233 180.076C426.462 179.519 425.488 179.321 424.561 179.534C423.634 179.746 422.844 180.349 422.393 181.186C419.353 185.796 428.593 187.956 427.323 181.986Z" fill="white"/>
<path d="M318.223 277.596C314.563 277.426 311.223 273.126 313.673 269.666C316.353 265.866 319.063 262.086 321.763 258.296L314.763 257.986C300.216 257.373 285.656 256.843 271.083 256.396C268.993 261.136 267.083 265.886 265.353 270.816C263.953 274.816 262.503 279.456 259.653 282.716L289.653 281.236C294.313 281.006 295.593 286.596 293.133 289.636C277.573 308.926 261.773 328.016 245.973 347.116C258.463 346.186 270.973 345.166 283.433 344.286C287.893 343.966 290.163 350.116 287.063 353.036C285.503 354.506 283.973 355.986 282.433 357.466C278.833 365.186 273.233 372.316 268.323 379.076C262.413 387.226 256.243 395.186 250.043 403.076C243.113 411.946 236.113 420.766 229.413 429.816C225.773 434.746 222.413 439.926 219.043 445.046C262.443 410.456 308.353 379.046 349.973 342.256C336.016 338.335 321.618 336.198 307.123 335.896C304.672 335.753 302.584 334.064 301.933 331.696C301.495 331.303 301.391 330.658 301.683 330.146L301.833 329.846C301.94 329.181 302.196 328.548 302.583 327.996L303.273 326.996C311.753 310.276 321.273 293.996 330.163 277.436C326.189 277.702 322.203 277.755 318.223 277.596Z" fill="#FFF200"/>
<path d="M74.9737 426.406L74.3438 427.266C123.344 387.036 172.994 347.756 224.204 310.396C219.537 309.496 214.817 308.703 210.044 308.016C184.664 330.076 159.264 352.12 133.844 374.146C114.024 391.306 94.6937 409.106 74.9737 426.406Z" fill="#F7941E"/>
<path d="M148.543 255.486L136.873 255.726C123.873 272.726 110.703 289.556 98.2734 306.996L103.983 306.496C110.343 297.186 118.743 289.046 126.203 280.676C133.663 272.306 140.673 263.396 148.543 255.486Z" fill="#F7941E"/>
<path d="M340.744 276.376C338.794 276.676 336.824 276.926 334.854 277.126C331.184 284.416 327.424 291.756 323.504 299.026C329.177 291.42 334.924 283.87 340.744 276.376Z" fill="#F7941E"/>
<path d="M153.973 255.376C146.913 264.566 138.393 272.876 130.613 281.456C123.223 289.606 116.113 298.696 107.893 306.156C126.523 304.516 145.163 302.676 163.793 301.076C168.333 300.686 169.543 306.396 167.183 309.256C139.793 342.456 112.603 375.766 86.8926 410.256C101.553 397.176 116.673 384.536 131.343 371.686C155.856 350.206 180.403 328.77 204.983 307.376C201.309 306.896 197.626 306.483 193.933 306.136C190.363 305.816 186.933 301.796 189.413 298.246C199.799 283.58 210.639 269.23 221.933 255.196C218.003 255.126 214.073 255.036 210.153 254.976C191.423 254.676 172.693 254.996 153.973 255.376Z" fill="#FFF200"/>
<path d="M267.423 256.286L258.293 255.986C254.28 265.538 249.462 274.731 243.893 283.466L255.893 282.896C255.893 282.896 255.893 282.826 255.893 282.786C258.143 276.886 261.213 271.296 263.423 265.296C264.474 262.176 265.813 259.159 267.423 256.286Z" fill="#F7941E"/>
<path d="M244.353 403.896C251.353 395.046 258.353 386.226 264.983 377.156C266.723 374.796 268.383 372.336 270.043 369.866C244.724 396.358 222.551 425.686 203.963 457.266C205.533 455.966 207.113 454.686 208.693 453.396C213.163 444.316 219.913 435.906 225.903 427.826C231.893 419.746 238.123 411.796 244.353 403.896Z" fill="#F7941E"/>
<path d="M233.303 183.326C223.883 200.466 246.473 214.586 261.303 213.326C270.373 212.516 275.753 206.436 278.513 198.146C281.013 190.646 283.833 176.206 276.303 170.916C274.943 169.916 273.063 170.736 272.243 171.986C266.943 180.046 275.633 199.916 262.153 203.596C257.303 204.926 251.003 203.526 246.833 200.826C241.093 197.116 239.883 191.306 239.233 184.986C238.913 182.026 234.943 180.336 233.303 183.326Z" fill="#231F20"/>
<path fill-rule="evenodd" clip-rule="evenodd" d="M123.472 189.986C125.284 197.509 121.136 205.187 113.852 207.796C106.902 210.096 98.4221 206.506 96.0921 199.316C94.965 195.383 95.7742 191.148 98.2721 187.906C99.6422 184.363 102.61 181.677 106.272 180.666C113.412 178.716 121.542 182.636 123.472 189.986ZM113.182 190.096C111.082 188.496 107.052 188.706 106.602 191.796C106.332 193.646 107.422 196.246 109.592 195.776C111.287 195.416 111.973 193.823 112.666 192.212C112.934 191.589 113.203 190.964 113.532 190.406C113.422 190.295 113.305 190.192 113.182 190.096Z" fill="#231F20"/>
<path fill-rule="evenodd" clip-rule="evenodd" d="M437.453 176.566C441.013 183.006 439.433 192.046 432.343 196.306C421.533 202.796 409.293 193.796 407.753 182.396C407.023 177.026 408.453 170.936 413.453 168.096C418.273 165.386 423.943 166.696 428.793 168.536C429.199 168.693 429.562 168.943 429.853 169.266C431.252 169.726 432.556 170.434 433.703 171.356C435.373 172.749 436.663 174.541 437.453 176.566ZM424.591 179.534C423.664 179.746 422.874 180.349 422.423 181.186C419.353 185.796 428.593 187.956 427.353 181.986C427.221 181.359 427.191 180.714 427.263 180.076C426.492 179.519 425.518 179.321 424.591 179.534Z" fill="#231F20"/>
<path fill-rule="evenodd" clip-rule="evenodd" d="M107.493 256.146C79.143 256.326 49.453 252.916 26.603 234.646C7.67296 219.496 -4.24704 195.316 2.98296 171.006C15.923 128.116 88.613 93.8364 122.923 129.576C129.553 101.116 151.483 76.8865 180.293 69.4665C207.333 62.5265 236.163 71.4265 255.723 90.5265C258.577 65.7606 270.342 42.8783 288.823 26.1465C333.993 -14.4235 401.193 -0.683549 447.763 29.9065C470.673 44.9565 491.263 65.3264 502.513 90.6665C512.353 112.836 515.033 137.856 508.593 161.036C515.408 158.61 522.834 158.508 529.713 160.746C543.853 165.326 550.513 178.246 553.783 191.906C557.393 206.936 555.963 222.216 546.873 235.026C538.713 246.526 526.563 254.706 513.333 259.296C498.903 264.306 483.253 265.096 468.123 264.866C464.736 264.806 461.376 264.72 458.043 264.606C453.911 270.916 449.483 277.068 445.067 283.202L444.143 284.486C454.496 284.473 464.83 284.883 475.143 285.716C477.374 285.749 479.313 287.257 479.896 289.41C480.478 291.564 479.563 293.843 477.653 294.996C443.946 318.936 410.253 342.906 376.573 366.906C372.143 370.056 367.483 364.096 369.633 359.966C379.853 340.38 390.096 320.813 400.363 301.266C387.95 302.193 375.533 303.136 363.113 304.096C359.553 304.376 356.923 299.726 358.923 296.796C366.251 286.117 372.854 275.032 379.467 263.93L379.468 263.929C380.056 262.941 380.644 261.954 381.233 260.966C365.52 260.186 349.796 259.446 334.063 258.746C332.65 260.788 331.22 262.829 329.79 264.87L329.777 264.888C329.299 265.571 328.821 266.254 328.343 266.936C336.484 266.566 344.556 265.267 352.403 263.066C357.823 261.546 360.563 267.976 357.483 271.796C343.336 289.363 329.783 307.363 316.823 325.796C332.276 326.772 347.537 329.75 362.223 334.656C365.883 335.886 367.813 340.836 364.613 343.736C337.603 368.26 308.243 389.898 278.89 411.531L278.89 411.531L278.89 411.531L278.89 411.531L278.889 411.532L278.889 411.532L278.889 411.532L278.888 411.532L278.888 411.532L278.888 411.532L278.887 411.533L278.886 411.534C248.263 434.103 217.647 456.666 189.713 482.496C185.473 486.416 179.453 481.496 181.943 476.496C204.489 431.653 234.161 390.766 269.803 355.426C266.884 355.619 263.965 355.808 261.045 355.997L261.016 355.999L260.986 356.001C252.242 356.568 243.495 357.135 234.753 357.786C230.063 358.126 228.803 352.326 231.253 349.326C233.389 346.713 235.524 344.098 237.659 341.484C251.328 324.746 264.994 308.011 278.833 291.396C277.448 291.441 276.063 291.486 274.679 291.53C261.533 291.954 248.388 292.377 235.243 292.956C231.833 293.066 229.343 288.916 231.243 286.066C237.773 276.276 243.453 266.036 249.003 255.706L234.873 255.346C234.709 255.657 234.511 255.949 234.283 256.216C223.563 269.35 213.263 282.79 203.383 296.536C215.15 297.9 226.834 299.903 238.383 302.536C243.233 303.636 243.073 309.776 239.653 312.266C175.893 358.676 112.973 406.606 52.893 457.786C48.843 461.226 41.853 456.736 45.123 451.786C77.623 402.506 115.273 356.886 152.903 311.506C146.534 312.007 140.162 312.49 133.79 312.972C118.923 314.097 104.056 315.221 89.223 316.586C85.943 316.926 83.623 312.576 85.403 309.926C97.873 291.396 110.983 273.066 125.403 255.926C119.463 256.033 113.493 256.106 107.493 256.146ZM132.182 261.821L132.18 261.823C120.689 276.745 109.214 291.646 98.273 306.996L103.983 306.496C108.55 299.811 114.231 293.688 119.789 287.697L119.789 287.697L119.791 287.695L119.791 287.695L119.791 287.695L119.793 287.693C121.973 285.342 124.135 283.012 126.203 280.676C128.603 277.966 130.981 275.18 133.369 272.382C138.285 266.622 143.246 260.81 148.543 255.486L136.873 255.726C135.31 257.759 133.745 259.791 132.182 261.821ZM224.203 310.396C172.993 347.796 123.303 387.036 74.343 427.266L74.973 426.406C83.6592 418.786 92.2697 411.069 100.88 403.352L100.882 403.35L100.883 403.349C111.819 393.547 122.754 383.747 133.843 374.146C159.283 352.146 184.683 330.103 210.043 308.016C214.783 308.71 219.503 309.503 224.203 310.396ZM193.943 306.096C190.373 305.776 186.903 301.756 189.423 298.206C199.83 283.526 210.67 269.163 221.943 255.116C220.366 255.088 218.79 255.057 217.214 255.026L217.21 255.026C214.859 254.979 212.509 254.932 210.163 254.896C191.413 254.636 172.703 254.956 153.983 255.336C149.061 261.743 143.43 267.722 137.834 273.663L137.834 273.664C135.403 276.244 132.979 278.818 130.623 281.416C128.387 283.883 126.176 286.435 123.953 289.002L123.953 289.002C118.828 294.919 113.636 300.914 107.903 306.116C116.367 305.371 124.834 304.585 133.3 303.798L133.302 303.798L133.305 303.798L133.307 303.798L133.309 303.798L133.311 303.798L133.313 303.797L133.315 303.797L133.318 303.797C143.48 302.853 153.643 301.909 163.803 301.036C168.343 300.646 169.553 306.356 167.193 309.216C139.803 342.456 112.613 375.766 86.903 410.216C95.4523 402.589 104.158 395.11 112.84 387.653L112.84 387.653L112.84 387.652L112.841 387.652L112.841 387.652L112.841 387.652L112.842 387.651L112.842 387.651L112.846 387.647C119.049 382.319 125.24 377.001 131.353 371.646C155.88 350.193 180.426 328.756 204.993 307.336C201.323 306.856 197.513 306.416 193.943 306.096ZM255.883 282.896L243.883 283.466C249.453 274.731 254.27 265.538 258.283 255.986L267.413 256.286C265.804 259.156 264.465 262.169 263.413 265.286C262.261 268.414 260.876 271.429 259.494 274.436L259.494 274.436L259.494 274.437L259.494 274.437L259.494 274.437L259.493 274.438L259.493 274.438L259.493 274.439L259.493 274.439C258.224 277.2 256.96 279.953 255.883 282.776C255.883 282.78 255.883 282.786 255.884 282.793C255.884 282.802 255.885 282.813 255.885 282.825C255.886 282.833 255.885 282.84 255.885 282.848C255.883 282.865 255.88 282.882 255.873 282.896H255.883ZM270.043 369.866C244.724 396.358 222.551 425.686 203.963 457.266C204.612 456.729 205.263 456.195 205.914 455.66C206.839 454.902 207.766 454.141 208.693 453.366C212.484 445.665 217.916 438.438 223.133 431.497C224.067 430.255 224.994 429.022 225.903 427.796C231.893 419.726 238.123 411.796 244.353 403.896L245.026 403.04L245.574 402.345L246.603 401.037C252.817 393.143 259.031 385.249 264.983 377.156C266.723 374.796 268.383 372.336 270.043 369.866ZM340.743 276.376C334.916 283.856 329.17 291.406 323.503 299.026C327.423 291.756 331.183 284.416 334.853 277.126C336.823 276.926 338.793 276.676 340.743 276.376ZM320.296 295.361C323.593 289.417 326.89 283.472 330.113 277.496C326.139 277.762 322.153 277.815 318.173 277.656C314.513 277.486 311.183 273.186 313.623 269.726C315.551 266.992 317.495 264.269 319.439 261.545L319.441 261.542L319.443 261.539L319.445 261.536L319.447 261.533L320.523 260.026C320.92 259.469 321.316 258.913 321.713 258.356L314.713 258.046C300.153 257.453 285.593 256.923 271.033 256.456C268.943 261.196 267.053 265.946 265.303 270.876C265.222 271.106 265.141 271.339 265.06 271.572L264.936 271.93C263.641 275.664 262.205 279.8 259.603 282.776L289.603 281.296C294.263 281.066 295.543 286.696 293.083 289.696C277.835 308.6 262.356 327.311 246.873 346.028L246.872 346.03L245.923 347.176C250.702 346.82 255.489 346.45 260.279 346.08L260.289 346.079L260.299 346.078L260.309 346.077L260.319 346.077C268.003 345.483 275.697 344.888 283.383 344.346C287.843 344.026 290.113 350.176 287.013 353.096C285.913 354.104 284.829 355.157 283.745 356.209L283.742 356.212C283.289 356.651 282.836 357.091 282.383 357.526C279.31 364.115 274.781 370.274 270.467 376.14L270.467 376.141L270.466 376.143L270.465 376.144L270.442 376.175C269.71 377.17 268.984 378.157 268.273 379.136C262.363 387.256 256.193 395.216 249.993 403.136C248.711 404.778 247.426 406.417 246.141 408.057L246.139 408.06L246.137 408.062C240.48 415.282 234.822 422.503 229.363 429.876C226.406 433.882 223.653 438.052 220.902 442.221L220.9 442.223L220.898 442.227L220.895 442.231L220.892 442.235L220.889 442.239C220.258 443.196 219.627 444.152 218.993 445.106C235.093 432.274 251.539 419.873 267.983 407.473L267.986 407.471L267.988 407.469L267.989 407.469C295.869 386.445 323.745 365.425 349.923 342.316C335.966 338.395 321.568 336.258 307.073 335.956C304.622 335.813 302.534 334.124 301.883 331.756C301.445 331.363 301.341 330.718 301.633 330.206L301.783 329.906C301.89 329.241 302.146 328.608 302.533 328.056L303.223 327.056C308.639 316.378 314.467 305.87 320.295 295.362L320.296 295.361ZM372.883 293.686C379.864 283.492 385.991 272.739 391.203 261.536L392.673 261.606C391.025 265.258 389.57 268.993 388.313 272.796C386.358 278.327 384.11 283.678 381.853 289.05C381.282 290.41 380.711 291.771 380.143 293.136L372.883 293.686ZM417.683 325.456C432.05 315.276 446.406 305.093 460.753 294.906C454.846 294.66 448.926 294.54 442.993 294.546C441.339 297.143 439.299 299.552 437.294 301.919L437.293 301.92C436.45 302.916 435.612 303.905 434.813 304.896C430.68 310.003 426.483 315.053 422.223 320.046C420.993 321.46 419.801 322.899 418.597 324.354L418.596 324.355L418.595 324.356C418.292 324.722 417.988 325.089 417.683 325.456ZM430.173 287.166C427.983 290.266 430.913 294.736 434.473 294.646L438.333 294.586C437.177 295.961 436.078 297.394 434.986 298.817L434.985 298.818C434.075 300.005 433.171 301.184 432.243 302.316C427.81 307.71 423.323 313.043 418.783 318.316C416.073 321.486 413.189 324.581 410.295 327.687C407.711 330.46 405.119 333.243 402.633 336.096L388.213 346.326C396.573 330.326 404.906 314.286 413.213 298.206C414.813 295.116 412.903 290.386 408.913 290.706L384.413 292.706C386.871 287.62 388.959 282.363 390.663 276.976C392.423 271.866 394.423 266.796 396.423 261.796L417.973 262.796C421.733 262.976 425.494 263.172 429.255 263.368L429.263 263.368C434.913 263.662 440.565 263.956 446.213 264.196C442.966 268.708 439.81 273.276 436.66 277.836L436.659 277.837C434.504 280.958 432.351 284.075 430.173 287.166ZM121.473 138.106C101.163 117.026 67.873 122.806 44.553 136.526C22.733 149.366 3.82296 172.916 12.263 199.486C19.503 222.336 41.743 236.846 63.973 242.336C85.5334 247.678 108.159 246.728 130.4 245.793C135.929 245.561 141.434 245.33 146.893 245.196C205.873 243.746 264.813 245.036 323.753 247.466C345.424 248.364 367.09 249.363 388.759 250.362C396.776 250.732 404.794 251.102 412.813 251.466C427.36 252.133 441.903 252.766 456.443 253.366L456.919 253.386C470.284 253.93 483.78 254.479 496.963 252.196C519.493 248.306 544.763 233.436 544.963 207.746C545.053 196.006 541.313 178.786 530.143 172.556C521.623 167.796 509.843 168.986 502.843 175.906C498.683 180.026 493.033 174.806 495.223 170.026C508.173 141.776 502.713 108.896 486.813 83.0265C473.633 61.5864 453.723 44.9064 432.073 32.4764C409.013 19.2465 382.563 10.5565 355.773 11.0965C330.473 11.6065 306.633 21.4365 289.523 40.2465C273.683 57.6321 265.152 80.4533 265.703 103.966C265.863 109.616 258.753 110.616 255.913 106.616C239.943 84.3764 209.903 72.8865 183.133 79.6865C156.363 86.4865 135.173 110.616 131.733 138.006C130.933 144.446 120.793 144.546 121.473 138.106Z" fill="#231F20"/>
<path d="M473.422 93.5765C477.482 103.486 477.862 113.416 480.342 123.636C480.529 124.239 481.086 124.649 481.717 124.649C482.348 124.649 482.905 124.239 483.092 123.636C485.272 113.356 481.492 101.266 477.442 91.8865C472.762 81.0765 465.792 72.6165 457.072 64.8865C456.212 64.1165 454.972 65.3365 455.792 66.1665C463.365 74.0934 469.35 83.3977 473.422 93.5765Z" fill="#231F20"/>
<path d="M482.562 138.476C482.882 142.476 482.222 146.206 482.152 150.146C482.152 150.996 483.392 151.656 483.982 150.906C486.782 147.336 486.782 142.206 485.142 138.126C484.642 136.876 482.422 136.866 482.562 138.476Z" fill="#231F20"/>
<path d="M191.904 89.2564C199.474 88.6464 207.364 85.9564 214.954 87.3864C221.684 88.6564 226.954 93.1664 233.284 95.4964C234.214 95.8464 234.814 94.5564 234.204 93.9264C229.194 88.7975 222.677 85.4025 215.604 84.2364C207.404 82.9764 199.664 86.3364 191.604 87.4664C190.644 87.6064 190.874 89.3364 191.904 89.2564Z" fill="#231F20"/>
<path d="M245.862 104.536C246.646 105.541 247.68 106.321 248.862 106.796C249.179 106.882 249.517 106.792 249.749 106.562C249.982 106.331 250.075 105.994 249.992 105.676C249.509 104.496 248.727 103.462 247.722 102.676C246.722 101.766 245.622 100.926 244.592 100.026C244.197 99.7758 243.681 99.8329 243.35 100.164C243.019 100.495 242.961 101.011 243.212 101.406C244.112 102.436 244.952 103.516 245.862 104.536Z" fill="#231F20"/>
<path d="M53.6429 140.156C58.5129 135.276 66.3929 133.896 72.9829 132.986C80.5429 131.986 86.4629 133.986 93.7029 135.446C94.1561 135.537 94.6162 135.326 94.8435 134.923C95.0709 134.521 95.0141 134.018 94.7029 133.676C89.4029 127.676 79.4629 128.136 72.2429 129.456C65.0229 130.776 56.7529 132.866 52.0829 138.966C51.4229 139.866 52.8829 140.916 53.6429 140.156Z" fill="#231F20"/>
<path d="M101.553 137.796C103.493 138.796 104.413 141.286 106.663 141.686C106.993 141.768 107.342 141.696 107.612 141.49C107.883 141.284 108.045 140.966 108.053 140.626C108.373 137.566 104.643 136.536 102.433 135.716C101.223 135.226 100.423 137.166 101.553 137.796Z" fill="#231F20"/>
<path d="M77.4725 233.166C78.2134 233.131 78.8234 232.572 78.9238 231.837C79.0243 231.102 78.5866 230.4 77.8825 230.166C68.6725 227.086 59.4025 226.526 50.7225 221.536C42.6525 216.886 35.9225 209.536 33.0925 200.536C32.9563 200.157 32.5506 199.947 32.1622 200.055C31.7738 200.162 31.5341 200.551 31.6125 200.946C35.6225 220.696 57.9425 234.126 77.4725 233.166Z" fill="#231F20"/>
<path d="M443.923 242.866C453.723 244.937 463.664 246.274 473.663 246.866C480.213 247.246 490.283 249.166 495.313 243.766C495.963 243.076 495.553 241.646 494.473 241.766C486.543 242.446 479.253 243.166 471.203 242.766C462.203 242.316 453.203 241.766 444.203 241.126C443.722 241.049 443.27 241.376 443.193 241.856C443.116 242.337 443.442 242.789 443.923 242.866Z" fill="#231F20"/>
<path d="M502.354 239.596C504.794 240.926 506.854 238.296 508.354 236.686C510.354 234.546 513.904 231.686 513.994 228.556C513.987 228.273 513.852 228.008 513.626 227.837C513.4 227.665 513.108 227.606 512.834 227.676C510.594 228.156 509.234 230.456 507.904 232.156C507.224 233.026 506.544 233.896 505.904 234.786C505.264 235.676 504.084 238.026 502.764 238.176C502.044 238.256 501.624 239.206 502.354 239.596Z" fill="#231F20"/>
</svg>
