<svg width="586" height="565" viewBox="0 0 586 565" fill="none" xmlns="http://www.w3.org/2000/svg">
<path d="M202.68 299.833C195.122 290.384 188.968 279.892 184.41 268.683C183.21 271.363 181.8 274.023 180.41 276.683C181.68 280.683 185.51 285.473 187.02 287.733C189.761 291.839 192.726 295.792 195.9 299.573C202.296 306.996 209.323 313.851 216.9 320.063C224.873 326.618 233.177 332.76 241.78 338.463C248.85 343.213 256.27 347.463 263.31 352.253C265.308 351.172 267.208 349.921 268.99 348.513C267.49 347.863 265.99 347.203 264.49 346.513C240.79 335.573 218.93 320.393 202.68 299.833Z" fill="#FFF200"/>
<path d="M452.04 103.493C463.81 118.423 479.54 128.763 496.18 137.413C503.58 125.653 509.63 113.163 512.38 99.3431C513.66 93.1705 514.26 86.8763 514.17 80.5731C514.1 76.8131 513.11 74.2631 510 71.9831C507.318 70.0932 504.489 68.4212 501.54 66.9831C490.477 61.4814 478.444 58.1996 466.12 57.3231C455.351 56.5248 444.523 57.1299 433.91 59.1231C435.713 75.3105 441.991 90.6753 452.04 103.493Z" fill="#FFF200"/>
<path d="M422.859 242.223C388.989 283.633 353.139 323.573 313.729 359.843C313.959 361.593 312.729 363.513 310.579 362.913C299.844 360.004 289.264 356.553 278.879 352.573C278.879 352.903 278.949 353.233 278.989 353.573C279.058 353.939 278.969 354.317 278.744 354.614C278.52 354.912 278.18 355.1 277.809 355.133C274.279 384.333 275.399 413.673 282.989 442.263C283.909 445.713 284.899 449.153 285.989 452.553C287.149 456.143 288.899 459.443 292.989 457.003C296.129 455.113 298.769 452.073 301.409 449.573C304.049 447.073 306.609 444.643 309.169 442.143C320.359 431.273 331.169 419.993 341.339 408.143C361.919 384.203 379.669 358.003 396.739 331.483C427.649 283.483 457.109 233.413 473.079 178.303C456.679 199.883 440.009 221.253 422.859 242.223Z" fill="#939598"/>
<path d="M513.68 68.1231C530.37 55.1231 546.58 41.5931 562.12 27.2831C563.055 26.2995 564.594 26.2162 565.63 27.0931C570.05 30.6431 576.63 29.0231 579.39 24.2331C581.939 19.5813 581.299 13.8307 577.79 9.85306C574.44 6.08306 568.48 3.93306 563.97 7.02306C560.46 9.42306 558.51 14.4231 560.54 18.3631C561.23 19.5042 560.92 20.9846 559.83 21.7531C541.85 35.5731 524.27 50.0231 506.01 63.4031C506.55 63.7031 507.08 63.9931 507.61 64.3031C509.717 65.4383 511.745 66.7145 513.68 68.1231Z" fill="#FFF200"/>
<path d="M128.18 468.333C127.05 470.423 126.63 471.983 129.79 471.213C132.052 470.663 134.264 469.921 136.4 468.993C141.526 466.691 146.252 463.585 150.4 459.793C158.95 452.203 165.73 442.703 171.78 433.073C178.926 421.78 184.223 409.417 187.47 396.453C189.1 389.903 190.3 383.253 191.27 376.583C191.74 373.363 192.15 370.123 192.53 366.893C192.74 365.153 192.93 363.413 193.12 361.663C193.18 361.083 193.56 359.533 193.62 358.393C189.222 355.254 185.009 351.865 181 348.243C177.364 345.226 174.016 341.879 171 338.243C153.99 342.702 138.174 350.859 124.68 362.133C129.08 361.466 133.496 360.956 137.93 360.603C139.36 360.483 139.65 362.213 138.73 362.993C115.646 382.691 95.9775 406.07 80.5195 432.183C100.744 424.932 120.456 416.322 139.52 406.413C140.35 405.983 141.77 406.563 141.41 407.683C138.962 415.382 135.864 422.859 132.15 430.033C136.851 428.14 141.006 425.105 144.24 421.203C144.617 420.806 145.209 420.701 145.7 420.944C146.191 421.187 146.467 421.722 146.38 422.263C143.306 436.78 138.092 450.759 130.91 463.743C129.99 465.283 129.02 466.783 128.18 468.333Z" fill="#FFF200"/>
<path d="M201.038 357.143C203.148 357.913 204.818 357.643 206.118 355.643C206.728 354.703 207.228 353.763 207.868 352.833C207.993 352.656 208.145 352.501 208.318 352.373C198.469 344.684 189.447 335.991 181.398 326.433C179.658 324.363 177.908 322.193 176.268 319.933C174.268 323.653 170.348 326.933 172.538 331.253C174.818 335.793 179.088 339.783 182.788 343.173C186.762 346.74 190.936 350.079 195.288 353.173C196.998 354.363 199.058 356.433 201.038 357.143Z" fill="#FFF200"/>
<path d="M176.989 237.363L177.529 236.653C177.614 236.012 178.032 235.463 178.629 235.213C182.363 230.523 186.342 226.034 190.549 221.763C223.549 187.653 257.229 153.593 294.549 124.093C311.714 110.363 329.863 97.9096 348.849 86.833C335.554 88.7874 322.45 91.8719 309.679 96.053C295.419 100.793 281.439 106.433 267.679 112.423C218.759 133.713 172.179 161.773 133.209 198.423C123.5 207.542 114.309 217.197 105.679 227.343C101.599 232.143 96.6789 237.143 93.7389 242.743C89.4889 250.823 98.0589 253.893 104.169 255.993C127.629 264.053 153.359 272.313 178.099 265.083C178.972 264.796 179.932 265.011 180.599 265.643C181.049 264.903 181.519 264.163 181.999 263.443C182.091 263.311 182.192 263.184 182.299 263.063C179.834 255.834 178.282 248.326 177.679 240.713C177.116 240.384 176.719 239.831 176.588 239.192C176.456 238.553 176.602 237.888 176.989 237.363Z" fill="#939598"/>
<path d="M373.68 201.573C380.07 201.78 386.035 198.383 389.12 192.783C392.26 186.953 391.66 179.783 390.62 173.443C389.43 166.223 386.28 162.263 379.91 158.703C375.24 156.093 369.58 152.923 364.13 154.013C356.43 157.073 351 167.013 350.08 175.013C348.51 188.573 360.16 201.043 373.68 201.573Z" fill="#939598"/>
<path d="M429.399 84.253C432.659 92.643 437.599 100.253 443.069 107.383C455.499 123.553 471.859 136.863 491.509 142.973C491.79 143.064 492.056 143.196 492.299 143.363C493.039 142.263 493.769 141.153 494.499 140.043C477.229 131.663 461.019 119.773 449.369 104.513C439.579 91.683 432.369 75.733 432.369 59.403C430.209 59.8096 428.056 60.263 425.909 60.763C425.849 68.943 426.329 76.353 429.399 84.253Z" fill="white"/>
<path d="M407.569 99.243C412.235 108.578 417.977 117.334 424.679 125.333C431.684 133.644 439.665 141.081 448.449 147.483C457.359 154.003 466.989 158.333 476.759 163.283L477.039 163.463C477.31 162.568 478.045 161.89 478.959 161.693C482.399 157.153 485.839 152.563 489.149 147.883C468.569 141.513 451.529 127.243 438.589 110.293C432.529 102.353 427.199 93.633 423.919 84.153C421.539 77.303 419.919 69.253 421.219 61.903C414.129 63.733 407.139 65.983 400.299 68.483C398.789 79.343 402.769 89.623 407.569 99.243Z" fill="#58595B"/>
<path fill-rule="evenodd" clip-rule="evenodd" d="M322.54 344.133C318.106 348.373 313.64 352.58 309.14 356.753C261.94 343.393 214.21 319.123 191.92 273.043C186.723 262.078 183.293 250.36 181.76 238.323C187.937 230.815 194.815 223.902 201.679 217.004C203.015 215.661 204.35 214.319 205.68 212.973C213.626 204.886 221.643 196.863 229.73 188.903C246.24 172.643 263.12 156.773 280.81 141.773C315.27 112.573 353.01 86.623 395.33 70.333C393.89 79.713 397.54 89.503 401.33 97.913C406.161 108.623 412.378 118.652 419.82 127.743C427.124 136.691 435.523 144.687 444.82 151.543C453.68 158.043 463.73 164.463 474.27 167.893C458.68 188.573 442.78 209.013 426.54 229.133C394.04 269.373 359.86 308.313 322.54 344.133ZM412.2 160.813C403.76 143.663 384.43 132.463 365.32 134.003C342.47 135.843 328.83 158.303 330.72 179.733C331.36 191.793 336.15 203.713 345.36 211.383C353.95 218.543 365.17 221.513 376.17 222.213C386.99 222.893 396.06 220.733 403.91 212.893C417.28 199.553 420.47 177.643 412.2 160.813Z" fill="#BE1E2D"/>
<path fill-rule="evenodd" clip-rule="evenodd" d="M381.39 216.953C371.89 217.053 361.86 215.303 353.57 210.493C336.26 200.453 334.53 180.113 337.23 162.263C337.967 160.026 338.911 157.864 340.05 155.803C344.36 147.993 351.58 141.783 360.36 139.683C377.06 135.693 395.51 144.533 404.78 158.533C413.598 172.258 413.52 189.886 404.58 203.533C399.17 211.673 391.29 216.853 381.39 216.953ZM377.98 209.173C379.627 209.572 381.35 209.538 382.98 209.073C384.38 208.643 386.26 207.743 386.83 206.323C386.923 206.126 386.891 205.892 386.748 205.728C386.605 205.563 386.378 205.499 386.17 205.563C385.48 205.788 384.845 206.168 384.207 206.55C383.624 206.899 383.04 207.249 382.41 207.483C381.018 208.022 379.532 208.28 378.04 208.243C377.5 208.223 377.47 209.063 377.98 209.173ZM400.51 171.573C405.82 181.883 404.14 196.783 394.22 203.863C393.59 204.313 392.98 203.443 393.39 202.863C400.3 193.723 403.7 183.133 399.84 171.863C399.68 171.573 400.32 171.203 400.51 171.573ZM372.17 144.313C370.126 143.434 367.869 143.177 365.68 143.573C365.09 143.623 364.95 144.573 365.61 144.653C366.604 144.733 367.591 144.894 368.578 145.055C369.696 145.237 370.814 145.419 371.94 145.483C372.58 145.523 372.67 144.573 372.17 144.313ZM342.38 163.773C342.21 164.333 341.38 164.193 341.47 163.593C343.07 155.443 350.27 144.593 359.57 144.243C359.877 144.237 360.152 144.432 360.248 144.723C360.345 145.015 360.24 145.335 359.99 145.513C358.735 146.312 357.46 146.977 356.197 147.637C353.808 148.885 351.464 150.108 349.39 152.163C346.137 155.4 343.73 159.387 342.38 163.773ZM359.07 151.723L358.89 151.873C354.233 154.76 350.529 158.954 348.24 163.933C342.83 175.773 344.24 189.283 354.24 198.193C363.75 206.693 378.3 210.333 388.75 201.333C398.53 192.963 398.42 176.463 393.75 165.333C390.87 158.493 384.27 154.903 377.87 151.843C375.82 150.837 373.654 150.088 371.42 149.613C370.459 149.383 369.477 149.249 368.49 149.213H368.02C364.844 149.065 361.706 149.946 359.07 151.723Z" fill="#58595B"/>
<path d="M216.339 351.783C221.879 355.783 228.279 361.063 235.459 361.163C241.779 361.253 248.519 358.363 254.379 356.213C256.379 355.483 258.379 354.683 260.269 353.793C252.049 349.003 244.119 343.493 236.319 338.143C227.131 331.932 218.355 325.131 210.049 317.783C201.952 310.625 194.649 302.615 188.269 293.893C185.179 289.652 182.428 285.175 180.039 280.503C179.759 279.963 179.479 279.393 179.219 278.813C174.679 287.573 170.679 296.413 174.399 306.373C178.949 318.613 189.849 328.863 199.159 337.583C204.583 342.67 210.321 347.413 216.339 351.783Z" fill="#58595B"/>
<path d="M169.42 477.803C170.07 483.228 169.932 488.718 169.01 494.103C200.78 458.613 204.79 407.723 198.1 362.023C198.065 361.761 198.065 361.495 198.1 361.233C197.54 360.913 196.99 360.563 196.43 360.233C196.24 361.513 195.94 362.763 195.83 363.743C195.35 368.223 194.83 372.743 194.17 377.173C192.986 385.831 191.184 394.392 188.78 402.793C184.51 417.243 177.41 430.193 168.78 442.473C161.91 452.253 153.97 461.823 143.69 468.173C139.18 470.943 133.36 473.953 127.98 474.303C123.4 474.603 124.2 469.983 125.8 467.173C133.304 454.343 139.023 440.549 142.8 426.173C139.082 429.57 134.635 432.067 129.8 433.473C129.321 433.618 128.801 433.468 128.473 433.09C128.145 432.712 128.069 432.177 128.28 431.723C132.121 424.74 135.357 417.44 137.95 409.903C118.557 419.883 98.5112 428.54 77.9496 435.813C77.4591 435.963 76.926 435.811 76.5889 435.424C76.2518 435.037 76.1738 434.488 76.3896 434.023C91.66 407.553 111.154 383.756 134.1 363.573C129.53 364.053 124.99 364.673 120.45 365.443C119.918 365.469 119.421 365.175 119.188 364.696C118.955 364.217 119.031 363.645 119.38 363.243C133.572 350.133 150.83 340.798 169.57 336.093C168.941 335.136 168.387 334.133 167.91 333.093C125.718 334.541 85.9626 353.215 57.9096 384.763L78.2496 381.573C80.3296 381.243 81.8696 384.313 80.2496 385.733C68.9656 395.896 58.995 407.429 50.5696 420.063C36.0796 441.613 25.3796 465.643 16.7096 490.063C9.31964 510.873 3.84964 532.873 5.70964 555.063C31.9196 517.973 69.3496 491.343 107.16 466.953C108.019 466.418 109.113 466.438 109.953 467.004C110.793 467.569 111.222 468.575 111.05 469.573C105.273 496.167 97.3603 522.251 87.3896 547.573C119.55 532.143 143.57 504.183 164.77 476.163C166.25 474.253 169.17 475.723 169.42 477.803Z" fill="#F7941E"/>
<path fill-rule="evenodd" clip-rule="evenodd" d="M161.569 501.883C160.996 503.08 161.382 504.517 162.478 505.265C163.574 506.014 165.052 505.852 165.959 504.883C204.849 468.753 210.909 412.743 203.779 362.883C207.599 362.603 210.719 359.493 211.829 355.103C220.649 361.753 229.829 368.313 241.459 365.853C252.459 363.513 264.949 359.153 273.559 351.433C268.559 378.903 269.759 407.683 275.729 434.873C277.153 442.044 279.084 449.106 281.509 456.003C283.379 461.003 287.329 464.813 292.979 462.943C297.723 461.364 301.814 457.123 305.518 453.283C306.624 452.137 307.696 451.026 308.739 450.033C314.659 444.38 320.473 438.616 326.179 432.743C349.549 408.603 369.739 381.983 388.409 354.103C407.079 326.223 425.119 297.913 441.079 268.443C458.489 236.323 473.139 202.563 481.809 167.003C487.999 158.943 494.129 150.743 499.619 142.183C500.458 141.994 500.986 141.162 500.799 140.323C506.896 130.856 511.746 120.641 515.229 109.933C517.032 104.119 518.267 98.1447 518.919 92.093C518.963 91.6965 519.008 91.2943 519.053 90.8874C519.616 85.8453 520.261 80.0747 518.919 75.263C518.561 74.008 517.989 72.824 517.229 71.763C533.409 59.163 549.076 45.9463 564.229 32.113C570.416 35.627 578.244 34.0734 582.619 28.463C587.539 22.063 586.849 12.593 581.619 6.64301C576.619 0.98301 567.879 -1.54699 561.279 2.88301C556.025 6.38233 553.704 12.925 555.579 18.953C549.604 23.6569 543.572 28.3084 537.538 32.9619C525.497 42.2473 513.447 51.5405 501.809 61.273C498.26 59.608 494.61 58.1685 490.879 56.963C467.299 49.293 441.879 51.163 418.269 57.473C397.132 63.2743 376.744 71.5234 357.519 82.053C357.209 81.8979 356.866 81.8223 356.519 81.833C341.679 81.773 326.799 85.573 312.779 89.973C298.759 94.373 285.119 99.753 271.629 105.453C245.267 116.5 219.82 129.617 195.529 144.683C171.164 159.777 148.4 177.314 127.589 197.023C117.304 206.806 107.62 217.201 98.5893 228.153C97.9157 228.972 97.1988 229.808 96.4662 230.662C93.0553 234.639 89.3011 239.017 87.9593 243.923C86.5093 249.363 89.1893 254.133 93.8093 256.983C98.4059 259.828 103.964 261.531 109.277 263.159C110.818 263.631 112.339 264.097 113.809 264.583C121.191 267.069 128.71 269.125 136.329 270.743C150.039 273.533 164.119 274.143 177.709 270.623C176.252 273.356 174.9 276.158 173.566 278.925L173.564 278.928L173.564 278.93C173.068 279.958 172.575 280.98 172.079 281.993C169.499 287.283 167.429 292.883 167.659 298.863C167.889 305.063 170.289 310.783 173.549 316.023C171.719 317.569 170.35 319.972 169.161 322.061L169.16 322.062L169.16 322.063C168.972 322.392 168.789 322.714 168.609 323.023C167.579 324.684 166.955 326.565 166.789 328.513C121.699 329.643 78.0193 351.453 49.7893 386.583C48.5493 388.133 49.4993 391.103 51.7893 390.743L70.7893 387.743C53.3793 404.853 39.7893 425.493 29.0293 447.353C17.6793 470.473 7.67933 495.433 2.73933 520.753C0.0593272 534.463 -0.790673 548.523 1.33933 562.363C1.44966 563.51 2.2958 564.449 3.42441 564.679C4.55302 564.909 5.69938 564.375 6.24933 563.363C30.7693 525.843 67.4993 498.663 104.679 474.573C98.5875 500.83 90.3978 526.556 80.1893 551.503C79.3993 553.423 81.1093 556.123 83.3793 555.173C117.149 540.993 142.379 513.793 164.459 485.353C164.415 490.985 163.439 496.57 161.569 501.883ZM263.289 352.253C259.739 349.834 256.07 347.553 252.394 345.268C248.822 343.048 245.243 340.823 241.759 338.463C233.156 332.76 224.852 326.618 216.879 320.063C209.302 313.851 202.275 306.996 195.879 299.573C192.681 295.797 189.694 291.847 186.929 287.743C186.616 287.275 186.204 286.7 185.735 286.047L185.734 286.046C183.941 283.547 181.326 279.903 180.319 276.693L180.413 276.517C181.791 273.906 183.165 271.304 184.319 268.693C188.906 279.904 195.09 290.392 202.679 299.833C218.979 320.393 240.839 335.573 264.519 346.513C266.009 347.203 267.519 347.863 269.019 348.513C267.221 349.923 265.304 351.174 263.289 352.253ZM341.339 408.173C361.919 384.233 379.669 358.033 396.739 331.513C427.679 283.493 457.109 233.443 473.079 178.353C456.669 199.903 440.009 221.243 422.859 242.243C388.989 283.653 353.139 323.623 313.729 359.863C313.959 361.613 312.739 363.533 310.579 362.933C299.845 360.027 289.265 356.579 278.879 352.603C278.891 352.7 278.905 352.797 278.92 352.895L278.92 352.896C278.955 353.129 278.989 353.364 278.989 353.603C279.059 353.969 278.97 354.347 278.745 354.645C278.52 354.942 278.18 355.13 277.809 355.163C274.279 384.363 275.399 413.703 282.989 442.293C283.899 445.743 284.889 449.183 285.989 452.583C287.159 456.173 288.909 459.473 292.989 457.033C295.355 455.609 297.436 453.533 299.448 451.527L299.448 451.527L299.45 451.524C300.108 450.868 300.759 450.219 301.409 449.603C304.023 447.15 306.609 444.673 309.169 442.173C320.339 431.283 331.159 420.003 341.339 408.173ZM559.789 21.753C560.879 20.9846 561.189 19.5042 560.499 18.363C558.499 14.423 560.419 9.42301 563.929 7.02301C568.439 3.93301 574.399 6.08301 577.749 9.85301C581.259 13.8307 581.899 19.5812 579.349 24.233C576.579 29.023 570.009 30.643 565.589 27.093C564.554 26.2161 563.014 26.2995 562.079 27.283C546.539 41.573 530.329 55.173 513.679 68.123C511.767 66.7171 509.762 65.4409 507.679 64.303C507.246 64.0496 506.813 63.8096 506.374 63.5665L506.374 63.5662L506.079 63.403C517.525 54.9838 528.73 46.1409 539.934 37.2979C546.536 32.0874 553.138 26.8769 559.789 21.753ZM501.539 66.983C490.477 61.4814 478.443 58.1996 466.119 57.323C455.35 56.5248 444.523 57.1299 433.909 59.123C435.712 75.3105 441.99 90.6753 452.039 103.493C463.809 118.413 479.539 128.763 496.179 137.413C503.579 125.653 509.629 113.163 512.379 99.343C513.659 93.1704 514.259 86.8763 514.169 80.573C514.099 76.813 513.109 74.263 509.999 71.983C507.317 70.0931 504.488 68.4211 501.539 66.983ZM432.369 59.403C432.369 75.733 439.579 91.683 449.369 104.513C461.019 119.773 477.229 131.663 494.499 140.043L494.495 140.049L494.493 140.053C493.765 141.16 493.037 142.266 492.299 143.363C492.056 143.196 491.79 143.064 491.509 142.973C471.859 136.863 455.509 123.553 443.069 107.383C437.599 100.273 432.659 92.643 429.399 84.253C426.329 76.353 425.849 68.943 425.909 60.763C428.063 60.263 430.216 59.8097 432.369 59.403ZM423.939 84.153C421.559 77.303 419.909 69.253 421.239 61.903C414.149 63.733 407.159 65.983 400.299 68.483C398.769 79.343 402.749 89.623 407.549 99.243C412.221 108.579 417.97 117.335 424.679 125.333C431.69 133.646 439.678 141.083 448.469 147.483C455.596 152.698 463.184 156.48 470.935 160.344C472.875 161.311 474.824 162.282 476.779 163.283L477.059 163.463C477.33 162.568 478.065 161.89 478.979 161.693C482.419 157.153 485.859 152.563 489.169 147.883C468.609 141.513 451.549 127.243 438.609 110.293C432.549 102.353 427.219 93.633 423.939 84.153ZM182.009 263.443C181.922 263.573 181.834 263.705 181.745 263.836L181.745 263.836C181.345 264.431 180.937 265.037 180.609 265.643C179.942 265.011 178.982 264.796 178.109 265.083C153.369 272.313 127.639 264.083 104.179 255.993C98.0693 253.893 89.4993 250.823 93.7493 242.743C96.1424 238.276 99.7191 234.191 103.139 230.284L103.139 230.284C104.007 229.293 104.864 228.314 105.689 227.343C114.301 217.212 123.472 207.57 133.159 198.463C172.159 161.773 218.709 133.713 267.629 112.463C281.399 106.463 295.379 100.833 309.629 96.093C322.397 91.9125 335.498 88.828 348.789 86.873C329.803 97.9496 311.655 110.403 294.489 124.133C257.219 153.633 223.539 187.693 190.539 221.803C186.354 226.062 182.395 230.539 178.679 235.213C178.083 235.463 177.664 236.012 177.579 236.653L177.039 237.363C176.653 237.889 176.509 238.555 176.642 239.194C176.776 239.833 177.175 240.385 177.739 240.713C178.343 248.326 179.895 255.834 182.359 263.063C182.235 263.182 182.118 263.309 182.009 263.443ZM201.515 217.166C194.706 224.003 187.888 230.849 181.759 238.323C183.285 250.366 186.707 262.091 191.899 273.063C214.189 319.143 261.919 343.413 309.119 356.773C313.626 352.6 318.093 348.393 322.519 344.153C359.859 308.313 394.039 269.373 426.519 229.153C442.779 209.013 458.679 188.573 474.299 167.893C463.759 164.463 453.709 158.043 444.849 151.543C435.553 144.687 427.154 136.691 419.849 127.743C412.407 118.652 406.191 108.623 401.359 97.913C397.559 89.503 393.909 79.713 395.359 70.333C353.009 86.623 315.269 112.613 280.809 141.773C263.119 156.743 246.239 172.643 229.729 188.903C221.696 196.883 213.679 204.906 205.679 212.973C204.296 214.374 202.905 215.77 201.515 217.166ZM174.399 306.373C170.689 296.373 174.669 287.553 179.219 278.813C179.479 279.393 179.759 279.963 180.039 280.503C182.428 285.175 185.18 289.652 188.269 293.893C194.65 302.615 201.952 310.625 210.049 317.783C218.356 325.131 227.131 331.932 236.319 338.143C236.871 338.521 237.423 338.9 237.975 339.28L237.994 339.292C245.254 344.277 252.637 349.345 260.269 353.793C258.359 354.683 256.379 355.483 254.379 356.213C253.682 356.469 252.972 356.735 252.252 357.004C246.921 359 241.027 361.207 235.459 361.163C228.946 361.072 223.074 356.743 217.905 352.932C217.375 352.542 216.854 352.157 216.339 351.783C210.322 347.409 204.584 342.663 199.159 337.573C189.849 328.863 178.949 318.573 174.399 306.373ZM145.64 420.944C146.131 421.187 146.406 421.722 146.319 422.263C143.265 436.776 138.071 450.755 130.909 463.743C130.517 464.445 130.103 465.139 129.688 465.832C129.192 466.661 128.696 467.489 128.239 468.333C127.109 470.423 126.689 471.983 129.849 471.213C132.112 470.663 134.323 469.921 136.459 468.993C141.586 466.691 146.312 463.585 150.459 459.793C159.009 452.203 165.789 442.703 171.839 433.073C178.986 421.78 184.283 409.417 187.529 396.453C189.159 389.903 190.329 383.253 191.329 376.583C191.799 373.363 192.209 370.123 192.589 366.893C192.799 365.153 192.989 363.413 193.179 361.663C193.201 361.454 193.264 361.118 193.339 360.721L193.339 360.721C193.472 360.017 193.641 359.121 193.679 358.393C189.274 355.241 185.054 351.839 181.039 348.203C177.404 345.186 174.056 341.839 171.039 338.203C153.995 342.661 138.146 350.833 124.629 362.133C129.029 361.493 133.446 360.983 137.879 360.603C139.309 360.483 139.599 362.213 138.679 362.993C115.592 382.69 95.9203 406.069 80.4593 432.183C100.684 424.932 120.396 416.322 139.459 406.413C140.289 405.983 141.709 406.563 141.349 407.683C138.901 415.382 135.804 422.859 132.089 430.033C136.79 428.14 140.946 425.105 144.179 421.203C144.557 420.806 145.149 420.701 145.64 420.944ZM195.319 353.133C190.967 350.039 186.793 346.7 182.819 343.133C179.119 339.743 174.819 335.753 172.569 331.213C170.922 327.94 172.738 325.29 174.587 322.594C175.195 321.706 175.807 320.814 176.299 319.893C177.939 322.153 179.689 324.323 181.429 326.393C189.478 335.951 198.5 344.644 208.349 352.333C208.175 352.461 208.024 352.616 207.899 352.793C207.534 353.323 207.215 353.857 206.895 354.392L206.894 354.393C206.653 354.796 206.411 355.199 206.149 355.603C204.849 357.603 203.149 357.873 201.069 357.103C199.588 356.555 198.152 355.398 196.831 354.333C196.297 353.902 195.782 353.487 195.289 353.133H195.319ZM87.3893 547.613C119.549 532.203 143.569 504.203 164.769 476.203C166.249 474.253 169.169 475.723 169.499 477.823C170.15 483.248 170.012 488.738 169.089 494.123C200.859 458.633 204.869 407.743 198.179 362.043C198.145 361.781 198.145 361.515 198.179 361.253C197.675 360.983 197.179 360.672 196.677 360.358L196.509 360.253C196.424 360.829 196.316 361.394 196.213 361.934C196.088 362.593 195.97 363.213 195.909 363.763C195.429 368.243 194.899 372.723 194.249 377.193C193.065 385.851 191.264 394.412 188.859 402.813C184.579 417.263 177.479 430.213 168.859 442.493C161.989 452.273 154.049 461.843 143.769 468.193C139.259 470.963 133.439 473.973 128.059 474.323C123.479 474.623 124.279 470.003 125.879 467.193C133.384 454.363 139.103 440.569 142.879 426.193C139.162 429.59 134.714 432.087 129.879 433.493C129.4 433.638 128.881 433.488 128.553 433.11C128.224 432.732 128.149 432.197 128.359 431.743C132.201 424.76 135.436 417.46 138.029 409.923C118.637 419.903 98.5909 428.56 78.0293 435.833C77.5387 435.983 77.0057 435.831 76.6686 435.444C76.3315 435.057 76.2534 434.508 76.4693 434.043C91.7315 407.578 111.215 383.785 134.149 363.603C129.579 364.083 125.039 364.703 120.499 365.473C119.967 365.499 119.471 365.205 119.238 364.726C119.005 364.247 119.08 363.675 119.429 363.273C133.622 350.163 150.88 340.828 169.619 336.123C168.991 335.166 168.436 334.163 167.959 333.123C125.768 334.571 86.0123 353.245 57.9593 384.793L78.2793 381.613C80.3293 381.283 81.8693 384.353 80.2793 385.773C68.9978 395.924 59.0274 407.443 50.5993 420.063C36.1093 441.623 25.4093 465.653 16.7393 490.063C9.34933 510.923 3.87933 532.923 5.68933 555.063C31.8993 517.953 69.3293 491.343 107.139 466.953C107.999 466.418 109.093 466.438 109.933 467.004C110.772 467.569 111.202 468.575 111.029 469.573C105.261 496.18 97.3552 522.278 87.3893 547.613Z" fill="#231F20"/>
<path fill-rule="evenodd" clip-rule="evenodd" d="M388.749 201.363C378.299 210.313 363.769 206.723 354.239 198.223C344.249 189.313 342.829 175.803 348.269 163.993C350.545 159.007 354.238 154.802 358.889 151.903L359.069 151.753C361.705 149.976 364.843 149.095 368.019 149.243H368.489C369.476 149.279 370.458 149.413 371.419 149.643C373.653 150.118 375.819 150.867 377.869 151.873C384.269 154.933 390.879 158.523 393.749 165.363C398.419 176.473 398.529 192.973 388.749 201.363ZM379.866 158.73C375.201 156.123 369.55 152.965 364.109 154.053C356.409 157.113 350.979 167.073 350.079 175.013C348.529 188.483 360.179 201.003 373.679 201.573C380.053 201.78 386.007 198.401 389.099 192.823C392.239 186.993 391.599 179.793 390.599 173.483C389.409 166.263 386.259 162.303 379.889 158.743L379.866 158.73Z" fill="#231F20"/>
<path fill-rule="evenodd" clip-rule="evenodd" d="M376.169 222.213C365.199 221.513 353.949 218.543 345.359 211.383C336.149 203.713 331.339 191.793 330.719 179.733C328.829 158.303 342.469 135.843 365.319 134.003C384.429 132.463 403.759 143.663 412.199 160.813C420.469 177.643 417.279 199.553 403.909 212.893C396.059 220.733 386.989 222.903 376.169 222.213ZM360.359 139.703C351.579 141.823 344.379 148.013 340.049 155.823C338.908 157.89 337.964 160.06 337.229 162.303C334.569 180.133 336.259 200.513 353.569 210.513C361.859 215.323 371.889 217.073 381.389 216.973C391.289 216.873 399.169 211.693 404.579 203.553C413.519 189.906 413.597 172.278 404.779 158.553C395.509 144.553 377.059 135.703 360.359 139.703Z" fill="#231F20"/>
<path d="M359.988 145.513C360.239 145.335 360.343 145.015 360.247 144.723C360.151 144.432 359.875 144.237 359.568 144.243C350.268 144.613 343.068 155.443 341.468 163.593C341.348 164.193 342.208 164.333 342.378 163.773C343.726 159.388 346.129 155.401 349.378 152.163C352.558 149.023 356.358 147.823 359.988 145.513Z" fill="#231F20"/>
<path d="M365.59 144.623C367.71 144.793 369.8 145.333 371.92 145.453C372.56 145.453 372.65 144.543 372.15 144.283C370.11 143.418 367.86 143.171 365.68 143.573C365.09 143.623 364.95 144.573 365.59 144.623Z" fill="#231F20"/>
<path d="M393.389 202.913C392.979 203.463 393.589 204.333 394.219 203.913C404.139 196.833 405.819 181.913 400.509 171.623C400.319 171.233 399.709 171.553 399.839 171.943C403.679 183.183 400.299 193.773 393.389 202.913Z" fill="#231F20"/>
<path d="M386.209 205.573C384.889 206.003 383.769 207.003 382.449 207.493C381.056 208.032 379.571 208.29 378.079 208.253C377.539 208.253 377.509 209.073 378.019 209.183C379.666 209.582 381.389 209.548 383.019 209.083C384.419 208.653 386.299 207.753 386.909 206.333C387.015 206.128 386.981 205.878 386.825 205.708C386.668 205.538 386.422 205.484 386.209 205.573Z" fill="#231F20"/>
</svg>
