<svg width="493" height="565" viewBox="0 0 493 565" fill="none" xmlns="http://www.w3.org/2000/svg">
<path fill-rule="evenodd" clip-rule="evenodd" d="M425.758 43.24C444.658 49.55 456.578 62.24 462.808 81.01C468.528 98.2278 470.287 116.689 471.993 134.591V134.591C472.065 135.342 472.136 136.091 472.208 136.84C474.42 158.342 475.365 179.956 475.038 201.57C474.558 225.47 471.928 249.3 465.928 272.47C460.548 293.2 453.008 315.1 438.228 331.2C422.538 348.29 401.348 353.4 378.898 354.4C353.538 355.58 327.238 355.73 302.138 351.58C292.088 349.91 287.638 365.16 297.878 367.07C307.466 368.809 317.15 369.965 326.878 370.53C327.079 370.793 327.311 371.031 327.568 371.24C334.762 376.861 342.373 381.909 349.978 386.953C358.527 392.623 367.07 398.288 375.008 404.76C382.368 410.75 389.478 417.32 395.128 424.99C400.218 431.88 407.338 442.4 404.988 451.51C400.138 470.28 364.948 451.97 355.878 446.69C338.35 436.314 323.728 421.678 313.368 404.14C308.168 395.46 295.918 403.05 300.028 411.93C306.307 425.316 309.714 439.868 310.028 454.65C310.032 454.978 310.047 455.476 310.066 456.105C310.217 461.153 310.619 474.629 307.898 476.23C304.4 478.304 297.283 468.98 294.476 465.303L294.475 465.302C294.129 464.848 293.848 464.48 293.648 464.23C276.188 442.51 266.208 415.78 260.078 388.87C258.538 382.1 247.168 381.66 245.948 388.87C240.628 420.33 233.198 451.25 222.628 481.38C222.133 482.796 221.632 484.244 221.123 485.716L221.115 485.737L221.111 485.749C213.229 508.532 203.301 537.228 180.628 548.25C147.668 564.27 146.798 504.21 148.118 485.76C149.623 464.669 151.709 443.596 153.794 422.532L153.794 422.531L153.794 422.53L153.794 422.53L153.794 422.529L153.795 422.526L153.795 422.523L153.795 422.52L153.795 422.517C154.841 411.956 155.886 401.398 156.858 390.84C157.418 384.75 148.998 381.9 145.068 385.96C133.448 398.004 121.169 409.395 108.288 420.08C107.635 420.625 106.831 421.354 105.914 422.185L105.914 422.185C100.911 426.716 92.5451 434.295 87.0778 431.87C79.8396 428.628 87.3277 417.402 91.0013 411.895C91.4183 411.269 91.7862 410.718 92.0778 410.26C103.456 392.424 119.309 379.001 135.188 365.557C140.257 361.265 145.328 356.971 150.258 352.53C168.57 352.364 186.817 350.309 204.708 346.4C210.068 345.27 208.468 337.59 203.468 337.27C191.129 336.473 178.758 336.531 166.422 336.588H166.422C136.346 336.728 106.473 336.867 77.7678 324.62C61.8378 317.84 46.9778 307.87 35.7178 294.62C22.4678 279.07 16.7678 259.8 15.7678 239.62C14.7378 218.24 16.9678 196.51 19.3278 175.28C21.6878 154.05 24.6278 132.67 29.5678 111.87C34.0278 93.12 40.5078 74.5 52.3178 58.87C64.1278 43.24 81.0978 32.16 99.3878 25.51C135.402 12.4261 175.063 14.168 213.108 15.8389C217.836 16.0465 222.539 16.2531 227.208 16.43C272.458 18.14 317.798 21.01 362.458 28.68C383.658 32.31 405.318 36.41 425.758 43.24ZM57.8544 276.279C61.2106 278.527 65.6871 278.092 68.5478 275.24C70.1205 273.636 71.0126 271.486 71.0378 269.24C71.0371 265.201 68.1839 261.724 64.2222 260.935C60.2606 260.146 56.2931 262.264 54.7448 265.995C53.1964 269.726 54.4982 274.031 57.8544 276.279ZM101.308 225.15C96.2391 228.24 90.0525 228.897 84.4478 226.94C75.8278 226.12 67.6078 220.52 64.5778 212.29C61.9678 205.18 63.2078 196.48 68.1278 190.74C70.4675 186.625 74.1866 183.469 78.6278 181.83C90.5278 177.47 103.268 184.23 108.098 195.52C112.268 205.24 111.008 218.93 101.308 225.11V225.15ZM224.188 231.58C220.358 249.24 232.568 270.77 252.568 268.95V268.91C272.448 267.11 282.248 239.41 270.368 224.62C268.598 222.42 265.228 223.91 264.478 226.18C263.593 228.885 263.306 232.417 263.006 236.112V236.112C262.255 245.364 261.42 255.638 250.908 256.51C239.199 257.457 235.103 244.524 232.105 235.057L232.105 235.056L232.104 235.052C231.715 233.824 231.344 232.654 230.978 231.58C229.928 228.51 224.968 227.96 224.188 231.58ZM408.008 274.4C405.948 278.31 400.568 279.4 396.878 277.32C392.565 274.717 390.494 269.576 391.798 264.71C392.259 263.112 393.228 261.708 394.558 260.71C395.873 259.63 397.526 259.046 399.228 259.06C399.478 259.06 399.738 259.06 399.988 259.12C400.935 259.205 401.857 259.466 402.708 259.89C402.932 260.014 403.15 260.15 403.358 260.3C404.853 261.345 405.975 262.841 406.558 264.57C407.602 265.553 408.379 266.785 408.818 268.15C409.395 270.258 409.103 272.509 408.008 274.4ZM379.548 200.14C376.088 215.55 387.548 232.24 404.168 230.83H404.178C420.928 229.4 428.408 209.42 419.178 196.18C411.148 184.66 390.998 179.3 383.048 192.84C381.345 194.978 380.149 197.474 379.548 200.14Z" fill="#F7941E"/>
<path d="M90.8787 196.61C88.6587 195.32 85.8787 195.34 83.1887 197.78C76.8687 203.51 84.1887 212.03 89.9887 213.03C94.0864 211.332 96.2713 206.842 95.0787 202.57C94.3219 200.2 92.8559 198.12 90.8787 196.61Z" fill="white"/>
<path d="M395.178 200.72C393.378 203.31 394.248 208.64 395.818 211.18C398.058 214.82 401.738 214.9 405.558 214.51C406.202 214.452 406.851 214.502 407.478 214.66C408.717 213.147 409.313 211.208 409.138 209.26C408.898 204.3 399.418 194.64 395.178 200.72Z" fill="white"/>
<path fill-rule="evenodd" clip-rule="evenodd" d="M68.1296 190.7C70.4693 186.585 74.1884 183.429 78.6296 181.79C90.5296 177.43 103.27 184.24 108.1 195.47C112.31 205.22 110.96 218.92 101.31 225.1C96.2409 228.19 90.0542 228.847 84.4496 226.89C75.8296 226.07 67.5796 220.47 64.5796 212.24C62.0096 205.14 63.2096 196.44 68.1296 190.7ZM83.2096 197.78C76.8896 203.51 84.1896 212.03 90.0096 213.03C94.0883 211.334 96.2692 206.87 95.0996 202.61C94.3501 200.226 92.8834 198.13 90.8996 196.61C88.6796 195.32 85.9096 195.34 83.2096 197.78Z" fill="#231F20"/>
<path d="M264.479 226.14C261.379 235.62 265.619 255.25 250.909 256.47C237.679 257.57 234.169 240.89 230.979 231.54C229.929 228.47 224.979 227.92 224.189 231.54C220.359 249.2 232.529 270.73 252.569 268.91C272.449 267.11 282.249 239.41 270.369 224.58C268.599 222.38 265.229 223.87 264.479 226.14Z" fill="#231F20"/>
<path fill-rule="evenodd" clip-rule="evenodd" d="M379.559 200.14C380.16 197.474 381.357 194.978 383.059 192.84C391.009 179.3 411.159 184.66 419.179 196.18C428.409 209.42 420.799 229.42 404.179 230.83C387.559 232.24 376.099 215.55 379.559 200.14ZM405.559 214.51C406.203 214.452 406.852 214.502 407.479 214.66C408.733 213.153 409.343 211.213 409.179 209.26C408.899 204.3 399.419 194.64 395.179 200.72C393.379 203.31 394.249 208.64 395.819 211.18C398.059 214.82 401.739 214.9 405.559 214.51Z" fill="#231F20"/>
<path d="M406.578 264.56C405.995 262.831 404.873 261.335 403.378 260.29C403.17 260.141 402.953 260.004 402.728 259.88C401.877 259.456 400.955 259.195 400.008 259.11C399.758 259.11 399.498 259.06 399.248 259.05C397.546 259.036 395.893 259.62 394.578 260.7C393.248 261.698 392.279 263.102 391.818 264.7C390.514 269.566 392.585 274.707 396.898 277.31C400.588 279.43 405.968 278.31 408.028 274.39C409.129 272.498 409.424 270.242 408.848 268.13C408.405 266.767 407.624 265.539 406.578 264.56Z" fill="#231F20"/>
<path d="M62.5579 260.73C60.3141 260.758 58.1665 261.645 56.5579 263.21C53.6956 266.069 53.2512 270.551 55.4964 273.916C57.7415 277.282 62.0511 278.592 65.7897 277.047C69.5283 275.502 71.6548 271.531 70.8689 267.562C70.0829 263.594 66.6033 260.734 62.5579 260.73Z" fill="#231F20"/>
<path fill-rule="evenodd" clip-rule="evenodd" d="M410.529 22.38C431.129 27.27 451.939 33.12 465.679 50.38C477.619 65.37 482.469 84.57 485.339 103.18C492.409 149.54 495.399 197.44 488.839 244.02C483.219 284.13 470.109 332.23 434.219 356.02C416.169 368.02 394.009 370.51 372.879 371.02C365.609 371.19 358.309 371.31 351.009 371.31C368.009 379.58 384.059 389.82 397.509 403.16C411.889 417.48 431.169 443.84 416.889 464.29C402.609 484.74 372.509 473.21 355.139 464.14C343.802 458.208 333.343 450.734 324.059 441.93C324.793 448.679 324.896 455.482 324.369 462.25C324.312 462.976 324.258 463.726 324.202 464.495C323.668 471.919 323.011 481.052 318.109 486.58C313.189 492.11 305.909 492.2 299.549 489.11C291.996 485.43 286.317 478.093 281.236 471.527C281.029 471.26 280.823 470.994 280.619 470.73C274.711 463.126 269.487 455.014 265.009 446.49C260.841 438.448 257.243 430.125 254.239 421.58C248.814 444.649 241.964 467.359 233.729 489.58C233.37 490.55 233.011 491.525 232.65 492.505C224.996 513.274 216.61 536.031 199.889 551.11C191.959 558.26 181.529 564.45 170.529 564.65C159.529 564.85 151.539 558.21 145.699 549.51C132.159 529.38 132.699 503.48 134.699 480.32C136.571 458.07 138.735 435.847 140.9 413.617L141.309 409.42C129.959 420.5 117.949 431.22 105.029 439.95C91.5488 449.05 68.4288 446.41 70.5488 425.67C71.4988 416.49 77.5888 407.37 82.6688 399.95C88.2932 391.802 94.7003 384.222 101.799 377.32C111.395 367.961 121.844 359.517 133.009 352.1C105.789 350.34 79.0088 343.78 56.2688 330.66C38.3088 320.33 22.2488 305.54 12.5188 287.07C1.06877 265.34 -0.211231 240.58 1.00877 216.5C2.33948 191.465 5.00997 166.519 9.00877 141.77C12.3888 120.63 16.4188 99.35 24.5088 79.44C40.7388 39.49 74.2088 14.8 115.849 5.60998C139.869 0.339976 164.619 -0.100024 189.109 0.339976C214.009 0.779976 238.929 1.56998 263.789 2.92998C313.059 5.62998 362.449 10.98 410.529 22.38ZM465.979 272.55C471.989 249.38 474.609 225.55 475.089 201.65C475.416 180.036 474.471 158.422 472.259 136.92C472.157 135.881 472.056 134.84 471.955 133.798C470.235 116.083 468.475 97.9531 462.809 81.01C456.579 62.24 444.659 49.55 425.759 43.24C405.319 36.41 383.659 32.31 362.459 28.68C317.799 21.01 272.439 18.14 227.209 16.43C222.575 16.2543 217.905 16.0493 213.21 15.8431C175.153 14.1723 135.435 12.4285 99.4088 25.63C81.1188 32.28 64.0888 43.48 52.3388 58.99C40.5888 74.5 34.0488 93.22 29.5888 111.99C24.6488 132.79 21.7088 154.17 19.3488 175.4C16.9888 196.63 14.7888 218.34 15.7888 239.72C16.7388 259.86 22.4888 279.13 35.7388 294.72C46.9988 307.95 61.8588 317.92 77.7888 324.72C106.494 336.967 136.367 336.828 166.443 336.688C178.779 336.631 191.15 336.573 203.489 337.37C208.499 337.69 210.089 345.33 204.729 346.5C186.838 350.409 168.591 352.464 150.279 352.63C145.347 357.073 140.272 361.369 135.2 365.663C119.321 379.105 103.467 392.527 92.0988 410.36C91.8094 410.814 91.4448 411.361 91.0316 411.981C87.3614 417.488 79.8544 428.752 87.0988 431.97C92.5304 434.379 100.795 426.915 105.823 422.374C106.784 421.506 107.627 420.745 108.309 420.18C121.19 409.495 133.469 398.104 145.089 386.06C149.019 382 157.439 384.85 156.879 390.94C155.907 401.502 154.861 412.064 153.815 422.629C151.73 443.694 149.644 464.768 148.139 485.86C146.819 504.35 147.649 564.35 180.649 548.35C203.255 537.347 213.185 508.732 221.086 485.968C221.615 484.444 222.135 482.945 222.649 481.48C233.219 451.35 240.639 420.43 245.969 388.97C247.189 381.76 258.559 382.2 260.099 388.97C266.229 415.88 276.209 442.61 293.669 464.33C293.878 464.589 294.175 464.977 294.544 465.458C297.382 469.162 304.44 478.374 307.919 476.33C310.56 474.776 310.229 462.064 310.088 456.683C310.066 455.83 310.049 455.161 310.049 454.75C309.735 439.968 306.328 425.416 300.049 412.03C295.939 403.15 308.189 395.56 313.389 404.24C323.746 421.768 338.361 436.397 355.879 446.77C364.989 452.05 400.139 470.36 404.989 451.59C407.339 442.48 400.219 431.96 395.129 425.07C389.479 417.4 382.369 410.84 375.009 404.84C367.067 398.365 358.526 392.692 349.983 387.017C342.39 381.974 334.795 376.929 327.619 371.32C327.362 371.111 327.13 370.873 326.929 370.61C317.201 370.045 307.517 368.889 297.929 367.15C287.689 365.24 292.139 349.99 302.189 351.66C327.289 355.81 353.589 355.62 378.949 354.48C401.399 353.47 422.589 348.37 438.279 331.28C453.059 315.18 460.599 293.32 465.979 272.55Z" fill="#231F20"/>
</svg>
