<svg width="528" height="567" viewBox="0 0 528 567" fill="none" xmlns="http://www.w3.org/2000/svg">
<path d="M54.1162 188.95C67.1162 186.05 79.9362 182.57 92.5762 178.5C118.096 170.27 142.776 159.18 165.016 144.11C185.656 130.11 204.136 112.55 217.926 91.7003C232.296 69.9703 240.996 45.4103 250.926 21.4903C247.593 20.6103 244.24 19.7636 240.866 18.9503C211.006 11.7603 179.356 7.64029 148.966 14.0903C99.9662 24.5003 63.3262 62.9603 42.2162 106.8C29.3762 133.47 22.2162 162.19 17.6562 191.5C29.8687 192.483 42.1595 191.624 54.1162 188.95Z" fill="#FFF200"/>
<path d="M109.305 238.16C159.675 224.36 205.255 200.21 242.625 163.42C260.06 146.311 275.303 127.105 288.005 106.24C300.065 86.3302 307.845 65.0502 317.225 43.9402C298.467 36.152 279.268 29.4738 259.725 23.9402C251.725 50.3202 241.525 76.6902 225.915 99.5202C211.225 120.99 192.065 139 170.565 153.52C146.715 169.66 119.975 181.2 92.5654 189.67C77.9896 194.328 63.1113 197.98 48.0354 200.6C37.8254 202.27 26.5454 203.31 16.3854 200.52C14.3654 214.58 13.0054 228.74 11.7754 242.84C11.9154 247.507 12.0354 252.174 12.1354 256.84C28.4754 256.72 44.5454 253.03 60.5054 249.64C76.8554 246.14 93.1854 242.57 109.305 238.16Z" fill="#F7941E"/>
<path d="M100.587 329.14C99.7839 328.544 98.8071 328.227 97.8068 328.24C96.6906 329.345 95.6325 330.506 94.6368 331.72C94.5776 331.888 94.5275 332.058 94.4868 332.23C94.2968 332.93 93.4868 335.87 93.9868 336.44C94.4868 337.01 97.0568 336.76 97.7568 336.68C100.237 336.41 103.317 335.17 103.627 332.36C103.627 332.36 103.627 332.28 103.627 332.24C102.887 330.97 101.842 329.905 100.587 329.14Z" fill="white"/>
<path d="M278.796 354.82C268.566 339.24 259.336 321.88 253.466 304.24C249.794 306.693 246.599 309.794 244.036 313.39C243.799 313.724 243.52 314.027 243.206 314.29C243.206 314.39 243.156 314.48 243.126 314.58C240.076 322.58 248.886 338.96 253.456 345.18C259.396 353.29 269.256 358.67 278.796 354.82Z" fill="white"/>
<path d="M353.006 183.24C355.426 184.68 359.006 182.64 357.726 179.76C357.246 178.64 356.446 177.91 355.206 178.24C353.486 178.7 353.366 180.31 352.576 181.63C352.453 181.818 352.319 181.998 352.176 182.17C352.326 182.609 352.618 182.986 353.006 183.24Z" fill="white"/>
<path d="M294.626 327.51C294.528 321.407 293.572 315.348 291.786 309.51C290.516 304.97 289.186 295.79 283.906 294.12C283.251 293.918 282.647 293.577 282.136 293.12C275.136 294.88 267.746 296.89 261.016 300.02C269.016 316.96 276.956 333.4 286.526 349.47C292.006 343.68 294.566 335.48 294.626 327.51Z" fill="white"/>
<path fill-rule="evenodd" clip-rule="evenodd" d="M182.115 356.94C185.805 317.81 213.305 285.5 249.005 267.66C290.285 247 342.385 241.24 377.365 276.38C409.695 308.82 412.965 358.58 394.265 398.96C384.875 419.23 370.425 438.2 350.425 448.81C330.065 459.58 306.225 461.26 283.615 461.41C281.612 461.424 279.567 461.465 277.497 461.507C265.416 461.753 252.449 462.018 241.675 456.75C230.545 451.32 220.655 442.34 212.015 433.59C191.845 413.14 179.535 387.07 182.115 357.94C182.158 357.608 182.158 357.272 182.115 356.94ZM336.925 433.82C353.585 425.83 364.155 411.49 369.475 394.05C379.925 359.75 381.555 309.88 348.425 287.11C330.205 274.61 306.955 277.01 286.565 281.61C271.195 285.07 254.905 289.35 243.565 300.2C219.175 315.89 205.425 346.15 208.715 375.25C212.745 410.97 241.405 448.49 280.065 446.97C298.825 446.24 319.925 441.97 336.925 433.82Z" fill="#F7941E"/>
<path d="M293.666 393.42C300.339 394.373 306.745 396.688 312.486 400.22C316.796 402.96 314.056 410.1 308.956 408.59C296.136 404.81 284.796 401.76 271.236 403.59C258.356 405.38 247.896 410.93 236.416 416.13C238.701 418.819 241.167 421.348 243.796 423.7C259.056 437.3 275.796 438.7 295.326 435.24C310.046 432.62 325.796 429.75 338.536 421.47C352.746 412.24 359.036 396.96 362.256 380.93C363.256 376.01 364.086 370.68 364.676 365.14C364.555 365.18 364.431 365.21 364.306 365.23C350.006 367.24 336.306 370.01 323.006 375.76C312.326 380.39 303.076 386.85 293.666 393.42Z" fill="#BE1E2D"/>
<path fill-rule="evenodd" clip-rule="evenodd" d="M501.656 213.46C510.736 241.82 516.036 271.42 515.656 301.24C515.006 353.95 495.006 407.33 454.306 442.16C435.307 458.405 412.959 470.786 391.029 482.934C387.714 484.771 384.408 486.602 381.126 488.44C355.606 502.74 329.616 516.39 302.546 527.55C251.966 548.39 196.206 560.54 141.606 550.74C89.9056 541.44 35.6056 510.66 23.6056 455.74C18.3234 431.576 17.1549 405.973 16.0133 380.961C15.7523 375.242 15.4927 369.553 15.1856 363.92C13.4456 331.9 12.6156 299.84 12.3156 267.77C12.2656 266.88 12.2656 265.98 12.2656 265.08C36.3956 266.88 61.5102 260.723 85.1971 254.915L85.2008 254.914L85.2171 254.91C89.1565 253.945 93.0563 252.988 96.9056 252.08C125.346 245.36 153.186 236.48 179.186 222.94C224.106 199.54 262.636 164.31 290.696 122.24C305.426 100.14 320.196 73.9803 325.486 47.5103C350.069 58.2334 373.804 70.8061 396.486 85.1203C420.056 99.9903 443.506 116.37 462.116 137.32C481.326 158.96 492.946 186.17 501.656 213.46ZM83.6856 332.17C81.9856 337.94 84.8256 344.32 89.8256 347.47C100.326 354.09 116.636 343.77 113.656 331.19C113.596 330.93 113.516 330.671 113.436 330.411L113.436 330.41C112.906 325.31 109.676 320.87 104.756 320.31C98.3256 317.13 90.2756 318.12 86.4256 325.86C85.9234 326.877 85.4988 327.93 85.1556 329.01C84.5186 329.989 84.0237 331.053 83.6856 332.17ZM348.006 171C350.89 168.678 354.649 167.742 358.286 168.44C363.606 169.57 367.216 174.52 367.756 179.76C368.846 190.32 356.146 197 347.596 191.19C340.296 186.24 341.286 175.36 348.006 171ZM334.656 467.08C359.406 460.31 379.006 444.94 393.296 423.86H393.276C421.636 382.13 427.096 323.76 396.306 281.74C383.026 263.62 364.356 249.32 342.516 243.32C315.616 235.92 286.396 241.32 260.876 251.24C215.696 268.81 175.006 309.14 173.816 358.6C169.426 384.22 178.906 409.46 194.596 429.68C209.176 448.48 230.636 469.2 255.316 471.85C280.856 474.59 309.906 473.85 334.656 467.08Z" fill="#FFF200"/>
<path fill-rule="evenodd" clip-rule="evenodd" d="M104.756 320.31C109.676 320.87 112.906 325.32 113.436 330.41C113.516 330.67 113.596 330.93 113.656 331.19C116.636 343.77 100.326 354.09 89.8257 347.47C84.8257 344.32 81.9857 337.94 83.6857 332.17C84.0238 331.053 84.5187 329.989 85.1557 329.01C85.4989 327.93 85.9235 326.877 86.4257 325.86C90.2757 318.12 98.3257 317.13 104.756 320.31ZM97.7557 336.68C100.236 336.41 103.316 335.17 103.626 332.36C103.636 332.32 103.586 332.24 103.586 332.24C102.857 330.975 101.827 329.91 100.586 329.14C99.7829 328.544 98.806 328.227 97.8057 328.24C96.6896 329.345 95.6315 330.506 94.6357 331.72C94.5766 331.888 94.5265 332.058 94.4857 332.23C94.4757 332.267 94.4639 332.31 94.4506 332.359C94.211 333.232 93.4837 335.881 93.9857 336.44C94.5157 337.03 97.0557 336.76 97.7557 336.68Z" fill="#231F20"/>
<path fill-rule="evenodd" clip-rule="evenodd" d="M367.736 179.81C368.826 190.37 356.126 197.05 347.576 191.24C340.296 186.24 341.286 175.36 348.006 171C350.893 168.701 354.643 167.784 358.266 168.49C363.586 169.62 367.196 174.57 367.736 179.81ZM353.123 180.526C352.96 180.903 352.793 181.287 352.576 181.65L352.536 181.6C352.428 181.804 352.307 182.001 352.176 182.19C352.326 182.629 352.618 183.006 353.006 183.26C355.426 184.7 358.956 182.66 357.726 179.78C357.206 178.66 356.446 177.93 355.206 178.26C353.959 178.594 353.553 179.532 353.123 180.526Z" fill="#231F20"/>
<path fill-rule="evenodd" clip-rule="evenodd" d="M286.526 281.61C306.916 277.01 330.166 274.61 348.386 287.11C381.556 309.88 379.926 359.75 369.436 394.05C364.116 411.49 353.546 425.82 336.886 433.82C319.896 441.97 298.786 446.24 280.026 446.97C241.366 448.49 212.676 410.93 208.676 375.25C205.386 346.2 219.136 315.89 243.526 300.2C254.906 289.35 271.196 285.07 286.526 281.61ZM283.906 294.11C283.251 293.908 282.647 293.567 282.136 293.11V293.09C275.156 294.85 267.746 296.86 261.006 299.99C269.006 316.93 277.006 333.37 286.526 349.43C292.016 343.67 294.566 335.5 294.626 327.5C294.528 321.397 293.572 315.337 291.786 309.5C291.588 308.792 291.388 307.972 291.172 307.084L291.172 307.083L291.172 307.082C290.004 302.278 288.362 295.52 283.906 294.11ZM243.136 314.61C243.136 314.51 243.136 314.42 243.216 314.32C243.529 314.057 243.808 313.754 244.046 313.42C246.608 309.824 249.804 306.723 253.476 304.27C259.346 321.9 268.576 339.27 278.806 354.84C269.266 358.69 259.406 353.31 253.466 345.21C248.886 338.97 240.076 322.55 243.126 314.59L243.136 314.61ZM362.256 381.03C363.236 376.11 364.086 370.78 364.676 365.24C364.553 365.249 364.429 365.249 364.306 365.24C350.006 367.24 336.306 370.01 323.026 375.86C312.326 380.52 303.076 386.95 293.666 393.52C300.339 394.473 306.745 396.787 312.486 400.32C316.796 403.06 314.056 410.2 308.956 408.69C296.136 404.86 284.796 401.81 271.236 403.69C260.213 405.222 250.963 409.508 241.329 413.971C239.706 414.723 238.071 415.48 236.416 416.23C238.701 418.918 241.166 421.448 243.796 423.8C259.056 437.4 275.846 438.81 295.326 435.34C310.046 432.72 325.796 429.85 338.536 421.57C352.746 412.34 359.036 397.03 362.256 381.03Z" fill="#231F20"/>
<path fill-rule="evenodd" clip-rule="evenodd" d="M260.877 251.27C286.397 241.35 315.617 235.95 342.517 243.35C364.357 249.37 383.007 263.65 396.277 281.77C427.097 323.76 421.637 382.13 393.277 423.86C379.007 444.94 359.507 460.31 334.657 467.08C309.807 473.85 280.857 474.59 255.317 471.85C230.597 469.2 209.177 448.48 194.597 429.68C178.907 409.46 169.427 384.22 173.817 358.6C175.007 309.14 215.697 268.81 260.877 251.27ZM350.457 448.79C370.487 438.18 384.907 419.21 394.297 398.94C413.007 358.56 409.727 308.8 377.447 276.34C342.437 241.22 290.337 246.98 249.037 267.64C213.337 285.48 185.837 317.79 182.147 356.92C182.189 357.252 182.189 357.588 182.147 357.92C179.567 387.05 191.877 413.12 212.047 433.57C220.707 442.32 230.577 451.3 241.707 456.73C252.48 461.998 265.447 461.733 277.528 461.487C279.599 461.445 281.644 461.404 283.647 461.39C306.257 461.24 330.097 459.56 350.457 448.79Z" fill="#231F20"/>
<path fill-rule="evenodd" clip-rule="evenodd" d="M523.066 341.52C517.996 368.02 507.836 393.88 492.636 416.24C476.586 439.85 455.236 457.73 431.126 472.69C335.996 531.73 212.896 596.47 99.4463 550.47C75.2262 540.63 52.3262 525.89 35.7062 505.47C16.9862 482.47 11.3762 455.45 8.87625 426.54C4.19625 372.47 1.00625 317.82 2.00625 263.42C0.226249 262.06 0.446249 258.91 2.12625 257.42C2.39292 245.36 2.88958 233.33 3.61625 221.33C3.65233 220.722 3.82676 220.131 4.12625 219.6C4.184 217.769 4.27578 215.931 4.3679 214.085C4.38744 213.694 4.407 213.302 4.42625 212.91C4.47969 211.806 4.52235 210.695 4.56512 209.58C4.76246 204.439 4.96238 199.231 6.23625 194.3C6.35876 193.838 6.56188 193.402 6.83625 193.01C8.0637 184.742 10.0248 176.6 12.6962 168.68C19.9662 132.63 32.3862 97.8303 54.3862 67.7803C68.8962 47.9803 86.9362 30.5203 108.466 18.5203C133.426 4.58029 161.796 -0.629713 190.196 0.580287C221.096 1.89029 251.666 9.55029 281.006 18.9603C309.068 27.9649 336.343 39.2595 362.556 52.7303C413.736 79.0303 468.546 113.12 495.066 166.2C521.586 219.28 534.316 282.79 523.066 341.52ZM148.926 14.0903C99.9363 24.5003 63.2863 62.9603 42.1763 106.8C29.3363 133.47 22.1562 162.24 17.5763 191.5C29.8019 192.487 42.1066 191.628 54.0762 188.95C67.0362 186.05 79.8962 182.57 92.5362 178.5C118.056 170.27 142.736 159.18 164.976 144.11C185.616 130.13 204.096 112.55 217.886 91.7003C229.782 73.7618 237.786 53.8947 245.781 34.0511L245.782 34.05L245.782 34.0489C247.472 29.8555 249.161 25.6632 250.886 21.4903C247.513 20.6103 244.16 19.7636 240.826 18.9503C210.926 11.7603 179.316 7.64029 148.926 14.0903ZM11.7762 242.8C12.9662 228.7 14.3662 214.54 16.2962 200.47C26.4562 203.26 37.7362 202.22 47.9462 200.55C63.0222 197.93 77.9005 194.278 92.4762 189.62C119.926 181.15 146.666 169.62 170.476 153.47C191.976 138.93 211.136 120.92 225.826 99.4703C241.436 76.6403 251.666 50.2703 259.636 23.8903C279.178 29.4239 298.378 36.1021 317.136 43.8903C314.796 49.1914 312.554 54.5 310.318 59.7927C303.629 75.6266 297 91.3182 288.006 106.24C275.319 127.102 260.093 146.309 242.676 163.42C205.306 200.21 159.676 224.36 109.356 238.16C93.2363 242.57 76.9062 246.16 60.5562 249.62C59.3433 249.877 58.1303 250.136 56.9171 250.395L56.9095 250.396C42.123 253.55 27.3126 256.709 12.1862 256.82C12.0662 252.16 11.9296 247.5 11.7762 242.84V242.8ZM141.646 550.72C196.246 560.53 252.006 548.37 302.586 527.53C329.656 516.37 355.646 502.72 381.166 488.42C384.473 486.568 387.804 484.722 391.144 482.872C413.044 470.736 435.37 458.366 454.346 442.14C495.006 407.33 515.006 353.95 515.656 301.24C516.006 271.46 510.706 241.82 501.656 213.46C492.946 186.17 481.326 158.96 462.116 137.32C443.486 116.37 420.056 99.9903 396.486 85.1203C373.805 70.8061 350.07 58.2334 325.486 47.5103C320.196 73.9803 305.426 100.14 290.696 122.24C262.636 164.31 224.106 199.54 179.226 222.92C153.246 236.46 125.386 245.34 96.9463 252.06C93.1209 252.964 89.2443 253.915 85.3275 254.876C61.6297 260.689 36.4635 266.862 12.3062 265.06C12.3562 265.96 12.3562 266.86 12.3562 267.75C12.6562 299.82 13.4862 331.9 15.2262 363.9C15.5333 369.534 15.7929 375.222 16.054 380.941C17.1955 405.953 18.364 431.556 23.6462 455.72C35.6462 510.66 89.9062 541.44 141.646 550.72Z" fill="#231F20"/>
</svg>
