<svg width="496" height="576" viewBox="0 0 496 576" fill="none" xmlns="http://www.w3.org/2000/svg">
<path d="M329.944 263.443C330.068 259.538 328.578 255.755 325.824 252.983C316.154 257.803 305.024 259.553 294.594 261.983C285.474 264.093 274.374 268.413 264.594 267.463C258.784 271.833 251.674 277.993 256.594 284.463C259.654 288.463 269.334 285.643 273.534 285.063C278.624 284.343 283.694 283.423 288.734 282.403C299.17 280.268 309.442 277.398 319.474 273.813C325.224 271.713 330.024 270.443 329.944 263.443Z" fill="#F2B879"/>
<path d="M105.027 338.284C112.413 333.304 120.017 328.674 127.837 324.394C143.235 315.901 159.396 308.87 176.107 303.394C194.027 297.594 212.827 293.704 231.747 295.334C236.173 295.716 240.573 296.351 244.927 297.234C247.593 297.647 250.232 298.225 252.827 298.964C254.36 296.443 256.552 294.389 259.167 293.024C255.062 292.405 251.59 289.663 250.037 285.814C246.597 277.384 251.137 270.184 257.737 265.574C250.737 262.274 246.327 254.784 249.597 247.024C253.377 238.024 264.367 233.294 272.847 230.024C283.167 226.024 294.077 223.864 304.497 220.154C310.187 218.154 316.727 215.684 320.927 211.154C325.127 206.624 325.777 200.414 320.547 196.724C311.977 190.644 297.547 191.374 287.627 191.724C276.427 192.124 265.897 195.124 254.997 196.854C255.617 200.004 256.167 203.114 256.647 206.144C257.517 211.574 249.357 214.004 248.257 208.454C243.017 181.984 236.437 146.184 207.927 136.364C214.257 153.774 221.267 171.584 223.927 189.804C226.097 204.564 224.557 220.504 215.667 232.934C207.477 244.404 194.667 251.784 181.247 255.514C164.547 260.154 146.887 259.454 129.727 259.244C112.897 259.044 95.9067 259.484 79.1367 257.914C80.3034 267.247 81.4834 276.564 82.6767 285.864C85.3434 306.704 88.0867 327.534 90.9067 348.354C91.9667 347.564 93.0567 346.814 94.1267 346.014C97.6867 343.334 101.337 340.774 105.027 338.284Z" fill="#F2B879"/>
<path d="M321.197 282.443C318.047 283.443 314.857 284.283 311.967 285.143C303.733 287.608 295.353 289.558 286.877 290.983C281.127 291.933 275.117 292.903 269.187 293.283C269.05 293.522 268.862 293.726 268.637 293.883C265.517 295.983 260.307 298.023 259.557 302.223C258.447 308.513 266.177 307.993 270.237 307.223C278.617 305.683 286.917 303.553 295.237 301.733C299.427 300.813 303.617 299.933 307.807 299.043C311.467 298.263 315.807 297.793 318.967 295.613C323.947 292.193 323.007 287.123 321.197 282.443Z" fill="#F2B879"/>
<path d="M314.944 307.343C314.672 307.005 314.452 306.628 314.294 306.223C313.864 306.333 313.434 306.433 312.994 306.523C305.384 308.173 297.724 309.663 290.084 311.183C283.984 312.393 274.784 315.583 266.784 315.543C265.494 317.153 264.234 318.743 264.204 320.913C264.134 325.383 268.674 326.153 272.494 325.913C278.494 325.563 284.164 323.043 289.684 320.813C295.127 318.463 300.835 316.784 306.684 315.813C309.544 315.403 314.444 315.273 316.494 312.813C318.794 310.043 316.654 309.313 314.944 307.343Z" fill="#F2B879"/>
<path fill-rule="evenodd" clip-rule="evenodd" d="M66.3062 154.353L67.2946 162.378C70.9656 192.181 74.6415 222.024 78.3762 251.783C92.8127 250.574 107.44 250.798 121.984 251.02H121.985H121.985H121.985H121.985H121.986H121.986H121.986C127.409 251.103 132.821 251.185 138.206 251.193C157.396 251.193 177.766 250.823 194.726 240.663C211.936 230.343 218.186 212.363 215.806 192.963C213.92 177.603 208.447 162.453 203.083 147.604L203.082 147.602C201.137 142.218 199.206 136.874 197.466 131.573C196.406 128.343 199.656 125.963 202.546 126.493C234.096 132.243 247.416 162.733 253.846 191.413C263.206 186.813 274.556 185.293 284.666 184.413C295.486 183.493 307.926 183.133 318.356 186.643C325.606 189.083 332.126 194.203 332.636 202.373V203.673C347.396 215.213 345.826 236.493 333.046 248.053C340.866 253.993 340.046 271.223 333.046 276.723C331.72 277.733 330.304 278.62 328.816 279.373C332.556 284.853 331.766 293.593 327.706 298.873C326.492 300.432 325.005 301.757 323.316 302.783C326.716 306.303 327.136 313.943 323.686 317.943C320.236 321.943 315.586 323.183 310.686 323.943C304.248 324.914 297.937 326.591 291.866 328.943L291.721 328.998C282.642 332.418 269.172 337.492 260.866 329.803C256.246 325.533 256.466 318.923 259.866 314.473C257.356 313.577 255.2 311.898 253.716 309.683C252.88 308.49 252.267 307.155 251.906 305.743C245.956 303.803 231.316 302.483 229.716 302.433C221.776 302.12 213.827 302.727 206.026 304.243C191.436 307.143 177.106 312.243 163.316 317.763C149.804 323.19 136.735 329.659 124.226 337.113C117.933 340.853 111.793 344.827 105.806 349.033C104.526 349.94 103.184 351.046 101.792 352.194C98.8363 354.631 95.6506 357.258 92.3262 358.563C93.5462 367.57 94.7762 376.57 96.0163 385.563C96.3836 388.224 96.8179 390.912 97.2545 393.615C98.28 399.962 99.3188 406.392 99.5363 412.753C117.438 410.36 135.551 409.004 153.604 407.653L153.611 407.652C159.465 407.214 165.314 406.776 171.146 406.303C216.206 402.643 261.336 399.713 306.476 397.153C329.403 395.82 352.343 394.657 375.296 393.663C386.59 393.163 397.88 392.693 409.166 392.253C412.269 392.135 415.423 391.929 418.6 391.722H418.6H418.6H418.6H418.601H418.601H418.601H418.602C426.452 391.209 434.436 390.687 442.096 391.463C443.471 389.37 442.863 385.145 442.506 382.661C442.48 382.477 442.455 382.302 442.432 382.139C442.415 382.021 442.4 381.909 442.386 381.803C442.047 379.177 441.701 376.551 441.355 373.925L441.354 373.921L441.354 373.917L441.353 373.914L441.353 373.91L441.353 373.906L441.352 373.902L441.352 373.899L441.351 373.895C440.842 370.033 440.334 366.171 439.846 362.313C438.266 349.647 436.706 337.01 435.166 324.403C429.733 279.623 424.666 234.8 419.966 189.933C419.635 186.725 419.304 183.516 418.972 180.306L418.972 180.306L418.972 180.305L418.972 180.304L418.972 180.303L418.972 180.302L418.972 180.301L418.971 180.301C414.772 139.668 410.57 99.0116 407.966 58.2434C382.616 61.4434 357.176 63.9134 331.706 65.9534C299.216 68.5518 266.687 70.4658 234.156 72.38C220.489 73.1842 206.821 73.9884 193.156 74.8434C148.066 77.6334 103.086 81.5734 58.1562 85.9734V87.1334C59.8713 94.3865 60.5803 102.089 61.2723 109.606C61.5487 112.608 61.8223 115.581 62.1562 118.483L62.2888 119.672C63.5748 131.209 64.8657 142.791 66.3062 154.353ZM186.515 339.853C183.104 345.831 176.888 350.891 171.199 355.523C169.682 356.757 168.204 357.961 166.826 359.143C159.94 365.207 152.679 370.832 145.086 375.983C143.036 377.333 140.876 374.323 142.526 372.663C147.17 367.977 152.031 363.533 156.891 359.091L156.891 359.09L156.895 359.087C158.867 357.284 160.839 355.482 162.796 353.663C164.595 351.994 166.407 350.124 168.259 348.214C172.706 343.626 177.376 338.808 182.615 335.983C183.728 335.382 185.104 335.58 186.002 336.471C186.9 337.362 187.108 338.736 186.515 339.853ZM280.066 384.056C281.147 383.91 281.963 383.004 281.996 381.913C282.309 377.086 281.573 372.081 280.87 367.296L280.869 367.291L280.868 367.286L280.868 367.282C280.807 366.867 280.746 366.454 280.686 366.043L280.579 365.267C279.825 359.808 279.049 354.189 277.206 349.043C277.11 348.329 276.639 347.72 275.972 347.446C275.305 347.173 274.543 347.276 273.972 347.716C273.402 348.157 273.11 348.869 273.206 349.583C272.868 354.956 273.644 360.479 274.395 365.819L274.399 365.846L274.466 366.321L274.536 366.823C274.625 367.456 274.711 368.091 274.798 368.729C275.427 373.359 276.072 378.109 277.636 382.503C277.958 383.546 278.986 384.202 280.066 384.056ZM366.716 169.433C367.901 164.299 372.411 159.421 376.038 155.497L376.256 155.262C376.412 155.094 376.565 154.928 376.716 154.763C380.635 150.51 384.914 147.341 389.447 143.983C389.934 143.623 390.424 143.26 390.916 142.893C393.206 141.193 395.916 144.893 393.916 146.783C389.674 150.936 385.69 155.345 381.986 159.983C380.833 161.353 379.743 162.854 378.644 164.366C376.389 167.47 374.098 170.625 371.146 172.803C368.886 174.503 366.176 171.743 366.716 169.433ZM377.547 282.057C371.884 282.019 366.142 281.981 360.716 283.013V282.983C358.116 283.503 358.436 287.283 360.716 287.953C368.312 290.201 377.191 289.672 385.092 289.201C385.419 289.182 385.743 289.162 386.066 289.143C394.545 288.55 402.97 287.347 411.276 285.543C413.956 284.993 413.396 280.483 410.626 280.723C402.126 281.443 393.516 281.743 384.996 282.013C382.552 282.09 380.057 282.074 377.547 282.057ZM361.202 355.112L361.202 355.112C361.858 355.662 362.506 356.205 363.146 356.733C369.063 361.539 374.429 366.986 379.146 372.973C380.236 374.373 378.836 376.783 377.076 375.643C371.286 371.873 365.896 367.883 360.486 363.593C358.945 362.371 357.276 361.159 355.577 359.924L355.576 359.923C351.311 356.825 346.854 353.586 343.736 349.703C342.226 347.843 343.536 344.103 346.366 345.163C351.747 347.19 356.67 351.315 361.202 355.112ZM317.682 125.732C314.972 130.719 311.999 136.19 311.156 141.583C310.766 144.103 313.896 146.843 316.016 144.363C319.299 140.5 321.536 135.634 323.716 130.889L323.716 130.889C324.505 129.173 325.286 127.474 326.106 125.843C326.781 124.506 327.522 123.157 328.27 121.794C330.707 117.358 333.231 112.762 333.866 107.843C334.146 105.683 331.366 105.273 330.076 106.273C325.922 109.515 323.281 114.8 320.823 119.719C320.263 120.839 319.713 121.94 319.156 122.993C318.684 123.887 318.187 124.801 317.682 125.732ZM133.876 141.643C139.876 145.023 145.756 148.453 151.616 152.033C152.812 152.766 154.04 153.482 155.275 154.202C159.554 156.697 163.923 159.245 167.376 162.713C168.976 164.323 167.376 167.473 165.066 166.713C160.345 165.085 156.132 162.242 151.982 159.443L151.982 159.443C150.858 158.685 149.739 157.93 148.616 157.203C142.836 153.473 137.176 149.633 131.526 145.703C129.096 143.983 131.236 140.153 133.876 141.643ZM151.036 200.293C140.404 198.172 129.67 196.597 118.876 195.573H118.866C116.526 195.393 116.516 198.603 118.356 199.343C128.906 203.424 139.79 206.579 150.886 208.773C152.947 209.211 155.12 209.747 157.358 210.299C165.447 212.294 174.391 214.5 181.996 213.043C184.656 212.533 184.886 208.703 182.726 207.453C178.973 205.274 174.456 204.511 170.139 203.781C169.325 203.644 168.519 203.508 167.726 203.363L151.036 200.293Z" fill="#FFF200"/>
<path d="M330.122 212.513C327.411 216.86 323.59 220.405 319.053 222.783C301.333 232.543 279.333 232.563 262.603 244.303C256.964 248.253 253.704 255.493 262.013 258.593C267.113 260.503 273.313 258.443 278.343 257.273C289.243 254.733 300.263 252.463 311.073 249.533C320.293 247.033 330.622 242.933 333.922 233.083C336.372 225.793 334.592 218.353 330.122 212.513Z" fill="#F2B879"/>
<path fill-rule="evenodd" clip-rule="evenodd" d="M17.4138 91.0635C15.7071 80.8702 13.8537 70.7035 11.8537 60.5635C12.5565 59.7871 12.8853 58.7425 12.7538 57.7035C12.5153 55.6732 12.2834 53.6428 12.0515 51.6128L12.0515 51.6125C11.5834 47.5137 11.1154 43.4164 10.5938 39.3235C93.9698 17.9194 179.835 17.5335 265.527 17.1484C299.941 16.9938 334.328 16.8393 368.514 15.3235C383.744 14.6535 398.964 13.7135 414.154 12.3835C417.782 12.0644 421.406 11.6801 425.029 11.2959L425.029 11.2959C428.786 10.8976 432.542 10.4993 436.304 10.1735C442.814 9.61351 448.714 9.65351 449.764 17.2335C451.231 27.7553 451.769 38.5376 452.305 49.2674V49.2682C452.568 54.5485 452.831 59.816 453.204 65.0335C454.357 81.1668 455.514 97.2935 456.674 113.414C461.274 177.187 465.86 240.96 470.434 304.734C475.047 369.24 479.677 433.74 484.324 498.234C484.487 500.48 484.659 502.727 484.831 504.975L484.832 504.99C485.23 510.189 485.628 515.389 485.914 520.594C486.284 527.424 486.154 534.794 479.984 539.083C475.554 542.164 469.664 543.013 464.434 543.563C458.545 544.201 452.62 544.617 446.704 545.033L446.701 545.033C444.259 545.205 441.819 545.377 439.384 545.563C407.597 547.99 375.794 550.27 343.974 552.404C279.987 556.717 215.964 560.443 151.904 563.583C135.797 564.37 119.69 565.113 103.584 565.813C102.278 565.87 100.974 565.929 99.6703 565.988L99.6679 565.989C93.6318 566.262 87.6112 566.534 81.5837 566.583C81.4135 566.585 81.2433 566.587 81.0732 566.589C77.7471 566.625 74.4838 566.661 72.3338 563.674C70.7665 561.49 70.2697 558.455 69.8366 555.808C69.8054 555.618 69.7746 555.429 69.7438 555.244C65.3378 528.782 62.4917 501.947 59.658 475.229C59.2116 471.02 58.7656 466.814 58.3138 462.613C54.0462 423.013 50.4551 383.332 46.864 343.65C39.2212 259.198 31.5783 174.744 17.4138 91.0635ZM69.8569 420.379C70.8429 429.292 71.8393 438.299 74.1037 446.824C74.2382 447.27 74.6792 447.55 75.1402 447.482C75.6012 447.415 75.9431 447.019 75.9437 446.554C75.982 437.405 74.3969 428.034 72.844 418.853C72.3684 416.042 71.8958 413.248 71.4737 410.484C71.286 409.253 71.0993 408.023 70.9127 406.793L70.9122 406.79L70.9118 406.787L70.9114 406.785C69.1893 395.436 67.4674 384.088 64.9237 372.904C64.7737 372.224 63.6237 372.354 63.6937 373.074C64.5364 381.613 65.7701 390.093 67.0044 398.576L67.0044 398.576L67.0045 398.577L67.0047 398.578L67.0048 398.579L67.0049 398.579C67.5135 402.075 68.0223 405.572 68.5037 409.074C69.0179 412.795 69.4365 416.579 69.8569 420.379ZM80.8337 486.634C78.0272 478.184 76.2969 469.415 75.6837 460.534C75.6837 459.714 76.7937 459.674 77.0437 460.354C79.9913 468.752 81.8759 477.487 82.6537 486.354C82.7537 487.484 81.1437 487.574 80.8337 486.634ZM451.004 175.283C451.114 176.143 452.374 176.503 452.634 175.503C453.654 171.533 452.434 167.064 451.094 163.324C450.754 162.383 449.294 162.743 449.574 163.743C450.297 166.245 450.468 168.734 450.641 171.24V171.241C450.733 172.582 450.826 173.928 451.004 175.283ZM442.704 78.5935C442.844 78.1735 443.574 78.0835 443.704 78.5935C444.166 81.443 444.399 84.3031 444.633 87.1671L444.633 87.1676C444.906 90.5048 445.179 93.847 445.814 97.1835C446.904 102.874 447.974 108.574 448.814 114.314C449.038 115.858 449.28 117.428 449.524 119.018L449.524 119.019C451 128.622 452.584 138.928 451.194 148.314C451.054 149.254 449.584 149.164 449.384 148.314C448.389 144.171 448.091 139.857 447.794 135.554C447.673 133.801 447.552 132.05 447.384 130.314C446.814 123.854 446.044 117.414 445.134 110.993C444.782 108.531 444.269 105.922 443.742 103.239C442.126 95.0145 440.374 86.0962 442.704 78.5935ZM53.8337 80.1235C52.6617 80.3549 51.7893 81.3419 51.7037 82.5335H51.6838C50.8919 90.5956 51.8916 99.0103 52.8685 107.233C53.187 109.913 53.503 112.573 53.7537 115.194C54.5853 123.501 55.4924 131.797 56.3998 140.094C56.6818 142.674 56.9639 145.253 57.2437 147.834C57.8881 153.747 58.5253 159.661 59.1624 165.573C60.9082 181.775 62.6535 197.972 64.5437 214.164C69.7171 258.01 75.1804 301.817 80.9337 345.583C82.4671 357.223 84.0171 368.863 85.5837 380.504C86.0056 383.708 86.3539 386.983 86.7048 390.283C87.7099 399.735 88.7377 409.401 91.5837 418.243C91.9455 419.448 92.8523 420.412 94.0321 420.846C95.2119 421.281 96.5274 421.135 97.5837 420.454C112.015 419.928 126.455 418.684 140.878 417.442C148.392 416.795 155.902 416.148 163.404 415.604C186.304 413.91 209.214 412.324 232.134 410.844C277.244 407.923 322.384 405.613 367.544 403.664C380.29 403.124 393.037 402.617 405.784 402.143C409.474 402.008 413.223 401.98 416.989 401.951C424.623 401.893 432.331 401.834 439.784 400.884C440.265 401.053 440.775 401.124 441.284 401.094C449.024 400.604 451.804 393.514 451.754 386.514C451.672 378.842 450.43 370.964 449.206 363.194C448.639 359.601 448.076 356.03 447.634 352.514C444.58 328.327 441.624 304.127 438.764 279.914C433.124 232.207 427.814 184.464 422.834 136.684C422.309 131.638 421.788 126.595 421.268 121.554C418.947 99.0458 416.629 76.573 413.884 54.1135C413.879 54.087 413.879 54.06 413.884 54.0335C414.744 50.9835 413.254 47.4835 409.354 47.9835C352.866 55.1907 296.081 58.8621 239.297 62.5335C203.347 64.8577 167.398 67.182 131.524 70.4035C105.624 72.7235 79.8138 75.6335 54.1737 80.0235C54.0587 80.0508 53.9452 80.0842 53.8337 80.1235Z" fill="white"/>
<path fill-rule="evenodd" clip-rule="evenodd" d="M1.75527 47.8335C1.72133 47.6183 1.70128 47.4012 1.69527 47.1835C1.12527 43.7435 0.565268 40.3035 0.0752676 36.8435C-0.304732 34.1435 0.735268 31.3635 3.62527 30.5935C18.2919 26.7001 33.0919 23.3935 48.0253 20.6735C119.883 7.55858 192.622 7.2927 265.392 7.02671C318.521 6.83251 371.665 6.63825 424.495 1.44347C425.867 1.30779 427.327 1.12622 428.841 0.937741C439.16 -0.346173 452.056 -1.95068 457.575 8.44347C460.024 13.1175 460.204 19.3111 460.368 24.9405C460.418 26.6459 460.466 28.2996 460.575 29.8435L462.285 54.0335C464.632 87.0201 466.965 120.003 469.285 152.983C473.992 219.697 478.682 286.407 483.355 353.113C485.749 386.833 488.135 420.553 490.515 454.273C491.709 471.127 492.902 487.983 494.095 504.843C494.233 506.787 494.435 508.817 494.643 510.896C495.744 521.945 496.987 534.414 489.455 543.023C481.891 551.655 469.519 552.581 458.707 553.39C458.071 553.438 457.44 553.485 456.815 553.533C440.015 554.833 423.209 556.087 406.395 557.293C373.142 559.7 339.869 561.943 306.575 564.023C240.002 568.11 173.405 571.58 106.785 574.433C100.034 574.722 93.2888 575.061 86.545 575.401C84.8684 575.485 83.1918 575.57 81.5153 575.653C76.1753 575.923 70.5953 575.573 66.5153 571.573C62.4353 567.573 61.1253 561.793 60.2753 556.363C59.156 549.02 58.1718 541.647 57.1899 534.293L57.1353 533.883C52.8453 501.673 49.2953 469.373 46.1353 437.033C43.1446 406.459 40.4298 375.864 37.7156 345.276C29.2401 249.757 20.7708 154.31 3.92527 59.8035C3.81121 59.5205 3.73066 59.2252 3.68527 58.9235C3.29527 56.5735 2.89527 54.2435 2.49527 51.9235C2.25527 50.5535 2.00527 49.1935 1.75527 47.8335ZM414.135 12.3835C398.945 13.7135 383.725 14.6535 368.495 15.3235C334.283 16.8404 299.87 16.9915 265.43 17.1428C179.765 17.519 93.9313 17.896 10.5953 39.2935C11.1169 43.3863 11.5849 47.4836 12.053 51.5824C12.2849 53.6125 12.5168 55.643 12.7553 57.6735C12.9013 58.7193 12.5794 59.7765 11.8753 60.5635C13.8486 70.7101 15.7019 80.8768 17.4353 91.0635C31.6013 174.82 39.2411 259.37 46.8811 343.923C50.459 383.519 54.037 423.117 58.2853 462.633C58.7371 466.834 59.1831 471.04 59.6295 475.249C62.4632 501.967 65.3093 528.802 69.7153 555.263C69.7461 555.449 69.7769 555.638 69.8081 555.828C70.2412 558.475 70.738 561.51 72.3053 563.693C74.4113 566.633 77.6125 566.619 80.8838 566.605C81.1074 566.604 81.3313 566.603 81.5553 566.603C87.633 566.554 93.6835 566.279 99.7292 566.005C101.005 565.947 102.28 565.889 103.555 565.833C119.669 565.127 135.775 564.383 151.875 563.603C215.922 560.443 279.945 556.717 343.945 552.423C375.765 550.29 407.569 548.01 439.355 545.583C442.056 545.37 444.762 545.177 447.469 544.984C453.122 544.581 458.779 544.178 464.405 543.583C469.635 543.033 475.525 542.183 479.955 539.103C486.125 534.813 486.255 527.443 485.885 520.613C485.599 515.409 485.201 510.21 484.803 505.012C484.631 502.759 484.459 500.506 484.295 498.253L470.415 304.733C465.842 240.953 461.255 177.18 456.655 113.413C455.502 97.2935 454.345 81.1668 453.185 65.0335C452.812 59.8173 452.549 54.5465 452.286 49.2609C451.75 38.5363 451.212 27.7503 449.745 17.2335C448.695 9.65347 442.795 9.61347 436.285 10.1735C432.524 10.4992 428.767 10.8976 425.01 11.2959C421.387 11.6801 417.764 12.0643 414.135 12.3835Z" fill="#231F20"/>
<path fill-rule="evenodd" clip-rule="evenodd" d="M59.2151 165.562L59.2152 165.563L59.2152 165.563C60.9611 181.765 62.7064 197.962 64.5966 214.154C69.7166 258.007 75.18 301.814 80.9867 345.574C82.52 357.214 84.07 368.854 85.6367 380.494C86.0834 383.805 86.4485 387.192 86.8165 390.605C87.8242 399.951 88.8532 409.495 91.6367 418.234C91.9984 419.438 92.9052 420.402 94.0851 420.836C95.2649 421.271 96.5803 421.125 97.6367 420.444C112.068 419.918 126.508 418.674 140.931 417.432C148.445 416.785 155.955 416.138 163.457 415.594C186.364 413.927 209.274 412.34 232.187 410.834C277.297 407.914 322.438 405.604 367.598 403.654C380.338 403.114 393.084 402.607 405.838 402.134C409.516 401.998 413.257 401.97 417.02 401.941H417.021C424.644 401.883 432.36 401.824 439.838 400.874C440.319 401.043 440.829 401.114 441.338 401.084C449.078 400.594 451.858 393.454 451.808 386.504C451.746 378.859 450.502 371.001 449.273 363.24L449.273 363.239C448.701 359.629 448.132 356.04 447.688 352.504C444.628 328.31 441.671 304.11 438.818 279.904C433.198 232.204 427.888 184.46 422.888 136.673C422.349 131.498 421.814 126.322 421.28 121.147L421.28 121.139L421.278 121.127L421.277 121.115L421.276 121.103L421.275 121.091L421.274 121.086C418.969 98.7435 416.664 76.407 413.938 54.1035C413.933 54.077 413.933 54.0499 413.938 54.0235C414.798 51.0235 413.308 47.4735 409.408 47.9735C352.938 55.1722 296.172 58.8412 239.401 62.5104C203.43 64.8353 167.457 67.1603 131.557 70.3835C105.657 72.7035 79.8467 75.6135 54.2066 80.0035C54.0916 80.0308 53.9781 80.0642 53.8666 80.1035C52.6945 80.3348 51.8221 81.3218 51.7366 82.5135C50.9513 90.9076 52.0159 99.6841 53.0516 108.223C53.3349 110.559 53.616 112.876 53.8566 115.163C54.7381 124.411 55.749 133.659 56.7553 142.865L56.7553 142.865C56.9361 144.519 57.1168 146.172 57.2966 147.823C57.9408 153.737 58.578 159.65 59.215 165.562L59.215 165.562L59.215 165.562L59.215 165.562L59.2151 165.562ZM90.9166 348.353C88.1166 327.533 85.3732 306.703 82.6866 285.863C81.4999 276.53 80.3199 267.213 79.1466 257.913C91.865 259.104 104.71 259.139 117.516 259.173H117.516H117.518H117.519H117.521H117.522H117.524C121.6 259.184 125.673 259.195 129.737 259.243C131.163 259.261 132.592 259.282 134.024 259.303C149.825 259.533 165.944 259.768 181.257 255.513C194.667 251.783 207.487 244.403 215.677 232.933C224.567 220.503 226.107 204.563 223.937 189.803C221.565 173.617 215.768 157.778 210.072 142.217L210.072 142.216L210.071 142.216L210.071 142.215L210.066 142.202C209.353 140.251 208.64 138.305 207.937 136.363C235.916 146.004 242.769 180.683 247.968 206.993C248.065 207.483 248.161 207.97 248.257 208.453C249.357 214.003 257.517 211.573 256.647 206.143C256.167 203.143 255.647 200.003 254.997 196.853C258.589 196.283 262.141 195.575 265.69 194.868L265.69 194.868C272.91 193.428 280.118 191.992 287.627 191.723L288.26 191.701L288.604 191.689H288.604C298.501 191.333 312.253 190.84 320.547 196.723C325.777 200.413 324.997 206.723 320.927 211.153C316.857 215.583 310.187 218.153 304.497 220.153C299.735 221.849 294.872 223.22 290.009 224.592C284.229 226.222 278.451 227.851 272.847 230.023C264.367 233.313 253.377 238.023 249.597 247.023C246.327 254.783 250.777 262.273 257.737 265.573C251.137 270.183 246.597 277.383 250.037 285.813C251.59 289.663 255.062 292.405 259.167 293.023C256.552 294.389 254.36 296.443 252.827 298.963C250.231 298.225 247.593 297.647 244.927 297.233C240.573 296.351 236.172 295.716 231.747 295.333C212.827 293.703 194.027 297.593 176.107 303.393C159.396 308.87 143.235 315.901 127.837 324.393C120.023 328.66 112.42 333.29 105.027 338.283C101.337 340.773 97.6866 343.333 94.1366 346.013C93.5896 346.422 93.0375 346.818 92.4868 347.213L92.4863 347.213C91.9598 347.591 91.4346 347.967 90.9166 348.353ZM305.293 299.597C306.131 299.419 306.969 299.241 307.807 299.063C308.5 298.914 309.22 298.777 309.954 298.637L309.955 298.636C313.062 298.043 316.41 297.403 318.967 295.663C323.947 292.223 323.007 287.153 321.197 282.473C319.228 283.105 317.244 283.666 315.327 284.207L315.326 284.208L315.326 284.208C314.176 284.533 313.05 284.851 311.967 285.173C303.732 287.635 295.353 289.582 286.877 291.003C281.127 291.953 275.117 292.923 269.187 293.303C269.05 293.542 268.862 293.747 268.637 293.903C267.967 294.36 267.194 294.814 266.388 295.288C263.486 296.993 260.143 298.957 259.557 302.243C258.447 308.503 266.177 307.983 270.237 307.243C275.77 306.26 281.268 304.975 286.76 303.692C289.586 303.032 292.41 302.372 295.237 301.753C298.589 301.017 301.941 300.307 305.293 299.597ZM316.537 312.803C314.792 314.931 310.946 315.342 308.107 315.646C307.611 315.699 307.145 315.748 306.727 315.803C300.878 316.774 295.169 318.453 289.727 320.803C289.219 321.008 288.711 321.216 288.201 321.424L288.189 321.429C283.157 323.482 277.999 325.586 272.537 325.903C268.717 326.123 264.177 325.353 264.247 320.903C264.247 318.753 265.513 317.172 266.792 315.577L266.827 315.533C272.517 315.533 278.814 313.94 284.171 312.584C286.345 312.034 288.365 311.523 290.127 311.173C291.562 310.888 292.998 310.604 294.435 310.319L294.437 310.319L294.438 310.319L294.44 310.318C300.647 309.09 306.858 307.861 313.037 306.513C313.477 306.423 313.907 306.323 314.337 306.213C314.495 306.618 314.714 306.995 314.987 307.333C315.343 307.756 315.72 308.121 316.072 308.462C317.369 309.717 318.315 310.632 316.537 312.803ZM288.797 282.333C299.233 280.198 309.505 277.328 319.537 273.743H319.497C319.811 273.632 320.122 273.523 320.43 273.415L320.436 273.413C325.742 271.556 330.025 270.056 330.007 263.423C330.145 259.501 328.653 255.697 325.887 252.913C318.077 256.822 309.315 258.716 300.739 260.569C298.696 261.011 296.663 261.45 294.657 261.913C292.35 262.447 289.916 263.122 287.409 263.818L287.408 263.818C280.005 265.872 271.962 268.103 264.657 267.393C258.827 271.763 251.717 277.923 256.657 284.393C259.171 287.689 266.156 286.365 270.897 285.467L270.897 285.466C271.926 285.272 272.848 285.097 273.597 284.993C278.687 284.273 283.797 283.333 288.797 282.333ZM311.117 249.533C303.504 251.597 295.786 253.333 288.08 255.067L288.079 255.067C284.843 255.795 281.61 256.522 278.387 257.273C277.705 257.433 277.001 257.609 276.28 257.789L276.277 257.79C271.708 258.932 266.461 260.243 262.057 258.593C253.747 255.493 257.007 248.253 262.647 244.303C271.794 237.885 282.516 234.969 293.253 232.05L293.253 232.05C302.154 229.63 311.065 227.207 319.097 222.783C323.634 220.405 327.455 216.86 330.167 212.513C334.637 218.353 336.417 225.793 333.967 233.083C330.627 242.983 320.297 247.033 311.077 249.533H311.117ZM193.127 74.8535C148.067 77.6435 103.127 81.5835 58.1266 85.9835C58.1166 86.3135 58.0966 86.7035 58.0666 87.1035C59.7505 94.2849 60.4582 101.907 61.1497 109.353C61.4355 112.431 61.7185 115.479 62.0666 118.453C62.4415 121.682 62.8121 124.909 63.1826 128.135C64.1857 136.869 65.1885 145.6 66.2766 154.363C68.345 170.845 70.3773 187.352 72.4102 203.864C74.3773 219.843 76.345 235.825 78.3466 251.793C92.6018 250.6 107.017 250.818 121.374 251.034C126.988 251.119 132.593 251.203 138.177 251.203C157.367 251.233 177.697 250.833 194.697 240.673C211.907 230.353 218.157 212.373 215.777 192.973C213.89 177.613 208.417 162.463 203.053 147.614C201.108 142.229 199.177 136.884 197.437 131.583C196.377 128.353 199.627 125.973 202.517 126.503C234.067 132.253 247.387 162.743 253.817 191.423C263.177 186.803 274.527 185.283 284.637 184.423C295.457 183.503 307.897 183.143 318.327 186.653C325.607 189.093 332.097 194.213 332.607 202.383V203.683C347.367 215.223 345.797 236.503 333.017 248.063C340.847 254.003 340.017 271.233 333.017 276.733C331.69 277.743 330.274 278.63 328.787 279.383C332.527 284.883 331.737 293.603 327.677 298.883C326.463 300.442 324.975 301.767 323.287 302.793C326.657 306.313 327.017 314.053 323.657 317.953C320.297 321.853 315.527 323.233 310.657 323.953C304.219 324.924 297.907 326.601 291.837 328.953C282.837 332.373 269.227 337.543 260.837 329.813C256.257 325.543 256.477 318.933 259.837 314.483C257.326 313.587 255.17 311.908 253.687 309.693C252.851 308.5 252.238 307.165 251.877 305.753C245.927 303.813 231.287 302.493 229.687 302.443C221.746 302.13 213.797 302.737 205.997 304.253C191.407 307.153 177.077 312.253 163.287 317.773C149.774 323.2 136.705 329.669 124.197 337.123C117.917 340.857 111.777 344.83 105.777 349.043C104.464 349.965 103.095 351.094 101.677 352.263C98.7409 354.684 95.5938 357.279 92.2966 358.573C93.5166 367.573 94.7566 376.663 95.9866 385.573C96.3539 388.235 96.7882 390.922 97.2248 393.625C98.2503 399.972 99.2891 406.402 99.5066 412.763C117.409 410.37 135.522 409.014 153.574 407.663C159.431 407.224 165.282 406.786 171.117 406.313C216.177 402.653 261.307 399.723 306.447 397.163C329.373 395.843 352.313 394.68 375.267 393.673C386.553 393.173 397.843 392.703 409.137 392.263C412.239 392.145 415.393 391.939 418.57 391.732C426.421 391.219 434.406 390.697 442.067 391.473C443.441 389.38 442.834 385.155 442.476 382.671C442.431 382.354 442.389 382.066 442.357 381.813C442.027 379.269 441.692 376.723 441.356 374.176C440.836 370.226 440.315 366.275 439.817 362.323C438.237 349.717 436.677 337.08 435.137 324.413C429.63 279.64 424.563 234.817 419.937 189.943C419.691 187.584 419.445 185.224 419.2 182.864C414.879 141.383 410.557 99.8852 407.937 58.2535C382.587 61.4535 357.147 63.9635 331.677 65.9635C298.366 68.6274 265.014 70.5878 231.661 72.5482C218.816 73.3032 205.97 74.0582 193.127 74.8535Z" fill="#231F20"/>
<path d="M118.357 199.343C128.906 203.424 139.79 206.58 150.887 208.773C160.397 210.773 172.287 214.903 181.997 213.043C184.657 212.533 184.887 208.703 182.727 207.453C178.257 204.863 172.727 204.273 167.727 203.363L151.037 200.293C140.404 198.172 129.67 196.597 118.877 195.573C116.527 195.393 116.517 198.603 118.357 199.343Z" fill="#231F20"/>
<path d="M131.525 145.664C137.175 149.594 142.835 153.434 148.615 157.164C153.885 160.574 159.105 164.604 165.065 166.674C167.365 167.474 168.975 164.324 167.375 162.674C162.925 158.204 156.955 155.264 151.615 151.994C145.755 148.414 139.855 144.994 133.875 141.604C131.235 140.154 129.095 143.984 131.525 145.664Z" fill="#231F20"/>
<path d="M315.977 144.393C320.447 139.133 322.977 132.013 326.068 125.874C328.938 120.154 332.998 114.274 333.828 107.874C334.108 105.714 331.328 105.294 330.038 106.304C324.938 110.304 322.037 117.414 319.117 123.024C316.197 128.633 312.117 135.213 311.117 141.613C310.767 144.103 313.897 146.843 315.977 144.393Z" fill="#231F20"/>
<path d="M371.145 172.834C375.535 169.594 378.465 164.194 381.985 160.014C385.694 155.364 389.685 150.946 393.935 146.784C395.935 144.914 393.225 141.194 390.935 142.894C385.855 146.674 381.075 150.054 376.735 154.764C372.995 158.764 367.975 163.974 366.735 169.434C366.175 171.744 368.885 174.504 371.145 172.834Z" fill="#231F20"/>
<path d="M360.715 287.983C368.625 290.323 377.925 289.653 386.065 289.173C394.544 288.58 402.969 287.377 411.275 285.573C413.955 285.023 413.395 280.513 410.625 280.753C402.125 281.473 393.515 281.753 384.995 282.043C376.995 282.293 368.545 281.553 360.715 283.043C358.115 283.503 358.435 287.283 360.715 287.983Z" fill="#231F20"/>
<path d="M343.726 349.703C348.086 355.133 355.026 359.253 360.476 363.593C365.926 367.933 371.276 371.873 377.066 375.643C378.826 376.783 380.226 374.373 379.136 372.973C374.418 366.986 369.052 361.539 363.136 356.733C358.076 352.553 352.516 347.483 346.356 345.163C343.536 344.103 342.226 347.843 343.726 349.703Z" fill="#231F20"/>
<path d="M277.175 349.044C277.026 347.939 276.01 347.164 274.905 347.314C273.801 347.463 273.026 348.479 273.175 349.584C272.815 355.294 273.715 361.174 274.505 366.824C275.235 372.044 275.825 377.544 277.605 382.504C277.927 383.546 278.955 384.203 280.035 384.056C281.116 383.91 281.933 383.004 281.965 381.914C282.305 376.664 281.355 371.204 280.625 366.004C279.865 360.344 279.105 354.434 277.175 349.044Z" fill="#231F20"/>
<path d="M182.616 335.984C175.196 339.984 168.916 347.984 162.796 353.674C156.016 360.014 149.056 366.124 142.526 372.674C140.876 374.334 143.036 377.344 145.086 375.994C152.68 370.832 159.941 365.198 166.826 359.124C173.376 353.504 182.196 347.404 186.516 339.834C187.092 338.718 186.876 337.356 185.982 336.474C185.088 335.591 183.724 335.393 182.616 335.984Z" fill="#231F20"/>
<path d="M447.374 130.323C447.914 136.323 447.934 142.503 449.374 148.323C449.574 149.173 451.044 149.263 451.184 148.323C452.774 137.323 450.384 125.173 448.804 114.323C447.964 108.583 446.894 102.883 445.804 97.1935C444.624 90.9935 444.674 84.7735 443.694 78.6035C443.614 78.0935 442.884 78.1835 442.694 78.6035C439.604 88.6035 443.694 101.013 445.114 111.013C446.034 117.423 446.804 123.863 447.374 130.323Z" fill="#231F20"/>
<path d="M449.575 163.743C450.685 167.583 450.495 171.393 451.005 175.283C451.115 176.143 452.375 176.493 452.635 175.503C453.635 171.503 452.445 167.063 451.095 163.323C450.755 162.383 449.295 162.753 449.575 163.743Z" fill="#231F20"/>
<path d="M75.9445 446.574C75.9445 434.624 73.2745 422.294 71.4745 410.504C69.5545 397.944 67.7445 385.324 64.9245 372.924C64.7745 372.244 63.6245 372.374 63.6945 373.094C64.8845 385.094 66.8545 397.094 68.5045 409.094C70.2245 421.544 70.8745 434.684 74.1045 446.844C74.2389 447.29 74.6799 447.57 75.1409 447.502C75.602 447.435 75.9438 447.039 75.9445 446.574Z" fill="#231F20"/>
<path d="M75.6852 460.534C76.2983 469.415 78.0286 478.184 80.8352 486.634C81.1452 487.574 82.7552 487.484 82.6552 486.384C81.8773 477.517 79.9927 468.782 77.0452 460.384C76.7952 459.674 75.6352 459.714 75.6852 460.534Z" fill="#231F20"/>
</svg>
