<svg width="570" height="498" viewBox="0 0 570 498" fill="none" xmlns="http://www.w3.org/2000/svg">
<path d="M552.365 327.396C548.985 304.596 533.435 286.956 516.545 272.496C515.545 282.426 512.145 291.766 503.775 298.496C489.075 310.366 465.415 311.846 447.525 314.986C367.035 329.146 287.235 327.046 206.235 319.646C165.955 315.976 125.975 313.406 85.5451 315.356C71.9451 316.016 59.3251 313.646 51.2051 301.736C50.8351 301.196 50.4951 300.636 50.2051 300.086L46.9951 296.786C37.6651 302.296 27.7351 306.226 20.9951 315.986C14.2551 325.746 12.7651 340.986 21.6351 350.096C30.5051 359.206 45.9651 354.016 57.2151 355.886C69.8351 357.996 77.0051 366.156 83.7651 376.326C97.0551 396.326 120.135 404.876 141.605 391.146C152.345 384.276 161.265 375.536 173.605 371.456C184.445 367.886 196.115 367.756 207.335 369.216C234.575 372.766 259.585 387.926 287.165 388.846C301.645 389.326 315.065 384.626 326.655 376.006C335.355 369.526 342.655 360.936 353.185 357.236C365.455 352.916 378.735 356.166 391.265 357.476C403.435 358.736 415.655 359.716 427.895 359.756C440.965 359.756 454.005 358.886 466.715 355.676C478.885 352.606 488.425 346.786 499.465 341.316C508.775 336.706 517.315 337.316 526.655 341.546C531.525 343.756 538.075 348.776 543.845 347.336C552.355 345.256 553.375 334.216 552.365 327.396Z" fill="#FFF200"/>
<path d="M472.725 370.826C459.365 374.396 445.345 375.756 431.545 375.826C415.645 375.936 399.775 374.276 384.005 372.366C376.565 371.466 367.915 369.246 360.495 371.156C354.135 372.796 349.165 377.696 344.395 381.876C320.555 402.766 294.445 409.316 263.475 401.736C234.015 394.516 199.625 374.096 169.845 390.736C157.255 397.736 147.625 408.736 133.135 412.276C121.918 414.964 110.149 414.169 99.3952 409.996C87.5252 405.416 78.9552 397.376 71.9852 386.926C67.7252 380.606 64.3152 373.606 56.2952 371.456C54.1625 370.925 51.9812 370.613 49.7852 370.526C56.0052 390.416 63.2852 410.756 73.6552 428.746C82.9652 444.896 97.6052 455.746 114.785 462.496C147.055 475.206 184.145 477.036 218.375 478.976C257.625 481.334 297.008 480.149 336.045 475.436C374.045 470.696 415.215 463.206 450.335 447.436C484.755 431.946 490.335 391.206 500.975 358.536C497.585 360.536 494.305 362.786 491.325 364.146C485.324 366.893 479.102 369.127 472.725 370.826Z" fill="#FBB040"/>
<path d="M87.3257 302.126C108.506 300.385 129.773 299.957 151.006 300.846C193.596 302.466 235.926 308.286 278.506 310.226C320.906 312.167 363.394 310.474 405.506 305.166C427.216 302.416 448.856 298.676 470.246 294.056C480.176 291.916 492.166 290.306 497.886 280.836C501.966 274.066 502.236 265.366 502.566 257.506C490.456 251.716 482.216 252.826 470.016 259.726C449.716 271.196 428.196 273.816 405.266 270.366C393.164 268.398 381.247 265.432 369.636 261.496C355.986 257.056 342.136 251.746 327.536 254.146C305.016 257.856 286.206 273.626 265.256 281.776C242.77 290.435 218.045 291.378 194.966 284.456C181.616 280.386 169.666 272.176 155.966 269.176C143.216 266.376 131.576 269.716 120.446 275.926C104.326 284.926 84.0357 296.416 66.6257 283.046C62.4357 279.836 60.9657 276.516 58.4157 272.046C57.9252 271.163 57.3703 270.318 56.7557 269.516C56.1757 277.126 56.1257 284.866 59.3657 291.786C65.0657 303.856 75.9057 303.126 87.3257 302.126Z" fill="#754C29"/>
<path fill-rule="evenodd" clip-rule="evenodd" d="M119.53 182.062L119.53 182.062C113.591 185.446 107.56 188.884 100.986 191.506C88.1943 196.612 77.3023 191.673 66.2585 186.665C61.6408 184.571 56.9965 182.465 52.1758 181.076C53.0919 176.195 53.8982 171.307 54.7031 166.426C57.1932 151.328 59.6704 136.308 65.3458 121.836C72.9358 102.446 86.0858 86.3062 101.936 73.0062C135.346 44.9662 177.976 23.9762 221.446 18.7762C267.926 13.2062 316.476 16.4862 362.926 20.4862C386.726 22.6062 410.556 25.3162 434.146 29.2562C454.726 32.6862 475.666 37.6962 491.956 51.4262C528.802 82.4517 532.507 133.342 535.78 178.3C535.859 179.379 535.937 180.455 536.016 181.526C526.386 179.94 516.922 182.758 507.344 185.61C500.252 187.722 493.096 189.852 485.766 190.226C474.703 190.797 464.848 186.148 454.922 181.466C445.01 176.79 435.028 172.081 423.706 172.506C409.064 173.057 396.497 179.666 383.912 186.284C376.634 190.112 369.35 193.942 361.656 196.606C349.189 200.957 335.74 201.665 322.886 198.646C313.937 196.555 306.082 192.323 298.165 188.057C294.722 186.202 291.267 184.34 287.706 182.646C279.666 178.836 271.076 175.646 262.076 175.646C254.694 175.675 248.521 178.569 242.318 181.476C237.656 183.662 232.978 185.855 227.756 186.846C214.424 189.386 201.383 183.86 188.396 178.358C179.289 174.5 170.21 170.653 161.076 169.606C144.673 167.735 132.318 174.775 119.53 182.062ZM431.776 81.9762C424.995 83.3545 419.565 88.4259 417.726 95.0962C413.776 109.376 427.446 124.086 441.796 123.106C457.866 122.006 467.646 103.346 458.416 89.6962C453.746 82.7862 445.286 81.4062 437.416 81.7862C437.292 81.7947 437.173 81.8123 437.054 81.8296C436.894 81.8531 436.737 81.8762 436.576 81.8762C434.981 81.6516 433.36 81.6853 431.776 81.9762ZM245.466 102.686C245.906 101.686 247.266 101.956 247.766 102.686C249.541 105.285 250.947 107.987 252.298 110.582C256.371 118.409 259.935 125.256 271.576 125.346C285.938 125.46 289.999 110.998 293.446 98.7168C294.224 95.9484 294.97 93.2908 295.796 90.9362C297.586 85.8162 303.796 86.3062 305.736 90.9362C310.486 102.216 304.416 115.656 298.336 125.446C292.336 135.056 282.786 139.446 271.576 138.956C252.536 138.146 237.036 121.756 245.466 102.686ZM130.626 82.7262C122.846 83.4362 114.356 87.0362 110.186 94.0362C107.871 97.7846 107.144 102.301 108.166 106.586C108.324 109.944 109.359 113.202 111.166 116.036C119.496 129.066 141.696 132.316 149.896 117.316C153.446 110.826 154.366 101.256 151.626 94.3762C148.296 85.9962 139.286 81.9262 130.626 82.7262Z" fill="#FBB040"/>
<path d="M439.155 106.716C442.205 107.086 447.355 103.046 444.355 99.7162C444.095 99.4262 440.575 99.3062 439.295 99.3662C438.159 99.3354 437.028 99.5256 435.965 99.9262C435.615 100.076 434.305 101.506 435.045 100.466C434.494 101.237 433.846 101.933 433.115 102.536C434.442 104.725 436.639 106.245 439.155 106.716Z" fill="white"/>
<path d="M126.025 108.756C128.585 110.756 132.765 112.056 134.905 109.616C136.095 108.256 135.985 105.346 135.965 103.706C135.965 100.926 135.715 100.106 132.645 100.126C130.955 100.126 127.365 101.036 126.205 102.516C125.295 103.656 125.675 104.976 125.955 106.576C126.074 107.297 126.097 108.03 126.025 108.756Z" fill="white"/>
<path d="M34.1948 251.716C43.1248 252.466 52.5848 248.716 61.1348 252.566C70.1348 256.636 70.1348 266.996 77.8148 271.236C88.6548 277.236 101.635 268.006 110.655 262.806C130.815 251.176 151.355 248.806 173.085 257.806C198.195 268.226 220.625 277.126 248.295 270.266C269.045 265.116 286.295 251.936 305.875 243.826C326.275 235.346 345.315 236.456 366.115 243.066C386.595 249.566 407.295 256.496 429.115 255.386C441.045 254.776 451.335 251.246 461.665 245.386C469.385 241.036 477.045 236.716 486.125 236.326C495.905 235.906 504.945 239.866 513.415 244.326C522.065 248.886 536.005 258.866 546.055 252.436C560.995 242.886 552.955 208.506 540.275 200.296C530.485 193.956 518.365 198.876 508.345 201.946C498.795 204.876 489.215 207.586 479.135 206.466C460.445 204.376 445.755 189.016 427.035 188.066C406.725 187.056 388.725 202.606 370.615 209.826C351.141 217.609 329.47 217.884 309.805 210.596C292.575 204.106 273.685 185.466 254.215 192.106C244.685 195.356 237.145 201.226 226.805 202.276C218.605 203.116 210.345 201.616 202.525 199.146C185.195 193.676 166.835 181.146 147.935 184.926C131.215 188.266 118.475 201.926 102.255 206.926C84.0348 212.496 70.3448 203.246 54.1048 196.656C35.9448 189.286 24.6848 199.196 17.8648 213.086C16.1948 214.656 16.4548 215.636 15.2348 218.236C8.65482 232.156 18.4348 250.376 34.1948 251.716Z" fill="#8DC63F"/>
<path fill-rule="evenodd" clip-rule="evenodd" d="M569.725 232.746C569.755 252.206 559.465 271.056 538.115 270.806C554.425 286.276 567.275 308.166 568.855 328.856C569.855 342.146 564.175 356.596 551.045 361.856C544.685 364.406 538.275 363.976 531.895 361.736C529.551 360.933 527.262 359.68 524.962 358.421C522.739 357.204 520.506 355.982 518.205 355.156C517.865 378.506 508.925 402.466 499.145 423.396C489.785 443.396 475.745 456.736 455.375 465.216C416.025 481.546 372.205 489.506 330.025 494.216C284.855 499.256 239.215 499.036 194.025 494.726L193.233 494.651C158.204 491.311 119.019 487.575 89.0254 467.496C57.2754 446.246 44.6754 405.726 35.9754 370.306C13.4654 368.686 -1.06461 351.116 1.38539 328.376C3.58539 307.966 24.0354 287.066 44.6554 282.606C44.1708 277.021 44.3117 271.4 45.0754 265.846C43.9756 265.849 42.8813 265.862 41.7923 265.875L41.7839 265.875C33.9646 265.968 26.4199 266.058 19.0754 262.206C10.0787 257.552 3.63942 249.113 1.52539 239.206C1.15539 236.096 0.525391 230.376 0.525391 228.706C0.885391 205.116 10.0654 184.026 36.6154 179.826C37.6154 179.676 38.6154 179.586 39.6154 179.526C41.4154 155.296 46.2354 130.016 56.4154 107.906C66.5954 85.7962 83.8854 68.3462 103.155 53.9062C141.675 25.0462 185.445 5.51618 233.675 1.77618C287.055 -2.36382 341.845 1.25618 394.955 7.25618C397.238 7.51333 399.534 7.7666 401.838 8.02084C443.706 12.6408 488.516 17.5854 517.055 52.0962C547.825 89.2862 552.375 138.956 553.575 185.366C553.632 186.775 553.34 188.177 552.725 189.446C564.725 199.746 569.725 217.346 569.725 232.746ZM101.935 72.9762C86.0854 86.2762 72.9454 102.416 65.3454 121.806V121.836C59.6651 136.32 57.1885 151.354 54.6963 166.482C53.8935 171.355 53.089 176.239 52.1754 181.116C56.9961 182.505 61.6404 184.611 66.2581 186.705C77.3019 191.713 88.1939 196.651 100.985 191.546C107.559 188.924 113.592 185.487 119.532 182.103L119.533 182.103C132.325 174.816 144.686 167.775 161.075 169.646C170.208 170.693 179.283 174.539 188.386 178.397C201.37 183.899 214.411 189.426 227.755 186.886C232.977 185.895 237.656 183.702 242.317 181.516C248.52 178.608 254.693 175.715 262.075 175.686C271.115 175.636 279.705 178.856 287.705 182.686C291.292 184.386 294.77 186.255 298.237 188.118C306.13 192.358 313.964 196.567 322.885 198.686C335.745 201.688 349.193 200.963 361.655 196.596C369.386 193.926 376.691 190.084 383.984 186.248C396.55 179.639 409.083 173.047 423.705 172.496C435.028 172.071 445.01 176.78 454.922 181.456C464.847 186.138 474.703 190.787 485.765 190.216C493.108 189.842 500.267 187.71 507.362 185.597C516.935 182.746 526.389 179.931 536.015 181.516C535.937 180.445 535.859 179.369 535.78 178.291C532.507 133.333 528.801 82.4418 491.955 51.4162C475.665 37.6962 454.685 32.6862 434.145 29.2562C410.555 25.3162 386.725 22.6062 362.925 20.4562C316.445 16.4362 267.885 13.1762 221.445 18.7462C177.935 23.9762 135.345 44.9762 101.935 72.9762ZM34.5554 250.606C18.7854 249.266 15.5554 242.656 15.5554 225.876C15.5554 223.006 16.9554 215.146 17.8654 213.066C24.7254 199.166 35.9454 189.256 54.1054 196.606C57.096 197.82 60.0002 199.124 62.862 200.408L62.8625 200.409L62.8627 200.409L62.8632 200.409C75.5418 206.101 87.3911 211.42 102.255 206.876C109.702 204.581 116.424 200.466 123.131 196.36C131.033 191.523 138.914 186.699 147.935 184.876C161.432 182.177 174.652 187.794 187.419 193.219C192.531 195.391 197.57 197.532 202.525 199.096C210.345 201.566 218.605 203.096 226.805 202.226C233.35 201.562 238.773 198.966 244.289 196.326C247.487 194.795 250.717 193.249 254.215 192.056C267.763 187.436 281.03 195.055 293.652 202.305C299.17 205.474 304.564 208.572 309.805 210.546C329.47 217.834 351.141 217.559 370.615 209.776C376.433 207.473 382.239 204.305 388.113 201.1C400.527 194.327 413.246 187.387 427.025 188.086C436.713 188.604 445.321 192.953 453.963 197.32C462.021 201.392 470.107 205.478 479.125 206.486C489.205 207.606 498.785 204.896 508.335 201.966C509.341 201.657 510.368 201.33 511.413 200.997L511.413 200.997L511.413 200.997C520.754 198.019 531.46 194.605 540.265 200.316C552.945 208.526 560.985 242.906 546.045 252.456C537.451 257.955 526.004 251.452 517.465 246.602C516.019 245.781 514.657 245.007 513.405 244.346C504.935 239.876 495.895 235.916 486.115 236.346C477.043 236.736 469.388 241.049 461.674 245.396L461.655 245.406C451.325 251.236 441.035 254.766 429.105 255.406C408.2 256.47 388.315 250.147 368.656 243.897L367.466 243.518C367.012 243.374 366.559 243.23 366.105 243.086C345.305 236.476 326.265 235.366 305.865 243.846C298.277 246.996 291.028 250.91 283.784 254.821L283.783 254.822L283.783 254.822L283.783 254.822L283.782 254.822C272.373 260.983 260.976 267.136 248.285 270.286C220.615 277.146 198.185 268.286 173.075 257.826C151.345 248.826 130.805 251.216 110.645 262.826C109.697 263.374 108.704 263.967 107.674 264.582C98.9297 269.802 87.5032 276.624 77.8054 271.256C74.2204 269.262 72.3198 265.926 70.3854 262.53C68.1868 258.67 65.9445 254.734 61.1354 252.606C55.5018 250.043 49.6294 250.311 43.7241 250.58H43.7239H43.7236H43.7234C40.6666 250.719 37.6011 250.859 34.5554 250.606ZM502.532 258.08L502.555 257.516L502.575 257.506C490.465 251.716 482.225 252.826 470.045 259.736C449.745 271.206 428.225 273.826 405.295 270.376C393.194 268.408 381.277 265.442 369.665 261.506C368.413 261.099 367.159 260.684 365.903 260.269C353.468 256.157 340.826 251.976 327.565 254.156C313.69 256.441 301.23 263.3 288.811 270.136C281.064 274.4 273.333 278.655 265.285 281.786C242.8 290.445 218.075 291.388 194.995 284.466C189.051 282.658 183.388 280.032 177.732 277.41C170.657 274.129 163.592 270.853 155.995 269.186C143.245 266.386 131.605 269.726 120.475 275.936L120.141 276.123C104.076 285.094 83.9453 296.334 66.6554 283.056C63.0363 280.297 61.4568 277.456 59.4647 273.873C59.1395 273.288 58.8033 272.684 58.4454 272.056C57.9549 271.173 57.4001 270.328 56.7854 269.526C56.2054 277.136 56.1554 284.876 59.3954 291.796C65.0554 303.866 75.8954 303.136 87.3154 302.136C108.495 300.395 129.763 299.967 150.995 300.856C173.131 301.698 195.197 303.675 217.264 305.651L217.265 305.651L217.267 305.652C237.656 307.478 258.047 309.305 278.495 310.236C320.896 312.177 363.384 310.484 405.495 305.176C427.235 302.426 448.845 298.686 470.235 294.066C471.17 293.865 472.123 293.668 473.087 293.469L473.096 293.467L473.098 293.467C482.375 291.552 492.696 289.421 497.875 280.846C501.858 274.238 502.21 265.79 502.532 258.08ZM450.335 447.406C415.215 463.206 374.025 470.696 336.045 475.406C297.008 480.119 257.625 481.304 218.375 478.946L215.93 478.808C182.385 476.913 146.288 474.874 114.785 462.466C97.6054 455.696 82.9654 444.866 73.6554 428.716C63.2854 410.716 56.0054 390.386 49.7854 370.496C51.9814 370.583 54.1628 370.895 56.2954 371.426C63.2146 373.268 66.7302 378.746 70.3035 384.314C70.8617 385.184 71.4212 386.056 71.9954 386.916C78.9954 397.366 87.5354 405.406 99.4054 409.986C110.159 414.159 121.928 414.954 133.145 412.266C142.458 409.978 149.763 404.638 157.137 399.247C161.236 396.25 165.357 393.238 169.855 390.726C192.331 378.175 217.433 386.728 241.059 394.778C248.737 397.395 256.26 399.958 263.485 401.726C294.485 409.306 320.565 402.726 344.405 381.866C344.919 381.416 345.435 380.958 345.954 380.496C350.262 376.669 354.83 372.61 360.505 371.146C366.269 369.663 372.774 370.671 378.878 371.617L378.879 371.617C380.633 371.888 382.354 372.155 384.015 372.356C399.785 374.266 415.655 375.926 431.555 375.816C445.355 375.716 459.375 374.356 472.735 370.816C479.11 369.107 485.329 366.862 491.325 364.106C493.453 363.142 495.711 361.74 498.053 360.286C499.014 359.689 499.989 359.084 500.975 358.496C499.179 364.019 497.526 369.771 495.853 375.594L495.852 375.594C487.624 404.225 478.914 434.534 450.335 447.406ZM530.407 343.553C534.618 345.855 539.463 348.502 543.855 347.406V347.366C552.355 345.256 553.375 334.216 552.325 327.426C548.945 304.626 533.395 286.986 516.505 272.526C515.535 282.426 512.105 291.766 503.735 298.526C491.64 308.293 473.48 311.025 457.458 313.436C454.007 313.955 450.656 314.46 447.485 315.016C366.995 329.176 287.195 327.076 206.195 319.676C165.915 316.006 125.935 313.436 85.5054 315.386C71.9054 316.046 59.2854 313.676 51.1654 301.766C50.8354 301.226 50.4954 300.666 50.1654 300.116L46.9554 296.816C45.0857 297.919 43.1924 298.959 41.3059 299.996C33.7681 304.136 26.3382 308.218 20.9554 316.016C14.2254 325.766 12.7154 340.986 21.5954 350.126C27.5502 356.255 36.4594 355.927 45.0753 355.609C49.3077 355.454 53.4695 355.3 57.1754 355.916C69.7954 358.026 76.9654 366.186 83.7254 376.356C97.0254 396.316 120.105 404.906 141.615 391.216C144.891 389.113 147.999 386.835 151.092 384.569C158.101 379.432 165.025 374.357 173.615 371.526C184.455 367.956 196.125 367.826 207.345 369.286C219.604 370.884 231.412 374.833 243.205 378.777C257.617 383.597 272.007 388.41 287.175 388.916C301.665 389.396 315.075 384.696 326.665 376.076C329.289 374.122 331.788 371.976 334.287 369.83C340.074 364.86 345.862 359.89 353.195 357.306C363.031 353.843 373.517 355.245 383.744 356.612C386.275 356.95 388.79 357.286 391.275 357.546C403.445 358.826 415.665 359.826 427.905 359.826C440.975 359.866 454.015 358.956 466.725 355.746C476.344 353.32 484.344 349.176 492.706 344.845C494.925 343.695 497.169 342.533 499.475 341.386C508.785 336.776 517.325 337.386 526.665 341.616C527.828 342.144 529.086 342.831 530.407 343.553Z" fill="#231F20"/>
<path fill-rule="evenodd" clip-rule="evenodd" d="M149.906 117.316C141.706 132.286 119.506 129.036 111.176 116.036C109.376 113.2 108.348 109.942 108.196 106.586C107.168 102.303 107.888 97.7874 110.196 94.0362C114.366 87.0762 122.856 83.4362 130.636 82.7262C139.286 81.9262 148.296 85.9962 151.636 94.3762C154.376 101.256 153.456 110.826 149.906 117.316ZM132.616 100.126C130.926 100.126 127.336 101.036 126.176 102.516H126.206C125.453 103.46 125.617 104.527 125.81 105.773C125.85 106.033 125.891 106.3 125.926 106.576C126.044 107.297 126.068 108.03 125.996 108.756C128.556 110.736 132.736 112.056 134.876 109.616C135.964 108.372 135.948 105.831 135.938 104.151C135.937 103.995 135.936 103.846 135.936 103.706C135.916 100.926 135.686 100.126 132.616 100.126Z" fill="#231F20"/>
<path fill-rule="evenodd" clip-rule="evenodd" d="M458.445 89.6962C467.675 103.346 457.895 122.006 441.825 123.106C427.445 124.086 413.775 109.376 417.725 95.0962C419.569 88.4176 425.013 83.3444 431.805 81.9762C433.39 81.6854 435.01 81.6516 436.605 81.8762C436.721 81.8679 436.835 81.8511 436.95 81.8342C437.112 81.8103 437.275 81.7862 437.445 81.7862C445.285 81.4062 453.745 82.6962 458.445 89.6962ZM435.045 100.496C434.975 100.591 434.924 100.664 434.888 100.719C434.941 100.645 434.994 100.571 435.045 100.496ZM434.888 100.719C434.386 101.41 433.804 102.04 433.155 102.596C434.48 104.764 436.659 106.272 439.155 106.746C442.205 107.086 447.355 103.046 444.355 99.7462C444.095 99.4562 440.575 99.3362 439.295 99.3962C438.159 99.3654 437.028 99.5556 435.965 99.9562C435.824 100.017 435.527 100.279 435.271 100.505C434.952 100.786 434.697 101.01 434.888 100.719Z" fill="#231F20"/>
<path d="M271.575 138.956C282.785 139.436 292.365 135.056 298.335 125.446C304.415 115.656 310.485 102.216 305.735 90.9362C303.795 86.3062 297.585 85.8162 295.795 90.9362C291.305 103.736 289.175 125.486 271.575 125.346C256.075 125.226 254.895 113.126 247.765 102.686C247.265 101.956 245.905 101.686 245.465 102.686C237.035 121.756 252.535 138.146 271.575 138.956Z" fill="#231F20"/>
</svg>
