<svg width="313" height="581" viewBox="0 0 313 581" fill="none" xmlns="http://www.w3.org/2000/svg">
<path d="M68.7883 335.663C68.3862 336.155 67.8941 336.565 67.3383 336.873C66.9883 339.873 67.5683 342.423 70.6483 342.713C76.3483 343.253 70.4283 333.703 68.7883 335.663Z" fill="white"/>
<path d="M225.549 324.163C227.449 323.443 226.549 317.733 225.549 316.593C224.674 315.723 223.368 315.452 222.219 315.903C221.77 317.088 221.543 318.346 221.549 319.613C221.609 321.213 223.259 325.033 225.549 324.163Z" fill="white"/>
<path d="M112.96 105.073C113.11 104.463 113.26 103.843 113.42 103.233C112.53 92.4828 112.01 81.6728 111.61 70.9028C111.35 63.5728 111.24 56.2428 111.22 48.9028C111.22 45.5828 112.02 41.2728 111.33 38.0928C110.64 34.9128 108.81 34.0928 106.52 34.3228C107.29 47.3928 107.76 60.4628 108.98 73.5128C109.97 84.0428 111.78 94.5728 112.96 105.073Z" fill="#009344"/>
<path d="M114.469 114.123C114.369 113.243 114.279 112.353 114.189 111.473C113.958 111.333 113.74 111.173 113.539 110.993C113.629 112.063 113.729 113.133 113.799 114.203L114.469 114.123Z" fill="white"/>
<path fill-rule="evenodd" clip-rule="evenodd" d="M169.316 70.2953C168.951 69.4008 168.197 68.722 167.27 68.4528C158.983 66.5458 148.646 74.4854 141.576 79.9167C140.712 80.5804 139.897 81.2066 139.14 81.7728C134.793 84.8673 130.604 88.1782 126.59 91.6928C153.25 37.4528 220.36 22.0328 277.18 13.0328C275.857 16.7935 274.667 20.61 273.478 24.4251C270.422 34.2238 267.37 44.0129 262.08 52.8228C254.25 65.8528 242.27 75.8428 229.01 83.0228C200.892 98.2625 169.603 98.7226 138.542 99.1794C136.32 99.2121 134.099 99.2448 131.88 99.2828L132.55 98.6828C136.718 95.0504 141.103 91.6742 145.68 88.5728C149.974 85.6915 154.417 83.0378 158.99 80.6228C159.622 80.2847 160.261 79.9612 160.898 79.6388C164.143 77.9971 167.326 76.3863 169.14 73.0428C169.615 72.202 169.68 71.1899 169.316 70.2953ZM204.912 52.9953C197.74 56.0894 190.481 59.2213 184.14 63.8228C182.5 65.0128 182.74 68.5728 185.34 68.2228C193.398 67.1589 200.951 64.4261 208.573 61.6683L208.92 61.5428C210.129 61.1035 211.375 60.6759 212.637 60.2427C218.813 58.1223 225.383 55.867 230.05 51.4328C230.995 50.4384 231.266 48.9801 230.74 47.7126C230.215 46.4451 228.992 45.6063 227.62 45.5728C221.475 45.5728 215.516 48.2621 209.841 50.8234C208.682 51.3466 207.534 51.8644 206.4 52.3528C205.905 52.5671 205.409 52.7811 204.912 52.9953Z" fill="#009344"/>
<path fill-rule="evenodd" clip-rule="evenodd" d="M66.5082 233.333C65.1 235.1 63.6902 236.859 62.2833 238.614C50.4821 253.339 38.8811 267.813 30.0982 284.763C20.2682 303.733 13.5282 324.763 12.2582 346.203C9.94822 385.273 26.6782 424.013 48.9782 455.363C64.1183 476.686 84.8844 490.258 105.929 504.012L105.93 504.012C114.325 509.499 122.764 515.015 130.908 521.063C137.93 526.153 144.497 531.841 150.538 538.063C153.752 541.444 156.576 545.135 159.4 548.824C161.955 552.161 164.508 555.497 167.348 558.603C173.108 564.903 183.208 572.073 191.468 565.603C195.241 562.643 197.526 557.828 199.678 553.292C200.435 551.697 201.175 550.136 201.958 548.703C208.065 537.507 217.318 528.811 226.533 520.151C230.19 516.714 233.842 513.283 237.288 509.703C249.884 496.58 260.954 482.074 270.288 466.463C307.578 404.003 312.458 322.463 270.658 260.753C252.061 233.295 225.865 212.115 200.267 191.419C198.969 190.369 197.672 189.321 196.378 188.273C182.568 177.083 168.768 165.843 155.948 153.533C153.997 151.659 151.898 149.431 149.666 147.061L149.666 147.06L149.666 147.06L149.665 147.059L149.663 147.058L149.663 147.057C138.683 135.398 124.486 120.322 108.838 127.303C107.655 127.843 106.327 127.98 105.058 127.693C97.1824 135.075 96.267 151.157 95.5346 164.023C95.258 168.882 95.0076 173.282 94.4182 176.583C90.5782 198.023 79.9982 216.403 66.5082 233.333ZM57.5082 273.333C57.826 271.607 59.0922 270.209 60.7782 269.723C61.5489 269.51 62.3669 269.837 62.7782 270.523C63.644 272.159 63.644 274.117 62.7782 275.753C62.8184 276.897 62.1624 277.952 61.1182 278.423C60.5669 278.739 59.8895 278.739 59.3382 278.423L59.2282 278.323H59.1382C56.2282 278.573 55.9482 274.573 57.5482 273.333H57.5082ZM53.5682 384.273C55.2777 384.253 56.9139 383.576 58.1382 382.383C59.9662 380.532 60.5062 377.766 59.5083 375.364C58.5104 372.962 56.1692 371.393 53.5682 371.383C51.8622 371.405 50.23 372.082 49.0082 373.273C47.1815 375.122 46.6409 377.886 47.6362 380.287C48.6316 382.688 50.969 384.259 53.5682 384.273ZM67.9182 442.953C67.2918 443.552 66.3046 443.552 65.6782 442.953C65.2259 442.386 64.8587 441.756 64.5882 441.083C64.0093 440.42 63.7052 439.562 63.7382 438.683C63.7932 437.357 64.4529 436.13 65.5282 435.353C66.6482 434.573 68.3582 434.293 69.1782 435.623C70.5387 438.05 70.0316 441.097 67.9582 442.953H67.9182ZM57.5782 344.013C60.6282 351.963 70.4282 356.763 78.0382 351.883H78.0782C85.9482 346.823 85.8782 335.813 79.9882 329.303C75.5982 324.403 65.1282 321.313 61.0682 327.403C56.9644 331.89 55.6271 338.254 57.5782 344.013ZM270.738 303.133C271.268 302.773 271.888 303.413 271.738 303.913C273.548 303.113 275.838 303.353 276.888 305.373C278.028 307.573 276.688 309.563 274.788 310.443C274.706 310.798 274.606 311.148 274.488 311.493C274.314 312.117 273.746 312.55 273.098 312.553C268.678 312.003 266.888 305.733 270.778 303.133H270.738ZM269.238 398.473C267.866 398.642 266.639 399.411 265.888 400.573C265.119 401.858 264.983 403.424 265.518 404.823C265.725 405.485 266.325 405.945 267.018 405.973H271.858C272.439 405.973 272.976 405.665 273.268 405.163C274.464 402.865 273.981 400.051 272.088 398.283C271.521 397.747 270.673 397.638 269.988 398.013C269.768 398.153 269.538 398.303 269.318 398.473C269.292 398.468 269.265 398.468 269.238 398.473ZM241.388 351.313L241.768 351.023C242.333 350.403 243.05 349.941 243.848 349.683C244.344 349.389 244.912 349.237 245.488 349.243C246.911 349.024 248.366 349.291 249.618 350.003C251.566 351.206 252.774 353.313 252.828 355.603C252.812 358.203 251.234 360.538 248.828 361.523C247.503 362.12 246.01 362.237 244.608 361.853L243.068 361.193L241.758 360.193L241.378 359.903C240.217 358.78 239.573 357.227 239.598 355.613C239.594 354 240.239 352.454 241.388 351.323V351.313ZM240.748 467.633C240.396 467.192 239.924 466.862 239.388 466.683L239.408 466.693C238.943 466.562 238.444 466.626 238.026 466.869C237.607 467.112 237.305 467.514 237.188 467.983C237.148 468.013 237.078 468.063 237.078 468.063C236.309 468.797 236.061 469.923 236.448 470.913C236.661 471.508 237.075 472.01 237.618 472.333C237.731 472.991 238.135 473.563 238.717 473.891C239.298 474.219 239.997 474.267 240.618 474.023C240.809 473.964 240.988 473.872 241.148 473.753C242.212 474.12 243.362 474.159 244.448 473.863C244.987 473.709 245.426 473.316 245.638 472.797C245.851 472.278 245.814 471.691 245.538 471.203C244.548 469.633 242.648 467.743 240.748 467.633ZM213.548 225.153C213.807 224.711 214.252 224.41 214.758 224.333C215.794 223.897 216.962 223.897 217.998 224.333H219.998C220.604 224.325 221.167 224.647 221.468 225.173C222.198 226.729 221.997 228.562 220.948 229.923C220.163 230.948 218.976 231.589 217.688 231.683C216.484 232.158 215.111 231.84 214.238 230.883C212.818 229.312 212.541 227.016 213.548 225.153ZM214.137 309.996L214.136 309.997C214.014 310.137 213.893 310.274 213.778 310.433C210.98 314.274 209.944 319.123 210.928 323.773C212.938 332.863 224.238 339.383 232.418 333.453C240.398 327.673 239.998 313.933 233.058 307.523C227.848 302.703 216.538 303.423 214.278 309.833C214.231 309.888 214.184 309.942 214.137 309.996ZM208.678 411.343C208.938 410.913 209.38 410.625 209.879 410.561C210.377 410.497 210.877 410.663 211.238 411.013C211.533 411.297 211.847 411.561 212.178 411.803C212.551 411.442 213.061 411.26 213.578 411.303C214.207 411.398 214.792 411.68 215.258 412.113C216.858 413.593 216.668 416.223 215.488 417.893C215.389 418.02 215.283 418.14 215.168 418.253C215.01 418.533 214.807 418.787 214.568 419.003C214.064 419.482 213.363 419.694 212.678 419.573C211.398 419.691 210.134 419.215 209.248 418.283C207.468 416.383 207.232 413.507 208.678 411.343ZM146.488 462.953C146.862 462.926 147.215 462.77 147.488 462.513H147.508C148.837 462.144 149.762 460.942 149.778 459.563C149.757 458.012 148.921 456.588 147.578 455.813C146.148 454.923 143.998 454.563 142.998 456.213C142.278 457.531 142.248 459.118 142.918 460.463C143.05 460.723 143.2 460.974 143.368 461.213C143.653 462.484 144.883 463.31 146.168 463.093C146.283 463.067 146.391 463.019 146.488 462.953ZM178.488 308.223C178.705 307.467 179.392 306.942 180.178 306.933C182.698 306.863 185.428 307.873 186.708 310.173C187.787 312.173 187.482 314.636 185.948 316.313C185.24 317.131 184.211 317.601 183.128 317.601C182.046 317.601 181.017 317.131 180.308 316.313C179.48 315.369 179.143 314.092 179.398 312.863C178.555 311.473 178.246 309.824 178.528 308.223H178.488ZM174.428 518.323C174.11 517.919 173.673 517.625 173.178 517.483H173.218C173.049 517.192 172.829 516.935 172.568 516.723C172.032 516.204 171.219 516.099 170.568 516.463C170.546 516.478 170.527 516.499 170.507 516.521C170.475 516.557 170.442 516.593 170.398 516.593C170.01 516.712 169.713 517.028 169.618 517.423C169.378 517.818 169.283 518.285 169.348 518.743C168.218 520.203 168.148 522.933 170.508 523.063H170.648C170.895 523.147 171.162 523.147 171.408 523.063C172.106 522.779 172.704 522.295 173.128 521.673C173.831 521.532 174.418 521.053 174.698 520.393C175.058 519.716 174.95 518.885 174.428 518.323ZM170.718 393.963C171.595 395.264 171.63 396.957 170.808 398.293C170.113 399.268 168.88 399.701 167.728 399.373C167.583 399.373 167.438 399.353 167.298 399.313C165.85 398.834 164.7 397.721 164.174 396.29C163.648 394.858 163.804 393.265 164.598 391.963C164.953 391.374 165.653 391.089 166.318 391.263C167.998 391.783 169.788 392.443 170.758 393.963H170.718ZM158.708 249.723L158.468 249.813C157.23 250.07 156.265 251.042 156.018 252.283C155.608 253.933 156.236 255.668 157.608 256.673C158.037 256.934 158.519 257.098 159.018 257.153C160.728 258.733 163.238 257.153 163.648 255.153C163.9 253.987 163.585 252.77 162.798 251.873C162.683 251.077 162.335 250.332 161.798 249.733C161.103 249.018 159.971 248.97 159.218 249.623C159.046 249.644 158.876 249.677 158.708 249.723ZM155.788 189.393C156.193 190.056 156.212 190.885 155.839 191.567C155.465 192.248 154.755 192.678 153.978 192.693C153.813 192.685 153.649 192.661 153.488 192.623C153.068 192.942 152.532 193.066 152.014 192.965C151.497 192.864 151.047 192.546 150.778 192.093C149.258 189.083 154.158 186.423 155.788 189.393ZM132.732 352.063C131.746 350.42 130.765 348.783 129.678 347.343C128.788 346.113 126.408 345.943 126.008 347.823C123.348 361.703 134.668 373.393 148.668 370.973C163.138 368.453 170.588 349.263 163.088 336.873C162.277 335.566 160.777 334.853 159.252 335.052C157.726 335.25 156.458 336.322 156.008 337.793C155.274 340.284 155.275 343.247 155.276 346.232C155.279 352.762 155.281 359.395 147.588 361.413C139.596 363.508 136.143 357.751 132.732 352.063ZM119.288 150.343C120.601 149.548 122.169 149.287 123.668 149.613C123.997 149.542 124.332 149.512 124.668 149.523C128.558 149.783 127.958 155.163 125.918 157.183L125.728 157.343C125.733 157.376 125.733 157.41 125.728 157.443C125.728 158.044 125.408 158.6 124.888 158.903C123.362 159.773 121.526 159.909 119.888 159.273C119.208 159.07 118.736 158.452 118.718 157.743C118.718 157.423 118.718 157.103 118.788 156.793C118.305 156.286 117.928 155.687 117.678 155.033C116.89 153.288 117.618 151.233 119.328 150.373L119.288 150.343ZM109.678 293.063C110.846 292.269 111.584 290.982 111.678 289.573C111.778 287.573 110.458 284.233 108.158 284.133C106.594 284.046 105.157 284.992 104.618 286.463C103.141 287.529 102.451 289.38 102.868 291.153C103.136 292.084 103.767 292.87 104.618 293.333C104.818 293.983 105.086 294.609 105.418 295.203C105.678 295.633 106.12 295.92 106.619 295.985C107.117 296.049 107.617 295.883 107.978 295.533C108.742 294.864 109.326 294.015 109.678 293.063ZM102.828 216.823C102.808 216.487 102.835 216.151 102.908 215.823C103.119 214.934 103.739 214.197 104.579 213.838C105.419 213.479 106.38 213.54 107.168 214.003C107.916 214.524 108.423 215.324 108.575 216.223C108.727 217.122 108.512 218.044 107.978 218.783C107.693 219.172 107.31 219.479 106.868 219.673C106.699 219.755 106.521 219.819 106.338 219.863H105.638C105.545 220.504 105.101 221.04 104.488 221.251C103.875 221.461 103.196 221.312 102.728 220.863C101.634 219.712 101.666 217.896 102.798 216.783L102.828 216.823ZM103.738 410.113C103.23 410.465 102.856 410.98 102.678 411.573C102.308 411.545 101.952 411.724 101.755 412.039C101.558 412.354 101.551 412.752 101.738 413.073C102.017 413.456 102.355 413.794 102.738 414.073C103.005 414.981 103.568 415.773 104.338 416.323C105.958 417.383 107.408 416.223 107.808 414.723C108.466 414.443 109.049 414.011 109.508 413.463C109.967 412.984 110.061 412.262 109.738 411.683C108.513 409.595 105.829 408.892 103.738 410.113Z" fill="#FFF200"/>
<path d="M51.3882 116.513C62.9982 119.693 76.7682 118.253 88.9082 114.063C87.8482 113.713 86.8082 113.343 85.8182 112.993C80.1882 110.993 74.8182 108.283 70.7482 103.853C70.025 103.072 69.8969 101.91 70.4326 100.99C70.9683 100.071 72.0421 99.6089 73.0782 99.8528C78.6082 100.853 83.8282 102.853 89.2282 104.403C93.2282 105.543 97.8282 105.933 101.038 108.633L101.448 108.413C97.2782 103.483 93.2882 98.4128 87.7682 94.6828C80.3482 89.6828 71.5582 87.0428 62.7682 85.6828C47.7682 83.2928 28.5682 81.9428 13.9082 88.2228C24.2582 100.213 35.7682 112.233 51.3882 116.513Z" fill="#8DC63F"/>
<path fill-rule="evenodd" clip-rule="evenodd" d="M51.7489 127.333C61.7489 129.333 72.1189 127.963 82.1089 126.333C87.887 125.508 93.536 123.949 98.9189 121.693C92.5589 127.593 88.5989 136.753 87.1789 145.553C86.4268 150.21 86.0783 154.89 85.7299 159.567C85.263 165.836 84.7964 172.1 83.3589 178.303C80.9097 188.959 76.7779 199.157 71.1189 208.513C65.0899 218.475 57.6675 227.448 50.2411 236.425L50.241 236.426C44.204 243.724 38.1645 251.025 32.8689 258.863C21.3053 275.731 12.5111 294.339 6.81887 313.983C-4.78113 355.223 3.54887 396.203 23.0189 433.623C32.5389 451.933 44.0189 469.743 59.1889 483.923C71.3178 495.274 85.343 504.261 99.2929 513.2L99.3021 513.206L99.3079 513.21L99.3105 513.211C101.146 514.388 102.98 515.563 104.809 516.743C120.539 526.893 136.039 537.743 147.669 552.483C148.49 553.526 149.325 554.605 150.177 555.706C160.235 568.702 172.632 584.72 191.199 579.143C199.199 576.743 204.429 569.973 208.259 562.923C212.769 554.593 216.879 547.003 223.509 540.063C227.814 535.557 232.22 531.209 236.615 526.872L236.616 526.872L236.616 526.871L236.618 526.87C246.004 517.608 255.336 508.4 263.509 497.823C312.129 435.193 329.309 349.453 294.359 276.173C277.489 240.813 248.569 214.243 218.659 189.893C214.928 186.855 211.179 183.838 207.429 180.82L207.426 180.818L207.425 180.817C196.202 171.785 184.974 162.749 174.219 153.163C170.174 149.556 166.243 145.483 162.259 141.355L162.259 141.355C152.526 131.268 142.482 120.86 129.709 116.163C127.875 115.485 125.989 114.96 124.069 114.593C123.959 113.133 123.859 111.673 123.759 110.213C160.869 112.663 201.499 111.113 234.849 93.0728C248.729 85.5528 261.129 75.0728 269.999 61.9928C276.604 52.2201 280.062 41.1919 283.527 30.142L283.527 30.1416C285.805 22.8744 288.087 15.5978 291.269 8.66281C293.509 3.79281 289.859 -0.707195 284.689 0.0928055C245.969 6.09281 206.049 12.4628 171.689 32.5228C151.409 44.3528 133.079 61.1228 121.889 81.7828C121.339 72.1328 120.889 62.4828 120.679 52.7828C120.648 51.2831 120.711 49.6165 120.778 47.8683L120.778 47.8679C121.012 41.7013 121.284 34.5193 117.599 30.0628C113.599 25.1928 106.659 25.5928 101.159 27.1528C99.4056 27.6513 98.1865 29.2403 98.1589 31.0628C97.8889 45.6228 99.0889 60.3228 100.529 74.8028C100.681 76.3287 100.831 77.8651 100.981 79.4088C101.519 84.9468 102.066 90.5792 102.809 96.1628C93.2689 85.4828 79.9389 78.5728 65.4689 75.9628C45.6489 72.4228 20.7389 70.8128 3.05887 82.0328C0.0588694 83.9528 -0.221131 87.6428 1.99887 90.2728C15.3389 106.033 30.4789 123.103 51.7489 127.333ZM277.149 12.9928C275.826 16.7535 274.636 20.57 273.447 24.3851C270.391 34.1838 267.339 43.9729 262.049 52.7828C254.219 65.7828 242.239 75.7828 228.979 82.9828C200.851 98.2226 169.57 98.6826 138.51 99.1394C136.288 99.1721 134.067 99.2048 131.849 99.2428L132.519 98.6428C136.698 95.0232 141.093 91.6603 145.679 88.5728C149.984 85.7042 154.437 83.0639 159.019 80.6628C159.631 80.3351 160.251 80.0199 160.87 79.7054C164.138 78.0431 167.361 76.4045 169.169 73.0828C169.644 72.242 169.709 71.2299 169.345 70.3353C168.98 69.4408 168.227 68.762 167.299 68.4928C158.998 66.5827 148.641 74.512 141.548 79.9425L141.546 79.9443L141.543 79.9465C140.692 80.5985 139.887 81.2144 139.139 81.7728C134.792 84.8673 130.604 88.1782 126.589 91.6928C153.219 37.4128 220.329 22.0028 277.149 12.9928ZM111.406 45.2085C111.589 42.7522 111.781 40.1852 111.329 38.1028C110.609 34.8328 108.809 34.1128 106.499 34.3428C106.719 38.0775 106.914 41.8162 107.11 45.5551L107.11 45.5558L107.11 45.5566C107.599 54.9019 108.088 64.248 108.959 73.5328C109.521 79.4663 110.343 85.3777 111.165 91.2865L111.165 91.2867L111.165 91.2869C111.804 95.884 112.443 100.48 112.959 105.083L113.033 104.781L113.033 104.78L113.033 104.78C113.159 104.268 113.285 103.752 113.419 103.243C112.529 92.4928 112.009 81.6828 111.609 70.9128C111.349 63.5728 111.219 56.2428 111.219 48.9128C111.215 47.7669 111.31 46.5031 111.406 45.2085ZM105.079 127.573C106.348 127.86 107.676 127.723 108.859 127.183C124.506 120.202 138.704 135.278 149.684 146.937L149.685 146.938C151.917 149.309 154.017 151.539 155.969 153.413C168.789 165.723 182.589 176.963 196.399 188.153C197.693 189.201 198.99 190.249 200.288 191.299C225.886 211.995 252.082 233.176 270.679 260.633C312.479 322.353 307.599 403.883 270.309 466.343C260.975 481.954 249.904 496.46 237.309 509.583C233.83 513.208 230.142 516.679 226.449 520.154C217.269 528.793 208.062 537.457 201.979 548.583C201.205 550.004 200.472 551.549 199.723 553.128C197.566 557.675 195.274 562.507 191.489 565.483C183.229 571.993 173.129 564.823 167.369 558.483C164.504 555.36 161.937 552.004 159.371 548.648C156.563 544.978 153.756 541.307 150.559 537.943C144.518 531.721 137.95 526.033 130.929 520.943C122.784 514.894 114.345 509.379 105.949 503.892C84.905 490.138 64.139 476.566 48.9989 455.243C26.7389 423.893 9.99887 385.153 12.2789 346.083C13.5489 324.633 20.2789 303.643 30.1189 284.643C38.8968 267.694 50.4678 253.259 62.248 238.564L62.2507 238.56C63.6752 236.783 65.1028 235.002 66.5289 233.213C80.0189 216.283 90.5989 197.903 94.4589 176.353C95.0414 173.093 95.2881 168.728 95.5611 163.899C96.2861 151.073 97.1964 134.969 105.079 127.573ZM87.7989 94.6428C80.3489 89.6428 71.5589 87.0428 62.7989 85.6428C47.8089 83.2528 28.5989 81.9028 13.9689 88.1428C24.2889 100.173 35.7989 112.193 51.4189 116.473C63.0289 119.653 76.7989 118.213 88.9389 114.023C88.1517 113.77 87.4114 113.507 86.6842 113.248C86.4045 113.149 86.1267 113.05 85.8489 112.953C80.2189 110.933 74.8889 108.243 70.7789 103.813C70.0556 103.032 69.9275 101.87 70.4633 100.95C70.999 100.031 72.0728 99.5689 73.1089 99.8128C76.8218 100.478 80.3949 101.611 83.9766 102.747C85.7295 103.303 87.4845 103.86 89.2589 104.363C90.2685 104.651 91.3164 104.891 92.3705 105.132C95.4925 105.847 98.6691 106.574 101.069 108.593L101.479 108.373C101.059 107.876 100.64 107.378 100.222 106.88C96.4891 102.435 92.7626 97.9969 87.7989 94.6428Z" fill="#231F20"/>
<path fill-rule="evenodd" clip-rule="evenodd" d="M57.6187 344.013C55.6676 338.254 57.0049 331.89 61.1087 327.403C65.1687 321.313 75.6787 324.403 80.0287 329.303C85.8787 335.813 85.9487 346.823 78.0787 351.883C70.4687 356.763 60.6687 351.963 57.6187 344.013ZM67.3687 336.873C67.0187 339.903 67.5987 342.423 70.6787 342.713C76.3487 343.253 70.4287 333.703 68.8187 335.663C68.4166 336.155 67.9245 336.565 67.3687 336.873Z" fill="#231F20"/>
<path fill-rule="evenodd" clip-rule="evenodd" d="M233.058 307.523C239.998 313.933 240.418 327.673 232.418 333.453C224.238 339.383 212.938 332.863 210.928 323.773C209.944 319.123 210.98 314.274 213.778 310.433C213.893 310.274 214.014 310.137 214.135 309.997C214.183 309.943 214.23 309.889 214.278 309.833C216.538 303.423 227.848 302.703 233.058 307.523ZM225.558 316.593C224.683 315.723 223.377 315.452 222.228 315.903C221.779 317.088 221.552 318.346 221.558 319.613C221.618 321.213 223.268 325.033 225.558 324.163C227.448 323.443 226.558 317.733 225.558 316.593Z" fill="#231F20"/>
<path d="M241.388 359.903L241.768 360.193L243.078 361.193L244.618 361.853C246.02 362.237 247.513 362.12 248.838 361.523C251.244 360.538 252.822 358.203 252.838 355.603C252.784 353.313 251.577 351.206 249.628 350.003C248.377 349.291 246.921 349.024 245.498 349.243C244.922 349.237 244.354 349.389 243.858 349.683C243.06 349.941 242.343 350.403 241.778 351.023L241.398 351.313C240.253 352.446 239.612 353.992 239.618 355.603C239.588 357.219 240.228 358.776 241.388 359.903Z" fill="#231F20"/>
<path d="M53.6082 371.363C51.9022 371.385 50.27 372.062 49.0482 373.253C47.2215 375.102 46.6809 377.866 47.6762 380.267C48.6716 382.668 51.009 384.239 53.6082 384.253C55.3177 384.233 56.9539 383.556 58.1782 382.363C60.0062 380.512 60.5462 377.746 59.5483 375.344C58.5504 372.942 56.2092 371.373 53.6082 371.363V371.363Z" fill="#231F20"/>
<path d="M126.049 347.823C123.389 361.703 134.749 373.393 148.709 370.973C163.179 368.453 170.629 349.263 163.129 336.873C162.318 335.566 160.818 334.853 159.293 335.052C157.767 335.25 156.499 336.322 156.049 337.793C153.709 345.733 158.839 358.473 147.629 361.413C137.329 364.113 134.569 353.773 129.719 347.343C128.789 346.113 126.409 345.943 126.049 347.823Z" fill="#231F20"/>
<path d="M185.34 68.2328C193.52 67.1528 201.18 64.3528 208.92 61.5528C216.08 58.9628 224.43 56.7828 230.05 51.4428C231.002 50.4491 231.277 48.9864 230.75 47.7147C230.224 46.4431 228.996 45.6027 227.62 45.5728C220.22 45.5728 213.09 49.4628 206.4 52.3428C198.75 55.6528 190.92 58.8928 184.14 63.8128C182.5 65.0128 182.74 68.5728 185.34 68.2328Z" fill="#231F20"/>
<path d="M105.609 219.823H106.309C106.492 219.779 106.669 219.715 106.839 219.633C107.28 219.439 107.663 219.132 107.949 218.743C108.483 218.004 108.698 217.082 108.545 216.183C108.393 215.284 107.886 214.484 107.139 213.963C106.351 213.5 105.39 213.439 104.55 213.798C103.709 214.157 103.089 214.894 102.879 215.783C102.805 216.111 102.778 216.447 102.799 216.783C101.709 217.878 101.665 219.634 102.699 220.783C103.161 221.23 103.833 221.384 104.444 221.183C105.055 220.981 105.503 220.457 105.609 219.823Z" fill="#231F20"/>
<path d="M153.488 192.623C153.649 192.661 153.813 192.685 153.978 192.693C154.755 192.678 155.465 192.248 155.838 191.567C156.212 190.885 156.193 190.056 155.788 189.393C154.158 186.393 149.258 189.083 150.788 192.093C151.057 192.543 151.505 192.858 152.02 192.959C152.535 193.061 153.069 192.938 153.488 192.623Z" fill="#231F20"/>
<path d="M157.599 256.663C158.029 256.924 158.51 257.088 159.009 257.143C160.719 258.733 163.229 257.143 163.639 255.143C163.891 253.977 163.576 252.76 162.789 251.863C162.674 251.067 162.326 250.322 161.789 249.723C161.095 249.008 159.962 248.96 159.209 249.613C159.037 249.634 158.867 249.667 158.699 249.713L158.459 249.803C157.22 250.055 156.251 251.023 155.999 252.263C155.587 253.918 156.22 255.659 157.599 256.663Z" fill="#231F20"/>
<path d="M217.679 231.663C218.967 231.569 220.154 230.928 220.939 229.903C221.988 228.542 222.189 226.709 221.459 225.153C221.158 224.627 220.595 224.305 219.989 224.313H217.989C216.953 223.877 215.785 223.877 214.749 224.313C214.243 224.39 213.799 224.691 213.539 225.133C212.534 226.985 212.798 229.269 214.199 230.843C215.072 231.82 216.462 232.147 217.679 231.663Z" fill="#231F20"/>
<path d="M104.618 286.423C103.141 287.489 102.451 289.34 102.868 291.113C103.136 292.044 103.767 292.83 104.618 293.293C104.818 293.943 105.087 294.569 105.418 295.163C105.679 295.593 106.12 295.88 106.619 295.945C107.117 296.009 107.618 295.843 107.978 295.493C108.742 294.824 109.326 293.975 109.678 293.023C110.846 292.229 111.584 290.942 111.678 289.533C111.808 287.593 110.488 284.233 108.188 284.093C106.613 283.992 105.16 284.941 104.618 286.423Z" fill="#231F20"/>
<path d="M59.1683 278.343H59.2583L59.3683 278.443C59.9196 278.759 60.597 278.759 61.1483 278.443C62.1925 277.972 62.8485 276.917 62.8083 275.773C63.6741 274.137 63.6741 272.179 62.8083 270.543C62.397 269.857 61.579 269.53 60.8083 269.743C59.1223 270.229 57.8561 271.627 57.5383 273.353C55.9483 274.573 56.2283 278.573 59.1683 278.343Z" fill="#231F20"/>
<path d="M118.909 156.823C118.909 157.133 118.849 157.453 118.839 157.773C118.857 158.482 119.329 159.1 120.009 159.303C121.647 159.939 123.484 159.803 125.009 158.933C125.529 158.63 125.849 158.074 125.849 157.473C125.854 157.44 125.854 157.406 125.849 157.373L126.039 157.213C128.039 155.213 128.679 149.813 124.789 149.553C124.454 149.542 124.118 149.572 123.789 149.643C122.29 149.317 120.722 149.578 119.409 150.373C117.728 151.276 117.054 153.342 117.879 155.063C118.105 155.711 118.455 156.309 118.909 156.823Z" fill="#231F20"/>
<path d="M180.348 316.293C181.057 317.111 182.086 317.581 183.168 317.581C184.251 317.581 185.28 317.111 185.988 316.293C187.522 314.616 187.827 312.153 186.748 310.153C185.468 307.853 182.748 306.843 180.218 306.913C179.432 306.922 178.745 307.447 178.528 308.203C178.262 309.802 178.586 311.444 179.438 312.823C179.177 314.058 179.514 315.345 180.348 316.293Z" fill="#231F20"/>
<path d="M273.158 312.573C273.806 312.57 274.374 312.137 274.548 311.513C274.666 311.168 274.766 310.818 274.848 310.463C276.748 309.583 278.088 307.593 276.948 305.393C275.948 303.393 273.608 303.133 271.798 303.933C271.928 303.433 271.308 302.793 270.798 303.153C266.888 305.733 268.678 312.003 273.158 312.573Z" fill="#231F20"/>
<path d="M212.678 419.573C213.352 419.704 214.048 419.511 214.558 419.053C214.797 418.837 215 418.583 215.158 418.303C215.273 418.19 215.379 418.07 215.478 417.943C216.658 416.273 216.848 413.643 215.248 412.163C214.782 411.73 214.197 411.448 213.568 411.353C213.051 411.31 212.541 411.492 212.168 411.853C211.837 411.611 211.523 411.347 211.228 411.063C210.867 410.713 210.367 410.547 209.869 410.611C209.37 410.675 208.928 410.963 208.668 411.393C207.251 413.549 207.491 416.394 209.248 418.283C210.134 419.215 211.398 419.691 212.678 419.573Z" fill="#231F20"/>
<path d="M102.789 414.073C103.056 414.981 103.619 415.773 104.389 416.323C106.009 417.383 107.459 416.223 107.859 414.723C108.517 414.443 109.1 414.011 109.559 413.463C110.018 412.984 110.112 412.262 109.789 411.683C108.564 409.595 105.88 408.892 103.789 410.113C103.262 410.457 102.87 410.973 102.679 411.573C102.308 411.562 101.962 411.758 101.78 412.081C101.597 412.403 101.609 412.801 101.809 413.113C102.085 413.48 102.416 413.804 102.789 414.073Z" fill="#231F20"/>
<path d="M164.678 391.963C163.884 393.265 163.728 394.858 164.254 396.29C164.78 397.721 165.93 398.834 167.378 399.313C167.518 399.353 167.663 399.373 167.808 399.373C168.96 399.701 170.193 399.268 170.888 398.293C171.71 396.957 171.674 395.264 170.798 393.963C169.798 392.443 168.038 391.783 166.398 391.263C165.733 391.089 165.033 391.374 164.678 391.963Z" fill="#231F20"/>
<path d="M147.568 455.813C146.138 454.923 143.978 454.563 142.988 456.213C142.268 457.531 142.238 459.118 142.908 460.463C143.04 460.723 143.19 460.974 143.358 461.213C143.643 462.484 144.873 463.31 146.158 463.093C146.273 463.067 146.381 463.019 146.478 462.953C146.852 462.926 147.205 462.77 147.478 462.513C148.803 462.14 149.723 460.939 149.738 459.563C149.723 458.019 148.9 456.595 147.568 455.813Z" fill="#231F20"/>
<path d="M65.5698 435.353C64.4944 436.13 63.8348 437.357 63.7798 438.683C63.7468 439.562 64.0508 440.42 64.6298 441.083C64.9003 441.756 65.2675 442.386 65.7198 442.953C66.3462 443.552 67.3334 443.552 67.9598 442.953C70.0467 441.107 70.5707 438.059 69.2198 435.623C68.3998 434.293 66.6798 434.573 65.5698 435.353Z" fill="#231F20"/>
<path d="M170.608 516.573C170.548 516.573 170.508 516.663 170.438 516.703C170.05 516.822 169.753 517.138 169.658 517.533C169.418 517.928 169.323 518.395 169.388 518.853C168.258 520.313 168.188 523.043 170.548 523.173H170.688C170.935 523.257 171.202 523.257 171.448 523.173C172.146 522.889 172.744 522.405 173.168 521.783C173.871 521.642 174.458 521.163 174.738 520.503C175.098 519.826 174.99 518.995 174.468 518.433C174.15 518.029 173.713 517.735 173.218 517.593C173.061 517.332 172.862 517.099 172.628 516.903C172.106 516.351 171.279 516.216 170.608 516.573Z" fill="#231F20"/>
<path d="M237.21 467.993C237.21 467.993 237.13 467.993 237.1 468.073C236.331 468.807 236.082 469.933 236.47 470.923C236.682 471.518 237.096 472.02 237.64 472.343C237.753 473.001 238.156 473.573 238.738 473.901C239.32 474.229 240.018 474.277 240.64 474.033C240.83 473.974 241.009 473.882 241.17 473.763C242.233 474.13 243.383 474.169 244.47 473.873C245.009 473.719 245.447 473.326 245.66 472.807C245.872 472.288 245.835 471.701 245.56 471.213C244.56 469.663 242.67 467.753 240.77 467.643C240.417 467.202 239.945 466.872 239.41 466.693C238.945 466.569 238.45 466.637 238.037 466.881C237.623 467.126 237.325 467.526 237.21 467.993Z" fill="#231F20"/>
<path d="M267.018 405.943H271.858C272.439 405.943 272.976 405.635 273.268 405.133C274.464 402.835 273.981 400.021 272.088 398.253C271.521 397.717 270.673 397.608 269.988 397.983C269.768 398.123 269.538 398.273 269.318 398.443C269.292 398.438 269.265 398.438 269.238 398.443C267.866 398.612 266.639 399.381 265.888 400.543C265.132 401.817 264.996 403.366 265.518 404.753C265.711 405.43 266.315 405.909 267.018 405.943Z" fill="#231F20"/>
</svg>
