<svg width="477" height="561" viewBox="0 0 477 561" fill="none" xmlns="http://www.w3.org/2000/svg">
<path d="M186.021 489.494C186.961 486.864 186.121 482.054 186.021 479.254C185.831 471.635 184.791 464.061 182.921 456.674C179.661 443.314 175.201 429.954 173.571 416.274C170.994 415.461 168.467 414.499 166.001 413.394C166.001 416.704 165.571 420.224 165.671 422.954C165.942 430.649 166.61 438.326 167.671 445.954C169.611 459.514 172.351 474.414 178.001 486.954C179.581 490.474 183.231 497.294 186.021 489.494Z" fill="#603913"/>
<path fill-rule="evenodd" clip-rule="evenodd" d="M306.019 369.143C326.859 375.143 347.739 364.053 354.409 345.143C360.519 356.143 368.509 365.203 381.269 369.623C379.838 376.873 378.854 384.26 377.872 391.636C377.096 397.456 376.322 403.27 375.329 409.003C373.049 422.437 370.466 435.813 367.579 449.133C364.693 462.453 361.583 475.717 358.249 488.923C357.8 490.692 357.364 492.467 356.927 494.243C354.767 503.023 352.601 511.834 348.849 520.043C348.433 520.149 348.037 520.325 347.679 520.563C328.949 533.503 308.949 543.093 286.559 547.563C262.179 552.473 236.799 551.693 212.249 548.473C191.459 545.743 166.559 540.473 151.619 524.473C147.782 520.359 146.489 515.165 145.178 509.899C145.024 509.278 144.869 508.655 144.709 508.033C143.235 502.287 141.723 496.548 140.213 490.817C140.002 490.016 139.79 489.215 139.579 488.413C136.279 475.807 132.963 463.197 129.629 450.583C125.886 436.357 122.007 422.178 118.127 407.991L117.919 407.233C116.971 403.764 116.125 400.107 115.263 396.386C113.135 387.194 110.917 377.614 106.859 369.513C111.852 365.073 115.841 359.618 118.559 353.513C123.729 375.713 138.019 396.713 157.299 408.713C157.245 408.974 157.211 409.238 157.199 409.503C156.479 428.79 158.431 448.083 162.999 466.833C163.304 468.083 163.617 469.509 163.956 471.055C166.496 482.621 170.503 500.872 183.179 501.833C207.459 503.683 189.429 440.503 181.599 418.223C198.129 421.223 214.409 417.583 228.599 409.683C226.589 427.253 227.339 445.973 228.799 463.323C228.866 464.118 228.932 465.005 229.003 465.965C229.873 477.748 231.559 500.583 247.009 499.103C261.799 497.703 259.879 470.483 258.799 460.793C257.753 451.368 255.476 442.18 253.201 432.997C250.586 422.442 247.973 411.892 247.229 400.993C247.169 399.619 246.455 398.355 245.309 397.593C254.397 389.286 261.772 379.281 267.019 368.143C270.929 359.607 273.816 350.638 275.619 341.423C281.159 354.323 291.239 364.843 306.019 369.143ZM330.647 467.964C330.699 467.529 330.749 467.104 330.799 466.693C332.26 454.86 332.798 442.931 332.409 431.013C332.382 430.178 332.364 429.157 332.343 427.992C332.117 415.174 331.582 384.789 314.669 388.803C312.999 389.183 311.814 390.67 311.819 392.383C306.735 397.818 305.554 405.882 304.478 413.232C304.327 414.266 304.177 415.286 304.019 416.283C302.455 425.564 301.785 434.974 302.019 444.383C302.235 454.017 304.127 463.539 307.609 472.523C309.999 478.423 313.279 486.413 321.129 484.893C328.825 483.403 329.878 474.479 330.647 467.964Z" fill="#754C29"/>
<path d="M319.76 403.143C319.284 400.97 318.001 399.058 316.17 397.793C312.83 408.793 311.86 420.793 311.31 432.133C310.67 445.293 311.72 458.903 317.44 470.963C319.44 475.233 319.67 473.963 320.32 469.383C320.82 465.753 321.22 462.103 321.55 458.453C322.21 451.153 322.55 443.813 322.48 436.453C322.41 429.093 322.03 421.793 321.31 414.503C320.94 410.803 320.76 406.823 319.76 403.143Z" fill="#603913"/>
<path d="M403.69 80.6835C390.13 73.6835 377.36 65.6835 363.59 59.2935C372.67 73.4935 386.32 85.2935 402.22 90.6435C421.89 97.2435 441.03 90.6435 460.7 89.9735C455.7 85.3435 449.7 81.7135 443.88 78.0635C435.48 72.8035 427.02 67.6135 418.19 63.1435C409.002 58.2965 399.185 54.7524 389.02 52.6135C381.42 51.1435 373.96 51.2135 366.42 51.4035C381.42 57.1035 396.2 64.5435 407.68 75.4735C410.54 78.1435 406.92 82.3535 403.69 80.6835Z" fill="#8DC63F"/>
<path d="M236.651 449.144C237.001 456.684 237.491 464.214 238.372 471.704C238.689 475.415 239.311 479.094 240.232 482.704C240.727 484.837 241.705 486.828 243.092 488.524C246.426 490.01 248.212 489.3 248.452 486.394C251.783 481.214 250.623 470.464 250.173 464.564C249.472 457.141 248.188 449.785 246.332 442.564C243.242 429.454 239.692 416.564 238.542 403.083C237.631 403.773 236.721 404.433 235.781 405.084C237.181 419.674 236.021 434.594 236.651 449.144Z" fill="#603913"/>
<path d="M166.712 261.303C173.862 258.223 170.192 249.683 164.262 247.653C159.692 246.083 153.762 248.083 151.522 252.513C151.206 253.808 151.322 255.171 151.852 256.393C154.252 262.643 160.922 263.793 166.712 261.303Z" fill="#BE1E2D"/>
<path d="M69.8609 238.753C71.8607 240.613 73.4804 241.003 76.2201 240.473C78.3698 240.053 80.7795 239.583 81.8693 237.524C83.6191 234.234 81.8693 229.064 79.2697 226.764C72.2806 220.624 67.2813 231.964 69.8609 238.753Z" fill="#BE1E2D"/>
<path fill-rule="evenodd" clip-rule="evenodd" d="M124.31 331.624C124.73 326.514 117.67 326.613 116.02 330.564C114.805 333.487 113.812 336.508 112.82 339.525L112.82 339.526C110.545 346.447 108.276 353.349 103.36 359.004C96.2995 367.124 84.4495 370.564 74.2195 366.874C52.1995 358.944 53.1695 329.044 73.4695 320.044C77.9695 318.044 75.4295 311.284 71.0795 311.224C44.0795 310.824 18.4395 292.844 11.0795 266.434C7.12578 252.849 9.31829 238.213 17.0795 226.384C24.0195 216.004 37.0195 207.324 48.5895 215.874C51.3195 217.894 54.7995 214.014 53.1295 211.344C52.4957 210.331 51.7511 209.392 50.9095 208.544C44.6395 198.364 41.0595 187.884 43.6395 175.474C46.5595 161.444 56.1195 149.434 67.4895 141.094C79.5695 132.224 94.0195 127.534 108.7 132.614C115.226 134.854 121.055 138.759 125.61 143.944C128.315 147.016 130.167 150.551 132.023 154.095C133.206 156.353 134.391 158.615 135.8 160.764C136.038 161.138 136.332 161.475 136.67 161.764C137.91 163.964 140.49 163.354 141.61 161.644C142.398 160.94 142.858 159.94 142.88 158.884C142.944 156.818 142.736 154.754 142.26 152.744C141.95 148.969 141.87 145.178 142.02 141.394C142.493 135.441 143.647 129.563 145.46 123.874C149.398 111.701 155.706 100.428 164.02 90.7035C178.72 73.3535 198.72 60.5935 221.02 56.0635C243.32 51.5335 267.76 56.2535 286.49 69.3335C296.78 76.5235 305.18 86.7235 312.6 96.7235C314.13 98.7935 315.61 100.914 317.02 103.084C307.535 126.059 301.064 150.166 297.77 174.804C289.56 171.854 280.22 172.164 271.64 173.334C260.67 174.824 250.12 179.114 244.82 189.444C235.42 207.754 245.74 230.284 263.16 239.334C281.26 248.734 304.44 243.024 315.74 225.884C321.668 216.63 323.479 205.327 320.74 194.684C318.82 187.154 313.86 178.334 306.08 176.224C310.63 155.224 315.78 134.684 323.31 115.004C324.196 117.414 324.888 119.859 325.583 122.312C326.251 124.672 326.921 127.04 327.77 129.394C328.257 130.6 329.224 131.549 330.44 132.014C331.634 132.98 333.32 133.049 334.59 132.184C359.5 117.464 392.37 123.784 407.01 149.704C420.88 174.254 417.47 212.104 391.41 226.924C386.75 229.574 389.26 235.864 393.96 236.324C412.29 238.084 429.57 248.944 439.52 264.434C451.73 283.464 449.05 305.704 440.17 325.574C432.34 343.104 420.48 360.914 399.4 361.764C390.39 362.182 381.5 359.57 374.15 354.344C365.54 347.993 360.54 337.664 356.03 328.264C354.14 324.334 347.74 326.284 347.9 330.464C348.75 353.594 326.47 367.583 305.47 359.464C284.21 351.214 277.69 327.514 280.21 306.784C280.81 301.784 272.12 300.584 271.36 305.584C270.61 310.563 270.409 315.61 270.76 320.634C270.372 326.423 269.634 332.184 268.55 337.884C266.237 348.795 262.325 359.305 256.94 369.074C246.74 387.364 230.09 401.864 209.56 407.074C189.35 412.204 168.52 406.344 153.1 392.514C135.59 376.824 130.43 356.474 126.1 334.394C125.91 333.263 125.262 332.261 124.31 331.624ZM380.53 172.054C378.46 165.234 371.14 160.754 364.24 163.464H364.21C359.64 165.264 357.02 170.194 358.27 174.474C357.32 180.974 364.27 186.974 370.39 187.164C378.69 187.414 382.76 179.384 380.53 172.054ZM359.95 268.464C365.16 262.914 375.08 262.774 381.29 268.564C390.29 276.984 389.55 294.194 378.45 300.564C366.6 307.384 352.51 297.804 351.45 284.804C350.87 278.304 354.6 271.844 359.92 268.494L359.95 268.464ZM306.969 285.104C304.744 285.058 302.638 286.104 301.329 287.904L301.299 287.934C298.77 291.063 298.54 296.073 299.01 299.883C299.49 304.113 301.929 307.503 306.209 308.503C310.415 309.283 314.762 308.527 318.458 306.373C325.718 301.573 322.688 289.443 316.128 285.443C313.342 283.744 309.873 283.616 306.969 285.104ZM224.33 140.904C226.162 138.287 229.021 136.574 232.193 136.192C235.364 135.811 238.549 136.797 240.95 138.904C243.273 141.141 244.507 144.279 244.33 147.499C244.154 150.72 242.584 153.704 240.03 155.674C237.132 157.708 233.421 158.19 230.1 156.964C229.553 157.29 228.861 157.247 228.36 156.854C225.58 154.964 223.66 153.084 222.84 149.704C222.104 146.687 222.631 143.502 224.3 140.884L224.33 140.904ZM198.299 313.294C197.979 313.559 197.676 313.842 197.389 314.144C191.54 320.064 191.46 330.844 197.339 336.803C204.409 344.014 216.399 341.734 220.768 332.734C224.768 324.404 220.719 313.734 211.769 310.824C208.001 309.705 203.947 310.081 200.449 311.874C200.242 311.954 200.041 312.051 199.849 312.164L199.499 312.414C199.122 312.653 198.758 312.913 198.409 313.194L198.299 313.294ZM148.27 244.544C150.179 242.951 152.453 241.859 154.89 241.364C159.426 239.417 164.551 239.359 169.13 241.204C179.66 245.634 183.78 260.784 173.5 267.944C163.02 275.274 148.02 271.554 144.02 259.144C142.109 253.87 143.827 247.967 148.27 244.544ZM64.6195 241.324C64.0895 251.234 81.0595 248.514 85.7595 244.324C92.3495 238.444 90.0195 226.774 83.9495 221.414C77.4095 215.664 67.2295 217.754 64.0395 225.934C62.0995 230.924 62.1295 236.944 64.6195 241.324Z" fill="#E27683"/>
<path d="M212.638 330.673C215.506 327.086 214.934 321.856 211.358 318.973C209.281 317.534 206.766 316.865 204.248 317.083C202.048 321.083 199.008 325.323 201.998 329.893C203.077 331.731 204.989 332.921 207.114 333.077C209.238 333.233 211.304 332.334 212.638 330.673Z" fill="#BE1E2D"/>
<path d="M296.701 215.584C299.081 213.146 300.754 210.108 301.541 206.794C303.021 200.684 300.841 192.134 294.871 189.874C300.021 196.634 299.381 206.804 296.701 215.584Z" fill="#E27683"/>
<path d="M373.74 292.594C379.32 289.304 379.81 281.384 376.64 276.284C375.864 275.017 374.823 273.932 373.59 273.104C367.23 273.184 359.95 275.584 360.21 283.244C360.43 289.814 367.34 296.374 373.74 292.594Z" fill="#BE1E2D"/>
<path fill-rule="evenodd" clip-rule="evenodd" d="M263.08 228.324C252.19 220.024 245.399 201.924 255.4 190.194C264.65 179.314 284.02 179.854 297.931 182.324C298.671 183.348 299.867 183.942 301.131 183.914C310.021 182.904 312.351 199.774 312.021 205.834C311.727 213.269 308.667 220.327 303.441 225.624C292.542 236.462 275.325 237.613 263.08 228.324ZM289.9 227.874C300.98 224.204 309.29 213.744 308.76 201.744C308.3 191.424 299.69 181.884 289.04 185.174C286.79 184.714 285.04 187.304 286.04 189.504C286.107 189.647 286.175 189.79 286.242 189.932C288.758 195.248 290.928 199.835 290.49 205.854C290.147 210.557 288.501 214.885 286.852 219.219C286.335 220.579 285.817 221.94 285.34 223.314C284.41 225.944 287.32 228.734 289.9 227.874Z" fill="#BE1E2D"/>
<path d="M309.571 301.033C310.771 300.923 313.19 300.803 314.13 299.953C316.23 298.063 314.23 293.273 312.43 291.713C311.923 291.324 311.317 291.085 310.681 291.023C310.206 291.44 309.592 291.661 308.961 291.643C307.401 291.553 306.641 292.923 306.341 294.573C306.346 294.633 306.346 294.694 306.341 294.753C306.112 296.302 306.177 297.879 306.531 299.403C307.021 301.143 307.881 301.193 309.571 301.033Z" fill="#BE1E2D"/>
<path d="M235.29 149.323C236.6 148.003 236.58 145.423 235 144.403C234.136 143.843 233.055 143.733 232.096 144.108C231.136 144.483 230.416 145.296 230.16 146.293C229.946 147.119 229.849 147.971 229.87 148.823C231.42 149.963 233.69 150.913 235.29 149.323Z" fill="#BE1E2D"/>
<path d="M369.648 178.224C372.327 179.034 372.977 176.834 372.577 174.594C372.107 172.013 369.768 169.683 366.988 170.473C366.122 170.768 365.405 171.389 364.988 172.203L365.048 172.303C366.248 174.534 366.858 177.374 369.648 178.224Z" fill="#BE1E2D"/>
<path fill-rule="evenodd" clip-rule="evenodd" d="M100.2 373.903C100.993 381.837 103.391 389.961 105.707 397.812L105.707 397.812L105.708 397.812L105.708 397.814C106.749 401.343 107.774 404.817 108.63 408.193C109.404 411.235 110.175 414.28 110.948 417.328C113.732 428.311 116.524 439.327 119.42 450.293C120.864 455.762 122.307 461.228 123.75 466.692L123.756 466.718C126.007 475.244 128.257 483.767 130.51 492.293C131.245 495.076 131.89 498.063 132.55 501.128C134.585 510.569 136.779 520.747 142.29 527.933C155.64 545.363 180.93 552.674 201.52 556.214C226.81 560.554 253.04 561.923 278.52 558.443C305.12 554.813 332.67 545.583 352.34 526.654C352.532 526.469 352.703 526.265 352.85 526.044C358.74 519.955 360.96 511.501 363.123 503.262C363.472 501.933 363.819 500.61 364.18 499.303C368.18 484.814 371.64 470.173 374.87 455.493C378.1 440.814 381.01 426.053 383.59 411.243C384.138 408.093 384.724 404.923 385.312 401.74C387.151 391.786 389.015 381.703 389.81 371.693C404.58 374.057 419.615 369.487 430.57 359.303C444.95 345.784 454.57 323.763 457.57 304.523C460.649 286.266 455.732 267.565 444.07 253.183C434.443 241.35 421.355 232.826 406.64 228.803C429.18 208.963 430.17 169.643 415.8 144.553C399.8 116.643 363.68 106.673 336.11 121.963C335.44 115.073 332.61 108.213 328.79 101.703C333.296 91.6203 338.617 81.9215 344.7 72.7035C347.76 68.1035 351.06 63.6535 354.54 59.3435C363.691 76.2113 378.386 89.4014 396.14 96.6835C406.497 100.942 417.682 102.808 428.86 102.143C433.657 101.886 438.432 101.364 443.204 100.842C452.54 99.8204 461.86 98.8007 471.29 99.7735C474.82 100.143 477.29 95.4635 475.38 92.6435C469.59 83.9435 461.57 78.0435 452.86 72.4835C442.43 65.8135 431.86 59.1435 420.71 53.7435C406.51 46.8635 387.5 39.9735 370.63 42.1435C373.34 39.6135 376.12 37.1435 378.99 34.8135C392.297 23.959 407.032 17.1893 422.382 10.1363L422.715 9.98342L424.02 9.38349C429.47 6.87349 425.45 -1.03651 420.11 0.113488C385.73 7.51349 355.72 37.4035 336.87 65.5935C331.318 73.9366 326.362 82.6616 322.04 91.7035C317.51 85.7035 312.59 80.1835 308.39 75.5035C294.3 59.7935 275.84 49.2735 254.92 45.9535C213.74 39.4335 173.16 60.8035 150.31 94.7735C143.32 105.014 138.313 116.476 135.55 128.563C134.93 131.403 134.34 134.563 133.92 137.723C128.625 131.808 122.062 127.166 114.72 124.143C96.7202 117.063 77.9002 121.973 63.0202 133.493C49.6702 143.813 38.3202 158.413 35.4902 175.403C33.9502 184.663 34.8802 195.283 39.1402 203.983C32.1402 203.893 24.5002 206.983 19.3602 211.033C5.23016 222.033 -1.46984 240.563 0.270157 258.163C3.39016 289.523 28.4202 312.893 57.9302 319.143C42.2802 334.883 45.4002 363.993 67.4402 374.723C77.8827 379.611 90.0152 379.308 100.2 373.903ZM407.7 75.4735C396.22 64.5435 381.4 57.1435 366.44 51.4035C373.98 51.2135 381.44 51.1435 389.04 52.6135C399.198 54.7542 409.009 58.2982 418.19 63.1435C427.03 67.6235 435.48 72.8135 443.88 78.0735L444.41 78.4046L444.759 78.6224C450.313 82.09 455.913 85.5856 460.7 89.9835C454.598 90.1975 448.547 90.9784 442.515 91.7568C429.104 93.4876 415.788 95.206 402.22 90.6535C386.32 85.3135 372.67 73.5035 363.59 59.3035C371.95 63.1888 379.941 67.649 387.963 72.1271C393.156 75.0254 398.362 77.9312 403.69 80.6935C406.92 82.3535 410.54 78.1435 407.7 75.4735ZM367.49 449.143C370.337 435.81 372.92 422.42 375.24 408.974C376.21 403.352 376.972 397.669 377.734 391.985C378.74 384.484 379.745 376.981 381.23 369.613C368.56 365.193 360.57 356.193 354.46 345.193C347.79 364.113 326.91 375.163 306.08 369.113C291.3 364.814 281.22 354.293 275.68 341.393C273.86 350.621 270.953 359.6 267.02 368.143C261.747 379.293 254.341 389.301 245.22 397.603C246.366 398.365 247.08 399.629 247.14 401.003C247.883 411.902 250.497 422.452 253.112 433.007L253.112 433.007C255.387 442.19 257.663 451.378 258.71 460.803C259.79 470.493 261.68 497.714 246.92 499.113C231.47 500.593 229.784 477.758 228.914 465.975C228.843 465.015 228.777 464.128 228.71 463.333C227.25 445.983 226.51 427.263 228.51 409.693C214.36 417.594 198.08 421.233 181.51 418.233C189.34 440.513 207.37 503.693 183.09 501.844C170.412 500.891 166.405 482.633 163.865 471.061L163.865 471.061C163.526 469.517 163.214 468.092 162.91 466.844C158.341 448.093 156.39 428.8 157.11 409.513C157.122 409.248 157.155 408.984 157.21 408.724C137.93 396.684 123.64 375.753 118.47 353.523C115.752 359.628 111.763 365.083 106.77 369.523C110.818 377.604 113.035 387.178 115.158 396.346C116.025 400.089 116.876 403.765 117.83 407.243L118.037 408C121.918 422.187 125.797 436.366 129.54 450.594C132.84 463.2 136.157 475.81 139.49 488.423L140.123 490.826L140.126 490.837C141.636 496.565 143.147 502.3 144.62 508.043C144.78 508.665 144.934 509.288 145.089 509.909C146.4 515.175 147.693 520.369 151.53 524.484C166.47 540.484 191.37 545.763 212.16 548.484C236.71 551.703 262.09 552.453 286.47 547.573C308.86 543.053 328.86 533.464 347.59 520.573C347.948 520.335 348.343 520.159 348.76 520.053C352.511 511.845 354.678 503.034 356.837 494.254L356.837 494.253C357.274 492.477 357.711 490.702 358.16 488.933C361.533 475.74 364.643 462.477 367.49 449.143ZM165.859 418.238L165.859 418.238C165.955 416.656 166.055 415.01 166.04 413.413C168.506 414.519 171.033 415.481 173.61 416.293C174.76 425.945 177.319 435.418 179.871 444.866L179.871 444.867L179.871 444.867L179.872 444.867C180.937 448.81 182 452.748 182.96 456.693C184.83 464.081 185.87 471.655 186.06 479.273C186.075 480.078 186.154 481.048 186.239 482.085C186.45 484.657 186.695 487.639 186.06 489.513C183.28 497.313 179.63 490.513 178.06 487.013C172.41 474.443 169.67 459.543 167.73 446.013C166.66 438.367 165.986 430.67 165.71 422.953V422.973C165.658 421.561 165.757 419.936 165.859 418.238ZM238.54 403.143C237.63 403.833 236.72 404.493 235.78 405.143C236.604 413.695 236.541 422.382 236.479 431.061C236.435 437.128 236.391 443.192 236.65 449.204C237 456.764 237.49 464.274 238.37 471.764C238.688 475.475 239.31 479.154 240.231 482.764C240.726 484.897 241.704 486.888 243.091 488.584C246.431 490.077 248.218 489.367 248.451 486.454C251.537 481.654 250.768 472.074 250.28 465.999C250.242 465.517 250.205 465.057 250.172 464.624C249.471 457.201 248.187 449.845 246.331 442.624C245.816 440.437 245.288 438.256 244.76 436.077L244.76 436.077C242.123 425.189 239.499 414.35 238.54 403.143ZM74.2202 366.873C52.2202 358.943 53.2202 329.083 73.4702 320.043C77.9702 318.043 75.4702 311.283 71.0802 311.223C44.0802 310.823 18.4802 292.843 11.0802 266.433C7.12641 252.848 9.31892 238.213 17.0802 226.383C24.0202 216.003 37.0202 207.323 48.5602 215.913C51.2902 217.913 54.7702 214.053 53.1002 211.383C52.4663 210.371 51.7218 209.432 50.8802 208.583C44.6002 198.403 41.0302 187.923 43.6102 175.513C46.5302 161.513 56.0902 149.513 67.4602 141.133C79.5402 132.263 93.9902 127.573 108.67 132.653C115.197 134.894 121.026 138.799 125.58 143.983C128.288 147.04 130.141 150.583 131.999 154.136C133.18 156.395 134.363 158.658 135.77 160.803C136.009 161.178 136.302 161.515 136.64 161.803C137.88 164.003 140.46 163.393 141.58 161.683C142.369 160.98 142.829 159.98 142.85 158.923C142.915 156.858 142.706 154.794 142.23 152.783C141.92 149.009 141.84 145.218 141.99 141.433C142.479 135.479 143.65 129.601 145.48 123.913C149.408 111.728 155.709 100.442 164.02 90.7035C178.7 73.3535 198.6 60.6035 221.02 56.0635C243.44 51.5235 267.76 56.2535 286.45 69.3335C296.74 76.5235 305.14 86.6935 312.56 96.7235C314.09 98.7935 315.56 100.913 316.98 103.083C307.502 126.077 301.041 150.201 297.76 174.853C289.55 171.853 280.21 172.213 271.63 173.383C260.63 174.873 250.11 179.163 244.81 189.493C235.41 207.803 245.73 230.333 263.15 239.383C281.25 248.783 304.43 243.073 315.73 225.933C321.658 216.679 323.47 205.377 320.73 194.733C318.81 187.203 313.85 178.383 306.07 176.273C310.62 155.273 315.77 134.733 323.3 115.053C324.187 117.464 324.879 119.909 325.573 122.362C326.241 124.722 326.912 127.09 327.76 129.443C328.247 130.65 329.215 131.599 330.43 132.063C331.624 133.03 333.311 133.099 334.58 132.233C359.49 117.513 392.36 123.833 407 149.753C420.87 174.303 417.46 212.153 391.4 226.973C386.74 229.623 389.25 235.913 393.95 236.373C412.28 238.133 429.56 248.993 439.51 264.483C451.72 283.483 449.04 305.753 440.16 325.623C432.33 343.153 420.47 360.964 399.39 361.813C390.381 362.232 381.491 359.62 374.14 354.393C365.53 348.043 360.53 337.714 356.02 328.313C354.13 324.383 347.73 326.314 347.89 330.513C348.74 353.604 326.41 367.594 305.46 359.513C284.2 351.263 277.68 327.563 280.2 306.833C280.8 301.833 272.11 300.613 271.35 305.633C270.6 310.613 270.399 315.66 270.75 320.683C270.363 326.473 269.625 332.233 268.54 337.933C266.228 348.845 262.315 359.355 256.93 369.123C246.73 387.403 230.08 401.903 209.55 407.123C189.34 412.253 168.55 406.393 153.09 392.563C135.6 376.873 130.44 356.564 126.09 334.443C125.901 333.313 125.253 332.311 124.3 331.673C124.72 326.564 117.66 326.673 116.01 330.613C114.791 333.548 113.797 336.581 112.804 339.609C110.539 346.516 108.282 353.401 103.38 359.053C96.3302 367.183 84.4502 370.563 74.2202 366.873ZM312.03 205.793C312.36 199.733 309.99 182.873 301.14 183.873V183.913C299.869 183.933 298.671 183.323 297.94 182.283C284.05 179.813 264.65 179.273 255.4 190.153C245.41 201.883 252.19 219.983 263.08 228.283C275.325 237.573 292.542 236.421 303.44 225.583C308.67 220.288 311.733 213.23 312.03 205.793Z" fill="#231F20"/>
<path fill-rule="evenodd" clip-rule="evenodd" d="M64.5998 241.363C62.1098 236.973 62.0798 230.973 64.0198 225.973C67.2298 217.793 77.4098 215.703 83.9298 221.493C89.9998 226.813 92.3298 238.483 85.7398 244.363C81.0398 248.513 64.0698 251.233 64.5998 241.363ZM76.2025 240.473C78.3518 240.053 80.7602 239.583 81.8498 237.523H81.8698C83.6198 234.233 81.8898 229.063 79.2498 226.753C72.2598 220.623 67.2598 231.963 69.8398 238.753C71.7898 240.613 73.4598 241.003 76.1998 240.473L76.2025 240.473Z" fill="#231F20"/>
<path fill-rule="evenodd" clip-rule="evenodd" d="M169.132 241.204C179.662 245.634 183.782 260.784 173.502 267.944C163.022 275.274 148.022 271.554 144.022 259.144C142.111 253.871 143.83 247.967 148.272 244.544C150.181 242.951 152.456 241.859 154.892 241.364C159.428 239.417 164.553 239.359 169.132 241.204ZM164.243 247.654C159.672 246.084 153.742 248.084 151.502 252.513H151.522C151.199 253.806 151.308 255.168 151.832 256.393C154.232 262.643 160.902 263.793 166.693 261.303C173.843 258.223 170.173 249.653 164.243 247.654Z" fill="#231F20"/>
<path fill-rule="evenodd" clip-rule="evenodd" d="M230.07 156.974C229.523 157.3 228.832 157.257 228.33 156.864C225.55 154.974 223.63 153.144 222.81 149.744C222.08 146.72 222.619 143.53 224.3 140.914C226.133 138.297 228.992 136.584 232.164 136.202C235.335 135.821 238.519 136.807 240.92 138.914C243.243 141.151 244.478 144.289 244.301 147.509C244.124 150.73 242.554 153.714 240 155.684C237.103 157.718 233.391 158.2 230.07 156.974ZM232.096 144.108C231.137 144.483 230.416 145.296 230.16 146.294C229.946 147.119 229.849 147.971 229.87 148.824C231.42 149.964 233.69 150.914 235.29 149.324C236.6 148.004 236.58 145.404 235 144.404C234.136 143.843 233.055 143.733 232.096 144.108Z" fill="#231F20"/>
<path fill-rule="evenodd" clip-rule="evenodd" d="M380.498 172.033C382.727 179.363 378.658 187.393 370.358 187.143C364.238 186.973 357.289 180.973 358.209 174.443C357.029 170.173 359.639 165.243 364.208 163.443C371.108 160.733 378.428 165.213 380.498 172.033ZM372.609 174.593C372.139 172.013 369.799 169.683 367.019 170.473C366.141 170.762 365.412 171.383 364.989 172.203L365.049 172.303C365.316 172.789 365.56 173.305 365.805 173.823C366.685 175.689 367.582 177.59 369.679 178.223C372.359 179.033 373.009 176.833 372.609 174.593Z" fill="#231F20"/>
<path fill-rule="evenodd" clip-rule="evenodd" d="M381.26 268.604C390.29 277.014 389.52 294.224 378.42 300.604C366.57 307.424 352.481 297.844 351.411 284.854C350.921 278.314 354.601 271.854 359.921 268.504C365.13 262.954 375.05 262.814 381.26 268.604ZM376.631 276.324C375.855 275.057 374.814 273.972 373.581 273.144C367.221 273.194 359.941 275.594 360.191 283.294C360.421 289.854 367.331 296.414 373.731 292.634C379.311 289.324 379.801 281.424 376.631 276.324Z" fill="#231F20"/>
<path fill-rule="evenodd" clip-rule="evenodd" d="M318.43 306.403C314.733 308.557 310.386 309.313 306.18 308.533C301.9 307.563 299.46 304.143 298.98 299.933C298.54 296.073 298.77 291.063 301.3 287.933C302.608 286.134 304.715 285.088 306.94 285.133C309.844 283.646 313.313 283.774 316.1 285.473C322.66 289.453 325.69 301.603 318.43 306.403ZM306.3 294.573C306.304 294.633 306.304 294.694 306.3 294.753C306.058 296.299 306.109 297.877 306.45 299.403C306.93 301.123 307.84 301.193 309.53 301.033L309.58 301.03C310.796 300.949 313.163 300.792 314.09 299.953C316.19 298.063 314.19 293.273 312.39 291.713C311.883 291.324 311.276 291.085 310.64 291.023C310.165 291.44 309.551 291.661 308.92 291.643C307.36 291.573 306.6 292.923 306.3 294.573Z" fill="#231F20"/>
<path fill-rule="evenodd" clip-rule="evenodd" d="M211.758 310.853C220.758 313.763 224.808 324.433 220.758 332.763C216.388 341.733 204.398 344.043 197.318 336.833C191.448 330.843 191.528 320.063 197.378 314.173C197.665 313.872 197.968 313.589 198.288 313.323L198.398 313.223C198.747 312.943 199.111 312.683 199.488 312.443L199.838 312.193C200.03 312.081 200.231 311.984 200.438 311.903C203.936 310.111 207.99 309.735 211.758 310.853ZM211.359 318.973C209.282 317.534 206.767 316.865 204.249 317.083C204.041 317.456 203.827 317.83 203.612 318.206C201.512 321.875 199.295 325.749 201.998 329.894C203.077 331.731 204.989 332.921 207.114 333.077C209.239 333.233 211.305 332.334 212.64 330.674C215.507 327.086 214.935 321.856 211.359 318.973Z" fill="#231F20"/>
<path fill-rule="evenodd" clip-rule="evenodd" d="M286.021 189.474C285.021 187.274 286.771 184.684 289.021 185.144C299.69 181.884 308.3 191.424 308.74 201.714C309.27 213.694 300.96 224.174 289.881 227.844C287.321 228.704 284.391 225.914 285.321 223.284C285.779 221.992 286.268 220.714 286.757 219.438C288.444 215.034 290.122 210.654 290.471 205.824C290.906 199.794 288.766 195.272 286.27 190.001C286.188 189.826 286.104 189.65 286.021 189.474ZM296.681 215.554C299.061 213.117 300.735 210.078 301.522 206.764L301.542 206.794C303.022 200.684 300.842 192.144 294.851 189.844C299.952 196.604 299.361 206.774 296.681 215.554Z" fill="#231F20"/>
<path fill-rule="evenodd" clip-rule="evenodd" d="M311.81 392.383C311.805 390.67 312.99 389.183 314.66 388.803C331.647 384.771 332.113 415.44 332.306 428.159C332.323 429.255 332.337 430.218 332.36 431.013C332.753 442.93 332.218 454.86 330.76 466.693C330.71 467.104 330.66 467.529 330.608 467.964C329.839 474.479 328.786 483.403 321.09 484.893C313.24 486.413 309.96 478.423 307.57 472.523C304.098 463.537 302.217 454.015 302.01 444.383C301.776 434.974 302.446 425.564 304.01 416.283C304.17 415.279 304.32 414.25 304.472 413.208C305.546 405.864 306.723 397.813 311.81 392.383ZM320.32 469.413C320.82 465.783 321.22 462.133 321.55 458.483C322.21 451.143 322.53 443.843 322.48 436.513C322.43 429.183 322.03 421.853 321.31 414.563C321.237 413.82 321.172 413.068 321.105 412.311C320.837 409.242 320.563 406.102 319.76 403.173C319.284 401 318.001 399.088 316.17 397.823C312.83 408.823 311.86 420.813 311.31 432.163C310.67 445.323 311.72 458.933 317.44 470.993C319.46 475.263 319.67 474.033 320.32 469.413Z" fill="#231F20"/>
</svg>
