<svg width="374" height="577" viewBox="0 0 374 577" fill="none" xmlns="http://www.w3.org/2000/svg">
<path d="M117.345 278.28C121.455 277.71 120.345 271.6 116.625 272.41C115.305 272.7 114.625 273.88 114.005 275.09C113.967 275.974 114.312 276.831 114.952 277.442C115.591 278.053 116.464 278.358 117.345 278.28Z" fill="white"/>
<path fill-rule="evenodd" clip-rule="evenodd" d="M157.791 340.97C148.407 340.087 139.025 339.204 129.723 337.82C112.063 335.19 95.413 330.75 86.703 314.02C70.233 282.25 93.133 249.67 120.893 233.76C153.743 214.94 195.973 212.34 231.573 224.6C250.153 231.03 264.693 242.41 273.373 260.03C280.533 274.66 283.283 294.36 271.533 307.5C265.686 314.055 257.369 318.954 249.649 323.502L249.646 323.504C248.759 324.027 247.88 324.545 247.013 325.06C237.253 330.84 227.023 335.82 215.963 338.7C200.011 342.856 184.052 342.201 167.978 341.543L167.978 341.543C165.642 341.447 163.304 341.351 160.963 341.27C159.906 341.169 158.848 341.07 157.791 340.97ZM250.033 303.06C250.113 302.72 250.163 302.4 250.213 302.06C250.278 301.419 250.248 300.772 250.123 300.14C249.885 299.245 249.335 298.465 248.573 297.94C247.836 297.348 246.918 297.027 245.973 297.03C245.212 297.054 244.466 297.253 243.793 297.61C242.819 298.157 242.1 299.066 241.793 300.14C241.662 300.771 241.625 301.418 241.683 302.06C241.733 302.42 241.783 302.72 241.863 303.06C242.395 304.877 244.06 306.126 245.953 306.13C247.837 306.106 249.488 304.863 250.033 303.06ZM234.313 260.91C235.711 258.764 237.636 257.011 239.903 255.82C244.343 253.562 249.647 253.825 253.843 256.51C262.413 262.29 260.383 277.24 252.373 282.61C248.321 285.243 243.225 285.688 238.778 283.796C234.331 281.905 231.117 277.925 230.203 273.18C229.4 268.657 230.948 264.036 234.313 260.91ZM173.603 274.99C173.213 272.62 169.363 272.75 168.873 274.99C166.073 287.55 176.243 300.78 189.953 299.14C201.903 297.72 208.823 281.15 204.203 270.97C202.993 268.29 198.303 268.32 197.073 270.97C196.145 272.974 195.923 275.525 195.696 278.122C195.298 282.69 194.888 287.396 190.603 289.5C181.603 293.93 174.753 281.88 173.603 274.99ZM115.133 311.15C109.013 311.15 109.023 301.8 115.133 301.8C121.243 301.8 121.243 311.15 115.133 311.15ZM131.853 276.08C132.763 262.88 115.683 255.79 106.573 265.3C104.103 267.87 101.813 273.78 103.513 277.43C103.673 279.394 104.304 281.291 105.353 282.96C112.593 294.38 130.943 289.28 131.853 276.08Z" fill="white"/>
<path fill-rule="evenodd" clip-rule="evenodd" d="M108.715 528.59C91.0114 498.714 76.5047 467.056 65.4348 434.14C54.0748 400.49 44.6348 364.62 43.2048 329.08C41.8848 295.71 49.8248 260.95 74.9548 237.03C97.6648 215.41 129.295 204.64 159.955 199.79C194.365 194.35 230.805 197.46 261.805 214.08C291.295 229.9 311.935 256.48 319.705 288.65C327.765 321.81 323.055 356.71 317.765 389.9C311.855 426.97 304.185 464.16 290.965 499.44C284.365 517.04 276.535 535.68 265.535 551.12C262.945 554.79 257.365 561.07 252.365 556.79C249.563 554.382 248.288 549.119 247.352 545.252C247.195 544.606 247.048 543.998 246.905 543.45C244.47 533.988 243.592 524.193 244.305 514.45C250.615 511.5 256.695 507.62 259.305 502.07C260.096 500.586 259.937 498.775 258.901 497.451C257.865 496.127 256.145 495.538 254.515 495.95C250.922 496.632 247.915 498.518 244.885 500.419C243.875 501.052 242.862 501.687 241.825 502.28C237.862 504.554 233.729 506.52 229.465 508.16C227.335 508.97 225.165 509.72 222.985 510.4C224.394 499.084 229.73 488.937 235.043 478.835C236.783 475.528 238.519 472.226 240.115 468.89C246.255 456.07 251.035 442.55 252.905 428.45C254.825 413.85 253.725 398.4 247.725 384.76C242.455 372.69 233.065 367.32 220.205 365.25C191.865 360.69 159.015 357.25 132.595 370.86C122.325 376.19 113.125 384.37 108.895 395.19C103.785 408.26 107.635 422.12 113.355 434.31C120.633 450.038 130.234 464.584 141.835 477.46C153.085 489.81 160.285 503.09 167.285 517.75C165.565 517.69 163.845 517.59 162.145 517.45C160.672 516.521 158.854 516.322 157.215 516.91C152.296 516.26 147.462 515.083 142.795 513.4C139.345 512.13 136.775 517.01 139.275 519.35C143.195 523.04 148.115 524.96 153.325 526.04C154.76 534.527 155.03 543.17 154.125 551.73C154.073 552.204 154.027 552.744 153.978 553.328C153.65 557.223 153.16 563.044 149.455 564.01C146.134 564.874 141.144 562.361 138.182 560.869L138.025 560.79C124.715 554.09 116.025 540.9 108.715 528.59ZM305.008 412.915C305.59 413.071 306.205 412.83 306.525 412.32C310.635 405.7 310.945 396.48 310.215 388.98C310.115 387.87 308.275 387.39 308.055 388.7C307.618 391.244 307.028 393.843 306.433 396.465L306.433 396.466C305.286 401.523 304.12 406.661 303.995 411.64C304.016 412.241 304.427 412.759 305.008 412.915ZM304.005 277.62C311.225 291.62 312.425 309.24 313.005 324.73L313.025 325.229L313.05 325.842L313.094 326.902C313.741 342.644 314.462 360.152 310.505 375.33C310.045 377.12 307.685 376.5 307.505 374.93C306.36 365.643 306.968 356.057 307.573 346.503C307.983 340.03 308.392 333.571 308.255 327.23C308.008 315.491 306.128 304.242 304.23 292.892C303.431 288.114 302.629 283.318 301.945 278.46C301.815 277.33 303.385 276.41 304.005 277.62ZM255.415 221.89C218.025 199.31 166.345 200.64 127.415 218.04C93.4548 233.21 63.5148 265.35 71.8848 304.45C76.2748 325.1 91.2048 340.15 111.885 345.31C123.55 348.255 135.841 349.242 147.856 350.207L149.135 350.31C170.915 355.12 195.305 356.21 216.915 351.21C237.775 346.39 258.365 334.75 274.865 321.46C308.945 294.04 287.505 241.29 255.415 221.89ZM71.1148 430.04C71.7561 431.388 72.5251 432.769 73.309 434.177C75.2752 437.707 77.3359 441.408 77.7148 445.19C77.8248 446.31 76.2348 446.83 75.5048 446.09C72.5111 443.04 71.0976 438.235 69.8363 433.947L69.8362 433.946C69.5303 432.906 69.2332 431.897 68.9248 430.95C68.5048 429.7 70.5448 428.85 71.1148 430.06V430.04ZM54.2148 334.35C54.0448 333.57 52.6748 333.51 52.5448 334.35V334.37C50.6948 346.98 52.8648 360.49 54.9748 372.96C56.1248 379.63 57.4748 386.2 59.1248 392.81C59.348 393.704 59.5655 394.608 59.7843 395.517C61.1827 401.329 62.6316 407.35 65.9348 412.34C66.6348 413.39 68.5548 413.07 68.4748 411.67C68.2275 407.255 66.938 403.03 65.6491 398.808C65.1659 397.225 64.6829 395.642 64.2548 394.05C62.5014 387.536 61.0048 380.946 59.7648 374.28C58.6153 368.132 57.938 361.898 57.2611 355.668C56.4834 348.51 55.7064 341.359 54.2148 334.35Z" fill="#8DC63F"/>
<path d="M21.973 440C32.363 435.17 37.783 422.21 42.683 412.81C43.2464 411.669 44.293 410.843 45.533 410.56C42.223 398.94 39.213 386.85 36.823 374.56C35.293 379.14 33.403 383.62 31.683 387.9C27.683 397.9 23.113 407.7 18.323 417.38C15.943 422.18 12.523 427.17 11.093 432.38C8.98296 440.04 15.703 442.92 21.973 440Z" fill="#F7941E"/>
<path d="M288.535 80.4797C288.925 78.0497 291.945 60.1197 286.185 61.9697C282.435 63.1697 278.015 72.1797 276.185 75.5097C273.505 80.524 271.238 85.7479 269.405 91.1297C265.565 101.94 262.455 113.02 259.325 124.04C252.835 146.87 248.125 170.11 242.055 193.04C247.067 194.572 251.996 196.361 256.825 198.4C263.265 177.01 269.825 155.65 275.825 134.15C279.135 122.32 282.225 110.42 284.885 98.4297C286.245 92.4697 287.545 86.4897 288.535 80.4797Z" fill="#F7941E"/>
<path d="M105.635 202.4L105.785 203.03C110.131 201.07 114.571 199.283 119.105 197.67C115.845 177.78 112.575 157.88 108.515 138.12C106.425 127.94 104.205 117.76 101.515 107.72C100.402 103.476 99.0671 99.2932 97.5145 95.1897C96.6034 92.7995 95.5585 90.4624 94.3845 88.1897C93.6645 86.8297 90.2245 80.7997 87.5845 82.8497C85.3745 84.5597 87.2445 95.7597 87.4045 98.4597C87.7545 103.95 88.4045 109.46 89.2145 114.87C90.6745 124.87 92.5245 134.78 94.2945 144.71C96.0645 154.64 97.8645 164.49 99.6745 174.38C100.548 179.1 101.428 183.826 102.315 188.56C103.025 192.32 105.645 199.07 103.845 202.22C104.045 201.894 104.415 201.711 104.796 201.749C105.177 201.788 105.503 202.04 105.635 202.4Z" fill="#F7941E"/>
<path d="M246.035 273.06C247.345 271.97 248.755 266.83 246.825 265.93C245.285 265.22 243.115 266.93 241.095 268.55C240.864 269.287 240.812 270.069 240.945 270.83C241.355 273.07 243.965 274.78 246.035 273.06Z" fill="white"/>
<path d="M246.755 432.51C249.385 417.99 248.905 402.56 243.465 388.68C240.465 380.91 235.635 375.01 227.355 372.35C221.035 370.35 214.195 369.78 207.635 368.99C181.075 365.79 149.425 363.4 126.845 380.4C114.845 389.47 109.245 402.73 112.565 417.51C115.565 431.03 123.465 443.96 130.855 455.61C138.135 467.08 148.295 476.07 156.155 487.07C162.875 496.48 167.625 507.07 171.815 517.83C181.838 517.69 191.838 516.818 201.735 515.22C206.985 514.435 212.189 513.37 217.325 512.03C218.425 498.89 224.475 487.27 230.585 475.65C237.765 461.98 244.005 447.76 246.755 432.51Z" fill="#F7941E"/>
<path d="M335.313 403.96C339.426 407.965 344.081 411.372 349.143 414.08C350.643 414.84 362.693 419.13 363.083 417.93C364.143 414.67 356.493 406.07 354.533 403.44C347.722 394.568 341.502 385.258 335.913 375.57C335.073 374.06 333.833 372.16 332.573 370.06C331.353 379.17 329.853 388.27 328.193 397.32C330.763 399.2 332.823 401.64 335.313 403.96Z" fill="#F7941E"/>
<path d="M255.793 119.04C260.793 101.04 265.273 81.0397 276.503 65.6097C279.213 61.8697 284.983 53.0997 290.813 56.3197C296.453 59.4197 294.813 71.6497 294.233 76.4897C291.543 98.5497 285.103 120.49 278.993 141.82C273.383 161.42 267.423 180.94 261.543 200.47C264.77 201.97 267.943 203.586 271.063 205.32C281.893 177.08 292.613 148.79 301.553 119.91C305.753 106.34 309.553 92.6497 312.783 78.8197C315.843 65.6697 319.463 51.8197 318.173 38.1997C317.103 26.9597 310.563 14.4997 298.523 11.6197C286.483 8.73971 278.093 19.0297 273.213 28.3497C267.023 40.1797 263.693 53.6197 260.213 66.4097C256.453 80.1397 252.773 93.8797 249.043 107.62C245.183 121.866 241.263 136.106 237.283 150.34C233.643 163.34 230.003 176.11 228.283 189.42C231.803 190.173 235.29 191.04 238.743 192.02C242.253 167.42 249.073 142.95 255.793 119.04Z" fill="#8DC63F"/>
<path d="M102.303 204.62C99.653 202.62 99.713 197.75 99.073 194.8C97.783 188.8 96.653 182.8 95.473 176.8C93.0196 164.366 90.6863 151.916 88.473 139.45C86.353 127.57 84.093 115.66 82.953 103.64C82.373 97.5297 79.243 82.5297 85.183 77.7597C98.553 67.0297 108.403 115.52 109.753 121.35C115.473 146.05 119.643 171.05 123.813 196.04C128.233 194.6 132.713 193.29 137.243 192.16C131.53 164 124.503 136.136 116.163 108.57C112.55 96.663 108.68 84.8297 104.553 73.0697C100.993 62.9497 97.553 52.4197 91.403 43.4897C86.773 36.7897 75.073 25.6997 66.123 31.9097C58.253 37.3597 63.363 55.2497 64.323 62.7597C70.633 112.35 81.433 160.91 92.893 209.52C95.963 207.76 99.103 206.15 102.303 204.62Z" fill="#8DC63F"/>
<path fill-rule="evenodd" clip-rule="evenodd" d="M148.618 350.301C136.348 349.314 123.769 348.301 111.844 345.34C91.1635 340.18 76.2335 325.13 71.8035 304.51C63.4735 265.38 93.3735 233.24 127.374 218.07C166.374 200.67 218.024 199.34 255.374 221.92C287.464 241.32 308.904 294.07 274.824 321.49C258.324 334.78 237.734 346.42 216.874 351.24C195.264 356.24 170.854 355.15 149.094 350.34L148.618 350.301ZM231.614 224.6C196.014 212.34 153.784 214.94 120.934 233.76C93.1735 249.7 70.2735 282.25 86.7635 314.02C95.4535 330.75 112.104 335.19 129.764 337.82C138.825 339.168 147.963 340.033 157.104 340.899C158.404 341.022 159.704 341.145 161.004 341.27C163.335 341.351 165.665 341.446 167.993 341.542C184.045 342.201 200.013 342.857 216.004 338.7C227.054 335.82 237.294 330.84 247.054 325.06C247.836 324.596 248.628 324.131 249.427 323.661C257.218 319.082 265.642 314.13 271.574 307.5C283.324 294.36 280.614 274.66 273.414 260.03C264.734 242.41 250.194 230.99 231.614 224.6Z" fill="#231F20"/>
<path fill-rule="evenodd" clip-rule="evenodd" d="M25.1839 449.6C35.7239 445.19 44.2639 433.82 49.1839 423.01C50.0639 425.86 50.9539 428.68 51.8539 431.45C58.5904 452.229 66.6297 472.562 75.9239 492.33C85.0139 511.72 94.8139 531.78 107.724 549.03C117.124 561.6 134.034 578.7 151.834 575.65C162.284 573.87 164.304 564.52 165.474 555.57C166.653 546.204 166.565 536.722 165.214 527.38L167.474 527.49C179.023 528.047 190.599 527.652 202.084 526.31C212.869 525.14 223.467 522.634 233.634 518.85L234.454 518.53C233.834 525.354 234.089 532.23 235.214 538.99C236.564 547.13 238.654 558.11 244.794 564.27C249.904 569.42 258.024 569.83 264.334 566.63C271.659 562.911 275.977 555.304 279.899 548.395L279.9 548.393L279.939 548.323L279.941 548.32C280.224 547.823 280.504 547.328 280.784 546.84C300.154 513.02 311.784 475.49 319.984 437.68C321.984 428.47 323.984 419.13 325.864 409.68C327.906 411.596 330.123 413.351 332.181 414.981L332.181 414.981C332.582 415.299 332.977 415.611 333.364 415.92C338.398 420.055 344.086 423.323 350.194 425.59C359.284 428.83 377.254 429.77 373.124 415.18C371.254 408.55 366.914 402.78 362.784 397.36C358.184 391.31 353.784 385.17 349.644 378.79C346.939 374.594 344.518 370.264 342.094 365.928C340.601 363.257 339.106 360.585 337.544 357.94C336.658 356.407 335.63 354.96 334.474 353.62C335.557 342.321 335.988 330.968 335.764 319.62C334.884 282.2 322.274 245.82 293.124 220.62C289.382 217.402 285.463 214.397 281.384 211.62C292.914 181.5 304.454 151.34 313.804 120.49C318.554 104.84 322.754 89.0197 326.094 73.0197C329.094 58.8897 331.944 44.0197 328.504 29.7097C323.064 7.01971 296.724 -9.90029 275.934 6.70971C266.524 14.2097 261.514 25.7097 257.554 36.6297C253.093 48.9859 249.762 61.7332 246.439 74.4455C245.613 77.6079 244.787 80.7682 243.944 83.9197C243.366 86.0802 242.787 88.2406 242.209 90.4011C237.925 106.401 233.64 122.404 229.464 138.43C228.574 141.854 227.592 145.328 226.6 148.838C223.012 161.532 219.292 174.698 219.284 187.71C208.486 186.027 197.558 185.324 186.634 185.61C173.91 185.908 161.233 187.263 148.734 189.66C148.734 189.45 148.734 189.24 148.674 189.03C143.058 160.388 135.938 132.063 127.344 104.17C123.024 90.2297 118.357 76.3964 113.344 62.6697C109.534 52.3397 105.344 41.9197 98.2239 33.3097C91.6139 25.3097 81.9639 18.8197 71.1139 18.9997C60.4339 19.1797 52.7939 26.5897 51.2139 36.7497C49.6855 46.3709 51.5267 56.9031 53.2744 66.9004L53.2744 66.9004L53.2745 66.9005L53.2745 66.9006L53.2745 66.9007L53.2745 66.9007L53.2745 66.9008L53.2745 66.9009C53.8138 69.9856 54.3442 73.0194 54.7639 75.9597C56.8839 90.7497 59.2839 105.5 62.0739 120.18C68.0739 151.82 75.2739 183.46 85.2039 214.18L85.2036 214.18L85.2033 214.18L85.203 214.18L85.2028 214.18L85.2025 214.181L85.2022 214.181L85.2019 214.181L85.2017 214.181C83.7424 215.131 82.2831 216.08 80.8639 217.08C33.3139 250.53 26.4939 304.73 34.0039 357.83C31.4986 362.197 29.7037 366.976 27.9298 371.7C27.3599 373.218 26.7922 374.729 26.2039 376.22C23.2039 383.93 19.7239 391.48 16.2039 398.97C12.8139 406.09 9.20386 413.11 5.59386 420.11C5.4704 420.345 5.34605 420.581 5.2212 420.818C2.31228 426.338 -0.873049 432.383 0.363862 438.75C2.47386 449.83 15.5639 453.63 25.1839 449.6ZM332.574 370.06C333.073 370.892 333.569 371.692 334.038 372.45C334.754 373.604 335.407 374.658 335.914 375.57C341.503 385.258 347.723 394.568 354.534 403.44C354.842 403.844 355.282 404.39 355.803 405.037C358.67 408.59 363.981 415.171 363.084 417.93C362.694 419.13 350.644 414.84 349.144 414.08C344.082 411.372 339.426 407.965 335.314 403.96C334.467 403.171 333.67 402.368 332.886 401.578L332.886 401.578C331.364 400.045 329.89 398.56 328.194 397.32C329.854 388.27 331.354 379.17 332.574 370.06ZM171.814 517.83C181.837 517.69 191.838 516.818 201.734 515.22C206.984 514.435 212.188 513.37 217.324 512.03C218.424 498.89 224.474 487.27 230.584 475.65C237.754 461.98 244.004 447.76 246.754 432.51C249.384 417.99 248.904 402.56 243.464 388.68C240.424 380.91 235.634 375.01 227.354 372.35C222.025 370.63 216.326 369.983 210.737 369.349C209.698 369.231 208.662 369.114 207.634 368.99C181.074 365.79 149.424 363.4 126.844 380.4C114.804 389.51 109.244 402.73 112.564 417.51C115.604 431.03 123.464 443.96 130.854 455.61C134.893 461.951 139.802 467.539 144.713 473.129C148.677 477.642 152.643 482.156 156.154 487.07C162.874 496.48 167.624 507.12 171.814 517.83ZM237.264 150.34C241.264 136.113 245.184 121.873 249.024 107.62C250.428 102.447 251.825 97.275 253.222 92.1031L253.226 92.088C255.539 83.5263 257.851 74.9661 260.194 66.4097C260.528 65.1875 260.861 63.9593 261.195 62.7272C264.356 51.0657 267.613 39.0492 273.194 28.3497C278.074 19.0297 286.514 8.74971 298.504 11.6197C310.494 14.4897 317.084 26.9597 318.154 38.1997C319.348 50.7802 316.335 63.6092 313.453 75.8776L313.445 75.9095C313.217 76.8833 312.989 77.8535 312.764 78.8197C309.554 92.6497 305.764 106.34 301.534 119.91C292.594 148.79 281.874 177.08 271.044 205.32C267.931 203.58 264.757 201.963 261.524 200.47C262.591 196.924 263.662 193.378 264.732 189.832L264.734 189.826L264.734 189.826L264.734 189.825L264.734 189.825L264.734 189.825C269.558 173.844 274.383 157.859 278.974 141.82C279.169 141.139 279.364 140.458 279.56 139.776L279.647 139.472L279.697 139.298C285.585 118.762 291.63 97.6814 294.214 76.4897L294.253 76.1684C294.87 71.1296 296.313 59.3533 290.794 56.3197C285.308 53.2896 279.875 60.8771 276.995 64.8991L276.992 64.902C276.873 65.069 276.758 65.2297 276.647 65.3834L276.592 65.4602L276.484 65.6097C266.665 79.1188 262.044 96.0836 257.662 112.172L257.662 112.172C257.033 114.484 256.408 116.777 255.774 119.04C249.054 142.95 242.234 167.42 238.664 192.04C235.211 191.06 231.724 190.193 228.204 189.44C229.931 176.508 233.418 164.065 236.939 151.5L237.264 150.34ZM242.064 193.03C247.076 194.562 252.006 196.351 256.834 198.39C258.07 194.284 259.311 190.178 260.552 186.073C265.776 168.793 271.001 151.51 275.874 134.13C279.184 122.3 282.274 110.41 284.934 98.4097C286.254 92.4697 287.544 86.4697 288.544 80.4697L288.573 80.2884C289.062 77.265 291.828 60.1502 286.194 61.9597C282.842 63.0296 278.965 70.3073 276.874 74.2331L276.873 74.2334C276.619 74.7108 276.391 75.1386 276.194 75.4997C273.514 80.514 271.247 85.7379 269.414 91.1197C265.79 101.321 262.816 111.781 259.862 122.171L259.862 122.172C259.686 122.791 259.51 123.411 259.334 124.03C255.659 136.963 252.555 150.025 249.451 163.084L249.451 163.085L249.451 163.085L249.451 163.086L249.45 163.086C247.073 173.088 244.696 183.089 242.064 193.03ZM64.3239 62.6997C64.1544 61.427 63.868 59.8561 63.5475 58.0981C61.977 49.4832 59.5876 36.3761 66.1239 31.8497C75.0739 25.6397 86.7739 36.7297 91.4039 43.4297C97.08 51.6183 100.41 61.1523 103.669 70.4818L103.669 70.4833L103.67 70.4847L103.67 70.4861C103.965 71.3294 104.259 72.171 104.554 73.0097C108.674 84.763 112.544 96.5964 116.164 108.51C124.504 136.03 131.531 163.893 137.244 192.1C132.714 193.23 128.244 194.54 123.814 195.98C119.644 170.98 115.474 145.98 109.754 121.29C109.679 120.967 109.579 120.514 109.453 119.948L109.452 119.943L109.451 119.942C107.3 110.259 97.8118 67.5653 85.1839 77.6997C80.1512 81.7411 81.6292 93.1257 82.551 100.225C82.7172 101.506 82.8653 102.646 82.9539 103.58C83.9757 114.335 85.8972 125.035 87.8113 135.693L87.8113 135.693L87.8124 135.699C88.0334 136.93 88.2544 138.16 88.4739 139.39C90.6939 151.863 93.0272 164.313 95.4739 176.74C95.7548 178.168 96.033 179.597 96.3111 181.026C97.201 185.597 98.091 190.168 99.0739 194.74C99.2241 195.444 99.3358 196.248 99.453 197.091L99.453 197.091L99.453 197.091L99.453 197.091C99.8351 199.841 100.276 203.014 102.304 204.56C99.1039 206.09 95.9639 207.7 92.8939 209.43C81.4339 160.88 70.6339 112.32 64.3239 62.6997ZM99.6839 174.3C100.557 179.026 101.437 183.753 102.324 188.48L102.304 188.51C102.48 189.443 102.774 190.56 103.09 191.76L103.09 191.761L103.09 191.761C104.045 195.395 105.199 199.782 103.884 202.09C104.097 201.784 104.464 201.622 104.834 201.67C105.204 201.718 105.516 201.969 105.644 202.32L105.794 202.95C110.141 200.99 114.581 199.203 119.114 197.59C115.854 177.7 112.584 157.8 108.524 138.04C106.434 127.86 104.214 117.64 101.524 107.64C100.412 103.396 99.0765 99.2132 97.5239 95.1097C96.6128 92.7195 95.5678 90.3824 94.3939 88.1097C93.6739 86.7697 90.2339 80.7697 87.5939 82.7697C85.8438 84.1425 86.6845 91.6315 87.1669 95.9287L87.167 95.9294C87.2855 96.9847 87.3823 97.8474 87.4139 98.3797C87.7639 103.87 88.4239 109.34 89.2239 114.79C90.44 123.103 91.9268 131.381 93.4125 139.654L93.4148 139.667L93.417 139.679C93.7134 141.33 94.0098 142.98 94.3039 144.63C96.0772 154.523 97.8705 164.413 99.6839 174.3ZM74.9539 237C97.6739 215.38 129.304 204.61 159.954 199.76C194.364 194.32 230.844 197.43 261.804 214.05C291.294 229.87 311.934 256.45 319.704 288.62C327.704 321.78 323.054 356.68 317.764 389.87C311.854 426.94 304.184 464.13 290.964 499.41C284.364 517.01 276.554 535.65 265.534 551.09C262.944 554.72 257.354 561.09 252.364 556.76C249.625 554.406 248.373 549.323 247.428 545.484C247.245 544.739 247.073 544.042 246.904 543.42C244.469 533.958 243.591 524.163 244.304 514.42C250.604 511.42 256.684 507.59 259.304 502.04C260.095 500.556 259.937 498.745 258.9 497.421C257.864 496.097 256.144 495.508 254.514 495.92C250.984 496.59 248.019 498.445 245.042 500.307C243.979 500.971 242.915 501.637 241.824 502.25C237.861 504.524 233.729 506.49 229.464 508.13C227.334 508.94 225.164 509.69 222.984 510.37C224.396 499.046 229.751 488.862 235.075 478.738C236.803 475.452 238.528 472.171 240.114 468.86C246.254 456.04 251.034 442.52 252.904 428.42C254.824 413.82 253.694 398.37 247.724 384.73C242.454 372.66 233.064 367.29 220.204 365.22C191.864 360.66 159.014 357.22 132.594 370.83C122.324 376.12 113.124 384.34 108.894 395.16C103.784 408.23 107.634 422.09 113.354 434.28C120.632 450.008 130.233 464.554 141.834 477.43C153.084 489.78 160.314 503.06 167.284 517.72C165.564 517.66 163.844 517.56 162.144 517.42C160.671 516.491 158.853 516.292 157.214 516.88C152.295 516.23 147.461 515.053 142.794 513.37C139.344 512.1 136.794 516.98 139.274 519.32C143.194 522.99 148.114 524.93 153.324 526.01C154.76 534.497 155.029 543.14 154.124 551.7C154.072 552.174 154.026 552.713 153.977 553.296L153.977 553.298C153.649 557.193 153.159 563.014 149.454 563.98C146.133 564.844 141.143 562.331 138.181 560.839L138.024 560.76C124.724 554.06 116.024 540.87 108.714 528.56C91.0105 498.684 76.5037 467.026 65.4339 434.11C54.0739 400.46 44.6039 364.59 43.2039 329.02C41.8839 295.7 49.8239 260.92 74.9539 237ZM15.8824 421.942C14.0021 425.335 12.0773 428.807 11.0939 432.37C8.98386 440.04 15.7039 442.92 21.9739 439.99C31.0825 435.755 36.3714 425.273 40.8389 416.418C41.4674 415.172 42.0796 413.959 42.6839 412.8C43.2473 411.659 44.2939 410.833 45.5339 410.55C42.2239 398.91 39.2139 386.82 36.8239 374.55C35.5717 378.298 34.0783 381.98 32.6344 385.539C32.3141 386.329 31.9962 387.113 31.6839 387.89C27.6739 397.91 23.1139 407.69 18.3239 417.37C17.5807 418.878 16.7361 420.402 15.8824 421.942Z" fill="#231F20"/>
<path fill-rule="evenodd" clip-rule="evenodd" d="M131.853 276.08C130.943 289.21 112.593 294.38 105.353 282.96C104.304 281.291 103.673 279.394 103.513 277.43C101.813 273.78 104.103 267.87 106.573 265.3C115.683 255.79 132.763 262.95 131.853 276.08ZM116.623 272.41C115.303 272.7 114.583 273.88 114.003 275.09V275.1C113.968 275.982 114.314 276.836 114.954 277.445C115.593 278.054 116.464 278.358 117.343 278.28C121.453 277.71 120.323 271.6 116.623 272.41Z" fill="#231F20"/>
<path fill-rule="evenodd" clip-rule="evenodd" d="M253.845 256.51C262.375 262.29 260.375 277.24 252.375 282.61C248.323 285.243 243.226 285.688 238.78 283.796C234.333 281.905 231.118 277.925 230.205 273.18C229.401 268.657 230.949 264.036 234.315 260.91C235.713 258.764 237.637 257.011 239.905 255.82C244.345 253.562 249.649 253.825 253.845 256.51ZM246.825 265.93C245.285 265.22 243.095 266.94 241.095 268.55C240.864 269.287 240.812 270.069 240.945 270.83C241.355 273.06 243.965 274.78 246.035 273.06C247.345 271.93 248.755 266.83 246.825 265.93Z" fill="#231F20"/>
<path d="M189.974 299.14C201.974 297.72 208.844 281.14 204.224 270.97C203.014 268.29 198.324 268.32 197.094 270.97C194.534 276.49 197.344 286.2 190.624 289.5C181.624 293.93 174.754 281.88 173.624 274.99C173.234 272.62 169.384 272.75 168.894 274.99C166.074 287.55 176.244 300.78 189.974 299.14Z" fill="#231F20"/>
<path d="M115.133 301.8C109.023 301.8 109.013 311.15 115.133 311.15C121.253 311.15 121.253 301.8 115.133 301.8Z" fill="#231F20"/>
<path d="M248.554 297.94C247.816 297.348 246.899 297.027 245.954 297.03C245.192 297.054 244.447 297.253 243.774 297.61C242.8 298.157 242.081 299.066 241.774 300.14C241.642 300.771 241.605 301.418 241.664 302.06C241.714 302.41 241.764 302.71 241.844 303.06C242.376 304.877 244.04 306.126 245.934 306.13C247.818 306.106 249.469 304.863 250.014 303.06C250.094 302.73 250.144 302.41 250.194 302.06C250.252 301.418 250.215 300.771 250.084 300.14C249.85 299.248 249.308 298.469 248.554 297.94Z" fill="#231F20"/>
<path d="M307.533 374.93C307.723 376.5 310.083 377.12 310.533 375.33C314.673 359.45 313.693 341.02 313.033 324.73C312.413 309.24 311.213 291.66 304.033 277.62C303.413 276.41 301.843 277.33 302.033 278.46C304.383 294.86 308.033 310.55 308.343 327.23C308.633 342.96 305.633 359.35 307.533 374.93Z" fill="#231F20"/>
<path d="M308.054 388.7C306.774 396.15 304.184 404.08 303.994 411.64C304.015 412.241 304.426 412.759 305.008 412.915C305.589 413.071 306.204 412.83 306.524 412.32C310.654 405.71 310.944 396.48 310.214 388.98C310.114 387.87 308.274 387.39 308.054 388.7Z" fill="#231F20"/>
<path d="M59.1235 392.83C60.7735 399.44 62.1235 406.59 65.9335 412.36C66.6335 413.36 68.5535 413.09 68.4735 411.69C68.1335 405.62 65.8235 399.91 64.2535 394.07C62.5069 387.536 61.0102 380.946 59.7635 374.3C57.2935 361.09 57.0035 347.48 54.2135 334.37C54.0435 333.59 52.6735 333.53 52.5435 334.37C50.6935 346.98 52.8635 360.49 54.9735 372.98C56.0802 379.653 57.4635 386.27 59.1235 392.83Z" fill="#231F20"/>
<path d="M75.5037 446.11C76.2337 446.85 77.8237 446.33 77.7137 445.21C77.1837 439.92 73.3637 434.79 71.1137 430.06C70.5437 428.85 68.5037 429.7 68.9237 430.97C70.5437 435.82 71.7837 442.32 75.5037 446.11Z" fill="#231F20"/>
</svg>
