<svg width="582" height="422" viewBox="0 0 582 422" fill="none" xmlns="http://www.w3.org/2000/svg">
<path d="M194.503 253.461C193.343 247.621 190.503 242.521 184.253 239.661C183.534 239.351 182.939 238.809 182.563 238.121C179.071 237.435 175.45 237.887 172.233 239.411C165.563 242.581 160.483 249.701 160.563 257.191C160.713 273.641 194.653 270.791 194.503 253.461Z" fill="white"/>
<path d="M175.625 277.321C175.805 277.014 176.023 276.732 176.275 276.481H174.945L175.625 277.321Z" fill="white"/>
<path d="M108.857 340.031C119.727 337.321 115.437 309.551 104.127 317.561C103.71 317.854 103.203 317.989 102.697 317.941C100.297 320.381 98.9667 324.531 98.7767 327.731C98.4367 333.141 101.897 341.771 108.857 340.031Z" fill="white"/>
<path d="M340.903 307.411C360.173 300.821 366.143 281.581 368.213 263.191C366.083 263.561 363.903 263.741 361.813 264.041C357.653 264.628 353.49 265.188 349.323 265.721C340.363 266.841 331.38 267.741 322.373 268.421C313.003 269.151 303.613 269.711 294.203 269.921C287.543 270.081 279.973 270.831 273.203 269.621C275.125 277.29 278.981 284.338 284.403 290.091C298.473 304.761 320.823 314.321 340.903 307.411Z" fill="#E27683"/>
<path d="M271.346 257.661C271.216 257.708 271.082 257.745 270.946 257.771C271.046 258.561 271.166 259.351 271.276 260.131C271.361 259.813 271.5 259.512 271.686 259.241C271.506 258.829 271.398 258.39 271.366 257.941L271.346 257.661Z" fill="white"/>
<path fill-rule="evenodd" clip-rule="evenodd" d="M110.126 401.501C93.9862 397.971 78.0062 392.911 64.3662 383.321C50.8862 373.811 40.3962 360.541 31.6962 346.731C12.7562 316.261 0.936161 277.721 16.3562 243.261C23.1962 227.971 35.2762 214.911 51.2762 209.091C66.9962 203.351 84.7862 204.281 98.7862 213.801C100.966 215.281 102.996 213.801 103.536 211.801C106.526 211.231 109.076 208.051 107.076 204.641C90.1762 176.201 81.2762 137.571 91.6862 105.251C97.1562 88.2513 111.596 78.0113 127.266 70.6613C142.936 63.3113 161.356 59.6013 178.266 64.3713C194.096 68.8313 207.926 80.4713 212.366 96.6213C213.896 102.181 222.086 100.931 222.276 95.2813L222.312 94.1763C222.918 75.5741 223.556 55.996 232.136 39.0813C240.586 22.4113 254.916 13.0113 273.416 10.8213C307.356 6.79132 342.046 23.1013 360.046 52.2513C370.233 68.8619 374.883 88.278 373.326 107.701C372.926 112.881 380.106 114.081 382.576 110.211C392.996 93.8213 417.126 89.5513 433.286 99.8213C451.106 111.101 455.586 136.611 446.586 154.821C445.591 156.636 445.762 158.868 447.023 160.511C448.283 162.153 450.395 162.894 452.406 162.401C480.986 155.674 511.078 162.031 534.496 179.741C558.076 197.661 571.066 226.581 570.976 255.981C570.876 289.221 552.636 315.511 530.336 338.601C518.506 350.841 505.656 361.881 490.446 370.061C475.236 378.241 458.576 383.281 441.766 386.971C410.419 393.869 378.333 396.635 346.379 399.389L346.377 399.389C341.737 399.789 337.099 400.189 332.466 400.601C321.11 401.612 309.752 402.701 298.39 403.789L298.39 403.789C272.655 406.256 246.905 408.723 221.126 410.291C183.898 412.514 146.541 409.556 110.126 401.501ZM511.607 294.151C507.797 286.901 497.727 284.311 491.436 289.711V289.681C490.851 290.169 490.499 290.88 490.466 291.641C487.526 294.321 485.636 298.491 486.066 302.272C486.996 310.552 496.297 316.442 504.147 313.442C511.547 310.662 515.307 301.202 511.607 294.151ZM442.126 213.891C450.126 207.641 460.976 207.821 469.916 213.531C487.106 224.531 495.656 255.191 481.346 271.531C466.046 289.011 430.566 284.081 422.676 261.661C416.266 243.441 425.106 221.371 442.126 213.861V213.891ZM266.306 218.411C265.987 218.527 265.688 218.688 265.416 218.891C262.686 218.231 259.566 219.651 259.776 223.231C260.114 228.004 260.259 232.889 260.405 237.811V237.811V237.811C260.982 257.247 261.576 277.242 274.096 293.041C288.586 311.311 314.066 323.031 337.346 318.431C361.786 313.611 373.676 292.791 376.896 269.721C378.692 255.985 379.141 242.105 378.236 228.281C377.646 217.861 376.606 207.011 363.826 206.581C347.596 206.021 331.066 207.391 314.826 209.291C298.586 211.191 281.866 213.221 266.306 218.411ZM160.566 236.981C161.675 236.205 162.834 235.504 164.036 234.881L164.037 234.881L164.037 234.881C164.467 234.561 164.897 234.241 165.346 233.951C174.916 227.641 187.016 228.391 196.266 234.951C215.926 248.801 221.406 283.391 199.206 297.611C188.796 304.291 174.306 303.101 163.506 298.011C151.826 292.501 145.236 281.651 145.276 268.791C145.356 256.551 150.446 244.161 160.566 236.981ZM101.466 309.701C96.0563 311.451 92.9062 317.041 91.5662 322.221C88.5661 333.951 94.6663 349.672 108.977 348.332C121.707 347.132 124.887 331.051 122.587 320.781C121.327 315.161 117.737 309.941 111.837 308.631C109.614 308.08 107.272 308.269 105.167 309.171C103.912 309.131 102.66 309.31 101.466 309.701Z" fill="#88E0FF"/>
<path d="M462.167 250.171C468.087 248.321 471.527 243.261 472.567 237.591C472.327 236.441 472.137 235.291 471.977 234.131C471.023 231.45 469.839 228.857 468.437 226.381C467.964 225.499 467.92 224.45 468.317 223.531C461.817 217.771 452.257 215.441 445.697 222.621C440.877 227.911 439.777 236.621 443.467 242.781C447.157 248.941 455.257 252.321 462.167 250.171Z" fill="white"/>
<path d="M502.136 305.481C504.886 303.751 505.936 299.381 503.826 296.801C502.438 295.252 500.424 294.414 498.346 294.521C495.546 296.141 492.976 298.701 493.916 302.051C494.856 305.401 499.206 307.321 502.136 305.481Z" fill="white"/>
<path fill-rule="evenodd" clip-rule="evenodd" d="M117.585 412.941C99.865 409.481 81.935 404.981 66.185 395.841C36.485 378.601 15.295 344.571 5.31504 312.401C-4.43496 281.061 -1.62496 244.761 20.905 219.381C39.225 198.751 70.875 191.121 95.495 203.751C85.6127 185.534 79.7222 165.422 78.215 144.751C76.875 126.361 78.105 105.081 88.215 89.0813C98.505 72.7613 117.905 62.2213 135.845 56.4313C153.785 50.6413 173.435 50.2513 190.785 58.1613C199.594 62.1609 207.286 68.263 213.185 75.9313C214.555 58.4013 217.885 40.9413 228.005 26.2513C250.965 -7.07868 299.485 -5.08868 331.865 12.3713C362.135 28.6713 381.455 60.7513 383.385 94.6713C398.575 82.4813 421.515 80.4513 438.385 91.0613C458.155 103.501 465.105 128.821 459.105 150.501C463.455 149.824 467.844 149.43 472.245 149.321C502.865 148.611 534.105 161.431 554.625 184.321C576.045 208.221 584.825 241.611 579.825 273.111C574.275 307.671 549.395 336.661 523.825 359.041C495.255 384.041 460.355 394.901 423.485 401.041C391.59 406.381 359.262 409.081 326.997 411.777C318.172 412.514 309.351 413.251 300.545 414.041C292.667 414.748 284.765 415.527 276.847 416.308C243.73 419.575 210.334 422.87 177.205 420.941C157.173 419.628 137.254 416.955 117.585 412.941ZM51.335 209.021C35.415 214.841 23.255 227.901 16.415 243.191C0.99504 277.651 12.815 316.211 31.765 346.661C40.375 360.541 50.895 373.811 64.375 383.291C78.015 392.881 93.995 397.941 110.135 401.471C146.55 409.526 183.907 412.484 221.135 410.261C246.914 408.693 272.665 406.226 298.4 403.759C309.761 402.671 321.119 401.582 332.475 400.571C337.108 400.159 341.746 399.759 346.386 399.359C378.341 396.605 410.428 393.84 441.775 386.941C458.565 383.251 475.345 378.131 490.455 370.031C505.565 361.931 518.565 350.811 530.395 338.531C552.695 315.441 570.935 289.151 571.035 255.911C571.125 226.511 558.135 197.591 534.555 179.671C511.137 161.961 481.045 155.604 452.465 162.331C450.454 162.824 448.342 162.083 447.082 160.441C445.821 158.798 445.649 156.566 446.645 154.751C455.685 136.581 451.165 111.071 433.345 99.7513C417.185 89.4813 393.055 93.7413 382.635 110.141C380.165 114.011 372.985 112.811 373.385 107.631C374.942 88.208 370.292 68.7919 360.105 52.1813C342.135 23.0313 307.415 6.75132 273.475 10.7513C254.975 12.9413 240.645 22.3413 232.195 39.0113C223.615 55.926 222.977 75.504 222.371 94.1062C222.359 94.475 222.347 94.8433 222.335 95.2113C222.145 100.861 213.955 102.111 212.425 96.5513C207.985 80.4013 194.155 68.7613 178.325 64.3013C161.325 59.5313 142.905 63.2813 127.325 70.5913C111.745 77.9013 97.215 88.1813 91.745 105.181C81.335 137.501 90.235 176.131 107.135 204.571C109.155 207.981 106.595 211.161 103.595 211.731C103.055 213.731 101.025 215.211 98.845 213.731C84.855 204.211 67.055 203.281 51.335 209.021Z" fill="#231F20"/>
<path fill-rule="evenodd" clip-rule="evenodd" d="M163.567 297.971C174.367 303.061 188.857 304.251 199.267 297.571C221.468 283.351 215.988 248.761 196.327 234.911C187.077 228.391 174.977 227.641 165.407 233.911C164.957 234.201 164.527 234.521 164.097 234.841C162.895 235.464 161.736 236.165 160.627 236.941C150.466 244.121 145.376 256.511 145.336 268.711C145.276 281.611 151.866 292.461 163.567 297.971ZM175.626 277.321L174.946 276.431H176.276C176.021 276.697 175.802 276.997 175.626 277.321ZM182.566 238.121C179.063 237.431 175.431 237.887 172.206 239.421V239.411C165.566 242.581 160.456 249.701 160.536 257.191C160.746 273.641 194.686 270.791 194.536 253.461C193.376 247.661 190.496 242.521 184.286 239.661C183.556 239.357 182.95 238.814 182.566 238.121Z" fill="#231F20"/>
<path fill-rule="evenodd" clip-rule="evenodd" d="M122.568 320.771C124.868 331.041 121.688 347.121 108.957 348.321C94.6663 349.671 88.566 333.951 91.5461 322.211C92.8862 317.031 96.0363 311.441 101.447 309.691C102.64 309.3 103.892 309.121 105.147 309.161C107.252 308.259 109.594 308.07 111.817 308.621C117.717 309.931 121.308 315.151 122.568 320.771ZM102.696 317.931C100.296 320.371 98.9661 324.521 98.7761 327.721V327.731C98.4361 333.141 101.896 341.771 108.856 340.021C119.726 337.311 115.436 309.551 104.126 317.551C103.71 317.844 103.203 317.979 102.696 317.931Z" fill="#231F20"/>
<path fill-rule="evenodd" clip-rule="evenodd" d="M469.915 213.511C487.105 224.511 495.655 255.161 481.345 271.511C466.045 288.991 430.565 284.061 422.675 261.651C416.265 243.451 425.125 221.381 442.125 213.871C450.135 207.621 460.975 207.801 469.915 213.511ZM468.315 223.531C461.815 217.771 452.255 215.441 445.695 222.621C440.875 227.911 439.765 236.631 443.465 242.781C447.165 248.931 455.255 252.341 462.165 250.171C468.085 248.321 471.565 243.261 472.565 237.591C472.325 236.441 472.135 235.291 471.975 234.131C471.022 231.45 469.837 228.857 468.435 226.381C467.963 225.499 467.919 224.45 468.315 223.531Z" fill="#231F20"/>
<path fill-rule="evenodd" clip-rule="evenodd" d="M504.144 313.411C496.294 316.361 486.994 310.521 486.064 302.241C485.634 298.461 487.564 294.321 490.434 291.611C490.482 290.856 490.845 290.156 491.434 289.681C497.724 284.281 507.794 286.871 511.604 294.121C515.304 301.171 511.544 310.631 504.144 313.411ZM503.824 296.801C502.436 295.252 500.421 294.414 498.344 294.521C495.564 296.141 492.994 298.801 493.914 302.051C494.834 305.301 499.204 307.331 502.134 305.481C504.884 303.751 505.934 299.381 503.824 296.801Z" fill="#231F20"/>
<path fill-rule="evenodd" clip-rule="evenodd" d="M337.337 318.431C361.777 313.611 373.668 292.791 376.888 269.721C378.681 255.998 379.13 242.132 378.228 228.321C377.638 217.901 376.598 207.051 363.817 206.621C347.597 206.061 330.927 207.451 314.817 209.331C298.707 211.211 281.816 213.261 266.296 218.451C265.977 218.567 265.678 218.728 265.406 218.931C262.676 218.271 259.506 219.691 259.756 223.271C260.094 228.044 260.239 232.929 260.385 237.849C260.962 257.283 261.556 277.274 274.076 293.081C288.566 311.321 314.057 323.031 337.337 318.431ZM271.276 260.131C271.243 259.898 271.209 259.663 271.175 259.428C271.096 258.878 271.016 258.325 270.946 257.771C271.082 257.745 271.216 257.708 271.346 257.661V257.941C271.378 258.39 271.486 258.829 271.666 259.241C271.486 259.514 271.355 259.815 271.276 260.131ZM322.376 268.421C313.006 269.151 303.616 269.711 294.206 269.921C292.732 269.957 291.212 270.021 289.663 270.087C284.235 270.318 278.465 270.563 273.166 269.621C275.088 277.29 278.944 284.338 284.366 290.091C298.476 304.761 320.826 314.281 340.906 307.411C360.216 300.821 366.146 281.581 368.216 263.191C366.938 263.413 365.642 263.567 364.359 263.719C363.503 263.82 362.652 263.921 361.816 264.041C357.656 264.635 353.493 265.195 349.326 265.721C340.366 266.855 331.383 267.755 322.376 268.421Z" fill="#231F20"/>
</svg>
