<svg width="294" height="575" viewBox="0 0 294 575" fill="none" xmlns="http://www.w3.org/2000/svg">
<path d="M204.083 322.934L197.753 264.144C195.583 243.934 193.753 223.684 191.513 203.484C190.293 192.594 188.373 181.334 187.223 170.124C186.663 171.674 186.113 173.224 185.583 174.754C182.41 183.974 179.18 193.177 175.893 202.364C169.123 221.284 161.893 240.064 154.703 258.824C147.253 278.154 139.393 297.314 131.273 316.364C127.453 325.317 123.586 334.244 119.673 343.144C115.863 351.784 112.673 361.314 106.953 368.894C106.672 369.275 106.335 369.612 105.953 369.894C110.873 379.334 112.753 390.964 115.353 401.054C115.503 401.624 115.663 402.194 115.803 402.764L116.163 403.864C117.513 408.084 119.073 412.414 120.533 416.804C122.273 420.664 123.933 424.574 125.433 428.534C126.723 431.964 127.433 438.044 129.703 440.884C134.163 446.534 148.573 446.364 155.533 447.624C160.223 448.474 165.153 449.804 169.903 450.114C175.393 450.464 174.903 448.894 178.433 444.244L196.073 420.844C201.563 413.574 211.503 404.284 213.003 395.044C214.303 386.964 209.093 379.684 209.473 371.624C206.403 355.704 205.783 338.744 204.083 322.934Z" fill="#00AEEF"/>
<path d="M48.4045 379.144C56.1445 377.094 64.0145 375.524 71.7545 373.454C79.4945 371.384 86.0545 367.724 93.3645 364.874C95.8687 362.745 98.1021 360.317 100.015 357.644C102.475 350.934 106.015 344.474 108.915 338.044C113.168 328.617 117.351 319.154 121.465 309.654C129.225 291.784 136.755 273.824 144.205 255.824C151.895 237.274 159.145 218.554 166.325 199.824C170.025 190.164 173.658 180.497 177.225 170.824C179.495 164.644 181.465 158.154 184.075 152.024C184.345 149.464 184.645 146.904 185.015 144.354C185.231 142.15 185.589 139.962 186.085 137.804C186.795 131.414 187.975 125.034 188.805 118.804C190.598 105.471 192.381 92.1373 194.155 78.804C195.928 65.4707 197.815 52.154 199.815 38.854C200.515 34.134 200.995 28.984 201.685 23.854C190.685 37.554 180.265 51.854 169.735 65.774C155.545 84.604 141.445 103.484 128.125 122.964C100.725 163.024 76.0045 205.104 56.3545 249.534C39.1045 288.424 25.6745 329.144 17.8945 371.144C16.5645 378.324 15.5245 385.414 14.8945 392.474C18.9845 390.754 23.1845 389.184 27.0545 387.214C33.8619 383.768 41.0196 381.062 48.4045 379.144Z" fill="#2E3192"/>
<path d="M109.444 458.474C112.084 454.674 114.924 449.804 118.774 446.854C117.742 444.396 116.847 441.882 116.094 439.324C113.924 432.764 111.544 426.264 108.844 419.904C104.794 410.354 94.684 394.634 93.404 381.174C81.744 387.704 66.794 389.174 54.164 391.794C44.664 393.794 36.164 397.074 27.314 400.794C23.314 402.484 18.754 404.254 14.314 404.484C14.1081 416.6 15.7572 428.676 19.204 440.294C24.8896 458.902 33.1568 476.622 43.764 492.934C50.7501 503.789 58.9976 513.779 68.334 522.694C70.734 518.084 74.054 513.744 76.694 509.434C81.9674 500.807 87.3307 492.23 92.784 483.704C98.234 475.214 103.674 466.764 109.444 458.474Z" fill="#525AC1"/>
<path d="M176.265 466.914C175.695 465.914 175.145 464.914 174.635 464.024C168.235 464.684 160.925 462.104 154.995 461.024C146.995 459.524 134.605 458.944 126.405 454.724C124.665 459.054 121.405 463.144 119.075 466.864C113.975 474.864 108.775 482.864 103.685 490.864C98.2721 499.41 92.9388 508.01 87.6855 516.664C84.8455 521.344 82.3655 527.204 78.8555 531.814C96.3455 545.514 116.855 554.914 139.795 557.604C168.895 561.014 195.795 550.954 217.165 532.944C208.445 518.624 199.675 504.304 190.675 490.144C185.845 482.414 180.675 474.874 176.265 466.914Z" fill="#2E3192"/>
<path d="M225.214 400.524C222.214 410.834 213.464 419.684 207.214 427.974C200.014 437.604 193.214 449.624 184.754 458.424C185.904 459.924 186.984 461.524 188.124 463.044C193.184 469.824 197.714 477.044 202.404 484.134C210.964 497.014 219.324 510.014 227.484 523.134C230.874 519.544 234.063 515.768 237.034 511.824C259.034 482.514 268.244 446.084 272.534 409.974C262.934 410.454 251.914 406.464 243.104 404.594C237.774 403.484 231.144 402.544 225.214 400.524Z" fill="#525AC1"/>
<path d="M214.245 28.0337C213.715 31.8637 213.135 35.6337 212.715 39.2437C211.175 52.6237 209.538 65.9837 207.805 79.3237C205.985 93.2704 204.158 107.21 202.325 121.144C201.325 128.694 200.755 136.544 199.265 144.144C198.925 148.144 198.425 152.084 197.875 155.994C200.975 171.134 201.615 187.274 203.415 202.364C205.745 221.954 208.555 241.474 210.975 261.054L218.255 319.764C220.155 335.064 223.445 351.324 224.255 367.064C224.395 367.884 224.535 368.704 224.665 369.524C225.665 375.604 227.335 382.084 227.725 388.344C234.485 388.824 241.555 390.764 247.325 391.754C255.525 393.154 265.745 393.264 273.995 396.334C274.175 394.334 274.345 392.307 274.505 390.254C278.035 344.764 274.725 299.304 269.265 254.104C264.035 210.794 256.945 167.504 247.915 124.814C240.735 90.8237 229.915 58.6537 214.245 28.0337Z" fill="#2E3192"/>
<path fill-rule="evenodd" clip-rule="evenodd" d="M216.214 3.62377C215.655 2.91409 214.979 2.3053 214.214 1.82377C213.164 -0.716231 209.544 -0.406231 208.004 1.54377C205.731 2.61472 204.226 4.84465 204.084 7.35377C172.464 38.5238 145.614 75.5738 120.394 111.884C94.5841 149.044 71.0941 187.884 51.3941 228.654C31.3941 270.134 15.6441 313.774 6.15407 358.864C1.27407 382.054 -2.43593 405.864 1.95407 429.464C5.61407 449.124 12.9541 468.224 22.0841 485.954C40.8741 522.344 71.3041 553.754 110.584 567.354C149.514 580.834 191.284 575.054 223.764 549.294C296.704 491.474 296.474 381.194 291.334 296.784C288.064 243.184 279.234 189.594 268.554 136.994C259.224 90.7838 246.024 41.2138 216.214 3.62377ZM17.8941 371.144C25.6741 329.144 39.1041 288.424 56.3541 249.444C76.0041 205.014 100.724 162.934 128.124 122.874C141.444 103.394 155.544 84.5138 169.734 65.6838C172.34 62.2261 174.939 58.7513 177.542 55.2719L177.543 55.2704C185.454 44.6925 193.397 34.0724 201.674 23.7638C201.377 25.9901 201.119 28.2127 200.865 30.3956L200.865 30.3962C200.53 33.2823 200.203 36.0992 199.804 38.7638C197.804 52.0971 195.917 65.4304 194.144 78.7638C192.371 92.0971 190.587 105.43 188.794 118.764C188.455 121.3 188.06 123.864 187.661 126.447C187.084 130.189 186.5 133.971 186.074 137.764C185.578 139.922 185.221 142.11 185.004 144.314C184.634 146.864 184.334 149.424 184.064 151.984C182.361 155.984 180.93 160.137 179.511 164.258L179.511 164.258C178.755 166.452 178.003 168.637 177.214 170.784C173.647 180.484 170.014 190.15 166.314 199.784C159.134 218.544 151.884 237.264 144.194 255.784C136.744 273.784 129.194 291.784 121.454 309.614C117.334 319.107 113.151 328.57 108.904 338.004C107.899 340.239 106.815 342.478 105.724 344.73C103.677 348.956 101.609 353.227 100.004 357.604C98.0916 360.277 95.8582 362.705 93.3541 364.834C90.7872 365.835 88.3066 366.936 85.8353 368.034C81.2687 370.063 76.7337 372.077 71.7441 373.414C67.5598 374.535 63.3105 375.54 59.0588 376.546L59.0586 376.546L59.0582 376.546L59.0577 376.546L59.0571 376.546L59.0564 376.547C55.4949 377.389 51.9318 378.232 48.4041 379.144C41.0263 381.06 33.8755 383.762 27.0741 387.204C24.2663 388.655 21.2849 389.864 18.2978 391.075L18.2971 391.075L18.2926 391.077C17.1642 391.535 16.035 391.992 14.9141 392.464C15.5241 385.404 16.5641 378.314 17.8941 371.144ZM200.739 415.146C205.941 409.009 211.873 402.012 213.004 395.044C213.699 390.723 212.533 386.631 211.36 382.515C210.339 378.935 209.313 375.336 209.504 371.554C207.396 360.687 206.441 349.314 205.503 338.15L205.502 338.149L205.502 338.149L205.502 338.148L205.502 338.148C205.07 332.999 204.641 327.894 204.104 322.904L197.774 264.104C196.818 255.201 195.934 246.29 195.05 237.379C193.927 226.062 192.804 214.745 191.534 203.444C190.974 198.441 190.265 193.36 189.552 188.241L189.552 188.241L189.552 188.241L189.552 188.24C188.712 182.217 187.866 176.143 187.244 170.084C186.684 171.634 186.134 173.184 185.604 174.714C182.431 183.934 179.201 193.137 175.914 202.324C169.144 221.244 161.954 240.024 154.724 258.784C147.294 278.114 139.414 297.324 131.294 316.324C127.474 325.284 123.601 334.224 119.674 343.144C118.79 345.146 117.94 347.194 117.087 349.252L117.086 349.253C114.243 356.11 111.351 363.085 106.944 368.884C106.663 369.266 106.326 369.603 105.944 369.884C109.718 377.124 111.703 385.653 113.596 393.787C114.171 396.258 114.738 398.693 115.344 401.044L115.372 401.149L115.401 401.258C115.432 401.373 115.463 401.489 115.494 401.604L115.496 401.614C115.598 401.994 115.701 402.374 115.794 402.754L116.154 403.854C116.932 406.252 117.766 408.685 118.608 411.144L118.608 411.145C119.248 413.014 119.894 414.898 120.524 416.794C122.264 420.654 123.924 424.524 125.424 428.524C125.855 429.687 126.227 431.156 126.618 432.7C127.38 435.706 128.214 438.997 129.694 440.874C133.071 445.152 142.131 446.093 149.371 446.845H149.371H149.371H149.372C151.692 447.086 153.825 447.308 155.524 447.614C156.951 447.872 158.401 448.176 159.86 448.481L159.861 448.481C163.198 449.179 166.59 449.888 169.894 450.104C174.25 450.379 174.858 449.464 176.635 446.791L176.636 446.79C177.115 446.069 177.679 445.221 178.424 444.234L196.074 420.844C197.423 419.057 199.042 417.148 200.737 415.148L200.738 415.147L200.739 415.146ZM68.3548 522.704C59.0182 513.789 50.7706 503.799 43.7845 492.944C33.1771 476.632 24.9098 458.912 19.2241 440.304C15.7773 428.686 14.1282 416.61 14.3341 404.494C18.7541 404.264 23.3342 402.494 27.3342 400.804C36.2344 397.074 44.6845 393.744 54.1846 391.804C56.8781 391.249 59.677 390.745 62.5271 390.232L62.5287 390.232L62.5302 390.232L62.5316 390.231C73.0447 388.339 84.2529 386.32 93.4251 381.184C94.3523 390.934 99.9125 401.869 104.447 410.787C106.172 414.18 107.749 417.281 108.865 419.914C111.565 426.274 113.945 432.774 116.115 439.334C116.868 441.892 117.763 444.405 118.795 446.864C115.633 449.328 113.152 453.021 110.903 456.367C110.414 457.094 109.937 457.805 109.465 458.484C103.735 466.774 98.2552 475.224 92.8251 483.724C87.395 492.224 81.985 500.814 76.6749 509.444C75.6548 511.135 74.5239 512.838 73.3812 514.559C71.6113 517.225 69.8132 519.933 68.3548 522.704ZM78.8841 531.814C96.3741 545.514 116.934 554.914 139.824 557.604C168.924 561.014 195.834 550.954 217.224 532.944L216.455 531.685C207.962 517.784 199.47 503.888 190.734 490.104C189.352 487.917 187.945 485.745 186.539 483.573L186.537 483.57L186.536 483.57L186.536 483.569C182.997 478.105 179.456 472.637 176.294 466.914C176.031 466.443 175.772 465.986 175.519 465.541C175.224 465.022 174.938 464.519 174.664 464.024C170.02 464.517 164.897 463.294 160.17 462.166L160.17 462.166L160.168 462.165L160.164 462.164C158.378 461.738 156.649 461.325 155.024 461.024C152.902 460.626 150.472 460.293 147.895 459.94C140.746 458.961 132.461 457.826 126.434 454.724C125.168 457.875 123.113 460.899 121.178 463.746L121.177 463.746C120.453 464.811 119.746 465.851 119.104 466.864C116.676 470.673 114.224 474.483 111.773 478.292C109.077 482.483 106.38 486.673 103.714 490.864C98.2807 499.397 92.9474 507.997 87.7141 516.664C86.6825 518.37 85.6962 520.232 84.6891 522.134L84.6888 522.135C82.9331 525.45 81.1145 528.884 78.8841 531.814ZM237.084 511.844C234.112 515.784 230.924 519.557 227.534 523.144C219.374 510.017 211.014 497.017 202.454 484.144C201.232 482.308 200.022 480.457 198.81 478.605L198.809 478.603C195.368 473.344 191.916 468.067 188.174 463.054C187.658 462.365 187.153 461.66 186.649 460.955C186.041 460.104 185.433 459.254 184.804 458.434C190.336 452.666 195.172 445.515 199.875 438.56L199.875 438.559C202.348 434.903 204.783 431.302 207.264 427.984C208.722 426.034 210.325 424.053 211.961 422.029C217.283 415.45 222.97 408.419 225.264 400.534C229.868 402.086 234.893 403.036 239.428 403.894L239.433 403.895C240.738 404.141 242.002 404.38 243.204 404.624C245.615 405.135 248.191 405.806 250.859 406.5C257.939 408.343 265.661 410.352 272.634 410.004C268.294 446.144 259.134 482.534 237.084 511.844ZM273.994 396.334C274.174 394.28 274.344 392.254 274.504 390.254C278.034 344.764 274.724 299.304 269.264 254.084C264.034 210.794 256.914 167.484 247.914 124.794C240.734 90.8038 229.914 58.6338 214.244 28.0138C214.085 29.1602 213.922 30.3012 213.76 31.4342C213.381 34.0863 213.008 36.6943 212.714 39.2238C211.194 52.6104 209.557 65.9704 207.804 79.3038C205.984 93.2571 204.157 107.204 202.324 121.144C202.019 123.504 201.751 125.891 201.482 128.289C200.889 133.582 200.29 138.927 199.264 144.144C198.924 148.114 198.424 152.084 197.874 155.994C199.951 166.139 200.924 176.733 201.881 187.159C202.353 192.293 202.82 197.385 203.414 202.364C204.699 213.167 206.13 223.949 207.561 234.731C208.725 243.501 209.889 252.271 210.974 261.054L218.254 319.764C218.903 324.986 219.713 330.32 220.531 335.707C222.111 346.103 223.721 356.696 224.254 367.064C224.394 367.884 224.534 368.704 224.664 369.524C224.99 371.525 225.39 373.569 225.795 375.634C226.62 379.845 227.462 384.144 227.724 388.344C232.309 388.669 237.036 389.662 241.404 390.579C243.476 391.014 245.467 391.432 247.324 391.754C249.97 392.206 252.826 392.523 255.759 392.849C261.915 393.533 268.406 394.254 273.994 396.334Z" fill="#231F20"/>
</svg>
