<svg width="568" height="388" viewBox="0 0 568 388" fill="none" xmlns="http://www.w3.org/2000/svg">
<path d="M501.007 267.7C504.675 263.5 506.928 258.252 507.447 252.7C505.228 256.753 502.239 260.333 498.647 263.24C474.577 282.12 444.967 264.98 418.447 271.7C405.217 275.05 393.827 283.57 381.067 288.26C368.307 292.95 355.337 292.12 342.217 288.86C328.477 285.44 314.887 281.11 300.577 283.73C288.677 285.92 282.437 293.2 275.027 300.58C299.534 299.627 323.977 298.377 348.357 296.83C383.827 294.61 419.247 290.96 454.127 284.03C468.617 281.11 490.697 279.54 501.007 267.7Z" fill="#754C29"/>
<path d="M82.0675 296.92C99.4775 301.79 119.068 301.08 136.988 301.6C156.628 302.18 176.338 302.37 196.077 302.29C184.868 295.29 174.457 287.05 162.757 280.87C147.308 272.71 134.327 272.03 117.757 276.38C105.088 279.72 94.8275 278.26 84.3175 270.38C79.7475 266.94 75.3775 262.2 70.0375 260C65.8575 258.27 61.6175 258.44 57.4375 259.35C59.4975 276.41 63.0075 291.58 82.0675 296.92Z" fill="#754C29"/>
<path d="M544.397 187.49C541.587 185.09 538.827 183.03 536.397 180.8C528.457 193.71 515.397 202.33 501.667 208.63C483.449 216.874 464.474 223.327 445.007 227.9C408.847 236.59 371.547 239.84 334.457 240.85C296.877 241.85 258.907 241.63 221.377 239.56C181.377 237.35 142.377 227.02 102.377 224.91C86.2073 224.06 68.7873 224.49 55.4273 213.91C53.5839 212.455 51.8829 210.827 50.3473 209.05L45.3473 203.76C34.7773 209.24 25.5573 216.86 19.1973 227.24C15.7573 232.83 11.0773 241.92 14.5473 248.53C17.8073 254.76 26.4073 253.82 32.0373 252.53C45.2173 249.47 56.9673 241.06 71.1073 244.85C82.0073 247.78 88.1973 257.2 97.9973 261.85C109.807 267.46 124.307 257.76 136.927 258.14C148.137 258.47 158.927 262.24 168.837 267.24C189.787 277.79 207.677 297.38 231.697 300.97C245.697 303.06 256.087 298.37 265.367 288.15C272.367 280.48 279.507 274.15 289.417 270.67C300.117 266.9 311.777 266.73 322.907 268.21C335.087 269.82 346.907 274.79 359.177 275.36C383.337 276.48 402.287 255.42 426.507 253.86C447.697 252.49 480.947 266.13 494.507 242.86C499.367 234.51 501.947 224.96 509.217 218.14C516.487 211.32 525.997 210.6 535.597 209.69C541.837 209.1 548.297 208.41 550.447 201.43C552.327 195.24 548.717 191.18 544.397 187.49Z" fill="#8DC63F"/>
<path d="M519.477 233.65C519.134 233.325 518.819 232.97 518.537 232.59C518.509 232.608 518.485 232.632 518.467 232.66C524.817 244.07 524.297 258.32 518.357 270.18C509.507 287.83 490.567 292.33 472.777 296.29C398.907 312.74 322.547 314.55 247.007 316.02C242.7 316.625 238.335 316.712 234.007 316.28L225.747 316.44C183.377 317.3 140.577 317.22 98.4272 312.38C84.3272 310.76 69.0172 307.86 58.7872 297.12C52.0372 290.03 49.0572 280.91 48.2872 271.48C46.0722 286.084 51.3034 300.828 62.2272 310.77C77.4972 324.94 99.8772 328.65 119.837 330.53C203.767 338.4 288.487 329.18 372.017 321.05C411.117 317.24 450.637 313.05 487.927 299.95C503.057 294.64 525.087 287.55 531.327 270.95C536.647 256.88 529.657 243.24 519.477 233.65Z" fill="#FFF200"/>
<path d="M296.667 137.24C297.587 139.874 299.361 140.184 301.987 138.17C302.031 136.73 301.8 135.295 301.307 133.94C299.937 129.1 296.607 124.52 293.987 120.24C292.987 118.61 291.157 114.24 288.397 115.13C287.897 115.29 286.967 116.97 286.107 118.31C287.107 122.96 290.387 127.46 292.727 131.22C293.807 132.9 295.007 135.86 296.667 137.24Z" fill="white"/>
<path d="M257.907 190.85C259.257 190.46 266.237 188.69 265.167 186.29C264.717 185.29 258.287 185.9 256.167 185.83C255.165 186.307 254.193 186.844 253.257 187.44C252.595 187.818 251.992 188.289 251.467 188.84L252.157 191.34C253.467 192.29 256.527 191.24 257.907 190.85Z" fill="white"/>
<path d="M372.007 337.8C320.437 342.69 268.827 347.42 217.007 348.57C191.747 349.13 166.437 348.84 141.217 347.19C120.097 345.8 98.0768 344.38 78.2168 336.59C70.6608 333.692 63.582 329.678 57.2168 324.68C58.4731 327.664 59.9401 330.555 61.6068 333.33C73.4468 352.9 94.9468 358.77 115.957 363.77C157.007 373.54 199.547 374.01 241.517 373.31C283.957 372.59 326.517 371.71 368.847 368.48C390.687 366.82 412.537 364.65 434.207 361.42C453.147 358.6 472.527 355.03 489.137 344.98C503.277 336.223 514.862 323.896 522.727 309.24C524.262 306.403 525.644 303.485 526.867 300.5C520.58 304.527 513.931 307.959 507.007 310.75C464.267 328.64 417.757 333.46 372.007 337.8Z" fill="#FBB040"/>
<path fill-rule="evenodd" clip-rule="evenodd" d="M92.4678 210.03C110.661 210.139 128.819 211.623 146.788 214.47C182.028 219.75 216.408 224.18 252.088 224.77C284.778 225.31 317.508 225.66 350.168 223.97C383.438 222.25 416.658 218.28 448.858 209.51C449.942 209.215 451.049 208.916 452.175 208.612L452.177 208.612C477.088 201.882 511.418 192.607 523.808 168.44C516.008 146.04 504.008 125.59 491.398 105.57C490.354 103.914 489.316 102.252 488.279 100.589L488.278 100.588L488.277 100.587L488.277 100.586L488.276 100.585L488.275 100.584L488.273 100.58L488.271 100.577C476.77 82.1571 465.266 63.7324 446.008 52.5903C427.198 41.6603 405.598 34.3603 384.828 28.1703C364.058 21.9803 342.908 17.6703 321.338 16.6203C278.338 14.5203 232.858 21.8903 191.048 31.8003C153.958 40.5903 117.318 55.3403 91.6478 84.6303C67.4478 112.26 48.9978 154.63 52.5378 192.63C59.2878 207.46 75.9278 210.05 92.4678 210.03ZM417.948 133.16C418.528 127.02 421.868 122.43 426.238 118.79C426.378 118.199 426.735 117.682 427.238 117.34C427.47 117.18 427.714 117.011 427.967 116.835L427.975 116.828C433.166 113.217 442.44 106.764 446.528 115.34C450.259 123.218 440.501 130.783 434.797 135.204C434.462 135.464 434.141 135.713 433.838 135.95C428.108 140.4 416.868 144.56 417.948 133.16ZM351.298 89.6803C351.049 90.5547 350.852 91.4429 350.708 92.3403C350.138 95.8503 349.898 103.5 353.488 105.84C356.982 108.135 360.43 104.706 362.958 102.191L362.959 102.19C363.296 101.855 363.616 101.537 363.918 101.25C368.588 96.8503 372.938 91.9303 375.248 85.8503C377.688 79.4403 377.498 62.9803 366.588 69.7903C359.608 74.1403 352.998 81.4703 351.298 89.6803ZM348.908 160.52C354.538 152.97 368.758 155.81 375.968 159.39C380.458 161.62 393.058 172.16 382.118 175C376.685 176.405 369.41 175.301 363.687 174.433C363.3 174.374 362.92 174.316 362.548 174.26C358.028 173.59 351.938 172.6 348.778 168.84C345.618 165.08 346.538 162.43 348.908 160.52ZM282.648 112.33C282.578 112.43 282.578 112.52 282.578 112.62C281.359 114.538 281.122 116.92 281.938 119.04C282.613 127.683 288.865 136.464 293.525 143.01L293.618 143.14C298.708 150.3 306.968 148.31 307.968 139.14C308.498 134 306.238 129.19 303.808 124.8C303.316 123.915 302.812 122.948 302.288 121.941C300.112 117.765 297.579 112.905 294.098 110.31C290.884 107.998 286.462 108.385 283.698 111.22C283.191 111.402 282.801 111.814 282.648 112.33ZM246.138 187.62C248.038 183.07 252.808 181.55 257.538 180.99C262.538 179.21 270.378 180.08 270.878 185.99C271.468 192.99 262.348 195.8 256.978 196.72C251.348 197.71 243.138 194.79 246.138 187.6V187.62ZM240.638 57.6103C233.628 55.1203 223.858 62.8503 219.168 67.2403C214.918 71.2403 209.178 78.1503 212.368 83.8403C212.462 84.5413 212.612 85.2336 212.818 85.9103C213.335 87.6101 215.095 88.6047 216.818 88.1703C225.509 86.6523 233.409 82.1761 239.178 75.5003C242.958 71.1003 249.338 60.7103 240.638 57.6103ZM190.228 145.04C190.384 145.108 190.534 145.189 190.678 145.28C198.988 142.85 209.088 142.45 216.418 145.94C226.628 150.79 219.328 158.79 211.928 161.39C203.618 164.31 189.038 162.71 182.748 155.9C177.138 149.83 182.808 142.4 190.228 145.02V145.04ZM103.688 133.68C103.342 133.392 102.867 133.315 102.448 133.48V133.46C96.6878 135.99 98.8978 144.47 101.848 148.41C103.768 151.037 106.538 153.028 109.199 154.941C109.739 155.329 110.275 155.714 110.798 156.1C111.679 156.752 112.671 157.601 113.731 158.507C116.685 161.035 120.166 164.013 123.258 164.44C131.718 165.61 130.338 154.24 128.088 149.7C124.398 142.29 117.028 138.4 109.688 135.4C109.19 134.174 108.011 133.361 106.688 133.33C105.674 133.235 104.652 133.354 103.688 133.68Z" fill="#FBB040"/>
<path d="M191.557 153.84L193.617 154.6C195.566 155.282 197.575 155.781 199.617 156.09C203.027 156.61 212.757 157.16 212.357 152.48C211.957 147.8 198.297 148.63 190.407 149.48C190.154 149.588 189.888 149.662 189.617 149.7C187.743 152.18 188.39 153.56 191.557 153.84Z" fill="white"/>
<path d="M217.947 80.2403C218.037 80.5403 218.107 80.8503 218.187 81.1503C221.625 80.2258 224.895 78.7645 227.877 76.8203C231.227 74.5803 236.657 70.2903 237.877 66.2403C239.507 60.9203 234.407 64.1503 232.247 65.1803C230.073 66.2066 227.983 67.4037 225.997 68.7603C223.507 70.4603 218.117 74.4003 216.107 78.4103C217.007 78.6412 217.712 79.3416 217.947 80.2403Z" fill="white"/>
<path d="M109.816 148.17C113.586 150.81 117.416 153.38 121.196 155.99L123.666 157.7C123.453 156.6 123.193 155.51 122.886 154.43C121.966 151.941 120.452 149.713 118.476 147.94C114.986 144.68 110.366 142.73 106.026 140.94C105.67 140.806 105.334 140.625 105.026 140.4L104.166 141.3C104.086 141.522 103.967 141.729 103.816 141.91C105.437 144.331 107.467 146.449 109.816 148.17Z" fill="white"/>
<path d="M366.897 89.1104C368.547 86.7604 373.947 77.3004 371.147 74.2904C369.467 72.4704 363.617 78.0304 360.917 80.8504C361.179 81.3972 361.179 82.0336 360.917 82.5804C358.297 87.5804 354.727 94.1904 356.917 99.9504C360.307 98.0204 365.487 91.1204 366.897 89.1104Z" fill="white"/>
<path d="M364.558 169.09C367.118 169.34 369.708 169.42 372.278 169.47C373.998 169.47 375.718 169.47 377.438 169.47C380.338 170.08 380.798 169.65 378.828 168.16C375.748 164.04 368.298 162.16 363.408 161.86C359.928 161.63 356.578 162.67 353.198 162.86C352.472 163.877 352.538 165.258 353.358 166.2C354.838 168.39 362.608 168.9 364.558 169.09Z" fill="white"/>
<path d="M430.208 131.24C432.608 129.35 442.408 122.45 441.348 118.77C440.868 117.11 438.088 117.24 436.908 117.56C435.853 118.034 434.87 118.654 433.988 119.4C432.968 120.058 431.89 120.62 430.768 121.08C429.026 122.765 427.47 124.633 426.128 126.65C425.558 127.52 422.238 133.52 423.518 134.72C424.798 135.92 429.208 132 430.208 131.24Z" fill="white"/>
<path fill-rule="evenodd" clip-rule="evenodd" d="M566.007 190.45C563.509 182.436 557.426 177.897 551.282 173.314C547.269 170.319 543.229 167.305 540.147 163.29C532.567 141.96 521.717 122.17 509.697 103.02C508.091 100.464 506.488 97.8652 504.872 95.2475L504.867 95.2383L504.864 95.2343L504.862 95.2304L504.859 95.2264L504.857 95.2224C494.638 78.6618 483.944 61.3311 469.167 48.8503C452.047 34.3903 430.007 26.5603 409.267 19.2403C386.447 11.1803 362.947 5.17032 338.887 2.33032C291.297 -3.27968 241.297 6.33032 194.887 16.6303C154.177 25.6303 112.977 41.1803 84.2569 72.7203C68.1569 90.4103 56.5469 111.72 48.7069 134.26C42.2369 152.85 37.3669 172.91 41.4969 191.87C21.6069 199.98 2.40689 218.44 0.146892 240.53C-0.903108 250.83 3.69689 260.53 13.2769 264.95C20.8669 268.46 28.9969 267.77 36.8369 265.77C33.2369 274.77 33.5269 284.87 36.3969 294.45C38.0269 325.45 56.0869 356.92 85.2569 368.34C127.357 384.82 175.027 387.12 219.717 387.34C266.867 387.57 314.177 386.52 361.257 383.87C385.427 382.51 409.517 380.37 433.507 377.1C454.087 374.3 474.927 370.81 493.427 360.85C510.852 351.255 525.321 337.077 535.267 319.85C543.417 305.85 551.667 286.11 549.397 269.13C549.397 269.006 549.429 268.888 549.461 268.769C549.476 268.711 549.492 268.653 549.504 268.594C549.507 268.578 549.51 268.563 549.513 268.547L549.515 268.532L549.517 268.52C551.997 253.24 547.007 235.34 534.517 225.72C535.784 225.565 537.068 225.433 538.355 225.301C544.521 224.669 550.764 224.03 555.687 220.72C565.227 214.32 569.327 201.24 566.007 190.45ZM91.6869 84.6303C117.357 55.3403 153.997 40.6303 191.087 31.8003C232.897 21.8903 278.367 14.5203 321.377 16.6203C342.947 17.6703 364.207 22.0103 384.867 28.1703C405.527 34.3303 427.237 41.6603 446.047 52.5903C465.219 63.7304 476.808 82.2685 488.276 100.612C489.315 102.275 490.354 103.936 491.397 105.59C503.947 125.49 516.007 146.04 523.807 168.44C511.46 192.598 477.118 201.875 452.206 208.604C451.069 208.911 449.952 209.213 448.857 209.51C416.657 218.28 383.437 222.25 350.167 223.97C317.507 225.66 284.777 225.31 252.087 224.77C216.407 224.18 182.027 219.77 146.787 214.47C128.818 211.623 110.66 210.139 92.4669 210.03C75.9269 210.03 59.2869 207.46 52.5769 192.61C49.0069 154.63 67.4869 112.24 91.6869 84.6303ZM489.067 344.98C503.233 336.232 514.843 323.905 522.727 309.24C524.228 306.401 525.576 303.483 526.767 300.5C520.49 304.526 513.851 307.957 506.937 310.75C464.187 328.64 417.677 333.46 371.937 337.8C320.377 342.69 268.767 347.42 216.937 348.57C191.677 349.13 166.367 348.84 141.147 347.19L140.837 347.17H140.837C119.851 345.786 97.9494 344.342 78.1469 336.59C70.5909 333.692 63.5121 329.678 57.1469 324.68C58.4032 327.664 59.8702 330.555 61.5369 333.33C73.3769 352.9 94.8869 358.77 115.887 363.77C156.937 373.54 199.447 374.01 241.447 373.31C283.887 372.59 326.437 371.71 368.777 368.48C390.617 366.82 412.467 364.65 434.137 361.42C453.067 358.6 472.457 355.03 489.067 344.98ZM531.327 270.99C525.359 286.827 504.951 294.003 489.947 299.279C489.262 299.52 488.588 299.757 487.927 299.99C450.637 313.03 411.117 317.24 372.007 321.05C367.495 321.489 362.979 321.932 358.461 322.374L358.448 322.376L358.435 322.377C279.309 330.128 199.215 337.974 119.827 330.53C99.8269 328.65 77.4869 324.94 62.2169 310.77C51.2931 300.828 46.0619 286.084 48.2769 271.48C49.0469 280.91 52.0269 290.03 58.7769 297.12C69.0069 307.86 84.3169 310.76 98.4169 312.38C140.567 317.22 183.417 317.3 225.737 316.44L234.007 316.24C238.335 316.672 242.699 316.585 247.007 315.98C322.517 314.51 398.877 312.7 472.747 296.25C490.537 292.25 509.477 287.79 518.327 270.14C524.267 258.28 524.787 244.03 518.437 232.62C518.455 232.592 518.479 232.568 518.507 232.55C518.789 232.93 519.104 233.285 519.447 233.61C529.657 243.24 536.647 256.88 531.327 270.99ZM70.0769 259.96C65.8969 258.23 61.6569 258.4 57.4769 259.31C59.4969 276.41 63.0069 291.58 82.1069 296.88C96.3336 300.86 112.003 301.113 127.046 301.357H127.049C130.414 301.411 133.748 301.465 137.027 301.56C156.667 302.14 176.377 302.33 196.117 302.25C191.84 299.587 187.68 296.738 183.52 293.889C176.776 289.271 170.033 284.653 162.797 280.83C147.307 272.67 134.327 271.99 117.797 276.34C105.127 279.72 94.8669 278.26 84.3569 270.34C82.9675 269.295 81.5967 268.129 80.2114 266.95L80.211 266.95C77.0398 264.253 73.7933 261.491 70.0769 259.96ZM277.001 298.537L277.005 298.533C283.599 291.878 289.739 285.681 300.557 283.69C313.188 281.378 325.258 284.48 337.365 287.592C338.974 288.005 340.585 288.419 342.197 288.82C355.317 292.08 368.197 292.96 381.047 288.22C386.515 286.203 391.702 283.511 396.876 280.825L396.877 280.825C403.863 277.199 410.827 273.585 418.427 271.66C429.01 268.979 440.085 270.097 451.104 271.209C467.697 272.884 484.162 274.546 498.627 263.2C502.213 260.298 505.199 256.725 507.417 252.68C506.897 258.232 504.644 263.48 500.977 267.68C492.471 277.458 475.932 280.232 462.267 282.523C459.385 283.007 456.631 283.469 454.107 283.97C419.227 290.9 383.807 294.55 348.337 296.77C324.004 298.304 299.56 299.56 275.007 300.54C275.679 299.871 276.342 299.202 277.001 298.537ZM535.587 209.62C541.827 209.03 548.287 208.36 550.437 201.36H550.457C552.327 195.24 548.717 191.18 544.457 187.46C543.315 186.485 542.182 185.566 541.075 184.669C539.458 183.358 537.9 182.094 536.457 180.77C528.517 193.68 515.437 202.3 501.727 208.6C483.509 216.844 464.533 223.297 445.067 227.87C408.907 236.56 371.607 239.82 334.517 240.82C296.937 241.84 258.967 241.6 221.437 239.53C201.557 238.432 181.924 235.328 162.293 232.224C142.424 229.083 122.557 225.942 102.437 224.88C100.724 224.792 98.9978 224.717 97.2645 224.642C82.5831 224.008 67.3861 223.352 55.4369 213.88C53.5935 212.425 51.8925 210.798 50.3569 209.02L45.3569 203.73C34.7469 209.25 25.5269 216.84 19.1669 227.18C15.7269 232.77 11.0469 241.86 14.5169 248.47C17.7769 254.72 26.3769 253.78 32.0069 252.47C36.1099 251.52 40.0758 250.053 44.0163 248.596C52.7626 245.362 61.3832 242.174 71.0969 244.78C77.3304 246.457 82.0272 250.261 86.7421 254.079C90.2642 256.932 93.7965 259.792 97.9869 261.78C105.117 265.167 113.227 262.974 121.313 260.787C126.62 259.352 131.916 257.92 136.917 258.07C148.127 258.4 158.897 262.17 168.827 267.17C176.272 270.919 183.333 275.81 190.42 280.719C203.275 289.623 216.216 298.586 231.687 300.9C245.727 302.99 256.077 298.3 265.357 288.08C272.327 280.41 279.497 274.08 289.407 270.6C300.107 266.83 311.767 266.66 322.897 268.14C328.171 268.837 333.372 270.165 338.572 271.492C345.383 273.229 352.193 274.967 359.167 275.29C371.93 275.882 383.239 270.284 394.639 264.641C404.819 259.601 415.072 254.526 426.497 253.79C432.467 253.407 439.397 254.216 446.575 255.053C464.859 257.187 484.752 259.508 494.497 242.79C496.066 240.095 497.385 237.287 498.701 234.485C501.463 228.608 504.209 222.764 509.207 218.07C516.281 211.427 525.212 210.592 534.395 209.732C534.792 209.695 535.189 209.658 535.587 209.62Z" fill="#231F20"/>
<path fill-rule="evenodd" clip-rule="evenodd" d="M113.669 158.487C112.61 157.581 111.618 156.732 110.736 156.08C110.203 155.686 109.656 155.293 109.104 154.897C106.452 152.992 103.688 151.006 101.726 148.39C98.8363 144.46 96.6263 135.99 102.386 133.46C102.805 133.295 103.281 133.372 103.626 133.66C104.591 133.334 105.613 133.215 106.626 133.31C107.949 133.341 109.128 134.154 109.626 135.38C116.966 138.41 124.336 142.27 128.026 149.68C130.276 154.22 131.656 165.59 123.196 164.42C120.105 163.993 116.624 161.015 113.669 158.487ZM105.036 140.39L104.176 141.29C104.094 141.509 103.976 141.712 103.826 141.89C105.445 144.314 107.476 146.436 109.826 148.16C112.086 149.743 114.368 151.3 116.647 152.856C118.17 153.896 119.692 154.935 121.206 155.98L123.676 157.69C123.47 156.59 123.21 155.5 122.896 154.42C121.976 151.931 120.462 149.703 118.486 147.93C115.036 144.68 110.376 142.73 106.036 140.93C105.68 140.796 105.344 140.615 105.036 140.39Z" fill="#231F20"/>
<path fill-rule="evenodd" clip-rule="evenodd" d="M216.847 88.1503C215.124 88.5846 213.364 87.59 212.847 85.8903C212.652 85.2127 212.511 84.5204 212.427 83.8203C209.197 78.1503 214.947 71.2203 219.197 67.2203C223.887 62.8303 233.667 55.1003 240.667 57.5903C249.367 60.6903 242.987 71.0803 239.207 75.4803C233.438 82.1561 225.539 86.6322 216.847 88.1503ZM232.257 65.1803C230.082 66.2065 227.992 67.4036 226.007 68.7603C223.527 70.4603 218.137 74.4003 216.137 78.4103C217.029 78.6474 217.725 79.3467 217.957 80.2403C218.015 80.4331 218.064 80.63 218.114 80.8258C218.141 80.9346 218.168 81.0431 218.197 81.1503C221.635 80.2257 224.905 78.7644 227.887 76.8203C231.217 74.5803 236.647 70.2903 237.887 66.2403C239.307 61.6072 235.622 63.4815 233.22 64.7032C232.864 64.8843 232.536 65.0511 232.257 65.1803Z" fill="#231F20"/>
<path fill-rule="evenodd" clip-rule="evenodd" d="M216.417 145.92C226.627 150.77 219.327 158.77 211.927 161.37C203.617 164.29 189.007 162.69 182.747 155.88C177.137 149.83 182.807 142.4 190.227 145.02C190.383 145.088 190.534 145.168 190.677 145.26C198.987 142.83 209.087 142.43 216.417 145.92ZM190.377 149.48C190.125 149.588 189.859 149.662 189.587 149.7C187.741 152.18 188.387 153.56 191.527 153.84L193.587 154.6C195.537 155.282 197.545 155.781 199.587 156.09C202.997 156.61 212.707 157.01 212.327 152.48C211.947 147.95 198.267 148.63 190.377 149.48Z" fill="#231F20"/>
<path fill-rule="evenodd" clip-rule="evenodd" d="M293.582 143.083C288.906 136.528 282.615 127.709 281.936 119.03L281.916 118.99C281.12 116.878 281.364 114.514 282.576 112.61C282.646 112.51 282.646 112.42 282.646 112.32C282.8 111.804 283.19 111.392 283.696 111.21C286.46 108.375 290.882 107.988 294.096 110.3C297.577 112.895 300.11 117.755 302.286 121.931C302.811 122.937 303.315 123.904 303.806 124.79C306.236 129.13 308.496 133.99 307.966 139.13C307.006 148.31 298.706 150.3 293.616 143.13L293.582 143.083ZM293.462 119.274C292.394 117.345 290.732 114.344 288.396 115.08C288.033 115.196 287.465 116.114 286.836 117.128C286.599 117.511 286.353 117.908 286.106 118.28C286.963 122.186 289.4 125.985 291.544 129.329C291.953 129.967 292.352 130.588 292.726 131.19C293.04 131.688 293.368 132.291 293.715 132.929C294.56 134.484 295.518 136.247 296.666 137.19C297.593 139.81 299.366 140.12 301.986 138.12C302.03 136.68 301.799 135.244 301.306 133.89C300.205 130 297.838 126.279 295.591 122.745C295.042 121.882 294.501 121.031 293.986 120.19C293.831 119.939 293.656 119.624 293.462 119.274Z" fill="#231F20"/>
<path fill-rule="evenodd" clip-rule="evenodd" d="M362.935 102.214C360.416 104.726 357.005 108.128 353.486 105.84C349.896 103.5 350.136 95.8503 350.706 92.3403C350.851 91.4429 351.048 90.5547 351.296 89.6803C352.996 81.4703 359.586 74.1403 366.586 69.7903C377.496 62.9803 377.686 79.4403 375.246 85.8503C372.916 91.9303 368.586 96.8503 363.916 101.25C363.607 101.544 363.28 101.87 362.935 102.214ZM360.876 80.8503C361.138 81.3971 361.138 82.0334 360.876 82.5803C360.814 82.6996 360.752 82.8198 360.689 82.9409C358.09 87.9332 354.738 94.3755 356.856 99.9503C360.266 98.0203 365.446 91.1103 366.856 89.1103C368.506 86.7603 373.906 77.2903 371.106 74.2903C369.426 72.4703 363.576 78.0303 360.876 80.8503Z" fill="#231F20"/>
<path fill-rule="evenodd" clip-rule="evenodd" d="M434.786 135.164C434.451 135.424 434.13 135.673 433.827 135.91C428.107 140.4 416.867 144.56 417.937 133.12C418.517 126.98 421.857 122.39 426.227 118.75C426.367 118.159 426.724 117.641 427.227 117.3C427.477 117.128 427.741 116.946 428.017 116.755C433.206 113.167 442.481 106.754 446.517 115.3C450.247 123.178 440.489 130.743 434.786 135.164ZM430.767 121.05C429.025 122.735 427.469 124.603 426.127 126.62C425.557 127.49 422.217 133.47 423.517 134.69C424.673 135.775 428.272 132.804 429.758 131.576C429.943 131.424 430.096 131.298 430.207 131.21C430.467 131.005 430.815 130.741 431.226 130.428C434.606 127.86 442.291 122.021 441.347 118.74C440.907 117.08 438.087 117.21 436.907 117.53C435.852 118.004 434.869 118.624 433.987 119.37C432.967 120.028 431.889 120.59 430.767 121.05Z" fill="#231F20"/>
<path fill-rule="evenodd" clip-rule="evenodd" d="M363.707 174.413C363.32 174.354 362.94 174.296 362.568 174.24C358.008 173.55 351.878 172.42 348.818 168.78C345.758 165.14 346.558 162.41 348.928 160.5C354.558 152.95 368.778 155.79 375.988 159.37C380.478 161.6 393.078 172.14 382.138 174.98C376.705 176.385 369.43 175.281 363.707 174.413ZM357.044 162.444C355.76 162.649 354.481 162.853 353.198 162.94V162.92C352.429 163.953 352.496 165.384 353.358 166.34C354.714 168.293 361.358 168.884 363.957 169.116C364.193 169.137 364.395 169.155 364.558 169.17C367.118 169.42 369.708 169.5 372.278 169.55H377.438C380.338 170.16 380.828 169.73 378.828 168.24C375.748 164.12 368.298 162.27 363.408 161.94C361.249 161.773 359.141 162.109 357.044 162.444Z" fill="#231F20"/>
<path fill-rule="evenodd" clip-rule="evenodd" d="M270.907 186.02C271.497 192.98 262.377 195.83 257.007 196.75C251.347 197.71 243.137 194.79 246.167 187.65C248.067 183.1 252.837 181.58 257.567 181.02C262.557 179.19 270.407 180.02 270.907 186.02ZM256.207 185.83C255.205 186.307 254.233 186.844 253.297 187.44H253.267C252.62 187.821 252.031 188.292 251.517 188.84L252.207 191.34C253.393 192.207 256.068 191.409 257.553 190.967C257.696 190.924 257.828 190.885 257.947 190.85C258.033 190.826 258.141 190.795 258.268 190.76C260.149 190.233 266.209 188.538 265.207 186.29C264.873 185.55 261.395 185.679 258.706 185.778C257.689 185.816 256.786 185.849 256.207 185.83Z" fill="#231F20"/>
</svg>
