<svg width="492" height="586" viewBox="0 0 492 586" fill="none" xmlns="http://www.w3.org/2000/svg">
<path d="M349.541 94.5204C348.021 93.0804 346.461 91.7404 344.871 90.4604C343.181 95.4604 340.351 100.3 338.001 104.85C334.667 111.344 331.051 117.677 327.151 123.85C323.271 130.04 319.151 136.13 314.781 141.96C313.151 144.12 311.481 146.67 309.561 148.96C313.491 150.36 317.461 151.68 321.481 152.82C325.121 153.82 330.061 155.82 333.871 154.82C339.871 153.1 342.941 145.07 345.361 139.92C349.304 131.491 352.587 122.768 355.181 113.83C356.401 109.64 357.981 105.3 355.651 101.22C354.241 98.7304 351.571 96.4504 349.541 94.5204Z" fill="#BE1E2D"/>
<path d="M269.58 201.82C271.97 202.9 273.13 201.91 273.27 199.41C273.37 197.75 272.81 196.05 271.08 195.58C269.35 195.11 267.85 196.43 266.16 196.69C266.177 198.929 267.52 200.944 269.58 201.82Z" fill="white"/>
<path d="M127.2 209.89C126.2 209.31 124.67 210.28 123.81 210.89C123.098 211.452 122.721 212.337 122.81 213.24C123.11 215.08 125.29 215.5 126.65 214.62C128.01 213.74 129 211 127.2 209.89Z" fill="white"/>
<path d="M176.001 99.8104C174.811 103.47 173.781 107.29 172.471 110.96L177.941 112.11L192.861 115.24C194.141 111.84 195.801 108.54 197.231 105.29C199.871 99.2904 202.441 93.2904 205.071 87.2904C210.511 74.8604 215.921 62.4204 221.191 49.9204C216.051 49.0504 210.901 48.2904 205.741 47.7204C202.401 47.3504 199.011 47.0504 195.621 46.8604C195.121 52.3104 191.561 57.9704 189.621 62.7904C187.187 68.697 184.854 74.6537 182.621 80.6604C180.274 87.007 178.067 93.3904 176.001 99.8104Z" fill="#8DC63F"/>
<path d="M163.48 109C164.69 109.27 165.91 109.52 167.12 109.78C168.12 105.17 169.63 100.61 170.97 96.1802C172.93 89.7269 175.01 83.3202 177.21 76.9602C179.543 70.2602 182.003 63.6135 184.59 57.0202C185.95 53.5602 187.08 49.7702 189.06 46.6302C185.812 46.6015 182.564 46.7383 179.33 47.0402C170.86 47.8602 166.06 51.1402 162.73 59.0402C156.87 72.9002 154.09 87.5102 153.08 102.39C153.485 102.741 153.807 103.179 154.02 103.67C155.74 107.55 159.72 108.19 163.48 109Z" fill="#BE1E2D"/>
<path d="M206.33 241.45C202.38 242.182 198.669 243.867 195.52 246.36C195.64 246.7 195.74 247.05 195.87 247.36C198.39 254.19 204.49 264.56 213.16 263.86C220.69 263.25 220.54 248.47 220.6 241.52C218.426 240.766 216.149 240.355 213.85 240.3C211.312 240.443 208.794 240.828 206.33 241.45Z" fill="#BE1E2D"/>
<path fill-rule="evenodd" clip-rule="evenodd" d="M248.976 552.363C249.617 546.776 250.245 541.297 248.739 535.58C248.141 533.632 246.356 532.292 244.319 532.26C214.703 530.776 185.014 531.834 155.579 535.42C154.006 535.637 152.64 536.613 151.925 538.03C151.21 539.448 151.238 541.127 151.999 542.52C151.726 546.791 152.011 551.124 152.295 555.463C152.69 561.476 153.085 567.497 151.999 573.37C151.469 576.37 149.929 578.9 146.999 576C145.236 574.074 143.819 571.858 142.809 569.45C140.997 565.623 139.512 561.603 138.037 557.608C137.551 556.29 137.065 554.975 136.569 553.67C128.879 533.28 122.089 512.54 116.089 491.6C110.082 470.607 104.892 449.443 100.519 428.11C98.2688 417.09 96.1688 406.04 94.3188 394.95C93.7132 391.313 93.2427 387.597 92.7702 383.864L92.7701 383.864C91.8227 376.38 90.8673 368.833 88.7988 361.74C88.5481 360.811 87.926 360.026 87.0788 359.57C86.5431 359.061 85.8149 358.806 85.0788 358.87C70.8888 360.01 54.7088 360.13 41.5188 354.01C27.8088 347.65 21.5088 333.87 15.7388 320.73C12.5855 313.815 10.2723 306.546 8.8488 299.08C8.78456 298.711 8.69623 298.262 8.59691 297.758C8.016 294.81 7.05926 289.955 8.3488 287.82C11.1419 283.197 16.3569 289.192 19.0219 292.255C19.372 292.658 19.678 293.01 19.9288 293.28C22.0879 295.609 24.1934 298.021 26.3042 300.439C33.7648 308.985 41.2912 317.607 51.4788 322.9C60.2888 327.47 75.8488 331.7 81.9788 320.76C84.5281 316.227 84.1345 310.561 83.7754 305.392L83.7754 305.392L83.7754 305.391L83.7754 305.391L83.7753 305.391C83.7091 304.437 83.644 303.5 83.5988 302.59C83.394 298.427 83.1664 294.268 82.9389 290.109L82.9388 290.107C82.6887 285.537 82.4387 280.966 82.2188 276.39C80.7188 244.68 80.6388 212.16 91.2188 181.81C96.7488 165.93 105.519 150.86 115.339 137.25C123.749 125.59 133.679 116.45 146.339 110.04C146.82 111.073 147.814 111.774 148.949 111.88C152.219 115.44 156.919 117.13 162.039 118.32C169.349 120.022 176.711 121.531 184.069 123.04L184.069 123.04L184.072 123.04C186.355 123.508 188.638 123.976 190.919 124.45C210.509 128.56 230.019 132.73 249.389 138.11C264.315 142.256 278.647 147.66 293.054 153.093C297.343 154.71 301.639 156.33 305.959 157.92C307.008 158.306 308.085 158.713 309.182 159.128C315.96 161.688 323.554 164.558 330.689 164.79C331.081 173.924 332.149 183.062 333.216 192.19L333.216 192.191L333.216 192.191L333.216 192.192L333.216 192.193L333.216 192.193L333.216 192.194L333.216 192.194C333.947 198.445 334.677 204.692 335.189 210.93C336.549 227.65 337.429 244.39 338.099 261.15C338.267 265.354 338.447 269.564 338.627 273.777L338.628 273.796C339.858 302.619 341.097 331.628 338.759 360.37C333.819 421.22 312.629 479.51 284.179 533.14C280.119 540.78 275.915 548.34 271.569 555.82C271.052 556.712 270.499 557.745 269.905 558.853C266.941 564.391 262.958 571.83 257.309 573.23C249.889 575.07 248.089 564.81 248.309 559.73C248.418 557.235 248.698 554.789 248.976 552.363ZM90.1764 286.836C90.5594 286.784 90.8508 286.466 90.8688 286.08C91.1643 281.583 90.6549 277.052 90.1442 272.51C89.86 269.982 89.5754 267.451 89.4288 264.92C89.2523 261.872 89.1389 258.819 89.0254 255.765L89.0253 255.764L89.0253 255.764L89.0253 255.764L89.0253 255.763L89.0253 255.763L89.0252 255.763L89.0252 255.762L89.0252 255.761L89.0251 255.761L89.0251 255.761L89.0251 255.76L89.0251 255.76C88.875 251.721 88.7248 247.681 88.4288 243.65C88.3788 243 87.3088 242.74 87.1988 243.49C86.2194 250.589 85.9381 257.766 86.3588 264.92C86.3825 265.442 86.4054 265.967 86.4284 266.495C86.7153 273.085 87.022 280.133 89.3088 286.29C89.4282 286.658 89.7933 286.887 90.1764 286.836ZM130.869 222.22C124.509 225.71 116.059 222.16 114.779 214.84C114.187 211.547 115.418 208.19 117.999 206.06V206C120.639 199.76 129.539 199.1 133.999 204C136.368 206.699 137.39 210.324 136.779 213.863C136.167 217.402 133.987 220.474 130.849 222.22H130.869ZM325.652 278.779C326.087 278.836 326.5 278.57 326.629 278.15H326.609C328.377 272.02 327.974 265.467 325.469 259.6C325.129 258.86 323.999 259.25 323.999 260C323.999 261.67 324.179 263.316 324.359 264.964L324.359 264.965C324.502 266.277 324.646 267.591 324.699 268.92C324.748 270.158 324.742 271.395 324.735 272.633C324.726 274.395 324.716 276.158 324.869 277.92C324.885 278.359 325.216 278.722 325.652 278.779ZM317.149 178.68C320.12 188.884 321.281 199.817 322.41 210.446C322.543 211.692 322.674 212.934 322.809 214.17C323.076 216.654 323.384 219.184 323.696 221.742L323.696 221.744L323.696 221.746C324.911 231.72 326.178 242.118 325.279 251.85C325.159 253.14 323.139 253.63 322.859 252.18C321.414 244.686 321.034 236.846 320.657 229.059C320.449 224.771 320.242 220.5 319.859 216.31C319.44 211.929 318.888 207.533 318.335 203.131L318.335 203.13L318.335 203.129L318.335 203.128C317.319 195.032 316.3 186.914 316.099 178.83C316.152 178.607 316.336 178.439 316.563 178.405C316.79 178.372 317.014 178.481 317.129 178.68H317.149ZM269.289 185.68C266.826 185.963 264.514 187.013 262.679 188.68L262.659 188.71C257.919 192 256.319 199.08 259.629 204.6C264.929 213.51 278.479 214.82 282.289 204.01C285.439 195.12 279.219 184.83 269.289 185.68ZM190.819 257.4C185.888 248.528 184.16 238.215 182.488 228.237L182.487 228.234C182.234 226.72 181.981 225.213 181.719 223.72C181.59 223.013 181.638 222.284 181.859 221.6C181.57 220.676 181.934 219.673 182.749 219.15C193.341 212.303 207.86 210.289 220.428 208.546L220.432 208.546C221.39 208.413 222.336 208.282 223.269 208.15C226.189 207.73 228.709 209.27 228.869 212.41C229.579 225.75 230.209 239.15 228.569 252.41C227.469 261.41 225.159 271.76 214.369 272.79C204.119 273.75 195.469 265.77 190.819 257.4ZM225.159 289.33C211.809 300.05 216.799 325.41 221.889 339C228.429 356.45 241.159 371.41 258.569 378.58C268.118 382.564 278.491 384.173 288.799 383.27C298.579 382.33 310.419 379.46 317.199 371.85C319.419 369.36 317.309 364.08 313.569 365.61C311.515 366.457 309.525 367.362 307.553 368.259C301.865 370.847 296.326 373.366 289.829 374.22C281.106 375.337 272.242 374.363 263.969 371.38C246.709 365.17 234.199 349.9 228.829 332.67C226.239 324.37 224.839 315.14 225.979 306.46C226.429 303 227.429 298.58 230.249 296.22C235.199 292.07 241.089 297.22 244.349 301C245.602 302.465 246.818 303.929 248.025 305.382C252.587 310.874 257.01 316.199 262.759 320.73C269.357 326.019 276.761 330.216 284.689 333.16C292.809 336.15 302.379 338.12 311.019 336.71C317.799 335.6 326.629 331.26 325.629 323.18C325.319 320.77 322.179 319.4 320.749 321.85C315.619 330.71 304.579 329.77 295.849 327.85C286.066 325.595 276.91 321.185 269.049 314.94C265.116 311.86 261.48 308.418 258.189 304.66C256.753 303.033 255.438 301.292 254.123 299.551C252.204 297.011 250.285 294.469 247.989 292.28C241.849 286.43 232.339 283.55 225.159 289.33Z" fill="#88E0FF"/>
<path d="M273.619 135.74C277.099 127.9 291.049 104.14 292.909 100.82C296.629 94.1535 300.296 87.4868 303.909 80.8201C305.299 78.2701 306.549 75.4701 307.979 72.8201C299.769 70.3701 291.489 67.8201 283.169 65.3701C278.809 76.3701 273.309 86.9901 268.489 97.6901C265.649 104.02 262.699 110.3 259.729 116.58C257.729 120.81 255.899 125.39 253.439 129.47C255.606 130.083 257.769 130.707 259.929 131.34C264.559 132.67 269.099 134.17 273.619 135.74Z" fill="#BE1E2D"/>
<path d="M251.931 56.5802C244.371 54.6602 236.791 52.9002 229.181 51.4102C223.727 64.0435 218.134 76.6102 212.401 89.1102C209.521 95.3502 206.481 101.52 203.461 107.69C202.051 110.56 200.711 113.69 199.141 116.56L204.751 117.75C210.931 119.083 217.107 120.443 223.281 121.83C226.931 109.96 232.711 98.6402 237.861 87.3802C240.627 81.3002 243.404 75.2202 246.191 69.1402C248.051 65.0002 249.691 60.5802 251.931 56.5802Z" fill="#BE1E2D"/>
<path d="M253.491 113.9C255.981 107.9 258.491 101.83 261.081 95.8304C265.771 85.0004 270.001 73.6804 275.171 63.0004C270.071 61.5004 265.001 60.0004 259.811 58.6504C258.231 63.6504 255.281 68.4904 253.081 73.1604C250.414 78.8737 247.727 84.5804 245.021 90.2804C239.841 101.28 235.021 112.74 228.561 123.06C235.061 124.594 241.531 126.22 247.971 127.94C249.321 123.12 251.611 118.46 253.491 113.9Z" fill="#8DC63F"/>
<path d="M311.72 133.3C315.26 128.08 318.62 122.747 321.8 117.3C324.97 111.85 327.99 106.3 330.8 100.66C333.25 95.7604 335.16 90.3204 338.04 85.6604C331.15 81.4173 323.791 77.9877 316.11 75.4404C315.26 77.0204 314.33 78.5804 313.46 80.1604C311.04 84.6204 308.6 89.0671 306.14 93.5004C301.22 102.38 296.23 111.21 291.05 119.94C288.47 124.3 285.91 128.69 283.24 133C282.39 134.38 281.41 136.34 280.24 138.15C287.77 140.89 295.24 143.76 302.79 146.55C306.12 142.43 308.89 137.48 311.72 133.3Z" fill="#8DC63F"/>
<path d="M272.58 52.3C286.55 56 301 59.39 314.92 64C316.329 63.3249 318.02 63.8974 318.73 65.29C322.156 66.49 325.536 67.7866 328.87 69.18C337.134 72.6553 344.851 77.3104 351.78 83C354.05 84.85 356.54 86.92 358.84 89.2C361.84 85.37 366.61 82.42 370.53 80.28C374.94 77.86 379.87 75.55 384.89 75.51C384.89 64.24 390.66 53.85 396.14 44.36C397.321 42.4785 399.783 41.8762 401.7 43C402.413 40.4113 403.455 37.9244 404.8 35.6C398.58 31.1 393.02 26.22 385.94 22.84C377.944 19.2075 369.515 16.6163 360.86 15.13C342.56 11.63 323 9.43998 304.36 9.85998C285.72 10.28 267.41 15.17 249.91 21.67C236.21 26.77 223.26 33.67 209.85 39.37C210.98 39.49 212.11 39.61 213.23 39.75C233.31 42.26 253.06 47.09 272.58 52.3Z" fill="#BE1E2D"/>
<path fill-rule="evenodd" clip-rule="evenodd" d="M404.5 57.1304C404.86 55.8504 405.18 54.5604 405.5 53.2704C405.963 51.8435 405.414 50.2837 404.16 49.4604C409.63 37.9904 418.18 28.1504 430.06 24.1504C427.62 27.6504 425.17 31.1471 422.71 34.6404C420.9 37.2104 423.88 40.2604 426.55 39.6404C443.94 35.5504 463.59 35.0004 477.2 47.4304C474.262 48.7183 471.129 49.5026 467.93 49.7504C464.13 50.0704 463.07 54.4304 466.07 56.6404C475.64 63.6904 481.41 76.1804 482.07 87.8504C482.244 90.5433 482.147 93.2469 481.78 95.9204C481.615 97.2737 481.341 98.6113 480.96 99.9204C480.892 100.529 480.709 101.12 480.42 101.66C479.42 98.5404 476.3 95.9704 473.15 96.1204C471.147 96.1646 469.4 97.4923 468.82 99.4104C466.463 107.027 463.003 114.257 458.55 120.87C458.21 117.93 454.15 115.79 451.61 118.37C441.72 128.39 427.94 128.18 415.33 124.62L415.42 124.584C415.863 124.405 416.323 124.219 416.8 124.05C418.669 123.473 419.846 121.629 419.584 119.691C419.321 117.753 417.695 116.289 415.74 116.23C409.762 115.695 403.967 113.891 398.74 110.94C396.258 109.558 393.914 107.94 391.74 106.11C390.116 104.889 388.583 103.552 387.15 102.11C387.961 101.96 388.841 101.853 389.586 101.762H389.586C390.129 101.697 390.6 101.639 390.92 101.58C393.86 101.02 396.78 100.61 399.78 100.27C403.47 99.8804 405.45 95.0304 401.78 92.8804C388.83 85.3104 392.37 70.5004 397.83 58.5004C399.72 60.6304 403.69 60.4104 404.5 57.1304ZM444.79 114.032C445.733 114.581 446.924 114.446 447.72 113.7C458.53 105.1 453.47 86.7604 446.31 77.8104C444.88 76.0104 442 78.3304 443.16 80.2404C446.032 85.0668 447.423 90.6304 447.16 96.2404C447.026 99.5362 446.117 102.49 445.2 105.467C444.612 107.377 444.021 109.296 443.63 111.32C443.375 112.381 443.847 113.484 444.79 114.032ZM436.66 52.7004C451.29 52.9304 474.4 58.5204 471.13 78.0804C470.76 80.2904 467.91 80.0804 466.86 78.6404C465.365 76.6662 464.395 74.5396 463.445 72.4562C461.853 68.9674 460.317 65.5995 456.46 63.2704C450.3 59.5504 443.06 57.4704 436.23 55.8804C435.479 55.6384 435.009 54.8927 435.115 54.1105C435.221 53.3282 435.872 52.7342 436.66 52.7004ZM406.66 97.0504C411.3 107.58 426.5 105.64 434.19 100.58C437 98.7304 434.49 94.3004 431.53 96.0204C425.003 99.8592 418.84 97.3635 412.709 94.8809L412.708 94.8807C411.589 94.4273 410.47 93.9743 409.35 93.5604C407.18 92.7604 405.93 95.3704 406.66 97.0504ZM413 56.2604C413.291 55.4765 414.039 54.9564 414.875 54.9564C415.712 54.9564 416.459 55.4765 416.75 56.2604C417.34 57.8304 417.95 59.3704 418.57 60.9304C419.169 62.4377 420.021 63.8313 421.09 65.0504C422.91 67.0504 420.46 70.8404 418 69.0504C413.94 66.1004 411 61.2904 413 56.2604ZM410.431 81.8271C409.275 81.6543 408.128 81.4828 407 81.3504C406.397 81.3583 405.843 81.6854 405.545 82.2099C405.246 82.7345 405.249 83.3778 405.55 83.9004C411.74 93.0704 424.84 88.2604 431.04 81.9004C432.91 79.9704 430.05 77.1504 428.11 78.9704C423.048 83.7128 416.609 82.7504 410.431 81.8271Z" fill="#8DC63F"/>
<path fill-rule="evenodd" clip-rule="evenodd" d="M244.51 577.39C253.87 588.86 267.3 580.79 274.02 571.14C282.298 559.244 289.084 545.881 295.682 532.889L295.683 532.888C296.434 531.41 297.182 529.936 297.93 528.47C305.39 513.844 312.226 498.917 318.44 483.69C331.03 452.74 340.55 420.4 345.49 387.32C350.65 352.784 349.231 318.169 347.806 283.415L347.79 283.01C346.94 262.24 346.02 241.47 344.51 220.74C344.313 218.028 344.13 215.293 343.945 212.543L343.944 212.535L343.944 212.527L343.943 212.52C342.853 196.262 341.726 179.472 337.64 163.8C342.81 161.93 346.8 157.64 349.75 152.88C354.45 145.33 357.82 136.65 360.91 128.34C361.275 127.357 361.666 126.34 362.069 125.294L362.076 125.274L362.077 125.271C364.98 117.727 368.437 108.746 366.48 101.05C365.769 98.4668 364.571 96.0432 362.95 93.9102C364.438 92.9798 365.877 91.9151 367.317 90.8495L367.318 90.8493C369.282 89.3954 371.249 87.9397 373.35 86.8202C375.603 85.6268 377.994 84.7623 380.379 83.9001C382.111 83.274 383.84 82.649 385.51 81.9002C386.304 86.0016 388.013 89.871 390.51 93.2202C386.77 93.7102 383.09 94.5202 380.57 96.2802C375.64 99.7102 379.44 104.92 382.36 108.15C388.229 114.543 395.7 119.252 404 121.79L403.61 122.07C400.61 124.31 401.22 128.07 404.61 129.52C417.24 134.84 431.95 137.42 444.46 132.69C443.398 135.63 442.533 138.636 441.87 141.69C441.2 144.8 444.8 148.69 447.87 146.32C460 137.21 468.69 124.19 474.42 110.19C474.566 110.363 474.723 110.527 474.89 110.68C477.403 112.885 481.07 113.166 483.89 111.37C490.3 107.48 491.09 97.6602 491.12 90.9602C491.18 77.1502 485.53 64.9602 476.12 55.6302C479.349 54.7154 482.44 53.3699 485.31 51.6302C486.29 51.032 486.946 50.0214 487.094 48.8824C487.242 47.7433 486.865 46.5988 486.07 45.7702C472.73 30.3702 452.25 28.4202 433.28 31.4402C435.786 27.8869 438.31 24.3435 440.85 20.8102C442.35 18.7302 440.36 15.3802 437.85 15.5802C427.518 16.4686 417.826 20.9521 410.46 28.2502C400.58 15.6202 381.27 9.38022 366.46 6.25022C347.062 2.17473 327.28 0.219912 307.46 0.420216C288.26 0.700216 269.26 5.18022 251.4 12.1202C233.34 19.1202 214.75 27.5802 198.75 38.5902C192.529 38.3081 186.295 38.4819 180.1 39.1102C172.26 39.9402 164.49 41.9902 159.65 48.7002C154.04 56.4802 151.36 67.4802 149.25 76.7002C147.381 84.7106 146.279 92.8808 145.96 101.1C118.96 109.51 100.96 139.5 89.2997 163.4C74.1697 194.4 71.7997 229.34 72.8597 263.34C73.1397 272.44 73.6497 281.54 74.1597 290.63C74.3997 295.004 74.6364 299.37 74.8697 303.73C74.911 304.53 75.0117 305.465 75.1198 306.468C75.4833 309.841 75.931 313.996 74.4897 316.47C70.4897 323.34 57.1697 316.77 52.4897 313.96C45.4297 309.69 39.6397 303.82 34.0497 297.81C33.3033 297.007 32.4041 295.965 31.3828 294.781L31.3826 294.781C24.3035 286.575 11.3577 271.57 2.74973 282.24C-1.03027 286.93 -0.0602661 293.81 0.749734 299.31C2.07984 307.312 4.40452 315.115 7.66973 322.54C13.9497 337.45 21.3797 353.15 36.6097 360.6C50.5497 367.42 66.4697 368.08 81.6097 365.79C81.7256 372.546 82.9145 379.464 84.0718 386.196C84.4133 388.183 84.7521 390.154 85.0597 392.1C86.6464 402.167 88.4197 412.207 90.3797 422.22C94.3797 442.57 99.2597 462.75 104.84 482.71C110.333 502.35 116.54 521.77 123.46 540.97C126.88 550.45 130.37 559.97 134.19 569.25C136.76 575.54 140.94 584.68 148.69 585.62C155.97 586.5 159.3 579.13 159.92 573.02C160.83 564.09 161.01 553.1 158.78 543.91C186.013 541.73 213.276 540.88 240.57 541.36C241.207 545.651 240.768 550.048 240.33 554.423C239.532 562.405 238.741 570.317 244.51 577.39ZM355.18 113.8C352.587 122.738 349.303 131.461 345.36 139.89C345.102 140.439 344.837 141.02 344.563 141.623C342.26 146.679 339.266 153.253 333.87 154.79C330.69 155.683 326.723 154.431 323.381 153.376L323.381 153.376C322.719 153.167 322.081 152.965 321.48 152.79C317.48 151.65 313.48 150.33 309.56 148.93C310.862 147.397 312.049 145.731 313.187 144.134L313.188 144.133C313.727 143.376 314.255 142.635 314.78 141.93C319.19 136.1 323.27 130.01 327.15 123.82C331.03 117.63 334.64 111.28 338 104.82C338.496 103.859 339.014 102.885 339.538 101.899C341.495 98.221 343.537 94.3816 344.87 90.4302C346.46 91.7102 348.02 93.0502 349.54 94.4902C349.901 94.8387 350.285 95.1985 350.68 95.5688L350.68 95.569C352.473 97.2495 354.494 99.1444 355.65 101.16C357.813 104.943 356.629 108.921 355.476 112.798C355.376 113.133 355.277 113.467 355.18 113.8ZM253.06 73.1602C250.353 78.8602 247.666 84.5669 245 90.2802C243.949 92.517 242.911 94.7745 241.87 97.0385L241.87 97.0389L241.87 97.0392L241.869 97.0395L241.869 97.0398L241.869 97.0401L241.869 97.0405L241.868 97.0418L241.867 97.0442C237.8 105.892 233.687 114.838 228.56 123.03C235.06 124.557 241.53 126.184 247.97 127.91C248.955 124.42 250.442 120.994 251.905 117.624L251.905 117.623C252.445 116.378 252.982 115.141 253.49 113.91C255.98 107.84 258.48 101.84 261.08 95.8402C262.739 92.0049 264.342 88.1107 265.95 84.206C268.885 77.0746 271.835 69.908 275.17 63.0002L274.495 62.8017L274.494 62.8013C269.621 61.3679 264.769 59.9405 259.79 58.6502C258.705 62.0905 256.974 65.4459 255.283 68.7229L255.283 68.7237L255.282 68.7247L255.281 68.727L255.28 68.7298C254.51 70.2227 253.748 71.6993 253.06 73.1602ZM223.26 121.83C217.093 120.417 210.916 119.057 204.73 117.75L199.12 116.56C200.131 114.68 201.046 112.733 201.947 110.819L201.947 110.819C202.445 109.761 202.938 108.712 203.44 107.69C204.094 106.345 204.751 105 205.408 103.654L205.415 103.639L205.416 103.638C207.771 98.8157 210.13 93.9843 212.38 89.1102C218.14 76.6236 223.733 64.0569 229.16 51.4102C236.77 52.9002 244.35 54.6602 251.91 56.5802C250.385 59.3035 249.138 62.2399 247.91 65.1309C247.335 66.4862 246.763 67.8316 246.17 69.1402C243.39 75.2202 240.613 81.3002 237.84 87.3802C236.792 89.6805 235.717 91.985 234.638 94.2968L234.637 94.2985L234.637 94.2988C230.436 103.303 226.184 112.418 223.28 121.83H223.26ZM268.5 97.6602C265.66 103.99 262.74 110.27 259.74 116.55H259.76C259.21 117.713 258.673 118.903 258.132 120.101L258.13 120.104L258.129 120.107L258.128 120.11L258.126 120.113L258.125 120.116L258.124 120.118C256.701 123.27 255.253 126.479 253.48 129.41C255.646 129.99 257.81 130.614 259.97 131.28C264.57 132.64 269.11 134.14 273.63 135.71C276.457 129.34 286.196 112.461 290.747 104.574L290.747 104.574L290.753 104.563C291.8 102.749 292.572 101.411 292.92 100.79C296.613 94.1236 300.28 87.4569 303.92 80.7902C304.68 79.4175 305.398 77.958 306.127 76.4772L306.127 76.4767C306.731 75.2501 307.342 74.0089 307.99 72.7902C304.012 71.6031 300.017 70.3996 296.01 69.1921L296.009 69.1919L296.009 69.1918L296.008 69.1916L296.007 69.1914L295.99 69.1861C291.733 67.9035 287.462 66.6166 283.18 65.3402C280.359 72.4249 277.061 79.3924 273.778 86.3267L273.778 86.327L273.778 86.3275L273.777 86.329C271.987 90.1114 270.201 93.8839 268.5 97.6602ZM283.25 133C285.403 129.524 287.486 125.995 289.564 122.472C290.063 121.628 290.561 120.783 291.06 119.94C296.24 111.21 301.23 102.38 306.15 93.5002C308.61 89.0669 311.05 84.6202 313.47 80.1602C313.851 79.4674 314.244 78.7785 314.637 78.09L314.637 78.0893L314.638 78.0885C315.141 77.2073 315.643 76.3269 316.12 75.4402C323.8 77.9875 331.159 81.4171 338.05 85.6602C336.265 88.5722 334.853 91.7682 333.455 94.9344L333.454 94.9348C332.596 96.8788 331.742 98.8115 330.81 100.66C327.99 106.3 324.97 111.85 321.81 117.3C318.65 122.75 315.27 128.09 311.73 133.3C310.779 134.705 309.835 136.196 308.875 137.712L308.874 137.715L308.872 137.717L308.87 137.72L308.869 137.722L308.867 137.725L308.867 137.726C306.973 140.717 305.021 143.802 302.84 146.5C299.906 145.413 296.981 144.314 294.057 143.215L294.053 143.213L294.049 143.212L294.045 143.211L294.041 143.209L294.037 143.208C289.463 141.489 284.891 139.77 280.29 138.1C280.87 137.171 281.41 136.203 281.914 135.3L281.914 135.3C282.392 134.444 282.836 133.647 283.25 133ZM422.71 34.6502C425.17 31.1569 427.62 27.6602 430.06 24.1602C418.18 28.1302 409.63 38.0002 404.23 49.4102C405.479 50.2323 406.027 51.7864 405.57 53.2102C405.323 54.1195 405.091 55.0288 404.86 55.9346L404.86 55.9366C404.802 56.1628 404.745 56.3888 404.687 56.6145C404.648 56.7665 404.609 56.9184 404.57 57.0702C403.76 60.3502 399.79 60.5702 397.9 58.4402C392.44 70.4802 388.94 85.2502 401.85 92.8202C405.53 94.9702 403.55 99.8002 399.85 100.21C396.88 100.52 393.93 100.96 390.99 101.52C390.668 101.579 390.201 101.636 389.664 101.701C388.917 101.792 388.034 101.899 387.22 102.05C388.652 103.492 390.186 104.829 391.81 106.05C393.983 107.88 396.327 109.497 398.81 110.88C404.036 113.831 409.832 115.634 415.81 116.17C417.765 116.229 419.39 117.693 419.653 119.631C419.916 121.569 418.738 123.413 416.87 123.99C416.4 124.17 415.88 124.37 415.4 124.56C428.01 128.12 441.79 128.31 451.68 118.31C454.22 115.73 458.28 117.87 458.62 120.81C463.073 114.197 466.533 106.967 468.89 99.3502C469.469 97.4322 471.217 96.1044 473.22 96.0602C476.37 95.9102 479.49 98.4802 480.49 101.6C480.778 101.06 480.961 100.469 481.03 99.8602C481.41 98.5512 481.685 97.2135 481.85 95.8602C482.216 93.1867 482.313 90.4831 482.14 87.7902C481.43 76.1202 475.66 63.5802 466.14 56.5802C463.17 54.3702 464.2 50.0102 468 49.6902C471.197 49.4456 474.331 48.6647 477.27 47.3802C463.55 35.0502 443.94 35.5602 426.55 39.6502C423.88 40.2602 420.9 37.2102 422.71 34.6502ZM249.91 21.6902C267.41 15.1902 285.6 10.2902 304.36 9.88022C323.12 9.47022 342.56 11.6502 360.86 15.1502C369.515 16.6366 377.944 19.2277 385.94 22.8602C391.255 25.3978 395.714 28.781 400.238 32.214L400.24 32.2148C401.741 33.3542 403.25 34.499 404.8 35.6202C403.455 37.9447 402.413 40.4315 401.7 43.0202C399.789 41.8927 397.327 42.4859 396.14 44.3602C390.66 53.8502 384.9 64.2402 384.89 75.5102C379.89 75.5102 374.94 77.8602 370.53 80.2802C366.61 82.4202 361.82 85.3702 358.84 89.2002C356.54 86.9202 354.05 84.8502 351.78 83.0002C344.852 77.3036 337.135 72.6417 328.87 69.1602C325.536 67.7602 322.156 66.4635 318.73 65.2702C318.013 63.8852 316.324 63.3222 314.92 64.0002C304.371 60.5068 293.519 57.714 282.801 54.956L282.801 54.9558C279.375 54.0743 275.963 53.1964 272.58 52.3002C253.06 47.0902 233.31 42.3002 213.23 39.7702C212.11 39.6302 210.98 39.5102 209.85 39.3902C215.078 37.1563 220.236 34.749 225.396 32.341C233.471 28.5724 241.551 24.8019 249.91 21.6902ZM205.71 47.7402C202.37 47.3702 198.98 47.0702 195.59 46.8802C195.237 50.7279 193.359 54.6852 191.602 58.3863C190.87 59.9275 190.16 61.4243 189.59 62.8502C187.136 68.7635 184.803 74.7202 182.59 80.7202C180.256 87.0536 178.05 93.4302 175.97 99.8502C175.505 101.279 175.065 102.733 174.623 104.192L174.623 104.192L174.623 104.193C173.933 106.471 173.238 108.763 172.44 111L177.91 112.13L192.83 115.26C193.691 112.972 194.725 110.729 195.745 108.516L195.745 108.515L195.745 108.514C196.24 107.44 196.732 106.372 197.2 105.31C198.621 102.08 200.022 98.8489 201.424 95.6182C202.625 92.8489 203.826 90.0796 205.04 87.3102C210.48 74.8802 215.89 62.4402 221.16 49.9402C216.02 49.0702 210.87 48.3102 205.71 47.7402ZM162.73 59.0602C166.06 51.1802 170.86 47.9002 179.33 47.0602C182.564 46.7583 185.812 46.6215 189.06 46.6502C187.555 49.0133 186.554 51.7444 185.571 54.4261C185.247 55.3078 184.926 56.1841 184.59 57.0402C182.003 63.6335 179.543 70.2802 177.21 76.9802C175.01 83.3402 172.93 89.7469 170.97 96.2002C170.685 97.1424 170.391 98.091 170.095 99.0448L170.094 99.0464C169 102.577 167.883 106.179 167.12 109.8C166.691 109.708 166.262 109.617 165.832 109.526L165.83 109.526C165.046 109.36 164.261 109.195 163.48 109.02C163.235 108.965 162.99 108.911 162.744 108.856C159.212 108.073 155.628 107.279 154.02 103.67C153.806 103.179 153.485 102.741 153.08 102.39C154.09 87.5302 156.87 72.9202 162.73 59.0602ZM151.936 537.99C152.651 536.573 154.017 535.597 155.59 535.38C185.015 531.795 214.694 530.738 244.3 532.22C246.344 532.262 248.127 533.62 248.71 535.58C250.216 541.263 249.587 546.757 248.947 552.356C248.669 554.786 248.389 557.236 248.28 559.73C248.09 564.81 249.89 575.07 257.28 573.23C262.929 571.83 266.912 564.391 269.876 558.854C270.47 557.745 271.023 556.713 271.54 555.82C275.9 548.34 280.103 540.78 284.15 533.14C312.6 479.51 333.79 421.22 338.73 360.37C341.066 331.641 339.83 302.668 338.6 273.843C338.419 269.609 338.239 265.377 338.07 261.15C337.4 244.39 336.52 227.65 335.16 210.93C334.648 204.691 333.917 198.443 333.187 192.191C332.12 183.062 331.051 173.924 330.66 164.79C323.525 164.558 315.931 161.689 309.153 159.128C308.056 158.713 306.979 158.306 305.93 157.92C301.534 156.305 297.161 154.657 292.794 153.011C278.453 147.607 264.177 142.227 249.39 138.11C230.1 132.74 210.51 128.56 190.92 124.45C188.157 123.871 185.392 123.303 182.626 122.735C175.75 121.323 168.872 119.911 162.04 118.32C156.95 117.13 152.22 115.44 148.95 111.88C147.815 111.774 146.821 111.073 146.34 110.04C133.68 116.45 123.75 125.59 115.34 137.25C105.52 150.86 96.7497 165.93 91.2197 181.81C80.6397 212.16 80.7197 244.68 82.2197 276.39C82.4383 281.418 82.7198 286.439 83.0013 291.461C83.2092 295.169 83.4171 298.878 83.5997 302.59C83.6443 303.488 83.7078 304.412 83.7724 305.353C84.1282 310.532 84.5186 316.216 81.9797 320.76C75.8497 331.7 60.2897 327.47 51.4797 322.9C41.2922 317.608 33.7657 308.986 26.3052 300.439C24.1944 298.021 22.0888 295.609 19.9297 293.28C19.6789 293.01 19.3729 292.658 19.0228 292.255C16.3579 289.192 11.1428 283.197 8.34973 287.82C7.06659 289.959 8.02262 294.827 8.6013 297.773C8.6991 298.271 8.78612 298.714 8.84973 299.08C10.2733 306.546 12.5864 313.815 15.7397 320.73C21.5197 333.87 27.8097 347.65 41.5197 354.01C54.7097 360.13 70.8897 360.03 85.0797 358.87C85.8159 358.806 86.5441 359.061 87.0797 359.57C87.927 360.026 88.5491 360.811 88.7997 361.74C90.8682 368.833 91.8236 376.38 92.7711 383.864C93.2436 387.596 93.7141 391.313 94.3197 394.95C96.1697 406.04 98.2697 417.11 100.52 428.11C104.89 449.47 110.08 470.66 116.09 491.6C122.1 512.54 128.88 533.28 136.57 553.67C137.004 554.824 137.432 555.987 137.862 557.152C139.388 561.297 140.928 565.477 142.81 569.45C143.827 571.845 145.247 574.047 147.01 575.96C149.92 578.86 151.46 576.33 152.01 573.33C153.129 567.403 152.727 561.325 152.325 555.257C152.041 550.974 151.757 546.697 152.01 542.48C151.249 541.087 151.221 539.408 151.936 537.99Z" fill="#231F20"/>
<path fill-rule="evenodd" clip-rule="evenodd" d="M117.94 206.05L118 206C120.68 199.77 129.58 199.11 134 204.05C136.344 206.752 137.345 210.366 136.726 213.889C136.108 217.412 133.934 220.469 130.81 222.21C124.45 225.7 116 222.15 114.72 214.83C114.129 211.537 115.36 208.18 117.94 206.05ZM122.74 213.19C123.04 215.03 125.22 215.45 126.58 214.57L126.62 214.58C128 213.72 129 211 127.13 209.84C126.17 209.3 124.6 210.27 123.74 210.84C123.028 211.402 122.651 212.288 122.74 213.19Z" fill="#231F20"/>
<path fill-rule="evenodd" clip-rule="evenodd" d="M228.871 212.4C229.571 225.71 230.211 239.11 228.571 252.4C227.471 261.39 225.161 271.75 214.371 272.77C204.121 273.74 195.471 265.76 190.821 257.39C185.907 248.549 184.181 238.278 182.51 228.333C182.25 226.782 181.991 225.239 181.721 223.71C181.592 223.003 181.64 222.275 181.861 221.59C181.572 220.666 181.936 219.663 182.751 219.14C193.265 212.38 207.65 210.349 220.154 208.583C221.207 208.435 222.247 208.288 223.271 208.14C226.191 207.72 228.711 209.26 228.871 212.4ZM195.871 247.39C198.391 254.22 204.491 264.59 213.161 263.89C220.44 263.301 220.542 249.468 220.595 242.296C220.597 242.05 220.599 241.811 220.601 241.58C218.428 240.826 216.15 240.415 213.851 240.36C211.314 240.493 208.796 240.868 206.331 241.48C202.381 242.212 198.67 243.897 195.521 246.39C195.581 246.545 195.636 246.71 195.692 246.879C195.748 247.048 195.806 247.22 195.871 247.39Z" fill="#231F20"/>
<path fill-rule="evenodd" clip-rule="evenodd" d="M269.291 185.72C279.201 184.87 285.421 195.16 282.291 204.05C278.481 214.86 264.931 213.55 259.681 204.65C256.341 199.09 257.941 191.98 262.681 188.72C264.516 187.053 266.828 186.004 269.291 185.72ZM273.271 199.41C273.371 197.75 272.811 196.05 271.081 195.58C269.982 195.287 268.997 195.691 268.001 196.099C267.4 196.345 266.796 196.593 266.161 196.69C266.177 198.929 267.521 200.944 269.581 201.82C271.971 202.9 273.131 201.91 273.271 199.41Z" fill="#231F20"/>
<path d="M288.8 383.31C298.58 382.37 310.42 379.5 317.2 371.89C319.42 369.4 317.31 364.12 313.57 365.65C305.57 368.94 298.57 373.11 289.83 374.26C281.116 375.372 272.264 374.399 264 371.42C246.74 365.21 234.23 349.94 228.86 332.71C226.27 324.41 224.86 315.18 226.01 306.5C226.46 303.04 227.46 298.62 230.28 296.26C235.23 292.11 241.12 297.26 244.38 301.04C250.38 307.99 255.52 315.04 262.79 320.78C269.388 326.07 276.792 330.266 284.72 333.21C292.84 336.21 302.41 338.21 311.05 336.76C317.83 335.65 326.68 331.31 325.66 323.23C325.35 320.82 322.21 319.45 320.78 321.9C315.65 330.71 304.61 329.77 295.88 327.9C286.097 325.646 276.941 321.235 269.08 314.99C265.147 311.91 261.511 308.469 258.22 304.71C254.69 300.71 251.89 296.02 248.02 292.33C241.88 286.48 232.37 283.6 225.19 289.38C211.84 300.1 216.83 325.46 221.92 339.05C228.46 356.5 241.19 371.46 258.6 378.67C268.144 382.633 278.506 384.225 288.8 383.31Z" fill="#231F20"/>
<path d="M436.23 55.8802C443.06 57.4702 450.43 59.6302 456.46 63.2702C462.49 66.9102 462.89 73.3602 466.86 78.6402C467.86 80.0402 470.76 80.2902 471.13 78.0802C474.4 58.5202 451.29 52.9302 436.66 52.7002C435.871 52.734 435.22 53.328 435.114 54.1103C435.009 54.8925 435.479 55.6382 436.23 55.8802Z" fill="#231F20"/>
<path d="M443.189 80.1905C446.061 85.0169 447.452 90.5805 447.189 96.1905C446.969 101.6 444.629 106.09 443.659 111.27C443.404 112.331 443.876 113.434 444.819 113.982C445.762 114.531 446.953 114.396 447.749 113.65C458.559 105.05 453.499 86.7105 446.369 77.7105C444.909 76.0005 441.999 78.2805 443.189 80.1905Z" fill="#231F20"/>
<path d="M405.57 83.8802C411.76 93.0702 424.86 88.2602 431.06 81.8802C432.93 79.9702 430.06 77.1302 428.13 78.9502C422.13 84.5802 414.13 82.1702 407.02 81.3302C406.416 81.338 405.862 81.6652 405.564 82.1897C405.266 82.7143 405.268 83.3576 405.57 83.8802Z" fill="#231F20"/>
<path d="M417.999 69.0501C420.459 70.8401 422.909 67.0501 421.089 65.0501C420.019 63.831 419.167 62.4374 418.569 60.9301C417.949 59.3701 417.339 57.8301 416.749 56.2601C416.458 55.4762 415.71 54.9561 414.874 54.9561C414.038 54.9561 413.29 55.4762 412.999 56.2601C410.999 61.2901 413.939 66.1001 417.999 69.0501Z" fill="#231F20"/>
<path d="M409.35 93.5603C407.18 92.7603 405.93 95.3703 406.66 97.0503C411.3 107.63 426.5 105.64 434.19 100.58C437.01 98.7303 434.49 94.3003 431.53 96.0203C423.81 100.51 416.6 96.2403 409.35 93.5603Z" fill="#231F20"/>
<path d="M322.839 252.18C323.119 253.63 325.139 253.18 325.259 251.85C326.389 239.62 324.099 226.34 322.789 214.17C321.509 202.39 320.449 190.08 317.129 178.68C317.055 178.41 316.792 178.236 316.514 178.274C316.236 178.312 316.028 178.55 316.029 178.83C316.339 191.32 318.599 203.83 319.789 216.31C320.919 228.11 320.599 240.56 322.839 252.18Z" fill="#231F20"/>
<path d="M324 260C324 263 324.6 265.94 324.72 268.93C324.84 271.92 324.63 274.93 324.89 277.93C324.906 278.369 325.237 278.732 325.673 278.789C326.108 278.846 326.521 278.58 326.65 278.16C328.413 272.016 327.996 265.452 325.47 259.58C325.09 258.83 324 259.22 324 260Z" fill="#231F20"/>
<path d="M88.4291 243.65C88.3791 243 87.3091 242.74 87.1991 243.49C86.2197 250.589 85.9384 257.767 86.3591 264.92C86.6791 271.92 86.8391 279.64 89.3091 286.29C89.4285 286.658 89.7937 286.888 90.1767 286.836C90.5598 286.784 90.8512 286.466 90.8691 286.08C91.3291 279.08 89.8691 271.92 89.4591 264.92C89.0491 257.92 88.9991 250.73 88.4291 243.65Z" fill="#231F20"/>
</svg>
