<svg width="315" height="565" viewBox="0 0 315 565" fill="none" xmlns="http://www.w3.org/2000/svg">
<path d="M216.291 446.271C220.667 461.954 225.912 477.381 232.001 492.481C237.621 506.481 244.911 519.621 250.741 533.481C253.061 538.991 255.041 546.221 253.891 552.411C260.831 550.511 267.611 548.111 271.001 541.941C277.181 530.681 270.001 517.551 263.711 508.181C257.711 499.341 251.811 490.921 247.621 481.041C243.191 470.581 240.251 459.621 237.621 448.601C232.011 425.001 226.551 401.291 222.701 377.331C218.961 354.091 216.821 330.541 218.221 307.001C219.401 287.061 222.461 265.841 230.771 247.401L215.881 239.591C195.321 306.681 197.531 378.921 216.291 446.271Z" fill="#8DC63F"/>
<path d="M287.172 52.1817C283.312 101.335 279.382 150.478 275.382 199.612C274.382 211.562 273.662 223.552 272.502 235.482C272.278 238.09 271.894 240.681 271.352 243.242C277.072 240.242 282.802 237.242 288.262 233.792C293.262 230.612 298.262 227.252 300.952 221.722C303.302 216.872 303.822 211.352 304.122 206.052C305.572 180.972 305.992 155.712 306.122 130.602C306.369 105.102 305.234 79.6082 302.722 54.2317C301.552 43.1417 302.032 27.6417 293.902 19.0217C291.057 16.1416 287.626 13.9077 283.842 12.4717C289.892 23.8217 288.122 39.9817 287.172 52.1817Z" fill="#8DC63F"/>
<path d="M24.2707 484.032C32.2107 496.752 44.5107 505.102 57.3907 512.242C111.477 542.005 172.394 557.137 234.121 556.142C237.891 556.072 242.631 556.512 244.901 552.882C246.281 550.672 245.831 547.172 245.421 544.822C244.361 538.602 241.131 533.122 238.361 527.552C231.981 514.752 226.221 501.668 221.081 488.302C210.47 460.836 202.706 432.353 197.911 403.302C188.611 346.302 191.501 287.532 209.331 232.452C209.697 231.208 210.611 230.2 211.811 229.711C213.012 229.223 214.37 229.307 215.501 229.942C225.561 235.202 235.611 240.492 245.681 245.732C250.631 248.312 257.251 252.732 261.191 246.452C263.621 242.562 263.791 237.272 264.191 232.862C266.101 209.862 267.871 186.862 269.711 163.792C272.951 123.132 276.581 82.4817 279.501 41.7917C280.191 32.0717 280.831 20.6617 273.601 13.0217C265.741 4.71171 256.251 9.87171 247.761 14.0217C230.645 22.3625 213.093 29.7766 195.181 36.2317C160.031 49.1417 124.011 59.5717 89.0407 72.9917C79.8507 76.5117 70.4707 79.9917 61.6407 84.4017C52.8107 88.8117 48.4207 95.4817 50.6407 105.482C52.6407 114.552 58.1607 122.862 63.1907 130.482C68.6639 138.783 74.79 146.634 81.5107 153.962C82.723 155.209 82.8419 157.156 81.7907 158.542C81.8138 159.912 81.1777 161.21 80.0807 162.032C54.7107 181.532 41.1307 211.762 31.6007 241.462C20.3543 276.603 13.1183 312.904 10.0307 349.672C7.40067 381.002 6.89067 413.482 11.3907 444.672C13.3807 458.402 16.8807 472.222 24.2707 484.032Z" fill="#009344"/>
<path fill-rule="evenodd" clip-rule="evenodd" d="M66.7806 526.622C53.3706 519.971 39.5906 512.792 28.5906 502.422C7.15063 482.152 2.95063 451.531 1.07063 423.531C-1.171 389.233 0.122478 354.795 4.93063 320.762C9.58063 287.642 17.2206 254.422 29.1106 223.112C38.7806 197.642 52.3106 173.552 73.9106 156.552C66.3893 148.534 59.6364 139.83 53.7406 130.552C48.2106 121.752 42.5806 112.062 41.9106 101.452C40.6522 81.707 62.0434 74.1423 78.5888 68.2913C81.1074 67.4006 83.5136 66.5497 85.7106 65.7015C105.071 58.2035 124.759 51.6364 144.444 45.0702L144.444 45.0701C167.606 37.3444 190.763 29.6198 213.381 20.3815C224.381 15.9115 235.091 10.9915 245.681 5.75151C253.871 1.65151 262.581 -2.26849 271.681 1.56151L272.551 1.96151C289.441 3.65151 304.291 12.3115 307.831 30.2415C312.181 52.2615 313.361 75.2815 314.181 97.6515C315.061 120.982 314.811 144.332 314.181 167.652C313.851 179.441 313.491 191.232 313.021 203.012C312.671 211.212 312.021 219.742 308.021 227.082C303.625 235.078 295.343 239.966 287.692 244.481C287.249 244.742 286.809 245.002 286.371 245.262C277.681 250.372 268.621 255.682 258.971 258.732C257.926 259.104 256.766 258.935 255.871 258.281C251.341 258.042 246.731 255.792 242.541 253.592L237.541 250.962C234.161 262.251 230.861 273.452 229.001 285.161C226.904 298.85 226.037 312.699 226.411 326.542C226.961 352.432 231.121 378.112 236.411 403.432C237.262 407.496 238.089 411.601 238.92 415.727L238.92 415.728L238.92 415.729C243.023 436.089 247.23 456.968 254.921 476.042C257.777 483.108 262.263 489.742 266.765 496.399C274.475 507.802 282.23 519.271 281.921 533.091C281.721 541.501 278.251 549.451 271.251 554.352C265.463 558.401 258.4 560.131 251.475 561.827C248.959 562.443 246.462 563.055 244.051 563.771C243.742 563.864 243.423 563.914 243.101 563.922C239.529 564.826 235.593 564.765 231.934 564.708L231.922 564.708C231.056 564.695 230.206 564.682 229.381 564.682C221.381 564.682 213.401 564.418 205.441 563.891C157.212 560.755 110.083 548.087 66.7806 526.622ZM222.711 377.312C218.971 354.072 216.831 330.522 218.231 306.982C219.381 287.042 222.471 265.822 230.791 247.362L215.901 239.552C195.301 306.702 197.541 378.902 216.301 446.252C220.677 461.934 225.922 477.361 232.011 492.462C235.029 499.981 238.53 507.259 242.027 514.529L242.028 514.531C245.041 520.796 248.052 527.056 250.751 533.462C253.071 538.971 255.051 546.202 253.901 552.391C260.841 550.492 267.621 548.091 271.011 541.922C277.191 530.661 270.041 517.531 263.721 508.161C263.462 507.778 263.204 507.396 262.946 507.014C262.68 506.621 262.414 506.228 262.148 505.835C256.728 497.828 251.452 490.032 247.631 481.022C243.191 470.582 240.251 459.582 237.631 448.582C232.021 424.982 226.561 401.312 222.711 377.312ZM293.851 18.9815C300.533 26.0665 301.399 37.7994 302.145 47.9113L302.145 47.9146C302.306 50.1041 302.462 52.2177 302.671 54.1915C305.183 79.568 306.318 105.062 306.071 130.562C305.981 155.672 305.561 180.932 304.071 206.012C303.771 211.312 303.251 216.832 300.901 221.682C298.221 227.212 293.251 230.572 288.211 233.752C282.884 237.127 277.3 240.055 271.719 242.982L271.718 242.982L271.301 243.202C271.843 240.641 272.228 238.049 272.451 235.441C273.223 227.498 273.818 219.528 274.413 211.56V211.56L274.413 211.557C274.712 207.56 275.01 203.563 275.331 199.572C279.271 150.432 283.204 101.288 287.131 52.1415C287.19 51.3805 287.252 50.6041 287.316 49.8144L287.317 49.7985C288.272 37.9309 289.468 23.0688 283.751 12.4315C287.553 13.8742 290.999 16.1222 293.851 19.0215V18.9815ZM31.5606 241.522C20.3142 276.663 13.0783 312.964 9.99063 349.732C7.38063 381.062 6.85063 413.542 11.3806 444.732C13.3806 458.402 16.8806 472.221 24.2606 484.031C32.2006 496.751 44.5006 505.102 57.3806 512.242C111.452 542.021 172.359 557.174 234.081 556.202C234.503 556.194 234.937 556.192 235.379 556.191C238.887 556.179 242.844 556.166 244.861 552.942C246.241 550.732 245.791 547.232 245.381 544.882C244.501 539.676 242.125 535.049 239.758 530.441C239.274 529.499 238.791 528.557 238.321 527.612C231.941 514.778 226.181 501.695 221.041 488.361C210.43 460.895 202.666 432.413 197.871 403.361C188.571 346.371 191.461 287.591 209.291 232.512C209.657 231.268 210.57 230.259 211.771 229.771C212.972 229.282 214.33 229.367 215.461 230.002C219.165 231.938 222.867 233.879 226.57 235.82C232.924 239.15 239.278 242.481 245.641 245.792C246.097 246.029 246.568 246.283 247.049 246.542C251.789 249.096 257.574 252.212 261.151 246.512C263.382 242.997 263.736 238.339 264.05 234.22C264.083 233.781 264.116 233.347 264.151 232.922C265.408 217.773 266.604 202.611 267.799 187.46C268.421 179.587 269.041 171.716 269.671 163.852C270.82 149.425 272.018 135.001 273.217 120.578C275.397 94.3391 277.576 68.1015 279.461 41.8515C280.151 32.0815 280.791 20.7215 273.561 13.0815C265.991 5.00997 256.865 9.54152 248.603 13.6439C248.308 13.7905 248.014 13.9366 247.721 14.0815C230.605 22.4223 213.053 29.8364 195.141 36.2915C179.177 42.1564 163.035 47.5095 146.891 52.8636C127.498 59.2951 108.1 65.7281 89.0006 73.0515C88.3367 73.3058 87.6723 73.5599 87.0076 73.814C78.4716 77.0779 69.8855 80.3608 61.6006 84.4615C52.6706 88.8815 48.3806 95.5415 50.6006 105.542C52.5631 114.329 57.8906 122.487 62.7951 129.997C62.9139 130.179 63.0324 130.36 63.1506 130.542C68.6239 138.842 74.7499 146.694 81.4706 154.022C82.6829 155.269 82.8019 157.215 81.7506 158.602C81.7738 159.972 81.1377 161.27 80.0406 162.092C54.6706 181.592 41.0906 211.822 31.5606 241.522Z" fill="#231F20"/>
</svg>
