<svg width="531" height="569" viewBox="0 0 531 569" fill="none" xmlns="http://www.w3.org/2000/svg">
<path d="M217.595 437.43H215.485C193.115 437.08 176.485 429.86 166.015 415.96C151.825 397.09 152.675 370.72 154.825 355.2C143.825 365.31 123.945 379.95 101.335 379.95C87.7651 379.95 75.1451 374.63 63.8451 364.13C51.5751 352.73 45.1351 339.26 44.7051 324.13C44.0651 301.54 56.8651 280.85 65.2251 269.85C62.6477 270.127 60.0574 270.268 57.4651 270.27C41.3151 270.27 13.5751 264.27 9.31515 224.27C7.69515 209.09 10.7151 197.12 18.3151 188.71C28.3451 177.49 44.3451 175.14 55.9451 175.14C58.6551 175.14 61.1651 175.26 63.3551 175.44C60.5119 170.584 58.2816 165.395 56.7151 159.99C53.1351 147.43 52.2651 128.59 68.4251 110.21C78.9651 98.2101 90.7451 92.1501 103.425 92.1501C111.313 92.2643 119.028 94.4694 125.785 98.5401C126.543 86.7176 129.313 75.111 133.975 64.2201C142.555 44.6301 161.705 20.5401 204.285 16.9801C209.635 16.5301 214.775 16.3001 219.545 16.3001C243.875 16.3001 260.645 22.1001 269.395 33.5301C272.655 37.7955 274.744 42.8387 275.455 48.1601C281.236 41.8053 287.469 35.8766 294.105 30.4201C315.345 13.0701 337.405 3.8501 358.065 3.8501C372.915 3.8501 387.265 8.4701 400.725 17.5801C428.725 36.5801 445.245 57.2201 449.855 79.0701C451.196 85.1881 451.45 91.4942 450.605 97.7001C457.905 93.9101 469.195 89.3301 481.035 89.3301C494.825 89.3301 513.165 95.7501 522.245 126.33C528.635 147.86 527.745 166.18 519.595 180.78C513.904 190.764 505.208 198.697 494.745 203.45C503.745 212.45 522.995 234.75 524.875 263.07C526.165 282.66 518.875 301.29 503.215 318.43C482.295 341.32 460.115 352.92 437.285 352.92C426.799 352.924 416.465 350.406 407.155 345.58C407.453 350.751 407.05 355.938 405.955 361C403.285 373.23 395.115 390.45 371.275 403C364.144 406.872 356.17 408.932 348.055 409C323.155 409 303.395 389.3 293.715 377.38C292.365 387.66 288.255 403.25 276.125 416.08C262.755 430.23 243.065 437.4 217.605 437.4L217.595 437.43Z" fill="#88E0FF"/>
<path fill-rule="evenodd" clip-rule="evenodd" d="M320.884 8.79C333.404 3 345.904 0.06 358.044 0.06L358.074 0C373.704 0 388.774 4.84 402.874 14.39C418.554 24.99 430.874 36.36 439.554 48.17C446.734 57.94 451.464 68.06 453.614 78.26C454.538 82.5847 454.984 86.9979 454.944 91.42C462.204 88.3 471.434 85.48 481.044 85.48C490.465 85.3057 499.654 88.4053 507.044 94.25C515.464 100.95 521.814 111.37 525.934 125.25C532.594 147.8 531.594 167.12 522.934 182.66C517.752 191.784 510.176 199.318 501.024 204.45C511.154 215.48 526.944 236.63 528.684 262.78C530.034 283.45 522.434 303.03 506.034 320.97C494.394 333.7 482.154 343.17 469.634 349.11C459.55 354.026 448.493 356.623 437.274 356.71C428.262 356.705 419.338 354.939 411.004 351.51C410.852 354.964 410.41 358.4 409.684 361.78C406.844 374.8 398.194 393.11 373.044 406.38C365.365 410.544 356.779 412.752 348.044 412.81C325.624 412.81 307.264 397.95 296.044 385.86C293.704 395.91 288.854 408.18 278.904 418.7C264.784 433.65 244.154 441.22 217.604 441.22H215.424C191.804 440.85 174.154 433.12 162.954 418.22C150.644 401.88 149.034 380.35 150.084 364.22C138.094 373.66 120.724 383.77 101.334 383.77C86.764 383.77 73.244 378.1 61.244 366.93C48.184 354.85 41.344 340.43 40.874 324.21C40.344 304.51 49.444 286.26 57.524 274.08H57.454C44.994 274.08 34.374 270.97 25.894 264.82C14.304 256.44 7.49397 242.93 5.49397 224.68C3.76397 208.38 7.10397 195.42 15.424 186.16C24.154 176.46 38.164 171.32 55.944 171.32H56.874C55.3189 168.001 54.0315 164.564 53.024 161.04C49.184 147.56 48.234 127.36 65.544 107.68C76.834 94.84 89.584 88.32 103.444 88.32C110.033 88.3736 116.535 89.8221 122.524 92.57C123.724 82.2709 126.419 72.2017 130.524 62.68C139.514 42.16 159.564 16.88 204.014 13.16C209.474 12.71 214.714 12.47 219.594 12.47C245.174 12.47 262.974 18.77 272.484 31.2C274.623 34.0075 276.31 37.1318 277.484 40.46C281.982 35.8767 286.722 31.5371 291.684 27.46C300.593 20.0327 310.404 13.7598 320.884 8.79ZM398.574 20.79C384.724 11.41 371.064 7.72 358.064 7.72H358.044C316.904 7.72 282.944 44.9 273.744 55.97C273.449 56.3374 272.947 56.4658 272.511 56.2852C272.076 56.1046 271.812 55.6584 271.864 55.19C272.624 45.36 269.684 20.13 219.554 20.13C214.974 20.13 210.004 20.34 204.614 20.79C133.734 26.72 129.564 90.76 129.444 103.55C129.438 103.95 129.21 104.313 128.853 104.492C128.495 104.671 128.067 104.636 127.744 104.4C124.104 101.71 115.004 95.98 103.434 95.98C93.844 95.98 82.564 99.91 71.284 112.73C46.464 140.96 63.994 170.23 69.674 178.23C69.9211 178.573 69.9404 179.031 69.7231 179.394C69.5057 179.757 69.0934 179.956 68.674 179.9C64.459 179.28 60.2043 178.969 55.944 178.97C37.344 178.97 9.00397 185.17 13.114 223.8C16.934 259.73 40.554 266.36 57.454 266.36C62.2219 266.349 66.9764 265.853 71.644 264.88C72.0854 264.806 72.5265 265.014 72.7496 265.402C72.9727 265.79 72.9305 266.276 72.644 266.62C62.964 277.93 27.244 324.87 66.414 361.26C78.034 372.05 89.974 376.05 101.294 376.05C127.604 376.05 150.544 354.47 158.224 346.37C158.547 346.014 159.068 345.921 159.495 346.141C159.922 346.361 160.147 346.841 160.044 347.31C156.504 364.6 146.764 432.47 215.504 433.53H217.564C283.754 433.53 289.984 383.53 290.444 369.88C290.455 369.421 290.759 369.022 291.199 368.89C291.638 368.758 292.112 368.923 292.374 369.3C298.744 378.2 320.284 405.12 348.014 405.12C355.506 405.065 362.867 403.158 369.444 399.57C406.274 380.17 404.244 349.62 402.714 340.57C402.644 340.153 402.826 339.734 403.178 339.501C403.531 339.267 403.987 339.263 404.344 339.49C414.177 345.744 425.59 349.064 437.244 349.06C454.434 349.06 476.554 341.81 500.354 315.81C548.994 262.53 498.204 211.7 488.994 203.26C488.714 203.011 488.587 202.633 488.659 202.265C488.731 201.898 488.991 201.596 489.344 201.47C497.894 198.47 534.654 181.79 518.534 127.47C510.594 100.73 495.404 93.19 480.994 93.19C466.584 93.19 452.754 100.64 447.144 104.07C446.767 104.304 446.285 104.279 445.934 104.007C445.584 103.734 445.44 103.273 445.574 102.85C448.574 92.79 453.644 58.08 398.574 20.79Z" fill="#231F20"/>
<path d="M44.8957 564.44C42.558 564.429 40.2306 564.13 37.9658 563.55C31.1659 561.85 26.6059 558.24 24.4259 552.83C21.426 545.28 24.0359 535.94 26.7659 529.46C26.4659 529.46 26.1559 529.46 25.8359 529.46C19.776 529.46 11.3661 526.83 5.69615 514.28C2.59618 507.43 3.99616 502.21 5.69615 499.03C9.6961 491.67 19.146 487.71 25.9359 485.74C22.9184 482.321 21.02 478.06 20.496 473.53C19.776 465.93 23.4059 458.27 31.3459 450.85C37.4758 445.06 44.1157 442.12 51.0656 442.12C61.5155 442.12 69.9954 448.8 74.6854 453.52C78.2153 447.67 85.4553 439.32 98.0051 439.32C102.755 439.412 107.437 440.47 111.765 442.43C120.975 446.43 126.525 451.95 128.255 458.91C129.216 463.177 128.868 467.635 127.255 471.7C128.105 471.63 129.005 471.6 129.925 471.6C137.035 471.6 142.925 473.75 146.805 477.81C151.015 482.17 153.005 488.56 152.715 496.81C152.195 512.14 144.715 519.63 138.455 523.21C134.835 525.246 130.873 526.602 126.765 527.21C128.376 530.72 128.872 534.64 128.185 538.44C126.745 545.91 120.595 552.24 109.905 557.26C105.457 559.466 100.579 560.667 95.6151 560.78C83.1053 560.78 75.6754 552.11 71.7054 545.1C67.3955 553.28 59.0056 564.44 44.8957 564.44Z" fill="#88E0FF"/>
<path fill-rule="evenodd" clip-rule="evenodd" d="M74.7455 446.87C80.9055 439.43 88.9455 435.49 98.0155 435.49L97.9155 435.51C103.189 435.603 108.388 436.77 113.195 438.94C123.555 443.41 129.875 449.82 131.875 458C132.667 461.229 132.77 464.589 132.175 467.86C139.305 468.31 145.245 470.82 149.455 475.17C154.455 480.3 156.775 487.63 156.455 496.95C155.875 514.04 147.335 522.47 140.275 526.53C137.57 528.074 134.676 529.261 131.665 530.06C132.371 533.046 132.436 536.147 131.855 539.16C130.175 547.9 123.305 555.16 111.445 560.72C106.49 563.172 101.054 564.501 95.5255 564.61C86.2455 564.61 78.0855 560.35 71.8055 552.26C64.7455 562.71 55.4355 568.26 44.8755 568.26C42.2243 568.252 39.5843 567.916 37.0155 567.26C26.9755 564.75 22.6855 558.81 20.8555 554.26C18.0555 547.33 19.2555 539.41 21.3655 532.88C15.3855 531.72 7.54547 527.75 2.18547 515.88C-1.56453 507.6 0.205474 501.16 2.34547 497.22C5.99547 490.53 13.3455 486.33 19.8855 483.84C18.1344 480.813 17.047 477.449 16.6955 473.97C15.8555 465.07 19.8855 456.39 28.6955 448.07C35.5655 441.58 43.0455 438.29 51.0455 438.29C60.6055 438.29 68.6055 443.14 74.0455 447.75C74.1157 447.661 74.186 447.572 74.2566 447.482C74.4169 447.278 74.5788 447.071 74.7455 446.87ZM110.227 445.9C106.378 444.137 102.209 443.184 97.9764 443.1L98.0164 443.15C84.6663 443.15 78.2462 454.53 76.2462 458.78C76.1108 459.112 75.8081 459.346 75.4528 459.393C75.0975 459.441 74.744 459.295 74.5262 459.01C71.5261 455.43 62.496 445.95 51.0759 445.95C45.7759 445.95 39.9858 448 33.9857 453.63C16.2256 470.41 27.4157 482.61 32.1557 486.55C32.4856 486.788 32.6382 487.203 32.5416 487.598C32.445 487.993 32.1184 488.291 31.7157 488.35C24.3056 489.93 1.72541 496.21 9.21549 512.78C13.9555 523.25 20.6456 525.71 25.8757 525.71C27.7317 525.698 29.5754 525.408 31.3457 524.85C31.7239 524.733 32.1352 524.851 32.3948 525.149C32.6545 525.448 32.7136 525.872 32.5457 526.23C28.6457 533.6 19.3456 554.9 38.9158 559.81C40.8767 560.312 42.8918 560.57 44.9159 560.58C60.286 560.58 68.1061 544.52 70.6561 537.99C70.7806 537.563 71.1717 537.27 71.6161 537.27C72.0606 537.27 72.4517 537.563 72.5761 537.99C74.8762 543.78 81.6662 556.85 95.5764 556.85C99.9791 556.776 104.31 555.724 108.256 553.77C135.997 540.77 120.147 523.77 120.147 523.77H121.147C126.087 523.77 148.007 522.31 148.887 496.62C149.467 478.8 138.457 475.38 129.887 475.38C127.459 475.394 125.038 475.638 122.657 476.11C122.252 476.221 121.82 476.068 121.577 475.726C121.333 475.384 121.329 474.926 121.567 474.58C124.807 469.18 130.827 454.78 110.227 445.9Z" fill="#231F20"/>
</svg>
