<svg width="560" height="250" viewBox="0 0 560 250" fill="none" xmlns="http://www.w3.org/2000/svg">
<path d="M326.506 115.284C331.756 130.784 341.736 166.564 356.796 146.794C362.876 138.794 365.236 127.324 365.796 117.474C365.882 113.797 365.678 110.119 365.186 106.474C352.399 109.841 339.506 112.777 326.506 115.284Z" fill="white"/>
<path d="M478.756 111.054C480.089 106.938 480.847 102.657 481.006 98.3338C481.626 87.4438 478.796 78.0938 474.616 68.4238C461.336 74.1938 447.876 79.5738 434.336 84.5438C442.896 97.1938 448.766 111.594 465.216 117.444C472.786 120.124 475.896 118.804 478.756 111.054Z" fill="white"/>
<path d="M69.1445 156.534C91.7945 155.484 105.845 129.224 112.995 110.084C100.881 106.664 88.9479 102.664 77.1945 98.084C75.4945 110.804 47.4245 157.544 69.1445 156.534Z" fill="white"/>
<path d="M188.886 123.684C189.026 153.244 170.366 243.174 214.456 229.754C256.576 216.934 251.146 161.044 255.826 124.304C233.526 125.687 211.156 125.48 188.886 123.684Z" fill="white"/>
<path fill-rule="evenodd" clip-rule="evenodd" d="M477.675 138.234C493.015 135.894 497.495 119.364 499.325 106.054C501.385 90.934 499.275 74.204 491.685 60.714C505.365 54.284 518.775 47.424 531.685 39.964C533.453 43.0788 534.936 46.6126 536.438 50.1934L536.439 50.1939C539.408 57.2696 542.454 64.5292 547.925 69.104C550.665 71.394 556.035 71.854 557.785 67.834C562.975 55.944 556.375 43.484 549.935 33.214C542.72 21.7688 533.715 13.3741 524.095 4.40551L524.094 4.40458L524.094 4.40431C523.048 3.4292 521.994 2.4473 520.935 1.45396C516.545 -2.66604 508.675 2.73396 512.285 8.13396C515.615 13.134 518.835 18.314 521.985 23.544C516.083 26.2668 510.2 29.0053 504.325 31.7404L504.324 31.7405C470.56 47.4574 437.041 63.0602 401.505 74.934C360.185 88.734 317.395 98.884 273.985 103.074C230.41 107.362 186.451 105.636 143.345 97.944C122.922 94.3194 102.831 89.0216 83.2754 82.104C68.0254 76.664 51.0754 70.414 38.5654 59.454L38.5875 59.4292C47.3456 49.6414 59.3243 36.2542 58.0554 24.674C57.5954 20.524 54.0554 16.674 49.4854 18.154C42.5259 20.3495 39.2096 25.2899 35.4735 30.8555C34.8022 31.8556 34.1174 32.8758 33.3954 33.904C27.7054 42.034 21.7454 49.964 15.7654 57.904C15.411 58.3722 14.763 59.1461 13.9251 60.147L13.925 60.1471C8.2125 66.9701 -6.33041 84.3402 3.10537 87.314C12.1054 90.134 22.3854 78.854 29.4154 70.314C38.4154 80.864 50.8854 87.214 64.2654 92.944C64.6682 93.1131 65.071 93.2774 65.4698 93.4401C66.0612 93.6814 66.644 93.9191 67.2054 94.164C55.3654 102.634 48.0054 125.464 45.6254 138.464C42.8654 153.534 43.7854 168.804 61.2654 172.464C93.8754 179.254 121.385 142.464 129.475 114.384L129.675 114.434C145.318 118.111 161.171 120.826 177.145 122.564C172.473 132.876 170.732 145.342 169.171 156.525C168.972 157.955 168.775 159.363 168.575 160.744C166.381 175.243 166.2 189.975 168.035 204.524C171.395 229.664 182.395 253.174 211.635 249.524C235.975 246.474 253.705 226.524 262.245 204.764C267.575 191.194 269.705 176.764 271.415 162.344C271.627 160.567 271.847 158.775 272.07 156.972L272.07 156.967L272.071 156.965L272.071 156.964C273.448 145.788 274.88 134.164 274.415 122.904C286.735 121.714 299.005 120.054 311.215 118.044C310.595 142.614 330.675 182.404 358.415 169.194C372.135 162.664 379.265 146.434 382.265 132.344C384.135 123.614 385.895 111.434 383.515 101.454C389.905 99.574 396.275 97.634 402.605 95.574C407.515 93.974 412.425 92.304 417.345 90.574C424.185 115.844 452.915 142.054 477.675 138.234ZM69.1454 156.534C53.7499 157.243 63.3699 133.971 70.8652 115.839C73.9443 108.39 76.6649 101.809 77.1454 98.114C88.8854 102.654 100.819 106.654 112.945 110.114C105.845 129.224 91.7954 155.484 69.1454 156.534ZM187.352 147.518C184.057 185.242 179.234 240.474 214.455 229.754C248.8 219.301 251.53 180.218 253.904 146.221L253.904 146.221L253.904 146.22C254.442 138.524 254.961 131.088 255.825 124.304C233.526 125.687 211.156 125.48 188.885 123.684C188.914 129.63 188.181 138.017 187.352 147.515L187.352 147.518L187.352 147.518ZM365.765 117.474C365.235 127.324 362.875 138.804 356.765 146.794C342.913 164.979 333.392 136.172 327.837 119.365C327.353 117.901 326.899 116.527 326.475 115.284C339.455 112.791 352.339 109.861 365.125 106.494C365.627 110.131 365.841 113.803 365.765 117.474ZM439.094 91.9833C445.57 102.44 451.955 112.748 465.245 117.474V117.444C472.785 120.124 475.895 118.804 478.755 111.054C480.096 106.949 480.864 102.679 481.035 98.364C481.645 87.454 478.825 78.124 474.645 68.454C461.365 74.224 447.905 79.574 434.365 84.574C436.009 87.0035 437.554 89.4977 439.094 91.9833Z" fill="#231F20"/>
</svg>
