<svg width="569" height="433" viewBox="0 0 569 433" fill="none" xmlns="http://www.w3.org/2000/svg">
<path d="M412.912 349.448C411.262 352.008 410.492 357.238 413.672 359.088C416.622 360.798 420.552 357.978 421.312 355.088C422.072 352.198 420.522 348.538 418.652 345.878C416.406 346.424 414.395 347.675 412.912 349.448Z" fill="#009444"/>
<path d="M307.052 323.808C302.381 324.029 298.334 327.114 296.881 331.558C296.713 332.935 296.689 334.326 296.811 335.708C297.357 339.129 298.987 342.284 301.462 344.708C306.922 349.778 315.003 347.828 319.163 342.078C325.123 333.868 316.373 323.148 307.052 323.808Z" fill="#009444"/>
<path d="M230.371 216.198C230.155 216.185 229.941 216.151 229.731 216.098C221.111 219.098 213.231 224.518 206.641 230.648C196.561 240.018 189.721 250.798 189.521 264.878C189.43 276.372 193.21 287.562 200.251 296.648C214.751 315.298 241.681 320.118 262.251 308.988C282.821 297.858 292.171 271.808 284.551 249.828C276.411 226.308 253.091 217.978 230.371 216.198Z" fill="#BE1E2D"/>
<path d="M419.968 215.498C419.268 215.258 418.704 214.73 418.418 214.048C404.988 212.368 389.808 216.768 379.228 223.968C361.302 236.078 352.652 257.953 357.448 279.048C362.298 300.778 381.748 320.528 405.378 317.648C430.198 314.648 445.008 291.088 448.378 268.178C450.028 257.028 449.658 244.568 444.378 234.378C439.098 224.188 430.248 219.198 419.968 215.498Z" fill="#BE1E2D"/>
<path d="M509.12 170.628C499.12 158.698 490.671 144.758 488.741 129.048C486.541 111.048 497.03 97.2175 500.96 80.4875C503.4 70.1075 501.74 62.7675 494.21 55.3475C489.311 50.5175 485.751 45.4175 485.521 38.3475C485.251 30.3475 489.521 21.5075 482.521 15.1275C475.521 8.74746 465.041 11.7275 458.031 16.6275C457.415 17.0649 456.693 17.3307 455.941 17.3975C447.761 25.1775 443.551 36.7975 447.281 48.2975C452.491 64.3575 466.151 76.5075 467.661 93.9975C469.201 111.828 456.841 127.588 459.071 145.398C461.651 166.068 478.001 179.588 493.36 191.548C506.53 201.788 519.78 213.248 523.94 230.128C527.25 243.598 524.75 257.888 518.65 270.208C515.394 276.763 511.151 282.779 506.07 288.048C499.9 294.418 492.001 298.818 485.881 305.188C482.741 308.458 479.681 312.638 479.371 317.338C479.081 321.568 481.431 324.438 483.451 327.888C486.631 333.308 488.241 338.888 486.071 345.028C484.781 348.688 482.421 351.598 480.441 354.878C478.131 358.718 478.361 360.738 479.321 364.938C480.841 371.558 480.031 377.258 476.201 382.938C470.731 391.048 450.031 402.438 458.201 413.938C462.406 419.782 470.111 421.912 476.721 419.058C484.321 415.658 488.981 407.648 490.811 399.798C492.721 391.568 491.441 382.968 493.23 374.718C494.865 367.376 498.662 360.692 504.13 355.528C517.39 342.748 535.46 337.148 545 320.448C553.49 305.618 555.72 287.858 555.41 271.028C555.06 252.338 552.59 232.408 544.49 215.358C536.25 197.978 521.25 185.178 509.12 170.628Z" fill="#F7941E"/>
<path fill-rule="evenodd" clip-rule="evenodd" d="M466.862 374.358C468.113 371.547 467.443 369.072 466.736 366.461C466.437 365.356 466.131 364.227 465.962 363.038C465.082 356.868 467.601 352.735 470.339 348.244C471.395 346.511 472.484 344.724 473.422 342.748C475.395 338.591 473.029 334.301 470.605 329.907C468.889 326.795 467.145 323.632 466.892 320.428C466.262 312.428 469.792 304.698 474.892 298.678C478.345 294.599 482.589 291.386 486.834 288.173C490.333 285.523 493.833 282.873 496.892 279.738C502.689 273.866 507.198 266.85 510.132 259.138C517.052 240.628 511.592 223.438 497.292 210.218C492.946 206.2 488.332 202.504 483.729 198.817C473.186 190.372 462.704 181.976 455.652 169.878C446.432 154.048 445.512 137.828 450.922 120.618C451.336 119.306 451.773 117.983 452.214 116.651L452.215 116.65C454.799 108.84 457.496 100.69 456.172 92.4376C455.008 85.1111 451.164 78.5227 447.457 72.1694L447.449 72.1558L447.432 72.1266L447.429 72.1213C447.007 71.3972 446.586 70.6763 446.172 69.9576C443.676 65.7082 441.471 61.2948 439.572 56.7476C422.565 67.182 405.486 77.4916 388.408 87.8011L388.407 87.8014L388.406 87.802C374.174 96.3931 359.942 104.984 345.752 113.648C232.472 182.818 122.092 256.098 12.4219 330.818C16.546 333.96 24.7834 334.747 30.6568 335.308C32.4454 335.479 34.0147 335.628 35.1819 335.818C43.4619 337.151 51.7385 338.484 60.0119 339.818L111.142 347.998C133.717 351.606 156.27 355.361 178.822 359.116L178.834 359.118C213.711 364.926 248.588 370.733 283.542 375.998C310.842 380.118 338.222 383.708 365.722 386.178C393.36 388.657 420.919 389.071 448.634 389.487L449.332 389.498C450.377 389.505 451.406 389.762 452.332 390.248C454.18 388.116 456.14 386.083 458.202 384.158C458.765 383.62 459.363 383.076 459.972 382.521L459.974 382.519C462.599 380.127 465.458 377.522 466.862 374.358ZM476.672 248.768C477.353 246.014 479.387 243.795 482.072 242.878C482.982 242.567 483.942 242.431 484.902 242.478C487.427 241.97 490.033 242.828 491.762 244.738C494.05 247.054 494.707 250.526 493.422 253.518C492.29 256.079 490.002 257.945 487.265 258.538C484.528 259.131 481.673 258.38 479.582 256.518C477.402 254.566 476.315 251.671 476.672 248.768ZM422.052 95.3076C421.725 95.9032 421.572 96.5791 421.612 97.2576C421.453 97.6521 421.345 98.0655 421.292 98.4876C420.652 103.638 425.692 106.828 430.382 105.828C432.536 105.336 434.345 103.884 435.292 101.888C435.54 101.375 435.725 100.835 435.842 100.278C435.907 99.9223 436.078 97.9155 435.993 98.8234L435.972 99.0576C435.98 98.9795 435.987 98.9015 435.993 98.8234C436.075 97.7447 435.918 96.6602 435.532 95.6476C434.654 93.2825 432.712 91.4702 430.292 90.7576C427.452 89.9176 423.372 92.9376 422.052 95.3076ZM421.522 177.878C421.587 177.245 421.753 176.628 422.012 176.048C423.312 173.148 426.782 172.048 429.712 172.458C431.946 172.809 433.906 174.135 435.063 176.078C435.691 177.128 435.978 178.347 435.883 179.568C435.762 180.805 435.274 181.978 434.483 182.937C434.4 183.051 434.317 183.165 434.234 183.279L434.102 183.462L434.101 183.463L434.1 183.464C433.504 184.286 432.914 185.101 432.263 185.867C430.837 187.469 428.657 188.177 426.562 187.717C424.608 187.285 422.916 186.071 421.882 184.357C420.733 182.372 420.6 179.958 421.522 177.858V177.878ZM402.252 123.058C396.132 121.348 388.792 121.468 384.252 122.778C367.652 127.558 365.602 146.948 373.112 160.328C381.182 174.798 400.252 174.138 410.692 162.518C418.912 153.378 419.292 139.218 412.162 130.038C410.882 127.238 408.162 125.238 404.812 123.918L403.892 123.448C403.379 123.203 402.82 123.07 402.252 123.058ZM328.391 234.648C329.802 236.936 329.554 239.877 327.781 241.898C327.536 242.873 327.071 243.78 326.421 244.548C324.601 246.656 321.449 246.968 319.252 245.258C318.018 244.213 316.896 243.043 315.902 241.768C314.849 240.128 315.033 237.983 316.352 236.548C317.453 235.429 318.889 234.698 320.441 234.468C320.93 233.792 321.579 233.248 322.331 232.888C324.509 231.9 327.081 232.647 328.391 234.648ZM311.252 176.258C305.098 173.734 298.028 176.175 294.742 181.958C289.252 191.478 296.522 203.318 305.822 207.268C315.972 211.588 325.002 200.148 324.472 190.858C324.15 185.819 321.475 181.225 317.252 178.458C315.431 177.305 313.386 176.555 311.252 176.258ZM75.7419 320.378C72.2919 324.568 65.1119 326.378 61.6219 321.198C60.842 320.02 60.3708 318.665 60.2519 317.258C60.2032 317.218 60.1527 317.182 60.1027 317.146C60.0397 317.102 59.9777 317.058 59.9219 317.008C58.302 315.454 57.8516 313.041 58.8019 311.008C59.9456 308.443 62.0885 306.458 64.7328 305.514C67.377 304.57 70.2924 304.748 72.8019 306.008C75.2371 307.33 77.0834 309.523 77.9719 312.148C78.9819 315.258 77.7619 317.958 75.7719 320.378H75.7419ZM110.902 313.698C118.692 323.898 132.382 318.378 140.232 311.378L140.252 311.368C144.702 307.438 148.412 302.258 148.282 296.028C148.152 291.308 145.842 286.368 141.282 285.308C136.462 280.528 127.522 280.108 120.902 283.808C110.812 289.418 102.902 303.178 110.902 313.698ZM177.992 335.378C175.752 337.858 171.172 337.748 169.452 334.648C169.332 334.438 169.212 334.228 169.102 334.018C167.93 332.048 168.143 329.55 169.632 327.808C171.203 326.124 173.687 325.657 175.762 326.658L176.422 326.948C179.702 328.388 180.252 332.928 178.022 335.408L177.992 335.378ZM184.972 292.558C198.002 319.718 227.752 332.858 256.752 324.558L256.782 324.588C285.972 316.258 303.812 286.548 299.282 256.758C296.292 236.948 280.742 217.298 261.472 209.358C256.774 206.435 251.481 204.604 245.982 203.998C232.622 202.608 219.492 208.018 208.682 215.498C196.002 224.298 184.632 236.108 180.552 251.298C176.872 264.998 178.882 279.868 184.972 292.558ZM331.062 340.728C328.062 353.898 312.172 362.338 299.762 356.388C293.433 353.232 288.921 347.324 287.542 340.388C286.692 335.948 286.712 329.208 290.652 326.598C292.938 320.972 297.87 316.849 303.812 315.598C317.892 312.368 334.482 326.128 331.092 340.758L331.062 340.728ZM365.412 360.058C366.609 358.889 367.41 357.375 367.702 355.728L367.732 355.738C368.061 353.641 367.535 351.5 366.271 349.795C365.008 348.09 363.113 346.963 361.012 346.668C358.362 346.348 355.482 347.038 353.892 349.348C352.644 351.26 352.279 353.617 352.892 355.818C353.281 357.345 354.134 358.714 355.332 359.738C355.372 359.788 355.432 359.858 355.432 359.918C356.226 361.045 357.396 361.853 358.732 362.198C361.112 362.948 363.722 361.658 365.412 360.058ZM428.86 362.788C423.3 370.648 411.151 372.608 404.722 364.688C398.292 356.768 401.252 344.258 409.651 338.908C412.807 336.841 416.689 336.202 420.341 337.148C420.957 337.187 421.559 337.351 422.111 337.628C431.25 342.138 434.94 354.258 428.89 362.798L428.86 362.788ZM344.522 269.568C345.392 297.728 365.372 326.428 394.632 330.258C426.642 334.478 451.952 308.718 459.322 279.568C463.332 263.748 463.592 245.568 456.592 230.568C452.592 221.828 444.822 213.488 435.592 210.038C433.146 208.524 430.561 207.248 427.872 206.228C415.332 201.458 401.152 202.318 388.642 206.758C362.032 216.218 343.642 241.078 344.522 269.568Z" fill="#FBB040"/>
<path d="M309.06 198.078C313.41 199.328 315.34 192.018 314.06 189.078C312.49 185.568 308.79 184.878 305.65 183.538C304.024 184.188 302.774 185.53 302.24 187.198C301.592 189.289 302.09 191.567 303.55 193.198C304.62 194.668 307.25 197.558 309.06 198.078Z" fill="#009444"/>
<path d="M404.739 153.258C409.739 144.828 405.989 136.258 399.069 130.448C398.887 130.29 398.716 130.12 398.559 129.938C393.364 129.025 388.013 129.985 383.459 132.648C375.459 137.758 377.199 151.588 382.819 157.818C389.159 164.818 400.479 160.398 404.739 153.258Z" fill="#009444"/>
<path d="M120.31 308.717C124.81 311.007 131.07 306.077 134.02 302.947C138.5 298.187 136.8 295.287 135.8 290.247C125.53 286.727 111.75 304.367 120.31 308.717Z" fill="#009444"/>
<path fill-rule="evenodd" clip-rule="evenodd" d="M529.291 174.492L529.289 174.491C516.788 161.098 503.584 146.952 500.94 128.478C499.382 117.559 503.318 107.637 507.266 97.6832C511.146 87.9009 515.039 78.0879 513.74 67.2677C513.249 62.7194 511.746 58.3388 509.34 54.4477C507.996 52.3508 506.085 50.6236 504.184 48.9055C502.069 46.9938 499.966 45.0935 498.67 42.7077C496.809 39.281 497.375 35.2021 497.921 31.2629C498.096 29.9945 498.27 28.7407 498.36 27.5277C498.824 23.3134 498.251 19.0496 496.69 15.1077C489.08 -3.19231 466.08 -4.10231 453.25 8.25769C446.543 12.6107 441.342 18.9284 438.36 26.3477C435.531 33.5082 435.072 41.3871 437.05 48.8277C320.07 113.398 207.25 186.258 96.4102 260.628C64.8802 281.798 33.3102 302.998 2.4102 325.048C0.430996 326.341 -0.457137 328.785 0.2302 331.048C4.19947 341.706 15.942 343.414 26.3026 344.92L26.305 344.921C28.1332 345.187 29.9184 345.446 31.6102 345.748L78.1902 353.978C109.744 359.544 141.304 365.048 172.87 370.488C181.624 371.993 190.378 373.518 199.134 375.043L199.138 375.043C249.538 383.821 300.008 392.611 350.87 397.808C381.99 400.988 413.76 403.508 445.07 401.968C442.98 407.838 443.19 414.158 447.61 420.688C455.89 432.662 471.931 436.351 484.61 429.198C500.88 419.918 503.78 401.898 504.67 384.898C505.28 373.138 510.34 365.698 519.89 359.008C522.52 357.171 525.221 355.447 527.921 353.724L527.922 353.723C533.528 350.144 539.126 346.57 544.06 342.008C557.6 329.588 564.55 311.618 566.99 293.728C569.57 274.818 568.2 255.358 564.48 236.728C560.46 216.138 551.25 199.148 537.51 183.478C534.892 180.494 532.109 177.512 529.291 174.492ZM452.3 390.258C451.374 389.772 450.346 389.515 449.3 389.508L448.602 389.497C420.888 389.081 393.328 388.667 365.69 386.188C338.19 383.718 310.81 380.128 283.51 376.008C249.485 370.859 215.534 365.211 181.584 359.563L181.583 359.563C158.1 355.656 134.617 351.749 111.11 348.008L59.9802 339.828C51.7002 338.494 43.4235 337.161 35.1502 335.828C33.9936 335.643 32.4422 335.496 30.6738 335.328L30.6733 335.328C24.7969 334.771 16.5256 333.987 12.3902 330.828C122.06 256.108 232.44 182.828 345.74 113.658C359.931 104.994 374.163 96.4028 388.395 87.8116C405.474 77.5019 422.553 67.1923 439.56 56.7577C441.46 61.3049 443.665 65.7183 446.16 69.9677C446.622 70.7759 447.093 71.5881 447.567 72.4052L447.569 72.409L447.569 72.4094C451.198 78.668 454.993 85.2137 456.16 92.4477C457.479 100.669 454.808 108.76 452.232 116.56C451.781 117.925 451.333 119.281 450.91 120.628C445.5 137.838 446.42 154.058 455.64 169.888C462.658 181.935 473.04 190.248 483.537 198.654C488.193 202.383 492.872 206.129 497.29 210.228C511.67 223.568 517.05 240.638 510.13 259.148C507.197 266.86 502.687 273.876 496.89 279.748C493.842 282.858 490.36 285.496 486.878 288.134C482.615 291.363 478.353 294.592 474.89 298.688C469.79 304.688 466.26 312.398 466.89 320.438C467.142 323.628 468.889 326.753 470.61 329.832C473.06 334.215 475.458 338.505 473.42 342.758C472.459 344.764 471.364 346.559 470.309 348.289C467.557 352.802 465.078 356.867 465.96 363.048C466.13 364.237 466.435 365.366 466.735 366.47C467.441 369.078 468.111 371.55 466.86 374.368C465.413 377.628 462.57 380.182 459.935 382.549C459.329 383.093 458.735 383.627 458.17 384.158C456.108 386.087 454.149 388.123 452.3 390.258ZM520.69 343.028C529.949 336.874 539.097 330.794 544.99 320.478V320.458C553.48 305.628 555.71 287.868 555.42 271.048C555.07 252.378 552.6 232.428 544.5 215.378C538.617 202.992 529.341 192.935 520.1 182.916C516.365 178.868 512.637 174.825 509.14 170.638C499.18 158.708 490.69 144.768 488.76 129.058C487.329 117.357 491.267 107.412 495.276 97.2852C497.431 91.842 499.606 86.3465 500.98 80.4977C503.42 70.1177 501.76 62.7777 494.23 55.3577C489.33 50.5477 485.77 45.4477 485.54 38.3577C485.465 36.0312 485.777 33.653 486.088 31.2903C486.851 25.4777 487.603 19.7592 482.54 15.1377C475.42 8.63769 465.05 11.7377 458.05 16.6377C457.434 17.0752 456.713 17.3409 455.96 17.4077C447.78 25.1877 443.57 36.8077 447.3 48.3077C449.451 54.9382 453.042 60.9022 456.624 66.8507C461.718 75.3103 466.794 83.7386 467.68 94.0077C468.433 102.718 465.868 110.934 463.307 119.137C460.626 127.725 457.95 136.298 459.09 145.408C461.67 166.078 478.02 179.558 493.38 191.558C506.55 201.798 519.8 213.258 523.96 230.138C527.27 243.608 524.77 257.898 518.67 270.218C515.414 276.773 511.171 282.789 506.09 288.058C503.02 291.217 499.535 293.891 496.055 296.562C492.517 299.276 488.985 301.987 485.9 305.198C482.76 308.468 479.7 312.648 479.39 317.348C479.15 320.85 480.733 323.419 482.42 326.158C482.771 326.727 483.126 327.304 483.47 327.898C486.65 333.318 488.26 338.908 486.09 345.038C485.154 347.694 483.665 349.955 482.154 352.249C481.583 353.116 481.009 353.988 480.46 354.888C478.15 358.728 478.34 360.748 479.34 364.948C480.86 371.568 480.05 377.268 476.22 382.948C474.656 385.259 471.845 387.841 468.82 390.619C461.271 397.555 452.387 405.716 458.22 413.948C462.425 419.791 470.13 421.922 476.74 419.068C484.34 415.668 489 407.658 490.83 399.808C491.804 395.614 491.948 391.324 492.093 387.033C492.233 382.903 492.372 378.773 493.25 374.728C494.88 367.397 498.666 360.721 504.12 355.558C509.189 350.672 514.961 346.836 520.69 343.028Z" fill="#231F20"/>
<path fill-rule="evenodd" clip-rule="evenodd" d="M412.11 130.037C419.24 139.217 418.86 153.377 410.64 162.517C400.25 174.137 381.13 174.797 373.06 160.327C365.6 146.947 367.65 127.557 384.2 122.777C388.74 121.467 396.08 121.347 402.2 123.057C402.768 123.07 403.327 123.202 403.84 123.447L404.76 123.917C408.11 125.237 410.83 127.237 412.11 130.037ZM398.56 129.887C393.365 128.975 388.014 129.935 383.46 132.597C375.46 137.707 377.25 151.537 382.82 157.767C389.16 164.817 400.48 160.397 404.74 153.207C409.74 144.777 405.99 136.177 399.07 130.397C398.888 130.24 398.717 130.07 398.56 129.887Z" fill="#231F20"/>
<path d="M430.38 105.808C432.533 105.316 434.343 103.864 435.29 101.868C435.538 101.355 435.722 100.815 435.84 100.258C435.91 99.8778 436.1 97.6078 435.97 99.0378C436.094 97.8823 435.943 96.7138 435.53 95.6278C434.652 93.2628 432.71 91.4504 430.29 90.7378C427.45 89.8978 423.37 92.9178 422.05 95.2878C421.722 95.8834 421.57 96.5593 421.61 97.2378C421.45 97.6323 421.343 98.0457 421.29 98.4678C420.65 103.618 425.69 106.848 430.38 105.808Z" fill="#231F20"/>
<path d="M426.561 187.698C428.655 188.157 430.835 187.45 432.261 185.848C433.051 184.928 433.751 183.898 434.481 182.918C435.272 181.959 435.76 180.785 435.881 179.548C435.975 178.327 435.689 177.108 435.061 176.058C433.904 174.115 431.944 172.789 429.711 172.438C426.781 171.998 423.311 173.128 422.011 176.028C421.751 176.608 421.586 177.226 421.521 177.858C420.605 179.952 420.739 182.357 421.881 184.338C422.915 186.051 424.606 187.266 426.561 187.698Z" fill="#231F20"/>
<path d="M493.421 253.518C494.706 250.526 494.049 247.054 491.761 244.738C490.032 242.828 487.426 241.97 484.901 242.478C483.94 242.431 482.98 242.567 482.071 242.878C479.386 243.795 477.352 246.014 476.671 248.768C476.307 251.678 477.395 254.582 479.581 256.538C481.674 258.399 484.532 259.147 487.269 258.55C490.006 257.953 492.293 256.082 493.421 253.518Z" fill="#231F20"/>
<path fill-rule="evenodd" clip-rule="evenodd" d="M420.342 337.148C420.958 337.187 421.56 337.351 422.112 337.628C431.252 342.138 434.942 354.258 428.892 362.798C423.332 370.698 411.252 372.678 404.752 364.698C398.252 356.718 401.252 344.258 409.652 338.908C412.808 336.841 416.689 336.202 420.342 337.148ZM413.672 359.057C416.622 360.797 420.553 357.977 421.313 355.057C422.103 352.057 420.523 348.508 418.653 345.818C416.403 346.372 414.391 347.634 412.912 349.417C411.262 351.977 410.491 357.207 413.672 359.057Z" fill="#231F20"/>
<path fill-rule="evenodd" clip-rule="evenodd" d="M290.682 326.628C292.968 321.002 297.9 316.879 303.842 315.628C317.892 312.368 334.482 326.128 331.092 340.758C328.042 353.928 312.202 362.368 299.792 356.418C293.463 353.262 288.951 347.354 287.572 340.418C286.682 335.978 286.742 329.238 290.682 326.628ZM301.462 344.748C306.923 349.818 315.003 347.868 319.164 342.118C325.124 333.868 316.374 323.148 307.053 323.848C302.382 324.069 298.334 327.153 296.882 331.598C296.713 332.975 296.69 334.366 296.812 335.748C297.358 339.169 298.988 342.324 301.462 344.748Z" fill="#231F20"/>
<path d="M361.071 346.678C358.421 346.358 355.541 347.048 353.951 349.358C352.703 351.27 352.339 353.628 352.951 355.828C353.341 357.355 354.193 358.724 355.391 359.748C355.391 359.798 355.451 359.868 355.491 359.928C356.286 361.055 357.455 361.864 358.791 362.208C361.171 362.958 363.791 361.668 365.471 360.068C367.636 357.989 368.42 354.854 367.489 352.001C366.558 349.148 364.076 347.079 361.101 346.678H361.071Z" fill="#231F20"/>
<path d="M322.251 232.898C321.499 233.259 320.849 233.802 320.361 234.478C318.808 234.709 317.372 235.439 316.271 236.558C314.952 237.994 314.768 240.138 315.821 241.778C316.84 243.054 317.99 244.22 319.251 245.258C321.46 246.998 324.649 246.68 326.471 244.538C327.121 243.77 327.586 242.864 327.831 241.888C329.605 239.867 329.852 236.926 328.441 234.638C327.114 232.577 324.458 231.83 322.251 232.898Z" fill="#231F20"/>
<path fill-rule="evenodd" clip-rule="evenodd" d="M324.489 190.848C325.019 200.138 315.99 211.578 305.84 207.258C296.521 203.318 289.251 191.478 294.791 181.928C298.081 176.168 305.13 173.738 311.27 176.248C313.404 176.545 315.45 177.295 317.27 178.448C321.493 181.215 324.167 185.809 324.489 190.848ZM305.661 183.528C304.036 184.178 302.785 185.52 302.251 187.188C301.581 189.281 302.064 191.572 303.521 193.218C304.631 194.658 307.251 197.548 309.071 198.068C313.461 199.328 315.391 192.018 314.071 189.068C312.807 186.217 310.162 185.234 307.54 184.259C306.906 184.024 306.273 183.789 305.661 183.528Z" fill="#231F20"/>
<path fill-rule="evenodd" clip-rule="evenodd" d="M261.502 209.378C280.772 217.318 296.312 236.968 299.312 256.778C303.812 286.548 285.972 316.258 256.782 324.578C227.812 332.888 198.002 319.748 185.002 292.578C178.912 279.888 176.902 265.018 180.582 251.318C184.662 236.128 196.032 224.298 208.712 215.518C219.522 208.018 232.652 202.628 246.012 204.018C251.511 204.624 256.804 206.456 261.502 209.378ZM200.312 296.648C214.762 315.298 241.692 320.118 262.312 308.988H262.252C282.882 297.858 292.192 271.808 284.662 249.828C276.462 226.308 253.182 217.978 230.462 216.198C230.246 216.185 230.032 216.151 229.822 216.098C221.202 219.138 213.322 224.518 206.732 230.648C196.612 240.018 189.812 250.798 189.612 264.878C189.512 276.369 193.281 287.559 200.312 296.648Z" fill="#231F20"/>
<path fill-rule="evenodd" clip-rule="evenodd" d="M435.621 210.078C444.821 213.528 452.551 221.868 456.621 230.608C463.631 245.608 463.361 263.788 459.381 279.578C451.981 308.718 426.661 334.477 394.66 330.297C365.4 326.467 345.42 297.768 344.55 269.608C343.67 241.118 362.06 216.258 388.67 206.798C401.18 202.358 415.361 201.498 427.901 206.268C430.59 207.288 433.175 208.564 435.621 210.078ZM405.4 317.648C430.2 314.618 445.01 291.088 448.4 268.178C450.05 257.028 449.63 244.428 444.37 234.378C439.11 224.328 430.3 219.198 419.99 215.498C419.29 215.258 418.726 214.73 418.44 214.048C405.01 212.368 389.83 216.768 379.25 223.968C361.324 236.078 352.674 257.953 357.47 279.048C362.32 300.778 381.77 320.528 405.4 317.648Z" fill="#231F20"/>
<path fill-rule="evenodd" clip-rule="evenodd" d="M120.87 283.758C127.49 280.058 136.43 280.478 141.25 285.258C145.841 286.358 148.151 291.258 148.201 295.978C148.351 302.168 144.641 307.398 140.2 311.328C132.35 318.288 118.66 323.847 110.87 313.648C102.869 303.128 110.81 289.368 120.87 283.758ZM120.279 308.678C124.779 310.968 130.989 306.038 133.989 302.908L134.019 302.948C137.822 298.907 137.171 296.184 136.257 292.364C136.095 291.685 135.924 290.97 135.769 290.208C125.499 286.678 111.72 304.328 120.279 308.678Z" fill="#231F20"/>
<path d="M72.7507 305.998C70.2413 304.738 67.3259 304.56 64.6816 305.504C62.0374 306.449 59.8945 308.433 58.7507 310.998C57.8005 313.031 58.2509 315.444 59.8707 316.998C59.9707 317.088 60.0907 317.158 60.2007 317.248C60.332 318.651 60.8134 319.999 61.6007 321.168C65.0907 326.348 72.2707 324.538 75.7207 320.348C77.7207 317.928 78.9307 315.258 77.8707 312.108C76.988 309.503 75.1613 307.323 72.7507 305.998Z" fill="#231F20"/>
<path d="M176.45 326.977L175.79 326.687C173.716 325.687 171.232 326.153 169.661 327.837C168.172 329.58 167.959 332.078 169.131 334.048C169.241 334.258 169.361 334.468 169.481 334.678C171.201 337.778 175.78 337.888 178.02 335.408C180.26 332.928 179.7 328.387 176.45 326.977Z" fill="#231F20"/>
</svg>
