<svg width="571" height="486" viewBox="0 0 571 486" fill="none" xmlns="http://www.w3.org/2000/svg">
<path d="M4.58887 142.729C4.58887 93.3591 16.7288 58.3791 41.6888 35.8091C86.4088 -4.63091 164.819 3.25908 240.659 10.9091C244.206 11.2691 247.752 11.6258 251.299 11.9791C261.299 12.9791 271.459 13.9791 281.719 14.9791C340.719 20.6591 401.829 26.5291 451.719 37.5091C478.929 43.5091 500.089 50.4091 516.409 58.6291C535.479 68.2391 547.529 79.3991 553.249 92.7491C561.662 112.356 565.987 133.473 565.959 154.809C565.959 212.459 535.959 263.059 510.809 295.369C479.529 335.529 444.309 362.599 423.279 371.609C381.139 389.669 276.589 379.209 200.279 371.559C184.919 370.019 171.489 368.679 160.229 367.749C157.719 371.939 154.699 378.099 151.289 385.059C133.909 420.479 104.829 479.759 50.3788 481.269C48.4074 481.353 46.4867 480.631 45.0588 479.269C43.6236 477.863 42.816 475.938 42.8188 473.929C42.8214 471.48 44.0486 469.194 46.0889 467.839C62.8789 456.569 84.5688 421.839 91.3589 360.739L91.0988 360.679C75.9889 357.249 57.1789 352.979 40.9589 326.609C22.8688 297.189 11.3088 245.239 5.61884 167.769C4.91882 159.019 4.58887 150.629 4.58887 142.729Z" fill="#88E0FF"/>
<path fill-rule="evenodd" clip-rule="evenodd" d="M557.449 90.9091C566.104 111.079 570.554 132.801 570.529 154.749C570.529 179.789 564.919 205.769 553.859 231.989C544.409 254.429 531.119 276.689 514.409 298.139C482.629 338.909 446.629 366.539 424.999 375.779C381.794 394.303 276.611 383.776 199.778 376.087L199.699 376.079L197.227 375.832C184.236 374.532 172.671 373.375 162.699 372.519C160.581 376.366 158.103 381.421 155.366 387.005L155.359 387.019L155.156 387.432C146.635 404.754 135.05 428.306 118.819 447.949C98.6292 472.379 75.6192 485.119 50.4392 485.809C47.217 485.917 44.09 484.707 41.7792 482.459C39.4525 480.182 38.1406 477.064 38.1392 473.809C38.139 469.823 40.1317 466.1 43.4492 463.889C48.7092 460.359 59.0492 451.119 69.1192 428.889C77.2892 410.879 83.1492 388.649 86.2192 364.189C71.5592 360.709 52.7992 354.659 36.9692 328.909C18.4792 298.909 6.72919 246.219 0.999207 167.919C0.329224 159.159 -0.000793457 150.649 -0.000793457 142.649C-0.000793457 116.969 3.34918 94.5891 9.99921 76.1491C16.3792 58.4491 25.9992 43.6991 38.5992 32.3091C49.8092 22.1691 63.7592 14.3691 80.0692 9.10911C94.4092 4.47911 110.659 1.68911 129.759 0.559107C164.475 -1.48006 203.407 2.43591 241.073 6.22447L241.119 6.22911C244.666 6.59577 248.209 6.95244 251.749 7.29911C256.803 7.805 261.967 8.31089 267.131 8.81678C272.174 9.31089 277.218 9.805 282.159 10.2991C341.349 15.9891 402.549 21.9091 452.669 32.9091C480.259 39.0191 501.729 46.0591 518.449 54.4891C538.529 64.6091 551.289 76.5191 557.449 90.9091ZM421.419 367.32C463.459 349.3 561.309 256.62 561.309 154.749C561.352 134.034 557.153 113.53 548.969 94.4993C526.991 43.1002 398.208 30.7387 281.428 19.5293C271.111 18.5389 260.887 17.5576 250.839 16.5591C247.304 16.2073 243.763 15.8505 240.22 15.4935C125.656 3.94824 9.20892 -7.78677 9.20892 142.729C9.20892 150.499 9.50891 158.669 10.1489 167.319C22.8561 340.368 62.5981 349.39 92.0472 356.075C93.4906 356.402 94.9094 356.724 96.299 357.06C90.1589 419.33 68.269 458.35 48.5889 471.56C47.8205 472.055 47.3569 472.906 47.3589 473.82C47.3448 474.569 47.6387 475.29 48.1719 475.816C48.7051 476.341 49.4307 476.625 50.179 476.6C101.847 475.172 130.293 417.182 147.075 382.969C151.32 374.314 154.819 367.181 157.759 362.87C169.623 363.81 184.327 365.281 200.738 366.923C273.695 374.222 380.397 384.896 421.419 367.32Z" fill="#231F20"/>
</svg>
