<svg width="516" height="580" viewBox="0 0 516 580" fill="none" xmlns="http://www.w3.org/2000/svg">
<path d="M100.222 352.195C99.297 351.87 98.2728 352.004 97.462 352.555H97.362C96.7024 352.607 96.1108 352.981 95.782 353.555C95.1261 354.963 95.2394 356.61 96.082 357.915C96.9648 359.345 98.6729 360.037 100.302 359.625C101.948 359.109 103.029 357.536 102.922 355.815C102.81 354.183 101.754 352.768 100.222 352.195Z" fill="white"/>
<path d="M280.901 355.655C279.923 353.594 277.762 352.363 275.491 352.575C274.616 352.685 273.812 353.112 273.231 353.775C272.193 354.373 271.464 355.39 271.231 356.565C270.527 358.868 271.5 361.352 273.581 362.565C275.461 363.883 277.998 363.751 279.731 362.245C281.514 360.537 281.987 357.872 280.901 355.655Z" fill="white"/>
<path d="M113.473 345.875C112.493 343.822 110.34 342.594 108.073 342.795C107.2 342.909 106.397 343.336 105.813 343.995C104.775 344.597 104.046 345.617 103.813 346.795C103.108 349.101 104.086 351.588 106.173 352.795C108.046 354.131 110.594 353.994 112.313 352.465C114.087 350.752 114.556 348.091 113.473 345.875Z" fill="white"/>
<path d="M442.562 527.935C441.948 528.86 441.28 529.748 440.562 530.595C439.44 534.952 437.528 539.067 434.922 542.735C437.922 543.825 441.442 544.415 443.922 542.535C446.922 540.235 443.922 532.195 442.922 528.955C442.782 528.615 442.672 528.275 442.562 527.935Z" fill="#2B3990"/>
<path d="M435.85 523.455C436.575 521.466 437.448 519.534 438.46 517.675C436.582 513.816 434.36 510.135 431.82 506.675C430.82 505.345 429.04 502.955 426.82 500.435C425.938 506.001 423.985 511.343 421.07 516.165C423.016 518.497 424.737 521.009 426.21 523.665C427.795 526.408 429.076 529.315 430.03 532.335C431.419 529.547 433.024 526.872 434.83 524.335C435.115 523.984 435.461 523.686 435.85 523.455Z" fill="#009344"/>
<path d="M419.404 518.955C418.284 520.668 417.097 522.335 415.844 523.955C417.361 526.439 418.731 529.01 419.944 531.655C421.714 535.365 423.234 539.435 423.284 543.575C425.446 540.769 427.322 537.754 428.885 534.575C427.595 531.217 425.995 527.986 424.104 524.925C422.703 522.811 421.131 520.814 419.404 518.955V518.955Z" fill="#8DC63F"/>
<path d="M435.622 499.905C443.492 509.585 450.432 522.555 452.082 535.355C454.919 534.526 457.941 534.585 460.742 535.525C469.362 538.365 471.462 547.715 476.742 553.985C481.842 559.947 489.381 563.26 497.222 562.985C500.812 562.825 505.332 561.735 506.642 557.985C497.292 537.625 487.932 517.735 475.642 498.875C465.072 482.615 450.642 460.925 429.022 466.635C428.672 467.045 428.332 467.465 428.022 467.895C423.482 473.475 418.972 479.055 414.152 484.365C422.302 485.365 431.342 494.645 435.622 499.905Z" fill="#00AEEF"/>
<path d="M419.561 494.145C419.621 494.005 419.691 493.885 419.761 493.755C416.021 491.035 412.221 489.755 409.491 492.705C406.551 495.835 407.951 501.835 409.671 505.165C410.649 507.027 411.926 508.716 413.451 510.165C416.071 505.005 417.431 499.495 419.561 494.145Z" fill="#2B3990"/>
<path d="M450.912 466.385C460.482 471.335 467.142 480.525 473.122 489.185C486.122 508.005 498.333 528.565 506.963 549.995C506.693 547.795 506.263 545.635 505.963 543.805C502.913 526.945 494.183 511.805 484.502 497.895C479.572 490.815 474.302 483.965 468.972 477.185C463.642 470.405 457.752 462.725 449.672 459.185C442.161 455.865 436.831 458.595 432.121 463.305C438.331 461.915 445.281 463.475 450.912 466.385Z" fill="#2B3990"/>
<path d="M336.46 551.275C334.12 550.835 331.8 550.275 329.51 549.695C328.821 551.745 328.003 553.749 327.06 555.695C325.736 558.721 324.003 561.551 321.91 564.105C325.03 565.105 328.19 566.105 331.36 566.915C332.92 564.173 334.193 561.278 335.16 558.275C335.824 555.991 336.26 553.646 336.46 551.275Z" fill="#8DC63F"/>
<path d="M230.271 535.235C234.211 543.765 232.031 555.565 227.121 564.055C234.117 564.228 241.101 563.4 247.862 561.595C251.574 560.616 255.208 559.359 258.732 557.835C258.562 548.715 252.852 540.115 248.522 532.025C242.611 533.914 236.472 534.994 230.271 535.235Z" fill="#009344"/>
<path d="M227.909 535.295H226.319C222.688 535.245 219.067 534.877 215.5 534.195C217.3 538.725 216.07 545.195 214.9 549.605C213.833 553.859 211.903 557.848 209.23 561.325L209.74 561.475C214.666 562.84 219.725 563.668 224.829 563.945C226.659 559.998 227.925 555.814 228.589 551.515C229.389 545.915 228.269 540.785 227.909 535.295Z" fill="#8DC63F"/>
<path d="M257.891 527.775C255.818 529.025 253.643 530.099 251.391 530.985C254.09 535.419 256.344 540.108 258.121 544.985C259.561 548.675 261.121 552.805 260.991 556.815C262.324 556.148 263.657 555.458 264.991 554.745C265.581 554.405 266.161 554.045 266.731 553.685C266.881 549.699 266.405 545.714 265.321 541.875C263.731 536.445 260.691 532.435 257.891 527.775Z" fill="#8DC63F"/>
<path d="M297.162 542.625C299.031 539.495 298.931 536.515 299.361 533.225C298.361 532.325 297.472 531.405 296.562 530.445C295.388 533.328 293.588 535.913 291.292 538.015C288.792 540.365 285.643 542.285 282.293 542.365C284.963 544.565 287.752 546.645 290.632 548.615C293.132 547.005 295.442 545.515 297.162 542.625Z" fill="#8DC63F"/>
<path d="M267.07 537.885C268.549 542.556 269.079 547.476 268.63 552.355C271.16 550.545 273.57 548.525 276.1 546.755C272.927 543.97 269.912 541.008 267.07 537.885Z" fill="#009344"/>
<path d="M326.449 548.805C323.497 547.893 320.6 546.814 317.77 545.575C312.197 543.111 307.01 539.854 302.37 535.905C302.28 541.375 298.23 547.825 293.32 550.395C301.378 555.562 309.984 559.822 318.979 563.095C320.729 560.415 322.979 557.925 324.389 555.095C325.303 553.08 325.994 550.97 326.449 548.805Z" fill="#009344"/>
<path d="M339.67 551.805C339.026 557.425 337.051 562.811 333.91 567.515C342.376 569.552 351.035 570.685 359.74 570.895C363.432 570.964 367.125 570.817 370.8 570.455C371.41 565.915 372.5 561.455 372.48 556.795C372.451 554.782 372.253 552.775 371.89 550.795C361.298 553.064 350.384 553.407 339.67 551.805Z" fill="#009344"/>
<path d="M388.953 559.545C388.953 561.065 389.063 564.685 388.143 566.975C394.709 564.934 400.969 562.014 406.752 558.295C412.268 554.744 417.265 550.447 421.602 545.525C420.292 540.395 419.082 535.615 416.522 530.875C415.712 529.385 414.722 527.935 413.732 526.485C406.567 534.887 397.546 541.508 387.383 545.825C388.567 550.298 389.096 554.92 388.953 559.545Z" fill="#009344"/>
<path fill-rule="evenodd" clip-rule="evenodd" d="M9.86135 330.815C10.5313 344.125 21.1014 355.225 33.8614 357.925C37.1414 358.615 38.3814 363.335 35.8614 365.565C13.9314 385.005 21.3014 418.665 44.4514 433.475C54.9987 440.211 67.4534 442.256 79.6154 444.252C80.6332 444.419 81.6491 444.586 82.6615 444.755L127.932 452.305C158.692 457.458 189.455 462.609 220.222 467.755C228.842 469.185 237.622 470.575 246.452 471.485C247.296 471.242 248.202 471.332 248.982 471.735C267.282 473.415 285.692 472.855 303.052 466.145C326.522 457.065 346.822 434.335 340.892 407.625C340.482 405.775 341.102 403.155 343.052 402.315C359.952 395.055 377.472 385.215 386.752 368.635C394.752 354.405 394.752 334.565 382.272 322.935C380.522 321.305 380.362 317.845 382.272 316.235L382.823 315.771L382.824 315.771C395.717 304.905 409.474 293.311 415.202 276.925C421.142 259.925 418.762 241.285 414.572 224.175C407.262 194.355 390.972 149.905 352.392 154.355C349.312 154.705 347.792 151.355 348.202 148.855C352.082 125.715 344.962 100.855 329.042 83.5251C313.209 66.5496 290.756 57.3283 267.562 58.2751C265.264 58.2333 263.406 56.3922 263.342 54.0951C261.802 35.8051 252.452 9.63512 230.512 8.92512C217.872 8.51512 205.402 16.1951 196.772 24.9251C188.508 33.3106 182.802 43.8759 180.322 55.3851C179.977 56.6026 179.089 57.5926 177.916 58.0676C176.743 58.5427 175.417 58.4495 174.322 57.8151C167.192 53.0951 157.912 57.1851 153.322 63.6751C147.82 71.5261 147.573 81.9496 147.353 91.2426C147.343 91.6794 147.333 92.1137 147.322 92.5451C147.279 94.7695 145.486 96.5626 143.262 96.6051C119.622 97.1151 96.8816 110.465 85.3615 131.235C74.2115 151.355 74.8115 176.555 85.5616 196.615C86.6816 197.195 87.7916 197.815 88.8716 198.515C93.1616 201.295 89.7716 207.875 85.5415 206.415C84.2584 206.552 83.0091 205.947 82.3215 204.855C82.2946 204.813 82.2692 204.771 82.2441 204.729C82.2039 204.662 82.1646 204.597 82.1215 204.535C64.9215 195.535 42.8514 205.205 32.3114 220.385C17.1414 242.215 23.4714 272.295 33.5614 294.785C34.7714 297.475 33.8814 300.495 30.8614 301.425C18.4514 305.215 9.20134 317.615 9.86135 330.815ZM88.5213 415.365C87.5213 420.905 81.2913 423.055 76.4314 421.115C71.0613 418.985 68.8013 413.715 68.6613 408.325C63.8513 409.045 59.3713 406.085 57.5713 401.325C55.1513 394.965 57.2713 387.765 61.9513 383.125C62.6513 382.435 63.5713 383.445 63.0013 384.125C60.328 387.619 59.0133 391.965 59.3013 396.355C59.7313 401.745 63.9313 407.035 69.7613 404.925C70.2051 404.804 70.68 404.896 71.0464 405.174C71.4128 405.452 71.629 405.885 71.6313 406.345C71.4313 410.035 72.0413 414.085 75.0013 416.645C79.0714 420.165 83.8013 418.545 86.4813 414.415C86.7437 413.852 87.413 413.608 87.9763 413.87C88.5397 414.132 88.7837 414.802 88.5213 415.365ZM73.9473 378.352C72.6014 374.072 71.2613 369.81 70.6409 365.225C69.579 357.488 69.6632 349.637 70.8909 341.925C71.0209 341.155 69.891 340.805 69.7011 341.595C67.6942 349.366 67.0881 357.432 67.9113 365.415C68.7412 372.675 70.271 380.965 74.5004 387.055C74.7834 387.392 75.2533 387.504 75.658 387.332C76.0628 387.159 76.3072 386.742 76.2602 386.305C75.5961 383.595 74.7706 380.97 73.9473 378.352ZM96.4029 411.735C88.8122 411.045 81.0115 402.975 78.9314 395.955C78.7613 395.395 79.5714 394.845 79.9314 395.345C82.0465 398.342 84.4299 401.14 87.0521 403.705C88.7763 405.234 90.6888 406.392 92.6016 407.551C94.0172 408.409 95.4331 409.267 96.7729 410.275C97.343 410.685 97.2729 411.815 96.4029 411.735ZM286.651 441.555C291.181 445.685 298.711 446.975 304.011 443.975C311.121 439.985 314.611 429.645 312.331 421.955C312.162 421.419 311.664 421.054 311.101 421.054C310.539 421.054 310.041 421.419 309.871 421.955C309.529 423.645 309.372 425.339 309.217 427.011C308.83 431.198 308.456 435.245 305.211 438.725C300.261 444.045 290.171 443.005 286.791 436.345C286.071 434.935 283.541 435.545 283.711 437.175C284.241 442.275 280.901 447.175 275.541 447.175C273.152 447.183 270.877 446.15 269.311 444.345C268.931 443.955 266.101 437.605 267.101 437.955C267.861 438.215 268.371 437.175 267.861 436.645C266.201 434.895 264.761 436.605 264.411 438.415C263.621 442.465 266.671 446.815 269.921 448.815C276.801 453.095 284.751 448.475 286.651 441.555ZM327.552 387.665C324.521 392.832 321.182 397.811 317.552 402.575C317.459 402.7 317.366 402.825 317.272 402.951L317.14 403.129C314.68 406.441 312.207 409.772 308.351 411.515C308.242 411.54 308.129 411.495 308.066 411.402C308.004 411.309 308.006 411.187 308.071 411.095C314.612 404.275 319.942 395.095 324.572 386.895C327.366 382.074 329.594 376.947 331.212 371.615C332.032 368.801 332.412 365.95 332.793 363.096C333.044 361.214 333.295 359.331 333.672 357.455C333.816 356.996 334.241 356.683 334.722 356.683C335.204 356.683 335.629 356.996 335.772 357.455C337.922 367.485 332.422 379.175 327.552 387.665ZM372.158 330.377C373.805 334.245 375.512 338.257 373.252 342.325C370.662 347.005 364.752 347.755 361.302 343.655C360.881 343.251 360.263 343.13 359.72 343.345C359.178 343.56 358.811 344.072 358.782 344.655C359.122 349.235 359.112 354.355 354.592 356.915C352.564 358.062 350.149 358.308 347.932 357.595L345.831 356.595C345.109 355.67 344.099 355.012 342.961 354.725L343.081 354.655C343.421 354.444 343.535 354.004 343.341 353.655C343.291 353.575 343.231 353.495 343.181 353.405C342.973 353.076 342.591 352.898 342.205 352.949C341.818 353.001 341.497 353.272 341.381 353.645C339.571 358.225 348.892 361.035 351.892 360.725C358.992 359.985 361.452 354.115 361.762 348.045C371.502 354.575 383.553 337.795 373.552 328.685C373.213 328.246 372.581 328.165 372.142 328.505C371.703 328.845 371.623 329.476 371.962 329.915L372.101 330.241L372.103 330.248L372.106 330.254L372.15 330.356L372.158 330.377ZM331.721 276.825C331.571 276.202 331.846 275.554 332.4 275.231C332.954 274.909 333.653 274.987 334.121 275.425C336.448 277.258 337.948 276.875 338.621 274.275C340.315 272.682 340.465 270.858 339.071 268.805C338.571 267.645 339.731 265.805 341.071 266.805C348.931 272.505 356.171 266.145 357.941 258.115C359.821 249.585 357.391 239.725 347.441 238.615C346.717 238.554 346.16 237.947 346.16 237.22C346.16 236.493 346.717 235.887 347.441 235.825C359.841 234.475 362.961 249.825 360.891 258.935C358.891 267.695 351.051 274.575 342.691 271.095C343.031 273.675 342.491 276.305 340.271 278.095C338.835 279.251 336.947 279.682 335.151 279.265C335.761 287.665 326.671 292.985 318.391 290.815C313.887 289.633 310.199 286.405 308.43 282.098C306.661 277.79 307.017 272.901 309.391 268.895C309.761 268.285 310.841 268.695 310.571 269.395C308.061 275.985 309.511 283.895 316.331 287.265C323.681 290.855 335.071 286.425 331.721 276.825ZM271.391 213.815C271.661 213.045 270.411 212.505 270.071 213.255C266.751 220.545 270.671 229.095 279.151 229.785C285.386 230.349 290.938 225.851 291.681 219.635C295.285 220.708 299.164 220.35 302.511 218.635C307.88 215.525 309.69 209.385 308.07 203.835C315.49 205.005 322.5 199.365 323.74 191.745C325.2 182.835 319.01 171.835 310.01 169.435C309.527 169.315 309.023 169.529 308.772 169.96C308.522 170.391 308.587 170.935 308.93 171.295C310.016 172.344 311.135 173.317 312.233 174.271L312.234 174.271C316.591 178.057 320.617 181.554 320.84 188.375C321.11 196.495 313.84 203.355 305.841 199.995C304.531 199.445 303.491 201.195 304.101 202.255C306.241 206.005 306.301 210.815 303.301 214.175C301.871 215.755 294.011 219.165 291.731 216.555C291.629 215.567 291.414 214.594 291.091 213.655C290.871 212.953 290.176 212.512 289.447 212.61C288.718 212.709 288.166 213.32 288.141 214.055C287.967 215.213 288.185 216.396 288.761 217.415C288.991 222.445 285.511 227.115 279.831 227.035C273.041 226.945 269.261 219.815 271.391 213.815ZM195.471 101.955C196.571 101.885 196.681 103.485 195.721 103.795C192.931 104.685 196.091 112.245 196.881 113.535C198.392 116.07 200.779 117.962 203.592 118.855C210.092 120.855 216.402 116.035 215.762 109.155C215.768 108.584 216.076 108.059 216.572 107.775C217.068 107.491 217.677 107.491 218.172 107.775C222.452 110.455 225.032 104.775 225.732 101.535C226.421 98.1982 226.472 94.761 225.882 91.4051C225.692 90.1951 226.962 88.6951 228.232 89.6051C231.533 91.9851 235.593 89.1451 236.363 85.6051C237.023 82.6051 235.953 79.3551 234.893 76.5251C234.773 76.2094 234.641 75.8503 234.497 75.4568L234.496 75.4548C232.978 71.3245 230.073 63.4232 226.102 62.3551C224.932 62.0551 225.292 60.4651 226.372 60.3551C230.419 60.0057 232.3 63.6814 233.945 66.8955L233.947 66.8983L233.95 66.9052C234.092 67.183 234.233 67.4572 234.373 67.7251C236.663 72.1851 239.113 77.1251 239.593 82.1751C240.153 88.0351 235.283 95.1751 229.382 93.6851C229.833 98.6251 229.382 104.065 226.572 108.095C224.961 110.659 221.971 112.01 218.982 111.525C218.212 120.165 208.532 124.885 200.562 120.895C196.063 118.492 193.023 114.04 192.421 108.975C192.071 106.245 192.011 102.195 195.471 101.955ZM178.091 186.731C177.742 186.634 177.38 186.83 177.271 187.175C175.431 192.865 173.681 202.815 181.781 204.765C184.871 205.505 188.341 204.165 190.681 201.865C192.911 209.625 200.751 216.265 208.681 216.555C219.231 216.945 222.701 207.105 222.891 198.215C225.779 199.929 229.094 200.789 232.451 200.695C238.975 200.259 240.627 192.907 241.885 187.312C242.04 186.621 242.19 185.956 242.341 185.335C242.554 184.562 242.1 183.763 241.326 183.55C240.553 183.337 239.754 183.792 239.541 184.565C239.206 185.473 238.899 186.694 238.565 188.018L238.565 188.018C237.787 191.111 236.866 194.773 235.101 196.355C232.851 198.385 223.701 197.205 222.701 193.545L222.611 192.785C222.561 192.645 222.561 192.495 222.561 192.365C222.301 190.515 219.511 191.085 219.441 192.785C219.422 193.305 219.487 193.825 219.631 194.325C220.461 202.105 218.891 213.885 208.691 213.535C201.211 213.235 193.731 206.035 192.901 198.535C193.482 197.081 193.545 195.471 193.081 193.975C192.911 193.396 192.38 192.998 191.776 192.998C191.173 192.998 190.641 193.396 190.471 193.975C190.095 195.44 189.96 196.957 190.071 198.465C189.356 199.817 188.193 200.877 186.781 201.465C183.441 202.755 179.941 202.175 178.361 198.865C176.651 195.305 177.661 191.195 178.561 187.535C178.647 187.184 178.439 186.828 178.091 186.731ZM116.431 151.595C116.613 151.283 117.014 151.178 117.326 151.36C117.638 151.542 117.743 151.943 117.561 152.255C117.348 152.661 117.116 153.096 116.871 153.554L116.87 153.555C114.817 157.393 111.89 162.864 112.131 166.875C112.591 174.695 124.001 174.605 129.071 173.205C130.321 172.855 131.661 174.355 130.851 175.515C127.611 180.155 128.451 187.305 133.901 189.935C139.351 192.565 143.52 189.005 147.22 185.465C147.582 185.131 148.12 185.072 148.545 185.321C148.97 185.569 149.183 186.066 149.07 186.545C147.72 193.635 137.491 195.685 131.921 192.615C126.351 189.545 124.461 182.525 126.581 176.855C120.941 177.525 114.181 176.455 110.791 171.855C106.577 166.066 112.336 157.611 115.824 152.489L115.825 152.488C116.036 152.178 116.239 151.88 116.431 151.595ZM108.271 220.155C108.481 219.825 108.061 219.355 107.721 219.595V219.635C103.071 222.885 99.1613 228.095 101.111 233.955C102.821 239.105 107.611 241.615 112.611 242.175C111.231 248.795 112.361 256.155 118.491 260.095C123.341 263.195 131.221 262.475 133.491 256.585C133.981 255.365 132.251 254.625 131.401 255.365C127.391 258.895 122.681 260.235 118.471 255.955C114.541 251.945 114.671 246.165 116.061 241.165C116.196 240.693 116.102 240.186 115.807 239.793C115.513 239.401 115.052 239.168 114.561 239.165C109.611 239.145 104.251 237.005 103.491 231.465C103.009 228 105.028 225.013 106.935 222.193L106.935 222.192C107.4 221.505 107.858 220.827 108.271 220.155ZM92.7913 309.495C106.541 298.075 125.441 290.935 143.401 291.405C144.781 285.955 147.961 280.665 151.101 276.525C157.011 268.705 166.881 262.605 176.481 267.815C178.651 269.005 177.051 271.955 174.901 271.565C165.681 269.905 158.751 276.165 154.241 283.445C150.531 289.445 145.991 298.355 152.461 304.185C164.551 315.085 179.631 299.985 187.511 291.565C189.671 289.255 194.041 290.995 193.881 294.205C193.827 295.262 193.542 296.652 193.23 298.168C192.389 302.263 191.36 307.276 194.191 309.115C199.571 312.605 202.391 302.115 203.261 298.695C204.011 295.755 208.771 294.775 210.141 297.795C213.681 305.645 222.881 307.415 230.741 307.155C236.901 306.955 240.011 304.805 241.951 298.965C243.752 293.404 244.65 287.59 244.611 281.745C244.611 276.915 252.041 276.925 252.111 281.745C252.178 285.714 251.876 289.681 251.211 293.595C271.291 294.315 291.461 300.805 307.471 313.095C314.741 318.675 320.631 325.705 323.391 334.555C326.271 343.755 325.981 353.905 324.631 363.355C322.481 378.485 316.391 393.355 306.101 404.805C294.571 417.635 279.021 423.025 262.101 424.115C241.681 425.435 220.811 424.625 200.391 423.695C179.994 422.906 159.672 420.755 139.561 417.255L139.066 417.165C121.326 413.952 102.302 410.506 90.5613 395.545C80.7854 382.918 75.2799 367.508 74.8413 351.545C74.4813 335.525 80.3213 319.865 92.7913 309.495ZM53.1213 277.915C53.9713 277.735 53.6813 276.575 52.9213 276.495V276.465C50.3892 276.157 47.86 277.06 46.0951 278.901C44.3302 280.743 43.5359 283.308 43.9513 285.825C44.7913 290.765 49.1913 292.675 53.6113 293.565C50.1813 296.835 47.3513 300.945 49.1813 305.945C50.4455 309.448 53.7188 311.826 57.4413 311.945C55.7913 316.115 55.6013 320.225 59.7913 323.645C63.9813 327.065 71.4113 327.185 75.5013 323.645C75.8043 323.334 75.8935 322.872 75.7284 322.471C75.5634 322.069 75.1756 321.804 74.7413 321.795C73.4472 321.84 72.2043 322.112 70.9702 322.382C68.9335 322.827 66.9208 323.267 64.7413 322.675C58.6313 321.035 58.9113 315.545 61.3813 311.035C61.691 310.474 61.6386 309.783 61.248 309.275C60.8574 308.768 60.2029 308.54 59.5813 308.695C54.9413 309.605 50.6213 305.635 52.0613 300.855C52.9172 298.015 55.5069 295.891 57.7504 294.051C57.8922 293.935 58.0328 293.819 58.1713 293.705C59.3113 292.765 58.2513 291.205 57.0813 291.085C56.976 291.074 56.8697 291.063 56.7626 291.052C53.8838 290.751 50.4461 290.392 48.4213 288.155C44.5113 283.855 48.1813 278.915 53.1213 277.915Z" fill="#F7941E"/>
<path d="M213.264 539.805C213.076 537.777 213.033 535.739 213.134 533.705C206.871 532.271 200.877 529.851 195.374 526.535C196.094 534.325 189.374 543.535 182.504 547.305C189.787 553.213 198.091 557.738 207.004 560.655C209.28 556.994 211.024 553.027 212.184 548.875C212.933 545.911 213.296 542.862 213.264 539.805Z" fill="#009344"/>
<path d="M373.211 570.195C377.289 569.687 381.326 568.888 385.291 567.805C387.631 565.155 386.101 555.745 385.681 552.805C385.366 550.848 384.912 548.917 384.321 547.025C381.302 548.205 378.217 549.207 375.081 550.025C375.286 552.272 375.366 554.529 375.321 556.785C375.251 561.095 374.821 566.005 373.211 570.195Z" fill="#8DC63F"/>
<path d="M339.521 505.655C347.251 518.125 354.861 530.655 362.521 543.165C363.671 543.025 364.811 542.865 365.941 542.675C366.751 542.545 367.561 542.395 368.371 542.245L368.291 542.145C362.591 533.605 356.908 525.048 351.241 516.475C346.021 508.605 341.161 500.265 335.391 492.785C332.541 489.075 328.561 485.265 323.611 484.945C321.306 484.864 319.042 485.569 317.191 486.945C327.561 487.385 334.461 497.485 339.521 505.655Z" fill="#2B3990"/>
<path d="M323.421 538.565C325.231 539.245 327.081 539.855 328.951 540.405C329.14 540.195 329.428 540.102 329.705 540.162C329.981 540.222 330.205 540.425 330.291 540.695C330.291 540.695 330.291 540.755 330.291 540.785C339.605 543.324 349.285 544.247 358.911 543.515L340.621 513.625C334.271 503.225 328.071 489.925 314.191 489.355C313.131 490.305 312.121 491.285 311.141 492.165C304.561 498.025 298.141 504.215 291.141 509.495C292.021 511.055 292.951 512.585 293.931 514.085C301.121 525.095 311.011 533.885 323.421 538.565Z" fill="#00AEEF"/>
<path d="M261.801 519.265C263.685 522.349 265.78 525.299 268.071 528.095C271.71 532.535 275.724 536.654 280.07 540.405C283.93 540.405 287.46 537.985 290.01 535.215C291.302 533.811 292.381 532.224 293.21 530.505C293.63 529.635 293.92 528.725 294.27 527.855C289.792 522.667 285.924 516.984 282.74 510.915C280.184 513.271 277.267 515.202 274.1 516.635C270.87 518.095 265.961 519.655 261.801 519.265Z" fill="#009344"/>
<path d="M255.422 506.265C256.804 509.88 258.449 513.389 260.342 516.765C265.042 517.275 270.663 515.345 274.443 513.275C276.962 511.83 279.199 509.939 281.043 507.695C279.403 504.316 277.937 500.855 276.653 497.325C271.843 502.985 262.762 505.965 255.422 506.265Z" fill="#8DC63F"/>
<path fill-rule="evenodd" clip-rule="evenodd" d="M110.612 401.135C96.8526 394.775 88.8226 380.085 85.1326 365.935C81.2027 350.845 82.2727 333.235 92.6526 320.845C104.293 306.915 124.832 299.075 142.762 298.075C142.922 300.546 143.662 302.944 144.922 305.075C149.152 312.185 158.412 315.255 166.302 314.305C173.682 313.425 179.962 309.205 185.472 304.205C185.152 310.065 186.192 315.665 193.472 317.065C200.752 318.465 205.292 313.555 208.042 307.725C214.512 313.765 224.802 315.405 233.432 314.585C239.822 313.975 244.782 311.205 247.612 305.285C248.122 304.205 248.572 303.085 248.992 301.945C249.092 301.951 249.192 301.951 249.292 301.945C266.025 302.159 282.377 306.979 296.551 315.875C302.981 319.985 309.041 325.205 312.641 332.045C316.481 339.365 316.881 347.895 316.391 355.995C315.653 369.453 311.248 382.452 303.651 393.585C295.251 405.665 282.771 412.705 268.252 414.585C254.343 416.393 239.834 415.973 225.617 415.562H225.617H225.617H225.616H225.616C222.139 415.462 218.68 415.362 215.252 415.295C197.382 414.955 179.502 414.035 161.742 411.955C152.636 410.902 143.592 409.485 134.612 407.705C134.259 407.636 133.904 407.567 133.549 407.498C125.813 405.995 117.774 404.434 110.612 401.135ZM285.893 350.945C283.51 348.371 280.179 346.883 276.673 346.825C270.373 341.555 263.433 353.655 264.083 359.155C265.043 367.265 273.993 373.125 281.583 369.265C288.113 365.945 290.893 356.755 285.893 350.945ZM265.343 379.335C266.236 378.467 267.427 377.973 268.673 377.955C270.56 377.971 272.255 379.112 272.981 380.855C273.706 382.597 273.321 384.605 272.003 385.955C271.109 386.821 269.917 387.312 268.673 387.325C266.093 387.282 264.011 385.204 263.963 382.625C263.987 381.393 264.48 380.216 265.343 379.335ZM177.738 358.692C176.977 358.589 176.251 359.045 176.013 359.775C172.373 369.325 177.913 380.825 189.052 380.665C199.432 380.485 210.051 368.795 207.871 358.345C207.628 357.505 206.961 356.854 206.115 356.63C205.269 356.407 204.368 356.644 203.741 357.255C202.011 359.157 200.893 361.511 199.782 363.849C197.921 367.768 196.082 371.639 191.422 373.255C182.742 376.265 179.862 366.885 179.112 360.195C179.077 359.428 178.499 358.795 177.738 358.692ZM111.603 376.695C109.893 378.403 107.123 378.403 105.413 376.695C104.166 375.443 103.794 373.564 104.469 371.931C105.145 370.298 106.736 369.231 108.503 369.225C109.661 369.24 110.771 369.698 111.603 370.505C113.31 372.215 113.31 374.985 111.603 376.695ZM118.334 353.255C120.974 346.795 118.974 337.975 110.974 337.035C102.873 336.095 96.3825 344.405 98.5627 352.055C98.9165 353.391 99.9578 354.436 101.293 354.795L101.583 354.885C101.871 355.097 102.228 355.193 102.583 355.155C104.504 357.02 107.015 358.159 109.683 358.375C111.207 358.496 112.738 358.274 114.164 357.725C116.394 356.865 117.444 355.395 118.334 353.255Z" fill="white"/>
<path d="M189.184 536.585C191.374 532.685 191.444 528.715 192.514 524.665C190.41 523.21 188.406 521.616 186.514 519.895C185.404 524.135 181.184 528.315 178.114 531.105C175.804 533.215 173.194 535.045 170.254 535.105C173.362 538.906 176.799 542.426 180.524 545.625C183.954 543.095 187.004 540.485 189.184 536.585Z" fill="#8DC63F"/>
<path d="M163.29 501.945C165.95 500.565 168.1 498.405 170.609 496.855C169.697 494.625 168.903 492.349 168.23 490.035C163.75 493.525 157.33 495.345 151.891 495.525C152.551 498.355 153.271 501.165 154.08 503.955C157.275 504.119 160.454 503.425 163.29 501.945Z" fill="#8DC63F"/>
<path d="M167.26 486.285C165.992 480.735 165.428 475.047 165.58 469.355C165.589 468.911 165.728 468.48 165.98 468.115L144.07 464.465C147.35 473.865 149.15 483.785 151.39 493.565C155.121 493.051 158.735 491.894 162.07 490.145C163.942 489.061 165.684 487.766 167.26 486.285Z" fill="#009344"/>
<path d="M266.864 500.295C270.144 498.645 272.624 496.105 275.484 493.995C274.15 489.955 273.035 485.845 272.144 481.685C264.873 481.973 257.592 481.796 250.344 481.155C250.604 488.922 252.033 496.605 254.584 503.945C258.851 503.418 263.001 502.185 266.864 500.295Z" fill="#009344"/>
<path d="M184.883 518.355C179.466 512.98 175.063 506.672 171.883 499.735C167.683 504.125 160.703 507.315 154.793 506.195C155.353 508.005 155.953 509.795 156.623 511.575C159.558 519.3 163.615 526.552 168.663 533.095C176.453 533.035 179.933 522.795 184.883 518.355Z" fill="#009344"/>
<path fill-rule="evenodd" clip-rule="evenodd" d="M139.067 417.164C121.339 413.951 102.319 410.503 90.5703 395.545C80.7879 382.903 75.2854 367.474 74.8603 351.495C74.4903 335.495 80.3303 319.865 92.8003 309.495C106.55 298.075 125.41 290.935 143.41 291.405C144.79 285.955 147.97 280.665 151.11 276.525C157.02 268.705 166.89 262.605 176.49 267.815C178.66 269.005 177.06 271.955 174.91 271.565C165.69 269.905 158.76 276.165 154.25 283.445C150.54 289.445 146 298.355 152.47 304.185C164.52 315.085 179.64 299.985 187.52 291.565C189.68 289.255 194.05 290.995 193.89 294.205C193.836 295.262 193.551 296.652 193.239 298.168C192.398 302.263 191.369 307.276 194.2 309.115C199.58 312.605 202.4 302.075 203.27 298.695C204.02 295.795 208.78 294.795 210.15 297.795C213.69 305.645 222.89 307.415 230.75 307.155C236.91 306.965 240.02 304.805 241.96 298.965C243.761 293.404 244.659 287.59 244.62 281.745C244.64 276.915 252.05 276.925 252.12 281.745C252.187 285.714 251.885 289.681 251.22 293.595C271.3 294.315 291.48 300.805 307.48 313.095C314.75 318.675 320.64 325.705 323.4 334.555C326.28 343.755 325.99 353.905 324.64 363.355C322.49 378.485 316.4 393.355 306.11 404.805C294.56 417.635 279.01 423.025 262.11 424.115C241.69 425.435 220.82 424.625 200.4 423.695C180.003 422.906 159.681 420.755 139.57 417.255L139.067 417.164ZM142.74 298.065C124.81 299.025 104.27 306.905 92.6303 320.835C82.2703 333.235 81.2003 350.845 85.1103 365.925C88.8003 380.075 96.8303 394.765 110.59 401.125C117.596 404.339 125.436 405.887 132.944 407.369C133.494 407.478 134.043 407.586 134.59 407.695C143.577 409.468 152.62 410.885 161.72 411.945C179.48 414.025 197.36 414.935 215.23 415.285C218.647 415.352 222.095 415.452 225.562 415.552C239.764 415.963 254.285 416.384 268.23 414.575C282.75 412.675 295.2 405.635 303.63 393.575C311.227 382.442 315.632 369.443 316.37 355.985C316.86 347.885 316.46 339.355 312.62 332.035C309.02 325.195 302.96 319.975 296.53 315.865C282.356 306.969 266.004 302.149 249.27 301.935C249.17 301.941 249.07 301.941 248.97 301.935C248.59 303.075 248.1 304.195 247.59 305.275C244.76 311.195 239.8 313.965 233.41 314.575C224.78 315.395 214.49 313.715 208.02 307.715C205.27 313.545 200.66 318.435 193.45 317.055C186.24 315.675 185.16 310.095 185.45 304.195C179.94 309.185 173.66 313.415 166.28 314.295C158.39 315.245 149.13 312.175 144.9 305.065C143.64 302.934 142.9 300.536 142.74 298.065Z" fill="#231F20"/>
<path fill-rule="evenodd" clip-rule="evenodd" d="M0.782017 330.815C1.42202 345.455 11.072 358.615 24.262 364.415C9.26202 382.645 10.372 409.845 25.172 428.415C33.542 438.915 45.172 445.825 58.012 449.415C69.5607 452.622 81.6109 454.433 93.5752 456.231C98.2489 456.934 102.91 457.634 107.522 458.415L137.752 463.465C138.306 469.391 139.66 475.306 140.998 481.147L140.998 481.148C141.423 483.005 141.846 484.855 142.242 486.695C143.884 494.963 146.021 503.124 148.642 511.135C153.167 524.38 160.583 536.452 170.352 546.475C189.872 566.345 217.642 576.035 245.192 571.145C252.747 569.78 260.059 567.306 266.892 563.805C272.222 561.095 278.892 557.385 283.012 552.445C287.861 556.109 292.975 559.408 298.312 562.315C331.242 580.235 373.602 587.535 407.572 568.215C415.739 563.618 423.019 557.6 429.072 550.445L430.672 548.445C433.832 550.875 438.592 551.025 442.672 550.355C446.752 549.685 449.672 547.885 451.292 544.915C451.332 544.87 451.37 544.822 451.406 544.773C451.444 544.722 451.479 544.669 451.512 544.615C453.652 541.105 458.442 542.685 460.792 545.065C462.813 547.104 464.188 549.713 465.554 552.303C466.406 553.918 467.254 555.526 468.252 556.985C472.898 563.76 479.821 568.643 487.762 570.745C495.132 572.665 504.272 572.475 510.442 567.485C517.752 561.575 516.172 551.205 514.852 542.955C511.802 523.955 501.852 506.775 490.722 491.385C485.062 483.575 479.092 475.955 472.942 468.535C467.062 461.435 460.232 454.415 451.292 451.365C441.942 448.175 433.242 451.365 426.902 458.585C419.613 467.064 413.109 476.189 407.472 485.845C406.129 486.747 404.974 487.902 404.072 489.245C398.512 497.245 402.712 509.665 410.742 514.815C408.103 518.828 405.005 522.519 401.512 525.815C394.375 532.436 385.826 537.346 376.512 540.175C376.533 539.324 376.277 538.488 375.782 537.795C369.035 527.695 362.259 517.618 355.452 507.565C354.154 505.636 352.877 503.612 351.583 501.559C347.155 494.536 342.522 487.188 336.122 482.235C328.972 476.695 319.842 475.865 312.512 481.485C309.193 484.034 306.123 486.954 303.07 489.858L303.07 489.858L303.07 489.858L303.07 489.858L303.069 489.859L303.069 489.859L303.069 489.859L303.069 489.86L303.068 489.86L303.068 489.86L303.068 489.86L303.067 489.861L303.067 489.861L303.067 489.861L303.067 489.861L303.066 489.862C301.834 491.034 300.604 492.204 299.362 493.345C298.672 493.981 297.979 494.613 297.288 495.246L297.279 495.254C294.187 498.08 291.104 500.897 288.222 503.935C285.528 498.496 283.227 492.872 280.924 487.243C280.106 485.245 279.288 483.246 278.452 481.255C287.237 480.498 295.888 478.613 304.192 475.645C332.042 465.505 355.192 439.965 350.722 409.175C369.252 400.875 388.072 388.845 396.772 369.835C404.082 353.885 403.772 333.735 392.512 319.975C402.772 311.245 412.882 301.975 419.512 290.125C427.052 276.735 429.062 261.125 427.642 246.005C426.222 230.885 422.152 215.655 417.142 201.175C412.242 187.015 405.772 172.915 395.042 162.175C385.042 152.175 371.502 145.325 357.322 145.375C359.682 121.305 352.322 96.8151 336.132 78.5451C319.942 60.2751 295.702 49.7551 271.302 49.7351C268.302 27.9551 256.642 2.8151 232.252 0.735097C217.592 -0.524903 202.842 7.7951 192.532 17.5851C183.658 26.0444 177.161 36.6861 173.692 48.4451C165.222 45.7651 155.542 49.2751 149.352 55.7051C140.972 64.4151 139.682 77.0251 139.352 88.7051C114.452 90.7551 90.942 105.285 78.832 127.365C67.832 147.505 67.122 172.275 76.082 193.165C57.692 189.165 37.522 198.725 26.082 213.795C8.45202 237.055 13.362 269.045 23.742 294.515C9.96202 300.855 0.0720174 315.285 0.782017 330.815ZM144.072 464.465L165.982 468.095C165.73 468.46 165.591 468.891 165.582 469.335C165.429 475.027 165.994 480.715 167.262 486.265C165.698 487.744 163.97 489.039 162.112 490.125C158.777 491.874 155.163 493.031 151.432 493.545C150.929 491.354 150.448 489.155 149.968 486.955L149.968 486.954L149.967 486.954L149.967 486.953L149.967 486.952L149.967 486.951L149.967 486.95L149.967 486.949L149.966 486.949L149.966 486.948L149.966 486.947L149.966 486.946L149.966 486.945L149.965 486.944L149.965 486.944L149.965 486.943L149.965 486.942L149.965 486.941L149.965 486.94L149.964 486.94L149.964 486.939L149.964 486.938L149.964 486.937L149.964 486.936L149.963 486.935L149.963 486.935L149.963 486.934L149.963 486.933C148.304 479.342 146.644 471.748 144.072 464.465ZM168.192 490.035C163.712 493.525 157.292 495.345 151.852 495.525H151.892C152.552 498.355 153.272 501.165 154.042 503.945C157.235 504.112 160.415 503.422 163.252 501.945C164.766 501.159 166.115 500.121 167.46 499.086L167.46 499.086C168.477 498.303 169.491 497.523 170.572 496.855C169.66 494.625 168.865 492.349 168.192 490.035ZM254.542 520.885C245.812 524.385 237.752 527.575 227.922 527.765C217.754 528.044 207.71 525.477 198.922 520.355C190.863 515.657 184.207 508.89 179.642 500.755C176.187 494.518 174.649 487.849 173.103 481.141C172.148 476.997 171.189 472.837 169.772 468.755L211.202 475.675C211.924 475.795 212.647 475.916 213.372 476.037L213.372 476.037L213.373 476.037L213.373 476.037L213.374 476.038L213.374 476.038L213.375 476.038L213.375 476.038L213.376 476.038L213.377 476.038L213.377 476.038L213.378 476.038L213.378 476.038L213.379 476.038L213.379 476.038L213.38 476.039L213.38 476.039L213.381 476.039L213.381 476.039L213.382 476.039L213.383 476.039L213.383 476.039L213.384 476.039L213.384 476.039L213.385 476.039L213.385 476.039C223.488 477.726 233.787 479.446 244.122 480.565C243.582 495.095 247.582 508.715 254.582 520.885H254.542ZM250.342 481.159L250.302 481.155H250.342L250.342 481.159ZM250.342 481.159C257.576 481.796 264.844 481.972 272.101 481.685C272.992 485.846 274.107 489.955 275.441 493.995C274.514 494.679 273.627 495.408 272.739 496.137L272.739 496.138C270.889 497.658 269.038 499.18 266.821 500.295C262.959 502.185 258.809 503.418 254.542 503.945C252.006 496.604 250.59 488.922 250.342 481.159ZM156.562 511.575C155.892 509.795 155.292 508.005 154.732 506.195C160.642 507.315 167.622 504.125 171.822 499.735C175.002 506.672 179.406 512.98 184.822 518.355C183.205 519.806 181.745 521.875 180.24 524.008C177.138 528.403 173.847 533.068 168.602 533.135C163.565 526.577 159.522 519.312 156.602 511.575H156.562ZM178.102 531.095C175.792 533.185 173.182 535.015 170.242 535.095C173.346 538.903 176.779 542.43 180.502 545.635C183.942 543.115 186.982 540.495 189.172 536.575C190.663 533.905 191.172 531.199 191.682 528.48C191.921 527.207 192.161 525.931 192.502 524.655C190.399 523.2 188.394 521.606 186.502 519.885C185.392 524.095 181.172 528.305 178.102 531.095ZM182.492 547.265C189.372 543.515 196.082 534.265 195.362 526.495C200.865 529.811 206.86 532.231 213.122 533.665C213.021 535.699 213.064 537.737 213.252 539.765C213.28 542.819 212.914 545.865 212.162 548.825C211.002 552.977 209.258 556.944 206.982 560.605C198.075 557.699 189.775 553.188 182.492 547.295V547.265ZM209.232 561.305L209.742 561.455V561.485C214.669 562.844 219.728 563.665 224.831 563.935C226.661 559.989 227.926 555.804 228.591 551.505C229.16 547.513 228.757 543.763 228.347 539.954C228.182 538.411 228.015 536.858 227.911 535.275H226.321C222.689 535.225 219.069 534.857 215.502 534.175C217.301 538.705 216.072 545.185 214.902 549.585C213.835 553.839 211.905 557.828 209.232 561.305ZM247.863 561.565C241.105 563.394 234.121 564.246 227.122 564.095C232.032 555.605 234.212 543.805 230.272 535.275C236.473 535.034 242.612 533.954 248.523 532.065C249.193 533.317 249.896 534.582 250.605 535.859L250.609 535.866L250.611 535.87C254.482 542.838 258.556 550.171 258.733 557.875C255.208 559.385 251.574 560.628 247.863 561.595V561.565ZM264.982 554.695C265.572 554.355 266.152 553.995 266.722 553.635V553.665C266.874 549.662 266.395 545.659 265.302 541.805C264.065 537.57 261.934 534.193 259.723 530.69L259.722 530.689L259.721 530.687L259.72 530.686L259.719 530.684C259.107 529.714 258.489 528.735 257.882 527.725C255.809 528.975 253.635 530.049 251.382 530.935C254.081 535.369 256.335 540.058 258.112 544.935C259.552 548.625 261.102 552.765 260.982 556.765C262.315 556.118 263.649 555.428 264.982 554.695ZM268.632 552.325C269.077 547.456 268.546 542.547 267.072 537.885C269.904 541.008 272.909 543.969 276.072 546.755C274.788 547.664 273.528 548.639 272.264 549.617C271.065 550.544 269.863 551.474 268.632 552.355V552.325ZM291.291 537.975C288.791 540.325 285.642 542.245 282.292 542.325V542.365C284.962 544.565 287.751 546.645 290.631 548.585C293.161 546.965 295.441 545.475 297.161 542.585C298.65 540.092 298.89 537.693 299.143 535.158C299.207 534.51 299.273 533.854 299.36 533.185L299.171 533.006C298.286 532.168 297.41 531.339 296.561 530.405C295.387 533.288 293.587 535.874 291.291 537.975ZM293.292 550.325C298.202 547.755 302.292 541.325 302.342 535.835C306.982 539.784 312.169 543.041 317.741 545.505C320.571 546.744 323.469 547.823 326.421 548.735C325.96 550.873 325.269 552.955 324.361 554.945C323.466 556.806 322.193 558.507 320.932 560.192L320.931 560.193C320.247 561.107 319.566 562.017 318.951 562.945C309.973 559.717 301.377 555.508 293.322 550.395L293.292 550.325ZM327.062 555.685C325.738 558.711 324.005 561.541 321.912 564.095C325.072 565.145 328.192 566.095 331.362 566.905C332.922 564.163 334.195 561.268 335.162 558.265C335.826 555.981 336.262 553.636 336.462 551.265C334.122 550.825 331.802 550.305 329.512 549.685C328.823 551.735 328.005 553.739 327.062 555.685ZM423.283 543.545C423.283 539.405 421.712 535.335 419.942 531.625C418.729 528.98 417.36 526.409 415.842 523.925C417.095 522.325 418.282 520.658 419.402 518.925C421.13 520.794 422.702 522.8 424.103 524.925C425.993 527.986 427.594 531.217 428.883 534.575C427.319 537.744 425.443 540.749 423.283 543.545ZM426.252 523.665C427.837 526.408 429.118 529.315 430.073 532.335C431.46 529.558 433.061 526.893 434.863 524.365C435.141 524.008 435.479 523.704 435.863 523.465C436.588 521.476 437.461 519.544 438.473 517.685C436.595 513.826 434.373 510.145 431.833 506.685L431.69 506.495L431.69 506.495C430.668 505.135 428.95 502.849 426.832 500.445C425.958 506.005 424.016 511.343 421.112 516.165C423.058 518.498 424.779 521.009 426.252 523.665ZM443.872 542.535C441.442 544.415 437.872 543.825 434.872 542.735C437.478 539.067 439.39 534.952 440.512 530.595C441.23 529.748 441.898 528.86 442.512 527.935L442.518 527.952C442.579 528.141 442.64 528.33 442.699 528.516L442.751 528.678L442.799 528.831L442.832 528.935C442.874 529.072 442.92 529.218 442.968 529.372L442.992 529.447L443.037 529.588C443.084 529.733 443.132 529.885 443.183 530.042L443.183 530.043L443.187 530.055L443.189 530.061C444.378 533.764 446.531 540.468 443.862 542.535H443.872ZM468.54 476.632C463.345 470.03 457.523 462.633 449.652 459.155H449.642C442.132 455.835 436.802 458.565 432.072 463.245C438.312 461.885 445.262 463.445 450.892 466.355C460.462 471.305 467.102 480.495 473.102 489.155C486.102 507.965 498.312 528.535 506.942 549.965C506.741 548.131 506.407 546.312 506.11 544.694L506.109 544.692L506.105 544.666L506.094 544.61C506.042 544.325 505.991 544.046 505.942 543.775C502.892 526.915 494.162 511.765 484.482 497.865C479.552 490.785 474.252 483.885 468.952 477.155L468.54 476.632ZM427.992 467.915C428.342 467.485 428.682 467.065 428.992 466.655C450.572 460.945 465.042 482.655 475.612 498.895C487.882 517.755 497.242 537.645 506.612 558.005C505.302 561.775 500.782 562.865 497.192 563.005C489.351 563.281 481.812 559.967 476.712 554.005C475.007 551.973 473.635 549.618 472.263 547.265C469.404 542.358 466.552 537.465 460.712 535.545C457.91 534.606 454.888 534.546 452.052 535.375C450.402 522.575 443.462 509.605 435.592 499.925C431.312 494.665 422.272 485.385 414.082 484.405C418.571 479.49 422.769 474.327 426.969 469.161L427.051 469.06L427.502 468.505L427.982 467.915H427.992ZM409.492 492.705C406.552 495.835 407.952 501.835 409.672 505.165C410.652 507.02 411.929 508.702 413.452 510.145C415.118 506.914 416.262 503.538 417.411 500.146L417.411 500.145C418.09 498.141 418.771 496.132 419.562 494.145C419.584 494.093 419.608 494.044 419.632 493.996C419.66 493.942 419.689 493.889 419.719 493.835L419.725 493.824C419.737 493.801 419.75 493.778 419.762 493.755C416.022 491.035 412.222 489.805 409.492 492.705ZM405.361 534.795C408.369 532.254 411.168 529.475 413.731 526.485C414.731 527.935 415.731 529.385 416.521 530.875C419.061 535.578 420.272 540.321 421.57 545.406L421.601 545.525C417.264 550.447 412.267 554.744 406.751 558.295C400.968 562.014 394.708 564.934 388.142 566.975C388.931 565.011 388.94 562.069 388.946 560.312C388.947 560.021 388.948 559.762 388.952 559.545C389.095 554.92 388.566 550.298 387.382 545.825C393.873 543.029 399.928 539.314 405.361 534.795ZM384.314 547.035C381.294 548.215 378.209 549.217 375.072 550.035C375.278 552.286 375.358 554.546 375.312 556.805C375.202 561.105 374.812 566.015 373.202 570.205C377.281 569.697 381.318 568.898 385.284 567.815C387.508 565.259 386.236 556.633 385.744 553.293L385.741 553.271C385.716 553.105 385.694 552.953 385.674 552.815C385.359 550.858 384.904 548.927 384.314 547.035ZM372.472 556.795C372.472 560.069 371.948 563.226 371.425 566.381C371.2 567.736 370.975 569.091 370.792 570.455C367.117 570.817 363.424 570.964 359.732 570.895C351.027 570.685 342.368 569.552 333.902 567.515C337.043 562.811 339.018 557.425 339.662 551.805C350.375 553.41 361.289 553.071 371.882 550.805C372.248 552.782 372.449 554.785 372.482 556.795H372.472ZM335.382 492.785C332.532 489.075 328.552 485.265 323.602 484.945H323.612C321.302 484.864 319.034 485.573 317.182 486.955C327.512 487.385 334.452 497.485 339.512 505.655C345.237 514.92 350.896 524.173 356.558 533.432L356.59 533.485L356.621 533.537L356.653 533.588C358.605 536.78 360.557 539.972 362.512 543.165C363.662 543.025 364.802 542.865 365.932 542.675C366.742 542.545 367.552 542.395 368.362 542.245L368.282 542.145C362.595 533.592 356.912 525.035 351.232 516.475C349.606 514.024 348.016 511.528 346.422 509.026L346.421 509.025C342.896 503.494 339.355 497.935 335.382 492.785ZM311.142 492.155C311.708 491.657 312.273 491.128 312.848 490.59C313.289 490.176 313.736 489.758 314.192 489.345C326.557 489.853 332.827 500.462 338.537 510.124L338.539 510.127C339.239 511.311 339.93 512.48 340.623 513.615L358.913 543.505C349.287 544.237 339.607 543.314 330.293 540.775V540.685C330.207 540.415 329.983 540.211 329.707 540.152C329.43 540.092 329.142 540.185 328.953 540.395C327.083 539.845 325.233 539.235 323.422 538.555C311.012 533.875 301.122 525.085 293.912 514.065C292.932 512.565 292.002 511.035 291.122 509.475C296.435 505.509 301.369 501.022 306.289 496.547L306.29 496.547L306.294 496.543C307.91 495.073 309.526 493.604 311.152 492.155H311.142ZM294.098 528.175C294.135 528.078 294.173 527.981 294.212 527.885H294.222C289.749 522.687 285.887 516.993 282.712 510.915C280.156 513.271 277.239 515.202 274.072 516.635C270.892 518.075 265.982 519.625 261.822 519.235C263.699 522.329 265.787 525.289 268.072 528.095C271.691 532.543 275.686 536.672 280.012 540.435C283.872 540.405 287.402 538.015 289.952 535.245C291.245 533.841 292.323 532.254 293.152 530.535C293.429 529.962 293.649 529.371 293.867 528.786L293.868 528.785C293.944 528.581 294.02 528.377 294.098 528.175ZM281.073 507.695C279.229 509.939 276.992 511.83 274.473 513.275C270.693 515.345 265.072 517.275 260.372 516.765C258.479 513.389 256.834 509.88 255.452 506.265C262.792 505.965 271.873 502.985 276.683 497.325C277.968 500.855 279.433 504.316 281.073 507.695ZM33.632 294.725C34.842 297.415 33.932 300.435 30.932 301.365C18.452 305.215 9.17202 317.505 9.86202 330.815C10.552 344.125 21.122 355.225 33.862 357.925C37.122 358.565 38.362 363.335 35.862 365.565C13.932 385.005 21.302 418.665 44.452 433.475C55.027 440.211 67.5193 442.264 79.7116 444.268C80.6975 444.43 81.6813 444.591 82.662 444.755L127.932 452.305C158.692 457.498 189.465 462.648 220.252 467.755C228.872 469.185 237.652 470.575 246.482 471.485C247.326 471.242 248.232 471.332 249.012 471.735C267.312 473.415 285.722 472.855 303.082 466.145C326.552 457.065 346.852 434.335 340.922 407.625C340.512 405.775 341.082 403.155 343.082 402.315C359.982 395.055 377.502 385.215 386.782 368.635C394.752 354.405 394.812 334.565 382.302 322.935C380.552 321.305 380.392 317.845 382.302 316.235L382.721 315.883C395.652 305.004 409.484 293.367 415.232 276.925C421.172 259.925 418.792 241.285 414.602 224.175C407.292 194.355 391.002 149.905 352.422 154.355C349.342 154.705 347.822 151.305 348.232 148.855C352.072 125.715 344.992 100.835 329.072 83.5251C313.234 66.5378 290.768 57.3119 267.562 58.2651C265.245 58.2223 263.379 56.3517 263.342 54.0351C261.802 35.7451 252.452 9.5751 230.512 8.8651C217.872 8.4651 205.402 16.1451 196.772 24.8651C188.533 33.2592 182.852 43.8236 180.392 55.3251C180.047 56.5426 179.159 57.5326 177.986 58.0076C176.813 58.4826 175.487 58.3894 174.392 57.7551C167.232 53.0351 157.952 57.1251 153.392 63.6151C147.85 71.4962 147.622 81.9695 147.419 91.2895C147.41 91.6902 147.401 92.0889 147.392 92.4851C147.349 94.7095 145.556 96.5025 143.332 96.5451C119.692 97.0551 96.952 110.405 85.432 131.175C74.282 151.295 74.882 176.495 85.632 196.555C86.752 197.135 87.862 197.755 88.942 198.455C93.232 201.235 89.842 207.815 85.612 206.355C84.3289 206.492 83.0796 205.887 82.392 204.795C82.322 204.685 82.262 204.575 82.192 204.475C64.992 195.475 42.922 205.145 32.382 220.325C17.212 242.155 23.542 272.235 33.632 294.725Z" fill="#231F20"/>
<path fill-rule="evenodd" clip-rule="evenodd" d="M98.2829 347.405C99.1029 341.415 104.513 336.265 110.973 337.035C118.963 337.975 121.073 346.795 118.363 353.255C117.925 354.419 117.243 355.476 116.363 356.355C114.553 358.845 112.063 359.565 108.783 359.485C104.933 359.385 101.353 358.275 99.2829 354.775C98.1029 352.775 97.3929 349.725 98.2829 347.405ZM107.323 346.175C106.724 347.33 106.938 348.74 107.853 349.665C109.503 351.295 112.143 349.415 112.113 347.405C112.07 346.568 111.608 345.81 110.884 345.388C110.16 344.966 109.272 344.939 108.523 345.315C108.033 345.45 107.608 345.755 107.323 346.175Z" fill="#231F20"/>
<path fill-rule="evenodd" clip-rule="evenodd" d="M286.003 349.285C287.193 350.902 287.888 352.831 288.003 354.835C289.468 360.554 286.806 366.53 281.573 369.265C273.983 373.155 265.073 367.245 264.073 359.155C263.583 354.975 267.473 346.975 272.143 345.705C275.663 343.075 283.823 346.605 286.003 349.285ZM273.603 360.51C274.439 361.3 275.576 361.692 276.722 361.585C278.772 361.307 280.291 359.543 280.262 357.475C280.203 356.41 279.678 355.424 278.826 354.781C277.975 354.137 276.884 353.901 275.843 354.135C273.972 354.112 272.423 355.585 272.353 357.455C272.311 358.606 272.766 359.719 273.603 360.51Z" fill="#231F20"/>
<path d="M189.072 380.645C199.452 380.465 210.072 368.775 207.892 358.325C207.649 357.485 206.982 356.834 206.136 356.61C205.29 356.387 204.389 356.624 203.762 357.235C199.132 362.345 198.882 370.675 191.442 373.235C182.762 376.235 179.882 366.865 179.132 360.175C179.097 359.408 178.518 358.775 177.757 358.672C176.996 358.569 176.27 359.025 176.032 359.755C172.372 369.325 177.912 380.825 189.072 380.645Z" fill="#231F20"/>
<path d="M108.501 369.225C106.729 369.221 105.13 370.287 104.453 371.925C103.776 373.562 104.154 375.446 105.411 376.695C107.121 378.403 109.891 378.403 111.601 376.695C112.849 375.441 113.22 373.56 112.542 371.926C111.864 370.292 110.27 369.227 108.501 369.225Z" fill="#231F20"/>
<path d="M268.671 387.365C269.915 387.352 271.107 386.861 272.001 385.995C273.319 384.645 273.704 382.637 272.979 380.895C272.254 379.152 270.558 378.011 268.671 377.995C266.07 377.995 263.961 380.104 263.961 382.705C264.03 385.269 266.107 387.323 268.671 387.365Z" fill="#231F20"/>
<path d="M112.623 242.185C111.243 248.805 112.373 256.185 118.503 260.105C123.343 263.205 131.223 262.485 133.503 256.595C133.993 255.335 132.263 254.595 131.413 255.375C127.413 258.905 122.693 260.245 118.483 255.965C114.553 251.965 114.683 246.225 116.073 241.175C116.207 240.703 116.113 240.196 115.819 239.803C115.524 239.41 115.063 239.178 114.573 239.175C109.573 239.175 104.263 237.015 103.503 231.475C102.903 227.165 106.173 223.595 108.283 220.165C108.493 219.835 108.073 219.365 107.733 219.605C103.113 222.855 99.1726 228.035 101.133 233.935C102.833 239.095 107.593 241.625 112.623 242.185Z" fill="#231F20"/>
<path d="M53.5934 293.595C50.1333 296.865 47.3332 301.005 49.1632 305.975C50.4274 309.478 53.7009 311.856 57.4235 311.975C55.7435 316.145 55.7135 320.365 59.7736 323.675C63.8337 326.985 71.3939 327.195 75.4841 323.675C75.787 323.364 75.8762 322.902 75.7112 322.501C75.5461 322.099 75.1583 321.834 74.7241 321.825C71.3139 321.945 68.2438 323.655 64.7237 322.705C58.6135 321.035 58.8936 315.575 61.3636 311.065C61.6732 310.504 61.6209 309.813 61.2302 309.305C60.8396 308.798 60.1851 308.57 59.5636 308.725C54.9234 309.635 50.5633 305.665 52.0433 300.885C52.9534 297.885 55.8235 295.655 58.1535 293.735C59.2936 292.795 58.2335 291.235 57.0635 291.115C54.1234 290.805 50.5033 290.505 48.4032 288.185C44.4931 283.885 48.1632 278.975 53.1034 277.945C53.9534 277.765 53.6634 276.605 52.9034 276.525C50.3602 276.204 47.8152 277.106 46.0415 278.957C44.2678 280.807 43.4747 283.388 43.9031 285.915C44.7731 290.795 49.1732 292.705 53.5934 293.595Z" fill="#231F20"/>
<path d="M86.4812 414.505C83.8012 418.635 79.0712 420.255 75.0012 416.735C72.0012 414.175 71.4312 410.125 71.6312 406.435C71.6288 405.975 71.4126 405.542 71.0462 405.264C70.6798 404.986 70.2049 404.894 69.7612 405.015C63.9312 407.125 59.7612 401.835 59.3012 396.445C59.0132 392.055 60.3278 387.709 63.0012 384.215C63.5712 383.495 62.6512 382.485 61.9512 383.215C57.2712 387.855 55.1512 395.055 57.5712 401.415C59.3712 406.125 63.8512 409.085 68.6612 408.415C68.8012 413.805 71.0612 419.075 76.4312 421.205C81.2912 423.145 87.5612 420.995 88.5212 415.455C88.7835 414.892 88.5395 414.222 87.9762 413.96C87.4128 413.698 86.7435 413.942 86.4812 414.505Z" fill="#231F20"/>
<path d="M309.871 421.985C308.671 427.905 309.751 433.885 305.211 438.755C300.261 444.075 290.211 443.035 286.791 436.375C286.071 434.965 283.541 435.575 283.711 437.205C284.241 442.275 280.901 447.205 275.541 447.205C273.152 447.213 270.877 446.18 269.311 444.375C268.931 443.965 266.091 437.635 267.101 437.985C267.871 438.245 268.371 437.205 267.861 436.675C266.201 434.925 264.761 436.675 264.411 438.445C263.621 442.495 266.671 446.825 269.921 448.845C276.801 453.125 284.751 448.505 286.651 441.585C291.181 445.715 298.711 446.975 304.011 444.005C311.121 440.005 314.611 429.675 312.331 422.005C312.166 421.467 311.671 421.098 311.109 421.094C310.546 421.089 310.045 421.45 309.871 421.985Z" fill="#231F20"/>
<path d="M358.784 344.685C359.124 349.265 359.114 354.385 354.594 356.945C352.566 358.092 350.151 358.339 347.934 357.625L345.834 356.625C345.112 355.7 344.102 355.042 342.964 354.755L343.084 354.685C343.423 354.474 343.537 354.035 343.344 353.685C343.344 353.605 343.234 353.525 343.184 353.435C342.975 353.106 342.594 352.928 342.207 352.979C341.821 353.031 341.499 353.302 341.384 353.675C339.574 358.255 348.874 361.065 351.894 360.755C358.994 360.015 361.454 354.145 361.764 348.075C371.504 354.605 383.594 337.825 373.554 328.715C373.214 328.276 372.583 328.195 372.144 328.535C371.705 328.875 371.624 329.506 371.964 329.945C373.664 333.945 375.604 338.125 373.254 342.355C370.664 347.035 364.754 347.785 361.304 343.665C360.88 343.259 360.258 343.139 359.714 343.36C359.17 343.58 358.806 344.099 358.784 344.685Z" fill="#231F20"/>
<path d="M316.334 287.235C309.514 283.865 308.064 275.955 310.574 269.365C310.844 268.665 309.764 268.255 309.394 268.865C307.02 272.871 306.664 277.76 308.432 282.067C310.201 286.375 313.89 289.603 318.394 290.785C326.674 292.955 335.764 287.635 335.154 279.235C336.945 279.661 338.833 279.24 340.274 278.095C342.494 276.335 343.034 273.705 342.694 271.095C351.054 274.575 358.904 267.695 360.894 258.935C362.964 249.835 359.844 234.475 347.444 235.825C346.719 235.886 346.162 236.493 346.162 237.22C346.162 237.947 346.719 238.554 347.444 238.615C357.394 239.725 359.824 249.615 357.944 258.115C356.174 266.115 348.944 272.505 341.074 266.805C339.734 265.805 338.574 267.645 339.074 268.805C340.461 270.865 340.311 272.688 338.624 274.275C337.957 276.875 336.457 277.258 334.124 275.425C333.656 274.987 332.956 274.908 332.403 275.231C331.849 275.554 331.573 276.202 331.724 276.825C335.074 286.425 323.684 290.855 316.334 287.235Z" fill="#231F20"/>
<path d="M279.132 229.815C285.367 230.379 290.919 225.881 291.662 219.665C295.266 220.738 299.145 220.38 302.492 218.665C307.862 215.555 309.672 209.415 308.052 203.865C315.472 205.035 322.482 199.395 323.722 191.775C325.182 182.865 318.972 171.865 309.992 169.465C309.509 169.345 309.004 169.559 308.754 169.99C308.504 170.421 308.568 170.965 308.912 171.325C314.302 176.535 320.542 179.865 320.822 188.405C321.092 196.525 313.822 203.405 305.822 200.025C304.512 199.475 303.472 201.225 304.082 202.285C306.222 206.035 306.302 210.845 303.282 214.205C301.852 215.785 293.992 219.205 291.712 216.585C291.61 215.597 291.396 214.624 291.072 213.685C290.852 212.983 290.158 212.542 289.428 212.64C288.699 212.739 288.147 213.35 288.122 214.085C287.948 215.243 288.167 216.426 288.742 217.445C288.972 222.445 285.492 227.145 279.812 227.065C273.022 226.975 269.242 219.875 271.372 213.845C271.642 213.075 270.372 212.535 270.052 213.285C266.752 220.545 270.672 229.095 279.132 229.815Z" fill="#231F20"/>
<path d="M181.773 204.735C184.863 205.475 188.334 204.135 190.674 201.835C192.924 209.595 200.764 216.235 208.674 216.525C219.224 216.915 222.674 207.075 222.884 198.185C225.772 199.899 229.087 200.759 232.444 200.665C239.774 200.175 240.954 190.955 242.334 185.305C242.547 184.532 242.093 183.733 241.319 183.52C240.546 183.307 239.747 183.762 239.534 184.535C238.414 187.535 237.614 194.065 235.094 196.325C232.844 198.325 223.704 197.175 222.694 193.515L222.604 192.755C222.604 192.615 222.604 192.465 222.554 192.335C222.294 190.485 219.504 191.055 219.434 192.755C219.415 193.275 219.479 193.795 219.624 194.295C220.454 202.075 218.884 213.855 208.684 213.505C201.204 213.245 193.684 206.045 192.894 198.505C193.474 197.051 193.537 195.441 193.074 193.945C192.904 193.366 192.372 192.968 191.769 192.968C191.165 192.968 190.633 193.366 190.464 193.945C190.087 195.41 189.952 196.927 190.064 198.435C189.348 199.787 188.185 200.847 186.773 201.435C183.433 202.725 179.933 202.145 178.353 198.835C176.643 195.275 177.653 191.165 178.553 187.505C178.639 187.154 178.431 186.798 178.083 186.701C177.734 186.604 177.372 186.8 177.263 187.145C175.433 192.865 173.683 202.815 181.773 204.735Z" fill="#231F20"/>
<path d="M200.541 120.875C208.541 124.875 218.191 120.145 218.961 111.505C221.951 111.99 224.94 110.639 226.551 108.075C229.361 104.075 229.811 98.6051 229.361 93.6651C235.261 95.1551 240.131 88.0151 239.571 82.1551C239.091 77.1551 236.641 72.1551 234.351 67.7051C232.611 64.3151 230.771 59.9551 226.351 60.3351C225.271 60.4251 224.911 62.0151 226.081 62.3351C230.431 63.4551 233.501 72.8751 234.871 76.5051C235.931 79.3351 237.001 82.5051 236.341 85.5851C235.571 89.1651 231.511 92.0051 228.211 89.5851C226.941 88.6751 225.671 90.1751 225.861 91.3851C226.451 94.741 226.4 98.1782 225.711 101.515C225.011 104.735 222.431 110.435 218.151 107.755C217.656 107.471 217.047 107.471 216.551 107.755C216.056 108.039 215.747 108.564 215.741 109.135C216.381 116.015 210.071 120.795 203.571 118.835C200.759 117.942 198.372 116.05 196.861 113.515C196.071 112.225 192.911 104.665 195.701 103.775C196.701 103.465 196.551 101.865 195.451 101.935C191.991 102.175 192.021 106.225 192.381 108.935C192.981 114.012 196.029 118.472 200.541 120.875Z" fill="#231F20"/>
<path d="M126.583 176.855C124.463 182.525 126.353 189.545 131.923 192.615C137.493 195.685 147.723 193.615 149.073 186.545C149.186 186.066 148.973 185.569 148.548 185.321C148.123 185.072 147.585 185.131 147.223 185.465C143.523 189.005 139.363 192.565 133.903 189.935C128.443 187.305 127.613 180.155 130.853 175.515C131.663 174.355 130.323 172.855 129.073 173.205C124.003 174.605 112.593 174.695 112.133 166.875C111.863 162.385 115.603 156.065 117.563 152.255C117.745 151.943 117.64 151.542 117.328 151.36C117.016 151.178 116.615 151.283 116.433 151.595C113.053 156.595 106.323 165.715 110.793 171.825C114.183 176.455 120.943 177.525 126.583 176.855Z" fill="#231F20"/>
<path d="M333.629 357.455C332.679 362.175 332.529 366.945 331.17 371.615C329.551 376.947 327.323 382.074 324.53 386.895C319.9 395.085 314.53 404.275 308.031 411.095C307.939 411.192 307.932 411.342 308.015 411.447C308.097 411.553 308.245 411.581 308.361 411.515C312.431 409.675 314.96 406.065 317.56 402.575C321.19 397.811 324.529 392.832 327.56 387.665C332.43 379.175 337.929 367.485 335.739 357.455C335.601 356.987 335.172 356.667 334.684 356.667C334.197 356.667 333.767 356.987 333.629 357.455Z" fill="#231F20"/>
<path d="M69.7007 341.595C67.6938 349.366 67.0878 357.432 67.911 365.415C68.7409 372.675 70.2707 380.965 74.5001 387.055C74.7831 387.392 75.253 387.504 75.6577 387.332C76.0624 387.159 76.3069 386.742 76.2599 386.305C74.5101 379.165 71.6405 372.615 70.6406 365.225C69.5787 357.488 69.6629 349.637 70.8906 341.925C71.0706 341.155 69.8907 340.805 69.7007 341.595Z" fill="#231F20"/>
<path d="M87.0737 403.705C84.4516 401.14 82.0683 398.342 79.9532 395.345C79.5632 394.845 78.7531 395.395 78.9531 395.955C81.0333 402.955 88.8338 411.045 96.4244 411.735C97.2944 411.815 97.3644 410.685 96.8244 410.275C93.6542 407.905 90.0739 406.365 87.0737 403.705Z" fill="#231F20"/>
</svg>
