<svg width="534" height="590" viewBox="0 0 534 590" fill="none" xmlns="http://www.w3.org/2000/svg">
<path d="M300.974 141.426C300.949 141.405 300.925 141.382 300.904 141.356C299.754 139.616 299.804 137.496 299.504 135.486C299.394 134.736 299.314 133.986 299.224 133.236C295.424 133.316 291.624 133.366 287.814 133.366C288.167 134.697 288.431 136.05 288.604 137.416C288.894 139.606 289.364 142.056 288.454 144.106C292.634 143.299 296.808 142.406 300.974 141.426Z" fill="#BE1E2D"/>
<path d="M285.896 144.606C284.806 142.756 285.006 140.606 284.836 138.466C284.706 136.766 284.476 135.056 284.336 133.346C280.846 133.346 277.336 133.266 273.866 133.156C271.326 133.066 268.786 132.946 266.246 132.816C268.284 137.373 268.978 142.418 268.246 147.356C274.156 146.606 280.036 145.676 285.896 144.606Z" fill="#BE1E2D"/>
<path d="M248.074 149.316C248.009 149.217 247.958 149.109 247.924 148.996C247.034 145.936 247.354 142.656 247.204 139.486C247.064 136.726 246.674 133.946 246.734 131.186C242.584 130.716 238.434 130.186 234.314 129.496C236.674 135.186 237.314 143.736 235.374 149.876C239.608 149.776 243.841 149.589 248.074 149.316Z" fill="#BE1E2D"/>
<path d="M250.726 149.116C255.216 148.796 259.726 148.366 264.156 147.856C264.066 145.856 264.096 143.936 263.966 141.966C263.776 138.856 263.086 135.746 263.086 132.626C258.719 132.353 254.359 131.993 250.006 131.546C250.589 133.648 250.971 135.801 251.146 137.976C251.526 141.566 252.036 145.546 250.796 148.976C250.775 149.024 250.752 149.071 250.726 149.116Z" fill="#BE1E2D"/>
<path d="M313.065 137.416C312.065 136.516 311.895 135.156 311.625 133.876C311.555 133.536 311.505 133.186 311.445 132.876L305.355 133.116L302.645 133.176C303.545 135.786 304.125 138.616 303.275 140.906C313.523 138.443 323.64 135.459 333.585 131.966C331.185 131.856 328.385 131.966 328.315 131.966C325.905 132.116 323.485 132.266 321.075 132.396L314.955 132.706L315.045 132.956C315.465 134.206 316.045 135.466 315.585 136.776C315.425 137.28 315.016 137.667 314.503 137.797C313.99 137.927 313.446 137.783 313.065 137.416Z" fill="#BE1E2D"/>
<path d="M152.964 104.336C151.964 108.906 150.344 113.336 148.964 117.846C146.824 124.746 145.964 131.396 144.964 138.496C144.95 138.554 144.93 138.611 144.904 138.666C150.364 140.159 155.858 141.519 161.384 142.746C160.874 137.536 162.384 132.136 163.674 127.126C165.194 121.326 166.954 115.126 170.234 110.126C164.614 108.036 158.944 106.066 153.144 104.426L152.964 104.336Z" fill="#BE1E2D"/>
<path d="M142.134 434.916L140.634 434.716C144.414 452.116 142.634 471.406 142.824 489.076C142.824 490.986 141.354 493.306 139.354 493.636C117.064 497.316 94.4644 506.636 77.8044 522.296C70.6944 528.966 64.1644 538.736 66.9244 548.966C69.5544 558.666 79.6244 561.646 88.5444 562.426C109.304 564.216 131.274 559.206 149.814 549.946C158.814 545.436 166.814 539.816 171.414 530.546C175.504 522.256 176.874 512.776 177.824 503.666C179.967 482.253 180.872 460.733 180.534 439.216C167.654 438.096 154.834 436.606 142.134 434.916Z" fill="#009444"/>
<path d="M269.086 198.716C270.626 197.786 271.476 194.906 269.836 193.716C268.196 192.526 265.566 193.946 264.056 194.716C263.854 194.824 263.643 194.915 263.426 194.986C263.428 195.406 263.492 195.824 263.616 196.226C264.306 198.146 267.076 199.936 269.086 198.716Z" fill="white"/>
<path d="M121.725 91.6958C118.615 97.6958 115.145 103.006 112.925 109.546C111.029 115.216 109.568 121.023 108.555 126.916C113.281 128.669 118.018 130.336 122.765 131.916C122.865 125.756 125.205 119.126 126.965 113.776C128.575 108.866 129.965 100.716 135.185 98.3958C132.288 97.2081 129.455 95.8731 126.695 94.3958C125.135 93.6058 123.455 92.6758 121.725 91.6958Z" fill="#BE1E2D"/>
<path d="M275.206 439.926C271.676 440.236 268.206 440.486 264.746 440.696C258.746 441.076 252.746 441.339 246.746 441.486C246.746 441.626 246.806 441.766 246.826 441.926C247.516 449.426 247.616 456.926 247.736 464.466C247.836 470.466 248.586 476.946 247.426 482.876C245.216 494.166 234.426 500.876 226.246 507.766C210.616 521.066 189.616 543.606 200.726 565.956C205.616 575.756 215.726 581.616 226.516 578.316C236.186 575.316 245.246 568.696 252.516 561.796C266.709 548.416 276.182 530.795 279.516 511.576C281.516 499.806 280.226 487.856 278.996 476.076C277.709 464.036 276.446 451.986 275.206 439.926Z" fill="#009444"/>
<path d="M216.875 149.836C221.608 149.982 226.335 150.026 231.055 149.966C231.055 146.786 231.765 143.536 231.765 140.356C231.765 136.566 231.035 132.766 231.125 128.976C226.805 128.236 222.505 127.396 218.225 126.416C219.555 131.106 219.045 136.226 218.465 141.006C218.207 143.992 217.675 146.947 216.875 149.836Z" fill="#BE1E2D"/>
<path d="M111.434 184.136C113.294 183.246 113.434 180.796 111.504 180.136C110.194 179.686 108.504 180.136 107.164 180.396H106.984C107.344 182.696 109.124 185.246 111.434 184.136Z" fill="white"/>
<path fill-rule="evenodd" clip-rule="evenodd" d="M132.496 256.336C131.986 254.796 129.696 254.266 128.866 255.856C120.726 271.426 99.8557 276.066 86.6757 263.556C80.7657 257.966 77.9357 250.446 76.5957 242.556C78.169 225.776 80.049 209.053 82.2357 192.386C83.8557 180.066 85.6657 167.776 87.6657 155.516C88.211 152.156 88.9421 148.674 89.6838 145.141C90.6968 140.317 91.7295 135.398 92.3357 130.566C128.056 149.256 169.796 158.246 209.626 160.816C251.091 163.476 292.68 158.115 332.116 145.026C333.296 175.206 334.236 205.346 334.716 235.476C333.879 237.534 333.035 239.757 332.156 242.075L332.155 242.077L332.155 242.077C326.662 256.551 319.782 274.677 304.716 278.866C296.836 281.056 283.606 280.946 276.336 276.946C270.046 273.505 264.587 267.472 259.453 261.799L259.453 261.799L259.453 261.798L259.453 261.798L259.453 261.798C257.665 259.822 255.916 257.89 254.186 256.126C253.653 255.614 252.892 255.416 252.178 255.604C251.463 255.792 250.898 256.338 250.686 257.046C245.956 269.186 239.476 281.356 224.316 279.356C213.096 277.866 199.236 271.806 197.016 259.466C196.726 257.856 194.006 257.416 193.336 258.986C188.016 271.436 175.456 280.016 161.706 279.336C148.256 278.706 136.646 268.876 132.496 256.336ZM266.216 222.589C266.212 225.123 268.262 227.18 270.796 227.186C273.317 227.148 275.353 225.117 275.396 222.596C275.396 220.062 273.343 218.008 270.809 218.006C268.275 218.004 266.219 220.056 266.216 222.589ZM257.256 188.466C258.011 187.528 258.913 186.717 259.926 186.066C264.326 181.446 273.166 182.286 277.626 187.066C283.116 192.896 280.916 202.946 274.366 206.986C267.366 211.316 257.636 207.056 255.146 199.446C253.962 195.664 254.755 191.54 257.256 188.466ZM160.437 188.546C159.192 188.209 157.872 188.704 157.156 189.776C147.436 202.916 162.726 221.676 176.116 223.456C196.166 226.136 205.736 206.986 205.576 189.696C205.536 184.526 197.056 182.946 196.206 188.426C196.074 189.279 195.947 190.159 195.817 191.057C194.312 201.462 192.46 214.266 179.076 214.266C173.406 214.266 168.586 211.086 165.646 206.266C163.218 202.285 163.02 198.332 162.805 194.034C162.76 193.128 162.714 192.206 162.646 191.266C162.57 189.979 161.681 188.884 160.437 188.546ZM98.5857 179.386C98.6629 178.667 98.8103 177.957 99.0257 177.266C98.834 176.418 99.0004 175.528 99.4857 174.806C100.088 173.949 100.809 173.182 101.626 172.526C102.552 171.442 103.646 170.513 104.866 169.776C107.586 168.146 111.866 167.356 114.466 169.596C114.868 169.972 115.058 170.522 114.976 171.066C117.258 171.856 119.229 173.352 120.606 175.336C124.876 181.676 120.956 190.806 113.846 192.936C105.726 195.376 97.7857 187.406 98.5857 179.386ZM96.1157 202.546C101.646 202.546 101.636 211.116 96.1157 211.116C90.5957 211.116 90.6057 202.546 96.1157 202.546Z" fill="#BE1E2D"/>
<path fill-rule="evenodd" clip-rule="evenodd" d="M424.635 179.546L425.075 180.136C428.784 180.254 432.484 180.588 436.155 181.136C444.503 182.317 452.655 184.611 460.395 187.956C461.72 185.98 463.398 184.264 465.345 182.896C465.285 182.596 465.225 182.296 465.185 181.976C461.495 146.496 448.615 112.856 426.385 84.7858C381.645 28.3258 307.725 7.30581 237.845 13.5358C202.725 16.6558 167.725 28.3858 140.145 50.8758C129.701 59.3703 120.447 69.2322 112.635 80.1958C114.264 81.2503 115.846 82.409 117.425 83.5654L117.425 83.5656C119.304 84.9423 121.179 86.3156 123.125 87.5058C127.978 90.4752 133.077 93.0245 138.365 95.1258C142.775 96.8558 147.295 98.2058 151.835 99.5058C152.315 98.7158 153.835 99.0058 153.725 100.036C154.117 100.146 154.51 100.256 154.902 100.367C160.2 101.854 165.496 103.34 170.645 105.286C171.821 105.727 172.995 106.168 174.166 106.608C194.231 114.146 213.545 121.402 234.975 124.756C257.835 128.326 281.055 128.866 304.135 128.136C309.781 127.956 315.428 127.709 321.075 127.396C322.528 127.316 324.095 127.129 325.706 126.937C329.538 126.48 333.619 125.994 337.005 126.846C338.37 127.164 339.591 127.928 340.475 129.016C354.675 119.316 376.065 134.116 388.215 143.096C397.479 149.847 406.028 157.531 413.725 166.026C417.575 170.346 421.205 174.876 424.635 179.546ZM364.555 55.7258C359.868 53.6799 355.369 51.3111 350.867 48.9409C345.225 45.9702 339.579 42.9975 333.555 40.6558C324.008 36.9611 314.184 34.0286 304.175 31.8858C282.725 27.2358 260.725 26.0558 238.795 26.0558C237.875 26.0558 237.925 24.7458 238.795 24.6658C261.363 22.3937 284.146 23.6079 306.345 28.2658C317.435 30.5681 328.29 33.8819 338.775 38.1658C348.285 42.0858 358.575 46.5258 366.215 53.5658C367.465 54.7158 365.865 56.3058 364.555 55.7258ZM397.391 77.7972C399.972 79.7025 402.556 81.6096 405.405 83.0158C406.105 83.3558 407.065 82.6058 406.555 81.8658C400.365 72.7258 387.455 67.9758 377.365 64.7258C376.215 64.3558 375.775 66.1058 376.875 66.5058C382.304 68.566 387.507 71.1763 392.405 74.2958C394.111 75.3761 395.75 76.5863 397.391 77.7972Z" fill="#8DC63F"/>
<path d="M310.296 381.226C302.846 375.996 295.986 369.756 292.666 361.536C285.896 377.997 270.581 389.367 252.866 391.086C237.096 392.586 216.716 385.086 211.586 369.276C205.067 381.982 191.263 389.216 177.106 387.346C159.526 384.886 150.276 370.446 145.186 354.966C134.056 370.366 112.716 373.886 94.8257 369.096C85.1857 366.516 78.2657 360.676 74.4557 351.436C72.934 347.616 71.6874 343.693 70.7257 339.696C70.3724 350.396 70.1124 361.096 69.9457 371.796C69.8157 379.916 70.5357 388.796 69.9457 397.186C70.1511 397.491 70.3033 397.829 70.3957 398.186C74.3957 414.396 93.8457 417.536 107.806 419.806C128.619 423.186 149.546 425.676 170.586 427.276C207.416 430.116 246.076 432.406 282.766 426.936C297.686 424.706 316.836 422.036 325.266 407.866C328.866 401.806 330.676 394.956 331.676 387.916C324.726 390.066 316.406 385.516 310.296 381.226Z" fill="#8DC63F"/>
<path d="M324.546 266.826C319.976 274.006 314.266 280.416 305.766 282.716C297.266 285.016 285.046 285.256 276.676 281.866C267.416 278.106 260.246 268.866 253.426 261.436C248.216 273.866 240.526 285.376 225.146 283.876C213.456 282.726 199.256 276.736 194.506 265.356C187.276 277.086 173.886 284.726 159.866 283.296C146.686 281.956 135.476 273.156 130.176 261.296C120.986 274.416 103.246 279.196 88.9359 270.386C82.7815 266.5 78.0844 260.688 75.5759 253.856C75.2859 257.226 74.9759 260.596 74.7159 263.966C73.1459 283.806 72.0559 303.676 71.2559 323.556C75.2559 339.856 76.1359 359.476 94.8659 364.796C112.656 369.796 134.676 366.076 143.986 348.586C144.452 347.859 145.295 347.467 146.151 347.578C147.007 347.689 147.721 348.284 147.986 349.106C151.896 363.246 158.696 378.256 174.216 382.296C189.066 386.146 203.156 377.986 208.876 364.496C205.096 362.766 202.156 359.956 203.066 355.216C203.706 351.856 206.726 349.556 209.336 347.746C213.528 344.971 217.536 341.928 221.336 338.636C235.596 325.756 243.606 309.836 251.336 292.636C252.136 290.866 255.176 291.736 255.016 293.636C253.896 307.406 247.246 321.026 239.016 331.936C234.731 337.63 229.846 342.846 224.446 347.496C222.106 349.496 219.666 351.396 217.166 353.186C216.956 353.336 212.416 356.046 212.386 356.236C212.356 356.426 216.966 357.526 217.276 357.586C232.626 360.826 249.056 354.006 259.966 343.276C271.336 332.076 276.496 317.686 280.566 302.636C282.396 295.916 291.656 298.936 290.716 305.436C285.596 340.566 254.476 373.686 216.826 366.816C216.006 366.666 215.096 366.466 214.176 366.256C220.086 382.256 239.116 389.256 255.426 386.536C272.976 383.596 286.426 370.246 290.736 353.196C291.386 350.596 294.826 351.456 295.066 353.776C295.996 362.636 301.916 369.196 308.626 374.526C314.036 378.826 324.996 387.636 332.096 382.896C332.606 377.366 332.766 371.816 333.016 366.516C334.896 326.516 335.296 286.686 334.826 246.826C332.051 253.808 328.608 260.506 324.546 266.826Z" fill="#009444"/>
<path fill-rule="evenodd" clip-rule="evenodd" d="M405.265 272.856C406.362 272.995 407.414 273.09 408.413 273.181C414.173 273.704 418.211 274.071 419.395 281.706C422.035 298.706 431.785 316.836 451.455 316.546C459.605 316.426 467.675 312.826 471.885 305.606C476.346 297.996 476.121 288.468 475.916 279.827L475.916 279.823L475.905 279.39C475.898 279.094 475.892 278.799 475.885 278.506C475.785 274.376 480.425 272.046 483.885 273.926C498.885 282.186 518.575 275.096 522.245 257.646C523.875 249.84 521.42 241.742 515.731 236.156C510.041 230.569 501.899 228.263 494.125 230.036C488.505 231.336 485.645 224.266 488.885 221.036C491.545 212.256 493.465 202.176 487.205 194.496C484.906 191.742 481.615 190.004 478.045 189.656C476.167 190.248 474.393 191.128 472.785 192.266C470.908 193.784 469.479 195.64 468.037 197.512L468.037 197.512C467.389 198.353 466.739 199.197 466.045 200.016C462.105 204.666 458.435 204.536 452.755 203.016C448.61 201.946 444.482 200.793 440.352 199.64C436.762 198.638 433.17 197.635 429.565 196.686C422.565 194.826 413.955 193.396 408.565 198.476C405.685 205.356 408.085 215.146 413.065 221.276C416.005 224.866 413.395 231.376 408.155 229.716C390.895 224.236 376.455 244.716 385.285 259.716C389.619 266.888 396.963 271.717 405.265 272.856ZM489.755 263.756C490.16 263.381 490.588 262.997 491.028 262.602C495.195 258.86 500.374 254.208 496.755 248.256C495.965 246.946 497.895 245.906 498.755 247.086C503.925 254.146 498.525 263.526 490.695 265.446C490.25 265.581 489.77 265.39 489.538 264.986C489.306 264.583 489.384 264.072 489.725 263.756H489.755ZM455.185 225.186C456.285 224.626 455.295 223.016 454.185 223.516C438.295 230.666 434.945 250.256 447.965 262.076C460.575 273.546 482.965 266.956 483.235 248.426C483.255 246.776 481.125 246.746 480.575 248.066C477.815 254.546 475.055 260.776 467.815 263.386C460.575 265.996 453.355 262.736 448.445 257.306C438.955 246.826 442.815 231.316 455.185 225.186ZM439.995 281.356C440.485 280.046 442.555 280.556 442.135 281.946C440.445 287.436 449.875 287.366 452.445 285.766C454.906 283.992 456.544 281.297 456.985 278.296C457.15 277.746 457.656 277.37 458.23 277.37C458.804 277.37 459.31 277.746 459.475 278.296C460.415 284.296 456.785 289.696 450.475 290.536C445.445 291.206 437.725 287.526 439.995 281.356ZM410.385 240.706C411.165 240.356 410.595 239.176 409.815 239.356V239.366C404.292 240.484 400.57 245.677 401.285 251.266C402.035 256.706 407.725 261.946 413.385 260.366C413.861 260.213 414.184 259.771 414.184 259.271C414.184 258.771 413.861 258.328 413.385 258.176C409.385 256.846 405.055 254.886 404.685 250.026C404.57 246.064 406.806 242.408 410.385 240.706Z" fill="#BE1E2D"/>
<path d="M167.815 128.266C166.585 133.266 166.165 138.576 164.285 143.356C168.375 144.236 172.485 145.016 176.615 145.736C177.555 141.556 179.275 137.316 180.255 133.456C181.715 127.666 182.495 121.216 185.155 115.816C180.995 114.216 176.845 112.576 172.665 110.996C171.525 116.846 169.235 122.476 167.815 128.266Z" fill="#BE1E2D"/>
<path d="M104.805 125.496C104.315 119.846 107.225 113.496 108.955 108.496C111.105 102.236 113.775 94.6958 118.655 89.8758C115.682 88.0598 112.924 85.9128 110.435 83.4758C109.755 84.4758 109.065 85.4758 108.435 86.5458C101.725 97.2458 96.8946 108.756 92.7246 120.606C92.7293 120.672 92.7293 120.739 92.7246 120.806C96.7946 122.426 100.795 123.976 104.805 125.496Z" fill="#BE1E2D"/>
<path d="M130.075 118.426C128.655 123.326 128.315 128.426 127.365 133.426C132.165 134.972 136.989 136.432 141.835 137.806C140.255 131.606 142.225 125.066 144.165 119.116C145.757 113.779 147.65 108.538 149.835 103.416C145.465 102.126 141.165 100.736 136.955 99.0857C137.043 99.3908 137.018 99.7174 136.885 100.006C134.056 105.924 131.777 112.09 130.075 118.426Z" fill="#BE1E2D"/>
<path d="M196.484 148.486C201.204 148.966 205.954 149.346 210.754 149.596L212.454 149.656C212.864 146.326 213.844 142.996 214.244 139.656C214.804 135.036 214.554 130.296 215.564 125.756C214.964 125.606 214.354 125.486 213.754 125.336C209.404 124.246 205.134 122.956 200.904 121.536C201.206 125.921 200.92 130.326 200.054 134.636C199.294 139.206 198.524 144.236 196.484 148.486Z" fill="#BE1E2D"/>
<path d="M21.0159 317.606C18.4259 318.716 13.5359 320.006 11.4459 322.036C10.0759 323.356 9.70588 322.336 10.7559 324.036C11.2959 324.916 13.1659 325.586 14.0559 326.036C19.4065 328.636 25.2982 329.928 31.2459 329.806C43.4259 329.696 52.6359 324.426 61.4559 316.556C61.8916 316.162 62.4064 315.865 62.9659 315.686C63.3659 303.939 63.9392 292.192 64.6859 280.446C61.7558 287.4 57.6339 293.789 52.5059 299.326C43.8559 308.416 32.2659 312.816 21.0159 317.606Z" fill="#009444"/>
<path d="M184.285 135.886C183.435 139.256 182.785 143.046 181.635 146.566C185.315 147.136 189.015 147.566 192.735 148.056C193.245 143.916 194.735 139.886 195.515 135.806C196.515 130.806 196.915 125.596 198.235 120.676C194.715 119.449 191.221 118.162 187.755 116.816C188.045 123.136 185.805 129.856 184.285 135.886Z" fill="#BE1E2D"/>
<path fill-rule="evenodd" clip-rule="evenodd" d="M391.045 278.686C376.875 271.156 367.855 254.186 374.205 238.606C378.575 227.946 388.875 220.026 400.105 218.896C394.825 206.656 395.515 191.896 408.205 183.896C409.534 183.083 410.945 182.412 412.415 181.896C410.945 180.016 409.445 178.156 407.885 176.336C401.897 169.324 395.363 162.797 388.345 156.816C381.112 150.688 373.375 145.181 365.215 140.356C358.715 136.506 349.775 132.216 342.035 134.356C342.359 135.133 342.535 135.964 342.555 136.806C343.219 137.714 343.607 138.793 343.675 139.916C347.245 186.346 347.825 233.196 347.545 279.746C347.412 300.479 346.985 321.199 346.265 341.906C346.14 345.485 346.053 349.092 345.967 352.713C345.626 366.968 345.28 381.442 342.505 395.326C339.565 409.946 332.125 423.326 318.235 429.946C308.235 434.726 296.965 437.266 285.645 438.776C286.213 443.976 286.903 449.252 287.6 454.574C290.781 478.882 294.087 504.143 286.375 527.426C279.588 548.097 266.185 565.96 248.235 578.256C239.225 584.356 228.205 590.196 216.975 588.856C207.265 587.686 198.945 581.396 193.805 573.246C180.575 552.276 193.075 526.796 208.455 511.016C213.046 506.431 217.876 502.091 222.925 498.016C224.013 497.115 225.158 496.226 226.315 495.328C229.873 492.567 233.553 489.712 236.065 486.106C239.476 481.208 239.208 474.148 238.97 467.882C238.908 466.267 238.849 464.705 238.855 463.246C238.885 456.126 238.935 449.046 239.515 441.956C239.529 441.845 239.549 441.735 239.575 441.626C223.205 441.806 206.765 441.216 190.385 440.026C190.795 455.016 190.575 469.966 189.575 484.966C189.521 485.796 189.469 486.629 189.415 487.464L189.415 487.465C188.637 499.704 187.833 512.343 184.575 524.176C181.645 534.836 176.185 544.286 167.295 551.026C157.925 558.136 146.325 562.886 135.135 566.306C123.134 569.957 110.678 571.9 98.1351 572.076C88.2451 572.176 77.2751 571.666 68.6851 566.176C48.3251 553.156 58.0351 527.106 72.6851 514.056C89.5851 498.996 111.295 489.316 133.465 485.166C133.463 481.797 133.41 478.377 133.356 474.931V474.931C133.142 461.254 132.922 447.161 135.885 434.166C135.409 434.105 134.932 434.045 134.455 433.985L133.206 433.828L133.176 433.824L133.176 433.824C117.817 431.89 101.85 429.879 87.5051 424.676C78.2351 421.306 68.8651 415.806 65.3451 406.806C65.0204 406.553 64.7855 406.202 64.6751 405.806C62.3221 397.494 62.4204 387.869 62.5132 378.781C62.5418 375.973 62.57 373.217 62.5251 370.566C62.3251 358.566 62.3251 346.566 62.5251 334.566C62.5651 332.352 62.6151 330.129 62.6751 327.896C54.7551 334.486 44.1251 338.026 34.0351 338.566C24.4451 339.076 5.06513 336.596 1.36513 325.686C-0.684872 319.656 4.25513 315.886 9.03513 313.486C12.9039 311.538 16.9248 309.928 20.9452 308.319L20.9462 308.318C24.5013 306.895 28.056 305.472 31.5051 303.816C46.3278 296.674 55.0033 284.029 63.9643 270.969C64.4766 270.222 64.9898 269.474 65.5051 268.726C65.6451 266.726 65.7851 264.726 65.9351 262.726C67.7418 238.379 70.1851 214.096 73.2651 189.876C74.7051 178.409 76.2751 166.959 77.9751 155.526C78.4115 152.596 78.7668 149.519 79.1289 146.385L79.1289 146.384C80.0444 138.458 81.003 130.158 83.4251 122.906C83.4965 122.016 83.8075 121.163 84.3251 120.436L84.4151 120.176C84.6473 119.594 84.9865 119.062 85.4151 118.606C91.1551 85.6057 115.725 56.0357 141.725 36.7457C172.295 14.0157 210.365 3.13573 248.015 0.865733C287.895 -1.50427 329.495 4.92573 366.015 21.2457C427.295 48.6157 472.775 111.866 477.695 179.106C482.133 179.129 486.454 180.527 490.065 183.106C501.735 191.456 503.325 206.156 499.325 218.856C509.327 218.905 518.803 223.343 525.244 230.996C531.686 238.648 534.443 248.742 532.785 258.606C529.025 280.856 506.465 292.086 486.395 286.306C485.645 303.536 480.415 320.276 461.505 325.616C444.825 330.336 428.165 322.886 418.445 309.066C413.594 301.973 410.55 293.803 409.575 285.266C409.564 285.181 409.543 285.068 409.517 284.936C409.499 284.849 409.48 284.755 409.459 284.655L409.459 284.654C409.375 284.244 409.272 283.746 409.235 283.356C408.823 283.35 408.29 283.276 407.867 283.218L407.866 283.217C407.582 283.178 407.348 283.146 407.235 283.146C401.565 282.941 396.02 281.414 391.045 278.686ZM61.4551 316.576C61.8909 316.182 62.4056 315.885 62.9651 315.706V315.746C63.3851 303.992 63.9718 292.246 64.7251 280.506C61.783 287.463 57.6474 293.853 52.5051 299.386C44.6005 307.638 34.2407 312.023 23.9288 316.388C22.9564 316.8 21.9845 317.211 21.0151 317.626C20.313 317.929 19.4362 318.248 18.49 318.592C15.9728 319.508 12.9641 320.602 11.4451 322.056C10.9678 322.502 10.6119 322.668 10.3951 322.77C10.2646 322.831 10.1845 322.869 10.1587 322.929C10.1179 323.026 10.2139 323.18 10.4623 323.579C10.5435 323.71 10.6409 323.866 10.7551 324.056C11.1788 324.746 12.4211 325.307 13.3665 325.734L13.3679 325.735C13.627 325.852 13.8637 325.959 14.0551 326.056C19.4057 328.656 25.2974 329.948 31.2451 329.826C43.4551 329.716 52.6351 324.446 61.4551 316.576ZM108.415 86.4957C108.638 86.1523 108.866 85.8088 109.096 85.4626L109.097 85.462L109.097 85.4612C109.536 84.7997 109.982 84.1278 110.415 83.4257C112.905 85.8627 115.662 88.0097 118.635 89.8257C113.755 94.6457 111.085 102.186 108.935 108.446C108.631 109.324 108.291 110.246 107.939 111.2L107.938 111.202L107.937 111.203L107.937 111.203C106.286 115.673 104.381 120.831 104.785 125.446C100.785 123.926 96.7851 122.376 92.7851 120.756C92.7898 120.689 92.7898 120.622 92.7851 120.556C96.8951 108.756 101.725 97.2457 108.415 86.4957ZM149.835 103.426C145.465 102.096 141.165 100.746 136.955 99.0957C137.046 99.4039 137.021 99.7346 136.885 100.026C134.057 105.941 131.777 112.104 130.075 118.436C129.201 121.445 128.755 124.538 128.308 127.638C128.029 129.574 127.75 131.513 127.365 133.436C132.158 134.982 136.982 136.442 141.835 137.816C140.255 131.616 142.225 125.076 144.165 119.126C145.757 113.789 147.65 108.548 149.835 103.426ZM200.955 121.586C205.185 123.006 209.455 124.296 213.805 125.386C214.105 125.461 214.408 125.528 214.71 125.596C215.013 125.663 215.315 125.731 215.615 125.806C215.007 128.566 214.858 131.4 214.708 134.236C214.611 136.065 214.515 137.895 214.295 139.706C214.097 141.338 213.755 142.981 213.412 144.634L213.412 144.635C213.063 146.313 212.712 148.003 212.505 149.706L210.725 149.606C205.925 149.356 201.175 148.976 196.455 148.496C198.403 144.357 199.222 139.48 199.965 135.053L200.025 134.696C200.9 130.391 201.196 125.989 200.905 121.606L200.955 121.586ZM194.383 140.675C194.811 139.053 195.238 137.433 195.565 135.806H195.515C195.908 133.86 196.207 131.884 196.507 129.906C196.977 126.8 197.448 123.687 198.285 120.676C194.772 119.436 191.278 118.149 187.805 116.816C188.044 122.018 186.568 127.512 185.191 132.64C184.895 133.741 184.604 134.825 184.335 135.886C184.043 137.042 183.775 138.248 183.503 139.475L183.502 139.476L183.502 139.477L183.502 139.477L183.502 139.477L183.502 139.478L183.502 139.478L183.502 139.478L183.502 139.478L183.502 139.479L183.501 139.48L183.501 139.481L183.501 139.481L183.501 139.481L183.501 139.482L183.501 139.482L183.501 139.482C182.979 141.83 182.44 144.256 181.685 146.566C185.365 147.136 189.065 147.616 192.785 148.056C193.092 145.567 193.738 143.119 194.383 140.675ZM178.712 138.707L178.712 138.707L178.712 138.707L178.712 138.708L178.712 138.708L178.712 138.708L178.711 138.708L178.711 138.709L178.711 138.709L178.711 138.71L178.711 138.711L178.71 138.711C177.961 141.02 177.193 143.387 176.665 145.736C172.535 145.016 168.425 144.236 164.335 143.356C165.541 140.289 166.147 136.999 166.75 133.717V133.717L166.751 133.717L166.751 133.716C167.088 131.884 167.424 130.054 167.865 128.266C168.476 125.776 169.247 123.315 170.019 120.854L170.019 120.854L170.019 120.854L170.019 120.854L170.019 120.854L170.019 120.854L170.019 120.854L170.019 120.853L170.019 120.853L170.019 120.853L170.02 120.853L170.02 120.853L170.02 120.853L170.02 120.853L170.02 120.853L170.02 120.852L170.02 120.852L170.02 120.852L170.02 120.851L170.02 120.851L170.02 120.851L170.02 120.85L170.02 120.85L170.02 120.85L170.021 120.849L170.021 120.849L170.021 120.848L170.021 120.848L170.021 120.848L170.021 120.847L170.021 120.847C171.043 117.588 172.066 114.327 172.715 110.996C175.308 111.976 177.888 112.979 180.467 113.981L180.468 113.981L180.468 113.981L180.469 113.981L180.469 113.982L180.47 113.982L180.47 113.982L180.471 113.982L180.471 113.982L180.472 113.982L180.472 113.983L180.473 113.983L180.473 113.983L180.474 113.983C182.051 114.596 183.627 115.209 185.205 115.816C183.253 119.705 182.308 124.138 181.383 128.478C181.023 130.164 180.666 131.836 180.255 133.456H180.305C179.867 135.146 179.295 136.908 178.712 138.707ZM163.612 127.516L163.715 127.126H163.665C165.185 121.326 166.945 115.166 170.265 110.036C164.645 107.946 158.975 105.976 153.175 104.336H153.005C152.269 107.698 151.203 110.996 150.138 114.292L150.138 114.293L150.137 114.293L150.137 114.294L150.137 114.295L150.137 114.296L150.136 114.297L150.136 114.297L150.136 114.298L150.136 114.299L150.135 114.3L150.135 114.3L150.135 114.301L150.135 114.302L150.135 114.303L150.134 114.304C149.753 115.483 149.371 116.663 149.005 117.846C146.99 124.344 146.11 130.621 145.179 137.261C145.121 137.671 145.063 138.083 145.005 138.496C145.001 138.513 144.996 138.53 144.991 138.548C144.985 138.569 144.977 138.59 144.969 138.61L144.963 138.626L144.957 138.639C144.953 138.648 144.949 138.657 144.945 138.666C150.405 140.159 155.898 141.519 161.425 142.746C160.928 137.671 162.32 132.407 163.612 127.516L163.612 127.516L163.612 127.516ZM126.684 114.869L126.682 114.876L126.682 114.876L126.682 114.876C124.98 120.021 122.938 126.19 122.845 131.916C118.098 130.329 113.362 128.662 108.635 126.916C109.649 121.023 111.11 115.216 113.005 109.546C114.637 104.74 116.943 100.571 119.286 96.3364L119.286 96.3362L119.286 96.3361L119.286 96.3359L119.286 96.3358L119.286 96.3356L119.286 96.3354L119.286 96.3353L119.287 96.3351L119.287 96.335L119.287 96.3348L119.287 96.3346L119.287 96.3345L119.287 96.3343C120.132 94.8076 120.981 93.2724 121.805 91.6957C123.505 92.6957 125.185 93.5957 126.805 94.4357C129.565 95.913 132.399 97.2481 135.295 98.4357C130.885 100.322 129.193 106.228 127.828 110.992L127.828 110.992C127.543 111.985 127.273 112.929 126.995 113.776H127.045C126.927 114.134 126.807 114.499 126.684 114.869ZM87.7151 155.516C85.7085 167.776 83.8985 180.066 82.2851 192.386H82.2351C80.0551 209.086 78.1985 225.819 76.6651 242.586C78.0051 250.466 80.8351 257.986 86.7451 263.586C99.9351 276.086 120.745 271.446 128.935 255.876C129.765 254.286 132.055 254.816 132.565 256.356C136.715 268.876 148.325 278.706 161.775 279.356C175.525 280.006 188.085 271.456 193.405 259.006C194.085 257.436 196.795 257.876 197.085 259.486C199.305 271.826 213.165 277.886 224.385 279.376C239.545 281.406 246.025 269.206 250.755 257.066C250.967 256.358 251.532 255.812 252.247 255.624C252.962 255.436 253.722 255.634 254.255 256.146C255.995 257.917 257.754 259.86 259.552 261.847L259.553 261.847C264.678 267.51 270.128 273.531 276.405 276.966C283.675 280.946 296.905 281.076 304.785 278.886C319.814 274.702 326.693 256.619 332.195 242.155L332.196 242.152C333.086 239.814 333.939 237.571 334.785 235.496C334.305 205.366 333.365 175.226 332.185 145.046C292.742 158.131 251.146 163.485 209.675 160.816C169.845 158.246 128.105 149.256 92.3851 130.566C91.7827 135.368 90.7589 140.239 89.752 145.03L89.7519 145.031L89.7519 145.031L89.7518 145.031L89.7518 145.031L89.7518 145.031L89.7518 145.032L89.7518 145.032L89.7517 145.032L89.7517 145.032L89.7517 145.032L89.7517 145.032L89.7516 145.032L89.7516 145.033L89.7516 145.033C89.0036 148.592 88.2649 152.106 87.7151 155.516ZM218.285 126.386C222.565 127.386 226.865 128.206 231.185 128.946C231.137 130.966 231.319 132.988 231.501 135.011C231.661 136.783 231.82 138.556 231.825 140.326C231.825 141.965 231.647 143.623 231.469 145.281C231.302 146.838 231.135 148.395 231.115 149.936C226.395 149.996 221.668 149.952 216.935 149.806C217.735 146.917 218.267 143.962 218.525 140.976C219.045 136.226 219.555 131.106 218.225 126.416L218.285 126.386ZM246.795 131.156C242.645 130.686 238.495 130.126 234.375 129.466L234.315 129.496C236.725 135.186 237.285 143.736 235.435 149.846C239.668 149.739 243.902 149.552 248.135 149.286C248.069 149.187 248.019 149.079 247.985 148.966C247.344 146.762 247.331 144.444 247.317 142.136C247.312 141.238 247.307 140.343 247.265 139.456C247.215 138.472 247.134 137.485 247.052 136.498C246.904 134.716 246.757 132.932 246.795 131.156ZM251.185 137.946C251.01 135.771 250.628 133.618 250.045 131.516C254.398 131.962 258.758 132.322 263.125 132.596C263.125 134.406 263.357 136.213 263.59 138.019L263.59 138.021C263.758 139.326 263.925 140.631 264.005 141.936C264.079 143.077 264.101 144.195 264.123 145.309V145.311C264.14 146.149 264.156 146.984 264.195 147.826C259.725 148.336 255.255 148.766 250.765 149.086C250.773 149.074 250.781 149.062 250.788 149.049C250.796 149.037 250.803 149.025 250.81 149.013C250.818 148.997 250.827 148.982 250.835 148.966C251.949 145.737 251.557 142.046 251.19 138.589V138.589L251.188 138.567C251.167 138.369 251.146 138.172 251.125 137.976L251.185 137.946ZM273.925 133.126C271.385 133.036 268.845 132.916 266.305 132.786L266.245 132.816C268.298 137.358 269.013 142.392 268.305 147.326C274.215 146.576 280.095 145.646 285.955 144.576C285.125 143.126 285.049 141.468 284.974 139.808V139.807C284.953 139.349 284.932 138.89 284.895 138.436C284.827 137.546 284.732 136.653 284.636 135.758L284.635 135.754C284.549 134.942 284.462 134.129 284.395 133.316C280.925 133.286 277.415 133.236 273.925 133.126ZM288.665 137.386C288.492 136.02 288.228 134.667 287.875 133.336C291.685 133.336 295.485 133.336 299.285 133.206C299.308 133.393 299.329 133.581 299.351 133.768C299.417 134.331 299.483 134.893 299.565 135.456C299.633 135.909 299.683 136.369 299.733 136.83C299.904 138.401 300.076 139.98 300.965 141.326C300.986 141.352 301.009 141.375 301.035 141.396C296.875 142.376 292.702 143.269 288.515 144.076C289.278 142.263 288.978 140.103 288.698 138.096C288.666 137.867 288.635 137.64 288.605 137.416L288.665 137.386ZM315.015 132.656L315.105 132.906L315.045 132.936C315.101 133.101 315.159 133.267 315.217 133.433C315.599 134.519 315.984 135.613 315.645 136.706C315.49 137.214 315.083 137.605 314.569 137.739C314.056 137.874 313.509 137.732 313.125 137.366C312.225 136.587 312.007 135.464 311.789 134.346C311.755 134.172 311.721 133.998 311.685 133.826C311.637 133.61 311.597 133.375 311.558 133.138V133.138L311.558 133.137C311.541 133.033 311.523 132.929 311.505 132.826L305.415 133.066L302.705 133.126C303.605 135.736 304.185 138.566 303.335 140.856C313.584 138.393 323.7 135.409 333.645 131.916C331.482 131.808 328.994 131.894 328.473 131.913L328.465 131.913L328.456 131.913C328.409 131.915 328.381 131.916 328.375 131.916C325.965 132.066 323.545 132.216 321.135 132.346L315.015 132.656ZM177.825 503.666C176.875 512.776 175.505 522.256 171.415 530.546C166.845 539.816 158.845 545.436 149.815 549.946C131.275 559.206 109.305 564.216 88.5451 562.426C79.6251 561.646 69.5451 558.666 66.9251 548.966C64.1651 538.736 70.6951 528.966 77.8051 522.296C94.4651 506.676 117.065 497.296 139.355 493.636C141.355 493.306 142.845 490.986 142.825 489.076C142.773 484.454 142.857 479.718 142.941 474.934C143.18 461.428 143.426 447.535 140.635 434.716L142.135 434.916C154.835 436.636 167.655 438.096 180.535 439.216C180.873 460.733 179.968 482.252 177.825 503.666ZM252.485 561.826C266.678 548.445 276.152 530.825 279.485 511.606C281.445 499.806 280.195 487.856 278.915 476.076C277.635 464.036 276.382 451.986 275.155 439.926C271.625 440.236 268.125 440.486 264.695 440.696C258.695 441.076 252.695 441.339 246.695 441.486C246.775 441.626 246.775 441.766 246.775 441.926C247.443 449.229 247.558 456.466 247.674 463.756V463.756L247.674 463.757L247.685 464.466C247.71 465.971 247.776 467.504 247.842 469.051C248.041 473.682 248.245 478.431 247.375 482.876C245.575 492.199 237.862 498.365 230.64 504.139C229.116 505.357 227.615 506.557 226.195 507.766C210.575 521.066 189.575 543.596 200.725 565.956C205.655 575.756 215.725 581.606 226.485 578.346C236.185 575.396 245.245 568.726 252.485 561.826ZM325.175 407.916C316.867 421.882 298.144 424.676 283.322 426.889L282.675 426.986C245.985 432.456 207.325 430.166 170.495 427.326C149.482 425.706 128.555 423.216 107.715 419.856L107.687 419.851C93.6891 417.582 74.2825 414.435 70.3051 398.236C70.2127 397.879 70.0605 397.541 69.8551 397.236C70.251 391.957 70.1138 386.492 69.9795 381.145C69.9001 377.983 69.8217 374.863 69.8551 371.846C70.0151 361.146 70.2751 350.446 70.6351 339.746C71.6131 343.744 72.8764 347.668 74.4151 351.486C78.2251 360.726 85.1451 366.566 94.7851 369.146C112.675 373.936 134.015 370.416 145.145 355.016C150.235 370.496 159.485 384.936 177.065 387.396C191.223 389.266 205.027 382.032 211.545 369.326C216.675 385.126 237.055 392.636 252.825 391.136C270.541 389.417 285.855 378.047 292.625 361.586C295.945 369.806 302.805 376.046 310.255 381.276C316.365 385.566 324.635 390.116 331.545 387.986C330.585 394.976 328.775 401.826 325.175 407.886V407.916ZM332.926 370.126C332.978 368.922 333.029 367.728 333.085 366.546V366.516C334.965 326.606 335.365 286.686 334.965 246.846C332.168 253.831 328.702 260.528 324.615 266.846C320.045 274.026 314.405 280.426 305.835 282.736C297.265 285.046 285.115 285.276 276.745 281.886C268.924 278.707 262.583 271.603 256.688 264.998C255.611 263.792 254.549 262.602 253.495 261.456C248.285 273.896 240.595 285.396 225.215 283.896C213.575 282.746 199.325 276.756 194.575 265.376C187.345 277.106 173.935 284.746 159.935 283.316C146.755 281.976 135.545 273.176 130.245 261.316C121.005 274.406 103.315 279.216 89.0051 270.406C82.8507 266.52 78.1537 260.708 75.6451 253.876C75.5627 254.834 75.4786 255.792 75.3945 256.751L75.3933 256.764C75.1821 259.171 74.9708 261.579 74.7851 263.986C73.2151 283.826 72.1251 303.696 71.3251 323.576C71.9358 326.077 72.474 328.656 73.0152 331.25L73.0153 331.25C76.0012 345.56 79.0792 360.312 94.9351 364.816C112.725 369.856 134.745 366.096 144.055 348.606C144.521 347.879 145.364 347.487 146.22 347.598C147.076 347.709 147.791 348.304 148.055 349.126C151.965 363.266 158.765 378.316 174.285 382.316C189.135 386.166 203.225 378.006 208.945 364.516C205.135 362.786 202.225 359.976 203.135 355.236C203.775 351.876 206.795 349.576 209.405 347.766C213.597 344.991 217.606 341.948 221.405 338.656C235.635 325.776 243.645 309.856 251.405 292.656C252.205 290.886 255.245 291.756 255.085 293.656C253.965 307.426 247.315 321.046 239.085 331.956C234.8 337.65 229.915 342.866 224.515 347.516C222.175 349.516 219.735 351.416 217.235 353.206C217.185 353.242 216.886 353.42 216.461 353.675C215.111 354.481 212.486 356.05 212.455 356.256C212.415 356.526 217.035 357.546 217.345 357.606C232.725 360.826 249.125 354.006 260.035 343.306C271.405 332.106 276.565 317.716 280.635 302.666C282.465 295.946 291.725 298.966 290.785 305.466C285.665 340.596 254.545 373.716 216.895 366.846C216.075 366.696 215.165 366.496 214.245 366.286C220.155 382.246 239.185 389.286 255.495 386.566C273.045 383.626 286.525 370.276 290.805 353.226C291.455 350.626 294.895 351.486 295.135 353.806C296.065 362.666 301.985 369.226 308.695 374.556L308.847 374.676C314.307 379.017 325.131 387.622 332.165 382.926C332.561 378.629 332.746 374.321 332.926 370.127V370.126V370.126ZM388.215 143.126C376.065 134.126 354.675 119.346 340.475 129.046C339.591 127.958 338.37 127.194 337.005 126.876C333.622 126.025 329.557 126.509 325.728 126.966C324.112 127.158 322.538 127.346 321.075 127.426C315.435 127.739 309.788 127.986 304.135 128.166C281.055 128.896 257.835 128.356 234.975 124.786C213.217 121.38 193.63 113.989 173.241 106.295C172.769 106.117 172.296 105.938 171.823 105.76C171.431 105.612 171.038 105.464 170.645 105.316C165.497 103.37 160.201 101.884 154.903 100.397L154.903 100.396C154.51 100.286 154.118 100.176 153.725 100.066C153.855 99.0657 152.315 98.7457 151.835 99.5357C147.295 98.2357 142.775 96.8857 138.365 95.1557C133.076 93.0447 127.978 90.4854 123.125 87.5057C121.179 86.3155 119.305 84.9422 117.425 83.5655C115.847 82.4091 114.265 81.2503 112.635 80.1957C120.448 69.2322 129.701 59.3703 140.145 50.8757C167.725 28.3857 202.725 16.6557 237.845 13.5357C307.725 7.30573 381.645 28.3257 426.385 84.8057C448.615 112.876 461.495 146.516 465.185 181.996C465.185 182.227 465.237 182.448 465.289 182.667L465.289 182.667C465.309 182.75 465.329 182.833 465.345 182.916C463.398 184.284 461.721 185.999 460.395 187.976C452.656 184.63 444.503 182.337 436.155 181.156C432.484 180.608 428.785 180.274 425.075 180.156L424.635 179.566C421.205 174.896 417.575 170.366 413.705 166.046C406.015 157.545 397.474 149.854 388.215 143.096V143.126ZM413.025 221.396C415.965 224.986 413.355 231.496 408.115 229.836V229.806C390.855 224.326 376.415 244.796 385.225 259.756C389.581 266.902 396.93 271.701 405.225 272.816C406.338 272.957 407.403 273.052 408.416 273.143C414.152 273.656 418.174 274.015 419.355 281.666C421.995 298.636 431.745 316.796 451.415 316.506C459.565 316.386 467.635 312.786 471.845 305.566C476.324 297.904 476.09 288.408 475.876 279.743C475.866 279.315 475.855 278.889 475.845 278.466C475.775 274.336 480.415 272.006 483.845 273.886C498.875 282.146 518.535 275.056 522.205 257.606C523.771 249.825 521.287 241.78 515.608 236.236C509.928 230.692 501.826 228.403 494.085 230.156C488.465 231.406 485.605 224.336 488.845 221.156C491.505 212.376 493.425 202.296 487.165 194.616C484.866 191.862 481.576 190.124 478.005 189.776C476.127 190.368 474.353 191.248 472.745 192.386C470.856 193.902 469.433 195.756 467.998 197.626C467.351 198.469 466.701 199.316 466.005 200.136C462.065 204.746 458.395 204.616 452.715 203.136C449.033 202.171 445.364 201.146 441.696 200.12C437.644 198.988 433.593 197.855 429.525 196.806C422.525 194.946 413.915 193.516 408.525 198.596C405.645 205.476 408.025 215.266 413.025 221.396Z" fill="#231F20"/>
<path fill-rule="evenodd" clip-rule="evenodd" d="M120.605 175.336C124.845 181.676 120.955 190.806 113.845 192.936C105.725 195.376 97.7851 187.406 98.5851 179.386C98.6623 178.667 98.8097 177.957 99.0251 177.266C98.8333 176.418 98.9997 175.528 99.4851 174.806C100.088 173.949 100.808 173.182 101.625 172.526C102.551 171.442 103.645 170.513 104.865 169.776C107.585 168.146 111.905 167.356 114.465 169.596C114.867 169.972 115.058 170.522 114.975 171.066C117.257 171.856 119.229 173.352 120.605 175.336ZM107.583 180.308C107.44 180.339 107.301 180.368 107.165 180.396L106.985 180.416C107.345 182.696 109.125 185.246 111.435 184.136C113.295 183.246 113.405 180.796 111.505 180.136C110.303 179.732 108.827 180.045 107.583 180.308Z" fill="#231F20"/>
<path fill-rule="evenodd" clip-rule="evenodd" d="M277.625 187.026C283.115 192.856 280.915 202.946 274.365 206.946C267.355 211.276 257.635 207.016 255.145 199.366C253.976 195.596 254.768 191.491 257.255 188.426C258.011 187.488 258.912 186.677 259.925 186.026C264.325 181.446 273.165 182.286 277.625 187.026ZM264.384 194.507C264.27 194.566 264.16 194.623 264.055 194.676C263.852 194.771 263.642 194.848 263.425 194.906C263.428 195.326 263.492 195.744 263.615 196.146C264.305 198.106 267.085 199.896 269.085 198.676C270.625 197.786 271.535 194.936 269.835 193.676C268.253 192.503 265.917 193.713 264.384 194.507Z" fill="#231F20"/>
<path d="M270.795 218.006C268.261 218.011 266.211 220.069 266.215 222.603C266.219 225.136 268.274 227.188 270.808 227.186C273.342 227.184 275.395 225.13 275.395 222.596C275.368 220.068 273.322 218.028 270.795 218.006Z" fill="#231F20"/>
<path d="M96.1145 211.116C101.634 211.116 101.644 202.546 96.1145 202.546C90.5845 202.546 90.5945 211.116 96.1145 211.116Z" fill="#231F20"/>
<path d="M176.134 223.476C196.184 226.156 205.754 207.006 205.594 189.716C205.594 184.546 197.074 182.966 196.224 188.446C194.564 199.176 193.634 214.306 179.094 214.286C173.424 214.286 168.574 211.046 165.664 206.286C162.754 201.526 163.034 196.656 162.664 191.286C162.589 189.999 161.7 188.904 160.455 188.566C159.211 188.228 157.89 188.724 157.174 189.796C147.434 202.916 162.724 221.676 176.134 223.476Z" fill="#231F20"/>
<path d="M413.384 260.376C413.86 260.223 414.183 259.78 414.183 259.281C414.183 258.781 413.86 258.338 413.384 258.186C409.384 256.856 405.054 254.896 404.684 250.036C404.57 246.074 406.805 242.418 410.384 240.716C411.164 240.336 410.594 239.186 409.814 239.366C404.287 240.484 400.564 245.683 401.284 251.276C402.034 256.716 407.724 261.956 413.384 260.376Z" fill="#231F20"/>
<path d="M447.936 262.076C460.546 273.546 482.936 266.956 483.206 248.426C483.206 246.776 481.096 246.746 480.546 248.066C477.826 254.546 474.936 260.806 467.786 263.386C460.636 265.966 453.326 262.736 448.416 257.306C438.926 246.826 442.786 231.306 455.156 225.186C456.286 224.626 455.296 223.016 454.156 223.516C438.296 230.666 434.946 250.256 447.936 262.076Z" fill="#231F20"/>
<path d="M490.726 265.446C498.556 263.526 503.956 254.146 498.786 247.086C497.926 245.906 495.996 246.946 496.786 248.256C500.786 254.836 493.996 259.826 489.786 263.756C489.458 264.07 489.384 264.566 489.605 264.963C489.825 265.36 490.286 265.558 490.726 265.446Z" fill="#231F20"/>
<path d="M450.505 290.536C456.785 289.696 460.415 284.296 459.505 278.296C459.34 277.746 458.834 277.37 458.26 277.37C457.686 277.37 457.18 277.746 457.015 278.296C456.574 281.297 454.936 283.992 452.475 285.766C449.905 287.366 440.475 287.436 442.165 281.946C442.585 280.556 440.515 280.046 440.025 281.356C437.725 287.526 445.445 291.206 450.505 290.536Z" fill="#231F20"/>
<path d="M338.774 38.1658C328.29 33.8819 317.434 30.5681 306.344 28.2658C284.146 23.6079 261.362 22.3937 238.794 24.6658C237.924 24.7458 237.874 26.0558 238.794 26.0558C260.734 26.0558 282.714 27.2358 304.204 31.8858C314.214 34.0286 324.038 36.9611 333.584 40.6558C344.384 44.8658 353.994 51.1158 364.584 55.7258C365.894 56.3058 367.494 54.7258 366.244 53.5658C358.574 46.5258 348.284 42.0858 338.774 38.1658Z" fill="#231F20"/>
<path d="M377.366 64.7258C376.216 64.3558 375.776 66.1058 376.876 66.5058C382.305 68.5661 387.509 71.1763 392.406 74.2958C396.796 77.0758 400.746 80.7158 405.406 83.0158C406.106 83.3558 407.066 82.6158 406.556 81.8658C400.386 72.6958 387.456 67.9758 377.366 64.7258Z" fill="#231F20"/>
</svg>
