<svg width="562" height="561" viewBox="0 0 562 561" fill="none" xmlns="http://www.w3.org/2000/svg">
<path d="M526.844 238.047C523.194 289.247 520.194 340.677 515.514 391.847C515.274 406.133 514.914 420.41 514.434 434.677C513.874 450.877 513.194 467.077 512.564 483.267C512.084 495.477 511.904 507.777 509.564 519.807C508.69 524.362 507.35 528.816 505.564 533.097L508.254 531.707C521.774 524.707 531.614 515.607 535.694 500.517C539.304 487.197 539.184 473.007 539.864 459.307C540.678 442.807 541.481 426.303 542.274 409.797C543.828 378.003 545.374 346.217 546.914 314.437C548.254 286.957 552.784 257.387 548.244 230.027C546.144 217.387 541.314 205.357 532.014 196.287C530.308 194.653 528.501 193.126 526.604 191.717C530.774 205.957 527.924 222.997 526.844 238.047Z" fill="#8DC63F"/>
<path fill-rule="evenodd" clip-rule="evenodd" d="M455.813 548.2L455.809 548.2C454.204 548.173 452.618 548.147 451.065 548.147C435.575 548.117 420.085 548.047 404.595 547.797C376.037 547.38 347.518 545.527 319.145 542.247C293.616 539.166 268.27 534.84 242.925 530.514L242.924 530.514C211.67 525.18 180.417 519.845 148.825 516.847C141.012 516.111 132.228 515.798 122.989 515.468C78.8748 513.896 24.3792 511.953 15.5652 461.847C13.7984 451.832 13.6698 441.502 13.5426 431.285C13.5114 428.78 13.4803 426.282 13.4252 423.797C13.0852 408.464 12.8852 393.09 12.8252 377.677C12.7252 349.307 13.2052 320.917 14.6652 292.577C16.1552 263.647 18.6252 234.747 22.5652 206.037C24.4252 192.297 26.4952 178.497 29.3052 164.837C30.4552 159.217 31.6752 153.277 34.8352 148.377C39.3852 141.317 47.5552 138.177 55.1852 135.647C90.6324 123.875 127.78 131.072 164.332 138.154C180.225 141.233 196.006 144.29 211.485 145.757C228.79 147.394 246.167 147.508 263.544 147.623C274.394 147.694 285.243 147.765 296.075 148.207C325.532 149.559 354.902 152.385 384.075 156.677C415.815 161.207 447.535 166.597 479.075 172.547C491.025 174.797 506.075 177.687 513.245 188.687C519.344 198.006 517.925 211.309 516.689 222.897C516.397 225.635 516.115 228.276 515.945 230.747C514.908 245.87 513.812 261.006 512.716 276.149L512.715 276.151L512.714 276.176V276.177V276.177L512.713 276.178C510.079 312.563 507.441 348.995 505.605 385.417C505.197 386.158 504.961 386.982 504.915 387.827C503.051 417.419 501.897 447.01 500.743 476.602L500.743 476.606L500.695 477.827C500.578 480.845 500.54 484.093 500.501 487.483C500.286 506.075 500.023 528.908 486.295 541.147C478.013 548.569 466.482 548.377 455.813 548.2ZM492.697 259.455C492.615 265.378 492.534 271.289 492.255 277.147V277.137C491.96 283.607 491.227 290.245 490.488 296.926C489.147 309.058 487.79 321.336 489.015 333.027C489.031 333.705 489.536 334.271 490.207 334.363C490.879 334.455 491.518 334.046 491.715 333.397C496.633 319.803 497.113 303.759 497.56 288.804V288.804L497.56 288.801L497.56 288.798L497.56 288.795L497.56 288.792L497.561 288.789C497.661 285.444 497.759 282.153 497.905 278.957C497.969 277.554 498.035 276.145 498.102 274.73L498.103 274.695C498.886 258.084 499.704 240.711 496.435 224.457C496.265 223.627 494.845 223.587 494.715 224.457C493.021 235.952 492.858 247.726 492.697 259.455ZM486.617 353.389L486.617 353.387C487.05 349.966 487.497 346.431 489.255 343.517C489.501 343.172 489.917 342.991 490.337 343.048C490.756 343.105 491.11 343.389 491.255 343.787C492.558 347.369 491.994 351.408 491.465 355.195C491.393 355.711 491.321 356.222 491.255 356.727C490.744 361.169 489.613 365.518 487.895 369.647C487.688 370.284 487.055 370.683 486.39 370.595C485.726 370.506 485.219 369.956 485.185 369.287C485.159 364.846 485.53 360.412 486.295 356.037L486.255 356.047C486.39 355.178 486.503 354.288 486.617 353.389L486.617 353.389ZM452.395 272.497C447.705 266.797 437.805 265.617 430.925 269.797C418.655 277.217 416.875 294.637 427.945 303.937C438.785 313.017 454.885 309.207 460.005 295.937C463.518 287.313 460.304 277.413 452.395 272.497ZM40.1852 423.927C36.2339 413.131 36.4777 399.621 36.6948 387.59L36.6948 387.59C36.7343 385.402 36.7729 383.262 36.7852 381.197L36.787 380.91C36.8763 367.05 36.9726 352.104 40.9452 338.717C41.0551 338.322 41.4399 338.069 41.8462 338.124C42.2525 338.18 42.5553 338.527 42.5552 338.937C43.219 347.355 42.8814 355.904 42.5444 364.438C42.3229 370.045 42.1017 375.645 42.1652 381.197C42.2217 386.365 42.7117 391.718 43.2049 397.106C44.0201 406.013 44.8442 415.017 43.7352 423.447C43.6965 424.327 43.0335 425.053 42.1608 425.171C41.2881 425.289 40.4561 424.765 40.1852 423.927ZM42.5452 443.587C44.1552 451.447 48.2352 460.327 54.5452 465.497C55.5452 466.317 57.7152 465.577 57.0952 464.027C54.4466 457.762 50.5225 451.634 46.7605 445.759L46.7592 445.757L46.7569 445.754C46.0885 444.71 45.4252 443.674 44.7752 442.647C44.4499 442.15 43.8157 441.956 43.2682 442.187C42.7207 442.418 42.4165 443.007 42.5452 443.587ZM71.0652 304.037C65.2852 308.797 55.4252 308.797 48.5352 306.857C40.1352 304.487 39.2652 296.857 39.6952 289.317C40.1352 281.367 42.4252 272.827 49.8652 268.687C56.4052 265.047 63.5052 266.047 67.7752 272.207C68.0975 272.666 68.2846 273.207 68.3152 273.767L68.4752 273.897C69.4372 273.936 70.3605 274.287 71.1052 274.897C75.0621 278.193 77.1139 283.245 76.5752 288.367C77.3652 294.207 75.8352 300.137 71.0652 304.037ZM292.055 448.167C313.865 435.497 323.695 409.917 329.345 386.617C338.215 350.097 341.775 309.287 334.095 272.257C333.665 270.172 331.908 268.622 329.785 268.457C327.287 265.951 324.018 264.358 320.505 263.937C316.339 263.422 312.037 263.991 307.785 264.554C305.924 264.8 304.072 265.045 302.245 265.197C295.095 265.797 287.915 266.187 280.745 266.417C263.205 266.952 245.739 266.222 228.266 265.491C217.019 265.021 205.769 264.55 194.495 264.417C193.727 264.422 192.972 264.614 192.295 264.977C191.328 264.776 190.321 264.968 189.496 265.51C188.671 266.052 188.095 266.9 187.895 267.867C181.275 302.187 181.205 337.617 184.895 372.307L184.964 372.953C187.738 398.992 190.979 429.43 214.425 445.487C235.425 459.877 270.245 460.837 292.055 448.167Z" fill="#00AEEF"/>
<path d="M435.345 295.637C438.845 298.227 443.895 298.717 447.245 295.457C450.058 292.86 450.92 288.768 449.395 285.257C449.335 285.152 449.285 285.041 449.245 284.927C448.141 282.883 446.183 281.438 443.905 280.987C440.905 280.307 437.635 280.987 435.715 283.577C433.215 286.947 434.505 290.497 435.265 294.187C435.365 294.663 435.392 295.152 435.345 295.637Z" fill="white"/>
<path d="M322.736 279.797C320.916 272.217 295.306 277.797 289.686 278.037C279.526 278.51 269.356 278.644 259.176 278.437C238.646 278.037 217.906 277.137 197.476 274.877C197.376 275.107 197.246 275.317 197.146 275.547C196.842 276.272 196.223 276.818 195.466 277.027C194.026 301.297 193.306 325.517 194.466 349.707C211.232 345.348 229.059 348.252 243.576 357.707C258.109 354.603 273.161 354.87 287.576 358.487C296.201 360.586 304.544 363.712 312.426 367.797C314.876 369.067 317.746 370.427 320.426 372.057C326.116 342.137 325.926 312.557 323.966 282.057C323.353 281.433 322.926 280.65 322.736 279.797Z" fill="#8DC63F"/>
<path d="M431.425 88.1468C431.466 85.6392 433.131 83.4486 435.535 82.7368C443.215 80.4968 452.435 77.1868 452.735 67.7368C452.945 61.4568 448.885 55.0368 443.415 52.1768C431.365 45.8468 399.185 56.8368 410.135 73.9168C413.795 79.6368 420.315 81.7168 424.615 86.5468C428.085 90.4468 426.985 94.3668 426.005 99.1268C424.295 107.477 422.325 115.777 420.485 124.127C419.935 126.627 414.655 146.757 414.305 149.377C419.985 150.297 425.652 151.237 431.305 152.197C431.352 130.85 431.392 109.5 431.425 88.1468Z" fill="#8DC63F"/>
<path d="M314.265 382.217C312.605 381.15 310.938 380.127 309.265 379.147C306.705 377.697 304.085 376.337 301.395 375.147C294.663 372.111 287.622 369.811 280.395 368.287C271.607 366.433 262.635 365.598 253.655 365.797C265.765 377.797 276.535 397.307 272.325 413.627C271.095 418.387 264.445 418.007 263.045 413.627C260.585 405.897 260.545 397.957 257.125 390.367C253.795 382.974 248.887 376.4 242.745 371.107C241.021 369.656 239.204 368.32 237.305 367.107C236.855 367.177 236.405 367.217 235.965 367.287C234.919 367.483 233.84 367.226 232.995 366.579C232.15 365.933 231.619 364.957 231.535 363.897C220.335 358.507 207.325 356.897 195.035 358.597C195.655 367.407 196.545 376.227 197.775 385.027C199.985 400.797 202.775 418.537 214.145 430.557C224.855 441.817 241.145 445.287 256.145 445.177C273.015 445.047 288.475 440.297 299.345 426.887C308.605 415.457 313.515 400.997 317.135 386.887C317.365 386.007 317.555 385.137 317.775 384.257C317.752 383.898 317.779 383.538 317.855 383.187C316.875 384.277 315.685 383.977 314.265 382.217Z" fill="#BE1E2D"/>
<path d="M56.2545 291.567C60.8245 294.407 63.9345 291.737 65.1245 287.907C64.9313 287.287 64.7009 286.679 64.4345 286.087C59.9445 276.227 48.5745 286.797 56.2545 291.567Z" fill="white"/>
<path d="M125.996 69.0467C126.726 76.8567 123.126 86.3067 121.686 94.0467C120.136 102.377 118.616 110.727 116.846 119.047C121.676 119.527 126.496 120.127 131.306 120.817C130.706 101.483 129.482 82.1934 127.636 62.9467C127.376 60.1967 130.366 57.1767 133.136 57.4467C156.476 59.7267 168.446 24.9867 147.286 13.3467C130.156 3.85674 108.926 19.0567 105.426 36.4067C103.836 44.4067 106.006 55.1367 113.546 59.5267C118.566 62.4267 125.316 61.7967 125.996 69.0467Z" fill="#8DC63F"/>
<path fill-rule="evenodd" clip-rule="evenodd" d="M424.255 560.077C428.254 560.114 432.281 560.213 436.319 560.312C447.32 560.583 458.408 560.855 469.255 559.897C472.096 559.656 474.91 559.164 477.665 558.427C478.32 558.434 478.965 558.257 479.525 557.917L479.765 557.767C484.049 556.404 488.07 554.321 491.655 551.607C494.66 550.228 497.708 548.917 500.753 547.607L500.758 547.605C516.966 540.634 533.07 533.707 541.925 516.847C548.205 504.847 549.755 491.177 550.555 477.847C551.221 466.399 551.737 454.938 552.252 443.479L552.254 443.439C552.511 437.714 552.769 431.989 553.045 426.267L558.175 319.897C558.517 312.786 559.035 305.564 559.557 298.287V298.286C561.262 274.513 563.01 250.14 558.815 227.057C554.125 201.217 537.815 184.577 515.715 174.567C514.4 173.429 513.01 172.38 511.555 171.427C502.095 165.247 490.625 162.757 479.685 160.697C467.335 158.377 454.945 156.217 442.555 154.087V153.917V92.1968C450.615 89.4068 458.355 85.1968 461.885 76.9268C465.325 68.9268 463.725 59.4668 459.065 52.2668C447.355 34.1368 421.105 36.7968 406.425 49.6868C399.225 55.9568 395.125 64.9868 398.375 74.3968C399.912 78.361 402.302 81.9388 405.375 84.8768C407.27 86.724 409.299 88.4286 411.445 89.9768C412.445 90.7868 413.545 91.5568 414.635 92.2768C417.108 92.9435 417.538 94.3068 415.925 96.3668C416.182 100.794 414.597 106.064 413.106 111.023L413.106 111.024C412.394 113.391 411.704 115.687 411.245 117.787C410.692 120.317 410.126 122.845 409.561 125.373C408.264 131.169 406.967 136.966 405.825 142.787C405.505 144.488 405.348 146.216 405.355 147.947C383.975 144.617 362.535 141.687 341.005 139.527C310.071 136.429 279.243 135.991 248.198 135.549L246.615 135.527C215.035 135.077 185.015 130.147 154.155 124.527C150.255 123.827 146.345 123.137 142.425 122.527C141.892 104.467 140.812 86.4435 139.185 68.4568C159.275 66.7068 172.185 45.9968 167.925 26.0468C162.755 1.99679 136.425 -6.20321 116.185 5.44679C98.645 15.5268 88.425 38.6868 98.125 57.5668C99.9164 61.1004 102.443 64.2099 105.535 66.6868C106.63 67.5512 107.913 68.1279 109.181 68.6978C110.391 69.242 111.589 69.7801 112.595 70.5568C114.395 70.2968 115.185 70.9068 114.985 72.3868C115.297 73.9911 115.137 75.6515 114.525 77.1668C113.511 85.1398 112.06 93.0524 110.609 100.969L110.609 100.969L110.609 100.969L110.609 100.969L110.609 100.97C109.556 106.715 108.502 112.463 107.615 118.237C95.7512 117.402 83.8326 117.814 72.055 119.467C59.645 121.307 46.055 124.587 35.4249 131.467C25.5049 137.887 20.815 147.767 18.305 159.017C11.765 188.227 8.55495 218.607 5.86495 248.387C0.214952 310.797 0.174951 373.577 1.86495 436.177C2.56495 461.887 5.59495 486.887 26.775 504.117C46.695 520.317 72.4449 524.467 97.3549 525.817C128.895 527.537 159.985 529.367 191.285 534.027C208.129 536.533 224.911 539.395 241.694 542.258L241.695 542.258L241.695 542.258L241.696 542.258C255.85 544.672 270.003 547.086 284.195 549.287C314.613 554.131 345.271 557.322 376.035 558.847C392.095 559.607 408.175 559.927 424.255 560.077ZM531.965 196.287C541.265 205.357 546.095 217.387 548.195 230.027C551.577 250.41 549.92 272.021 548.305 293.079L548.305 293.081C547.752 300.288 547.204 307.43 546.865 314.437C545.312 346.23 543.765 378.017 542.225 409.797C541.418 426.303 540.615 442.807 539.815 459.307C539.693 461.755 539.597 464.219 539.501 466.691C539.059 478.051 538.61 489.577 535.645 500.517C531.565 515.607 521.725 524.657 508.205 531.707L505.515 533.097C507.3 528.816 508.641 524.362 509.515 519.807C511.622 509.136 511.998 498.204 512.372 487.327V487.327C512.419 485.973 512.465 484.619 512.515 483.267C512.699 478.532 512.888 473.797 513.076 469.062C513.532 457.602 513.989 446.14 514.385 434.677C514.878 420.41 515.238 406.133 515.465 391.847C518.826 355.093 521.321 318.206 523.812 281.365L523.813 281.361L523.813 281.356L523.814 281.352L523.817 281.307C524.793 266.876 525.768 252.452 526.795 238.047C526.999 235.203 527.266 232.287 527.537 229.333C528.7 216.656 529.927 203.266 526.505 191.717C528.419 193.125 530.242 194.651 531.965 196.287ZM422.253 115.992L422.249 116.008C421.636 118.714 421.024 121.42 420.425 124.127C420.242 125.025 419.442 128.205 418.481 132.033L418.48 132.036C416.765 138.858 414.534 147.735 414.355 149.407C420.022 150.327 425.688 151.267 431.355 152.227C431.408 130.86 431.435 109.51 431.435 88.1768C431.476 85.6692 433.14 83.4786 435.545 82.7668C443.225 80.4968 452.445 77.1868 452.745 67.7668C452.955 61.4868 448.895 55.0668 443.425 52.2068C431.345 45.8768 399.165 56.8668 410.075 73.9168C412.151 77.1616 415.148 79.2351 418.137 81.3037C420.418 82.8817 422.694 84.4568 424.555 86.5468C427.838 90.2366 427.048 93.9443 426.107 98.3644C426.053 98.6161 425.999 98.8703 425.945 99.1268C424.792 104.775 423.522 110.386 422.253 115.992ZM113.585 59.5268C106.045 55.1368 103.875 44.3668 105.465 36.4068C108.925 19.0568 130.155 3.85679 147.285 13.2768C168.445 24.9168 156.475 59.6568 133.135 57.3768C130.365 57.1068 127.375 60.1268 127.635 62.8768C129.495 82.1568 130.718 101.463 131.305 120.797C126.495 120.107 121.675 119.507 116.845 119.027C118.454 111.5 119.856 103.916 121.262 96.3109L121.263 96.31C121.403 95.5491 121.544 94.788 121.685 94.0268C122.123 91.6817 122.757 89.1755 123.408 86.6027L123.408 86.6026C124.897 80.7169 126.475 74.4821 125.995 69.0268C125.515 63.9225 122.009 62.7358 118.237 61.4588C116.666 60.9269 115.049 60.3794 113.585 59.5268ZM122.986 515.488C132.241 515.82 141.039 516.136 148.865 516.877C180.569 519.886 211.931 525.247 243.287 530.608C268.513 534.92 293.735 539.232 319.125 542.317C347.485 545.569 375.991 547.395 404.535 547.787C420.005 548.087 435.515 548.187 451.005 548.187C452.534 548.187 454.096 548.212 455.677 548.237C466.367 548.407 477.933 548.592 486.235 541.187C499.962 528.948 500.226 506.114 500.441 487.522C500.48 484.133 500.518 480.884 500.635 477.867C500.786 474.159 500.935 470.45 501.084 466.742C502.141 440.45 503.199 414.159 504.855 387.867C504.901 387.022 505.136 386.198 505.545 385.457C507.381 349.035 510.019 312.602 512.653 276.216C513.75 261.064 514.847 245.919 515.885 230.787C516.055 228.316 516.337 225.674 516.629 222.937C517.865 211.349 519.284 198.046 513.185 188.727C506.015 177.757 491.015 174.837 479.015 172.587C447.505 166.637 415.785 161.247 384.015 156.717C354.841 152.425 325.471 149.598 296.015 148.247C285.183 147.805 274.333 147.734 263.484 147.662C246.107 147.548 228.73 147.434 211.425 145.797C195.965 144.339 180.191 141.288 164.296 138.214C127.759 131.147 90.5848 123.958 55.115 135.707C47.485 138.237 39.3149 141.377 34.7649 148.437C31.6049 153.337 30.385 159.277 29.235 164.897C26.455 178.487 24.415 192.287 22.525 206.027C18.625 234.737 16.115 263.637 14.625 292.567C13.165 320.907 12.685 349.297 12.785 377.667C12.865 393.04 13.0783 408.417 13.425 423.797C13.4904 426.381 13.5291 428.979 13.5679 431.584C13.7187 441.711 13.871 451.942 15.605 461.877C24.4161 511.95 78.8792 513.905 122.986 515.488Z" fill="#231F20"/>
<path fill-rule="evenodd" clip-rule="evenodd" d="M460.004 295.907C454.884 309.167 438.784 312.977 427.944 303.907C416.874 294.637 418.654 277.217 430.954 269.757C437.834 265.577 447.734 266.797 452.424 272.457C460.327 277.383 463.529 287.288 460.004 295.907ZM443.904 280.987C440.864 280.307 437.634 281.007 435.714 283.577C433.54 286.508 434.232 289.575 434.95 292.752C435.057 293.228 435.165 293.706 435.264 294.187C435.365 294.663 435.392 295.152 435.344 295.637C438.844 298.227 443.894 298.717 447.244 295.457C450.057 292.86 450.92 288.768 449.394 285.257C449.334 285.152 449.284 285.041 449.244 284.927C448.141 282.883 446.183 281.439 443.904 280.987Z" fill="#231F20"/>
<path fill-rule="evenodd" clip-rule="evenodd" d="M68.4756 273.947C69.4376 273.985 70.3609 274.336 71.1056 274.947C75.0625 278.243 77.1143 283.295 76.5756 288.417C77.3656 294.207 75.8356 300.137 71.0656 304.037C65.2856 308.747 55.4356 308.857 48.5356 306.857C40.1356 304.487 39.2656 296.877 39.6956 289.317C40.1356 281.367 42.4256 272.797 49.8656 268.737C56.4056 265.097 63.5056 266.097 67.7756 272.257C68.0979 272.716 68.285 273.256 68.3156 273.817L68.4756 273.947ZM64.4356 286.087C59.9456 276.227 48.5756 286.807 56.2556 291.567C60.8256 294.407 63.9356 291.737 65.1256 287.907C64.9324 287.287 64.702 286.679 64.4356 286.087Z" fill="#231F20"/>
<path fill-rule="evenodd" clip-rule="evenodd" d="M329.765 268.437C327.267 265.93 323.998 264.338 320.485 263.917C316.303 263.415 311.985 263.982 307.728 264.541C305.877 264.784 304.037 265.025 302.225 265.177C295.075 265.777 287.895 266.177 280.725 266.397C263.082 266.947 245.514 266.21 227.939 265.472C216.794 265.004 205.647 264.536 194.475 264.397C193.707 264.402 192.952 264.594 192.275 264.957C191.308 264.756 190.301 264.947 189.475 265.49C188.65 266.032 188.074 266.88 187.875 267.847C181.285 302.167 181.215 337.597 184.875 372.287L184.944 372.937C187.717 398.975 190.96 429.42 214.405 445.467C235.405 459.857 270.095 460.887 292.025 448.147C313.955 435.407 323.665 409.897 329.315 386.597C338.185 350.077 341.745 309.267 334.045 272.217C333.61 270.149 331.87 268.612 329.765 268.437ZM317.765 384.257C317.671 384.629 317.584 385 317.496 385.371C317.376 385.875 317.257 386.379 317.125 386.887C313.505 400.947 308.595 415.407 299.335 426.887C288.465 440.297 273.005 445.047 256.135 445.177C241.135 445.287 224.835 441.817 214.135 430.557C202.725 418.557 199.975 400.797 197.765 385.027C196.535 376.227 195.645 367.407 195.025 358.597C207.315 356.927 220.325 358.507 231.525 363.897C231.608 364.957 232.139 365.932 232.984 366.579C233.829 367.226 234.909 367.483 235.955 367.287C236.179 367.251 236.406 367.223 236.634 367.195L236.634 367.195C236.854 367.168 237.074 367.141 237.295 367.107C239.193 368.32 241.01 369.656 242.735 371.107C248.876 376.4 253.784 382.974 257.115 390.367C259.11 394.795 259.955 399.343 260.801 403.899C261.405 407.151 262.01 410.407 263.035 413.627C264.435 418.007 271.085 418.387 272.315 413.627C276.525 397.307 265.755 377.787 253.645 365.797C262.607 365.598 271.562 366.43 280.335 368.277C287.561 369.801 294.602 372.101 301.335 375.137C304.025 376.357 306.645 377.717 309.205 379.137C310.911 380.117 312.578 381.14 314.205 382.207C315.625 383.967 316.815 384.267 317.805 383.207C317.751 383.554 317.744 383.907 317.785 384.257H317.765ZM314.205 368.723C316.201 369.734 318.366 370.829 320.425 372.077C326.125 342.157 325.935 312.577 324.025 282.097C323.403 281.466 322.973 280.672 322.785 279.807C321.334 273.767 304.781 276.063 295.27 277.382C292.844 277.719 290.877 277.992 289.735 278.047C279.561 278.5 269.391 278.633 259.225 278.447C238.695 278.047 217.955 277.147 197.525 274.887C197.475 275.002 197.417 275.112 197.36 275.222C197.302 275.332 197.245 275.442 197.195 275.557C196.891 276.282 196.272 276.827 195.515 277.037C194.035 301.307 193.315 325.527 194.515 349.717C211.281 345.358 229.108 348.262 243.625 357.717C258.158 354.613 273.21 354.879 287.625 358.497C296.233 360.603 304.559 363.732 312.425 367.817C312.997 368.112 313.593 368.414 314.205 368.723Z" fill="#231F20"/>
<path d="M491.715 333.387C497.715 316.747 497.105 296.437 497.905 278.947C498.715 261.067 499.985 242.097 496.435 224.447C496.265 223.617 494.845 223.577 494.715 224.447C492.165 241.747 493.085 259.677 492.255 277.137C491.385 295.357 487.115 314.897 489.015 333.017C489.031 333.694 489.536 334.261 490.208 334.353C490.879 334.445 491.518 334.035 491.715 333.387Z" fill="#231F20"/>
<path d="M487.995 369.637C489.713 365.508 490.844 361.159 491.355 356.717C491.885 352.507 492.815 347.847 491.355 343.777C491.21 343.379 490.856 343.094 490.437 343.038C490.017 342.981 489.6 343.162 489.355 343.507C487.145 347.187 487.015 351.857 486.355 356.037C485.627 360.411 485.293 364.842 485.355 369.277C485.449 369.884 485.931 370.358 486.541 370.441C487.15 370.524 487.742 370.197 487.995 369.637Z" fill="#231F20"/>
<path d="M43.7349 423.447C45.5149 409.917 42.3149 394.907 42.1649 381.197C42.0049 367.197 43.6549 352.887 42.5549 338.937C42.555 338.527 42.2522 338.18 41.8459 338.124C41.4396 338.069 41.0548 338.322 40.9449 338.717C36.9449 352.187 36.8749 367.257 36.7849 381.197C36.7049 394.617 35.5149 411.197 40.1849 423.927C40.4558 424.765 41.2878 425.289 42.1605 425.171C43.0332 425.053 43.6963 424.327 43.7349 423.447Z" fill="#231F20"/>
<path d="M44.7457 442.647C44.4204 442.15 43.7862 441.956 43.2387 442.187C42.6912 442.418 42.387 443.007 42.5157 443.587C44.1557 451.447 48.2357 460.327 54.5157 465.497C55.5157 466.317 57.6857 465.577 57.0357 464.027C53.9457 456.607 49.0557 449.457 44.7457 442.647Z" fill="#231F20"/>
</svg>
