<svg width="310" height="579" viewBox="0 0 310 579" fill="none" xmlns="http://www.w3.org/2000/svg">
<path d="M139.044 489.17C127.604 489.65 116.154 489.9 104.764 489.52L103.164 489.44C107.164 503.23 109.084 517.75 112.354 531.7C113.865 538.543 115.871 545.267 118.354 551.82C120.694 557.74 123.624 565.02 129.074 568.82C137.954 574.99 142.204 564.24 142.374 556.82C142.544 549.4 142.094 542.08 141.794 534.75C141.164 519.56 140.034 504.37 139.044 489.17Z" fill="#88E0FF"/>
<path d="M170.964 167.03C165.064 167.6 159.164 168.2 153.274 168.76C147.384 169.32 141.474 169.9 135.564 170.35C132.503 170.694 129.421 170.807 126.344 170.69C127.874 177.59 130.054 184.88 133.894 190.26C138.604 196.87 153.284 199.55 160.804 198.12C168.604 196.63 173.994 190.01 177.374 183.26C180.118 177.641 182.012 171.646 182.994 165.47C179.244 166.84 174.944 166.64 170.964 167.03Z" fill="#E27683"/>
<path d="M253.162 141.84C252.497 141.781 251.828 141.781 251.162 141.84C250.522 141.9 249.782 142.01 249.002 142.16C248.716 142.359 248.442 142.577 248.182 142.81C244.622 146.03 244.392 158.25 251.632 156.54C255.402 155.64 259.732 148.26 256.852 145.02C256.29 144.594 255.695 144.213 255.072 143.88C254.219 143.442 253.543 142.721 253.162 141.84Z" fill="white"/>
<path fill-rule="evenodd" clip-rule="evenodd" d="M229.361 44.0604C229.601 37.9865 230.657 31.9726 232.501 26.1804C236.161 15.2004 244.601 3.67035 257.641 8.74035C268.471 13.0104 272.301 24.9004 272.301 35.6504C272.281 47.8404 267.321 56.9403 259.641 65.9403C258.398 67.2869 258.229 69.3059 259.231 70.8404C258.131 73.0303 259.831 76.5504 262.831 76.3704C294.447 74.4513 296.524 117.802 297.656 141.424L297.656 141.429C297.716 142.671 297.773 143.857 297.831 144.98C299.218 171.759 299.298 198.673 299.377 225.518C299.392 230.602 299.407 235.683 299.431 240.76C299.49 254.146 299.569 267.534 299.647 280.922L299.647 280.934L299.648 280.947L299.648 280.959L299.648 280.971L299.648 280.983L299.648 280.996L299.648 281.017L299.648 281.038L299.648 281.059L299.648 281.079L299.648 281.1L299.648 281.121C299.756 299.383 299.863 317.647 299.921 335.91C299.93 338.888 299.946 341.867 299.962 344.846V344.848V344.85V344.853V344.855V344.857V344.86C300.115 373.051 300.269 401.275 294.011 428.91C293.904 429.386 293.798 429.855 293.694 430.318C290.812 443.111 288.928 451.477 281.111 464.08C275.991 472.34 264.541 474.62 256.541 474.34L223.471 476.12L192.261 477.51C185.269 477.817 178.276 478.117 171.283 478.416L171.238 478.418L171.198 478.42L171.158 478.421L171.118 478.423L171.078 478.425L171.038 478.426L171.037 478.427L171.036 478.427L171.035 478.427L171.034 478.427L171.033 478.427L171.032 478.427C156.924 479.031 142.815 479.634 128.711 480.3L128.178 480.326L127.443 480.362L126.848 480.392H126.848C108.073 481.314 88.5183 482.274 70.931 474.53C56.221 468.06 44.061 456.84 34.851 443.84C12.501 412.23 9.29096 372.24 8.29096 334.72C7.14096 292.54 7.53096 250.31 8.66096 208.14C8.69851 206.751 8.73585 205.361 8.77319 203.97C9.37242 181.663 9.97306 159.303 11.451 137.04C12.731 117.65 17.511 94.0203 37.991 86.2403C39.6877 85.6894 40.673 83.9237 40.251 82.1904C42.301 81.4604 43.711 79.3304 41.841 77.1904C40.9587 76.1827 40.0667 75.1848 39.1761 74.1885L39.1756 74.1879C33.3935 67.7196 27.6705 61.3174 25.071 52.7304C21.741 41.7004 23.901 28.7104 33.651 21.6104C37.721 18.6504 43.161 16.8404 48.161 17.8404C53.841 19.0004 57.361 24.0004 60.391 28.5204C67.231 38.6304 72.571 49.4003 70.641 61.8703C70.2387 63.5619 71.1736 65.2852 72.811 65.8703C73.1376 66.2088 73.5732 66.4212 74.041 66.4704C78.1028 66.935 82.2935 66.1904 86.4176 65.4577L86.4178 65.4577C88.1521 65.1495 89.8747 64.8435 91.571 64.6304C97.961 63.7904 104.361 63.2004 110.791 62.7904C123.821 62.0104 136.931 62.0104 149.931 62.0104C162.931 61.9637 175.931 62.077 188.931 62.3504C195.631 62.4837 202.314 62.657 208.981 62.8703C210.115 62.9069 211.374 63.015 212.694 63.1283L212.695 63.1284L212.695 63.1284C216.787 63.4797 221.476 63.8823 224.931 62.3703C225.634 62.8871 226.552 63.0073 227.364 62.6886C228.176 62.37 228.767 61.6571 228.931 60.8004C229.734 57.4583 229.581 53.8764 229.429 50.321C229.339 48.2061 229.249 46.1005 229.361 44.0604ZM33.091 40.7104C33.161 46.7204 34.771 53.7404 39.161 58.0303C40.891 59.7004 44.021 57.9804 43.691 55.6904C43.4405 53.7795 42.76 51.5242 42.0375 49.1296C40.1926 43.0152 38.0738 35.993 42.141 31.4804C43.901 29.5304 41.041 26.2704 38.961 28.0304C34.851 31.5104 33.091 35.1804 33.091 40.7104ZM45.7713 147.45C55.5117 139.94 71.6024 142.87 77.3327 154.07C82.8029 164.74 81.0629 184 68.3323 188.75C66.5429 189.426 64.6311 189.715 62.7221 189.6C55.7217 190.07 48.0014 187.12 43.7212 182.25C35.8709 173.09 35.8509 155.11 45.8013 147.45H45.7713ZM79.771 331.55C95.051 331.76 111.841 322.67 122.841 312.55H122.871C132.531 303.69 141.911 287.95 134.571 274.93C127.001 261.27 109.361 265.06 97.001 268.12C91.721 269.42 86.481 270.87 81.301 272.55C79.8633 273.017 78.4163 273.551 76.9595 274.088L76.9592 274.089C73.1672 275.488 69.3082 276.912 65.371 277.23C57.9693 277.82 51.627 273.239 45.6717 268.937L45.6713 268.937C43.951 267.694 42.2629 266.475 40.591 265.41C38.471 264 36.311 267.16 37.591 269C42.201 275.59 48.551 281.63 56.201 284.41C64.5136 287.42 72.4686 284.877 80.5116 282.306L80.591 282.28C81.4465 282.004 82.5128 281.639 83.7463 281.216L83.7494 281.215L83.7513 281.215C96.4049 276.88 126.635 266.524 127.491 284.28C128.331 301.73 106.841 314.19 92.971 319.34C84.2888 322.706 74.64 322.577 66.051 318.98C62.4681 317.54 59.0869 315.521 55.7113 313.505L55.7108 313.505C51.4928 310.986 47.2835 308.472 42.701 307.1C39.741 306.21 37.401 310.3 39.181 312.6C43.631 318.35 51.411 322.62 57.831 325.8C64.6296 329.315 72.1226 331.278 79.771 331.55ZM149.651 206.46C141.491 204.93 131.711 202.46 126.731 195.29C121.091 187.12 118.641 176.17 116.731 166.58C115.671 161.18 114.951 155.72 114.401 150.24C114.299 149.202 114.15 148.093 113.996 146.947C113.518 143.382 112.992 139.464 113.681 136.24C114.305 133.454 116.885 131.552 119.731 131.78C123.966 129.885 129.103 129.37 133.866 128.892L133.866 128.892L133.866 128.892L133.867 128.892C134.907 128.788 135.93 128.685 136.921 128.57C143.521 127.81 150.134 127.144 156.761 126.57L157.983 126.456C163.711 125.922 169.47 125.385 175.221 125.17C179.411 125.01 183.681 125.37 186.831 128.45C192.611 134.11 192.831 146.33 192.831 153.84C192.922 163.409 191.205 172.909 187.771 181.84C181.481 198.28 168.161 209.91 149.681 206.46H149.651ZM223.411 277.31C238.211 282.22 255.331 279.97 263.991 265.89H264.021C265.161 264.01 262.341 261.61 260.721 263.11C247.981 274.47 229.701 272.18 215.911 264.18C212.863 262.42 209.675 259.845 206.372 257.176C196.667 249.335 185.967 240.69 174.911 249.56C162.701 259.36 166.271 278.89 172.181 291.22C178.661 304.72 190.071 315.87 204.251 321.02C220.591 326.96 241.651 325.89 255.741 314.96C259.081 312.32 256.321 305.89 252.081 307.96C235.081 316.29 216.471 319.22 199.471 308.9C185.431 300.39 171.261 279.51 176.751 262.34C178.371 257.23 183.231 252.83 188.751 255.48C191.567 256.832 194.109 259.044 196.594 261.206C197.841 262.292 199.075 263.365 200.321 264.31C207.411 269.67 214.951 274.5 223.411 277.31ZM269.352 170.42C265.182 177.37 258.422 183.34 249.872 181.93C242.661 180.74 234.481 177.48 230.661 170.93C226.841 164.38 226.771 153.93 229.521 146.87C231.981 140.53 237.001 137.37 242.831 135.47C246.193 132.818 250.42 131.51 254.692 131.8C273.602 133.19 277.572 156.76 269.382 170.42H269.352ZM254.998 50.8765C255.841 51.1445 256.763 50.8913 257.351 50.2304H257.431C264.071 41.4504 260.891 28.2404 253.911 20.6504C252.141 18.7104 248.211 20.0904 249.451 22.9904C252.418 29.984 252.749 36.383 253.11 43.3412C253.205 45.1782 253.303 47.0542 253.451 48.9903C253.549 49.8694 254.155 50.6084 254.998 50.8765Z" fill="#88E0FF"/>
<path d="M176.164 487.34C179.314 501.4 179.634 516.23 181.594 530.49C182.974 540.49 184.074 560.49 197.314 562.29C206.194 563.48 205.524 553.7 205.804 547.54L206.854 524.19C207.201 516.397 207.534 508.614 207.854 500.84C208.054 496.12 207.784 490.93 208.424 486.05L178.474 487.24L176.164 487.34Z" fill="#88E0FF"/>
<path d="M67.0019 167.48C68.3119 162.33 63.4119 156.48 58.0619 158.86C56.8064 159.415 55.7222 160.295 54.9219 161.41C55.1166 163.713 55.7694 165.954 56.8419 168C59.4819 172.56 65.4919 173.44 67.0019 167.48Z" fill="white"/>
<path fill-rule="evenodd" clip-rule="evenodd" d="M68.3833 188.75C66.594 189.426 64.6822 189.715 62.7733 189.6C55.7533 190.07 48.0533 187.12 43.8233 182.25C35.8933 173.09 35.8733 155.11 45.8233 147.45C55.5633 139.94 71.6533 142.87 77.3833 154.07C82.8333 164.75 81.0933 184 68.3833 188.75ZM67.0033 167.46C68.3133 162.31 63.4133 156.45 58.0633 158.84C56.8078 159.395 55.7236 160.275 54.9233 161.39C55.118 163.693 55.7708 165.933 56.8433 167.98C59.4833 172.54 65.4933 173.46 67.0033 167.46Z" fill="#231F20"/>
<path fill-rule="evenodd" clip-rule="evenodd" d="M229.553 146.84C232.013 140.5 237.033 137.34 242.863 135.44C246.22 132.778 250.447 131.459 254.723 131.74C273.603 133.16 277.573 156.73 269.383 170.39C265.213 177.34 258.453 183.31 249.903 181.9C242.693 180.74 234.563 177.56 230.693 170.9C226.823 164.24 226.803 153.93 229.553 146.84ZM251.643 156.53C255.414 155.63 259.744 148.25 256.864 145.01H256.824C256.274 144.593 255.692 144.218 255.084 143.89C254.226 143.447 253.551 142.719 253.174 141.83C252.508 141.771 251.839 141.771 251.173 141.83C250.533 141.89 249.793 142 249.013 142.15C248.726 142.35 248.453 142.567 248.193 142.8C244.643 146.02 244.403 158.24 251.643 156.53Z" fill="#231F20"/>
<path fill-rule="evenodd" clip-rule="evenodd" d="M192.922 153.77C193.014 163.339 191.297 172.839 187.862 181.77C181.482 198.28 168.162 209.91 149.742 206.39C141.582 204.86 131.822 202.43 126.822 195.22C121.162 187.05 118.712 176.1 116.822 166.51C115.762 161.11 115.042 155.65 114.492 150.17C114.39 149.122 114.24 148.004 114.086 146.85C113.608 143.281 113.085 139.374 113.772 136.17C114.396 133.384 116.976 131.482 119.822 131.71C124.084 129.813 129.21 129.299 133.968 128.821C135.005 128.717 136.024 128.615 137.012 128.5C143.619 127.774 150.232 127.107 156.852 126.5C157.26 126.462 157.667 126.424 158.075 126.386C163.802 125.852 169.562 125.315 175.312 125.1C179.502 124.94 183.772 125.3 186.922 128.38C192.662 134.04 192.872 146.26 192.922 153.77ZM133.893 190.26C138.603 196.87 153.283 199.551 160.803 198.12C168.603 196.63 173.993 190.01 177.343 183.26C180.088 177.642 181.982 171.646 182.964 165.47C180.255 166.446 177.25 166.621 174.272 166.795C173.16 166.859 172.051 166.924 170.963 167.03C165.063 167.6 159.173 168.17 153.273 168.76C147.373 169.35 141.473 169.9 135.563 170.35C132.502 170.694 129.42 170.808 126.342 170.69C127.892 177.59 130.052 184.88 133.893 190.26Z" fill="#231F20"/>
<path d="M260.692 263.08C247.952 274.44 229.692 272.13 215.882 264.15C203.882 257.22 189.752 237.64 174.882 249.53C162.672 259.33 166.242 278.86 172.152 291.19C178.632 304.69 190.042 315.84 204.222 320.99C220.562 326.92 241.622 325.86 255.712 314.93C259.062 312.33 256.292 305.93 252.052 307.93C235.052 316.26 216.482 319.19 199.442 308.87C185.442 300.36 171.232 279.48 176.722 262.31C178.352 257.2 183.212 252.8 188.722 255.45C192.952 257.45 196.562 261.45 200.292 264.28C207.352 269.63 214.922 274.46 223.382 277.28C238.182 282.19 255.302 279.94 263.962 265.86C265.162 264.01 262.342 261.61 260.692 263.08Z" fill="#231F20"/>
<path d="M97.0624 268.07C91.7824 269.37 86.549 270.847 81.3624 272.5C76.1824 274.15 70.8824 276.74 65.4324 277.18C55.8924 277.94 48.1124 270.11 40.6524 265.36C38.5024 263.98 36.3424 267.11 37.6524 268.95C42.2224 275.54 48.6524 281.58 56.2624 284.36C64.6024 287.36 72.5824 284.81 80.6524 282.23C90.2824 279.15 126.652 264.77 127.552 284.23C128.392 301.68 106.902 314.14 93.0324 319.29C84.3502 322.656 74.7014 322.527 66.1124 318.93C58.0524 315.69 51.0124 309.52 42.7624 307.05C39.7624 306.16 37.4624 310.25 39.2424 312.55C43.6924 318.3 51.4724 322.55 57.8924 325.75C64.691 329.265 72.184 331.228 79.8324 331.5C95.1124 331.73 111.832 322.64 122.902 312.5C132.562 303.64 141.902 287.9 134.662 274.83C127.032 261.22 109.422 265.01 97.0624 268.07Z" fill="#231F20"/>
<path fill-rule="evenodd" clip-rule="evenodd" d="M222.433 38.0203C223.132 30.2626 225.272 22.7033 228.743 15.7303C235.023 3.56028 246.703 -3.22972 260.223 1.53028C274.163 6.42028 280.853 20.9803 281.083 34.9803C281.273 46.1503 278.333 60.2603 270.023 68.7203C281.063 69.8003 290.643 77.9303 295.973 87.8603C303.854 102.519 305.042 120.824 306.108 137.248C306.143 137.788 306.178 138.325 306.213 138.86C307.849 163.726 307.985 188.728 308.121 213.694V213.695V213.695C308.177 223.97 308.232 234.239 308.393 244.49C308.933 279.88 309.083 315.28 309.183 350.68C309.273 384.56 308.223 417.68 297.713 450.2C294.003 461.68 290.463 470.79 279.933 477.79C272.159 482.962 264.443 483.275 255.383 483.643C253.232 483.731 251.004 483.821 248.683 483.98C243.043 484.218 237.891 484.543 232.877 484.859H232.877H232.877C227.747 485.183 222.761 485.498 217.543 485.7H216.323C216.401 487.786 216.278 489.866 216.153 491.97C216.102 492.832 216.051 493.698 216.013 494.57C215.786 499.75 215.559 504.937 215.333 510.13C214.919 519.764 214.519 529.4 214.133 539.04C214.077 540.381 214.051 541.821 214.023 543.322C213.799 555.361 213.503 571.279 197.783 570.39C183.083 569.55 177.413 554.39 175.193 542.03C173.583 533.12 172.603 524.17 171.753 515.03L171.687 514.324C170.857 505.416 170.022 496.445 171.113 487.55C166.77 487.757 162.422 487.986 158.071 488.215L158.061 488.215C154.2 488.419 150.336 488.622 146.473 488.81C148.423 508.16 149.243 527.66 149.863 547.09C149.891 548 149.93 548.923 149.968 549.855C150.253 556.722 150.556 564.056 147.193 570.22C144.173 575.75 138.353 579.49 131.923 578.54C116.563 576.26 110.183 554.72 106.733 542.26C104.75 535.13 103.236 527.871 101.725 520.622C101.498 519.534 101.271 518.447 101.043 517.36C100.538 514.958 100.002 512.548 99.4639 510.132L99.4627 510.126L99.4625 510.126C97.8928 503.072 96.3117 495.967 95.4628 488.84C80.5428 487.26 66.5128 482.84 53.8028 474.18C40.1628 464.84 29.1628 451.64 21.2328 437.2C1.4716 401.057 0.84511 358.432 0.254205 318.227L0.232762 316.77C-0.447238 271.14 0.432762 225.49 1.96276 179.89C2.14226 174.445 2.18588 168.922 2.22974 163.371C2.35203 147.89 2.47614 132.18 5.55276 117.26C8.85276 101.26 17.9428 85.7003 33.7928 79.8903C13.5328 64.0103 6.87276 27.0603 32.7128 13.1203C45.3228 6.31028 57.4328 10.7603 65.4328 21.8703C72.9228 32.3203 80.8528 45.9703 78.8528 59.3203C82.452 58.1599 86.1275 57.2511 89.8528 56.6003C96.5272 55.2594 103.281 54.3508 110.073 53.8803C123.073 52.8603 136.173 52.6803 149.173 52.6003C162.913 52.5136 176.649 52.5936 190.383 52.8403C197.436 52.9669 204.489 53.1403 211.543 53.3603C212.5 53.3872 213.517 53.3739 214.563 53.3601H214.563H214.564C217.014 53.328 219.624 53.2937 221.993 53.7703C221.433 48.5003 221.953 42.7303 222.433 38.0203ZM129.074 568.84C137.954 574.96 142.204 564.21 142.374 556.84C142.512 551.251 142.275 545.604 142.04 539.988C141.968 538.258 141.895 536.531 141.834 534.81C141.34 522.674 140.522 510.564 139.704 498.453L139.704 498.452L139.704 498.451C139.496 495.364 139.287 492.278 139.084 489.19C127.644 489.67 116.193 489.92 104.803 489.54L103.163 489.46C105.577 497.803 107.237 506.395 108.896 514.981C109.979 520.587 111.061 526.19 112.353 531.72C113.865 538.563 115.87 545.287 118.353 551.84C120.693 557.77 123.623 565.05 129.074 568.84ZM207.893 500.84C207.559 508.62 207.226 516.404 206.893 524.19L205.843 547.54C205.816 548.134 205.798 548.762 205.779 549.41L205.779 549.413C205.603 555.487 205.375 563.365 197.353 562.29C185.373 560.671 183.332 544.142 182.03 533.596L182.03 533.593C181.893 532.485 181.764 531.442 181.633 530.49C180.881 525.128 180.372 519.685 179.862 514.232L179.862 514.231C179.016 505.185 178.168 496.113 176.203 487.34L178.523 487.24L208.473 486.05C208.043 489.274 208.015 492.634 207.988 495.903C207.974 497.583 207.961 499.239 207.893 500.84ZM259.613 66.0003C267.273 57.0003 272.273 47.9003 272.273 35.7103C272.283 24.9603 268.443 13.0703 257.653 8.83028C244.643 3.70028 236.243 15.2103 232.543 26.2103C230.699 32.0025 229.643 38.0165 229.403 44.0903C229.291 46.1304 229.381 48.236 229.471 50.3509C229.623 53.9063 229.775 57.4882 228.973 60.8303C228.809 61.687 228.218 62.3999 227.406 62.7186C226.594 63.0372 225.675 62.9171 224.973 62.4003C221.527 63.9385 216.853 63.5265 212.768 63.1665C211.436 63.0491 210.166 62.9372 209.023 62.9003C202.323 62.6803 195.639 62.5069 188.973 62.3803C175.973 62.1103 163.013 62.0103 149.973 62.0403C148.655 62.0433 147.336 62.0453 146.017 62.0473C134.286 62.0652 122.519 62.0832 110.833 62.8203C104.403 63.2303 98.0028 63.8703 91.6128 64.6603C89.9164 64.8734 88.1938 65.1795 86.4594 65.4876C82.3353 66.2203 78.1446 66.9649 74.0828 66.5003C73.615 66.4511 73.1795 66.2387 72.8528 65.9003C71.2154 65.3152 70.2805 63.5919 70.6828 61.9003C72.6128 49.4303 67.2728 38.6603 60.4328 28.5503C57.3628 24.0003 53.8428 19.0003 48.1328 17.8403C43.0928 16.8303 37.6928 18.6103 33.6228 21.6103C23.8728 28.7303 21.7128 41.7303 25.0428 52.7303C27.656 61.3914 33.4314 67.8298 39.285 74.3551C40.129 75.2961 40.9747 76.2388 41.8128 77.1903C43.6828 79.3003 42.2728 81.4303 40.2228 82.1903C40.6448 83.9236 39.6595 85.6893 37.9628 86.2403C17.4828 94.0403 12.7028 117.65 11.4228 137.04C9.94487 159.303 9.34422 181.663 8.74499 203.97C8.70765 205.361 8.67031 206.751 8.63276 208.14C7.50276 250.31 7.11276 292.54 8.26276 334.72C9.29276 372.24 12.4728 412.23 34.8228 443.84C44.0328 456.9 56.1628 468.09 70.9028 474.59C88.525 482.33 108.122 481.368 126.931 480.446C127.516 480.417 128.1 480.389 128.683 480.36C142.793 479.681 156.907 479.081 171.019 478.482C178.091 478.181 185.163 477.881 192.233 477.57L223.443 476.18L256.513 474.4C264.473 474.68 275.963 472.41 281.083 464.14C288.9 451.537 290.784 443.171 293.665 430.378C293.77 429.915 293.875 429.446 293.983 428.97C300.251 401.221 300.093 372.904 299.934 344.646C299.918 341.753 299.902 338.861 299.893 335.97C299.835 317.668 299.727 299.365 299.62 281.064C299.541 267.648 299.462 254.233 299.403 240.82C299.379 235.743 299.364 230.662 299.349 225.578C299.27 198.733 299.19 171.819 297.803 145.04C297.744 143.916 297.687 142.728 297.628 141.486C296.496 117.866 294.42 74.5302 262.803 76.4303C259.823 76.6103 258.103 73.0903 259.203 70.9003C258.201 69.3659 258.37 67.3469 259.613 66.0003Z" fill="#231F20"/>
<path d="M249.505 22.9905C253.285 31.8305 252.825 39.7205 253.505 48.9905C253.603 49.8696 254.209 50.6086 255.052 50.8766C255.895 51.1446 256.817 50.8915 257.405 50.2305C264.045 41.4505 260.865 28.2305 253.935 20.6505C252.165 18.7105 248.265 20.0905 249.505 22.9905Z" fill="#231F20"/>
<path d="M43.7201 55.6903C42.8303 48.9003 36.5112 37.7602 42.1704 31.4801C43.9301 29.4801 41.0705 26.2701 38.9909 28.0301C34.8815 31.5101 33.0818 35.1802 33.1217 40.7102C33.1217 46.7103 34.8015 53.7103 39.1908 58.0304C40.8906 59.7004 44.0201 57.9804 43.7201 55.6903Z" fill="#231F20"/>
</svg>
