<svg width="420" height="552" viewBox="0 0 420 552" fill="none" xmlns="http://www.w3.org/2000/svg">
<path fill-rule="evenodd" clip-rule="evenodd" d="M372.214 37.0903C382.834 32.2703 397.024 34.7203 404.684 43.8103C418.934 60.7503 405.374 103.04 381.114 103.12C377.854 103.12 375.964 106.12 376.554 109.12C398.53 220.932 401.878 335.607 386.464 448.51C382.184 479.357 376.547 509.934 369.554 540.24C311.441 542.8 253.384 542.594 195.384 539.62C139.164 536.73 83.3339 530.52 27.5439 523.33C27.5245 523.118 27.4911 522.908 27.4439 522.7C0.78391 414.48 4.93391 299.49 38.5439 193.31C48.1736 162.991 60.212 133.491 74.5439 105.09C75.7509 102.85 75.0168 100.057 72.8639 98.7003C48.9339 80.9403 28.7339 45.1303 53.2839 19.0303C64.7639 6.83032 82.0039 6.98032 95.6739 15.5003C110.824 24.9403 118.314 42.1703 123.104 58.6403C123.652 60.4378 125.201 61.7485 127.065 61.9919C128.928 62.2354 130.762 61.3666 131.754 59.7703C152.918 26.8839 199.197 30.4491 234.464 33.1659C237.224 33.3786 239.916 33.586 242.524 33.7703C278.204 36.2803 316.284 42.5603 343.094 68.2803C345.514 70.6103 350.274 69.8103 351.014 66.1903C353.504 54.0003 360.524 42.4003 372.214 37.0903ZM87.9239 128.29C84.7645 130.099 82.5082 133.15 81.7039 136.7C80.483 141.293 82.4018 146.145 86.4339 148.66C88.5654 150.939 91.5066 152.289 94.6239 152.42C98.9328 152.601 103.051 150.634 105.617 147.168C108.184 143.702 108.864 139.189 107.434 135.12C107.037 132.754 105.96 130.554 104.334 128.79C100.614 124.8 91.2639 122.09 88.0039 128.09C87.9239 128.15 87.9239 128.22 87.9239 128.29ZM305.134 277.6C294.594 314.66 268.364 345.34 231.134 357.13C194.964 368.6 155.654 360.13 130.504 330.94C116.574 314.8 106.844 295.21 98.6539 275.66C89.4239 253.66 83.2839 230.08 85.8439 206.04C85.9398 204.983 86.3787 203.985 87.0939 203.2C87.4592 202.39 87.9711 201.654 88.6039 201.03C89.3158 200.339 90.1734 199.816 91.1139 199.5C91.6387 199.157 92.2395 198.948 92.8639 198.89C114.681 196.426 136.749 195.427 158.752 194.431L158.753 194.431L158.757 194.431C166.847 194.064 174.928 193.698 182.984 193.26L207.244 192C205.116 185.211 205.024 178.245 204.932 171.188V171.188V171.187C204.908 169.357 204.884 167.521 204.824 165.68C204.694 161.775 203.86 158.488 203.005 155.114C202.546 153.304 202.08 151.469 201.714 149.5C201.435 148.136 201.5 146.723 201.904 145.39C197.617 144.839 193.407 143.802 189.354 142.3C188.84 142.111 188.311 141.924 187.774 141.734L187.773 141.733C183.18 140.107 178.032 138.284 176.644 133.35C176.226 131.85 176.65 130.24 177.754 129.14C185.064 122.31 198.754 129.21 206.444 135.03C210.93 132.489 215.612 130.309 220.444 128.51C221.068 128.279 221.738 128.018 222.441 127.745C226.658 126.104 232.077 123.996 236.174 124.87C245.234 126.81 240.324 136.95 234.754 139.72C231.817 141.172 228.68 141.465 225.523 141.76C223.853 141.915 222.178 142.072 220.524 142.4C217.974 142.9 213.024 144.4 211.644 146.95C210.81 148.493 211.584 150.687 212.288 152.684C212.597 153.561 212.893 154.401 213.034 155.13C214.003 160.189 214.063 165.322 214.123 170.44C214.206 177.574 214.289 184.676 216.834 191.5L273.154 188.61C275.36 188.499 277.571 188.357 279.783 188.214L279.784 188.214C284.149 187.932 288.52 187.65 292.874 187.61C296.454 187.61 300.204 187.83 302.874 190.55C307.57 195.28 308.502 205.341 309.205 212.924C309.344 214.431 309.475 215.84 309.624 217.09C312.138 237.359 310.612 257.925 305.134 277.6ZM326.399 148.193C330.714 149.563 335.432 148.551 338.804 145.53C345.734 139.13 343.764 126.76 334.294 123.99C331.343 123.127 328.162 123.614 325.604 125.32C320.284 127.23 316.434 132.54 317.804 138.86C318.815 143.273 322.084 146.823 326.399 148.193Z" fill="#754C29"/>
<path d="M331.513 133.12C329.153 132.86 329.063 137.53 328.613 139.25C329.76 139.893 331.184 139.761 332.193 138.92C333.873 137.6 334.533 133.45 331.513 133.12Z" fill="white"/>
<path d="M292.844 197.121C290.924 196.671 288.044 197.171 285.754 197.421C288.394 212.421 287.754 228.781 288.564 243.901C289.054 252.591 289.504 261.301 289.964 270.001C290.284 276.001 291.094 282.251 291.194 288.391C295.063 279.028 297.834 269.25 299.454 259.251C302.392 240.677 301.805 221.717 297.724 203.361C296.934 199.581 296.654 198.021 292.844 197.121Z" fill="white"/>
<path d="M285.084 271.37C284.644 263.13 284.204 254.887 283.764 246.64C283.304 237.94 282.884 229.24 282.454 220.54C282.074 213.03 281.144 205.25 281.514 197.69L267.514 198.39C263.074 198.62 258.624 198.83 254.174 199.05C255.064 201.93 255.124 205.05 255.364 208.13C255.794 213.7 256.164 219.27 256.534 224.84C257.354 236.9 258.077 248.97 258.704 261.05C259.884 283.93 261.374 306.97 261.434 329.9C272.119 320.78 280.877 309.618 287.194 297.07C287.112 296.929 287.049 296.778 287.004 296.62C285.084 288.54 285.534 279.7 285.084 271.37Z" fill="white"/>
<path d="M253.784 265.23C253.217 253.623 252.6 242.017 251.934 230.41C251.364 220.23 251.624 209.41 250.094 199.25L233.674 200.07L210.674 201.19C212.674 212.77 212.104 225.32 212.594 236.96C213.147 250.08 213.65 263.197 214.104 276.31C214.974 301.18 216.034 326.09 216.374 350.98C225.343 349.351 234.043 346.483 242.224 342.46C247.243 339.995 252.032 337.087 256.534 333.77C256.524 333.69 256.524 333.61 256.534 333.53C255.124 310.8 254.934 287.97 253.784 265.23Z" fill="white"/>
<path d="M207.873 238.37C207.463 226.31 205.753 213.47 206.873 201.37C194.207 201.977 181.563 202.58 168.943 203.18C170.163 214.1 169.693 225.43 169.943 236.34C170.243 248.553 170.547 260.76 170.853 272.96C171.463 298.07 172.783 323.28 172.623 348.4C185.096 352.367 198.294 353.511 211.263 351.75C210.353 327.08 209.953 302.38 209.173 277.75C208.76 264.61 208.327 251.483 207.873 238.37Z" fill="white"/>
<path d="M96.133 141.33C97.8855 140.336 98.6964 138.246 98.073 136.33C97.2595 135.439 96.0726 134.987 94.873 135.11C92.963 135.29 90.633 137.05 90.543 139.11C90.5476 139.324 90.5677 139.538 90.603 139.75C91.073 142.03 94.373 142.26 96.133 141.33Z" fill="white"/>
<path d="M128.333 266.79C127.003 246.66 124.333 225.49 125.763 205.33C115.643 205.77 105.523 206.08 95.4129 206.02C92.7229 231.28 99.9929 255.73 110.283 278.55C116.283 291.92 123.063 305.45 131.863 317.36C130.973 310.64 131.053 303.51 130.543 297.1C129.736 287.013 129 276.91 128.333 266.79Z" fill="white"/>
<path d="M165.374 236.35C165.134 225.52 164.104 214.27 164.814 203.35L163.294 203.42C151.864 203.94 140.394 204.63 128.934 205.16C131.884 224.86 131.504 245.5 132.844 265.37C133.557 275.95 134.344 286.52 135.204 297.08C135.904 305.7 137.914 315.26 137.154 324C139.877 327.181 142.8 330.187 145.904 333C152.379 338.833 159.838 343.471 167.934 346.7C166.704 322.65 166.794 298.44 166.244 274.37C165.944 261.696 165.654 249.023 165.374 236.35Z" fill="white"/>
<path fill-rule="evenodd" clip-rule="evenodd" d="M372.373 26.9301C386.373 22.3601 403.313 26.9501 412.543 38.5501C429.933 60.4201 415.033 106.45 386.673 112.06C392.413 141.867 396.833 171.867 399.933 202.06C411.666 317.125 404.16 433.34 377.723 545.94C377.144 547.924 375.34 549.299 373.273 549.33C346.867 550.57 320.46 551.19 294.053 551.19C201.763 551.32 108.433 545.33 17.4332 529.46C13.5232 528.78 14.2032 522.35 17.8032 522.13C10.4814 491.822 5.48685 460.999 2.86321 429.93C-6.45524 317.713 14.9064 205.074 64.6632 104.06C50.0232 92.4301 37.4532 77.0501 33.8232 58.3101C30.5632 41.5001 35.4032 23.0801 47.9232 11.0801C61.5732 -2.03994 81.3132 -2.95994 97.5732 5.69006C113.833 14.3401 123.373 30.4601 129.373 47.3401C154.823 18.3646 199.877 21.3985 235.947 23.8274C237.421 23.9267 238.881 24.025 240.323 24.1201C276.773 26.5601 315.153 32.6201 343.933 56.3701C348.663 43.0101 358.583 31.4401 372.373 26.9301ZM376.553 109.12C375.963 106.12 377.853 103.12 381.113 103.12C405.373 103.04 418.933 60.7501 404.723 43.8101C397.063 34.7201 382.873 32.2701 372.253 37.0901C360.563 42.4001 353.543 54.0001 351.053 66.1901C350.313 69.8101 345.553 70.6101 343.133 68.2801C316.323 42.5601 278.243 36.3001 242.563 33.7701C239.956 33.5857 237.263 33.3783 234.503 33.1657C199.236 30.4488 152.957 26.8836 131.793 59.7701C130.801 61.3663 128.968 62.2351 127.104 61.9917C125.241 61.7482 123.692 60.4376 123.143 58.6401C118.353 42.1701 110.863 24.9401 95.7132 15.5001C82.0432 7.03006 64.8032 6.83006 53.3232 19.0301C28.7732 45.1301 48.9032 80.9401 72.9032 98.6801C75.0561 100.037 75.7902 102.83 74.5832 105.07C60.2513 133.47 48.2129 162.971 38.5832 193.29C4.93321 299.49 0.783212 414.48 27.4432 522.7C27.4904 522.908 27.5238 523.118 27.5432 523.33C83.3832 530.52 139.163 536.73 195.383 539.62C253.497 542.56 311.553 542.767 369.553 540.24C376.6 509.907 382.237 479.33 386.463 448.51C401.877 335.607 398.529 220.932 376.553 109.12Z" fill="#231F20"/>
<path fill-rule="evenodd" clip-rule="evenodd" d="M302.873 190.55C300.173 187.83 296.423 187.55 292.873 187.61C288.52 187.65 284.148 187.932 279.783 188.214L279.783 188.214C277.57 188.357 275.36 188.499 273.153 188.61L216.833 191.5C214.289 184.676 214.206 177.574 214.122 170.44C214.062 165.323 214.002 160.189 213.033 155.13C212.893 154.401 212.597 153.558 212.288 152.677C211.584 150.671 210.809 148.465 211.643 146.95C213.023 144.39 217.973 142.9 220.523 142.4C222.177 142.072 223.852 141.915 225.522 141.76C228.679 141.465 231.817 141.172 234.753 139.72C240.323 136.95 245.233 126.81 236.173 124.87C232.02 124.002 226.508 126.153 222.267 127.807C221.627 128.057 221.016 128.295 220.443 128.51C215.611 130.309 210.93 132.49 206.443 135.03C198.783 129.21 185.063 122.31 177.753 129.14C176.65 130.24 176.225 131.85 176.643 133.35C178.031 138.284 183.179 140.107 187.773 141.734C188.309 141.924 188.839 142.111 189.353 142.3C193.416 143.804 197.636 144.841 201.933 145.39C201.529 146.723 201.464 148.136 201.743 149.5C202.11 151.47 202.575 153.31 203.034 155.125L203.035 155.125L203.035 155.125C203.89 158.508 204.723 161.802 204.853 165.68C204.913 167.521 204.937 169.358 204.961 171.188C205.054 178.245 205.145 185.211 207.273 192L183.013 193.26C175.353 193.666 167.675 194.012 159.99 194.359C137.579 195.369 115.114 196.381 92.8933 198.89C92.2689 198.948 91.6681 199.157 91.1433 199.5C90.2028 199.817 89.3452 200.339 88.6333 201.03C88.0005 201.655 87.4886 202.39 87.1233 203.2C86.4081 203.986 85.9692 204.983 85.8733 206.04C83.3133 230.04 89.4533 253.62 98.6833 275.66C106.873 295.21 116.603 314.8 130.533 330.94C155.683 360.09 194.993 368.6 231.163 357.13C268.373 345.34 294.603 314.66 305.163 277.6C310.641 257.925 312.167 237.359 309.653 217.09C309.494 215.807 309.356 214.352 309.208 212.795C308.49 205.238 307.541 195.251 302.873 190.55ZM110.283 278.55C99.9933 255.73 92.7233 231.28 95.4133 206.02C105.523 206.08 115.643 205.77 125.763 205.33C124.681 220.701 125.97 236.658 127.233 252.294C127.626 257.167 128.017 262.008 128.333 266.79C129 276.91 129.737 287.02 130.543 297.12C130.74 299.594 130.849 302.175 130.96 304.798C131.136 308.972 131.317 313.254 131.863 317.38C123.063 305.47 116.313 291.94 110.283 278.57V278.55ZM137.183 324.05C139.907 327.232 142.829 330.238 145.933 333.05C152.411 338.876 159.869 343.508 167.963 346.73C167.135 330.541 166.905 314.279 166.676 298.036C166.564 290.149 166.453 282.267 166.273 274.4C165.987 261.734 165.697 249.067 165.403 236.4C165.329 233.034 165.179 229.632 165.028 226.215V226.215C164.692 218.598 164.353 210.911 164.843 203.4L163.323 203.47C157.462 203.737 151.59 204.049 145.714 204.36L145.713 204.36C140.131 204.656 134.546 204.952 128.963 205.21C130.878 218.169 131.385 231.535 131.89 244.82C132.153 251.731 132.415 258.621 132.873 265.42C133.587 276 134.373 286.57 135.233 297.13C135.45 299.794 135.791 302.548 136.137 305.34C136.911 311.581 137.708 318.011 137.183 324.05ZM172.663 348.41C172.772 331.42 172.203 314.388 171.634 297.373C171.362 289.233 171.091 281.096 170.893 272.97C170.593 260.764 170.29 248.557 169.983 236.35C169.896 232.953 169.882 229.514 169.867 226.06V226.059V226.059V226.058C169.835 218.422 169.803 210.709 168.983 203.19C181.65 202.604 194.293 202 206.913 201.38C206.16 209.662 206.725 218.296 207.281 226.793C207.537 230.7 207.79 234.578 207.913 238.38C208.353 251.5 208.79 264.617 209.223 277.73C209.556 288.255 209.82 298.785 210.083 309.313L210.083 309.313L210.083 309.314L210.083 309.315C210.437 323.464 210.792 337.609 211.313 351.73C198.333 353.507 185.121 352.373 172.633 348.41H172.663ZM216.383 350.98C225.353 349.351 234.053 346.484 242.233 342.46H242.203C247.202 339.992 251.97 337.084 256.453 333.77C256.444 333.691 256.444 333.61 256.453 333.53C255.697 320.804 255.293 308.046 254.888 295.291V295.291V295.29C254.57 285.264 254.252 275.238 253.763 265.23C253.217 253.617 252.61 242.01 251.943 230.41C251.761 227.165 251.664 223.848 251.566 220.507L251.566 220.506L251.566 220.505C251.357 213.388 251.144 206.157 250.103 199.25L233.683 200.07L210.683 201.19C212.096 209.372 212.227 218.037 212.354 226.524V226.524V226.524C212.407 230.05 212.459 233.544 212.603 236.96C213.15 250.08 213.653 263.197 214.113 276.31C214.294 281.475 214.483 286.642 214.672 291.81L214.672 291.811C215.393 311.527 216.114 331.26 216.383 350.98ZM261.443 329.9L261.443 329.875C272.118 320.76 280.869 309.608 287.183 297.07C287.102 296.929 287.038 296.778 286.993 296.62C285.622 290.791 285.475 284.539 285.33 278.399V278.399C285.274 276.029 285.219 273.676 285.093 271.37C284.647 263.137 284.207 254.894 283.773 246.64C283.405 239.682 283.063 232.724 282.721 225.765C282.635 224.024 282.549 222.282 282.463 220.54C282.352 218.344 282.194 216.125 282.035 213.895V213.895C281.651 208.499 281.261 203.04 281.523 197.69L267.523 198.39C264.541 198.545 261.555 198.69 258.567 198.836L258.562 198.836C257.103 198.907 255.643 198.978 254.183 199.05C254.915 201.419 255.086 203.95 255.257 206.487L255.257 206.489C255.294 207.036 255.331 207.584 255.373 208.13C255.803 213.7 256.173 219.27 256.543 224.84C257.363 236.9 258.087 248.97 258.713 261.05C258.918 265.01 259.132 268.976 259.346 272.946C260.366 291.882 261.393 310.926 261.443 329.875L261.413 329.9H261.443ZM291.183 288.39C295.052 279.028 297.824 269.25 299.443 259.25H299.453C302.389 240.677 301.798 221.716 297.713 203.36C297.674 203.19 297.635 203.025 297.598 202.863C296.809 199.441 296.472 197.98 292.833 197.12C291.251 196.75 289.016 197.024 286.998 197.272C286.567 197.325 286.146 197.376 285.743 197.42C287.551 207.711 287.807 218.611 288.058 229.316C288.174 234.245 288.288 239.133 288.553 243.9C288.943 250.816 289.308 257.744 289.672 264.67C289.766 266.447 289.859 268.224 289.953 270C290.081 272.376 290.286 274.804 290.493 277.254C290.806 280.951 291.123 284.698 291.183 288.39Z" fill="#231F20"/>
<path fill-rule="evenodd" clip-rule="evenodd" d="M105.617 147.147C103.05 150.613 98.9321 152.581 94.6233 152.4C91.5117 152.279 88.5714 150.943 86.4333 148.68C82.3841 146.159 80.4628 141.285 81.7033 136.68C82.5076 133.129 84.7638 130.078 87.9233 128.27C88.0033 128.2 88.0033 128.13 88.0033 128.07C91.2633 122.04 100.613 124.77 104.333 128.77C105.96 130.534 107.037 132.733 107.433 135.1C108.864 139.168 108.183 143.681 105.617 147.147ZM98.0733 136.34C97.2598 135.45 96.0729 134.997 94.8733 135.12C92.9333 135.3 90.6333 137.06 90.5433 139.14C90.5479 139.354 90.568 139.568 90.6033 139.78C91.0733 142.04 94.3733 142.27 96.1333 141.34C97.8858 140.346 98.6967 138.256 98.0733 136.34Z" fill="#231F20"/>
<path fill-rule="evenodd" clip-rule="evenodd" d="M325.573 125.32C328.131 123.614 331.312 123.127 334.263 123.99C343.763 126.76 345.733 139.13 338.773 145.53C335.401 148.551 330.683 149.564 326.368 148.193C322.053 146.823 318.784 143.273 317.773 138.86C316.403 132.54 320.253 127.23 325.573 125.32ZM328.613 139.25C329.759 139.893 331.183 139.762 332.193 138.92C333.873 137.6 334.533 133.45 331.513 133.12C329.657 132.916 329.205 135.761 328.877 137.822C328.789 138.382 328.709 138.883 328.613 139.25Z" fill="#231F20"/>
</svg>
