<svg width="323" height="585" viewBox="0 0 323 585" fill="none" xmlns="http://www.w3.org/2000/svg">
<path fill-rule="evenodd" clip-rule="evenodd" d="M287.129 321.276C274.645 319.733 262.281 318.205 250.651 324.666C249.533 325.269 248.768 326.368 248.591 327.626C247.609 328.481 247.084 329.747 247.171 331.046L249.841 449.476C249.977 455.499 250.157 461.528 250.336 467.56V467.561V467.561V467.562V467.562V467.562V467.563V467.563V467.563C250.747 481.371 251.158 495.193 251.061 508.986C250.951 526.346 248.621 546.106 235.231 558.706C229.691 563.946 222.631 567.266 215.691 570.316C206.881 574.176 195.931 578.496 186.691 573.496C180.916 570.282 176.906 564.628 175.781 558.116C175.021 553.366 175.901 547.046 180.291 544.196C183.443 542.149 187.58 542.355 191.285 542.539C191.869 542.568 192.443 542.597 193.001 542.616L193.033 542.617C199.483 542.836 206.05 543.06 211.851 539.726C217.661 536.386 221.701 530.596 223.851 524.306C226.381 516.936 226.141 508.916 225.741 501.256C225.369 494.176 224.962 487.102 224.556 480.029L224.556 480.023C224.383 477.017 224.211 474.011 224.041 471.006C221.587 426.946 219.117 382.916 216.631 338.916C216.593 336.384 214.553 334.339 212.021 334.296C203.47 334.547 194.919 334.804 186.368 335.061H186.368H186.367H186.367H186.367H186.366H186.366H186.366H186.366C163.917 335.736 141.469 336.411 119.021 336.976C116.498 337.018 114.463 339.053 114.421 341.576C115.281 379.696 116.081 417.819 116.821 455.946C116.942 462.924 117.079 469.902 117.216 476.881L117.216 476.883L117.216 476.884L117.216 476.885L117.216 476.886L117.216 476.887L117.216 476.889L117.216 476.89L117.216 476.891C117.441 488.32 117.666 499.751 117.821 511.186C118.031 526.206 118.001 543.536 107.681 555.626C97.5607 567.486 76.4307 574.096 61.2107 571.346C54.3707 570.106 46.3307 565.186 46.5607 557.346C46.8208 548.91 53.5168 548.716 60.0174 548.528C62.2629 548.463 64.4851 548.399 66.4107 547.996C80.2307 545.126 86.4607 528.386 89.4607 516.266C93.2207 500.826 92.7407 484.766 92.1407 469.016C90.5473 426.516 88.804 384.026 86.9107 341.546C86.7507 338.076 83.0107 336.986 80.7507 338.296C75.2967 338.2 69.8213 338.205 64.3419 338.21C54.4097 338.219 44.4645 338.229 34.6107 337.636C20.6935 336.802 17.9552 317.506 16.198 305.123C15.9943 303.688 15.8038 302.346 15.6107 301.136C10.4631 268.801 8.09779 236.085 8.54068 203.346C9.29068 145.016 20.9807 79.6857 70.7307 42.5357C116.421 8.3957 185.791 -3.4643 237.101 24.7457C261.144 37.7651 279.366 59.4061 288.101 85.3157C298.031 114.276 304.131 145.196 308.431 175.456C313.391 210.356 314.751 245.926 311.121 281.026C310.147 290.212 308.814 299.336 307.121 308.396C306.933 309.397 306.784 310.572 306.627 311.809C306.243 314.848 305.81 318.264 304.631 320.396C303.038 323.311 299.097 322.762 295.832 322.308C295.221 322.223 294.634 322.141 294.091 322.086C291.769 321.849 289.447 321.562 287.129 321.276ZM19.8972 252.901C20.0918 261.906 20.2888 271.017 22.2607 279.766C22.4207 280.556 23.8207 280.626 23.9607 279.766C25.1693 270.827 24.5948 261.65 24.0305 252.638C23.8991 250.54 23.7683 248.451 23.6607 246.376C23.5336 243.926 23.4443 241.448 23.3546 238.958L23.3545 238.958C23.0417 230.279 22.7233 221.447 20.7807 213.086C20.6507 212.626 19.8607 212.586 19.7807 213.086C18.5714 221.582 18.9934 230.334 19.4131 239.037L19.4131 239.038C19.5313 241.49 19.6494 243.938 19.7307 246.376C19.8029 248.54 19.85 250.717 19.8972 252.901ZM29.9507 302.866C29.8907 304.046 28.0607 304.806 27.5007 303.526C24.9907 297.796 24.1607 290.266 24.2107 284.036C24.2194 283.583 24.5558 283.204 25.0039 283.142C25.4521 283.08 25.879 283.353 26.0107 283.786C28.2607 289.476 30.2307 296.696 29.9507 302.866ZM39.2907 168.756C39.2925 169.548 39.3729 170.339 39.5307 171.116C41.2407 179.346 51.0507 183.636 57.0407 176.756C61.7907 171.306 60.9207 161.676 54.3407 157.996C47.9207 154.406 38.4907 158.016 37.9207 165.756C37.7849 166.933 38.3124 168.088 39.2907 168.756ZM124.151 284.596C117.661 297.426 100.691 304.706 87.6007 308.596C76.6707 311.886 59.2507 311.656 54.4007 298.936C53.4007 296.246 56.9907 293.626 59.2907 295.176C59.5673 295.363 59.841 295.549 60.1122 295.733C65.4292 299.347 69.793 302.312 76.7007 302.046C83.9607 301.766 90.6107 298.746 96.9807 295.786L97.3325 295.622C103.866 292.584 111.216 289.166 115.401 283.046C117.831 279.496 119.911 274.986 116.591 271.646C114.308 269.347 112.038 269.75 109.288 270.237H109.288L109.288 270.237L109.287 270.237C108.58 270.363 107.84 270.494 107.061 270.586C94.2407 272.136 80.3207 271.666 69.4707 263.826C63.2007 259.296 54.3807 249.426 60.3607 241.736C62.1707 239.406 65.5807 241.986 64.9907 244.436C63.0807 252.356 76.5707 259.666 82.3507 261.436C91.1363 264.15 99.9464 263.123 108.826 262.088L108.827 262.088L108.829 262.088L108.831 262.088L108.832 262.088L108.834 262.087C109.765 261.979 110.698 261.87 111.631 261.766C125.811 260.186 129.881 273.266 124.151 284.596ZM151.721 187.346C157.464 187.622 162.962 184.992 166.351 180.346C169.491 175.926 171.321 169.026 168.051 164.216C166.701 162.216 162.731 162.056 162.271 164.976C162.157 165.719 162.06 166.477 161.962 167.239C161.238 172.864 160.493 178.652 153.271 179.436C146.021 180.226 141.521 173.146 143.271 166.556C144.091 163.596 139.781 161.636 138.271 164.436C132.721 174.746 140.051 186.876 151.721 187.346ZM285.651 121.566C290.181 127.696 292.211 135.806 292.571 143.316C292.617 143.673 292.469 144.028 292.183 144.247C291.897 144.466 291.516 144.515 291.183 144.377C290.851 144.238 290.617 143.933 290.571 143.576C290.213 142.399 289.845 141.212 289.474 140.016L289.474 140.015C287.641 134.103 285.747 127.995 284.691 121.956C284.575 121.691 284.696 121.382 284.961 121.266C285.226 121.15 285.535 121.271 285.651 121.536V121.566ZM270.951 73.8857C264.386 63.1524 255.756 53.8289 245.561 46.4557C245.021 46.0557 244.361 46.9357 244.851 47.3457C254.07 55.8917 261.933 65.7918 268.171 76.7057C271.261 82.0597 273.868 87.6786 275.961 93.4957C276.709 95.6012 277.333 97.7522 277.957 99.9027C278.933 103.268 279.909 106.631 281.361 109.816C281.871 110.826 283.361 110.286 283.361 109.286C283.951 97.3357 276.951 83.8857 270.951 73.8857ZM243.801 152.096C244.651 144.946 252.801 138.526 259.741 142.276C260.066 142.458 260.344 142.715 260.551 143.026C263.412 144.117 265.829 146.13 267.421 148.746C271.291 155.926 265.751 164.926 258.081 166.146C250.101 167.406 242.871 159.966 243.801 152.096ZM188.061 285.776C194.861 298.456 215.781 301.806 228.581 300.666C245.131 299.186 260.981 290.946 272.291 278.876C275.911 275.016 270.571 269.856 266.571 273.156C255.891 282.076 244.211 289.826 230.091 291.686C223.667 292.558 217.132 292.123 210.881 290.406C207.091 289.346 190.401 282.946 199.091 278.346C200.312 277.674 202.115 277.593 203.774 277.519C204.586 277.483 205.363 277.448 206.021 277.346C209.219 276.86 212.377 276.142 215.471 275.196C220.987 273.474 226.312 271.188 231.361 268.376C242.811 262.056 252.221 253.756 261.361 244.546C263.621 242.256 260.531 237.846 257.801 239.926C256.78 240.699 255.754 241.48 254.723 242.265C241.723 252.16 227.912 262.673 212.161 267.186C210.623 267.626 208.55 268.001 206.241 268.419C196.013 270.272 181.183 272.958 188.061 285.776Z" fill="#8DC63F"/>
<path d="M256.331 157.786C258.691 157.596 261.021 154.556 259.521 152.376C258.021 150.196 255.161 151.196 252.911 150.976C252.756 150.956 252.602 150.926 252.451 150.886C252.198 151.298 252.019 151.752 251.921 152.226C251.421 154.726 253.611 157.996 256.331 157.786Z" fill="white"/>
<path d="M49.7509 165.286C49.3749 165.158 48.9764 165.11 48.5809 165.146C47.5261 166.468 47.1556 168.209 47.5809 169.846C48.4209 172.336 50.5809 172.646 51.3909 170.056C51.9809 168.346 51.6209 165.926 49.7509 165.286Z" fill="white"/>
<path fill-rule="evenodd" clip-rule="evenodd" d="M313.33 323.726C311.68 328.846 307.82 331.486 302.53 331.796C296.837 332.129 291.047 331.231 285.272 330.334C275.467 328.813 265.707 327.298 256.55 331.836L259.77 477.436C259.823 479.802 259.888 482.198 259.953 484.613C260.896 519.234 261.951 557.968 226.27 575.486C212.54 582.216 194.94 589.776 180.54 580.486C169.04 573.066 162.53 557.016 168.76 544.166C172.32 536.826 179.18 533.686 186.98 533.316C188.991 533.22 191.076 533.323 193.173 533.426C199.211 533.723 205.344 534.025 210.05 529.616C217.642 522.504 217.008 510.861 216.485 501.254C216.463 500.851 216.441 500.451 216.42 500.056C216.037 492.681 215.619 485.31 215.201 477.938C215.02 474.745 214.839 471.551 214.66 468.356C212.294 426.776 209.96 385.202 207.66 343.636C202.723 343.772 197.786 343.906 192.848 344.041C169.786 344.671 146.723 345.301 123.66 346.026C124.554 391.526 125.387 437.026 126.16 482.526C126.225 486.298 126.374 490.236 126.527 494.273C127.637 523.567 128.946 558.093 99.3803 572.806C86.0303 579.446 67.1703 583.986 52.9103 578.056C40.9603 573.076 33.0503 559.106 40.7703 547.176C44.8603 540.856 51.4203 539.746 58.4203 539.586C64.4203 539.456 68.5903 538.846 72.4203 533.716C75.1137 529.904 77.2361 525.72 78.7203 521.296C84.6562 504.822 84.0271 486.864 83.4229 469.621L83.4003 468.976C83.2685 465.247 83.1364 461.518 83.0044 457.788C81.6846 420.518 80.3648 383.247 79.2103 345.976C70.1303 346.026 61.0503 346.026 51.9803 346.026C50.01 346.018 47.9275 346.107 45.7952 346.199C39.3886 346.473 32.5324 346.767 26.9203 344.516C13.109 339.01 10.1794 320.087 8.08652 306.568C7.91398 305.454 7.74713 304.376 7.58034 303.346C1.13856 264.468 -1.20761 225.023 0.580336 185.656C3.61034 124.316 22.9103 60.4958 78.1903 26.7958C130.17 -4.89422 203.62 -12.0742 254.74 24.9858C279.08 42.6258 292.88 66.8758 300.97 95.4258C310.299 128.177 316.72 161.687 320.16 195.566C323.61 229.816 323.31 264.406 318.16 298.476C317.952 299.859 317.751 301.261 317.548 302.673C316.533 309.733 315.48 317.059 313.33 323.726ZM250.236 467.55C250.056 461.518 249.877 455.489 249.74 449.466L247.05 331.046C246.964 329.747 247.489 328.482 248.47 327.626C248.673 326.352 249.477 325.253 250.63 324.676C262.261 318.215 274.625 319.743 287.109 321.286C289.426 321.572 291.748 321.859 294.07 322.096C294.656 322.148 295.291 322.234 295.953 322.323C299.189 322.76 303.041 323.279 304.61 320.406C305.789 318.275 306.222 314.859 306.606 311.822C306.763 310.582 306.912 309.406 307.1 308.406C308.814 299.339 310.147 290.216 311.1 281.036C314.73 245.936 313.41 210.366 308.41 175.466C304.08 145.206 298.01 114.326 288.08 85.3258C279.346 59.4162 261.124 37.7752 237.08 24.7558C185.79 -3.46422 116.42 8.39578 70.7303 42.5458C20.9803 79.6958 9.29034 145.026 8.54034 203.346C8.09083 236.084 10.4495 268.801 15.5903 301.136C15.7885 302.364 15.9837 303.728 16.1924 305.187C17.9642 317.573 20.7151 336.804 34.5903 337.636C44.4442 338.229 54.3894 338.219 64.3216 338.21C69.801 338.205 75.2764 338.2 80.7303 338.296C82.9903 336.986 86.7403 338.076 86.8903 341.546C88.7703 384.026 90.5137 426.516 92.1203 469.016C92.7203 484.766 93.2003 500.826 89.4403 516.266C86.4803 528.386 80.2103 545.126 66.3903 547.996C64.4608 548.4 62.2335 548.46 59.9833 548.521C53.487 548.697 46.8003 548.879 46.5403 557.346C46.3103 565.186 54.3503 570.106 61.1903 571.346C76.4203 574.086 97.5403 567.476 107.58 555.616C117.9 543.526 117.93 526.176 117.72 511.176C117.561 497.199 117.275 483.228 116.989 469.258C116.898 464.817 116.807 460.376 116.72 455.936C115.94 417.809 115.14 379.686 114.32 341.566C114.363 339.043 116.398 337.009 118.92 336.966C141.369 336.401 163.818 335.726 186.268 335.051C194.818 334.794 203.369 334.537 211.92 334.286C214.452 334.329 216.493 336.374 216.53 338.906C219.01 382.966 221.48 426.996 223.94 470.996C224.11 474.003 224.283 477.011 224.456 480.019C224.862 487.092 225.268 494.166 225.64 501.246C226.04 508.906 226.28 516.926 223.75 524.296C221.64 530.586 217.6 536.406 211.75 539.716C205.9 543.026 199.36 542.826 192.9 542.606C192.343 542.587 191.769 542.558 191.185 542.529C187.48 542.345 183.343 542.139 180.19 544.186C175.8 547.036 174.92 553.356 175.68 558.106C176.805 564.618 180.816 570.272 186.59 573.486C195.84 578.436 206.79 574.166 215.59 570.306C222.53 567.256 229.55 563.936 235.13 558.696C248.52 546.096 250.85 526.336 250.96 508.976C251.058 495.182 250.647 481.359 250.236 467.55Z" fill="#231F20"/>
<path d="M272.291 278.876C275.911 275.016 270.521 269.876 266.571 273.156C255.891 282.076 244.211 289.826 230.091 291.686C223.667 292.558 217.133 292.123 210.881 290.406C207.121 289.346 190.421 282.946 199.091 278.346C200.911 277.346 203.991 277.656 206.021 277.346C209.223 276.861 212.384 276.142 215.481 275.196C221.016 273.467 226.358 271.172 231.421 268.346C242.861 262.026 252.271 253.726 261.421 244.516C263.681 242.226 260.591 237.816 257.861 239.896C243.961 250.426 229.241 262.286 212.221 267.156C203.871 269.546 179.691 270.036 188.121 285.746C194.921 298.426 215.841 301.746 228.641 300.636C245.131 299.186 260.981 290.946 272.291 278.876Z" fill="#231F20"/>
<path d="M111.631 261.776C101.801 262.876 92.0609 264.406 82.3509 261.446C76.5709 259.696 63.0809 252.386 64.9909 244.446C65.5809 241.996 62.1709 239.446 60.3609 241.746C54.3609 249.436 63.2009 259.306 69.4709 263.836C80.3209 271.676 94.2409 272.146 107.061 270.596C110.871 270.146 113.721 268.766 116.591 271.656C119.911 274.996 117.831 279.506 115.401 283.056C111.141 289.286 103.601 292.716 96.9809 295.796C90.6109 298.796 83.8409 301.796 76.7009 302.056C69.5609 302.316 64.9909 299.056 59.2909 295.186C56.9909 293.636 53.3709 296.256 54.4009 298.946C59.2509 311.666 76.6709 311.896 87.6009 308.606C100.691 304.686 117.661 297.406 124.151 284.606C129.881 273.266 125.811 260.186 111.631 261.776Z" fill="#231F20"/>
<path fill-rule="evenodd" clip-rule="evenodd" d="M37.9195 165.766C38.4895 158.006 47.9295 154.416 54.3395 158.006C60.9195 161.686 61.7895 171.346 57.0395 176.776C51.0495 183.646 41.2395 179.306 39.5295 171.126C39.3718 170.349 39.2914 169.558 39.2895 168.766C38.3112 168.098 37.7837 166.943 37.9195 165.766ZM47.6095 169.846C48.4195 172.336 50.5595 172.646 51.4195 170.056C51.9795 168.346 51.6195 165.926 49.7795 165.286C49.4035 165.158 49.005 165.11 48.6095 165.146C47.5547 166.468 47.1842 168.209 47.6095 169.846Z" fill="#231F20"/>
<path d="M162.31 164.996C161.31 171.226 161.49 178.566 153.31 179.456C146.07 180.246 141.57 173.166 143.31 166.576C144.1 163.576 139.79 161.656 138.31 164.456C132.76 174.766 140.09 186.896 151.76 187.366C157.493 187.624 162.974 184.987 166.35 180.346C169.49 175.956 171.35 169.056 168.09 164.266C166.74 162.236 162.77 162.076 162.31 164.996Z" fill="#231F20"/>
<path fill-rule="evenodd" clip-rule="evenodd" d="M267.39 148.746C271.26 155.926 265.72 164.926 258.05 166.146C250.1 167.406 242.87 159.966 243.8 152.096C244.65 144.946 252.83 138.526 259.74 142.276C260.065 142.458 260.343 142.715 260.55 143.026C263.4 144.123 265.805 146.135 267.39 148.746ZM252.45 150.886C252.197 151.298 252.017 151.752 251.92 152.226C251.42 154.726 253.61 157.996 256.33 157.786C258.69 157.596 261.13 154.676 259.52 152.376C258.362 150.722 256.615 150.836 254.888 150.95C254.214 150.994 253.542 151.038 252.91 150.976C252.754 150.956 252.601 150.926 252.45 150.886Z" fill="#231F20"/>
<path d="M268.21 76.7059C271.301 82.0599 273.908 87.6788 276 93.4959C277.92 98.8959 279 104.596 281.4 109.816C281.87 110.816 283.32 110.236 283.4 109.286C283.95 97.2859 277 83.8559 270.99 73.8859C264.426 63.1525 255.796 53.829 245.6 46.4559C245.06 46.0559 244.4 46.9359 244.89 47.3759C254.107 55.9127 261.97 65.8026 268.21 76.7059Z" fill="#231F20"/>
<path d="M292.571 143.286C292.211 135.776 290.181 127.666 285.651 121.536C285.513 121.336 285.255 121.261 285.032 121.355C284.809 121.45 284.683 121.688 284.731 121.926C286.001 129.186 288.481 136.496 290.611 143.546C290.749 144.02 291.213 144.323 291.702 144.258C292.192 144.193 292.561 143.78 292.571 143.286Z" fill="#231F20"/>
<path d="M23.6397 246.346C23.0697 235.346 23.2597 223.816 20.7597 213.056C20.6497 212.596 19.8597 212.556 19.7597 213.056C18.2097 223.946 19.3397 235.386 19.7097 246.346C20.0797 257.306 19.7897 268.866 22.2397 279.736C22.4197 280.526 23.7997 280.596 23.9197 279.736C25.4197 268.746 24.2097 257.426 23.6397 246.346Z" fill="#231F20"/>
<path d="M24.2109 284.036C24.2109 290.266 24.9909 297.796 27.5009 303.526C28.0609 304.806 29.8909 304.046 29.9509 302.866C30.2309 296.696 28.2609 289.476 26.0109 283.786C25.8792 283.353 25.4524 283.08 25.0042 283.142C24.556 283.205 24.2197 283.583 24.2109 284.036Z" fill="#231F20"/>
</svg>
