<svg width="245" height="587" viewBox="0 0 245 587" fill="none" xmlns="http://www.w3.org/2000/svg">
<path d="M129.27 292.06C137.11 292.37 145.04 294.06 152.75 295.34C159.99 296.57 167.44 297.61 174.6 299.39C174.6 298.93 174.6 298.46 174.6 298.01C174.6 297.01 174.6 295.93 174.6 294.89C166.7 293.34 159.02 290.95 151.05 289.62C144.17 288.48 137.05 288.26 130.21 287.13L129.27 292.06Z" fill="#939598"/>
<path d="M113.529 370.24C117.669 370.57 121.769 371.35 125.889 371.79C129.819 372.21 133.889 372.13 137.739 373.1C138.745 372.001 139.508 370.703 139.979 369.29C136.829 369.14 133.679 368.58 130.549 368.13C125.249 367.36 119.679 366.71 114.609 364.87L113.529 370.24Z" fill="#939598"/>
<path d="M120.15 337.37C125.224 337.439 130.291 337.772 135.33 338.37C141.09 338.86 147.18 338.95 152.91 340.07C153.19 338.07 153.59 336.07 154.04 334.14C148.72 333.82 143.16 332.14 138.1 331.14C132.74 330.14 127.34 329.29 121.97 328.32C121.36 331.34 120.76 334.36 120.15 337.37Z" fill="#939598"/>
<path d="M136.42 256.66C146.42 257.38 156.56 259.93 166.33 261.77C175.7 263.53 186.52 264.53 195.84 267.52C196.611 265.169 197.212 262.767 197.64 260.33C185.4 258.99 173.09 256 161.14 253.41C154.05 251.86 146.94 250.29 139.93 248.41L138.18 247.96C137.59 250.87 137 253.76 136.42 256.66Z" fill="#939598"/>
<path d="M144 219.27C154.62 220.69 165.08 223.83 175.62 225.7C187.41 227.79 199.29 229.24 211.22 230.16C211.36 229.25 211.48 228.34 211.54 227.42C211.54 227.02 211.54 226.63 211.54 226.24C207.02 226.08 202.35 224.71 198.01 223.87C192.01 222.71 186.027 221.49 180.06 220.21C168.64 217.76 156.49 215.72 145.49 211.68L144 219.27Z" fill="#939598"/>
<path d="M96.401 324.38C92.081 324.45 87.571 323.06 83.401 322.38C77.971 321.45 72.551 320.49 67.141 319.45C67.141 321.07 67.061 322.69 67.141 324.31C67.251 326.53 67.731 328.69 68.001 330.88C77.002 331.299 85.9745 332.194 94.881 333.56L96.401 324.38Z" fill="#939598"/>
<path d="M81.8692 482.69C97.2026 512.75 112.559 542.8 127.939 572.84C145.239 515.52 132.149 454.61 107.299 401.22C106.526 405.007 105.763 408.79 105.009 412.57C103.469 420.22 103.089 430.12 98.4092 436.71C95.2692 441.15 89.3192 443.26 84.5792 439.84C79.8392 436.42 79.2092 429.48 79.7392 424.13C80.6292 415.08 82.6092 406.02 84.1892 397.04C62.1892 411.72 49.1392 437.96 37.0692 460.66C24.2392 484.77 13.4892 510.31 8.94922 537.32C31.9026 519.58 54.2792 501.12 76.0792 481.94C77.7592 480.47 80.7292 480.45 81.8692 482.69Z" fill="#939598"/>
<path d="M89.9998 362.77C84.4898 363.06 78.6898 361.66 73.5098 359.82C73.5098 360.4 73.5598 360.99 73.5898 361.57C73.6698 363.16 73.7098 364.77 73.6998 366.37C76.2898 366.72 78.8798 367.69 81.4198 368.09C83.9598 368.49 86.4998 368.4 89.0198 368.56C89.3098 366.63 89.6298 364.7 89.9998 362.77Z" fill="#939598"/>
<path d="M134.47 137.65C128.3 182.26 119.88 226.65 112.47 271.08C108.843 292.933 105.22 314.787 101.6 336.64L101.16 339.3C98.3799 356.1 95.5932 372.9 92.7999 389.7C91.1799 399.493 89.5532 409.28 87.9199 419.06C87.3099 422.79 86.1999 427.13 87.3499 430.88C89.1199 436.68 92.8499 432.44 94.0999 428.57C96.9199 419.88 97.9199 410.23 99.7099 401.28C101.65 391.58 103.593 381.877 105.54 372.17C121.007 294.97 136.437 217.763 151.83 140.55L134.47 137.65Z" fill="#939598"/>
<path d="M109.52 245.92C104.98 246.3 100.13 244.98 95.6698 244.23C90.7365 243.403 85.8165 242.517 80.9098 241.57C72.6998 240 63.6298 238.85 55.6398 235.88C55.1998 239.6 54.2998 243.33 53.8398 247.07C62.0698 247.73 70.2798 249.44 78.4298 250.59C83.7198 251.33 89.0198 251.96 94.3298 252.53C98.8198 253.01 103.87 252.85 108.12 254.43C108.59 251.59 109.06 248.76 109.52 245.92Z" fill="#939598"/>
<path d="M83.5709 165.43C76.7509 164.32 69.9309 163.22 63.1309 162C59.3535 161.453 55.6413 160.525 52.0509 159.23C51.4109 163.74 50.7409 168.23 49.9609 172.75C60.7809 172.67 71.8809 174.34 82.6009 175.37L120.311 179.72C120.771 176.97 121.221 174.21 121.701 171.45C109.001 169.48 96.2709 167.51 83.5709 165.43Z" fill="#939598"/>
<path fill-rule="evenodd" clip-rule="evenodd" d="M207.009 141.792C203.41 141.08 199.831 140.372 196.299 139.79C174.939 136.263 153.582 132.777 132.229 129.33C128.971 128.808 125.71 128.301 122.449 127.793C114.148 126.501 105.845 125.209 97.5891 123.68C89.0402 122.092 81.1469 119.51 73.0935 116.875C71.7643 116.44 70.4307 116.004 69.0891 115.57C69.0791 115.507 69.0658 115.444 69.0525 115.382C69.0258 115.258 68.9991 115.133 68.9991 115C63.9991 96.34 72.5691 78 83.4091 63.1C94.0873 48.4471 107.221 35.7531 122.229 25.58C129.462 20.6435 137.211 16.5092 145.339 13.25C145.824 13.0562 146.339 12.8459 146.881 12.625C154.499 9.51742 167.276 4.30596 171.449 13.25C174.35 19.4913 174.208 27.5092 174.079 34.7973C174.043 36.8043 174.009 38.756 174.039 40.6C174.229 51.46 174.089 62.32 173.689 73.17C173.539 77.17 179.269 78.61 181.179 75.17L210.729 22.17C229.326 51.7975 238.342 86.4357 236.549 121.37C236.269 125.92 235.899 130.47 235.269 134.99C234.996 136.937 234.682 138.88 234.329 140.82C233.589 144.94 233.079 145.41 228.919 145.15C221.681 144.695 214.303 143.235 207.009 141.792ZM121.449 72.69C122.479 78.97 123.559 85.33 125.679 91.25C126.839 94.48 132.229 94.26 131.959 90.36C131.489 84.2958 130.546 78.2776 129.139 72.36L130.739 72.25C131.47 72.1923 132.222 72.1428 132.987 72.0925C138.184 71.7504 143.976 71.3691 147.899 68.1C149.519 66.74 148.529 64.05 146.689 63.53C143.09 62.5143 139.016 63.3203 135.07 64.1011C133.228 64.4656 131.414 64.8245 129.689 64.99C129.076 65.05 128.436 65.1 127.769 65.14C127.61 64.22 127.454 63.2957 127.298 62.3692C126.218 55.965 125.119 49.453 122.769 43.46C121.769 40.87 117.899 41.14 117.769 44.14C117.501 50.4942 118.679 56.9202 119.831 63.2111C119.968 63.9594 120.105 64.7059 120.239 65.45C119.32 65.471 118.414 65.4839 117.51 65.4968C115.393 65.5269 113.282 65.5569 111.019 65.69C107.789 65.88 106.689 71.05 110.209 71.69C113.92 72.3431 117.681 72.6776 121.449 72.69Z" fill="#939598"/>
<path d="M150.869 185.19C162.999 186.46 175.209 189.75 187.289 191.55C199.809 193.42 213.759 194.03 225.839 198.05C226.609 194.12 227.459 190.21 228.099 186.25C221.529 186.09 214.589 184.44 208.209 183.61L186.009 180.71C179.069 179.81 172.136 178.9 165.209 177.98C161.769 177.51 156.399 177.54 152.779 175.73C152.139 178.89 151.502 182.043 150.869 185.19Z" fill="#939598"/>
<path d="M101.47 294.19C101.91 291.56 102.36 288.94 102.79 286.32C96.3896 286.75 89.3596 285.02 83.1296 284.25C77.1296 283.52 70.8396 283.01 64.8296 281.81C64.7596 283.37 64.5796 284.92 64.4196 286.51C64.3096 287.69 64.2596 288.92 64.0996 290.11C76.2596 290.76 88.5396 293.22 100.66 294.05C100.934 294.064 101.206 294.111 101.47 294.19Z" fill="#939598"/>
<path d="M115.001 212C105.141 211.31 94.9109 208.34 85.2909 206.53C75.2309 204.64 65.1409 202.9 55.2209 200.38C54.8509 203.83 54.3209 207.27 53.7109 210.69C63.1609 211.69 72.5509 213.6 81.9409 215C92.5609 216.58 103.201 217.81 113.861 219.11L115.001 212Z" fill="#939598"/>
<path fill-rule="evenodd" clip-rule="evenodd" d="M214 12.28C227.046 31.3053 236.22 52.712 241 75.28C245.153 94.7916 245.967 114.866 243.41 134.65C243.298 135.493 243.204 136.457 243.102 137.494V137.494L243.102 137.494C242.447 144.163 241.495 153.853 233.81 154C230.208 154.075 226.306 153.232 222.535 152.416L222.534 152.416C220.798 152.04 219.089 151.671 217.45 151.4L199.98 148.52C186.527 146.313 173.07 144.09 159.61 141.85L154.09 169.21C161.083 169.957 168.103 170.975 175.119 171.992L175.12 171.992C180.313 172.745 185.504 173.498 190.68 174.14L212.89 176.88C214.678 177.104 216.518 177.269 218.376 177.436C223.156 177.865 228.05 178.304 232.45 179.78C234.55 180.49 235.06 181.24 235.19 183.13C235.203 184.187 235.106 185.243 234.9 186.28C234.221 191.932 232.982 197.503 231.2 202.91C230.974 203.721 230.417 204.4 229.666 204.78C228.914 205.16 228.038 205.208 227.25 204.91C226.904 204.997 226.546 205.028 226.19 205L149.84 190.79L146.76 205.99C154.004 207.028 161.216 208.746 168.404 210.458L168.405 210.458C172.578 211.452 176.742 212.444 180.9 213.3C187.253 214.613 193.627 215.853 200.02 217.02C201.364 217.265 202.735 217.468 204.114 217.673C208.307 218.294 212.568 218.926 216.33 220.77C217.343 221.181 217.934 222.242 217.75 223.32L217.22 232.74C217.173 233.071 217.135 233.404 217.097 233.732C216.845 235.913 216.618 237.889 214.01 237.68L142.94 224.93C141.813 230.47 140.69 236.017 139.57 241.57C139.693 241.59 139.818 241.609 139.942 241.628C140.191 241.666 140.44 241.703 140.68 241.75C143.28 242.218 145.88 242.783 148.479 243.349L149.396 243.548L149.68 243.61C151.43 243.987 153.185 244.367 154.943 244.747L154.945 244.748L154.946 244.748L154.948 244.748L154.95 244.749L154.951 244.749L154.953 244.749L154.958 244.751L154.962 244.751C159.173 245.663 163.401 246.579 167.63 247.46C173.37 248.665 179.164 249.639 184.955 250.613L184.955 250.613L184.955 250.613L184.955 250.613L184.956 250.613L184.956 250.613L184.956 250.613L184.956 250.613L184.957 250.613L184.957 250.613L184.957 250.613L184.957 250.613L184.957 250.614L184.958 250.614L184.958 250.614C191.231 251.669 197.502 252.723 203.7 254.07C206.264 254.633 205.594 256.731 204.886 258.946C204.727 259.443 204.567 259.947 204.44 260.44C204.178 262.371 203.798 264.106 203.321 266.288L203.321 266.288C203.034 267.598 202.713 269.069 202.36 270.84L202.34 270.95L202.298 271.184C201.841 273.725 201.573 275.217 198.92 275.15C191.652 274.943 184.055 273.104 176.633 271.309L176.631 271.309C173.321 270.508 170.046 269.715 166.85 269.08C163.536 268.421 160.155 267.839 156.755 267.254C149.527 266.009 142.217 264.75 135.3 262.71L131.58 281.09L176.29 288.2C177.224 288.461 178.039 288.504 178.728 288.54C180.176 288.617 181.06 288.663 181.29 290.65C181.487 293.101 181.554 295.561 181.49 298.02C181.493 298.396 181.54 298.871 181.592 299.401C181.865 302.174 182.283 306.429 177.38 305.59L128.17 298.11L123.37 321.93L156.59 327.69C156.942 327.753 157.279 327.81 157.599 327.865C160.517 328.359 162.109 328.628 161.46 331.43C161.3 332.122 161.091 333.058 160.849 334.137L160.849 334.139L160.848 334.141C160.365 336.301 159.753 339.03 159.16 341.51C158.385 344.759 155.347 346.949 152.02 346.66L134.29 345.13C133.16 345.013 132.021 344.908 130.878 344.802L130.876 344.802L130.873 344.801L130.872 344.801L130.87 344.801L130.861 344.8L130.86 344.8H130.86C126.934 344.437 122.958 344.069 119.09 343.21C118.003 348.59 116.92 353.97 115.84 359.35L142.38 362.86C142.974 362.958 143.549 362.977 144.079 362.995C145.557 363.046 146.69 363.085 146.94 364.77L146.31 371.59C145.98 375.94 145.59 379.17 140.53 378.59L112.53 376.03C111.343 381.877 110.167 387.72 109 393.56C109.829 393.169 110.783 393.137 111.637 393.472C112.49 393.807 113.168 394.479 113.51 395.33C141.15 453.84 155.36 521.38 132.62 583.99C131.56 586.92 127.15 588.14 125.51 584.92C109.583 553.427 93.6401 521.94 77.6801 490.46C54.4601 510.48 30.6301 529.76 6.19007 548.3C5.14534 549.082 3.73498 549.166 2.6052 548.512C1.47542 547.859 0.843927 546.596 1.00007 545.3C4.77007 514.05 16.5401 484.84 31.2401 457.22C31.7931 456.181 32.3483 455.135 32.9064 454.084L32.9256 454.048L32.9408 454.019L32.9477 454.006L32.9546 453.993C45.6143 430.143 59.7724 403.47 83.8501 389.81C84.392 389.486 85.0202 389.336 85.6501 389.38C86.4101 384.807 87.1767 380.233 87.9501 375.66L70.6001 372.12C68.4501 371.2 67.2001 370.21 67.1501 368.07C67.1059 366.181 67.1787 364.167 67.2445 362.345L67.2445 362.344L67.2592 361.936L67.2701 361.63C67.2776 361.416 67.2836 361.199 67.2896 360.981C67.3401 359.161 67.3937 357.228 68.3401 355.63C68.6587 355.09 69.1752 354.695 69.7801 354.53C70.3513 354.1 71.0857 353.949 71.7801 354.12L91.2301 355.93L91.652 352.669L91.8105 351.445C92.0224 349.809 92.1304 348.974 92.2376 348.14C92.3491 347.272 92.4595 346.403 92.6848 344.633L92.6853 344.63C92.8186 343.581 92.9923 342.217 93.2301 340.35L66.3001 336.01C65.4407 335.846 64.7887 335.835 64.2729 335.826C63.2821 335.81 62.7933 335.802 62.3001 334.73C59.6001 328.91 59.5501 320.73 61.3001 314.63C61.9001 312.56 63.3301 312.59 65.6601 312.79H65.7601H65.8801C71.6001 313.54 77.3001 314.38 83.0001 315.27C85.5187 315.679 88.3506 316.172 91.1329 316.657L91.1504 316.66L91.1687 316.663L91.1803 316.665L91.1923 316.667L91.2002 316.668L91.2066 316.669L91.215 316.671L91.2193 316.672C93.3784 317.048 95.5052 317.418 97.4301 317.74C98.3501 312.233 99.2767 306.73 100.21 301.23C86.1607 299.998 72.1896 297.995 58.3601 295.23C56.3701 294.84 56.7001 292.04 57.0501 290.3L58.8701 278.57C58.8038 277.818 59.0486 277.071 59.5475 276.504C60.0463 275.938 60.7556 275.6 61.5101 275.57C67.3765 275.351 73.3528 276.048 79.2483 276.735L79.2502 276.735L79.2522 276.735C80.9026 276.928 82.5466 277.119 84.1801 277.29C89.367 277.827 94.9977 278.562 100.599 279.292L100.6 279.292L100.602 279.293C101.674 279.432 102.744 279.572 103.81 279.71C104.67 274.637 105.523 269.56 106.37 264.48C106.48 263.82 106.515 263.4 106.55 262.98L106.55 262.98L106.55 262.98C106.585 262.56 106.62 262.14 106.73 261.48C104.739 261.232 102.835 260.947 100.949 260.665C98.8003 260.344 96.6749 260.026 94.4701 259.77C90.1801 259.28 85.8901 258.76 81.6201 258.14C80.3813 257.958 79.134 257.78 77.8811 257.601C69.0098 256.333 59.8521 255.024 51.3701 252.08C48.2701 250.89 46.7601 248.89 46.8901 246.14C47.1701 240.25 47.7201 236.06 50.9901 231C51.221 230.648 51.5331 230.356 51.9001 230.15C52.3469 229.739 52.9332 229.514 53.5401 229.52C60.1906 229.644 66.9778 231.185 73.6591 232.702C76.7126 233.396 79.744 234.084 82.7301 234.63C87.6501 235.54 92.5801 236.38 97.5201 237.18C98.6241 237.356 99.7399 237.505 100.858 237.654C104.114 238.089 107.388 238.526 110.44 239.65C111.173 235.117 111.907 230.587 112.64 226.06C102.89 225.04 93.1501 223.66 83.4701 222.18C82.2081 221.986 80.9413 221.794 79.6713 221.602L79.6694 221.602L79.6675 221.602C69.8084 220.112 59.7557 218.592 50.2601 215.66C50.1248 215.619 49.9291 215.568 49.7006 215.509C48.8145 215.28 47.4365 214.923 47.1901 214.51C46.3714 213.454 46.4904 212.7 46.7079 211.32L46.708 211.32L46.7083 211.318C46.7377 211.131 46.7691 210.932 46.8001 210.72C47.5127 205.667 48.5144 200.659 49.8001 195.72C50.3285 193.772 52.0825 194.163 53.7421 194.533C54.1867 194.632 54.6244 194.729 55.0301 194.78C63.9492 195.698 72.7651 197.227 81.5981 198.759C82.6784 198.946 83.759 199.134 84.8401 199.32C88.0748 199.875 91.4308 200.332 94.8247 200.794L94.8249 200.794L94.8251 200.794L94.8253 200.794L94.8255 200.794H94.8256C102.018 201.773 109.381 202.776 116.12 204.78C116.618 201.724 117.125 198.913 117.632 196.108L117.632 196.108C118.153 193.222 118.673 190.343 119.18 187.21L81.5001 182.54C78.7682 182.26 76.0037 182.016 73.2252 181.771C64.1853 180.974 54.997 180.163 46.3001 178.06C44.4001 177.6 42.2701 176.89 42.5101 175.27C42.8608 173.836 43.1346 172.384 43.3301 170.92C44.0701 165.87 44.9501 160.8 45.8701 155.8C45.9492 154.841 46.2956 153.922 46.8701 153.15C47.6752 152.245 49.0927 152.586 50.0918 152.826L50.1101 152.83C58.7562 154.968 67.6596 156.145 76.5197 157.316C79.8849 157.761 83.2439 158.204 86.5801 158.7C98.7001 160.5 110.81 162.39 122.92 164.29C124.533 155.03 126.24 145.79 128.04 136.57L126.57 136.32C122.773 135.653 118.969 135.026 115.165 134.398C107.556 133.142 99.9467 131.887 92.4001 130.32C82.6601 128.29 71.3001 125.74 63.1001 119.81C62.5987 119.533 62.1965 119.107 61.9501 118.59C61.6053 118.15 61.3566 117.642 61.2201 117.1C56.2501 98.4 62.7801 79.72 73.0301 64.01C90.4501 37.29 117.24 14.22 147.58 3.76997L148.117 3.58436C155.037 1.19174 163.594 -1.76706 170.64 1.41997C176.49 4.04997 179.46 9.87997 180.64 15.88C182.037 23.0626 182.059 30.6124 182.08 37.973V37.974V37.975V37.976V37.977V37.978V37.979V37.98V37.981V37.982V37.983V37.9841V37.9851V37.9861V37.9871C182.085 39.6295 182.09 41.2626 182.11 42.88C182.17 47.5866 182.17 52.2733 182.11 56.94L207 12.28C208.57 9.45997 212.34 9.86997 214 12.28ZM73.7358 174.443L73.7374 174.444C76.711 174.771 79.6697 175.097 82.6001 175.37L120.31 179.7C120.439 178.93 120.567 178.16 120.695 177.389L120.695 177.388C121.024 175.404 121.354 173.417 121.7 171.43C117.463 170.763 113.226 170.106 108.988 169.448C100.512 168.132 92.0367 166.817 83.5701 165.43L82.0334 165.18C75.7257 164.154 69.4193 163.128 63.1301 162C59.3527 161.453 55.6404 160.525 52.0501 159.23C51.4101 163.75 50.7401 168.26 49.9601 172.75C57.8217 172.692 65.8312 173.573 73.7354 174.443L73.7358 174.443ZM81.9401 214.97C78.6003 214.472 75.2605 213.907 71.9181 213.342L71.9175 213.342C65.8626 212.317 59.7988 211.291 53.7101 210.66C54.3201 207.24 54.8501 203.8 55.2201 200.35C63.5733 202.472 72.04 204.041 80.5186 205.612C82.1089 205.907 83.6996 206.201 85.2901 206.5C88.3487 207.075 91.469 207.768 94.6195 208.468C101.378 209.968 108.275 211.499 115 211.97L113.86 219.08C112.023 218.856 110.187 218.634 108.352 218.412L108.32 218.408L108.318 218.408C99.5119 217.344 90.7191 216.281 81.9401 215V214.97ZM78.4301 250.59C83.7201 251.33 89.0201 251.96 94.3301 252.53C95.5291 252.655 96.7681 252.737 98.0212 252.819C101.46 253.045 105.005 253.277 108.12 254.45L108.296 253.386L108.297 253.38L108.298 253.375L108.299 253.37L108.3 253.364L108.301 253.359L108.301 253.354L108.302 253.348L108.303 253.343L108.304 253.338L108.305 253.333L108.309 253.308L108.312 253.293C108.718 250.84 109.123 248.394 109.52 245.94C106.061 246.218 102.43 245.513 98.9191 244.831C97.1323 244.484 95.3765 244.142 93.6901 243.94C90.7101 243.57 87.7501 243.03 84.8201 242.38C81.8066 241.707 78.6272 241.147 75.3873 240.577C68.7573 239.409 61.8738 238.197 55.6401 235.88C55.4161 237.774 55.0728 239.67 54.7291 241.569C54.3977 243.4 54.0659 245.234 53.8401 247.07C59.2464 247.504 64.644 248.39 70.0217 249.274L70.023 249.274C72.8313 249.735 75.6342 250.195 78.4301 250.59ZM64.1001 290.11C64.2024 289.349 64.2597 288.572 64.3165 287.802L64.3165 287.801C64.3486 287.367 64.3804 286.935 64.4201 286.51C64.4486 286.227 64.4777 285.945 64.5067 285.664L64.507 285.662C64.6408 284.366 64.7726 283.091 64.8301 281.81C69.2993 282.704 73.9183 283.215 78.4763 283.719L78.477 283.719L78.4778 283.719L78.4793 283.719L78.4805 283.72L78.4826 283.72C80.0417 283.892 81.5937 284.064 83.1301 284.25C84.92 284.471 86.776 284.772 88.6641 285.077L88.6656 285.078L88.6668 285.078L88.6682 285.078C93.3505 285.836 98.2302 286.626 102.79 286.32L101.47 294.19C101.207 294.111 100.935 294.064 100.66 294.05C94.9328 293.658 89.1698 292.901 83.4006 292.144L83.3998 292.144L83.399 292.144L83.3982 292.144L83.3974 292.144L83.3966 292.144L83.3958 292.144L83.395 292.144L83.3942 292.143L83.3934 292.143L83.3926 292.143L83.3918 292.143C76.9552 291.298 70.511 290.453 64.1001 290.11ZM67.6524 328.473C67.7775 329.261 67.9025 330.049 68.0001 330.84C76.997 331.246 85.9661 332.128 94.8701 333.48L96.4001 324.34C93.3462 324.418 90.1919 323.743 87.1257 323.086L87.1244 323.086L87.1232 323.086C85.8629 322.816 84.6175 322.55 83.4001 322.34C77.9701 321.41 72.5501 320.41 67.1401 319.41C67.1401 319.95 67.1312 320.49 67.1223 321.03C67.1045 322.11 67.0867 323.19 67.1401 324.27C67.2103 325.688 67.4315 327.081 67.6524 328.473ZM81.3901 368.09C80.1881 367.901 78.9749 367.584 77.7559 367.265C76.3988 366.911 75.0344 366.554 73.6701 366.37C73.6701 364.77 73.6701 363.17 73.5601 361.57C73.5601 361.154 73.5343 360.732 73.5086 360.312C73.4986 360.148 73.4885 359.983 73.4801 359.82C78.6601 361.66 84.4801 363.06 89.9701 362.77C89.8875 363.253 89.8056 363.735 89.7238 364.218C89.4781 365.665 89.2325 367.113 88.9701 368.56C88.1255 368.506 87.2742 368.48 86.4206 368.453L86.4185 368.453L86.4165 368.453L86.4145 368.453L86.4125 368.453L86.4105 368.453L86.4085 368.453L86.4064 368.453L86.4044 368.452L86.4023 368.452C84.7251 368.4 83.0395 368.348 81.3801 368.09H81.3901ZM127.944 572.828L127.95 572.84H127.94L127.944 572.828ZM127.944 572.828C112.613 542.772 97.258 512.726 81.8801 482.69C80.7401 480.45 77.7701 480.47 76.0901 481.94C54.2767 501.06 31.9134 519.52 9.00007 537.32C13.5401 510.32 24.2901 484.77 37.1201 460.66C37.798 459.385 38.479 458.099 39.1644 456.804L39.1732 456.788L39.178 456.779C50.6932 435.03 63.4744 410.89 84.2401 397.04C83.831 399.355 83.3968 401.671 82.9624 403.987L82.9622 403.989C81.7078 410.677 80.4511 417.379 79.7901 424.13C79.2601 429.48 79.8801 436.42 84.6301 439.84C89.3801 443.26 95.3201 441.15 98.4601 436.71C102.024 431.692 103.094 424.755 104.082 418.354L104.082 418.353L104.082 418.353L104.082 418.353L104.082 418.352L104.082 418.352L104.082 418.352L104.082 418.352L104.082 418.351C104.392 416.346 104.693 414.394 105.06 412.57C105.82 408.79 106.583 405.007 107.35 401.22C132.148 454.606 145.248 515.511 127.944 572.828ZM132.432 368.407L132.433 368.407L132.434 368.407L132.435 368.407C134.946 368.784 137.468 369.162 139.99 369.29C139.519 370.703 138.756 372.001 137.75 373.1C135.161 372.424 132.454 372.255 129.757 372.087C128.464 372.007 127.174 371.926 125.9 371.79C124.131 371.601 122.366 371.349 120.6 371.098C118.252 370.763 115.903 370.428 113.54 370.24L114.62 364.87C119.116 366.505 124.015 367.2 128.769 367.875C129.365 367.96 129.959 368.044 130.55 368.13H130.56C131.183 368.22 131.807 368.313 132.431 368.407L132.432 368.407ZM142.81 332.157L142.809 332.157L142.808 332.156L142.806 332.156C141.21 331.791 139.638 331.431 138.11 331.13L138.1 331.14C135.118 330.573 132.124 330.064 129.131 329.556L129.128 329.555L129.12 329.554C126.737 329.149 124.355 328.744 121.98 328.31L121.979 328.314L121.975 328.335L121.969 328.366C121.363 331.397 120.766 334.378 120.16 337.36C125.234 337.428 130.301 337.762 135.34 338.36C136.939 338.493 138.563 338.597 140.198 338.702L140.201 338.702C144.455 338.974 148.782 339.251 152.92 340.06C153.2 338.07 153.6 336.13 154.05 334.13C150.335 333.879 146.508 333.003 142.81 332.157ZM164.319 292.506L164.32 292.506C167.752 293.352 171.182 294.198 174.66 294.88V298V299.38C169.087 297.995 163.339 297.057 157.651 296.13C156.03 295.866 154.415 295.603 152.81 295.33C151.36 295.082 149.902 294.821 148.438 294.559C142.12 293.427 135.695 292.277 129.33 292.05L130.33 287.12C133.747 287.692 137.233 288.032 140.727 288.374C144.195 288.712 147.673 289.052 151.1 289.62L151.11 289.61C155.588 290.354 159.955 291.431 164.319 292.506ZM161.15 253.41C154.06 251.85 146.94 250.28 139.94 248.41L138.19 247.97C137.895 249.42 137.602 250.868 137.31 252.316C137.017 253.763 136.725 255.21 136.43 256.66C143.815 257.193 151.299 258.728 158.65 260.235C161.233 260.765 163.8 261.292 166.34 261.77C169.187 262.302 172.168 262.764 175.2 263.234L175.201 263.235L175.202 263.235L175.203 263.235L175.203 263.235L175.203 263.235C182.149 264.313 189.363 265.432 195.85 267.52C196.621 265.169 197.223 262.767 197.65 260.33C187.416 259.21 177.133 256.936 167.053 254.707C165.077 254.27 163.109 253.834 161.15 253.41ZM184.94 221.29C188.89 222.22 192.86 222.97 196.85 223.65C198.446 223.92 200.093 224.287 201.767 224.66C204.992 225.378 208.315 226.118 211.56 226.23V227.41C211.5 228.33 211.38 229.24 211.24 230.15L144 219.27L145.53 211.68C154.323 214.914 163.865 216.869 173.177 218.777L173.177 218.777L173.177 218.777L173.177 218.777L173.178 218.777L173.179 218.778C177.168 219.595 181.114 220.403 184.94 221.3V221.29ZM99.7301 401.28C101.677 391.573 103.62 381.87 105.56 372.17C120.933 294.957 136.37 217.75 151.87 140.55L134.49 137.65C130.242 168.264 124.944 198.775 119.649 229.266L119.649 229.266C117.228 243.206 114.809 257.141 112.49 271.08C108.863 292.94 105.24 314.793 101.62 336.64L101.18 339.3C98.4001 356.1 95.6134 372.9 92.8201 389.7C91.1934 399.493 89.5667 409.28 87.9401 419.06C87.8391 419.721 87.7198 420.401 87.5984 421.094C87.0347 424.31 86.4239 427.794 87.3701 430.88C89.1201 436.68 92.8701 432.44 94.1201 428.57C96.0628 422.583 97.1418 416.165 98.2104 409.808C98.6929 406.937 99.1732 404.08 99.7301 401.28ZM165.21 178C172.143 178.933 179.077 179.843 186.01 180.73L208.21 183.63C210.36 183.91 212.574 184.283 214.815 184.66L214.816 184.66C219.226 185.403 223.744 186.164 228.1 186.27C227.64 189.148 227.07 191.959 226.501 194.773C226.278 195.87 226.056 196.968 225.84 198.07C217.154 195.194 207.516 194.06 198.12 192.955H198.12H198.12C194.449 192.523 190.816 192.095 187.29 191.57C182.191 190.81 177.068 189.785 171.939 188.758L171.938 188.758L171.938 188.758C164.915 187.352 157.879 185.944 150.87 185.21C151.497 182.057 152.133 178.903 152.78 175.75C155.46 177.075 159.099 177.403 162.204 177.682C163.293 177.781 164.317 177.873 165.21 178ZM235.27 135.01C235.9 130.49 236.31 125.94 236.55 121.39V121.37C238.357 86.4121 229.341 51.7472 210.73 22.1L181.18 75.1C179.27 78.57 173.54 77.1 173.69 73.1C174.04 62.25 174.23 51.39 174.04 40.53C174.01 38.6857 174.044 36.7355 174.08 34.7306C174.209 27.4519 174.351 19.4523 171.45 13.18C167.318 4.30187 154.693 9.38257 147.058 12.4553C146.747 12.5806 146.444 12.7025 146.15 12.82C140.962 14.8652 135.92 17.2641 131.06 20C112.33 30.8751 96.096 45.5661 83.4101 63.12C72.5701 78.04 63.9601 96.36 68.9601 115.04C69.0501 115.24 69.0501 115.42 69.0501 115.61C70.111 115.957 71.1657 116.305 72.2162 116.652C80.5727 119.407 88.6668 122.077 97.5501 123.72C105.806 125.249 114.109 126.541 122.41 127.833C125.671 128.341 128.932 128.848 132.19 129.37C153.557 132.823 174.927 136.303 196.3 139.81C199.832 140.391 203.41 141.1 207.009 141.812C214.304 143.255 221.681 144.715 228.92 145.17C233.08 145.43 233.59 144.96 234.33 140.84C234.677 138.9 234.99 136.957 235.27 135.01Z" fill="#231F20"/>
<path d="M130.819 72.3299C136.519 71.8799 143.479 71.9299 147.979 68.1799C149.599 66.8199 148.609 64.1299 146.769 63.6099C141.449 62.1199 135.149 64.5499 129.769 65.0699C129.102 65.1299 128.462 65.1799 127.849 65.2199C126.549 57.9399 125.499 50.3999 122.849 43.5399C121.849 40.9499 117.979 41.2099 117.849 44.2199C117.549 51.3299 119.059 58.5299 120.319 65.5299C117.249 65.5999 114.179 65.6299 111.099 65.7699C108.019 65.9099 106.769 71.0799 110.289 71.7699C114 72.4229 117.761 72.7575 121.529 72.7699C122.529 79.0499 123.639 85.4099 125.759 91.3299C126.919 94.5599 132.309 94.3299 132.119 90.4699C131.649 84.4057 130.706 78.3874 129.299 72.4699L130.819 72.3299Z" fill="#231F20"/>
</svg>
