<svg width="368" height="582" viewBox="0 0 368 582" fill="none" xmlns="http://www.w3.org/2000/svg">
<path d="M198.115 500.737C195.92 488.863 195.543 476.725 196.995 464.737C197.995 456.557 198.995 446.267 203.315 438.617C191.485 436.257 179.705 433.617 167.815 431.617C166.005 435.117 163.455 438.367 161.865 441.957C159.533 447.334 157.854 452.971 156.865 458.747C154.635 471.227 154.605 484.317 154.865 496.967C155.135 508.197 157.265 519.127 162.305 529.237C166.865 538.367 173.095 545.387 180.305 552.237C194.461 551.524 208.507 549.366 222.225 545.797C209.345 534.547 201.235 517.077 198.115 500.737Z" fill="#58595B"/>
<path d="M252.424 510.847C247.263 503.761 242.97 496.083 239.634 487.977C236.087 479.475 233.663 470.546 232.424 461.417C231.764 456.487 230.424 449.137 231.504 443.237C223.864 442.397 216.304 441.137 208.754 439.707C207.804 443.627 206.484 447.497 205.694 451.447C204.639 456.978 203.921 462.569 203.544 468.187C202.624 478.708 203.193 489.305 205.234 499.667C207.062 508.84 210.444 517.633 215.234 525.667C219.454 532.607 224.754 538.057 230.744 543.277C234.544 541.987 238.294 540.537 241.984 538.897C250.481 535.094 258.497 530.298 265.864 524.607C260.174 521.887 255.984 515.697 252.424 510.847Z" fill="#414042"/>
<path d="M103.424 524.487C99.941 512.805 98.1759 500.678 98.1841 488.487C98.121 476.206 99.5889 463.965 102.554 452.047C104.184 445.477 106.164 437.617 109.774 431.107C96.4941 434.167 84.7041 440.437 73.4841 448.107C68.6541 451.407 63.8341 454.767 59.1341 458.277C59.3386 458.746 59.4278 459.257 59.3941 459.767C59.1541 464.047 57.3941 468.277 56.6241 472.507C55.8755 476.565 55.4343 480.673 55.3041 484.797C55.0388 493.218 55.9646 501.635 58.0541 509.797C60.1701 518.215 63.4589 526.294 67.8241 533.797C71.3068 539.415 75.1202 544.821 79.2441 549.987C91.5775 551.067 103.911 551.874 116.244 552.407C113.626 548.64 111.391 544.62 109.574 540.407C107.154 535.251 105.099 529.931 103.424 524.487Z" fill="#58595B"/>
<path d="M278.645 469.107C274.305 461.967 270.865 452.407 271.845 443.687C261.545 444.439 251.209 444.556 240.895 444.037C239.725 443.977 238.565 443.877 237.395 443.787C237.475 444.917 237.505 446.047 237.565 447.157C237.815 451.327 238.185 455.507 238.845 459.637C240 467.011 241.869 474.254 244.425 481.267C247.084 488.468 250.532 495.353 254.705 501.797C258.705 508.017 264.095 516.967 271.545 519.247C271.738 519.307 271.925 519.384 272.105 519.477C282.099 510.639 290.643 500.286 297.425 488.797C289.605 485.207 282.845 475.997 278.645 469.107Z" fill="#58595B"/>
<path d="M149.924 456.867C151.067 450.763 152.979 444.829 155.614 439.207C156.983 436.152 158.659 433.244 160.614 430.527C158.074 430.167 155.524 429.837 152.964 429.527C142.235 428.241 131.397 428.133 120.644 429.207C117.485 432.998 115.014 437.313 113.344 441.957C111.556 447.089 110.083 452.325 108.934 457.637C106.51 468.481 105.389 479.576 105.594 490.687C105.81 501.963 107.46 513.167 110.504 524.027C111.996 529.43 113.905 534.709 116.214 539.817C118.214 544.107 120.794 548.147 122.524 552.537C134.524 552.957 146.571 553.113 158.664 553.007C162.254 553.007 165.864 552.907 169.474 552.787C155.474 538.787 148.154 518.077 147.534 498.647C147.094 484.857 147.254 470.467 149.924 456.867Z" fill="#414042"/>
<path d="M47.6846 484.797C47.787 480.202 48.2215 475.62 48.9846 471.087C49.2846 469.277 49.5846 467.317 49.9846 465.377C40.6023 472.894 32.2743 481.639 25.2246 491.377C28.0746 495.377 26.2946 502.487 26.6046 507.247C26.9273 512.747 28.2205 518.147 30.4246 523.197C34.5746 532.517 42.2146 539.377 46.8446 548.297C54.2425 547.865 61.664 548.079 69.0246 548.937L71.0246 549.127C61.0246 539.127 54.4546 524.787 50.9546 511.687C48.6168 502.92 47.5161 493.869 47.6846 484.797Z" fill="#414042"/>
<path d="M23.3439 524.797C21.0837 519.525 19.7313 513.91 19.3439 508.187C19.1939 506.337 18.9439 504.187 18.8339 501.957C18.3839 502.807 17.9439 503.657 17.5239 504.527C7.71388 524.657 4.52388 547.767 7.52388 569.947C11.2539 562.947 18.2039 557.367 25.1139 553.947C30.122 551.498 35.4786 549.839 40.9939 549.027C33.4239 542.797 27.1239 533.407 23.3439 524.797Z" fill="#58595B"/>
<path fill-rule="evenodd" clip-rule="evenodd" d="M146.364 421.157C141.174 420.797 135.934 420.647 130.704 420.797C122.647 414.068 116.187 405.631 111.794 396.097C110.504 393.237 105.434 393.907 104.904 396.997C104.424 399.807 104.074 402.617 103.834 405.437C82.6743 376.547 78.2243 338.677 76.6743 303.677C76.6408 302.241 75.6662 300.999 74.2797 300.625C72.8933 300.25 71.4258 300.833 70.6743 302.057C69.3308 304.294 68.1187 306.608 67.0443 308.987C59.6043 282.117 60.5443 253.987 70.9343 227.687C72.1943 224.497 67.7043 222.557 65.5543 224.557C63.5136 226.441 61.5869 228.444 59.7843 230.557C59.3422 217.487 60.8487 204.423 64.2543 191.797C66.7833 193.85 69.4569 195.718 72.2543 197.387C76.9046 200.266 81.841 202.656 86.9843 204.517C98.0243 208.597 109.844 210.427 121.564 211.047C134.424 211.727 147.474 210.997 159.424 205.727C164.54 203.459 169.312 200.487 173.604 196.897C176.124 194.797 179.524 191.817 181.424 188.517C187.124 195.377 194.894 200.437 203.584 201.747C218.745 204.092 233.566 195.858 239.584 181.747C244.604 186.747 251.674 190.407 257.524 192.747C268.274 197.047 280.044 198.137 291.524 197.347C302.846 196.576 314.017 194.309 324.744 190.607C329.484 188.998 334.058 186.939 338.404 184.457L338.541 184.377C340.918 182.996 344.106 181.142 346.284 178.797C350.4 194.439 353.361 210.361 355.144 226.437C352.944 225.466 350.612 224.825 348.224 224.537C345.414 224.167 343.664 227.447 344.224 229.747C352.224 262.727 356.224 296.597 358.224 330.447C356.306 328.907 354.235 327.567 352.044 326.447C350.803 325.771 349.299 325.789 348.075 326.496C346.85 327.202 346.081 328.494 346.044 329.907C344.897 352.169 341.619 374.27 336.254 395.907C335.375 395.045 334.148 394.635 332.927 394.797C331.706 394.96 330.628 395.675 330.004 396.737L310.114 430.147C307.579 431.37 304.887 432.238 302.114 432.727C296.92 433.793 291.547 434.173 286.226 434.549L286.224 434.549C284.661 434.66 283.103 434.77 281.554 434.897C265.964 436.187 250.284 436.977 234.674 435.577C220.345 434.297 206.268 431.399 192.19 428.501C177.021 425.379 161.851 422.256 146.364 421.157ZM322.165 315.086C321.865 315.045 321.582 315.234 321.504 315.527V315.487C320.553 319.211 320.78 323.138 322.154 326.727L322.194 326.835C322.93 328.841 324.462 333.016 327.044 332.947C329.362 332.885 330.049 329.879 330.501 327.9C330.562 327.634 330.619 327.386 330.674 327.167C330.733 326.933 330.793 326.698 330.854 326.461L330.984 325.95C332.118 321.52 333.402 316.502 332.944 312.027C333.019 311.475 332.632 310.966 332.079 310.892C331.527 310.817 331.019 311.205 330.944 311.757C330.373 313.505 330.118 315.339 329.863 317.171L329.863 317.173L329.863 317.174L329.862 317.175L329.862 317.176L329.862 317.177L329.862 317.178L329.862 317.179L329.861 317.18C329.738 318.069 329.614 318.959 329.454 319.837C329.346 320.441 329.252 321.115 329.154 321.819C328.863 323.911 328.535 326.273 327.674 327.897C327.568 328.098 327.48 328.279 327.402 328.439C326.907 329.454 326.849 329.572 325.544 328.077C324.758 326.923 324.207 325.625 323.924 324.257C323.172 321.46 322.756 318.583 322.684 315.687C322.688 315.384 322.465 315.126 322.165 315.086ZM304.364 238.927C304.636 239.433 304.902 239.936 305.166 240.433C306.843 243.599 308.421 246.577 310.694 249.317C311.026 247.273 311.213 245.207 311.254 243.137C311.254 242.449 311.209 241.747 311.164 241.041C311.054 239.326 310.943 237.591 311.474 235.997C311.563 235.698 311.819 235.479 312.128 235.438C312.437 235.397 312.741 235.542 312.904 235.807C314.231 237.866 314.143 240.612 314.065 243.04C314.057 243.266 314.05 243.488 314.044 243.707C313.945 246.735 313.567 249.748 312.914 252.707C312.776 253.178 312.402 253.543 311.927 253.668C311.452 253.792 310.946 253.659 310.594 253.317C306.864 249.597 303.404 244.727 302.814 239.367C302.724 238.467 303.984 238.197 304.364 238.887V238.927ZM265.954 243.457C265.854 242.767 264.834 242.877 264.654 243.457V243.417C262.654 250.157 265.424 258.007 269.044 263.727C269.298 264.157 269.76 264.421 270.259 264.421C270.759 264.421 271.221 264.157 271.474 263.727C274.354 257.887 276.744 249.797 274.584 243.347C274.41 242.826 273.889 242.503 273.345 242.579C272.802 242.655 272.389 243.108 272.364 243.657C272.262 244.968 272.269 246.253 272.275 247.534C272.284 249.261 272.293 250.979 272.034 252.737C271.659 255.203 271.005 257.619 270.084 259.937C267.582 255.125 266.92 250.373 266.165 244.955C266.096 244.462 266.026 243.962 265.954 243.457ZM273.654 307.617C278.715 309.992 281.916 316.797 284.412 322.103L284.413 322.104C284.817 322.963 285.202 323.782 285.574 324.537C289.648 332.797 293.691 341.07 297.704 349.357C298.596 351.199 299.489 353.042 300.383 354.885C303.37 361.046 306.364 367.22 309.304 373.447C309.657 374.183 310.024 374.927 310.396 375.678C313.188 381.325 316.184 387.385 314.304 393.687C313.913 394.947 312.744 395.803 311.424 395.797C308.652 395.907 305.898 395.304 303.424 394.047C304.064 397.877 304.694 401.707 305.254 405.547C305.774 409.077 305.554 413.467 301.424 414.637C296.995 415.891 294.857 411.122 293.365 407.794L293.311 407.674L293.204 407.437C293.15 407.315 293.098 407.194 293.047 407.073C293.006 406.976 292.966 406.88 292.926 406.784L292.923 406.777L292.92 406.77C292.885 406.687 292.851 406.604 292.816 406.522C292.795 406.473 292.775 406.425 292.754 406.377C291.754 408.947 290.054 410.777 287.334 410.827C283.864 410.827 282.994 407.587 282.334 404.827L281.997 403.36L281.987 403.316C281.646 401.838 281.31 400.378 280.974 398.907C279.904 401.837 278.244 404.117 275.614 404.367C269.454 404.977 267.484 396.187 266.964 391.777C264.999 373.842 263.947 355.819 263.814 337.777C263.805 337.204 263.752 336.29 263.684 335.129C263.155 326.074 261.748 301.993 273.634 307.577L273.654 307.617ZM230.294 341.917C230.364 341.387 229.584 341.367 229.424 341.797C226.324 349.887 228.554 358.967 233.774 365.697C234.05 366.128 234.55 366.361 235.058 366.295C235.565 366.229 235.989 365.875 236.144 365.387C238.444 359.437 240.034 352.267 238.754 345.907C238.504 344.647 236.764 345.067 236.664 346.187C236.595 346.958 236.531 347.72 236.467 348.475L236.467 348.477C236.067 353.207 235.69 357.659 234.414 362.237C230.294 356.187 229.374 349.227 230.294 341.917ZM188.694 260.797C188.964 260.457 189.514 260.797 189.514 261.127C189.514 262.332 189.397 263.505 189.28 264.672V264.672V264.673V264.673C189.096 266.518 188.913 268.352 189.194 270.287C189.616 273.22 190.737 276.009 192.464 278.417C194.373 272.97 195.714 267.34 196.464 261.617C196.684 260.127 199.184 260.497 199.084 261.967C198.501 268.782 196.787 275.454 194.014 281.707C193.808 282.056 193.452 282.29 193.05 282.343C192.648 282.396 192.244 282.261 191.954 281.977C187.484 276.797 183.854 266.797 188.644 260.797H188.694ZM161.203 344.432C161.047 347.806 160.891 351.179 160.694 354.547L160.664 354.507C160.525 356.88 160.355 359.26 160.185 361.645C159.657 369.04 159.126 376.479 159.504 383.867C159.784 389.027 160.454 401.157 168.264 400.607C169.519 400.57 170.722 400.096 171.664 399.267L172.504 403.267C172.616 403.826 172.714 404.447 172.816 405.101L172.816 405.101C173.325 408.353 173.96 412.408 177.174 413.607C180.564 414.877 182.524 412.777 183.704 409.607C185.304 413.087 187.734 415.437 191.304 414.157C194.554 413.007 195.344 409.787 195.304 406.617C195.264 403.447 195.004 400.257 194.704 397.077C197.274 398.477 200.164 398.547 202.614 395.547C204.264 393.527 204.354 390.787 203.884 388.327C203.243 384.93 202.037 381.568 200.847 378.25C200.33 376.81 199.817 375.379 199.354 373.957L180.604 316.457C180.528 316.226 180.449 315.982 180.366 315.726L180.366 315.725C178.866 311.101 176.162 302.764 169.804 305.057C163.876 307.194 163.046 317.225 162.55 323.214C162.503 323.781 162.459 324.312 162.414 324.797C161.807 331.325 161.505 337.88 161.203 344.432ZM103.894 255.057C103.577 257.36 101.648 259.376 100.008 261.088L100.008 261.088C99.84 261.264 99.6746 261.437 99.5143 261.607C97.4444 263.752 95.1628 265.682 92.7043 267.367C92.2707 267.61 91.741 267.607 91.3102 267.359C90.8794 267.111 90.6112 266.654 90.6043 266.157C90.4528 262.12 91.1867 258.1 92.7543 254.377C93.8843 251.727 95.4743 248.377 98.2843 247.277C98.7443 247.097 99.1243 247.617 99.0343 248.027C98.6602 249.635 97.7435 251.106 96.8224 252.584C96.0938 253.753 95.3624 254.927 94.8943 256.177C94.0456 258.462 93.5499 260.863 93.4243 263.297C95.0119 262.008 96.5056 260.608 97.8943 259.107C98.4187 258.54 98.883 257.929 99.3427 257.324C100.286 256.083 101.209 254.866 102.594 254.107C102.888 253.965 103.235 253.995 103.499 254.185C103.764 254.375 103.904 254.694 103.864 255.017L103.894 255.057ZM119.464 311.307C117.734 317.247 118.604 324.057 119.604 330.057L119.574 329.977C119.674 330.464 120.034 330.857 120.511 330.999C120.987 331.141 121.504 331.01 121.854 330.657C125.854 325.587 129.934 317.237 128.124 310.587C128.005 310.195 127.644 309.927 127.234 309.927C126.825 309.927 126.463 310.195 126.344 310.587C125.93 312.026 125.701 313.509 125.473 314.992C125.222 316.619 124.971 318.247 124.474 319.817C123.782 321.996 122.839 324.086 121.664 326.047C121.302 323.34 121.157 320.646 121.012 317.941C120.896 315.79 120.78 313.632 120.554 311.457C120.541 311.188 120.338 310.967 120.071 310.931C119.805 310.894 119.55 311.052 119.464 311.307Z" fill="white"/>
<path d="M168.904 394.267C169.424 393.787 169.104 390.827 169.124 390.037C169.124 389.087 169.204 388.127 169.254 387.177C169.164 386.697 169.064 386.177 168.984 385.727C168.844 385.027 169.008 384.3 169.434 383.727V383.237C169.534 381.527 172.334 380.927 172.594 382.807V382.947C173.122 383.273 173.485 383.807 173.594 384.417C175.104 390.787 176.284 397.237 177.594 403.657C177.644 403.867 178.054 407.537 178.754 407.537C179.024 406.396 179.208 405.236 179.304 404.067C179.754 400.997 180.214 397.937 180.664 394.877C181.114 391.817 185.664 392.807 185.854 395.577C186.021 398.641 186.603 401.669 187.584 404.577C187.934 405.577 188.714 408.977 189.534 407.897C190.074 407.157 189.684 405.897 189.614 405.027C189.154 399.694 188.691 394.394 188.224 389.127C187.964 386.307 192.224 385.297 193.494 387.697C193.923 388.565 194.397 389.409 194.914 390.227C197.828 391.307 198.804 390.784 197.844 388.657C197.507 387.091 197.021 385.561 196.394 384.087C195.061 380.087 193.754 376.064 192.474 372.017C190.068 364.577 187.651 357.137 185.224 349.697C182.798 342.257 180.384 334.82 177.984 327.387C176.684 323.387 175.474 319.387 174.084 315.387C173.954 315.017 172.844 310.907 171.984 310.977C170.864 311.087 170.344 314.207 170.064 315.207C167.924 322.697 167.834 330.867 167.064 338.587C166.294 346.307 165.674 353.907 165.184 361.587C164.724 368.987 164.044 376.447 164.434 383.867C164.614 384.797 165.344 397.587 168.904 394.267Z" fill="#414042"/>
<path fill-rule="evenodd" clip-rule="evenodd" d="M219.244 142.457C230.214 147.877 237.134 159.947 235.134 172.147C234.758 172.273 234.452 172.548 234.287 172.908C234.122 173.268 234.114 173.681 234.264 174.047C234.327 174.197 234.397 174.344 234.468 174.491C234.511 174.579 234.553 174.667 234.594 174.757C231.625 186.755 220.952 195.252 208.594 195.457C194.334 195.617 183.584 184.237 179.224 171.387C176.348 163.371 178.262 154.417 184.164 148.277C184.554 147.847 184.964 147.437 185.374 147.037C186.427 146.498 187.464 145.937 188.499 145.378C192.183 143.386 195.84 141.41 200.064 140.457C206.498 138.908 213.268 139.614 219.244 142.457ZM192.194 162.577C199.034 167.907 218.684 169.067 221.424 158.297C222.043 155.884 220.642 153.414 218.254 152.707C213.624 151.357 209.154 152.067 204.554 153.187C203.486 153.447 202.306 153.629 201.095 153.817C197.919 154.308 194.526 154.833 192.354 156.867C192.033 157.173 191.802 157.56 191.684 157.987C190.577 159.401 190.804 161.441 192.194 162.577Z" fill="white"/>
<path d="M292.424 442.007C287.754 442.437 283.074 442.857 278.424 443.227C278.564 451.307 279.864 458.437 284.364 465.807C288.364 472.347 294.024 479.077 300.734 483.057C308.352 468.644 313.08 452.882 314.654 436.657C314.255 436.773 313.839 436.82 313.424 436.797C307.494 440.567 299.324 441.357 292.424 442.007Z" fill="#414042"/>
<path fill-rule="evenodd" clip-rule="evenodd" d="M233.827 136.878C246.134 121.865 258.776 106.442 280.044 105.797C292.294 105.377 304.244 109.547 315.444 114.157C320.751 116.197 325.939 118.534 330.984 121.157C332.611 122.015 334.175 122.987 335.664 124.067C337.637 127.987 339.454 131.987 341.114 136.067C340.114 135.657 339.114 135.277 338.114 134.957C334.274 133.747 332.114 137.987 333.424 141.057C337.657 151.093 341.293 161.371 344.314 171.837C342.307 172.542 340.505 173.868 338.727 175.177C337.759 175.89 336.798 176.597 335.814 177.197C331.668 179.696 327.266 181.745 322.684 183.307C313.114 186.634 303.186 188.819 293.104 189.817C283.104 190.787 272.814 190.397 263.104 187.487C258.121 185.994 253.362 183.838 248.954 181.077C247.072 179.888 245.312 178.475 243.554 177.064C242.903 176.541 242.251 176.018 241.594 175.507C244.264 162.894 239.857 149.827 230.094 141.407C231.341 139.912 232.582 138.397 233.827 136.878ZM249.104 146.677C252.644 154.597 262.884 153.577 267.364 147.117V147.067C269.463 143.978 270.039 140.1 268.927 136.534C267.815 132.968 265.137 130.105 261.654 128.757C253.084 125.327 245.394 133.007 248.084 141.617C248.104 141.683 248.131 141.746 248.164 141.807C248.188 143.473 248.506 145.121 249.104 146.677Z" fill="#58595B"/>
<path d="M257.085 135.997C255.585 136.347 255.685 137.997 255.035 139.307C254.838 139.691 254.611 140.059 254.355 140.407C254.405 141.689 254.833 142.928 255.585 143.967C257.735 146.357 261.255 143.367 261.585 140.867C261.835 138.797 259.575 135.427 257.085 135.997Z" fill="white"/>
<path fill-rule="evenodd" clip-rule="evenodd" d="M66.5756 184.337C68.6852 178.049 71.2866 171.937 74.3556 166.057C75.0825 164.655 74.6998 162.933 73.4474 161.971C72.1949 161.009 70.433 161.083 69.2656 162.147L63.2656 167.617C65.0898 156.484 67.5538 145.466 70.6456 134.617C87.9656 125.397 106.286 119.947 126.286 122.887C140.784 125.078 154.431 131.114 165.806 140.367C167.537 141.795 169.141 143.367 170.742 144.937C172.515 146.676 174.286 148.412 176.226 149.947C172.762 155.12 171.284 161.371 172.066 167.547C172.873 173.36 174.919 178.932 178.066 183.887C176.329 185.043 174.723 186.636 173.165 188.182C172.067 189.27 170.994 190.335 169.916 191.207C165.517 194.774 160.622 197.681 155.386 199.837C144.456 204.287 132.506 204.497 120.886 203.757C110.481 203.191 100.197 201.244 90.3056 197.967C85.2692 196.263 80.4233 194.041 75.8456 191.337C73.7413 190.073 71.8326 188.522 69.9304 186.975C68.8224 186.075 67.7166 185.176 66.5756 184.337ZM137.906 145.047C135.506 145.697 133.016 147.977 133.106 150.567C131.2 153.883 130.754 157.84 131.876 161.497C134.406 168.547 143.406 171.917 148.406 165.307C152.326 160.157 152.206 151.527 147.126 147.157C144.574 145.004 141.139 144.218 137.906 145.047Z" fill="#58595B"/>
<path d="M142.325 159.277C143.025 157.547 143.165 154.277 141.145 153.277C140.782 153.121 140.39 153.045 139.995 153.057C139.215 154.17 138.802 155.498 138.815 156.857C138.905 158.927 141.025 162.507 142.325 159.277Z" fill="white"/>
<path d="M182.425 142.517C175.945 135.367 169.575 128.517 161.535 122.927C153.298 117.17 144.155 112.833 134.485 110.097C124.321 107.211 113.662 106.502 103.205 108.017C98.0902 108.813 93.0661 110.109 88.2048 111.887C84.2048 113.317 80.4848 115.577 76.5348 117.087C75.2548 120.327 74.0648 123.603 72.9648 126.917C88.5748 117.237 108.655 113.737 126.405 116.027C136.838 117.378 146.945 120.589 156.245 125.507C164.615 129.927 174.995 136.457 180.365 144.637C180.895 144.097 181.425 143.567 181.985 143.057C182.145 142.877 182.295 142.697 182.425 142.517Z" fill="white"/>
<path d="M79.3343 95.5369C80.6676 93.1369 82.0876 90.7635 83.5943 88.4169C81.5943 84.3369 80.5943 79.4169 79.5943 75.3169C78.1909 69.462 77.1885 63.5182 76.5943 57.5269C75.9913 51.2461 75.7975 44.9328 76.0143 38.6269C76.1643 34.0969 76.0143 28.6869 78.1143 24.5369C83.0043 14.8369 94.9643 20.0269 101.584 24.5369C111.364 31.2279 120.741 38.4905 129.664 46.2869C132.018 44.9202 134.414 43.6235 136.854 42.3969C127.316 34.0302 116.779 26.8758 105.484 21.0969C95.2043 15.8769 77.3043 9.00686 70.3743 22.9469C67.3743 28.9469 67.3043 36.6469 67.1343 43.1969C67.0039 50.4813 67.3849 57.7658 68.2743 64.9969C69.7343 77.7469 73.2743 89.9969 75.6643 102.597C76.8243 100.217 78.0443 97.8569 79.3343 95.5369Z" fill="#58595B"/>
<path d="M270.345 367.277C270.725 374.987 271.065 382.767 271.865 390.447C271.94 392.681 272.417 394.883 273.275 396.947C274.275 398.947 274.965 399.517 275.855 396.947C277.06 393.19 277.94 389.335 278.485 385.427C278.835 383.247 281.925 383.427 282.745 385.067C283.054 385.393 283.268 385.798 283.365 386.237C284.665 391.987 286.035 397.727 287.265 403.497C287.505 404.577 287.585 405.087 287.605 405.257C287.562 404.865 287.592 404.468 287.695 404.087C288.14 402.509 288.402 400.885 288.475 399.247C288.745 396.527 288.845 393.817 288.845 391.087C288.845 387.457 293.925 387.677 294.335 391.087C294.723 394.457 295.457 397.778 296.525 400.997C297.11 402.741 297.801 404.448 298.595 406.107C299.435 407.847 299.925 410.107 299.675 407.107C299.085 400.107 297.365 392.947 296.265 385.957C295.934 384.468 296.83 382.982 298.301 382.579C299.772 382.176 301.3 382.998 301.775 384.447C302.967 387.408 305.623 389.529 308.775 390.037C308.775 386.397 306.995 383.107 305.395 379.827C303.568 376.087 301.751 372.344 299.945 368.597L289.885 347.697C286.305 340.257 282.885 332.747 279.295 325.307C277.997 322.429 276.494 319.648 274.795 316.987C273.475 314.987 271.435 311.627 269.795 314.827C269.225 315.917 269.465 317.937 269.445 319.047C269.075 335.107 269.545 351.227 270.345 367.277Z" fill="#414042"/>
<path d="M280.834 99.0472C294.834 98.4672 308.544 102.967 321.314 108.297C323.734 109.297 326.204 110.297 328.644 111.357C328.454 111.057 328.274 110.747 328.094 110.447C323.474 108.587 319.654 104.157 315.374 101.567C310.803 98.7671 305.928 96.4959 300.844 94.7972C289.844 91.1772 277.124 89.7472 265.904 93.2072C254.494 96.7272 245.514 106.117 237.844 114.887C234.086 119.102 230.877 123.776 228.294 128.797C226.974 131.417 226.294 134.797 225.174 137.797L226.084 138.377C238.064 118.527 256.534 100.037 280.834 99.0472Z" fill="white"/>
<path d="M292.356 24.4668C301.256 20.1668 314.116 14.5768 323.516 20.3368C333.516 26.4768 334.596 39.2568 332.306 49.6268C330.696 56.2602 328.614 62.7701 326.076 69.1068C324.396 73.5768 322.796 80.2968 319.316 84.1068C321.502 86.6801 323.619 89.3068 325.666 91.9868C332.466 78.3168 339.066 64.4568 343.146 49.6868C345.407 41.8354 346.683 33.7332 346.946 25.5668C347.116 18.2068 346.206 10.1768 337.506 8.78681C330.576 7.67681 322.816 9.47681 316.046 10.9668C308.456 12.6085 301.042 14.9761 293.906 18.0368C281.156 23.5168 270.426 31.3868 259.516 39.7968C262.356 40.9968 265.166 42.2835 267.946 43.6568C274.236 35.3568 283.076 28.9368 292.356 24.4668Z" fill="#58595B"/>
<path d="M84.075 100.797C82.575 103.607 81.185 106.457 79.875 109.337C86.425 105.337 94.815 103.077 101.525 101.867C112.627 99.8523 124.025 100.131 135.015 102.687C155.295 107.407 175.515 120.687 188.155 137.457C192.744 134.782 197.865 133.146 203.155 132.667C208.725 132.12 214.345 132.902 219.555 134.947C220.246 132.215 221.214 129.561 222.445 127.027C225.055 121.456 228.38 116.249 232.335 111.537C240.335 101.677 250.335 91.6268 262.505 87.2668C274.675 82.9068 289.025 83.8268 301.325 87.4068C306.414 88.889 311.334 90.8999 316.005 93.4068C292.655 64.4868 260.105 43.5368 223.205 37.3068C186.605 31.1268 150.205 39.4668 118.975 58.7668C104.698 70.3524 92.8394 84.6336 84.075 100.797Z" fill="white"/>
<path d="M87.4848 82.627C95.9148 70.797 106.425 60.187 119.095 53.297C120.585 52.177 122.095 51.117 123.655 50.077C116.855 44.077 109.845 38.407 102.535 33.077C98.8448 30.387 94.8348 26.887 90.3248 25.707C83.8548 24.027 83.1048 29.327 82.8048 34.327C82.2375 44.0637 82.5723 53.832 83.8048 63.507C84.4148 68.347 85.2948 73.147 86.3048 77.927C86.6548 79.477 87.0748 81.047 87.4848 82.627Z" fill="white"/>
<path d="M319.335 26.2467C314.845 23.6267 309.205 25.4567 304.575 26.8467C299.879 28.2497 295.334 30.112 291.005 32.4067C284.235 36.1469 277.908 40.6387 272.145 45.7967C276.694 48.2375 281.116 50.9076 285.395 53.7967C295.844 60.8763 305.47 69.1006 314.095 78.3167C315.215 74.7567 317.445 71.1067 318.645 67.9967C320.475 63.2267 322.185 58.3967 323.645 53.5067C326.315 44.7967 328.855 31.7967 319.335 26.2467Z" fill="white"/>
<path d="M218.215 152.707C213.585 151.357 209.115 152.067 204.515 153.187C200.645 154.127 195.315 154.057 192.315 156.867C191.994 157.173 191.763 157.56 191.645 157.987C190.538 159.401 190.765 161.441 192.155 162.577C198.995 167.907 218.645 169.067 221.385 158.297C222.004 155.884 220.604 153.414 218.215 152.707Z" fill="#231F20"/>
<path fill-rule="evenodd" clip-rule="evenodd" d="M248.084 141.567C245.394 132.957 253.094 125.277 261.654 128.707C265.153 130.052 267.844 132.924 268.957 136.504C270.07 140.083 269.483 143.975 267.364 147.067C262.884 153.527 252.644 154.547 249.104 146.627C248.507 145.072 248.188 143.423 248.164 141.757C248.132 141.696 248.105 141.633 248.084 141.567ZM255.564 143.967C257.734 146.357 261.254 143.367 261.564 140.867C261.834 138.797 259.574 135.427 257.064 135.997C256.018 136.213 255.75 137.11 255.463 138.071C255.339 138.488 255.211 138.917 255.014 139.307C254.817 139.691 254.589 140.059 254.334 140.407C254.384 141.689 254.812 142.928 255.564 143.967Z" fill="#231F20"/>
<path fill-rule="evenodd" clip-rule="evenodd" d="M147.144 147.157C152.224 151.527 152.344 160.147 148.424 165.307C143.424 171.917 134.354 168.547 131.894 161.497C130.773 157.84 131.218 153.883 133.124 150.567C133.034 147.977 135.524 145.697 137.924 145.047C141.158 144.217 144.593 145.004 147.144 147.157ZM141.164 153.297C140.801 153.141 140.409 153.065 140.014 153.077H139.994C139.217 154.198 138.812 155.533 138.834 156.897C138.924 158.947 141.044 162.527 142.344 159.297C143.044 157.547 143.164 154.237 141.164 153.297Z" fill="#231F20"/>
<path fill-rule="evenodd" clip-rule="evenodd" d="M322.005 426.067C322.643 426.771 322.977 427.698 322.935 428.647C322.361 454.83 313.952 480.24 298.795 501.597C285.555 520.337 267.735 535.897 246.735 545.397C226.085 554.767 203.615 558.607 181.085 560.017C180.298 560.441 179.363 560.492 178.535 560.157C174.381 560.377 170.228 560.534 166.075 560.627C135.815 561.257 105.195 560.417 75.1447 556.717C74.4844 556.635 73.8222 556.553 73.1583 556.471C59.6353 554.789 45.408 553.019 32.2347 557.337C20.4047 561.207 12.6447 569.227 7.8147 580.477C7.1647 582.007 4.6847 581.197 4.7447 579.647C4.7847 578.897 4.8547 578.157 4.9647 577.427C-2.8853 551.517 0.454701 523.327 12.5847 499.117C24.7147 474.907 45.9447 458.177 67.6447 442.907C79.0047 434.917 91.0647 427.957 104.585 424.357C108.889 423.221 113.261 422.363 117.675 421.787L118.185 421.407C118.735 421.026 119.385 420.814 120.055 420.797C116.777 417.545 113.82 413.985 111.225 410.167C111.165 412.037 111.165 413.917 111.225 415.797C111.325 419.027 106.905 420.947 104.705 418.497C79.3847 390.307 73.9047 353.167 71.1847 316.807C70.8347 317.997 70.4847 319.207 70.1847 320.437C69.2947 323.967 64.7247 323.377 63.5947 320.437C53.9947 295.427 53.0547 267.217 59.7947 241.277C58.9581 242.357 57.5338 242.797 56.234 242.375C54.9342 241.954 54.0385 240.763 53.9947 239.397C52.2258 221.403 54.0546 203.237 59.3747 185.957C58.7941 184.628 59.2961 183.075 60.5447 182.337C61.1047 180.67 61.698 179.004 62.3247 177.337L60.8547 178.697C58.2347 181.097 54.8547 178.647 55.3147 175.477C57.1934 161.848 59.9288 148.352 63.5047 135.067C63.4677 134.65 63.5851 134.233 63.8347 133.897C66.2815 125.164 69.3459 116.616 73.0047 108.317C66.6747 92.9269 63.0347 75.4369 61.4247 58.9269C60.6197 50.8035 60.6197 42.6204 61.4247 34.4969C62.1047 27.8069 63.2347 20.6969 67.8347 15.4969C77.3647 4.72693 93.0047 8.23693 104.425 13.3569C118.719 19.8771 131.996 28.4288 143.845 38.7469C143.942 38.8361 144.033 38.9331 144.115 39.0369C152.953 35.3075 162.152 32.4961 171.565 30.6469C199.178 25.2155 227.759 27.6089 254.085 37.5569C254.109 37.5185 254.136 37.4817 254.165 37.4469C263.875 26.1969 277.705 17.7969 291.165 11.7969C303.19 6.3032 315.99 2.69746 329.115 1.10693C341.305 -0.203071 352.365 4.07693 354.425 17.3169C356.555 30.9269 352.915 46.0569 348.645 58.9269C343.955 72.8969 337.485 86.1569 330.955 99.3169C335.63 106.149 339.826 113.296 343.515 120.707C345.445 122.687 346.875 125.007 346.735 127.577C349.436 133.651 351.796 139.87 353.805 146.207C355.045 150.147 349.515 153.537 346.715 150.337C346.215 149.767 345.725 149.267 345.215 148.767C355.555 176.777 362.455 205.967 364.555 235.837C364.875 240.447 358.875 241.037 356.655 237.977C355.864 236.892 354.905 235.94 353.815 235.157C361.285 270.397 366.505 305.997 367.285 342.097C367.375 346.347 361.535 347.737 359.435 344.227C357.881 341.601 355.92 339.238 353.625 337.227C351.958 362.033 347.728 386.601 341.005 410.537C339.855 414.627 334.205 414.377 332.945 410.537C332.819 410.159 332.704 409.781 332.588 409.403C332.512 409.151 332.435 408.899 332.355 408.647L322.005 426.067ZM284.285 465.807C288.285 472.347 293.945 479.057 300.655 483.057C308.255 468.641 312.967 452.879 314.525 436.657C314.143 436.778 313.745 436.835 313.345 436.827C307.465 440.567 299.295 441.357 292.345 442.007C287.705 442.437 283.025 442.857 278.345 443.227C278.485 451.307 279.785 458.437 284.285 465.807ZM330.985 121.137C332.612 121.995 334.176 122.967 335.665 124.047C337.665 127.987 339.481 131.987 341.115 136.047C340.115 135.637 339.115 135.257 338.115 134.937C334.275 133.727 332.115 137.937 333.425 141.037C337.671 151.066 341.32 161.337 344.355 171.797C342.348 172.503 340.546 173.829 338.768 175.137C337.8 175.85 336.838 176.558 335.855 177.157C331.709 179.656 327.307 181.705 322.725 183.267C313.156 186.601 303.227 188.793 293.145 189.797C283.095 190.797 272.815 190.377 263.145 187.467C258.162 185.974 253.403 183.818 248.995 181.057C247.113 179.868 245.353 178.455 243.595 177.044L243.595 177.044L243.594 177.044L243.594 177.043L243.593 177.042L243.592 177.042L243.591 177.041L243.59 177.041L243.59 177.04C242.94 176.518 242.29 175.997 241.635 175.487C244.305 162.874 239.898 149.807 230.135 141.387C231.382 139.892 232.623 138.377 233.868 136.858C246.175 121.845 258.817 106.422 280.085 105.777C292.335 105.407 304.285 109.577 315.485 114.127C320.778 116.172 325.953 118.512 330.985 121.137ZM234.469 174.451C234.398 174.304 234.327 174.157 234.265 174.007C234.114 173.641 234.122 173.228 234.287 172.868C234.452 172.508 234.759 172.232 235.135 172.107C237.135 159.907 230.245 147.837 219.245 142.417C213.269 139.574 206.498 138.868 200.065 140.417C195.841 141.369 192.184 143.346 188.499 145.338C187.464 145.897 186.427 146.458 185.375 146.997C184.965 147.397 184.555 147.807 184.165 148.237C178.262 154.377 176.348 163.331 179.225 171.347C183.595 184.197 194.335 195.577 208.595 195.417C220.953 195.212 231.625 186.715 234.595 174.717C234.554 174.627 234.511 174.539 234.469 174.451ZM156.265 125.507C146.965 120.589 136.858 117.378 126.425 116.027C108.675 113.737 88.5947 117.237 72.9847 126.917C74.0847 123.584 75.2747 120.307 76.5547 117.087C78.4795 116.36 80.3326 115.46 82.1807 114.562L82.1809 114.562L82.1809 114.562L82.181 114.562L82.1811 114.562L82.1812 114.562L82.1812 114.562L82.1813 114.562L82.1814 114.562L82.1814 114.562L82.1815 114.562L82.1816 114.562L82.1816 114.562L82.1817 114.562L82.1818 114.562L82.1818 114.562L82.1819 114.562C84.174 113.594 86.1603 112.629 88.2247 111.887C93.086 110.109 98.1101 108.813 103.225 108.017C113.682 106.502 124.34 107.211 134.505 110.097C144.174 112.833 153.318 117.17 161.555 122.927C169.555 128.507 175.965 135.367 182.445 142.517L182.423 142.544L182.373 142.608L182.303 142.697L182.302 142.697C182.207 142.817 182.111 142.937 182.025 143.057C181.465 143.567 180.935 144.057 180.405 144.637C175.025 136.457 164.645 129.927 156.275 125.507H156.265ZM226.381 134.008C226.004 135.258 225.623 136.521 225.165 137.727L226.135 138.307C238.115 118.527 256.585 100.047 280.885 99.0469C294.915 98.4669 308.595 102.967 321.365 108.297C322.611 108.843 323.87 109.357 325.132 109.872C326.321 110.357 327.511 110.843 328.695 111.357C328.556 111.138 328.423 110.915 328.292 110.693C328.242 110.611 328.194 110.528 328.145 110.447C325.411 109.334 322.957 107.336 320.522 105.353C318.842 103.985 317.172 102.624 315.425 101.567C310.834 98.7662 305.939 96.4982 300.835 94.8069C289.835 91.2169 277.115 89.7569 265.895 93.2169C254.485 96.7369 245.505 106.127 237.835 114.897C234.082 119.087 230.873 123.733 228.285 128.727C227.495 130.312 226.942 132.147 226.381 134.007L226.381 134.008ZM293.905 17.9969C301.041 14.9362 308.455 12.5686 316.045 10.9269L316.708 10.7807C323.319 9.32292 330.8 7.67303 337.505 8.74693C346.205 10.1369 347.115 18.1669 346.945 25.5269C346.682 33.6933 345.406 41.7955 343.145 49.6469C339.065 64.4169 332.465 78.2769 325.665 91.9469C323.625 89.2803 321.508 86.6536 319.315 84.0669C322.023 81.1326 323.593 76.4111 324.948 72.3356C325.334 71.1749 325.702 70.0666 326.075 69.0669C328.613 62.7303 330.695 56.2203 332.305 49.5869C334.595 39.2169 333.515 26.4369 323.515 20.2969C314.115 14.5369 301.255 20.1269 292.355 24.4269C283.075 28.8969 274.235 35.3169 267.945 43.5669C265.165 42.1869 262.355 40.9003 259.515 39.7069C270.425 31.3869 281.155 23.5169 293.905 17.9969ZM316.756 72.0752L316.756 72.0748C317.461 70.6318 318.143 69.2372 318.645 67.9369C320.475 63.1669 322.185 58.3369 323.705 53.4269C326.365 44.8169 328.885 31.7869 319.365 26.2269C315.019 23.6909 309.595 25.3242 305.053 26.6921L304.605 26.8269C299.91 28.2298 295.364 30.0922 291.035 32.3869C284.267 36.1146 277.94 40.5928 272.175 45.7369C276.724 48.1777 281.146 50.8478 285.425 53.7369C295.864 60.8182 305.48 69.0425 314.095 78.2569C314.746 76.1854 315.774 74.0835 316.756 72.0752ZM223.235 37.2669C260.135 43.4969 292.685 64.4469 316.035 93.3669C311.364 90.8601 306.444 88.8491 301.355 87.3669C289.055 83.7869 274.755 82.8469 262.535 87.2269C250.315 91.6069 240.355 101.637 232.365 111.497C228.41 116.209 225.085 121.416 222.475 126.987C221.244 129.521 220.275 132.175 219.585 134.907C214.375 132.862 208.755 132.081 203.185 132.627C197.894 133.107 192.774 134.742 188.185 137.417C175.545 120.637 155.325 107.417 135.045 102.647C124.054 100.091 112.657 99.8124 101.555 101.827C94.8447 103.037 86.4547 105.267 79.9047 109.297C81.2147 106.417 82.6047 103.567 84.1047 100.757C92.8736 84.5766 104.743 70.2814 119.035 58.6869C150.195 39.4269 186.635 31.0869 223.235 37.2669ZM82.8247 34.3269C82.2574 44.0636 82.5921 53.8319 83.8247 63.5069C84.4247 68.3469 85.3147 73.1469 86.3247 77.9269C86.612 79.2762 86.9675 80.6407 87.3252 82.0137C87.3784 82.2179 87.4316 82.4223 87.4847 82.6269C95.9147 70.7969 106.425 60.1869 119.115 53.2969C120.605 52.1769 122.125 51.0769 123.675 50.0769C116.875 44.0769 109.865 38.4069 102.555 33.0769C101.913 32.609 101.261 32.1165 100.599 31.616C97.4545 29.2394 94.0702 26.6817 90.3447 25.7069C83.8747 24.0269 83.1247 29.3269 82.8247 34.3269ZM68.2747 64.9969C67.3853 57.7659 67.0043 50.4813 67.1347 43.1969C67.1413 42.9436 67.1477 42.6886 67.1542 42.432C67.3152 36.0546 67.5004 28.7245 70.3747 22.9469C77.3047 9.00693 95.2047 15.8769 105.485 21.0969C116.793 26.8668 127.343 34.0145 136.895 42.3769C134.455 43.5969 132.058 44.8936 129.705 46.2669C120.781 38.4706 111.405 31.208 101.625 24.5169C95.0047 20.0269 83.0447 14.8369 78.1547 24.5169C76.318 28.164 76.2035 32.7843 76.1009 36.9251L76.1009 36.9263C76.0868 37.4969 76.0729 38.0584 76.0547 38.6069C75.8379 44.9128 76.0317 51.2262 76.6347 57.5069C77.2289 63.4983 78.2313 69.4421 79.6347 75.2969C79.7578 75.8078 79.8809 76.3293 80.0059 76.8587C80.8961 80.6297 81.8809 84.8017 83.6347 88.3969C82.148 90.7436 80.728 93.1169 79.3747 95.5169C78.0847 97.8369 76.8647 100.197 75.7047 102.577C74.8606 98.2246 73.8826 93.906 72.9044 89.5864L72.9043 89.5858L72.9042 89.5856C71.0663 81.4698 69.2275 73.3505 68.2747 64.9969ZM126.245 122.847C106.225 119.907 87.9247 125.357 70.6047 134.577C67.5406 145.421 65.1033 156.433 63.3047 167.557L69.3047 162.087C70.4729 161.004 72.2525 160.924 73.5133 161.897C74.7741 162.871 75.1468 164.613 74.3947 166.017C71.3257 171.897 68.7243 178.009 66.6147 184.297C67.6884 185.1 68.7309 185.947 69.7734 186.794C71.7408 188.392 73.708 189.99 75.8847 191.297C80.4623 194.001 85.3083 196.223 90.3447 197.927C100.236 201.204 110.52 203.151 120.925 203.717C132.545 204.457 144.495 204.247 155.425 199.797C160.633 197.634 165.501 194.727 169.875 191.167C170.951 190.297 172.015 189.24 173.105 188.158C174.658 186.615 176.262 185.022 178.025 183.847C174.878 178.892 172.832 173.32 172.025 167.507C171.243 161.331 172.721 155.08 176.185 149.907C174.254 148.379 172.49 146.648 170.724 144.915C169.115 143.337 167.505 141.757 165.765 140.327C154.39 131.074 140.743 125.038 126.245 122.847ZM111.845 396.047C110.555 393.187 105.485 393.857 104.955 396.947C104.475 399.757 104.125 402.567 103.885 405.387C82.7747 376.497 78.2747 338.587 76.7247 303.627C76.6912 302.191 75.7166 300.949 74.3301 300.575C72.9437 300.2 71.4763 300.783 70.7247 302.007C69.3812 304.245 68.1692 306.558 67.0947 308.937C59.6547 282.067 60.5947 253.937 70.9847 227.637C72.2447 224.447 67.7547 222.497 65.6047 224.507C63.564 226.391 61.6373 228.394 59.8347 230.507C59.4008 217.453 60.9107 204.407 64.3147 191.797C66.8438 193.85 69.5173 195.718 72.3147 197.387C76.965 200.266 81.9014 202.656 87.0447 204.517C98.0447 208.597 109.905 210.427 121.625 211.047C134.515 211.737 147.535 210.997 159.485 205.727C164.59 203.454 169.353 200.478 173.635 196.887C176.155 194.787 179.555 191.807 181.455 188.507C187.155 195.367 194.925 200.427 203.615 201.737C218.775 204.082 233.596 195.848 239.615 181.737C244.615 186.737 251.705 190.417 257.555 192.737C268.315 197.037 280.085 198.127 291.555 197.337C302.877 196.566 314.047 194.299 324.775 190.597C329.511 188.981 334.082 186.915 338.425 184.427L338.561 184.347C340.938 182.966 344.127 181.112 346.305 178.767C350.409 194.403 353.36 210.319 355.135 226.387C352.934 225.416 350.602 224.775 348.215 224.487C345.445 224.117 343.695 227.397 344.215 229.697C352.215 262.697 356.275 296.547 358.215 330.397C356.296 328.857 354.225 327.517 352.035 326.397C350.793 325.721 349.29 325.739 348.065 326.446C346.841 327.152 346.072 328.444 346.035 329.857C344.888 352.119 341.609 374.22 336.245 395.857C335.365 394.995 334.138 394.585 332.917 394.747C331.696 394.91 330.618 395.625 329.995 396.687L310.105 430.097C307.569 431.32 304.877 432.188 302.105 432.677C296.911 433.743 291.538 434.123 286.217 434.499H286.217C284.653 434.61 283.094 434.72 281.545 434.847C265.955 436.137 250.275 436.927 234.665 435.527C220.335 434.247 206.258 431.349 192.18 428.451L192.18 428.451C177.011 425.329 161.842 422.206 146.355 421.107C141.165 420.747 135.925 420.597 130.695 420.747C122.659 414.012 116.22 405.575 111.845 396.047ZM7.5047 569.887C11.2347 562.887 18.1847 557.327 25.0947 553.887C30.0954 551.433 35.4452 549.767 40.9547 548.947C33.3247 542.737 27.1047 533.387 23.3247 524.737C21.0645 519.465 19.7121 513.85 19.3247 508.127C19.2755 507.521 19.2156 506.88 19.1534 506.215C19.0259 504.85 18.8886 503.383 18.8147 501.897C18.3647 502.747 17.9247 503.597 17.5047 504.467C7.6847 524.597 4.5047 547.707 7.5047 569.887ZM69.0247 548.887C61.6641 548.029 54.2426 547.815 46.8447 548.247C44.7123 544.139 41.9415 540.468 39.1672 536.792C35.9177 532.486 32.6634 528.174 30.4247 523.147C28.2401 518.11 26.9605 512.728 26.6447 507.247C26.5502 505.795 26.65 504.126 26.7536 502.394C26.9897 498.444 27.2457 494.164 25.2647 491.377C32.3144 481.639 40.6424 472.894 50.0247 465.377C49.6153 467.268 49.32 469.178 49.046 470.949L49.0247 471.087C48.2616 475.62 47.8271 480.202 47.7247 484.797C47.5641 493.877 48.6749 502.935 51.0247 511.707C54.5247 524.807 61.0847 539.127 71.0947 549.147L69.0247 548.887ZM67.8247 533.697C71.3074 539.315 75.1208 544.721 79.2447 549.887V549.897C91.5647 550.99 103.895 551.767 116.235 552.227C113.616 548.46 111.382 544.44 109.565 540.227C107.137 535.091 105.072 529.791 103.385 524.367C99.9016 512.685 98.1365 500.558 98.1447 488.367C98.0815 476.086 99.5495 463.845 102.515 451.927C104.145 445.357 106.125 437.497 109.735 430.987C96.4447 434.077 84.6647 440.347 73.4447 447.987C68.6147 451.287 63.7947 454.647 59.0947 458.157C59.2992 458.626 59.3883 459.137 59.3547 459.647C59.2081 462.262 58.4977 464.859 57.7893 467.448C57.3383 469.096 56.8881 470.742 56.5847 472.387C55.8485 476.452 55.4207 480.567 55.3047 484.697C55.0394 493.118 55.9652 501.535 58.0547 509.697C60.1707 518.115 63.4595 526.194 67.8247 533.697ZM158.675 553.027C146.595 553.134 134.548 552.977 122.535 552.557C121.539 550.029 120.248 547.618 118.957 545.208C118.007 543.432 117.056 541.657 116.225 539.837C113.915 534.729 112.006 529.45 110.515 524.047C107.47 513.187 105.82 501.984 105.605 490.707C105.399 479.597 106.521 468.502 108.945 457.657C110.093 452.345 111.566 447.109 113.355 441.977C115.025 437.333 117.495 433.018 120.655 429.227C131.407 428.153 142.245 428.261 152.975 429.547C155.535 429.827 158.085 430.157 160.625 430.547C158.669 433.264 156.994 436.172 155.625 439.227C152.989 444.849 151.077 450.783 149.935 456.887C147.265 470.487 147.105 484.887 147.555 498.697C148.165 518.107 155.425 538.797 169.485 552.797C165.875 552.937 162.265 553.007 158.675 553.037V553.027ZM162.315 529.307C166.895 538.387 173.125 545.407 180.315 552.307V552.317C194.472 551.627 208.521 549.493 222.245 545.947C209.355 534.617 201.245 517.147 198.125 500.807C195.93 488.933 195.553 476.794 197.005 464.807C197.043 464.483 197.081 464.156 197.119 463.826C198.054 455.817 199.195 446.034 203.325 438.687C199.722 437.968 196.124 437.224 192.526 436.479L192.524 436.479L192.522 436.478C184.307 434.778 176.092 433.078 167.825 431.687C167.041 433.203 166.118 434.673 165.194 436.143C163.985 438.067 162.776 439.992 161.875 442.027C159.543 447.404 157.864 453.04 156.875 458.817C154.605 471.297 154.575 484.387 154.875 497.037C155.145 508.307 157.315 519.197 162.315 529.307ZM241.975 538.887C238.285 540.527 234.535 541.977 230.735 543.267C224.735 538.047 219.445 532.597 215.225 525.657C210.434 517.623 207.052 508.83 205.225 499.657C203.184 489.295 202.615 478.698 203.535 468.177C203.911 462.558 204.629 456.968 205.685 451.437C206.151 449.107 206.801 446.805 207.451 444.503L207.451 444.503C207.903 442.904 208.355 441.304 208.745 439.697C216.295 441.127 223.855 442.387 231.495 443.227C230.607 448.461 231.499 454.837 232.173 459.652L232.173 459.655C232.258 460.266 232.34 460.852 232.415 461.407C233.66 470.537 236.091 479.465 239.645 487.967C242.976 496.076 247.267 503.758 252.425 510.847C252.617 511.108 252.811 511.373 253.007 511.641L253.259 511.985C256.647 516.622 260.621 522.059 265.865 524.607C258.494 530.298 250.475 535.095 241.975 538.897V538.887ZM271.545 519.197C271.738 519.257 271.925 519.334 272.105 519.427V519.437C282.105 510.603 290.656 500.254 297.445 488.767C289.635 485.207 282.835 475.997 278.635 469.107C274.295 461.967 270.835 452.407 271.835 443.687C261.535 444.439 251.199 444.555 240.885 444.037C239.96 443.989 239.041 443.917 238.118 443.844C237.874 443.825 237.63 443.806 237.385 443.787C237.434 444.486 237.465 445.184 237.495 445.878C237.513 446.307 237.532 446.733 237.555 447.157C237.835 451.327 238.175 455.507 238.835 459.637C239.994 467.011 241.866 474.255 244.425 481.267C247.088 488.451 250.535 495.319 254.705 501.747C254.957 502.137 255.215 502.538 255.479 502.947C259.415 509.063 264.562 517.06 271.545 519.197Z" fill="#231F20"/>
<path fill-rule="evenodd" clip-rule="evenodd" d="M171.684 399.257C170.742 400.086 169.539 400.56 168.284 400.597C160.474 401.147 159.804 389.017 159.574 383.887C159.18 376.485 159.712 369.026 160.24 361.61C160.408 359.247 160.577 356.888 160.714 354.537C160.911 351.169 161.067 347.796 161.223 344.422C161.525 337.87 161.827 331.315 162.434 324.787C162.479 324.302 162.523 323.771 162.57 323.204C163.066 317.215 163.896 307.184 169.824 305.047C176.209 302.744 178.908 311.124 180.404 315.767C180.481 316.004 180.554 316.231 180.624 316.447L199.374 373.947C199.837 375.369 200.35 376.8 200.867 378.24C202.057 381.558 203.263 384.92 203.904 388.317C204.374 390.777 204.284 393.537 202.634 395.537C200.184 398.537 197.294 398.467 194.724 397.067C195.024 400.247 195.324 403.577 195.324 406.607C195.324 409.637 194.524 412.997 191.324 414.147C187.724 415.427 185.344 413.077 183.724 409.597C182.544 412.747 180.584 414.847 177.194 413.597C174.01 412.409 173.378 408.438 172.861 405.192C172.751 404.503 172.647 403.847 172.524 403.257L171.684 399.257ZM167.164 338.597C166.444 346.267 165.774 353.927 165.284 361.597L165.314 361.577C165.242 362.732 165.165 363.888 165.088 365.046C164.671 371.305 164.251 377.596 164.664 383.867C164.714 384.787 165.444 397.597 169.004 394.277C169.413 393.9 169.315 391.991 169.255 390.807C169.238 390.485 169.224 390.216 169.224 390.047C169.254 389.097 169.304 388.137 169.354 387.187C169.264 386.737 169.164 386.217 169.084 385.737C168.944 385.037 169.108 384.31 169.534 383.737V383.247C169.634 381.537 172.434 380.937 172.694 382.817V382.957C173.221 383.283 173.585 383.817 173.694 384.427C174.74 388.867 175.63 393.347 176.521 397.828C176.907 399.775 177.294 401.722 177.694 403.667C177.701 403.697 177.716 403.799 177.738 403.951C177.868 404.858 178.255 407.547 178.854 407.547C179.124 406.406 179.308 405.246 179.404 404.077C179.661 402.325 179.918 400.596 180.177 398.854C180.371 397.544 180.567 396.226 180.764 394.887C181.224 391.767 185.774 392.817 185.954 395.587C186.121 398.651 186.703 401.679 187.684 404.587C187.743 404.757 187.813 404.992 187.893 405.262C188.295 406.61 188.951 408.807 189.634 407.907C190.051 407.336 189.914 406.439 189.798 405.673C189.763 405.445 189.73 405.229 189.714 405.037C189.261 399.737 188.798 394.437 188.324 389.137C188.064 386.317 192.334 385.307 193.594 387.707C194.022 388.575 194.496 389.419 195.014 390.237C197.928 391.317 198.904 390.794 197.944 388.667C197.607 387.101 197.121 385.571 196.494 384.097C195.214 380.05 193.908 376.027 192.574 372.027C190.154 364.58 187.738 357.14 185.324 349.707C182.911 342.274 180.498 334.837 178.084 327.397C177.651 326.064 177.228 324.73 176.804 323.397C175.958 320.73 175.111 318.064 174.184 315.397C174.084 314.987 172.944 310.917 172.084 310.987C171.15 311.079 170.634 313.263 170.325 314.566C170.264 314.826 170.211 315.051 170.164 315.217C168.5 320.936 168.048 327.082 167.607 333.083C167.47 334.94 167.334 336.784 167.164 338.597Z" fill="#231F20"/>
<path fill-rule="evenodd" clip-rule="evenodd" d="M275.614 404.387C269.454 404.997 267.484 396.207 266.964 391.797C264.996 373.869 263.941 355.852 263.804 337.817C263.795 337.24 263.741 336.32 263.673 335.152C263.144 326.071 261.741 302.005 273.624 307.587C278.7 309.954 281.872 316.716 284.356 322.013C284.769 322.894 285.163 323.734 285.544 324.507C289.631 332.754 293.674 341.027 297.674 349.327C298.745 351.547 299.819 353.767 300.894 355.987C303.702 361.789 306.511 367.595 309.274 373.417C309.618 374.133 309.978 374.858 310.341 375.59C313.142 381.236 316.168 387.337 314.274 393.657C313.904 394.926 312.746 395.804 311.424 395.817C308.652 395.927 305.897 395.324 303.424 394.067C304.064 397.897 304.694 401.727 305.254 405.567C305.774 409.097 305.554 413.487 301.424 414.657C296.995 415.911 294.857 411.142 293.364 407.814C293.31 407.693 293.257 407.574 293.204 407.457C293.106 407.236 293.015 407.02 292.926 406.804C292.869 406.668 292.812 406.533 292.754 406.397C291.724 408.967 290.054 410.797 287.334 410.847C283.844 410.907 282.974 407.617 282.334 404.847C281.874 402.877 281.424 400.927 280.974 398.927C279.904 401.857 278.244 404.137 275.614 404.387ZM274.589 316.676C273.286 314.688 271.357 311.745 269.774 314.797C269.335 315.66 269.365 317.058 269.388 318.138C269.395 318.46 269.401 318.754 269.394 318.997C269.044 335.057 269.514 351.177 270.314 367.227C270.347 367.886 270.379 368.545 270.411 369.204C270.756 376.265 271.102 383.373 271.834 390.397C271.909 392.631 272.387 394.833 273.244 396.897C274.264 398.957 274.934 399.497 275.824 396.897C277.029 393.139 277.909 389.285 278.454 385.377C278.804 383.197 281.894 383.357 282.714 385.017C283.023 385.343 283.238 385.748 283.334 386.187C283.763 388.084 284.199 389.979 284.636 391.875C285.523 395.727 286.41 399.58 287.234 403.447C287.425 404.307 287.528 404.806 287.561 405.059C287.564 405.109 287.569 405.158 287.574 405.207C287.574 405.172 287.57 405.124 287.561 405.059C287.54 404.716 287.574 404.37 287.664 404.037C288.11 402.459 288.372 400.835 288.444 399.197C288.714 396.477 288.814 393.767 288.814 391.037C288.814 387.407 293.894 387.627 294.304 391.037C294.692 394.407 295.426 397.728 296.494 400.947C297.079 402.691 297.771 404.397 298.564 406.057C298.816 406.576 299.036 407.143 299.215 407.602C299.631 408.674 299.819 409.158 299.644 407.057C299.26 402.476 298.398 397.865 297.539 393.274C297.078 390.81 296.618 388.352 296.234 385.907C295.903 384.418 296.799 382.932 298.27 382.529C299.741 382.125 301.27 382.948 301.744 384.397C302.937 387.358 305.592 389.479 308.744 389.987C308.744 386.647 307.245 383.601 305.762 380.587C305.629 380.317 305.496 380.047 305.364 379.777C303.531 376.044 301.714 372.3 299.914 368.547L289.864 347.667C287.971 343.744 286.122 339.801 284.274 335.859C282.618 332.326 280.961 328.794 279.274 325.277C277.977 322.399 276.473 319.618 274.774 316.957C274.714 316.866 274.652 316.772 274.589 316.676Z" fill="#231F20"/>
<path d="M102.564 254.017C100.504 255.197 99.4642 257.337 97.8642 259.017C96.4755 260.518 94.9817 261.918 93.3942 263.207C93.5198 260.773 94.0154 258.372 94.8642 256.087C95.9242 253.257 98.3342 250.817 99.0042 247.937C99.0942 247.527 98.7142 247.007 98.2542 247.187C95.4442 248.297 93.8542 251.637 92.7242 254.287C91.1565 258.01 90.4227 262.031 90.5742 266.067C90.581 266.564 90.8493 267.021 91.2801 267.269C91.7109 267.517 92.2406 267.52 92.6742 267.277C95.1327 265.592 97.4143 263.662 99.4842 261.517C101.204 259.697 103.484 257.517 103.864 254.967C103.929 254.629 103.794 254.283 103.515 254.08C103.237 253.877 102.867 253.852 102.564 254.017Z" fill="#231F20"/>
<path d="M128.095 310.507C127.976 310.115 127.614 309.847 127.205 309.847C126.795 309.847 126.434 310.115 126.315 310.507C125.425 313.507 125.395 316.707 124.445 319.737C123.753 321.916 122.81 324.006 121.635 325.967C120.985 321.107 121.035 316.287 120.525 311.377C120.511 311.108 120.308 310.887 120.042 310.851C119.775 310.814 119.521 310.972 119.435 311.227C117.705 317.167 118.535 323.977 119.575 329.977C119.702 330.438 120.065 330.798 120.528 330.921C120.991 331.044 121.484 330.913 121.825 330.577C125.825 325.467 129.905 317.157 128.095 310.507Z" fill="#231F20"/>
<path d="M193.956 281.667C196.728 275.414 198.442 268.743 199.026 261.927C199.126 260.457 196.626 260.087 196.406 261.577C195.655 267.3 194.314 272.93 192.406 278.377C190.678 275.969 189.557 273.18 189.136 270.247C188.676 267.107 189.466 264.197 189.456 261.087C189.456 260.707 188.906 260.417 188.636 260.757C183.846 266.757 187.476 276.757 191.886 281.937C192.175 282.225 192.582 282.363 192.987 282.31C193.392 282.257 193.749 282.02 193.956 281.667Z" fill="#231F20"/>
<path d="M271.474 263.687C274.354 257.847 276.744 249.757 274.584 243.307C274.41 242.786 273.889 242.463 273.346 242.539C272.802 242.615 272.389 243.068 272.364 243.617C272.124 246.617 272.484 249.617 272.034 252.697C271.66 255.163 271.005 257.579 270.084 259.897C267.354 254.647 266.814 249.467 265.954 243.417C265.854 242.727 264.834 242.837 264.654 243.417C262.654 250.157 265.414 258.007 269.044 263.687C269.298 264.117 269.76 264.381 270.259 264.381C270.759 264.381 271.221 264.117 271.474 263.687Z" fill="#231F20"/>
<path d="M312.915 252.647C313.568 249.688 313.946 246.676 314.045 243.647C314.115 241.067 314.355 237.997 312.905 235.747C312.742 235.482 312.437 235.337 312.129 235.378C311.82 235.42 311.564 235.638 311.475 235.937C310.725 238.187 311.295 240.717 311.255 243.077C311.214 245.148 311.027 247.213 310.695 249.257C308.065 246.087 306.385 242.597 304.365 238.867C303.985 238.177 302.725 238.447 302.815 239.287C303.405 244.647 306.865 249.517 310.595 253.237C310.944 253.58 311.447 253.716 311.921 253.595C312.395 253.475 312.772 253.115 312.915 252.647Z" fill="#231F20"/>
<path d="M236.094 365.367C238.394 359.417 239.984 352.247 238.704 345.887C238.454 344.627 236.704 345.047 236.614 346.167C236.114 351.767 235.844 356.907 234.364 362.217C230.254 356.167 229.364 349.217 230.244 341.897C230.314 341.367 229.534 341.347 229.374 341.777C226.324 349.887 228.554 358.967 233.724 365.677C234 366.108 234.5 366.342 235.008 366.275C235.515 366.209 235.939 365.855 236.094 365.367Z" fill="#231F20"/>
<path d="M327.055 332.907C329.725 332.837 330.215 328.977 330.685 327.127C331.875 322.417 333.455 316.877 332.955 311.987C333.03 311.435 332.642 310.927 332.09 310.852C331.538 310.777 331.03 311.165 330.955 311.717C330.105 314.317 329.955 317.107 329.465 319.797C329.035 322.197 328.835 325.687 327.685 327.857C326.905 329.337 327.065 329.767 325.555 328.037C324.768 326.883 324.218 325.585 323.935 324.217C323.183 321.42 322.767 318.543 322.695 315.647C322.698 315.344 322.476 315.087 322.176 315.046C321.876 315.005 321.592 315.194 321.515 315.487C320.576 319.199 320.806 323.111 322.175 326.687C322.885 328.647 324.285 332.977 327.055 332.907Z" fill="#231F20"/>
</svg>
