<svg width="529" height="574" viewBox="0 0 529 574" fill="none" xmlns="http://www.w3.org/2000/svg">
<path fill-rule="evenodd" clip-rule="evenodd" d="M489.256 209.008C485.998 204.511 481.673 201.087 477.368 197.678C471.631 193.136 465.928 188.621 462.826 181.628C460.916 177.348 464.026 172.748 468.826 173.768C480.234 176.137 491.381 179.624 502.106 184.178C473.876 136.178 433.276 96.6482 385.476 67.8883C381.236 65.3483 382.786 57.8883 388.096 58.2083L423.536 60.2083C392.261 41.285 358.442 26.9267 323.106 17.5683C300.806 11.6883 278.216 8.56826 255.156 10.6383C236.556 12.3283 218.286 16.6383 200.315 21.6383C209.649 25.3583 218.999 29.1149 228.366 32.9083C234.226 35.3083 232.006 43.2283 225.776 42.3183C190.345 37.1783 154.395 47.4983 126.575 69.1783L134.365 66.4583C140.035 64.4583 142.365 73.3683 136.835 75.3783L133.695 76.5182C126.287 83.0285 118.804 89.4466 111.319 95.8671L111.318 95.868L111.317 95.8681L111.317 95.8681L111.317 95.8682L111.317 95.8682L111.317 95.8683L111.317 95.8683C103.798 102.317 96.2766 108.769 88.8252 115.318L87.9044 116.129C78.4431 124.458 68.6175 133.108 62.2252 143.868L75.2252 135.068C79.7852 131.978 83.7652 138.508 80.7052 142.168C55.2352 172.568 29.1051 204.768 18.2351 243.328C23.2935 238.981 28.661 235.008 34.2951 231.438C38.4551 228.808 42.6551 233.878 40.6551 237.808C21.9051 274.688 3.48505 316.508 11.9551 357.918C15.4286 348.051 20.1002 338.647 25.8651 329.918C29.0551 325.058 35.4951 328.388 34.7251 333.648C29.2351 370.768 31.8351 410.788 52.7252 442.278C52.6473 432.167 53.8502 422.087 56.3052 412.278C57.5852 407.148 65.2252 408.428 65.3052 413.498C65.6752 434.928 73.5052 455.258 86.3052 472.348C98.3186 488.363 113.987 499.732 129.909 511.285C131.217 512.234 132.526 513.184 133.835 514.138C135.229 515.08 135.991 516.713 135.818 518.387C135.644 520.06 134.563 521.502 133.005 522.138C138.209 523.903 143.537 525.277 148.945 526.248C149.791 526.421 150.637 526.592 151.483 526.764L151.49 526.765L151.497 526.766L151.504 526.768C162.23 528.94 172.858 531.092 182.575 536.428C185.765 538.188 185.735 542.148 183.695 544.678C193.981 548.097 204.809 549.589 215.636 549.078C224.3 548.659 232.763 546.935 241.226 545.21C250.949 543.229 260.671 541.248 270.696 541.248C274.546 541.248 276.546 544.728 275.976 548.168C275.249 552.488 274.526 556.822 273.806 561.168C305.691 554.525 336.376 543.06 364.806 527.168C368.066 525.348 373.386 527.578 372.936 531.828C372.936 531.96 372.916 532.097 372.896 532.232C372.885 532.311 372.873 532.39 372.866 532.468C392.091 519.093 409.856 503.732 425.866 486.638C429.406 482.858 436.666 486.758 434.866 491.858C434.065 494.085 433.27 496.312 432.474 498.538C431.68 500.762 430.885 502.985 430.086 505.208C450.622 479.407 466.134 449.981 475.816 418.458C477.256 413.728 485.526 412.788 486.376 418.458C487.357 425.086 487.978 431.763 488.236 438.458C498.393 399.674 497.885 358.867 486.766 320.348C485.366 315.498 490.676 312.258 494.766 314.208C504.065 318.616 512.024 325.419 517.826 333.918C517.432 307.646 513.907 281.515 507.326 256.078C506.93 254.613 506.534 253.125 506.134 251.621L506.134 251.62C502.269 237.101 498 221.06 489.256 209.008ZM84.7251 275.008C82.5839 279.536 79.5435 283.716 76.512 287.883C74.4891 290.663 72.4701 293.439 70.7251 296.308C70.288 297.016 69.4774 297.403 68.6522 297.297C67.827 297.192 67.1398 296.613 66.8951 295.818C62.7251 278.428 65.4351 260.528 75.8051 245.818C75.9881 245.55 76.3471 245.468 76.6281 245.631C76.909 245.794 77.0168 246.146 76.8751 246.438C69.8751 260.088 67.1951 274.728 69.8751 289.608C73.5151 283.608 77.7451 277.438 83.3751 273.608C84.2551 273.008 85.1051 274.178 84.7251 275.018V275.008ZM277.934 79.2583C258.288 74.8958 237.877 82.1386 225.375 97.9084V97.9184C224.165 99.4284 225.235 102.248 227.465 101.488C233.764 99.3812 240.15 98.2118 246.526 97.0442L246.526 97.0442C251.648 96.1062 256.764 95.1694 261.824 93.7484C262.764 93.4784 262.914 91.8584 261.824 91.6884C252.794 90.3083 243.045 92.2784 234.045 94.9284C245.838 84.061 261.803 78.911 277.724 80.8383C278.624 80.9583 278.824 79.4383 277.934 79.2583ZM105.865 160.408C111.285 147.568 120.605 137.138 133.265 131.168C133.58 130.983 133.985 131.088 134.17 131.403C134.355 131.718 134.25 132.123 133.935 132.308C124.637 138.277 116.959 146.453 111.585 156.108C116.355 152.698 121.425 149.348 126.825 147.678C127.19 147.585 127.572 147.745 127.761 148.071C127.949 148.397 127.898 148.809 127.635 149.078C123.931 152.592 119.416 155.42 114.952 158.216L114.951 158.216L114.951 158.216C112.618 159.678 110.298 161.131 108.115 162.668C106.595 163.748 105.305 161.738 105.865 160.408ZM137.507 451.585C138.198 451.298 138.658 450.635 138.685 449.888C139.635 441.008 139.615 431.418 136.575 422.898C136.005 421.328 133.115 421.388 133.365 423.328C133.431 423.849 133.498 424.369 133.564 424.886C134.487 432.092 135.366 438.955 135.105 446.158C125.455 437.888 120.185 427.658 114.985 415.978C114.792 415.677 114.425 415.535 114.08 415.629C113.734 415.723 113.489 416.03 113.475 416.388C115.155 430.218 124.805 442.858 135.475 451.218C136.022 451.728 136.817 451.871 137.507 451.585ZM322.345 495.178C318.825 502.938 307.965 505.438 300.345 504.268C299.115 504.078 298.925 502.618 299.345 501.718C302.183 494.874 305.908 488.432 310.425 482.558C310.975 481.848 311.965 482.758 311.605 483.478C308.685 489.258 305.865 495.088 303.365 501.068C306.326 501.181 309.274 500.631 311.995 499.458C314.366 498.436 316.185 496.898 318.055 495.318C318.763 494.719 319.479 494.114 320.235 493.528C320.731 493.115 321.448 493.104 321.956 493.501C322.465 493.899 322.627 494.597 322.345 495.178ZM109.445 318.118C114.445 373.378 151.145 424.728 201.445 448.238C261.295 476.178 336.175 463.418 378.145 410.598C422.105 355.298 421.565 274.938 395.335 211.938C382.495 181.088 353.245 160.588 323.245 147.988C289.745 133.938 253.585 134.218 219.095 144.658C182.945 155.598 145.675 173.728 127.095 208.168C109.535 240.728 101.345 281.628 109.445 318.118ZM440.445 388.088C436.445 402.228 425.815 414.248 414.355 422.958C413.795 423.282 413.117 423.33 412.517 423.087C411.918 422.845 411.463 422.34 411.285 421.718C409.894 415.791 411.41 411.06 413.194 405.497C413.333 405.063 413.474 404.624 413.615 404.178C416.389 395.477 417.881 386.419 418.045 377.288C418.104 376.617 418.666 376.102 419.34 376.102C420.014 376.102 420.576 376.617 420.635 377.288C420.815 383.427 420.436 389.568 419.505 395.638C419.083 398.176 418.278 400.873 417.456 403.631C416.116 408.121 414.729 412.772 414.865 417.158C424.745 408.558 431.085 398.458 437.585 386.878C438.009 386.263 438.808 386.032 439.495 386.326C440.182 386.619 440.567 387.357 440.415 388.088H440.445ZM424.683 194.576C431.892 199.609 438.608 204.298 444.375 211.868H444.345C445.745 213.718 449.245 212.778 448.415 210.178C443.114 192.802 432.439 177.555 417.925 166.628C417.375 166.258 416.695 167.168 417.195 167.628C426.94 176.676 434.713 187.638 440.025 199.828C434.205 193.918 427.215 188.848 419.625 187.088C418.817 186.824 417.94 187.225 417.613 188.01C417.286 188.796 417.618 189.701 418.375 190.088C420.511 191.663 422.617 193.134 424.683 194.576Z" fill="#8DC63F"/>
<path fill-rule="evenodd" clip-rule="evenodd" d="M394.256 246.518C398.502 262.871 400.966 279.635 401.606 296.518C402.606 327.618 396.406 359.018 380.745 386.178C349.765 440.038 284.335 463.518 225.485 445.518C163.775 426.688 125.774 371.278 118.774 309.688C118.724 308.268 118.671 306.847 118.618 305.426C118.215 294.617 117.811 283.808 118.774 272.998C119.632 263.455 121.901 254.448 124.195 245.338C125.11 241.705 126.029 238.055 126.864 234.348C127.023 233.651 126.963 232.921 126.694 232.258C128.074 228.788 129.544 225.358 131.144 221.998C137.685 208.158 146.405 195.418 158.405 185.758C171.365 175.298 187.195 167.948 202.575 161.828C233.835 149.378 268.075 143.308 301.075 152.378C328.955 160.058 361.615 177.568 377.615 202.568C386.046 215.718 390.446 231.518 394.256 246.518ZM218.654 431.728C260.484 445.608 308.354 433.848 335.484 398.108C350.304 378.578 354.414 355.238 353.124 331.158C351.854 306.098 347.524 280.868 332.124 260.378C303.134 221.818 251.514 210.288 206.514 223.618C193.654 227.428 180.074 232.788 169.564 241.308C159.504 249.468 153.394 260.868 148.814 272.778C141.93 290.689 138.825 309.83 139.694 328.998C139.464 340.398 139.584 352.168 142.694 363.168C145.914 374.528 152.484 384.338 160.254 393.098C176.021 410.845 196.154 424.162 218.654 431.728Z" fill="#88E0FF"/>
<path fill-rule="evenodd" clip-rule="evenodd" d="M196.352 237.228C236.212 221.978 284.212 226.008 315.212 257.448C330.462 272.918 337.852 292.448 340.562 313.838C343.352 335.908 344.322 360.028 333.772 380.318C315.822 414.838 275.112 431.938 237.552 425.368C214.822 421.388 193.532 410.168 176.632 394.568C167.522 386.128 158.652 376.308 154.152 364.568C149.601 352.67 149.174 339.924 148.753 327.375C148.733 326.772 148.713 326.17 148.692 325.568C148.67 325.159 148.603 324.753 148.492 324.358C148.534 311.693 150.324 299.094 153.812 286.918C156.592 277.308 160.232 267.598 165.812 259.228C173.132 248.228 184.272 241.848 196.352 237.228ZM275.612 391.678C294.042 401.798 312.972 391.088 320.332 373.178C324.422 363.178 326.892 352.088 320.102 342.748C316.792 338.433 312.851 334.64 308.412 331.498C308.42 331.471 308.432 331.445 308.444 331.42C308.463 331.38 308.482 331.341 308.482 331.298C313.152 314.678 304.322 292.638 291.482 281.728C279.062 271.178 259.202 268.868 243.122 271.058C238.602 260.608 231.382 248.368 221.122 243.058C209.882 237.218 196.322 241.058 186.622 248.058C167.612 261.738 149.982 285.368 166.982 307.368C172.075 313.737 178.786 318.621 186.412 321.508C185.572 328.588 187.812 336.948 189.882 343.088C192.768 352.06 197.765 360.208 204.452 366.848C219.542 381.328 244.042 384.708 264.042 381.658C264.218 381.63 264.392 381.59 264.562 381.538C267.384 385.751 271.173 389.228 275.612 391.678Z" fill="#00AEEF"/>
<path d="M294.354 333.318C283.934 330.418 272.534 344.448 269.954 354.118C266.774 366.118 272.764 380.438 285.334 383.868C300.194 387.928 309.634 375.078 312.704 362.148C316.024 348.178 303.694 341.308 294.354 333.318Z" fill="white"/>
<path d="M209.642 250.718C199.972 249.948 191.802 256.038 185.322 262.528C179.322 268.528 170.472 276.648 169.642 285.608C168.852 294.098 174.332 302.018 180.712 307.038C191.052 315.188 203.302 316.168 215.362 314.038C216.175 312.905 217.435 312.177 218.822 312.038C242.152 309.918 238.292 283.418 229.932 268.818C225.322 260.718 219.762 251.528 209.642 250.718Z" fill="white"/>
<path fill-rule="evenodd" clip-rule="evenodd" d="M486.983 191.788C492.444 195.989 497.094 201.15 500.703 207.018C509.092 220.859 513.511 237.661 517.596 253.193L517.613 253.258C526.84 288.731 530.347 325.45 528.003 362.028C527.553 369.148 517.853 368.918 517.103 362.028C515.753 350.026 509.873 338.992 500.663 331.178C512.172 381.988 506.365 435.188 484.163 482.318C481.263 488.478 472.513 483.868 473.763 477.928C475.96 467.494 477.138 456.87 477.283 446.208C463.75 478.998 444 508.86 419.123 534.148C415.493 537.858 408.113 534.108 410.033 528.858C411.472 524.927 412.894 520.987 414.315 517.047C415.027 515.074 415.739 513.1 416.453 511.128C401.747 524.815 385.877 537.195 369.023 548.128C365.813 550.208 360.453 547.528 360.893 543.458L361.103 541.458C332.006 556.642 300.811 567.41 268.543 573.408C264.203 574.208 261.093 570.948 261.813 566.668L264.183 552.538C256.349 553.13 248.637 554.669 240.926 556.208C230.645 558.26 220.364 560.312 209.793 560.118C195.652 559.814 181.735 556.526 168.953 550.468C164.163 549.734 159.867 547.112 157.023 543.188C156.001 541.842 155.849 540.026 156.633 538.528C154.199 537.972 151.746 537.459 149.295 536.947C133.491 533.643 117.807 530.365 108.283 515.768C107.148 513.742 107.473 511.212 109.083 509.538C89.1133 494.928 72.2333 474.828 63.2333 452.018C63.44 453.825 63.7033 455.638 64.0233 457.458C64.8333 462.198 59.2333 466.458 55.3633 462.458C28.7533 434.858 20.3933 395.998 22.2633 358.458C19.9996 364.695 18.2504 371.106 17.0333 377.628C16.0233 382.968 9.02332 381.708 7.43332 377.628C-9.40668 334.488 5.07332 290.458 23.9633 250.628C20.3399 253.77 16.8914 257.109 13.6333 260.628C10.2033 264.348 5.19332 260.308 5.89332 256.118C11.9233 219.578 31.9033 188.668 54.5233 159.998C51.1233 162.298 46.9433 158.488 47.8733 154.878C52.4233 136.978 65.4333 124.018 78.8733 112.128C89.6233 102.648 100.453 93.3682 111.623 84.4582L107.753 85.8582C102.933 87.6082 100.143 81.1482 103.093 77.8582C128.003 50.0182 163.353 33.8482 200.093 31.7582C195.027 29.6448 189.963 27.5248 184.903 25.3982C181.013 23.7582 180.113 17.8382 184.903 16.5382C187.9 15.7236 190.892 14.8982 193.884 14.073C214.068 8.50617 234.212 2.95059 255.113 0.808163C277.913 -1.50184 300.563 1.33816 322.723 6.80816C366.724 17.8699 408.438 36.5778 445.963 62.0782C449.983 64.7882 448.863 72.1882 443.303 71.8682C431.39 71.1815 419.473 70.4882 407.553 69.7882C454.253 101.478 493.993 143.328 519.893 193.788C521.059 195.929 520.675 198.582 518.951 200.306C517.228 202.03 514.575 202.413 512.433 201.248C503.004 196.121 493.113 191.889 482.893 188.608C483.528 189.106 484.166 189.6 484.807 190.095C485.531 190.654 486.257 191.216 486.983 191.788ZM486.642 320.388C485.252 315.538 490.562 312.298 494.642 314.248C503.973 318.63 511.967 325.42 517.802 333.918C517.408 307.646 513.883 281.515 507.302 256.078C506.992 254.9 506.681 253.708 506.368 252.505C502.515 237.722 498.226 221.267 489.302 208.968C486.041 204.467 481.719 201.041 477.415 197.629C471.689 193.09 465.995 188.576 462.872 181.588C460.872 177.308 464.022 172.728 468.872 173.728C480.265 176.113 491.395 179.613 502.102 184.178C473.872 136.178 433.272 96.6881 385.472 67.9181C381.232 65.3781 382.782 57.9381 388.092 58.2381C399.899 58.9048 411.712 59.5715 423.532 60.2381C392.245 41.3114 358.413 26.953 323.063 17.5982C300.763 11.7182 278.173 8.57816 255.113 10.6682C236.513 12.3282 218.273 16.6182 200.273 21.6682C209.639 25.3748 218.989 29.1315 228.323 32.9382C234.183 35.3482 231.963 43.2581 225.733 42.3481C190.343 37.1781 154.393 47.4981 126.573 69.1781L134.363 66.4681C140.033 64.4981 142.363 73.3881 136.833 75.3881L133.693 76.5281C126.478 82.8603 119.196 89.1054 111.916 95.3502C104.191 101.975 96.4675 108.6 88.8231 115.328L88.3417 115.751C78.7473 124.171 68.744 132.951 62.2232 143.878L75.2232 135.078C79.7831 131.988 83.7631 138.518 80.7031 142.178C55.2332 172.568 29.1033 204.768 18.1933 243.368C23.2517 239.021 28.6192 235.047 34.2533 231.478C38.4132 228.848 42.6132 233.918 40.6132 237.848C21.8633 274.728 3.44334 316.548 11.9133 357.958C15.3868 348.091 20.0584 338.687 25.8233 329.958C29.0133 325.098 35.4533 328.428 34.6833 333.688C29.2233 370.808 31.8233 410.828 52.6832 442.318C52.6053 432.207 53.8082 422.127 56.2632 412.318C57.5332 407.188 65.1732 408.468 65.2632 413.538C65.6532 434.968 73.4832 455.298 86.2631 472.388C98.2084 488.361 113.858 499.713 129.742 511.235C131.091 512.214 132.442 513.194 133.793 514.178C135.187 515.12 135.949 516.753 135.775 518.427C135.602 520.1 134.521 521.542 132.963 522.178C138.137 523.938 143.435 525.312 148.813 526.288C149.63 526.454 150.446 526.619 151.261 526.784C162.054 528.964 172.69 531.112 182.443 536.468C185.633 538.228 185.563 542.188 183.563 544.718C193.848 548.137 204.676 549.628 215.503 549.118C224.167 548.699 232.631 546.974 241.093 545.25C250.816 543.269 260.538 541.288 270.563 541.288C274.413 541.288 276.413 544.768 275.843 548.208C275.116 552.555 274.393 556.888 273.673 561.208C305.557 554.565 336.243 543.1 364.672 527.208C367.932 525.388 373.252 527.618 372.802 531.868C372.732 532.078 372.732 532.298 372.732 532.508C391.958 519.133 409.722 503.771 425.732 486.678C429.312 482.898 436.572 486.798 434.732 491.898C433.932 494.123 433.137 496.348 432.342 498.573C431.547 500.798 430.752 503.023 429.952 505.248C450.488 479.447 466 450.021 475.682 418.498C477.122 413.768 485.392 412.828 486.242 418.498C487.223 425.126 487.844 431.803 488.102 438.498C498.262 399.715 497.758 358.908 486.642 320.388Z" fill="#231F20"/>
<path fill-rule="evenodd" clip-rule="evenodd" d="M308.441 331.418C308.441 331.375 308.46 331.336 308.479 331.296C308.491 331.271 308.504 331.245 308.511 331.218C313.181 314.598 304.351 292.558 291.511 281.648C279.091 271.098 259.231 268.788 243.151 270.978C238.601 260.548 231.381 248.308 221.151 242.978C209.911 237.148 196.351 240.978 186.651 247.978C167.651 261.658 149.961 285.308 167.011 307.288C172.104 313.657 178.815 318.541 186.441 321.428C185.601 328.508 187.841 336.868 189.911 343.008C192.797 351.98 197.794 360.128 204.481 366.768C219.571 381.248 244.061 384.628 264.071 381.578C264.247 381.55 264.421 381.51 264.591 381.458C267.413 385.671 271.202 389.148 275.641 391.598C294.071 401.718 313.001 391.008 320.361 373.098C324.451 363.098 326.921 352.098 320.121 342.718C316.818 338.386 312.881 334.576 308.441 331.418ZM218.821 311.988C217.434 312.126 216.174 312.855 215.361 313.988C203.301 316.158 191.051 315.178 180.711 306.988C174.331 301.988 168.851 294.048 169.641 285.558C170.407 277.254 177.974 269.76 183.877 263.914L183.877 263.913C184.372 263.423 184.855 262.944 185.321 262.478C191.801 255.988 199.971 249.898 209.641 250.668C219.761 251.478 225.321 260.668 229.931 268.668C238.291 283.368 242.151 309.868 218.821 311.988ZM285.331 383.898C300.191 387.958 309.631 375.108 312.701 362.178C315.522 350.285 307.048 343.537 298.708 336.896C297.23 335.719 295.757 334.546 294.351 333.348C283.951 330.448 272.531 344.478 269.951 354.148C266.771 366.128 272.761 380.468 285.331 383.898Z" fill="#231F20"/>
<path fill-rule="evenodd" clip-rule="evenodd" d="M206.553 223.618C251.553 210.288 303.164 221.818 332.164 260.378C347.564 280.868 351.894 306.098 353.214 331.158C354.454 355.238 350.344 378.578 335.524 398.108C308.394 433.848 260.513 445.608 218.693 431.728C196.192 424.162 176.06 410.845 160.293 393.098C152.523 384.338 145.953 374.528 142.733 363.168C139.583 352.158 139.463 340.398 139.733 328.998C138.863 309.83 141.968 290.689 148.853 272.778C153.433 260.868 159.543 249.468 169.603 241.308C180.113 232.788 193.693 227.428 206.553 223.618ZM237.533 425.298C275.093 431.868 315.803 414.768 333.753 380.248C344.303 359.958 343.333 335.838 340.523 313.698C337.833 292.378 330.443 272.848 315.193 257.378C284.193 225.938 236.203 221.908 196.333 237.158C184.253 241.808 173.113 248.158 165.793 259.158C160.233 267.528 156.593 277.238 153.793 286.848C150.305 299.024 148.515 311.623 148.473 324.288C148.584 324.683 148.651 325.089 148.673 325.498C148.696 326.15 148.718 326.803 148.74 327.456C149.167 339.975 149.599 352.665 154.133 364.498C158.613 376.258 167.503 386.078 176.613 394.498C193.533 410.098 214.803 421.298 237.533 425.298Z" fill="#231F20"/>
<path fill-rule="evenodd" clip-rule="evenodd" d="M323.263 147.988C353.303 160.588 382.513 181.088 395.353 211.938C421.583 274.968 422.103 355.298 378.173 410.648C336.183 463.468 261.303 476.288 201.453 448.288C151.103 424.778 114.453 373.428 109.453 318.168C101.353 281.628 109.543 240.728 127.103 208.168C145.713 173.728 182.983 155.598 219.103 144.658C253.603 134.178 289.763 133.938 323.263 147.988ZM118.813 309.668C125.813 371.258 163.833 426.628 225.523 445.498C284.373 463.488 349.803 440.018 380.823 386.138C396.443 358.998 402.643 327.598 401.643 296.498C401.004 279.615 398.539 262.851 394.293 246.498C390.483 231.488 386.083 215.698 377.653 202.548C361.653 177.588 328.993 160.038 301.113 152.358C268.133 143.288 233.873 149.368 202.613 161.808C187.233 167.928 171.443 175.278 158.443 185.738C146.453 195.398 137.723 208.138 131.183 221.978C129.583 225.338 128.113 228.768 126.733 232.238C127.002 232.901 127.061 233.631 126.903 234.328C126.071 238.011 125.157 241.642 124.246 245.257C121.948 254.383 119.672 263.416 118.813 272.978C117.791 284.035 118.233 295.091 118.674 306.148C118.721 307.321 118.768 308.495 118.813 309.668Z" fill="#231F20"/>
<path d="M417.904 166.718C417.354 166.298 416.674 167.208 417.174 167.718C426.919 176.766 434.691 187.728 440.003 199.918C434.184 194.008 427.194 188.918 419.604 187.178C418.796 186.914 417.92 187.315 417.592 188.1C417.265 188.886 417.597 189.791 418.354 190.178C427.934 197.248 436.924 202.178 444.353 211.958C445.753 213.808 449.253 212.868 448.423 210.248C443.11 192.875 432.425 177.635 417.904 166.718Z" fill="#231F20"/>
<path d="M227.462 101.498C238.782 97.698 250.462 96.9481 261.821 93.7581C262.761 93.4881 262.911 91.8681 261.821 91.6981C252.821 90.3181 243.072 92.2881 234.042 94.9381C245.835 84.0709 261.8 78.9209 277.721 80.8482C278.621 80.9682 278.821 79.4482 277.931 79.2682C258.285 74.9058 237.874 82.1485 225.372 97.918C224.162 99.428 225.232 102.248 227.462 101.498Z" fill="#231F20"/>
<path d="M108.102 162.668C114.462 158.188 121.982 154.428 127.622 149.078C127.885 148.809 127.936 148.397 127.747 148.071C127.559 147.745 127.177 147.585 126.812 147.678C121.412 149.348 116.342 152.678 111.572 156.108C116.945 146.453 124.623 138.277 133.922 132.308C134.237 132.123 134.342 131.718 134.157 131.403C133.972 131.088 133.567 130.983 133.252 131.168C120.592 137.168 111.252 147.568 105.852 160.408C105.302 161.738 106.592 163.748 108.102 162.668Z" fill="#231F20"/>
<path d="M83.3427 273.628C77.7127 277.448 73.4827 283.628 69.8427 289.628C67.2027 274.748 69.8427 260.108 76.8427 246.458C76.9844 246.166 76.8767 245.814 76.5957 245.651C76.3147 245.488 75.9557 245.57 75.7727 245.838C65.4027 260.548 62.6927 278.448 66.8627 295.838C67.1075 296.633 67.7946 297.212 68.6198 297.317C69.445 297.423 70.2556 297.036 70.6927 296.328C75.0427 289.158 81.1127 282.578 84.6927 275.028C85.1027 274.178 84.2527 273.008 83.3427 273.628Z" fill="#231F20"/>
<path d="M133.413 423.328C134.413 431.108 135.413 438.438 135.153 446.158C125.503 437.888 120.233 427.658 115.033 415.978C114.84 415.676 114.474 415.535 114.128 415.629C113.782 415.723 113.537 416.03 113.523 416.388C115.153 430.238 124.803 442.858 135.523 451.218C136.071 451.727 136.865 451.871 137.556 451.584C138.247 451.298 138.707 450.635 138.733 449.888C139.683 441.008 139.663 431.418 136.673 422.888C136.103 421.288 133.163 421.388 133.413 423.328Z" fill="#231F20"/>
<path d="M320.203 493.528C317.453 495.658 315.203 498.048 311.963 499.458C309.242 500.631 306.294 501.181 303.333 501.068C305.833 495.068 308.653 489.258 311.573 483.478C311.933 482.758 310.943 481.848 310.393 482.558C305.876 488.431 302.151 494.873 299.313 501.718C298.933 502.618 299.123 504.078 300.313 504.268C307.923 505.438 318.783 502.938 322.313 495.178C322.595 494.597 322.433 493.899 321.924 493.501C321.416 493.103 320.699 493.115 320.203 493.528Z" fill="#231F20"/>
<path d="M437.553 386.878C431.053 398.458 424.713 408.558 414.833 417.158C414.613 410.078 418.363 402.308 419.473 395.638C420.405 389.568 420.783 383.426 420.603 377.288C420.544 376.617 419.982 376.102 419.308 376.102C418.635 376.102 418.072 376.617 418.013 377.288C417.85 386.419 416.357 395.477 413.583 404.178C411.583 410.328 409.753 415.328 411.253 421.718C411.431 422.34 411.886 422.845 412.486 423.087C413.086 423.33 413.763 423.282 414.323 422.958C425.783 414.248 436.433 402.228 440.413 388.088C440.607 387.335 440.221 386.554 439.505 386.251C438.789 385.948 437.959 386.215 437.553 386.878Z" fill="#231F20"/>
</svg>
