<svg width="270" height="579" viewBox="0 0 270 579" fill="none" xmlns="http://www.w3.org/2000/svg">
<path d="M100.417 292.34C99.6857 289.947 99.2327 287.477 99.0668 284.98C94.6368 286.8 89.6268 287.04 84.9868 288.1C79.9868 289.25 74.8068 291.15 69.6868 291.38C68.5355 291.452 67.4716 290.766 67.063 289.687C66.6545 288.608 66.9966 287.389 67.9068 286.68C71.8468 283.48 77.3868 281.83 82.2868 280.68C87.5668 279.48 93.4468 278.04 98.8168 279.31C98.8168 278.51 98.8168 277.73 98.8168 276.99C98.8168 276.07 98.8168 275.13 98.8168 274.19C93.5568 271.13 85.3768 271.34 79.8168 271.03C72.2268 270.59 63.2968 272.45 55.9968 270.21C54.3568 269.7 53.2668 267.35 55.0768 266.21C63.5168 260.96 76.8768 262.86 86.2868 264.38C89.6168 264.92 95.9868 265.74 99.7068 268.38C99.9286 267.579 100.213 266.797 100.557 266.04C100.395 265.71 100.29 265.355 100.247 264.99C93.1568 261.36 86.4868 257.12 78.9868 254.27C70.6407 251.13 61.8956 249.174 53.0068 248.46C45.3464 247.817 37.6344 248.204 30.0768 249.61C25.2168 250.53 21.5868 252.06 20.8268 257.39C20.2768 261.26 20.6368 265.39 20.7768 269.27C21.3868 285.88 23.1068 304.1 29.3568 319.65C32.0068 326.22 36.4268 332.8 43.9168 334.06C52.3568 335.48 60.8468 330.43 67.5568 325.96C81.0668 316.96 90.5568 305.38 100.207 292.58C100.267 292.49 100.347 292.42 100.417 292.34Z" fill="#BE1E2D"/>
<path d="M54.0064 149.151C53.5148 152.409 53.3207 155.706 53.4264 159.001C53.9364 159.331 54.4264 159.651 55.0064 159.941C57.5898 161.223 60.4066 161.968 63.2864 162.131C67.1166 162.251 70.9461 161.868 74.6764 160.991C76.9164 160.531 79.1964 159.851 81.4864 159.421C81.7802 156.104 82.8047 152.894 84.4864 150.021C86.1986 147.05 88.4466 144.422 91.1164 142.271C86.1164 140.531 82.1964 134.801 79.7864 130.631C76.8964 125.631 73.6964 119.931 72.8664 114.021C62.7889 123.261 56.1406 135.645 54.0064 149.151Z" fill="#FFF200"/>
<path d="M69.7666 188.82C72.3166 187.98 74.2066 186.31 76.2166 184.63C80.1066 181.37 83.8866 178.68 86.0666 174.28C82.9209 170.586 81.2695 165.85 81.4366 161C78.5866 161.82 75.5566 162.34 72.7466 162.87C68.9491 163.679 65.0475 163.881 61.1866 163.47C58.5267 163.081 55.949 162.257 53.5566 161.03C54.1511 171.469 58.1004 181.437 64.8166 189.45C66.4908 189.533 68.1665 189.32 69.7666 188.82Z" fill="#8DC63F"/>
<path d="M95.5179 204.45C95.5797 204.431 95.6461 204.431 95.7079 204.45C99.4246 204.536 103.133 204.06 106.708 203.04C106.708 201.82 106.598 200.6 106.488 199.41C106.228 196.81 105.908 194.22 105.418 191.65C104.533 187.079 102.73 182.735 100.118 178.88C95.5321 180.043 90.6708 178.766 87.2479 175.5C85.2979 179.99 80.3279 183.19 76.8079 186.18C73.8779 188.68 70.1679 190.9 66.3379 191.18C69.5366 194.54 73.2497 197.369 77.3379 199.56C82.9352 202.582 89.1601 204.256 95.5179 204.45Z" fill="#00AEEF"/>
<path d="M74.4063 112.64C75.6089 118.501 77.8001 124.115 80.8863 129.24C82.406 132.13 84.3099 134.801 86.5463 137.18C88.3381 138.842 90.4101 140.172 92.6663 141.11C97.6144 137.756 103.528 136.122 109.496 136.46C107.226 127.74 108.976 118.02 112.416 109.89C114.356 105.31 117.026 101.06 121.046 98.0302C121.939 97.3697 122.867 96.7588 123.826 96.2002C105.81 94.7912 87.9884 100.72 74.4062 112.64H74.4063Z" fill="#00AEEF"/>
<path d="M153.358 251.921C152.678 250.041 151.988 248.171 151.238 246.311C150.351 244.033 149.305 241.821 148.108 239.691C147.578 238.781 146.988 237.931 146.428 237.061C144.148 237.921 141.848 238.731 139.548 239.471C133.548 241.401 127.458 243.151 121.258 244.571C121.848 246.501 122.258 248.491 122.728 250.351C123.594 253.978 124.262 257.65 124.728 261.351C126.906 262.727 128.754 264.567 130.138 266.741C130.348 267.081 130.538 267.431 130.738 267.741C137.278 262.311 146.228 258.881 154.528 256.011C154.128 254.691 153.838 253.241 153.358 251.921Z" fill="#00AEEF"/>
<path d="M142.778 101C137.604 98.7505 132.141 97.2358 126.548 96.5005C125.056 97.204 123.63 98.0407 122.288 99.0005C118.288 101.9 115.688 106 113.778 110.53C110.157 118.694 109.182 127.785 110.988 136.53C120.188 137.449 128.53 142.33 133.838 149.9C134.108 150.29 134.358 150.68 134.608 151.07C139.058 144.19 147.898 139.42 155.078 137.07C162.265 134.746 169.9 134.157 177.358 135.35C170.553 119.965 158.208 107.703 142.778 101Z" fill="#8DC63F"/>
<path d="M115.268 302.79C118.038 321.37 119.148 340.25 120.808 358.94L126.058 418.08C129.238 453.86 132.408 489.637 135.568 525.41L138.088 553.89C138.448 557.89 138.418 562.16 139.218 566.09C139.898 569.46 141.688 572.21 142.758 567.15C143.638 562.95 142.138 557 141.858 552.7C141.578 548.4 141.288 543.97 140.968 539.61C140.301 530.89 139.664 522.17 139.058 513.45C133.904 442.937 128.734 372.434 123.548 301.94C120.834 302.566 118.052 302.852 115.268 302.79Z" fill="#F2B879"/>
<path d="M125.567 292.42C129.517 289.49 126.457 275.74 124.277 271.66C120.277 264.23 114.067 266.1 107.657 267.31C107.517 269.43 107.117 271.57 107.057 273.7C107.006 277.595 107.267 281.487 107.837 285.34C108.407 289.72 109.317 293.57 114.237 294.34C117.127 294.84 123.067 294.24 125.567 292.42Z" fill="#BE1E2D"/>
<path d="M98.3772 238.73C98.3272 236.55 99.0272 234.37 99.3772 232.22C99.8217 229.121 99.9424 225.985 99.7372 222.86C99.5283 219.575 98.9752 216.321 98.0872 213.15L97.9972 212.89C87.8778 212.989 77.9599 210.06 69.5172 204.48C69.3034 205.932 68.9689 207.364 68.5172 208.76C67.2491 211.995 65.4772 215.009 63.2672 217.69C60.6672 221.18 56.6172 226.47 51.8672 228.2C55.4253 230.621 59.2057 232.697 63.1572 234.4C74.2872 239.18 86.3672 239.94 98.3772 238.73Z" fill="#00AEEF"/>
<path d="M126.126 233.24C130.126 232.15 134.306 230.93 138.426 229.51C137.584 224.378 136.199 219.35 134.296 214.51C132.296 209.75 129.986 204.91 126.236 201.36C125.019 202.532 123.733 203.63 122.386 204.65C115.824 209.588 107.938 212.457 99.7363 212.89C100.562 215.97 101.094 219.121 101.326 222.3C101.726 227.46 101.566 233.59 99.8063 238.65C108.703 237.509 117.501 235.701 126.126 233.24Z" fill="#8DC63F"/>
<path d="M171.458 222.93C164.384 228.724 156.404 233.312 147.838 236.51C150.018 239.17 151.498 242.79 152.708 245.75C153.818 248.45 155.848 252.21 156.158 255.5L159.658 254.31C168.658 251.24 179.048 247.07 188.718 247.48C191.995 247.55 195.201 248.448 198.038 250.09C198.262 249.869 198.503 249.665 198.758 249.48L199.048 249.28C199.043 249.264 199.043 249.247 199.048 249.23C198.443 247.342 197.732 245.489 196.918 243.68C195.169 239.811 193.038 236.126 190.558 232.68C186.658 227.23 182.158 221.58 176.248 218.32C174.743 219.95 173.144 221.489 171.458 222.93Z" fill="#8DC63F"/>
<path d="M162.098 185.1C158.127 182.462 153.681 180.622 149.008 179.68C146.538 179.178 144.017 178.963 141.498 179.04C140.688 179.04 139.858 179.18 139.028 179.28C137.094 187.127 133.087 194.311 127.428 200.08C131.168 203.08 133.508 208.44 135.278 212.44C137.657 217.659 139.276 223.192 140.088 228.87C154.448 223.7 168.238 215.95 175.868 202.49C176.158 201.97 176.418 201.42 176.698 200.89C175.165 198.432 173.495 196.062 171.698 193.79C168.926 190.453 165.694 187.527 162.098 185.1Z" fill="#FFF200"/>
<path d="M122.948 260.39C122.488 256.99 121.888 253.62 121.108 250.29C120.688 248.51 120.108 246.73 119.558 244.94C113.809 246.234 107.989 247.185 102.128 247.79C96.3861 248.402 90.6063 248.579 84.8379 248.32C91.9151 251.256 98.3646 255.519 103.838 260.88C109.786 257.758 116.847 257.577 122.948 260.39Z" fill="#FFF200"/>
<path d="M89.0064 157.24C87.9364 161.54 88.8764 166.61 92.1964 169.71C94.2864 171.66 96.9564 172.47 99.5864 170.94C100.611 170.331 101.446 169.448 101.996 168.39C101.996 168.39 103.156 163.39 101.176 164.97C97.5664 167.77 93.6464 162.16 97.0564 159.29C99.8464 156.94 102.586 156.98 104.796 158.29C105.076 152.12 110.796 146.66 117.006 145.14C114.989 144.147 112.83 143.472 110.606 143.14C101.256 141.84 91.3164 147.89 89.0064 157.24Z" fill="#8DC63F"/>
<path d="M108.057 199.241C108.157 200.301 108.287 201.391 108.407 202.491C119.458 198.638 127.947 189.653 131.167 178.401C128.167 175.401 125.397 172.511 121.337 170.701C117.608 169.018 113.429 168.614 109.447 169.551C109.317 170.215 109.112 170.862 108.837 171.481C107.401 174.685 104.749 177.185 101.467 178.431C104.307 181.581 105.797 186.111 106.697 190.091C107.335 193.11 107.789 196.166 108.057 199.241Z" fill="#00AEEF"/>
<path d="M185.487 255.92C176.127 256.56 166.257 260.11 157.407 263.05C149.267 265.75 140.947 269.84 132.507 271.56C133.109 273.131 133.59 274.746 133.947 276.39C140.317 271.95 151.347 270.59 157.207 273.33C159.257 274.33 159.457 277.84 157.037 278.52C152.717 279.74 148.037 279.25 143.597 279.98C140.727 280.45 137.777 281.48 134.837 281.92C134.837 282.1 134.887 282.28 134.897 282.46C135.017 283.8 135.157 285.29 135.227 286.84C138.166 286.213 141.175 285.975 144.177 286.13C151.727 287.13 163.637 291.76 165.947 299.84C166.359 301.021 166.036 302.335 165.123 303.189C164.21 304.044 162.878 304.28 161.727 303.79C156.607 301.87 152.727 297.32 147.517 295.2C143.49 293.66 139.314 292.541 135.057 291.86C134.843 294.067 133.937 296.15 132.467 297.81C137.502 304.45 143.283 310.49 149.697 315.81C156.237 321.37 163.197 327.47 170.617 331.81C174.813 334.272 179.729 335.212 184.537 334.47C188.147 334.02 194.537 333.3 197.537 331.15C200.267 329.23 199.537 322.79 199.827 319.52C200.227 314.634 200.54 309.74 200.767 304.84C201.237 294.62 201.657 284.13 200.867 273.92C200.167 264.5 196.447 255.17 185.487 255.92Z" fill="#BE1E2D"/>
<path d="M109.627 167.76C117.337 165.76 126.557 170.4 131.627 176.39C132.756 171.367 132.486 166.131 130.847 161.25C128.758 155.199 124.73 150.007 119.387 146.48C112.637 147.73 106.387 152.41 106.117 159.3C108.372 161.537 109.636 164.584 109.627 167.76Z" fill="#FFF200"/>
<path d="M179.228 140.241C178.938 139.381 178.618 138.541 178.298 137.691C170.939 136.146 163.311 136.466 156.108 138.621C147.928 141.131 140.468 145.781 135.598 152.721C139.824 160.233 141.191 169.019 139.448 177.461C142.594 177.149 145.77 177.314 148.868 177.951C153.626 178.811 158.175 180.576 162.268 183.151C166.137 185.596 169.619 188.606 172.598 192.081C174.498 194.186 176.227 196.44 177.768 198.821C186.008 181.241 185.218 158.151 179.228 140.241Z" fill="#00AEEF"/>
<path d="M50.2161 66.0003C52.7082 70.9745 55.7254 75.6679 59.2161 80.0003C62.7059 84.3595 66.7811 88.216 71.3261 91.4603C74.5077 93.7116 77.9968 95.4932 81.6861 96.7503C86.0088 94.2739 90.5639 92.2274 95.2861 90.6403C99.2444 89.3139 103.309 88.3303 107.436 87.7003C99.1761 77.7003 97.1761 64.2203 96.3161 51.3903C95.5061 39.2603 95.6961 25.6503 101.806 14.7603C97.2107 15.9711 92.6953 17.4673 88.2861 19.2403C71.6961 25.9303 57.9261 37.3803 45.4961 50.0803C45.658 52.405 46.0261 54.7107 46.5961 56.9703C47.516 60.0874 48.7281 63.1108 50.2161 66.0003Z" fill="#8DC63F"/>
<path d="M98.0068 51.2402C98.5068 58.6402 99.1368 66.2402 101.417 73.3402C103.122 78.4851 105.756 83.2742 109.187 87.4702C120.663 86.0065 132.322 87.3165 143.187 91.2902C138.527 63.6102 151.897 31.0702 177.577 18.5902C154.038 9.91019 128.455 8.39653 104.057 14.2402C98.0068 25.7302 97.1468 38.3202 98.0068 51.2402Z" fill="#00AEEF"/>
<path d="M33.7875 111.581C41.0375 115.851 49.6375 118.771 58.0075 118.011C63.8039 109.986 71.1314 103.189 79.5675 98.0105C76.6684 96.8017 73.9034 95.2935 71.3175 93.5105C66.454 90.2186 62.0951 86.2369 58.3775 81.6905C54.4536 76.9153 51.0978 71.7003 48.3775 66.1505C46.3775 62.1505 44.1375 56.9905 43.5875 52.0605C41.0475 54.7272 38.5575 57.4105 36.1175 60.1105C28.4775 68.6005 22.3075 77.8305 18.3175 88.5805C17.8375 89.8905 17.3775 91.2105 16.9375 92.5805C18.0885 95.528 19.6325 98.3065 21.5275 100.841C24.8821 105.179 29.0455 108.826 33.7875 111.581Z" fill="#FFF200"/>
<path d="M236.726 88.8505C228.476 88.4805 220.276 90.2105 212.526 92.9305C204.844 95.6021 197.469 99.0851 190.526 103.32C187.443 105.199 184.514 107.319 181.766 109.66C181.406 109.97 178.416 112.88 176.326 115.34C184.954 126.652 190.471 140.025 192.326 154.13C203.138 148.581 215.263 146.098 227.386 146.95C233.454 147.41 239.406 148.86 245.006 151.24C249.146 153.03 253.806 155.45 257.276 158.69C259.002 148.479 259.445 138.092 258.596 127.77C257.528 115.335 254.682 103.118 250.146 91.4905C249.456 91.2105 248.746 90.9505 248.006 90.7305C244.34 89.6315 240.55 88.9998 236.726 88.8505Z" fill="#8DC63F"/>
<path d="M243.847 152.761C238.519 150.555 232.876 149.205 227.127 148.761C215.017 147.761 203.567 150.931 192.557 155.521C192.637 156.131 192.717 156.751 192.787 157.361C194.008 167.698 193.562 178.164 191.467 188.361C200.217 188.101 209.617 194.131 215.997 199.061C222.484 204.04 227.982 210.189 232.207 217.191C244.593 200.527 253.039 181.27 256.907 160.871C255.187 159.541 253.547 158.121 251.727 156.931C249.232 155.304 246.595 153.908 243.847 152.761Z" fill="#00AEEF"/>
<path d="M62.1875 216.24C64.1797 213.782 65.7972 211.042 66.9875 208.11C67.4938 206.641 67.8948 205.137 68.1875 203.61C66.6574 202.554 65.1853 201.415 63.7775 200.2C56.0084 193.413 50.3771 184.517 47.5675 174.59C43.5675 179.44 39.0575 183.9 32.9775 185.99C28.2008 187.584 23.0661 187.768 18.1875 186.52C18.4375 187.1 18.6775 187.68 18.9475 188.25C25.6975 202.77 36.2875 217.01 49.6375 226.71C51.9083 226.089 54.0283 225.01 55.8675 223.54C58.2406 221.351 60.3606 218.902 62.1875 216.24Z" fill="#FFF200"/>
<path d="M33.1874 184.11C38.7874 181.93 43.1874 177.63 47.1874 173.11C45.0304 164.713 44.6153 155.964 45.9674 147.4C34.0982 150.936 21.2472 148.31 11.7174 140.4C10.8974 139.71 10.0574 138.98 9.22737 138.19C8.77737 154.04 11.1374 169.67 17.3174 184.51C22.5089 186.115 28.0833 185.975 33.1874 184.11Z" fill="#8DC63F"/>
<path d="M12.7469 139.101C19.4579 144.698 28.0161 147.59 36.7469 147.211C39.2571 147.119 41.7508 146.763 44.1869 146.151C44.8769 145.971 45.5569 145.731 46.2569 145.491C46.806 142.469 47.5611 139.489 48.5169 136.571C50.4684 130.69 53.2102 125.102 56.6669 119.961C54.2361 120.008 51.8076 119.784 49.4269 119.291C43.6666 118.165 38.1385 116.072 33.0769 113.101C26.3469 109.101 19.6969 102.761 16.0769 95.2905C13.5764 104.047 11.7346 112.979 10.5669 122.011C9.92687 126.551 9.50687 131.101 9.29688 135.631C10.3437 136.885 11.4981 138.046 12.7469 139.101Z" fill="#00AEEF"/>
<path d="M151.337 48.4103C147.744 55.7749 145.45 63.7048 144.557 71.8503C143.896 78.5293 143.987 85.2614 144.827 91.9203C149.945 93.9212 154.831 96.4729 159.397 99.5303C165.425 103.553 170.818 108.454 175.397 114.07C177.73 111.211 180.369 108.615 183.267 106.33C190.377 100.66 198.717 96.4403 207.077 92.9803C216.157 89.2103 225.887 86.5903 235.787 86.8403C240.301 86.9294 244.785 87.6017 249.127 88.8403C239.427 65.3903 223.047 44.7403 201.697 30.7203C194.869 26.2632 187.601 22.5202 180.007 19.5503C167.687 26.0703 157.627 35.6903 151.337 48.4103Z" fill="#FFF200"/>
<path d="M215.927 201.14C209.057 195.58 200.197 190.14 191.097 189.92C188.814 200.026 184.07 209.41 177.287 217.24C182.907 220.07 187.527 226.24 190.927 230.75C193.767 234.479 196.198 238.502 198.177 242.75C198.927 244.38 199.807 246.29 200.527 248.27C207.603 243.187 214.215 237.488 220.287 231.24C224.101 227.318 227.681 223.174 231.007 218.83C227.071 212.085 221.964 206.095 215.927 201.14Z" fill="#FFF200"/>
<path fill-rule="evenodd" clip-rule="evenodd" d="M109.127 301.55C107.735 301.009 106.426 300.275 105.237 299.37C95.347 316.51 77.207 332.56 59.047 339.67C50.887 342.92 41.707 343.54 34.047 338.67C27.287 334.38 23.307 326.97 20.797 319.58C17.527 310.1 15.837 299.94 14.527 290.03C13.117 279.46 11.967 268.26 12.867 257.59C14.507 238.18 40.867 239.56 55.217 240.94H55.577C47.5056 236.726 40.1487 231.265 33.777 224.76C15.71 206.705 4.15459 183.158 0.927047 157.82C-0.862953 143.36 0.237047 128.61 2.68705 114.29C4.90705 101.23 8.00705 88.0204 13.907 76.0204C19.677 64.3504 28.307 54.5404 37.407 45.3504C37.9688 44.7819 38.5311 44.2119 39.0941 43.6411C47.7917 34.8235 56.6819 25.8105 67.107 19.1704C108.557 -7.2496 164.817 -5.0796 206.007 20.6404C246.367 45.8804 271.137 93.6004 269.917 141.06C268.727 187.25 243.947 232.51 205.087 257.73C209.007 265.07 209.767 274.96 209.827 283.07C209.887 292.57 209.634 302.06 209.067 311.54C208.76 316.787 208.344 322.02 207.817 327.24C207.775 327.626 207.738 328.018 207.7 328.413V328.413C207.449 331.051 207.184 333.838 205.497 335.96C203.443 338.55 199.909 339.491 196.777 340.324L196.775 340.325C196.339 340.441 195.912 340.555 195.497 340.67C191.606 341.864 187.601 342.645 183.547 343C175.287 343.53 168.527 340.73 161.967 335.89C150.857 327.68 139.727 318.95 130.657 308.44L139.597 431.04C140.459 442.839 141.3 454.641 142.141 466.444C144.07 493.526 146 520.613 148.187 547.67C148.339 549.556 148.496 551.441 148.652 553.327C148.917 556.523 149.182 559.719 149.427 562.92C149.441 563.107 149.456 563.294 149.471 563.482L149.472 563.496C149.693 566.314 149.919 569.196 149.067 571.92C147.597 576.6 142.697 579.76 137.987 577.22C132.737 574.4 132.027 567.44 131.567 562.22C130.694 552.367 129.817 542.51 128.937 532.65C125.47 493.597 122.007 454.534 118.547 415.46L113.407 357.46C113.015 353.014 112.59 348.563 112.166 344.11C110.815 329.944 109.462 315.747 109.127 301.55ZM84.857 248.32C91.9342 251.256 98.3837 255.519 103.857 260.88C109.805 257.758 116.867 257.577 122.967 260.39C122.507 256.99 121.907 253.62 121.127 250.29C120.828 249.024 120.439 247.758 120.048 246.489C119.889 245.973 119.73 245.457 119.577 244.94C113.828 246.234 108.008 247.185 102.147 247.79C96.4053 248.402 90.6255 248.579 84.857 248.32ZM101.327 222.24C101.095 219.061 100.562 215.91 99.737 212.83C107.938 212.397 115.824 209.528 122.387 204.59C123.734 203.57 125.019 202.472 126.237 201.3C129.987 204.85 132.327 209.69 134.297 214.45C136.2 219.29 137.584 224.319 138.427 229.45C134.307 230.87 130.167 232.09 126.127 233.18C117.501 235.627 108.703 237.423 99.807 238.55C101.567 233.51 101.727 227.38 101.327 222.24ZM140.117 228.89C154.477 223.72 168.267 215.97 175.897 202.51V202.49C176.002 202.303 176.102 202.112 176.203 201.92L176.204 201.919C176.383 201.579 176.563 201.236 176.767 200.91C175.234 198.452 173.565 196.082 171.767 193.81C168.974 190.468 165.718 187.541 162.097 185.12C158.135 182.486 153.7 180.645 149.037 179.7C146.567 179.198 144.047 178.983 141.527 179.06C140.855 179.077 140.169 179.162 139.481 179.248C139.339 179.266 139.198 179.283 139.057 179.3C137.123 187.148 133.117 194.331 127.457 200.1C131.137 203.032 133.461 208.287 135.221 212.265L135.307 212.46C137.686 217.68 139.306 223.212 140.117 228.89ZM190.547 232.72C193.027 236.167 195.158 239.851 196.907 243.72C197.71 245.52 198.411 247.362 199.007 249.24C199.002 249.257 199.002 249.274 199.007 249.29L198.717 249.49C198.462 249.675 198.221 249.879 197.997 250.1C195.16 248.458 191.954 247.56 188.677 247.49C180.197 247.131 171.155 250.294 162.996 253.148L162.995 253.148C161.85 253.548 160.723 253.943 159.617 254.32L156.117 255.51C155.878 252.969 154.612 250.147 153.537 247.75L153.537 247.75L153.536 247.75L153.536 247.75C153.22 247.044 152.92 246.375 152.667 245.76C151.457 242.76 149.977 239.18 147.797 236.52C156.363 233.322 164.343 228.734 171.417 222.94C173.099 221.506 174.695 219.973 176.197 218.35C182.147 221.6 186.647 227.24 190.547 232.7V232.72ZM97.037 159.24C99.827 156.88 102.567 156.92 104.777 158.24C105.057 152.09 110.817 146.63 116.987 145.12C114.97 144.127 112.811 143.452 110.587 143.12C101.257 141.83 91.317 147.88 88.9871 157.19C87.9171 161.49 88.857 166.56 92.177 169.66C94.2671 171.61 96.937 172.42 99.567 170.89C100.592 170.281 101.427 169.398 101.977 168.34L101.981 168.321C102.057 167.986 103.086 163.435 101.157 164.92C97.5471 167.72 93.6271 162.11 97.037 159.24ZM119.427 146.46C124.771 149.99 128.8 155.186 130.887 161.24C132.526 166.121 132.795 171.357 131.667 176.38C126.557 170.38 117.337 165.78 109.667 167.75C109.687 164.58 108.437 161.534 106.197 159.29C106.437 152.41 112.677 147.73 119.427 146.48V146.46ZM109.447 169.53C109.317 170.195 109.112 170.842 108.837 171.46V171.51C107.391 174.695 104.74 177.177 101.467 178.41C104.307 181.56 105.797 186.07 106.697 190.07C107.335 193.09 107.79 196.146 108.057 199.22C108.128 199.968 108.213 200.731 108.299 201.501L108.299 201.502L108.299 201.502L108.299 201.502L108.299 201.502C108.336 201.824 108.372 202.147 108.407 202.47C119.459 198.618 127.947 189.633 131.167 178.38L131.152 178.365C128.178 175.331 125.39 172.487 121.337 170.68C117.609 168.998 113.429 168.594 109.447 169.53ZM172.597 192.05C169.618 188.575 166.136 185.565 162.267 183.12C158.174 180.546 153.625 178.781 148.867 177.92C145.77 177.284 142.594 177.119 139.447 177.43C141.191 168.989 139.823 160.202 135.597 152.69C140.467 145.75 147.927 141.1 156.107 138.59C163.311 136.436 170.938 136.116 178.297 137.66L178.384 137.892L178.385 137.893C178.675 138.664 178.964 139.429 179.227 140.21C185.227 158.1 185.977 181.21 177.767 198.79C176.224 196.427 174.495 194.19 172.597 192.1V192.05ZM134.607 151.11C139.077 144.18 147.897 139.41 155.077 137.11V137.16C162.273 134.846 169.915 134.271 177.377 135.48C170.59 120.061 158.244 107.765 142.797 101.04C137.624 98.7904 132.161 97.2757 126.567 96.5404C125.075 97.2439 123.649 98.0806 122.307 99.0404C118.297 101.94 115.707 106.06 113.797 110.57C110.176 118.733 109.201 127.825 111.007 136.57C120.199 137.494 128.534 142.375 133.837 149.94C134.107 150.33 134.357 150.72 134.607 151.11ZM121.007 98.0404C117.007 101.04 114.317 105.32 112.377 109.9C108.937 118.03 107.187 127.75 109.457 136.47C103.489 136.132 97.5752 137.766 92.6271 141.12C90.3709 140.182 88.2989 138.852 86.507 137.19C84.2707 134.811 82.3668 132.14 80.8471 129.25C77.7599 124.122 75.5686 118.505 74.3671 112.64C87.9655 100.724 105.803 94.8094 123.827 96.2404C122.855 96.788 121.913 97.3889 121.007 98.0404ZM91.0871 142.27C86.0471 140.53 82.167 134.8 79.757 130.63H79.7971C76.9071 125.62 73.707 119.93 72.847 114.02C62.7769 123.264 56.1359 135.648 54.007 149.15C53.5155 152.409 53.3213 155.706 53.427 159C53.937 159.33 54.457 159.65 55.007 159.94C57.5812 161.219 60.3875 161.964 63.257 162.13C67.0873 162.251 70.9167 161.868 74.647 160.99C75.6644 160.781 76.6899 160.527 77.7209 160.272C78.96 159.964 80.2071 159.655 81.457 159.42C81.7509 156.104 82.7754 152.894 84.457 150.02C86.1693 147.05 88.4172 144.422 91.0871 142.27ZM61.147 163.47C65.0079 163.881 68.9095 163.679 72.707 162.87C73.2345 162.771 73.7696 162.674 74.3099 162.575L74.3103 162.575C76.6484 162.15 79.0821 161.707 81.397 161C81.2511 165.841 82.9163 170.562 86.067 174.24C84.2164 177.976 81.1839 180.479 77.9545 183.144C77.3797 183.618 76.7987 184.098 76.217 184.59L75.911 184.848C74.0211 186.439 72.1867 187.983 69.767 188.78C68.1669 189.28 66.4912 189.493 64.817 189.41C58.1008 181.397 54.1515 171.429 53.557 160.99C55.947 162.23 58.5248 163.068 61.187 163.47H61.147ZM79.1441 184.348C78.3328 184.993 77.544 185.621 76.817 186.24C73.887 188.69 70.177 190.91 66.337 191.2C69.5357 194.56 73.2489 197.389 77.337 199.58C82.9339 202.617 89.1626 204.305 95.527 204.51C95.5888 204.491 95.6553 204.491 95.717 204.51C99.4337 204.596 103.142 204.12 106.717 203.1C106.667 201.88 106.607 200.66 106.497 199.47C106.237 196.87 105.917 194.28 105.427 191.71C104.542 187.139 102.739 182.795 100.127 178.94C95.5412 180.103 90.6799 178.826 87.257 175.56C85.7098 179.123 82.2611 181.867 79.1441 184.348ZM107.817 285.39C107.247 281.537 106.986 277.645 107.037 273.75C107.071 272.54 107.215 271.327 107.358 270.116C107.468 269.196 107.577 268.276 107.637 267.36C108.104 267.272 108.569 267.181 109.033 267.089C114.942 265.927 120.567 264.821 124.257 271.71C126.437 275.79 129.497 289.54 125.547 292.47C123.047 294.32 117.107 294.89 114.217 294.42C109.317 293.57 108.407 289.72 107.837 285.34L107.817 285.39ZM140.947 539.66C140.3 530.94 139.664 522.22 139.037 513.5L139.057 513.45C133.897 442.944 128.727 372.44 123.547 301.94C120.833 302.566 118.052 302.852 115.267 302.79C117.341 316.701 118.484 330.779 119.625 344.82C120.007 349.534 120.39 354.243 120.807 358.94L126.037 418.13C129.217 453.917 132.387 489.694 135.547 525.46L138.067 553.94C138.183 555.233 138.259 556.553 138.335 557.882C138.494 560.664 138.656 563.48 139.197 566.14C139.877 569.51 141.667 572.26 142.737 567.2C143.338 564.331 142.829 560.646 142.356 557.227C142.137 555.641 141.926 554.113 141.837 552.75C141.564 548.384 141.267 544.02 140.947 539.66ZM130.107 266.81C128.723 264.637 126.875 262.797 124.697 261.42C124.231 257.72 123.563 254.048 122.697 250.42C122.596 250.002 122.495 249.576 122.394 249.146L122.394 249.145C122.045 247.667 121.684 246.135 121.227 244.64C127.427 243.22 133.557 241.47 139.517 239.54C141.817 238.8 144.117 237.99 146.397 237.13C146.566 237.393 146.738 237.655 146.911 237.916L146.911 237.916L146.911 237.917L146.911 237.917C147.309 238.521 147.708 239.126 148.077 239.76C149.275 241.891 150.321 244.103 151.207 246.38C151.957 248.24 152.647 250.11 153.327 251.99C153.64 252.878 153.873 253.787 154.105 254.695L154.105 254.695L154.105 254.695L154.105 254.695L154.105 254.695L154.105 254.696L154.105 254.696L154.105 254.696L154.105 254.696L154.105 254.696L154.105 254.696L154.105 254.697L154.105 254.697L154.105 254.697L154.106 254.698C154.229 255.18 154.352 255.662 154.487 256.14C146.187 259.01 137.237 262.44 130.697 267.87C130.527 267.45 130.337 267.1 130.127 266.76L130.107 266.81ZM199.837 319.54C200.244 314.654 200.557 309.76 200.777 304.86L200.797 304.81C201.267 294.59 201.687 284.1 200.897 273.96C200.167 264.54 196.487 255.21 185.487 255.96C176.962 256.543 168.015 259.54 159.8 262.291L159.8 262.291L159.793 262.294L159.699 262.325C158.928 262.583 158.164 262.839 157.407 263.09C154.532 264.044 151.634 265.171 148.716 266.306C143.374 268.384 137.966 270.488 132.507 271.6C133.109 273.172 133.59 274.786 133.947 276.43C140.317 271.99 151.347 270.63 157.207 273.37C159.257 274.33 159.457 277.88 157.037 278.56C154.515 279.273 151.873 279.402 149.225 279.532C147.338 279.624 145.449 279.717 143.597 280.02C142.223 280.245 140.831 280.599 139.43 280.954L139.43 280.954L139.429 280.954C137.904 281.341 136.369 281.731 134.837 281.96C134.897 282.14 134.897 282.32 134.897 282.5C134.914 282.699 134.932 282.899 134.95 283.1L134.952 283.122L134.952 283.123C135.057 284.315 135.167 285.562 135.227 286.88C138.167 286.253 141.176 286.015 144.177 286.17C151.727 287.15 163.637 291.8 165.947 299.88C166.36 301.061 166.037 302.375 165.123 303.23C164.21 304.084 162.878 304.32 161.727 303.83C159.117 302.852 156.83 301.19 154.524 299.515C152.306 297.903 150.071 296.28 147.517 295.24C143.494 293.694 139.322 292.568 135.067 291.88C134.854 294.087 133.947 296.17 132.477 297.83C137.512 304.47 143.294 310.51 149.707 315.83C150.241 316.284 150.778 316.741 151.318 317.2L151.334 317.214C157.399 322.375 163.819 327.839 170.627 331.83C174.823 334.292 179.739 335.232 184.547 334.49L184.979 334.436C188.617 333.982 194.587 333.236 197.547 331.17C199.661 329.684 199.712 325.487 199.753 322.151V322.15V322.15V322.15V322.149V322.149V322.149V322.149V322.148V322.148V322.148V322.147V322.147C199.765 321.176 199.776 320.278 199.837 319.54ZM220.287 231.24C214.214 237.478 207.601 243.167 200.527 248.24C199.841 246.334 199.009 244.527 198.283 242.95L198.177 242.72C196.198 238.472 193.767 234.449 190.927 230.72L190.831 230.593L190.831 230.593C187.441 226.085 182.874 220.014 177.287 217.21C184.064 209.392 188.808 200.021 191.097 189.93C200.197 190.17 209.097 195.59 215.927 201.15C221.963 206.102 227.07 212.089 231.007 218.83C227.681 223.174 224.101 227.318 220.287 231.24ZM216.007 199.05C222.487 204.019 227.981 210.154 232.207 217.14V217.18C244.598 200.515 253.047 181.254 256.917 160.85C256.415 160.462 255.92 160.067 255.426 159.672L255.426 159.671C254.225 158.712 253.026 157.753 251.737 156.91C249.242 155.287 246.605 153.895 243.857 152.75C238.529 150.545 232.886 149.195 227.137 148.75C215.027 147.77 203.567 150.92 192.567 155.51C192.647 156.12 192.727 156.74 192.797 157.35C194.018 167.688 193.572 178.154 191.477 188.35C200.227 188.05 209.627 194.12 216.007 199.05ZM258.607 127.75C259.456 138.072 259.013 148.459 257.287 158.67C253.817 155.43 249.157 153.01 245.017 151.22C239.431 148.837 233.493 147.381 227.437 146.91C215.314 146.058 203.189 148.541 192.377 154.09C190.522 139.985 185.005 126.612 176.377 115.3C178.467 112.84 181.457 109.93 181.817 109.62C184.565 107.279 187.494 105.159 190.577 103.28C197.52 99.0451 204.895 95.5621 212.577 92.8904C220.327 90.1704 228.577 88.4404 236.777 88.8104C240.605 88.9654 244.399 89.6038 248.067 90.7104C248.807 90.9304 249.517 91.1904 250.207 91.4704C254.73 103.113 257.559 115.344 258.607 127.79V127.75ZM249.107 88.8504C239.407 65.4004 223.027 44.7304 201.677 30.7304C194.855 26.2745 187.594 22.5315 180.007 19.5604C167.667 26.0804 157.607 35.7004 151.317 48.4204C147.724 55.785 145.43 63.7149 144.537 71.8604C143.876 78.5394 143.967 85.2715 144.807 91.9304C149.925 93.9313 154.811 96.483 159.377 99.5404C165.405 103.563 170.798 108.464 175.377 114.08C177.71 111.221 180.349 108.625 183.247 106.34C190.357 100.67 198.697 96.4504 207.057 92.9904C216.137 89.2204 225.867 86.6004 235.767 86.8504C240.281 86.9396 244.765 87.6118 249.107 88.8504ZM177.537 18.5904C151.857 31.0704 138.537 63.5904 143.147 91.2904C132.282 87.3167 120.623 86.0068 109.147 87.4704C105.716 83.2744 103.082 78.4854 101.377 73.3404C99.137 66.2404 98.507 58.6404 98.007 51.2404C97.147 38.3204 98.007 25.7304 104.057 14.2404C128.443 8.40485 154.01 9.91844 177.537 18.5904ZM101.797 14.7604C97.205 15.9716 92.6929 17.4679 88.287 19.2404C71.6971 25.9404 57.927 37.3904 45.487 50.1204C45.649 52.4451 46.0171 54.7508 46.587 57.0104C47.5088 60.1173 48.7208 63.1306 50.2071 66.0104C52.6992 70.9847 55.7163 75.6781 59.2071 80.0104C62.6976 84.3661 66.7727 88.2192 71.317 91.4604C74.4986 93.7117 77.9878 95.4934 81.677 96.7504C85.9997 94.274 90.5549 92.2275 95.2771 90.6404C99.2353 89.3141 103.3 88.3305 107.427 87.7004C99.167 77.6804 97.167 64.2204 96.3071 51.3904C95.497 39.2604 95.687 25.6504 101.797 14.7604ZM18.287 88.5704C22.287 77.8204 28.447 68.5704 36.087 60.1004C38.527 57.3871 41.017 54.7037 43.557 52.0504C44.107 56.9804 46.387 62.1804 48.347 66.1404C51.0673 71.6902 54.4232 76.9051 58.347 81.6804C62.0646 86.2268 66.4236 90.2085 71.287 93.5004C73.873 95.2833 76.638 96.7915 79.537 98.0004C71.101 103.179 63.7735 109.976 57.977 118C49.607 118.76 40.977 115.84 33.757 111.57C29.0123 108.807 24.8487 105.15 21.497 100.8C19.602 98.2663 18.0581 95.4879 16.907 92.5404C17.1173 91.9589 17.3255 91.3674 17.5344 90.7739L17.5346 90.7733L17.5348 90.7729C17.7928 90.0399 18.0519 89.3041 18.317 88.5804L18.287 88.5704ZM16.067 95.2804C13.5665 104.037 11.7247 112.969 10.557 122L10.587 122.01C9.94705 126.55 9.52705 131.1 9.30705 135.62C10.3475 136.874 11.4952 138.035 12.737 139.09C19.4481 144.688 28.0063 147.58 36.737 147.2C39.2473 147.108 41.741 146.753 44.177 146.14C44.7996 145.978 45.414 145.767 46.0423 145.551L46.247 145.48C46.7961 142.459 47.5512 139.479 48.507 136.56C50.4586 130.68 53.2003 125.092 56.657 119.95C54.2263 119.998 51.7978 119.774 49.417 119.28C43.6568 118.155 38.1287 116.062 33.067 113.09C26.327 109.11 19.677 102.75 16.067 95.2804ZM9.17705 138.17L9.20654 138.198C8.75884 154.042 11.1194 169.666 17.247 184.51C22.4437 186.123 28.0258 185.986 33.137 184.12C38.757 181.92 43.137 177.62 47.137 173.12C44.9801 164.723 44.5649 155.974 45.917 147.41C38.4352 149.469 30.513 149.281 23.137 146.87C18.9517 145.421 15.0651 143.222 11.667 140.38C10.8568 139.699 10.0269 138.978 9.20654 138.198L9.20705 138.18L9.17705 138.17ZM18.3555 186.904L18.3556 186.904C18.5471 187.352 18.7381 187.799 18.947 188.24C25.697 202.75 36.287 216.99 49.637 226.7C51.9079 226.079 54.0279 225 55.8671 223.53C58.2402 221.341 60.3601 218.893 62.187 216.23C64.1793 213.772 65.7968 211.032 66.987 208.1C67.4933 206.631 67.8943 205.127 68.187 203.6C66.657 202.544 65.1848 201.405 63.777 200.19C56.0079 193.403 50.3766 184.507 47.567 174.58C43.577 179.43 39.057 183.89 32.977 185.98C28.2003 187.574 23.0656 187.758 18.187 186.51C18.2424 186.639 18.2972 186.767 18.352 186.895L18.3541 186.9L18.3555 186.904ZM51.797 228.24C56.547 226.51 60.597 221.24 63.197 217.73C65.4071 215.049 67.179 212.035 68.447 208.8C68.8987 207.404 69.2332 205.972 69.447 204.52C77.9169 210.101 87.8646 213.017 98.007 212.89L98.097 213.15C98.9851 216.32 99.5381 219.575 99.747 222.86C99.9522 225.984 99.8316 229.121 99.387 232.22C99.2781 232.976 99.1222 233.735 98.9659 234.497C98.6773 235.903 98.387 237.316 98.387 238.73C86.387 239.94 74.297 239.18 63.097 234.4C59.1437 232.71 55.36 230.647 51.797 228.24ZM43.907 334.1C52.347 335.52 60.837 330.47 67.547 326V325.96C81.057 316.95 90.5571 305.38 100.157 292.55C100.199 292.497 100.244 292.45 100.289 292.404C100.319 292.373 100.349 292.342 100.377 292.31C99.646 289.917 99.193 287.447 99.027 284.95C96.1235 286.143 92.9707 286.657 89.8363 287.169C88.1885 287.437 86.5458 287.705 84.947 288.07C83.4584 288.413 81.9538 288.822 80.4396 289.233C76.8679 290.204 73.2427 291.189 69.647 291.35C68.4957 291.422 67.4319 290.736 67.0233 289.657C66.6147 288.578 66.9569 287.359 67.8671 286.65C71.807 283.42 77.347 281.77 82.247 280.65C82.4491 280.604 82.6521 280.558 82.8558 280.512C87.9764 279.344 93.6125 278.059 98.777 279.28V276.96C98.7438 276.348 98.7548 275.726 98.7659 275.102C98.7715 274.789 98.777 274.474 98.777 274.16C94.372 271.573 87.8437 271.324 82.5407 271.121C81.5718 271.084 80.6438 271.048 79.777 271C77.065 270.843 74.1819 270.98 71.2632 271.118C66.0135 271.366 60.6486 271.62 55.957 270.18C54.317 269.66 53.227 267.31 55.037 266.18C63.477 260.93 76.8371 262.83 86.247 264.35C86.5808 264.408 86.9451 264.467 87.3341 264.531C90.8273 265.103 96.3199 266.002 99.667 268.35C99.8889 267.549 100.173 266.767 100.517 266.01C100.355 265.68 100.25 265.325 100.207 264.96C97.9884 263.825 95.811 262.629 93.6363 261.435C88.8614 258.813 84.1001 256.199 78.9471 254.24C70.6122 251.114 61.8809 249.168 53.007 248.46C45.3416 247.829 37.6261 248.23 30.067 249.65C25.207 250.57 21.577 252.1 20.817 257.43C20.3708 260.579 20.5236 263.885 20.672 267.093C20.7064 267.839 20.7406 268.579 20.767 269.31C21.347 285.92 23.097 304.14 29.347 319.69C31.997 326.26 36.417 332.84 43.907 334.1Z" fill="#231F20"/>
</svg>
