<svg width="576" height="400" viewBox="0 0 576 400" fill="none" xmlns="http://www.w3.org/2000/svg">
<path d="M557.02 263.66C550.16 261.17 542.02 263.75 538.95 270.53C536.55 275.09 530.28 271.07 532.2 266.58C532.519 265.855 532.883 265.15 533.29 264.47C540.09 250.84 541.44 235.3 538.39 220.4C535.49 206.19 528.58 193.85 513.09 191.55C499.02 189.46 485.87 197.78 478.51 209.36C469.97 222.79 469.26 239.36 472.08 254.62C472.515 256.407 471.589 258.246 469.895 258.962C468.201 259.677 466.237 259.058 465.26 257.5C462.31 253.24 457.26 245.78 450.95 247.84C448.08 248.78 446.78 251.72 446.12 254.79L446.24 255.2C446.609 256.243 446.357 257.404 445.59 258.2C445.51 258.97 445.45 259.7 445.39 260.35C445.13 263.25 441.46 265.47 439.18 262.92C436.42 259.84 430.35 252.92 425.89 257.07C421.96 260.72 424.75 267.55 426.18 271.65C427.12 274.36 424.68 276 422.46 275.7C421.46 277.17 418.83 277.7 417.94 275.7C413.05 265.11 402.12 257.51 390.3 257.49C378.19 257.49 367.66 266.42 364.24 277.82C360.33 290.87 367.58 303.1 376.73 311.98C388.97 323.87 403.65 320.4 418.38 315.6C422.05 314.4 423.95 319.04 421.85 321.6C412.75 332.5 407.5 347.25 410.29 361.46C412.62 373.26 420.54 384.24 431.65 389.19C442.976 394.105 456.121 392.036 465.39 383.88C475.98 374.22 475.87 358.71 473.7 345.62C473.08 341.9 477.13 339.17 480.12 341.89C497.12 357.34 542.87 344.95 531.53 317.04C530.66 314.92 532.85 312.32 535.02 312.46C551.88 313.56 568.69 299.87 568.37 282.36C568.24 274.93 564.46 266.35 557.02 263.66Z" fill="white"/>
<path d="M394.919 251.49C401.724 252.47 408.092 255.43 413.229 260C410.389 253 407.559 246.07 404.229 239.3C398.896 228.27 392.735 217.659 385.799 207.56C361.139 171.98 321.799 144.03 276.959 145.01C265.885 145.299 254.946 147.523 244.639 151.58C233.219 156.01 221.399 161.25 211.049 167.84C200.699 174.43 193.299 183.78 185.779 193.12C181.465 198.454 177.199 203.85 172.979 209.31C170.129 212.98 166.469 216.88 164.559 221.31C165.74 222.719 166.798 224.228 167.719 225.82C169.861 222.401 172.742 219.503 176.149 217.34C180.748 214.502 186.076 213.067 191.479 213.21C201.859 199.63 217.089 188.71 232.119 180.9C246.669 173.35 263.009 167.44 279.509 166.77C295.619 166.12 311.669 170.68 325.919 178.01C356.919 193.93 376.459 222.27 394.609 250.88C394.727 251.076 394.83 251.28 394.919 251.49Z" fill="#BE1E2D"/>
<path d="M183.09 222C176.997 224.509 172.531 229.858 171.15 236.3C171.46 239.016 171.403 241.76 170.98 244.46C170.46 247.96 164.52 247.92 163.98 244.46C163.525 241.608 163.525 238.702 163.98 235.85C161.72 222.26 145.58 214.85 133.03 212.29C125.11 210.7 115.93 210.45 108.849 214.96C102.849 218.77 98.6994 226.9 101.749 233.79C102.226 234.935 102.128 236.239 101.486 237.299C100.844 238.36 99.7347 239.052 98.4994 239.16C97.7894 242.22 93.0694 242.1 92.9594 238.64C92.5494 226.25 79.5093 222.03 69.2792 220.84C59.2091 219.67 48.8891 218.15 38.739 219.24C30.1389 220.17 21.2789 223.39 15.3988 229.99C9.51881 236.59 7.8188 245.84 7.6988 254.45C7.4988 269.87 9.88881 289.82 20.1189 302.06C32.119 316.43 53.1191 314.87 68.6592 307.98C71.5292 306.71 75.2993 308.8 74.2792 312.3C71.4892 321.81 68.2792 337.65 75.9093 345.81C83.3993 353.81 95.7394 351.37 101.689 342.89C103.789 339.89 108.889 340.79 108.879 344.84C108.829 359.42 118.41 371.7 131.16 377.99C143.69 384.17 163.42 387.19 176.38 380.75C188.05 374.96 194.96 361.29 196.76 348.85C197.7 342.601 197.301 336.224 195.59 330.14C194.53 326.45 192.01 319.75 188.3 316.24C186.583 315.58 184.946 314.728 183.42 313.7C180.16 311.5 182.36 307.2 185.95 307.7C188.063 308.072 190.028 309.032 191.62 310.47C198.85 312.84 206.7 310.42 212.25 304.67C218.37 298.34 223.59 283.16 211.38 279.96C209.15 279.38 208.04 276.13 209.94 274.52C223.86 262.75 221.5 239.32 208.77 227.52C202.05 221.34 191.77 218.53 183.09 222Z" fill="white"/>
<path d="M501.42 184.75C488.891 146.077 466.486 111.342 436.42 83.9803C409.04 58.9203 375.29 40.1204 339.139 31.3604C300.609 22.0304 259.689 23.7204 221.789 35.1304C182.439 46.9903 148.189 69.7003 120.709 100.13C91.6088 132.23 67.1888 169.92 54.2188 211.46C56.9988 211.68 59.7388 211.99 62.4088 212.34C66.5012 212.857 70.561 213.604 74.5688 214.58C81.4288 194.45 91.2988 174.92 102.289 156.79C113.639 138.07 125.919 119.47 141.759 104.2C195.379 52.5003 278.559 36.5204 349.09 57.1203C413.58 75.9703 466.69 125.79 491.18 188.12C494.423 186.534 497.869 185.4 501.42 184.75Z" fill="#00AEEF"/>
<path d="M473.329 203.56C476.666 198.804 480.82 194.677 485.599 191.37C472.323 157.314 450.684 127.15 422.679 103.66C368.679 58.2204 294.299 42.8004 226.409 61.6604C191.409 71.3904 158.409 90.2704 134.409 117.75C109.599 146.1 91.4087 180.45 78.9688 215.86C84.8987 217.77 90.4587 220.57 94.1488 224.8C95.0558 220.208 97.2755 215.977 100.539 212.62C102.91 210.156 105.758 208.2 108.909 206.87C120.012 172.589 139.182 141.474 164.809 116.14C176.739 104.33 190.219 95.0204 205.989 89.1404C222.599 82.9304 240.119 79.5204 257.549 76.4904C276.129 73.2704 293.409 74.3904 311.689 78.8304C328.466 82.7643 344.753 88.5532 360.249 96.0904C389.029 110.39 412.039 132.86 429.649 159.52C438.279 172.776 445.849 186.693 452.289 201.14C456.369 210.14 460.379 219.32 463.859 228.67C464.927 219.655 468.178 211.036 473.329 203.56Z" fill="#009444"/>
<path d="M448.982 240.71C454.052 239.23 458.452 240.66 462.242 243.38C456.022 228.33 450.692 212.99 443.692 198.24C436.789 183.43 428.598 169.255 419.212 155.88C401.212 130.62 377.772 110.6 349.342 98.0002C333.545 91.1095 317.054 85.9365 300.151 82.5702C281.421 78.7702 263.971 81.2302 245.421 84.7702C229.211 87.8502 212.711 90.9902 197.731 98.1702C182.751 105.35 170.441 116.56 159.401 128.81C139.301 151.1 124.501 177.1 114.141 205.11C119.32 203.977 124.66 203.774 129.911 204.51C132.76 204.874 135.582 205.422 138.361 206.15C151.041 178.35 170.131 152.75 193.801 133.32C215.551 115.48 241.191 107.72 269.171 108.02C283.571 108.17 297.931 110.45 312.022 113.27C326.112 116.09 340.852 118.66 354.122 124.66C366.522 130.23 376.412 139.46 385.332 149.52C394.467 159.815 402.902 170.709 410.582 182.13C423.512 201.33 435.282 222.56 442.922 244.66C444.492 242.756 446.606 241.377 448.982 240.71Z" fill="#FFF200"/>
<path d="M50.01 211.21C56.34 187.3 68.11 164.87 81.4 144.16C95.09 122.81 110.4 102.01 128.53 84.1603C187.11 26.6603 275.92 5.36033 354.57 28.4203C428 49.9503 487.63 111.17 509.51 184.17C510.81 184.22 512.13 184.33 513.46 184.51C517.369 185.041 521.163 186.214 524.69 187.98C515.92 141.66 480.5 105.1 447.82 73.4003C430.14 56.2603 411.92 40.6603 389.57 29.9603C368.503 20.0429 346.055 13.3739 322.99 10.1803C277.24 3.64033 229.23 10.4903 187.46 30.4003C149.82 48.3303 116.88 76.1203 90.74 108.4C65.23 139.94 46.09 175.71 30 212.78C36.5637 211.324 43.2994 210.795 50.01 211.21Z" fill="#2E3192"/>
<path d="M342.488 127.75C329.488 123.4 315.798 120.58 302.328 118.12C288.328 115.56 274.008 113.91 259.738 114.42C246.358 114.9 232.918 117.36 220.578 122.64C208.048 128.01 197.348 136.36 187.578 145.64C169.108 163.427 153.981 184.387 142.918 207.52C149.792 209.737 156.127 213.364 161.518 218.17C162.548 215.732 163.893 213.439 165.518 211.35C170.068 205.06 174.958 198.98 179.758 192.88C188.498 181.76 197.128 170.47 209.248 162.82C220.557 155.873 232.5 150.016 244.918 145.33C255.401 141.281 266.504 139.069 277.738 138.79C300.918 138.19 324.158 145.36 343.878 157.32C363.598 169.28 379.948 186.32 393.008 205.32C403.566 220.548 412.318 236.951 419.088 254.2C419.985 252.773 421.179 251.555 422.588 250.63C427.828 247.11 433.328 248.84 437.988 252.1C427.548 226.68 416.088 202.38 400.058 179.79C385.168 158.8 367.738 136.21 342.488 127.75Z" fill="#F7941E"/>
<path fill-rule="evenodd" clip-rule="evenodd" d="M556.69 255.17C552.595 254.339 548.354 254.58 544.38 255.87C549.45 235.69 547.63 210 534.48 195.47C534.5 195.241 534.5 195.01 534.48 194.78C529.24 148.78 499.77 111.78 468.03 80.0703C451.03 63.1403 433.54 45.8203 413.13 33.0703C392.33 20.0703 368.76 11.1803 344.87 5.87028C298.239 -4.41051 249.641 -1.13848 204.81 15.3003C163.03 30.7303 127.06 57.7303 98.0996 91.3003C66.7296 127.66 42.0096 169.91 24.3796 214.55C19.3003 216.433 14.6833 219.383 10.8396 223.2C-1.46035 235.52 -0.940351 253.96 1.16965 269.99C3.22965 285.63 7.16965 302.69 20.3896 312.79C33.2696 322.63 50.2297 322.21 65.0797 317.4C62.4097 330.3 62.4096 345.77 73.4896 353.9C82.4896 360.53 93.6896 359.39 101.95 353.32C106.86 377.99 133.39 391.12 157.61 391.55C172.24 391.8 184.81 387.45 193.79 375.49C201.227 365.521 204.989 353.286 204.44 340.86C204.154 334.089 202.451 327.452 199.44 321.38C198.88 320.27 198.23 319.06 197.49 317.83C206.182 317.429 214.231 313.131 219.4 306.13C226.23 297.08 227.88 281.99 217.89 275.74C232.11 259.36 227.17 230.66 209.25 218.74C205.575 216.31 201.45 214.641 197.12 213.83C207.12 204.15 216.99 195.18 229.26 188.16C242.92 180.33 258.21 174.53 274 173.26C306 170.67 335.55 187.77 356.89 210.4C368.572 222.89 378.887 236.591 387.66 251.27C374.47 252.27 363.27 261.76 358.66 274.1C352.97 289.36 360.12 304.4 370.83 315.4C376.55 321.27 383.25 325.8 391.49 326.96C397.89 327.87 404.27 326.96 410.49 325.39C403.71 336.77 400.6 350.15 403.26 363.39C406.16 377.83 416.41 390.92 430.18 396.39C443.957 401.686 459.536 398.88 470.6 389.11C481.13 379.61 483.16 365.63 482.11 352.18C494.19 357.94 509.98 357.09 521.72 351.76C534.23 346.07 542.63 332.76 539.81 319.49C560.72 317.49 578.81 298.84 575.37 276.91C573.83 266.76 567.25 257.34 556.69 255.17ZM90.7396 108.43C116.88 76.1203 149.82 48.3303 187.46 30.4303C229.23 10.5203 277.24 3.67028 322.99 10.2103C346.054 13.4039 368.502 20.0729 389.57 29.9903C411.92 40.6603 430.14 56.2603 447.82 73.4003C480.5 105.1 515.92 141.66 524.69 187.98C521.163 186.213 517.368 185.041 513.46 184.51C512.13 184.33 510.81 184.22 509.51 184.17C487.63 111.17 428 49.9503 354.57 28.4203C275.92 5.36028 187.11 26.6603 128.53 84.2003C110.4 102.01 95.0896 122.81 81.3997 144.2C68.1096 164.91 56.3396 187.34 50.0097 211.25C43.301 210.846 36.5687 211.384 30.0096 212.85C46.0896 175.74 65.2296 139.97 90.7396 108.43ZM385.331 149.51C394.466 159.805 402.901 170.699 410.581 182.12C423.511 201.33 435.281 222.56 442.981 244.711C444.528 242.798 446.621 241.402 448.981 240.711C454.051 239.23 458.451 240.661 462.241 243.381C460.093 238.182 458.05 232.949 456.009 227.717L456.009 227.717L456.008 227.717L456.008 227.716L456.008 227.716L456.008 227.715L456.007 227.713C452.139 217.801 448.273 207.894 443.691 198.24C436.788 183.43 428.597 169.256 419.211 155.88C401.221 130.62 377.771 110.6 349.341 98.0003C333.544 91.1096 317.053 85.9365 300.15 82.5703C281.42 78.7703 263.97 81.2303 245.42 84.7703L245.363 84.7811C229.172 87.8576 212.693 90.9887 197.73 98.1703C182.75 105.36 170.4 116.56 159.4 128.81C139.3 151.11 124.5 177.11 114.14 205.11C119.319 203.977 124.659 203.774 129.91 204.51C132.759 204.874 135.581 205.422 138.36 206.15C151.04 178.32 170.13 152.75 193.8 133.32C215.55 115.48 241.17 107.72 269.17 108.02C283.57 108.17 297.84 110.43 312.021 113.27C313.37 113.541 314.724 113.808 316.081 114.076L316.083 114.077C328.978 116.625 342.114 119.222 354.121 124.65C366.521 130.22 376.411 139.45 385.331 149.51ZM438 252.12C433.34 248.86 427.84 247.12 422.6 250.65C421.19 251.575 419.996 252.793 419.1 254.22C412.33 236.971 403.578 220.568 393.02 205.34C379.96 186.34 363.7 169.34 343.89 157.34C324.08 145.34 300.89 138.21 277.75 138.81C266.513 139.082 255.407 141.287 244.92 145.33C232.478 150.012 220.511 155.869 209.18 162.82C197.507 170.188 189.072 180.931 180.658 191.647L180.658 191.648L180.179 192.258L179.69 192.88C178.859 193.935 178.026 194.99 177.193 196.045L177.193 196.045C173.208 201.09 169.213 206.148 165.45 211.35C163.825 213.44 162.48 215.732 161.45 218.17C156.079 213.373 149.769 209.746 142.92 207.52C153.976 184.396 169.092 163.444 187.55 145.66C197.35 136.33 208.05 127.98 220.55 122.66C232.89 117.38 246.33 114.92 259.71 114.44C273.98 113.93 288.28 115.58 302.3 118.14C315.77 120.6 329.46 123.42 342.46 127.77C367.71 136.23 385.14 158.77 400.04 179.77C416.1 202.39 427.56 226.66 438 252.11V252.12ZM429.63 159.5C438.26 172.756 445.83 186.673 452.27 201.12V201.09C456.35 210.08 460.36 219.27 463.84 228.66C464.905 219.63 468.159 210.997 473.32 203.51C476.657 198.754 480.811 194.627 485.59 191.32C472.317 157.273 450.685 127.116 422.69 103.63C368.71 58.1903 294.31 42.7703 226.42 61.6303C191.42 71.3603 158.47 90.2403 134.42 117.72C109.61 146.07 91.4196 180.42 78.9796 215.83C84.9096 217.77 90.4696 220.54 94.1596 224.77C95.0667 220.178 97.2864 215.947 100.55 212.59C102.921 210.126 105.769 208.17 108.92 206.84C120.015 172.565 139.175 141.454 164.79 116.12C176.72 104.33 190.2 95.0203 205.97 89.1203C222.53 82.9103 240.1 79.4703 257.53 76.4703C276.11 73.2503 293.39 74.3703 311.67 78.8103C328.447 82.7442 344.733 88.5331 360.23 96.0703C389.01 110.37 412.02 132.84 429.63 159.5ZM349.091 57.1203C278.561 36.5203 195.38 52.5003 141.76 104.2C125.92 119.47 113.64 138.07 102.29 156.79C91.2898 174.92 81.4298 194.45 74.5697 214.58C70.5619 213.605 66.5021 212.857 62.4097 212.34C59.7397 211.99 56.9997 211.68 54.2197 211.46C67.2197 169.92 91.6098 132.23 120.68 100.1C148.16 69.7003 182.41 46.9903 221.76 35.1003C259.66 23.6903 300.581 22.0003 339.111 31.3303C375.261 40.0903 409.011 58.8903 436.391 83.9503C466.457 111.312 488.862 146.047 501.392 184.72C497.84 185.373 494.394 186.51 491.151 188.1C466.691 125.79 413.581 75.9703 349.091 57.1203ZM209.91 274.54C223.83 262.75 221.47 239.32 208.74 227.54C202.05 221.34 191.77 218.53 183.06 221.96C176.967 224.469 172.501 229.818 171.12 236.26C171.43 238.976 171.373 241.72 170.95 244.42C170.45 247.92 164.51 247.88 163.95 244.42C163.495 241.568 163.495 238.662 163.95 235.81C161.69 222.25 145.55 214.78 133 212.25C125.08 210.66 115.9 210.41 108.82 214.92C102.84 218.75 98.7196 226.86 101.72 233.75C102.196 234.895 102.098 236.199 101.456 237.259C100.814 238.32 99.7049 239.011 98.4696 239.12C97.7596 242.18 93.0396 242.06 92.9296 238.6C92.5196 226.21 79.4796 221.99 69.2496 220.8C68.1419 220.672 67.0311 220.539 65.9179 220.405H65.9177H65.9175C56.911 219.327 47.743 218.23 38.7096 219.2C30.1096 220.13 21.2796 223.32 15.3696 229.95C9.45965 236.58 7.78965 245.8 7.66965 254.41C7.46965 269.83 9.85965 289.78 20.0896 302.02C32.0896 316.39 53.0396 314.83 68.6296 307.94C71.4996 306.67 75.2496 308.76 74.2496 312.26C71.4597 321.77 68.1996 337.61 75.8796 345.77C83.3697 353.73 95.7096 351.33 101.66 342.85C103.76 339.86 108.85 340.75 108.85 344.8C108.8 359.38 118.38 371.66 131.13 377.95C143.66 384.13 163.35 387.15 176.35 380.71C188.02 374.92 194.93 361.25 196.73 348.81C197.67 342.561 197.271 336.184 195.56 330.1C194.5 326.41 191.98 319.71 188.27 316.2C186.553 315.54 184.915 314.688 183.39 313.66C180.13 311.46 182.33 307.16 185.92 307.66C188.039 308.049 190.005 309.03 191.59 310.49C198.82 312.86 206.67 310.44 212.22 304.69C218.35 298.36 223.56 283.18 211.35 279.98C209.12 279.4 208.01 276.15 209.91 274.54ZM325.919 178.03C311.669 170.7 295.619 166.14 279.509 166.79C263.009 167.46 246.669 173.37 232.119 180.92C217.119 188.73 201.859 199.65 191.48 213.23C186.077 213.087 180.749 214.522 176.15 217.36C172.743 219.523 169.862 222.421 167.72 225.84C166.799 224.248 165.741 222.739 164.56 221.33C166.057 217.841 168.63 214.691 171.045 211.733C171.711 210.919 172.364 210.119 172.98 209.33C177.2 203.89 181.466 198.494 185.78 193.14L186.021 192.84C193.461 183.599 200.939 174.311 211.049 167.86C221.269 161.34 233.219 156.03 244.639 151.6C254.933 147.54 265.858 145.31 276.919 145.01C321.709 144.01 361.099 172.01 385.759 207.56C392.695 217.659 398.856 228.27 404.189 239.3C407.374 245.796 410.108 252.475 412.842 259.153L412.843 259.155L413.189 260C408.063 255.437 401.71 252.478 394.919 251.49C394.833 251.287 394.732 251.09 394.619 250.9C376.419 222.29 356.829 193.95 325.919 178.03ZM531.53 317.04C530.66 314.92 532.85 312.32 535.02 312.46C551.92 313.56 568.69 299.87 568.37 282.37C568.24 274.94 564.46 266.36 557.02 263.66C550.16 261.17 542 263.75 538.95 270.53C536.55 275.09 530.28 271.07 532.2 266.58C532.519 265.855 532.883 265.15 533.29 264.47C540.09 250.84 541.39 235.3 538.39 220.4C535.49 206.19 528.58 193.85 513.09 191.55C499.02 189.46 485.87 197.78 478.51 209.36C469.97 222.79 469.26 239.35 472.08 254.62C472.515 256.407 471.589 258.246 469.895 258.962C468.2 259.677 466.237 259.058 465.26 257.5L465.152 257.345C462.188 253.062 457.164 245.805 450.95 247.84C448.12 248.79 446.78 251.72 446.12 254.79L446.24 255.2C446.608 256.243 446.357 257.404 445.59 258.2C445.534 258.738 445.488 259.256 445.445 259.741C445.426 259.95 445.408 260.154 445.39 260.35C445.13 263.25 441.46 265.47 439.18 262.92L439.059 262.786C436.247 259.645 430.286 252.989 425.89 257.07C422.216 260.482 424.414 266.671 425.884 270.813C425.987 271.103 426.086 271.382 426.18 271.65C427.12 274.36 424.68 276 422.46 275.7C421.49 277.13 418.83 277.62 417.94 275.7C413.05 265.11 402.12 257.49 390.3 257.49C378.19 257.47 367.66 266.42 364.24 277.82C360.33 290.87 367.58 303.1 376.73 311.98C388.97 323.87 403.65 320.4 418.38 315.6C422.05 314.44 423.95 319.08 421.85 321.6C412.75 332.46 407.5 347.25 410.29 361.46C412.65 373.26 420.54 384.24 431.65 389.19C442.975 394.105 456.121 392.036 465.39 383.88C475.98 374.22 475.87 358.71 473.7 345.62C473.12 341.89 477.12 339.17 480.12 341.89C497.1 357.34 542.87 344.95 531.53 317.04Z" fill="#231F20"/>
</svg>
