<svg width="558" height="529" viewBox="0 0 558 529" fill="none" xmlns="http://www.w3.org/2000/svg">
<path fill-rule="evenodd" clip-rule="evenodd" d="M17.8376 256.586C15.3753 258.579 11.6561 261.589 10.3095 261.45C7.91031 261.205 10.0287 253.675 10.8179 250.87L10.8182 250.869C10.8973 250.588 10.963 250.354 11.0095 250.18C18.1982 222.549 38.657 203.017 58.6696 183.911L58.6698 183.911C62.5153 180.24 66.3443 176.584 70.0595 172.89H70.4995C74.4295 173.3 75.3095 166.66 71.4295 166.02C52.1195 162.88 35.1395 171.9 20.0595 183.02C29.8295 124.37 89.6495 92.93 143.239 80.58C146.509 79.79 148.139 74.84 145.349 72.58C125.039 56.1788 102.727 42.4253 78.9495 31.65C95.3695 26.9367 111.939 22.8 128.659 19.24C149.599 14.74 171.009 10.24 192.559 12.04C212.289 13.67 231.609 21.12 249.919 28.24C266.009 34.52 282.52 42.44 292.849 56.75C297.279 62.9 305.87 59.11 304.74 51.75C303.139 41.17 301.639 30.5467 300.24 19.88C330.079 22.33 354.299 45.54 373.24 67.01C376.84 71.05 383.999 67.84 383.839 62.62C383.312 47.1196 381.017 31.73 376.999 16.75C381.426 16.7415 385.767 18.5382 390.033 20.3043C390.798 20.6207 391.56 20.9361 392.319 21.24C399.648 24.0988 406.821 27.3399 413.809 30.95C426.19 37.4997 436.915 46.7848 445.169 58.1C452.779 68.51 458.659 80.15 463.659 92.02C466.289 98.26 468.68 104.67 470.949 111.02C471.485 112.518 472.182 114.161 472.913 115.887C475.283 121.476 478.021 127.936 476.859 133.17C476.431 134.76 476.674 136.456 477.533 137.861C478.391 139.266 479.789 140.256 481.4 140.6C482.391 141.334 483.651 141.606 484.857 141.345C486.063 141.085 487.099 140.318 487.699 139.24C490.599 134.518 492.754 129.378 494.089 124C515.889 143.98 526.449 175.28 520.729 204.35C519.799 209.35 524.909 214.13 529.729 211.23C532.74 209.4 535.96 207.94 539.32 206.88C539.519 229.346 533.087 251.372 520.829 270.2C526.109 253.22 524.75 234.23 513.889 220.7C500.469 203.99 477.069 203.07 459.889 214.64C453.819 218.73 438.549 232.81 435.15 244.37L429.249 248.65C425.411 243.121 423.468 236.497 423.71 229.77C423.819 224.14 416.869 221.76 413.009 225.33C402.847 234.723 394.978 246.324 390.009 259.24C384.609 250.968 382.442 240.998 383.919 231.23C384.68 225.52 376.369 222.8 372.809 226.63C345.879 255.58 317.15 288.58 315.27 329.58C300.49 320.35 288.919 307.12 280.339 291.74C275.369 282.804 271.347 273.373 268.339 263.6C264.719 251.93 261.019 238.38 266.969 226.87C268.077 224.815 267.705 222.277 266.053 220.628C264.401 218.978 261.863 218.609 259.809 219.72C235.903 231.079 213.745 245.802 194.009 263.44C189.847 255.241 189.522 245.622 193.119 237.16C194.859 232.81 188.919 228.59 185.209 231.08C157.009 250.017 133.475 275.107 116.379 304.46C108.419 296.261 101.831 286.834 96.8695 276.54C91.3495 265.02 84.2395 247.67 91.0795 235.48C93.2295 231.65 89.6995 227.57 85.6395 228.4C70.091 231.573 54.9819 236.609 40.6395 243.4C33.467 246.813 26.5255 250.691 19.8595 255.01C19.4734 255.262 18.74 255.856 17.838 256.586L17.8376 256.586ZM505.87 186.29C509.139 177.06 505.56 167.05 500.139 159.45V159.42C499.359 158.33 497.579 159.3 498.299 160.53C503.16 168.56 503.449 176.9 503.639 185.99C503.655 186.548 504.073 187.013 504.627 187.087C505.181 187.162 505.707 186.824 505.87 186.29ZM438.929 89.54C452.589 104.84 464.029 125.88 463.339 146.98C463.339 148.46 461.009 148.88 460.689 147.34C456.449 126.53 451.279 107.87 437.219 91.25C436.229 90.08 437.889 88.38 438.929 89.54ZM410.37 135.19C403.349 100.25 368.129 77.12 338.569 62.54V62.51C337.21 61.84 336.009 63.83 337.37 64.59C352.879 72.82 367.93 82.38 380.599 94.64C393.02 106.65 401.02 120.6 408.02 136.19C408.65 137.58 410.639 136.53 410.37 135.19ZM330.569 232.02C345.509 212.54 366.389 194.18 388.109 182.57C389.379 181.89 390.859 183.57 389.699 184.64C383.756 189.831 377.593 194.657 371.449 199.467L371.448 199.468C359.222 209.041 347.072 218.554 336.889 230.76C321.149 249.61 310.089 273.47 310.529 298.38C310.529 299.087 309.956 299.66 309.249 299.66C308.543 299.66 307.969 299.087 307.969 298.38C306.909 273.95 315.869 251.24 330.599 231.99L330.569 232.02ZM217.639 224.62C229.969 212.06 244.869 207.19 261.199 202.24C261.859 202.028 262.272 201.373 262.178 200.686C262.085 199.999 261.512 199.478 260.819 199.45C243.49 199.97 227.649 211.04 216.179 223.16C215.279 224.12 216.709 225.56 217.639 224.62ZM175.139 42.35C198.77 41.99 221.74 46.83 242.88 57.54C253.182 62.749 262.852 69.1241 271.699 76.54C280.4 83.85 290.289 92.7 295.479 102.98C295.884 103.746 295.677 104.692 294.991 105.221C294.304 105.749 293.337 105.707 292.699 105.12C289.323 101.829 286.231 98.3168 283.139 94.8041C279.044 90.1506 274.948 85.4972 270.19 81.36C261.465 73.7966 251.887 67.279 241.65 61.94C221.229 51.26 198.21 44.83 175.139 44.28C174.704 44.1617 174.402 43.7663 174.402 43.315C174.402 42.8637 174.704 42.4684 175.139 42.35ZM203.339 192.73C183.749 193.34 162.839 208.18 149.189 221.09C133.63 235.731 122.532 254.477 117.179 275.16C117.076 275.741 117.432 276.304 118 276.46C118.569 276.616 119.163 276.312 119.369 275.76C125.9 256.103 137.245 238.392 152.369 224.24C159.752 217.354 167.982 211.436 176.859 206.63C181.668 204.016 186.732 202.075 191.787 200.136C195.901 198.559 200.008 196.983 203.969 195.05C204.433 194.753 204.65 194.19 204.506 193.659C204.362 193.128 203.889 192.752 203.339 192.73ZM57.7495 146.57C56.9595 147.38 55.4595 146.28 56.1495 145.34C65.4795 132.72 78.7795 123.24 93.2095 117.24C106.779 111.61 125.059 107.05 139.589 111.33C140.294 111.563 140.731 112.265 140.631 113C140.53 113.735 139.92 114.294 139.18 114.33C135.961 114.607 132.743 114.648 129.524 114.689C125.191 114.744 120.857 114.799 116.519 115.43C109.387 116.427 102.387 118.215 95.6495 120.76C80.9495 126.34 68.6895 135.43 57.7495 146.57ZM73.8095 211.35C65.2995 214.04 57.7695 218.15 52.5595 225.57C52.1095 226.24 53.1295 227 53.6495 226.41C63.2254 215.675 77.6935 213.015 91.7846 210.425C98.0004 209.282 104.143 208.153 109.759 206.35C110.979 205.98 110.859 203.85 109.439 203.98C97.342 205.212 85.4028 207.681 73.8095 211.35Z" fill="#2E3192"/>
<path fill-rule="evenodd" clip-rule="evenodd" d="M514.01 285.3C504.74 300.48 489.59 311.21 471.52 309.74C469.52 339.22 461.23 369.15 451.09 396.68C450.423 398.433 449.757 400.183 449.09 401.93C474.64 389.93 498.09 374.71 518.31 354.93H507.77C502.4 354.98 500.36 348.57 503.6 344.86C520.12 325.94 537.82 305.59 543.84 280.8C536.443 283.979 528.81 286.577 521.01 288.57C518.179 289.495 515.117 288.064 514.01 285.3ZM491.29 362.14C488.29 369.56 479.29 373.94 472.05 375.86C470.81 376.19 469.93 374.28 471.15 373.75C474.635 372.235 477.939 370.333 481 368.08C482.319 367.099 483.546 365.985 484.772 364.871L484.772 364.871C486.335 363.452 487.897 362.033 489.65 360.89C490.42 360.39 491.65 361.24 491.29 362.14ZM498.282 330.088C500.022 327.991 502.079 325.511 502.58 323C502.698 322.539 502.527 322.052 502.146 321.765C501.766 321.479 501.251 321.449 500.84 321.69C498.812 322.855 497.205 325.129 495.75 327.19C495.381 327.711 495.023 328.218 494.67 328.69C492.497 331.597 490.3 334.487 488.08 337.36C487.04 338.7 489.27 340.36 490.4 339.15C492.91 336.5 495.3 333.78 497.58 330.94C497.804 330.664 498.04 330.38 498.282 330.088Z" fill="#2E3192"/>
<path fill-rule="evenodd" clip-rule="evenodd" d="M459.88 302.74C459.971 300.858 460.869 299.107 462.343 297.935C463.818 296.763 465.727 296.284 467.58 296.62C498.91 302.05 519.51 259.14 506.66 233.8C505.071 230.614 502.88 227.765 500.21 225.41C490.21 218.34 474.7 219.73 463.21 227.76C458.966 230.698 455.421 234.535 452.83 239C451.6 241.17 450.907 243.451 450.211 245.74C449.714 247.376 449.216 249.015 448.52 250.62C448.206 251.314 447.839 251.983 447.42 252.62C447.03 253.694 446.484 254.705 445.8 255.62C443.08 259.17 439.3 259.71 436.28 258.17L432.46 261.24C429.91 263.3 426.3 263.78 423.81 261.24C418.92 256.306 415.273 250.281 413.17 243.66C406.291 252.51 401.41 262.745 398.86 273.66C397.66 278.66 391.6 279.5 388.13 276.49C379.344 268.925 373.441 258.557 371.42 247.14C347.72 273.14 325.2 302.66 327.09 339.55C327.33 344.33 321.97 346.48 318.21 344.64C296.15 333.91 279.43 315 268.44 293.33C260.02 276.74 250.44 253.99 253.63 234.33C232.816 245.361 213.661 259.271 196.73 275.65C194.82 277.49 190.88 278 189.05 275.65C182.776 267.853 179.467 258.085 179.71 248.08C155.849 266.021 136.109 288.867 121.82 315.08C121.034 316.405 119.682 317.293 118.154 317.488C116.627 317.684 115.094 317.164 114 316.08C101.852 304.822 92.26 291.09 85.8703 275.81C81.3003 264.81 77.0403 251.64 79.4503 239.66C77.9503 240.03 76.4503 240.43 74.9803 240.83C64.4403 265.66 62.7203 290.96 64.3803 317.74C65.7881 342.648 70.7378 367.228 79.0803 390.74C94.1803 432.58 122.21 468.81 161.48 490.39C200.75 511.97 247.34 518.33 291.68 514.1C315.07 511.87 339.68 507.27 361.25 497.6C384.54 487.15 400 469.51 412.56 447.73C425.331 425.567 435.69 402.1 443.46 377.73C450.49 355.718 454.384 333.436 458.341 310.801C458.752 308.448 459.164 306.091 459.58 303.73C459.654 303.392 459.754 303.061 459.88 302.74ZM467.11 242.99C467.208 242.877 467.337 242.693 467.495 242.465C468.08 241.625 469.079 240.191 470.51 239.53C472.905 238.484 475.498 237.972 478.11 238.03C483.472 238.244 488.52 240.613 492.11 244.6C500.94 254.47 496.26 269.6 483.11 272.4C478.43 273.4 467.65 272.57 468.41 265.34C468.881 260.944 472.905 260.831 476.805 260.721C479.115 260.656 481.382 260.592 482.84 259.64C487.21 256.79 483.9 251.53 480.67 249.31C478.577 247.875 476.182 246.941 473.67 246.58C473.167 246.534 472.665 246.564 472.165 246.595C471.582 246.631 471.001 246.666 470.42 246.58C469.852 246.585 469.292 246.436 468.8 246.15C468.11 245.48 467.97 245.44 468.37 246.04C466.72 246.09 466.19 244.07 467.11 242.99ZM127.95 394.33C129.193 394.769 130.542 394.811 131.81 394.45C133.322 394.007 134.519 392.849 135.012 391.354C135.505 389.858 135.232 388.215 134.28 386.96C134.272 386.587 134.232 386.216 134.16 385.85C133.68 383.13 129.73 381.5 127.47 383.13C126.191 383.983 125.244 385.251 124.79 386.72C124.514 387.641 124.346 388.59 124.29 389.55C124.275 390.646 124.655 391.711 125.36 392.55C126.022 393.394 126.925 394.015 127.95 394.33ZM122.56 360.97C109.06 362.1 101.09 348.48 103.31 336.2C103.473 335.631 103.923 335.189 104.495 335.037C105.067 334.886 105.677 335.046 106.1 335.46C108.051 337.246 109.415 340.007 110.78 342.772C113.389 348.055 116.005 353.351 122.74 351.88C131.113 350.048 133.457 341.418 135.51 333.858C136.034 331.929 136.539 330.069 137.12 328.41C138.63 324.09 145.66 324.54 145.45 329.54C144.88 342.6 137.47 359.72 122.56 360.97ZM252.7 417.4C263.768 415.83 273.949 410.472 281.51 402.24C287.18 396.03 297.01 382.86 290.19 374.76C289.105 373.708 287.456 373.497 286.14 374.24C282.41 376.065 280.254 380.646 278.141 385.133C276.782 388.02 275.441 390.869 273.71 392.92C262.375 406.996 242.519 410.804 226.78 401.92C222.725 399.686 218.999 396.899 215.71 393.64C214.857 392.812 214.081 391.912 213.31 391.017L213.31 391.017L213.31 391.016C211.678 389.122 210.065 387.25 207.77 386.13C207.315 385.87 206.766 385.832 206.279 386.027C205.792 386.222 205.421 386.628 205.27 387.13C203.53 396.31 214.05 405.4 220.86 409.89C230.22 416.153 241.528 418.82 252.7 417.4ZM397.01 386.48C392.69 383.96 392.01 377.62 395.39 374.05C397.611 371.729 401.093 371.144 403.95 372.61C403.986 372.61 404.014 372.638 404.044 372.667C404.064 372.687 404.086 372.708 404.11 372.72C405.535 373.081 406.773 373.962 407.58 375.19C408.379 376.442 408.783 377.905 408.74 379.39C408.55 385.09 402.17 389.53 397.01 386.48ZM376 346.49C385.32 351.09 396.26 348.79 403.93 342.09H403.88C410.01 336.71 417.13 324.4 408.77 318.12C405.9 315.95 401.28 318.86 401.52 322.27C402.21 331.7 392.01 339.64 383.01 337.64C374.13 335.628 372.106 328.056 370.137 320.693C370.002 320.187 369.867 319.682 369.73 319.18C369.757 319.079 369.774 318.975 369.78 318.87C369.78 317.06 368.9 315.41 366.78 315.41C363.69 315.35 362.45 319.55 362.01 321.86C360.1 331.84 367.32 342.24 376 346.49Z" fill="#F2B879"/>
<path fill-rule="evenodd" clip-rule="evenodd" d="M7.34045 271C0.800449 270 -0.329551 263.25 0.340449 257.83C4.80045 221.47 33.3605 193.11 62.2905 172.78C45.3305 174.2 30.9405 185.32 17.6404 195.62C15.0604 197.62 9.96045 196.78 10.3304 192.62C13.0104 161.68 29.0805 134.64 51.6604 113.9C73.9005 93.47 102.39 81.34 131.39 73.67C110.833 58.0383 88.3522 45.1125 64.5005 35.21C60.5504 33.57 59.8704 27.84 64.5005 26.45C87.2005 19.62 110.1 13.23 133.2 7.81C155.41 2.59 178.27 -2 201.15 0.900003C222.17 3.56 242.58 11.03 262.01 19.24C272.28 23.56 282.01 28.74 290.42 35.61C289.767 28.4433 289.054 21.2733 288.28 14.1C287.96 11.08 291.1 8.49 293.89 8.49C324.35 8.54 349.4 25.08 370.22 45.71C369.046 34.9325 366.959 24.2742 363.98 13.85C363.02 10.5 365.17 7.83 368.08 6.63C375.94 3.4 384.11 5.47 391.85 8.07C400.383 10.8277 408.75 14.0731 416.91 17.79C431.677 24.6674 444.562 35.0109 454.47 47.94C464.24 60.6 471.29 74.92 477.35 89.67C480.48 97.28 483.34 105.02 486.02 112.82C487.16 110.08 490.41 108.08 493.3 110.08C521 129.477 536.485 161.989 534.09 195.72C537.153 194.656 540.306 193.872 543.51 193.38C547.58 192.76 550.88 194.96 551.19 199.24C553.044 224.489 547.167 249.703 534.34 271.53C539.247 269.677 544.039 267.534 548.69 265.11C552.42 263.17 558.32 265.49 557.85 270.37C555.16 298.77 539.51 322.61 521.01 343.45L531.64 343.63C536.73 343.72 538.87 349.71 535.64 353.37C510.53 381.73 478.84 405.22 442.79 417.73C433.96 438.61 423.23 458.97 409.51 476.61C378.21 516.83 322 527.18 273.71 528.18C226.01 529.18 176.57 518.14 137.35 489.96C98.8104 462.28 73.6505 420.47 61.4704 375.06C55.289 351.778 52.1727 327.789 52.2005 303.7L52.1988 302.468C52.1735 284.326 52.1403 260.646 62.6604 244.7C51.3831 248.582 40.5061 253.541 30.1804 259.51C28.4527 260.513 26.5487 261.917 24.5336 263.403L24.533 263.403C19.1771 267.352 13.037 271.879 7.34045 271ZM361.25 497.63C384.56 487.18 400 469.54 412.56 447.76C425.333 425.604 435.695 402.143 443.47 377.78C450.471 355.822 454.363 333.603 458.303 311.11C458.73 308.67 459.158 306.227 459.59 303.78C459.661 303.422 459.761 303.071 459.89 302.73C459.981 300.848 460.879 299.097 462.354 297.925C463.828 296.753 465.737 296.274 467.59 296.61C498.92 302.04 519.52 259.13 506.67 233.79C505.081 230.604 502.891 227.755 500.22 225.4C490.22 218.33 474.7 219.75 463.22 227.75C458.976 230.688 455.432 234.525 452.84 238.99C451.61 241.16 450.917 243.441 450.221 245.73C449.724 247.366 449.226 249.005 448.53 250.61C448.217 251.304 447.849 251.973 447.43 252.61C447.04 253.684 446.494 254.695 445.81 255.61C443.09 259.16 439.29 259.7 436.29 258.16L432.46 261.24C429.91 263.3 426.3 263.78 423.81 261.24C418.911 256.322 415.251 250.31 413.13 243.7C406.252 252.55 401.37 262.785 398.82 273.7C397.62 278.7 391.56 279.53 388.09 276.53C379.304 268.965 373.401 258.597 371.38 247.18C347.68 273.2 325.16 302.7 327.05 339.59C327.29 344.37 321.93 346.52 318.17 344.68C296.11 333.95 279.4 315.04 268.4 293.37C259.98 276.78 250.4 254.03 253.59 234.37C232.776 245.401 213.621 259.311 196.69 275.69C194.78 277.53 190.84 278.04 189.01 275.69C182.754 267.886 179.463 258.119 179.72 248.12C155.859 266.061 136.119 288.907 121.83 315.12C121.045 316.445 119.692 317.333 118.164 317.528C116.637 317.724 115.104 317.204 114.01 316.12C101.858 304.86 92.2619 291.125 85.8705 275.84C81.3004 264.8 77.0405 251.69 79.4504 239.69C77.9804 240.06 76.4705 240.46 74.9804 240.86C64.4404 265.69 62.7204 290.99 64.3804 317.77C65.7882 342.678 70.738 367.258 79.0805 390.77C94.1805 432.61 122.09 468.77 161.48 490.42C200.87 512.07 247.34 518.36 291.68 514.13C315.07 511.9 339.71 507.3 361.25 497.63ZM543.87 280.76L543.865 280.782C536.469 283.953 528.838 286.544 521.04 288.53C518.21 289.455 515.148 288.024 514.04 285.26C504.77 300.44 489.62 311.17 471.55 309.7C469.57 339.18 461.26 369.11 451.12 396.64C450.454 398.393 449.787 400.143 449.12 401.89C474.67 389.89 498.15 374.69 518.34 354.89H507.8C502.43 354.94 500.39 348.53 503.63 344.82C520.146 325.906 537.86 305.562 543.865 280.782L543.87 280.78V280.76ZM70.5005 172.86H70.0604C66.3325 176.572 62.49 180.244 58.6313 183.931C38.6314 203.044 18.196 222.572 11.0204 250.21C10.9712 250.398 10.8995 250.656 10.8125 250.967C10.0164 253.824 7.95029 261.237 10.3304 261.48C11.677 261.619 15.3962 258.609 17.8585 256.616C18.7608 255.886 19.4943 255.292 19.8804 255.04C26.5465 250.721 33.488 246.843 40.6604 243.43C55.0029 236.639 70.112 231.603 85.6604 228.43C89.7204 227.6 93.2505 231.68 91.1004 235.51C84.2605 247.7 91.3705 265.05 96.8904 276.57C101.852 286.864 108.44 296.291 116.4 304.49C133.496 275.137 157.03 250.047 185.23 231.11C188.94 228.62 194.88 232.84 193.14 237.19C189.546 245.64 189.864 255.246 194.01 263.44C213.743 245.825 235.894 231.123 259.79 219.78C261.843 218.669 264.382 219.038 266.034 220.688C267.686 222.337 268.058 224.875 266.95 226.93C261 238.44 264.7 251.99 268.32 263.66C271.328 273.433 275.35 282.864 280.32 291.8C288.9 307.18 300.47 320.41 315.25 329.64C317.13 288.64 345.86 255.59 372.79 226.64C376.35 222.81 384.66 225.53 383.9 231.24C382.431 241.007 384.606 250.973 390.01 259.24C394.988 246.297 402.879 234.674 413.07 225.27C416.93 221.71 423.88 224.08 423.77 229.71C423.529 236.437 425.472 243.061 429.31 248.59L435.21 244.31C438.61 232.75 453.88 218.67 459.95 214.58C477.13 203.01 500.53 203.93 513.95 220.64C524.81 234.14 526.17 253.14 520.89 270.14C533.148 251.312 539.58 229.286 539.38 206.82C536.021 207.88 532.801 209.34 529.79 211.17C524.92 214.07 519.79 209.29 520.79 204.29C526.51 175.22 515.95 143.94 494.15 123.94C492.798 129.317 490.626 134.454 487.71 139.17C487.11 140.248 486.074 141.015 484.868 141.275C483.662 141.536 482.402 141.264 481.41 140.53C479.8 140.186 478.402 139.196 477.544 137.791C476.685 136.386 476.442 134.69 476.87 133.1C478.035 127.852 475.291 121.384 472.913 115.78C472.188 114.07 471.496 112.44 470.96 110.95C468.67 104.58 466.3 98.21 463.67 91.95C458.69 80.03 452.79 68.44 445.18 58.03C436.918 46.7403 426.194 37.4796 413.82 30.95C406.831 27.3535 399.658 24.1257 392.33 21.28C391.646 21.0028 390.959 20.7172 390.27 20.4306C385.936 18.6287 381.514 16.79 377.01 16.79C381.049 31.7709 383.364 47.1639 383.91 62.67C384.07 67.89 376.87 71.06 373.31 67.06C354.31 45.59 330.11 22.38 300.31 19.93C301.69 30.5633 303.19 41.1867 304.81 51.8C305.92 59.15 297.35 62.94 292.92 56.8C282.52 42.44 266.01 34.52 249.92 28.26C231.56 21.14 212.29 13.69 192.56 12.06C171.01 10.24 149.6 14.74 128.66 19.24C111.94 22.7667 95.3704 26.87 78.9504 31.55C102.728 42.3253 125.04 56.0788 145.35 72.48C148.14 74.78 146.51 79.73 143.24 80.48C89.6505 92.9 29.8304 124.34 20.0604 182.99C35.1404 171.86 52.1205 162.84 71.4305 165.99C75.3104 166.63 74.3804 173.27 70.5005 172.86Z" fill="#231F20"/>
<path d="M468.361 246C467.961 245.4 468.101 245.44 468.791 246.11C469.282 246.396 469.842 246.545 470.411 246.54C471.491 246.74 472.571 246.48 473.661 246.54C476.172 246.901 478.568 247.835 480.661 249.27C483.891 251.49 487.201 256.75 482.831 259.6C478.911 262.16 469.151 258.26 468.401 265.3C467.641 272.53 478.401 273.36 483.101 272.36C496.201 269.56 500.881 254.43 492.101 244.56C488.51 240.573 483.462 238.204 478.101 237.99C475.488 237.933 472.895 238.444 470.501 239.49C468.681 240.33 467.561 242.42 467.101 242.95C466.191 244.07 466.721 246.09 468.361 246Z" fill="#231F20"/>
<path d="M137.12 328.41C134.26 336.57 133.25 349.58 122.74 351.88C112.48 354.12 111.74 340.66 106.1 335.46C105.677 335.046 105.067 334.886 104.495 335.037C103.923 335.189 103.473 335.631 103.31 336.2C101.09 348.48 109.06 362.1 122.56 360.97C137.47 359.72 144.88 342.6 145.45 329.54C145.66 324.54 138.63 324.09 137.12 328.41Z" fill="#231F20"/>
<path d="M134.16 385.83C133.68 383.1 129.73 381.48 127.47 383.11C126.19 383.963 125.244 385.231 124.79 386.7C124.513 387.621 124.345 388.57 124.29 389.53C124.274 390.626 124.654 391.691 125.36 392.53C126.021 393.374 126.925 393.995 127.95 394.31C129.193 394.749 130.542 394.791 131.81 394.43C133.328 393.989 134.531 392.828 135.025 391.326C135.519 389.825 135.24 388.176 134.28 386.92C134.27 386.554 134.23 386.189 134.16 385.83Z" fill="#231F20"/>
<path d="M408.79 318.12C405.92 315.95 401.3 318.86 401.54 322.27C402.23 331.7 391.99 339.68 383.03 337.64C373.54 335.49 371.88 326.99 369.75 319.18C369.777 319.079 369.794 318.975 369.8 318.87C369.75 317.06 368.9 315.45 366.8 315.41C363.71 315.35 362.47 319.55 362.03 321.86C360.12 331.86 367.34 342.21 375.97 346.49C385.29 351.12 396.23 348.79 403.9 342.09C410.01 336.71 417.13 324.4 408.79 318.12Z" fill="#231F20"/>
<path d="M404.061 372.72C404.001 372.72 403.961 372.64 403.901 372.61C401.043 371.144 397.561 371.729 395.341 374.05C391.971 377.62 392.641 383.96 396.961 386.48C402.171 389.53 408.551 385.09 408.691 379.39C408.734 377.905 408.329 376.442 407.531 375.19C406.723 373.962 405.485 373.081 404.061 372.72Z" fill="#231F20"/>
<path d="M286.139 374.24C279.959 377.24 278.139 387.72 273.709 392.91C262.374 406.986 242.518 410.794 226.779 401.91C222.724 399.676 218.998 396.889 215.709 393.63C213.049 391.05 211.149 387.77 207.769 386.12C207.314 385.86 206.765 385.822 206.278 386.017C205.791 386.212 205.42 386.618 205.269 387.12C203.529 396.3 214.049 405.39 220.859 409.88C230.219 416.143 241.528 418.81 252.699 417.39C263.765 415.822 273.946 410.469 281.509 402.24C287.179 396.08 296.969 382.91 290.189 374.77C289.106 373.715 287.458 373.499 286.139 374.24Z" fill="#231F20"/>
<path d="M116.521 115.44C124.081 114.37 131.631 114.99 139.181 114.34C139.922 114.304 140.532 113.745 140.633 113.01C140.733 112.275 140.295 111.573 139.591 111.34C125.061 107.06 106.781 111.62 93.2113 117.25C78.7813 123.25 65.4813 132.73 56.1513 145.35C55.4613 146.29 56.9613 147.35 57.7513 146.58C68.6913 135.44 80.9513 126.35 95.6513 120.78C102.388 118.231 109.388 116.44 116.521 115.44Z" fill="#231F20"/>
<path d="M175.14 44.31C198.21 44.86 221.23 51.31 241.65 61.97C251.888 67.309 261.466 73.8266 270.19 81.39C278.54 88.65 284.85 97.5 292.7 105.15C293.338 105.737 294.305 105.779 294.991 105.251C295.678 104.722 295.884 103.776 295.48 103.01C290.29 92.73 280.4 83.88 271.7 76.57C262.853 69.1541 253.183 62.779 242.88 57.57C221.74 46.86 198.77 42.02 175.14 42.38C174.705 42.4983 174.402 42.8937 174.402 43.345C174.402 43.7963 174.705 44.1916 175.14 44.31Z" fill="#231F20"/>
<path d="M119.361 275.79C125.892 256.133 137.236 238.422 152.361 224.27C159.742 217.374 167.972 211.446 176.851 206.63C185.571 201.89 195.131 199.36 203.961 195.05C204.424 194.753 204.642 194.19 204.497 193.659C204.353 193.128 203.881 192.752 203.331 192.73C183.741 193.34 162.831 208.18 149.181 221.09C133.62 235.74 122.526 254.497 117.181 275.19C117.101 275.757 117.455 276.296 118.008 276.448C118.56 276.6 119.139 276.318 119.361 275.79Z" fill="#231F20"/>
<path d="M53.651 226.41C67.451 210.94 91.411 212.28 109.761 206.35C110.981 205.96 110.861 203.85 109.441 203.98C97.3435 205.212 85.4043 207.681 73.811 211.35C65.301 214.04 57.811 218.15 52.561 225.57C52.111 226.24 53.131 227 53.651 226.41Z" fill="#231F20"/>
<path d="M260.82 199.45C243.49 199.97 227.65 211.04 216.18 223.16C215.28 224.16 216.71 225.56 217.64 224.62C230.01 212.06 244.87 207.24 261.2 202.24C261.86 202.028 262.273 201.373 262.179 200.686C262.086 199.999 261.513 199.478 260.82 199.45V199.45Z" fill="#231F20"/>
<path d="M310.56 298.35C310.12 273.44 321.18 249.58 336.92 230.73C352.22 212.39 371.92 200.13 389.73 184.61C390.89 183.61 389.41 181.86 388.14 182.54C366.42 194.15 345.54 212.54 330.6 231.99C315.87 251.21 306.91 273.99 308 298.35C308 299.057 308.573 299.63 309.28 299.63C309.986 299.63 310.56 299.057 310.56 298.35Z" fill="#231F20"/>
<path d="M337.37 64.55C352.88 72.78 367.93 82.34 380.6 94.6C393 106.6 401.01 120.6 408.02 136.15C408.65 137.55 410.64 136.5 410.37 135.15C403.37 100.21 368.13 77.08 338.57 62.5C337.21 61.84 336.01 63.83 337.37 64.55Z" fill="#231F20"/>
<path d="M460.691 147.34C461.011 148.88 463.301 148.46 463.341 146.98C464.031 125.88 452.591 104.84 438.931 89.54C437.931 88.38 436.231 90.08 437.221 91.25C451.281 107.87 456.451 126.53 460.691 147.34Z" fill="#231F20"/>
<path d="M503.641 185.96C503.657 186.518 504.075 186.983 504.628 187.057C505.182 187.132 505.708 186.794 505.871 186.26C509.161 177.03 505.561 167.02 500.141 159.42C499.361 158.33 497.581 159.3 498.301 160.5C503.161 168.53 503.451 176.87 503.641 185.96Z" fill="#231F20"/>
<path d="M489.651 360.89C486.521 362.89 484.021 365.89 481.001 368.08C477.94 370.333 474.636 372.235 471.151 373.75C469.931 374.28 470.811 376.19 472.051 375.86C479.281 373.94 488.321 369.56 491.291 362.14C491.651 361.24 490.421 360.39 489.651 360.89Z" fill="#231F20"/>
<path d="M500.87 321.69C498.33 323.15 496.45 326.35 494.7 328.69C492.527 331.603 490.33 334.493 488.11 337.36C487.11 338.7 489.3 340.36 490.43 339.15C492.94 336.5 495.33 333.78 497.61 330.94C499.42 328.68 502.01 325.86 502.61 323C502.728 322.539 502.557 322.052 502.177 321.765C501.796 321.479 501.281 321.449 500.87 321.69Z" fill="#231F20"/>
</svg>
