<svg width="342" height="577" viewBox="0 0 342 577" fill="none" xmlns="http://www.w3.org/2000/svg">
<path d="M248.863 236.122C248.714 236.153 248.564 236.177 248.413 236.192C247.723 237.234 247.219 238.388 246.923 239.602C246.453 241.712 246.373 243.302 248.363 244.302C250.273 245.228 252.465 245.392 254.493 244.762C257.673 243.512 259.343 237.612 256.613 235.122C254.073 232.812 251.353 235.552 248.863 236.122Z" fill="white"/>
<path fill-rule="evenodd" clip-rule="evenodd" d="M270.634 80.4217C276.276 106.136 279.934 132.247 281.574 158.522C284.984 211.942 280.914 265.712 271.874 318.422C263.194 369.022 250.614 419.312 231.994 467.222C221.674 494.076 209.022 519.974 194.184 544.622C193.293 546.083 192.411 547.58 191.522 549.089C188.742 553.809 185.899 558.637 182.504 562.782C176.574 570.082 175.774 562.532 176.574 557.172C178.784 542.252 183.094 527.332 187.314 512.872C191.674 513.252 196.134 513.392 200.074 511.972C203.274 510.772 204.694 505.772 201.074 503.972C196.83 501.854 192.124 501.617 187.432 501.381C186.431 501.331 185.43 501.28 184.434 501.212C183.66 501.159 182.885 501.106 182.11 501.053L179.787 500.894L179.779 500.894C174.914 500.562 170.052 500.23 165.184 499.882C151.964 498.915 138.754 497.795 125.554 496.522C123.538 496.326 121.522 496.132 119.506 495.937L119.462 495.933C108.703 494.895 97.9467 493.858 87.2044 492.672C84.6372 492.389 82.0665 492.08 79.4929 491.77C68.9542 490.503 58.3675 489.229 47.7744 489.752C46.5608 489.843 45.5763 490.771 45.4123 491.977C45.2483 493.183 45.9493 494.339 47.0944 494.752C50.7319 496.016 54.4378 497.075 58.1944 497.922C48.7444 512.282 37.7044 525.392 23.4944 535.392C20.5744 537.442 17.5044 539.492 13.9144 540.102C6.27441 541.432 9.74441 533.632 12.1444 529.432C13.5394 526.993 14.9434 524.557 16.3478 522.121L16.3517 522.114L16.3531 522.111L16.3533 522.111C19.8298 516.08 23.308 510.046 26.6544 503.952C45.4144 469.762 59.9044 432.902 71.2544 395.642C95.2944 316.722 102.024 235.052 100.564 152.902C100.282 136.245 99.7796 119.593 99.2768 102.942C99.0307 94.7919 98.7846 86.6418 98.5644 78.4917C98.481 75.1422 98.3725 71.7805 98.2638 68.4113L98.2638 68.4097L98.2637 68.4082L98.2637 68.4066L98.2636 68.4051C97.6424 49.1544 97.0133 29.6608 101.004 10.8117C104.354 13.3517 106.244 17.7317 107.744 21.7317C110.202 28.2223 112.409 34.8419 114.607 41.431L115.124 42.9817C119.884 57.2684 124.264 71.6817 128.264 86.2217C136.31 115.666 142.601 145.562 147.104 175.752C147.199 176.908 147.762 177.975 148.663 178.706C149.563 179.437 150.724 179.767 151.874 179.622C155.434 181.222 159.364 180.552 163.214 179.692C164.25 179.46 165.284 179.226 166.319 178.993L166.319 178.993C171.578 177.805 176.83 176.619 182.144 175.692C189.295 174.446 196.492 173.976 203.685 173.506C209.489 173.127 215.291 172.748 221.064 171.962C221.095 171.965 221.126 171.966 221.156 171.965C221.172 171.964 221.188 171.963 221.204 171.962C223.464 173.512 227.164 172.632 227.084 169.062C226.464 140.722 225.964 112.472 227.024 84.1317C227.544 70.1717 228.401 56.2384 229.594 42.3317C229.7 41.1036 229.757 39.4742 229.823 37.6006C230.213 26.4761 230.907 6.73992 243.744 11.2417C252.842 14.4329 256.433 27.5477 259.118 37.3524C259.647 39.2845 260.141 41.088 260.634 42.6617C264.488 55.115 267.821 67.7017 270.634 80.4217ZM115.635 192.122C115.855 193.752 117.915 194.002 119.075 193.222C125.025 193.812 133.225 192.592 135.245 186.212C136.28 182.894 135.532 178.778 134.859 175.078L134.859 175.078L134.859 175.078L134.859 175.076L134.859 175.075C134.648 173.914 134.444 172.793 134.305 171.752C133.679 166.998 132.962 162.262 132.155 157.542C128.055 133.882 122.015 109.952 113.155 87.6017C111.555 83.5717 106.645 78.7517 103.764 84.8717C102.081 88.4472 102.703 93.5022 103.218 97.6805C103.321 98.5155 103.419 99.3155 103.494 100.062C103.941 104.452 104.548 108.842 105.155 113.232L105.155 113.232C105.377 114.842 105.6 116.452 105.815 118.062C109.028 142.768 112.301 167.455 115.635 192.122ZM150.824 263.222C143.684 269.472 131.824 266.692 128.564 257.682C126.955 253.438 127.655 248.665 130.414 245.062C130.674 244.742 130.954 244.432 131.254 244.122C131.828 242.827 132.642 241.652 133.654 240.662C137.654 236.832 143.224 237.182 147.654 239.982C151.824 242.642 154.914 246.442 155.404 251.472C155.807 255.89 154.111 260.241 150.824 263.222ZM223.364 291.662C225.528 292.039 227.737 292.083 229.914 291.792V291.782C233.094 291.312 233.524 286.312 230.804 284.922C228.522 283.775 226.066 283.108 223.599 282.438C221.245 281.798 218.88 281.156 216.644 280.092C211.829 277.802 207.471 274.654 203.784 270.802C202.158 269.203 199.551 269.203 197.924 270.802C193.53 276.13 188.135 280.546 182.044 283.802C179.965 284.889 177.665 285.678 175.361 286.468C171.838 287.676 168.307 288.886 165.544 291.172C164.154 292.312 165.174 294.182 166.484 294.732C169.404 295.912 172.794 295.752 176.144 294.912C175.454 302.032 177.304 310.422 179.454 316.032C182.684 324.552 191.054 327.742 199.684 328.222C208.425 328.944 216.601 323.835 219.784 315.662C222.824 308.048 224.05 299.831 223.364 291.662ZM234.064 68.9117C234.184 63.7517 234.564 55.7517 240.065 53.3017C245.165 51.0517 249.155 55.3017 251.115 59.5517C254.191 66.331 255.736 74.2682 257.2 81.789L257.2 81.7892L257.2 81.7894C257.53 83.4875 257.857 85.1643 258.195 86.8018C262.196 106.012 265.196 125.962 265.826 145.592C266.013 150.576 265.869 155.567 265.396 160.532C265.368 160.798 265.344 161.077 265.32 161.364C265.178 163.032 265.014 164.954 263.896 166.192C262.238 168.027 259.053 168.37 256.362 168.66L256.361 168.66C255.561 168.746 254.805 168.827 254.145 168.942C251.265 169.442 248.245 169.852 245.265 170.102C244.725 170.814 243.804 171.123 242.944 170.88C242.084 170.637 241.461 169.891 241.375 169.002C239.425 145.372 237.645 121.732 235.864 98.0918C235.667 95.3993 235.421 92.6929 235.175 89.9797C234.539 82.9582 233.898 75.891 234.064 68.9017V68.9117ZM237.104 242.772C237.384 253.872 252.044 258.432 260.604 253.172V253.162C269.154 247.882 270.804 234.222 263.294 227.352C260.053 224.495 255.592 223.461 251.424 224.602C249.942 225.044 248.576 225.809 247.424 226.842C241.314 228.932 236.934 236.342 237.104 242.772Z" fill="#00AEEF"/>
<path d="M296.614 313.522C292.884 305.717 289.722 297.652 287.154 289.392C285.821 299.692 284.271 309.965 282.504 320.212C282.912 320.59 283.251 321.036 283.504 321.532C289.024 332.672 293.444 342.532 303.224 350.822C311.086 357.47 320.513 362.003 330.615 363.992C327.265 355.452 319.045 348.362 313.755 341.412C307.091 332.734 301.347 323.387 296.614 313.522Z" fill="#88E0FF"/>
<path d="M256.425 164.602C259.885 163.882 260.745 163.222 261.485 159.382C261.829 156.73 261.937 154.053 261.805 151.382C261.662 142.106 260.948 132.849 259.665 123.662C257.315 104.322 254.015 84.9317 248.665 66.1717C248.195 64.5217 247.665 61.0917 246.305 59.8017C241.639 58.5884 239.199 59.6184 238.985 62.8917L238.535 66.7217C238.332 71.185 238.459 75.6572 238.915 80.1017C239.645 90.1017 240.445 100.102 241.205 110.102C242.665 129.182 244.075 148.262 245.435 167.342C249.045 166.222 252.715 165.382 256.425 164.602Z" fill="#88E0FF"/>
<path d="M125.344 145.152C121.646 127.88 116.829 110.868 110.924 94.2217C110.654 93.4517 108.714 87.0017 107.464 87.3617C106.904 87.5217 107.314 94.6117 107.354 95.3617C107.584 99.7617 108.224 104.142 108.804 108.502C110.024 117.742 111.251 126.978 112.484 136.212C114.924 154.525 117.354 172.835 119.774 191.142C124.384 190.432 130.674 188.902 131.684 184.212C132.594 179.962 130.604 174.372 129.944 170.092C128.657 161.725 127.124 153.412 125.344 145.152Z" fill="#88E0FF"/>
<path d="M142.286 249.112C140.396 247.872 140.406 248.482 138.866 250.112C138.286 250.732 137.746 251.402 137.176 252.022C137.184 252.448 137.248 252.872 137.366 253.282C138.076 255.842 141.546 257.632 143.786 255.572C146.026 253.512 144.356 250.492 142.286 249.112Z" fill="white"/>
<path d="M183.727 292.112C185.007 296.852 185.087 302.112 186.127 306.802C186.757 309.632 187.337 313.612 189.427 315.802C190.959 317.188 192.858 318.104 194.897 318.442C194.707 311.112 194.897 303.752 195.007 296.442C195.007 292.902 194.897 288.902 195.297 285.052C192.461 287.309 189.405 289.275 186.177 290.922C185.407 291.302 184.587 291.702 183.727 292.112Z" fill="white"/>
<path d="M204.076 296.432C204.146 303.852 204.386 311.312 204.176 318.742C214.956 315.912 213.736 299.292 214.176 288.582C210.256 286.608 206.567 284.207 203.176 281.422C204.296 286.292 204.036 291.752 204.076 296.432Z" fill="white"/>
<path d="M80.5371 312.032C71.4769 325.192 59.2667 336.712 48.3864 347.452C43.8164 351.972 39.2163 356.452 34.6562 360.972C33.7161 361.912 32.6561 362.822 31.8061 363.832C30.5861 365.252 29.136 364.962 32.2561 365.622C35.3762 366.282 38.8062 365.232 41.7563 364.212C48.1768 361.881 54.3668 358.958 60.2467 355.482C64.7968 352.902 69.0269 349.312 73.807 347.172C76.347 335.525 78.5904 323.812 80.5371 312.032Z" fill="#88E0FF"/>
<path fill-rule="evenodd" clip-rule="evenodd" d="M133.626 240.652C137.626 236.822 143.226 237.172 147.626 239.972C151.796 242.632 154.886 246.432 155.346 251.462C155.756 255.875 154.071 260.225 150.796 263.212C143.656 269.462 131.756 266.672 128.536 257.672C126.926 253.428 127.626 248.655 130.386 245.052C130.646 244.732 130.926 244.422 131.226 244.112C131.799 242.817 132.613 241.642 133.626 240.652ZM137.366 253.262C138.076 255.822 141.547 257.612 143.787 255.552C146.158 253.402 144.357 250.492 142.287 249.092C140.693 248.063 140.45 248.335 139.49 249.411C139.311 249.611 139.108 249.839 138.866 250.092C138.557 250.421 138.26 250.765 137.964 251.108C137.703 251.41 137.442 251.711 137.176 252.002C137.184 252.428 137.247 252.852 137.366 253.262Z" fill="#231F20"/>
<path fill-rule="evenodd" clip-rule="evenodd" d="M247.434 226.832C248.586 225.799 249.952 225.034 251.434 224.592C255.605 223.448 260.071 224.481 263.314 227.342C270.814 234.222 269.174 247.902 260.614 253.162C252.054 258.422 237.394 253.862 237.114 242.762C236.944 236.332 241.324 228.922 247.434 226.832ZM248.364 244.302C250.275 245.228 252.467 245.392 254.494 244.762C257.674 243.512 259.344 237.612 256.614 235.122C254.819 233.489 252.935 234.379 251.105 235.242C250.345 235.6 249.595 235.954 248.864 236.122C248.716 236.153 248.565 236.177 248.414 236.192C247.724 237.234 247.22 238.388 246.924 239.602C246.454 241.712 246.364 243.302 248.364 244.302Z" fill="#231F20"/>
<path fill-rule="evenodd" clip-rule="evenodd" d="M294.995 283.142C298.314 294.194 302.722 304.89 308.155 315.072C313.759 325.472 320.435 335.259 328.075 344.272C334.485 351.862 340.255 359.392 341.255 369.572C341.249 372.149 339.161 374.236 336.585 374.242C322.674 373.135 309.408 367.913 298.475 359.242C291.475 353.682 284.015 345.772 279.475 337.012C278.645 341.322 277.805 345.672 276.925 350.012C265.455 406.492 248.935 462.272 223.455 514.112C216.955 527.412 209.825 540.355 202.065 552.942C201.331 554.131 200.547 555.497 199.707 556.961C194.688 565.709 187.666 577.945 177.335 576.892C166.075 575.752 165.125 563.142 166.635 554.372C169.246 540.051 172.647 525.886 176.825 511.942C171.745 511.568 166.671 511.172 161.605 510.752C148.775 509.682 136.025 508.482 123.175 507.112C110.325 505.742 97.5046 504.032 84.7146 502.272C83.6906 502.131 82.6643 501.993 81.6368 501.854C76.5836 501.17 71.5007 500.483 66.5146 499.602C57.5598 518.658 43.2194 534.674 25.2646 545.672C19.2346 549.292 10.1846 552.062 4.06462 547.172C-4.13271 540.627 1.89541 530.872 6.23825 523.844L6.23926 523.842L6.25452 523.817C6.50457 523.413 6.74895 523.017 6.98462 522.632C29.2746 486.222 45.8746 445.222 58.5946 404.592C63.0613 390.285 67.0446 375.852 70.5446 361.292C68.0726 362.775 65.5258 364.068 63.089 365.305L63.0777 365.311C62.5611 365.573 62.0495 365.833 61.5446 366.092C55.2546 369.292 48.3946 372.562 41.4646 374.092C30.1346 376.612 14.1946 369.882 25.4646 357.492C31.0733 351.313 37.0517 345.516 43.029 339.72L43.0293 339.719L43.03 339.719L43.0303 339.718C47.9549 334.943 52.8788 330.169 57.5946 325.182C67.2746 314.892 75.4046 303.852 83.4846 292.412C84.0746 288.092 84.6446 283.752 85.1546 279.412C90.5846 233.792 91.0346 187.892 90.0346 142.002C89.7498 129.106 89.3611 116.211 88.9724 103.315C88.6377 92.2105 88.303 81.1061 88.0346 70.0017C87.4846 47.6817 86.9946 24.9417 93.4246 3.32169C94.1408 0.934896 96.608 -0.466105 99.0246 0.141687C111.524 2.95878 116.243 15.8371 120.204 26.6491L120.385 27.1417C126.151 42.7284 131.368 58.5017 136.035 74.4617C145.222 106.165 152.298 138.442 157.215 171.082C161.536 170.285 165.814 169.216 170.097 168.146L170.098 168.146C175.062 166.905 180.033 165.663 185.085 164.842L186.166 164.665C196.681 162.948 208.25 161.059 218.885 162.152C216.095 128.312 216.595 94.0517 218.735 60.2217C219.315 51.075 220.038 41.9484 220.905 32.8417C221.035 31.4907 221.142 30.1092 221.25 28.7122L221.25 28.7118L221.25 28.7114C221.705 22.8184 222.182 16.6486 224.535 11.3217C229.775 -0.568314 244.245 -1.53831 253.625 6.20169C261.943 13.0808 265.58 24.7977 268.802 35.1768L268.803 35.1802L268.805 35.1851C269.32 36.8432 269.824 38.4671 270.335 40.0317C275.036 54.5475 278.981 69.2973 282.155 84.2217C288.217 113.102 291.826 142.443 292.945 171.932C294.121 202.447 293.178 233.007 290.125 263.392L290.355 264.447L290.356 264.448L290.356 264.448C291.727 270.717 293.101 276.997 294.995 283.142ZM41.7546 364.222C48.1788 361.888 54.3721 358.962 60.2546 355.482H60.2446C62.0688 354.447 63.8416 353.25 65.6191 352.051L65.6195 352.05L65.6201 352.05C68.2756 350.257 70.9414 348.458 73.8046 347.182C76.3446 335.522 78.588 323.808 80.5346 312.042C72.3813 323.885 61.6768 334.4 51.6864 344.213C50.5755 345.304 49.4734 346.387 48.3846 347.462C46.2539 349.569 44.1166 351.668 41.9799 353.766L41.9683 353.777L41.9638 353.782L41.9617 353.784C39.5217 356.18 37.0825 358.575 34.6546 360.982C34.3504 361.286 34.0347 361.588 33.7176 361.891C33.0549 362.526 32.3863 363.165 31.8046 363.842C31.4184 364.291 31.0071 364.568 30.7249 364.759C30.1159 365.169 30.1087 365.174 32.2546 365.632C35.3946 366.302 38.8046 365.222 41.7546 364.222ZM271.885 318.412C263.155 369.012 250.615 419.302 231.995 467.222C221.661 494.056 208.999 519.935 194.155 544.562C193.25 546.041 192.353 547.562 191.449 549.097L191.447 549.1L191.447 549.1C188.685 553.789 185.849 558.601 182.475 562.722C176.475 570.022 175.745 562.472 176.545 557.112C178.755 542.192 183.065 527.272 187.285 512.812C191.645 513.192 196.105 513.332 200.045 511.912C203.285 510.742 204.705 505.742 201.045 503.912C196.803 501.795 192.086 501.557 187.403 501.321L187.4 501.321C186.399 501.271 185.398 501.22 184.405 501.152C182.858 501.046 181.311 500.94 179.765 500.835C174.895 500.503 170.028 500.171 165.155 499.822C151.935 498.855 138.725 497.735 125.525 496.462C123.492 496.265 121.46 496.069 119.428 495.873C108.671 494.835 97.9156 493.798 87.1746 492.612C84.6074 492.329 82.0367 492.02 79.4632 491.71C68.9245 490.443 58.3378 489.169 47.7446 489.692C46.531 489.783 45.5465 490.711 45.3825 491.917C45.2185 493.123 45.9196 494.279 47.0646 494.692C50.7021 495.956 54.408 497.015 58.1646 497.862C48.7146 512.222 37.6746 525.372 23.4646 535.332C20.5446 537.382 17.4646 539.432 13.8846 540.042C6.24462 541.332 9.71462 533.572 12.1146 529.372C13.577 526.812 15.0494 524.257 16.5217 521.703L16.5246 521.698C19.9341 515.783 23.3427 509.869 26.6246 503.892C45.3846 469.702 59.8746 432.842 71.2246 395.582C95.2246 316.662 101.995 234.992 100.535 152.842C100.251 136.865 99.773 120.892 99.2948 104.92L99.2948 104.92C99.0304 96.0901 98.766 87.2609 98.5346 78.4317C98.4502 75.3201 98.3461 72.1979 98.2418 69.0691C97.592 49.5833 96.9335 29.8371 100.975 10.7517C104.325 13.2917 106.215 17.7517 107.715 21.6717C110.053 27.8476 112.157 34.1402 114.255 40.4122L114.255 40.4126L114.256 40.4159C114.535 41.2516 114.815 42.087 115.095 42.9217C119.875 57.2617 124.265 71.695 128.265 86.2217C136.307 115.673 142.595 145.575 147.095 175.772C147.189 176.928 147.752 177.995 148.653 178.726C149.554 179.457 150.714 179.787 151.865 179.642C155.425 181.242 159.355 180.572 163.205 179.712C164.235 179.481 165.264 179.249 166.294 179.016L166.31 179.013C171.568 177.825 176.82 176.639 182.135 175.712C189.351 174.457 196.604 173.98 203.85 173.503H203.85L203.851 173.503C209.598 173.125 215.34 172.747 221.055 171.982C221.101 171.986 221.148 171.986 221.195 171.982C223.455 173.532 227.195 172.652 227.075 169.082C226.455 140.742 225.955 112.492 227.015 84.1517C227.535 70.1983 228.391 56.265 229.585 42.3517C229.69 41.1221 229.747 39.4902 229.813 37.6137C230.201 26.488 230.891 6.76082 243.735 11.2617C252.893 14.4771 256.51 27.7676 259.185 37.5953L259.185 37.5958C259.688 39.4435 260.158 41.1688 260.625 42.6817C264.471 55.1217 267.805 67.7084 270.625 80.4417C276.267 106.156 279.924 132.267 281.565 158.542C284.985 211.942 280.915 265.712 271.875 318.412H271.885ZM284.608 323.909C289.616 334.079 294.076 343.136 303.154 350.822C311.003 357.464 320.416 361.997 330.503 363.992C328.202 358.099 323.604 352.928 319.236 348.015C317.244 345.775 315.3 343.588 313.644 341.412C307.005 332.73 301.284 323.384 296.574 313.522C292.834 305.718 289.662 297.653 287.084 289.392C285.725 299.698 284.175 309.972 282.435 320.212C282.843 320.59 283.181 321.036 283.435 321.532C283.83 322.331 284.221 323.123 284.608 323.909Z" fill="#231F20"/>
<path fill-rule="evenodd" clip-rule="evenodd" d="M230.804 284.942C228.522 283.795 226.066 283.128 223.599 282.458C221.245 281.818 218.88 281.176 216.644 280.112C211.829 277.821 207.471 274.673 203.784 270.822C202.158 269.223 199.551 269.223 197.924 270.822C193.53 276.15 188.135 280.566 182.044 283.822C179.965 284.909 177.664 285.698 175.361 286.488L175.361 286.488C171.838 287.695 168.307 288.906 165.544 291.192C164.154 292.332 165.174 294.192 166.484 294.752C169.404 295.982 172.794 295.752 176.144 294.932C175.424 302.052 177.304 310.442 179.454 316.052C182.714 324.572 191.054 327.762 199.684 328.242C208.428 328.962 216.605 323.848 219.784 315.672C222.824 308.058 224.05 299.841 223.364 291.672C225.528 292.049 227.737 292.093 229.914 291.802C233.094 291.312 233.524 286.312 230.804 284.942ZM195.004 296.432C194.985 298.452 194.954 300.475 194.922 302.498C194.839 307.815 194.757 313.137 194.894 318.432C192.856 318.094 190.957 317.178 189.424 315.792C187.616 313.888 186.938 310.651 186.38 307.987L186.38 307.986C186.293 307.572 186.209 307.171 186.124 306.792C185.687 304.744 185.418 302.584 185.146 300.404L185.146 300.404C184.797 297.602 184.444 294.768 183.724 292.102C184.584 291.692 185.404 291.292 186.174 290.902C189.403 289.255 192.459 287.289 195.294 285.032C194.99 287.972 194.998 290.994 195.006 293.832V293.832C195.009 294.719 195.011 295.589 195.004 296.432ZM204.126 301.038C204.223 306.935 204.321 312.848 204.154 318.742C213.573 316.274 213.85 303.318 214.072 292.948C214.104 291.426 214.135 289.961 214.194 288.592C210.275 286.618 206.585 284.217 203.194 281.432C204.121 285.6 204.091 290.211 204.063 294.391C204.059 295.085 204.054 295.766 204.054 296.432C204.075 297.966 204.1 299.502 204.126 301.038Z" fill="#231F20"/>
<path fill-rule="evenodd" clip-rule="evenodd" d="M134.82 175.088C135.492 178.788 136.241 182.904 135.206 186.222C133.226 192.592 125.026 193.812 119.036 193.232C117.876 194.012 115.816 193.762 115.596 192.132C112.309 167.425 109.036 142.738 105.776 118.072C105.561 116.462 105.339 114.852 105.116 113.242C104.509 108.852 103.902 104.462 103.456 100.072C103.382 99.3363 103.286 98.5487 103.185 97.7269C102.674 93.5415 102.054 88.4675 103.726 84.8817C106.606 78.7617 111.516 83.6117 113.116 87.6117C122.016 109.962 128.056 133.892 132.116 157.552C132.923 162.278 133.639 167.015 134.266 171.762C134.405 172.804 134.608 173.926 134.82 175.088ZM119.776 191.152C124.386 190.442 130.686 188.912 131.686 184.222C132.338 181.14 131.501 177.396 130.731 173.954C130.427 172.593 130.133 171.279 129.946 170.072C128.659 161.725 127.126 153.425 125.346 145.172C121.649 127.897 116.832 110.881 110.926 94.2317C110.897 94.1503 110.85 94.0054 110.787 93.8118C110.253 92.174 108.584 87.0497 107.466 87.3717C107.013 87.5252 107.22 92.1861 107.317 94.3483C107.339 94.8613 107.356 95.2336 107.356 95.3717C107.558 99.2352 108.076 103.083 108.592 106.916C108.664 107.448 108.735 107.98 108.806 108.512C110.026 117.758 111.253 126.995 112.486 136.222C114.933 154.502 117.363 172.812 119.776 191.152Z" fill="#231F20"/>
<path fill-rule="evenodd" clip-rule="evenodd" d="M254.196 168.932C251.256 169.432 248.316 169.842 245.316 170.092C244.768 170.768 243.869 171.052 243.032 170.812C242.195 170.572 241.582 169.856 241.476 168.992C239.526 145.362 237.746 121.722 235.966 98.0821L235.966 98.0817C235.763 95.4011 235.512 92.7059 235.261 90.0033C234.608 82.9766 233.95 75.9 234.116 68.9017C234.186 63.7417 234.566 55.7417 240.116 53.2917C245.216 51.0417 249.166 55.2517 251.166 59.5417C254.241 66.321 255.786 74.2584 257.25 81.7792C257.581 83.4773 257.907 85.1542 258.246 86.7917C262.206 106.002 265.246 125.952 265.876 145.582C266.063 150.566 265.919 155.557 265.446 160.522C265.418 160.788 265.394 161.067 265.37 161.353C265.228 163.022 265.064 164.944 263.946 166.182C262.283 168.022 259.119 168.362 256.411 168.652C255.617 168.737 254.862 168.818 254.196 168.932ZM238.536 66.7117C238.332 71.175 238.46 75.6472 238.916 80.0917V80.0617C239.345 85.95 239.799 91.8417 240.252 97.7308C240.57 101.853 240.887 105.974 241.196 110.092C242.683 129.165 244.093 148.245 245.426 167.332C249.046 166.232 252.716 165.372 256.426 164.592C259.886 163.872 260.746 163.212 261.486 159.372C261.83 156.72 261.937 154.043 261.806 151.372C261.663 142.097 260.948 132.839 259.666 123.652C257.316 104.312 254.016 84.9217 248.666 66.1617C248.566 65.8119 248.463 65.382 248.35 64.9094C247.93 63.1534 247.37 60.8082 246.306 59.7917C241.666 58.5784 239.226 59.6084 238.986 62.8817L238.536 66.7117Z" fill="#231F20"/>
</svg>
