<svg width="562" height="558" viewBox="0 0 562 558" fill="none" xmlns="http://www.w3.org/2000/svg">
<path d="M490.512 436.469C490.411 436.635 490.301 436.795 490.182 436.949C449.972 484.139 393.182 514.949 332.572 526.549C299.149 532.845 264.968 534.062 231.182 530.159C202.742 526.939 173.182 521.469 150.182 503.619C146.964 509.515 143.133 515.056 138.752 520.149C149.295 526.083 160.412 530.934 171.932 534.629C205.282 545.149 241.402 545.929 276.012 542.979C341.312 537.419 408.012 514.399 460.392 474.449C472.886 464.877 484.151 453.8 493.932 441.469C493.699 440.902 493.597 440.29 493.632 439.679C493.632 438.919 492.382 437.789 490.512 436.469Z" fill="#FFF200"/>
<path d="M188.243 121.389C213.973 109.699 243.623 105.909 271.403 102.129C298.733 98.409 326.663 97.129 353.763 103.189C365.195 105.744 376.275 109.672 386.763 114.889C391.943 117.467 396.918 120.439 401.643 123.779C404.033 125.479 406.363 127.279 408.643 129.139C409.143 129.549 410.643 131.139 411.933 132.429C417.086 125.889 422.186 119.306 427.233 112.679C380.963 76.789 319.473 67.829 262.673 77.189C231.537 82.4277 201.226 91.7445 172.523 104.899C159.653 110.759 147.093 117.569 135.773 126.089C125.053 134.169 116.943 144.089 108.543 154.229C114.223 159.162 119.933 164.056 125.673 168.909C143.223 150.099 164.823 132.029 188.243 121.389Z" fill="#FFF200"/>
<path d="M262.932 65.2188C322.932 55.7188 385.932 65.4188 434.932 102.609C437.598 99.0488 440.265 95.4788 442.932 91.8988C442.186 91.6011 441.507 91.1593 440.932 90.5988C417.472 68.4688 387.022 56.7888 355.562 51.7988C321.932 46.4688 284.252 45.7788 250.932 53.2588C218.106 60.5898 186.143 71.3558 155.572 85.3788C142.482 91.3558 130.051 98.6821 118.482 107.239C106.912 115.919 98.3017 126.649 88.2617 136.669C92.7084 140.469 97.1384 144.285 101.552 148.119C114.382 123.469 142.932 106.649 166.992 95.3888C197.342 81.1888 229.762 70.4688 262.932 65.2188Z" fill="#F7941E"/>
<path d="M439.243 115.469C431.983 124.942 424.627 134.339 417.173 143.659C416.996 143.929 416.796 144.184 416.573 144.419C413.893 147.759 411.233 151.119 408.513 154.419C388.693 178.729 368.513 204.479 345.703 226.259C353.146 236.791 358.24 248.798 360.643 261.469C364.607 282.775 360.569 304.795 349.303 323.309C347.697 326.657 345.88 329.9 343.863 333.019C359.353 340.079 373.673 351.289 388.013 360.299C404.247 370.485 420.523 380.612 436.843 390.679L437.743 391.219C439.142 391.523 440.399 392.287 441.313 393.389C456.193 402.482 471.123 411.482 486.103 420.389C489.323 422.289 497.153 426.319 501.703 430.959C528.703 392.429 543.273 344.799 547.283 298.299C552.753 234.949 537.233 171.299 500.913 118.929C490.867 104.429 479.294 91.0489 466.393 79.0186C458.193 90.3519 449.86 101.582 441.393 112.709C440.936 113.804 440.193 114.757 439.243 115.469Z" fill="white"/>
<path d="M163.393 478.909C160.503 483.909 157.743 489.429 154.873 494.909C179.043 511.749 209.153 516.669 237.943 519.289C270.103 522.209 302.783 520.809 334.413 514.129C390.483 502.299 442.343 473.829 480.123 430.519C477.223 428.999 474.733 427.739 473.803 427.189C470.053 424.979 466.313 422.729 462.563 420.499C462.314 421.537 461.793 422.49 461.053 423.259C423.053 463.569 371.373 492.129 316.643 501.329C287.783 506.239 258.273 505.9 229.533 500.329C209.743 496.459 177.533 490.619 168.783 469.449L163.393 478.909Z" fill="#F7941E"/>
<path d="M182.202 446.079L173.572 461.149C174.441 461.497 175.136 462.177 175.502 463.039C180.762 474.529 194.232 478.809 205.382 482.319C244.028 494.636 285.254 496.452 324.832 487.579C374.072 476.679 417.222 450.299 452.572 414.789C452.632 414.729 452.692 414.699 452.742 414.649C447.742 411.649 442.742 408.589 437.742 405.549C410.482 444.849 360.572 460.819 314.872 465.269C288.072 467.879 259.982 468.839 233.132 466.419C215.382 464.819 194.312 460.329 182.202 446.079Z" fill="#FFF200"/>
<path d="M153.502 191.409C153.526 191.353 153.556 191.299 153.592 191.249C164.452 175.069 186.272 164.249 203.652 156.729C222.962 148.359 243.292 142.829 263.972 139.089C306.232 131.439 354.362 131.659 388.312 161.609C391.372 157.983 394.402 154.333 397.402 150.659C399.752 147.759 402.062 144.819 404.402 141.899C403.992 141.489 403.592 141.089 403.202 140.739C398.557 136.612 393.535 132.929 388.202 129.739C377.785 123.583 366.532 118.969 354.792 116.039C329.282 109.459 302.542 110.109 276.562 113.169C248.762 116.439 218.022 119.789 192.292 131.439C169.292 141.839 151.982 159.159 132.752 174.779C134.152 175.929 135.542 177.099 136.952 178.239C142.432 182.666 147.949 187.056 153.502 191.409Z" fill="#F7941E"/>
<path d="M110.472 101.739C122.94 92.0787 136.391 83.7595 150.602 76.919C182.382 61.309 218.242 48.529 252.982 41.549C288.082 34.469 326.842 35.469 362.032 41.469C394.252 46.979 425.142 59.809 449.202 82.319C449.372 82.479 449.492 82.649 449.642 82.819C452.402 79.0257 455.166 75.2423 457.932 71.469C428.992 46.8288 394.704 29.2773 357.792 20.209C298.902 5.749 235.792 11.839 179.572 33.909C156.802 42.849 134.332 54.529 114.932 69.769C112.242 72.639 109.302 75.319 106.782 78.299C104.262 81.279 97.7824 80.129 95.6424 83.359C95.7024 84.759 81.5324 97.059 80.3824 98.359C71.5224 108.639 74.6724 109.589 66.9824 120.779C69.8924 123.169 79.1724 128.959 82.0524 131.389C88.6624 119.649 100.122 109.889 110.472 101.739Z" fill="#FFF200"/>
<path d="M210.762 396.219L202.982 409.799C203.069 409.833 203.152 409.873 203.232 409.919C232.342 427.369 271.832 423.689 303.992 417.659C321.669 414.365 338.956 409.241 355.572 402.369C369.152 396.739 385.122 390.259 395.212 378.949C387.792 374.203 380.399 369.416 373.032 364.589L372.932 364.529C372.777 364.775 372.599 365.006 372.402 365.219C351.662 387.309 318.292 397.569 288.952 400.049C273.211 401.313 257.371 400.445 241.862 397.469C233.982 395.999 222.762 393.199 216.182 386.919C214.342 390.039 212.522 393.129 210.762 396.219Z" fill="#FFF200"/>
<path d="M228.993 203.819C250.083 189.259 278.503 188.329 302.153 196.669C306.875 198.309 311.448 200.35 315.823 202.769C316.593 203.039 317.383 203.289 318.133 203.589C326.356 207.02 333.716 212.232 339.683 218.849C342.809 214.902 345.999 210.992 349.253 207.119C327.943 185.539 298.253 173.489 267.753 175.659C240.113 177.659 205.043 193.239 191.143 219.119C196.213 222.489 201.313 225.919 205.983 229.639C211.534 219.356 219.414 210.514 228.993 203.819Z" fill="#F7941E"/>
<path d="M183.012 213.669C188.012 201.429 203.012 190.359 212.212 184.049C226.655 174.138 243.191 167.694 260.532 165.219C295.862 160.329 331.722 173.139 356.792 198.219C364.622 189.049 372.582 179.979 380.452 170.839C346.842 142.839 301.692 143.689 260.762 151.349C241.682 154.919 222.652 159.989 204.852 167.819C196.504 171.467 188.453 175.76 180.772 180.659C173.362 185.399 166.892 191.509 159.412 196.059C165.332 200.646 171.299 205.183 177.312 209.669C179.142 210.999 181.062 212.339 183.012 213.669Z" fill="#FFF200"/>
<path d="M276.932 282.199C280.242 282.679 283.392 282.069 284.582 280.049C284.961 276.441 283.229 272.937 280.132 271.049C278.943 270.26 277.6 269.735 276.192 269.509C275.545 269.575 274.917 269.765 274.342 270.069C273.707 270.417 273.004 270.625 272.282 270.679C271.605 271.423 271.158 272.347 270.992 273.339C269.852 278.769 271.742 281.469 276.932 282.199Z" fill="white"/>
<path fill-rule="evenodd" clip-rule="evenodd" d="M213.717 309.737C213.646 309.525 213.575 309.312 213.503 309.099C212.933 307.039 212.443 304.969 212.023 302.899C207.303 280.609 209.783 256.349 223.023 237.349C236.133 218.499 255.843 210.069 278.463 210.189C284.631 210.157 290.795 210.491 296.923 211.189C308.162 213.564 318.323 219.531 325.873 228.189C338.383 246.559 344.763 271.369 342.933 293.309C341.84 306.265 337.303 318.694 329.793 329.309C325.753 333.719 321.197 337.627 316.223 340.949C279.713 365.299 229.723 353.879 214.223 311.219C214.048 310.729 213.883 310.234 213.717 309.737ZM277.623 257.689C275.756 257.438 273.864 257.459 272.003 257.749C262.773 259.209 259.133 266.369 258.963 275.079C258.803 280.229 259.963 284.999 262.963 288.479C265.553 293.649 269.813 297.779 275.693 299.299C285.433 301.819 292.193 295.149 294.843 286.689C302.083 274.309 290.293 257.299 277.623 257.689Z" fill="#F7941E"/>
<path d="M234.303 384.469C240.951 386.347 247.755 387.622 254.633 388.279C267.672 389.789 280.845 389.738 293.873 388.129C320.563 384.769 342.023 373.949 363.183 358.359C354.533 352.939 345.743 347.359 338.413 340.559C313.543 370.809 263.933 382.369 231.413 360.189C228.413 366.079 225.093 371.859 221.723 377.599C225.448 380.657 229.716 382.987 234.303 384.469Z" fill="#F7941E"/>
<path d="M198.783 417.139C194.883 423.946 190.983 430.756 187.083 437.569L186.863 437.959C203.613 451.109 221.293 455.249 242.593 455.889C266.139 456.689 289.711 456.021 313.173 453.889C356.913 449.719 400.503 435.009 427.613 399.279C423.033 396.449 418.453 393.629 413.903 390.769C411.073 388.989 408.253 387.189 405.433 385.399C395.323 398.449 377.743 405.729 363.183 411.989C325.56 428.197 284.685 435.44 243.783 433.149C228.253 432.229 209.333 429.929 198.783 417.139Z" fill="#F7941E"/>
<path fill-rule="evenodd" clip-rule="evenodd" d="M294.842 286.659C292.192 295.119 285.432 301.789 275.692 299.269C269.812 297.749 265.552 293.619 262.922 288.419C259.992 284.939 258.802 280.169 258.922 275.019C259.132 266.339 262.772 259.179 272.002 257.719C273.863 257.429 275.756 257.409 277.622 257.659C290.292 257.299 302.082 274.309 294.842 286.659ZM272.312 270.669C271.636 271.413 271.188 272.337 271.022 273.329C269.852 278.769 271.742 281.469 276.962 282.189C280.272 282.669 283.422 282.039 284.612 280.039C284.992 276.431 283.26 272.928 280.162 271.039C278.974 270.251 277.63 269.725 276.222 269.499C275.575 269.565 274.947 269.755 274.372 270.059C273.737 270.407 273.035 270.615 272.312 270.669Z" fill="#231F20"/>
<path fill-rule="evenodd" clip-rule="evenodd" d="M405.273 23.069C462.933 48.469 509.053 96.469 535.363 153.349C564.173 215.699 568.383 287.269 550.543 353.349C541.573 386.569 527.483 419.679 506.403 447.039C485.323 474.399 456.823 494.889 426.633 511.149C363.933 544.949 290.633 561.709 219.423 556.329C184.723 553.689 151.723 543.969 122.223 525.329C94.5027 507.819 70.6927 484.479 50.2227 458.999C28.1327 431.509 10.6727 401.509 4.22269 366.509C-0.927308 338.729 -1.01731 310.009 2.07269 281.869C4.49269 224.439 27.3127 167.809 57.0127 119.439L57.1327 119.249L59.9827 114.729C77.9327 86.849 100.093 63.469 128.533 45.939C156.36 28.9047 186.704 16.3736 218.443 8.80897C280.273 -6.04103 346.763 -2.65103 405.273 23.069ZM466.62 422.888C465.268 422.081 463.916 421.274 462.563 420.469C462.324 421.528 461.802 422.503 461.053 423.289C423.053 463.599 371.373 492.159 316.643 501.359C287.782 506.268 258.273 505.93 229.533 500.359C229.05 500.264 228.56 500.168 228.062 500.071C208.219 496.185 177.309 490.131 168.783 469.479L163.393 478.879C161.179 482.709 159.041 486.838 156.872 491.029C156.21 492.309 155.544 493.594 154.873 494.879C179.043 511.719 209.153 516.639 237.943 519.259C270.103 522.179 302.783 520.779 334.413 514.099C390.483 502.269 442.343 473.799 480.123 430.489C479.189 430 478.299 429.538 477.489 429.117L477.487 429.116C475.781 428.231 474.433 427.532 473.803 427.159C471.406 425.747 469.013 424.318 466.62 422.888ZM313.173 453.869C289.71 456 266.138 456.668 242.593 455.869C221.293 455.229 203.593 451.089 186.863 437.939L187.083 437.549C190.989 430.736 194.889 423.926 198.783 417.119C209.333 429.909 228.253 432.209 243.783 433.119C284.684 435.41 325.559 428.166 363.183 411.959L364.227 411.514C378.575 405.399 395.563 398.16 405.433 385.469C406.208 385.961 406.983 386.454 407.758 386.946C409.803 388.247 411.85 389.548 413.903 390.839C417.781 393.277 421.682 395.686 425.585 398.096L425.586 398.097L425.588 398.098L425.589 398.099L425.59 398.1L425.592 398.1L425.593 398.101L425.594 398.102L425.595 398.103L425.597 398.104L425.598 398.105L425.599 398.105L425.716 398.178C426.348 398.568 426.981 398.958 427.613 399.349C400.503 435.029 356.933 449.739 313.173 453.909V453.869ZM445.704 410.324C443.057 408.711 440.41 407.097 437.763 405.509V405.549C410.503 444.849 360.593 460.819 314.963 465.229C288.163 467.839 260.073 468.799 233.223 466.379C215.403 464.779 194.333 460.289 182.223 446.039L173.593 461.109C174.462 461.457 175.156 462.137 175.523 462.999C180.783 474.489 194.253 478.769 205.403 482.279C244.048 494.596 285.274 496.412 324.853 487.539C374.093 476.639 417.243 450.259 452.593 414.749C452.624 414.718 452.655 414.695 452.685 414.672L452.685 414.672C452.713 414.652 452.739 414.633 452.763 414.609C450.41 413.193 448.057 411.759 445.704 410.324ZM231.423 360.159C263.933 382.339 313.543 370.779 338.423 340.529C345.753 347.309 354.543 352.909 363.193 358.329C342.033 373.919 320.573 384.739 293.883 388.099C280.855 389.709 267.682 389.759 254.643 388.249C247.763 387.603 240.955 386.338 234.303 384.469C229.719 382.987 225.455 380.656 221.733 377.599C225.103 371.829 228.413 366.049 231.423 360.159ZM213.503 309.099C213.575 309.312 213.646 309.524 213.716 309.736C213.882 310.233 214.048 310.729 214.223 311.219C229.723 353.879 279.713 365.299 316.203 340.939C321.177 337.617 325.733 333.709 329.773 329.299C337.283 318.685 341.82 306.256 342.913 293.299C344.743 271.359 338.363 246.549 325.853 228.179C318.303 219.521 308.142 213.554 296.903 211.179C290.775 210.482 284.61 210.148 278.443 210.179C255.823 210.059 236.113 218.489 223.003 237.339C209.743 256.369 207.263 280.599 212.003 302.889C212.443 304.969 212.953 307.039 213.503 309.099ZM339.683 218.849C333.716 212.232 326.356 207.02 318.133 203.589C317.605 203.378 317.058 203.192 316.512 203.006L316.511 203.006C316.281 202.927 316.051 202.849 315.823 202.769C311.448 200.35 306.875 198.309 302.153 196.669C278.503 188.329 250.083 189.259 228.993 203.819C219.418 210.515 211.542 219.357 205.993 229.639C201.323 225.919 196.223 222.489 191.153 219.119C205.053 193.239 240.153 177.619 267.763 175.659C298.243 173.489 327.953 185.539 349.263 207.119C346.016 210.999 342.823 214.909 339.683 218.849ZM303.993 417.659C321.67 414.365 338.956 409.24 355.573 402.369L356.347 402.048C369.755 396.492 385.313 390.045 395.193 378.949C387.779 374.209 380.386 369.422 373.013 364.589L372.913 364.529C372.757 364.774 372.58 365.005 372.383 365.219C351.643 387.309 318.273 397.569 288.933 400.049C273.199 401.321 257.366 400.463 241.863 397.499C233.983 396.029 222.763 393.229 216.183 386.949C214.343 390.039 212.523 393.129 210.763 396.219L202.983 409.799C203.039 409.821 203.093 409.846 203.147 409.873C203.176 409.887 203.205 409.903 203.233 409.919C232.343 427.369 271.833 423.659 303.993 417.659ZM356.793 198.179C331.723 173.179 295.863 160.329 260.533 165.179C243.192 167.653 226.656 174.097 212.213 184.009C203.033 190.359 187.933 201.469 183.013 213.669C181.013 212.339 179.143 210.999 177.313 209.669C171.313 205.196 165.346 200.659 159.413 196.059C163.397 193.635 167.11 190.769 170.822 187.902C174.078 185.388 177.333 182.874 180.773 180.659C188.454 175.76 196.505 171.467 204.853 167.819C222.653 159.989 241.683 154.919 260.763 151.349C301.693 143.689 346.843 142.809 380.453 170.839C377.711 174.009 374.958 177.176 372.204 180.344L372.203 180.345L372.203 180.346L372.202 180.346L372.202 180.347L372.201 180.347L372.199 180.35L372.191 180.36L372.182 180.369L372.182 180.37L372.181 180.371C367.037 186.288 361.887 192.212 356.793 198.179ZM106.743 78.319L69.2527 121.319C70.5532 122.387 72.6647 124.032 74.864 125.746L74.8672 125.749L74.8675 125.749L74.8699 125.751L74.8704 125.751C77.5903 127.871 80.4434 130.094 82.0627 131.459C88.7127 119.689 100.173 109.929 110.523 101.779C122.99 92.1187 136.441 83.7994 150.653 76.959C182.433 61.349 218.293 48.589 253.033 41.589C288.033 34.539 326.843 35.469 362.033 41.469C394.253 46.939 425.143 59.769 449.233 82.289C449.345 82.3946 449.435 82.5045 449.527 82.616C449.574 82.6734 449.622 82.7312 449.673 82.789C452.439 79.0223 455.193 75.249 457.933 71.469C428.992 46.8288 394.704 29.2773 357.793 20.209C298.933 5.74897 235.793 11.839 179.573 33.929C156.803 42.869 134.333 54.549 114.893 69.789C113.879 70.8709 112.829 71.923 111.78 72.9747L111.78 72.9747L111.78 72.9748L111.78 72.9748L111.779 72.9753L111.779 72.9753L111.779 72.9754L111.779 72.9755L111.779 72.9756C110.045 74.7134 108.312 76.4502 106.743 78.319ZM88.2527 136.669C91.2221 133.7 94.0725 130.664 96.9157 127.636C103.647 120.467 110.338 113.342 118.473 107.239C130.042 98.6823 142.473 91.3559 155.563 85.379C186.137 71.3553 218.104 60.5893 250.933 53.259C284.283 45.779 321.933 46.459 355.593 51.799C387.053 56.799 417.503 68.449 440.893 90.609C441.467 91.1695 442.147 91.6112 442.893 91.909C440.226 95.4823 437.559 99.0523 434.893 102.619C385.933 65.469 322.933 55.719 262.933 65.219C229.813 70.469 197.393 81.219 167.043 95.389C142.933 106.649 114.383 123.469 101.523 148.119C97.1294 144.286 92.6994 140.469 88.2327 136.669H88.2527ZM125.711 168.9L125.723 168.909H125.703L125.711 168.9ZM188.243 121.429C164.827 132.027 143.23 150.093 125.711 168.9C119.969 164.063 114.262 159.172 108.593 154.229L109.044 153.683C117.284 143.715 125.295 134.024 135.823 126.089C147.143 117.569 159.703 110.759 172.573 104.899C201.276 91.7444 231.586 82.4277 262.723 77.189C319.523 67.829 381.013 76.789 427.283 112.679C422.209 119.292 417.093 125.889 411.933 132.469C410.663 131.139 409.143 129.589 408.643 129.179C406.373 127.319 404.043 125.519 401.643 123.819C396.918 120.479 391.943 117.507 386.763 114.929C376.275 109.712 365.194 105.784 353.763 103.229C326.663 97.139 298.763 98.449 271.403 102.169C270.621 102.275 269.839 102.382 269.055 102.488C241.958 106.168 213.249 110.068 188.243 121.429ZM145.092 164.397L145.093 164.396C159.765 151.922 174.3 139.564 192.273 131.469C217.258 120.156 246.967 116.67 274.121 113.483L274.143 113.481C274.945 113.387 275.745 113.293 276.543 113.199C302.543 110.139 329.263 109.489 354.773 116.069C366.513 118.998 377.766 123.613 388.183 129.769C393.516 132.958 398.538 136.641 403.183 140.769C403.572 141.119 403.972 141.518 404.382 141.928L404.383 141.929C403.672 142.819 402.964 143.711 402.255 144.604C400.639 146.638 399.023 148.673 397.383 150.689C394.389 154.369 391.359 158.019 388.293 161.639C354.363 131.659 306.233 131.469 263.933 139.089C243.253 142.829 222.933 148.359 203.613 156.729C186.233 164.269 164.413 175.069 153.553 191.249C153.517 191.299 153.487 191.352 153.463 191.409C147.903 187.049 142.379 182.652 136.893 178.219C136.455 177.855 136.016 177.488 135.575 177.12L135.572 177.117C134.632 176.332 133.685 175.541 132.733 174.759H132.723C136.908 171.356 141.006 167.872 145.092 164.397ZM275.983 542.999C341.283 537.469 407.993 514.419 460.363 474.469C472.869 464.893 484.144 453.809 493.933 441.469C493.67 440.902 493.54 440.283 493.553 439.659C493.593 438.939 492.343 437.809 490.473 436.519C490.372 436.685 490.262 436.845 490.143 436.999C449.933 484.189 393.153 514.979 332.533 526.599C299.11 532.896 264.929 534.113 231.143 530.209C202.743 526.989 173.143 521.519 150.143 503.669C146.925 509.566 143.093 515.106 138.713 520.199C149.26 526.123 160.38 530.964 171.903 534.649C205.253 545.169 241.373 545.999 275.983 542.999Z" fill="#231F20"/>
</svg>
