<svg width="406" height="590" viewBox="0 0 406 590" fill="none" xmlns="http://www.w3.org/2000/svg">
<path d="M177.8 321.869C174.821 317.814 172.128 313.557 169.74 309.129C169.34 314.429 168.61 319.739 168.56 325.059C168.48 333.109 170.12 340.549 171.31 348.439C171.7 351.019 168.22 352.999 166.79 350.339C163.03 343.389 162.45 334.729 162.44 326.949C162.44 323.589 162.5 320.119 162.73 316.639C161.172 319.16 159.267 321.449 157.07 323.439C151.968 327.872 146.24 331.528 140.07 334.289C141.65 341.959 142.8 349.289 146.98 356.289C151.16 363.289 157.83 369.469 166.31 370.549C174.59 371.599 182.16 366.809 186.55 360.009C191.28 352.699 190.78 345.079 192.09 337.009C186.631 332.668 181.819 327.57 177.8 321.869Z" fill="#BE1E2D"/>
<path d="M255.462 249.599C257.872 251.309 261.532 248.959 261.843 246.309C262.243 242.909 259.092 239.399 255.762 239.109C252.881 240.939 252.571 247.579 255.462 249.599Z" fill="white"/>
<path d="M167.629 290.259C168.519 288.999 169.429 287.609 169.779 287.259C171.356 285.558 173.025 283.946 174.779 282.429C178.419 279.259 182.959 276.429 185.419 272.159C188.559 266.689 186.609 261.899 180.649 260.259C175.131 258.896 169.502 258.032 163.829 257.679C159.229 257.299 149.609 255.979 146.199 259.829C142.029 264.529 147.599 270.509 150.979 273.729C154.899 277.469 158.979 281.049 162.979 284.729C164.809 286.439 166.679 288.099 167.629 290.259Z" fill="#231F20"/>
<path d="M45.7607 163.039C52.5807 153.799 47.9007 135.379 63.3807 134.529C65.5407 134.419 67.7207 134.849 69.8607 134.689C70.8629 134.692 71.858 134.519 72.8007 134.179C74.8007 133.179 74.3407 133.469 74.1507 131.179C73.8407 127.179 70.1507 122.639 68.4907 119.019C57.8457 96.2456 53.4488 71.0512 55.7507 46.0186C57.0407 32.5786 59.9007 19.0186 67.0407 7.57861C54.7707 12.6386 46.3607 23.3086 40.8207 35.5786C34.2107 50.0386 30.1607 66.0386 27.4607 81.7886C21.9969 113.548 23.2643 146.1 31.1807 177.339C36.2007 172.819 41.6407 168.589 45.7607 163.039Z" fill="#754C29"/>
<path fill-rule="evenodd" clip-rule="evenodd" d="M86.9194 399.849C86.8694 399.409 86.8094 398.959 86.7194 398.519C86.3494 396.809 84.2694 396.869 83.3494 398.009C76.1376 393.803 70.2936 387.605 66.5194 380.159C64.9494 377.089 60.9894 378.959 60.6594 381.749C60.3527 384.299 60.3359 386.875 60.6094 389.429C45.3031 373.105 35.2795 352.542 31.8494 330.429C31.4194 327.629 27.3994 327.569 26.1194 329.689C24.1132 333 22.4767 336.521 21.2394 340.189C10.2227 316.468 8.93758 289.376 17.6594 264.719C18.6894 261.839 14.4794 259.469 12.4794 261.719L6.60938 268.299C8.5065 243.086 18.0515 219.053 33.9694 199.409C35.3894 197.659 35.0294 194.869 32.5994 194.219L26.0494 192.469C29.1831 186.701 34.3431 182.39 39.4832 178.095C42.9871 175.167 46.4819 172.247 49.3194 168.879C53.1322 164.497 55.61 159.115 56.4594 153.369C56.5698 152.65 56.6555 151.896 56.7428 151.129C57.0114 148.767 57.2952 146.271 58.3594 144.249C60.194 140.747 63.8426 140.943 67.333 141.13H67.3331H67.3331H67.3332H67.3333C68.4278 141.188 69.5068 141.246 70.5094 141.189C75.3394 140.909 81.0994 138.259 81.5094 132.779C81.7217 129.866 80.2677 127.32 78.8628 124.861L78.8624 124.86C78.6133 124.424 78.3658 123.991 78.1294 123.559C76.0794 119.819 74.2094 115.969 72.5294 112.039C65.7757 96.1303 62.1236 79.0779 61.7694 61.7988C61.4694 46.9188 62.8594 29.8588 69.7094 16.0088C68.8494 51.6888 72.0494 91.8188 102.149 114.339C98.6005 115.793 95.144 117.462 91.7994 119.339C89.8494 120.439 91.1494 123.819 93.3594 123.039C119.696 113.521 147.862 110.159 175.699 113.209C190.458 114.957 205.068 117.792 219.409 121.689C226.023 123.414 232.559 125.462 239.09 127.509C246.829 129.934 254.562 132.357 262.409 134.239C266.609 135.249 268.049 129.399 264.159 127.899C261.219 126.759 258.219 125.689 255.219 124.689C271.151 111.962 285.435 97.2988 297.739 81.0388C304.818 71.8133 311.273 62.125 317.059 52.0388C319.899 47.1255 322.566 42.1255 325.059 37.0388C325.547 36.0502 326.067 34.7042 326.644 33.209C327.726 30.409 329.01 27.086 330.659 24.6088C330.414 30.5718 328.124 36.7934 326.015 42.526L326.014 42.5272C325.372 44.2735 324.746 45.9744 324.199 47.6088C321.166 56.6888 317.939 65.6888 314.519 74.6088C307.653 92.4888 300.019 110.022 291.619 127.209C289.513 131.495 287.369 135.762 285.189 140.009C285.049 140.285 284.906 140.562 284.763 140.841L284.744 140.878L284.742 140.88C283.2 143.873 281.57 147.036 282.189 150.489C283.129 155.709 287.899 157.609 292.509 158.709C293.081 158.843 293.697 158.959 294.332 159.078C296.398 159.466 298.66 159.89 300.189 161.099C302.531 162.957 302.673 166.014 302.811 168.979C302.872 170.306 302.933 171.614 303.189 172.789C304.516 178.921 308.736 183.535 312.859 188.044C313.086 188.293 313.313 188.541 313.539 188.789C313.317 189.876 313.612 191.005 314.339 191.843C315.066 192.682 316.142 193.135 317.249 193.069C327.426 205.621 334.669 220.288 338.449 235.999C335.779 234.84 332.925 234.163 330.019 233.999C328.992 234.007 328.026 234.491 327.404 235.309C326.782 236.126 326.573 237.186 326.839 238.179C336.3 264.595 341.858 292.249 343.339 320.269C342.729 319.529 342.109 318.799 341.459 318.089C339.889 316.369 336.369 317.109 335.949 319.549C333.806 332.17 329.618 344.357 323.549 355.629C323.759 354.559 324.009 353.489 324.319 352.409C325.209 349.319 321.119 346.849 318.869 349.239C301.307 367.847 282.711 385.452 263.169 401.969C262.41 401.402 261.427 401.228 260.519 401.499C241.863 406.581 222.606 409.124 203.269 409.059C202.745 408.037 201.653 407.436 200.509 407.539C163.869 408.829 126.269 409.629 91.4494 396.379C89.1494 395.499 87.1094 398.009 87.5294 400.139L86.9194 399.849ZM198.449 341.229C205.839 345.399 215.049 347.669 223.049 344.039C229.849 341.039 235.899 333.319 233.479 325.599C233.076 324.328 231.818 323.532 230.497 323.712C229.177 323.893 228.177 324.997 228.129 326.329C227.379 334.179 221.789 339.649 213.759 339.499C205.729 339.349 198.229 334.389 192.459 329.179C187.385 324.482 182.966 319.124 179.319 313.249C177.61 310.569 176.124 307.734 174.64 304.9L174.639 304.9C173.232 302.213 171.825 299.529 170.229 296.979C170.914 296.283 171.518 295.458 172.104 294.658C172.511 294.102 172.909 293.559 173.319 293.079C175.604 290.492 178.085 288.085 180.739 285.879C181.16 285.525 181.586 285.171 182.012 284.816C186.499 281.081 191.143 277.216 192.869 271.399C194.379 266.289 193.489 260.599 189.289 257.039C185.288 253.692 179.201 252.986 173.897 252.371L173.897 252.371L173.895 252.371L173.893 252.371C172.955 252.262 172.042 252.156 171.169 252.039L170.817 251.991C161.212 250.698 140.846 247.957 138.929 261.499C138.069 267.559 141.469 272.609 145.579 276.699C147.403 278.516 149.347 280.241 151.275 281.952L151.275 281.952C152.127 282.709 152.976 283.462 153.809 284.219C154.473 284.822 155.335 285.497 156.267 286.228C159.156 288.493 162.726 291.292 163.209 294.119C163.237 294.259 163.278 294.396 163.329 294.529C163.174 295.245 163.254 295.992 163.559 296.659C163.459 297.08 163.36 297.502 163.26 297.924L163.257 297.939C161.789 304.167 160.306 310.457 156.169 315.539C151.449 321.329 144.499 324.909 137.879 328.079C130.439 331.629 122.419 334.979 114.019 334.859C110.129 334.892 106.288 333.99 102.819 332.229C99.6094 330.469 94.5294 325.319 99.3094 322.019C100.712 321.19 101.178 319.382 100.349 317.979C99.521 316.576 97.7122 316.11 96.3094 316.939C87.9594 321.139 90.7994 331.629 97.1294 336.249C105.869 342.619 117.789 342.129 127.649 339.039C130.039 338.299 132.469 337.479 134.889 336.479C134.589 354.399 148.599 375.089 166.709 376.789C175.959 377.669 184.669 372.859 190.249 365.669C195.528 358.61 198.402 350.043 198.449 341.229ZM212.05 244.109C212.546 244.434 213.05 244.745 213.555 245.057C214.198 245.455 214.842 245.853 215.47 246.279C215.519 246.311 215.568 246.344 215.616 246.376L215.799 246.497C217.04 247.319 218.205 248.09 218.711 249.579C218.906 250.311 218.75 251.092 218.291 251.695C217.831 252.297 217.118 252.653 216.36 252.659C214.815 252.586 213.743 251.673 212.628 250.723C212.509 250.621 212.39 250.52 212.27 250.419C211.715 249.936 211.16 249.438 210.605 248.939L210.603 248.938C210.159 248.539 209.714 248.14 209.269 247.749C207.229 246.039 209.85 242.749 212.03 244.149L212.05 244.109ZM260.779 232.089C254.459 230.449 246.559 233.779 245.459 240.719C245.408 241.036 245.401 241.359 245.439 241.679C244.299 246.809 245.239 252.599 249.299 256.149C258.019 263.769 271.749 256.909 271.299 245.559C271.147 239.24 266.873 233.767 260.779 232.089ZM239.349 278.559C243.709 284.609 248.079 293.309 247.649 300.949C247.602 302.307 246.583 303.434 245.236 303.617C243.89 303.8 242.607 302.986 242.199 301.689C241.576 299.903 241.039 298.148 240.511 296.419C239.088 291.766 237.723 287.3 234.879 282.919C230.979 276.909 225.669 272.429 219.879 268.199C217.949 266.779 219.049 262.909 221.669 263.979C228.869 266.909 234.789 272.279 239.309 278.559H239.349ZM194.439 220.199C183.949 216.629 172.689 214.199 161.559 214.249H161.519C159.149 214.269 158.459 218.099 160.969 218.509C171.189 220.299 181.289 222.139 191.129 225.509C197.33 227.658 203.005 230.576 208.689 233.498L208.69 233.498L208.69 233.498L208.691 233.499L208.691 233.499C212.448 235.43 216.209 237.364 220.128 239.079C222.648 240.179 225.748 237.119 223.318 234.939C215.498 227.909 204.299 223.559 194.439 220.199ZM158.829 230.909C172.729 229.389 189.569 231.549 201.209 239.849C203.489 241.479 202.149 245.949 199.149 244.739C186.299 239.569 174.409 235.879 160.339 236.819C146.612 237.788 133.457 242.705 122.459 250.979C120.519 252.439 118.079 249.189 119.879 247.639C130.838 238.222 144.416 232.384 158.789 230.909H158.829ZM118.419 224.337C117.62 224.695 116.826 225.05 116.039 225.399H115.999C113.909 226.319 115.399 229.889 117.599 229.109C120.954 227.902 124.436 226.931 127.92 225.959C132.754 224.611 137.594 223.26 142.109 221.279C144.189 220.369 143.179 216.719 140.929 216.949C133.185 217.722 125.57 221.133 118.419 224.337L118.419 224.337ZM118.459 273.149C120.819 272.969 121.779 276.589 119.679 277.639C118.576 278.187 117.481 278.704 116.4 279.216C111.874 281.357 107.575 283.39 103.789 287.079C99.0973 291.647 95.7017 297.379 93.9494 303.689C93.2194 306.359 89.3194 305.219 89.8494 302.559C92.5094 289.219 103.909 274.269 118.459 273.149ZM74.6794 233.299C68.2594 237.169 67.2594 247.819 73.1494 253.379H73.1694C81.9994 261.729 98.3594 256.869 95.7094 243.199C94.6285 237.735 90.7188 233.262 85.4494 231.459C81.8094 230.299 77.4394 230.799 74.6794 233.299Z" fill="#A97C50"/>
<path d="M84.2987 238.099C83.793 237.863 83.2633 237.682 82.7188 237.559C81.9458 237.502 81.1889 237.799 80.6617 238.367C80.1344 238.935 79.8942 239.712 80.0087 240.479C80.1226 241.721 79.3887 242.885 78.2188 243.319C78.6788 245.979 80.8087 248.919 83.7087 246.759C84.7872 245.845 85.5472 244.613 85.8787 243.239C86.3387 241.694 86.026 240.023 85.0388 238.749C84.8194 238.503 84.5709 238.285 84.2987 238.099Z" fill="white"/>
<path d="M290.529 504.319C290.359 500.559 290.139 499.589 286.319 498.929C284.49 498.619 282.2 498.979 280.32 498.999L273.06 499.069C274 506.259 271.75 515.139 270.16 521.489C267.916 529.856 264.704 537.934 260.591 545.559C259.338 547.868 258.207 550.242 257.201 552.669C257.031 553.119 256.871 553.569 256.711 554.019C257.245 554.1 257.772 554.217 258.291 554.369C262.241 553.759 266.37 550.809 269.61 548.659C277.26 543.569 283.34 537.079 288.939 529.919C290.373 521.466 290.906 512.884 290.529 504.319Z" fill="#754C29"/>
<path d="M298.969 127.159C296.762 131.739 294.502 136.299 292.189 140.839C290.519 144.099 286.359 149.419 291.069 151.529C295.959 153.709 301.679 153.039 305.699 157.189C307.919 159.469 308.699 162.499 309.049 165.589C309.539 170.069 309.849 173.719 312.549 177.589C314.109 179.809 315.829 181.899 317.599 183.949C336.309 163.269 346.209 136.159 348.879 108.559C350.359 92.4619 349.979 76.2485 347.749 60.2386C346.846 52.6497 345.037 45.1965 342.359 38.0386C340.738 34.1985 338.922 30.4437 336.919 26.7886C336.209 33.2586 333.759 39.5986 331.729 45.7886C328.396 56.0686 324.772 66.2652 320.859 76.3786C314.272 93.5986 306.976 110.525 298.969 127.159Z" fill="#754C29"/>
<path d="M359.74 423.979C363.02 423.219 366.36 422.879 369.57 421.679C373.457 420.176 377.076 418.059 380.29 415.409C386.743 410.066 391.672 403.115 394.58 395.259C397.86 386.539 398.94 377.209 398.78 367.939C398.721 363.137 398.33 358.346 397.61 353.599C397.267 351.252 396.756 348.932 396.08 346.659C395.48 344.659 393.55 342.239 393.21 340.309C392.689 341.031 392.224 341.794 391.82 342.589C390.886 344.545 390.214 346.616 389.82 348.749C388.96 352.979 388.82 357.319 388.39 361.599C387.774 368.562 385.659 375.309 382.19 381.379C376.06 391.759 366.08 399.729 354.48 402.669C356.163 406.447 357.405 410.406 358.18 414.469C358.84 417.619 359.34 420.789 359.74 423.979Z" fill="#A97C50"/>
<path d="M283.399 568.329C284.869 571.329 292.669 567.559 294.679 566.429C297.303 564.902 299.751 563.091 301.979 561.029C306.367 557.021 310.483 552.725 314.299 548.169C330.497 529.006 342.124 506.409 348.299 482.089C351.379 470.131 353.097 457.863 353.419 445.519C353.729 433.519 353.359 420.519 349.529 409.009C347.529 403.009 344.109 397.199 338.339 394.089C333.549 391.509 327.939 390.929 322.609 390.459C312.739 389.579 302.729 389.079 294.959 382.279C283.899 392.685 272.485 402.712 260.719 412.359C260.094 412.945 259.425 413.483 258.719 413.969C256.009 415.849 252.719 412.089 254.219 409.659C236.635 413.726 218.625 415.656 200.579 415.409C199.595 415.433 198.666 414.959 198.109 414.149C164.439 415.269 129.939 415.669 97.6388 405.239C97.798 406.304 97.4205 407.38 96.6303 408.112C95.84 408.844 94.739 409.139 93.6888 408.899C91.2852 408.316 88.9286 407.554 86.6388 406.619C86.4388 408.219 86.2287 409.799 86.1888 411.369C86.0383 416.147 86.3396 420.928 87.0887 425.649C88.6273 434.903 91.4442 443.899 95.4587 452.379C98.3562 458.749 101.803 464.856 105.759 470.629C106.43 470.562 107.099 470.777 107.605 471.223C108.112 471.668 108.41 472.305 108.429 472.979L108.489 474.289L109.439 475.499C114.939 482.159 121.189 486.259 128.749 490.179C131.749 491.739 129.609 496.259 126.519 495.479C119.719 493.749 113.809 489.649 108.709 484.389C108.414 500.404 106.209 516.327 102.139 531.819C99.6319 541.586 96.4441 551.167 92.5988 560.489C89.5087 568.009 85.5987 575.289 83.7188 583.209C103.439 583.749 119.019 568.849 127.849 552.109C132.849 542.679 136.319 532.469 139.269 522.239C141.899 513.139 143.099 503.659 145.399 494.509C142.769 493.309 140.249 492.039 137.859 490.729C135.749 489.559 137.199 486.099 139.499 486.839L147.259 489.359C148.049 488.638 149.163 488.392 150.183 488.713C151.203 489.035 151.975 489.875 152.209 490.919C156.469 492.219 160.759 493.409 165.099 494.319C174.729 496.319 183.419 495.849 193.029 494.319C196.949 493.679 198.539 499.009 194.689 500.319C193.579 500.699 192.439 501.009 191.309 501.319C192.139 509.949 190.429 519.109 188.789 527.579C187.017 536.645 184.499 545.548 181.259 554.199C178.332 561.937 174.891 569.47 170.959 576.749C169.809 578.899 168.179 580.149 170.799 581.479C172.449 582.319 174.929 581.689 176.599 581.349C180.397 580.523 184.088 579.265 187.599 577.599C219.789 562.599 231.379 527.329 241.839 496.119C241.874 495.637 242.033 495.172 242.299 494.769C242.349 494.599 242.399 494.439 242.459 494.279C242.888 493.08 243.95 492.22 245.213 492.05C246.475 491.88 247.727 492.427 248.459 493.469C255.749 493.209 263.029 492.909 270.319 492.769L284.319 492.509C286.999 492.509 289.969 492.049 292.499 493.109C297.929 495.399 297.089 503.299 297.179 508.019C297.286 515.096 296.811 522.17 295.759 529.169C296.054 530.018 295.928 530.957 295.419 531.699L295.319 531.869C294.258 538.182 292.71 544.404 290.689 550.479C289.629 553.659 288.429 556.789 287.129 559.879C286.699 560.859 282.949 567.439 283.399 568.329Z" fill="#A97C50"/>
<path fill-rule="evenodd" clip-rule="evenodd" d="M228.088 326.329C227.338 334.179 221.838 339.659 213.718 339.499C205.598 339.339 198.188 334.389 192.418 329.179C187.35 324.509 182.931 319.182 179.278 313.339C177.556 310.639 176.061 307.789 174.565 304.937L174.565 304.937C173.169 302.276 171.772 299.613 170.188 297.069C170.853 296.392 171.435 295.595 172.004 294.817C172.427 294.237 172.843 293.668 173.278 293.169C175.563 290.582 178.044 288.175 180.698 285.969C181.119 285.614 181.544 285.261 181.971 284.906C186.457 281.171 191.102 277.306 192.828 271.489C194.338 266.379 193.448 260.689 189.248 257.129C185.195 253.687 179.003 253.007 173.653 252.419C172.785 252.324 171.939 252.231 171.128 252.129L170.776 252.081C161.17 250.788 140.805 248.047 138.888 261.589C138.028 267.649 141.428 272.699 145.538 276.789C147.262 278.506 149.081 280.12 150.904 281.739C151.862 282.589 152.821 283.441 153.768 284.309C154.456 284.939 155.348 285.64 156.309 286.394C159.189 288.656 162.688 291.404 163.168 294.209C163.196 294.349 163.236 294.486 163.288 294.619C163.132 295.335 163.213 296.082 163.518 296.749C163.429 297.125 163.339 297.502 163.25 297.879L163.248 297.891C161.766 304.164 160.267 310.51 156.128 315.629C151.408 321.419 144.458 324.999 137.838 328.169C130.398 331.719 122.378 335.069 113.978 334.949C110.088 334.982 106.247 334.08 102.779 332.319C99.5686 330.559 94.4886 325.409 99.2686 322.109C100.176 321.573 100.729 320.593 100.718 319.54C100.708 318.486 100.136 317.518 99.2183 317C98.3004 316.482 97.176 316.493 96.2686 317.029C87.9186 321.229 90.7586 331.719 97.0886 336.339C105.829 342.709 117.748 342.219 127.608 339.129C129.998 338.389 132.428 337.529 134.848 336.569C134.548 354.489 148.558 375.179 166.668 376.879C175.918 377.749 184.668 372.949 190.208 365.759C195.486 358.699 198.361 350.133 198.408 341.319C205.798 345.489 214.958 347.759 223.008 344.129C229.808 341.069 235.858 333.369 233.398 325.649C232.965 324.436 231.746 323.688 230.469 323.852C229.192 324.015 228.201 325.046 228.088 326.329ZM162.939 284.709C161.37 283.261 159.793 281.831 158.218 280.402C155.777 278.187 153.339 275.976 150.939 273.709C147.559 270.489 141.989 264.509 146.159 259.809C149.244 256.325 157.39 257.074 162.343 257.53L162.343 257.53C162.863 257.578 163.348 257.623 163.789 257.659C169.461 258.012 175.091 258.876 180.609 260.239C186.609 261.879 188.519 266.669 185.379 272.139C183.546 275.327 180.559 277.706 177.649 280.022L177.649 280.022C176.653 280.815 175.667 281.6 174.739 282.409C172.985 283.926 171.315 285.538 169.739 287.239C169.526 287.47 169.106 288.075 168.609 288.79L168.609 288.79C168.289 289.25 167.937 289.757 167.589 290.239C166.723 288.203 164.989 286.602 163.212 284.961L163.212 284.961L162.939 284.709ZM166.329 370.579C174.569 371.629 182.179 366.839 186.569 360.039C190.107 354.548 190.719 348.879 191.351 343.022C191.563 341.049 191.779 339.054 192.109 337.039C186.649 332.698 181.837 327.6 177.819 321.899C174.84 317.844 172.146 313.587 169.759 309.159C169.628 310.89 169.457 312.623 169.285 314.357C168.932 317.93 168.579 321.507 168.579 325.089C168.517 331.339 169.491 337.221 170.487 343.231C170.774 344.962 171.062 346.704 171.329 348.469C171.719 351.049 168.239 353.029 166.809 350.369C163.049 343.419 162.459 334.759 162.459 326.979C162.449 323.619 162.519 320.149 162.749 316.669C161.191 319.19 159.285 321.479 157.089 323.469C151.986 327.902 146.258 331.558 140.089 334.319C140.263 335.166 140.432 336.008 140.599 336.844C141.95 343.584 143.236 350.003 146.999 356.319C151.229 363.419 157.849 369.499 166.329 370.579Z" fill="#231F20"/>
<path d="M219.86 268.199C225.63 272.429 230.91 276.849 234.86 282.919C238.81 288.989 239.861 295.099 242.181 301.689C242.588 302.985 243.871 303.8 245.218 303.617C246.565 303.434 247.584 302.307 247.631 300.949C248.061 293.309 243.691 284.609 239.33 278.559C234.81 272.279 228.89 266.909 221.67 263.979C219.03 262.909 217.93 266.779 219.86 268.199Z" fill="#231F20"/>
<path d="M93.9696 303.689C95.7154 297.364 99.1115 291.618 103.81 287.039C108.5 282.469 113.98 280.439 119.7 277.599C121.8 276.549 120.84 272.929 118.48 273.109C103.91 274.229 92.4796 289.179 89.8696 302.519C89.3396 305.219 93.2396 306.359 93.9696 303.689Z" fill="#231F20"/>
<path fill-rule="evenodd" clip-rule="evenodd" d="M85.4615 231.458C90.7348 233.258 94.6488 237.733 95.7315 243.198C98.3615 256.868 82.0015 261.728 73.1615 253.378C67.2715 247.818 68.2715 237.168 74.6915 233.298C77.4615 230.798 81.8215 230.288 85.4615 231.458ZM83.7115 246.718C84.79 245.805 85.55 244.572 85.8815 243.198V243.238C86.3553 241.682 86.042 239.992 85.0415 238.708C84.8221 238.463 84.5736 238.244 84.3015 238.058C83.7957 237.822 83.266 237.641 82.7215 237.518C81.9486 237.461 81.1916 237.759 80.6644 238.327C80.1372 238.895 79.897 239.672 80.0115 240.438C80.1253 241.681 79.3915 242.845 78.2215 243.278C78.7115 245.938 80.8115 248.878 83.7115 246.718Z" fill="#231F20"/>
<path fill-rule="evenodd" clip-rule="evenodd" d="M271.28 245.558C271.71 256.908 257.98 263.768 249.28 256.148C245.22 252.598 244.32 246.808 245.44 241.718C245.391 241.387 245.391 241.05 245.44 240.718C246.54 233.778 254.43 230.448 260.76 232.088C266.854 233.767 271.128 239.24 271.28 245.558ZM261.8 246.348C262.2 242.948 259.05 239.438 255.72 239.148V239.108C252.88 240.938 252.57 247.578 255.42 249.638C257.8 251.348 261.49 248.998 261.8 246.348Z" fill="#231F20"/>
<path d="M122.461 250.979C133.453 242.709 146.6 237.792 160.321 236.819C174.391 235.879 186.321 239.569 199.131 244.739C202.131 245.949 203.471 241.479 201.191 239.849C189.551 231.549 172.711 229.389 158.811 230.909C144.424 232.376 130.831 238.214 119.861 247.639C118.061 249.189 120.461 252.439 122.461 250.979Z" fill="#231F20"/>
<path d="M216.337 252.699C217.095 252.694 217.808 252.338 218.267 251.735C218.727 251.133 218.882 250.351 218.687 249.619C218.137 247.999 216.807 247.229 215.448 246.319C214.328 245.559 213.158 244.889 212.028 244.149C209.848 242.749 207.229 246.049 209.228 247.789C210.228 248.669 211.228 249.589 212.228 250.459C213.458 251.509 214.628 252.619 216.337 252.699Z" fill="#231F20"/>
<path d="M117.561 229.109C125.561 226.229 134.301 224.689 142.071 221.279C144.151 220.369 143.141 216.719 140.891 216.949C132.281 217.809 123.831 221.949 116.001 225.399C113.911 226.319 115.401 229.889 117.561 229.109Z" fill="#231F20"/>
<path d="M160.942 218.529C171.162 220.299 181.262 222.139 191.102 225.529C201.392 229.049 210.242 234.789 220.102 239.099C222.622 240.199 225.722 237.099 223.292 234.959C215.472 227.959 204.292 223.579 194.412 220.219C183.922 216.649 172.662 214.219 161.532 214.269C159.152 214.269 158.462 218.099 160.942 218.529Z" fill="#231F20"/>
<path fill-rule="evenodd" clip-rule="evenodd" d="M279.89 559.839C279.594 560.492 279.262 561.151 278.926 561.815C277.949 563.754 276.943 565.746 276.72 567.839C276.21 572.649 279.64 575.489 284.17 575.839C297.17 576.729 307.85 565.299 315.84 556.539C346.09 523.389 363.98 475.719 360.37 430.339C372.3 431.339 385.07 421.849 392.04 413.229C401.53 401.519 405.23 386.389 405.49 371.549C405.727 363.454 404.954 355.362 403.19 347.459C402.12 342.929 399.54 332.939 393.54 332.759C388.05 332.599 385.12 340.519 383.96 344.819C382.915 348.7 382.59 352.688 382.264 356.677V356.677C382.01 359.791 381.756 362.905 381.16 365.969C378.16 381.469 366.28 392.749 351.77 397.629C348.394 392.228 343.296 388.124 337.3 385.979C332.626 384.324 327.35 383.973 322.059 383.621C314.049 383.088 306.008 382.553 299.98 377.489C305.593 372.109 311.11 366.639 316.53 361.079C316.534 363.469 316.745 365.855 317.16 368.209C317.68 371.209 321.72 371.109 323.16 368.989C331.55 356.546 337.577 342.664 340.94 328.039C342.157 329.894 343.237 331.836 344.17 333.849C345.6 336.849 350.36 335.299 350.32 332.189C349.963 301.4 344.8 270.855 335.02 241.659C337.277 242.559 339.321 243.921 341.02 245.659C343.52 248.189 347.07 245.519 346.55 242.439C343.827 226.096 337.605 210.534 328.31 196.819C326.385 194.085 324.305 191.464 322.08 188.969C341.87 167.439 352.34 139.299 355.41 110.389C357.12 93.2086 356.69 75.8828 354.13 58.8087C353.135 50.7967 351.136 42.9418 348.18 35.4287C346.553 31.577 344.675 27.8357 342.56 24.2287C342.293 23.767 342.03 23.2876 341.764 22.8026L341.764 22.8021L341.763 22.8017L341.763 22.8011L341.763 22.8002L341.762 22.7995C340.387 20.2916 338.928 17.6314 336.34 16.4587C336.233 16.4131 336.123 16.3763 336.01 16.3487C335.18 15.2664 333.767 14.809 332.46 15.1987C327.87 16.7587 325.63 20.2587 323.68 24.5187C321.2 29.9287 318.68 35.3187 315.94 40.5887C310.281 51.379 303.886 61.7669 296.8 71.6787C283.14 90.7987 266.8 107.449 249.05 122.679C239.23 119.679 229.2 117.109 219.38 114.609C204.752 110.779 189.862 108.031 174.83 106.389C153.23 104.209 129.66 104.869 108.63 111.899C74.33 88.0787 75.1 41.3987 76.69 4.1287C76.6603 2.71375 75.7369 1.47319 74.39 1.0387C73.7091 0.250598 72.6681 -0.127933 71.64 0.0386964C38.2 5.0987 27.32 48.8687 22 76.4387C15.2319 111.636 16.5174 147.909 25.76 182.539C22.677 185.749 20.2545 189.534 18.63 193.679C18.1758 195.348 19.1537 197.072 20.82 197.539L26.46 199.039C9.57012 221.495 0.29913 248.761 0 276.859C0 279.439 3.47 281.089 5.29 279.049L8.04 275.979C2.57555 301.453 6.66858 328.047 19.54 350.699C20.79 352.879 24.86 352.699 25.31 349.939C25.7941 346.92 26.5608 343.954 27.6 341.079C33.2973 364.739 46.2309 386.034 64.6 401.999C65.7357 403.051 67.4655 403.129 68.6912 402.183C69.917 401.237 70.2801 399.544 69.55 398.179C68.7641 396.52 68.1412 394.788 67.69 393.009C71.4743 397.403 75.9952 401.105 81.05 403.949C80.6774 406.412 80.4637 408.898 80.41 411.389C80.2294 416.095 80.4804 420.808 81.16 425.469C82.7227 435.863 85.8057 445.971 90.31 455.469C93.8424 463.43 98.2067 470.995 103.33 478.039C102.42 496.579 100.21 514.859 95.33 532.839C92.6815 542.608 89.3397 552.175 85.33 561.469C84.8354 562.612 84.334 563.746 83.8346 564.876C80.7994 571.742 77.8346 578.449 76.89 586.049C76.67 587.859 78.53 589.049 80.04 589.199C101.94 591.589 120.67 577.009 131.37 559.049C137.03 549.539 140.97 539.049 144.29 528.509L144.5 527.842C147.547 518.186 150.915 507.51 151.98 497.179C162.93 501.299 175.07 503.709 186.34 502.179C185.712 505.686 185.285 509.227 184.859 512.769L184.859 512.769C184.368 516.843 183.877 520.916 183.08 524.939C181.408 533.397 179.112 541.72 176.21 549.839C173.273 557.976 169.723 565.879 165.59 573.479C163.29 577.739 161.38 582.579 166.13 585.959C170.53 589.099 176.56 587.839 181.35 586.499C188.116 584.564 194.529 581.563 200.35 577.609C211.95 569.799 221.23 558.959 228.29 546.969C237.05 532.069 242.85 515.449 247.92 498.969C250.668 498.969 253.413 498.995 256.159 499.022H256.16H256.16H256.161H256.162H256.163C259.691 499.057 263.219 499.091 266.75 499.069C266.418 501.213 266.287 503.441 266.157 505.659C266.018 508.043 265.879 510.415 265.49 512.659C264.459 518.594 262.851 524.415 260.69 530.039C259.25 533.769 257.429 537.289 255.608 540.808C254.71 542.543 253.812 544.279 252.96 546.039C252.757 546.463 252.522 546.926 252.273 547.418L252.272 547.42C250.682 550.557 248.491 554.88 249.96 557.949C253.96 566.329 268.48 557.309 273.04 554.289C277.638 551.248 281.919 547.753 285.82 543.859C285.548 544.797 285.249 545.729 284.951 546.658L284.95 546.66C284.829 547.036 284.708 547.412 284.59 547.787C284.557 547.892 284.524 547.996 284.491 548.101C284.474 548.155 284.457 548.209 284.44 548.264L284.406 548.375C284.384 548.446 284.362 548.518 284.34 548.589C283.056 552.414 281.57 556.17 279.89 559.839ZM382.23 381.379C385.699 375.309 387.814 368.562 388.43 361.599C388.584 360.196 388.698 358.787 388.813 357.377C389.047 354.486 389.282 351.592 389.86 348.749C390.254 346.616 390.926 344.545 391.86 342.589C392.263 341.794 392.728 341.031 393.25 340.309C393.438 341.373 394.109 342.6 394.774 343.814C395.315 344.801 395.851 345.78 396.12 346.659C396.795 348.932 397.306 351.252 397.65 353.599C398.37 358.346 398.761 363.137 398.82 367.939C398.98 377.209 397.9 386.539 394.62 395.259C391.712 403.115 386.783 410.066 380.33 415.409C377.116 418.06 373.496 420.177 369.61 421.679C367.453 422.485 365.237 422.903 363.02 423.321L363.019 423.321L363.019 423.321L363.019 423.321L363.018 423.322L363.018 423.322C361.937 423.526 360.855 423.73 359.78 423.979C359.38 420.789 358.88 417.619 358.26 414.469C357.484 410.406 356.243 406.447 354.56 402.669C366.12 399.729 376.1 391.759 382.23 381.379ZM342.36 38.0387C340.738 34.2122 338.922 30.4707 336.92 26.8287C336.323 32.2682 334.496 37.6159 332.723 42.8063L332.723 42.8065L332.723 42.8082L332.722 42.8089L332.722 42.8101L332.721 42.8118C332.386 43.7932 332.053 44.769 331.73 45.7387C328.363 56.0254 324.74 66.222 320.86 76.3287C314.267 93.5554 306.97 110.472 298.97 127.079C296.763 131.665 294.503 136.225 292.19 140.759C291.928 141.269 291.606 141.831 291.265 142.422L291.265 142.423C289.434 145.607 287.098 149.669 291.07 151.449C292.873 152.252 294.791 152.669 296.694 153.082C299.955 153.79 303.174 154.488 305.7 157.109C307.92 159.389 308.72 162.419 309.05 165.509L309.085 165.83L309.112 166.075C309.58 170.336 309.964 173.84 312.55 177.509C314.11 179.729 315.83 181.819 317.6 183.869C336.31 163.189 346.21 136.079 348.88 108.479C350.359 92.3821 349.98 76.1686 347.75 60.1587C346.841 52.597 345.032 45.1709 342.36 38.0387ZM27.46 81.7887C30.16 66.0387 34.21 50.0387 40.82 35.4587C46.36 23.2287 54.77 12.5587 67.04 7.4587C59.9 18.9187 57.04 32.4587 55.75 45.8987C53.4481 70.9312 57.8451 96.1256 68.49 118.899C69.0312 120.065 69.779 121.331 70.5545 122.644C72.186 125.405 73.9399 128.374 74.15 131.059C74.1858 131.492 74.2311 131.834 74.2678 132.112C74.3351 132.62 74.3733 132.909 74.27 133.132C74.1344 133.425 73.7549 133.605 72.8771 134.022L72.8 134.059C71.8573 134.399 70.8623 134.572 69.86 134.569C68.7438 134.652 67.6167 134.575 66.4872 134.498C65.4513 134.427 64.4133 134.356 63.38 134.409C53.4754 134.953 51.824 142.689 50.1329 150.612C49.1809 155.072 48.2164 159.591 45.76 162.919C42.4505 167.401 38.2891 171.012 34.1521 174.602L34.1514 174.603L34.1512 174.603L34.1509 174.604C33.1382 175.482 32.127 176.36 31.13 177.249C23.2429 146.036 21.9927 113.515 27.46 81.7887ZM83.3566 397.959L83.39 397.979H83.34L83.3566 397.959ZM86.72 398.499C86.3522 396.819 84.2945 396.868 83.3566 397.959C76.1602 393.754 70.3284 387.564 66.56 380.129C64.99 377.059 61.03 378.929 60.7 381.719C60.3933 384.269 60.3765 386.845 60.65 389.399C45.3438 373.075 35.3201 352.512 31.89 330.399C31.46 327.599 27.44 327.539 26.16 329.659C24.1538 332.969 22.5174 336.491 21.28 340.159C10.2634 316.438 8.97821 289.346 17.7 264.689C18.7 261.789 14.54 259.419 12.52 261.689L6.65 268.269C8.54712 243.056 18.0921 219.023 34.01 199.379C35.43 197.629 35.07 194.839 32.64 194.189L26.09 192.439C29.2162 186.674 34.3769 182.364 39.517 178.072C43.0255 175.142 46.5244 172.22 49.36 168.849C53.1566 164.465 55.6202 159.087 56.46 153.349C56.5704 152.63 56.6561 151.876 56.7434 151.109C57.0121 148.747 57.2959 146.251 58.36 144.229C60.1957 140.725 63.8763 140.923 67.3603 141.11C68.4503 141.168 69.521 141.226 70.51 141.169C75.35 140.889 81.11 138.239 81.51 132.759C81.7223 129.845 80.2683 127.3 78.8634 124.841C78.6142 124.405 78.3665 123.971 78.13 123.539C76.13 119.799 74.21 115.949 72.53 112.019C65.78 96.1195 62.128 79.0777 61.77 61.8087C61.46 46.9287 62.86 29.8687 69.71 16.0387C68.85 51.7187 72.05 91.8487 102.15 114.369C98.6011 115.822 95.1446 117.492 91.8 119.369C89.8 120.469 91.15 123.849 93.36 123.069C119.721 113.536 147.916 110.17 175.78 113.229C190.528 114.972 205.128 117.8 219.46 121.689C226.005 123.401 232.482 125.431 238.963 127.462C246.749 129.903 254.541 132.345 262.46 134.239C266.66 135.239 268.1 129.399 264.21 127.899C261.27 126.759 258.28 125.699 255.27 124.689C271.198 111.961 285.478 97.2981 297.78 81.0387C304.859 71.8132 311.313 62.125 317.1 52.0387C319.92 47.1254 322.587 42.1254 325.1 37.0387C325.58 36.0574 326.092 34.7313 326.66 33.2621C327.746 30.4493 329.035 27.1124 330.69 24.6687C330.445 30.6376 328.156 36.8532 326.047 42.582C325.404 44.3298 324.777 46.0323 324.23 47.6687C321.19 56.722 317.963 65.722 314.55 74.6687C307.697 92.5287 300.063 110.062 291.65 127.269C289.55 131.555 287.407 135.822 285.22 140.069C285.078 140.347 284.933 140.626 284.788 140.908C283.232 143.91 281.589 147.083 282.22 150.549C283.16 155.759 287.93 157.669 292.54 158.769C293.109 158.902 293.721 159.018 294.35 159.136C296.409 159.525 298.658 159.949 300.22 161.159C302.586 162.997 302.723 166.083 302.856 169.069C302.914 170.387 302.972 171.685 303.22 172.849C304.549 178.964 308.765 183.583 312.911 188.126L312.923 188.14C313.139 188.376 313.355 188.612 313.57 188.849C313.347 189.936 313.643 191.065 314.37 191.903C315.097 192.742 316.172 193.195 317.28 193.129C327.447 205.677 334.683 220.337 338.46 236.039C335.79 234.88 332.936 234.202 330.03 234.039C329.002 234.047 328.037 234.531 327.414 235.348C326.792 236.166 326.584 237.226 326.85 238.219C336.31 264.635 341.869 292.289 343.35 320.309C342.74 319.569 342.12 318.839 341.47 318.129C339.9 316.409 336.38 317.129 335.96 319.589C333.817 332.21 329.628 344.397 323.56 355.669C323.77 354.599 324.02 353.529 324.33 352.449C325.22 349.359 321.13 346.889 318.88 349.279C301.318 367.887 282.722 385.491 263.18 402.009C262.42 401.442 261.438 401.268 260.53 401.539C241.867 406.602 222.607 409.124 203.27 409.039C202.745 408.017 201.654 407.416 200.51 407.519C163.87 408.809 126.27 409.609 91.45 396.359C89.15 395.479 87.11 397.989 87.53 400.119L86.92 399.829C86.87 399.389 86.81 398.939 86.72 398.499ZM268.809 549.206L268.791 549.219C265.694 551.29 261.926 553.81 258.31 554.369C257.792 554.217 257.264 554.1 256.73 554.019C256.89 553.569 257.05 553.119 257.22 552.669C258.226 550.242 259.358 547.868 260.61 545.559C264.724 537.934 267.935 529.856 270.18 521.489L270.225 521.308C271.812 514.971 274.011 506.191 273.08 499.069L280.34 498.999C280.986 498.999 281.684 498.953 282.397 498.906H282.397C283.738 498.818 285.133 498.726 286.34 498.929C290.16 499.589 290.34 500.559 290.55 504.319C290.934 512.884 290.407 521.465 288.98 529.919C283.36 537.039 277.28 543.569 269.63 548.659C269.362 548.836 269.088 549.019 268.809 549.206ZM290.699 550.449C289.639 553.629 288.439 556.759 287.139 559.849C287.034 560.09 286.74 560.65 286.359 561.374C285.146 563.68 283.057 567.654 283.399 568.339C284.869 571.289 292.679 567.569 294.679 566.439C297.303 564.912 299.751 563.101 301.979 561.039C306.354 557.026 310.456 552.727 314.259 548.169C330.458 529.006 342.084 506.409 348.259 482.089C351.34 470.131 353.057 457.863 353.379 445.519C353.689 433.499 353.319 420.519 349.489 409.009C347.479 402.979 344.069 397.199 338.299 394.089C333.509 391.509 327.899 390.929 322.569 390.459C322.007 390.409 321.444 390.36 320.882 390.311C311.566 389.501 302.247 388.691 294.919 382.279C283.853 392.705 272.439 402.732 260.679 412.359C260.054 412.945 259.386 413.483 258.679 413.969C255.969 415.849 252.709 412.089 254.179 409.659C236.596 413.725 218.586 415.656 200.54 415.409C199.556 415.433 198.627 414.959 198.07 414.149C164.4 415.239 129.9 415.669 97.5999 405.239C97.7592 406.304 97.3817 407.38 96.5915 408.112C95.8012 408.844 94.7003 409.139 93.65 408.899C91.2464 408.316 88.8898 407.553 86.6 406.619C86.5651 406.898 86.5286 407.177 86.4922 407.455C86.3203 408.77 86.15 410.073 86.15 411.369C85.9995 416.146 86.3009 420.928 87.05 425.649C88.6012 434.905 91.4316 443.901 95.46 452.379C98.3595 458.756 101.809 464.87 105.77 470.649C106.441 470.582 107.11 470.797 107.616 471.243C108.123 471.688 108.421 472.324 108.44 472.999L108.5 474.309L109.45 475.519C114.95 482.199 121.2 486.279 128.76 490.199C131.77 491.759 129.62 496.279 126.53 495.499C119.72 493.769 113.82 489.669 108.72 484.409C108.425 500.424 106.22 516.346 102.15 531.839C99.6431 541.606 96.4553 551.186 92.61 560.509C91.7239 562.665 90.7687 564.802 89.8131 566.939C87.4363 572.256 85.0566 577.58 83.73 583.229C103.45 583.769 119.03 568.869 127.86 552.129C132.83 542.699 136.28 532.489 139.28 522.259C140.762 517.129 141.79 511.879 142.817 506.636C143.612 502.577 144.406 498.521 145.41 494.529C142.78 493.329 140.26 492.059 137.87 490.749C135.76 489.579 137.21 486.119 139.51 486.859L147.27 489.379C148.06 488.658 149.174 488.412 150.194 488.733C151.214 489.055 151.986 489.895 152.22 490.939C156.48 492.239 160.77 493.429 165.11 494.339C174.74 496.339 183.43 495.879 193.04 494.339C196.96 493.699 198.55 499.029 194.7 500.339C193.59 500.739 192.45 501.049 191.32 501.339C192.15 509.969 190.44 519.129 188.8 527.599C187.028 536.664 184.51 545.568 181.27 554.219C178.343 561.957 174.902 569.49 170.97 576.769C170.745 577.184 170.504 577.567 170.279 577.922C169.342 579.405 168.696 580.426 170.81 581.499C172.297 582.283 174.459 581.824 176.094 581.477C176.272 581.439 176.445 581.402 176.61 581.369C180.408 580.543 184.098 579.285 187.61 577.619C219.52 562.782 231.152 528.067 241.529 497.096L241.849 496.139C241.885 495.657 242.043 495.192 242.309 494.789C242.359 494.619 242.409 494.459 242.469 494.299C242.899 493.1 243.961 492.24 245.223 492.07C246.485 491.9 247.737 492.447 248.469 493.489C249.935 493.436 251.4 493.382 252.864 493.329C258.686 493.114 264.505 492.9 270.329 492.789L284.329 492.529C284.868 492.521 285.418 492.497 285.975 492.474C288.185 492.38 290.488 492.282 292.509 493.129C297.246 495.126 297.211 501.394 297.185 506.095C297.181 506.783 297.178 507.436 297.189 508.039C297.294 515.099 296.819 522.156 295.769 529.139C296.064 529.988 295.938 530.927 295.429 531.669L295.329 531.839C294.268 538.152 292.72 544.374 290.699 550.449Z" fill="#231F20"/>
</svg>
