<svg width="302" height="559" viewBox="0 0 302 559" fill="none" xmlns="http://www.w3.org/2000/svg">
<path d="M29.0086 60.1398C28.2886 55.2898 27.7786 50.4098 27.4086 45.5098C24.8086 45.6198 22.3086 45.2698 19.6486 46.0698C17.7358 46.6539 15.9294 47.5419 14.2986 48.6998C12.2177 56.1332 10.7989 63.7362 10.0586 71.4198C15.1386 65.8598 22.0086 61.2398 29.0086 60.1398Z" fill="#F7941E"/>
<path fill-rule="evenodd" clip-rule="evenodd" d="M283.689 235.8L279.689 236.37C277.409 236.7 275.839 239.81 276.619 241.87C284.669 264.423 289.712 287.939 291.619 311.81L290.879 311.15C287.299 307.96 282.399 311.12 283.189 315.63C284.653 324.038 285.303 332.567 285.129 341.1L283.129 336.32C281.029 331.2 274.239 332.03 273.609 337.61C268.824 380.895 261.69 423.889 252.239 466.4C247.519 487.28 242.329 508.11 236.329 528.66C235.934 530.003 235.567 531.41 235.194 532.837L235.194 532.838C234.235 536.509 233.24 540.32 231.649 543.56L231.55 543.767C230.748 545.454 229.312 548.471 227.489 547.56C226.877 547.261 225.962 544.125 225.471 542.444L225.471 542.444C225.337 541.985 225.235 541.634 225.179 541.48C221.386 530.846 217.589 520.213 213.789 509.58C213.109 507.74 211.299 505.77 209.109 506.01C176.789 509.67 144.399 512.37 111.969 514.8C109.509 514.99 106.679 517.45 107.819 520.24C110.085 525.611 111.671 531.245 112.539 537.01C112.606 537.47 112.698 538.009 112.798 538.597C113.237 541.181 113.838 544.722 113.219 546.75C113.919 548.803 113.316 549.496 111.409 548.83C110.364 547.816 109.474 546.654 108.769 545.38C102.409 536.2 97.4691 525.77 92.8791 515.62C84.7544 497.635 78.4412 478.86 72.1502 460.15L72.1491 460.147C71.1543 457.189 70.16 454.232 69.1591 451.28C54.0791 406.78 38.3691 360.3 35.4291 313.05C35.1791 309.24 29.4291 308.01 28.4291 312.11L27.1991 317.4C19.4891 292.4 17.1691 266.27 21.6491 240.19C22.1191 237.2 18.7591 233.93 16.1191 235.68C18.9066 210.69 28.0925 186.842 42.7891 166.44C44.2591 164.38 42.7391 161.16 40.4191 160.61C39.3317 160.349 38.2246 160.178 37.1091 160.1C64.8491 109.35 125.689 75.6598 183.689 86.2298C201.079 89.3998 218.119 97.1798 228.689 111.91C228.805 112.062 228.932 112.206 229.069 112.34C227.16 114.699 225.045 116.884 222.749 118.87C218.444 121.999 213.83 124.68 208.979 126.87C208.588 127.039 208.172 127.212 207.741 127.391L207.738 127.392L207.735 127.393L207.733 127.394L207.733 127.394C204.5 128.738 200.431 130.429 199.549 133.55C199.062 133.89 198.709 134.388 198.549 134.96C194.439 150.24 199.009 165.75 209.769 177.32C220.859 189.25 238.339 195.17 251.989 183.97C254.565 181.838 256.959 179.496 259.149 176.97C271.356 194.647 279.716 214.689 283.689 235.8ZM31.1191 218.84C25.5991 218.84 25.6091 210.28 31.1191 210.28C36.6291 210.28 36.6291 218.84 31.1191 218.84ZM229.949 270.05C231.165 273.187 231.308 272.695 231.929 270.558L231.929 270.558C232.065 270.093 232.223 269.55 232.419 268.95C233.085 266.805 233.475 264.583 233.579 262.34C233.748 258.331 233.564 254.316 233.029 250.34C233.029 249.783 233.327 249.268 233.81 248.99C234.292 248.711 234.887 248.711 235.369 248.99C237.047 250.163 238.601 251.503 240.009 252.99C240.276 244.749 237.92 236.635 233.279 229.82C232.739 229.03 233.999 228.06 234.599 228.82C241.216 236.651 244.239 246.901 242.929 257.07C242.898 257.779 242.411 258.387 241.726 258.573C241.04 258.758 240.313 258.477 239.929 257.88C238.923 256.474 237.788 255.165 236.539 253.97C237.029 258.97 237.279 264.08 235.979 268.97C235.159 272.04 233.759 276.89 230.129 277.34C229.503 277.342 228.924 277.011 228.609 276.47C227.696 274.715 227.151 272.793 227.009 270.82C226.901 270.051 227.386 269.324 228.137 269.127C228.887 268.93 229.666 269.327 229.949 270.05ZM191.179 219.06L190.869 219.34C189.264 221.018 189.264 223.662 190.869 225.34L191.179 225.62C192.538 226.944 194.552 227.336 196.309 226.62C198.048 225.898 199.184 224.203 199.189 222.32C199.133 220.682 198.263 219.181 196.869 218.32C195.017 217.284 192.705 217.585 191.179 219.06ZM183.469 370.34C184.469 369.89 186.189 370.67 185.639 372.01L185.419 372.55C185.144 373.45 184.212 373.977 183.299 373.75C176.709 371.75 174.089 363.33 173.299 355.99C173.084 357.061 172.954 358.148 172.909 359.24C172.899 359.951 172.371 360.548 171.667 360.645C170.962 360.743 170.292 360.311 170.089 359.63C167.539 352.365 167.164 344.514 169.009 337.04C169.279 335.89 171.009 336.38 170.759 337.52C169.733 342.565 169.801 347.773 170.959 352.79C171.515 351.132 172.274 349.55 173.219 348.08C173.588 347.489 174.3 347.209 174.972 347.391C175.645 347.573 176.119 348.173 176.139 348.87C175.945 352.72 176.374 356.576 177.409 360.29C177.789 361.69 181.889 371.06 183.469 370.35V370.34ZM159.649 190.05C159.233 190.356 158.839 190.69 158.469 191.05L158.509 191.06C156.054 193.702 154.954 197.329 155.529 200.89C156.007 204.54 158.226 207.732 161.483 209.45C164.739 211.167 168.627 211.197 171.909 209.53C179.279 205.71 179.339 195.22 173.649 189.87C170.987 187.382 167.23 186.441 163.709 187.38C162.104 187.811 160.681 188.747 159.649 190.05ZM38.4691 191.82C38.8671 189.07 40.1399 186.52 42.0991 184.55C43.0633 181.883 45.6345 180.139 48.4691 180.23C52.3491 180.23 55.5591 182.89 57.1491 186.28C60.0191 192.39 58.5791 201.8 50.9691 203.51C44.1791 205.05 37.7591 198.49 38.4691 191.83V191.82ZM45.2144 286.356C46.4919 288.634 48.9103 292.947 51.7891 290.75V290.76C52.3238 290.425 52.566 289.772 52.3791 289.17L52.0791 288.43C51.6991 287.5 50.2191 287.26 49.9391 288.43C49.9734 288.281 48.5205 285.735 47.2382 283.487L47.2376 283.486C46.2722 281.794 45.4036 280.272 45.3391 280.07C44.4911 277.01 44.1965 273.823 44.4691 270.66C44.4556 270.245 44.2267 269.867 43.8651 269.662C43.5036 269.458 43.0616 269.457 42.6991 269.66C41.044 270.455 39.6546 271.712 38.6991 273.28C38.4594 268.966 39.1412 264.65 40.6991 260.62C40.7928 260.247 40.6005 259.861 40.2462 259.711C39.8919 259.562 39.4814 259.693 39.2791 260.02C36.4715 265.483 35.6108 271.741 36.8391 277.76C37.0791 279.11 38.7991 278.76 39.2091 277.76C39.8107 276.03 40.7526 274.439 41.9791 273.08C41.7801 277.615 42.8465 282.116 45.0591 286.08C45.1087 286.168 45.1604 286.26 45.2141 286.356L45.2144 286.356ZM66.1891 380.51C65.8602 381.605 65.0536 382.492 63.995 382.923C62.9363 383.354 61.7394 383.283 60.7391 382.73C57.7391 381.19 55.0691 378.2 52.8991 375.68C51.0791 373.55 53.9491 370.59 56.0091 372.57C57.1261 373.64 58.4642 374.453 59.9291 374.95C60.7591 371.63 61.5591 368.3 62.1591 364.95C62.3775 363.711 62.5511 362.461 62.7247 361.21C63.1875 357.879 63.6503 354.546 64.9591 351.42C65.9591 349.09 69.3191 348.69 70.1291 351.42C72.7691 360.41 69.4291 372.05 66.1891 380.52V380.51ZM148.809 465.628C150.145 464.861 150.981 463.45 151.009 461.91C151.037 460.743 151.115 459.534 151.194 458.305L151.194 458.305C151.45 454.319 151.72 450.127 150.359 446.52C149.399 444.08 145.199 442.53 143.869 445.67C142.875 448.185 142.359 450.865 142.349 453.57C139.283 450.838 136.92 447.408 135.459 443.57C135.071 442.216 134 441.166 132.639 440.805C131.277 440.444 129.827 440.826 128.819 441.81C127.467 443.011 126.477 444.566 125.959 446.3C125.836 446.688 125.74 447.447 125.632 448.298C125.415 450.012 125.151 452.096 124.529 452.25C122.279 452.81 120.049 444.9 119.759 443.54C119.164 439.944 118.863 436.305 118.859 432.66C118.689 429.05 114.489 428.31 112.489 430.94C109.08 435.416 106.61 440.535 105.229 445.99C103.201 441.037 104.413 431.605 105.213 425.373L105.214 425.372L105.214 425.371L105.214 425.37L105.214 425.37C105.475 423.337 105.692 421.645 105.739 420.56C105.829 418.61 102.799 417.72 101.899 419.56C97.4291 428.7 91.2091 454.19 106.719 456.63C109.209 457.03 111.439 455.64 111.549 452.95C111.631 450.63 111.966 448.326 112.549 446.08C113.609 451.64 116.019 456.75 121.069 459.15C124.269 460.67 128.059 460.38 130.489 457.6C131.256 456.617 131.778 455.465 132.009 454.24C135.14 459.035 139.433 462.96 144.489 465.65C145.833 466.403 147.473 466.394 148.809 465.628ZM108.579 301.6C109.435 300.72 110.741 300.45 111.876 300.919C113.011 301.389 113.745 302.502 113.729 303.73C113.672 310.895 120.992 314.537 126.671 317.362L126.899 317.475L127.189 317.62L127.409 317.73C128.113 318.078 128.602 318.376 128.948 318.588L128.948 318.588C129.356 318.837 129.565 318.964 129.691 318.908C129.824 318.849 129.866 318.587 129.953 318.053L129.953 318.052C129.996 317.79 130.049 317.462 130.129 317.06C130.295 316.25 130.216 315.305 130.139 314.388V314.388L130.139 314.388L130.139 314.387C130.091 313.81 130.044 313.244 130.059 312.73C130.035 310.802 130.536 308.904 131.509 307.24C131.93 306.536 132.689 306.105 133.509 306.105C134.329 306.105 135.089 306.536 135.509 307.24C139.509 314.59 138.039 327.79 127.069 324.67C120.019 322.67 112.339 317.36 109.189 310.4C107.272 313.024 105.522 315.766 103.949 318.61C102.189 321.73 97.6891 320.16 97.5091 316.86C96.8693 306.016 98.8269 295.175 103.219 285.24C104.219 282.88 107.939 284.61 107.279 286.95C105.556 293.175 104.55 299.576 104.279 306.03C105.634 304.479 107.069 303 108.579 301.6ZM107.849 376.12C107.357 377.233 106.933 378.375 106.579 379.54H106.529C105.607 374.939 106.918 369.322 107.914 365.054L107.916 365.048L107.916 365.046L107.92 365.029C108.013 364.63 108.104 364.243 108.189 363.87C108.273 363.415 107.995 362.973 107.55 362.85C107.104 362.728 106.639 362.967 106.479 363.4C103.969 369.52 101.619 379.38 105.719 385.32C106.379 386.27 108.299 386.37 108.519 384.95C108.531 384.863 108.551 384.78 108.57 384.699C108.6 384.575 108.629 384.453 108.629 384.32C109.666 387.397 110.953 390.384 112.479 393.25C112.739 393.685 113.256 393.893 113.745 393.761C114.234 393.628 114.575 393.186 114.579 392.68C114.477 390.081 113.592 387.787 112.7 385.473C111.673 382.81 110.635 380.12 110.769 376.91C110.849 375.43 108.489 374.68 107.849 376.12ZM157.009 273.15C154.328 266.749 151.991 260.21 150.009 253.56C138.649 252.963 127.344 251.569 116.179 249.39C109.259 248.12 102.049 246.64 94.8991 244.75C92.2966 248.504 89.5459 252.169 86.7957 255.834L86.7956 255.834L86.7951 255.835C85.3186 257.802 83.8423 259.769 82.3891 261.75C80.7291 264.01 76.4891 264.24 75.8091 260.89L75.7175 260.439L75.6519 260.116C74.2545 253.25 72.5412 244.831 74.1791 237.74C69.1262 235.59 64.2823 232.979 59.7091 229.94C58.9087 229.436 58.5908 228.427 58.9582 227.556C59.3255 226.685 60.27 226.208 61.1891 226.43C68.2258 228.259 75.1178 230.433 81.9989 232.604C93.2087 236.139 104.389 239.666 116.119 241.68C125.521 243.268 135.013 244.27 144.539 244.68C149.505 244.916 154.47 244.832 159.432 244.747C164.353 244.664 169.27 244.581 174.179 244.81C178.109 244.99 179.339 251.16 175.179 251.96C173.889 252.21 172.579 252.42 171.259 252.61C171.33 253.077 171.33 253.552 171.259 254.02C170.319 260.96 167.659 267.83 164.729 274.15C163.009 277.83 158.169 276.09 157.009 273.15ZM209.279 480.07C209.099 481.49 211.209 482.24 212.099 481.24C220.449 471.76 224.869 459.3 222.679 446.62C222.509 445.6 220.899 445.86 220.899 446.86C220.979 457.08 218.589 466.72 212.839 474.95C212.75 472.584 212.394 470.236 211.779 467.95C211.563 467.256 210.921 466.783 210.194 466.783C209.467 466.783 208.825 467.256 208.609 467.95C205.699 475.92 202.349 482.59 196.269 488.59C195.059 489.79 196.689 492.09 198.149 491.03C203.659 487.01 206.939 480.95 209.509 474.7C209.585 476.493 209.508 478.29 209.279 480.07ZM221.939 430.04C217.819 434.94 212.379 434.47 208.069 429.93C204.602 426.037 201.565 421.783 199.009 417.24C197.719 422.54 195.109 426.63 188.809 422.43C183.755 418.94 179.635 414.263 176.809 408.81C175.439 412.67 174.179 416.57 172.999 420.49C172.605 421.834 171.537 422.874 170.183 423.232C168.829 423.59 167.386 423.214 166.379 422.24C158.179 414.09 158.549 402.66 161.079 392.14C161.789 389.2 166.149 389.96 166.209 392.83C166.229 393.799 166.236 394.778 166.243 395.763C166.279 400.773 166.316 405.913 168.029 410.46C169.689 405.92 171.519 401.46 173.499 397.04C174.869 394.04 179.369 395.17 180.199 397.91C181.365 401.898 183.227 405.649 185.699 408.99C186.749 410.4 189.499 414.09 191.959 415.68C192.468 413.566 192.645 410.873 192.797 408.566C192.884 407.248 192.962 406.057 193.089 405.17C193.599 401.56 198.499 401.87 200.149 404.25C201.536 406.254 202.936 408.243 204.335 410.229L204.338 410.233C206.427 413.201 208.513 416.164 210.549 419.17C210.689 419.376 210.907 419.764 211.175 420.241L211.175 420.242C212.077 421.848 213.547 424.468 214.549 424.63C216.814 425.009 218.434 421.828 219.446 419.839C219.61 419.518 219.757 419.229 219.889 418.99C222.128 414.868 223.669 410.405 224.449 405.78C224.889 403.272 224.934 400.748 224.978 398.228C225.021 395.824 225.063 393.422 225.449 391.04C225.859 388.68 229.749 388.15 230.729 390.36C235.939 402.13 229.849 420.68 221.939 430.06V430.04ZM259.779 324.21C263.619 319.96 263.979 313 264.089 307.57V307.59C264.209 301.63 263.219 295.98 258.839 291.6C256.259 289.04 251.199 291.6 252.479 295.29C254.313 300.332 254.996 305.72 254.479 311.06C254.461 311.244 254.444 311.453 254.425 311.679C254.221 314.123 253.843 318.636 250.969 317.52C250.289 317.254 249.72 316.648 249.125 316.015C248.442 315.288 247.726 314.526 246.769 314.2C239.999 311.92 237.519 318.42 236.469 325.2C233.922 321.961 231.134 318.919 228.129 316.1C227.371 315.376 226.225 315.242 225.32 315.771C224.415 316.3 223.97 317.364 224.229 318.38C226.239 326.52 231.519 333.48 236.789 339.83C238.839 342.3 243.929 341.13 244.389 337.83C244.624 336.17 244.854 334.51 245.084 332.851C245.402 330.562 245.719 328.274 246.049 325.99L246.549 326.37C250.779 329.21 256.519 327.83 259.779 324.21Z" fill="#603913"/>
<path d="M156.869 253.67C158.189 256.1 159.429 258.55 160.629 261.04C161.419 258.53 162.139 256.04 162.879 253.45C160.889 253.57 158.879 253.65 156.869 253.67Z" fill="white"/>
<path d="M80.7685 245.53C80.8785 247.28 81.0585 249.01 81.2885 250.73C83.2085 247.98 85.1285 245.22 87.1185 242.52C84.8885 241.82 82.6685 241.06 80.4785 240.26C80.6185 242.02 80.6585 243.79 80.7685 245.53Z" fill="white"/>
<path d="M47.8284 195.76C51.5784 197.09 51.3684 188.4 47.9284 188.45C47.1605 188.993 46.5191 189.696 46.0484 190.51C45.4595 191.416 45.3184 192.543 45.6655 193.566C46.0126 194.59 46.8096 195.398 47.8284 195.76Z" fill="white"/>
<path d="M35.1178 85.1597C33.8172 81.7963 32.735 78.3525 31.8778 74.8497C30.8778 70.9997 30.1578 67.1297 29.5078 63.2297C25.9378 64.4597 22.3478 65.4897 18.9678 67.5297C15.5613 69.6451 12.4623 72.2193 9.75778 75.1797C9.01565 86.0916 9.61344 97.0533 11.5378 107.82C16.4678 97.8697 25.5478 88.4697 35.1178 85.1597Z" fill="#F7941E"/>
<path d="M48.6085 106.48C43.4093 101.184 39.2506 94.9599 36.3485 88.1298C30.7385 91.9198 25.1385 94.9898 20.4785 100.3C17.3094 104.043 14.6218 108.168 12.4785 112.58C14.4416 121.69 17.3299 130.576 21.0985 139.1C23.6785 132.55 29.2985 126.26 33.0485 121.46C37.2385 116.1 42.4485 110.17 48.6085 106.48Z" fill="#F7941E"/>
<path d="M59.1785 118.59C60.1785 117.66 61.1785 116.76 62.2285 115.86C58.3826 114.144 54.7974 111.895 51.5785 109.18C45.5278 113.061 40.1279 117.874 35.5785 123.44C31.0585 129.09 25.4285 135.64 22.7285 142.72C24.9267 147.338 27.3771 151.831 30.0685 156.18C37.6458 142.139 47.4804 129.439 59.1785 118.59Z" fill="#F7941E"/>
<path d="M39.629 398.9C39.449 408.9 39.249 418.9 40.149 428.9C40.989 438.18 43.149 447.71 48.689 455.38C48.549 457.94 48.5823 457.786 48.789 454.92C48.919 453.4 49.069 451.92 49.239 450.38C49.439 448.53 49.669 446.68 49.909 444.83C50.649 439.27 51.129 433.26 53.099 427.95C48.519 413.4 44.209 398.76 40.479 383.95C40.139 388.99 39.729 394.01 39.629 398.9Z" fill="#754C29"/>
<path d="M277.309 382.57C276.229 389.59 275.099 396.59 273.919 403.57C272.346 412.903 270.662 422.206 268.869 431.48C270.869 435.33 272.059 439.48 273.379 443.74C274.269 446.62 275.129 449.5 275.969 452.4C276.319 453.62 277.199 459.4 278.679 459.84C279.219 461.04 279.549 460.59 279.679 458.51C280.039 457.08 280.389 455.64 280.679 454.19C281.319 451.31 281.859 448.4 282.289 445.48C283.145 439.617 283.623 433.704 283.719 427.78C283.918 415.956 282.673 404.152 280.009 392.63C279.289 389.39 278.299 386.01 277.309 382.57Z" fill="#754C29"/>
<path d="M167.339 202.68C170.259 202.01 170.179 198.16 168.459 196.24C166.739 194.32 165.169 195.88 163.409 196.68C163.183 197.171 163.047 197.7 163.009 198.24C162.839 200.66 164.659 203.3 167.339 202.68Z" fill="white"/>
<path d="M220.139 130.24C222.379 138.79 224.499 146.54 231.299 153.24C235.019 156.883 239.442 159.731 244.299 161.61C248.529 163.26 253.009 163.38 257.299 164.61C261.331 158.534 264.802 152.104 267.669 145.4C260.139 147.21 251.769 143.4 245.669 139.12C239.569 134.84 233.819 128.77 232.339 121.39C231.06 122.717 229.707 123.973 228.289 125.15C225.749 127.114 223.018 128.819 220.139 130.24H220.139Z" fill="#F7941E"/>
<path d="M277.478 106.24C278.253 98.0247 278.253 89.7549 277.478 81.5398C277.228 78.9098 276.888 76.3298 276.478 73.7798C270.118 76.6398 260.208 74.8798 255.178 70.1498C253.578 78.0472 251.461 85.8307 248.838 93.4498C254.298 102.11 267.158 107.76 277.478 106.24Z" fill="#F7941E"/>
<path d="M275.689 69.4298C273.129 56.6798 268.609 44.7798 263.009 33.0698C262.489 35.2498 262.009 37.3998 261.549 39.4698C260.129 46.4698 258.693 53.4698 257.239 60.4698C256.779 62.6698 256.329 64.8698 255.859 67.0698C259.35 69.7403 263.614 71.2038 268.009 71.2398C270.819 71.2398 273.229 70.2398 275.689 69.4298Z" fill="#F7941E"/>
<path d="M27.2479 42.8598C26.7379 35.1098 26.5679 27.3198 26.5379 19.5398C21.8715 27.6689 18.1155 36.2876 15.3379 45.2398C19.0079 42.8998 23.5179 41.5698 27.2479 42.8598Z" fill="#F7941E"/>
<path d="M216.858 131.97C212.188 134.36 207.568 136.77 203.928 140.7C204.028 156.98 212.678 174.03 228.278 180.25C239.198 184.6 247.358 178.08 253.658 169.7C254.038 169.19 254.398 168.7 254.778 168.15C245.448 168.6 234.568 162.01 228.588 155.98C222.608 149.95 217.348 140.86 216.858 131.97Z" fill="#F7941E"/>
<path d="M269.428 140.9C273.151 131.155 275.696 120.999 277.008 110.65C271.008 111.29 263.848 108.45 259.008 106.41C254.638 104.58 249.768 101.71 247.308 97.5797C247.218 97.7797 247.158 97.9897 247.068 98.1897C244.066 105.698 239.88 112.677 234.668 118.86C239.648 132.8 254.168 144.48 269.428 140.9Z" fill="#F7941E"/>
<path fill-rule="evenodd" clip-rule="evenodd" d="M286.819 244.36C294.974 269.645 299.818 295.88 301.229 322.41C301.449 326.47 296.579 327.87 293.819 325.8C294.888 337.76 294.454 349.807 292.529 361.66C291.929 365.5 285.459 366.39 283.929 362.78L281.119 356.16C281.054 356.66 280.984 357.16 280.914 357.66C280.844 358.16 280.774 358.66 280.709 359.16C282.138 363.546 283.04 368.248 283.935 372.918L283.935 372.92C284.517 375.958 285.097 378.983 285.819 381.9C287.727 389.21 289.259 396.613 290.409 404.08C292.434 418.549 292.343 433.236 290.139 447.68L290.098 447.947C289.08 454.706 285.759 476.738 274.069 467.03C270.327 463.931 269.034 458.754 267.864 454.074C267.634 453.15 267.408 452.245 267.169 451.38C266.885 450.345 266.587 449.307 266.288 448.263L266.285 448.251L266.194 447.934C266.082 447.543 265.97 447.152 265.859 446.76C260.752 471.466 254.842 495.97 248.129 520.27C247.423 522.825 246.777 525.456 246.125 528.108L246.124 528.11C244.493 534.746 242.829 541.517 240.129 547.59C237.699 552.95 232.699 558.9 226.129 557.59C219.621 556.29 217.34 549.069 215.446 543.074C215.082 541.92 214.732 540.812 214.369 539.8C211.522 531.9 208.679 524 205.839 516.1C176.619 519.43 147.279 521.95 117.889 523.16C120.829 532.19 123.169 542.71 121.419 551.66C119.649 560.85 109.959 559.83 104.649 554.32C98.71 548.166 94.4131 539.228 90.61 531.317C90.1736 530.409 89.7437 529.515 89.3186 528.64C84.9986 519.75 81.2486 510.57 77.7786 501.32C70.6641 482.361 64.3987 463.047 58.1485 443.779L58.1484 443.779L58.0286 443.41C57.5686 446.12 57.1386 448.83 56.8886 451.53C56.8026 452.335 56.7586 453.215 56.7128 454.129C56.5138 458.106 56.283 462.716 52.4286 464.53C43.3286 468.81 37.0186 451.33 35.2286 445.42C31.5886 433.35 31.6686 420.37 31.9086 407.89C32.0486 400.39 32.5786 392.96 33.3086 385.49C33.4115 384.425 33.5061 383.351 33.6011 382.272L33.6012 382.271L33.6013 382.269L33.6014 382.268L33.6015 382.267L33.6016 382.266L33.6017 382.265L33.6018 382.264L33.602 382.263L33.6021 382.262L33.6022 382.261C34.0886 376.739 34.5864 371.089 36.2586 365.83C34.0486 355.17 32.2686 344.47 30.7786 333.71C29.1386 335.48 25.5386 335.6 24.5386 333.15C13.777 307.192 9.65282 278.961 12.5386 251.01C10.2686 251.62 7.46855 249.71 7.53856 247.24C8.29958 219.497 16.566 192.479 31.4586 169.06C30.2052 169.578 28.7732 169.416 27.6679 168.63C26.5627 167.843 25.9396 166.544 26.0186 165.19C25.783 164.973 25.5717 164.732 25.3886 164.47C-8.72145 116.04 -6.68144 50.7298 27.1686 2.83977C29.4786 -0.460231 35.2286 0.469769 35.1686 5.01977L35.1573 5.85472C34.8802 26.4137 34.5996 47.2346 38.3686 67.5298C40.0886 76.8098 42.4686 86.3198 47.6386 94.3198C51.9981 100.983 58.1043 105.011 64.3865 109.155L64.3868 109.155L64.3871 109.155L64.3912 109.158C65.4711 109.871 66.5562 110.586 67.6386 111.32C90.3634 92.9527 117.807 81.366 146.819 77.8898C177.119 74.3998 214.329 80.3898 232.819 107.15C235.488 102.99 237.736 98.5752 239.529 93.9698C243.774 83.205 246.08 71.7673 248.369 60.4111L248.369 60.411C248.668 58.9286 248.966 57.4477 249.269 55.9698C250.715 48.9498 252.172 41.9498 253.639 34.9698C253.939 33.5554 254.208 32.1083 254.479 30.6498L254.479 30.649L254.479 30.6481L254.479 30.6472L254.479 30.6463C255.094 27.3418 255.719 23.9796 256.739 20.8098L256.669 20.6798C254.559 16.7798 258.669 13.5998 261.889 14.9598C263.531 15.3134 264.777 16.6557 265.009 18.3198C276.839 35.7798 283.559 57.8398 286.009 78.5298C288.333 97.8828 286.453 117.51 280.499 136.07C276.929 147.06 271.879 159.15 264.879 169.44C265.487 169.802 266.012 170.289 266.419 170.87C280.694 190.865 289.898 214.029 293.239 238.37C293.679 241.56 292.069 243.66 288.889 244.09L286.819 244.36ZM261.539 39.4098C260.125 46.4231 258.689 53.4231 257.229 60.4098V60.4498C256.769 62.6498 256.319 64.8498 255.879 67.0698C259.364 69.7362 263.62 71.1994 268.009 71.2398C270.497 71.2398 272.671 70.4558 274.844 69.6722C275.126 69.5708 275.407 69.4694 275.689 69.3698C273.129 56.6198 268.609 44.7198 262.999 33.0098L262.872 33.5393C262.395 35.5378 261.924 37.5076 261.539 39.4098ZM255.179 70.1398C260.179 74.8698 270.119 76.6298 276.479 73.7698C276.899 76.3198 277.239 78.8998 277.479 81.5298C278.254 89.7449 278.254 98.0147 277.479 106.23C267.159 107.72 254.299 102.07 248.839 93.4398C251.459 85.8338 253.577 78.0637 255.179 70.1798V70.1398ZM247.129 97.9348C247.091 98.0373 247.054 98.1398 247.009 98.2398C243.999 105.765 239.798 112.758 234.569 118.95C239.599 132.85 254.119 144.53 269.379 140.95C273.099 131.204 275.64 121.049 276.949 110.7C270.949 111.34 263.829 108.46 258.949 106.46C254.579 104.63 249.709 101.76 247.249 97.6298C247.204 97.7298 247.166 97.8323 247.129 97.9348ZM245.569 139.17C251.699 143.4 260.069 147.26 267.569 145.45C264.702 152.154 261.231 158.584 257.199 164.66C255.459 164.175 253.685 163.868 251.906 163.56C249.317 163.112 246.717 162.661 244.199 161.66C239.342 159.781 234.919 156.933 231.199 153.29C224.399 146.58 222.279 138.83 220.039 130.29C222.888 128.855 225.588 127.14 228.099 125.17C229.517 123.993 230.869 122.737 232.149 121.41C233.729 128.77 239.399 134.85 245.579 139.12L245.569 139.17ZM254.509 168.523C254.595 168.407 254.681 168.289 254.769 168.17L254.779 168.15C245.449 168.6 234.499 161.94 228.579 155.99C222.659 150.04 217.339 140.88 216.849 131.99C212.179 134.38 207.559 136.79 203.919 140.72C204.019 157 212.669 174.05 228.269 180.27C239.189 184.62 247.349 178.1 253.649 169.72C253.941 169.296 254.222 168.914 254.509 168.523ZM26.5386 19.5398C26.5386 27.3198 26.7386 35.1098 27.2486 42.8598C23.5186 41.5698 18.9786 42.8598 15.3386 45.2598C18.1148 36.3007 21.8708 27.6752 26.5386 19.5398ZM19.6686 46.0698C17.7557 46.6539 15.9493 47.5419 14.3186 48.6998C12.2208 56.1316 10.7852 63.7347 10.0286 71.4198C15.1386 65.8598 22.0286 61.1998 29.0286 60.1398C28.3086 55.2898 27.7986 50.4098 27.4286 45.5098C26.6854 45.5412 25.9503 45.5351 25.2174 45.5289C23.3862 45.5136 21.5682 45.4984 19.6686 46.0698ZM9.75855 75.1798C12.4753 72.2164 15.588 69.6421 19.0086 67.5298C21.8608 65.842 24.884 64.8166 27.8858 63.7983L27.8858 63.7983L27.8859 63.7983L27.886 63.7983C28.4413 63.6099 28.9959 63.4218 29.5486 63.2298C30.1986 67.1298 30.9686 70.9998 31.9186 74.8498C32.7758 78.3525 33.858 81.7963 35.1586 85.1598C25.5886 88.4698 16.5086 97.8698 11.5786 107.82C9.64084 97.055 9.02962 86.0933 9.75855 75.1798ZM20.4686 100.3C17.2994 104.043 14.6118 108.168 12.4686 112.58C14.4271 121.697 17.3121 130.589 21.0786 139.12C23.2173 133.69 27.4452 128.439 30.965 124.067L30.965 124.067L30.9654 124.067C31.6915 123.165 32.3873 122.301 33.0286 121.48C37.2286 116.1 42.4386 110.17 48.5986 106.48C43.3993 101.184 39.2406 94.9599 36.3386 88.1298C35.2158 88.8883 34.0935 89.6179 32.979 90.3424L32.9785 90.3428C28.5244 93.2385 24.1958 96.0526 20.4686 100.3ZM30.0986 156.18C27.4071 151.831 24.9567 147.338 22.7586 142.72C25.1816 136.366 29.9646 130.439 34.1872 125.206L34.1885 125.205L34.1908 125.202C34.6721 124.605 35.1462 124.018 35.6086 123.44C40.158 117.874 45.5578 113.061 51.6086 109.18C54.8274 111.895 58.4126 114.144 62.2586 115.86C61.8853 116.196 61.505 116.532 61.123 116.869C60.4816 117.436 59.8353 118.007 59.2086 118.59C47.5104 129.439 37.6759 142.139 30.0986 156.18ZM49.2386 450.39C49.4386 448.54 49.6686 446.69 49.9086 444.84C50.0296 443.924 50.1437 442.997 50.2585 442.064C50.8455 437.296 51.4508 432.379 53.0986 427.98C48.4786 413.42 44.2086 398.78 40.4786 383.98C40.4144 384.927 40.3478 385.873 40.2812 386.819L40.2812 386.82L40.2811 386.821C39.9948 390.89 39.7097 394.943 39.6286 398.91L39.6189 399.446C39.4418 409.267 39.2646 419.088 40.1486 428.91C40.9886 438.19 43.1486 447.72 48.6886 455.39C48.5419 457.956 48.5752 457.803 48.7886 454.93C48.9186 453.39 49.0686 451.9 49.2386 450.39ZM283.759 427.84C283.662 433.764 283.185 439.677 282.329 445.54C281.899 448.46 281.329 451.37 280.719 454.25C280.511 455.188 280.292 456.123 280.073 457.053L280.071 457.062C279.952 457.566 279.834 458.068 279.719 458.57C279.579 460.65 279.249 461.1 278.719 459.9C277.538 459.517 276.739 455.788 276.287 453.675C276.172 453.139 276.079 452.707 276.009 452.46C275.169 449.56 274.309 446.68 273.419 443.8C273.326 443.501 273.235 443.203 273.144 442.906C273.082 442.704 273.02 442.502 272.959 442.3L272.959 442.3C271.816 438.561 270.709 434.937 268.909 431.54C270.695 422.26 272.379 412.956 273.959 403.63C275.139 396.63 276.269 389.63 277.349 382.63L277.545 383.305L277.545 383.305C278.478 386.512 279.395 389.662 280.059 392.69C282.717 404.206 283.96 416.003 283.759 427.82V427.84ZM283.149 315.65C282.359 311.17 287.259 307.98 290.839 311.17L291.479 311.87C289.572 287.999 284.528 264.483 276.479 241.93C275.749 239.87 277.319 236.76 279.599 236.43L283.599 235.86C279.625 214.749 271.265 194.707 259.059 177.03C256.869 179.556 254.474 181.898 251.899 184.03C238.249 195.23 220.769 189.31 209.679 177.38C198.919 165.8 194.369 150.24 198.479 135.01C198.638 134.438 198.992 133.94 199.479 133.6C200.36 130.479 204.429 128.788 207.662 127.444C208.096 127.264 208.515 127.09 208.909 126.92C213.759 124.73 218.374 122.049 222.679 118.92C224.974 116.934 227.089 114.749 228.999 112.39C228.862 112.256 228.735 112.112 228.619 111.96C218.089 97.2298 201.049 89.4498 183.619 86.2798C125.589 75.7098 64.7786 109.4 37.0386 160.15C38.154 160.229 39.2611 160.399 40.3486 160.66C42.6686 161.21 44.1886 164.43 42.7186 166.49C28.0219 186.892 18.836 210.74 16.0486 235.73C18.6886 233.98 22.0986 237.24 21.5786 240.24C17.1286 266.32 19.4186 292.45 27.1286 317.45L28.3586 312.16C29.3586 308.1 35.1186 309.29 35.3586 313.1C38.2986 360.33 54.0086 406.83 69.0886 451.33C70.0897 454.283 71.0844 457.241 72.0796 460.201C78.3706 478.91 84.6838 497.685 92.8086 515.67C97.3986 525.82 102.339 536.25 108.699 545.43C109.404 546.704 110.293 547.866 111.339 548.88C113.245 549.58 113.849 548.886 113.149 546.8C113.768 544.772 113.166 541.231 112.727 538.647C112.627 538.059 112.535 537.52 112.469 537.06C111.624 531.295 110.061 525.658 107.819 520.28C106.679 517.49 109.509 515.03 111.969 514.84C144.399 512.41 176.789 509.71 209.109 506.05C211.299 505.81 213.139 507.78 213.789 509.62C217.589 520.26 221.385 530.893 225.179 541.52C225.234 541.674 225.337 542.025 225.471 542.484C225.961 544.165 226.876 547.301 227.489 547.6C229.293 548.473 230.718 545.524 231.525 543.855C231.568 543.766 231.609 543.681 231.649 543.6C233.24 540.36 234.235 536.549 235.194 532.878C235.566 531.45 235.934 530.044 236.329 528.7C242.359 508.15 247.519 487.32 252.239 466.44C261.677 423.921 268.798 380.921 273.569 337.63C274.199 332.05 280.989 331.22 283.089 336.34L285.089 341.12C285.262 332.587 284.612 324.058 283.149 315.65Z" fill="#231F20"/>
<path fill-rule="evenodd" clip-rule="evenodd" d="M57.1891 186.29C60.0091 192.4 58.6191 201.81 51.0091 203.52C44.1791 205.05 37.7591 198.49 38.5091 191.83C38.907 189.079 40.1798 186.53 42.1391 184.56C43.1032 181.892 45.6744 180.149 48.5091 180.24C52.3891 180.23 55.5991 182.9 57.1891 186.29ZM47.9691 188.46C47.2012 189.003 46.5598 189.705 46.0891 190.52L46.0091 190.51C45.419 191.428 45.2866 192.567 45.6504 193.595C46.0141 194.624 46.8332 195.427 47.8691 195.77C51.6191 197.1 51.4091 188.41 47.9691 188.46Z" fill="#231F20"/>
<path fill-rule="evenodd" clip-rule="evenodd" d="M173.688 189.83C179.378 195.18 179.318 205.67 171.948 209.49C168.658 211.158 164.763 211.123 161.504 209.394C158.245 207.665 156.031 204.459 155.568 200.8C154.995 197.258 156.079 193.65 158.508 191.01C158.878 190.65 159.272 190.316 159.688 190.01C160.72 188.707 162.143 187.771 163.748 187.34C167.269 186.401 171.026 187.342 173.688 189.83ZM163.398 196.71C163.179 197.193 163.047 197.711 163.008 198.24C162.838 200.66 164.658 203.3 167.328 202.71C170.248 202.04 170.158 198.18 168.448 196.27C167.069 194.73 165.775 195.439 164.403 196.191C164.073 196.372 163.739 196.555 163.398 196.71Z" fill="#231F20"/>
<path d="M191.179 225.69C192.538 227.014 194.552 227.406 196.309 226.69C198.048 225.968 199.183 224.273 199.189 222.39C199.133 220.752 198.262 219.251 196.869 218.39C195.016 217.354 192.704 217.655 191.179 219.13L190.869 219.41C189.218 221.097 189.218 223.793 190.869 225.48L191.179 225.69Z" fill="#231F20"/>
<path d="M31.1187 210.24C25.6087 210.24 25.5987 218.8 31.1187 218.8C36.6387 218.8 36.6387 210.24 31.1187 210.24Z" fill="#231F20"/>
<path fill-rule="evenodd" clip-rule="evenodd" d="M164.679 274.16C167.609 267.84 170.269 260.97 171.209 254.03C171.279 253.562 171.279 253.087 171.209 252.62C172.529 252.43 173.839 252.22 175.129 251.97C179.329 251.17 178.129 244.97 174.129 244.82C169.219 244.591 164.302 244.674 159.382 244.758H159.381C154.42 244.842 149.454 244.926 144.489 244.69C134.962 244.28 125.471 243.278 116.069 241.69C104.302 239.652 93.1381 236.135 81.949 232.609C75.0702 230.441 68.182 228.271 61.1387 226.44C60.2195 226.218 59.2751 226.695 58.9077 227.566C58.5404 228.437 58.8583 229.446 59.6587 229.95C64.2318 232.989 69.0757 235.6 74.1287 237.75C72.4886 244.85 74.2085 253.291 75.6069 260.154L75.7587 260.9C76.4387 264.25 80.6787 264.02 82.3387 261.76C83.6737 259.95 85.0293 258.148 86.3866 256.344L86.3867 256.344C89.259 252.526 92.1392 248.698 94.8487 244.76C101.999 246.65 109.209 248.13 116.129 249.4C127.311 251.578 138.632 252.968 150.009 253.56C151.991 260.21 154.328 266.749 157.009 273.15C158.169 276.09 163.009 277.83 164.679 274.16ZM81.2887 250.73C81.0587 249.01 80.8787 247.28 80.7687 245.53C80.7232 244.806 80.6897 244.081 80.6562 243.355C80.6085 242.325 80.5608 241.292 80.4787 240.26C82.6687 241.06 84.8887 241.82 87.1187 242.52C85.1287 245.24 83.2087 247.98 81.2887 250.73ZM162.869 253.45C160.869 253.57 158.869 253.67 156.869 253.67C158.189 256.1 159.429 258.55 160.619 261.04C161.284 258.926 161.9 256.798 162.519 254.656C162.636 254.255 162.752 253.852 162.869 253.45Z" fill="#231F20"/>
<path d="M103.219 285.24C98.8338 295.153 96.873 305.968 97.4985 316.79C97.6785 320.09 102.179 321.66 103.939 318.54C105.511 315.696 107.262 312.954 109.179 310.33C112.329 317.33 120.008 322.59 127.059 324.6C138.059 327.72 139.499 314.52 135.499 307.17C135.078 306.466 134.318 306.035 133.499 306.035C132.679 306.035 131.919 306.466 131.499 307.17C130.526 308.834 130.025 310.732 130.049 312.66C130.049 314.02 130.389 315.66 130.118 316.99C129.589 319.62 130.229 319.06 127.399 317.66C121.639 314.82 113.659 311.18 113.719 303.66C113.734 302.432 113 301.319 111.865 300.85C110.731 300.38 109.425 300.65 108.569 301.53C107.044 302.939 105.596 304.428 104.229 305.99C104.499 299.536 105.506 293.135 107.229 286.91C107.939 284.64 104.239 282.91 103.219 285.24Z" fill="#231F20"/>
<path d="M225.479 391.07C224.649 395.95 225.299 400.91 224.479 405.81C223.699 410.435 222.158 414.898 219.919 419.02C218.969 420.74 217.209 425.1 214.579 424.66C213.279 424.45 211.189 420.1 210.579 419.2C207.169 414.2 203.639 409.26 200.179 404.28C198.529 401.9 193.629 401.59 193.119 405.2C192.769 407.64 192.789 412.39 191.989 415.71C189.529 414.12 186.779 410.43 185.729 409.02C183.257 405.679 181.395 401.928 180.229 397.94C179.399 395.2 174.899 394.03 173.529 397.07C171.529 401.49 169.719 405.95 168.059 410.49C166.009 405.05 166.359 398.76 166.239 392.86C166.179 389.99 161.819 389.23 161.109 392.17C158.579 402.69 158.209 414.12 166.409 422.27C167.415 423.244 168.858 423.62 170.212 423.262C171.567 422.904 172.635 421.864 173.029 420.52C174.209 416.6 175.469 412.7 176.839 408.84C179.664 414.293 183.785 418.97 188.839 422.46C195.139 426.66 197.749 422.57 199.039 417.27C201.595 421.809 204.632 426.06 208.099 429.95C212.409 434.49 217.849 434.95 221.969 430.06C229.879 420.68 235.969 402.13 230.789 390.39C229.779 388.18 225.889 388.71 225.479 391.07Z" fill="#231F20"/>
<path d="M252.509 295.36C254.342 300.402 255.025 305.79 254.509 311.13C254.299 313.31 254.139 318.81 250.999 317.59C249.539 317.02 248.589 314.88 246.799 314.27C240.029 311.95 237.549 318.45 236.499 325.27C233.951 322.031 231.163 318.989 228.159 316.17C227.4 315.446 226.255 315.312 225.35 315.841C224.445 316.37 224 317.434 224.259 318.45C226.259 326.59 231.549 333.55 236.819 339.9C238.869 342.36 243.959 341.19 244.419 337.9C244.979 333.95 245.509 330 246.079 326.06L246.579 326.44C250.769 329.32 256.579 327.9 259.809 324.28C263.649 320.03 264.009 313.07 264.119 307.64C264.239 301.64 263.249 296.03 258.899 291.72C256.289 289.11 251.229 291.67 252.509 295.36Z" fill="#231F20"/>
<path d="M143.808 445.72C142.813 448.235 142.298 450.915 142.288 453.62C139.222 450.888 136.859 447.458 135.398 443.62C135.01 442.266 133.939 441.216 132.577 440.855C131.216 440.494 129.765 440.876 128.758 441.86C127.405 443.061 126.415 444.616 125.898 446.35C125.528 447.52 125.398 452.07 124.468 452.3C122.218 452.86 119.988 444.95 119.698 443.59C119.103 439.994 118.802 436.355 118.798 432.71C118.628 429.1 114.438 428.36 112.428 430.99C109.018 435.466 106.549 440.585 105.168 446.04C102.478 439.47 105.488 425.04 105.678 420.61C105.768 418.61 102.738 417.73 101.838 419.61C97.3677 428.75 91.1477 454.24 106.658 456.68C109.148 457.08 111.378 455.68 111.488 453C111.569 450.68 111.905 448.376 112.488 446.13C113.548 451.69 115.958 456.8 121.008 459.2C124.208 460.72 128.008 460.43 130.428 457.65C131.224 456.658 131.766 455.488 132.008 454.24C135.148 459.035 139.452 462.957 144.518 465.64C145.861 466.393 147.502 466.384 148.838 465.618C150.174 464.851 151.009 463.44 151.038 461.9C151.148 456.95 152.158 451.23 150.318 446.56C149.338 444.13 145.138 442.58 143.808 445.72Z" fill="#231F20"/>
<path d="M65.008 351.41C63.248 355.71 63.008 360.41 62.208 364.94C61.608 368.31 60.808 371.64 59.978 374.94C58.5131 374.443 57.175 373.63 56.058 372.56C53.998 370.56 51.128 373.56 52.948 375.67C55.118 378.19 57.818 381.18 60.788 382.72C61.7883 383.273 62.9852 383.344 64.0438 382.913C65.1025 382.482 65.9091 381.595 66.238 380.5C69.478 372.03 72.818 360.39 70.178 351.39C69.318 348.68 65.908 349.08 65.008 351.41Z" fill="#231F20"/>
<path d="M52.4194 289.24L52.1194 288.5C51.7394 287.57 50.2594 287.33 49.9794 288.5C50.0394 288.24 45.5294 280.61 45.3794 280.14C44.5313 277.08 44.2367 273.893 44.5094 270.73C44.4958 270.315 44.2669 269.937 43.9053 269.732C43.5438 269.528 43.1019 269.527 42.7394 269.73C41.0842 270.525 39.6949 271.782 38.7394 273.35C38.4997 269.036 39.1815 264.72 40.7394 260.69C40.833 260.317 40.6407 259.931 40.2864 259.781C39.9321 259.632 39.5216 259.763 39.3194 260.09C36.5117 265.553 35.651 271.811 36.8794 277.83C37.1194 279.18 38.8794 278.83 39.2494 277.83C39.8509 276.1 40.7928 274.509 42.0194 273.15C41.8203 277.685 42.8867 282.186 45.0994 286.15C46.3294 288.33 48.8094 293.15 51.8294 290.82C52.3596 290.486 52.6012 289.839 52.4194 289.24Z" fill="#231F20"/>
<path d="M230.119 277.38C233.749 276.93 235.119 272.08 235.969 269.01C237.269 264.13 237.019 259.01 236.529 254.01C237.778 255.205 238.913 256.514 239.919 257.92C240.303 258.518 241.03 258.798 241.716 258.613C242.401 258.428 242.888 257.82 242.919 257.11C244.229 246.942 241.206 236.691 234.589 228.86C233.989 228.12 232.729 229.09 233.269 229.86C237.919 236.683 240.28 244.807 240.009 253.06C238.601 251.573 237.047 250.233 235.369 249.06C234.887 248.781 234.292 248.781 233.81 249.06C233.327 249.338 233.029 249.853 233.029 250.41C233.564 254.386 233.748 258.401 233.579 262.41C233.475 264.653 233.085 266.875 232.419 269.02C231.319 272.38 231.419 273.94 229.949 270.12C229.711 269.324 228.88 268.863 228.078 269.084C227.277 269.304 226.798 270.123 226.999 270.93C227.141 272.903 227.685 274.826 228.599 276.58C228.931 277.094 229.507 277.397 230.119 277.38Z" fill="#231F20"/>
<path d="M176.088 348.87C176.068 348.173 175.594 347.573 174.922 347.391C174.249 347.209 173.537 347.489 173.168 348.08C172.223 349.55 171.464 351.132 170.908 352.79C169.75 347.773 169.682 342.565 170.708 337.52C170.928 336.38 169.228 335.89 168.958 337.04C167.101 344.515 167.466 352.369 170.008 359.64C170.211 360.321 170.881 360.753 171.586 360.655C172.29 360.558 172.818 359.961 172.828 359.25C172.873 358.158 173.003 357.071 173.218 356C174.048 363.34 176.668 371.76 183.218 373.76C184.132 373.987 185.063 373.46 185.338 372.56L185.558 372.02C186.108 370.68 184.408 369.9 183.388 370.35C181.808 371.06 177.708 361.69 177.278 360.29C176.27 356.572 175.868 352.716 176.088 348.87Z" fill="#231F20"/>
<path d="M106.429 363.4C103.919 369.52 101.569 379.4 105.669 385.32C106.329 386.27 108.249 386.37 108.469 384.95C108.469 384.73 108.539 384.54 108.579 384.32C109.615 387.397 110.903 390.384 112.429 393.25C112.688 393.685 113.206 393.893 113.695 393.761C114.183 393.628 114.524 393.186 114.529 392.68C114.309 387.09 110.469 382.89 110.719 376.91C110.779 375.43 108.439 374.68 107.799 376.12C107.307 377.233 106.883 378.375 106.529 379.54C105.529 374.54 107.189 368.27 108.139 363.87C108.222 363.416 107.944 362.973 107.499 362.85C107.054 362.728 106.589 362.967 106.429 363.4Z" fill="#231F20"/>
<path d="M220.898 446.92C220.978 457.14 218.588 466.78 212.838 475.01C212.749 472.644 212.393 470.296 211.778 468.01C211.562 467.316 210.92 466.843 210.193 466.843C209.466 466.843 208.824 467.316 208.608 468.01C205.698 476.01 202.348 482.64 196.268 488.65C195.058 489.85 196.688 492.15 198.148 491.09C203.658 487.09 206.938 481.01 209.508 474.76C209.584 476.553 209.507 478.35 209.278 480.13C209.088 481.55 211.208 482.31 212.098 481.3C220.448 471.8 224.868 459.3 222.678 446.72C222.508 445.66 220.888 445.92 220.898 446.92Z" fill="#231F20"/>
</svg>
