<svg width="434" height="589" viewBox="0 0 434 589" fill="none" xmlns="http://www.w3.org/2000/svg">
<path fill-rule="evenodd" clip-rule="evenodd" d="M169.479 129.583C193.389 108.543 229.289 105.433 254.479 126.073C267.139 136.453 274.279 150.683 276.109 166.813C278.069 184.183 277.719 203.053 272.009 219.703C261.229 251.163 226.309 267.683 194.879 257.913C177.452 252.375 162.84 240.315 154.099 224.253C146.469 210.253 144.089 195.533 144.779 180.253C146.409 161.213 154.009 143.173 169.479 129.583ZM182.269 193.203C189.909 209.933 221.759 211.663 229.419 193.933C236.969 176.453 231.059 144.243 206.769 145.533C200.327 145.816 194.506 149.461 191.439 155.133C181.169 164.503 176.349 180.203 182.269 193.203Z" fill="white"/>
<path d="M211.85 154.893C211.806 155.543 211.427 156.122 210.85 156.423C205.33 159.053 200.2 163.423 199.48 169.873C199.316 171.334 199.4 172.811 199.73 174.243C200.127 174.69 200.589 175.074 201.1 175.383C204.54 177.443 209.91 175.503 212.88 173.523C219.57 169.003 220.49 158.003 211.85 154.893Z" fill="white"/>
<path fill-rule="evenodd" clip-rule="evenodd" d="M366.021 66.0533C380.061 71.9633 386.171 87.8933 391.121 101.133C397.351 117.763 403.031 134.573 407.921 151.663C417.181 183.983 423.541 217.123 425.301 250.713C421.458 248.032 417.389 245.69 413.141 243.713C411.834 243.003 410.232 243.129 409.053 244.036C407.874 244.942 407.34 246.458 407.691 247.903C412.931 276.203 416.621 305.333 412.931 334.073C409.861 358.003 400.751 380.153 390.591 401.793C389.331 400.066 387.715 398.63 385.851 397.583C383.551 396.283 381.121 397.563 380.251 399.863C366.541 436.233 324.121 458.133 286.541 448.943C286.389 448.913 286.235 448.893 286.081 448.883C284.858 446.302 283.622 443.727 282.386 441.153L282.384 441.15L282.384 441.149C276.189 428.245 269.997 415.349 265.571 401.703C264.571 398.633 263.671 395.543 262.831 392.433C280.801 395.473 300.881 388.113 312.121 373.953C323.191 360.023 328.901 333.403 312.721 320.723C304.608 314.365 293.377 313.166 283.386 312.1L283.377 312.099L282.979 312.056C282.688 312.025 282.399 311.994 282.111 311.963C268.391 310.463 254.571 310.433 240.791 310.563L238.976 310.58H238.975C212.039 310.828 185.311 311.074 159.071 303.993C148.803 301.224 138.697 297.886 128.801 293.993C128.198 293.348 127.342 293 126.461 293.043C117.837 289.577 109.411 285.637 101.221 281.243C97.6227 277.308 93.4727 273.916 88.9006 271.173C83.8706 268.113 77.4506 264.463 71.3206 265.513C57.8506 267.813 52.2706 286.583 50.6506 297.983C46.7606 325.383 61.7506 353.333 87.2906 364.333C83.7533 378.613 81.8313 393.245 81.5606 407.953C47.7605 390.752 23.9806 358.699 17.3206 321.363C17.18 320.571 16.7268 319.868 16.063 319.413C15.3992 318.958 14.5804 318.789 13.7906 318.943C0.721544 269.732 7.69042 217.347 33.1706 173.263C33.841 172.051 33.7285 170.557 32.8841 169.458C32.0398 168.36 30.6245 167.867 29.2806 168.203L17.0906 171.343C43.8197 108.683 94.2316 59.1261 157.341 33.4733C178.801 24.8333 201.821 18.2633 225.141 18.9733C227.551 20.1433 230.971 17.5533 229.201 14.7233C227.681 12.2948 225.958 9.9999 224.051 7.86328C229.174 8.98869 234.088 10.9157 238.611 13.5733C240.11 14.4436 241.547 15.371 242.971 16.2894L242.971 16.2897C247.322 19.0966 251.543 21.8198 256.991 22.5733C261.602 23.1993 266.31 22.9379 271.004 22.6772C273.883 22.5173 276.757 22.3577 279.601 22.4033C287.372 22.5152 295.123 23.2408 302.781 24.5733C329.796 29.2833 355.097 41.0196 376.141 58.6033L367.021 59.0533C362.711 59.2533 362.401 64.5333 366.021 66.0533ZM36.7706 195.413C26.6306 205.403 20.6506 220.253 19.3006 234.253C19.2406 234.903 20.2906 235.033 20.4206 234.413C23.5806 220.033 29.6806 208.363 38.0006 196.363C38.5106 195.613 37.3906 194.803 36.7706 195.413ZM55.206 255.8L55.2059 255.8C51.7721 259.004 48.3295 262.215 45.4406 265.893C38.9506 274.163 34.3006 283.663 33.6106 294.263C33.3906 297.633 28.2906 297.693 28.3106 294.263C28.3906 283.573 32.1706 273.443 38.3106 264.743C44.4506 256.043 52.7506 246.253 62.0306 241.083C64.1306 239.873 67.3106 242.473 65.6806 244.753C62.6861 248.822 58.9513 252.307 55.206 255.8ZM89.1607 166.375L89.1612 166.374C90.0034 164.97 90.8485 163.56 91.6806 162.133C91.901 161.755 91.8057 161.271 91.458 161.005C91.1103 160.738 90.6188 160.772 90.3106 161.083C79.0106 172.413 73.9406 190.383 73.7706 206.013C73.7606 207.073 75.2906 207.013 75.3906 206.013C76.0383 198.117 77.7712 190.347 80.5406 182.923C82.7897 177 85.9544 171.722 89.1607 166.375ZM100.107 146.193L100.106 146.193C99.3813 147.042 98.6545 147.893 98.0106 148.803C96.5513 150.956 95.2158 153.189 94.0106 155.493C93.767 155.875 93.2839 156.026 92.8664 155.85C92.449 155.675 92.2185 155.224 92.3206 154.783C93.6806 149.983 96.9406 143.783 101.461 141.333C101.844 141.167 102.29 141.256 102.579 141.557C102.869 141.858 102.941 142.307 102.761 142.683H102.791C102.032 143.939 101.071 145.064 100.107 146.193ZM130.68 144.966C132.299 142.72 133.918 140.474 135.301 138.033H135.271C135.858 136.933 135.659 135.577 134.779 134.692C133.899 133.808 132.544 133.601 131.441 134.183C119.971 140.993 114.571 158.573 112.671 170.893C110.161 187.253 112.821 203.593 117.161 219.383C118.071 222.713 122.931 221.303 122.281 217.973C119.401 203.213 117.151 187.753 119.401 172.753C120.311 166.469 122.095 160.344 124.701 154.553C126.304 151.036 128.492 148.001 130.68 144.966L130.68 144.966ZM272.731 236.973C253.511 267.643 212.781 276.773 181.091 260.973C153.261 247.113 135.911 216.123 137.561 185.383C138.151 157.383 152.331 129.913 177.091 115.013C206.661 97.2233 245.451 101.903 268.301 128.423C281.131 143.323 284.541 161.613 284.981 180.803C285.421 199.993 283.141 220.373 272.731 236.973ZM385.181 144.273C382.581 134.563 378.781 125.643 372.001 118.123C371.521 117.573 370.561 118.303 370.991 118.983C377.001 127.273 380.291 137.083 382.681 146.983C383.526 150.449 384.192 154.017 384.861 157.602C386.157 164.537 387.464 171.536 390.101 177.983C390.451 178.853 391.861 178.843 391.861 177.743C391.524 167.673 388.652 157.083 385.977 147.218L385.977 147.218L385.977 147.217L385.968 147.187L385.953 147.13C385.693 146.17 385.434 145.218 385.181 144.273ZM386.601 192.793C386.453 193.277 386.007 193.608 385.501 193.608C384.995 193.608 384.548 193.277 384.401 192.793C383.93 191.337 383.685 189.808 383.441 188.282C383.292 187.345 383.142 186.41 382.941 185.493C382.382 183.072 381.616 180.703 380.651 178.413C380.181 177.273 381.981 176.633 382.581 177.603C385.201 181.903 387.681 187.663 386.601 192.793ZM308.311 229.993C307.331 233.223 311.851 234.893 313.601 232.223H313.681C322.201 219.123 324.511 201.143 324.011 185.803C323.548 169.723 319.098 154.009 311.061 140.073C309.331 137.063 304.951 139.703 306.461 142.763C313.184 156.47 316.783 171.498 317.001 186.763C317.203 200.952 313.386 213.415 309.341 226.622C308.998 227.74 308.654 228.863 308.311 229.993ZM379.911 380.723C377.841 382.543 373.821 380.833 374.911 377.803C377.251 371.203 378.911 365.803 378.091 358.683C377.116 351.771 375.461 344.971 373.151 338.383C368.711 324.853 361.261 311.563 348.301 304.653C345.231 303.013 347.931 298.653 350.991 300.053C366.141 307.053 374.911 321.053 380.141 336.453C384.261 348.503 391.561 370.493 379.951 380.723H379.911ZM397.141 320.513C397.281 321.703 399.181 322.243 399.441 320.823H399.481C403.061 300.723 395.061 277.463 384.781 260.423C384.517 260.025 383.987 259.902 383.574 260.144C383.162 260.386 383.011 260.908 383.231 261.333C387.816 270.501 391.314 280.173 393.651 290.153C395.224 296.896 395.731 303.603 396.241 310.354C396.495 313.726 396.751 317.109 397.141 320.513Z" fill="#00AEEF"/>
<path d="M310.499 330.823C310.763 330.728 311.039 330.667 311.319 330.643C309.969 328.539 308.169 326.759 306.049 325.433C300.259 321.843 292.779 320.433 285.449 319.753C288.759 331.183 299.679 334.943 310.499 330.823Z" fill="white"/>
<path d="M68.5589 274.323C60.0389 281.473 57.4089 296.193 57.3789 306.683C57.3789 328.913 70.2989 346.893 89.2689 357.073C94.1414 340.111 101.766 324.064 111.839 309.573C109.687 309.487 107.553 309.151 105.479 308.573C97.9889 306.413 95.4789 300.803 95.3589 294.413C88.8748 296.1 81.9835 294.193 77.2889 289.413C73.0189 284.943 72.2289 276.923 75.9589 272.293C73.3162 271.893 70.6275 272.63 68.5589 274.323Z" fill="#231F20"/>
<path d="M96.3607 285.883C91.1972 282.862 86.2577 279.473 81.5807 275.743C76.6807 284.113 91.1307 293.023 96.3607 285.883Z" fill="white"/>
<path d="M260.891 384.473C271.891 385.753 282.761 385.273 292.891 379.963C303.048 374.701 310.545 365.435 313.571 354.403C315.238 348.532 315.344 342.328 313.881 336.403C313.659 336.645 313.399 336.847 313.111 337.003C301.601 343.063 288.441 338.523 281.911 328.513C279.151 333.723 275.091 337.903 268.481 338.513C264.067 338.888 259.707 337.33 256.531 334.243C255.78 351.105 257.246 367.993 260.891 384.473Z" fill="#231F20"/>
<path d="M118.079 301.373C118.999 300.246 119.943 299.133 120.909 298.033C114.739 295.423 108.639 292.603 102.729 289.453C101.839 294.453 101.559 299.933 107.359 301.773C110.829 302.873 114.969 303.133 118.079 301.373Z" fill="white"/>
<path fill-rule="evenodd" clip-rule="evenodd" d="M249.819 318.153C247.035 340.267 247.974 362.69 252.599 384.493C257.279 406.483 266.529 426.593 276.199 446.793C285.869 466.993 295.639 487.933 297.199 510.623C298.659 531.823 292.909 553.523 276.659 568.043C260.081 582.858 236.87 581.637 215.917 580.536C215.131 580.495 214.349 580.453 213.569 580.413C201.519 579.783 189.489 577.883 178.339 573.083C168.459 568.833 159.319 562.863 150.609 556.603C131.509 542.883 118.899 525.413 109.509 504.013C99.809 482.205 93.4056 459.075 90.5094 435.383C85.2094 389.623 95.7994 344.583 122.289 307.383C124.003 306.31 125.246 304.627 125.769 302.673C126.269 301.983 126.759 301.323 127.269 300.673C129.329 301.507 131.389 302.323 133.449 303.123C147.788 308.749 162.675 312.858 177.869 315.383C170.619 333.133 167.509 353.133 166.099 372.133C164.659 391.363 164.569 412.333 169.749 431.053C170.649 434.253 175.879 433.713 175.649 430.253C175.363 426.155 175.033 422.082 174.705 418.021C173.497 403.094 172.303 388.34 173.309 373.183C174.496 354.95 178.561 337.634 182.702 319.994C182.995 318.749 183.287 317.502 183.579 316.253C189.519 317.067 195.519 317.617 201.579 317.903C212.566 318.43 223.562 318.33 234.558 318.23C239.645 318.184 244.733 318.138 249.819 318.153ZM186.468 492.118C190.798 500.628 195.299 509.477 201.859 516.493V516.483C203.949 518.713 206.829 515.883 205.809 513.503C203.5 508.173 200.574 503.143 197.649 498.114C195.8 494.935 193.952 491.757 192.259 488.503C187.889 480.103 184.009 471.483 180.259 462.813C178.989 459.823 173.989 461.953 174.989 465.033C178.128 474.26 181.931 483.247 186.369 491.923L186.468 492.118Z" fill="#8DC63F"/>
<path d="M270.119 331.303C275.189 329.383 276.869 323.973 278.369 319.213C276.599 319.103 274.869 319.003 273.219 318.883C268.109 318.533 262.989 318.343 257.879 318.243C257.619 320.293 257.409 322.353 257.209 324.413C257.241 324.442 257.268 324.476 257.289 324.513C259.949 329.473 263.989 333.573 270.119 331.303Z" fill="white"/>
<path fill-rule="evenodd" clip-rule="evenodd" d="M191.44 155.173C194.507 149.501 200.328 145.856 206.77 145.573C231.06 144.243 236.97 176.453 229.42 193.973C221.76 211.703 189.91 210.003 182.27 193.243C176.35 180.273 181.17 164.543 191.44 155.173ZM201.06 175.433C204.5 177.493 209.84 175.573 212.84 173.573C219.57 169.003 220.49 158.003 211.81 154.943C211.766 155.593 211.387 156.172 210.81 156.473C205.29 159.103 200.16 163.513 199.44 169.923C199.276 171.384 199.361 172.861 199.69 174.293C200.087 174.74 200.549 175.124 201.06 175.433Z" fill="#231F20"/>
<path fill-rule="evenodd" clip-rule="evenodd" d="M177.089 115.043C206.659 97.2534 245.449 101.933 268.299 128.453C281.129 143.353 284.539 161.723 284.979 180.863C285.419 200.003 283.139 220.403 272.729 237.003C253.509 267.643 212.779 276.773 181.089 261.003C153.259 247.143 135.909 216.153 137.559 185.413C138.149 157.413 152.329 129.943 177.089 115.043ZM194.869 257.953C226.299 267.743 261.219 251.203 271.999 219.743C277.679 203.093 278.059 184.223 276.089 166.893C274.269 150.723 267.129 136.493 254.469 126.113C229.289 105.473 193.389 108.623 169.469 129.623C153.999 143.213 146.399 161.293 144.769 180.293C144.089 195.533 146.459 210.293 154.089 224.293C162.83 240.355 177.442 252.415 194.869 257.953Z" fill="#231F20"/>
<path d="M131.41 134.183C119.94 140.993 114.54 158.573 112.68 170.893C110.17 187.253 112.83 203.593 117.17 219.383C118.08 222.713 122.94 221.303 122.29 217.973C119.4 203.213 117.16 187.763 119.41 172.753C120.313 166.478 122.087 160.359 124.68 154.573C127.47 148.453 132.03 143.793 135.28 138.053C135.908 136.943 135.718 135.55 134.816 134.647C133.914 133.745 132.521 133.555 131.41 134.183Z" fill="#231F20"/>
<path d="M311.099 140.093C309.369 137.093 304.989 139.723 306.499 142.783C313.222 156.49 316.822 171.518 317.039 186.783C317.259 202.173 312.749 215.533 308.349 230.013C307.349 233.253 311.889 234.913 313.639 232.243C322.199 219.143 324.509 201.163 324.049 185.843C323.589 169.756 319.139 154.035 311.099 140.093Z" fill="#231F20"/>
<path fill-rule="evenodd" clip-rule="evenodd" d="M433.05 258.573C431.86 219.853 424.55 181.623 413.47 144.573C408.199 126.421 401.984 108.557 394.85 91.0533C390.95 81.7033 385.95 72.3233 378.37 65.6933L385.1 65.3733C388.1 65.2233 390.03 61.4633 387.64 59.2233C359.497 32.8307 322.8 17.4407 284.25 15.8633C280.37 15.7141 276.479 15.9193 272.591 16.1245C268.401 16.3455 264.215 16.5663 260.05 16.3433C254.062 16.0223 249.322 12.997 244.519 9.93064C241.991 8.31679 239.445 6.69157 236.69 5.44329C229.745 2.36217 222.281 0.618369 214.69 0.303286C211.26 0.123286 210.85 4.46329 213.1 6.15329C216.035 8.33523 218.677 10.8862 220.96 13.7433C200.78 12.7433 180.96 17.6833 161.96 24.4133C145.102 30.4326 128.953 38.2758 113.8 47.8033C83.3742 66.8746 57.1045 91.8825 36.5598 121.333C24.841 138.162 15.2104 156.352 7.8798 175.503C6.8798 178.073 9.7998 180.403 12.1598 179.783L23.2398 176.893C-1.1074 223.177 -6.27949 277.179 8.8398 327.243C9.29745 328.559 10.4586 329.503 11.8398 329.683C20.4998 366.763 46.3098 399.023 80.8398 415.343C81.0432 415.434 81.254 415.508 81.4698 415.563V418.373C82.4482 442.912 87.2423 467.15 95.6798 490.213C103.38 511.763 113.28 533.683 129.94 549.853C146.21 565.663 167.77 580.073 190.04 585.333C202.04 588.163 214.39 588.703 226.64 588.773C227.918 588.781 229.204 588.795 230.495 588.809C241.197 588.925 252.277 589.044 262.45 585.573C280.83 579.303 294.69 563.493 301.02 545.443C308.85 523.163 305.67 498.553 297.96 476.723C295.63 470.123 292.96 463.723 290.03 457.313C328.48 463.983 368.57 442.713 385.18 407.553C385.971 409.333 385.971 411.364 385.18 413.143C385.05 413.393 384.93 413.643 384.81 413.903C382.67 418.333 389.09 422.233 391.5 417.803C391.747 417.352 391.971 416.888 392.17 416.413C404.7 390.573 416.75 364.413 420.52 335.683C424.1 308.333 421.17 280.753 416.29 253.733C419.963 255.895 423.439 258.375 426.68 261.143C429.03 263.113 433.16 261.953 433.05 258.573ZM297.19 510.573C298.64 531.773 292.9 553.473 276.65 567.993C260.063 582.806 236.836 581.585 215.875 580.484L214.668 580.421C214.298 580.401 213.929 580.382 213.56 580.363C201.51 579.733 189.48 577.833 178.33 573.033C168.45 568.783 159.33 562.813 150.6 556.553C131.5 542.833 118.89 525.363 109.5 503.963C99.7994 482.155 93.3961 459.025 90.4998 435.333C85.1998 389.573 95.7898 344.533 122.28 307.333C123.993 306.26 125.237 304.577 125.76 302.623C126.26 301.973 126.76 301.313 127.26 300.623C129.32 301.457 131.38 302.273 133.44 303.073C147.778 308.699 162.666 312.808 177.86 315.333C170.61 333.103 167.5 353.053 166.09 372.083C164.65 391.313 164.56 412.283 169.74 431.003C170.62 434.163 175.87 433.663 175.64 430.203C175.348 425.94 175.007 421.704 174.667 417.48L174.667 417.48L174.667 417.479L174.667 417.479L174.667 417.478L174.667 417.478L174.667 417.477L174.667 417.477L174.667 417.476C173.479 402.718 172.305 388.122 173.3 373.133C174.512 354.794 178.601 337.374 182.765 319.635L182.765 319.634C183.033 318.492 183.302 317.349 183.57 316.203C189.51 317.003 195.51 317.553 201.57 317.853C212.556 318.38 223.551 318.28 234.546 318.18H234.548C239.635 318.134 244.723 318.087 249.81 318.103C247.025 340.217 247.965 362.64 252.59 384.443C257.27 406.443 266.46 426.553 276.14 446.703C285.82 466.853 295.68 487.893 297.19 510.573ZM95.3598 294.453C88.8757 296.14 81.9844 294.234 77.2898 289.453C73.0198 284.983 72.2298 276.963 75.9598 272.343C73.3214 271.935 70.6332 272.661 68.5598 274.343C60.0398 281.493 57.3798 296.213 57.3798 306.703C57.3398 328.933 70.2698 346.913 89.2698 357.093C94.1443 340.138 101.769 324.098 111.84 309.613C109.688 309.527 107.554 309.191 105.48 308.613C97.9898 306.453 95.5198 300.843 95.3598 294.453ZM81.5798 275.743C86.2568 279.474 91.1962 282.862 96.3598 285.883C91.1298 293.023 76.6798 284.113 81.5798 275.743ZM120.91 298.033C114.73 295.453 108.64 292.603 102.73 289.453C101.84 294.433 101.56 299.933 107.36 301.773C110.83 302.873 114.97 303.133 118.08 301.373C118.993 300.247 119.936 299.133 120.91 298.033ZM268.49 338.453C275.1 337.893 279.16 333.713 281.92 328.453C288.45 338.453 301.61 343.003 313.12 336.943C313.408 336.788 313.668 336.585 313.89 336.343C315.354 342.268 315.247 348.472 313.58 354.343C310.554 365.375 303.057 374.641 292.9 379.903C282.76 385.213 271.9 385.693 260.9 384.413C257.256 367.923 255.793 351.025 256.55 334.153C259.714 337.26 264.07 338.839 268.49 338.483V338.453ZM257.88 318.213C257.62 320.263 257.41 322.323 257.21 324.383V324.413C257.228 324.425 257.244 324.438 257.26 324.453C257.267 324.459 257.273 324.465 257.279 324.471C257.283 324.475 257.286 324.479 257.29 324.483C259.95 329.443 263.99 333.583 270.12 331.273C275.162 329.364 276.851 324.003 278.345 319.262L278.37 319.183C278.19 319.172 278.011 319.161 277.832 319.15L277.175 319.11L277.136 319.107C275.796 319.025 274.484 318.945 273.22 318.853C268.11 318.503 262.99 318.313 257.88 318.213ZM285.45 319.723C292.78 320.433 300.26 321.813 306.05 325.403C308.17 326.729 309.97 328.509 311.32 330.613C311.04 330.637 310.764 330.697 310.5 330.793C299.68 334.943 288.76 331.183 285.45 319.753V319.723ZM409.052 244.046C410.231 243.139 411.833 243.013 413.14 243.723V243.713C417.371 245.692 421.423 248.034 425.25 250.713C423.49 217.123 417.13 183.983 407.87 151.663C402.98 134.583 397.3 117.733 391.07 101.103C386.12 87.8633 379.97 71.9333 365.97 66.0233C362.4 64.5333 362.71 59.2533 366.97 59.0233L376.09 58.5733C355.057 41.0083 329.775 29.2829 302.78 24.5733C295.124 23.2207 287.373 22.475 279.6 22.3433C276.753 22.2976 273.876 22.4562 270.994 22.615C266.303 22.8735 261.598 23.1327 256.99 22.5133C251.494 21.8064 247.247 19.0427 242.855 16.1852C241.469 15.2833 240.068 14.3721 238.61 13.5133C234.087 10.8557 229.173 8.92869 224.05 7.80329C225.958 9.93991 227.681 12.2348 229.2 14.6633C230.97 17.4933 227.55 20.0833 225.14 18.9133C201.82 18.2033 178.8 24.7733 157.34 33.4133C94.2177 59.0826 43.8038 108.666 17.0898 171.353L29.2798 168.213C30.6237 167.877 32.039 168.37 32.8834 169.468C33.7277 170.567 33.8402 172.061 33.1698 173.273C7.68966 217.357 0.720776 269.742 13.7898 318.953C14.5796 318.799 15.3985 318.968 16.0623 319.423C16.7261 319.878 17.1792 320.581 17.3198 321.373C23.9799 358.709 47.7598 390.762 81.5598 407.963C81.8305 393.255 83.7526 378.623 87.2898 364.343C61.7498 353.313 46.7598 325.393 50.6498 297.993C52.3198 286.593 57.8498 267.823 71.3198 265.523C77.4498 264.473 83.8998 268.123 88.8998 271.183C93.472 273.926 97.6219 277.318 101.22 281.253C109.41 285.647 117.836 289.587 126.46 293.053C127.342 293.01 128.198 293.358 128.8 294.003C138.696 297.896 148.802 301.234 159.07 304.003C185.31 311.084 212.039 310.838 238.974 310.59C239.579 310.584 240.185 310.579 240.79 310.573C254.57 310.443 268.39 310.473 282.11 311.973C282.532 312.019 282.958 312.064 283.385 312.11C293.377 313.176 304.607 314.375 312.72 320.733C328.9 333.413 323.19 360.033 312.12 373.963C300.88 388.123 280.83 395.443 262.83 392.443C263.67 395.553 264.57 398.643 265.57 401.713C269.996 415.36 276.188 428.256 282.384 441.16C283.62 443.735 284.857 446.311 286.08 448.893C286.234 448.903 286.388 448.923 286.54 448.953C324.12 458.143 366.57 436.243 380.25 399.873C381.12 397.593 383.55 396.293 385.85 397.593C387.714 398.64 389.331 400.076 390.59 401.803C400.75 380.163 409.86 358.013 412.93 334.083C416.62 305.343 412.97 276.213 407.69 247.913C407.339 246.468 407.873 244.952 409.052 244.046Z" fill="#231F20"/>
<path d="M351.01 300.053C347.95 298.623 345.25 303.053 348.32 304.653C361.32 311.563 368.73 324.853 373.17 338.383C375.48 344.971 377.135 351.77 378.11 358.683C378.96 365.823 377.27 371.203 374.93 377.803C373.86 380.803 377.88 382.543 379.93 380.723C391.54 370.493 384.24 348.503 380.14 336.453C374.93 321.093 366.16 307.083 351.01 300.053Z" fill="#231F20"/>
<path d="M61.9602 241.083C52.6802 246.253 44.2902 256.143 38.2402 264.743C32.1902 273.343 28.3402 283.573 28.2402 294.263C28.2402 297.693 33.3202 297.633 33.5402 294.263C34.2302 283.663 38.8802 274.163 45.3702 265.893C51.3702 258.203 59.8702 252.553 65.6102 244.753C67.3102 242.473 64.1302 239.873 61.9602 241.083Z" fill="#231F20"/>
<path d="M192.229 488.493C187.889 480.093 184.009 471.493 180.229 462.803C178.939 459.803 173.929 461.943 174.959 465.023C178.097 474.25 181.901 483.237 186.339 491.913C190.699 500.483 195.219 509.413 201.829 516.483C203.919 518.713 206.829 515.883 205.749 513.483C202.009 504.793 196.569 496.893 192.229 488.493Z" fill="#231F20"/>
<path d="M382.679 146.933C385.159 157.153 386.129 168.203 390.099 177.933C390.449 178.803 391.899 178.793 391.859 177.693C391.489 166.613 388.049 154.903 385.179 144.223C382.579 134.513 378.779 125.593 371.999 118.073C371.519 117.533 370.559 118.253 370.999 118.853C376.999 127.223 380.289 137.033 382.679 146.933Z" fill="#231F20"/>
<path d="M380.68 178.413C381.645 180.703 382.412 183.072 382.97 185.493C383.5 187.903 383.67 190.493 384.43 192.793C384.578 193.277 385.024 193.608 385.53 193.608C386.036 193.608 386.483 193.277 386.63 192.793C387.72 187.663 385.23 181.903 382.63 177.603C381.98 176.633 380.18 177.273 380.68 178.413Z" fill="#231F20"/>
<path d="M90.2802 161.083C78.9802 172.413 73.9102 190.383 73.7402 206.013C73.7402 207.073 75.2602 207.013 75.3602 206.013C76.0079 198.117 77.7409 190.347 80.5102 182.923C83.3502 175.443 87.6502 168.993 91.6502 162.133C91.8707 161.755 91.7754 161.271 91.4277 161.005C91.08 160.738 90.5884 160.772 90.2802 161.083Z" fill="#231F20"/>
<path d="M101.41 141.333C96.8902 143.823 93.6302 149.983 92.2702 154.783C92.1681 155.225 92.3985 155.675 92.816 155.85C93.2335 156.026 93.7165 155.875 93.9602 155.493C95.1654 153.189 96.5009 150.956 97.9602 148.803C99.4602 146.703 101.41 144.883 102.74 142.683C102.934 142.3 102.861 141.837 102.56 141.531C102.259 141.225 101.796 141.146 101.41 141.333Z" fill="#231F20"/>
<path d="M36.7693 195.413C26.6293 205.413 20.6493 220.243 19.2993 234.253C19.2393 234.903 20.2993 235.033 20.4193 234.413C23.5793 220.033 29.6793 208.353 37.9993 196.363C38.5093 195.573 37.3893 194.803 36.7693 195.413Z" fill="#231F20"/>
<path d="M383.27 261.333C387.853 270.501 391.347 280.173 393.68 290.153C396.04 300.263 396 310.293 397.17 320.513C397.31 321.703 399.17 322.243 399.47 320.823C403.05 300.723 395.05 277.463 384.81 260.423C384.535 260.057 384.028 259.957 383.634 260.19C383.239 260.423 383.083 260.915 383.27 261.333Z" fill="#231F20"/>
</svg>
