<svg width="371" height="565" viewBox="0 0 371 565" fill="none" xmlns="http://www.w3.org/2000/svg">
<path d="M74.6788 267.794C74.5888 241.164 81.2688 214.924 90.6788 190.174C99.5589 166.577 110.645 143.87 123.789 122.354C135.709 102.974 149.789 84.7241 166.419 69.1841C144.419 82.8741 125.849 99.7041 111.599 121.514C98.1188 142.134 88.2888 165.054 80.7988 188.464C72.9188 213.074 67.7988 238.974 69.3288 264.914C70.3288 281.814 73.7988 303.054 84.1688 318.174C77.6488 302.384 74.7388 285.194 74.6788 267.794Z" fill="#754C29"/>
<path d="M181.539 48.754C176.539 44.604 173.199 38.474 170.849 32.564C168.849 27.564 167.529 22.424 166.049 17.294C165.749 16.244 165.429 15.184 165.129 14.124C164.199 16.294 163.459 18.584 162.779 20.294C155.999 37.004 148.199 53.944 144.539 71.744C155.171 63.5792 166.525 56.3996 178.459 50.294C179.459 49.734 180.459 49.234 181.539 48.754Z" fill="#A97C50"/>
<path d="M190.062 44.8041C190.237 44.9404 190.404 45.0873 190.562 45.2441C192.482 44.6341 194.412 44.0841 196.362 43.6341C191.542 36.9341 187.532 29.3841 182.902 22.6341C180.222 18.7441 177.632 13.7641 174.012 10.6341C173.148 9.81127 172.082 9.23165 170.922 8.9541C172.972 13.6841 174.192 18.9541 175.822 23.6041C178.882 32.2941 182.552 39.2941 190.062 44.8041Z" fill="#754C29"/>
<path fill-rule="evenodd" clip-rule="evenodd" d="M90.4618 201.684C105.462 157.804 128.462 113.674 160.862 80.1041C168.109 72.4272 175.961 65.3445 184.342 58.9241C189.985 56.0936 196.018 54.1187 202.242 53.0641C215.862 51.0041 230.082 53.4441 243.462 56.0641C249.805 57.1826 255.899 59.4172 261.462 62.6641C265.47 68.098 268.732 74.0442 271.162 80.3441C274.684 90.2801 276.975 100.611 277.982 111.104C280.556 134.464 280.757 158.024 278.582 181.424C274.292 227.314 253.622 267.844 221.712 300.754C207.842 315.064 192.282 326.764 176.382 338.384C174.722 339.384 173.062 340.384 171.432 341.384C169.493 341.362 167.49 341.311 165.446 341.259C155.341 341.002 144.227 340.718 134.912 343.804C134.626 342.224 133.46 340.949 131.912 340.524C131.159 339.137 129.678 338.305 128.102 338.384C122.399 338.451 116.719 337.658 111.252 336.034C109.398 335.386 107.499 334.871 105.572 334.494C104.921 333.345 103.644 332.698 102.332 332.854C101.245 333.017 100.184 333.316 99.1718 333.744C99.1887 332.803 98.7053 331.924 97.9018 331.434C97.6189 331.269 97.3422 331.086 97.0668 330.903C96.9917 330.853 96.9168 330.803 96.8418 330.754C94.559 328.014 92.0356 325.484 89.3018 323.194C73.0618 284.824 76.9818 241.044 90.4618 201.684ZM266.982 162.454C267.882 141.024 263.592 119.354 247.112 104.454C231.967 90.7356 210.728 85.9849 191.182 91.9441C170.862 98.2141 156.102 116.064 143.862 132.554C131.052 149.87 120.956 169.037 113.922 189.394C105.332 214.214 100.382 241.884 105.542 267.954C107.362 277.473 111.383 286.435 117.282 294.124C125.662 305.894 141.832 311.374 156.012 310.634C176.352 309.564 193.912 296.514 207.912 282.724C240.242 250.854 265.042 208.684 266.982 162.454Z" fill="#A97C50"/>
<path d="M86.4595 371.874C85.8396 370.527 85.412 369.1 85.1895 367.634C79.5895 367.404 73.9095 365.704 68.4495 364.734C65.0695 364.134 61.5995 363.424 58.1595 363.674C55.8695 363.844 54.0995 364.444 51.8595 363.754C50.5057 363.339 49.7115 361.939 50.0495 360.564C52.1095 349.484 75.0495 356.364 85.0495 361.224C85.2095 359.284 85.5195 357.364 85.8395 355.524C86.0395 354.384 86.3195 353.174 86.6395 351.934C84.0595 349.984 81.6395 347.464 79.3895 345.884C75.4495 343.084 70.5195 341.004 68.5795 336.304C68.323 335.331 68.8918 334.331 69.8595 334.054C75.5895 332.384 81.3095 337.054 85.5095 340.434C86.6095 341.314 88.1295 342.494 89.5995 343.844C90.7406 341.47 92.2341 339.282 94.0295 337.354C86.2495 333.524 79.3395 326.464 72.8695 321.044C65.8695 315.174 58.8695 308.504 50.3995 304.784C45.5395 302.664 38.9195 301.054 34.0095 303.934C29.6295 306.504 26.6295 311.934 24.2895 316.224C19.7595 324.554 17.0995 333.734 14.9295 342.914C10.6095 361.094 6.18949 390.304 32.9295 390.464C42.3914 390.495 51.8128 389.227 60.9295 386.694C70.7595 384.004 79.3495 379.474 88.4195 375.054C87.6464 374.073 86.9887 373.006 86.4595 371.874Z" fill="#BE1E2D"/>
<path fill-rule="evenodd" clip-rule="evenodd" d="M19.2928 505.37L19.2927 505.37C14.1081 514.481 8.31904 524.653 8.15845 534.594C7.95845 546.694 21.4384 557.184 33.1584 556.144C45.5285 555.034 53.0384 543.304 57.8384 533.144C67.958 511.692 76.4403 489.268 84.8461 467.046L84.848 467.041C85.6617 464.89 86.4747 462.74 87.2885 460.594C95.9551 437.627 104.098 414.464 111.718 391.104C111.134 389.473 110.666 387.802 110.318 386.104C105.893 385.826 101.593 384.522 97.7584 382.294C96.9184 381.834 96.0785 381.344 95.2485 380.834C94.8717 381.632 94.2967 382.321 93.5784 382.834C90.1528 385.25 86.53 387.375 82.7485 389.184C79.3549 397.777 74.4042 405.89 69.5036 413.922L69.5036 413.922C67.1838 417.723 64.8753 421.507 62.7484 425.314C55.8884 437.694 49.0518 450.141 42.2384 462.654C36.7678 472.709 31.409 482.826 26.051 492.943C25.0038 494.92 23.9565 496.897 22.9084 498.874C21.8011 500.963 20.5651 503.134 19.2928 505.37ZM63.8284 482.454C66.0584 472.024 69.6184 460.004 76.1684 451.394C76.8185 450.544 78.3684 450.994 78.0184 452.174C76.0628 458.648 73.2721 464.979 70.4927 471.286L70.4927 471.286C68.7811 475.169 67.0738 479.043 65.5684 482.934C65.4359 483.414 64.9389 483.697 64.4584 483.564C63.978 483.431 63.6959 482.934 63.8284 482.454ZM55.0343 503.341C54.6105 505.008 54.1866 506.676 53.6484 508.294C52.0713 513.075 49.9684 517.667 47.3784 521.984C42.0884 530.744 34.9584 537.094 27.3784 543.744C26.4784 544.534 27.5784 545.744 28.5784 545.304C37.8984 540.934 45.4184 532.584 50.6984 523.934C55.3684 516.284 60.7985 505.224 59.1284 496.024C59.0242 495.665 58.7168 495.401 58.3456 495.353C57.9744 495.306 57.6102 495.483 57.4184 495.804C56.3437 498.19 55.6893 500.765 55.0343 503.341Z" fill="#754C29"/>
<path d="M305.859 111.974C306.009 112.494 306.189 112.974 306.339 113.534C310.385 127.585 312.406 142.142 312.339 156.764C321.039 151.604 329.469 146.224 337.069 139.364C345.329 131.904 356.509 121.784 359.949 110.854C360.079 110.434 360.319 108.944 360.539 107.854C356.059 109.854 350.709 110.404 345.989 111.314C340.989 112.314 335.919 113.054 330.829 113.544C323.119 114.294 313.679 114.594 305.859 111.974Z" fill="#A97C50"/>
<path d="M150.112 350.904C144.862 350.774 139.652 350.994 134.572 349.734C134.195 353.91 133.489 358.049 132.462 362.114C137.862 361.554 144.032 362.644 148.792 363.374C154.972 364.324 162.852 365.974 164.372 372.994C164.549 373.694 164.396 374.437 163.958 375.012C163.52 375.586 162.844 375.929 162.122 375.944C156.752 376.044 151.642 373.144 146.392 372.054C141.342 371.004 135.622 369.364 130.312 368.804C129.139 371.85 127.623 374.752 125.792 377.454H125.872C132.342 376.244 139.172 378.454 145.042 381.094C150.912 383.734 158.112 387.504 160.542 393.664C161.542 396.274 158.592 398.514 156.252 397.954C150.912 396.664 146.322 391.874 141.502 389.174C136.302 386.254 130.342 384.394 125.402 381.104C124.808 380.676 124.461 379.985 124.472 379.254C123.153 380.946 121.561 382.406 119.762 383.574L119.852 383.794C120.943 384.155 121.84 384.947 122.333 385.986C122.826 387.025 122.872 388.22 122.462 389.294L122.342 389.644C126.092 397.764 131.012 405.454 135.342 413.174C140.552 422.424 145.402 433.544 153.882 440.354C174.532 456.944 192.782 426.524 200.422 410.544C204.913 400.961 208.182 390.852 210.152 380.454C212.152 370.164 212.792 358.224 200.952 354.214C191.152 350.894 179.342 351.724 169.162 351.394C162.842 351.154 156.462 351.074 150.112 350.904Z" fill="#BE1E2D"/>
<path d="M125.69 347.434C118.34 347.044 108.52 345.304 102.69 340.374C99.53 344.704 96.61 348.724 95.19 354.374C94.32 357.814 93.34 361.934 93.89 365.474C94.61 370.174 98.45 372.404 102.27 374.474C106.09 376.544 111.39 379.014 115.43 375.844C118.62 373.344 120.77 368.704 122.1 365.014C124.2 359.294 124.86 353.374 125.69 347.434Z" fill="#BE1E2D"/>
<path d="M331.852 103.864L332.752 103.724C331.212 103.554 329.682 103.374 328.142 103.184C318.662 101.994 309.082 100.614 300.352 96.894C301.532 99.634 302.622 102.404 303.622 105.204C312.942 104.294 322.462 105.194 331.852 103.864Z" fill="#754C29"/>
<path d="M260.51 255.144C249.88 274.494 235.91 291.974 220.13 307.364C213.88 313.454 207.25 319.454 200.32 325.124C210.589 318.909 220.293 311.805 229.32 303.894C247.469 287.977 262.807 269.116 274.69 248.104C298.4 206.104 308.02 155.104 291.93 108.744C287.837 96.7008 282.005 85.3205 274.62 74.964C273.95 74.044 273.26 73.174 272.56 72.334C278.37 84.784 280.88 99.384 282.23 112.044C287.38 160.444 284.33 211.764 260.51 255.144Z" fill="#754C29"/>
<path fill-rule="evenodd" clip-rule="evenodd" d="M120.541 200.674C114.681 220.374 111.121 241.674 114.291 262.224C115.671 271.124 118.861 280.124 124.041 287.354C135.301 298.464 150.912 301.554 166.552 296.524C185.792 290.334 200.942 274.154 213.702 259.194C239.032 229.494 256.703 192.024 255.393 152.334C254.763 133.834 248.033 116.684 231.572 106.834C216.082 97.5641 195.912 98.2841 180.892 108.174C165.442 118.344 152.892 135.514 143.162 150.934C133.37 166.395 125.758 183.133 120.541 200.674ZM208.542 140.424C213.033 147.114 216.353 159.264 213.303 166.994C212.382 169.334 208.902 170.394 207.502 167.744C205.75 164.46 205.287 160.83 204.823 157.192L204.823 157.191C204.757 156.675 204.691 156.159 204.621 155.644C204.443 154.318 204.226 152.985 204.009 151.649L204.009 151.649L204.009 151.649C203.486 148.423 202.958 145.176 202.951 141.944C202.971 138.824 206.972 138.034 208.572 140.424H208.542ZM189.871 129.622C189.027 129.732 188.326 130.328 188.081 131.144H188.111C185.219 139.544 186.881 150.05 188.356 159.372C188.702 161.559 189.037 163.68 189.301 165.694C190.071 171.464 190.891 177.244 191.851 182.974C192.037 184.085 192.197 185.225 192.358 186.376C193.027 191.157 193.723 196.127 196.471 200.044C198.231 202.544 202.561 202.524 203.371 199.144C204.463 194.62 203.546 190.103 202.63 185.587C202.43 184.603 202.23 183.618 202.051 182.634C201.031 176.734 200.041 170.814 199.111 164.904C198.735 162.513 198.383 160.121 198.032 157.728C197.514 154.207 196.997 150.687 196.401 147.174C196.276 146.401 196.158 145.624 196.039 144.846C195.287 139.914 194.531 134.953 191.991 130.634C191.546 129.908 190.715 129.512 189.871 129.622Z" fill="#88E0FF"/>
<path fill-rule="evenodd" clip-rule="evenodd" d="M24.2225 480.416C27.8109 474.011 31.3988 467.607 34.9099 461.164C36.1714 458.843 37.4298 456.52 38.6883 454.197L38.6887 454.196C44.5931 443.296 50.5001 432.392 56.7399 421.684C57.9982 419.516 59.2482 417.289 60.5118 415.038C64.8316 407.343 69.309 399.367 74.8099 392.504C61.3911 397.333 47.2205 399.737 32.9599 399.604C-12.0701 399.254 2.52993 338.934 15.5299 313.554C19.1799 306.404 24.3899 297.924 32.2799 294.924C39.9499 292.024 48.6199 294.144 55.7199 297.614C60.8251 300.263 65.604 303.498 69.9599 307.254C64.196 293.828 60.7732 279.515 59.8399 264.934C57.7299 233.304 65.3399 201.504 76.1699 171.994C85.2199 147.274 96.8499 123.324 113.17 102.534C120.552 93.2066 128.868 84.6588 137.99 77.024C138.07 64.204 141.53 52.204 145.99 40.204C147.833 35.2379 149.802 30.3157 151.771 25.3927L151.771 25.3921C152.462 23.6635 153.154 21.9348 153.84 20.204C154.393 18.815 154.907 17.3204 155.431 15.7937L155.431 15.7935L155.432 15.7933L155.432 15.793L155.432 15.7928L155.432 15.7926C156.803 11.8017 158.25 7.59122 160.68 4.47401C167.99 -4.95599 179.39 2.37401 184.99 9.47401C189.28 14.914 193.24 20.644 197.16 26.354C197.761 27.2319 198.373 28.1113 198.987 28.9943L198.988 28.9954C201.879 33.1518 204.827 37.3899 206.98 41.934L207.98 41.864C215.972 39.2381 224.528 38.8371 232.73 40.704C233.155 40.8494 233.457 41.2294 233.502 41.6767C233.547 42.1239 233.328 42.5565 232.94 42.784C242.94 43.894 253.07 45.874 261.94 49.664C273.93 54.784 282.38 64.864 289.22 75.664C292.031 80.0978 294.604 84.6775 296.93 89.384C303.708 90.106 310.461 91.0266 317.216 91.9475C325.619 93.093 334.025 94.239 342.49 95.004C344.472 95.1852 346.562 95.2871 348.692 95.3908C354.082 95.6535 359.723 95.9283 364.49 97.534C370.3 99.534 371.11 105.144 370.17 110.534C367.81 124.104 354.7 137.014 344.96 145.834C335.22 154.654 324.15 162.654 311.96 167.654C309.75 201.844 297.46 235.674 279.21 264.294C266.177 284.776 249.913 303.012 231.05 318.294C220.38 326.924 208.38 335.944 195.38 342.294C199.088 342.749 202.727 343.649 206.22 344.974C226.11 352.964 222.85 375.424 218.38 392.304C213.18 411.974 203.51 431.824 188.66 446.034C181.96 452.464 173.61 457.084 164.07 456.034C154.08 454.944 145.82 448.544 139.82 440.794C134.62 434.027 130.511 426.379 126.439 418.801L126.439 418.801L126.438 418.799L126.433 418.791L126.432 418.789C125.103 416.316 123.778 413.85 122.42 411.424C121.468 409.724 120.457 408.016 119.435 406.292L119.435 406.292L119.435 406.292L119.434 406.29C118.846 405.297 118.255 404.299 117.67 403.294C108.197 430.807 98.1166 458.074 87.4299 485.094C82.0299 498.687 76.4699 512.214 70.7499 525.674C70.4926 526.278 70.2355 526.885 69.9779 527.492L69.9736 527.503C65.2663 538.605 60.3768 550.137 50.6899 557.824C41.6899 564.964 30.2599 566.854 19.6899 562.094C10.3199 557.874 1.69993 549.494 0.249927 538.934C-1.39142 526.925 5.37355 514.583 11.128 504.085L11.1302 504.081L11.1392 504.064C11.6916 503.057 12.2346 502.066 12.7599 501.094C16.5184 494.167 20.3708 487.291 24.2225 480.416ZM102.3 374.474C106.21 376.604 111.461 379.014 115.461 375.844C118.661 373.344 120.811 368.704 122.171 365.014C124.013 359.919 124.736 354.631 125.461 349.324C125.547 348.694 125.633 348.064 125.721 347.434C118.331 347.044 108.511 345.304 102.72 340.374C99.5602 344.714 96.6401 348.734 95.22 354.374C94.35 357.814 93.3699 361.934 93.9199 365.474C94.64 370.164 98.3901 372.344 102.3 374.474ZM200.981 354.184C212.822 358.184 212.212 370.134 210.181 380.424C208.215 390.822 204.949 400.931 200.461 410.514C192.821 426.514 174.571 456.914 153.921 440.324C147.022 434.784 142.526 426.393 138.284 418.475L138.284 418.475C137.311 416.659 136.352 414.869 135.38 413.144C134.123 410.912 132.818 408.683 131.507 406.446L131.507 406.444L131.506 406.443L131.505 406.442L131.505 406.441L131.504 406.44L131.503 406.438L131.503 406.437L131.502 406.436L131.501 406.435L131.501 406.434L131.5 406.433C128.28 400.934 125.03 395.382 122.38 389.614L122.46 389.294C122.875 388.221 122.832 387.026 122.343 385.985C121.854 384.944 120.96 384.149 119.87 383.784L119.78 383.564C121.579 382.396 123.171 380.936 124.49 379.244C124.479 379.976 124.826 380.666 125.42 381.094C128.256 382.982 131.427 384.4 134.598 385.817L134.599 385.817C136.952 386.869 139.305 387.92 141.52 389.164C143.247 390.131 144.943 391.366 146.656 392.612C149.724 394.846 152.843 397.116 156.271 397.944C158.611 398.504 161.591 396.264 160.561 393.654C158.131 387.494 150.87 383.654 145.06 381.084C139.25 378.514 132.36 376.234 125.89 377.444H125.81C127.641 374.742 129.158 371.84 130.33 368.794C133.989 369.18 137.828 370.078 141.524 370.943L141.524 370.944L141.525 370.944L141.525 370.944L141.527 370.944L141.528 370.944L141.531 370.945C143.197 371.335 144.833 371.718 146.41 372.044C148.381 372.453 150.331 373.118 152.283 373.784L152.284 373.785C155.533 374.893 158.786 376.003 162.141 375.934C162.873 375.94 163.567 375.607 164.021 375.032C164.474 374.457 164.637 373.705 164.461 372.994C162.941 365.994 155.061 364.324 148.88 363.374C148.483 363.313 148.076 363.25 147.66 363.185L147.653 363.184H147.652C143.089 362.473 137.497 361.601 132.55 362.114C133.564 358.048 134.256 353.909 134.62 349.734C138.582 350.717 142.623 350.775 146.701 350.833C147.852 350.85 149.005 350.867 150.16 350.904C152.759 350.973 155.356 351.028 157.952 351.082L157.962 351.082L157.967 351.082C161.73 351.161 165.49 351.24 169.251 351.364C171.474 351.436 173.778 351.453 176.124 351.47H176.125H176.125H176.126H176.126H176.127H176.128H176.128H176.129H176.129C184.472 351.53 193.344 351.593 200.991 354.184H200.981ZM349.263 110.701C348.148 110.891 347.048 111.078 345.98 111.284L345.97 111.294C340.95 112.294 335.9 113.024 330.85 113.484C323.11 114.234 313.67 114.564 305.85 111.944C305.932 112.249 306.022 112.528 306.112 112.804L306.112 112.804L306.112 112.805C306.187 113.035 306.262 113.263 306.33 113.504C310.376 127.555 312.396 142.112 312.33 156.734C321.06 151.574 329.46 146.194 337.06 139.334C345.32 131.874 356.5 121.754 359.94 110.824C360.025 110.568 360.158 109.84 360.301 109.052L360.301 109.051L360.304 109.033L360.308 109.014C360.381 108.612 360.457 108.198 360.53 107.824C357.064 109.372 353.076 110.051 349.263 110.701ZM328.15 103.184C329.69 103.374 331.22 103.554 332.76 103.724L331.86 103.864C326.637 104.605 321.367 104.663 316.114 104.721C311.932 104.768 307.76 104.814 303.63 105.204C302.63 102.404 301.54 99.634 300.36 96.894C309.08 100.614 318.66 101.994 328.14 103.184H328.15ZM291.96 108.744C287.867 96.7008 282.035 85.3205 274.65 74.964H274.64C273.97 74.044 273.28 73.174 272.61 72.334C278.42 84.784 280.93 99.384 282.28 112.044C287.41 160.444 284.36 211.764 260.54 255.144C249.91 274.494 235.94 291.974 220.16 307.364C213.91 313.454 207.28 319.454 200.35 325.124C210.619 318.909 220.323 311.805 229.35 303.894C247.499 287.977 262.837 269.116 274.72 248.104C298.43 206.064 308.05 155.114 291.96 108.744ZM202.189 53.104C215.809 51.004 230.029 53.444 243.409 56.104C249.766 57.2044 255.878 59.4255 261.459 62.664C265.458 68.1058 268.71 74.0587 271.128 80.364C274.651 90.3 276.941 100.63 277.948 111.124C280.523 134.484 280.724 158.044 278.548 181.444C274.258 227.334 253.549 267.864 221.679 300.774C207.809 315.084 192.249 326.774 176.349 338.404C175.855 338.702 175.36 338.996 174.866 339.289C173.703 339.979 172.544 340.667 171.399 341.404C169.468 341.382 167.471 341.331 165.431 341.279C155.335 341.022 144.197 340.738 134.879 343.824C134.594 342.244 133.427 340.969 131.88 340.544C131.127 339.157 129.646 338.325 128.07 338.404C122.367 338.47 116.687 337.678 111.22 336.054C109.366 335.406 107.467 334.891 105.54 334.514C104.888 333.365 103.611 332.718 102.3 332.874C101.213 333.037 100.151 333.336 99.1398 333.764C99.1566 332.823 98.6732 331.944 97.8698 331.454C97.5869 331.289 97.3101 331.105 97.0347 330.923L96.9399 330.86C96.8965 330.831 96.8532 330.803 96.8098 330.774C94.5269 328.034 92.0035 325.504 89.2698 323.214C73.03 284.844 76.9499 241.064 90.4298 201.704C105.43 157.824 128.43 113.704 160.859 80.124C168.092 72.463 175.927 65.3937 184.289 58.984C189.931 56.1466 195.964 54.1649 202.189 53.104ZM180.792 19.4551L180.792 19.4549C178.792 16.3115 176.682 12.994 174.01 10.684C173.146 9.86117 172.08 9.28155 170.92 9.00401C172.197 11.9498 173.151 15.1088 174.084 18.1938L174.084 18.1941L174.084 18.1945L174.084 18.1948L174.084 18.1951C174.649 20.0632 175.205 21.9041 175.82 23.654C178.88 32.294 182.55 39.294 190.06 44.854C190.235 44.9903 190.402 45.1372 190.56 45.294C192.48 44.684 194.41 44.134 196.36 43.684C193.792 40.0885 191.455 36.266 189.131 32.4659L189.131 32.4658L189.131 32.4656L189.131 32.4655C187.092 29.1316 185.064 25.815 182.9 22.684C182.198 21.6649 181.502 20.571 180.792 19.4551ZM162.78 20.294C163.068 19.5887 163.363 18.7754 163.676 17.9107L163.677 17.9102C164.114 16.7033 164.588 15.3965 165.13 14.144C165.292 14.7157 165.459 15.2874 165.627 15.8575C165.769 16.3445 165.912 16.8303 166.05 17.314C166.306 18.2005 166.558 19.0881 166.809 19.9757L166.809 19.9758L166.809 19.9759C168.015 24.2249 169.22 28.4729 170.85 32.584C173.2 38.494 176.55 44.584 181.54 48.774C180.54 49.254 179.46 49.774 178.43 50.284C166.506 56.3944 155.162 63.5773 144.54 71.744C147.581 56.9352 153.482 42.7341 159.28 28.7792L159.281 28.7791L159.281 28.7789L159.281 28.7784C160.46 25.9411 161.634 23.114 162.78 20.294ZM80.7899 188.464C72.9099 213.074 67.8399 238.974 69.3199 264.914C70.2799 281.814 73.7899 303.054 84.1999 318.174C77.7199 302.384 74.7799 285.194 74.7199 267.794C74.6399 241.174 81.3199 214.924 90.7199 190.174C99.6 166.577 110.686 143.87 123.83 122.354C135.75 102.974 149.79 84.724 166.46 69.184C144.36 82.874 125.84 99.704 111.59 121.514C98.1099 142.134 88.2799 165.054 80.7899 188.464ZM60.9599 386.694C51.8432 389.227 42.4218 390.495 32.9599 390.464C6.17993 390.304 10.5999 361.094 14.9599 342.914C17.1299 333.734 19.7899 324.554 24.3199 316.224C26.6599 311.924 29.6599 306.504 34.0399 303.934C38.9499 301.054 45.5699 302.664 50.4299 304.784C57.5252 307.9 63.5819 313.087 69.4818 318.139L69.482 318.139C70.6251 319.118 71.7622 320.091 72.8999 321.044C74.4416 322.336 76.0083 323.72 77.6058 325.132L77.6062 325.132C82.7127 329.645 88.1339 334.437 94.0599 337.354C92.2646 339.282 90.771 341.47 89.6299 343.844C88.4405 342.752 87.2118 341.771 86.2087 340.97L86.2076 340.969L86.2001 340.963C85.9667 340.777 85.7455 340.6 85.5399 340.434L85.3183 340.257C81.1399 336.912 75.5198 332.413 69.8899 334.054C68.9222 334.331 68.3535 335.331 68.6099 336.304C70.1041 339.924 73.3718 341.99 76.5948 344.027L76.5955 344.027C77.557 344.635 78.5146 345.241 79.4199 345.884C80.5814 346.707 81.7999 347.785 83.0654 348.905C84.2297 349.934 85.4337 351 86.6699 351.934C86.3499 353.174 86.0699 354.384 85.8699 355.524C85.5499 357.364 85.2399 359.284 85.0799 361.224C75.0799 356.364 52.1599 349.484 50.0799 360.564C49.7419 361.939 50.5362 363.339 51.8899 363.754C53.5242 364.257 54.903 364.074 56.4224 363.872C56.9855 363.797 57.568 363.72 58.1899 363.674C61.322 363.446 64.479 364.015 67.5702 364.571C67.7208 364.598 67.8713 364.625 68.0216 364.652C68.1745 364.68 68.3273 364.707 68.4799 364.734C70.1411 365.038 71.8227 365.405 73.5162 365.773C77.3888 366.617 81.3237 367.474 85.2199 367.634C85.4425 369.1 85.87 370.527 86.4899 371.874C87.0317 373.008 87.7029 374.075 88.4899 375.054C87.3082 375.627 86.1353 376.203 84.9673 376.775L84.9664 376.776L84.966 376.776C77.1297 380.619 69.5144 384.353 60.9599 386.694ZM93.5799 382.744C90.1542 385.16 86.5315 387.285 82.7499 389.094C79.3579 397.752 74.3478 405.923 69.3986 413.995C67.1107 417.727 64.8359 421.437 62.7399 425.164C55.8533 437.617 49.0033 450.094 42.1899 462.594C36.7194 472.648 31.3609 482.766 26.0031 492.882C24.9556 494.859 23.9082 496.837 22.8599 498.814C21.7525 500.903 20.5165 503.075 19.2441 505.311C14.0595 514.421 8.27052 524.594 8.10993 534.534C7.95993 546.634 21.4399 557.084 33.1099 556.084C45.4799 555.004 52.9899 543.274 57.7899 533.084C67.9329 511.564 76.431 489.101 84.8559 466.831C85.6508 464.73 86.445 462.631 87.2399 460.534C95.8999 437.541 104.043 414.377 111.67 391.044C111.086 389.413 110.618 387.742 110.27 386.044C105.859 385.749 101.577 384.435 97.7599 382.204C96.9199 381.744 96.0799 381.254 95.2499 380.744C94.8731 381.542 94.2982 382.231 93.5799 382.744Z" fill="#231F20"/>
<path fill-rule="evenodd" clip-rule="evenodd" d="M113.92 189.344C120.955 168.986 131.051 149.82 143.86 132.504C156.1 116.014 170.85 98.164 191.18 91.844C210.735 85.898 231.975 90.6679 247.11 104.404C263.59 119.354 267.88 141.024 266.98 162.404C265.04 208.674 240.24 250.804 207.91 282.674C193.93 296.464 176.35 309.514 156.01 310.584C141.83 311.324 125.66 305.844 117.28 294.074C111.381 286.385 107.36 277.423 105.54 267.904C100.38 241.834 105.33 214.164 113.92 189.344ZM231.54 106.834C216.05 97.564 195.86 98.284 180.86 108.174H180.89C165.46 118.344 152.93 135.514 143.13 150.934C133.339 166.395 125.727 183.133 120.51 200.674C114.65 220.374 111.09 241.714 114.26 262.224C115.64 271.124 118.83 280.124 124.01 287.354C135.27 298.464 150.88 301.524 166.52 296.524C185.76 290.334 200.91 274.194 213.67 259.194C239 229.494 256.71 192.024 255.36 152.334C254.73 133.834 248 116.684 231.54 106.834Z" fill="#231F20"/>
<path d="M191.88 182.974C192.88 188.704 193.09 195.184 196.5 200.044C198.26 202.544 202.59 202.524 203.4 199.144C204.73 193.614 203.04 188.144 202.08 182.634C201.06 176.734 200.08 170.824 199.14 164.904C198.21 158.994 197.39 153.074 196.43 147.174C195.51 141.494 194.96 135.674 192.02 130.634C191.575 129.908 190.744 129.512 189.9 129.622C189.056 129.732 188.355 130.328 188.11 131.144C184.54 141.514 187.91 155.144 189.33 165.694C190.1 171.464 190.92 177.234 191.88 182.974Z" fill="#231F20"/>
<path d="M207.53 167.744C208.93 170.394 212.41 169.334 213.33 166.994C216.38 159.264 213.06 147.114 208.57 140.424C206.97 138.034 202.97 138.824 202.98 141.944C202.98 146.514 204.04 151.114 204.65 155.644C205.21 159.794 205.55 163.994 207.53 167.744Z" fill="#231F20"/>
<path d="M27.3806 543.704C26.4806 544.494 27.6306 545.704 28.5806 545.264C37.9006 540.924 45.4206 532.544 50.7006 523.894C55.3706 516.244 60.8006 505.184 59.1306 495.984C59.0264 495.625 58.7189 495.361 58.3477 495.313C57.9765 495.266 57.6124 495.443 57.4206 495.764C55.6206 499.694 55.0206 504.134 53.6506 508.254C52.0735 513.035 49.9706 517.627 47.3806 521.944C42.0906 530.704 34.9606 537.054 27.3806 543.704Z" fill="#231F20"/>
<path d="M65.5696 482.934C69.5196 472.724 74.8596 462.634 78.0196 452.174C78.3696 450.994 76.8196 450.544 76.1696 451.394C69.6196 460.004 66.0596 472.024 63.8296 482.454C63.6971 482.935 63.9791 483.432 64.4596 483.564C64.9401 483.697 65.4371 483.415 65.5696 482.934Z" fill="#231F20"/>
</svg>
