<svg width="471" height="574" viewBox="0 0 471 574" fill="none" xmlns="http://www.w3.org/2000/svg">
<path fill-rule="evenodd" clip-rule="evenodd" d="M414.615 46.3712C415.755 61.6612 411.385 79.8712 396.825 87.5012C392.815 89.6012 395.635 95.6512 399.875 94.6312C420.075 89.7112 441.615 99.3512 452.875 116.541C464.615 134.461 465.425 157.501 458.105 177.241C451.135 196.041 436.025 215.761 417.795 224.761C406.715 230.221 395.975 227.501 384.795 223.891C374.885 220.701 364.865 216.301 358.655 207.551C357.814 206.263 356.309 205.572 354.784 205.772C353.259 205.973 351.984 207.03 351.505 208.491C348.915 216.151 340.935 219.921 333.215 219.861C324.615 219.781 317.505 214.601 312.905 207.601C302.045 191.011 303.935 168.211 311.645 150.811C313.235 147.221 309.165 143.461 306.005 146.461C295.535 156.261 279.905 150.021 273.535 138.821C265.755 125.141 269.515 108.831 275.315 95.1912C276.425 92.5812 275.125 90.0612 272.215 89.7812C241.422 86.8746 210.615 84.0446 179.795 81.2912C200.662 74.9112 221.478 68.3412 242.245 61.5812C244.249 60.9946 245.423 58.9212 244.895 56.9012C240.505 42.7812 245.065 26.2812 257.615 17.7812C270.725 8.88122 293.455 12.7212 292.995 31.9912C292.915 35.2212 297.335 37.2012 299.565 34.7112C319.975 11.9012 353.225 1.90122 382.725 10.9012C399.925 16.1412 413.205 27.5312 414.615 46.3712ZM301.475 122.691C305.505 126.361 312.925 127.841 317.375 124.111C318.165 123.451 317.285 122.371 316.435 122.581C311.575 123.511 306.945 124.241 302.855 120.641C299.055 117.291 298.085 111.801 299.585 107.131C299.795 106.531 298.855 106.121 298.585 106.691C295.934 112.081 297.106 118.569 301.475 122.691ZM363.665 175.491C359.295 187.491 343.265 190.571 332.785 185.441C320.235 179.291 316.025 164.371 322.375 152.221C322.885 151.221 324.235 152.111 323.825 153.071C318.895 164.541 323.275 177.961 335.085 182.851C345.985 187.361 354.425 181.851 362.195 174.631C362.795 174.081 363.985 174.621 363.665 175.491ZM381.355 79.3412C380.565 80.3512 381.545 82.0612 382.835 81.2612C393.725 74.5212 394.945 61.6112 389.325 50.8512C383.899 40.5811 373.474 33.9196 361.875 33.3112C361.235 33.2712 361.065 34.3512 361.725 34.4512C371.279 35.7781 379.753 41.2714 384.865 49.4512C387.593 53.7098 389.101 58.6351 389.225 63.6912C389.234 69.5032 386.134 73.3674 382.802 77.5201C382.322 78.1189 381.836 78.7237 381.355 79.3412ZM430.696 174.949L430.696 174.948C434.144 164.725 437.606 154.458 430.805 144.411C430.205 143.501 431.615 142.731 432.245 143.571C440.495 154.661 437.445 169.781 430.595 180.851C430.358 181.205 429.902 181.342 429.509 181.176C429.116 181.01 428.896 180.588 428.985 180.171C429.521 178.433 430.108 176.691 430.696 174.949ZM446.275 158.501C446.588 168.083 443.229 177.423 436.885 184.611C424.145 199.551 404.425 206.951 386.625 196.401C386.185 196.121 385.665 196.771 386.065 197.121C402.255 211.501 425.035 202.591 438.255 188.591C453.955 171.941 452.365 148.921 441.835 129.741C441.537 129.284 440.955 129.106 440.451 129.317C439.948 129.528 439.668 130.068 439.785 130.601C440.513 133.787 441.454 136.91 442.393 140.026C444.212 146.066 446.024 152.083 446.275 158.501Z" fill="white"/>
<path d="M166.726 176.201C146.216 181.751 124.726 184.501 103.726 187.291C82.2361 190.141 60.0261 193.291 38.2461 193.371C40.0861 198.371 40.9961 204.151 42.0061 209.071C55.2661 207.341 68.6861 206.601 82.0061 205.121C97.3961 203.401 112.736 201.251 127.926 198.251C155.796 192.771 185.656 185.391 208.986 168.541C207.716 166.021 207.216 162.921 206.496 160.271C206.176 159.121 205.806 157.931 205.496 156.741C201.346 160.931 195.366 164.361 191.316 166.611C183.54 170.796 175.282 174.016 166.726 176.201Z" fill="#BE1E2D"/>
<path d="M115.904 98.1411C111.144 98.5811 98.8044 99.5711 95.7344 104.781C105.857 104.85 115.872 102.699 125.074 98.4811C122.404 97.2511 118.864 97.8711 115.904 98.1411Z" fill="white"/>
<path d="M77.375 143.221C82.125 142.561 86.875 141.871 91.615 141.111C101.108 139.591 110.555 137.861 119.955 135.921C129.635 133.921 139.315 131.821 148.875 129.311C151.935 128.501 160.705 126.011 154.935 122.661C150.715 120.201 142.285 121.831 137.865 122.871C137.482 122.961 137.087 122.988 136.695 122.951C132.325 130.951 117.185 134.291 109.605 134.841C105.325 135.151 96.325 135.841 93.695 131.681C93.5565 131.451 93.4297 131.214 93.315 130.971C82.855 134.541 72.225 137.531 63.625 144.541C67.955 145.441 73.985 143.721 77.375 143.221Z" fill="white"/>
<path d="M66.1356 166.411C66.4439 166.753 66.6908 167.145 66.8656 167.571C67.6656 168.471 68.8656 168.911 71.0256 169.161C74.0256 169.491 77.0256 169.541 80.0256 169.631C92.4955 170.016 104.974 169.226 117.296 167.271C129.197 165.372 140.909 162.431 152.296 158.481C155.126 157.481 158.006 156.481 160.756 155.321C165.486 153.321 167.056 150.841 165.956 145.531C164.956 140.601 163.486 135.721 162.456 130.781C157.256 136.471 145.656 137.991 139.546 139.411C123.546 143.098 107.416 146.135 91.1556 148.521C83.7356 149.601 76.2456 150.751 68.7656 151.341C66.8522 151.52 64.9256 151.504 63.0156 151.291C63.9456 155.401 64.3456 159.651 65.2956 163.751C65.4969 164.661 65.778 165.551 66.1356 166.411Z" fill="#BE1E2D"/>
<path fill-rule="evenodd" clip-rule="evenodd" d="M127.295 121.791C124.528 123.628 121.492 125.021 118.295 125.921C112.236 127.843 105.81 128.316 99.5352 127.301C98.6662 124.709 97.8743 122.09 97.0827 119.472C96.2619 116.758 95.4413 114.044 94.5352 111.361C106.38 111.772 118.155 109.373 128.895 104.361C129.129 105.572 129.271 106.845 129.404 108.043C129.499 108.893 129.589 109.705 129.705 110.431C129.785 110.943 129.87 111.439 129.953 111.922C130.636 115.912 131.158 118.963 127.295 121.791ZM118.715 110.551C118.021 110.699 117.385 111.046 116.885 111.551V111.521C116.174 112.232 115.775 113.196 115.775 114.201C115.775 115.206 116.174 116.17 116.885 116.881C117.392 117.344 118.008 117.671 118.675 117.831C119.981 118.585 121.588 118.589 122.897 117.842C124.206 117.094 125.02 115.708 125.035 114.201C124.999 112.707 124.208 111.333 122.935 110.551C121.626 109.811 120.025 109.811 118.715 110.551Z" fill="white"/>
<path fill-rule="evenodd" clip-rule="evenodd" d="M302.495 456.721C271.375 483.581 236.625 508.161 196.725 519.721C174.905 526.051 152.845 526.721 130.305 526.781C107.285 526.811 85.0547 525.471 62.7247 519.721C54.7247 487.888 47.688 455.854 41.6147 423.621C37.8147 403.391 34.5547 383.221 31.3547 362.761C28.2785 343.093 23.6499 323.952 18.979 304.635L18.4147 302.301C15.6947 291.008 13.3347 279.641 11.3347 268.201C10.3747 262.681 9.49469 257.144 8.69469 251.591C8.46773 250.002 8.28087 248.382 8.09247 246.749L8.09247 246.749C7.99864 245.936 7.90443 245.119 7.80469 244.301C7.97533 244.419 8.13951 244.536 8.30217 244.652L8.30219 244.652L8.30222 244.652L8.30228 244.652L8.30238 244.652L8.30253 244.653C8.63544 244.89 8.96202 245.123 9.32469 245.351C17.8751 250.856 29.7445 250.748 39.9981 250.654C41.2927 250.643 42.5615 250.631 43.7947 250.631C57.0762 250.599 70.3402 249.664 83.4947 247.831C111.155 244.051 138.225 236.861 164.585 227.731C177.635 223.211 190.515 218.221 203.265 212.921C204.486 212.413 205.716 211.91 206.95 211.405L206.95 211.405C215.875 207.752 225.019 204.011 232.495 197.861C236.13 194.91 239.139 191.262 241.345 187.131C242.498 191.354 243.674 195.571 244.851 199.788L244.851 199.79C247.622 209.725 250.394 219.661 252.865 229.671C257.815 249.721 262.355 269.871 266.725 290.061C275.471 330.874 284.231 371.681 293.005 412.481C296.165 427.234 299.328 441.981 302.495 456.721ZM233.011 376.882C241.406 379.323 250.319 381.915 258.725 382.011V382.031C261.425 382.061 262.925 377.801 260.205 376.561C252.373 373.1 243.136 371.725 234.401 370.425L234.401 370.425L234.4 370.425L234.398 370.424L234.395 370.424L234.39 370.423L234.387 370.423C232.375 370.123 230.39 369.827 228.455 369.511C224.835 368.921 223.205 374.141 226.905 375.141C228.898 375.685 230.938 376.279 233.009 376.881L233.01 376.881L233.01 376.881L233.011 376.882ZM250.125 279.441C252.005 282.951 253.565 287.231 252.705 291.261C252.557 291.65 252.185 291.906 251.77 291.906C251.354 291.906 250.982 291.65 250.835 291.261C250.345 289.483 250.049 287.642 249.753 285.797C249.445 283.875 249.135 281.948 248.605 280.081C248.522 279.687 248.73 279.29 249.101 279.134C249.472 278.978 249.901 279.107 250.125 279.441ZM221.496 357.528C230.872 356.901 241.484 356.19 249.375 352.141C251.905 350.841 250.505 347.271 247.975 347.161C243.921 346.906 239.826 347.805 235.804 348.689C234.627 348.947 233.456 349.205 232.295 349.431C230.598 349.733 228.897 350.04 227.193 350.349C223.244 351.063 219.276 351.781 215.295 352.431C212.215 352.921 212.905 358.181 216.045 357.921C217.791 357.776 219.619 357.654 221.496 357.528ZM236.105 227.851C238.226 233.006 239.549 238.498 240.863 243.946C241.333 245.896 241.801 247.84 242.305 249.761C242.5 250.508 242.697 251.254 242.893 251.998C244.456 257.924 246.005 263.798 246.805 269.901C246.915 270.731 245.565 271.071 245.225 270.331C242.155 263.641 240.375 256.661 238.665 249.521C238.476 248.734 238.285 247.948 238.094 247.161C236.552 240.812 235.013 234.472 234.835 228.021C234.815 227.231 235.845 227.221 236.105 227.851ZM207.779 325.808L207.305 326.231C204.575 328.721 208.515 332.411 211.265 330.191C215.675 326.634 220.25 323.27 224.815 319.915L224.817 319.913L225.405 319.481C226.684 318.541 228.035 317.642 229.394 316.739L229.394 316.738C232.37 314.76 235.386 312.754 237.775 310.221C240.375 307.471 237.115 303.951 233.965 305.291C230.154 306.919 226.656 309.82 223.326 312.581C222.4 313.349 221.487 314.105 220.585 314.821C216.171 318.319 211.98 322.059 207.779 325.808ZM28.9347 317.861C26.8099 312.728 25.4515 307.304 24.0983 301.901C23.751 300.515 23.4041 299.13 23.0447 297.751C22.7068 296.443 22.3361 295.123 21.9629 293.795C20.6245 289.029 19.2547 284.152 19.2547 279.311C19.2598 279.035 19.4467 278.796 19.7132 278.724C19.9797 278.652 20.2616 278.765 20.4047 279.001C22.9649 283.448 24.2807 288.71 25.5568 293.814C25.9106 295.229 26.2613 296.631 26.6347 298.001C26.9571 299.18 27.2882 300.357 27.6193 301.534L27.6195 301.535C29.1062 306.822 30.595 312.116 31.3147 317.571C31.5047 319.021 29.4047 318.981 28.9347 317.861ZM75.8046 398.247C82.0525 395.735 88.2406 393.247 95.0647 391.861V391.891C98.2647 391.241 97.5947 385.721 94.2647 386.071C83.5447 387.491 71.7847 390.201 63.2647 397.291C61.1047 399.081 63.4147 402.901 66.0047 402.001C69.3506 400.842 72.5855 399.541 75.8046 398.247ZM63.6494 361.016H63.6496C69.4648 361.636 75.2656 362.254 81.2347 362.171C85.0347 362.121 84.7847 367.461 81.2347 367.911C71.6147 369.121 59.9147 369.261 50.8047 365.461C48.1347 364.371 48.1247 359.821 51.5547 359.991V359.961C55.6328 360.161 59.6444 360.589 63.6491 361.016H63.6493H63.6494ZM63.2136 475.702C64.7747 483.367 66.3861 491.279 69.5547 498.061L69.5347 498.091C70.0447 499.171 71.7847 498.611 71.7647 497.441C71.5705 489.651 69.2062 481.476 66.9427 473.649C66.1757 470.997 65.4202 468.385 64.7647 465.841C61.9147 454.751 58.8747 443.691 55.1447 432.841C55.0106 432.504 54.6435 432.322 54.2938 432.419C53.944 432.517 53.7244 432.863 53.7847 433.221C55.9047 444.501 58.5947 455.661 61.2947 466.821C61.9883 469.686 62.597 472.675 63.2136 475.702ZM98.2747 419.111C91.6448 423.398 86.3725 428.991 81.0614 434.626L81.0613 434.626C78.9384 436.878 76.8092 439.137 74.5847 441.321C72.1247 443.731 68.6547 440.671 70.0347 437.801C75.1547 427.191 85.4347 419.801 95.2347 413.911C98.5547 411.921 101.485 417.041 98.2547 419.141L98.2747 419.111ZM110.212 364.957C110.822 365.594 111.425 366.225 112.015 366.851L111.995 366.881C117.399 372.614 123.09 378.071 129.045 383.231C140.395 393.151 152.825 402.801 166.395 409.531C168.465 411.881 173.395 411.041 173.395 406.971C173.585 390.961 174.085 375.031 175.745 359.101C176.352 353.227 177.178 347.395 178.005 341.559C178.253 339.804 178.502 338.048 178.745 336.291C179.475 331.001 179.485 325.411 176.035 321.001C168.235 311.021 157.175 319.751 151.555 327.091C145.57 334.953 141.413 344.051 139.385 353.721C135.755 350.061 132.275 346.291 128.985 342.291C128.895 342.183 128.806 342.075 128.716 341.966C124.918 337.372 120.933 332.552 114.935 330.901C102.705 327.521 95.0247 339.401 99.2847 350.221C101.494 355.845 106.007 360.562 110.212 364.957Z" fill="#939598"/>
<path d="M170.305 326.861C165.945 320.001 158.545 330.861 156.125 334.391C150.54 342.616 147.102 352.108 146.125 362.001C145.775 365.421 141.965 367.391 139.245 364.851C135.115 361.011 131.183 356.962 127.465 352.721C124.135 348.901 121.245 344.351 117.385 341.021C111.925 336.321 103.975 338.361 105.935 346.241C107.385 352.101 113.355 357.241 117.355 361.501C131.815 376.991 148.275 389.211 165.355 401.501C165.406 381.787 166.883 362.102 169.775 342.601C170.345 338.291 172.895 330.941 170.305 326.861Z" fill="#BE1E2D"/>
<path d="M38.0758 242.921C81.3457 243.001 123.886 233.231 164.536 218.971C174.662 215.411 184.726 211.601 194.726 207.541C203.726 203.871 213.196 200.421 221.606 195.401C228.606 191.221 237.886 183.281 235.736 173.921C233.836 165.661 223.406 166.821 215.736 166.661C215.736 166.941 215.796 167.211 215.806 167.481C217.174 168.998 217.221 171.29 215.916 172.861C206.226 183.281 190.726 188.371 177.726 192.951C162.851 198.09 147.629 202.163 132.176 205.141C116.706 208.201 101.076 210.371 85.4058 212.141C69.7358 213.911 53.8358 215.791 38.0858 215.921C35.9158 215.921 34.7558 213.711 35.0858 211.921C34.9586 211.665 34.858 211.397 34.7858 211.121C34.2158 208.981 33.5458 206.681 32.9258 204.321C27.8038 207.765 22.9225 211.554 18.3158 215.661C14.4858 219.221 7.93575 224.411 7.46575 229.971C6.22575 244.061 29.4558 242.911 38.0758 242.921Z" fill="white"/>
<path d="M143.476 173.431C158.166 170.701 173.226 167.531 186.476 160.301C189.86 158.482 193.076 156.368 196.086 153.981C198.216 152.261 203.996 148.571 200.406 146.351C197.776 144.731 192.206 145.541 189.256 145.781C184.616 146.161 180.256 147.481 175.676 148.371C175.114 148.484 174.533 148.453 173.986 148.281C173.986 148.801 173.986 149.281 173.986 149.831C173.846 155.541 170.216 159.181 165.266 161.501C151.046 168.191 134.756 172.071 119.266 174.501C103.313 177.123 87.097 177.768 70.9859 176.421C67.2759 176.071 63.8959 175.161 61.5559 172.791C56.7459 174.301 51.6659 174.971 46.9359 176.791C43.3059 178.231 39.6159 180.411 37.5859 183.871C37.1082 184.743 36.7708 185.684 36.5859 186.661C54.0859 184.551 71.7759 183.761 89.2859 181.661C107.439 179.514 125.503 176.771 143.476 173.431Z" fill="white"/>
<path d="M297.105 504.451C303.005 498.011 308.385 491.001 307.985 482.511C307.615 480.801 307.255 479.101 306.885 477.401C295.403 490.216 282.193 501.37 267.635 510.541C236.795 530.261 201.235 541.011 165.075 545.301C145.678 547.71 126.096 548.262 106.595 546.951C93.4548 545.951 79.4848 543.801 67.4648 537.951C68.0748 540.271 68.6748 542.591 69.2948 544.951C69.3807 545.278 69.4277 545.613 69.4348 545.951C85.4348 560.591 107.085 561.661 128.045 563.401C165.045 566.461 200.925 564.141 235.205 548.821C251.091 541.779 265.933 532.587 279.315 521.501C285.615 516.217 291.558 510.521 297.105 504.451Z" fill="#BE1E2D"/>
<path d="M196.915 531.431C238.725 521.071 276.425 499.861 304.725 467.171L303.495 461.471C272.315 488.101 237.585 512.201 197.795 523.651C175.665 530.021 153.255 530.651 130.375 530.651C108.275 530.651 84.7953 530.651 63.6953 523.201C64.1953 525.201 64.6953 527.131 65.1853 529.091C84.6453 537.351 104.605 539.751 125.875 539.691C149.801 539.796 173.652 537.022 196.915 531.431Z" fill="white"/>
<path fill-rule="evenodd" clip-rule="evenodd" d="M303.573 423.494L303.57 423.479C290.488 360.745 277.392 297.942 262.085 235.771C261.646 233.989 261.208 232.202 260.769 230.413L260.769 230.413C255.648 209.541 250.425 188.255 242.725 168.241C242.539 167.744 242.237 167.299 241.845 166.941C237.728 159.61 229.461 159.291 221.432 158.982H221.432C218.872 158.883 216.335 158.785 213.965 158.461H213.375V158.391C213.181 157.763 212.994 157.116 212.804 156.46C212.09 153.986 211.341 151.394 210.005 149.251C213.945 132.091 180.005 138.481 172.945 141.931L172.825 142.001C172.742 141.669 172.658 141.338 172.575 141.008L172.572 140.997L172.57 140.989C172.383 140.252 172.197 139.519 172.025 138.791C171.734 137.551 171.459 136.304 171.184 135.055L171.183 135.052L171.183 135.049C170.4 131.496 169.614 127.931 168.445 124.491C168.051 122.906 166.55 121.853 164.925 122.021C162.925 112.421 145.925 113.711 137.775 115.421C137.385 109.421 136.375 102.091 133.825 97.1212C131.195 91.9812 126.045 90.7612 120.645 90.8512C110.755 91.0212 87.6453 92.8512 88.4353 107.041C88.3248 107.362 88.2806 107.703 88.3053 108.041C88.5526 112.148 89.199 116.22 90.2353 120.201C90.4407 121.013 90.6386 121.922 90.8465 122.878L90.8466 122.878L90.8467 122.879L90.8469 122.88C91.0539 123.831 91.2709 124.829 91.5153 125.821C78.2553 128.241 65.0853 133.191 55.4553 142.871C54.1676 144.204 54.1676 146.318 55.4553 147.651C55.6353 147.841 55.8153 148.011 55.9953 148.171C56.005 154.176 56.8018 160.154 58.3653 165.951C50.6253 167.491 42.2853 169.951 36.4553 174.951C31.8953 178.871 27.0753 187.411 30.8653 193.071C30.9545 194.834 31.1684 196.589 31.5053 198.321C31.1219 198.376 30.7502 198.495 30.4053 198.671C19.6253 204.301 0.315344 218.821 0.565344 232.171C0.475843 232.372 0.415239 232.584 0.385344 232.801C-0.653326 240.064 0.606116 247.767 1.81749 255.176C2.12227 257.04 2.42401 258.886 2.68534 260.701C4.26534 271.401 6.21534 282.051 8.46534 292.641C10.1588 300.582 12.0807 308.465 14.0022 316.346C17.0051 328.663 20.0071 340.976 22.1353 353.501C23.2446 360.062 24.3413 366.62 25.4376 373.177L25.4377 373.178C31.2595 407.996 37.0695 442.743 44.6853 477.271C48.452 494.358 52.4987 511.381 56.8253 528.341C56.222 529.62 56.6174 531.146 57.7653 531.971C59.052 536.978 60.3587 541.978 61.6853 546.971C61.954 548.142 62.7969 549.098 63.9253 549.511C73.9253 564.731 96.1053 568.081 112.675 569.981C135.475 572.591 158.745 574.581 181.625 571.981C220.125 567.502 256.456 551.797 286.095 526.821L286.532 526.451L287.073 525.992C299.957 515.075 323.362 495.242 314.725 476.721C310.976 458.995 307.275 441.247 303.573 423.494ZM207.01 162.453L207.01 162.453C207.504 164.523 208.022 166.689 208.955 168.541C185.625 185.391 155.765 192.771 127.895 198.251C112.705 201.251 97.3653 203.401 81.9753 205.121C76.2759 205.756 70.5507 206.255 64.8202 206.755C57.1984 207.419 49.5673 208.084 41.9753 209.071C41.7875 208.147 41.6026 207.193 41.4138 206.218C40.5973 202.005 39.7098 197.424 38.2153 193.371C58.5758 193.306 79.3208 190.54 99.4863 187.851L99.4864 187.851L99.4934 187.851C100.897 187.663 102.298 187.477 103.695 187.291L105.877 187.002L105.877 187.002L105.877 187.002L105.877 187.002C126.182 184.308 146.895 181.559 166.695 176.201C175.231 174.012 183.468 170.791 191.225 166.611C195.275 164.361 201.225 160.931 205.405 156.741L205.405 156.741C205.775 157.931 206.145 159.121 206.465 160.271C206.656 160.972 206.831 161.704 207.009 162.449L207.009 162.449L207.009 162.449L207.009 162.449L207.009 162.45L207.009 162.45L207.009 162.451L207.01 162.452L207.01 162.453ZM117.233 98.0089L117.233 98.0089L117.233 98.0089C116.782 98.0559 116.339 98.1022 115.905 98.1412L115.493 98.1791C110.469 98.6393 98.7204 99.7154 95.7353 104.781C105.858 104.85 115.873 102.7 125.075 98.4812C122.791 97.4289 119.899 97.7307 117.233 98.0089ZM129.415 108.044L129.415 108.044L129.415 108.045L129.415 108.045L129.415 108.046L129.415 108.046L129.415 108.046L129.415 108.047L129.415 108.047C129.509 108.896 129.599 109.707 129.715 110.431C129.795 110.942 129.88 111.438 129.963 111.92L129.963 111.922C130.646 115.913 131.168 118.963 127.305 121.791C124.538 123.628 121.502 125.021 118.305 125.921C112.234 127.835 105.797 128.294 99.5153 127.261C98.6464 124.669 97.8547 122.051 97.0631 119.433L97.0629 119.432C96.2421 116.718 95.4215 114.004 94.5153 111.321C106.354 111.743 118.125 109.358 128.865 104.361H128.905C129.14 105.568 129.281 106.843 129.415 108.044ZM93.7353 131.681C93.5968 131.451 93.47 131.214 93.3553 130.971H93.3153C92.0708 131.396 90.8238 131.813 89.5781 132.229L89.5777 132.229L89.5773 132.229L89.5769 132.229L89.5765 132.229L89.5761 132.229L89.5757 132.229C80.3534 135.31 71.2062 138.366 63.6653 144.541C66.9203 145.218 71.1359 144.397 74.4686 143.748C75.5693 143.533 76.5737 143.338 77.4153 143.221C82.1653 142.561 86.9153 141.871 91.6553 141.111C101.142 139.585 110.589 137.855 119.995 135.921C129.675 133.941 139.355 131.821 148.915 129.311C151.975 128.501 160.745 126.011 154.975 122.661C150.755 120.201 142.325 121.871 137.905 122.871C137.522 122.961 137.127 122.988 136.735 122.951C132.365 130.991 117.225 134.291 109.645 134.841L109.479 134.853C105.136 135.169 96.3317 135.808 93.7353 131.681ZM89.3562 148.795L89.3566 148.795C89.9803 148.704 90.6033 148.612 91.2253 148.521C107.479 146.141 123.609 143.105 139.615 139.411C140.581 139.187 141.683 138.96 142.876 138.715C149.231 137.407 158.147 135.572 162.525 130.781C163.043 133.337 163.686 135.877 164.329 138.415C164.929 140.784 165.528 143.152 166.025 145.531C167.125 150.841 165.555 153.291 160.825 155.321C158.155 156.477 155.363 157.443 152.613 158.396L152.612 158.396L152.612 158.396L152.612 158.396L152.612 158.396L152.612 158.396L152.365 158.481C140.979 162.431 129.267 165.372 117.365 167.271C105.044 169.226 92.5652 170.016 80.0953 169.631C79.7203 169.62 79.3453 169.609 78.9703 169.599C76.3453 169.524 73.7203 169.45 71.0953 169.161C68.9553 168.911 67.7353 168.471 66.9353 167.571C66.7606 167.145 66.5136 166.753 66.2053 166.411C65.8579 165.55 65.5869 164.66 65.3953 163.751C64.9112 161.662 64.5699 159.534 64.2286 157.405C63.9 155.356 63.5714 153.307 63.1153 151.291C65.0022 151.499 66.9051 151.515 68.7953 151.341H68.8353C75.6856 150.801 82.5693 149.791 89.3561 148.795L89.3562 148.795ZM46.9753 176.801C43.3453 178.241 39.6253 180.421 37.6253 183.881C37.1457 184.759 36.8082 185.708 36.6253 186.691C45.4767 185.619 54.3766 184.887 63.2773 184.155H63.2774H63.2775L63.2778 184.155C71.9745 183.439 80.6719 182.724 89.3253 181.691C107.452 179.525 125.515 176.775 143.515 173.441C158.225 170.711 173.285 167.541 186.515 160.311C189.899 158.493 193.115 156.378 196.125 153.991C196.391 153.777 196.713 153.532 197.067 153.263C199.551 151.374 203.588 148.304 200.445 146.361C198.166 144.957 193.715 145.379 190.615 145.672C190.139 145.717 189.695 145.759 189.295 145.791C186.127 146.051 183.07 146.749 180.004 147.448C178.581 147.774 177.155 148.099 175.715 148.381C175.153 148.494 174.572 148.463 174.025 148.291V149.841C173.885 155.511 170.255 159.191 165.305 161.511C151.055 168.231 134.765 172.111 119.305 174.511C103.352 177.134 87.1364 177.778 71.0253 176.431C67.3153 176.081 63.9353 175.171 61.5953 172.801C59.6508 173.396 57.6621 173.859 55.6702 174.323C52.7351 175.007 49.7931 175.693 46.9753 176.801ZM7.39534 229.941C7.80964 225.04 12.9327 220.427 16.7781 216.964C17.2951 216.498 17.7891 216.053 18.2453 215.631C22.8521 211.524 27.7334 207.735 32.8553 204.291C33.1937 205.579 33.5469 206.849 33.8906 208.085L33.8908 208.086L33.8909 208.086C34.177 209.114 34.4565 210.119 34.7153 211.091C34.7876 211.367 34.8882 211.636 35.0153 211.891C34.7053 213.681 35.8653 215.891 38.0153 215.891C52.3349 215.773 66.8033 214.167 81.0672 212.584H81.0673L81.0838 212.582C82.5032 212.424 83.9204 212.267 85.3353 212.111C100.975 210.391 116.635 208.201 132.105 205.111C147.581 202.146 162.827 198.083 177.725 192.951L178.059 192.834C178.294 192.752 178.53 192.669 178.767 192.586C178.993 192.508 179.219 192.428 179.446 192.349L179.462 192.343C192.137 187.913 206.699 182.823 215.915 172.861C217.221 171.29 217.174 168.998 215.805 167.481C215.805 167.211 215.805 166.941 215.735 166.661C216.678 166.681 217.662 166.681 218.667 166.68C225.84 166.678 234.069 166.676 235.735 173.921C237.885 183.281 228.635 191.221 221.605 195.401C214.5 199.625 206.668 202.757 198.957 205.841L198.957 205.841C197.54 206.407 196.128 206.972 194.725 207.541C184.765 211.581 174.719 215.391 164.585 218.971C123.935 233.231 81.3953 242.971 38.1253 242.921C37.5579 242.921 36.928 242.925 36.2467 242.93H36.2454H36.2441H36.2426C26.5132 242.996 6.30208 243.135 7.39534 229.941ZM31.3453 362.761C34.5153 383.091 37.8053 403.391 41.6053 423.621C47.6853 455.861 54.752 487.875 62.8053 519.661C85.1353 525.411 107.385 526.721 130.385 526.721C152.895 526.721 174.955 526.031 196.725 519.721C236.575 508.181 271.325 483.601 302.445 456.721C299.299 442.001 296.135 427.265 292.955 412.511C284.282 371.678 275.535 330.861 266.715 290.061C262.345 269.871 257.805 249.721 252.855 229.671C250.384 219.661 247.613 209.725 244.842 199.79L244.841 199.789L244.841 199.787C243.665 195.57 242.488 191.353 241.335 187.131C239.13 191.262 236.121 194.91 232.485 197.861C225.06 203.96 215.953 207.699 207.109 211.329C205.817 211.86 204.53 212.388 203.255 212.921C190.505 218.221 177.625 223.211 164.575 227.731C138.215 236.831 111.145 244.051 83.4853 247.831C70.3308 249.664 57.0669 250.599 43.7853 250.631C42.5589 250.631 41.2956 250.643 40.0055 250.655C29.7773 250.748 17.8668 250.857 9.31534 245.351C8.79534 245.011 8.28534 244.661 7.79534 244.301C7.89508 245.119 7.9893 245.936 8.08313 246.749C8.27153 248.383 8.45838 250.002 8.68534 251.591C9.48534 257.131 10.3653 262.668 11.3253 268.201C13.3187 279.648 15.6787 291.015 18.4053 302.301L18.96 304.595C23.6363 323.935 28.2959 343.204 31.3453 362.761ZM129.806 530.661H129.807L130.335 530.661C153.215 530.661 175.625 530.021 197.755 523.661C237.545 512.211 272.275 488.111 303.455 461.481L304.685 467.181C276.425 499.871 238.685 521.081 196.915 531.441C173.64 537.042 149.775 539.822 125.835 539.721C104.565 539.781 84.6053 537.381 65.1453 529.121C64.9582 528.38 64.7725 527.64 64.5871 526.902L64.5865 526.9C64.2767 525.666 63.968 524.437 63.6553 523.211C84.5871 530.641 107.861 530.652 129.806 530.661ZM128.045 563.301C165.035 566.361 200.925 564.041 235.205 548.721C251.097 541.648 265.94 532.422 279.315 521.301C285.612 516.049 291.555 510.387 297.105 504.351C302.985 497.911 308.385 490.901 307.985 482.411C307.823 481.659 307.662 480.909 307.501 480.159C307.297 479.205 307.093 478.253 306.885 477.301C295.404 490.116 282.194 501.27 267.635 510.441C236.795 530.201 201.235 540.911 165.075 545.201C145.679 547.61 126.097 548.162 106.595 546.851C93.4653 545.921 79.4653 543.741 67.4653 537.851C68.0753 540.211 68.6753 542.531 69.2953 544.851C69.3812 545.178 69.4282 545.514 69.4353 545.851C84.6649 559.778 104.953 561.425 124.971 563.05C125.996 563.133 127.022 563.216 128.045 563.301Z" fill="#231F20"/>
<path fill-rule="evenodd" clip-rule="evenodd" d="M175.716 359.131C174.056 375.061 173.556 391.001 173.366 407.001C173.316 411.071 168.436 411.911 166.346 409.531C152.776 402.801 140.386 393.151 128.996 383.231C123.058 378.06 117.384 372.593 111.996 366.851C111.407 366.225 110.803 365.594 110.193 364.957C105.988 360.562 101.475 355.845 99.2659 350.221C95.0059 339.401 102.686 327.521 114.916 330.901C120.914 332.552 124.899 337.372 128.697 341.966C128.787 342.075 128.876 342.183 128.966 342.291C132.256 346.271 135.736 350.061 139.366 353.721C141.395 344.062 145.549 334.976 151.526 327.121C157.146 319.781 168.206 311.031 176.006 321.031C179.456 325.441 179.446 331.021 178.716 336.321C178.383 338.849 178.029 341.373 177.674 343.897C176.962 348.964 176.25 354.032 175.716 359.131ZM115.068 359.15C115.873 359.968 116.651 360.758 117.366 361.521H117.356C131.816 377.011 148.276 389.231 165.296 401.501C165.347 381.787 166.824 362.102 169.716 342.601C169.852 341.592 170.098 340.417 170.361 339.156C171.225 335.029 172.28 329.986 170.296 326.861C165.957 320.035 158.608 330.756 156.152 334.339L156.116 334.391C150.531 342.616 147.093 352.108 146.116 362.001C145.766 365.421 141.956 367.391 139.236 364.851C135.113 361.017 131.188 356.975 127.476 352.741C126.329 351.426 125.234 350.023 124.134 348.614C122.04 345.932 119.926 343.224 117.396 341.041C111.946 336.341 103.946 338.381 105.946 346.261C107.112 351.074 111.368 355.394 115.068 359.15Z" fill="#231F20"/>
<path d="M81.2357 367.941C84.7857 367.491 85.0357 362.151 81.2357 362.201C71.1557 362.341 61.5357 360.481 51.5557 359.991C48.1257 359.821 48.1357 364.371 50.8057 365.491C59.9157 369.291 71.6157 369.151 81.2357 367.941Z" fill="#231F20"/>
<path d="M66.0055 402.031C75.8455 398.621 84.7255 394.031 95.0655 391.891C98.2655 391.241 97.5955 385.671 94.2855 386.101C83.5455 387.521 71.7855 390.231 63.2855 397.321C61.1055 399.111 63.4155 402.931 66.0055 402.031Z" fill="#231F20"/>
<path d="M95.2152 413.941C85.4152 419.851 75.1352 427.221 70.0152 437.831C68.6352 440.701 72.1052 443.761 74.5652 441.351C82.3552 433.701 88.9752 425.181 98.2552 419.141C101.485 417.041 98.5552 411.921 95.2152 413.941Z" fill="#231F20"/>
<path d="M211.265 330.191C215.865 326.481 220.645 322.981 225.405 319.481C229.485 316.481 234.295 313.911 237.775 310.221C240.375 307.471 237.115 303.951 233.965 305.291C229.095 307.371 224.735 311.531 220.585 314.821C216.005 318.451 211.665 322.341 207.305 326.231C204.575 328.721 208.515 332.411 211.265 330.191Z" fill="#231F20"/>
<path d="M232.336 349.391C226.666 350.461 220.996 351.501 215.336 352.391C212.256 352.901 212.946 358.141 216.086 357.881C226.556 357.011 239.946 356.961 249.416 352.101C251.946 350.801 250.546 347.231 248.056 347.101C242.776 346.791 237.466 348.431 232.336 349.391Z" fill="#231F20"/>
<path d="M226.875 375.161C236.945 377.911 248.215 381.911 258.695 382.031C261.425 382.031 262.925 377.801 260.175 376.581C250.535 372.321 238.765 371.221 228.425 369.531C224.805 368.941 223.175 374.141 226.875 375.161Z" fill="#231F20"/>
<path d="M118.726 117.861C120.032 118.615 121.639 118.619 122.948 117.872C124.257 117.125 125.071 115.738 125.086 114.231C125.05 112.737 124.259 111.363 122.986 110.581C121.677 109.841 120.076 109.841 118.766 110.581C118.072 110.729 117.436 111.076 116.936 111.581C116.225 112.292 115.826 113.256 115.826 114.261C115.826 115.266 116.225 116.23 116.936 116.941C117.446 117.394 118.062 117.71 118.726 117.861Z" fill="#231F20"/>
<path fill-rule="evenodd" clip-rule="evenodd" d="M299.626 23.7111C324.086 1.06113 361.726 -6.77887 392.726 6.41113C411.486 14.4211 422.346 29.7211 422.486 50.4411C422.576 62.8211 419.326 76.1311 411.376 85.6411C427.258 85.9741 442.328 92.7279 453.146 104.361C480.886 134.251 472.446 179.701 448.446 208.781C436.786 222.881 419.946 237.861 400.286 235.781C385.106 234.171 367.236 227.951 356.106 216.551C346.316 231.161 323.286 230.451 311.196 217.761C296.116 201.941 295.336 177.341 301.676 157.031C290.686 160.631 278.016 156.591 270.416 147.031C258.726 132.351 261.006 113.061 267.126 96.5511C234.392 93.6445 201.666 90.6445 168.946 87.5511C167.019 87.3785 165.529 85.7855 165.486 83.8511C164.843 83.0575 164.626 82.0007 164.904 81.0179C165.183 80.0352 165.922 79.2493 166.886 78.9111C190.052 70.8578 213.302 63.0211 236.636 55.4011C232.616 37.0311 241.086 16.4811 258.726 8.40113C274.376 1.24113 294.726 7.53113 299.626 23.7111ZM452.886 116.541C441.626 99.3511 420.086 89.7111 399.886 94.6311H399.836C395.636 95.6511 392.816 89.6011 396.866 87.5011C411.426 79.8711 415.796 61.6611 414.656 46.3711C413.246 27.5311 399.966 16.1411 382.726 10.9011C353.186 1.92113 319.936 11.8711 299.526 34.7111C297.296 37.2011 292.876 35.2211 292.956 31.9911C293.456 12.7811 270.746 8.88113 257.616 17.7811C245.066 26.2811 240.506 42.7811 244.896 56.9011C245.423 58.9211 244.249 60.9945 242.246 61.5811C221.492 68.3411 200.679 74.9111 179.806 81.2911C210.619 84.0511 241.426 86.8811 272.226 89.7811C275.136 90.0611 276.436 92.5811 275.326 95.1911C269.546 108.821 265.766 125.141 273.546 138.821C279.916 150.021 295.536 156.261 306.016 146.461C309.176 143.511 313.246 147.221 311.656 150.811C303.916 168.211 302.056 191.011 312.916 207.601C317.516 214.621 324.626 219.781 333.226 219.861C340.946 219.921 348.926 216.151 351.516 208.491C351.995 207.03 353.27 205.973 354.795 205.772C356.32 205.572 357.825 206.263 358.666 207.551C364.876 216.301 374.896 220.701 384.806 223.891C396.026 227.501 406.806 230.221 417.806 224.761C436.036 215.741 451.116 196.041 458.116 177.241C465.436 157.541 464.626 134.461 452.886 116.541Z" fill="#231F20"/>
<path d="M20.4059 279.001C20.2627 278.765 19.9809 278.652 19.7144 278.724C19.4479 278.796 19.261 279.035 19.2559 279.311C19.2559 285.501 21.4959 291.791 23.0459 297.751C24.8059 304.501 26.2659 311.411 28.9359 317.861C29.4059 318.981 31.5059 319.021 31.3159 317.541C30.4359 310.871 28.4059 304.441 26.6359 297.971C24.9159 291.721 23.7259 284.721 20.4059 279.001Z" fill="#231F20"/>
<path d="M55.1258 432.871C54.9918 432.534 54.6246 432.352 54.2749 432.449C53.9251 432.547 53.7055 432.893 53.7658 433.251C55.8858 444.531 58.5758 455.691 61.2758 466.851C63.7258 476.971 65.1158 488.631 69.5358 498.091C70.0458 499.171 71.7858 498.611 71.7558 497.491C71.4858 487.061 67.3358 475.941 64.7558 465.891C61.8958 454.781 58.8558 443.721 55.1258 432.871Z" fill="#231F20"/>
<path d="M245.226 270.331C245.566 271.071 246.916 270.731 246.806 269.901C245.906 263.031 244.056 256.451 242.306 249.761C240.396 242.471 238.986 234.831 236.106 227.851C235.846 227.221 234.816 227.231 234.836 228.021C235.036 235.271 236.976 242.491 238.666 249.521C240.356 256.551 242.156 263.641 245.226 270.331Z" fill="#231F20"/>
<path d="M250.836 291.261C250.983 291.65 251.355 291.907 251.771 291.907C252.186 291.907 252.559 291.65 252.706 291.261C253.566 287.261 252.006 282.951 250.126 279.441C249.902 279.107 249.473 278.978 249.102 279.135C248.731 279.291 248.523 279.688 248.606 280.081C249.646 283.721 249.806 287.631 250.836 291.261Z" fill="#231F20"/>
<path d="M389.324 50.851C383.904 40.5732 373.478 33.9035 361.874 33.291C361.234 33.291 361.064 34.291 361.724 34.431C371.278 35.7579 379.753 41.2512 384.864 49.431C387.602 53.704 389.11 58.6478 389.224 63.721C389.224 70.331 385.174 74.471 381.354 79.371C380.564 80.371 381.544 82.091 382.834 81.291C393.724 74.521 394.944 61.611 389.324 50.851Z" fill="#231F20"/>
<path d="M316.455 122.531C311.595 123.461 306.965 124.191 302.875 120.591C299.075 117.241 298.105 111.751 299.605 107.081C299.795 106.481 298.855 106.081 298.605 106.641C295.954 112.031 297.126 118.519 301.495 122.641C305.495 126.311 312.945 127.791 317.395 124.061C318.165 123.451 317.285 122.371 316.455 122.531Z" fill="#231F20"/>
<path d="M362.194 174.631C354.424 181.801 345.984 187.361 335.084 182.851C323.274 177.961 318.894 164.541 323.824 153.071C324.234 152.071 322.884 151.241 322.374 152.221C316.024 164.371 320.234 179.291 332.784 185.441C343.264 190.571 359.294 187.441 363.664 175.491C363.984 174.621 362.794 174.081 362.194 174.631Z" fill="#231F20"/>
<path d="M386.065 197.121C402.275 211.501 425.065 202.621 438.255 188.591C453.955 171.941 452.365 148.921 441.835 129.741C441.537 129.284 440.955 129.106 440.452 129.317C439.948 129.528 439.668 130.068 439.785 130.601C441.925 139.961 445.895 148.771 446.275 158.501C446.588 168.083 443.229 177.423 436.885 184.611C424.145 199.551 404.425 206.951 386.625 196.401C386.185 196.131 385.665 196.771 386.065 197.121Z" fill="#231F20"/>
<path d="M430.596 180.851C437.446 169.781 440.496 154.661 432.246 143.571C431.616 142.731 430.246 143.501 430.806 144.411C438.806 156.181 432.666 168.231 428.986 180.171C428.898 180.588 429.118 181.01 429.511 181.176C429.903 181.342 430.359 181.205 430.596 180.851Z" fill="#231F20"/>
</svg>
