<svg width="260" height="585" viewBox="0 0 260 585" fill="none" xmlns="http://www.w3.org/2000/svg">
<path d="M141.689 188.303C141.149 176.823 139.689 164.813 140.599 153.303C132.82 154.553 135.51 168.563 135.84 174.123C136.333 182.123 136.813 190.123 137.279 198.123L138.359 216.883C139.919 216.433 141.449 215.943 142.979 215.443C142.552 206.403 142.122 197.356 141.689 188.303Z" fill="#F2B879"/>
<path d="M208.481 103.453C211.536 96.341 213.556 88.8281 214.481 81.1431C215.591 72.0031 216.781 42.3931 204.021 40.1431C209.951 51.8831 208.951 66.2831 206.511 78.8431C204.809 86.825 202.581 94.6856 199.841 102.373C198.421 106.613 196.961 110.843 195.581 115.103C195.031 116.783 194.031 118.693 193.881 120.433C193.721 121.113 193.472 121.769 193.141 122.383L196.091 121.743C202.031 119.003 206.091 109.003 208.481 103.453Z" fill="#E27683"/>
<path d="M143.69 230.293C143.69 229.443 143.6 228.583 143.56 227.723C142.03 227.903 140.51 228.053 139 228.143C139.3 233.376 139.597 238.603 139.89 243.823C142.95 299.543 146.007 355.269 149.06 411.003C151.99 466.003 155.57 521.183 156.46 576.273C165.46 578.053 162.24 558.703 161.96 554.173C161.487 546.579 161.02 538.986 160.56 531.393C159.56 515.393 158.42 499.393 157.39 483.393C153.78 427.043 150.66 370.663 147.68 314.273C146.21 286.293 145.06 258.283 143.69 230.293Z" fill="#F2B879"/>
<path d="M177.037 166.523C177.677 164.823 180.197 154.623 175.497 155.833C174.97 155.98 174.414 155.98 173.887 155.833C172.319 158.178 171.278 160.836 170.837 163.623C170.517 165.393 169.277 173.123 171.087 173.933C173.247 174.863 176.357 168.353 177.037 166.523Z" fill="#E27683"/>
<path fill-rule="evenodd" clip-rule="evenodd" d="M126.48 219.813C126.666 219.743 126.856 219.686 127.05 219.643C128.077 219.434 129.096 219.208 130.122 218.981L130.43 218.913C130.257 215.579 130.09 212.246 129.93 208.913C129.707 204.312 129.439 199.704 129.171 195.093L129.17 195.09V195.09C128.584 185.011 127.997 174.918 127.88 164.853C127.77 155.913 131.8 144.473 142.7 146.703C144.117 146.267 145.624 147.038 146.1 148.443C148.879 159.9 149.149 172.3 149.414 184.421V184.421C149.513 188.962 149.611 193.464 149.84 197.863L150.62 212.563C155.13 210.682 159.478 208.434 163.62 205.843C174.62 198.893 184.13 189.843 192.46 179.843C208.57 160.573 221.92 137.633 233.17 115.223C243.35 94.9626 253.75 67.0327 244.79 44.6627C237.1 25.4727 217.32 12.2926 196.57 13.7326C172.26 15.4226 151.16 33.4227 139.15 53.6627C137.15 56.9927 132.73 56.6627 130.68 53.6627C122.33 41.4727 113.05 29.9627 101.68 20.4026C89.4799 10.1727 74.8099 8.76265 59.3899 10.2726C46.9399 11.4926 34.3899 15.6326 25.1999 24.4726C17.0499 32.3526 12.1999 42.8926 9.99993 53.9026C4.69993 80.3626 16.3799 107.073 29.2299 129.563C41.8671 151.511 57.8032 171.387 76.4799 188.493C85.9099 197.183 95.9899 205.633 107 212.253C112.962 215.971 119.57 218.535 126.48 219.813ZM189.78 104.243L190.174 103.067C193.557 92.9753 196.957 82.8314 198.68 72.2428C200.47 61.2427 199.52 50.7527 197.68 39.9827C197.414 39.412 197.317 38.7769 197.4 38.1527C197.409 37.7536 197.505 37.3612 197.68 37.0027L198.08 35.5227C198.561 33.9753 199.971 32.9033 201.591 32.8526C221.591 30.5426 224.351 59.4927 224.071 73.3528C223.721 91.1028 217.931 111.003 206.071 124.603C201.681 129.663 193.78 134.053 187.55 129.313C181.701 124.771 185.557 115.021 188.287 108.119C188.856 106.679 189.377 105.362 189.75 104.243H189.78ZM172.37 150.973C165.11 154.513 163.6 162.313 163.43 170.123H163.4C163.32 173.873 163.29 177.933 166.36 180.553C169.13 183.053 172.47 182.553 175.26 180.553C181.87 175.873 185.98 166.823 185.63 158.823C185.34 152.343 178.72 144.433 172.57 150.743C172.498 150.815 172.431 150.891 172.37 150.973Z" fill="#BE1E2D"/>
<path fill-rule="evenodd" clip-rule="evenodd" d="M134.389 297.933C133.189 274.666 132.009 251.403 130.849 228.143C120.254 227.438 110.014 224.041 101.099 218.273C87.6791 209.813 75.3391 199.153 64.0991 188.023C43.2391 167.343 25.2691 142.883 12.6191 116.343C0.669057 91.2628 -5.48094 62.0928 6.41906 35.8028C18.0191 10.1628 44.0491 -0.197163 70.9191 0.00283691C86.4791 0.0928369 98.6091 4.36284 110.379 14.6528C119.806 22.8555 128.132 32.2435 135.149 42.5828C142.339 33.0028 150.069 24.0628 160.069 17.0028C172.399 8.22284 187.479 3.00284 202.669 3.33284C226.169 3.76284 246.939 19.4328 255.599 41.0028C265.649 66.0028 255.189 96.1428 243.899 119.003C237.089 132.693 229.029 145.843 220.899 158.773C213.459 170.603 205.409 182.153 195.999 192.513C184.289 205.393 168.909 217.683 151.859 223.683C152.07 224.501 151.86 225.371 151.299 226.003L152.509 248.283C155.193 298.962 158.156 349.628 161.118 400.291L161.118 400.291L161.119 400.301C161.71 410.405 162.3 420.509 162.889 430.613C164.622 460.993 166.319 491.376 167.979 521.763C168.263 526.971 168.709 532.221 169.156 537.484C169.985 547.238 170.817 557.038 170.629 566.703C170.449 576.023 164.889 586.243 154.129 583.703C152.393 583.366 151.197 581.763 151.369 580.003C150.89 579.487 150.598 578.825 150.539 578.123C148.969 561.303 147.719 544.423 146.539 527.613C145.724 516.001 145.133 504.366 144.542 492.732L144.542 492.732L144.542 492.731L144.542 492.727L144.542 492.722C144.278 487.518 144.013 482.314 143.729 477.113C140.389 417.393 137.389 357.663 134.389 297.933ZM135.839 174.143C136.326 182.143 136.806 190.143 137.279 198.143L138.359 216.913C139.919 216.473 141.449 215.973 142.979 215.473C142.539 206.419 142.109 197.369 141.689 188.323C141.542 185.205 141.328 182.044 141.112 178.862C140.537 170.37 139.952 161.725 140.599 153.323C133.937 154.396 134.962 164.874 135.595 171.335L135.595 171.336C135.699 172.401 135.792 173.356 135.839 174.143ZM157.389 483.403C157.854 490.845 158.363 498.287 158.871 505.728C159.456 514.287 160.04 522.845 160.559 531.403C161.019 538.996 161.486 546.59 161.959 554.183C161.994 554.752 162.076 555.556 162.175 556.522L162.175 556.523C162.862 563.244 164.354 577.839 156.459 576.283C155.741 531.862 153.275 487.415 150.81 443.005L150.81 443.005C150.218 432.338 149.626 421.674 149.059 411.013C146.106 355.293 143.049 299.576 139.889 243.863C139.596 238.636 139.299 233.41 138.999 228.183C140.509 228.093 141.999 227.943 143.559 227.763C143.559 228.392 143.602 229.021 143.644 229.647V229.647C143.66 229.876 143.676 230.105 143.689 230.333C144.237 241.528 144.749 252.723 145.262 263.919L145.263 263.932L145.263 263.933C146.032 280.733 146.801 297.533 147.689 314.333C150.659 370.663 153.779 427.003 157.389 483.393V483.403ZM9.99905 53.9028C4.69907 80.3628 16.379 107.073 29.229 129.563C41.8635 151.522 57.7997 171.408 76.4788 188.523C85.9087 197.213 95.9987 205.663 106.999 212.283C112.955 215.999 119.556 218.563 126.459 219.843C126.644 219.773 126.835 219.716 127.029 219.673C128.056 219.464 129.076 219.238 130.102 219.011L130.409 218.943C130.235 215.609 130.069 212.276 129.909 208.943C129.686 204.341 129.417 199.732 129.149 195.12C128.563 185.041 127.975 174.948 127.859 164.883C127.749 155.943 131.779 144.503 142.678 146.733C144.096 146.297 145.603 147.068 146.078 148.473C148.857 159.93 149.128 172.33 149.392 184.451C149.491 188.992 149.59 193.494 149.818 197.893L150.598 212.593C155.108 210.712 159.456 208.464 163.598 205.873C174.608 198.933 184.108 189.873 192.438 179.873C208.548 160.603 221.898 137.663 233.148 115.253C243.328 94.9928 253.768 67.0628 244.768 44.6928C237.078 25.5028 217.298 12.3228 196.548 13.7628C172.238 15.4528 151.128 33.4528 139.128 53.6928C137.148 57.0228 132.659 56.6928 130.659 53.6928C122.289 41.5028 113.009 29.9928 101.659 20.4328C89.4687 10.1728 74.8088 8.76284 59.3888 10.2728C46.9389 11.4728 34.3589 15.6328 25.199 24.4728C16.999 32.3528 12.199 42.9028 9.99905 53.9028Z" fill="#231F20"/>
<path fill-rule="evenodd" clip-rule="evenodd" d="M206.098 124.553C201.708 129.613 193.808 134.003 187.578 129.263C181.68 124.744 185.588 114.938 188.335 108.045C188.895 106.64 189.407 105.356 189.778 104.263C189.942 103.771 190.106 103.279 190.27 102.787C193.623 92.7521 197 82.6438 198.678 72.2628C200.438 61.3728 199.488 50.7728 197.678 40.0028C197.424 39.4531 197.327 38.8441 197.398 38.2428C197.393 37.8133 197.489 37.3887 197.678 37.0028L198.108 35.4728C198.589 33.9255 199.998 32.8534 201.618 32.8028C221.598 30.4928 224.378 59.4428 224.098 73.3028C223.718 91.0528 217.928 110.953 206.098 124.553ZM195.036 116.774C194.553 117.998 194.051 119.27 193.948 120.463C193.8 121.151 193.561 121.817 193.238 122.443L196.188 121.803C201.764 119.143 205.707 110.041 208.171 104.353C208.301 104.053 208.427 103.762 208.549 103.483C211.604 96.3708 213.624 88.8578 214.549 81.1728C215.659 72.0028 216.849 42.3928 204.088 40.1728C210.019 51.8728 209.019 66.3128 206.578 78.8728C204.877 86.8548 202.648 94.7153 199.908 102.403C199.447 103.78 198.981 105.157 198.515 106.534C197.548 109.395 196.579 112.257 195.648 115.133C195.475 115.661 195.257 116.212 195.036 116.774Z" fill="#231F20"/>
<path fill-rule="evenodd" clip-rule="evenodd" d="M185.597 158.823C185.947 166.853 181.837 175.873 175.227 180.553C172.477 182.523 169.097 183.053 166.327 180.603C163.287 177.933 163.317 173.873 163.397 170.123C163.567 162.313 165.077 154.513 172.337 150.973C172.399 150.892 172.466 150.815 172.537 150.743C178.687 144.433 185.307 152.343 185.597 158.823ZM173.887 155.763C172.319 158.108 171.279 160.766 170.837 163.553V163.593C170.477 165.363 169.277 173.093 171.087 173.833C173.247 174.793 176.397 168.143 177.037 166.453C177.677 164.763 180.197 154.553 175.497 155.763C174.971 155.909 174.414 155.909 173.887 155.763Z" fill="#231F20"/>
</svg>
