<svg width="548" height="513" viewBox="0 0 548 513" fill="none" xmlns="http://www.w3.org/2000/svg">
<path d="M229.136 273.166C227.493 272.812 225.817 272.628 224.136 272.616C228.326 279.026 227.436 292.566 226.336 297.616C225.486 301.516 219.496 300.526 219.516 296.696C219.564 292.847 219.408 288.998 219.046 285.166C218.936 284.046 218.506 275.506 216.906 274.896C216.565 274.755 216.253 274.551 215.986 274.296C211.726 276.096 207.936 279.156 203.866 282.546C200.866 290.546 197.386 298.406 202.396 306.596C207.406 314.786 216.916 315.506 225.426 313.796C232.576 312.316 240.126 308.796 243.776 302.136C247.046 296.136 248.136 284.516 244.586 277.996C239.543 276.061 234.383 274.448 229.136 273.166Z" fill="#BE1E2D"/>
<path d="M299.996 131.336C301.27 130.722 302.162 129.523 302.386 128.126C302.552 127.386 302.204 126.625 301.536 126.266C300.897 127.268 299.626 127.657 298.536 127.186C298.142 128.098 298.244 129.147 298.806 129.966C299.132 130.479 299.533 130.941 299.996 131.336Z" fill="white"/>
<path d="M216.815 185.416L216.185 185.146C215.111 184.968 214.019 184.924 212.935 185.016C211.235 185.146 209.59 185.678 208.135 186.566C207.867 186.758 207.616 186.972 207.385 187.206C208.722 187.275 210.063 187.201 211.385 186.986C212.485 186.796 215.675 186.376 216.815 185.416Z" fill="white"/>
<path fill-rule="evenodd" clip-rule="evenodd" d="M183.175 285.016C182.089 285.035 181.083 285.589 180.485 286.496C157.475 294.796 130.425 286.796 118.495 262.156C110.025 244.766 113.775 226.546 122.775 210.156C126.823 202.583 131.585 195.414 136.995 188.746C144.615 179.646 153.055 176.706 164.735 176.546C184.695 176.276 203.695 173.596 222.645 167.066C240.645 160.866 259.205 154.856 275.435 168.556C290.475 181.236 294.895 201.436 295.805 220.236C296.695 238.656 294.895 261.966 276.515 271.726C265.802 277.408 255.037 273.289 244.253 269.164C237.442 266.558 230.623 263.95 223.805 263.806C216.395 263.656 209.955 266.506 204.265 271.086L203.485 271.736C202.819 271.749 202.186 272.035 201.735 272.526C196.844 277.735 190.976 281.931 184.465 284.876C184.388 284.887 184.31 284.899 184.231 284.911C183.886 284.963 183.534 285.016 183.175 285.016ZM212.485 176.676C205.175 173.626 195.655 176.466 193.335 184.796C190.425 195.236 208.265 196.156 214.545 194.786C218.495 193.996 223.805 192.096 225.675 187.996C227.545 183.896 225.355 179.906 221.545 178.046C218.676 176.881 215.571 176.411 212.485 176.676Z" fill="#A97C50"/>
<path d="M315.105 67.5062C325.935 88.8962 350.565 100.636 374.105 100.636C385.405 100.636 396.885 96.7262 402.405 86.1562C407.795 75.8262 406.555 63.0662 403.175 52.3262C395.795 28.8762 376.175 11.9262 351.635 9.22624C328.485 6.68624 304.185 12.3162 281.635 18.8362C300.075 27.2562 306.235 49.9662 315.105 67.5062Z" fill="#A97C50"/>
<path d="M86.7054 145.706C84.9817 145.836 83.3513 146.54 82.0754 147.706C81.7451 148.29 81.5439 148.938 81.4854 149.606C81.3154 152.446 84.3254 154.856 86.4854 152.436C88.0654 150.666 90.8354 145.796 86.7054 145.706Z" fill="white"/>
<path d="M487.046 213.446C487.276 213.431 487.506 213.431 487.736 213.446C518.676 215.446 544.666 187.766 537.876 156.656C534.956 143.286 524.666 129.466 509.616 130.326C498.206 130.966 489.616 142.656 494.086 152.226C497.526 146.226 503.826 141.376 510.566 144.226C518.936 147.796 521.116 160.556 520.376 168.506C518.626 187.276 500.716 200.926 482.676 197.456C484.445 202.56 485.878 207.775 486.966 213.066C486.996 213.196 487.016 213.326 487.046 213.446Z" fill="#A97C50"/>
<path fill-rule="evenodd" clip-rule="evenodd" d="M485.146 379.476C485.246 387.13 485.34 394.796 485.426 402.476C485.458 404.28 485.533 406.12 485.608 407.978C485.844 413.806 486.088 419.808 485.026 425.396C483.356 433.856 475.766 441.796 467.436 434.736C462.075 430.195 460.602 422.668 459.279 415.912C459.102 415.007 458.927 414.115 458.746 413.246C455.16 395.966 451.57 378.66 447.976 361.326C447.396 358.546 443.836 357.316 441.526 358.706C423.477 369.562 403.039 375.822 382.006 376.936C379.526 375.256 375.196 376.406 375.006 380.356C374.894 382.763 374.784 385.169 374.674 387.574C374.044 401.41 373.414 415.228 372.246 429.046C371.573 436.933 370.796 444.806 369.916 452.666C369.85 453.26 369.784 453.911 369.715 454.605L369.714 454.61C368.898 462.74 367.501 476.66 356.446 471.216C349.626 467.856 346.346 460.226 343.726 453.556C341.006 446.676 338.476 439.756 336.006 432.756C332.048 421.697 329.265 410.562 326.458 399.328C326.201 398.302 325.944 397.274 325.686 396.246L323.876 390.896C324.863 390.645 326.336 390.4 327.815 390.155C329.335 389.903 330.863 389.65 331.876 389.386C337.616 387.896 335.186 378.996 329.426 380.496C286.139 391.808 242.125 400.131 197.696 405.406C175.903 407.94 154.066 409.763 132.186 410.876C121.236 411.426 110.216 411.776 99.3264 411.996C98.2697 412.018 97.2165 412.043 96.1666 412.068C86.3968 412.302 76.9085 412.529 67.4364 409.576C63.9264 408.476 62.2564 413.336 65.0464 415.236C68.841 417.697 73.1469 419.26 77.6364 419.806C74.6364 444.776 71.5264 470.136 65.1164 494.486C63.6264 500.146 60.3764 507.626 53.3764 502.956C48.4264 499.646 46.2864 492.926 45.1864 487.366C43.4862 478.721 43.6856 469.557 43.8814 460.558C43.9573 457.066 44.0328 453.599 43.9964 450.196C43.6202 415.522 41.3123 381.025 39.0029 346.506C37.7524 327.813 36.5014 309.114 35.5564 290.376C33.1064 241.666 34.6064 192.076 51.1064 145.666C66.0064 103.796 93.4064 68.0362 132.916 46.7962C173.776 24.7962 220.996 19.0362 266.846 20.5662C266.687 22.5188 268.061 24.2637 269.996 24.5662C288.455 27.0903 295.788 44.2495 302.949 61.0042C306.938 70.3368 310.872 79.5439 316.646 86.0262C332.036 103.326 361.306 112.856 384.036 108.796C391.218 107.642 397.879 104.332 403.136 99.3062C424.746 113.786 439.036 135.896 452.136 157.896C452.989 159.332 453.847 160.768 454.708 162.206L454.713 162.216L454.714 162.216L454.714 162.217C461.229 173.111 467.823 184.137 472.326 196.006C477.796 210.426 479.996 225.866 481.466 241.136C483.804 265.139 484.03 289.313 484.256 313.436C484.314 319.654 484.372 325.869 484.466 332.076C484.706 347.876 484.933 363.676 485.146 379.476ZM73.6564 150.196C73.8264 156.216 78.0764 162.016 84.9064 161.856C93.6464 161.646 100.836 148.796 95.6664 141.456C94.4072 139.618 92.5645 138.258 90.4364 137.596C89.213 136.715 87.7209 136.287 86.2164 136.386C83.2602 136.653 80.4786 137.903 78.3164 139.936C76.0362 141.425 74.1959 143.496 72.9864 145.936C72.2607 147.351 72.5314 149.073 73.6564 150.196ZM281.776 278.796C272.496 284.166 263.776 283.666 255.056 281.366C256.456 288.966 254.596 298.606 252.466 303.746C248.166 314.186 237.406 320.176 226.726 322.146C214.986 324.306 202.726 322.256 195.726 311.626C191.738 305.203 190.607 297.408 192.606 290.116C191.194 290.721 189.718 291.167 188.206 291.446C177.562 297.133 165.392 299.31 153.436 297.666C133.326 294.976 116.686 280.516 109.246 261.906C101.646 242.906 105.906 223.386 115.516 205.986C125.126 188.586 137.136 169.936 158.826 168.406C162.66 168.137 166.462 167.981 170.249 167.825H170.249H170.25C178.83 167.473 187.333 167.124 195.956 165.466C204.704 163.784 213.08 161.003 221.492 158.21C225.033 157.034 228.582 155.855 232.166 154.756C251.906 148.656 271.236 150.936 285.776 166.576C300.316 182.216 304.206 204.396 304.606 225.096C305.056 245.136 300.616 267.876 281.776 278.796ZM286.526 127.906C285.586 136.136 294.296 141.776 301.776 139.516L301.796 139.476C308.156 137.556 312.696 130.046 309.926 123.576C307.156 117.106 298.446 115.966 293.366 120.276C289.663 121.05 286.893 124.141 286.526 127.906Z" fill="#754C29"/>
<path d="M221.965 411.266C224.855 416.786 225.605 423.346 226.815 429.406C228.095 435.826 229.255 442.276 230.575 448.686C232.515 458.136 237.575 478.176 250.845 476.686C257.585 475.956 257.655 468.156 258.105 462.536C258.665 455.536 258.905 448.536 258.965 441.536C259.014 429.565 258.446 417.599 257.265 405.686C245.545 407.76 233.778 409.62 221.965 411.266Z" fill="#A97C50"/>
<path d="M32.4853 78.6162C21.4853 92.2462 12.8853 109.086 9.81526 126.406C6.59526 144.626 12.4153 166.676 31.6953 173.196C32.4801 173.44 33.1758 173.909 33.6953 174.546C36.5813 161.087 40.5646 147.886 45.6053 135.076C59.7353 99.4762 82.7353 69.0762 113.795 47.9762C108.462 44.9871 102.468 43.3719 96.3553 43.2762C87.5774 43.2516 78.8938 45.0851 70.8753 48.6562C55.7953 55.1662 42.7253 65.8962 32.4853 78.6162Z" fill="#A97C50"/>
<path fill-rule="evenodd" clip-rule="evenodd" d="M497.726 124.846C514.616 116.316 533.536 126.416 541.816 141.946C551.206 159.556 549.356 182.286 538.136 198.606C527.046 214.606 508.056 223.486 488.746 222.486C490.755 235.983 492.024 249.58 492.546 263.216C493.809 289.699 493.897 316.224 493.984 342.729C494.017 352.715 494.05 362.699 494.146 372.676C494.186 377.903 494.398 383.226 494.612 388.583C495.091 400.588 495.577 412.762 494.146 424.406C492.706 435.816 484.766 448.176 471.706 446.246C457.386 444.126 453.036 428.896 450.536 416.896C447.256 401.03 443.982 385.16 440.716 369.286C423.188 378.858 403.63 384.11 383.666 384.606C383.316 404.696 381.676 424.846 379.596 444.796C379.445 446.238 379.316 447.842 379.179 449.552C378.109 462.893 376.528 482.627 359.766 481.076C343.692 479.63 337.483 462.164 332.671 448.63L332.67 448.629L332.67 448.628L332.67 448.627C332.159 447.191 331.665 445.8 331.176 444.476C330.75 443.325 330.32 442.165 329.887 440.999L329.887 440.999C324.253 425.816 318.169 409.42 316.776 393.196C299.956 397.256 283.049 400.88 266.056 404.066C267.968 421.75 268.383 439.563 267.296 457.316C267.274 457.673 267.253 458.037 267.231 458.408C266.625 468.816 265.702 484.678 252.416 485.846C239.386 486.986 229.676 474.576 225.676 463.686C223.289 457.232 222.072 450.356 220.867 443.552C220.553 441.776 220.239 440.004 219.906 438.246C219.537 436.301 219.082 434.277 218.618 432.208L218.618 432.208C217.13 425.579 215.54 418.5 216.356 412.136C216.36 412.106 216.36 412.076 216.356 412.046C209.726 412.936 203.086 413.786 196.426 414.536C173.759 417.11 151.019 418.85 128.206 419.756C116.372 420.236 104.542 420.476 92.7156 420.476L91.925 420.477H91.9236H91.9222H91.9208H91.9194C89.8047 420.477 87.6541 420.478 85.4956 420.416C84.1856 434.996 82.0956 449.526 79.6256 463.946C78.219 472.173 76.639 480.366 74.8856 488.526C74.7313 489.25 74.5809 489.983 74.4295 490.72C73.3642 495.905 72.2512 501.323 69.4056 505.806C63.4356 515.246 51.9856 514.326 44.9856 506.586C36.6556 497.416 35.8256 483.856 35.7256 472.126C35.4756 442.526 34.9856 412.986 33.3356 383.426C32.5044 368.634 31.3834 353.861 30.2623 339.088L30.2622 339.087C29.1309 324.179 27.9994 309.269 27.1656 294.336C25.0556 256.676 25.0956 218.236 32.2556 181.176C31.3631 181.585 30.3447 181.621 29.4256 181.276C9.91562 174.656 -0.114376 154.796 0.565624 134.866C1.26562 113.626 11.3556 92.5062 24.0156 75.8662C35.8056 60.3662 51.3456 47.4862 69.5156 40.2062C84.8956 34.0662 107.306 31.6262 120.896 43.2762C126.327 39.9535 131.935 36.929 137.696 34.2162C180.076 14.3062 228.526 8.87624 274.866 11.8762C275.707 11.9261 276.517 12.2101 277.206 12.6962C291.932 7.50426 307.146 3.81874 322.616 1.69624C338.026 -0.463755 354.386 -1.18376 369.286 4.13624C391.986 12.2262 408.696 33.1562 413.576 56.5462C416.196 69.1062 414.766 82.0262 408.886 91.9662C435.976 110.186 452.906 139.716 468.776 167.496C472.781 174.419 476.355 181.582 479.476 188.946C490.646 192.036 503.226 188.886 509.226 178.226C512.154 172.983 513.148 166.878 512.036 160.976L511.988 160.739L511.988 160.738C511.564 158.606 510.749 154.51 509.036 153.316C503.666 149.506 500.136 156.746 499.666 160.506C499.196 164.266 495.556 165.886 492.556 163.506C479.476 153.106 483.496 132.036 497.726 124.846ZM403.196 52.3262C395.816 28.8762 376.206 11.9262 351.656 9.22624C328.506 6.68624 304.206 12.3162 281.716 18.8362C296.207 25.4641 303.09 40.9461 309.689 55.7911L309.69 55.792L309.69 55.7928L309.69 55.7935C311.475 59.8068 313.238 63.7736 315.126 67.5062C325.936 88.8962 350.566 100.636 374.126 100.636C385.426 100.636 396.906 96.7262 402.426 86.1562C407.816 75.8262 406.576 63.0662 403.196 52.3262ZM31.6556 173.226C12.3756 166.706 6.55562 144.656 9.77562 126.436C12.8456 109.116 21.4656 92.2762 32.4456 78.6462C42.6856 65.9262 55.7556 55.1962 70.7956 48.6462C78.8142 45.0751 87.4978 43.2416 96.2756 43.2662C102.389 43.3619 108.382 44.9771 113.716 47.9662C82.6556 69.0862 59.6556 99.4662 45.5256 135.066C40.4849 147.876 36.5016 161.077 33.6156 174.536C33.1163 173.916 32.4502 173.451 31.6956 173.196L31.6556 173.226ZM258.106 462.526C258.666 455.526 258.906 448.526 258.966 441.526C259.015 429.552 258.447 417.582 257.266 405.666C245.546 407.74 233.779 409.603 221.966 411.256C224.288 415.753 225.242 420.941 226.171 425.986C226.382 427.133 226.591 428.273 226.816 429.396C227.364 432.148 227.891 434.905 228.417 437.662L228.418 437.665C229.12 441.34 229.822 445.014 230.576 448.676C232.516 458.086 237.546 478.126 250.846 476.676C257.115 475.997 257.613 469.202 258.014 463.733V463.732C258.045 463.322 258.074 462.919 258.106 462.526ZM484.966 425.396C483.296 433.856 475.706 441.796 467.376 434.736C462.014 430.195 460.541 422.668 459.218 415.912C459.041 415.007 458.866 414.115 458.686 413.246C455.086 395.946 451.496 378.64 447.916 361.326C447.336 358.546 443.776 357.326 441.466 358.706C423.417 369.562 402.979 375.822 381.946 376.936C379.486 375.256 375.156 376.406 374.946 380.356C374.79 383.548 374.643 386.739 374.495 389.929L374.494 389.945C373.89 402.989 373.286 416.018 372.186 429.046C371.519 436.926 370.742 444.8 369.856 452.666C369.789 453.259 369.723 453.909 369.653 454.603C368.836 462.719 367.432 476.661 356.386 471.216C349.566 467.856 346.286 460.216 343.666 453.556C340.966 446.676 338.416 439.726 335.946 432.756C331.949 421.511 329.115 410.188 326.256 398.762L326.236 398.683C326.033 397.871 325.829 397.059 325.626 396.246L324.626 391.246L331.836 389.406C337.576 387.916 335.146 379.016 329.386 380.516C286.084 391.82 242.057 400.133 197.616 405.396C175.849 407.943 154.012 409.766 132.106 410.866C121.159 411.413 110.206 411.786 99.2456 411.986C98.1948 412.008 97.1469 412.033 96.1018 412.058C86.3463 412.292 76.8306 412.52 67.3556 409.566C63.8456 408.466 62.1756 413.326 64.9656 415.226C68.7839 417.698 73.1184 419.262 77.6356 419.796C74.6356 444.796 71.5256 470.126 65.1156 494.476C63.6256 500.116 60.4256 507.596 53.4256 502.926C48.4256 499.616 46.3356 492.926 45.2356 487.336C43.5354 478.691 43.7348 469.527 43.9306 460.528C44.0065 457.036 44.082 453.569 44.0456 450.166C43.6694 415.492 41.3615 380.995 39.0521 346.476L39.0521 346.475C37.8016 327.783 36.5506 309.084 35.6056 290.346C33.1456 241.626 34.6556 192.046 51.1556 145.636C66.0056 103.726 93.4256 68.0062 132.916 46.7962C173.776 24.7962 220.996 19.0662 266.846 20.5962C266.686 22.5488 268.06 24.2937 269.996 24.5962C288.454 27.1203 295.788 44.2795 302.948 61.0342C306.937 70.3668 310.872 79.5739 316.646 86.0562C332.066 103.356 361.306 112.886 384.036 108.826C391.239 107.67 397.92 104.346 403.186 99.2962C424.826 113.776 439.116 135.856 452.186 157.886C453.04 159.325 453.901 160.764 454.763 162.206L454.763 162.207C461.278 173.1 467.872 184.127 472.376 195.996C477.846 210.416 480.046 225.856 481.516 241.126C483.794 264.841 484.035 288.723 484.277 312.558V312.558L484.277 312.571C484.343 319.074 484.408 325.574 484.516 332.066C484.756 347.866 484.982 363.666 485.196 379.466C485.296 387.146 485.389 394.813 485.476 402.466C485.496 404.357 485.567 406.288 485.638 408.237C485.849 413.986 486.066 419.892 485.006 425.396H484.966ZM487.006 213.396C487.235 213.381 487.466 213.381 487.696 213.396L487.736 213.426C518.676 215.386 544.666 187.796 537.836 156.606C534.916 143.276 524.576 129.416 509.576 130.276C498.166 130.916 489.576 142.606 494.046 152.176C497.526 146.176 503.786 141.306 510.526 144.176C518.896 147.746 521.076 160.456 520.336 168.456C518.636 187.226 500.636 200.876 482.636 197.406C484.405 202.51 485.838 207.725 486.926 213.016C487.006 213.146 487.006 213.276 487.006 213.396Z" fill="#231F20"/>
<path fill-rule="evenodd" clip-rule="evenodd" d="M309.946 123.536C312.656 129.886 308.166 137.556 301.796 139.476C294.316 141.736 285.606 136.096 286.586 127.866C286.952 124.101 289.722 121.01 293.426 120.236C298.426 115.926 307.236 117.186 309.946 123.536ZM301.526 126.266C300.887 127.267 299.616 127.657 298.526 127.186C298.129 128.096 298.227 129.146 298.786 129.966C299.115 130.48 299.519 130.942 299.986 131.336C301.26 130.722 302.152 129.523 302.376 128.126C302.542 127.386 302.194 126.625 301.526 126.266Z" fill="#231F20"/>
<path fill-rule="evenodd" clip-rule="evenodd" d="M78.3156 139.946C80.4778 137.913 83.2593 136.663 86.2156 136.396C87.7213 136.3 89.2135 136.731 90.4356 137.616C92.5637 138.278 94.4064 139.638 95.6656 141.476C100.836 148.766 93.6456 161.656 84.9056 161.866C78.0756 162.026 73.8256 156.206 73.6556 150.206C72.5306 149.083 72.2599 147.361 72.9856 145.946C74.1951 143.507 76.0354 141.435 78.3156 139.946ZM81.5156 149.566C81.3156 152.396 84.3256 154.816 86.5156 152.396V152.386C88.0656 150.666 90.8356 145.796 86.7356 145.666C85.0119 145.796 83.3815 146.5 82.1056 147.666C81.7753 148.25 81.5741 148.898 81.5156 149.566Z" fill="#231F20"/>
<path fill-rule="evenodd" clip-rule="evenodd" d="M225.676 188.006C223.846 191.976 218.496 193.956 214.546 194.796C208.266 196.156 190.426 195.236 193.336 184.806C195.656 176.476 205.176 173.686 212.486 176.686C215.572 176.421 218.676 176.891 221.546 178.056C225.356 179.916 227.506 184.036 225.676 188.006ZM212.936 184.996C211.236 185.126 209.591 185.658 208.136 186.546V186.566C207.859 186.75 207.598 186.958 207.356 187.186C208.693 187.255 210.034 187.181 211.356 186.966C211.467 186.949 211.598 186.929 211.745 186.907C213.093 186.704 215.788 186.298 216.816 185.396L216.186 185.126C215.112 184.948 214.02 184.904 212.936 184.996Z" fill="#231F20"/>
<path fill-rule="evenodd" clip-rule="evenodd" d="M153.485 297.626C165.441 299.27 177.611 297.093 188.255 291.406C189.767 291.127 191.242 290.681 192.655 290.076C190.656 297.368 191.786 305.163 195.775 311.586C202.685 322.216 214.985 324.266 226.775 322.106C237.455 320.106 248.215 314.106 252.515 303.706C254.645 298.566 256.515 288.926 255.105 281.326C263.805 283.626 272.545 284.126 281.825 278.756C300.665 267.876 305.105 245.136 304.705 225.056C304.305 204.356 300.465 182.226 285.875 166.536C271.285 150.846 252.005 148.616 232.265 154.716C228.798 155.788 225.371 156.927 221.951 158.063C213.435 160.893 204.966 163.707 196.055 165.426C187.395 167.097 178.912 167.441 170.351 167.789C166.565 167.942 162.764 168.096 158.925 168.366C137.235 169.906 125.275 188.446 115.615 205.946C105.955 223.446 101.745 242.886 109.345 261.866C116.735 280.476 133.425 294.936 153.485 297.626ZM243.775 302.096C240.125 308.796 232.575 312.276 225.425 313.796C216.915 315.546 207.325 314.796 202.375 306.666C197.685 298.962 200.501 291.492 203.37 283.881C203.528 283.46 203.687 283.038 203.845 282.616C207.915 279.226 211.705 276.166 215.965 274.366C216.232 274.621 216.544 274.825 216.885 274.966C218.24 275.483 218.734 281.686 218.939 284.255C218.976 284.719 219.004 285.065 219.025 285.236C219.387 289.069 219.543 292.917 219.495 296.766C219.495 300.596 225.495 301.586 226.315 297.686C227.415 292.686 228.315 279.106 224.115 272.686C225.796 272.698 227.472 272.882 229.115 273.236C234.361 274.505 239.521 276.105 244.565 278.026C248.135 284.476 247.045 296.096 243.775 302.096ZM136.995 188.796C131.587 195.448 126.825 202.601 122.775 210.156C113.725 226.546 110.025 244.796 118.445 262.196C130.445 286.796 157.445 294.776 180.445 286.496C181.043 285.589 182.049 285.035 183.135 285.016C183.575 284.996 184.005 284.936 184.425 284.876C190.945 281.95 196.827 277.771 201.735 272.576C202.186 272.085 202.818 271.799 203.485 271.786L204.265 271.136C209.955 266.556 216.395 263.706 223.805 263.856C230.622 263.999 237.441 266.608 244.253 269.214C255.037 273.339 265.802 277.458 276.515 271.776C294.895 262.016 296.695 238.706 295.805 220.286C294.895 201.486 290.435 181.306 275.435 168.606C259.205 154.906 240.645 160.916 222.645 167.116C203.735 173.646 184.735 176.326 164.735 176.596C153.055 176.796 144.615 179.696 136.995 188.796Z" fill="#231F20"/>
</svg>
