<svg width="537" height="563" viewBox="0 0 537 563" fill="none" xmlns="http://www.w3.org/2000/svg">
<path d="M215.371 510.588C175.011 508.588 134.751 502.878 95.6108 492.678C82.2308 489.188 68.8408 485.278 55.8008 480.518C63.5408 490.448 71.6808 500.238 83.0808 506.008C91.2508 510.138 100.491 511.868 109.381 513.728C118.271 515.588 127.031 517.208 135.911 518.648C201.811 529.328 268.361 525.918 334.731 522.648C367.461 521.028 398.271 512.778 428.991 501.728C453.991 492.728 483.631 477.088 485.311 447.488C471.595 457.609 457.077 466.596 441.901 474.358C372.411 509.758 292.061 514.468 215.371 510.588Z" fill="#58595B"/>
<path d="M332.407 530.578C296.618 532.178 260.648 534.168 224.818 533.798C189.267 533.423 153.821 529.882 118.898 523.218C115.898 522.658 112.898 522.108 109.898 521.528C117.898 529.398 126.208 536.828 135.648 542.938C147.156 550.661 160.709 554.767 174.568 554.728C226.968 555.118 279.568 554.838 331.947 553.418C355.087 552.788 380.807 553.818 402.827 545.668C421.827 538.668 432.397 522.448 441.207 505.388C437.797 506.828 434.407 508.138 431.097 509.328C398.857 520.898 366.717 529.038 332.407 530.578Z" fill="#58595B"/>
<path fill-rule="evenodd" clip-rule="evenodd" d="M499.88 374.948C495.134 370.506 490.1 366.384 484.81 362.608C481.956 360.675 478.911 359.309 475.864 357.943L475.863 357.943L475.863 357.943C474.971 357.543 474.078 357.143 473.19 356.728C448.19 375.078 422.05 392.068 393.47 404.268C339.15 427.478 280.47 425.758 222.56 423.748C183.38 422.378 143.46 417.338 105.21 406.988L100.7 405.748C85.2416 401.404 70.0718 396.094 55.2797 389.848L39.9497 401.948C35.7481 405.438 31.7983 409.221 28.1297 413.268C24.2142 417.603 20.8415 422.45 17.4719 427.292C13.8451 432.504 10.2219 437.711 5.92969 442.268C20.1097 456.608 36.8197 465.578 55.6997 472.268C75.8617 479.385 96.4567 485.21 117.36 489.708C155.886 497.945 195.118 502.443 234.51 503.138C274.51 504.008 315.56 502.628 354.97 495.318C420.71 483.118 481.3 448.918 526.15 399.458C520.641 395.131 515.524 390.068 510.43 385.027C506.942 381.575 503.464 378.134 499.88 374.948ZM76.3797 467.708C66.0997 466.628 56.2797 461.778 47.1397 457.128L46.6784 456.893C37.4174 452.18 26.8628 446.808 19.8397 439.008C19.5297 438.668 19.8397 437.908 20.3497 438.128C25.7265 440.396 30.8085 443.42 35.8873 446.442L35.8875 446.442C39.6309 448.669 43.3727 450.896 47.2297 452.818C51.3295 454.855 55.5854 456.602 59.8386 458.347L59.8387 458.347L59.8389 458.347L59.8392 458.348L59.8393 458.348L59.8393 458.348C65.628 460.723 71.4115 463.097 76.7897 466.198C77.4397 466.578 77.2097 467.798 76.3797 467.708ZM91.9397 473.848C94.2969 474.667 96.751 475.175 99.2397 475.358C99.7763 475.347 100.242 474.984 100.383 474.466C100.524 473.948 100.307 473.399 99.8497 473.118C95.9897 470.498 89.9597 469.628 85.4097 470.018C84.7197 470.078 84.2397 471.118 85.0197 471.478C87.2556 472.461 89.5705 473.254 91.9397 473.848ZM437.16 393.158C434.662 395.857 431.338 397.653 428.068 399.42L428.068 399.421C427.11 399.938 426.156 400.453 425.23 400.988C420.53 403.695 415.83 406.405 411.13 409.118L410.756 409.332C403.791 413.328 396.563 417.474 388.36 417.818C387.36 417.818 387.27 416.428 388.13 416.118C396.74 413.018 404.44 408.818 412.3 404.198C414.327 403.007 416.431 401.617 418.592 400.191C424.158 396.515 430.094 392.596 436.03 391.198C436.534 391.083 437.054 391.31 437.313 391.757C437.572 392.204 437.51 392.768 437.16 393.148V393.158ZM446.64 386.528C449.53 385.748 453.37 384.388 455.03 381.678V381.668C455.203 381.34 455.166 380.941 454.937 380.649C454.708 380.358 454.329 380.228 453.97 380.318C452.58 380.897 451.27 381.65 450.07 382.558C449.506 382.918 448.946 383.291 448.384 383.665C447.62 384.174 446.853 384.684 446.07 385.168C445.768 385.366 445.65 385.752 445.79 386.085C445.929 386.418 446.287 386.604 446.64 386.528Z" fill="#939598"/>
<path fill-rule="evenodd" clip-rule="evenodd" d="M105.94 398.778C104.79 380.218 103.939 362.298 107.3 343.668C110.948 323.527 117.952 304.141 128.02 286.318C129.049 284.517 128.449 282.224 126.67 281.158C112.23 273.371 98.3949 264.513 85.2794 254.658C83.5894 253.388 81.0894 254.468 80.0894 256.028C76.7194 261.218 68.6594 260.468 64.6594 256.468C58.8893 250.808 60.3194 240.778 63.4694 234.238C66.7294 227.468 72.9194 221.238 80.9294 221.238C88.9394 221.238 96.7695 230.038 90.2895 237.238C88.8394 238.858 88.7094 242.138 91.0495 243.138C107.264 250.354 122.883 258.841 137.76 268.518C138.043 268.703 138.349 268.851 138.67 268.958C139.595 270.032 141.128 270.344 142.4 269.718C146.77 267.549 150.962 264.988 155.156 262.426C158.715 260.251 162.277 258.076 165.95 256.138C174.27 251.741 182.865 247.883 191.68 244.588C208.34 238.322 225.663 233.984 243.31 231.658C260.655 229.441 278.198 229.236 295.59 231.048C304.857 231.947 314.032 233.62 323.02 236.048C332.96 238.838 341.53 243.238 350.46 248.298C353.37 249.938 356.83 247.038 356.58 244.298C363.212 238.42 369.319 231.886 375.395 225.383C377.702 222.914 380.005 220.45 382.33 218.028C383.74 216.558 383.74 214.238 382.33 212.768C375.98 205.738 369.52 194.208 374.07 184.628C378.95 174.348 392.71 174.468 401.07 179.948C409.251 185.318 416.621 196.628 416.791 206.628C417.031 220.018 402.3 219.358 392.86 217.918C391.134 217.504 389.336 218.236 388.39 219.738C382.009 230.14 374.594 239.873 366.26 248.788C364.36 250.818 365.06 253.418 367.06 254.978C404.35 283.418 431.021 320.458 450.641 362.688C435.083 373.53 418.742 383.2 401.75 391.618C376.37 404.019 349.007 411.858 320.91 414.778C293.814 417.605 266.487 416.939 239.288 416.276C237.528 416.233 235.769 416.19 234.01 416.148C204.86 415.458 175.94 413.448 147.21 408.288C133.23 405.778 119.51 402.528 105.94 398.778ZM356.169 291.018C353.99 290.771 351.783 291.099 349.769 291.968C343.439 292.528 339.349 300.618 342.299 306.888C342.945 308.24 343.814 309.474 344.869 310.538C346.786 312.923 349.532 314.498 352.559 314.948C357.259 316.148 362.369 315.058 365.259 310.428C370.059 302.708 365.309 292.018 356.169 291.018ZM233.769 335.628C234.599 332.628 239.199 333.248 239.219 336.368C239.219 344.258 244.819 352.018 253.539 349.768C262.256 347.519 261.832 340.021 261.432 332.93L261.432 332.927C261.391 332.201 261.35 331.48 261.319 330.768C261.209 328.348 264.669 326.768 266.319 328.698C275.039 339.178 266.379 354.958 254.129 357.148C241.879 359.338 230.359 347.938 233.719 335.628H233.769ZM162.459 317.808C154.019 313.538 144.439 319.398 141.679 327.698H141.629C141.396 328.572 141.533 329.504 142.008 330.274C142.483 331.044 143.254 331.584 144.139 331.768C147.039 339.608 157.929 343.058 164.399 337.608C170.869 332.158 170.149 321.698 162.459 317.808Z" fill="#8DC63F"/>
<path d="M153.17 331.618C155.76 333.268 159.48 332.908 160.67 329.768C161.73 326.968 159.96 324.938 157.52 324.458C157.008 324.79 156.365 324.85 155.8 324.618C155.597 324.542 155.385 324.492 155.17 324.468C153.594 324.837 152.146 325.625 150.98 326.748C150.27 328.598 151.57 330.608 153.17 331.618Z" fill="white"/>
<path fill-rule="evenodd" clip-rule="evenodd" d="M54.2 382.358C68.99 387.518 83.78 392.358 98.72 396.748C95.72 379.098 97.13 359.998 100.04 342.748C103.446 322.843 110.07 303.625 119.65 285.848C107.235 279.029 95.2919 271.385 83.9 262.968C77.48 268.698 67.11 268.478 60.34 262.678C50.54 254.298 52.1 238.938 57.84 228.758C63.99 217.828 76.78 210.088 89.25 215.348C93.5267 217.131 96.9052 220.56 98.623 224.863C100.341 229.167 100.253 233.98 98.38 238.218C113.336 245.045 127.772 252.959 141.57 261.898C141.705 261.988 141.832 262.088 141.95 262.198C154.89 251.268 172.31 243.778 187.67 237.668C205.54 230.628 224.222 225.857 243.28 223.468C262.629 220.958 282.221 220.958 301.57 223.468C318.7 225.708 337.47 229.688 352.03 239.678C357.749 232.668 364.103 226.131 370.425 219.627L370.425 219.627L370.431 219.621C371.845 218.167 373.257 216.714 374.66 215.258C366.75 205.258 361.14 191.058 368.27 179.348C375.89 166.838 393.46 165.928 404.92 173.348C416.38 180.768 426.92 197.218 424.28 211.248C421.48 226.178 406.28 227.458 393.79 226.018C388.162 234.909 381.807 243.317 374.79 251.158C410.15 279.158 440.29 316.158 457.13 358.218C461.257 355.298 465.35 352.338 469.41 349.338C469.61 282.918 461.03 215.818 437.17 153.528C426.566 125.587 412.567 99.0543 395.49 74.5279C386.2 61.2979 375.73 48.6279 362.49 39.1679C349.25 29.7079 334.09 23.1679 318.87 17.7079C303.16 12.1079 286.73 8.10792 269.98 7.89792C252.42 7.68792 235.24 11.8979 218.34 16.1679C190.96 23.1679 163.48 30.8679 137.88 43.0079C111.88 55.3179 88.05 72.4179 71.49 96.2079C54.18 121.078 44.87 150.818 41.08 180.678C36.71 215.078 39.28 249.878 42.47 284.248C43.7873 298.664 45.1606 313.076 46.5339 327.489C48.288 345.898 50.0422 364.308 51.68 382.728C52.4068 382.195 53.3506 382.056 54.2 382.358ZM406.01 123.358C409.42 128.858 413.01 135.408 414.46 141.738C414.597 142.302 414.304 142.882 413.769 143.106C413.234 143.33 412.615 143.131 412.31 142.638C408.47 137.418 405.77 130.458 403.78 124.298C403.34 122.908 405.3 122.188 406.01 123.358ZM334.798 49.246C334.056 48.9845 333.313 48.7227 332.57 48.4579C331.38 48.0479 330.93 49.8379 332 50.2679C339.95 53.3979 347.77 57.0979 354.27 62.7279C359.809 67.5038 364.837 72.9805 369.772 78.3569C370.272 78.9019 370.772 79.4459 371.271 79.9879C376.763 85.8405 381.934 91.9862 386.761 98.398C388.455 100.683 390.024 103.087 391.596 105.494C394.014 109.197 396.436 112.907 399.321 116.198C400.081 117.058 401.441 116.118 401.171 115.118C399.109 107.287 393.707 100.243 388.84 93.8962L388.711 93.728C383.784 87.3619 378.503 81.2789 372.891 75.5079C372.674 75.2815 372.457 75.0549 372.24 74.8281C366.78 69.1246 361.223 63.3198 354.76 58.5879C348.685 54.1398 341.792 51.7106 334.798 49.246Z" fill="#88E0FF"/>
<path d="M358.97 304.238C359.107 304.029 359.261 303.832 359.43 303.648C359.442 302.411 359.021 301.208 358.24 300.248C355.39 296.918 349.47 299.458 350.35 303.888C351.31 308.788 356.83 307.618 358.97 304.238Z" fill="white"/>
<path fill-rule="evenodd" clip-rule="evenodd" d="M521.714 384.476C525.161 387.616 528.67 390.811 531.65 394.358C532.223 394.823 532.83 395.25 533.414 395.661L533.418 395.663L533.418 395.664L533.419 395.664L533.42 395.665C535.808 397.344 537.805 398.748 535.5 401.358C522.493 416.225 508.112 429.832 492.55 441.998C492.945 442.593 493.17 443.285 493.2 443.998C494.26 471.028 474.54 488.688 452.32 500.168C452.256 500.592 452.128 501.003 451.94 501.388C440.46 524.648 427.35 546.218 401.23 554.388C390.23 557.828 378.65 558.908 367.23 559.638C353.11 560.548 338.96 561.018 324.81 561.328C302.76 561.815 280.74 561.896 258.718 561.976H258.709C252.23 562 245.75 562.024 239.27 562.058L196.68 562.288C193.897 562.301 191.084 562.363 188.256 562.425H188.255C177.818 562.655 167.17 562.889 157.06 560.678C135.06 555.848 114.23 538.288 101.06 520.608C100.836 520.31 100.676 519.97 100.59 519.608C90.7299 517.348 81.09 514.178 72.8699 508.348C61.32 500.148 52.68 488.448 45.2299 476.568C45.1499 476.518 45.1499 476.458 45.1499 476.398L44.973 476.327C43.6837 475.812 42.4122 475.303 41.1499 474.758C25.9799 468.248 10.7599 459.498 1.02995 445.818C0.603155 445.245 0.432976 444.521 0.559949 443.818C-0.0478806 443.024 -0.170772 441.96 0.239949 441.048C2.70268 435.7 6.25798 430.67 9.72118 425.77C10.6033 424.522 11.4794 423.282 12.3299 422.048C15.7821 416.917 19.5563 412.011 23.6299 407.358C27.9506 402.543 32.6854 398.116 37.7799 394.128C40.2106 392.116 42.7404 390.227 45.3599 388.468C45.2298 388.148 45.1423 387.811 45.0999 387.468C44.6069 382.873 44.1119 378.277 43.6168 373.681C39.7336 337.634 35.8491 301.575 32.9399 265.468C29.8699 227.238 29.16 188.218 38.68 150.778C46.22 121.108 60.22 92.868 82.13 71.198C102.33 51.218 127.68 37.568 153.97 27.368C167.68 22.038 181.73 17.688 195.89 13.688C212.31 9.04804 228.95 4.39804 245.8 1.68804C279.48 -3.69196 311.71 4.30804 342.36 18.308C357.01 24.948 370.62 33.508 382.01 44.948C393.02 56.028 402.16 68.938 410.57 82.028C427.356 108.42 440.866 136.759 450.8 166.418C470.8 225.508 478.09 288.338 477.8 350.508C486.215 352.981 494.275 359.985 500.518 365.41L501.111 365.924C501.377 366.156 501.641 366.384 501.9 366.608C507.567 371.508 513.13 376.508 518.59 381.608C519.614 382.565 520.661 383.518 521.714 384.476ZM41.0999 180.628C36.7299 215.028 39.2999 249.828 42.4899 284.198C43.4396 294.32 44.4015 304.44 45.3635 314.56L45.3639 314.564L45.3642 314.568L45.3646 314.572L45.365 314.576C47.5227 337.275 49.6807 359.977 51.7 382.708C52.4271 382.192 53.3613 382.065 54.2 382.368C68.99 387.528 83.78 392.418 98.72 396.758C95.72 379.098 97.13 359.998 100.04 342.758C103.446 322.853 110.07 303.635 119.65 285.858C107.235 279.039 95.2918 271.395 83.8999 262.978C77.4799 268.688 67.1099 268.488 60.34 262.688C50.54 254.308 52.1 238.948 57.84 228.768C63.99 217.838 76.78 210.098 89.25 215.358C93.5071 217.143 96.8697 220.562 98.5842 224.848C100.299 229.134 100.221 233.929 98.3699 238.158C113.337 244.987 127.782 252.905 141.59 261.848C141.724 261.938 141.852 262.038 141.97 262.148C154.91 251.218 172.33 243.728 187.69 237.618C205.56 230.578 224.242 225.807 243.3 223.418C262.649 220.908 282.241 220.908 301.59 223.418C318.72 225.628 337.49 229.628 352.05 239.628C357.628 232.791 363.809 226.424 369.976 220.071L369.977 220.071C371.549 218.451 373.12 216.833 374.68 215.208C366.77 205.298 361.16 191.008 368.29 179.298C375.94 166.828 393.53 165.958 404.94 173.298C416.35 180.638 426.92 197.198 424.3 211.198C421.5 226.128 406.28 227.408 393.81 225.968C388.182 234.859 381.827 243.267 374.81 251.108C410.15 279.078 440.31 316.168 457.15 358.168C461.277 355.248 465.37 352.288 469.43 349.288C469.63 282.868 461.05 215.768 437.19 153.478C426.585 125.537 412.587 99.0044 395.51 74.478C386.22 61.248 375.71 48.578 362.51 39.118C349.31 29.658 334.11 23.088 318.89 17.658C303.18 12.058 286.75 8.05804 270 7.84804C252.44 7.63804 235.26 11.808 218.36 16.118C190.98 23.088 163.5 30.818 137.9 42.958C111.95 55.268 88.0699 72.358 71.5099 96.158C54.2 121.028 44.8899 150.768 41.0999 180.628ZM126.67 281.088C112.231 273.301 98.3955 264.443 85.28 254.588C83.59 253.318 81.1 254.398 80.09 255.958C76.72 261.148 68.71 260.388 64.66 256.398C58.8899 250.738 60.3199 240.708 63.47 234.168C66.73 227.378 72.93 221.118 80.93 221.168C88.93 221.218 96.7701 230.008 90.29 237.168C88.84 238.788 88.71 242.028 91.05 243.068C107.263 250.286 122.882 258.773 137.76 268.448C138.044 268.633 138.349 268.78 138.67 268.888C139.595 269.962 141.129 270.274 142.4 269.648C146.77 267.485 150.959 264.923 155.152 262.36C158.711 260.183 162.273 258.006 165.95 256.068C174.271 251.671 182.865 247.813 191.68 244.518C208.341 238.252 225.663 233.913 243.311 231.588C260.656 229.37 278.199 229.166 295.591 230.978C304.857 231.877 314.033 233.55 323.021 235.978C332.961 238.768 341.531 243.168 350.461 248.228C353.371 249.878 356.831 246.978 356.581 244.228C363.213 238.35 369.319 231.816 375.395 225.314C377.702 222.844 380.005 220.38 382.331 217.958C383.741 216.488 383.741 214.168 382.331 212.698C375.981 205.698 369.521 194.138 374.071 184.558C378.951 174.278 392.711 174.398 401.071 179.878C409.261 185.248 416.621 196.578 416.791 206.558C417.031 219.948 402.301 219.288 392.861 217.848C391.135 217.434 389.337 218.166 388.391 219.668C382.013 230.073 374.598 239.806 366.261 248.718C364.361 250.718 365.021 253.348 367.061 254.908C404.351 283.348 431.061 320.388 450.641 362.618C435.084 373.46 418.742 383.13 401.751 391.548C376.371 403.949 349.007 411.788 320.911 414.708C293.746 417.533 266.314 416.864 239.076 416.201C237.387 416.159 235.698 416.118 234.011 416.078C204.86 415.388 175.94 413.378 147.21 408.218C133.21 405.698 119.51 402.458 105.94 398.708C104.79 380.148 103.94 362.228 107.3 343.598C110.941 323.432 117.946 304.022 128.02 286.178C129.004 284.393 128.409 282.151 126.67 281.088ZM342.898 553.204C362.993 552.886 384.24 552.551 402.819 545.668C421.789 538.648 432.389 522.448 441.179 505.388C437.769 506.828 434.379 508.138 431.069 509.328C398.839 520.898 366.699 529.038 332.389 530.578C327.395 530.801 322.398 531.032 317.398 531.263C286.564 532.688 255.63 534.116 224.8 533.798C189.249 533.423 153.802 529.882 118.88 523.218C117.637 522.982 116.377 522.748 115.11 522.513L115.098 522.51L115.095 522.51C113.359 522.187 111.611 521.863 109.88 521.528C117.85 529.398 126.19 536.828 135.63 542.938C147.14 550.663 160.698 554.769 174.56 554.728C226.94 555.118 279.569 554.838 331.939 553.418C335.532 553.32 339.188 553.262 342.883 553.204L342.898 553.204ZM428.99 501.728C398.27 512.728 367.46 521.028 334.73 522.648L332.889 522.739C267.129 525.98 201.201 529.229 135.91 518.648C127.03 517.208 118.187 515.568 109.38 513.728C108.742 513.595 108.103 513.462 107.462 513.329L107.461 513.329C99.1695 511.607 90.6637 509.842 83.0799 506.008C71.6799 500.238 63.5399 490.448 55.7999 480.518C68.7999 485.278 82.2299 489.188 95.61 492.678C134.75 502.878 175.01 508.548 215.37 510.588C292.06 514.468 372.37 509.758 441.9 474.308C457.074 466.562 471.592 457.592 485.31 447.488C483.63 477.088 454 492.728 428.99 501.728ZM234.53 503.188C274.53 504.058 315.58 502.678 354.99 495.368L354.97 495.358C420.71 483.168 481.3 448.968 526.16 399.508C520.697 395.182 515.612 390.148 510.552 385.138C507.026 381.647 503.512 378.168 499.89 374.948C495.145 370.506 490.11 366.384 484.82 362.608C481.966 360.674 478.921 359.309 475.874 357.943C474.981 357.543 474.088 357.143 473.2 356.728C448.23 375.078 422.06 392.068 393.48 404.268C339.16 427.478 280.48 425.748 222.57 423.748C183.38 422.358 143.46 417.358 105.21 407.078L100.7 405.838C85.2419 401.494 70.072 396.184 55.2799 389.938L39.95 402.038C35.7483 405.528 31.7985 409.311 28.1299 413.358C24.2144 417.693 20.8417 422.54 17.4722 427.382C13.8453 432.594 10.2222 437.801 5.92995 442.358C20.1099 456.648 36.82 465.618 55.7 472.358C75.8629 479.462 96.4579 485.274 117.36 489.758C155.893 497.996 195.132 502.494 234.53 503.188Z" fill="#231F20"/>
<path fill-rule="evenodd" clip-rule="evenodd" d="M352.561 314.948C349.534 314.498 346.788 312.923 344.871 310.538C343.815 309.474 342.947 308.24 342.301 306.888C339.351 300.618 343.441 292.528 349.771 291.968C351.785 291.099 353.991 290.771 356.171 291.018C365.311 292.008 370.061 302.708 365.261 310.428C362.371 315.058 357.301 316.148 352.561 314.948ZM359.431 303.648C359.443 302.411 359.022 301.208 358.241 300.248C355.391 296.918 349.471 299.458 350.351 303.888C351.311 308.788 356.831 307.618 358.971 304.238C359.108 304.029 359.262 303.832 359.431 303.648Z" fill="#231F20"/>
<path d="M254.052 357.198C266.302 355.008 274.962 339.198 266.242 328.748C264.622 326.808 261.162 328.398 261.242 330.818C261.572 338.428 263.072 347.288 253.462 349.818C244.742 352.068 239.182 344.308 239.142 336.418C239.142 333.298 234.522 332.628 233.692 335.678C230.362 347.938 241.762 359.358 254.052 357.198Z" fill="#231F20"/>
<path fill-rule="evenodd" clip-rule="evenodd" d="M164.35 337.608C157.76 343.158 146.99 339.588 144.09 331.768C143.213 331.573 142.455 331.027 141.99 330.259C141.525 329.49 141.395 328.565 141.63 327.698C144.41 319.398 153.97 313.538 162.41 317.808C170.1 321.698 170.94 332.058 164.35 337.608ZM155.17 324.488C153.593 324.857 152.146 325.645 150.98 326.768V326.748C150.27 328.598 151.57 330.608 153.17 331.638C155.76 333.288 159.48 332.928 160.67 329.788C161.73 326.988 159.96 324.958 157.52 324.478C157.007 324.81 156.365 324.87 155.8 324.638C155.597 324.562 155.385 324.512 155.17 324.488Z" fill="#231F20"/>
<path d="M436.03 391.198C427.79 393.128 419.55 399.928 412.3 404.198C404.44 408.818 396.739 413.018 388.129 416.118C387.269 416.428 387.329 417.858 388.359 417.818C396.709 417.468 404.05 413.178 411.13 409.118C415.836 406.451 420.537 403.741 425.23 400.988C429.32 398.628 433.93 396.648 437.16 393.158C437.52 392.779 437.588 392.209 437.327 391.756C437.066 391.304 436.538 391.077 436.03 391.198Z" fill="#231F20"/>
<path d="M453.988 380.358C452.599 380.937 451.289 381.69 450.088 382.598C448.738 383.448 447.428 384.368 446.088 385.208C445.786 385.406 445.669 385.792 445.808 386.125C445.948 386.458 446.305 386.644 446.658 386.568C449.548 385.788 453.388 384.428 455.048 381.718C455.227 381.389 455.194 380.986 454.964 380.69C454.734 380.395 454.351 380.264 453.988 380.358Z" fill="#231F20"/>
<path d="M76.7903 466.198C67.4603 460.778 56.9103 457.628 47.2303 452.818C38.1403 448.288 29.6903 442.068 20.3503 438.128C19.8303 437.908 19.5303 438.668 19.8403 439.008C26.9803 446.938 37.7703 452.358 47.1403 457.128C56.2803 461.778 66.1403 466.628 76.3803 467.708C77.2103 467.798 77.4403 466.578 76.7903 466.198Z" fill="#231F20"/>
<path d="M99.8488 473.108C95.9888 470.488 89.9588 469.618 85.4088 470.008C84.7188 470.068 84.2388 471.108 85.0188 471.468C87.2547 472.451 89.5695 473.244 91.9388 473.838C94.296 474.657 96.7501 475.165 99.2388 475.348C99.7754 475.337 100.241 474.974 100.382 474.456C100.523 473.938 100.306 473.389 99.8488 473.108Z" fill="#231F20"/>
<path d="M332.03 50.268C340.03 53.398 347.8 57.098 354.3 62.7281C360.37 67.9681 365.85 74.0981 371.3 79.9881C376.766 85.8295 381.914 91.9617 386.719 98.3581C391.019 104.168 394.519 110.728 399.279 116.158C400.039 117.018 401.399 116.098 401.129 115.078C399.049 107.178 393.569 100.078 388.669 93.6881C383.743 87.3221 378.461 81.239 372.85 75.4681C367.18 69.5781 361.35 63.3781 354.72 58.548C348.09 53.718 340.28 51.218 332.57 48.458C331.38 48.048 330.93 49.838 332.03 50.268Z" fill="#231F20"/>
<path d="M412.308 142.608C412.614 143.101 413.232 143.3 413.768 143.076C414.303 142.852 414.596 142.272 414.458 141.708C412.968 135.378 409.458 128.828 406.008 123.328C405.298 122.188 403.338 122.908 403.778 124.268C405.768 130.428 408.468 137.358 412.308 142.608Z" fill="#231F20"/>
</svg>
