<svg width="482" height="566" viewBox="0 0 482 566" fill="none" xmlns="http://www.w3.org/2000/svg">
<path d="M90.7159 388.376C98.8459 390.596 107.836 394.586 116.176 395.376C121.536 395.856 121.876 394.486 125.696 390.446C128.306 387.696 130.876 384.916 133.466 382.146L154.186 359.996C166.706 346.61 179.223 333.223 191.736 319.836C243.136 264.89 294.519 209.973 345.886 155.086C352.256 148.286 361.676 156.966 358.056 164.476C314.976 253.63 268.179 340.843 217.666 426.116C228.116 430.606 239.666 433.696 250.296 437.446C261.976 441.576 273.626 445.786 285.296 449.876C297.576 454.163 309.889 458.36 322.236 462.466C330.866 465.326 340.396 467.466 348.936 471.076C352.866 438.626 360.106 406.196 366.486 374.216C388.618 264.029 417.116 155.217 451.836 48.3262C430.176 73.9762 405.996 97.8462 381.626 120.276C378.796 122.876 373.566 119.326 376.056 115.976C393.956 91.8662 414.176 69.5362 433.496 46.5162C411.249 63.4762 388.993 80.4129 366.726 97.3262C305.466 143.846 244.169 190.343 182.836 236.816C152.916 259.446 122.946 282.016 93.5859 305.366C67.4159 326.156 42.6259 349.126 15.8359 369.156C31.2459 372.156 46.3859 376.616 61.5459 380.606C71.2859 383.16 81.0093 385.75 90.7159 388.376Z" fill="white"/>
<path d="M201.235 423.736C243.828 351.843 283.872 278.543 321.365 203.836C278.698 249.316 236.032 294.776 193.365 340.216L151.845 384.446C145.025 391.716 137.015 403.946 127.035 408.766C131.335 417.206 133.265 427.826 135.625 436.336C139.205 449.276 142.568 462.276 145.715 475.336C150.175 493.916 154.262 512.583 157.975 531.336C172.422 498.003 186.835 464.67 201.215 431.336C199.695 429.029 199.703 426.036 201.235 423.736Z" fill="#939598"/>
<path d="M214.633 439.776C201.253 470.696 187.919 501.633 174.633 532.586C184.193 523.206 194.053 514.136 204.033 505.196C222.223 488.906 240.463 472.526 259.333 456.986C252.059 454.32 244.813 451.58 237.593 448.766C230.273 445.926 221.953 443.476 214.633 439.776Z" fill="#939598"/>
<path fill-rule="evenodd" clip-rule="evenodd" d="M98.1115 406.104L98.1104 406.104C95.5042 405.292 92.9206 404.487 90.3744 403.786C80.6811 401.113 71.0011 398.383 61.3344 395.596C57.0993 394.387 52.8414 393.214 48.5783 392.041L48.5765 392.04C33.4229 387.869 18.2024 383.679 3.69444 377.716C-1.96556 375.386 -0.66556 368.306 4.50444 367.516C4.5683 367.397 4.64189 367.283 4.72444 367.176C27.8695 339.15 57.5937 315.681 86.3345 292.989L86.3357 292.988C90.6256 289.601 94.8935 286.231 99.1144 282.866C143.865 247.186 189.538 212.66 235.21 178.135C249.662 167.211 264.113 156.287 278.534 145.326C340.281 98.3729 402.048 51.4563 463.834 4.57627C464.795 3.81387 465.941 3.32036 467.154 3.14627C472.084 -3.27373 484.034 0.78627 481.084 9.41627C469.451 43.4763 458.491 77.7629 448.204 112.276C430.344 172.543 414.344 233.28 400.204 294.486C393.074 325.346 386.414 356.436 380.314 387.486C377.797 400.3 375.61 413.213 373.422 426.13L373.422 426.131L373.422 426.132L373.422 426.133C370.309 444.514 367.194 462.903 363.124 481.026C362.324 484.536 359.404 486.236 356.324 486.426C355.096 487.416 353.52 487.867 351.954 487.676C342.427 486.811 332.859 483.249 323.597 479.8C320.542 478.663 317.52 477.538 314.544 476.526C301.811 472.193 289.111 467.763 276.444 463.236C267.727 470.809 258.925 478.284 250.122 485.759L250.122 485.76L250.121 485.76C238.316 495.785 226.51 505.811 214.904 516.076C214.107 516.78 213.31 517.485 212.513 518.189L211.047 519.484C202.167 527.33 193.292 535.172 184.294 542.876C183.493 543.566 182.693 544.26 181.892 544.956L181.889 544.959L181.885 544.962L181.884 544.963C177.817 548.494 173.72 552.052 169.294 555.066C167.405 556.325 165.449 557.48 163.434 558.526L161.934 562.016C159.274 568.206 148.564 566.496 147.404 560.116C142.551 533.083 136.954 506.206 130.614 479.486C127.354 465.833 123.974 452.213 120.474 438.626C119.876 436.308 119.166 433.894 118.439 431.421L118.439 431.42C116.422 424.56 114.274 417.25 113.994 410.296C108.691 409.401 103.356 407.739 98.1115 406.104ZM145.754 475.326C150.188 493.92 154.274 512.586 158.014 531.326C172.474 497.993 186.894 464.653 201.274 431.306C199.757 429.007 199.757 426.025 201.274 423.726C243.881 351.793 283.924 278.493 321.404 203.826C278.738 249.306 236.071 294.766 193.404 340.206L151.884 384.436C150.085 386.357 148.202 388.625 146.222 391.01L146.221 391.011C140.707 397.653 134.432 405.21 127.074 408.756C130.312 415.11 132.206 422.7 133.951 429.695L133.951 429.696L133.952 429.697C134.524 431.992 135.081 434.224 135.664 436.326C139.264 449.266 142.628 462.266 145.754 475.326ZM204.014 505.206C194.014 514.146 184.174 523.206 174.614 532.596C187.948 501.656 201.281 470.72 214.614 439.786C219.576 442.294 224.997 444.228 230.248 446.101C232.744 446.991 235.202 447.868 237.554 448.786C244.854 451.636 252.024 454.326 259.294 457.006C241.032 472.043 223.341 487.887 205.714 503.674L204.014 505.196V505.206ZM176.257 241.735C148.519 262.708 120.78 283.682 93.5642 305.326C82.7232 313.962 72.116 322.965 61.5052 331.972C46.5214 344.69 31.5305 357.414 15.8644 369.116C27.6806 371.401 39.338 374.563 50.9674 377.716C54.5044 378.675 58.0388 379.634 61.5743 380.566C71.3009 383.08 81.0143 385.67 90.7142 388.336C93.34 389.066 96.0554 389.977 98.8097 390.9C104.583 392.836 110.528 394.829 116.174 395.336C120.779 395.749 121.679 394.766 124.263 391.945C124.686 391.483 125.156 390.97 125.694 390.406C127.518 388.485 129.321 386.549 131.126 384.613C131.905 383.777 132.684 382.941 133.464 382.106L154.184 359.956C166.704 346.57 179.221 333.183 191.734 319.796C243.1 264.87 294.484 209.966 345.883 155.086C352.253 148.286 361.673 156.966 358.053 164.476C314.94 253.71 268.144 340.913 217.664 426.086C224.416 428.988 231.632 431.304 238.758 433.592C242.661 434.845 246.536 436.09 250.294 437.417C254.766 439.001 259.238 440.597 263.71 442.193C270.897 444.759 278.088 447.325 285.294 449.846C297.58 454.14 309.894 458.337 322.234 462.437C325.321 463.46 328.523 464.388 331.754 465.325C337.555 467.007 343.449 468.715 348.934 471.047C352.118 444.749 357.477 418.478 362.79 392.431C364.033 386.336 365.274 380.254 366.483 374.186C388.616 264.009 417.114 155.207 451.833 48.3263C430.193 74.0063 406.013 97.8763 381.643 120.296C378.813 122.896 373.583 119.346 376.073 115.996C389.039 98.5328 403.221 81.9927 417.397 65.4602C422.793 59.168 428.187 52.8768 433.513 46.5363C411.26 63.4829 388.997 80.413 366.723 97.3263C305.464 143.9 244.16 190.383 182.814 236.776C180.629 238.429 178.443 240.082 176.257 241.735Z" fill="#231F20"/>
</svg>
