<svg width="576" height="515" viewBox="0 0 576 515" fill="none" xmlns="http://www.w3.org/2000/svg">
<path d="M561.784 306.799C566.244 300.799 562.534 291.359 558.534 286.149C557.194 288.839 555.534 291.459 554.914 294.639C554.276 297.855 554.121 301.148 554.454 304.409C555.064 309.019 558.604 311.049 561.784 306.799Z" fill="#F7941E"/>
<path d="M414.565 437.01C413.363 438.938 411.932 440.714 410.305 442.3C411.029 443.497 411.94 444.571 413.005 445.48C416.565 448.35 419.815 445.32 419.635 441.28C419.4 438.419 418.36 435.683 416.635 433.39C415.935 434.7 415.225 435.95 414.565 437.01Z" fill="#E27683"/>
<path d="M361.513 421.89L357.863 422.14C359.983 426.42 362.203 430.52 366.043 433.87C372.292 439.205 380.483 441.692 388.643 440.73C397.713 439.73 404.163 434.95 407.513 426.46C408.761 422.931 409.825 419.339 410.703 415.7C394.426 418.62 378.007 420.686 361.513 421.89Z" fill="#E27683"/>
<path d="M388.564 451.55C388.634 453.317 388.971 455.064 389.564 456.73C390.054 457.89 391.104 459.73 392.564 459.92C394.784 460.21 395.484 458.19 396.064 456.76C396.932 454.551 397.419 452.211 397.504 449.84C395.1 450.612 392.624 451.145 390.114 451.43C389.584 451.49 389.074 451.52 388.564 451.55Z" fill="#E27683"/>
<path d="M366.093 450.12C366.273 451.91 366.383 457.29 368.423 458.42C371.983 460.42 374.073 455.19 375.423 450.06C372.071 449.124 368.835 447.816 365.773 446.16C365.853 447.48 365.933 448.8 366.093 450.12Z" fill="#E27683"/>
<path d="M393.044 176.879C399.964 176.879 405.744 176.359 409.174 183.499C412.354 190.109 410.844 198.499 411.174 205.499C411.654 217.069 414.834 227.679 423.684 235.629C432.534 243.579 445.474 248.629 457.314 245.889C468.504 243.269 475.894 234.209 476.054 222.779C476.144 216.639 473.564 204.429 478.974 199.509C481.894 196.849 486.264 197.389 489.524 194.509C493.804 190.709 494.694 185.699 493.704 180.739C486.774 166.469 477.064 157.379 461.824 152.269C446.312 147.05 430.098 144.211 413.734 143.849C403.733 143.808 393.741 144.476 383.834 145.849C380.024 156.919 375.774 176.839 393.044 176.879Z" fill="#F7941E"/>
<path d="M277.853 75.9699C278.771 72.6453 279.472 69.265 279.953 65.8499C277.023 63.3799 274.373 60.4699 271.073 58.3999C267.875 56.4502 264.475 54.851 260.933 53.6299C259.94 56.6017 258.775 59.5133 257.443 62.3499C261.339 63.6722 265.057 65.4691 268.513 67.6999C272.17 69.7741 275.352 72.5912 277.853 75.9699Z" fill="#F7941E"/>
<path d="M272.554 91.1193C273.794 88.1193 274.934 85.1193 275.954 82.1193C273.334 78.4293 271.144 74.9093 267.044 72.1793C263.431 69.7223 259.558 67.6731 255.494 66.0693C253.819 69.1282 251.722 71.9358 249.264 74.4093C253.024 76.5993 256.714 78.8993 260.264 81.2793C264.668 84.1558 268.784 87.4511 272.554 91.1193Z" fill="#F7941E"/>
<path d="M103.625 41.99C103.275 39.27 103.065 36.53 102.935 33.79C100.815 34.43 98.7248 35.16 96.5948 35.79C95.3048 41.71 94.3848 47.3 93.8848 50.55L94.2648 50.18C96.6948 47.77 100.105 43.89 103.625 41.99Z" fill="#F7941E"/>
<path d="M103.164 19.6996C103.164 19.1996 103.624 16.8496 103.964 14.6396C101.264 18.3296 99.034 25.4196 97.334 32.5496C99.047 31.4894 100.889 30.6527 102.814 30.0596C102.774 26.5496 102.934 23.0996 103.164 19.6996Z" fill="#F7941E"/>
<path d="M265.845 29.8402C269.193 29.9373 272.488 30.6916 275.545 32.0602C276.095 32.3002 276.675 32.5702 277.265 32.8702C274.875 24.3702 271.005 15.9402 265.045 12.7002C266.019 18.3585 266.288 24.1158 265.845 29.8402Z" fill="#F7941E"/>
<path d="M92.2734 80.18C92.6194 83.398 93.2146 86.5842 94.0534 89.71C100.871 83.4213 108.556 78.1441 116.873 74.04C114.104 71.0609 111.786 67.6917 109.993 64.04C103.933 69.31 95.9334 73.17 92.2734 80.18Z" fill="#F7941E"/>
<path d="M352.933 235.11C350.996 238.644 350.392 242.758 351.233 246.7C352.653 253.48 358.153 252.97 363.023 255.16C365.225 255.986 367.035 257.61 368.093 259.71C368.963 261.57 368.373 263.37 368.993 265.2C370.743 270.41 374.993 272.55 379.993 271.91C395.183 270 392.633 252.65 386.463 243.36C383.823 239.36 379.013 232.49 374.553 230.13C371.353 228.43 356.053 230.06 354.433 234.06C354.179 234.67 353.595 235.079 352.933 235.11Z" fill="#F7941E"/>
<path d="M343.214 319.81C339.774 324.87 336.614 330.53 335.034 336.45C334.114 341.51 334.724 346.66 338.774 350.61C344.054 355.77 350.774 355.05 356.354 351.07C361.744 347.21 366.804 340.88 373.884 340.22C379.884 339.66 382.884 343.44 385.134 348.45C387.854 354.45 392.004 358.9 399.364 356.73C404.024 355.35 407.814 351.33 410.194 347.26C416.814 335.94 413.924 324.38 402.344 318.09C392.755 312.762 382.54 308.65 371.934 305.85C359.024 302.7 350.154 309.6 343.214 319.81Z" fill="#F7941E"/>
<path d="M323.654 122.24C333.134 115.78 339.864 106.11 349.334 99.67C356.224 94.99 365.564 92.13 373.534 95.83C374.414 96.2453 375.26 96.7302 376.064 97.28C375.203 94.3727 373.687 91.7011 371.634 89.47C362.344 79.35 351.774 89.53 344.314 96.18C338.022 102.02 330.742 106.696 322.814 109.99C314.624 113.28 298.644 117.16 287.254 114.21C288.627 117.877 289.799 121.616 290.764 125.41C302.614 129.7 312.584 129.79 323.654 122.24Z" fill="#8B5E3C"/>
<path d="M460.825 315.699C462.645 314.179 464.175 312.269 466.225 311.009C470.635 308.289 475.115 308.619 480.095 309.119C484.235 309.539 488.485 310.439 491.845 307.059C494.625 304.269 495.185 299.489 495.415 295.809C495.885 288.399 494.615 279.689 489.365 274.029C482.175 266.289 473.055 268.319 467.055 275.859C464.265 279.359 462.055 282.069 457.595 283.339C454.085 284.339 451.175 284.139 447.905 286.219C445.646 287.742 443.72 289.709 442.245 291.999C439.295 297.999 440.365 305.389 444.565 311.459C448.415 316.989 454.785 320.779 460.825 315.699Z" fill="#F7941E"/>
<path d="M348.114 106.89C340.934 112.97 334.934 120.24 327.174 125.7C318.284 132.01 301.254 137.77 291.754 129.7C292.274 132.13 292.754 134.59 293.124 137.07C293.844 137.74 294.574 138.36 295.034 138.81C296.62 140.393 298.328 141.847 300.144 143.16C300.544 143.43 300.964 143.69 301.414 143.94C304.754 145.3 307.914 147.21 311.414 148.33C316.429 149.95 321.664 150.784 326.934 150.8C337.216 150.834 347.251 147.653 355.634 141.7C364.844 135.08 375.634 120.08 376.864 106.36C371.194 95.8601 357.414 99.0201 348.114 106.89Z" fill="#E27683"/>
<path fill-rule="evenodd" clip-rule="evenodd" d="M324.503 161.6C339.478 162.549 354.231 157.607 365.613 147.83C365.922 147.917 366.247 147.934 366.563 147.88C370.53 147.451 374.472 146.959 378.412 146.466L378.412 146.466L378.412 146.466L379.823 146.29C374.893 154.77 372.443 165.03 378.043 173.97C380.284 177.706 383.823 180.486 387.983 181.78C390.012 182.345 392.218 182.36 394.359 182.376C399.31 182.411 403.921 182.444 405.233 189.25C405.96 193.003 405.845 196.915 405.731 200.82C405.647 203.689 405.563 206.555 405.813 209.35C406.194 214.969 407.487 220.488 409.643 225.69C414.183 236.04 423.233 243.88 433.483 248.32C452.003 256.33 478.603 250.24 481.343 227.09C481.674 224.157 481.51 221.215 481.346 218.273V218.273V218.273C481.182 215.347 481.019 212.422 481.343 209.51C481.89 204.674 484.852 203.244 488.154 201.649C489.926 200.794 491.795 199.891 493.443 198.39C495.506 196.488 497.136 194.166 498.223 191.58C502.28 203.432 504.889 215.732 505.993 228.21C509.273 261.14 506.923 294.74 503.443 327.56C499.723 362.53 494.483 397.4 488.983 432.12C487.543 441.24 486.013 450.34 484.313 459.41C484.299 459.489 484.273 459.668 484.236 459.925L484.236 459.925C483.921 462.087 482.804 469.741 481.543 469.41C479.702 468.931 479.442 460.902 479.318 457.044C479.291 456.231 479.271 455.603 479.243 455.27C478.958 451.921 478.679 448.572 478.399 445.222C477.024 428.733 475.648 412.235 473.553 395.82C473.444 394.953 473.147 394.12 472.683 393.38V392.92C472.633 391.658 471.797 390.562 470.593 390.18C463.593 387.31 459.933 393.15 459.793 399.49C459.774 400.319 459.745 401.202 459.715 402.126V402.126V402.126C459.585 406.075 459.431 410.77 459.933 415.13C459.459 418.889 459.311 422.757 459.164 426.617C458.991 431.136 458.819 435.646 458.123 439.96C457.27 445.184 456.135 450.359 454.723 455.46C454.597 455.911 454.414 456.681 454.183 457.65C453.064 462.349 450.83 471.736 448.533 472.25C448.483 472.26 447.483 442.43 447.533 439.94C447.792 427.755 448.814 415.598 450.593 403.54C451.303 398.66 447.823 394.31 442.593 395.54C415.433 402.017 387.862 406.634 360.073 409.36C346.2 410.691 332.275 410.861 318.361 411.03H318.361H318.36C305.726 411.183 293.101 411.337 280.533 412.36C279.493 412.127 278.405 412.224 277.423 412.64C276.375 412.814 275.454 413.434 274.9 414.34C274.345 415.246 274.211 416.348 274.533 417.36C274.043 424.279 273.771 431.209 273.499 438.139C273.178 446.334 272.856 454.529 272.173 462.71C271.58 469.817 270.84 476.917 269.953 484.01L269.949 484.048C269.572 487.422 266.752 512.652 258.593 502.52C255.929 499.234 255.379 493.118 254.916 487.975C254.754 486.168 254.602 484.481 254.373 483.08C253.227 476.087 252.083 469.087 250.943 462.08C250.189 457.465 249.417 452.849 248.644 448.234C246.905 437.849 245.166 427.465 243.643 417.08C242.963 412.4 235.273 412.61 234.403 417.08C231.975 429.543 230.573 442.294 229.177 454.987C228.659 459.698 228.142 464.402 227.573 469.08C227.228 471.916 226.901 474.755 226.573 477.595C225.868 483.72 225.161 489.846 224.273 495.94C223.623 500.42 222.893 504.48 221.523 497.68C220.736 493.743 220.055 489.805 219.375 485.868C219.278 485.305 219.181 484.743 219.083 484.18C215.973 466.09 213.473 447.89 211.473 429.64C210.817 423.677 210.464 417.532 210.109 411.345C209.539 401.41 208.962 391.369 207.113 381.81L207.633 381.98C223.176 386.74 239.381 388.982 255.633 388.62C270.733 388.25 288.053 386.78 300.483 377.34C311.413 369.04 316.893 355.92 321.113 343.27C326.254 327.685 329.363 311.501 330.363 295.12C331.393 279.06 331.023 261.76 326.593 246.18C322.713 232.51 314.603 219.27 306.433 207.75C301.429 200.708 295.139 194.675 287.893 189.97C292.733 178.1 294.763 164.65 294.393 151.2C301.173 158.6 315.073 161.07 324.503 161.6ZM454.053 278.54C446.673 280.67 439.873 283.85 437.873 291.39C432.053 302.7 438.983 321.24 452.383 323.88C455.963 324.543 459.655 323.648 462.533 321.42C463.513 320.74 464.358 319.885 465.202 319.031C466.046 318.177 466.888 317.325 467.863 316.65C471.993 313.787 474.826 314.09 478.936 314.531C479.304 314.57 479.683 314.611 480.073 314.65C488.433 315.49 495.533 314.14 498.993 305.57C505.303 289.91 498.053 263.57 478.053 263.47C471.327 263.436 467.783 267.255 464.184 271.133C461.362 274.174 458.505 277.252 454.053 278.54ZM415.933 321.93C425.653 335.86 415.453 360.4 398.413 362.93C390.543 364.1 384.023 360.17 380.743 353.15C380.595 352.834 380.45 352.514 380.304 352.194C378.852 348.995 377.388 345.771 372.743 346.48C370.317 346.852 367.786 349.082 365.717 350.905C365.227 351.336 364.764 351.744 364.333 352.1C364.143 352.256 363.952 352.413 363.762 352.57C363.611 352.695 363.46 352.821 363.308 352.946C360.483 355.285 357.636 357.643 354.183 358.99C350.409 360.595 346.179 360.773 342.283 359.49C337.283 358.33 332.403 354.49 331.613 349.78C331.192 348.425 330.888 347.037 330.703 345.63C329.8 341.784 329.994 337.761 331.263 334.02C334.323 319.34 345.563 304.43 358.093 300.52C368.153 297.383 378.799 301.757 388.233 305.633C389.114 305.995 389.985 306.353 390.843 306.7C391.696 307.043 392.566 307.386 393.448 307.733L393.448 307.733C401.667 310.972 410.839 314.587 415.933 321.93ZM386.023 276.03C403.193 268.7 396.533 247.11 387.783 236.17H387.823L387.676 235.986C382.712 229.77 377.076 222.712 368.273 223.96C367.621 224.053 366.924 224.14 366.198 224.23C362.23 224.726 357.405 225.328 354.353 227.56C346.013 231.8 343.013 247.7 349.743 254.91C351.58 256.884 353.604 257.469 355.76 258.093C356.904 258.424 358.084 258.765 359.293 259.33C362.786 260.965 363.12 263.594 363.483 266.448C363.724 268.341 363.977 270.333 365.173 272.2C369.143 278.37 379.953 278.61 386.023 276.03Z" fill="#8B5E3C"/>
<path d="M280.464 50.8494C280.143 46.9116 279.578 42.9974 278.774 39.1294C277.449 37.886 275.994 36.7896 274.434 35.8594C271.667 34.3752 268.673 33.3613 265.574 32.8594C265.032 38.1503 264.028 43.3836 262.574 48.4994C262.404 49.1194 262.194 49.7694 262.004 50.4094C268.524 51.7694 275.684 54.8594 280.584 59.4094C280.72 56.5563 280.68 53.6975 280.464 50.8494Z" fill="#F7941E"/>
<path d="M47.3841 110.36C41.0141 105.64 36.3841 99.54 30.8441 93.93C28.2441 91.28 25.3141 87.85 20.9141 91.02C19.5641 92.02 18.4141 94.45 17.5341 95.9C15.2242 99.7146 13.435 103.821 12.2141 108.11C11.9141 109.11 11.6441 110.19 11.4141 111.25C15.298 106.72 21.2095 104.463 27.1241 105.25C33.9941 106.15 39.0441 111.46 42.8641 116.82C45.6841 120.82 47.8641 125.34 51.1941 128.92C52.5241 130.35 66.7841 139.92 67.7641 136.39C67.8265 136.167 67.9643 135.973 68.1541 135.84C69.5618 129.835 71.496 123.966 73.9341 118.3C64.9341 119.7 55.1241 116.09 47.3841 110.36Z" fill="#8B5E3C"/>
<path d="M46.9331 131.42C41.2131 124.68 37.5331 113.36 28.2931 110.59C17.9931 107.51 13.1331 115.68 10.2031 124.16C10.5153 135.93 14.9377 147.219 22.7031 156.07C33.1831 167.95 49.1431 175.59 64.7031 171.52C64.4592 164.311 64.7936 157.095 65.7031 149.94C66.0831 146.753 66.5898 143.586 67.2231 140.44C66.145 140.686 65.0366 140.774 63.9331 140.7C57.3531 140.47 51.0231 136.27 46.9331 131.42Z" fill="#E27683"/>
<path d="M119.564 140.379C120.994 139.809 120.884 138.269 120.034 137.299C119.482 136.699 118.741 136.307 117.934 136.189C117.419 136.868 117.16 137.708 117.204 138.559C117.314 139.699 118.354 140.859 119.564 140.379Z" fill="white"/>
<path d="M237.103 139.879C238.212 139.169 238.575 137.719 237.933 136.569C237.313 135.929 235.823 135.819 234.993 135.699C234.533 135.639 234.103 135.599 233.683 135.569C233.28 136.369 233.23 137.301 233.543 138.139C234.023 139.469 236.013 140.409 237.103 139.879Z" fill="white"/>
<path fill-rule="evenodd" clip-rule="evenodd" d="M76.1531 194.7C89.5131 186.64 104.813 182 121.553 179.61C154.843 174.86 188.943 170.3 222.613 172.51C240.543 173.69 259.223 176.25 275.513 183.33C278.313 170.51 280.643 158.33 279.593 144.9C278.543 131.47 275.143 115.29 266.293 104.48C259.291 95.9384 249.091 90.1289 239.585 84.7138L238.823 84.2798C227.483 77.8198 215.423 72.5198 202.343 70.9898C179.593 68.3298 153.753 72.3698 132.283 80.1398C109.723 88.3098 91.9931 104.14 83.1631 126.64C78.8231 137.73 76.8331 149.44 76.2431 161.3C76.0155 165.877 76.2178 170.607 76.4209 175.357C76.6998 181.879 76.9804 188.44 76.1531 194.7ZM226.253 129.92C227.21 128.944 228.309 128.118 229.513 127.47C230.634 126.331 232.003 125.465 233.513 124.94C237.79 123.607 242.452 124.625 245.783 127.62C252.663 133.53 251.163 144.93 243.703 149.67C236.243 154.41 225.703 150.1 223.393 141.73C222.277 137.563 223.354 133.114 226.253 129.92ZM130.313 132.58C126.303 125.62 115.113 122.63 109.113 128.7C107.799 129.95 107.465 131.916 108.293 133.53C107.01 135.485 106.373 137.793 106.473 140.13C106.932 145.362 110.538 149.784 115.571 151.286C120.605 152.787 126.044 151.065 129.295 146.939C132.546 142.814 132.95 137.122 130.313 132.58Z" fill="#8B5E3C"/>
<path fill-rule="evenodd" clip-rule="evenodd" d="M53.3843 364.689C46.1943 353.539 42.3043 340.189 39.9843 327.189C34.7843 298.039 37.1443 264.819 50.9343 238.269C63.9343 213.449 85.2943 198.439 112.624 193.439C141.814 188.049 172.684 185.819 202.354 185.689C217.604 185.589 232.914 186.589 247.864 189.689C262.064 192.629 277.414 196.559 287.864 207.239C297.064 216.629 304.524 229.969 309.864 241.919C315.994 255.639 316.454 271.779 316.094 286.579C315.696 301.183 313.551 315.686 309.704 329.779L309.64 330.017C306.271 342.468 302.065 358.011 291.204 366.099C278.994 375.159 258.744 374.759 244.284 374.099C227.254 373.319 211.654 368.649 195.504 363.649C180.574 359.039 165.954 357.059 150.574 360.749C139.724 363.339 129.624 368.449 119.894 374.059C109.664 377.599 99.3543 381.129 88.6643 381.849C73.8943 382.839 61.4843 377.239 53.3843 364.689ZM296.214 337.319C296.274 338.079 297.204 338.899 297.984 338.319H297.934C301.354 335.699 302.984 330.019 302.574 325.909C302.556 325.416 302.22 324.991 301.744 324.86C301.267 324.73 300.761 324.924 300.494 325.339C299.291 327.141 298.326 329.09 297.624 331.139C296.684 333.063 296.201 335.178 296.214 337.319ZM298.034 249.129C311.964 267.239 311.034 296.129 304.434 316.979C304.034 318.249 301.874 318.489 301.604 316.979C300.497 310.784 301.496 304.425 302.494 298.069L302.494 298.069C303.208 293.521 303.923 288.974 303.864 284.489C303.729 273.469 300.471 263.495 297.121 253.237C296.765 252.148 296.408 251.056 296.054 249.959C295.604 248.699 297.314 248.239 297.994 249.129H298.034ZM271.124 239.949C269.114 240.201 267.222 241.039 265.684 242.359H265.644C262.783 244.934 261.546 248.86 262.414 252.609C264.234 261.189 275.324 263.759 280.934 257.239C283.847 253.998 284.355 249.254 282.194 245.469C281.214 243.894 279.801 242.634 278.124 241.839C277.456 240.958 276.446 240.402 275.344 240.309C273.961 239.995 272.541 239.873 271.124 239.949ZM143.084 311.279C145.501 313.872 147.241 317.014 148.952 320.106C152.323 326.198 155.585 332.091 163.704 333.179C170.064 334.029 176.374 331.299 180.934 326.939C183.51 324.475 185.039 321.526 186.578 318.558C187.662 316.466 188.751 314.366 190.214 312.419C192.034 310.009 196.574 309.719 197.324 313.349C200.584 329.199 181.884 343.349 167.564 343.759C159.954 344.06 152.571 341.133 147.234 335.699C143.307 331.544 141.803 326.38 140.278 321.15L140.278 321.15C139.602 318.829 138.922 316.495 138.024 314.229C136.934 311.359 141.104 309.199 143.044 311.279H143.084ZM84.5043 245.729C82.1856 246.854 80.5777 249.058 80.2143 251.609C78.3396 255.495 79.1125 260.14 82.1443 263.209C86.8143 267.789 95.3743 266.609 98.6743 261.019C101.764 255.789 100.034 248.259 94.3843 245.549C91.2417 244.072 87.5909 244.138 84.5043 245.729ZM53.2943 315.549C53.5188 316.603 54.0232 317.578 54.7543 318.369C56.0343 319.909 53.9943 322.059 52.5143 320.609C51.1278 319.202 50.6146 317.154 51.1743 315.259C51.4643 313.969 53.1643 314.429 53.2943 315.549ZM46.1943 268.549C41.6343 279.419 42.6343 294.089 48.6343 304.239C49.2343 305.249 51.2043 304.919 51.0343 303.589C50.7284 301.212 50.3097 298.861 49.8905 296.507C49.2957 293.167 48.7 289.821 48.4243 286.389C48.1417 282.873 48.2133 279.356 48.285 275.837C48.3325 273.502 48.3801 271.167 48.3243 268.829C48.3031 268.299 47.9032 267.861 47.3772 267.792C46.8512 267.723 46.3518 268.043 46.1943 268.549Z" fill="#E27683"/>
<path d="M95.934 70.0998C99.754 66.8098 103.794 62.8698 108.204 59.9498C107.044 57.0467 106.088 54.0661 105.344 51.0298C104.994 49.6198 104.694 48.1898 104.424 46.7598C102.554 48.2998 100.424 49.6598 98.804 51.0498C96.8026 52.6722 94.8961 54.4084 93.094 56.2498C92.2222 62.2088 91.8276 68.2279 91.914 74.2498C93.1044 72.729 94.4518 71.3379 95.934 70.0998Z" fill="#F7941E"/>
<path fill-rule="evenodd" clip-rule="evenodd" d="M26.934 308.07C25.3041 277.4 30.9341 244.7 49.3241 219.45C55.352 211.073 62.761 203.782 71.234 197.89C68.5073 192.957 66.6757 187.581 65.8241 182.01C50.5541 187.43 31.494 178.06 20.254 168.01C6.0608 155.243 -1.30575 136.547 0.364049 117.53C1.49405 104.94 10.184 73.7098 28.494 80.1498C34.5243 82.275 38.9438 87.4943 43.2571 92.5881L43.2571 92.5881C45.5601 95.3078 47.8327 97.9917 50.3041 100.15C58.2241 107.08 67.9741 111.23 78.1541 109.98C78.2458 109.812 78.3328 109.645 78.4195 109.478C78.55 109.226 78.6798 108.976 78.8241 108.73C80.9174 105.145 83.2809 101.725 85.8941 98.4998C77.5891 86.8081 80.2255 68.329 82.1636 54.7453C82.2627 54.0501 82.3601 53.3677 82.454 52.6998C83.7462 43.4257 85.7522 34.2652 88.454 25.2998L88.5518 24.9771C90.5889 18.2499 92.9429 10.4758 97.8641 5.23977C101.444 1.41977 107.604 -0.950235 112.124 2.62977C116.479 6.08895 115.317 12.7409 114.354 18.2491C114.081 19.8109 113.825 21.2807 113.714 22.5598C112.864 32.4698 112.814 42.4798 115.334 52.1798C117.094 58.9198 120.104 65.0198 123.434 71.0198C128.368 68.923 133.428 67.1362 138.584 65.6698C164.664 58.2498 195.544 53.2098 221.854 61.7598C228.948 64.1116 235.83 67.0622 242.424 70.5798C248.624 63.0198 251.674 50.6098 253.494 41.9198C255.924 30.2766 254.673 19.3441 253.347 7.76571V7.76556C253.293 7.29141 253.238 6.81617 253.184 6.33977C252.824 3.49977 255.704 1.52977 258.184 1.33977C278.144 -0.240235 287.384 26.3898 290.044 41.9898C293.244 60.6998 291.154 84.0598 280.154 100.24C280.794 101.17 281.404 102.11 281.994 103.11C293.164 106.6 305.724 105.32 316.634 101.32C324.96 98.2287 331.224 92.9111 337.638 87.4657L337.639 87.4653L337.639 87.4651C340.293 85.2123 342.972 82.9377 345.834 80.7898C364.704 66.6098 386.194 79.6498 387.044 102.29C387.544 115.67 382.284 128.99 373.734 139.52C389.934 133.7 408.024 132.51 424.934 133.39C444.464 134.39 466.934 137.82 483.704 148.78C499.494 159.18 508.424 176.78 513.424 195.78C523.914 207.18 532.384 220.57 540.024 233.95C544.331 241.496 548.354 249.186 552.094 257.02C552.713 258.309 553.39 259.644 554.083 261.011L554.092 261.029L554.093 261.031L554.094 261.032C555.962 264.716 557.95 268.636 559.254 272.54C564.534 274.82 570.744 283.42 572.014 286.17C576.344 295.52 576.744 308.48 568.904 316.17C561.834 323.09 548.974 322.32 544.704 312.7C542.434 307.52 542.874 300.92 543.434 295.43C543.668 292.642 544.26 289.896 545.194 287.26C545.574 286.247 546.242 285.238 546.909 284.232C547.716 283.014 548.519 281.8 548.804 280.59C549.585 277.356 546.846 272.128 544.795 268.212C544.22 267.114 543.698 266.119 543.324 265.3C541.811 261.973 540.244 258.67 538.624 255.39C535.397 248.83 531.967 242.373 528.334 236.02C524.974 230.13 521.394 224.37 517.794 218.62C518.874 227.25 519.464 235.7 519.794 243.45C521.544 284.34 516.954 325.31 511.444 365.76C508.664 386.013 505.724 406.243 502.624 426.45C500.924 437.6 499.084 448.73 497.084 459.82C496.888 460.88 496.712 461.996 496.532 463.14C495.607 469.008 494.561 475.64 490.084 479.59C485.154 483.93 478.154 483.15 473.394 479.01C468.22 474.519 467.677 467.639 467.17 461.219L467.169 461.209C467.134 460.77 467.1 460.333 467.064 459.9C466.984 458.955 466.906 458.018 466.827 457.083C466.71 455.683 466.594 454.291 466.474 452.9C466.273 453.761 466.063 454.714 465.839 455.735C463.57 466.045 459.773 483.307 447.944 483.68C436.121 484.05 435.925 467.545 435.805 457.461C435.785 455.834 435.768 454.375 435.704 453.18C435.01 438.89 435.408 424.569 436.894 410.34C431.874 411.513 426.841 412.61 421.794 413.63C422.084 418.3 420.754 423.57 418.904 428.3C424.064 433.5 426.674 443.17 422.064 448.55C419.541 451.768 414.934 452.433 411.604 450.06C409.775 448.695 408.366 446.845 407.534 444.72C405.951 445.917 404.261 446.965 402.484 447.85C402.664 454.37 400.524 462.49 395.044 464.18C391.874 465.16 388.484 463.34 386.694 460.72C384.734 457.86 384.854 454.75 385.374 451.62C383.787 451.569 382.204 451.425 380.634 451.19C379.004 457.89 374.994 464.71 368.904 463.89C360.794 462.81 360.664 451.28 361.794 443.73C354.434 438.67 348.904 431.45 348.034 422.79C326.934 424.1 304.914 424.59 284.314 420.79C285.014 440.31 282.754 460.21 280.214 479.49C280.04 480.816 279.883 482.291 279.715 483.863L279.714 483.865L279.714 483.867C278.432 495.866 276.543 513.535 262.274 514.26C248.47 514.955 246.435 497.267 245.065 485.353C244.818 483.208 244.593 481.25 244.324 479.62C243.18 472.665 242.073 465.728 240.96 458.754L240.959 458.747L240.956 458.731L240.954 458.717L240.954 458.715C240.638 456.737 240.322 454.756 240.004 452.77C239.327 457.483 238.616 462.199 237.905 466.91C236.904 473.543 235.904 480.169 235.004 486.77C234.809 488.188 234.674 489.789 234.53 491.485C233.957 498.244 233.256 506.501 228.204 510.61C223.394 514.52 217.144 512.68 214.014 507.68C212.042 504.618 211.486 500.79 210.959 497.158C210.823 496.224 210.69 495.302 210.534 494.41C209.574 488.896 208.667 483.38 207.814 477.86C206.054 466.37 204.474 454.84 203.204 443.28C201.984 432.18 201.044 421.05 200.294 409.9C200.198 408.463 200.093 407.016 199.987 405.561L199.987 405.556C199.358 396.901 198.711 387.99 199.764 379.43C199.356 379.293 198.947 379.156 198.539 379.019C187.528 375.324 176.631 371.667 164.934 371.6C152.928 372.921 140.891 377.443 128.821 381.978C108.006 389.798 87.091 397.656 66.064 389.2C36.424 377.28 28.3841 336.18 26.934 308.07ZM557.697 287.813C556.579 289.946 555.442 292.116 554.934 294.64C554.296 297.856 554.141 301.148 554.474 304.41C555.084 309.02 558.624 311.05 561.804 306.8C566.264 300.84 562.554 291.36 558.554 286.15C558.277 286.705 557.988 287.258 557.697 287.813ZM368.424 458.42C366.674 457.431 366.341 453.19 366.164 450.945C366.139 450.624 366.117 450.344 366.094 450.12C365.964 448.8 365.854 447.48 365.744 446.12C368.805 447.775 372.042 449.084 375.394 450.02C374.074 455.19 371.984 460.38 368.424 458.42ZM395.954 456.959C395.981 456.892 396.008 456.825 396.034 456.76C396.891 454.549 397.368 452.209 397.444 449.84C395.039 450.612 392.564 451.145 390.054 451.43L389.972 451.439C389.482 451.496 389.017 451.55 388.534 451.55C388.604 453.317 388.941 455.064 389.534 456.73C390.014 457.92 391.064 459.72 392.534 459.92C394.653 460.197 395.387 458.369 395.954 456.959ZM407.514 426.46C404.164 434.95 397.714 439.68 388.644 440.73C380.484 441.691 372.293 439.205 366.044 433.87C362.204 430.52 359.984 426.42 357.864 422.14L361.514 421.89C378.007 420.686 394.427 418.62 410.704 415.7C409.826 419.339 408.761 422.93 407.514 426.46ZM413.004 445.48C416.564 448.35 419.814 445.28 419.634 441.28C419.379 438.412 418.314 435.676 416.564 433.39C415.914 434.72 415.224 435.95 414.564 437.01C413.362 438.938 411.932 440.714 410.304 442.3C411.028 443.497 411.94 444.571 413.004 445.48ZM383.794 145.84C393.701 144.466 403.693 143.798 413.694 143.84C430.057 144.201 446.271 147.04 461.784 152.26C477.024 157.37 486.734 166.46 493.664 180.73C494.664 185.73 493.764 190.73 489.484 194.5C487.819 195.981 485.865 196.565 483.962 197.133C482.138 197.678 480.363 198.208 478.934 199.5C474.773 203.284 475.339 211.379 475.781 217.71C475.913 219.61 476.035 221.352 476.014 222.77C475.854 234.2 468.464 243.26 457.274 245.88C445.434 248.66 432.434 243.53 423.644 235.62C414.854 227.71 411.644 217.06 411.134 205.49C411.055 203.577 411.11 201.56 411.166 199.503V199.503V199.502V199.502V199.502V199.502V199.501V199.501V199.501V199.501V199.5V199.5V199.5V199.499V199.499V199.499C411.316 194.03 411.474 188.285 409.134 183.49C405.939 176.838 400.703 176.852 394.407 176.869C393.945 176.87 393.477 176.871 393.004 176.87C375.774 176.84 380.024 156.92 383.794 145.84ZM378.014 174.01C372.414 165.07 374.864 154.81 379.794 146.33H379.764L378.403 146.5C374.445 146.994 370.483 147.489 366.544 147.92C366.244 147.952 365.941 147.921 365.654 147.83C354.272 157.607 339.519 162.549 324.544 161.6C315.114 161.07 301.214 158.59 294.434 151.2C294.804 164.65 292.774 178.1 287.934 189.97C295.147 194.696 301.404 200.742 306.374 207.79C314.534 219.31 322.654 232.55 326.534 246.22C330.964 261.8 331.304 279.1 330.304 295.16C329.304 311.541 326.195 327.724 321.054 343.31C316.834 355.96 311.354 369.08 300.424 377.38C287.994 386.82 270.674 388.29 255.574 388.66C239.322 389.022 223.117 386.78 207.574 382.02L207.054 381.85C208.931 391.426 209.5 401.485 210.064 411.439C210.413 417.607 210.76 423.734 211.414 429.68C213.424 447.93 215.914 466.13 219.024 484.22C219.131 484.839 219.238 485.459 219.345 486.079L219.346 486.081L219.346 486.082L219.346 486.083L219.346 486.084L219.347 486.09C220.017 489.971 220.689 493.86 221.464 497.72C222.834 504.52 223.564 500.46 224.214 495.98C225.116 489.792 225.83 483.595 226.547 477.375L226.547 477.374L226.547 477.374L226.547 477.374L226.547 477.373L226.547 477.373L226.547 477.373L226.547 477.372L226.547 477.372L226.547 477.372L226.547 477.371L226.547 477.371L226.547 477.37L226.547 477.37L226.547 477.37C226.864 474.625 227.18 471.875 227.514 469.12C228.083 464.442 228.6 459.738 229.118 455.026C230.514 442.334 231.916 429.583 234.344 417.12C235.214 412.65 242.904 412.44 243.584 417.12C245.107 427.504 246.846 437.887 248.584 448.271L248.585 448.273C249.357 452.889 250.13 457.504 250.884 462.12C252.017 469.113 253.161 476.113 254.314 483.12C254.543 484.521 254.694 486.203 254.857 488.005C255.32 493.137 255.87 499.237 258.534 502.56C266.462 512.404 269.311 488.862 269.848 484.425L269.849 484.419C269.866 484.275 269.881 484.151 269.894 484.05C270.774 476.956 271.514 469.856 272.114 462.75C272.797 454.569 273.118 446.373 273.44 438.179C273.712 431.249 273.984 424.319 274.474 417.4C274.152 416.388 274.286 415.285 274.841 414.379C275.395 413.474 276.316 412.853 277.364 412.68C278.346 412.264 279.434 412.166 280.474 412.4C293.073 411.369 305.729 411.215 318.394 411.061H318.395H318.395H318.395H318.396H318.396H318.397H318.397H318.398H318.398H318.399H318.399H318.4H318.4H318.401H318.401H318.401H318.402H318.402H318.402H318.403H318.403H318.403H318.404H318.404H318.405H318.405H318.405H318.406C332.285 410.892 346.176 410.723 360.014 409.4C387.803 406.674 415.373 402.056 442.534 395.58C447.774 394.37 451.254 398.72 450.534 403.58C448.755 415.637 447.733 427.794 447.474 439.98C447.474 442.47 448.474 472.29 448.474 472.29C450.77 471.776 453.005 462.391 454.123 457.691L454.123 457.691L454.124 457.69C454.354 456.721 454.538 455.951 454.664 455.5C456.076 450.398 457.211 445.224 458.064 440C458.767 435.656 458.944 431.095 459.122 426.523V426.522C459.271 422.706 459.419 418.882 459.874 415.17C459.372 410.81 459.526 406.115 459.656 402.165C459.686 401.241 459.715 400.358 459.734 399.53C459.874 393.22 463.534 387.35 470.534 390.22C471.738 390.602 472.574 391.698 472.624 392.96V393.42C473.088 394.16 473.385 394.993 473.494 395.86C475.651 412.765 477.061 429.758 478.469 446.738L478.47 446.744L478.47 446.751L478.471 446.757C478.708 449.608 478.944 452.46 479.184 455.31C479.212 455.642 479.232 456.27 479.258 457.084C479.383 460.942 479.642 468.971 481.484 469.45C482.734 469.751 483.842 462.226 484.169 460.012L484.169 460.007C484.211 459.726 484.239 459.531 484.254 459.45C485.924 450.38 487.484 441.28 488.924 432.16C494.384 397.44 499.664 362.6 503.384 327.6C506.864 294.78 509.214 261.18 505.934 228.25C504.832 215.761 502.223 203.452 498.164 191.59C497.076 194.176 495.446 196.498 493.384 198.4C491.736 199.901 489.867 200.804 488.095 201.659C484.792 203.254 481.831 204.684 481.284 209.52C480.98 212.387 481.141 215.267 481.301 218.148C481.468 221.134 481.635 224.122 481.284 227.1C478.544 250.25 451.944 256.33 433.424 248.33C423.174 243.89 414.124 236.05 409.584 225.7C407.441 220.505 406.158 214.997 405.784 209.39C405.539 206.606 405.622 203.752 405.705 200.895V200.894C405.819 196.978 405.932 193.053 405.204 189.29C403.892 182.484 399.281 182.451 394.33 182.416C392.188 182.4 389.983 182.384 387.954 181.82C383.794 180.526 380.255 177.746 378.014 174.01ZM355.634 141.7C347.251 147.652 337.216 150.834 326.934 150.8C321.651 150.808 316.398 149.995 311.364 148.39C309.227 147.704 307.213 146.733 305.204 145.764L305.204 145.764C303.932 145.151 302.662 144.538 301.364 144C300.914 143.75 300.494 143.49 300.094 143.22C298.278 141.907 296.57 140.453 294.984 138.87C294.732 138.623 294.4 138.326 294.032 137.998C293.728 137.726 293.4 137.433 293.074 137.13C292.704 134.65 292.224 132.19 291.704 129.76C301.204 137.76 318.234 132.04 327.124 125.76C331.736 122.484 335.739 118.575 339.745 114.664L339.745 114.663C342.454 112.019 345.164 109.372 348.064 106.92C357.364 99.0498 371.144 95.9198 376.814 106.38C375.654 120.07 364.844 135.07 355.634 141.7ZM344.314 96.1898C338.022 102.03 330.742 106.706 322.814 110V109.99C314.624 113.28 298.644 117.16 287.254 114.22C288.627 117.886 289.799 121.625 290.764 125.42C302.654 129.75 312.584 129.8 323.654 122.25C328.39 119.022 332.44 114.994 336.488 110.967C340.542 106.934 344.595 102.902 349.334 99.6798C356.224 94.9998 365.534 92.1398 373.534 95.8398C374.415 96.2551 375.261 96.7399 376.064 97.2898C375.203 94.3824 373.688 91.7108 371.634 89.4798C362.674 79.7508 352.587 88.7833 345.192 95.4044C344.895 95.6705 344.602 95.9328 344.314 96.1898ZM277.264 32.8698C276.674 32.5698 276.094 32.2998 275.544 32.0598C272.487 30.6912 269.192 29.9369 265.844 29.8398C266.287 24.1153 266.018 18.3581 265.044 12.6998C271.004 15.9398 274.874 24.3698 277.264 32.8698ZM265.554 32.8198C265.012 38.1107 264.009 43.344 262.554 48.4598C262.384 49.0798 262.174 49.6998 261.964 50.3098C268.484 51.6898 275.644 54.7798 280.544 59.3098C280.685 56.4771 280.651 53.6384 280.444 50.8098C280.123 46.872 279.559 42.9578 278.754 39.0898C277.43 37.8464 275.974 36.75 274.414 35.8198C271.647 34.3356 268.653 33.3217 265.554 32.8198ZM260.934 53.6298C264.479 54.8502 267.882 56.4495 271.084 58.3998C273.275 59.7744 275.18 61.5282 277.071 63.2689C278.027 64.1495 278.98 65.0267 279.964 65.8498C279.483 69.2648 278.781 72.6452 277.864 75.9698C275.365 72.5839 272.183 69.7598 268.524 67.6798C265.063 65.4552 261.342 63.6651 257.444 62.3498C258.775 59.5132 259.941 56.6016 260.934 53.6298ZM267.054 72.1898C263.442 69.7327 259.568 67.6836 255.504 66.0798H255.494C253.836 69.139 251.755 71.9499 249.314 74.4298C253.034 76.6198 256.724 78.9198 260.314 81.2998C264.704 84.1752 268.806 87.4671 272.564 91.1298C273.804 88.1298 274.964 85.1298 275.964 82.1298C275.672 81.718 275.385 81.3084 275.1 80.9017L275.097 80.8983L275.096 80.8965C272.829 77.6608 270.695 74.6138 267.054 72.1898ZM116.884 74.0798C108.566 78.1676 100.878 83.4279 94.054 89.6998C93.2152 86.5739 92.6201 83.3877 92.274 80.1698C94.774 75.349 99.356 72.0127 103.949 68.6682C106.026 67.1564 108.104 65.6429 109.994 63.9898C111.782 67.6591 114.1 71.0453 116.874 74.0398L116.884 74.0798ZM103.486 17.3722L103.486 17.3711L103.486 17.3679C103.626 16.5222 103.787 15.543 103.934 14.5898C101.264 18.2798 99.034 25.3698 97.304 32.4998C99.0171 31.4396 100.859 30.6028 102.784 30.0098C102.744 26.5498 102.854 23.0998 103.134 19.6498C103.157 19.3658 103.302 18.4851 103.486 17.3722ZM100.826 34.4316L100.826 34.4315C101.517 34.2056 102.209 33.9795 102.904 33.7598C103.034 36.4998 103.244 39.2398 103.594 41.9598C100.754 43.4926 97.986 46.3142 95.7463 48.5971C95.2098 49.1439 94.7036 49.6599 94.234 50.1198L93.854 50.4898C94.384 47.2698 95.304 41.6998 96.594 35.7598H96.564C97.9956 35.3565 99.409 34.8946 100.826 34.4316ZM98.734 51.0498C96.7326 52.6722 94.8262 54.4084 93.024 56.2498H93.054C92.1778 62.2151 91.7799 68.241 91.8641 74.2698C93.0471 72.743 94.3878 71.3453 95.8641 70.0998C96.8255 69.2717 97.8008 68.4025 98.7925 67.5188C101.741 64.8911 104.834 62.1349 108.134 59.9498C106.974 57.0467 106.018 54.0661 105.274 51.0298C104.924 49.6198 104.624 48.1898 104.354 46.7598C103.465 47.4916 102.516 48.1828 101.591 48.8559L101.591 48.8559C100.57 49.5992 99.5789 50.3203 98.734 51.0498ZM76.244 161.3C76.8341 149.44 78.8241 137.73 83.1641 126.64C91.994 104.11 109.724 88.3098 132.284 80.1398C153.754 72.3698 179.594 68.3298 202.344 70.9898C215.424 72.5198 227.484 77.8198 238.824 84.2798L239.586 84.7138L239.586 84.714C249.093 90.1289 259.292 95.9385 266.294 104.48C275.144 115.29 278.534 131.28 279.594 144.9C280.654 158.52 278.314 170.51 275.514 183.33C259.224 176.25 240.514 173.69 222.614 172.51C188.944 170.3 154.844 174.86 121.554 179.61C104.814 182 89.5541 186.61 76.1541 194.7C76.9814 188.44 76.7008 181.879 76.4219 175.357V175.357V175.357V175.357C76.2187 170.606 76.0165 165.877 76.244 161.3ZM64.634 171.52C64.3901 164.311 64.7245 157.095 65.634 149.94C66.0207 146.746 66.5374 143.58 67.1841 140.44C66.1203 140.692 65.0257 140.79 63.934 140.73C57.364 140.47 51.034 136.27 46.934 131.42C45.1563 129.335 43.5758 126.805 41.9636 124.225C38.3796 118.488 34.6386 112.5 28.224 110.59C17.924 107.51 13.064 115.68 10.134 124.16C10.4463 135.93 14.8687 147.219 22.634 156.07C33.1441 167.95 49.104 175.59 64.634 171.52ZM68.1541 135.85C67.9643 135.982 67.8265 136.177 67.764 136.4C66.764 139.9 52.524 130.4 51.194 128.93C49.0591 126.648 47.4075 123.973 45.7603 121.304C44.8229 119.786 43.8869 118.27 42.8641 116.83C39.044 111.47 33.994 106.16 27.1241 105.26C21.2095 104.472 15.298 106.73 11.414 111.26C11.644 110.2 11.914 109.16 12.214 108.12C13.4341 103.827 15.2233 99.7174 17.534 95.8998C17.7348 95.569 17.9481 95.1856 18.174 94.7794C18.9386 93.4049 19.8489 91.7685 20.914 91.0198C25.0873 88.0131 27.9381 90.9437 30.4392 93.5148L30.44 93.5156C30.5757 93.655 30.7103 93.7934 30.844 93.9298C32.5021 95.621 34.0848 97.3568 35.6613 99.0859L35.6615 99.086C39.3144 103.092 42.9345 107.063 47.384 110.36C55.1241 116.09 64.9341 119.7 73.9341 118.3C71.4954 123.969 69.5612 129.841 68.1541 135.85ZM202.374 185.63C172.704 185.76 141.834 187.99 112.644 193.38C85.294 198.44 63.934 213.45 51.004 238.21C37.164 264.76 34.804 297.98 40.004 327.13C42.324 340.09 46.214 353.48 53.404 364.63C61.504 377.18 73.914 382.79 88.6841 381.79C99.374 381.07 109.664 377.54 119.914 374C129.644 368.39 139.744 363.28 150.594 360.69C165.974 357 180.594 358.98 195.524 363.59C211.674 368.58 227.304 373.26 244.304 374.04C258.764 374.73 279.014 375.13 291.224 366.04C302.085 357.951 306.291 342.408 309.66 329.957L309.724 329.72C313.571 315.626 315.716 301.123 316.114 286.52C316.474 271.72 316.014 255.58 309.884 241.86C304.524 229.91 297.064 216.57 287.884 207.18C277.434 196.5 262.084 192.57 247.884 189.63C232.934 186.56 217.624 185.56 202.374 185.63Z" fill="#231F20"/>
<path fill-rule="evenodd" clip-rule="evenodd" d="M245.804 127.65C252.724 133.56 251.184 144.96 243.724 149.7C236.394 154.31 225.714 150.1 223.414 141.7C222.32 137.552 223.396 133.132 226.274 129.95C227.231 128.974 228.33 128.148 229.534 127.5C230.655 126.361 232.024 125.495 233.534 124.97C237.81 123.637 242.473 124.655 245.804 127.65ZM234.802 135.699C234.428 135.648 234.073 135.6 233.724 135.6L233.684 135.57C233.285 136.384 233.249 137.328 233.584 138.17C234.064 139.5 236.054 140.44 237.144 139.91C238.252 139.2 238.616 137.749 237.974 136.6C237.434 136.043 236.235 135.888 235.386 135.777C235.26 135.761 235.141 135.746 235.034 135.73C234.956 135.72 234.878 135.709 234.802 135.699Z" fill="#231F20"/>
<path fill-rule="evenodd" clip-rule="evenodd" d="M131.096 143.496C129.747 147.081 126.885 149.889 123.274 151.169C119.55 152.344 115.496 151.782 112.232 149.64C108.968 147.498 106.839 144.003 106.434 140.119C106.334 137.783 106.971 135.474 108.254 133.519C107.426 131.906 107.76 129.939 109.074 128.689C115.054 122.569 126.274 125.569 130.274 132.569C132.145 135.913 132.445 139.91 131.096 143.496ZM120.034 137.279C119.482 136.679 118.741 136.287 117.934 136.169V136.189C117.423 136.863 117.165 137.695 117.204 138.539C117.314 139.719 118.354 140.839 119.564 140.359C121.034 139.789 120.884 138.279 120.034 137.279Z" fill="#231F20"/>
<path d="M147.233 335.7C152.557 341.13 159.924 344.064 167.523 343.78C181.843 343.33 200.523 329.22 197.283 313.37C196.533 309.74 191.993 310.03 190.173 312.44C186.633 317.15 185.283 322.76 180.893 326.96C176.333 331.32 170.023 334.05 163.663 333.2C151.423 331.56 150.223 319 143.043 311.3C141.103 309.22 136.893 311.38 138.043 314.23C140.933 321.58 141.563 329.7 147.233 335.7Z" fill="#231F20"/>
<path d="M98.6747 261.02C101.765 255.79 100.035 248.26 94.3847 245.55C91.2421 244.072 87.5913 244.139 84.5047 245.73C82.186 246.855 80.5781 249.059 80.2147 251.61C78.34 255.496 79.1129 260.141 82.1447 263.21C86.8147 267.79 95.3747 266.61 98.6747 261.02Z" fill="#231F20"/>
<path d="M280.934 257.24C283.847 253.998 284.355 249.255 282.194 245.47C281.214 243.895 279.801 242.635 278.124 241.84C277.456 240.959 276.446 240.403 275.344 240.31C273.961 239.995 272.541 239.874 271.124 239.95C269.114 240.202 267.222 241.04 265.684 242.36C262.809 244.926 261.556 248.852 262.414 252.61C264.194 261.19 275.284 263.76 280.934 257.24Z" fill="#231F20"/>
<path fill-rule="evenodd" clip-rule="evenodd" d="M355.801 258.088C353.645 257.46 351.62 256.871 349.784 254.91C343.054 247.7 346.054 231.8 354.394 227.56C357.429 225.374 362.218 224.757 366.174 224.248C366.923 224.152 367.642 224.059 368.314 223.96C377.064 222.695 382.695 229.747 387.654 235.957C387.711 236.028 387.767 236.099 387.824 236.17C396.574 247.11 403.234 268.7 386.064 276.03C379.994 278.61 369.214 278.37 365.214 272.2C364.018 270.334 363.764 268.341 363.524 266.448C363.161 263.594 362.827 260.965 359.334 259.33C358.125 258.765 356.944 258.422 355.801 258.088ZM386.474 243.34C383.834 239.34 379.024 232.47 374.564 230.11C371.364 228.41 356.064 230.04 354.434 234.04C354.185 234.659 353.6 235.076 352.934 235.11C351.004 238.64 350.405 242.746 351.244 246.68C352.304 251.742 355.639 252.741 359.287 253.833C360.526 254.204 361.8 254.585 363.034 255.14C365.236 255.966 367.046 257.591 368.104 259.69C368.6 260.714 368.634 261.72 368.669 262.723C368.697 263.541 368.725 264.358 369.004 265.18C370.744 270.39 375.004 272.53 380.004 271.89C395.194 269.98 392.644 252.63 386.474 243.34Z" fill="#231F20"/>
<path fill-rule="evenodd" clip-rule="evenodd" d="M331.274 334.01C334.334 319.33 345.574 304.42 358.104 300.51C368.167 297.372 378.815 301.75 388.228 305.619C389.104 305.979 389.97 306.335 390.824 306.68C391.695 307.031 392.584 307.383 393.484 307.739C401.681 310.979 410.826 314.595 415.944 321.92C425.664 335.86 415.424 360.4 398.424 362.92C390.554 364.09 384.034 360.14 380.754 353.14C380.615 352.84 380.48 352.537 380.344 352.233C378.907 349.018 377.45 345.757 372.754 346.47C370.322 346.842 367.799 349.066 365.733 350.888C365.242 351.322 364.776 351.733 364.344 352.09C364.046 352.336 363.749 352.583 363.451 352.83C360.596 355.204 357.698 357.613 354.194 358.98C350.419 360.585 346.19 360.763 342.294 359.48C337.254 358.32 332.414 354.44 331.624 349.77C331.203 348.415 330.898 347.027 330.714 345.62C329.81 341.774 330.004 337.751 331.274 334.01ZM399.364 356.73C404.024 355.35 407.814 351.33 410.194 347.26C416.814 335.94 413.934 324.38 402.344 318.05C392.755 312.722 382.54 308.611 371.934 305.81C359.024 302.68 350.154 309.6 343.214 319.81C339.774 324.87 336.614 330.53 335.034 336.45C334.114 341.51 334.774 346.61 338.774 350.61C344.054 355.77 350.814 355.07 356.354 351.07C357.822 350.021 359.265 348.788 360.732 347.535C364.65 344.188 368.732 340.7 373.884 340.22C379.914 339.66 382.854 343.45 385.134 348.45C387.854 354.42 392.004 358.9 399.364 356.73Z" fill="#231F20"/>
<path fill-rule="evenodd" clip-rule="evenodd" d="M462.554 321.42C459.675 323.648 455.983 324.543 452.404 323.88C438.984 321.24 432.054 302.7 437.894 291.39C439.934 283.85 446.694 280.67 454.074 278.54C458.513 277.253 461.368 274.179 464.189 271.141C467.793 267.26 471.343 263.436 478.074 263.47C498.014 263.57 505.324 289.91 499.014 305.57C495.554 314.14 488.454 315.49 480.094 314.65C479.703 314.61 479.325 314.57 478.956 314.53C474.847 314.09 472.014 313.787 467.884 316.65C466.924 317.314 466.102 318.151 465.277 318.991C464.425 319.858 463.57 320.729 462.554 321.42ZM447.904 286.21C445.645 287.733 443.719 289.699 442.244 291.99C439.294 297.97 440.364 305.38 444.564 311.45C448.414 316.99 454.824 320.78 460.824 315.69C461.493 315.131 462.123 314.519 462.754 313.907C463.839 312.853 464.928 311.797 466.224 311C470.634 308.28 475.094 308.61 480.094 309.11C480.51 309.152 480.928 309.199 481.346 309.246C485.08 309.668 488.822 310.09 491.844 307.05C494.624 304.26 495.184 299.48 495.414 295.8C495.884 288.39 494.614 279.68 489.364 274.02C482.174 266.28 473.054 268.31 467.054 275.85C464.264 279.33 462.044 282.06 457.594 283.33C456.436 283.66 455.343 283.859 454.281 284.053C452.124 284.446 450.095 284.816 447.904 286.21Z" fill="#231F20"/>
<path d="M303.825 284.49C303.965 295.24 299.665 306.35 301.565 316.98C301.835 318.49 303.995 318.25 304.395 316.98C310.985 296.13 311.925 267.24 297.995 249.13C297.315 248.24 295.605 248.69 295.995 249.96C299.705 261.39 303.675 272.3 303.825 284.49Z" fill="#231F20"/>
<path d="M300.454 325.319C299.251 327.121 298.286 329.07 297.584 331.119C296.644 333.043 296.161 335.158 296.174 337.299C296.234 338.079 297.174 338.899 297.944 338.299C301.354 335.719 302.944 329.999 302.534 325.869C302.508 325.379 302.169 324.962 301.695 324.836C301.22 324.711 300.719 324.906 300.454 325.319Z" fill="#231F20"/>
<path d="M48.3234 268.83C48.3022 268.3 47.9023 267.862 47.3763 267.793C46.8503 267.723 46.3508 268.043 46.1934 268.55C41.6634 279.42 42.6334 294.09 48.6334 304.24C49.2334 305.24 51.2034 304.92 51.0334 303.59C50.2934 297.84 48.8934 292.17 48.4234 286.39C47.9534 280.61 48.4634 274.7 48.3234 268.83Z" fill="#231F20"/>
<path d="M52.5138 320.61C53.9938 322.06 56.0338 319.91 54.7538 318.37C54.0227 317.578 53.5184 316.604 53.2938 315.55C53.1638 314.43 51.4638 313.97 51.1738 315.26C50.6142 317.154 51.1273 319.203 52.5138 320.61Z" fill="#231F20"/>
</svg>
