<svg width="576" height="500" viewBox="0 0 576 500" fill="none" xmlns="http://www.w3.org/2000/svg">
<path fill-rule="evenodd" clip-rule="evenodd" d="M82.6332 391.027C87.4428 391.955 92.3227 392.897 96.8062 394.446C104.436 397.096 105.006 402.786 104.726 410.216C104.247 422.866 99.7724 435.043 95.4228 446.88C94.8725 448.377 94.3242 449.869 93.7862 451.356C91.5762 457.456 89.3862 463.566 87.6562 469.826C87.3708 470.854 87.1188 471.882 86.8705 472.895C85.405 478.875 84.0703 484.321 76.7762 485.826C66.372 487.963 53.8486 482.801 42.9872 478.323C39.8702 477.038 36.8901 475.81 34.1362 474.826C32.8696 474.375 31.3925 473.942 29.8202 473.481C23.4478 471.614 15.509 469.288 13.6562 463.416C12.2039 458.797 13.9146 452.201 15.3305 446.743C15.7474 445.136 16.1387 443.627 16.4162 442.296C17.16 438.717 17.8773 435.123 18.5954 431.525C20.8028 420.464 23.0181 409.364 26.0362 398.536C26.2897 397.632 26.5577 396.503 26.8558 395.247C28.2164 389.515 30.205 381.137 34.3062 379.406C35.5028 378.897 38.2783 379.896 40.365 380.647C41.2256 380.957 41.969 381.224 42.4362 381.326L43.8562 381.606C51.3299 384.25 59.3108 385.989 67.0739 387.68C69.8227 388.278 72.5442 388.871 75.2062 389.496C77.618 390.06 80.116 390.542 82.6332 391.027ZM57.3962 460.466C64.8062 451.786 72.0362 442.886 79.1462 433.956C84.3562 427.426 87.7262 421.536 86.5262 413.046C85.9762 409.316 81.2762 408.456 78.5262 409.806C70.2774 413.841 63.2683 420.025 58.2362 427.706C58.1953 427.35 58.1545 426.994 58.1138 426.638C57.7167 423.168 57.3223 419.722 56.7962 416.366C55.7262 409.436 51.2662 398.756 42.2662 401.016C33.5228 403.202 35.3831 413.833 36.5506 420.505C36.6116 420.854 36.6707 421.191 36.7262 421.516C38.9662 434.906 42.0262 448.606 48.4962 460.626C49.3271 461.987 50.9597 462.632 52.4962 462.206C54.3313 462.673 56.2667 461.986 57.3962 460.466Z" fill="#A97C50"/>
<path d="M269.726 170.907C269.426 161.627 268.966 152.357 268.436 143.097C267.536 152.267 266.436 161.417 265.046 170.527C260.236 201.017 252.636 231.017 244.336 260.717C230.506 310.247 202.046 379.357 243.576 423.617C246.106 426.416 248.921 428.943 251.976 431.157C252.496 431.507 255.656 433.607 255.886 433.467C256.386 433.177 256.486 428.747 256.566 428.067C257.436 420.727 258.236 413.377 259.096 406.067C260.956 390.24 262.576 374.39 263.956 358.517C266.623 327.337 268.4 296.097 269.286 264.797C270.156 233.517 270.726 202.157 269.726 170.907Z" fill="#F2B879"/>
<path d="M371.445 44.4965C367.595 45.0965 368.725 45.4965 367.655 48.6865C367.219 50.3187 366.981 51.9974 366.945 53.6865L382.325 51.3665C387.435 50.5965 392.535 49.7965 397.645 49.0165C397.645 47.3565 397.775 45.7065 397.795 44.0165C394.635 43.3365 388.295 44.1465 386.085 44.1265C381.365 44.1865 376.135 43.7565 371.445 44.4965Z" fill="#F2B879"/>
<path d="M322.845 249.217C322.658 250.658 322.598 252.114 322.665 253.567C322.665 254.247 322.785 254.937 322.795 255.617C322.795 257.947 323.035 256.227 322.905 256.197C323.835 256.368 324.796 256.182 325.595 255.677C327.465 254.587 328.455 252.117 326.895 250.287C326.055 249.307 324.405 249.097 322.845 249.217Z" fill="white"/>
<path d="M505.385 232.986C506.632 233.403 507.996 233.276 509.145 232.636C511.455 231.496 513.055 228.156 510.805 226.076C509.485 224.856 507.085 225.156 504.805 225.426C504.589 226.454 504.452 227.497 504.395 228.546C504.325 230.316 503.725 232.136 505.385 232.986Z" fill="white"/>
<path fill-rule="evenodd" clip-rule="evenodd" d="M303.885 75.8065L331.185 71.8065L384.065 64.2065C402.374 61.562 420.689 58.9684 439.003 56.375L439.004 56.3748L439.004 56.3748L439.005 56.3747C454.14 54.2315 469.274 52.0883 484.405 49.9165C521.395 129.847 550.185 212.526 557.815 300.846C559.698 322.065 560.422 343.37 559.985 364.667C559.795 374.536 559.455 384.397 558.795 394.257C558.725 395.248 558.661 396.242 558.596 397.239L558.596 397.243L558.596 397.248C558.323 401.445 558.048 405.673 557.435 409.816C556.385 416.876 553.985 420.357 547.255 422.557C526.375 429.41 502.792 431.618 480.903 433.667C480.085 433.744 479.268 433.82 478.455 433.897C455.115 436.087 431.665 436.966 408.225 437.227C389.91 437.433 371.595 437.265 353.28 437.096C345.855 437.028 338.43 436.96 331.005 436.917C317.505 436.823 304.005 436.88 290.505 437.087C287.595 437.132 284.676 437.13 281.753 437.129H281.753H281.753H281.753H281.752H281.75C276.88 437.126 272 437.124 267.145 437.337C269.308 432.293 269.746 425.572 270.106 420.044C270.239 418.009 270.361 416.135 270.555 414.566C274.815 380.146 277.505 345.477 279.315 310.857C281.395 271.066 281.975 231.257 280.625 191.426C280.455 186.582 280.297 181.732 280.138 176.878L280.138 176.877L280.138 176.876L280.138 176.876L280.138 176.875C279.134 146.136 278.124 115.237 274.385 84.7265C275.375 81.9802 277.472 79.7749 280.165 78.6465C284.549 76.898 290.197 76.6478 295.624 76.4074H295.624C298.515 76.2794 301.344 76.1541 303.885 75.8065ZM311.585 311.297C312.156 310.671 312.589 309.931 312.855 309.126C313.169 307.846 312.994 306.495 312.365 305.337L312.255 305.097C311.535 303.457 309.555 302.707 307.915 302.607H307.725C305.062 302.617 302.902 304.764 302.875 307.427V307.626C302.975 309.267 303.725 311.237 305.365 311.966L305.605 312.077C306.574 312.576 307.67 312.778 308.755 312.656C309.827 312.543 310.826 312.063 311.585 311.297ZM328.725 269.287C323.615 270.787 317.525 270.067 313.625 266.177C309.725 262.287 309.405 256.477 310.015 251.287C310.575 246.557 312.475 240.507 317.155 238.207C317.762 237.918 318.404 237.706 319.065 237.577C326.015 233.517 335.575 236.257 339.685 244.297C344.725 254.087 339.265 266.207 328.725 269.287ZM530.815 288.706C532.129 287.373 532.872 285.579 532.885 283.706C532.799 279.848 529.674 276.749 525.815 276.697C523.944 276.718 522.153 277.46 520.815 278.767C518.769 280.77 518.15 283.817 519.251 286.46C520.352 289.102 522.952 290.808 525.815 290.767C527.684 290.748 529.475 290.011 530.815 288.706ZM503.935 213.426C505.377 212.777 506.926 212.397 508.505 212.307C513.704 212.049 518.697 214.368 521.855 218.507C528.455 227.176 524.925 239.766 515.395 244.557C505.005 249.777 491.325 244.326 491.505 231.626C491.585 225.216 496.055 212.486 503.935 213.426ZM412.155 265.307C411.925 262.557 408.255 261.167 406.725 263.827C398.535 278.077 407.015 306.057 426.915 303.167C445.825 300.407 451.185 271.327 439.775 258.657C438.175 256.867 435.095 258.286 435.095 260.597C435.115 261.945 435.218 263.552 435.331 265.314C435.939 274.815 436.836 288.835 426.655 291.307C414.613 294.23 412.793 272.819 412.159 265.36L412.155 265.307Z" fill="#F2B879"/>
<path fill-rule="evenodd" clip-rule="evenodd" d="M317.166 238.237C317.774 237.948 318.416 237.736 319.076 237.607C326.026 233.517 335.586 236.257 339.736 244.317C344.736 254.117 339.266 266.237 328.736 269.317C323.636 270.817 317.586 270.097 313.636 266.207C309.686 262.317 309.416 256.507 310.026 251.317C310.586 246.587 312.486 240.537 317.166 238.237ZM322.906 256.227C323.836 256.398 324.797 256.212 325.596 255.707V255.677C327.466 254.607 328.456 252.117 326.896 250.317C326.056 249.337 324.406 249.127 322.846 249.247C322.659 250.689 322.599 252.144 322.666 253.597C322.675 253.902 322.702 254.21 322.729 254.518C322.763 254.895 322.796 255.272 322.796 255.647C322.836 257.977 323.036 256.227 322.906 256.227Z" fill="#231F20"/>
<path fill-rule="evenodd" clip-rule="evenodd" d="M521.856 218.556C528.456 227.226 524.926 239.816 515.396 244.606C505.006 249.776 491.326 244.326 491.506 231.676C491.586 225.266 496.056 212.536 503.936 213.476C505.378 212.827 506.927 212.447 508.506 212.356C513.705 212.099 518.698 214.418 521.856 218.556ZM504.806 225.486C504.59 226.514 504.453 227.557 504.396 228.606L504.436 228.546C504.415 228.871 504.379 229.197 504.343 229.519C504.182 230.953 504.03 232.303 505.386 233.046C506.633 233.463 507.997 233.336 509.146 232.696C511.456 231.556 513.056 228.216 510.806 226.136C509.456 224.926 507.082 225.212 504.857 225.48L504.806 225.486Z" fill="#231F20"/>
<path d="M426.935 303.156C445.845 300.396 451.205 271.316 439.795 258.646C438.195 256.856 435.075 258.276 435.115 260.586C435.245 269.206 438.725 288.356 426.675 291.296C414.625 294.236 412.805 272.716 412.175 265.296C411.945 262.546 408.275 261.156 406.745 263.816C398.535 278.076 407.015 306.056 426.935 303.156Z" fill="#231F20"/>
<path d="M312.245 305.087C311.525 303.447 309.545 302.697 307.905 302.597H307.715C305.041 302.608 302.876 304.773 302.865 307.447V307.647C302.965 309.287 303.715 311.257 305.355 311.987L305.595 312.097C306.565 312.597 307.661 312.798 308.745 312.677C309.817 312.564 310.817 312.083 311.575 311.317C312.147 310.691 312.58 309.952 312.845 309.147C313.159 307.862 312.981 306.506 312.345 305.347L312.245 305.087Z" fill="#231F20"/>
<path d="M518.775 283.706C518.871 287.555 521.986 290.643 525.835 290.706C527.705 290.688 529.496 289.95 530.835 288.646C532.881 286.643 533.5 283.596 532.399 280.953C531.298 278.31 528.698 276.605 525.835 276.646C523.965 276.668 522.174 277.409 520.835 278.716C519.527 280.049 518.788 281.838 518.775 283.706Z" fill="#231F20"/>
<path fill-rule="evenodd" clip-rule="evenodd" d="M79.203 377.073L79.2008 377.072L79.1968 377.071L79.1905 377.07C77.3547 376.605 75.5051 376.138 73.6453 375.677C94.7654 357.067 104.175 324.906 110.225 298.827C116.38 272.233 120.622 245.148 124.857 218.106L124.857 218.106C126.815 205.602 128.772 193.108 130.915 180.676C137.555 142.227 145.995 103.146 166.915 69.6065C187.055 37.2565 218.505 15.8265 256.295 10.2365C277.905 7.0465 299.665 8.7165 321.295 11.0665C324.152 11.3781 327.299 11.6235 330.617 11.8824C349.554 13.3593 374.105 15.2741 382.545 32.4365H381.275C380.114 32.4589 378.774 32.4207 377.331 32.3796C370.404 32.1823 361.121 31.9179 357.975 37.9765C356.458 40.8965 356.374 45.0416 356.299 48.6931V48.6943C356.276 49.8569 356.253 50.9695 356.185 51.9765C356.172 52.1887 356.158 52.3968 356.145 52.6011C356.079 53.5906 356.02 54.491 355.995 55.3365L329.605 59.3365C324.896 60.0496 320.119 60.6766 315.317 61.3068L315.317 61.3069C305.844 62.5502 296.28 63.8054 286.975 65.7565C284.625 64.5265 281.715 64.9565 279.035 65.4465C278.538 65.5373 278.032 65.6232 277.52 65.71C274.595 66.2062 271.504 66.7307 269.035 68.3565C267.277 69.5387 265.948 71.2574 265.245 73.2565C264.89 73.806 264.693 74.4425 264.675 75.0965C264.565 75.5665 264.465 76.0365 264.385 76.5165L264.311 76.9806C263.848 79.8565 263.343 82.9945 263.845 85.9165C263.327 88.3166 262.931 90.7913 262.538 93.2439L262.538 93.2443L262.538 93.2449L262.537 93.2457C262.256 95.0026 261.977 96.7481 261.655 98.4465C259.215 111.411 257.881 124.557 256.55 137.683L256.549 137.683V137.683C256.173 141.394 255.797 145.103 255.395 148.807C251.605 183.646 244.275 217.447 235.025 251.206C233.048 258.426 230.826 265.903 228.549 273.56C213.719 323.447 196.61 380.999 230.195 425.257C234.685 431.177 241.615 439.547 249.495 443.036C249.53 444.757 250.715 446.241 252.385 446.656C261.319 448.589 270.449 448.85 279.583 449.112L279.585 449.112L279.587 449.112L279.589 449.112C282.129 449.185 284.669 449.258 287.205 449.367C300.705 449.933 314.202 450.376 327.695 450.697C352.315 451.297 376.955 451.696 401.585 451.586C450.305 451.326 501.455 449.906 548.805 437.197C557.025 434.987 564.805 431.316 568.905 423.387C572.313 416.742 572.838 408.327 573.324 400.512C573.46 398.329 573.593 396.194 573.785 394.156C575.988 370.373 576.503 346.463 575.325 322.607C573.255 277.207 565.575 231.967 553.775 188.107C540.195 137.607 521.415 87.4965 496.495 41.4365C495.743 37.3932 491.936 34.6624 487.865 35.2465C461.865 39.1865 435.842 43.1865 409.795 47.2465C410.565 43.3965 410.055 39.2465 407.845 36.4265C404.845 32.5765 398.755 31.8365 392.795 31.9165C386.545 14.9865 369.895 7.7865 352.905 5.1865C333.408 2.20824 313.727 0.594324 294.005 0.356502C255.845 -0.133498 218.395 6.6065 188.725 32.2365C160.055 57.0065 142.815 92.3965 132.725 128.307C122.943 163.053 117.48 199.167 112.061 234.988L112.061 234.988C110.766 243.549 109.474 252.092 108.125 260.596C107.878 262.161 107.632 263.727 107.385 265.295L107.378 265.339L107.374 265.362C104.339 284.668 101.278 304.134 95.6053 322.806C89.6053 342.566 79.9353 358.327 67.6053 374.227C61.5352 372.76 55.3848 371.648 49.1853 370.897C41.7053 366.627 31.3054 364.686 25.1854 370.246C16.7105 377.938 13.6655 393.284 11.2971 405.22C10.9156 407.143 10.5516 408.977 10.1854 410.677C9.24917 415.024 8.20881 419.402 7.16388 423.799C4.6036 434.573 2.01581 445.462 0.86535 456.306C-0.61465 470.246 6.05535 478.307 18.6854 483.047C21.9499 484.27 25.269 485.579 28.6276 486.904C40.7009 491.667 53.2849 496.631 65.6853 498.517C77.3454 500.286 90.5854 497.846 96.3354 486.376C98.1693 482.702 99.1495 478.541 100.119 474.424L100.119 474.423C100.678 472.053 101.233 469.696 101.945 467.457C103.53 462.46 105.329 457.546 107.129 452.628C108.078 450.036 109.027 447.443 109.945 444.836C114.625 431.526 118.855 416.837 117.215 402.617C115.405 387.267 105.085 383.156 91.4653 380.066C87.4753 379.164 83.3745 378.127 79.203 377.073ZM257.969 415.979L257.968 415.989L257.966 416.004C257.509 420.032 257.053 424.055 256.575 428.066C256.557 428.222 256.538 428.574 256.513 429.028C256.429 430.557 256.281 433.243 255.895 433.466C255.72 433.574 253.832 432.348 252.72 431.627C252.377 431.404 252.108 431.23 251.985 431.156C248.93 428.943 246.115 426.416 243.585 423.616C207.149 384.785 224.587 326.825 238.753 279.743C240.733 273.161 242.649 266.791 244.345 260.716C252.645 231.016 260.245 201.016 265.055 170.526C266.495 161.417 267.545 152.266 268.445 143.096C268.975 152.356 269.445 161.626 269.735 170.906C270.735 202.156 270.155 233.516 269.295 264.766C268.435 296.016 266.665 327.306 263.965 358.487C262.585 374.36 260.965 390.21 259.105 406.036V406.066C258.718 409.37 258.343 412.676 257.969 415.979ZM557.815 300.797C550.185 212.477 521.405 129.767 484.405 49.8665C465.724 52.5481 447.036 55.1859 428.349 57.8237L428.348 57.8238L428.348 57.8238C413.585 59.9076 398.823 61.9914 384.065 64.0965L331.185 71.7465L303.885 75.7465C301.284 76.1202 298.384 76.2482 295.424 76.3788C290.068 76.6152 284.513 76.8604 280.165 78.5865C277.473 79.7149 275.376 81.9202 274.385 84.6665C278.191 115.721 279.201 147.178 280.204 178.46V178.46C280.342 182.766 280.48 187.069 280.625 191.367C281.975 231.197 281.395 271.007 279.315 310.797C277.505 345.417 274.815 380.087 270.555 414.507C270.361 416.08 270.242 417.96 270.112 420.002V420.002C269.762 425.527 269.336 432.239 267.145 437.276C272.001 437.064 276.881 437.066 281.752 437.069H281.753H281.753C284.676 437.07 287.595 437.072 290.505 437.026C304.005 436.833 317.505 436.776 331.005 436.857C338.43 436.9 345.856 436.968 353.281 437.036H353.285C371.599 437.205 389.912 437.373 408.225 437.167C431.665 436.906 455.115 436.026 478.455 433.836C479.269 433.76 480.086 433.684 480.905 433.607C502.794 431.558 526.376 429.35 547.255 422.497C553.985 420.297 556.385 416.817 557.435 409.757C558.067 405.496 558.346 401.145 558.623 396.831C558.68 395.951 558.736 395.073 558.795 394.196C559.455 384.336 559.765 374.477 559.985 364.607C560.422 343.313 559.698 322.011 557.815 300.797ZM388.868 44.0625L388.869 44.0625C391.702 43.8721 395.551 43.6135 397.795 44.0965C397.795 44.9529 397.758 45.8067 397.721 46.6647C397.685 47.4697 397.65 48.2784 397.645 49.0965C395.573 49.4129 393.502 49.7325 391.431 50.0521L391.427 50.0528C388.394 50.521 385.361 50.989 382.325 51.4465L366.945 53.7665C366.981 52.0774 367.219 50.3987 367.655 48.7665C367.918 47.9792 368.048 47.3621 368.152 46.8702C368.471 45.3569 368.54 45.0293 371.445 44.5765C374.995 43.9559 378.853 44.0513 382.566 44.143C383.759 44.1725 384.937 44.2016 386.085 44.2065C386.726 44.2065 387.712 44.1402 388.868 44.0625ZM95.4219 446.77C99.7715 434.933 104.246 422.756 104.725 410.107C105.005 402.786 104.435 397.096 96.8054 394.387C92.3324 392.841 87.4563 391.9 82.6573 390.974C80.1285 390.486 77.6211 390.002 75.2054 389.436C72.5947 388.824 69.9267 388.242 67.2319 387.654C59.4189 385.949 51.38 384.196 43.8554 381.496L42.4353 381.216C41.9682 381.114 41.2248 380.847 40.3642 380.537C38.2775 379.786 35.5019 378.787 34.3054 379.297C30.2354 381.044 28.2258 389.438 26.8566 395.156C26.5572 396.407 26.2884 397.529 26.0354 398.426C22.9339 409.47 20.6853 420.798 18.4463 432.078C17.776 435.455 17.1066 438.827 16.4153 442.186C16.1376 443.518 15.7458 445.028 15.3285 446.635C13.9128 452.088 12.2034 458.673 13.6553 463.306C15.5082 469.178 23.4469 471.504 29.8193 473.372C31.3917 473.832 32.8687 474.265 34.1353 474.716C36.8792 475.699 39.8477 476.923 42.9524 478.204C53.8216 482.689 66.3603 487.863 76.7754 485.716C84.0434 484.259 85.3728 478.853 86.8442 472.868C87.0997 471.829 87.3595 470.773 87.6553 469.716C89.3853 463.457 91.5753 457.346 93.7854 451.246C94.3233 449.76 94.8716 448.267 95.4219 446.77Z" fill="#231F20"/>
<path d="M78.526 409.807C70.2588 413.834 63.2318 420.019 58.186 427.707C57.796 423.877 57.326 420.067 56.746 416.367C55.676 409.437 51.266 398.757 42.216 401.017C33.016 403.317 35.556 414.967 36.676 421.517C38.966 434.907 42.026 448.517 48.476 460.627C49.3069 461.988 50.9394 462.632 52.476 462.207C54.311 462.674 56.2464 461.986 57.376 460.467C64.786 451.787 72.016 442.887 79.126 433.957C84.336 427.427 87.656 421.537 86.476 413.047C85.976 409.317 81.276 408.457 78.526 409.807Z" fill="#231F20"/>
</svg>
