<svg width="579" height="372" viewBox="0 0 579 372" fill="none" xmlns="http://www.w3.org/2000/svg">
<path d="M492.983 247.755C482.433 257.545 469.073 261.405 455.073 262.995C424.683 266.435 392.393 263.535 363.783 252.325C354.528 258.819 343.855 263.008 332.653 264.545C320.243 266.368 307.587 265.533 295.523 262.095C292.133 271.525 290.593 281.625 288.523 291.405C286.603 300.525 285.413 310.545 282.523 319.525C310.523 317.912 338.523 316.085 366.523 314.045C401.663 311.465 436.777 308.545 471.863 305.285C503.783 302.285 537.073 301.205 567.983 291.915C564.983 273.655 556.693 255.465 544.653 241.915C534.873 230.915 522.743 223.475 509.413 218.675C508.073 229.545 500.383 240.875 492.983 247.755Z" fill="#662D91"/>
<path d="M371.072 246.435C370.312 247.145 369.542 247.825 368.762 248.495C394.492 253.595 420.342 256.725 446.672 254.735C460.332 253.735 474.542 251.665 485.262 242.385C489.651 238.561 493.283 233.948 495.972 228.785C498.172 224.575 499.042 220.235 500.212 215.845C495.491 214.601 490.703 213.626 485.872 212.925C456.812 208.715 426.732 211.545 397.872 207.685C390.412 221.465 382.622 235.635 371.072 246.435Z" fill="#009344"/>
<path d="M262.471 162.225C264.471 168.625 271.471 171.865 277.002 167.875C279.642 165.975 281.662 163.185 283.752 160.745C288.992 154.605 294.102 148.315 299.552 142.375L299.812 142.135C296.562 137.265 293.492 132.245 290.582 127.135C286.462 132.835 281.392 137.915 276.472 142.915C271.981 147.475 260.311 155.185 262.471 162.225Z" fill="#2E3192"/>
<path d="M313.763 205.015C320.033 206.955 323.763 200.755 326.593 196.715C329.973 191.845 331.733 186.225 334.593 181.205C328.931 176.632 323.61 171.652 318.673 166.305C317.283 176.195 308.543 184.305 306.383 193.955C305.293 198.855 309.003 203.545 313.763 205.015Z" fill="#2E3192"/>
<path d="M231.251 115.925C232.641 121.565 237.981 126.795 243.971 124.295C248.171 122.535 252.141 119.295 255.971 116.885C262.921 112.525 270.431 106.085 278.261 103.435C275.181 96.965 272.261 90.435 269.471 83.975C263.631 89.815 256.531 94.595 249.471 98.755C243.161 102.455 228.921 106.385 231.251 115.925Z" fill="#2E3192"/>
<path d="M218.012 55.915C215.362 56.705 211.882 57.225 210.702 60.365C210.012 62.185 210.492 65.625 210.932 67.445C214.262 81.495 228.662 71.255 236.571 67.845C244 64.7758 251.587 62.1053 259.301 59.845C257.448 55.3917 255.594 50.9417 253.741 46.495L252.501 43.495C245.286 46.725 237.903 49.5625 230.382 51.995C226.292 53.425 222.162 54.695 218.012 55.915Z" fill="#2E3192"/>
<path d="M568.951 300.835C552.131 306.045 534.631 308.215 517.111 309.945C496.701 311.945 476.251 313.675 455.801 315.345C382.542 321.295 309.192 326.205 235.802 329.665C199.095 331.398 162.369 332.765 125.622 333.765C107.252 334.275 88.8725 334.765 70.5026 334.955C62.4326 335.045 51.9326 334.645 44.9727 330.005C45.9727 337.845 47.5726 345.795 52.1526 351.855C59.7826 361.965 75.1526 360.855 86.4525 361.625C199.542 368.975 312.602 358.335 424.621 343.255C452.621 339.495 480.571 335.425 508.501 331.255C522.361 329.185 536.241 327.195 550.081 325.025C555.811 324.125 562.471 323.145 566.081 318.025C569.081 313.685 569.361 308.025 569.161 302.925C569.071 302.215 568.991 301.525 568.951 300.835Z" fill="#FFF200"/>
<path d="M59.8494 146.625C64.4593 132.765 61.0594 115.625 59.6094 101.455C57.9895 85.545 56.0195 69.655 55.2295 53.675C54.8595 46.305 54.7495 38.915 55.0595 31.545C55.2595 26.775 55.2795 21.205 56.4395 16.225C46.8597 17.245 37.2933 18.365 27.7402 19.585C23.9603 20.075 18.0904 20.025 13.8205 21.775C12.1806 25.195 12.0206 28.925 12.1406 33.035C12.3072 39.035 12.5239 45.0083 12.7905 50.955C13.2905 62.145 14.3605 73.405 14.1605 84.615C17.7404 112.502 21.307 140.398 24.8603 168.305C38.2099 163.985 54.9395 161.375 59.8494 146.625Z" fill="#2E3192"/>
<path d="M154.512 49.945C139.602 55.415 123.052 58.035 107.292 59.555C92.5614 60.985 77.3513 61.485 62.6211 59.455C62.7011 60.455 62.7611 61.515 62.8411 62.555C63.4711 70.695 64.3211 78.805 65.2011 86.925C72.7112 86.555 80.3013 87.035 87.8114 86.835C95.8715 86.615 103.912 86.0583 111.932 85.165C128.628 83.2734 145.128 79.9273 161.242 75.165C159.116 67.565 157.215 59.8983 155.542 52.165C155.372 51.355 155.192 50.525 155.012 49.705C154.855 49.8044 154.688 49.8849 154.512 49.945Z" fill="#009344"/>
<path fill-rule="evenodd" clip-rule="evenodd" d="M176.803 98.885C186.422 125.289 198.624 150.679 213.233 174.685C227.033 197.385 242.853 219.575 264.233 235.795C284.493 251.175 310.803 260.065 336.233 254.405C362.233 248.605 376.233 227.925 388.323 206.125C375.932 203.871 363.985 199.633 352.943 193.575C347.756 190.678 342.774 187.427 338.033 183.845C336.193 191.145 330.823 198.485 326.313 203.895C320.373 210.995 314.513 211.315 307.193 205.585C300.193 200.135 301.333 194.675 304.793 187.275C306.001 184.693 307.355 182.187 308.71 179.681L308.71 179.681L308.71 179.68L308.71 179.68L308.711 179.68L308.711 179.679L308.711 179.679L308.711 179.678L308.711 179.678L308.712 179.678L308.712 179.677L308.712 179.677L308.712 179.677L308.712 179.676C309.702 177.846 310.691 176.016 311.623 174.155C312.843 171.736 313.813 169.235 314.787 166.726L314.788 166.724C315.218 165.614 315.65 164.502 316.103 163.395C311.133 157.754 306.502 151.824 302.233 145.635C299.373 149.21 296.37 152.657 293.37 156.101C292.174 157.474 290.979 158.846 289.793 160.225C288.998 161.15 288.212 162.116 287.42 163.089C285.036 166.021 282.591 169.026 279.633 171.225C273.803 175.595 266.213 174.515 261.543 168.955C258.861 165.785 257.567 161.669 257.953 157.535C258.382 154.406 260.675 152.361 262.929 150.352C263.412 149.922 263.893 149.493 264.353 149.055C267.922 145.696 271.346 142.156 274.771 138.616L274.771 138.616C279.371 133.862 283.971 129.107 288.923 124.785C289.009 124.714 289.103 124.653 289.203 124.605C285.913 118.705 282.803 112.695 279.863 106.605C276.74 109.658 272.603 112.022 268.634 114.289C266.986 115.23 265.368 116.155 263.863 117.105C262.106 118.208 260.358 119.354 258.605 120.503L258.605 120.503L258.604 120.504C254.782 123.009 250.94 125.527 246.943 127.645C239.173 131.775 231.573 127.405 228.133 119.825C224.203 111.195 228.853 104.895 236.423 100.715C238.359 99.6375 240.313 98.613 242.264 97.5898L242.264 97.5898C245.746 95.7642 249.218 93.9433 252.563 91.835C255.973 89.6901 259.216 87.3275 262.457 84.9664C264.369 83.5738 266.279 82.1817 268.223 80.835C265.817 75.2083 263.437 69.565 261.083 63.905L260.923 63.975L260.81 64.0092C254.537 65.8978 248.256 67.7891 242.133 70.125C239.2 71.2427 236.396 72.6164 233.595 73.9891L233.595 73.9892C231.057 75.2324 228.522 76.4747 225.893 77.525C217.733 80.775 209.743 78.105 207.313 69.275C206.313 65.605 205.713 60.745 207.683 57.275C209.464 54.1383 212.797 53.2078 216.007 52.312C216.348 52.2168 216.687 52.122 217.023 52.025C225.186 49.6737 233.162 46.8741 241.144 44.0723C244.534 42.8822 247.926 41.6917 251.333 40.535C249.253 35.5417 247.17 30.5417 245.083 25.535C244.702 24.6242 244.331 23.6501 243.95 22.6483L243.95 22.6474L243.95 22.6467L243.949 22.6461L243.949 22.6456L243.949 22.6452C242.012 17.5543 239.803 11.748 234.523 9.88499C230.072 8.31848 224.651 8.45926 219.615 8.59006C217.964 8.63294 216.354 8.67474 214.833 8.65499C208.393 8.57499 201.957 8.54499 195.523 8.56499C181.523 8.56499 167.523 8.81833 153.523 9.32499C156.095 17.7419 157.741 26.5112 159.384 35.2655C160.578 41.6235 161.769 47.9736 163.313 54.175C167.025 69.3041 171.528 84.228 176.803 98.885ZM374.673 209.175C375.773 207.835 377.993 209.595 377.053 211.015C376.198 212.195 375.589 213.535 375.263 214.955C375.124 215.358 374.745 215.628 374.318 215.628C373.892 215.628 373.513 215.358 373.373 214.955C372.872 212.931 373.354 210.789 374.673 209.175ZM366.073 222.095C364.598 224.247 363.261 226.492 362.073 228.815C361.976 229.107 362.072 229.429 362.314 229.62C362.556 229.811 362.892 229.829 363.153 229.665C365.064 227.89 366.864 226 368.543 224.005C369.213 223.245 369.835 222.443 370.403 221.605C370.939 220.502 371.378 219.354 371.713 218.175C371.777 217.945 371.696 217.699 371.507 217.553C371.319 217.406 371.061 217.387 370.853 217.505C369.931 218.068 369.046 218.689 368.203 219.365C367.414 220.21 366.701 221.123 366.073 222.095ZM347.917 240.282L347.923 240.278C349.685 239.057 351.452 237.833 353.083 236.435C353.474 236.099 353.853 235.739 354.234 235.378L354.234 235.378C354.827 234.816 355.426 234.248 356.083 233.755C356.457 233.463 356.857 233.302 357.256 233.142C357.594 233.006 357.932 232.871 358.253 232.655C358.733 232.335 359.133 232.945 358.963 233.365C358.793 233.764 358.691 234.115 358.595 234.448C358.409 235.089 358.243 235.66 357.643 236.365C354.828 239.368 351.251 241.552 347.293 242.685C346.876 242.878 346.382 242.697 346.188 242.28C345.995 241.863 346.176 241.368 346.593 241.175H346.633C347.059 240.876 347.486 240.58 347.914 240.284L347.917 240.282ZM331.203 246.585C328.415 247.214 325.584 247.635 322.733 247.845H322.693C321.573 247.925 321.143 249.765 322.443 249.945C327.093 250.615 334.363 251.045 337.723 247.045C338.033 246.675 338.003 245.915 337.403 245.825C335.57 245.558 333.966 245.938 332.249 246.343C331.906 246.425 331.558 246.507 331.203 246.585ZM298.223 244.095C300.556 245.141 302.988 245.948 305.483 246.505C306.136 246.665 306.815 246.787 307.499 246.909L307.5 246.909C308.91 247.162 310.344 247.419 311.623 248.025C311.986 248.224 312.189 248.626 312.134 249.036C312.078 249.446 311.776 249.78 311.373 249.875C306.773 251.325 300.963 248.295 297.143 245.955C296.689 245.632 296.555 245.015 296.836 244.533C297.116 244.05 297.717 243.86 298.223 244.095ZM277.583 235.465C275.347 234.374 273.174 233.159 271.073 231.825C270.073 231.195 268.893 232.675 269.833 233.425C270.058 233.613 270.287 233.806 270.519 234.001C273.957 236.895 278.211 240.476 282.772 240.635C283.191 240.624 283.564 240.367 283.724 239.98C283.884 239.593 283.801 239.148 283.512 238.845C282.197 237.646 280.548 236.872 278.939 236.116L278.939 236.115L278.938 236.115L278.936 236.114L278.935 236.114L278.934 236.113C278.478 235.899 278.024 235.686 277.583 235.465ZM251.633 212.825C253.847 214.755 255.957 216.801 257.953 218.955C258.416 219.425 258.926 219.898 259.447 220.381C260.99 221.812 262.634 223.336 263.433 225.145C263.641 225.517 263.608 225.976 263.35 226.315C263.091 226.653 262.657 226.807 262.243 226.705C259.655 226.022 257.418 223.634 255.622 221.717L255.413 221.495C253.216 219.34 251.37 216.853 249.943 214.125C249.714 213.669 249.835 213.115 250.234 212.797C250.632 212.478 251.199 212.481 251.593 212.805L251.633 212.825ZM239.244 195.515C237.544 193.05 235.648 190.725 233.574 188.565L233.534 188.545C232.674 187.675 231.423 188.775 231.923 189.815C233.266 192.541 234.828 195.153 236.594 197.625C236.92 198.085 237.24 198.584 237.568 199.093C238.677 200.818 239.865 202.665 241.595 203.545C242.245 203.875 243.355 203.485 243.245 202.595C242.986 200.466 241.609 198.658 240.289 196.924C239.929 196.451 239.573 195.983 239.244 195.515ZM214.783 161.565C216.783 163.925 218.563 166.275 220.373 168.785C220.9 169.515 221.48 170.252 222.071 171.004C223.516 172.838 225.029 174.761 225.993 176.875C226.221 177.288 226.148 177.802 225.815 178.136C225.481 178.47 224.967 178.543 224.553 178.315C219.073 175.175 215.253 168.095 213.603 162.255C213.383 161.585 214.273 160.985 214.743 161.545L214.783 161.565ZM206.604 142.735C205.206 140.111 203.674 137.561 202.014 135.095C201.845 134.831 201.509 134.728 201.221 134.852C200.933 134.976 200.777 135.291 200.853 135.595C201.794 140.785 204.134 148.025 208.695 151.185C209.395 151.665 210.095 150.865 209.985 150.185C209.69 148.164 208.555 146.18 207.486 144.312C207.18 143.776 206.879 143.25 206.604 142.735ZM189.643 104.835C191.475 106.846 192.553 109.453 193.607 112.001L193.607 112.001L193.607 112.001L193.607 112.001C193.906 112.722 194.202 113.438 194.513 114.135C194.773 114.718 195.045 115.307 195.32 115.902L195.32 115.902C196.536 118.532 197.807 121.281 198.312 124.135C198.452 124.965 197.412 125.825 196.732 125.045C194.448 122.416 193.095 119.192 191.757 116.004L191.573 115.565C191.356 115.047 191.13 114.529 190.903 114.01L190.902 114.008L190.902 114.008L190.902 114.007C189.673 111.186 188.427 108.329 188.393 105.315C188.407 105.026 188.589 104.771 188.858 104.663C189.127 104.556 189.434 104.615 189.643 104.815V104.835ZM179.501 82.7929L179.5 82.7923L179.5 82.792C178.813 81.6321 178.126 80.4726 177.453 79.305V79.285C176.883 78.305 175.543 79.165 175.923 80.175C176.565 81.6272 177.181 83.0882 177.795 84.5477C178.493 86.2037 179.19 87.8578 179.923 89.495C180.103 89.8972 180.277 90.3051 180.45 90.7135C181.345 92.8231 182.245 94.9426 184.113 96.325C184.416 96.4822 184.778 96.4745 185.073 96.3044C185.369 96.1344 185.557 95.8255 185.573 95.485C185.59 93.2297 184.396 91.203 183.248 89.2561C182.997 88.8291 182.747 88.4059 182.513 87.985C181.54 86.235 180.52 84.5135 179.501 82.7929ZM169.613 53.505C169.679 53.2742 169.861 53.0951 170.093 53.0335C170.325 52.972 170.572 53.0371 170.743 53.205C172.03 54.8241 172.566 56.9182 173.089 58.9591C173.257 59.6158 173.424 60.267 173.613 60.895C173.861 61.7187 174.137 62.5355 174.413 63.3512L174.413 63.3513L174.413 63.3513C175.143 65.5065 175.869 67.6534 176.043 69.895C176.133 71.125 174.543 71.245 173.943 70.455C172.155 68.0636 171.372 64.986 170.643 62.1149L170.543 61.725C170.465 61.4194 170.381 61.1066 170.295 60.7882L170.295 60.7881C169.665 58.4386 168.953 55.7834 169.613 53.485V53.505ZM161.061 20.3729C160.778 20.4467 160.555 20.664 160.473 20.945V20.925C160.137 23.1355 160.79 25.2824 161.434 27.4014C161.557 27.8035 161.679 28.2046 161.793 28.605C162.497 31.4544 163.552 34.2054 164.933 36.795C165.2 37.229 165.719 37.4364 166.211 37.3048C166.703 37.1732 167.05 36.7339 167.063 36.225C166.748 33.3139 166.076 30.4525 165.063 27.705C164.947 27.3402 164.834 26.9699 164.72 26.5975C164.065 24.4487 163.388 22.2299 161.853 20.585C161.645 20.3796 161.344 20.299 161.061 20.3729Z" fill="#FFF200"/>
<path d="M106.213 55.275C122.363 53.545 137.633 49.565 153.373 45.805C153.634 45.7399 153.905 45.723 154.173 45.755C151.673 33.915 149.343 21.455 149.983 9.505C122.736 10.5183 95.5395 12.3517 68.3928 15.005L63.1428 15.535C63.4328 22.215 61.9928 29.455 61.8828 35.955C61.7728 42.795 62.0028 49.625 62.4228 56.435C77.0728 56.565 91.5828 56.855 106.213 55.275Z" fill="#FFF200"/>
<path fill-rule="evenodd" clip-rule="evenodd" d="M82.44 284.095C96.1665 271.942 109.646 259.518 122.88 246.825C149.279 221.372 174.492 194.765 198.519 167.005C198.621 166.874 198.742 166.759 198.879 166.665C186.225 143.853 175.688 119.93 167.399 95.195C165.666 90.015 164.033 84.805 162.499 79.565C146.335 84.3565 129.776 87.7029 113.02 89.565C97.8098 91.225 80.93 92.905 65.5701 90.405C66.4101 98.165 67.2401 105.925 67.8701 113.705C67.9431 114.601 68.0196 115.506 68.0968 116.419C69.2452 130.002 70.5356 145.264 62.5801 157.005C55.8898 166.878 43.0071 170.376 31.4404 173.516L31.4393 173.516L31.4379 173.517C29.4859 174.047 27.5714 174.566 25.7305 175.105C28.2038 194.578 30.6571 214.052 33.0904 233.525C36.557 261.425 40.027 289.328 43.5003 317.235C47.3246 313.683 51.4267 310.378 55.5021 307.094L55.5022 307.094L55.5024 307.094L55.5026 307.093L55.5028 307.093C57.5652 305.431 59.6208 303.775 61.6301 302.095C68.6301 296.155 75.5667 290.155 82.44 284.095ZM187.71 166.695C188.024 166.334 188.436 166.052 188.851 165.767C189.217 165.517 189.586 165.264 189.89 164.955C190.129 164.716 190.358 164.463 190.591 164.205L190.591 164.205C190.69 164.096 190.789 163.985 190.89 163.875C191.191 163.511 191.545 163.194 191.94 162.935C192.199 162.804 192.502 162.791 192.771 162.9C193.039 163.01 193.247 163.23 193.34 163.505C193.49 164.191 193.368 164.908 193 165.505C192.677 166.085 192.238 166.592 191.71 166.995C190.78 167.715 189.33 168.505 188.11 168.115C187.811 168.039 187.575 167.809 187.492 167.511C187.409 167.213 187.493 166.894 187.71 166.675V166.695ZM179.72 177.385C178.465 178.715 177.371 180.189 176.46 181.775V181.755C176.243 182.107 176.293 182.561 176.582 182.857C176.871 183.153 177.324 183.214 177.68 183.005C179.243 182.061 180.686 180.933 181.98 179.645C182.06 179.573 182.141 179.499 182.222 179.425C183.423 178.336 184.809 177.078 185.23 175.505C185.34 175.096 185.224 174.659 184.926 174.358C184.627 174.057 184.191 173.938 183.78 174.045C182.36 174.468 181.268 175.678 180.263 176.791L180.262 176.792C180.079 176.994 179.899 177.194 179.72 177.385ZM159.19 198.865C160.414 196.968 162.258 195.416 164.038 193.919L164.038 193.919C164.585 193.458 165.126 193.003 165.64 192.545C165.84 192.367 166.038 192.189 166.235 192.013L166.238 192.01L166.245 192.004C168.197 190.252 170.018 188.618 172.44 187.765C173.31 187.465 173.89 188.505 173.54 189.205C172.442 191.437 170.523 193.099 168.657 194.714C168.383 194.951 168.11 195.188 167.84 195.425C167.326 195.878 166.813 196.36 166.294 196.847L166.292 196.848L166.291 196.849L166.291 196.849L166.29 196.85L166.289 196.851C164.689 198.352 163.034 199.905 161.14 200.825C159.95 201.385 158.35 200.095 159.19 198.845V198.865ZM146.31 210.435C144.289 212.031 142.458 213.853 140.85 215.865V215.805C140.07 216.915 141.56 218.095 142.6 217.615C144.685 216.322 146.617 214.799 148.36 213.075C150.285 211.6 151.937 209.8 153.24 207.755C153.6 207.095 152.97 206.005 152.15 206.345C149.981 207.358 148.004 208.742 146.31 210.435ZM125.85 230.965C126.844 229.424 127.986 227.984 129.26 226.665C130.361 225.229 131.76 224.048 133.36 223.205C133.675 223.03 134.063 223.056 134.351 223.272C134.639 223.489 134.772 223.854 134.69 224.205C134.046 225.9 133.051 227.441 131.77 228.725C130.548 230.213 129.177 231.573 127.68 232.785C126.53 233.585 125.2 231.985 125.82 230.905L125.85 230.965ZM53.8805 300.515C54.8293 299.96 55.637 299.194 56.2405 298.275C56.4803 297.851 56.4755 297.332 56.2278 296.913C55.98 296.494 55.5272 296.239 55.0405 296.245C52.7941 296.329 50.6166 298.471 48.988 300.074C48.8621 300.198 48.7396 300.319 48.6205 300.435C46.9605 302.055 44.7605 304.275 44.7605 306.745C44.7605 307.265 45.3405 307.835 45.8805 307.605C47.4061 306.98 48.536 305.701 49.6342 304.457C50.0476 303.989 50.4566 303.526 50.8805 303.105C51.819 302.173 52.8214 301.307 53.8805 300.515ZM109.46 246.905C110.902 245.152 112.502 243.535 114.24 242.075C114.566 241.767 114.894 241.443 115.227 241.113L115.227 241.113C116.526 239.825 117.898 238.466 119.53 237.765C120.11 237.515 120.94 237.925 120.7 238.665C119.96 240.885 118.03 242.665 116.34 244.175C114.648 245.868 112.68 247.261 110.52 248.295C109.78 248.595 109 247.545 109.46 246.905ZM98.6492 255.433C97.2793 256.851 95.884 258.294 95.3605 260.235C95.2922 260.513 95.3689 260.807 95.5644 261.017C95.76 261.227 96.048 261.324 96.3305 261.275C98.212 260.686 99.5449 259.327 100.932 257.912C101.1 257.74 101.269 257.567 101.44 257.395C101.665 257.169 101.893 256.945 102.121 256.722C103.492 255.378 104.849 254.048 105.44 252.195C105.544 251.814 105.436 251.408 105.157 251.129C104.878 250.85 104.471 250.742 104.09 250.845C102.313 251.505 101.036 252.883 99.7764 254.242L99.7763 254.242C99.5481 254.489 99.3205 254.734 99.0905 254.975C98.9444 255.128 98.797 255.28 98.6492 255.433ZM78.3005 274.915C80.1373 272.64 82.1719 270.532 84.3805 268.615C84.7635 268.248 85.1478 267.859 85.5379 267.464C87.0827 265.899 88.7185 264.242 90.7305 263.515C91.7305 263.145 92.3305 264.365 91.9905 265.155C91.2189 267.038 89.4414 268.575 87.7923 270.001C87.3039 270.423 86.8268 270.836 86.3905 271.245C84.4483 273.244 82.3334 275.068 80.0705 276.695C79.0705 277.375 77.5205 275.985 78.3005 274.915ZM64.9854 286.814C63.6029 288.153 62.1326 289.577 61.4905 291.375C61.3743 291.733 61.4686 292.125 61.7345 292.391C62.0003 292.657 62.3929 292.751 62.7505 292.635C64.5692 292.014 66.0313 290.547 67.3993 289.174C67.6184 288.954 67.8351 288.736 68.0505 288.525C68.3255 288.255 68.6136 287.985 68.9053 287.712C70.2682 286.436 71.7104 285.086 72.2705 283.315C72.3732 282.942 72.2684 282.542 71.9957 282.268C71.7231 281.993 71.3244 281.885 70.9505 281.985C69.1678 282.521 67.787 283.957 66.4876 285.308C66.2126 285.594 65.9412 285.876 65.6705 286.145C65.4475 286.367 65.2177 286.589 64.9854 286.814Z" fill="#662D91"/>
<path fill-rule="evenodd" clip-rule="evenodd" d="M85.8267 327.604C79.2213 327.806 72.6143 328.008 66.0119 328.095C58.2319 328.205 48.4719 327.605 44.1719 320.685C55.1398 313.464 65.2911 304.415 75.2253 295.56L75.2254 295.56L75.2256 295.559C78.017 293.071 80.7914 290.598 83.5619 288.185C97.6552 275.898 111.442 263.285 124.922 250.345C151.489 224.845 176.852 198.208 201.012 170.435C202.285 172.702 203.589 174.955 204.922 177.195C225.172 211.385 253.782 248.275 291.782 260.915C291.774 260.935 291.76 260.953 291.748 260.969C291.729 260.993 291.712 261.015 291.712 261.045C288.821 268.246 287.406 276.222 286.025 284L286.025 284.001L286.025 284.001C285.577 286.528 285.132 289.033 284.642 291.485C284.061 294.353 283.38 297.255 282.695 300.174L282.695 300.175C281.176 306.65 279.636 313.216 279.112 319.715C237.899 322.055 196.672 323.972 155.432 325.465C135.532 326.185 115.629 326.802 95.7219 327.315C92.4269 327.402 89.1309 327.502 85.8345 327.603L85.8267 327.604ZM279.602 270.278C279.583 270.443 279.563 270.609 279.542 270.775C279.232 272.597 279.252 274.46 279.602 276.275C279.679 276.552 279.913 276.757 280.197 276.796C280.482 276.835 280.763 276.701 280.911 276.455C281.794 274.934 282.4 273.268 282.7 271.535C282.742 271.341 282.789 271.141 282.837 270.937C283.156 269.584 283.517 268.051 282.7 266.895C282.389 266.375 281.719 266.197 281.191 266.495C279.943 267.411 279.776 268.82 279.602 270.278ZM276.402 289.775C276.434 289.48 276.465 289.185 276.495 288.889C276.721 286.705 276.947 284.509 277.872 282.545C278.102 282.178 278.525 281.978 278.955 282.034C279.385 282.09 279.743 282.391 279.872 282.805C280.257 284.973 279.93 287.111 279.602 289.265V289.265C279.554 289.575 279.507 289.885 279.462 290.195C279.216 292.856 278.593 295.469 277.612 297.955C277.453 298.222 277.151 298.37 276.843 298.331C276.534 298.292 276.279 298.074 276.192 297.775C275.885 295.105 275.956 292.405 276.402 289.755V289.775ZM273.293 309.848C273.245 310.244 273.197 310.635 273.142 311.015V310.995C272.611 313.536 272.47 316.142 272.722 318.725C272.932 319.985 274.672 319.725 275.032 318.725C275.623 317.045 275.849 315.23 276.073 313.428C276.182 312.548 276.291 311.671 276.442 310.815C276.523 310.337 276.628 309.851 276.734 309.363C277.099 307.674 277.473 305.943 276.892 304.315C276.775 304.019 276.524 303.796 276.216 303.715C275.908 303.634 275.579 303.704 275.332 303.905C273.831 305.448 273.553 307.722 273.293 309.848Z" fill="#009344"/>
<path fill-rule="evenodd" clip-rule="evenodd" d="M577.532 296.475C577.592 296.925 577.662 297.445 577.722 297.925C578.762 307.705 577.832 319.145 570.282 326.275C563.351 332.774 552.432 333.963 542.711 335.021C540.272 335.287 537.908 335.544 535.702 335.875C520.608 338.135 505.512 340.362 490.412 342.555C460.912 346.835 431.462 350.975 401.912 354.665C342.572 362.075 283.002 367.855 223.232 370.355C192.852 371.615 162.442 371.985 132.052 371.195C117.598 370.828 103.162 370.182 88.7417 369.255C86.7613 369.129 84.7031 369.046 82.601 368.961L82.5975 368.961C72.3137 368.545 60.98 368.087 52.5617 362.425C44.0417 356.685 40.4317 346.555 38.6617 336.875C36.9518 327.488 35.9164 317.94 34.8841 308.42C34.4615 304.522 34.0394 300.63 33.5717 296.755L22.5717 205.915C21.1013 193.763 19.6117 181.609 18.1219 169.453L18.1217 169.452L18.1215 169.451L18.1214 169.449L18.1212 169.448L18.1211 169.447L18.1209 169.446L18.1208 169.444L18.1206 169.443L18.1205 169.442L18.1203 169.44L18.1202 169.439L18.12 169.438C13.5211 131.915 8.91979 94.373 4.87174 56.785C4.81977 56.5043 4.7732 56.221 4.72641 55.9363L4.72639 55.9362C4.68317 55.6732 4.63976 55.4091 4.59174 55.145C4.32333 53.6867 4.03081 52.2012 3.73455 50.6967C2.62904 45.0827 1.47159 39.2049 1.32174 33.495C-0.538258 28.165 -0.588258 22.585 3.71174 17.805C7.63174 13.445 13.2317 12.395 18.7817 11.645C25.5317 10.725 32.3017 9.895 39.0717 9.095C54.0784 7.315 69.1317 5.80833 84.2317 4.575C113.692 2.16167 143.185 0.701667 172.712 0.195C187.865 -0.065 203.015 -0.065 218.162 0.195C218.539 0.201231 218.916 0.207043 219.294 0.212856C230.432 0.384326 241.706 0.557877 247.722 11.555C252.021 19.448 255.361 28.0746 258.666 36.6106L258.667 36.6115L258.667 36.6118L258.667 36.6134L258.668 36.6149L258.669 36.6162C260.228 40.6449 261.78 44.6534 263.422 48.555C264.426 50.947 265.427 53.3391 266.427 55.7302L266.43 55.736L266.432 55.7418C271.11 66.9218 275.78 78.0827 280.722 89.135C301.232 135.015 331.162 183.485 383.162 196.705C402.477 201.594 422.687 201.803 442.871 202.012C471.113 202.304 499.306 202.595 524.932 215.705C545.162 226.035 560.312 244.165 569.162 264.865C572.792 273.415 575.371 282.374 576.842 291.545L577.532 296.475ZM567.941 291.925C564.981 273.655 556.611 255.465 544.611 241.925C534.831 230.925 522.701 223.485 509.331 218.715C508.011 229.575 500.341 240.905 492.941 247.785C482.391 257.575 469.011 261.435 455.011 263.025C424.621 266.465 392.331 263.565 363.721 252.355C354.466 258.849 343.793 263.038 332.592 264.575C320.186 266.389 307.537 265.547 295.482 262.105C292.852 269.4 291.334 277.096 289.829 284.734C289.388 286.97 288.948 289.201 288.482 291.415C287.916 294.173 287.413 297.011 286.905 299.878L286.905 299.879L286.904 299.88L286.904 299.882C285.732 306.494 284.532 313.258 282.482 319.535C310.482 317.928 338.482 316.102 366.481 314.055C401.628 311.515 436.741 308.595 471.821 305.295C478.032 304.711 484.294 304.2 490.581 303.687L490.582 303.687L490.583 303.687L490.584 303.687L490.585 303.687L490.586 303.687L490.587 303.687L490.588 303.687L490.589 303.687L490.59 303.687L490.591 303.687L490.592 303.686L490.593 303.686C516.613 301.563 543.049 299.406 567.941 291.925ZM485.832 212.925C490.663 213.626 495.451 214.601 500.172 215.845C499.955 216.657 499.751 217.467 499.546 218.275L499.546 218.275L499.546 218.275L499.546 218.276L499.546 218.276L499.546 218.276L499.546 218.276L499.546 218.277L499.546 218.277L499.546 218.277L499.546 218.277L499.545 218.278C498.646 221.837 497.757 225.354 495.932 228.785C493.243 233.948 489.611 238.561 485.222 242.385C474.502 251.665 460.292 253.705 446.632 254.735C420.302 256.735 394.452 253.595 368.722 248.495C369.502 247.825 370.272 247.145 371.032 246.435C382.622 235.635 390.412 221.435 397.872 207.685C411.921 209.567 426.269 209.859 440.653 210.151C455.776 210.459 470.938 210.767 485.832 212.925ZM331.394 187.689C332.402 185.485 333.405 183.289 334.602 181.205C328.943 176.632 323.626 171.652 318.692 166.305C317.957 171.534 315.168 176.265 312.382 180.989C309.899 185.201 307.42 189.407 306.402 193.955C305.302 198.855 309.012 203.545 313.772 205.015C319.607 206.82 323.259 201.542 326.003 197.577L326.005 197.574L326.165 197.342C326.236 197.24 326.305 197.14 326.375 197.04L326.498 196.864L326.602 196.715C328.567 193.875 329.985 190.773 331.394 187.689ZM299.813 142.095L299.553 142.335C295.671 146.566 291.961 150.975 288.254 155.381C286.757 157.16 285.26 158.939 283.753 160.705C283.315 161.216 282.88 161.743 282.442 162.273C280.789 164.275 279.089 166.333 277.002 167.835C271.442 171.835 264.432 168.585 262.472 162.185C260.772 156.678 267.634 150.706 272.824 146.189C274.231 144.965 275.515 143.847 276.472 142.875L277.195 142.141L277.195 142.141C281.887 137.377 286.674 132.516 290.583 127.095C293.493 132.245 296.563 137.265 299.813 142.095ZM278.255 103.401L278.272 103.395V103.435L278.255 103.401ZM278.255 103.401C272.75 105.268 267.402 109.007 262.296 112.577C260.147 114.081 258.04 115.554 255.982 116.845C254.766 117.605 253.537 118.45 252.292 119.306C249.605 121.154 246.845 123.052 243.982 124.255C237.982 126.755 232.652 121.525 231.262 115.885C229.416 108.327 237.97 104.29 244.732 101.099C246.505 100.262 248.155 99.4837 249.462 98.715C256.552 94.555 263.652 89.775 269.462 83.935C272.277 90.4434 275.181 96.9419 278.255 103.401ZM253.74 46.475C255.6 50.9283 257.454 55.3783 259.3 59.825C251.587 62.0854 244 64.7558 236.571 67.825C235.306 68.3704 233.875 69.0906 232.349 69.8581L232.349 69.8582C224.338 73.8894 213.729 79.2277 210.932 67.425C210.492 65.605 210.012 62.165 210.702 60.345C211.725 57.6215 214.479 56.8691 216.921 56.2019L216.921 56.2018C217.294 56.0998 217.66 55.9998 218.012 55.895C222.161 54.675 226.291 53.405 230.381 52.025C237.902 49.5925 245.286 46.755 252.5 43.525L253.74 46.475ZM214.752 8.665C208.312 8.605 201.875 8.575 195.442 8.575V8.615C181.435 8.64167 167.428 8.885 153.422 9.345C155.994 17.762 157.64 26.5313 159.283 35.2855C160.476 41.6435 161.668 47.9936 163.212 54.195C166.944 69.3084 171.467 84.2155 176.762 98.855C186.38 125.259 198.583 150.649 213.192 174.655C227.012 197.355 242.832 219.545 264.192 235.765C284.472 251.145 310.782 260.035 336.192 254.375C362.222 248.575 376.172 227.895 388.282 206.095C375.896 203.849 363.952 199.622 352.912 193.575C347.724 190.678 342.743 187.427 338.002 183.845C336.162 191.145 330.792 198.485 326.282 203.895C320.342 210.995 314.482 211.315 307.162 205.585C300.202 200.135 301.302 194.675 304.762 187.275C305.97 184.691 307.325 182.184 308.68 179.677L308.681 179.676L308.681 179.676L308.681 179.675L308.682 179.675L308.682 179.674L308.682 179.674C309.671 177.844 310.66 176.015 311.592 174.155C312.86 171.64 313.869 169.037 314.88 166.427C315.272 165.416 315.664 164.404 316.072 163.395C311.084 157.759 306.436 151.832 302.152 145.645C299.276 149.225 296.256 152.697 293.239 156.164C292.06 157.52 290.881 158.875 289.712 160.235C288.949 161.125 288.193 162.054 287.429 162.993L287.427 162.996C285.023 165.948 282.54 168.997 279.552 171.235C273.722 175.605 266.132 174.525 261.462 168.965C258.779 165.795 257.485 161.679 257.872 157.545C258.303 154.393 260.627 152.327 262.897 150.311C263.363 149.896 263.827 149.484 264.272 149.065C267.84 145.706 271.264 142.166 274.689 138.626C279.289 133.872 283.89 129.117 288.842 124.795C288.927 124.724 289.021 124.663 289.122 124.615C285.832 118.685 282.722 112.675 279.782 106.615C276.658 109.696 272.481 112.075 268.467 114.362C266.853 115.281 265.264 116.186 263.782 117.115C262.145 118.151 260.516 119.219 258.885 120.289C254.943 122.874 250.985 125.47 246.862 127.655C239.052 131.785 231.492 127.415 228.052 119.835C224.122 111.205 228.772 104.905 236.342 100.725C238.159 99.7238 239.992 98.7623 241.823 97.8015C245.425 95.9124 249.021 94.0259 252.482 91.845C256.01 89.6445 259.361 87.1982 262.715 84.749L262.716 84.7487C264.514 83.4359 266.313 82.1222 268.142 80.845C265.742 75.205 263.362 69.5617 261.002 63.915L260.842 63.985L260.728 64.0193C254.456 65.9079 248.175 67.7991 242.052 70.135C239.118 71.2527 236.315 72.6265 233.513 73.9991L233.513 73.9992C230.975 75.2424 228.44 76.4847 225.812 77.535C217.652 80.785 209.662 78.115 207.232 69.285C206.222 65.615 205.642 60.715 207.602 57.285C209.398 54.1409 212.808 53.1898 216.06 52.2829C216.356 52.2004 216.65 52.1183 216.942 52.035C225.104 49.6837 233.08 46.8842 241.062 44.0824L241.062 44.0823C244.453 42.8922 247.844 41.7017 251.252 40.545C249.172 35.5317 247.088 30.5317 245.002 25.545C244.62 24.6332 244.249 23.6581 243.867 22.6552C241.931 17.5643 239.722 11.758 234.442 9.895C229.991 8.32849 224.57 8.46927 219.533 8.60007C217.882 8.64295 216.272 8.68475 214.752 8.665ZM161.243 75.095C145.128 79.8573 128.629 83.2034 111.932 85.095C103.932 85.995 95.8921 86.5517 87.812 86.765C84.4749 86.8539 81.122 86.8085 77.7673 86.7631H77.7673H77.7672H77.7671H77.7671H77.767C73.5722 86.7063 69.3746 86.6494 65.2018 86.855C64.3218 78.735 63.4718 70.625 62.8417 62.485C62.8001 61.9639 62.7638 61.4238 62.7273 60.8803L62.7273 60.8799L62.7272 60.8787C62.6937 60.3797 62.66 59.8778 62.6217 59.385C77.3519 61.385 92.5621 60.915 107.292 59.485C123.052 57.965 139.603 55.345 154.513 49.875C154.689 49.8086 154.857 49.7213 155.013 49.615C155.193 50.435 155.373 51.265 155.543 52.075C157.229 59.8417 159.129 67.515 161.243 75.095ZM62.5154 27.2901C62.2205 30.2461 61.9289 33.1686 61.8817 35.955C61.7717 42.795 62.0017 49.625 62.4217 56.435C63.5833 56.4453 64.744 56.4566 65.904 56.4679L65.9051 56.4679L65.9063 56.468L65.9075 56.468L65.9085 56.468C79.3765 56.5993 92.7433 56.7296 106.212 55.275C120.435 53.7523 133.962 50.4865 147.732 47.1619L147.732 47.1617L147.733 47.1616L147.734 47.1614C149.608 46.7089 151.486 46.2554 153.372 45.805C153.633 45.7399 153.904 45.723 154.172 45.755C151.672 33.915 149.342 21.505 149.982 9.505C122.722 10.505 95.5251 12.3383 68.3917 15.005L63.1417 15.535C63.3074 19.3514 62.9084 23.3506 62.5154 27.2901ZM14.1617 84.615C14.3 76.8656 13.8313 69.0922 13.3636 61.3346C13.1548 57.8704 12.9461 54.4094 12.7917 50.955C12.5317 44.955 12.3151 38.9817 12.1417 33.035C12.0217 28.925 12.1417 25.195 13.8217 21.775C16.9467 20.4943 20.9285 20.1776 24.321 19.9078C25.5641 19.809 26.7281 19.7164 27.7417 19.585C37.2884 18.3517 46.8551 17.2317 56.4417 16.225C55.4579 20.4658 55.2941 25.1023 55.145 29.323C55.1183 30.0785 55.0921 30.8208 55.0617 31.545C54.7517 38.915 54.8617 46.305 55.2317 53.675C55.841 66.0136 57.1519 78.275 58.463 90.5369L58.463 90.5376L58.4631 90.5382L58.4632 90.5388C58.8521 94.1768 59.2411 97.8149 59.6117 101.455C59.863 103.916 60.1728 106.464 60.4893 109.067L60.4894 109.067C61.9996 121.487 63.6629 135.167 59.8517 146.625C55.6656 159.2 42.8878 162.952 30.9318 166.461C28.8643 167.068 26.8214 167.668 24.8517 168.305C21.3117 140.405 17.7484 112.508 14.1617 84.615ZM25.7317 175.095C28.2117 194.562 30.6584 214.035 33.0717 233.515C36.5983 261.415 40.0749 289.335 43.5016 317.275C47.2179 313.83 51.1881 310.617 55.149 307.413L55.1509 307.411L55.1516 307.411C57.3289 305.649 59.5034 303.89 61.6314 302.095C68.6314 296.168 75.568 290.168 82.4412 284.095C96.1944 271.955 109.674 259.528 122.881 246.815C149.307 221.315 174.52 194.708 198.52 166.995C198.622 166.864 198.744 166.749 198.88 166.655C186.227 143.843 175.689 119.92 167.4 95.185C165.667 90.005 164.034 84.795 162.501 79.555C146.336 84.3465 129.778 87.6929 113.021 89.555C97.8111 91.215 80.9312 92.895 65.5714 90.395C66.4114 98.155 67.2414 105.915 67.8714 113.695C67.9383 114.489 68.0077 115.29 68.0777 116.096L68.0779 116.099V116.099C69.262 129.76 70.5973 145.165 62.5814 156.995C55.8627 166.872 42.9907 170.368 31.4264 173.51L31.4262 173.51L31.4258 173.51C29.4789 174.039 27.569 174.558 25.7317 175.095ZM83.5417 288.185C97.6417 275.925 111.428 263.312 124.902 250.345C151.468 224.885 176.832 198.248 200.992 170.435C202.272 172.708 203.575 174.962 204.902 177.195C225.152 211.385 253.712 248.275 291.762 260.915C291.762 260.965 291.762 260.995 291.692 261.045C288.878 268.053 287.5 275.773 286.146 283.356L286.146 283.357C285.657 286.098 285.171 288.82 284.622 291.485C284.047 294.311 283.374 297.176 282.697 300.063L282.697 300.064C281.171 306.568 279.618 313.185 279.092 319.715C237.885 322.068 196.658 323.985 155.412 325.465C135.512 326.185 115.608 326.802 95.7017 327.315C92.4072 327.402 89.1116 327.502 85.8156 327.603L85.8077 327.604L85.8051 327.604C79.2001 327.806 72.5937 328.008 65.9917 328.095C58.2117 328.205 48.4517 327.605 44.1517 320.685C55.1103 313.481 65.2439 304.45 75.1572 295.616L75.16 295.614C77.9737 293.106 80.7697 290.615 83.5617 288.185H83.5417ZM550.072 324.991C555.821 324.125 562.43 323.128 565.982 318.005H566.002C569.072 313.665 569.282 308.005 568.982 302.885C568.969 302.601 568.945 302.317 568.921 302.033C568.886 301.627 568.852 301.221 568.852 300.815C552.012 306.025 534.532 308.195 517.012 309.925C496.602 311.955 476.152 313.655 455.702 315.325C382.482 321.275 309.132 326.185 235.702 329.645C198.988 331.372 162.262 332.738 125.522 333.745C107.152 334.255 88.7717 334.715 70.4017 334.935C62.3317 334.985 51.8717 334.625 44.8717 329.985C45.8417 337.835 47.4717 345.775 52.0517 351.835C58.5697 360.472 70.7288 360.949 81.1852 361.36C82.9691 361.43 84.7034 361.499 86.3517 361.605C199.442 368.955 312.522 358.315 424.522 343.235C452.522 339.465 480.472 335.395 508.402 331.235C512.678 330.596 516.957 329.965 521.235 329.334C530.823 327.92 540.412 326.505 549.982 325.005L550.072 324.991Z" fill="#231F20"/>
<path d="M55.0744 296.245C52.6441 296.335 50.2938 298.815 48.6535 300.435C47.0133 302.055 44.793 304.275 44.793 306.745C44.793 307.265 45.3731 307.835 45.9131 307.605C47.9734 306.745 49.3236 304.605 50.9138 303.105C51.8525 302.173 52.8551 301.307 53.9143 300.515C54.8632 299.96 55.671 299.194 56.2746 298.275C56.5145 297.851 56.5096 297.332 56.2619 296.913C56.0141 296.494 55.5613 296.239 55.0744 296.245Z" fill="#231F20"/>
<path d="M62.7503 292.635C64.8603 291.915 66.4803 290.045 68.0503 288.525C69.6203 287.005 71.5903 285.465 72.2703 283.315C72.373 282.942 72.2682 282.542 71.9956 282.268C71.723 281.993 71.3242 281.885 70.9503 281.985C68.7903 282.635 67.2203 284.605 65.6703 286.145C64.1203 287.685 62.2403 289.275 61.4903 291.375C61.3742 291.733 61.4685 292.125 61.7343 292.391C62.0002 292.657 62.3927 292.751 62.7503 292.635Z" fill="#231F20"/>
<path d="M80.0733 276.695C82.3328 275.067 84.4443 273.244 86.3833 271.245C88.2933 269.455 90.9433 267.595 91.9833 265.155C92.3233 264.365 91.7533 263.155 90.7233 263.515C88.2033 264.425 86.2733 266.795 84.3733 268.615C82.1648 270.532 80.1302 272.64 78.2933 274.915C77.5233 275.985 79.0733 277.375 80.0733 276.695Z" fill="#231F20"/>
<path d="M96.4007 261.275C98.5307 260.615 99.9907 258.945 101.511 257.395C103.031 255.845 104.791 254.395 105.511 252.195C105.614 251.814 105.506 251.408 105.227 251.129C104.948 250.85 104.541 250.742 104.161 250.845C102.021 251.625 100.661 253.355 99.1607 254.975C97.6607 256.595 96.0107 258.085 95.4307 260.235C95.3625 260.513 95.4391 260.807 95.6347 261.017C95.8302 261.227 96.1182 261.324 96.4007 261.275Z" fill="#231F20"/>
<path d="M110.522 248.295C112.681 247.261 114.649 245.868 116.342 244.175C118.032 242.635 119.962 240.885 120.702 238.665C120.942 237.925 120.112 237.515 119.532 237.765C117.482 238.645 115.842 240.565 114.242 242.075C112.504 243.535 110.904 245.152 109.462 246.905C109.002 247.545 109.782 248.595 110.522 248.295Z" fill="#231F20"/>
<path d="M127.652 232.745C129.149 231.533 130.519 230.173 131.742 228.685C133.023 227.401 134.018 225.86 134.662 224.165C134.743 223.814 134.61 223.449 134.322 223.232C134.035 223.016 133.646 222.99 133.332 223.165C131.731 224.008 130.332 225.189 129.232 226.625C127.958 227.944 126.816 229.384 125.822 230.925C125.202 231.985 126.532 233.585 127.652 232.745Z" fill="#231F20"/>
<path d="M142.6 217.555C144.684 216.262 146.617 214.739 148.36 213.015C150.285 211.54 151.937 209.74 153.24 207.695C153.6 207.035 152.97 205.945 152.15 206.285C149.981 207.298 148.004 208.682 146.31 210.375C144.289 211.971 142.457 213.793 140.85 215.805C140.07 216.915 141.56 218.095 142.6 217.555Z" fill="#231F20"/>
<path d="M161.141 200.805C163.651 199.585 165.771 197.245 167.841 195.405C169.911 193.565 172.281 191.745 173.541 189.185C173.891 188.485 173.311 187.445 172.441 187.745C169.771 188.685 167.731 190.685 165.641 192.525C163.551 194.365 160.791 196.365 159.191 198.845C158.351 200.095 159.951 201.385 161.141 200.805Z" fill="#231F20"/>
<path d="M177.68 182.985C179.243 182.041 180.686 180.913 181.98 179.625C183.18 178.445 184.78 177.165 185.23 175.485C185.34 175.076 185.224 174.639 184.925 174.338C184.627 174.037 184.19 173.918 183.78 174.025C182.1 174.525 180.88 176.125 179.72 177.365C178.465 178.695 177.371 180.169 176.46 181.755C176.262 182.106 176.321 182.546 176.605 182.832C176.889 183.118 177.328 183.18 177.68 182.985Z" fill="#231F20"/>
<path d="M188.072 168.095C189.292 168.485 190.742 167.695 191.672 166.975C192.199 166.572 192.638 166.065 192.962 165.485C193.33 164.887 193.452 164.171 193.302 163.485C193.209 163.21 193.001 162.99 192.732 162.88C192.463 162.771 192.161 162.784 191.902 162.915C191.507 163.174 191.153 163.491 190.852 163.855C190.542 164.225 190.222 164.595 189.852 164.935C189.202 165.595 188.262 165.995 187.672 166.675C187.465 166.895 187.388 167.207 187.47 167.498C187.552 167.789 187.78 168.016 188.072 168.095Z" fill="#231F20"/>
<path d="M275.07 318.705C275.95 316.205 276.07 313.405 276.48 310.795C276.84 308.665 277.68 306.395 276.93 304.295C276.814 303.999 276.563 303.776 276.254 303.695C275.946 303.614 275.618 303.684 275.37 303.885C273.59 305.715 273.53 308.575 273.18 310.995C272.652 313.529 272.51 316.129 272.76 318.705C272.93 319.965 274.67 319.695 275.07 318.705Z" fill="#231F20"/>
<path d="M277.634 297.935C278.615 295.449 279.238 292.836 279.484 290.175C279.844 287.705 280.334 285.265 279.894 282.785C279.765 282.371 279.407 282.07 278.977 282.014C278.547 281.958 278.124 282.158 277.894 282.525C276.843 284.805 276.693 287.285 276.423 289.755C275.985 292.4 275.921 295.093 276.233 297.755C276.326 298.043 276.577 298.251 276.876 298.289C277.176 298.328 277.471 298.19 277.634 297.935Z" fill="#231F20"/>
<path d="M280.924 276.455C281.807 274.934 282.413 273.268 282.714 271.535C283.024 270.055 283.644 268.225 282.714 266.895C282.402 266.375 281.732 266.197 281.204 266.495C279.814 267.495 279.764 269.145 279.554 270.775C279.247 272.598 279.27 274.461 279.624 276.275C279.704 276.546 279.935 276.746 280.216 276.785C280.496 276.824 280.773 276.695 280.924 276.455Z" fill="#231F20"/>
<path d="M167.07 36.205C166.754 33.2939 166.083 30.4325 165.07 27.685C164.28 25.215 163.66 22.495 161.86 20.565C161.652 20.3596 161.351 20.279 161.068 20.3529C160.785 20.4267 160.561 20.644 160.48 20.925C160.08 23.555 161.05 26.085 161.8 28.585C162.504 31.4344 163.559 34.1854 164.94 36.775C165.206 37.209 165.726 37.4165 166.218 37.2848C166.71 37.1532 167.056 36.7139 167.07 36.205Z" fill="#231F20"/>
<path d="M173.942 70.455C174.542 71.245 176.132 71.125 176.042 69.895C175.802 66.785 174.512 63.835 173.612 60.895C172.832 58.315 172.442 55.345 170.742 53.205C170.57 53.0371 170.323 52.972 170.091 53.0335C169.859 53.0951 169.677 53.2742 169.612 53.505C168.862 56.115 169.882 59.185 170.542 61.745C171.302 64.705 172.072 67.955 173.942 70.455Z" fill="#231F20"/>
<path d="M175.963 80.155C177.293 83.255 178.543 86.395 179.963 89.475C181.073 91.955 181.963 94.655 184.153 96.305C184.455 96.4622 184.817 96.4545 185.113 96.2844C185.408 96.1144 185.597 95.8055 185.613 95.465C185.613 92.715 183.853 90.305 182.553 87.965C180.923 85.035 179.163 82.185 177.493 79.285C176.883 78.305 175.543 79.165 175.963 80.155Z" fill="#231F20"/>
<path d="M196.73 125.095C197.41 125.875 198.449 125.015 198.309 124.185C197.69 120.645 195.97 117.395 194.51 114.185C193.05 110.975 191.99 107.465 189.64 104.885C189.428 104.683 189.117 104.625 188.846 104.738C188.576 104.85 188.397 105.112 188.391 105.405C188.391 108.975 190.22 112.405 191.57 115.655C192.92 118.905 194.34 122.315 196.73 125.095Z" fill="#231F20"/>
<path d="M208.692 151.155C209.393 151.645 210.093 150.845 209.983 150.155C209.573 147.555 207.832 145.015 206.602 142.705C205.204 140.081 203.672 137.531 202.012 135.065C201.842 134.806 201.512 134.706 201.227 134.826C200.942 134.946 200.784 135.253 200.851 135.555C201.791 140.755 204.132 147.995 208.692 151.155Z" fill="#231F20"/>
<path d="M224.514 178.295C224.927 178.523 225.442 178.45 225.775 178.116C226.109 177.783 226.182 177.268 225.954 176.855C224.594 173.855 222.234 171.415 220.334 168.765C218.433 166.115 216.733 163.905 214.743 161.545C214.273 160.985 213.383 161.545 213.563 162.235C215.213 168.095 219.073 175.155 224.514 178.295Z" fill="#231F20"/>
<path d="M236.582 197.605C237.982 199.605 239.312 202.385 241.582 203.525C242.242 203.855 243.342 203.465 243.232 202.575C242.902 199.865 240.762 197.675 239.232 195.495C237.532 193.03 235.636 190.705 233.562 188.545C232.702 187.675 231.452 188.775 231.942 189.795C233.275 192.52 234.827 195.132 236.582 197.605Z" fill="#231F20"/>
<path d="M255.373 221.475C257.243 223.425 259.513 225.975 262.203 226.685C262.617 226.787 263.051 226.633 263.309 226.295C263.567 225.956 263.6 225.497 263.393 225.125C262.323 222.705 259.743 220.795 257.913 218.935C255.916 216.781 253.807 214.735 251.593 212.805C251.207 212.442 250.615 212.413 250.195 212.736C249.775 213.059 249.652 213.639 249.903 214.105C251.33 216.833 253.176 219.32 255.373 221.475Z" fill="#231F20"/>
<path d="M282.732 240.635C283.151 240.624 283.524 240.367 283.684 239.98C283.844 239.593 283.761 239.148 283.472 238.845C281.782 237.305 279.562 236.485 277.542 235.465C275.306 234.374 273.133 233.159 271.032 231.825C270.082 231.195 268.892 232.675 269.792 233.425C273.342 236.395 277.862 240.465 282.732 240.635Z" fill="#231F20"/>
<path d="M297.142 245.935C300.962 248.275 306.772 251.305 311.372 249.855C311.774 249.76 312.077 249.426 312.132 249.016C312.187 248.606 311.984 248.204 311.622 248.005C309.722 247.105 307.522 247.005 305.482 246.485C302.987 245.928 300.554 245.121 298.222 244.075C297.715 243.84 297.114 244.03 296.834 244.513C296.553 244.995 296.687 245.612 297.142 245.935Z" fill="#231F20"/>
<path d="M322.4 249.945C327.05 250.615 334.319 251.075 337.679 247.045C337.989 246.675 337.959 245.915 337.359 245.825C335.169 245.505 333.289 246.115 331.16 246.585C328.372 247.214 325.541 247.635 322.69 247.845C321.57 247.925 321.14 249.765 322.4 249.945Z" fill="#231F20"/>
<path d="M347.22 242.665C351.178 241.532 354.754 239.348 357.57 236.345C358.48 235.295 358.39 234.535 358.89 233.345C359.06 232.925 358.66 232.345 358.18 232.635C357.48 233.105 356.7 233.195 356.01 233.735C354.96 234.545 354.01 235.555 353.01 236.415C351.01 238.145 348.74 239.625 346.56 241.155C346.291 241.273 346.104 241.526 346.072 241.818C346.039 242.111 346.165 242.399 346.402 242.573C346.639 242.748 346.951 242.783 347.22 242.665Z" fill="#231F20"/>
<path d="M363.17 229.685C365.081 227.91 366.881 226.02 368.56 224.025C369.23 223.265 369.852 222.463 370.42 221.625C370.956 220.522 371.395 219.374 371.73 218.195C371.794 217.965 371.713 217.719 371.524 217.573C371.336 217.426 371.078 217.407 370.87 217.525C369.948 218.088 369.063 218.709 368.22 219.385C367.425 220.223 366.705 221.13 366.07 222.095C364.575 224.239 363.219 226.477 362.01 228.795C361.765 229.115 361.825 229.574 362.145 229.82C362.466 230.066 362.925 230.005 363.17 229.685Z" fill="#231F20"/>
<path d="M375.26 214.955C375.586 213.535 376.194 212.195 377.05 211.015C377.99 209.595 375.77 207.835 374.67 209.175C373.35 210.789 372.869 212.931 373.37 214.955C373.509 215.358 373.889 215.628 374.315 215.628C374.741 215.628 375.12 215.358 375.26 214.955Z" fill="#231F20"/>
</svg>
