<svg width="577" height="215" viewBox="0 0 577 215" fill="none" xmlns="http://www.w3.org/2000/svg">
<path d="M430.433 39.4501C428.183 47.7901 425.933 56.1201 423.623 64.4501C421.253 72.9801 420.013 83.8701 410.953 87.9001C396.383 94.3901 379.753 87.1301 368.323 77.7301C354.932 66.7001 344.933 49.6201 327.513 44.3601C312.393 39.8101 295.913 44.0301 281.363 48.7401C264.963 54.0401 248.633 60.3501 231.153 60.4401C217.373 60.5101 203.903 56.5401 191.443 50.8801C164.873 38.8001 141.163 18.1801 111.933 12.7001C81.0225 6.91006 51.9325 19.3201 25.0125 33.3201C25.0421 34.1513 24.8955 34.9794 24.5825 35.7501C16.3386 56.8106 12.2796 79.2763 12.6325 101.89C30.8925 84.5301 57.6325 76.5401 82.6325 80.8901C96.8425 83.3701 109.163 89.6401 120.123 98.9401C132.893 109.78 144.833 123.81 162.713 124.94C179.773 125.94 198.963 123.46 215.583 119.62C231.833 115.86 244.853 107.08 259.343 99.3901C271.193 93.1001 284.693 88.7601 297.943 93.3101C312.473 98.3101 320.943 111.76 329.573 123.56C338.913 136.4 349.723 146.3 365.683 149.79C380.823 153.11 397.143 150.32 409.793 141.25C414.173 138.11 419.323 141.19 419.413 146.35C419.723 164.149 422.51 181.819 427.693 198.85C467.906 169.562 510.797 144.139 555.793 122.92C534.102 112.315 513.098 100.362 492.903 87.1301C470.863 72.7001 450.473 56.3901 430.433 39.4501Z" fill="#009444"/>
<path fill-rule="evenodd" clip-rule="evenodd" d="M430.553 24.5802C471.833 62.7502 521.363 93.6302 572.203 117.26C576.933 119.44 577.773 126.27 572.603 128.6C521.606 151.549 473.247 179.958 428.373 213.33C425.473 215.49 420.343 215.07 418.983 211.14C412.776 193.266 409.075 174.619 407.983 155.73C382.763 167.92 350.763 163.57 330.763 142.92C326.503 138.518 322.925 133.319 319.339 128.107C313.842 120.118 308.323 112.099 300.293 106.87C286.673 98.0002 271.973 104.9 259.363 112.06L258.983 112.276C245.484 119.946 232.729 127.194 217.363 130.81C200.963 134.68 183.283 136.33 166.443 136.52C149.793 136.74 136.923 129.2 124.703 118.52C123.742 117.682 122.788 116.844 121.838 116.008C111.124 106.591 100.818 97.5319 86.5726 93.7202C59.4226 86.4602 28.4226 97.0002 12.4226 120.23C9.6126 124.31 2.2726 123 1.7626 117.79C-1.19205 88.5773 2.79625 59.0796 13.4026 31.7002C14.1815 29.3792 16.3961 27.8485 18.8426 27.9402C44.8626 9.1002 78.4426 -3.4498 110.773 1.2002C132.112 4.27317 150.728 14.7979 169.256 25.2732C175.63 28.8765 181.993 32.4739 188.453 35.7602C200.913 42.1002 214.203 47.3202 228.323 47.9502C242.705 48.5691 256.455 43.9109 269.959 39.3359C272.82 38.3666 275.67 37.401 278.513 36.4902C292.483 32.0402 307.323 28.4202 322.083 30.3502C338.773 32.5402 350.923 42.3302 362.273 54.1002C363.028 54.8829 363.8 55.6936 364.589 56.5226C374.04 66.444 385.987 78.9861 400.643 77.5002C406.772 76.8826 407.927 72.859 409.402 67.7235C409.504 67.3707 409.607 67.0127 409.713 66.6502C411.023 62.2602 412.363 57.8802 413.713 53.5102C415.836 46.5772 418.004 39.6567 420.17 32.7389C420.738 30.9259 421.306 29.113 421.873 27.3002C422.873 24.1102 427.863 22.0902 430.553 24.5802ZM419.373 146.33C419.683 164.13 422.47 181.799 427.653 198.83C467.865 169.532 510.755 144.099 555.753 122.87C534.062 112.265 513.058 100.312 492.863 87.0802C470.863 72.6202 450.433 56.3602 430.433 39.4202C428.183 47.7702 425.933 56.1002 423.623 64.4202C423.26 65.7246 422.924 67.0849 422.583 68.4679C420.69 76.1282 418.627 84.4819 410.953 87.8702C396.383 94.3602 379.753 87.1002 368.323 77.7002C363.909 74.0746 359.864 69.7885 355.8 65.4821C347.533 56.723 339.188 47.8799 327.503 44.3402C312.353 39.7902 295.903 44.0102 281.353 48.7202C279.133 49.4375 276.915 50.1732 274.695 50.9096C260.512 55.6142 246.257 60.3424 231.143 60.4202C217.363 60.4902 203.893 56.5202 191.433 50.8602C181.971 46.5538 172.866 41.1621 163.739 35.7579C147.265 26.0026 130.722 16.2066 111.893 12.6802C80.9726 6.8902 51.8526 19.3002 24.9726 33.3002C25.0022 34.1315 24.8556 34.9596 24.5426 35.7302C16.3089 56.7928 12.2601 79.2584 12.6226 101.87C30.9226 84.5002 57.6226 76.5102 82.6226 80.8702C96.8326 83.3502 109.113 89.6202 120.113 98.9202C122.361 100.834 124.583 102.845 126.817 104.867C137.271 114.329 147.97 124.014 162.703 124.92C179.763 125.96 198.953 123.44 215.573 119.6C228.267 116.663 238.99 110.662 249.982 104.511C253.061 102.788 256.162 101.053 259.333 99.3702C271.183 93.0802 284.683 88.7402 297.933 93.2902C311.081 97.8059 319.296 109.27 327.125 120.196C327.93 121.319 328.731 122.436 329.533 123.54C338.873 136.38 349.643 146.28 365.643 149.77C380.753 153.09 397.103 150.3 409.753 141.23C414.133 138.09 419.283 141.17 419.373 146.33Z" fill="#231F20"/>
</svg>
