<svg width="575" height="481" viewBox="0 0 575 481" fill="none" xmlns="http://www.w3.org/2000/svg">
<path d="M256.194 295.809C249.084 305.499 242.194 316.299 233.914 325.349C246.847 333.309 260.084 340.743 273.624 347.649C277.104 349.423 280.597 351.149 284.104 352.829C287.634 345.759 291.614 338.889 295.404 331.959C302.674 318.699 310.004 305.479 317.104 292.129C324.204 278.779 331.394 265.489 338.664 252.219C342.571 245.079 346.477 237.939 350.384 230.799C353.464 225.179 356.124 218.949 360.454 214.179C349.534 206.499 338.734 198.609 328.234 190.359C314.434 214.029 298.024 236.639 282.464 259.029C273.864 271.409 265.107 283.669 256.194 295.809Z" fill="white"/>
<path d="M340.203 276.129C348.503 276.129 354.893 283.649 353.633 292.359C351.993 303.719 339.633 312.089 333.933 321.539C326.833 333.259 323.013 346.429 316.533 358.399C315.204 360.896 313.52 363.186 311.533 365.199C321.767 369.533 332.1 373.606 342.533 377.419C343.303 375.499 344.203 373.569 344.993 371.619C347.323 365.849 349.793 360.139 352.293 354.449C357.813 341.879 363.233 329.279 368.733 316.709C374.443 303.619 380.253 290.579 385.953 277.489C391.063 265.759 395.313 252.789 401.723 241.619C391.203 235.079 380.873 228.249 370.663 221.239C368.913 226.499 365.663 231.239 362.953 236.099C359.513 242.173 356.08 248.243 352.653 254.309C348.5 261.589 344.35 268.863 340.203 276.129Z" fill="white"/>
<path d="M264.763 190.869C259.429 196.749 254.096 202.646 248.763 208.559C251.763 209.349 254.233 212.049 253.703 215.419L257.143 217.959C259.733 219.899 261.573 223.659 259.443 226.729C249.443 241.139 238.903 255.179 227.713 268.729C219.153 279.059 209.463 292.939 197.893 301.259C206.733 307.706 215.759 313.903 224.973 319.849C231.863 308.579 240.973 298.189 248.583 287.579C257.056 275.813 265.389 263.943 273.583 251.969C289.123 229.199 303.013 205.319 318.303 182.419C309.803 175.419 301.513 168.139 293.573 160.499L291.763 158.699C289.503 164.789 285.103 168.809 280.583 173.699C275.296 179.386 270.023 185.109 264.763 190.869Z" fill="white"/>
<path d="M212.623 177.7C216.463 188.91 207.153 199.29 199.133 205.78C189.203 213.83 177.483 218.93 166.403 225.1C159.794 228.683 153.625 233.026 148.023 238.04C144.173 241.54 140.893 245.62 137.303 249.37C148.323 260.41 159.843 270.923 171.863 280.91C178.513 270.91 187.323 261.79 194.763 252.83C204.763 240.83 214.833 228.913 224.973 217.08C235.513 204.826 246.166 192.7 256.933 180.7C265.073 171.59 273.933 157.62 285.523 152.45C276.852 143.584 268.727 134.2 261.193 124.35C243.963 140.43 225.193 155.35 206.423 169.82C209.287 171.707 211.463 174.472 212.623 177.7Z" fill="white"/>
<path d="M381.514 320.26C375.654 333.26 369.594 346.17 363.564 359.09C360.674 365.29 357.744 371.46 354.624 377.55C354.004 378.76 353.434 379.96 352.844 381.14C369.657 386.98 386.687 392.166 403.934 396.7C404.064 389.21 406.214 381.82 408.414 374.59C411.894 363.2 415.804 351.94 419.554 340.59C427.354 317.03 435.404 293.59 443.374 270.05C443.882 268.478 444.95 267.147 446.374 266.31C435.044 260.88 424.004 254.89 413.194 248.52C409.364 260.21 403.194 271.52 398.194 282.67C392.687 295.236 387.127 307.766 381.514 320.26Z" fill="white"/>
<path d="M155.174 132.58C141.414 140.073 127.748 147.74 114.174 155.58C106.904 159.78 99.6942 164.08 92.4442 168.32C87.7342 171.07 82.9742 174.46 77.8242 176.52C88.7729 193.155 100.799 209.056 113.824 224.12C122.074 215.38 134.244 208.41 143.124 201.68C155.954 191.94 168.764 182.18 181.384 172.17C205.654 152.92 228.734 132.17 252.974 112.89C247.797 105.284 243.065 97.3843 238.804 89.2298C238.724 89.0898 238.654 88.9398 238.584 88.7998C226.514 98.0198 210.244 103.7 196.784 110.64C182.838 117.813 168.968 125.126 155.174 132.58Z" fill="white"/>
<path d="M444.533 317.429C447.323 317.599 449.813 319.339 449.603 322.659C454.313 330.999 449.793 341.709 447.323 349.979C443.936 361.312 440.526 372.646 437.093 383.979L432.223 400.169C431.923 401.169 431.663 402.299 431.393 403.479C437.926 404.959 444.469 406.369 451.023 407.709C450.023 398.349 453.203 388.099 454.813 379.059C456.999 366.719 459.366 354.412 461.913 342.139C464.433 329.869 467.033 317.599 470.023 305.429C472.113 296.939 473.873 287.779 477.293 279.529C470.423 276.989 463.643 274.209 456.953 271.249C456.988 272.088 456.866 272.925 456.593 273.719C451.739 287.912 446.893 302.109 442.053 316.309C442.918 316.589 443.75 316.964 444.533 317.429Z" fill="white"/>
<path d="M148.933 90.519C142.093 98.519 129.163 102.749 119.933 107.219C107.993 112.989 95.8727 118.399 83.5427 123.279C74.6827 126.779 63.1327 133.279 52.9727 133.639C58.8927 145.326 65.3293 156.736 72.2827 167.869C76.1227 164.459 80.7327 161.869 85.1327 159.119C91.7527 154.929 98.4727 150.879 105.133 146.849C119.046 138.496 133.069 130.329 147.203 122.349C161.336 114.369 175.579 106.589 189.933 99.009C196.873 95.369 203.833 91.7723 210.813 88.219C218.013 84.559 225.323 79.949 233.203 77.959C228.62 68.2743 224.808 58.2432 221.803 47.959C221.435 48.1878 221.046 48.382 220.643 48.539C197.563 57.7123 174.483 66.869 151.403 76.009C153.351 80.9277 152.398 86.5218 148.933 90.519Z" fill="white"/>
<path d="M487.144 359.87L479.374 413.05L483.174 413.7C491.264 415.05 499.394 416.16 507.524 417.19C505.664 407.37 508.244 394.98 508.524 385.45C508.95 372.91 509.24 360.363 509.394 347.81C509.554 335.26 509.604 322.71 509.634 310.16C509.634 305.16 508.334 295.83 510.504 289.75C505.654 288.52 500.894 287.18 496.344 285.87C493.537 285.05 490.744 284.183 487.964 283.27C487.054 291.94 484.554 300.67 482.804 308.99C481.557 315.156 480.267 321.33 478.934 327.51C492.314 332.17 488.744 348.91 487.144 359.87Z" fill="white"/>
<path d="M553.933 423.29C551.433 414.11 551.093 403.37 549.843 394.81C548.029 382.39 546.433 369.943 545.053 357.47C543.613 344.47 542.363 331.47 541.593 318.47C541.143 310.72 540.263 302.54 540.533 294.55C534.015 294.299 527.529 293.506 521.143 292.18C521.61 295.317 521.89 298.479 521.983 301.65C522.923 315.28 522.693 329.08 522.623 342.73C522.556 356.99 522.309 371.246 521.883 385.5C521.573 395.75 523.073 408.63 519.883 418.77C531.223 420.1 542.583 421.48 553.933 423.29Z" fill="white"/>
<path d="M126.814 71.6996C156.894 59.4863 186.934 47.2396 216.934 34.9596C217.493 34.7364 218.077 34.5786 218.674 34.4896C217.546 28.4352 216.923 22.2973 216.814 16.1396C181.434 19.2496 147.254 29.5496 112.934 38.1396C95.8435 42.4196 78.6535 46.2496 61.1735 48.5996C48.7235 50.2796 34.1735 52.4896 21.1035 50.7796C27.2235 69.0996 32.7935 87.5396 40.0335 105.45C68.3535 92.9896 98.1235 83.3697 126.814 71.6996Z" fill="white"/>
<path d="M56.5837 210.129C112.484 286.809 193.204 343.999 277.684 385.279C319.984 405.949 364.024 422.839 408.934 436.889C457.014 451.889 507.784 467.779 558.684 464.499C558.662 455.654 557.468 446.851 555.134 438.319H554.774C526.394 438.009 497.524 432.889 469.624 427.949C442.148 423.101 414.95 416.795 388.144 409.059C296.024 382.449 208.534 338.059 138.704 271.659C106.293 240.996 78.3531 205.93 55.7037 167.489C38.6137 138.339 22.8037 105.429 14.8337 71.6992C13.8745 77.5658 13.2933 83.488 13.0937 89.4292C12.7345 104.142 14.4446 118.832 18.1737 133.069C25.2837 161.179 39.6037 186.829 56.5837 210.129Z" fill="#58595B"/>
<path fill-rule="evenodd" clip-rule="evenodd" d="M563.793 396.219C561.793 382.779 560.057 369.299 558.583 355.779C557.276 343.731 556.259 331.664 555.243 319.596L555.243 319.594L555.242 319.593L555.242 319.591L555.242 319.589L555.242 319.587L555.242 319.585L555.242 319.583L555.241 319.582L555.241 319.58L555.241 319.578L555.241 319.576L555.143 318.419C554.928 315.867 554.608 313.394 554.287 310.905L554.286 310.902C553.565 305.316 552.832 299.646 553.233 292.799C553.348 291.677 553.499 290.545 553.647 289.438L553.647 289.434L553.648 289.431L553.648 289.425C554.341 284.245 554.959 279.62 551.393 279.159L544.323 277.749C540.147 276.998 535.95 276.372 531.748 275.746L531.748 275.746C523.877 274.572 515.995 273.397 508.223 271.389C493.727 267.619 479.558 262.686 465.853 256.639C439.063 244.889 413.763 229.839 389.363 213.759C340.183 181.359 290.903 144.819 259.163 94.1794C250.403 80.3964 243.301 65.6276 238.003 50.1794C234.173 38.7638 231.901 27.1084 229.617 15.3945L229.617 15.3932L229.617 15.392L229.617 15.3909L229.616 15.3898L229.616 15.3887L229.616 15.3876L229.616 15.3866C228.877 11.5983 228.137 7.80382 227.343 4.00938C226.623 0.569376 223.673 -0.240624 221.143 0.679376C220.075 0.292844 218.933 0.152687 217.803 0.269376C185.949 2.9873 155.302 11.2702 124.589 19.5706L124.589 19.5707L124.589 19.5707C121.402 20.4321 118.214 21.2938 115.023 22.1494L31.6334 35.8494C31.1242 35.9507 30.5006 36.0487 29.788 36.1607C24.5945 36.9769 14.6734 38.5361 9.86336 47.5494C6.46868 53.2072 4.77031 61.2087 3.61842 66.6355C3.49785 67.2036 3.38327 67.7434 3.27336 68.2494C0.680642 80.7149 -0.204138 93.4753 0.64336 106.179C2.21336 132.409 10.3034 157.529 22.2934 180.799C45.8534 226.529 82.8934 266.089 121.293 299.799C196.993 366.129 288.423 411.799 383.173 444.239C410.463 453.579 438.173 461.939 466.093 469.069C498.733 477.389 532.593 483.449 566.343 479.679C570.773 479.179 573.973 476.459 574.233 471.789L563.793 396.219ZM521.793 385.449C522.213 371.203 522.46 356.946 522.533 342.679C522.542 341.052 522.552 339.423 522.563 337.792L522.563 337.77V337.768C522.642 325.726 522.721 313.597 521.893 301.599C521.801 298.429 521.52 295.267 521.053 292.129C527.44 293.456 533.926 294.248 540.443 294.499C540.244 300.418 540.673 306.43 541.093 312.297C541.24 314.359 541.386 316.403 541.503 318.419C542.273 331.419 543.503 344.479 544.963 357.419C546.33 369.893 547.927 382.339 549.753 394.759C550.164 397.569 550.476 400.614 550.799 403.761L550.799 403.762C551.459 410.203 552.164 417.073 553.843 423.239C542.607 421.439 531.31 420.065 520.034 418.693L519.843 418.669C522.146 411.363 521.995 402.594 521.854 394.42V394.419V394.417V394.416V394.414V394.412V394.411V394.409V394.407V394.406V394.404V394.402V394.401C521.8 391.293 521.748 388.271 521.833 385.449H521.793ZM484.468 301.573C483.885 304.072 483.307 306.549 482.793 308.989H482.843C481.537 315.163 480.223 321.336 478.903 327.509C491.394 331.853 489.14 346.658 487.48 357.556L487.393 358.134C487.359 358.352 487.327 358.568 487.294 358.783C487.239 359.151 487.185 359.513 487.133 359.869L479.363 413.049L483.163 413.699C491.253 415.049 499.383 416.189 507.513 417.189C506.219 410.498 507.004 402.614 507.737 395.254L507.737 395.253C508.08 391.812 508.411 388.486 508.513 385.449C508.943 372.909 509.223 360.359 509.383 347.809C509.543 335.259 509.623 322.709 509.623 310.159C509.628 308.896 509.549 307.362 509.461 305.675C509.2 300.659 508.869 294.3 510.493 289.749C505.643 288.519 500.883 287.179 496.333 285.869C493.527 285.049 490.733 284.183 487.953 283.269C487.31 289.396 485.873 295.552 484.468 301.573ZM456.933 271.269C463.623 274.269 470.403 277.009 477.273 279.549C474.559 286.097 472.89 293.218 471.272 300.122C470.852 301.917 470.435 303.698 470.003 305.449C467.003 317.619 464.413 329.889 461.893 342.159C459.373 354.429 456.983 366.739 454.793 379.079C454.399 381.282 453.912 383.563 453.415 385.888L453.414 385.889C451.881 393.062 450.256 400.661 451.003 407.729C444.443 406.396 437.9 404.986 431.373 403.499C431.643 402.319 431.903 401.189 432.203 400.189L437.073 383.999C440.48 372.666 443.89 361.333 447.303 349.999C447.626 348.919 447.984 347.798 448.351 346.645L448.353 346.64C450.8 338.965 453.686 329.912 449.583 322.679C449.793 319.359 447.303 317.619 444.513 317.449C443.73 316.992 442.898 316.623 442.033 316.349C446.893 302.163 451.74 287.966 456.573 273.759C456.849 272.959 456.971 272.115 456.933 271.269ZM443.323 270.089C443.832 268.518 444.899 267.187 446.323 266.349H446.343C435.013 260.919 423.933 254.929 413.213 248.549C410.584 256.471 406.885 264.236 403.246 271.876C401.514 275.511 399.796 279.118 398.213 282.699C392.693 295.253 387.113 307.786 381.473 320.299C377.127 329.943 372.653 339.536 368.184 349.121C366.628 352.458 365.073 355.793 363.523 359.129C360.633 365.329 357.703 371.499 354.583 377.589C354.216 378.306 353.866 379.02 353.519 379.728L353.515 379.736L353.512 379.743L353.505 379.757L353.503 379.762L353.341 380.091L353.18 380.419C353.055 380.673 352.93 380.927 352.803 381.179C369.643 386.979 386.67 392.166 403.883 396.739C404.013 389.249 406.163 381.859 408.373 374.629C410.933 366.198 413.732 357.859 416.53 349.524C417.525 346.56 418.52 343.596 419.503 340.629C427.062 317.877 434.788 295.171 442.521 272.449L442.521 272.448L442.521 272.446L442.522 272.445L442.522 272.444L442.522 272.443L442.523 272.442L442.523 272.441L442.524 272.44L443.323 270.089ZM370.593 221.239L370.61 221.251C369.23 225.393 366.932 229.225 364.651 233.031C364.038 234.054 363.426 235.075 362.833 236.099C359.4 242.166 355.967 248.236 352.533 254.309C348.42 261.596 344.287 268.869 340.133 276.129C348.433 276.139 354.823 283.649 353.563 292.359C352.516 299.613 347.11 305.648 341.847 311.523C338.868 314.849 335.935 318.124 333.863 321.539C329.94 328.016 327.018 334.925 324.096 341.837C321.729 347.433 319.363 353.03 316.463 358.399C315.134 360.896 313.45 363.187 311.463 365.199C321.697 369.533 332.03 373.606 342.463 377.419C342.859 376.434 343.288 375.446 343.719 374.453L343.72 374.452L343.72 374.451L343.721 374.45L343.721 374.449L343.722 374.448L343.722 374.448L343.722 374.447L343.722 374.447L343.722 374.446L343.723 374.446L343.723 374.445L343.723 374.445C344.131 373.507 344.54 372.566 344.923 371.619C347.223 365.849 349.723 360.139 352.223 354.449C355.251 347.555 358.249 340.651 361.246 333.748L361.255 333.727C363.719 328.052 366.183 322.378 368.663 316.709C371.398 310.44 374.156 304.182 376.914 297.925L376.917 297.917L376.92 297.909L376.924 297.901L376.927 297.893L376.931 297.885L376.934 297.877L376.938 297.869L376.942 297.861L376.945 297.852L376.949 297.843L376.949 297.843L376.95 297.842L376.95 297.841L376.951 297.84C379.938 291.06 382.926 284.282 385.883 277.489C387.518 273.736 389.065 269.857 390.623 265.949L390.623 265.948L390.624 265.946L390.624 265.946C393.935 257.642 397.295 249.215 401.653 241.619C391.139 235.083 380.814 228.247 370.61 221.251L370.613 221.239H370.593ZM352.43 226.875L352.43 226.875C354.741 222.408 357.093 217.859 360.433 214.179H360.453C349.533 206.499 338.733 198.609 328.213 190.359C316.858 209.878 303.688 228.676 290.693 247.224L290.693 247.224C287.928 251.169 285.172 255.102 282.443 259.029C273.843 271.409 265.087 283.669 256.173 295.809C254.21 298.485 252.261 301.249 250.294 304.037L250.291 304.041L250.29 304.043C245.134 311.353 239.857 318.836 233.893 325.349C246.827 333.329 260.063 340.763 273.603 347.649C277.09 349.416 280.583 351.143 284.083 352.829C286.608 347.773 289.363 342.819 292.113 337.873L292.114 337.872L292.114 337.872L292.114 337.871L292.114 337.871L292.115 337.87L292.115 337.869L292.116 337.868L292.116 337.867L292.117 337.866L292.118 337.864L292.119 337.863L292.119 337.862C293.213 335.895 294.306 333.93 295.383 331.959C296.938 329.123 298.496 326.289 300.053 323.455C305.778 313.039 311.502 302.624 317.083 292.129C324.183 278.796 331.37 265.493 338.643 252.219C342.557 245.079 346.463 237.939 350.363 230.799C351.065 229.515 351.746 228.199 352.43 226.875ZM293.563 160.449C301.503 168.089 309.793 175.349 318.293 182.369C311.23 192.949 304.465 203.738 297.698 214.529C289.817 227.097 281.934 239.669 273.573 251.919C265.393 263.919 257.06 275.789 248.573 287.529C245.816 291.363 242.869 295.168 239.903 298.997C234.661 305.763 229.364 312.602 224.963 319.799C215.743 313.879 206.717 307.683 197.883 301.209C207.006 294.649 214.959 284.633 222.112 275.626C224.031 273.209 225.893 270.865 227.703 268.679C238.893 255.179 249.433 241.139 259.433 226.679C261.563 223.609 259.723 219.849 257.133 217.909L253.693 215.369C254.223 211.999 251.783 209.299 248.753 208.509C254.047 202.589 259.38 196.693 264.753 190.819C270.007 185.059 275.28 179.319 280.573 173.599C281.227 172.894 281.877 172.207 282.52 171.528C286.321 167.514 289.82 163.818 291.753 158.599L293.563 160.449ZM261.182 124.34L261.173 124.329H261.193L261.182 124.34ZM206.383 169.819C225.169 155.293 243.925 140.416 261.182 124.34C268.714 134.186 276.836 143.567 285.503 152.429C276.768 156.333 269.578 165.252 263.076 173.317C260.966 175.935 258.928 178.462 256.933 180.699C246.173 192.746 235.507 204.893 224.933 217.139C214.747 228.959 204.677 240.876 194.723 252.889C192.456 255.633 190.061 258.384 187.638 261.167L187.635 261.171L187.634 261.172L187.634 261.172C182.11 267.518 176.445 274.026 171.823 280.969C159.823 270.969 148.303 260.456 137.263 249.429C138.546 248.09 139.788 246.708 141.032 245.326L141.033 245.325L141.033 245.325C143.27 242.838 145.509 240.349 147.983 238.099C153.586 233.086 159.754 228.743 166.363 225.159C169.305 223.521 172.292 221.959 175.278 220.396C183.54 216.073 191.8 211.752 199.093 205.839C207.093 199.349 216.423 188.969 212.583 177.759C211.435 174.509 209.258 171.722 206.383 169.819ZM238.533 88.7894L238.539 88.8004C230.261 95.12 220.01 99.7811 210.032 104.318L210.032 104.318C205.463 106.395 200.952 108.447 196.713 110.619C182.753 117.759 168.893 125.076 155.133 132.569C141.373 140.063 127.707 147.729 114.133 155.569C109.639 158.166 105.167 160.801 100.695 163.436L100.695 163.436L100.694 163.436L100.694 163.436C97.9326 165.064 95.1709 166.691 92.4034 168.309C91.0882 169.077 89.7692 169.895 88.4388 170.72L88.4383 170.72C85.0044 172.849 81.4952 175.025 77.7834 176.509C88.732 193.144 100.758 209.045 113.783 224.109C119.498 218.091 127.025 212.912 134.057 208.073C137.238 205.885 140.318 203.765 143.083 201.669C155.913 191.929 168.723 182.159 181.343 172.159C193.419 162.567 205.2 152.605 216.975 142.648C228.867 132.593 240.754 122.542 252.933 112.879C247.752 105.274 243.018 97.3741 238.753 89.2194C238.693 89.1143 238.639 89.0036 238.586 88.8956L238.586 88.8951C238.57 88.8632 238.554 88.8316 238.539 88.8004L238.553 88.7894H238.533ZM221.813 47.9394C221.445 48.1682 221.057 48.3624 220.653 48.5194H220.673C197.607 57.6927 174.503 66.8494 151.363 75.9894C153.319 80.9138 152.367 86.5179 148.893 90.5194C143.609 96.7579 134.64 100.678 126.56 104.21C124.227 105.23 121.968 106.218 119.893 107.219C107.953 112.989 95.8334 118.399 83.5034 123.279C81.3304 124.138 78.9956 125.175 76.5592 126.257L76.559 126.257C69.0614 129.587 60.6015 133.345 52.9334 133.639C58.8934 145.353 65.3534 156.756 72.3134 167.849C75.3651 165.146 78.888 162.978 82.4091 160.81L82.4113 160.808C83.3316 160.242 84.2518 159.675 85.1634 159.099C91.7334 154.909 98.4534 150.829 105.163 146.829C119.097 138.503 133.12 130.336 147.233 122.329C161.347 114.323 175.583 106.543 189.943 98.9894C196.883 95.356 203.843 91.7594 210.823 88.1994C212.498 87.3479 214.179 86.4456 215.872 85.537C221.455 82.5399 227.166 79.4741 233.213 77.9394C228.63 68.2547 224.819 58.2236 221.813 47.9394ZM61.1534 48.5894C78.6334 46.2394 95.8234 42.4094 112.913 38.1294C119.431 36.4999 125.944 34.8084 132.461 33.1158C160.259 25.8961 188.133 18.6568 216.793 16.1294C216.903 22.2871 217.525 28.4249 218.653 34.4794C218.057 34.5684 217.473 34.7261 216.913 34.9494C186.887 47.196 156.853 59.446 126.813 71.6994C114.758 76.5987 102.513 81.1378 90.264 85.6781L90.2635 85.6783C73.3615 91.9434 56.4537 98.2107 40.0334 105.429C34.5472 91.8579 30.0199 77.9822 25.4857 64.0849C24.0361 59.6422 22.5859 55.1973 21.1034 50.7594C33.3877 52.3723 46.9207 50.5294 58.8245 48.9083H58.8245C59.6149 48.8006 60.3982 48.694 61.1734 48.5894H61.1534ZM277.683 385.279C319.983 405.949 364.023 422.839 408.933 436.889C457.013 451.919 507.783 467.779 558.663 464.529C558.642 455.684 557.448 446.881 555.113 438.349H554.753C526.423 438.04 497.604 432.937 469.749 428.005L469.603 427.979C442.128 423.131 414.929 416.826 388.123 409.089C296.003 382.479 208.513 338.119 138.683 271.689C106.273 241.026 78.3328 205.96 55.6834 167.519C38.6134 138.339 22.8334 105.429 14.8334 71.6994C13.8742 77.566 13.293 83.4882 13.0934 89.4294C12.7342 104.142 14.4443 118.832 18.1734 133.069C25.2834 161.129 39.5834 186.829 56.5834 210.129C112.483 286.809 193.203 343.999 277.683 385.279Z" fill="#231F20"/>
</svg>
