<svg width="375" height="575" viewBox="0 0 375 575" fill="none" xmlns="http://www.w3.org/2000/svg">
<path fill-rule="evenodd" clip-rule="evenodd" d="M299.877 502.8L299.926 502.005C300.076 499.545 296.176 498.365 295.076 500.705C289.735 512.661 283.584 524.238 276.666 535.355C273.356 540.645 269.876 545.875 266.206 550.875C262.816 555.515 258.806 560.965 252.966 562.145C252.389 556.963 252.262 551.74 252.586 546.535C252.726 544.045 248.876 542.915 247.776 545.225C244.651 552.099 238.397 557.039 230.986 558.485L224.206 534.785C223.536 532.465 222.871 530.143 222.206 527.82L222.2 527.802C221.537 525.485 220.874 523.169 220.206 520.855C220.18 520.767 220.154 520.678 220.129 520.589C220.094 520.466 220.059 520.343 220.024 520.219L219.961 519.996L219.879 519.703L219.879 519.701C219.268 517.513 218.645 515.281 217.286 513.445C213.942 508.932 207.919 508.961 202.615 508.986H202.614H202.613H202.612H202.611H202.61C201.698 508.99 200.808 508.994 199.956 508.975L173.896 508.405C172.181 508.371 170.466 508.331 168.751 508.291C166.466 508.238 164.181 508.185 161.896 508.145C161.564 508.14 161.225 508.132 160.881 508.123C158.369 508.059 155.576 507.989 153.386 509.325C148.808 512.117 149.597 518.546 150.201 523.466C150.294 524.221 150.382 524.94 150.446 525.605C151.77 539.269 154.666 552.735 159.076 565.735C153.165 561.187 148.495 555.224 145.496 548.395C144.576 546.325 141.286 547.005 140.786 549.005C139.526 554.252 138.229 559.495 136.896 564.735C119.152 553.351 105.765 536.317 98.8958 516.385C98.2558 514.525 95.1758 513.575 94.1758 515.775C93.2758 517.815 92.4358 519.875 91.6558 521.955C85.3816 508.399 81.5463 493.843 80.3258 478.955C80.2035 477.483 78.92 476.382 77.4458 476.485C76.3258 475.425 74.4458 475.235 73.5858 476.995C71.4253 481.434 69.6715 486.06 68.3458 490.815C64.7758 479.847 62.2283 468.573 60.7358 457.135C60.6806 455.879 59.7346 454.843 58.4889 454.673C57.2432 454.504 56.0546 455.25 55.6658 456.445C55.3858 457.135 55.1058 457.825 54.8158 458.515C46.8376 429.613 45.0116 399.358 49.4558 369.705C49.8758 366.925 46.3858 365.055 44.7358 367.705C39.9778 375.355 36.2173 383.582 33.5458 392.185C29.8959 366.621 28.2941 340.805 28.7558 314.985C28.8058 312.325 25.3058 311.625 23.9558 313.685L20.8558 318.415C19.248 295.193 21.7117 271.869 28.1358 249.495C29.0058 246.495 25.0858 245.305 23.4258 247.495L6.42578 269.995C9.03112 232.548 20.592 196.274 40.1358 164.225C41.7158 161.625 38.2158 159.205 36.0758 161.095L24.5558 171.365C34.1136 134.234 54.1296 100.626 82.2258 74.5353C84.5058 72.4153 81.6158 69.3153 79.1058 70.4853L62.2758 78.2953C83.5482 51.468 111.687 30.9004 143.706 18.7753C146.236 17.8153 146.136 13.5153 143.016 13.7053L136.606 14.0753C156.543 6.23408 178.214 3.86229 199.376 7.20531C199.532 7.21961 199.689 7.21961 199.846 7.20531C198.33 12.7512 199.228 19.1431 200.038 24.9143L200.038 24.9158L200.039 24.9167C200.201 26.0752 200.36 27.2087 200.496 28.3053C201.546 36.8253 203.346 45.1953 206.876 53.0553C213.174 66.8064 223.477 78.3359 236.436 86.1353C250.866 94.8753 267.126 97.3353 283.786 96.4753C301.316 95.5253 318.916 91.0953 333.736 81.4753C340.149 90.6894 345.9 100.347 350.946 110.375C339.826 112.395 328.446 115.365 321.186 124.705C313.196 134.975 309.816 150.395 311.346 163.145C312.736 174.725 318.316 186.705 328.076 193.515C338.316 200.635 351.316 200.185 363.076 197.935L364.786 217.785L364.747 217.649C364.54 216.916 364.335 216.189 364.166 215.445C363.406 212.205 358.436 213.575 359.166 216.815C359.655 218.951 360.293 221.049 361.076 223.095C364.515 244.301 365.127 265.869 362.896 287.235C359.369 283.169 355.846 279.095 352.326 275.015C350.456 272.855 347.656 275.265 348.016 277.535C355.716 326.825 347.816 376.705 335.156 424.535L330.266 414.205C329.096 411.745 325.566 413.155 325.456 415.515C323.834 447.38 315.01 478.462 299.646 506.425C299.728 505.26 299.803 504.02 299.877 502.8ZM285.206 174.425C284.432 175.156 283.759 175.986 283.206 176.895C281.536 179.565 280.256 183.655 280.996 186.805C281.976 191.035 286.626 192.325 290.376 192.805C294.356 193.315 298.466 192.395 301.286 189.395C306.176 184.185 305.406 174.845 298.956 171.275C294.596 168.865 287.206 169.975 285.206 174.425ZM259.406 189.895C262.546 199.895 262.486 218.125 248.276 219.265C235.856 220.265 228.026 201.505 226.556 191.705C225.326 183.505 228.856 168.555 238.376 168.365C248.256 166.225 257.076 182.425 259.406 189.935V189.895ZM215.496 98.9953C213.003 98.8422 210.549 99.6673 208.656 101.295V101.335C203.456 105.745 202.546 114.355 203.506 120.585C205.236 131.865 213.616 144.885 226.096 145.445C254.316 146.705 241.406 96.4953 215.496 98.9953ZM170.126 60.5153C171.599 57.3032 174.694 55.1383 178.216 54.8553C179.819 54.4931 181.494 54.6292 183.017 55.2453C186.467 56.6553 188.297 59.9553 188.797 63.4954C189.327 67.2354 189.677 73.2754 186.977 76.3654C184.797 78.8554 180.536 79.5654 177.426 79.1154C169.076 77.8954 166.776 67.1654 170.126 60.5153ZM175.516 167.415C167.266 169.115 162.056 179.985 160.606 187.795C158.986 196.505 160.076 213.915 173.436 210.365C184.066 207.525 189.436 193.655 189.436 183.745C189.436 179.095 188.586 172.815 185.436 169.095C182.756 165.935 178.956 166.055 175.516 167.415ZM67.7658 200.425C66.5418 198.801 65.8189 196.855 65.6858 194.825C63.7958 191.825 65.3958 187.355 67.4858 184.745C70.0867 181.425 74.1953 179.651 78.3958 180.035C86.9558 180.955 92.5358 190.625 88.3958 198.335C84.2558 206.045 73.0758 207.735 67.7658 200.425ZM271.027 319.425C277.237 318.605 281.687 313.265 283.237 307.425V307.435C284.052 303.667 284.318 299.8 284.027 295.955C284.004 295.25 283.999 294.546 283.994 293.848C283.973 290.639 283.952 287.551 282.137 284.955C286.937 281.784 291.429 278.172 295.557 274.165C297.907 271.845 294.287 268.195 291.907 270.515C268.307 293.542 233.748 299.834 202.458 305.53L201.386 305.725C176.946 310.135 151.246 312.925 126.676 309.135C125.571 308.434 124.23 308.207 122.956 308.505C111.521 306.489 100.449 302.782 90.1058 297.505C87.1558 295.965 84.5458 300.435 87.4958 301.965C91.9146 304.251 96.4737 306.256 101.146 307.965C99.0359 312.615 99.9759 320.055 100.726 324.345C101.636 329.505 104.566 334.765 109.966 336.345C115.366 337.925 121.106 335.155 124.456 330.925C128.146 326.275 128.656 320.295 128.576 314.555C152.356 317.765 177.036 315.285 200.756 311.055C218.277 307.935 236.767 304.595 254.007 298.595C253.547 302.495 255.147 307.745 256.147 310.005C258.727 315.745 264.497 320.295 271.027 319.425Z" fill="#FFF200"/>
<path d="M175.165 206.305C181.935 202.535 185.625 193.405 186.165 186.035C186.415 182.621 186.045 179.189 185.075 175.905C183.475 170.605 180.465 169.595 176.365 169.975C169.895 172.275 165.975 179.115 164.195 185.895C162.325 192.925 161.705 213.815 175.165 206.305Z" fill="#F7941E"/>
<path d="M176.965 76.0955C180.515 76.9655 184.645 75.3655 185.545 71.6955C185.909 69.6224 185.98 67.5083 185.755 65.4155C185.555 62.2555 184.495 58.8955 181.045 57.9255C179.045 57.3655 176.955 58.3155 175.105 59.0355C174.96 59.09 174.8 59.09 174.655 59.0355C173.395 60.203 172.461 61.6779 171.945 63.3155C170.675 67.6955 171.845 74.8355 176.965 76.0955Z" fill="#F7941E"/>
<path d="M227.526 142.315C242.026 141.605 240.106 124.465 235.466 115.265C231.006 106.405 223.566 102.945 214.556 101.995C211.616 102.485 209.146 104.195 207.646 108.105C205.735 113.555 205.771 119.499 207.746 124.925C210.626 133.465 217.496 142.805 227.526 142.315Z" fill="#F7941E"/>
<path d="M76.4939 189.036C74.7239 189.506 73.9539 191.106 73.2539 192.766C73.3026 193.466 73.5004 194.148 73.8339 194.766C75.3539 197.516 79.2239 196.906 80.6039 194.346C81.9839 191.786 79.3839 188.266 76.4939 189.036Z" fill="white"/>
<path d="M108.266 310.285C109.266 315.285 107.506 321.535 110.326 325.845C112.616 329.355 116.416 327.545 118.146 324.435C120.006 321.115 119.816 316.825 119.796 313.115C115.916 312.345 112.076 311.415 108.266 310.285Z" fill="white"/>
<path d="M275.705 288.925C270.901 291.631 265.923 294.016 260.805 296.065C260.838 296.217 260.862 296.371 260.875 296.525C261.005 300.205 262.225 305.295 264.445 308.255C267.445 312.255 271.755 312.055 274.175 307.705C277.295 302.095 274.645 294.885 275.705 288.925Z" fill="white"/>
<path d="M211.274 53.9055C217.736 66.5992 227.832 77.0813 240.274 84.0155C267.494 99.2155 305.554 94.3355 331.454 78.2255C319.318 61.3909 305.011 46.2332 288.904 33.1455C288.262 32.4891 288.016 31.5418 288.256 30.6557C288.497 29.7696 289.188 29.077 290.074 28.8355C295.604 27.8355 301.954 29.1955 307.534 28.0755C276.318 9.93806 239.919 2.80041 204.164 7.80546C203.749 7.86587 203.325 7.83169 202.924 7.70546C201.494 15.3155 203.384 24.5555 204.504 31.7055C205.591 39.4128 207.876 46.9031 211.274 53.9055Z" fill="#F7941E"/>
<path d="M323.014 127.915C316.014 137.915 313.013 152.475 314.924 164.485C316.834 176.495 323.694 188.975 335.454 193.725C341.214 196.055 347.524 196.425 353.675 196.115C356.485 195.965 359.905 194.975 362.825 195.355C361.678 182.022 360.525 168.689 359.365 155.355C359.185 153.355 361.665 152.255 363.245 153.125L368.295 155.915C364.425 141.332 359.157 127.157 352.565 113.585C341.504 115.505 329.844 118.175 323.014 127.915Z" fill="#F7941E"/>
<path d="M294.426 183.506C295.338 182.689 295.696 181.419 295.346 180.246C294.886 178.896 293.676 178.706 292.346 178.756C291.674 178.797 291.006 178.881 290.346 179.006C290.216 179.496 290.126 179.916 290.066 180.176C289.762 181.327 289.577 182.506 289.516 183.696C291.076 184.216 293.526 184.206 294.426 183.506Z" fill="white"/>
<path d="M235.304 172.235C235.197 172.27 235.086 172.287 234.974 172.285C228.704 176.915 228.974 189.715 231.124 196.405C233.364 203.405 239.694 217.245 248.774 215.725C260.294 213.805 258.564 197.955 255.884 190.015C253.204 182.075 245.634 168.465 235.304 172.235Z" fill="#F7941E"/>
<path fill-rule="evenodd" clip-rule="evenodd" d="M329.864 425.385C326.719 458.41 316.027 490.269 298.614 518.505C297.344 520.565 293.634 519.865 293.804 517.185C293.811 517.093 293.818 517.001 293.825 516.909C293.833 516.81 293.841 516.71 293.85 516.611L293.85 516.608C293.892 516.101 293.934 515.596 293.934 515.095C288.902 525.156 283.279 534.91 277.094 544.305C276.466 545.255 275.824 546.253 275.164 547.279C269.366 556.291 262.158 567.497 250.774 567.595C249.613 567.597 248.595 566.824 248.284 565.705C247.786 562.181 247.475 558.633 247.354 555.075C242.56 560.143 236.097 563.307 229.154 563.985C227.993 563.979 226.977 563.204 226.664 562.085C225.221 557.053 223.788 552.019 222.354 546.984L222.351 546.971L222.347 546.958L222.346 546.955L222.345 546.952C219.907 538.389 217.47 529.827 214.984 521.275C213.764 517.085 212.134 514.705 207.544 514.365C205.408 514.217 203.253 514.201 201.101 514.184H201.1H201.099C200.059 514.176 199.02 514.168 197.984 514.145L177.984 513.705L167.984 513.495C167.182 513.477 166.215 513.379 165.19 513.276C162.892 513.044 160.301 512.783 158.614 513.315C153.062 515.072 155.111 525.727 156.281 531.807C156.483 532.856 156.658 533.768 156.764 534.475C158.709 547.11 162.021 559.497 166.644 571.415C167.504 573.645 164.654 575.325 162.854 574.325C155.262 570.272 148.876 564.283 144.344 556.965L141.224 569.585C141.004 570.353 140.443 570.977 139.704 571.277C138.964 571.578 138.127 571.522 137.434 571.125C119.094 560.264 104.742 543.784 96.5041 524.125C95.8641 525.875 95.2641 527.635 94.7141 529.425C94.0841 531.445 91.0641 532.085 89.9941 530.035C82.6514 515.912 77.8867 500.592 75.9241 484.795C73.8806 490.025 72.4217 495.465 71.5741 501.015C71.1241 503.795 67.3741 503.105 66.5741 501.015C62.3766 489.855 59.2263 478.329 57.1641 466.585C57.1322 466.668 57.0962 466.751 57.0613 466.832L57.0604 466.834L57.0591 466.837C57.0401 466.881 57.0215 466.924 57.0041 466.965C56.0041 469.235 52.8141 469.575 52.0041 466.965C43.4915 439.593 40.4104 410.82 42.9341 382.265C39.5317 389.806 37.0537 397.73 35.5541 405.865C35.0741 408.305 30.9741 408.345 30.5541 405.865C25.9256 378.746 23.584 351.287 23.5541 323.775L21.1841 327.395C20.5793 328.373 19.4045 328.837 18.2949 328.537C17.1853 328.237 16.4043 327.244 16.3741 326.095C14.0412 304.173 15.2908 282.017 20.0741 260.495L5.64413 279.545C4.23413 281.405 0.73413 281.045 0.83413 278.235C2.05711 242.245 11.3637 206.99 28.0641 175.085L22.0641 180.425C21.226 181.217 19.9669 181.362 18.9708 180.782C17.9748 180.202 17.4795 179.035 17.7541 177.915C25.543 141.667 43.0165 108.21 68.3141 81.1054L55.4541 87.1054C53.3641 88.0754 50.2741 85.8854 51.9141 83.5654C71.4572 56.0259 97.7942 34.0124 128.364 19.6654L123.084 19.9754C120.534 20.1654 119.564 16.3354 121.784 15.1654C146.01 2.37736 173.738 -2.18542 200.784 2.16542C201.197 2.222 201.587 2.3877 201.914 2.64542C202.439 2.28241 203.141 2.31097 203.634 2.71542C242.267 -2.61105 281.544 5.76391 314.644 26.3854C315.418 26.86 315.89 27.7026 315.89 28.6104C315.89 29.5182 315.418 30.3609 314.644 30.8354C309.997 33.5999 305.019 33.4978 299.988 33.3947C299.031 33.3751 298.073 33.3554 297.114 33.3554C335.708 66.4569 362.856 110.906 374.684 160.355C374.931 161.361 374.56 162.417 373.739 163.047C372.918 163.678 371.802 163.763 370.894 163.265L364.894 159.935C366.834 182.329 368.771 204.722 370.704 227.115C370.792 227.694 370.638 228.283 370.279 228.744C369.92 229.205 369.386 229.499 368.804 229.555C368.501 230.167 367.985 230.646 367.354 230.905C369.994 251.628 369.994 272.602 367.354 293.325C367.094 295.305 364.584 297.045 362.944 295.145L354.214 285.045C360.174 334.735 351.494 384.655 338.314 432.655C337.764 434.675 334.594 435.335 333.594 433.275L329.864 425.385ZM363.244 153.095L368.294 155.905C364.426 141.312 359.158 127.126 352.564 113.545C341.504 115.475 329.844 118.145 323.014 127.885C315.984 137.915 312.994 152.415 314.924 164.455C316.854 176.495 323.694 188.945 335.454 193.695C341.214 196.025 347.524 196.395 353.674 196.085C354.703 196.03 355.814 195.863 356.952 195.691C358.922 195.394 360.973 195.085 362.824 195.325C361.664 181.992 360.511 168.659 359.364 155.325C359.184 153.295 361.664 152.225 363.244 153.095ZM202.924 7.70542C203.325 7.83166 203.749 7.86584 204.164 7.80542C239.911 2.81328 276.299 9.95778 307.504 28.0954C304.644 28.6696 301.581 28.592 298.53 28.5147C295.629 28.4413 292.739 28.3681 290.044 28.8554C289.163 29.1046 288.479 29.8003 288.245 30.6854C288.011 31.5704 288.262 32.5133 288.904 33.1654C305.01 46.2531 319.317 61.4109 331.454 78.2454C305.554 94.3554 267.454 99.2454 240.274 84.0354C227.832 77.1012 217.736 66.6192 211.274 53.9254C207.875 46.923 205.591 39.4328 204.504 31.7254C204.366 30.838 204.215 29.919 204.061 28.9752C202.967 22.2933 201.671 14.3736 202.924 7.70542ZM266.175 550.875C269.845 545.835 273.325 540.645 276.635 535.355C283.577 524.24 289.752 512.663 295.115 500.705C296.175 498.365 300.085 499.545 299.925 502.005C299.895 502.476 299.865 502.958 299.835 503.447C299.774 504.433 299.712 505.442 299.645 506.425C315.009 478.462 323.833 447.38 325.455 415.515C325.565 413.155 329.095 411.745 330.265 414.205L335.155 424.535C347.815 376.735 355.715 326.855 348.015 277.535C347.655 275.265 350.455 272.855 352.325 275.015C355.852 279.089 359.375 283.162 362.895 287.235C365.126 265.869 364.514 244.301 361.075 223.095C360.3 221.026 359.672 218.904 359.195 216.745C358.485 213.505 363.455 212.135 364.195 215.375C364.365 216.119 364.57 216.846 364.777 217.579L364.815 217.715L363.105 197.895C351.295 200.145 338.295 200.595 328.105 193.475C318.375 186.665 312.765 174.685 311.375 163.105C309.845 150.355 313.215 134.935 321.215 124.665C328.475 115.335 339.855 112.335 350.975 110.335C345.929 100.307 340.178 90.6495 333.765 81.4354C318.945 91.0954 301.345 95.5254 283.815 96.4354C267.155 97.2954 250.895 94.8354 236.465 86.0954C223.495 78.2775 213.191 66.7223 206.905 52.9454C203.375 45.0854 201.575 36.7154 200.525 28.1954C200.389 27.0981 200.23 25.9638 200.067 24.8044C199.257 19.0332 198.359 12.6413 199.875 7.09542C199.718 7.10972 199.561 7.10972 199.405 7.09542C178.248 3.74787 156.581 6.11273 136.645 13.9454L143.055 13.5754C146.175 13.3854 146.275 17.6454 143.745 18.6454C111.726 30.7705 83.5868 51.3381 62.3143 78.1654L79.1444 70.3554C81.6544 69.1854 84.5444 72.2854 82.2644 74.4054C54.1681 100.496 34.1521 134.104 24.5942 171.235L36.0942 161.055C38.2342 159.185 41.7342 161.585 40.1542 164.185C20.6104 196.234 9.04948 232.508 6.44413 269.955L23.4442 247.455C25.1042 245.275 29.0242 246.455 28.1542 249.455C21.7301 271.829 19.2663 295.153 20.8742 318.375L23.9742 313.645C25.3242 311.585 28.8242 312.285 28.7742 314.945C28.3125 340.765 29.9143 366.581 33.5642 392.145C36.2358 383.542 39.9963 375.315 44.7542 367.665C46.4043 365.025 49.8943 366.895 49.4743 369.665C45.0301 399.318 46.8561 429.573 54.8343 458.475C55.1239 457.786 55.4036 457.097 55.6832 456.408L55.6843 456.405C56.0731 455.21 57.2617 454.464 58.5074 454.633C59.7531 454.803 60.6991 455.839 60.7543 457.095C62.2707 468.566 64.8484 479.871 68.4543 490.865C69.78 486.11 71.5339 481.484 73.6943 477.045C74.5543 475.285 76.4343 475.475 77.5544 476.535C79.0285 476.432 80.3121 477.533 80.4344 479.005C81.6549 493.893 85.4902 508.449 91.7644 522.005C92.5444 519.925 93.3844 517.865 94.2844 515.825C95.2544 513.625 98.3644 514.575 99.0044 516.435C105.873 536.367 119.261 553.401 137.005 564.785C138.265 559.539 139.561 554.295 140.895 549.055C141.395 547.035 144.685 546.375 145.605 548.445C148.58 555.243 153.211 561.188 159.075 565.735C154.654 552.736 151.749 539.271 150.415 525.605C150.351 524.937 150.262 524.215 150.169 523.458C149.566 518.535 148.779 512.116 153.355 509.325C155.483 508.036 158.144 508.085 160.581 508.13C161.017 508.138 161.447 508.145 161.865 508.145C164.15 508.185 166.435 508.238 168.72 508.291C170.435 508.331 172.15 508.371 173.865 508.405L199.925 508.975C200.778 508.994 201.67 508.99 202.584 508.986C207.888 508.961 213.911 508.932 217.255 513.445C218.614 515.281 219.238 517.514 219.848 519.702C219.956 520.088 220.064 520.474 220.175 520.855C221.145 524.191 222.1 527.532 223.055 530.871C223.428 532.176 223.801 533.481 224.175 534.785L230.955 558.485C238.366 557.039 244.62 552.099 247.745 545.225C248.845 542.915 252.695 544.045 252.555 546.535C252.231 551.74 252.358 556.963 252.935 562.145C258.775 560.965 262.785 555.515 266.175 550.875Z" fill="#231F20"/>
<path fill-rule="evenodd" clip-rule="evenodd" d="M282.135 284.975C286.935 281.805 291.428 278.192 295.555 274.185C297.935 271.865 294.285 268.185 291.905 270.535C268.305 293.562 233.747 299.854 202.457 305.55L201.385 305.745C176.945 310.195 151.245 312.945 126.675 309.155C125.57 308.454 124.23 308.227 122.955 308.525C111.52 306.509 100.449 302.802 90.1053 297.525C87.1553 296.005 84.5453 300.455 87.4953 301.985C91.914 304.272 96.4732 306.276 101.145 307.985C99.0353 312.635 99.9753 320.075 100.725 324.365C101.635 329.565 104.575 334.865 109.965 336.365C115.355 337.865 121.105 335.175 124.455 330.945C128.145 326.295 128.655 320.315 128.575 314.575C152.355 317.785 177.035 315.305 200.755 311.075C218.275 307.955 236.755 304.645 254.005 298.615C253.545 302.515 255.135 307.765 256.145 310.025C258.725 315.765 264.495 320.315 271.025 319.445C277.265 318.605 281.685 313.265 283.235 307.445C284.052 303.67 284.319 299.797 284.025 295.945C284.002 295.245 283.997 294.545 283.993 293.849V293.847C283.971 290.646 283.95 287.538 282.135 284.975ZM118.136 324.435C116.406 327.545 112.606 329.355 110.315 325.845C108.542 323.135 108.564 319.653 108.586 316.201C108.599 314.164 108.612 312.137 108.255 310.285C112.066 311.415 115.906 312.345 119.786 313.115C119.789 313.375 119.791 313.637 119.794 313.902L119.794 313.904C119.833 317.42 119.876 321.33 118.146 324.435H118.136ZM264.405 308.255C267.365 312.225 271.715 312.055 274.135 307.705H274.175C276.085 304.271 275.833 300.237 275.584 296.257C275.426 293.736 275.27 291.237 275.665 288.925C270.861 291.631 265.884 294.016 260.765 296.065C260.799 296.217 260.822 296.371 260.835 296.525C260.965 300.205 262.185 305.255 264.405 308.255Z" fill="#231F20"/>
<path fill-rule="evenodd" clip-rule="evenodd" d="M78.3759 180.035C86.9563 180.955 92.5366 190.625 88.3763 198.335C84.2561 205.955 73.0756 207.735 67.7453 200.425C66.5213 198.801 65.7983 196.855 65.6652 194.825C63.7751 191.805 65.3752 187.355 67.4653 184.745C70.0664 181.425 74.1751 179.651 78.3759 180.035ZM73.8352 194.755C75.3552 197.505 79.2252 196.895 80.6052 194.335V194.355C81.9852 191.795 79.3852 188.265 76.4952 189.025C74.7252 189.495 73.9552 191.095 73.2552 192.755C73.3039 193.456 73.5017 194.138 73.8352 194.755Z" fill="#231F20"/>
<path fill-rule="evenodd" clip-rule="evenodd" d="M301.275 189.395C298.455 192.395 294.365 193.315 290.365 192.805C286.615 192.325 281.965 191.035 280.975 186.815C280.245 183.655 281.525 179.565 283.195 176.895C283.749 175.986 284.421 175.156 285.195 174.425C287.175 169.975 294.585 168.865 298.945 171.275C305.395 174.845 306.165 184.185 301.275 189.395ZM290.116 179.998C290.101 180.063 290.088 180.123 290.075 180.175C289.785 181.328 289.614 182.508 289.565 183.695C291.035 184.215 293.535 184.205 294.435 183.505C295.348 182.689 295.706 181.418 295.355 180.245C294.875 178.895 293.665 178.755 292.355 178.755C291.684 178.797 291.016 178.881 290.355 179.005C290.252 179.396 290.174 179.742 290.116 179.998Z" fill="#231F20"/>
<path fill-rule="evenodd" clip-rule="evenodd" d="M215.474 99.0354C241.383 96.5354 254.293 146.745 226.074 145.485C213.614 144.925 205.235 131.905 203.485 120.625C202.525 114.335 203.435 105.745 208.635 101.335C210.528 99.7075 212.982 98.8823 215.474 99.0354ZM214.555 101.985C211.645 102.475 209.145 104.185 207.645 108.095C205.734 113.545 205.77 119.489 207.745 124.915C210.625 133.455 217.525 142.795 227.525 142.305C242.025 141.595 240.105 124.455 235.465 115.255C231.005 106.395 223.555 102.935 214.555 101.985Z" fill="#231F20"/>
<path fill-rule="evenodd" clip-rule="evenodd" d="M186.975 76.3454C184.795 78.8354 180.535 79.5454 177.424 79.0954C169.074 77.8954 166.774 67.1654 170.124 60.4953C171.597 57.2832 174.692 55.1183 178.214 54.8353C179.817 54.4731 181.492 54.6092 183.015 55.2253C186.465 56.6353 188.295 59.9353 188.795 63.4754C189.325 67.2154 189.675 73.2554 186.975 76.3454ZM174.654 59.0153C173.395 60.1828 172.461 61.6578 171.944 63.2953V63.3153C170.674 67.6953 171.844 74.8353 176.964 76.0753C180.544 76.9453 184.644 75.3453 185.544 71.6753C185.909 69.6023 185.98 67.4881 185.754 65.3953C185.554 62.2353 184.494 58.9053 181.044 57.9053C179.206 57.3933 177.31 58.1435 175.585 58.8261C175.423 58.8902 175.263 58.9536 175.104 59.0153C174.959 59.0698 174.799 59.0698 174.654 59.0153Z" fill="#231F20"/>
<path fill-rule="evenodd" clip-rule="evenodd" d="M189.413 183.745C189.413 193.655 184.033 207.525 173.413 210.365C160.073 213.915 158.983 196.505 160.583 187.795C162.033 179.985 167.243 169.115 175.493 167.415C178.933 166.095 182.733 165.935 185.413 169.095C188.593 172.815 189.413 179.065 189.413 183.745ZM176.333 169.975C169.863 172.275 165.943 179.115 164.163 185.895C162.323 192.925 161.703 213.815 175.133 206.305C181.933 202.535 185.623 193.405 186.133 186.035C186.384 182.621 186.014 179.189 185.043 175.905C183.443 170.605 180.433 169.595 176.333 169.975Z" fill="#231F20"/>
<path fill-rule="evenodd" clip-rule="evenodd" d="M226.552 191.746C225.322 183.546 228.852 168.596 238.372 168.406C248.252 166.226 257.072 182.426 259.402 189.936C262.542 199.966 262.482 218.166 248.272 219.306C235.852 220.296 228.022 201.546 226.552 191.746ZM248.772 215.726C260.292 213.806 258.562 197.956 255.882 190.016C253.152 181.926 245.632 168.466 235.302 172.236C235.196 172.271 235.084 172.287 234.972 172.286C228.702 176.916 228.972 189.716 231.122 196.406C233.362 203.366 239.692 217.246 248.772 215.726Z" fill="#231F20"/>
</svg>
