<svg width="579" height="461" viewBox="0 0 579 461" fill="none" xmlns="http://www.w3.org/2000/svg">
<path d="M505.577 381.109C487.847 357.839 460.047 336.909 429.877 345.379C430.606 347.568 431.161 349.812 431.537 352.089C452.027 354.419 469.977 369.449 483.537 383.989C492.747 393.899 501.017 404.639 510.107 414.649C516.177 421.319 522.687 428.939 530.647 433.149C536.097 431.679 541.507 430.039 546.917 428.439L549.687 427.619C543.18 424.895 537.249 420.962 532.207 416.029C521.537 405.899 514.407 392.709 505.577 381.109Z" fill="#00AEEF"/>
<path d="M489.527 397.059C473.437 378.119 455.917 361.679 431.947 355.329C432.077 356.699 432.157 358.079 432.157 359.469C432.162 359.777 432.135 360.086 432.077 360.389C448.577 372.709 459.167 391.959 471.967 407.689C478.707 415.969 486.317 423.749 495.217 429.689C499.694 432.733 504.535 435.202 509.627 437.039C514.476 436.671 519.288 435.919 524.017 434.789L524.787 434.599C521.872 432.328 519.091 429.891 516.457 427.299C506.667 417.999 498.267 407.349 489.527 397.059Z" fill="#00AEEF"/>
<path d="M473.287 415.539C465.687 406.969 459.207 397.489 452.417 388.289C446.515 380.322 440.13 372.724 433.297 365.539C435.157 379.479 444.767 391.819 452.667 402.969C460.007 413.379 468.407 423.829 479.407 430.539C485.453 434.173 492.249 436.379 499.277 436.989C498.517 436.569 497.777 436.159 497.067 435.739C488.037 430.459 480.177 423.299 473.287 415.539Z" fill="#00AEEF"/>
<path d="M485.547 225.119C473.727 233.489 460.547 239.639 448.267 247.229C435.327 255.229 422.647 265.129 416.267 279.359C409.887 293.589 411.157 309.179 412.847 324.359L413.507 324.599C415.567 300.029 429.877 275.939 448.877 261.129C461.877 251.039 477.157 244.129 488.997 232.609C494.669 227.046 499.41 220.607 503.037 213.539C503.267 211.939 503.517 210.339 503.807 208.739C498.667 215.209 491.827 220.669 485.547 225.119Z" fill="#00AEEF"/>
<path d="M461.408 257.539C448.008 266.289 436.558 276.879 428.538 290.869C422.088 302.109 418.788 313.989 417.088 326.479C418.161 327.227 419.165 328.071 420.088 328.999C425.878 310.709 439.958 293.619 454.238 282.249C464.318 274.249 476.748 269.769 486.618 261.589C493.128 256.189 497.158 249.689 500.078 242.509C500.658 236.369 501.138 230.209 501.778 224.089C500.338 226.179 498.778 228.209 497.168 230.149C487.308 241.869 473.998 249.299 461.408 257.539Z" fill="#00AEEF"/>
<path d="M464.058 280.349C452.964 287.488 443.352 296.699 435.748 307.479C430.218 315.309 426.548 323.699 422.928 332.319C423.428 332.959 423.928 333.619 424.358 334.319C431.458 322.459 441.278 311.209 452.498 303.829C460.288 298.699 469.208 295.829 477.498 291.659C483.644 288.714 488.98 284.317 493.048 278.849C494.976 273.551 496.435 268.093 497.408 262.539C497.868 260.049 498.248 257.539 498.598 255.049C497.598 256.429 496.598 257.759 495.508 259.049C486.988 268.939 474.818 273.439 464.058 280.349Z" fill="#00AEEF"/>
<path d="M426.258 337.279C427.265 339.024 428.148 340.839 428.898 342.709C453.548 334.089 479.848 347.159 497.368 365.159C507.918 375.979 515.708 388.709 524.638 400.799C533.568 412.889 543.638 421.799 557.478 425.299L559.158 424.809C559.768 424.629 561.028 424.309 562.448 423.949C561.218 423.429 560.198 422.949 559.888 422.819C556.849 421.339 553.907 419.669 551.078 417.819C545.777 414.35 541.092 410.021 537.218 405.009C529.478 394.899 524.668 382.839 517.898 372.099C503.588 349.399 481.428 329.099 452.898 330.409C447.528 330.659 445.758 323.039 450.208 320.469C461.918 313.719 474.118 306.819 482.988 296.379C484.471 294.618 485.84 292.764 487.088 290.829C479.088 296.099 468.938 299.429 461.418 303.109C445.538 310.849 436.618 324.129 426.258 337.279Z" fill="#00AEEF"/>
<path d="M281.708 157.019C282.084 155.934 282.132 154.762 281.848 153.649C281.578 152.819 281.938 153.289 281.748 153.069C281.188 152.359 280.218 152.599 280.478 152.659C280.55 152.671 280.625 152.671 280.698 152.659C280.625 152.671 280.55 152.671 280.478 152.659C279.93 152.651 279.391 152.525 278.898 152.289C278.03 153.464 277.833 155.004 278.378 156.359C279.078 157.929 280.908 158.779 281.708 157.019Z" fill="white"/>
<path d="M17.9778 401.689C15.8778 403.689 10.5578 406.599 9.62784 409.259C7.87784 414.259 17.9978 414.879 20.6278 415.099C29.1649 415.679 37.7206 414.279 45.6278 411.009C53.4867 407.773 60.7655 403.277 67.1778 397.699C72.7678 392.919 77.1778 386.769 82.6878 381.969C73.1759 367.823 65.6554 352.435 60.3378 336.239C53.0678 361.059 36.1878 384.629 17.9778 401.689Z" fill="#00AEEF"/>
<path d="M232.947 99.1689C233.436 100.154 233.497 101.297 233.117 102.329C233.497 105.439 234.027 108.499 236.297 111.499C240.347 116.839 246.627 118.859 253.157 117.689C268.507 114.919 277.877 98.5989 286.337 87.1089C303.887 63.2689 320.647 38.6489 338.557 15.0389L337.867 15.5989L322.037 27.9889C312.11 35.7556 302.18 43.5256 292.247 51.2989C281.987 59.2989 271.71 67.2789 261.417 75.2389C256.47 79.0923 251.514 82.9389 246.547 86.7789C244.497 88.3589 231.667 96.3589 232.947 99.1689Z" fill="#F7941E"/>
<path fill-rule="evenodd" clip-rule="evenodd" d="M404.837 337.893C406.323 336.135 408.334 333.756 409.948 334.029C412.053 334.394 414.715 338.489 416.056 340.551L416.207 340.783C416.279 340.893 416.346 340.995 416.408 341.089C419.384 345.695 421.149 350.979 421.538 356.449L421.118 356.849C383.418 396.849 340.008 436.439 284.118 446.849C255.438 452.189 226.098 447.259 197.998 440.919C171.698 434.999 145.528 426.299 123.768 409.919C82.2077 378.609 62.1077 326.399 58.7677 275.799C56.8077 246.029 59.9177 216.129 65.5677 186.909C70.7077 160.389 78.0577 133.459 94.3477 111.389C110.948 88.909 135.988 72.949 162.688 65.289C193.828 56.359 227.018 58.469 258.018 66.909L245.128 77.159C243.519 78.4397 241.803 79.7046 240.063 80.9867L240.063 80.9868L240.063 80.9869L240.062 80.987C235.757 84.1598 231.309 87.4376 227.998 91.319C227.407 92.0145 226.878 92.7607 226.418 93.549C221.748 97.999 223.388 106.329 225.638 111.629C228.097 117.553 232.59 122.404 238.308 125.309C253.798 132.899 270.608 122.649 280.528 110.899C285.498 105.009 290.168 98.839 294.708 92.559C307.988 110.499 317.038 130.969 323.588 152.259C328.568 168.46 332.335 185.009 334.858 201.769C334.504 202.38 334.466 203.125 334.758 203.769C334.928 204.179 335.118 204.559 335.318 204.939C336.484 213.246 337.344 221.579 337.898 229.939C338.728 242.759 338.788 255.569 338.338 268.399C337.908 280.689 337.488 293.049 339.798 305.199C343.398 324.139 355.698 343.289 375.978 346.629C385.708 348.229 396.038 346.109 403.488 339.389C403.843 339.068 404.306 338.52 404.837 337.893ZM68.828 271.845C70.4743 283.02 72.3104 295.483 77.0977 305.539C77.4162 306.045 78.0273 306.283 78.6041 306.127C79.1808 305.971 79.588 305.456 79.6077 304.859C79.2537 298.076 77.5029 291.27 75.7623 284.503C74.7006 280.376 73.6427 276.263 72.9077 272.179C70.7248 260.127 69.7799 247.883 70.0877 235.639C70.1177 234.479 68.2077 234.169 68.0177 235.359C66.2677 246.939 66.8077 258.219 68.5377 269.879C68.6342 270.529 68.7308 271.185 68.828 271.845ZM91.8977 340.009C87.1064 335.296 84.9672 327.835 83.1566 321.519L83.0677 321.209C82.6577 319.809 84.6577 319.369 85.1777 320.629C86.1518 322.946 87.356 325.237 88.5663 327.54C90.5368 331.289 92.5231 335.068 93.5577 339.039C93.682 339.475 93.4976 339.94 93.1083 340.172C92.7189 340.404 92.2222 340.346 91.8977 340.029V340.009ZM297.898 187.829C298.902 186.019 298.902 183.819 297.898 182.009L297.858 181.989C296.612 179.905 294.209 178.806 291.818 179.229C290.531 179.244 289.274 179.618 288.188 180.309C286.729 181.165 285.832 182.728 285.828 184.419C285.871 186.102 286.758 187.651 288.188 188.539L288.588 188.709L288.788 188.949C289.68 189.843 290.852 190.404 292.108 190.539C294.409 190.893 296.696 189.823 297.898 187.829ZM270.308 148.339C272.079 145.382 274.918 143.217 278.238 142.289C279.805 141.969 281.421 141.969 282.988 142.289C283.669 142.455 284.315 142.74 284.898 143.129C286.4 143.501 287.779 144.26 288.898 145.329C291.758 147.989 292.588 152.329 292.328 156.039C291.778 164.039 284.928 170.479 276.688 167.529C269.168 164.859 266.148 155.029 270.308 148.339ZM205.328 172.889C204.728 171.139 202.078 170.429 201.078 172.339C193.508 187.539 211.988 203.209 226.298 201.389C233.348 200.499 240.118 196.059 242.118 188.929C243.234 184.91 243.021 180.31 242.821 175.985L242.821 175.984C242.767 174.81 242.713 173.656 242.688 172.539C242.674 171.946 242.669 171.346 242.664 170.742V170.741C242.628 166.444 242.59 161.965 239.478 158.809C238.419 157.764 236.717 157.764 235.658 158.809C232.184 162.444 232.578 168.454 232.964 174.354C233.439 181.6 233.902 188.679 227.178 190.989C214.978 195.179 208.448 182.009 205.328 172.889ZM130.548 163.459C131.098 160.169 133.628 156.749 136.818 154.719C138.368 152.369 140.868 151.109 144.348 151.319C148.768 151.589 152.248 155.039 153.828 158.959C156.828 166.459 154.378 179.849 144.458 179.759C136.248 179.689 129.178 171.619 130.548 163.459ZM126.476 192.442C124.186 190.907 121.131 191.203 119.178 193.149C118.105 194.242 117.496 195.707 117.478 197.239C117.476 199.996 119.421 202.37 122.125 202.911C124.828 203.451 127.537 202.007 128.595 199.462C129.653 196.916 128.766 193.977 126.476 192.442ZM175.318 418.059C162.148 419.219 148.048 413.569 136.998 406.759C125.568 399.759 115.468 389.869 109.858 377.549C109.639 377.111 109.797 376.579 110.219 376.332C110.64 376.084 111.182 376.205 111.458 376.609C119.228 387.409 128.158 397.069 139.668 403.939C150.687 410.516 161.908 412.795 174.041 415.258C174.581 415.368 175.124 415.478 175.668 415.589C177.138 415.899 176.628 417.939 175.318 418.059ZM254.938 379.179C270.868 384.809 290.038 386.049 305.318 377.809H305.408C319.258 370.309 328.118 353.429 323.718 337.739C321.693 330.496 316.634 325.574 311.497 320.576C310.344 319.453 309.186 318.326 308.058 317.169C301.033 309.963 295.455 301.476 291.628 292.169C288.349 284.095 286.675 275.539 285.003 266.992C282.825 255.861 280.651 244.746 274.938 234.739C265.188 217.679 246.738 208.949 227.938 216.859C217.578 221.219 209.038 230.159 204.448 240.649C203.908 241.649 203.388 242.699 202.908 243.699C194.528 261.969 193.328 285.759 195.598 305.469C199.448 338.919 223.278 367.969 254.938 379.179Z" fill="#88E0FF"/>
<path d="M143.007 169.449L143.587 169.519C143.587 167.599 144.757 165.769 144.297 163.719C143.837 161.669 142.737 161.929 141.297 162.269C140.89 162.529 140.44 162.715 139.967 162.819C139.875 163.014 139.795 163.214 139.727 163.419C138.978 165.989 140.443 168.682 143.007 169.449Z" fill="white"/>
<path d="M304.607 326.129C293.841 315.927 285.774 303.214 281.127 289.129C275.877 273.039 275.927 255.069 267.607 240.029C261.977 229.829 252.677 222.959 242.097 222.879C241.911 222.963 241.71 223.007 241.507 223.009C238.816 223.083 236.146 223.51 233.567 224.279C232.286 224.7 231.036 225.211 229.827 225.809C214.577 233.279 211.207 249.209 205.927 263.809C205.756 264.253 205.461 264.638 205.077 264.919C202.127 282.509 202.187 302.429 207.557 319.199C216.037 345.649 239.217 366.879 266.357 372.819C280.197 375.819 297.537 374.959 307.997 364.149C313.107 358.879 316.637 351.059 315.997 343.619C315.247 335.909 309.867 331.169 304.607 326.129Z" fill="#00AEEF"/>
<path d="M407.318 324.019C408.047 323.882 408.787 323.818 409.528 323.829C407.198 310.219 406.788 295.769 411.108 282.719C415.428 269.669 424.888 259.209 435.848 250.979C448.158 241.729 462.138 235.169 475.168 227.069C481.701 223.152 487.83 218.6 493.468 213.479C497.01 210.055 500.169 206.256 502.888 202.149C491.958 207.149 480.228 210.489 468.768 214.349C453.318 219.569 439.278 227.009 427.468 238.409C405.988 259.149 390.678 296.099 407.318 324.019Z" fill="#00AEEF"/>
<path d="M349.027 248.139C362.787 246.139 376.547 236.349 386.727 227.729C392.581 222.917 397.351 216.923 400.727 210.139C402.566 206.326 403.911 202.293 404.727 198.139C405.327 195.139 406.597 190.959 402.287 193.139C396.087 196.249 391.497 201.899 385.417 205.259C379.449 208.448 372.949 210.522 366.237 211.379C361.007 212.129 353.137 213.049 346.447 211.819C347.241 218.232 347.857 224.656 348.297 231.089C348.747 236.769 348.947 242.449 349.027 248.139Z" fill="#00AEEF"/>
<path fill-rule="evenodd" clip-rule="evenodd" d="M415.687 236.539C394.877 260.069 381.577 299.389 400.017 327.969L400 327.985L399.999 327.986L399.999 327.986C399.625 328.33 399.261 328.665 398.897 329.049C391.787 336.459 382.167 338.539 372.457 334.829C361.717 330.739 355.047 320.069 351.797 309.529C347.917 296.939 348.347 283.639 348.797 270.619C348.924 266.466 349.014 262.319 349.067 258.179C364.507 256.329 378.757 246.629 390.707 237.289C403.707 227.119 413.847 212.359 415.287 195.509C415.797 189.649 413.797 183.179 407.287 182.139C400.267 181.01 393.926 186.332 388.733 190.69C388.223 191.118 387.725 191.537 387.237 191.939C380.554 197.498 372.442 201.068 363.827 202.239C358.017 203.109 351.337 203.919 345.307 202.779C342.796 185.907 339.049 169.242 334.097 152.919C326.827 129.039 317.007 104.619 298.587 87.2189C300.752 84.1609 302.896 81.0869 305.037 78.0163L305.038 78.0144L305.04 78.0126L305.041 78.0107L305.042 78.0089L305.044 78.007L305.045 78.0052L305.046 78.0033L305.047 78.0015L305.049 77.9996L305.051 77.9962C308.773 72.6592 312.488 67.3327 316.287 62.1189C320.423 56.4423 324.634 50.8001 328.847 45.1539L328.848 45.153C337.676 33.3238 346.517 21.4769 354.707 9.25894C356.357 6.79894 354.817 3.95894 352.587 2.74894C352.045 1.55063 350.99 0.661352 349.717 0.328938C344.207 -1.02106 340.077 2.00894 335.927 5.32894L317.327 19.9589C305.267 29.4789 293.217 39.0056 281.177 48.5389L264.627 61.6989C264.138 61.0159 263.434 60.5161 262.627 60.2789C208.427 42.6289 145.497 48.8289 102.197 88.2789C81.4575 107.199 69.1975 132.419 61.8275 159.169C53.6686 189.119 49.1626 219.946 48.4075 250.979C47.8375 275.169 50.2475 299.799 56.4575 323.249C49.4575 340.909 42.7275 357.759 31.4075 373.249C25.5693 381.247 18.9902 388.676 11.7575 395.439C10.8917 396.25 9.90949 397.082 8.89064 397.945C3.94334 402.135 -1.86876 407.058 0.577469 413.899C3.15747 421.099 11.9675 422.849 18.5775 423.709C28.2342 424.885 38.0322 423.8 47.1975 420.539C55.844 417.417 63.9007 412.856 71.0275 407.049C77.0275 402.319 83.9375 396.559 88.5775 390.049C92.5193 395.174 96.767 400.056 101.297 404.669C120.617 424.329 144.917 437.129 171.037 445.349C199.687 454.349 231.247 460.969 261.377 460.479C327.377 459.419 380.457 415.929 423.887 370.309C425.397 380.619 430.887 389.749 436.687 398.539C442.967 408.049 449.467 417.539 457.257 425.879C465.047 434.219 474.037 441.019 484.687 444.879C497.187 449.419 510.797 448.519 523.597 445.879C534.152 443.69 544.528 440.509 554.867 437.338L554.868 437.338C558.37 436.264 561.868 435.191 565.367 434.159C566.119 433.938 566.92 433.733 567.742 433.522C571.824 432.479 576.438 431.299 578.177 427.279C580.508 421.869 576.227 418.489 571.797 416.459C558.997 410.609 548.617 404.059 541.267 391.709C539.002 387.906 536.88 384.038 534.76 380.174C530.816 372.985 526.88 365.811 522.047 359.099C509.157 341.209 491.157 325.989 469.747 321.209C476.939 316.8 483.515 311.461 489.307 305.329C498.237 295.509 503.697 283.389 506.637 270.539C509.079 259.806 510.031 248.811 510.981 237.825C512.365 221.819 513.748 205.835 519.737 190.719C521.397 186.529 515.587 182.129 511.957 184.719C500.701 192.823 487.752 197.105 474.774 201.397C468.694 203.408 462.609 205.42 456.687 207.829C440.989 214.107 426.956 223.934 415.687 236.539ZM366.287 211.329C373 210.472 379.499 208.398 385.467 205.209C388.367 203.606 390.928 201.485 393.487 199.366L393.487 199.366C396.292 197.042 399.095 194.721 402.337 193.089C406.191 191.158 405.552 194.279 404.973 197.106C404.905 197.44 404.837 197.771 404.777 198.089C403.961 202.243 402.617 206.276 400.777 210.089C397.402 216.873 392.631 222.867 386.777 227.679C376.597 236.299 362.837 246.089 349.077 248.089C348.997 242.399 348.797 236.719 348.397 231.019C347.957 224.592 347.341 218.169 346.547 211.749C353.187 213.029 361.057 212.109 366.287 211.359V211.329ZM322.077 27.9589C312.157 35.7523 302.227 43.5223 292.287 51.2689L292.247 51.2989C281.974 59.2789 271.711 67.2489 261.457 75.2089C256.517 79.0623 251.561 82.9089 246.587 86.7489C246.222 87.0308 245.513 87.5168 244.603 88.1413C240.409 91.0177 231.936 96.8302 232.987 99.1389C233.476 100.124 233.538 101.267 233.157 102.299C233.537 105.409 234.067 108.469 236.337 111.469C240.387 116.809 246.667 118.829 253.197 117.659C266.421 115.273 275.206 102.831 282.795 92.084C284.016 90.3555 285.205 88.6709 286.377 87.0789C293.723 77.1011 300.93 66.9866 308.14 56.8668C318.158 42.8073 328.183 28.7374 338.597 15.0089L337.907 15.5689L322.077 27.9589ZM67.1875 397.699C60.7752 403.277 53.4964 407.773 45.6375 411.009C37.7303 414.279 29.1746 415.679 20.6375 415.099C20.5563 415.092 20.4679 415.085 20.3729 415.077L20.3643 415.076C17.3835 414.832 7.95301 414.061 9.63747 409.259C10.2718 407.445 12.9486 405.495 15.2528 403.817C16.3268 403.035 17.3199 402.312 17.9875 401.689C36.1975 384.629 53.0775 361.059 60.3475 336.239C65.6682 352.436 73.1921 367.823 82.7075 381.969C80.0319 384.308 77.6058 386.968 75.1743 389.634L75.174 389.634C72.6165 392.438 70.0531 395.249 67.1875 397.699ZM284.187 446.929C340.077 436.499 383.487 396.929 421.187 356.929L421.557 356.539C421.166 351.052 419.391 345.754 416.397 341.139C416.337 341.046 416.271 340.945 416.199 340.836C414.915 338.866 412.023 334.43 409.947 334.079C408.333 333.806 406.323 336.184 404.836 337.943C404.306 338.57 403.842 339.118 403.487 339.439C396.037 346.159 385.707 348.279 375.977 346.679C355.697 343.339 343.397 324.189 339.797 305.249C337.487 293.099 337.907 280.739 338.337 268.449C338.787 255.619 338.727 242.809 337.897 229.989C337.344 221.609 336.484 213.276 335.317 204.989C335.117 204.609 334.927 204.229 334.757 203.819C334.466 203.175 334.503 202.43 334.857 201.819C332.335 185.059 328.568 168.51 323.587 152.309C317.037 131.019 307.987 110.549 294.707 92.6089C290.167 98.8889 285.527 105.059 280.527 110.949C270.607 122.699 253.797 132.959 238.307 125.359C232.589 122.454 228.096 117.603 225.637 111.679C223.417 106.379 221.747 98.0489 226.417 93.5989C226.878 92.8106 227.406 92.0644 227.997 91.3689C231.309 87.4875 235.757 84.2097 240.062 81.0369C241.802 79.7547 243.519 78.4897 245.127 77.2089L258.017 66.9589C227.007 58.5189 193.827 56.4089 162.687 65.3389C135.987 72.9989 110.947 88.9589 94.3475 111.439C78.0575 133.539 70.7075 160.409 65.6375 186.989C59.9875 216.209 56.8375 246.109 58.8375 275.879C62.1575 326.479 82.2575 378.689 123.837 409.999C145.597 426.369 171.767 435.069 198.067 440.999C226.187 447.339 255.507 452.269 284.187 446.929ZM479.407 430.539C468.407 423.859 460.037 413.409 452.697 403.039C452.002 402.057 451.293 401.066 450.577 400.066C443.165 389.703 435.024 378.322 433.327 365.609C440.144 372.769 446.516 380.34 452.407 388.279C453.927 390.338 455.431 392.41 456.935 394.483L456.935 394.484L456.935 394.484L456.935 394.484L456.936 394.484L456.936 394.484L456.936 394.484L456.936 394.485C462.154 401.677 467.378 408.877 473.277 415.529C480.167 423.299 488.027 430.459 497.027 435.709C497.737 436.129 498.477 436.539 499.237 436.959C492.226 436.352 485.444 434.157 479.407 430.539ZM509.657 437.099C514.506 436.732 519.318 435.979 524.047 434.849L524.818 434.689C521.902 432.418 519.121 429.981 516.487 427.389C508.699 419.967 501.791 411.71 494.892 403.463L494.888 403.458C493.115 401.34 491.344 399.222 489.557 397.119C473.467 378.179 455.977 361.739 431.977 355.389C432.107 356.759 432.187 358.139 432.187 359.529C432.192 359.838 432.166 360.146 432.107 360.449C443.601 369.017 452.228 380.968 460.731 392.748L460.731 392.749C464.434 397.879 468.114 402.977 471.997 407.749C478.737 415.999 486.347 423.749 495.247 429.749C499.724 432.793 504.565 435.262 509.657 437.099ZM545.333 428.938L543.992 429.337L543.988 429.338C539.553 430.655 535.114 431.974 530.647 433.179C523.371 429.35 517.36 422.7 511.765 416.509L511.761 416.504L511.732 416.473C511.421 416.128 511.11 415.784 510.801 415.443C510.569 415.187 510.338 414.932 510.107 414.679C505.85 409.995 501.772 405.147 497.694 400.298L497.693 400.296C493.064 394.792 488.433 389.287 483.537 384.019C470.007 369.479 452.057 354.449 431.537 352.119C431.162 349.842 430.607 347.598 429.877 345.409C460.047 336.939 487.877 357.869 505.577 381.139C508.525 385.006 511.285 389.05 514.049 393.099L514.049 393.1C519.574 401.194 525.112 409.306 532.177 416.059C537.219 420.992 543.151 424.925 549.657 427.649L546.917 428.469C546.389 428.625 545.861 428.782 545.333 428.938ZM451.05 319.969C462.503 313.37 474.337 306.552 482.997 296.359C484.494 294.599 485.877 292.745 487.137 290.809C481.838 294.298 475.618 296.931 469.838 299.377L469.837 299.378C466.87 300.634 464.018 301.841 461.467 303.089C447.493 309.914 438.909 321.008 429.996 332.528C428.774 334.107 427.546 335.694 426.297 337.279C427.305 339.024 428.187 340.839 428.937 342.709C453.587 334.089 479.887 347.159 497.407 365.159C504.97 372.944 511.144 381.734 517.328 390.537L517.329 390.537C519.739 393.969 522.151 397.402 524.647 400.779C533.547 412.819 543.647 421.809 557.487 425.279L559.167 424.789C559.777 424.609 561.037 424.289 562.457 423.929C561.227 423.409 560.207 422.949 559.897 422.799C556.859 421.319 553.916 419.649 551.087 417.799C545.786 414.33 541.102 410.001 537.227 404.989C532.596 398.939 529.013 392.19 525.432 385.445L525.432 385.444L525.431 385.443C523.028 380.917 520.626 376.391 517.907 372.079C503.587 349.389 481.427 329.059 452.907 330.389C447.537 330.639 445.767 323.019 450.217 320.449L451.05 319.969ZM497.407 262.539C496.428 268.094 494.963 273.551 493.027 278.849C488.96 284.317 483.623 288.714 477.477 291.659C474.393 293.229 471.219 294.602 468.045 295.974L468.044 295.974C462.708 298.281 457.375 300.587 452.477 303.829C441.257 311.209 431.477 322.459 424.337 334.319C423.877 333.649 423.407 332.989 422.907 332.319C426.527 323.699 430.197 315.319 435.727 307.479C443.332 296.699 452.944 287.488 464.037 280.349C467.255 278.283 470.598 276.432 473.932 274.587C481.749 270.26 489.515 265.961 495.487 258.979C496.557 257.729 497.587 256.399 498.577 254.979C498.247 257.539 497.867 260.019 497.407 262.539ZM486.567 261.619C493.077 256.219 497.107 249.719 500.027 242.539C500.272 239.943 500.498 237.348 500.724 234.759L500.725 234.748L500.725 234.746C501.035 231.188 501.345 227.642 501.697 224.119C500.257 226.179 498.717 228.239 497.087 230.179C488.862 240.006 478.176 246.817 467.505 253.618C465.449 254.928 463.394 256.238 461.357 257.569C447.957 266.319 436.487 276.899 428.487 290.899C422.037 302.139 418.737 314.019 417.037 326.509C418.111 327.257 419.115 328.101 420.037 329.029C425.827 310.739 439.907 293.649 454.187 282.279C459.088 278.38 464.544 275.322 469.991 272.27C475.748 269.043 481.496 265.822 486.567 261.619ZM503.027 213.539C499.396 220.601 494.652 227.033 488.977 232.589C481.958 239.425 473.712 244.633 465.462 249.844L465.462 249.844C459.796 253.422 454.13 257.001 448.857 261.109C429.857 275.919 415.547 300.009 413.487 324.579L412.827 324.339C411.137 309.169 409.827 293.689 416.247 279.339C422.667 264.989 435.317 255.199 448.247 247.209C453.079 244.228 458.043 241.468 463.006 238.71L463.007 238.709C470.679 234.445 478.35 230.181 485.527 225.099C491.807 220.649 498.647 215.189 503.787 208.729C503.517 210.349 503.267 211.949 503.037 213.539H503.027ZM502.864 202.16C502.868 202.153 502.873 202.146 502.877 202.139L502.887 202.149C502.88 202.153 502.872 202.156 502.864 202.16ZM493.457 213.469C496.993 210.051 500.147 206.259 502.864 202.16C494.292 206.11 485.228 209.022 476.184 211.928C473.704 212.725 471.225 213.522 468.757 214.339C453.307 219.559 439.267 226.999 427.457 238.399C405.977 259.139 390.667 296.089 407.307 324.009C408.036 323.872 408.776 323.808 409.517 323.819C407.187 310.209 406.717 295.909 411.097 282.709C415.477 269.509 424.837 259.199 435.837 250.969C443.643 245.109 452.122 240.328 460.595 235.551C465.495 232.789 470.394 230.027 475.157 227.059C481.69 223.142 487.82 218.59 493.457 213.469Z" fill="#231F20"/>
<path fill-rule="evenodd" clip-rule="evenodd" d="M291.647 292.199C295.474 301.506 301.052 309.993 308.077 317.199C309.222 318.379 310.397 319.525 311.568 320.667C316.686 325.659 321.715 330.563 323.717 337.839C328.097 353.459 319.237 370.339 305.337 377.839C290.057 386.079 270.887 384.849 254.957 379.209C223.297 367.999 199.467 338.949 195.617 305.499C193.347 285.789 194.547 261.999 202.927 243.729C203.407 242.679 203.917 241.679 204.467 240.679C209.057 230.189 217.597 221.249 227.957 216.889C246.777 208.979 265.227 217.709 274.957 234.769C280.67 244.776 282.845 255.891 285.022 267.022C286.694 275.569 288.368 284.125 291.647 292.199ZM266.357 372.869C280.197 375.889 297.537 375.009 307.997 364.199V364.159C313.107 358.889 316.637 351.069 315.957 343.679C315.278 336.294 310.324 331.599 305.291 326.828C305.063 326.612 304.835 326.396 304.607 326.179C293.841 315.977 285.774 303.264 281.127 289.179C279.091 282.937 277.853 276.409 276.614 269.881C274.657 259.572 272.701 249.263 267.607 240.079C261.977 229.879 252.677 223.009 242.097 222.929C241.911 223.013 241.71 223.058 241.507 223.059C238.816 223.133 236.146 223.56 233.567 224.329C232.286 224.75 231.036 225.261 229.827 225.859C216.687 232.312 212.367 245.032 208.046 257.754C207.352 259.798 206.658 261.841 205.927 263.859C205.756 264.303 205.461 264.688 205.077 264.969C202.127 282.559 202.187 302.479 207.557 319.249C216.037 345.699 239.217 366.929 266.357 372.869Z" fill="#231F20"/>
<path fill-rule="evenodd" clip-rule="evenodd" d="M153.828 158.959C156.858 166.459 154.378 179.849 144.458 179.759C136.248 179.689 129.178 171.619 130.548 163.459C131.098 160.169 133.628 156.719 136.818 154.719C138.348 152.369 140.868 151.109 144.348 151.319C148.768 151.589 152.248 155.039 153.828 158.959ZM139.948 162.819C139.856 163.014 139.776 163.214 139.708 163.419C138.958 165.989 140.423 168.682 142.988 169.449L143.568 169.519C143.58 168.742 143.774 167.991 143.97 167.232C144.259 166.115 144.552 164.981 144.278 163.719C143.833 161.669 142.809 161.91 141.422 162.235C141.374 162.246 141.326 162.258 141.278 162.269C140.87 162.529 140.42 162.715 139.948 162.819Z" fill="#231F20"/>
<path fill-rule="evenodd" clip-rule="evenodd" d="M292.347 156.049C291.797 164.079 284.947 170.489 276.707 167.539C269.167 164.859 266.147 155.029 270.327 148.349C272.099 145.392 274.937 143.227 278.257 142.299C279.824 141.979 281.44 141.979 283.007 142.299C283.688 142.465 284.334 142.749 284.917 143.139C286.419 143.511 287.798 144.27 288.917 145.339C291.777 147.999 292.607 152.319 292.347 156.049ZM280.477 152.639C279.93 152.631 279.391 152.505 278.897 152.269V152.289C278.037 153.459 277.84 154.99 278.377 156.339C279.077 157.909 280.907 158.759 281.707 156.999C282.083 155.914 282.132 154.742 281.847 153.629C281.641 152.995 281.802 153.119 281.805 153.116C281.806 153.114 281.792 153.101 281.747 153.049C281.187 152.339 280.217 152.579 280.477 152.639Z" fill="#231F20"/>
<path d="M288.188 180.339C286.73 181.195 285.832 182.758 285.828 184.449C285.871 186.132 286.758 187.68 288.188 188.569L288.588 188.739L288.788 188.979C289.685 189.861 290.856 190.412 292.108 190.539C294.407 190.866 296.676 189.777 297.858 187.779C298.862 185.969 298.862 183.769 297.858 181.959C296.61 179.901 294.229 178.818 291.858 179.229C290.555 179.246 289.282 179.631 288.188 180.339Z" fill="#231F20"/>
<path d="M123.277 203.029C126.475 203.029 129.067 200.437 129.067 197.239C129.071 194.891 127.659 192.773 125.491 191.872C123.323 190.972 120.826 191.468 119.166 193.128C117.506 194.788 117.01 197.285 117.91 199.453C118.811 201.621 120.929 203.033 123.277 203.029Z" fill="#231F20"/>
<path d="M226.297 201.389C233.347 200.499 240.147 196.059 242.117 188.929C243.537 183.819 242.807 177.769 242.687 172.539C242.577 167.729 243.027 162.409 239.477 158.809C238.418 157.764 236.716 157.764 235.657 158.809C227.917 166.909 239.377 186.809 227.177 190.989C214.977 195.169 208.447 181.989 205.327 172.889C204.727 171.139 202.027 170.429 201.077 172.339C193.507 187.539 211.987 203.209 226.297 201.389Z" fill="#231F20"/>
<path d="M70.087 235.659C70.087 234.499 68.207 234.189 68.017 235.379C66.267 246.959 66.817 258.379 68.537 269.899C70.257 281.419 72.027 294.899 77.097 305.559C77.4155 306.065 78.0266 306.303 78.6034 306.147C79.1801 305.991 79.5873 305.476 79.607 304.879C79.037 293.959 74.847 282.979 72.907 272.199C70.7241 260.147 69.7792 247.903 70.087 235.659Z" fill="#231F20"/>
<path d="M85.1767 320.649C84.6567 319.389 82.6567 319.829 83.0667 321.229C84.8967 327.609 87.0667 335.229 91.8967 340.029C92.222 340.35 92.7236 340.41 93.1152 340.174C93.5067 339.938 93.6885 339.467 93.5567 339.029C91.8867 332.659 87.7367 326.739 85.1767 320.649Z" fill="#231F20"/>
<path d="M175.648 415.589C162.908 412.989 151.038 410.719 139.648 403.939C128.258 397.159 119.208 387.409 111.438 376.609C111.162 376.205 110.621 376.084 110.199 376.332C109.778 376.579 109.62 377.111 109.838 377.549C115.448 389.869 125.548 399.719 136.978 406.759C147.978 413.569 162.128 419.219 175.298 418.059C176.628 417.939 177.138 415.899 175.648 415.589Z" fill="#231F20"/>
</svg>
