<svg width="580" height="461" viewBox="0 0 580 461" fill="none" xmlns="http://www.w3.org/2000/svg">
<path d="M506.073 381.416C488.343 358.146 460.543 337.216 430.373 345.686C431.102 347.875 431.657 350.119 432.033 352.396C452.523 354.726 470.473 369.756 484.033 384.296C493.243 394.206 501.513 404.946 510.603 414.956C516.673 421.626 523.183 429.246 531.143 433.456C536.593 431.986 542.003 430.346 547.413 428.746L550.183 427.926C543.676 425.202 537.745 421.269 532.703 416.336C522.033 406.206 514.903 393.016 506.073 381.416Z" fill="#00AEEF"/>
<path d="M490.023 397.365C473.933 378.425 456.413 361.985 432.443 355.635C432.573 357.005 432.653 358.385 432.653 359.775C432.658 360.084 432.632 360.392 432.573 360.695C449.073 373.015 459.663 392.265 472.463 407.995C479.203 416.275 486.813 424.055 495.713 429.995C500.19 433.039 505.031 435.509 510.123 437.345C514.972 436.978 519.784 436.226 524.513 435.095L525.283 434.905C522.368 432.635 519.587 430.197 516.953 427.605C507.163 418.306 498.763 407.655 490.023 397.365Z" fill="#00AEEF"/>
<path d="M473.783 415.846C466.183 407.276 459.703 397.796 452.913 388.596C447.011 380.628 440.626 373.031 433.793 365.846C435.653 379.786 445.263 392.126 453.163 403.276C460.503 413.686 468.903 424.136 479.903 430.846C485.949 434.48 492.745 436.686 499.773 437.296C499.013 436.876 498.273 436.466 497.563 436.046C488.533 430.766 480.673 423.606 473.783 415.846Z" fill="#00AEEF"/>
<path d="M486.043 225.426C474.223 233.796 461.043 239.946 448.763 247.536C435.823 255.536 423.143 265.436 416.763 279.666C410.383 293.896 411.653 309.486 413.343 324.666L414.003 324.906C416.063 300.336 430.373 276.246 449.373 261.436C462.373 251.346 477.653 244.436 489.493 232.916C495.166 227.353 499.906 220.914 503.533 213.846C503.763 212.246 504.013 210.646 504.303 209.046C499.163 215.516 492.323 220.976 486.043 225.426Z" fill="#00AEEF"/>
<path d="M461.904 257.846C448.504 266.596 437.054 277.186 429.034 291.176C422.584 302.416 419.284 314.296 417.584 326.786C418.657 327.534 419.661 328.377 420.584 329.306C426.374 311.016 440.454 293.926 454.734 282.556C464.814 274.556 477.244 270.076 487.114 261.896C493.624 256.496 497.654 249.996 500.574 242.816C501.154 236.676 501.634 230.516 502.274 224.396C500.834 226.486 499.274 228.516 497.664 230.456C487.804 242.176 474.494 249.606 461.904 257.846Z" fill="#00AEEF"/>
<path d="M464.554 280.656C453.46 287.794 443.848 297.006 436.244 307.786C430.714 315.616 427.044 324.006 423.424 332.626C423.924 333.266 424.424 333.926 424.854 334.626C431.954 322.766 441.774 311.516 452.994 304.136C460.784 299.006 469.704 296.136 477.994 291.966C484.14 289.02 489.477 284.624 493.544 279.156C495.472 273.857 496.931 268.4 497.904 262.846C498.364 260.356 498.744 257.846 499.094 255.356C498.094 256.736 497.094 258.066 496.004 259.356C487.484 269.246 475.314 273.746 464.554 280.656Z" fill="#00AEEF"/>
<path d="M426.754 337.586C427.762 339.331 428.644 341.145 429.394 343.016C454.044 334.396 480.344 347.466 497.864 365.466C508.414 376.286 516.204 389.016 525.134 401.106C534.064 413.196 544.134 422.106 557.974 425.606L559.654 425.116C560.264 424.936 561.524 424.616 562.944 424.256C561.714 423.736 560.694 423.256 560.384 423.126C557.345 421.645 554.403 419.975 551.574 418.126C546.273 414.657 541.588 410.328 537.714 405.316C529.974 395.206 525.164 383.146 518.394 372.406C504.084 349.706 481.924 329.406 453.394 330.716C448.024 330.966 446.254 323.346 450.704 320.776C462.414 314.026 474.614 307.126 483.484 296.686C484.967 294.924 486.336 293.071 487.584 291.136C479.584 296.406 469.434 299.736 461.914 303.416C446.034 311.156 437.114 324.436 426.754 337.586Z" fill="#00AEEF"/>
<path d="M282.204 157.326C282.58 156.24 282.628 155.068 282.344 153.956C282.074 153.126 282.434 153.596 282.244 153.376C281.684 152.666 280.714 152.906 280.974 152.966C281.046 152.978 281.121 152.978 281.194 152.966C281.121 152.978 281.046 152.978 280.974 152.966C280.426 152.958 279.887 152.832 279.394 152.596C278.526 153.77 278.329 155.311 278.874 156.666C279.574 158.236 281.404 159.086 282.204 157.326Z" fill="white"/>
<path d="M18.4739 401.996C16.3739 403.996 11.0539 406.906 10.1239 409.566C8.37393 414.566 18.4939 415.186 21.1239 415.406C29.661 415.986 38.2167 414.586 46.1239 411.316C53.9828 408.08 61.2616 403.584 67.6739 398.006C73.2639 393.226 77.6739 387.076 83.1839 382.276C73.672 368.129 66.1515 352.742 60.8339 336.546C53.5639 361.366 36.6839 384.936 18.4739 401.996Z" fill="#00AEEF"/>
<path d="M233.443 99.4756C233.932 100.461 233.993 101.604 233.613 102.636C233.993 105.746 234.523 108.806 236.793 111.806C240.843 117.146 247.123 119.166 253.653 117.996C269.003 115.226 278.373 98.9056 286.833 87.4156C304.383 63.5756 321.143 38.9556 339.053 15.3456L338.363 15.9056L322.533 28.2956C312.606 36.0622 302.676 43.8322 292.743 51.6056C282.483 59.6056 272.206 67.5856 261.913 75.5456C256.966 79.3989 252.01 83.2456 247.043 87.0856C244.993 88.6656 232.163 96.6656 233.443 99.4756Z" fill="#F7941E"/>
<path fill-rule="evenodd" clip-rule="evenodd" d="M405.333 338.199C406.819 336.441 408.83 334.063 410.444 334.336C412.549 334.7 415.212 338.795 416.552 340.858L416.703 341.09C416.775 341.2 416.842 341.302 416.904 341.396C419.88 346.002 421.645 351.285 422.034 356.756L421.614 357.156C383.914 397.156 340.504 436.746 284.614 447.156C255.934 452.496 226.594 447.566 198.494 441.226C172.194 435.306 146.024 426.606 124.264 410.226C82.7038 378.916 62.6038 326.706 59.2638 276.106C57.3038 246.336 60.4138 216.436 66.0638 187.216C71.2038 160.696 78.5538 133.766 94.8438 111.696C111.444 89.2156 136.484 73.2556 163.184 65.5956C194.324 56.6656 227.514 58.7756 258.514 67.2156L245.624 77.4656C244.015 78.7463 242.299 80.0113 240.559 81.2934L240.559 81.2935L240.559 81.2936L240.558 81.2937C236.253 84.4664 231.805 87.7442 228.494 91.6256C227.903 92.3211 227.374 93.0673 226.914 93.8556C222.244 98.3056 223.884 106.636 226.134 111.936C228.593 117.859 233.086 122.711 238.804 125.616C254.294 133.206 271.104 122.956 281.024 111.206C285.994 105.316 290.664 99.1456 295.204 92.8656C308.484 110.806 317.534 131.276 324.084 152.566C329.064 168.766 332.831 185.315 335.354 202.076C335 202.687 334.963 203.432 335.254 204.076C335.424 204.486 335.614 204.866 335.814 205.246C336.98 213.552 337.84 221.886 338.394 230.246C339.224 243.066 339.284 255.876 338.834 268.706C338.404 280.996 337.984 293.356 340.294 305.506C343.894 324.446 356.194 343.596 376.474 346.936C386.204 348.536 396.534 346.416 403.984 339.696C404.339 339.375 404.802 338.827 405.333 338.199ZM69.3241 272.151C70.9704 283.326 72.8065 295.79 77.5938 305.846C77.9123 306.351 78.5234 306.59 79.1002 306.433C79.6769 306.277 80.0841 305.763 80.1038 305.166C79.7498 298.383 77.999 291.577 76.2584 284.81C75.1967 280.682 74.1388 276.57 73.4038 272.486C71.2209 260.434 70.276 248.19 70.5838 235.946C70.6138 234.786 68.7038 234.476 68.5138 235.666C66.7638 247.246 67.3038 258.526 69.0338 270.186C69.1303 270.836 69.2268 271.491 69.3241 272.151ZM92.3938 340.316C87.6025 335.603 85.4633 328.141 83.6527 321.826L83.5638 321.516C83.1538 320.116 85.1538 319.676 85.6738 320.936C86.6479 323.253 87.8521 325.544 89.0624 327.847C91.0329 331.595 93.0192 335.375 94.0538 339.346C94.1781 339.782 93.9937 340.247 93.6044 340.479C93.215 340.711 92.7183 340.652 92.3938 340.336V340.316ZM298.394 188.136C299.398 186.326 299.398 184.126 298.394 182.316L298.354 182.296C297.108 180.211 294.705 179.113 292.314 179.536C291.027 179.551 289.77 179.925 288.684 180.616C287.226 181.472 286.328 183.035 286.324 184.726C286.367 186.409 287.254 187.957 288.684 188.846L289.084 189.016L289.284 189.256C290.176 190.149 291.348 190.71 292.604 190.846C294.905 191.2 297.192 190.13 298.394 188.136ZM270.804 148.646C272.576 145.689 275.414 143.523 278.734 142.596C280.301 142.276 281.917 142.276 283.484 142.596C284.165 142.762 284.811 143.046 285.394 143.436C286.896 143.808 288.275 144.566 289.394 145.636C292.254 148.296 293.084 152.636 292.824 156.346C292.274 164.346 285.424 170.786 277.184 167.836C269.664 165.166 266.644 155.336 270.804 148.646ZM205.824 173.196C205.224 171.446 202.574 170.736 201.574 172.646C194.004 187.846 212.484 203.516 226.794 201.696C233.844 200.806 240.614 196.366 242.614 189.236C243.731 185.217 243.518 180.617 243.317 176.292L243.317 176.291C243.263 175.116 243.209 173.962 243.184 172.846C243.17 172.253 243.165 171.652 243.16 171.048V171.048C243.124 166.75 243.086 162.272 239.974 159.116C238.915 158.071 237.213 158.071 236.154 159.116C232.68 162.751 233.074 168.761 233.46 174.661C233.935 181.907 234.398 188.986 227.674 191.296C215.474 195.486 208.944 182.316 205.824 173.196ZM131.044 163.766C131.594 160.476 134.124 157.056 137.314 155.026C138.864 152.676 141.364 151.416 144.844 151.626C149.264 151.896 152.744 155.346 154.324 159.266C157.324 166.766 154.874 180.156 144.954 180.066C136.744 179.996 129.674 171.926 131.044 163.766ZM126.972 192.749C124.682 191.214 121.627 191.51 119.674 193.456C118.601 194.549 117.992 196.014 117.974 197.546C117.972 200.303 119.917 202.677 122.621 203.218C125.324 203.758 128.033 202.314 129.091 199.768C130.149 197.222 129.262 194.284 126.972 192.749ZM175.814 418.366C162.644 419.526 148.544 413.876 137.494 407.066C126.064 400.066 115.964 390.176 110.354 377.856C110.135 377.418 110.293 376.886 110.715 376.638C111.136 376.391 111.678 376.512 111.954 376.916C119.724 387.716 128.654 397.376 140.164 404.246C151.183 410.823 162.404 413.101 174.537 415.565C175.078 415.675 175.62 415.785 176.164 415.896C177.634 416.206 177.124 418.246 175.814 418.366ZM255.434 379.486C271.364 385.116 290.534 386.356 305.814 378.116H305.904C319.754 370.616 328.614 353.736 324.214 338.046C322.189 330.803 317.13 325.88 311.993 320.882C310.84 319.76 309.682 318.633 308.554 317.476C301.529 310.27 295.951 301.783 292.124 292.476C288.845 284.402 287.171 275.845 285.499 267.299C283.322 256.167 281.147 245.053 275.434 235.046C265.684 217.986 247.234 209.256 228.434 217.166C218.074 221.526 209.534 230.466 204.944 240.956C204.404 241.956 203.884 243.006 203.404 244.006C195.024 262.276 193.824 286.066 196.094 305.776C199.944 339.226 223.774 368.276 255.434 379.486Z" fill="#88E0FF"/>
<path d="M143.504 169.756L144.084 169.826C144.084 167.906 145.254 166.076 144.794 164.026C144.334 161.976 143.234 162.236 141.794 162.576C141.386 162.835 140.936 163.022 140.464 163.126C140.372 163.321 140.291 163.521 140.224 163.726C139.474 166.295 140.939 168.989 143.504 169.756Z" fill="white"/>
<path d="M305.103 326.436C294.337 316.233 286.27 303.521 281.623 289.436C276.373 273.346 276.423 255.376 268.103 240.336C262.473 230.136 253.173 223.266 242.593 223.186C242.408 223.27 242.207 223.314 242.003 223.316C239.312 223.389 236.643 223.816 234.063 224.586C232.782 225.007 231.532 225.518 230.323 226.116C215.073 233.586 211.703 249.516 206.423 264.116C206.252 264.559 205.957 264.945 205.573 265.226C202.623 282.816 202.683 302.736 208.053 319.506C216.533 345.956 239.713 367.186 266.853 373.126C280.693 376.126 298.033 375.266 308.493 364.456C313.603 359.186 317.133 351.366 316.493 343.926C315.743 336.216 310.363 331.476 305.103 326.436Z" fill="#00AEEF"/>
<path d="M407.814 324.326C408.543 324.188 409.283 324.125 410.024 324.136C407.694 310.526 407.284 296.076 411.604 283.026C415.924 269.976 425.384 259.516 436.344 251.286C448.654 242.036 462.634 235.476 475.664 227.376C482.197 223.459 488.327 218.907 493.965 213.786C497.506 210.362 500.665 206.563 503.384 202.456C492.454 207.456 480.724 210.796 469.264 214.656C453.814 219.876 439.774 227.316 427.964 238.716C406.484 259.456 391.174 296.406 407.814 324.326Z" fill="#00AEEF"/>
<path d="M349.523 248.446C363.283 246.446 377.043 236.656 387.223 228.036C393.077 223.224 397.847 217.229 401.223 210.446C403.062 206.632 404.407 202.6 405.223 198.446C405.823 195.446 407.093 191.266 402.783 193.446C396.583 196.556 391.993 202.206 385.913 205.566C379.945 208.754 373.446 210.828 366.733 211.686C361.503 212.436 353.633 213.356 346.943 212.126C347.737 218.539 348.353 224.962 348.793 231.396C349.243 237.076 349.443 242.756 349.523 248.446Z" fill="#00AEEF"/>
<path fill-rule="evenodd" clip-rule="evenodd" d="M416.184 236.846C395.374 260.376 382.074 299.696 400.514 328.276L400.496 328.292L400.495 328.292L400.495 328.293C400.121 328.637 399.757 328.972 399.394 329.356C392.284 336.766 382.664 338.846 372.954 335.136C362.214 331.046 355.544 320.376 352.294 309.836C348.414 297.246 348.844 283.946 349.294 270.926C349.42 266.772 349.51 262.626 349.564 258.486C365.004 256.636 379.254 246.936 391.204 237.596C404.204 227.426 414.344 212.666 415.784 195.816C416.294 189.956 414.294 183.486 407.784 182.446C400.763 181.316 394.422 186.638 389.229 190.997C388.72 191.425 388.221 191.843 387.734 192.246C381.05 197.805 372.938 201.374 364.324 202.546C358.514 203.416 351.834 204.226 345.804 203.086C343.292 186.214 339.545 169.549 334.594 153.226C327.324 129.346 317.504 104.926 299.084 87.5256C301.248 84.4676 303.392 81.3935 305.533 78.3229L305.534 78.3211L305.536 78.3192L305.537 78.3174L305.538 78.3155L305.54 78.3137L305.541 78.3118L305.542 78.31L305.543 78.3081L305.545 78.3062L305.547 78.3028C309.269 72.9658 312.984 67.6394 316.784 62.4256C320.919 56.7489 325.13 51.1067 329.343 45.4605L329.344 45.4597C338.172 33.6304 347.013 21.7836 355.204 9.56558C356.854 7.10558 355.314 4.26558 353.084 3.05558C352.541 1.85727 351.486 0.967992 350.214 0.635578C344.704 -0.714422 340.574 2.31558 336.424 5.63558L317.824 20.2656C305.764 29.7856 293.714 39.3122 281.674 48.8456L265.124 62.0056C264.634 61.3225 263.93 60.8227 263.124 60.5856C208.924 42.9356 145.994 49.1356 102.694 88.5856C81.9536 107.506 69.6936 132.726 62.3236 159.476C54.1647 189.426 49.6586 220.253 48.9036 251.286C48.3336 275.476 50.7436 300.106 56.9536 323.556C49.9536 341.216 43.2236 358.066 31.9036 373.556C26.0654 381.553 19.4863 388.983 12.2536 395.746C11.3878 396.557 10.4056 397.389 9.38673 398.252C4.43943 402.442 -1.37266 407.364 1.07356 414.206C3.65356 421.406 12.4636 423.156 19.0736 424.016C28.7303 425.192 38.5283 424.107 47.6936 420.846C56.3401 417.723 64.3968 413.162 71.5236 407.356C77.5236 402.626 84.4336 396.866 89.0736 390.356C93.0154 395.481 97.2631 400.363 101.794 404.976C121.114 424.636 145.414 437.436 171.534 445.656C200.184 454.656 231.744 461.276 261.874 460.786C327.874 459.726 380.954 416.236 424.384 370.616C425.894 380.926 431.384 390.056 437.184 398.846C443.464 408.356 449.964 417.846 457.754 426.186C465.544 434.526 474.534 441.326 485.184 445.186C497.684 449.726 511.294 448.826 524.094 446.186C534.648 443.997 545.024 440.815 555.364 437.645L555.364 437.644C558.866 436.571 562.364 435.498 565.864 434.466C566.615 434.244 567.416 434.039 568.238 433.829C572.32 432.785 576.934 431.605 578.674 427.586C581.004 422.176 576.724 418.796 572.294 416.766C559.494 410.916 549.114 404.366 541.764 392.016C539.498 388.212 537.376 384.344 535.256 380.481C531.312 373.292 527.376 366.118 522.544 359.406C509.654 341.516 491.654 326.296 470.244 321.516C477.435 317.107 484.012 311.767 489.804 305.636C498.734 295.816 504.194 283.696 507.134 270.846C509.576 260.113 510.527 249.117 511.477 238.132C512.862 222.126 514.244 206.141 520.234 191.026C521.894 186.836 516.084 182.436 512.454 185.026C501.197 193.129 488.248 197.412 475.27 201.704C469.191 203.714 463.105 205.727 457.184 208.136C441.485 214.414 427.452 224.24 416.184 236.846ZM366.784 211.636C373.496 210.778 379.995 208.704 385.964 205.516C388.863 203.913 391.424 201.792 393.983 199.673L393.983 199.672C396.788 197.349 399.591 195.027 402.834 193.396C406.687 191.464 406.048 194.585 405.469 197.412C405.401 197.747 405.333 198.078 405.274 198.396C404.457 202.55 403.113 206.582 401.274 210.396C397.898 217.179 393.127 223.174 387.274 227.986C377.094 236.606 363.334 246.396 349.574 248.396C349.494 242.706 349.294 237.026 348.894 231.326C348.454 224.899 347.837 218.476 347.044 212.056C353.684 213.336 361.554 212.416 366.784 211.666V211.636ZM322.574 28.2656C312.654 36.0589 302.724 43.8289 292.784 51.5756L292.744 51.6056C282.47 59.5856 272.207 67.5556 261.954 75.5156C257.014 79.3689 252.057 83.2156 247.084 87.0556C246.718 87.3374 246.009 87.8235 245.099 88.4479C240.905 91.3244 232.432 97.1368 233.484 99.4456C233.972 100.431 234.034 101.574 233.654 102.606C234.034 105.716 234.564 108.776 236.834 111.776C240.884 117.116 247.164 119.136 253.694 117.966C266.917 115.579 275.702 103.138 283.291 92.3907C284.512 90.6622 285.701 88.9775 286.874 87.3856C294.219 77.4077 301.426 67.2933 308.636 57.1734C318.654 43.1139 328.68 29.044 339.094 15.3156L338.404 15.8756L322.574 28.2656ZM67.6836 398.006C61.2713 403.584 53.9925 408.079 46.1336 411.316C38.2264 414.586 29.6707 415.986 21.1336 415.406C21.0524 415.399 20.964 415.392 20.869 415.384L20.8604 415.383C17.8796 415.139 8.4491 414.367 10.1336 409.566C10.7679 407.751 13.4447 405.802 15.7489 404.124C16.8229 403.342 17.8159 402.619 18.4836 401.996C36.6936 384.936 53.5736 361.366 60.8436 336.546C66.1643 352.742 73.6882 368.13 83.2036 382.276C80.528 384.615 78.1019 387.275 75.6704 389.94L75.6701 389.941C73.1125 392.745 70.5492 395.555 67.6836 398.006ZM284.684 447.236C340.574 436.806 383.984 397.236 421.684 357.236L422.054 356.846C421.662 351.359 419.887 346.06 416.894 341.446C416.833 341.353 416.767 341.251 416.696 341.142C415.411 339.172 412.519 334.736 410.444 334.386C408.829 334.113 406.819 336.491 405.332 338.249C404.802 338.876 404.339 339.425 403.984 339.746C396.534 346.466 386.204 348.586 376.474 346.986C356.194 343.646 343.894 324.496 340.294 305.556C337.984 293.406 338.404 281.046 338.834 268.756C339.284 255.926 339.224 243.116 338.394 230.296C337.84 221.916 336.98 213.582 335.814 205.296C335.614 204.916 335.424 204.536 335.254 204.126C334.962 203.482 335 202.737 335.354 202.126C332.831 185.365 329.064 168.816 324.084 152.616C317.534 131.326 308.484 110.856 295.204 92.9156C290.664 99.1956 286.024 105.366 281.024 111.256C271.104 123.006 254.294 133.266 238.804 125.666C233.085 122.761 228.592 117.909 226.134 111.986C223.914 106.686 222.244 98.3556 226.914 93.9056C227.374 93.1173 227.902 92.3711 228.494 91.6756C231.805 87.7942 236.253 84.5163 240.558 81.3435C242.298 80.0614 244.015 78.7963 245.624 77.5156L258.514 67.2656C227.504 58.8256 194.324 56.7156 163.184 65.6456C136.484 73.3056 111.444 89.2656 94.8436 111.746C78.5536 133.846 71.2036 160.716 66.1336 187.296C60.4836 216.516 57.3336 246.416 59.3336 276.186C62.6536 326.786 82.7536 378.996 124.334 410.306C146.094 426.676 172.264 435.376 198.564 441.306C226.684 447.646 256.004 452.576 284.684 447.236ZM479.904 430.846C468.904 424.166 460.534 413.716 453.194 403.346C452.498 402.364 451.789 401.373 451.073 400.372C443.661 390.01 435.52 378.628 433.824 365.916C440.64 373.076 447.012 380.647 452.904 388.586C454.423 390.644 455.927 392.717 457.431 394.79L457.431 394.79L457.431 394.79L457.431 394.791L457.432 394.791L457.432 394.791L457.432 394.791L457.432 394.791C462.65 401.983 467.875 409.184 473.774 415.836C480.664 423.606 488.524 430.766 497.524 436.016C498.234 436.436 498.974 436.846 499.734 437.266C492.722 436.659 485.94 434.463 479.904 430.846ZM510.154 437.406C515.002 437.038 519.814 436.286 524.544 435.156L525.314 434.996C522.399 432.725 519.617 430.287 516.984 427.696C509.196 420.274 502.287 412.016 495.388 403.769L495.384 403.765C493.612 401.646 491.84 399.528 490.054 397.426C473.964 378.486 456.474 362.046 432.474 355.696C432.604 357.066 432.684 358.446 432.684 359.836C432.689 360.144 432.662 360.452 432.604 360.756C444.098 369.324 452.724 381.274 461.227 393.054L461.227 393.055C464.931 398.186 468.61 403.283 472.494 408.056C479.234 416.306 486.844 424.056 495.744 430.056C500.22 433.099 505.061 435.569 510.154 437.406ZM545.829 429.245L544.488 429.644L544.484 429.645C540.049 430.962 535.61 432.281 531.144 433.486C523.867 429.656 517.857 423.006 512.261 416.816L512.257 416.811L512.228 416.779C511.917 416.434 511.606 416.091 511.297 415.749C511.065 415.494 510.834 415.239 510.604 414.986C506.346 410.302 502.268 405.454 498.19 400.604L498.189 400.603C493.56 395.099 488.93 389.594 484.034 384.326C470.504 369.786 452.554 354.756 432.034 352.426C431.658 350.149 431.103 347.905 430.374 345.716C460.544 337.246 488.374 358.176 506.074 381.446C509.021 385.313 511.781 389.357 514.545 393.405L514.545 393.406C520.07 401.501 525.608 409.613 532.674 416.366C537.715 421.299 543.647 425.232 550.154 427.956L547.414 428.776C546.885 428.932 546.357 429.088 545.829 429.245ZM451.546 320.276C462.999 313.677 474.833 306.858 483.494 296.666C484.99 294.905 486.373 293.052 487.634 291.116C482.334 294.604 476.114 297.237 470.334 299.684L470.333 299.684C467.366 300.94 464.515 302.147 461.964 303.396C447.989 310.22 439.405 321.314 430.492 332.835C429.27 334.414 428.042 336.001 426.794 337.586C427.801 339.331 428.683 341.145 429.434 343.016C454.084 334.396 480.384 347.466 497.904 365.466C505.466 373.251 511.64 382.04 517.825 390.844L517.825 390.844C520.235 394.275 522.647 397.709 525.144 401.086C534.044 413.126 544.144 422.116 557.984 425.586L559.664 425.096C560.274 424.916 561.534 424.596 562.954 424.236C561.724 423.716 560.704 423.256 560.394 423.106C557.355 421.625 554.413 419.955 551.584 418.106C546.283 414.637 541.598 410.307 537.724 405.296C533.092 399.246 529.509 392.497 525.928 385.751L525.928 385.751L525.927 385.75C523.524 381.223 521.122 376.698 518.404 372.386C504.084 349.696 481.924 329.366 453.404 330.696C448.034 330.946 446.264 323.326 450.714 320.756L451.546 320.276ZM497.904 262.846C496.924 268.4 495.459 273.858 493.524 279.156C489.456 284.624 484.119 289.02 477.974 291.966C474.889 293.536 471.715 294.908 468.541 296.28L468.541 296.281C463.204 298.588 457.871 300.894 452.974 304.136C441.754 311.516 431.974 322.766 424.834 334.626C424.374 333.956 423.904 333.296 423.404 332.626C427.024 324.006 430.694 315.626 436.224 307.786C443.828 297.006 453.44 287.794 464.534 280.656C467.751 278.59 471.094 276.739 474.428 274.893C482.245 270.567 490.011 266.268 495.984 259.286C497.054 258.036 498.084 256.706 499.074 255.286C498.744 257.846 498.364 260.326 497.904 262.846ZM487.064 261.926C493.574 256.526 497.604 250.026 500.524 242.846C500.768 240.249 500.994 237.654 501.22 235.066L501.221 235.054L501.221 235.053C501.531 231.495 501.841 227.948 502.194 224.426C500.754 226.486 499.214 228.546 497.584 230.486C489.358 240.313 478.672 247.123 468.001 253.925C465.945 255.235 463.89 256.545 461.854 257.876C448.454 266.626 436.984 277.206 428.984 291.206C422.534 302.446 419.234 314.326 417.534 326.816C418.607 327.564 419.611 328.407 420.534 329.336C426.324 311.046 440.404 293.956 454.684 282.586C459.584 278.687 465.04 275.629 470.487 272.576C476.244 269.35 481.992 266.129 487.064 261.926ZM503.524 213.846C499.892 220.908 495.148 227.34 489.474 232.896C482.454 239.731 474.208 244.94 465.958 250.15L465.958 250.151C460.293 253.729 454.626 257.308 449.354 261.416C430.354 276.226 416.044 300.316 413.984 324.886L413.324 324.646C411.634 309.476 410.324 293.996 416.744 279.646C423.164 265.296 435.814 255.506 448.744 247.516C453.575 244.534 458.539 241.775 463.503 239.016L463.503 239.016C471.175 234.752 478.847 230.488 486.024 225.406C492.304 220.956 499.144 215.496 504.284 209.036C504.014 210.656 503.764 212.256 503.534 213.846H503.524ZM503.36 202.467C503.364 202.46 503.369 202.453 503.374 202.446L503.384 202.456C503.376 202.459 503.368 202.463 503.36 202.467ZM493.954 213.776C497.489 210.358 500.643 206.566 503.36 202.467C494.788 206.417 485.724 209.329 476.68 212.235C474.2 213.032 471.721 213.828 469.254 214.646C453.804 219.866 439.764 227.306 427.954 238.706C406.474 259.446 391.164 296.396 407.804 324.316C408.532 324.178 409.272 324.115 410.014 324.126C407.684 310.516 407.214 296.216 411.594 283.016C415.974 269.816 425.334 259.506 436.334 251.276C444.139 245.415 452.618 240.635 461.091 235.858C465.991 233.095 470.89 230.334 475.654 227.366C482.186 223.449 488.316 218.897 493.954 213.776Z" fill="#231F20"/>
<path fill-rule="evenodd" clip-rule="evenodd" d="M292.143 292.506C295.97 301.813 301.548 310.3 308.573 317.506C309.718 318.686 310.893 319.832 312.064 320.974C317.182 325.965 322.211 330.87 324.213 338.146C328.593 353.766 319.733 370.646 305.833 378.146C290.553 386.386 271.383 385.156 255.453 379.516C223.793 368.306 199.963 339.256 196.113 305.806C193.843 286.096 195.043 262.306 203.423 244.036C203.903 242.986 204.413 241.986 204.963 240.986C209.553 230.496 218.093 221.556 228.453 217.196C247.273 209.286 265.723 218.016 275.453 235.076C281.166 245.083 283.341 256.197 285.518 267.329C287.19 275.875 288.864 284.432 292.143 292.506ZM266.853 373.176C280.693 376.196 298.033 375.316 308.493 364.506V364.466C313.603 359.196 317.133 351.376 316.453 343.986C315.774 336.6 310.821 331.906 305.787 327.135C305.559 326.919 305.331 326.702 305.103 326.486C294.337 316.283 286.27 303.571 281.623 289.486C279.587 283.243 278.349 276.716 277.11 270.188C275.154 259.879 273.197 249.57 268.103 240.386C262.473 230.186 253.173 223.316 242.593 223.236C242.408 223.32 242.207 223.364 242.003 223.366C239.312 223.44 236.643 223.866 234.063 224.636C232.782 225.057 231.532 225.568 230.323 226.166C217.183 232.619 212.863 245.338 208.542 258.061C207.848 260.104 207.154 262.148 206.423 264.166C206.252 264.61 205.957 264.995 205.573 265.276C202.623 282.866 202.683 302.786 208.053 319.556C216.533 346.006 239.713 367.236 266.853 373.176Z" fill="#231F20"/>
<path fill-rule="evenodd" clip-rule="evenodd" d="M154.324 159.266C157.354 166.766 154.874 180.156 144.954 180.066C136.744 179.996 129.674 171.926 131.044 163.766C131.594 160.476 134.124 157.026 137.314 155.026C138.844 152.676 141.364 151.416 144.844 151.626C149.264 151.896 152.744 155.346 154.324 159.266ZM140.444 163.126C140.352 163.321 140.272 163.521 140.204 163.726C139.454 166.295 140.919 168.989 143.484 169.756L144.064 169.826C144.076 169.048 144.27 168.297 144.466 167.538C144.755 166.422 145.048 165.287 144.774 164.026C144.329 161.976 143.305 162.216 141.918 162.542C141.871 162.553 141.822 162.564 141.774 162.576C141.366 162.835 140.916 163.021 140.444 163.126Z" fill="#231F20"/>
<path fill-rule="evenodd" clip-rule="evenodd" d="M292.843 156.356C292.293 164.386 285.443 170.796 277.203 167.846C269.663 165.166 266.643 155.336 270.823 148.656C272.595 145.698 275.433 143.533 278.753 142.606C280.32 142.286 281.936 142.286 283.503 142.606C284.184 142.772 284.83 143.056 285.413 143.446C286.915 143.818 288.294 144.576 289.413 145.646C292.273 148.306 293.103 152.626 292.843 156.356ZM280.973 152.946C280.426 152.938 279.887 152.812 279.393 152.576V152.596C278.533 153.766 278.336 155.296 278.873 156.646C279.573 158.216 281.403 159.066 282.203 157.306C282.579 156.22 282.628 155.048 282.343 153.936C282.137 153.302 282.298 153.426 282.301 153.422C282.302 153.421 282.288 153.408 282.243 153.356C281.683 152.646 280.713 152.886 280.973 152.946Z" fill="#231F20"/>
<path d="M288.684 180.646C287.226 181.502 286.329 183.065 286.324 184.756C286.367 186.439 287.254 187.987 288.684 188.876L289.084 189.046L289.284 189.286C290.181 190.168 291.352 190.718 292.604 190.846C294.903 191.173 297.172 190.084 298.354 188.086C299.358 186.275 299.358 184.076 298.354 182.266C297.106 180.208 294.725 179.125 292.354 179.536C291.051 179.552 289.779 179.937 288.684 180.646Z" fill="#231F20"/>
<path d="M123.773 203.336C126.971 203.336 129.563 200.743 129.563 197.546C129.567 195.198 128.155 193.079 125.987 192.179C123.819 191.279 121.322 191.774 119.662 193.434C118.002 195.094 117.506 197.591 118.406 199.76C119.307 201.928 121.425 203.34 123.773 203.336Z" fill="#231F20"/>
<path d="M226.793 201.696C233.843 200.806 240.643 196.366 242.613 189.236C244.033 184.126 243.303 178.076 243.183 172.846C243.073 168.036 243.523 162.716 239.973 159.116C238.914 158.071 237.212 158.071 236.153 159.116C228.413 167.216 239.873 187.116 227.673 191.296C215.473 195.476 208.943 182.296 205.823 173.196C205.223 171.446 202.523 170.736 201.573 172.646C194.003 187.846 212.483 203.516 226.793 201.696Z" fill="#231F20"/>
<path d="M70.5831 235.966C70.5831 234.806 68.7031 234.496 68.5131 235.686C66.7631 247.266 67.3131 258.686 69.0331 270.206C70.7531 281.726 72.5231 295.206 77.5931 305.866C77.9116 306.371 78.5227 306.61 79.0995 306.453C79.6762 306.297 80.0834 305.783 80.1031 305.186C79.5331 294.266 75.3431 283.286 73.4031 272.506C71.2202 260.454 70.2753 248.21 70.5831 235.966Z" fill="#231F20"/>
<path d="M85.6728 320.956C85.1528 319.696 83.1528 320.136 83.5628 321.536C85.3928 327.916 87.5628 335.536 92.3928 340.336C92.7181 340.657 93.2197 340.716 93.6113 340.48C94.0028 340.245 94.1846 339.773 94.0528 339.336C92.3828 332.966 88.2328 327.046 85.6728 320.956Z" fill="#231F20"/>
<path d="M176.144 415.896C163.404 413.296 151.534 411.026 140.144 404.246C128.754 397.466 119.704 387.716 111.934 376.916C111.659 376.512 111.117 376.391 110.695 376.638C110.274 376.886 110.116 377.418 110.334 377.856C115.944 390.176 126.044 400.026 137.474 407.066C148.474 413.876 162.624 419.526 175.794 418.366C177.124 418.246 177.634 416.206 176.144 415.896Z" fill="#231F20"/>
</svg>
