<svg width="566" height="575" viewBox="0 0 566 575" fill="none" xmlns="http://www.w3.org/2000/svg">
<path d="M489.546 318.563C489.996 313.868 489.388 309.131 487.766 304.703C480.336 284.073 454.836 277.623 436.766 288.253C421.506 297.253 412.916 314.363 407.076 330.413C400.466 348.563 396.586 367.533 391.076 386.013C381.386 418.513 365.156 449.103 342.336 474.313C319.826 499.183 290.886 518.153 258.336 526.843C241.4 531.417 223.863 533.367 206.336 532.623C218.068 536.575 230.208 539.195 242.526 540.433C266.116 542.853 289.296 540.813 312.716 538.693C339.716 527.013 363.526 509.113 377.416 481.873C389.326 458.523 394.816 431.263 399.416 405.643C403.836 380.883 403.176 353.583 412.766 330.053C419.976 312.373 434.016 296.833 453.936 294.923C469.996 293.393 486.136 302.463 489.546 318.563Z" fill="#8DC63F"/>
<path d="M462.095 362.653C455.185 358.173 451.095 350.373 450.025 342.343C449.825 340.71 449.721 339.068 449.715 337.423C445.058 345.069 444.743 354.596 448.885 362.533C449.459 363.625 450.09 364.686 450.775 365.713C465.875 373.043 483.655 378.713 496.155 367.243C494.235 367.533 492.275 367.693 490.325 367.793C480.955 368.273 470.195 367.923 462.095 362.653Z" fill="#8DC63F"/>
<path d="M392.426 245.323C388.288 252.411 385.037 259.981 382.746 267.863C385.789 264.739 389 261.785 392.366 259.013C392.796 258.653 393.256 258.313 393.696 257.963C393.861 257.573 394.118 257.23 394.446 256.963C396.538 255.36 398.748 253.916 401.056 252.643C437.626 228.833 491.346 227.553 525.276 257.053C535.006 265.523 539.036 277.053 541.356 289.393C543.946 303.133 546.236 317.393 544.896 331.393C551.796 312.203 552.986 290.393 549.276 270.873C547.272 260.254 543.967 249.923 539.436 240.113C521.836 218.793 497.566 203.593 469.036 203.113C438.346 202.563 408.196 218.863 392.426 245.323Z" fill="#8DC63F"/>
<path d="M144.565 524.663C111.025 502.733 86.1652 472.973 76.4052 433.663C66.2952 392.893 59.9152 351.113 66.0452 309.283C71.4723 272.3 85.0792 236.993 105.875 205.933C115.178 192.116 125.885 179.297 137.825 167.683C128.295 173.053 118.945 178.743 109.885 184.903C71.2952 211.153 37.2552 247.333 21.4752 291.973C5.06518 338.403 11.3152 391.803 27.5652 437.473C43.3552 481.873 72.9252 521.343 114.835 543.943C135.21 555.066 157.931 561.204 181.135 561.853C196.428 562.091 211.718 561.219 226.885 559.243C219.596 557.782 212.387 555.949 205.285 553.753C183.945 547.273 163.195 536.843 144.565 524.663Z" fill="#009444"/>
<path d="M514.696 263.972C504.026 255.422 490.386 250.332 477.066 247.793C475.596 247.513 474.126 247.272 472.646 247.062C510.366 256.533 521.486 311.573 516.906 344.853C515.576 354.482 512.146 363.622 506.326 370.452C535.426 359.832 534.836 323.762 530.446 298.272C528.196 285.243 525.576 272.682 514.696 263.972Z" fill="#8DC63F"/>
<path d="M156.746 238.653C141.856 254.783 128.846 272.773 120.396 293.133C109.676 318.973 106.096 347.293 106.536 375.133C107.346 427.493 124.536 481.793 168.686 513.483C171.352 515.416 174.099 517.239 176.926 518.953C182.562 520.46 188.286 521.615 194.066 522.413C204.998 523.774 216.044 523.962 227.016 522.973C249.649 520.873 271.573 513.959 291.316 502.693C325.046 483.523 350.876 452.693 367.556 417.953C385.096 381.443 386.296 338.453 407.116 303.563C415.716 289.133 428.736 276.143 445.736 272.673C461.846 269.373 479.816 274.253 490.546 287.113C500.466 299.003 503.736 316.313 497.446 330.653C492.446 342.003 479.996 353.143 467.056 353.423C467.516 353.763 467.956 354.113 468.456 354.423C478.936 360.623 494.516 357.873 504.916 353.133C510.166 337.643 507.666 317.313 504.376 303.373C501.935 292.553 497.528 282.272 491.376 273.043C483.996 262.233 475.626 256.713 462.476 255.583C446.776 254.233 430.546 253.723 414.916 256.483C410.902 258.501 407.035 260.8 403.346 263.363C393.273 270.468 384.615 279.391 377.816 289.673C375.476 303.433 374.116 317.463 371.656 330.943C367.026 356.423 357.556 379.803 341.426 400.193C325.888 419.847 305.776 435.399 282.846 445.493C259.406 455.713 229.426 462.443 204.976 452.143C155.646 431.383 133.306 368.703 145.196 319.263C151.576 292.813 166.196 269.393 182.996 248.353C202.466 223.963 224.616 201.553 246.756 179.623C264.508 159.155 280.979 137.611 296.076 115.113C304.986 101.813 313.196 87.5628 316.326 71.6628C319.456 55.7628 315.096 42.8328 309.636 28.1528C309.096 27.6328 308.526 27.1528 307.966 26.6328C312.726 47.1428 305.966 71.4728 297.896 89.3428C287.466 112.283 271.126 132.343 253.506 150.133C222.716 181.223 186.466 206.473 156.746 238.653Z" fill="#009444"/>
<path d="M239.805 119.783C218.805 130.603 196.505 138.783 175.095 148.693C164.685 156.693 154.455 164.693 145.285 174.393C131.946 188.593 120.209 204.217 110.285 220.983C92.4864 250.617 81.1299 283.668 76.9551 317.983C72.3551 357.333 78.9551 398.113 89.5651 436.063C99.0051 469.893 122.085 495.253 150.685 514.063C111.815 480.143 95.8551 428.203 94.4951 377.783C93.7651 350.653 96.7051 322.853 105.775 297.153C113.445 275.423 125.555 255.833 140.195 238.153C169.115 203.223 206.345 176.633 238.445 144.883C254.815 128.673 270.145 110.953 281.115 90.5729C282.465 88.0729 283.715 85.5729 284.905 82.9429C273.375 98.4829 256.725 111.053 239.805 119.783Z" fill="#8DC63F"/>
<path d="M182.735 422.563C192.885 433.103 205.315 442.233 220.085 444.563C234.195 446.803 249.245 443.803 262.715 439.563C312.335 423.973 348.195 382.133 358.445 331.563C358.985 328.883 359.445 326.203 359.955 323.503C359.271 323.777 358.491 323.628 357.955 323.123C355.364 332.289 351.926 341.194 347.685 349.723C337.405 370.153 322.035 392.803 299.155 400.063C282.155 405.453 260.945 403.063 243.805 395.403C234.029 393.407 224.491 390.39 215.345 386.403C201.025 380.233 190.525 370.763 184.535 356.193C173.725 329.873 174.145 298.293 182.195 271.313C183.671 266.392 185.465 261.572 187.565 256.883C166.865 284.683 151.295 315.073 152.285 349.693C153.158 376.894 163.995 402.827 182.735 422.563Z" fill="#8DC63F"/>
<path d="M311.725 108.113C296.475 134.863 276.555 159.633 256.665 183.043C236.195 207.093 210.955 228.563 197.595 257.673C185.095 284.953 182.485 317.303 191.205 346.073C195.995 361.863 205.575 371.783 220.365 378.073C209.275 364.393 205.365 346.413 205.025 328.363C204.635 304.143 206.835 277.803 214.575 254.743C218.311 243.293 224.095 232.617 231.645 223.233C239.845 213.183 250.235 205.393 260.195 197.233C280.865 180.233 300.765 161.293 314.465 138.113C328.165 114.933 335.835 85.8128 328.195 59.2028C327.605 57.1328 326.895 55.1128 326.125 53.1328C326.502 57.1927 326.535 61.2773 326.225 65.3428C325.075 80.5628 319.195 94.9328 311.725 108.113Z" fill="#009444"/>
<path d="M377.286 248.733C387.456 226.403 406.206 208.813 428.736 199.273C456.406 187.563 489.676 190.563 515.196 205.743C507.479 198.253 498.597 192.066 488.896 187.423C461.316 174.283 429.636 175.063 403.896 190.033C383.106 208.263 374.506 234.163 369.896 260.953C368.116 271.183 366.616 281.373 364.896 291.463C365.026 291.223 365.166 290.983 365.306 290.743C367.856 276.363 371.196 262.173 377.286 248.733Z" fill="#009444"/>
<path d="M333.586 123.452C324.396 146.932 308.756 167.042 290.846 184.562C272.936 202.082 249.246 216.492 235.496 238.052C221.746 259.612 219.066 286.332 217.566 311.302C216.116 335.642 216.836 364.082 239.236 379.172C244.849 382.889 250.983 385.754 257.436 387.672C261.186 388.342 264.956 389.002 268.736 389.732C269.243 389.823 269.727 390.017 270.156 390.302C284.806 391.972 299.836 389.022 310.756 379.672C330.076 363.122 342.326 336.622 348.496 312.422C354.626 288.422 356.146 258.992 363.636 233.012C352.286 252.722 345.046 275.012 339.066 296.892C336.366 306.782 333.856 316.712 331.256 326.612C329.146 334.612 327.056 343.022 321.666 349.542C312.376 360.762 295.896 363.542 282.536 358.892C249.646 347.432 240.606 303.382 244.446 273.042C246.656 255.492 252.756 239.042 264.626 225.712C278.016 210.712 294.946 198.642 309.346 184.552C336.196 158.302 364.196 128.072 356.716 87.4925C352.716 65.7325 339.556 42.4125 321.336 26.7725C326.492 32.7922 330.747 39.5292 333.966 46.7725C344.726 71.0525 343.196 99.0025 333.586 123.452Z" fill="#8DC63F"/>
<path fill-rule="evenodd" clip-rule="evenodd" d="M380.496 191.693C408.366 166.493 446.686 158.753 482.306 170.813C556.416 195.923 592.416 301.823 541.596 364.173C519.276 391.493 477.116 407.943 447.386 381.943C441.516 376.82 437.104 370.238 434.596 362.863L433.246 357.763C431.943 351.339 432.357 344.685 434.446 338.473C438.066 327.803 445.695 318.833 455.766 315.003C460.387 313.303 465.464 313.303 470.086 315.003C472.579 315.841 474.019 318.445 473.406 321.003C472.914 322.796 471.35 324.088 469.496 324.233H469.446C467.327 324.536 465.484 325.84 464.493 327.736C463.502 329.633 463.484 331.891 464.446 333.803C464.962 334.778 465.638 335.66 466.446 336.413C472.086 341.673 476.656 337.683 478.806 331.833C482.158 322.668 477.998 312.456 469.196 308.243C444.356 296.153 425.355 324.203 420.246 344.643C417.786 354.403 416.749 364.435 415.714 374.447V374.448L415.714 374.45C415.263 378.809 414.813 383.165 414.246 387.493C412.572 400.233 410.402 412.899 407.736 425.493C402.376 450.733 395.936 477.293 381.606 499.153C358.456 534.453 318.606 553.723 278.606 562.973C255.726 568.263 232.156 571.063 208.776 573.123C186.586 575.083 164.446 574.663 142.886 568.613C58.7755 544.993 11.7755 462.263 1.77552 380.103C-3.66448 335.583 3.08552 292.183 26.3355 253.453C48.3055 216.873 80.8555 188.033 116.706 165.453C136.136 153.193 156.636 142.743 177.496 133.193C184.343 130.058 191.285 127.105 198.228 124.152L198.229 124.152C211.597 118.467 224.97 112.779 237.686 105.783C255.566 95.9327 272.426 82.9326 281.066 63.9327C289.006 46.4627 289.706 24.5326 277.406 8.83265C273.156 3.40265 278.815 -2.40735 285.206 1.03265C285.97 1.44515 287.585 2.10059 289.567 2.90477L289.568 2.90518L289.568 2.90533C291.525 3.69963 293.84 4.63899 296.046 5.63265C348.426 22.5126 362.126 49.4627 368.426 88.1926C376.046 135.173 341.646 170.253 310.206 199.923C305.849 204.035 301.082 208.02 296.259 212.052C284.076 222.236 271.532 232.722 264.326 246.333C253.936 265.973 252.716 291.193 258.786 312.333C263.876 330.063 277.106 351.573 298.476 349.173C311.366 347.723 316.056 337.713 319.146 326.313C320.616 320.844 322.005 315.354 323.393 309.863C324.516 305.424 325.639 300.983 326.806 296.553C336.836 258.403 350.406 218.903 380.496 191.693ZM403.916 190.033C383.156 208.263 374.556 234.163 369.916 260.953C369.063 265.851 368.275 270.74 367.49 275.613L367.489 275.615C366.635 280.918 365.783 286.2 364.856 291.453C364.986 291.213 365.126 290.973 365.266 290.733C367.836 276.363 371.156 262.173 377.266 248.733C387.436 226.403 406.186 208.813 428.716 199.273C456.386 187.573 489.656 190.543 515.196 205.743C507.484 198.255 498.609 192.068 488.916 187.423C461.306 174.283 429.626 175.033 403.916 190.033ZM356.716 87.4927C364.196 128.073 336.196 158.303 309.346 184.563C303.413 190.368 297.051 195.826 290.683 201.289L290.683 201.29L290.682 201.29L290.682 201.29L290.681 201.291L290.681 201.291L290.681 201.292L290.68 201.292L290.68 201.292L290.679 201.293L290.679 201.293C281.593 209.089 272.498 216.892 264.626 225.723C252.756 239.043 246.626 255.503 244.446 273.053C240.606 303.393 249.635 347.443 282.536 358.903C295.896 363.563 312.376 360.773 321.666 349.553C326.887 343.237 329.012 335.156 331.057 327.375L331.255 326.623C332.107 323.381 332.949 320.136 333.791 316.89L333.794 316.875C335.522 310.214 337.251 303.549 339.066 296.903C345.066 274.993 352.286 252.733 363.635 233.023C359.56 247.168 357.256 262.311 355.012 277.051L355.012 277.051L355.012 277.052L355.012 277.052L355.012 277.053L355.012 277.054L355.012 277.054L355.011 277.055L355.011 277.055L355.011 277.056C353.131 289.406 351.295 301.474 348.496 312.433C342.326 336.633 330.076 363.133 310.755 379.683C299.836 389.033 284.806 391.983 270.156 390.313C269.727 390.027 269.243 389.833 268.736 389.743C265.583 389.134 262.437 388.574 259.305 388.016L259.3 388.015C258.678 387.904 258.056 387.794 257.436 387.683C250.982 385.764 244.849 382.9 239.236 379.183C216.836 364.093 216.116 335.653 217.566 311.313C219.066 286.313 221.736 259.653 235.506 238.063C244.594 223.813 257.93 212.761 271.137 201.815C277.94 196.177 284.709 190.567 290.846 184.563C308.896 166.903 324.396 146.933 333.586 123.453C343.156 99.0026 344.725 71.0527 333.966 46.7527C330.746 39.5094 326.492 32.7724 321.336 26.7527C339.556 42.4127 352.676 65.7327 356.716 87.4927ZM328.266 59.2027C327.676 57.1327 326.966 55.1327 326.195 53.1327C326.556 57.194 326.573 61.2785 326.246 65.3427C325.076 80.5627 319.196 94.9326 311.726 108.113C296.476 134.863 276.556 159.633 256.666 183.043C251.058 189.631 245.092 196.026 239.111 202.437C223.261 219.427 207.309 236.527 197.646 257.633C185.146 284.913 182.536 317.263 191.256 346.033C196.046 361.843 205.626 371.763 220.416 378.033C209.326 364.323 205.366 346.373 205.076 328.323C204.686 304.103 206.886 277.763 214.626 254.703C218.358 243.251 224.142 232.574 231.696 223.193C238.74 214.602 247.37 207.621 256.003 200.638C257.419 199.492 258.836 198.346 260.246 197.193C280.916 180.233 300.766 161.343 314.516 138.073C328.266 114.803 335.886 85.8127 328.266 59.2027ZM182.196 271.333C174.196 298.333 173.736 329.893 184.546 356.213C190.546 370.783 201.036 380.213 215.356 386.423C224.501 390.41 234.04 393.427 243.816 395.423C260.956 403.103 282.166 405.473 299.166 400.083C322.046 392.823 337.415 370.173 347.695 349.743C351.936 341.214 355.374 332.309 357.966 323.143C358.499 323.653 359.282 323.802 359.966 323.523C359.608 325.578 359.215 327.622 358.823 329.663L358.823 329.665C358.7 330.305 358.577 330.944 358.456 331.583C348.236 382.113 312.346 423.953 262.726 439.583C249.256 443.813 234.206 446.813 220.096 444.583C205.326 442.233 192.896 433.103 182.746 422.583C164.015 402.864 153.176 376.955 152.286 349.773C151.286 315.153 166.866 284.773 187.566 256.963C185.472 261.634 183.679 266.434 182.196 271.333ZM201.307 137.237C192.52 140.957 183.735 144.678 175.096 148.693C164.686 156.653 154.456 164.703 145.296 174.413C131.957 188.613 120.22 204.237 110.296 221.003C92.4968 250.637 81.1403 283.687 76.9655 318.003C72.3655 357.353 79.0055 398.133 89.5755 436.083C99.0055 469.903 122.096 495.263 150.696 514.083C111.826 480.163 95.8655 428.223 94.5055 377.803C93.7855 350.673 96.7155 322.873 105.786 297.173C113.456 275.453 125.566 255.863 140.206 238.173C158.07 216.595 179.11 198.201 200.149 179.806C213.169 168.423 226.188 157.04 238.456 144.903C254.826 128.693 270.126 110.973 281.126 90.5927C282.476 88.0927 283.726 85.5427 284.916 82.9627C273.376 98.4827 256.726 111.053 239.806 119.783C227.285 126.237 214.295 131.737 201.307 137.237ZM181.096 561.853C157.891 561.204 135.17 555.066 114.796 543.943C72.8855 521.343 43.3155 481.873 27.5255 437.473C11.2755 391.803 5.02552 338.403 21.4355 291.973C37.2155 247.333 71.2555 211.153 109.846 184.903C118.906 178.743 128.256 173.053 137.786 167.683C125.846 179.297 115.139 192.116 105.836 205.933C85.0537 236.996 71.4605 272.303 66.0455 309.283C59.9155 351.113 66.2955 392.893 76.4055 433.633C86.1655 472.973 111.026 502.733 144.566 524.633C163.206 536.813 183.946 547.243 205.286 553.723C212.387 555.919 219.597 557.752 226.886 559.213C211.719 561.193 196.429 562.076 181.136 561.853H181.096ZM412.726 330.073C419.896 312.393 433.975 296.853 453.896 294.943H453.936C469.996 293.393 486.135 302.463 489.546 318.563C489.993 313.874 489.385 309.145 487.766 304.723C480.345 284.093 454.845 277.643 436.766 288.273C421.505 297.253 412.916 314.383 407.076 330.433C402.937 341.797 399.869 353.482 396.8 365.167L396.8 365.168C394.968 372.146 393.136 379.124 391.076 386.033C381.386 418.533 365.156 449.123 342.336 474.333C319.816 499.203 290.876 518.173 258.336 526.873C241.398 531.439 223.862 533.385 206.336 532.643C218.068 536.595 230.207 539.215 242.526 540.453C266.116 542.873 289.296 540.833 312.716 538.713C339.746 527.033 363.526 509.133 377.416 481.893C389.355 458.543 394.846 431.283 399.416 405.663C400.897 397.363 401.81 388.774 402.728 380.137L402.728 380.136C404.549 363.006 406.39 345.689 412.726 330.073ZM450.736 365.713C450.051 364.686 449.42 363.625 448.846 362.533C444.704 354.595 445.019 345.069 449.676 337.423C449.682 339.067 449.785 340.71 449.986 342.343C450.986 350.343 455.146 358.173 462.056 362.653C470.176 367.923 480.915 368.273 490.285 367.793C492.236 367.693 494.195 367.533 496.116 367.243C483.656 378.753 465.876 373.043 450.776 365.713H450.736ZM467.204 353.577C467.598 353.878 467.984 354.174 468.416 354.433H468.456C478.936 360.633 494.516 357.883 504.896 353.143C510.146 337.653 507.646 317.323 504.356 303.383C501.919 292.561 497.512 282.28 491.356 273.053C483.976 262.243 475.606 256.723 462.456 255.593C446.756 254.243 430.526 253.733 414.906 256.493C410.888 258.51 407.019 260.809 403.326 263.373C393.253 270.478 384.595 279.401 377.796 289.683C376.71 296.067 375.835 302.509 374.964 308.927L374.964 308.928C373.957 316.344 372.954 323.727 371.636 330.953C367.006 356.433 357.526 379.813 341.406 400.203C325.868 419.856 305.756 435.409 282.826 445.503C259.386 455.723 229.406 462.453 204.956 452.153C155.646 431.383 133.306 368.703 145.226 319.263C151.606 292.813 166.226 269.353 183.026 248.353C202.496 223.963 224.656 201.563 246.746 179.583C264.498 159.115 280.969 137.571 296.066 115.073C304.946 101.773 313.186 87.5927 316.286 71.6227C319.386 55.6526 315.056 42.7927 309.596 28.1127C309.238 27.7682 308.867 27.4369 308.494 27.1042C308.387 27.0082 308.279 26.9121 308.172 26.8155C308.09 26.7416 308.008 26.6673 307.926 26.5927C312.686 47.1027 305.966 71.4326 297.856 89.3027C287.466 112.243 271.086 132.293 253.466 150.093C239.403 164.306 224.188 177.298 208.972 190.29C190.905 205.717 172.839 221.144 156.706 238.613C141.816 254.743 128.806 272.733 120.356 293.093C109.636 318.963 106.056 347.283 106.496 375.093C107.306 427.443 124.496 481.753 168.646 513.443C171.339 515.369 174.086 517.193 176.886 518.913C182.522 520.419 188.246 521.575 194.026 522.373C204.954 523.734 215.997 523.921 226.966 522.933C249.603 520.835 271.53 513.92 291.276 502.653C325.006 483.483 350.836 452.623 367.516 417.913C375.485 401.357 380.08 383.461 384.669 365.591L384.669 365.591C390.192 344.085 395.704 322.618 407.076 303.573C415.696 289.143 428.696 276.153 445.696 272.683C461.806 269.383 479.776 274.263 490.506 287.123C500.406 299.013 503.695 316.323 497.406 330.663C492.426 342.013 479.956 353.153 467.016 353.433C467.079 353.481 467.142 353.529 467.204 353.577ZM506.286 370.433C512.106 363.603 515.536 354.433 516.866 344.833C521.446 311.553 510.326 256.513 472.606 247.043C474.086 247.253 475.556 247.493 477.026 247.773C490.346 250.313 504.026 255.403 514.656 263.953C525.536 272.663 528.166 285.223 530.406 298.253C534.836 323.763 535.426 359.833 506.326 370.453L506.286 370.433ZM525.206 257.083C534.935 265.553 538.966 277.073 541.286 289.433L541.355 289.443C543.945 303.173 546.195 317.433 544.896 331.403C551.796 312.213 552.986 290.363 549.276 270.883C547.271 260.264 543.966 249.933 539.435 240.123C521.836 218.833 497.566 203.633 469.036 203.123C438.346 202.563 408.195 218.863 392.355 245.353C388.217 252.441 384.966 260.011 382.676 267.893C385.718 264.769 388.929 261.815 392.296 259.043C392.566 258.816 392.848 258.598 393.13 258.379C393.296 258.251 393.462 258.122 393.626 257.993C393.79 257.603 394.048 257.26 394.376 256.993C396.466 255.392 398.672 253.948 400.975 252.673C437.556 228.863 491.276 227.583 525.206 257.083Z" fill="#231F20"/>
</svg>
