<svg width="539" height="545" viewBox="0 0 539 545" fill="none" xmlns="http://www.w3.org/2000/svg">
<path d="M470.737 75.3095C467.517 78.8255 464.109 82.1637 460.527 85.3095C460.187 85.5995 459.177 86.3695 457.977 87.3095C457.977 87.4895 458.037 87.6495 458.037 87.8395C458.563 103.319 459.347 118.786 460.387 134.239C461.847 125.739 464.007 117.239 465.657 109.509C468.606 95.5155 472.413 81.7162 477.057 68.1895C474.977 70.6095 472.907 72.9995 470.737 75.3095Z" fill="#00AEEF"/>
<path d="M499.975 219.329C497.975 229.269 495.939 239.193 493.865 249.099C493.175 252.409 492.585 255.829 491.865 259.239L512.955 233.579L513.415 233.039C515.355 223.609 517.905 214.209 519.765 204.889C521.285 197.289 522.545 189.599 523.985 181.949C523.399 175.649 522.845 169.343 522.325 163.029C520.992 146.416 519.939 129.786 519.165 113.139C516.545 129.279 513.625 145.369 510.815 161.339C507.429 180.713 503.815 200.043 499.975 219.329Z" fill="#00AEEF"/>
<path d="M320.627 298.77C330.337 339.04 332.417 383.54 330.807 424.77C329.807 450.88 323.087 478.13 297.117 489.5C289.537 492.82 279.367 495.5 277.047 504.64C274.807 513.45 280.997 521.71 288.567 525.25C304.897 532.89 323.697 523.84 335.297 511.94C348.297 498.61 355.207 480.48 360.677 463.02C366.343 444.984 370.179 426.424 372.127 407.62C375.917 370.44 371.807 334.02 362.177 298.07C348.33 298.323 334.48 298.556 320.627 298.77Z" fill="#00AEEF"/>
<path d="M524.906 218.509C527.846 213.159 526.616 207.189 525.976 201.419L525.706 202.859C524.506 209.319 523.436 216.029 522.166 222.709C523.17 221.371 524.086 219.968 524.906 218.509Z" fill="#00AEEF"/>
<path d="M510.456 29.3895C505.646 64.5595 496.156 99.3895 489.056 134.139C485.556 151.293 482.176 168.463 478.916 185.649C476.036 200.819 474.156 216.649 470.326 231.739C472.38 246.686 474.673 261.609 477.206 276.509C479.496 273.619 481.966 270.849 484.386 268.109C485.096 260.669 487.496 253.109 489.026 245.919C491.026 236.586 492.963 227.253 494.836 217.919C498.603 199.253 502.166 180.523 505.526 161.729C510.176 135.729 513.786 109.549 518.066 83.4795C517.733 71.8195 517.536 60.1528 517.476 48.4795C517.476 39.3695 516.896 29.9495 517.386 20.7195C514.966 23.2695 512.256 25.7195 509.726 28.1395C510.242 28.3218 510.551 28.8504 510.456 29.3895Z" fill="#00AEEF"/>
<path d="M385.845 182.51C385.474 183.23 385.259 184.02 385.215 184.83C385.329 186.359 386.018 187.788 387.145 188.83C387.999 189.007 388.864 189.121 389.735 189.17C390.69 189.279 391.604 189.623 392.395 190.17C393.685 189 393.845 186.32 392.765 184.17C392.178 182.915 391.052 181.996 389.705 181.673C388.358 181.35 386.937 181.658 385.845 182.51Z" fill="white"/>
<path d="M97.6649 194.01C95.0749 193.82 92.8849 199.12 91.0449 202.24C92.5149 205.89 96.5749 209.38 99.6149 205.3C101.145 203.26 101.565 194.3 97.6649 194.01Z" fill="white"/>
<path d="M115.736 92.6595C152.276 91.5695 188.736 89.5595 225.326 88.5395C261.236 87.5395 297.026 88.4495 332.916 89.3495C351.056 89.8095 369.193 90.0161 387.326 89.9695C405.946 89.9195 424.856 88.4695 443.456 89.2795C443.906 85.6795 448.186 81.7395 450.736 79.5095C459.256 71.8506 467.061 63.4326 474.056 54.3595C481.226 45.2995 488.056 35.9395 495.356 27.0295C498.556 23.1495 502.166 18.2595 506.246 14.0895C492.356 14.0895 478.466 12.9895 464.516 14.0895C447.866 15.3695 431.356 17.9195 414.806 20.0895C355.506 27.7195 295.676 27.1795 236.006 26.8295C177.546 26.4795 119.776 28.0095 61.6759 34.4095C55.0559 45.7895 46.1859 56.5095 38.1559 66.8095C33.4225 72.9228 28.5459 78.9461 23.5259 84.8795C21.6359 87.1095 19.7659 89.5295 17.7559 91.7995C50.4359 92.8695 82.9959 93.6295 115.736 92.6595Z" fill="#8DC63F"/>
<path d="M194.137 502.43C183.357 507.09 150.937 501.55 158.017 521.71C165.227 542.24 194.947 530.31 207.017 522.01C238.687 500.3 248.797 460.19 251.807 424.11C255.257 382.7 254.197 341.06 253.867 299.56C241.033 299.66 228.207 299.733 215.387 299.78C219.607 319.72 222.797 339.94 226.257 360.01C229.637 379.61 232.647 399.5 232.477 419.44C232.297 448.14 223.747 489.61 194.137 502.43Z" fill="#00AEEF"/>
<path fill-rule="evenodd" clip-rule="evenodd" d="M446.415 100.9C446.13 100.982 445.84 101.042 445.545 101.08C430.633 102.819 415.259 102.691 400.096 102.564C395.817 102.529 391.555 102.493 387.325 102.5C369.185 102.5 351.049 102.27 332.915 101.81C296.415 100.81 260.045 99.9696 223.525 100.91C205.458 101.379 187.272 102.215 169.031 103.054C116.488 105.47 63.4862 107.907 11.5254 101.65C32.3954 161.83 47.3354 224.65 61.9954 286.65C196.725 289.49 331.475 287.12 466.175 283.54C455.679 223.146 449.079 162.14 446.415 100.9ZM108.215 212.9C99.7254 222.9 83.7654 217.5 80.5054 205.62C76.9654 192.74 86.1254 182.73 97.5054 178.9C100.505 177.9 102.275 180.69 101.825 183.11L101.826 183.11L101.826 183.11L101.826 183.11L101.826 183.11C102.186 183.25 102.546 183.39 102.905 183.56C113.175 188.37 115.285 204.6 108.215 212.9ZM155.125 272.76C155.125 272.809 155.166 272.85 155.215 272.85H155.195C155.245 272.855 155.29 272.819 155.295 272.77C155.301 272.72 155.265 272.675 155.215 272.67C155.166 272.67 155.125 272.71 155.125 272.76ZM256.055 247.21C229.055 248.6 219.135 208.73 219.515 188.34C219.615 183.21 226.895 183.4 227.345 188.34C228.32 198.565 231.168 208.524 235.745 217.72C239.555 225.32 245.605 236.27 255.305 235.99C265.595 235.7 271.495 224.12 272.305 215.26C272.761 210.282 272.106 205.392 271.45 200.499C270.969 196.909 270.488 193.317 270.445 189.69C270.375 183.83 277.965 183.69 279.875 188.41C288.115 208.64 284.285 245.76 256.055 247.21ZM383.495 200.03C388.915 203.1 395.755 203.37 400.495 198.69H400.485C404.925 194.31 406.155 187.51 404.295 181.64C400.345 169 383.955 165.6 375.625 176.12C371.623 181.099 371.304 188.096 374.835 193.42C376.86 196.568 379.924 198.907 383.495 200.03Z" fill="#009444"/>
<path d="M488.186 54.3095C486.246 56.8095 484.286 59.2961 482.306 61.7695C478.146 77.4495 474.126 93.1795 470.746 109.049C467.486 124.369 467.086 141.799 462.076 156.659C463.67 175.899 465.67 195.106 468.076 214.279C469.696 205.409 471.666 196.569 473.306 187.849C476.64 170.063 480.126 152.296 483.766 134.549C490.876 99.6695 496.906 63.5495 508.136 29.7195C507.136 30.7195 506.136 31.7895 505.236 32.8295C499.286 39.7795 493.776 47.0795 488.186 54.3095Z" fill="#00AEEF"/>
<path fill-rule="evenodd" clip-rule="evenodd" d="M175.926 493.54C186.806 492.91 194.926 489.65 201.926 481.09C215.136 464.97 219.576 442.75 220.336 422.47C221.408 393.931 216.332 365.665 211.271 337.477L211.271 337.477L211.271 337.476C209.014 324.911 206.761 312.361 205.056 299.81C155.802 299.956 106.556 299.453 57.3158 298.3C54.6853 298.261 52.3865 296.514 51.6458 293.99C42.8369 256.522 32.674 219.451 22.5114 182.381L22.5113 182.381C15.0112 155.023 7.51121 127.666 0.555778 100.15C0.41027 99.5954 0.359555 99.0206 0.405778 98.4495C-0.854222 95.6595 0.895778 91.2495 4.60578 91.3695H4.94578C6.65971 88.154 9.08105 85.3468 11.5076 82.5337C12.2807 81.6374 13.0543 80.7404 13.8058 79.8295C19.1458 73.3495 24.4358 66.8395 29.5258 60.1495C33.4362 55.0211 37.1059 49.6885 40.7758 44.3554L40.7759 44.3553C44.5483 38.8733 48.321 33.3909 52.3558 28.1295C52.6187 26.6699 53.5947 25.4387 54.9558 24.8495L55.5758 24.0595C56.335 23.0535 57.4868 22.4185 58.7428 22.3135C59.9988 22.2085 61.2401 22.6435 62.1558 23.5095C93.6958 18.2195 125.966 16.5495 157.866 15.6295C185.931 14.8206 214.007 14.9129 242.082 15.0052C274.399 15.1115 306.716 15.2177 339.016 13.9495C369.896 12.7395 400.476 9.73952 431.096 5.61952C433.534 5.29039 436.005 4.94821 438.501 4.60241C464.146 1.05032 492.536 -2.88208 517.496 3.05952C519.223 3.38904 520.636 4.62941 521.186 6.29952C521.475 6.44893 521.747 6.63004 521.996 6.83952C525.344 6.53426 528.375 8.8251 528.996 12.1295C530.125 21.1864 529.838 30.6187 529.553 39.9626V39.9638V39.965V39.9662V39.9674V39.9686V39.9698V39.971V39.9723C529.409 44.6871 529.266 49.3793 529.306 53.9895C529.412 67.3229 529.696 80.6562 530.156 93.9895C531.076 120.676 532.639 147.32 534.846 173.92C535.188 177.91 535.739 182.036 536.298 186.212C537.519 195.347 538.773 204.724 537.936 213.46C537.111 222.084 531.609 228.511 526.189 234.845C525.5 235.65 524.812 236.453 524.136 237.26C521.342 240.593 518.556 243.926 515.776 247.26C515.72 247.399 515.674 247.544 515.627 247.69L515.606 247.755L515.605 247.759L515.604 247.763C515.596 247.786 515.589 247.809 515.581 247.832L515.566 247.88C515.307 248.504 514.794 248.987 514.156 249.21L499.146 267.13C497.198 269.446 495.272 271.959 493.312 274.516L493.312 274.517C488.942 280.219 484.402 286.143 479.066 290.61C478.57 293.44 476.11 295.504 473.236 295.5C440.302 296.386 407.372 297.163 374.446 297.83C387.326 341.06 388.716 388.1 380.566 432.29C374.126 467.19 362.486 510.84 330.396 530.919C316.746 539.459 298.986 542.99 283.876 536.15C270.826 530.24 261.916 516.01 265.556 501.5C268.544 489.576 277.93 485.396 287.554 481.111L287.554 481.111C291.909 479.171 296.314 477.21 300.196 474.5C314.156 464.76 317.616 445.56 318.766 429.76C321.39 393.799 317.417 358.287 313.436 322.72C312.549 314.788 311.661 306.853 310.846 298.91C295.832 299.136 280.816 299.319 265.796 299.46C267.026 326.549 266.626 353.8 265.876 380.89L265.862 381.379V381.38C265.177 405.65 264.484 430.18 259.756 454.07C252.756 489.36 233.616 525.299 198.906 539.82C184.346 545.9 164.666 547.89 152.666 535.4C143.426 525.75 141.796 508.42 152.926 499.6C159.37 494.512 167.326 494.045 175.175 493.584L175.926 493.54ZM360.676 462.99C366.342 444.954 370.178 426.394 372.126 407.59C375.916 370.41 371.806 333.99 362.176 298.01C348.329 298.29 334.479 298.533 320.626 298.74C330.336 339.04 332.416 383.54 330.806 424.74C329.786 450.85 323.116 478.1 297.116 489.47C295.993 489.961 294.813 490.44 293.61 490.927C286.695 493.73 279.022 496.841 277.046 504.61C274.806 513.42 280.996 521.68 288.566 525.22C304.896 532.91 323.696 523.81 335.296 511.91C348.306 498.58 355.206 480.45 360.676 462.99ZM525.976 201.4C526.053 202.1 526.14 202.803 526.226 203.507V203.508C526.853 208.61 527.489 213.789 524.906 218.49C524.085 219.948 523.17 221.351 522.166 222.69C522.854 219.068 523.484 215.438 524.108 211.843C524.634 208.807 525.156 205.797 525.706 202.84L525.976 201.4ZM524.026 181.95C523.439 175.65 522.886 169.343 522.366 163.03C521.039 146.423 519.999 129.79 519.246 113.13C517.256 125.388 515.093 137.601 512.936 149.776L512.935 149.783L512.934 149.788L512.915 149.896L512.851 150.261C512.197 153.954 511.543 157.643 510.896 161.33C507.489 180.71 503.862 200.043 500.016 219.33C498.042 229.27 496.006 239.193 493.906 249.1C493.441 251.205 493.034 253.355 492.623 255.519L492.623 255.521L492.623 255.522C492.388 256.759 492.153 258 491.906 259.24L512.996 233.58L513.456 233.04C514.385 228.524 515.454 224.015 516.52 219.518L516.521 219.513C517.681 214.621 518.837 209.745 519.806 204.89C520.712 200.36 521.525 195.798 522.34 191.232C522.892 188.137 523.444 185.04 524.026 181.95ZM517.366 20.7295L517.365 20.7518C515.634 22.5738 513.756 24.3397 511.894 26.0898L511.894 26.0899L511.892 26.0916C511.158 26.7826 510.425 27.471 509.706 28.1595C510.218 28.3412 510.525 28.8639 510.436 29.3995C507.231 52.8347 501.948 76.1056 496.678 99.3158L496.678 99.317L496.678 99.3181L496.678 99.3193L496.677 99.3204L496.677 99.3215C494.039 110.942 491.404 122.547 489.036 134.15C485.536 151.303 482.156 168.473 478.896 185.66C477.892 190.946 477.01 196.317 476.124 201.708C474.469 211.787 472.801 221.938 470.306 231.75C472.352 246.71 474.646 261.633 477.186 276.52C479.302 273.849 481.571 271.282 483.813 268.745L483.813 268.745L484.366 268.12C484.849 263.054 486.116 257.934 487.358 252.912L487.358 252.911C487.941 250.557 488.518 248.224 489.006 245.93C490.999 236.596 492.936 227.263 494.816 217.93C498.609 199.236 502.172 180.506 505.506 161.74C508.338 145.925 510.784 130.021 513.23 114.113C514.801 103.899 516.372 93.6836 518.046 83.4895C517.712 71.8162 517.516 60.1495 517.456 48.4895C517.43 45.8735 517.371 43.232 517.312 40.5767L517.312 40.5713C517.165 33.989 517.017 27.3224 517.365 20.7518L517.386 20.7295H517.366ZM473.286 187.81C476.646 170.016 480.132 152.25 483.746 134.51C485.112 127.816 486.438 121.076 487.768 114.313L487.77 114.304C493.364 85.8703 499.035 57.0473 508.066 29.6795C507.036 30.7195 506.056 31.7895 505.166 32.7895C500.262 38.5658 495.628 44.5838 490.993 50.6024L490.992 50.604C490.051 51.8265 489.109 53.049 488.166 54.2695C486.246 56.7762 484.286 59.2629 482.286 61.7295C478.126 77.4095 474.106 93.1395 470.726 109.01C469.46 114.958 468.624 121.226 467.782 127.537L467.782 127.537V127.538C466.455 137.479 465.114 147.53 462.056 156.62C463.669 175.873 465.669 195.08 468.056 214.24C468.927 209.468 469.9 204.705 470.868 199.965L470.869 199.963L470.869 199.962L470.869 199.96L470.87 199.956L470.871 199.951C471.702 195.884 472.529 191.834 473.286 187.81ZM460.386 134.12C459.359 118.666 458.576 103.2 458.036 87.7195C458.036 87.6133 458.02 87.5164 458.005 87.4201C457.992 87.3443 457.98 87.2689 457.976 87.1895C459.176 86.2895 460.186 85.5195 460.526 85.1895C464.108 82.0438 467.516 78.7055 470.736 75.1895C472.906 72.8795 474.976 70.4895 477.026 68.0695C472.396 81.5707 468.599 95.3433 465.656 109.31C465.035 112.37 464.323 115.515 463.598 118.716C462.454 123.768 461.28 128.956 460.386 134.16V134.12ZM38.1558 66.8095C33.4224 72.9362 28.5458 78.9595 23.5258 84.8795C22.7908 85.7467 22.0589 86.6395 21.3194 87.5416L21.3182 87.5431L21.318 87.5434L21.3178 87.5436L21.3175 87.544C20.156 88.961 18.9757 90.4008 17.7358 91.7995C50.4358 92.8695 82.9958 93.6595 115.736 92.6595C132.841 92.1352 149.94 91.4181 167.039 90.7009C186.465 89.8861 205.891 89.0714 225.326 88.5395C260.822 87.5412 296.201 88.4286 331.676 89.3184L332.916 89.3495C351.049 89.8095 369.186 90.0162 387.326 89.9695C394.439 89.9504 401.594 89.727 408.758 89.5034C420.348 89.1415 431.961 88.7789 443.456 89.2795C443.906 85.6795 448.186 81.7395 450.736 79.5095C459.256 71.8507 467.061 63.4327 474.056 54.3595C477.107 50.5037 480.097 46.5936 483.088 42.6823L483.089 42.6811L483.09 42.6793C487.126 37.4012 491.163 32.1211 495.356 26.9695C496.234 25.9051 497.142 24.7647 498.083 23.5841L498.084 23.5825C500.573 20.4596 503.286 17.0551 506.246 14.0295C501.618 14.0295 496.996 13.9096 492.371 13.7897C483.116 13.5496 473.851 13.3093 464.516 14.0295C452.096 15.0141 439.755 16.6831 427.416 18.3517L427.416 18.3517C423.213 18.92 419.011 19.4883 414.806 20.0295C356.847 27.4869 298.383 27.1398 240.056 26.7935L236.006 26.7695C177.546 26.4195 119.776 27.9495 61.6758 34.3495C56.2249 43.7714 49.2464 52.6593 42.4908 61.2633C41.0294 63.1245 39.5785 64.9724 38.1558 66.8095ZM61.9858 286.63C47.3258 224.69 32.3858 161.83 11.5158 101.63C63.4785 107.887 116.488 105.45 169.031 103.033C187.27 102.195 205.453 101.358 223.516 100.89C260.036 99.9495 296.406 100.83 332.906 101.79C351.046 102.27 369.182 102.5 387.316 102.48C391.346 102.48 395.405 102.515 399.479 102.551C414.842 102.686 430.423 102.822 445.536 101.06C445.83 101.022 446.121 100.962 446.406 100.88C449.07 162.117 455.67 223.119 466.166 283.51C331.466 287.1 196.716 289.51 61.9858 286.63ZM224.097 347.037C224.829 351.365 225.561 355.691 226.306 360.01C229.686 379.609 232.696 399.51 232.576 419.43C232.346 448.14 223.796 489.609 194.186 502.43C191.016 503.8 185.976 504.288 180.619 504.807C167.757 506.053 153.067 507.477 158.066 521.709C165.226 542.24 194.946 530.31 207.066 522.01C238.736 500.299 248.856 460.19 251.856 424.109C254.826 388.461 254.453 352.643 254.082 316.889C254.022 311.111 253.962 305.334 253.916 299.56C241.096 299.666 228.269 299.74 215.436 299.78C218.748 315.429 221.425 331.251 224.097 347.037Z" fill="#231F20"/>
<path d="M270.437 189.69C270.537 198.26 273.087 206.63 272.297 215.26C271.487 224.12 265.587 235.7 255.297 235.99C245.597 236.27 239.547 225.32 235.737 217.72C231.159 208.524 228.311 198.565 227.337 188.34C226.887 183.4 219.607 183.21 219.507 188.34C219.127 208.73 229.027 248.6 256.047 247.21C284.287 245.76 288.117 208.64 279.867 188.41C277.957 183.73 270.367 183.83 270.437 189.69Z" fill="#231F20"/>
<path fill-rule="evenodd" clip-rule="evenodd" d="M374.865 193.419C371.334 188.096 371.653 181.099 375.655 176.119C383.985 165.599 400.375 168.999 404.365 181.639C406.195 187.489 404.965 194.309 400.525 198.689C395.745 203.369 388.905 203.099 383.525 200.029C379.954 198.907 376.89 196.568 374.865 193.419ZM389.735 189.119C390.691 189.229 391.604 189.573 392.395 190.119C393.685 188.949 393.845 186.269 392.765 184.149C392.184 182.89 391.061 181.964 389.713 181.635C388.366 181.306 386.942 181.609 385.845 182.459C385.474 183.18 385.26 183.97 385.215 184.779C385.329 186.309 386.019 187.738 387.145 188.779C387.999 188.957 388.865 189.071 389.735 189.119Z" fill="#231F20"/>
<path fill-rule="evenodd" clip-rule="evenodd" d="M101.816 183.11C102.176 183.25 102.536 183.39 102.896 183.56C113.176 188.37 115.286 204.6 108.206 212.9C99.7159 222.86 83.7559 217.5 80.4959 205.62C76.9659 192.74 86.1259 182.73 97.4959 178.9C100.446 177.91 102.266 180.69 101.816 183.11ZM91.0459 202.24C92.5159 205.89 96.6159 209.38 99.6159 205.3C101.146 203.26 101.566 194.3 97.6659 194.01C95.5687 193.858 93.7662 197.223 92.1866 200.173C91.7929 200.908 91.413 201.617 91.0459 202.24Z" fill="#231F20"/>
<path d="M155.195 272.85C155.245 272.85 155.285 272.809 155.285 272.76C155.285 272.71 155.245 272.67 155.195 272.67C155.146 272.67 155.105 272.71 155.105 272.76C155.105 272.809 155.146 272.85 155.195 272.85Z" fill="#231F20"/>
</svg>
