<svg width="488" height="584" viewBox="0 0 488 584" fill="none" xmlns="http://www.w3.org/2000/svg">
<path d="M13.1114 222C21.0014 226.13 30.7314 223.07 38.4414 228.2C45.1514 232.66 47.2914 240.82 48.5114 248.33C50.1614 258.48 50.1814 268.85 52.2014 278.94C54.3614 289.76 59.5714 298.26 67.0314 306.26C73.4114 313.11 80.7114 322.04 90.6014 323.21C91.6602 323.31 92.6354 323.829 93.3114 324.65C93.6118 311.651 94.7945 298.688 96.8514 285.85H96.6714C77.3114 280.56 72.2614 256.69 70.0814 239.64C68.8314 229.82 69.2314 211.48 58.8514 206.51C49.8514 202.2 36.8514 202.43 27.1214 203.78C22.0514 204.48 16.6614 205.93 12.7114 209.37C8.09136 213.41 7.13136 218.91 13.1114 222Z" fill="#FFF200"/>
<path fill-rule="evenodd" clip-rule="evenodd" d="M127.094 436.058L127.094 436.058C122.615 427.33 118.157 418.643 114.731 409.33C110.195 396.876 106.795 384.037 104.571 370.97C99.6813 342.8 100.211 313.76 104.831 285.58C109.411 257.68 117.751 230.4 128.621 204.32C139.391 178.48 153.201 153.48 171.821 132.48C190.681 111.19 214.451 94.0797 241.621 85.2697C240.786 88.5583 240.356 91.9368 240.341 95.3297C240.378 97.4476 242.084 99.1571 244.201 99.1997C249.642 99.5597 253.636 96.8342 257.812 93.9856L257.812 93.9853C258.74 93.352 259.677 92.7127 260.641 92.0997C266.645 88.3432 273.222 85.5904 280.111 83.9497C292.084 80.9437 304.25 81.1611 316.456 81.3792C318.38 81.4136 320.306 81.448 322.231 81.4697C325.881 81.5098 326.921 75.5097 323.111 74.9097C309.747 72.7917 296.119 72.9879 282.821 75.4897C276.463 76.6706 270.271 78.6182 264.381 81.2897C261.448 82.6325 258.62 84.1935 255.921 85.9597C255.109 86.4855 254.319 87.0591 253.531 87.6312L253.531 87.6314L253.53 87.6316L253.53 87.6318L253.53 87.632L253.529 87.6322L253.529 87.6323C251.875 88.8336 250.23 90.0283 248.401 90.7597C250.901 71.9597 268.221 60.4097 286.401 57.6297C289.581 57.1597 290.211 51.9597 287.321 50.6297L257.641 37.0497L243.361 30.4997C242.566 30.122 241.726 29.7623 240.873 29.3967L240.872 29.3967L240.872 29.3966L240.872 29.3965C238.743 28.4846 236.529 27.5359 234.701 26.1797C259.941 18.3297 293.601 11.7597 310.321 37.4997C312.991 41.5897 319.161 38.0097 316.881 33.6697L309.591 19.7797C309.09 18.8308 308.406 17.7118 307.665 16.4976L307.665 16.4973C306.617 14.7814 305.452 12.8753 304.521 10.9897C324.338 19.5048 341.901 32.5145 355.821 48.9897C358.211 51.7997 363.441 48.7997 362.131 45.3197C360.552 40.792 359.518 36.0922 359.051 31.3197V29.1197C358.371 28.2097 358.481 28.1197 359.481 28.8697C360.365 28.9139 361.601 29.8856 362.615 30.6822C362.978 30.9673 363.312 31.23 363.591 31.4197C370.249 36.021 376.044 41.7586 380.711 48.3697C390.231 61.6797 395.051 77.2497 398.771 92.9997C398.984 93.971 399.721 94.7424 400.681 94.9997C404.952 100.018 409.557 104.75 414.168 109.488C417.459 112.87 420.753 116.255 423.931 119.75C432.096 128.549 439.711 137.843 446.731 147.58C460.931 167.6 470.731 189.81 473.661 214.32C479.971 267.02 466.721 319.99 447.811 368.75L447.354 369.93L446.711 371.584L446.711 371.584C437.513 395.275 428.184 419.301 427.741 444.89C427.209 451.799 427.029 458.732 427.201 465.66C427.294 478.05 429.087 490.368 432.531 502.27C435.851 513.681 441.573 524.25 449.311 533.27C453.303 537.892 458.127 541.725 463.531 544.57C465.787 545.732 468.161 546.65 470.611 547.31C471.491 547.541 472.382 547.728 473.281 547.87C427.711 573.27 374.901 579.77 323.421 571.63C296.221 567.29 267.701 560.36 243.611 546.63C221.041 533.79 200.611 516.23 181.611 498.7C171.03 488.979 160.998 478.676 151.561 467.84C147.145 462.706 142.985 457.31 138.825 451.914L138.824 451.913C135.448 447.535 132.073 443.157 128.561 438.92C128.073 437.965 127.584 437.011 127.094 436.058ZM452.011 303.3C452.051 304.46 453.891 304.83 454.141 303.58C456.001 294 456.421 282.77 454.331 273.15C454.201 272.55 453.151 272.5 453.071 273.15C451.893 283.154 451.539 293.238 452.011 303.3ZM429.401 151.44C447.401 183.19 460.531 221.16 454.671 258.16C454.521 259.1 453.161 258.78 453.101 257.95C452.959 255.712 452.825 253.476 452.69 251.242L452.689 251.227V251.226C451.724 235.202 450.766 219.297 447.221 203.53C443.221 185.85 437.391 167.8 428.721 151.84C428.611 151.652 428.674 151.41 428.861 151.3C429.049 151.189 429.291 151.252 429.401 151.44ZM426.681 304.79C425.174 304.376 423.616 305.262 423.201 306.77C413.331 331.49 392.001 345.25 368.231 354.98C366.259 355.795 364.274 356.581 362.291 357.366L362.287 357.367L362.283 357.369L362.279 357.371L362.275 357.372L362.271 357.374L362.267 357.376C353.161 360.982 344.095 364.572 336.381 370.85C328.344 377.423 322.066 385.89 318.111 395.49C314.041 405.39 311.271 418.86 313.431 429.49C315.081 437.56 323.171 444.98 331.541 440.49C337.675 437.202 339.215 430.075 340.686 423.269C341.385 420.034 342.068 416.872 343.221 414.23C347.762 403.786 358.685 400.768 368.791 397.976C369.523 397.773 370.251 397.572 370.971 397.37C394.891 390.63 417.801 374.97 421.891 348.79C422.571 344.29 415.811 342.24 414.891 346.87C410.501 369.03 392.061 383.04 371.391 389.23C369.725 389.728 368.04 390.195 366.353 390.663C359.474 392.571 352.536 394.494 346.481 398.63C338.941 403.78 335.401 411.46 333.351 420.12C333.168 420.9 333.005 421.845 332.829 422.872C332.19 426.598 331.368 431.393 328.671 433.22C324.571 436 321.741 431.19 320.961 427.95C320.308 425.255 320.544 422.296 320.766 419.505L320.766 419.502L320.766 419.499L320.802 419.046C320.819 418.833 320.836 418.621 320.851 418.41C321.651 407.5 324.531 397.25 330.771 388.18C340.196 374.521 354.756 368.541 369.38 362.536L369.381 362.535C374.927 360.257 380.483 357.976 385.771 355.27C404.591 345.67 424.211 330.14 428.661 308.27C429.076 306.762 428.189 305.204 426.681 304.79ZM399.891 249.57C401.971 249.433 404.007 250.207 405.471 251.69C409.311 255.6 407.381 262.53 402.321 264.28C397.261 266.03 391.771 262.1 391.441 256.84C391.171 252.7 395.771 246.24 399.891 249.57ZM319.891 162.33C309.251 169.64 304.831 180.8 303.691 193.33C301.501 217.58 316.821 247.59 345.121 244.01C370.061 240.83 386.571 211.17 383.571 187.88C382.111 176.43 376.151 164.99 365.521 159.61C363.497 158.58 361.35 157.814 359.131 157.33H359.071C345.951 153.68 331.361 154.42 319.891 162.33ZM268.691 292.63C291.367 294.95 313.755 294.402 336.332 293.85L336.338 293.85C341.975 293.712 347.624 293.574 353.291 293.48C354.427 293.408 355.533 293.861 356.291 294.71C357.871 295.538 358.711 297.313 358.351 299.06C355.401 315.62 344.221 330.84 331.911 341.8C320.041 352.37 305.581 360.89 290.161 364.98C273.241 369.46 255.551 367.32 239.441 360.84C224.081 354.66 209.441 345.51 199.291 332.2C189.088 318.764 182.628 302.864 180.571 286.12C180.231 283.2 183.991 282.19 185.901 283.67C195.8 283.577 205.952 285.013 215.935 286.425C219.961 286.994 223.959 287.56 227.901 288.02C230.69 288.343 233.476 288.669 236.261 288.995L236.269 288.996L236.271 288.996L236.272 288.996C247.089 290.262 257.887 291.525 268.691 292.63ZM218.451 154.24C200.871 146 177.261 161.95 170.261 178C163.111 194.37 161.211 221.26 177.381 233C183.245 237.269 190.457 239.269 197.681 238.63C217.241 240.36 232.951 225.99 236.181 206.99C239.301 188.71 237.661 163.24 218.451 154.24ZM151.361 436.46C160.196 443.798 167.384 452.566 174.588 461.353C178.987 466.719 183.392 472.092 188.181 477.15C195.01 484.205 202.416 490.677 210.321 496.5C212.737 498.324 215.298 500.058 217.875 501.802L217.875 501.803C223.149 505.373 228.485 508.985 232.751 513.5C233.261 514.04 232.751 515.18 231.961 514.86C224.471 511.897 217.592 506.624 211.119 501.662C210.229 500.98 209.346 500.303 208.471 499.64C200.92 494.004 193.834 487.77 187.281 481C181.331 474.77 176.087 467.933 170.843 461.098C164.472 452.791 158.102 444.488 150.471 437.28C149.871 436.75 150.751 435.93 151.361 436.43V436.46ZM142.361 239.07C141.605 239.335 140.901 239.731 140.281 240.24C138.291 241.935 137.491 244.646 138.241 247.15C139.083 249.753 141.558 251.475 144.291 251.36C146.916 251.129 149.121 249.29 149.821 246.75C150.461 244.73 150.531 241.91 149.361 240.07C147.721 237.58 144.531 237.52 142.361 239.07Z" fill="#FFF200"/>
<path d="M195.361 231.25C187.961 220.74 184.591 206.13 184.231 194C184.101 189.78 184.661 176.7 187.851 168C180.561 173.47 176.301 181 174.411 190.19C172.311 200.49 170.931 214.69 177.991 223.38C182.291 228.66 188.771 231.13 195.361 231.25Z" fill="white"/>
<path d="M337.381 236.68C318.201 220.42 317.131 184.53 333.431 166.1C334.645 164.739 335.984 163.497 337.431 162.39C331.462 163.458 325.881 166.083 321.251 170C312.311 177.79 310.051 189.89 310.541 201.28C311.211 216.7 322.081 234.55 337.381 236.68Z" fill="white"/>
<path d="M336.391 370.93C328.354 377.503 322.076 385.97 318.121 395.57C314.051 405.44 311.281 418.91 313.441 429.57C315.091 437.63 323.181 445.05 331.551 440.57C340.601 435.72 339.651 422.51 343.231 414.31C348.101 403.11 360.311 400.46 370.981 397.45C394.911 390.71 417.811 375.05 421.901 348.87C422.611 344.37 415.901 342.32 414.901 346.95C410.511 369.11 392.071 383.12 371.401 389.31C362.941 391.84 353.891 393.66 346.491 398.71C339.091 403.76 335.411 411.54 333.361 420.2C332.511 423.81 332.121 430.97 328.681 433.3C324.581 436.08 321.751 431.3 320.971 428.03C320.231 424.98 320.631 421.59 320.861 418.49C321.661 407.58 324.541 397.33 330.781 388.26C343.731 369.42 366.511 365.19 385.781 355.35C404.601 345.71 424.221 330.18 428.671 308.35C429.085 306.842 428.199 305.284 426.691 304.87C425.183 304.456 423.625 305.342 423.211 306.85C413.341 331.57 392.031 345.33 368.211 355.14C357.201 359.62 345.791 363.28 336.391 370.93Z" fill="#231F20"/>
<path fill-rule="evenodd" clip-rule="evenodd" d="M22.2601 231.833H22.2603C24.6873 232.035 27.1135 232.237 29.4809 232.81C36.4809 234.53 38.8809 239.9 40.2709 246.42C41.5188 252.279 42.0125 258.247 42.5062 264.215C42.974 269.869 43.4418 275.525 44.5509 281.09C47.0309 293.61 53.4609 303.52 62.1209 312.7C62.3476 312.94 62.575 313.182 62.8032 313.424C70.4145 321.505 78.8634 330.476 90.6209 331.01C91.5846 331.093 92.5398 330.774 93.2609 330.13C93.2333 341.03 93.9215 351.92 95.3209 362.73C97.2868 378.315 100.866 393.654 106.001 408.5C111.181 423.29 117.641 438.65 127.571 450.9C127.915 451.365 128.393 451.714 128.941 451.9C133.38 458.273 138.143 464.414 143.211 470.3C151.798 480.459 160.935 490.14 170.581 499.3C190.001 517.89 211.131 536.07 233.981 550.3C258.131 565.38 286.571 573.23 314.381 578.3C342.381 583.39 370.991 584.81 399.201 581.03C429.531 576.96 459.541 567.03 485.201 550.22C488.571 548.02 486.961 543.38 483.991 542.65C482.214 540.592 479.845 540.383 477.254 540.155C476.068 540.05 474.835 539.942 473.591 539.65C467.461 538.25 462.041 534.58 457.591 530.22C448.971 521.76 443.311 510.54 439.911 499.05C434.26 479.954 435.036 460.934 435.824 441.636L435.824 441.631C435.943 438.697 436.063 435.757 436.161 432.81C440.161 412.23 447.441 392.38 455.001 372.81C464.731 347.63 473.271 322.36 478.001 295.69C482.561 269.69 484.791 242.69 482.001 216.38C479.374 192.313 470.916 169.25 457.361 149.19C450.107 138.455 442.054 128.283 433.271 118.76C424.221 108.76 414.831 98.4698 404.421 89.8798C401.421 68.9398 393.211 48.3898 377.941 33.3498C377.653 33.075 377.342 32.7751 377.009 32.455L377.004 32.4495C372.075 27.7013 362.542 18.5178 355.771 20.6998C351.301 22.1398 350.551 27.3998 351.181 33.0098C336.519 18.9141 319.092 8.0143 300.001 0.999772C297.511 0.0797721 295.351 2.41977 295.181 4.66977C294.871 8.92568 297.145 12.8763 299.287 16.5977L299.288 16.5995C299.567 17.0834 299.843 17.5634 300.111 18.0398C278.761 6.60977 249.801 13.1598 227.181 20.6198C226.058 20.9574 225.148 21.7845 224.706 22.8701C224.263 23.9557 224.335 25.1832 224.901 26.2098C228.061 33.0902 236.543 36.4449 243.901 39.3548C245.858 40.1286 247.735 40.871 249.411 41.6398L273.811 52.8498C260.521 57.3998 249.131 66.5398 243.701 79.0698C243.047 78.742 242.291 78.6776 241.591 78.8898C187.001 93.7298 149.631 140.16 126.841 189.69C113.661 218.35 103.351 248.97 97.8409 280.29C81.6397 269.402 79.3423 252.297 76.9951 234.821C76.21 228.976 75.4193 223.089 74.1009 217.38C71.5709 206.43 66.2409 199.99 55.1009 197.38C44.2224 194.85 32.9269 194.689 21.9809 196.91C13.5509 198.76 3.86094 203.91 1.40094 212.84C-1.05906 221.77 6.13094 228.28 14.0009 230.58C16.6974 231.37 19.4794 231.601 22.2601 231.833ZM104.801 285.58C109.381 257.68 117.721 230.4 128.591 204.32C139.361 178.51 153.171 153.5 171.791 132.48C190.651 111.19 214.421 94.0798 241.591 85.2698C240.756 88.5584 240.326 91.9368 240.311 95.3298C240.348 97.4476 242.053 99.1571 244.171 99.1998C249.611 99.5597 253.606 96.8343 257.781 93.9856C258.71 93.3522 259.647 92.7128 260.611 92.0998C266.612 88.3627 273.181 85.6269 280.061 83.9998C292.068 81.0023 304.286 81.217 316.518 81.432H316.519C318.406 81.4652 320.294 81.4984 322.181 81.5198C325.831 81.5198 326.871 75.5198 323.061 74.9598C309.697 72.8417 296.068 73.0379 282.771 75.5398C276.412 76.7206 270.221 78.6682 264.331 81.3398C261.398 82.6793 258.57 84.237 255.871 85.9998C255.111 86.4992 254.364 87.0418 253.616 87.5853C251.923 88.8157 250.224 90.0507 248.351 90.7998C250.901 71.9998 268.221 60.4498 286.351 57.6698C289.531 57.1798 290.161 51.9798 287.271 50.6698L257.641 37.0498L243.361 30.4998C242.653 30.1739 241.91 29.857 241.154 29.5344C238.94 28.59 236.609 27.596 234.701 26.1798C259.941 18.3298 293.601 11.7598 310.351 37.4698C313.021 41.5598 319.191 37.9798 316.911 33.6398L309.621 19.7498C309.12 18.8012 308.437 17.6827 307.695 16.469L307.694 16.4673L307.694 16.467C306.646 14.7513 305.482 12.8452 304.551 10.9598C324.372 19.4863 341.935 32.51 355.851 48.9998C358.241 51.8098 363.471 48.8098 362.161 45.3298C360.582 40.802 359.548 36.1022 359.081 31.3298V29.1298C358.401 28.2198 358.541 28.1298 359.511 28.8798C360.361 28.9223 361.513 29.8235 362.507 30.6013C362.916 30.9211 363.298 31.22 363.621 31.4298C370.278 36.031 376.074 41.7686 380.741 48.3798C390.261 61.6898 395.081 77.2598 398.801 93.0098C399.014 93.981 399.751 94.7525 400.711 95.0098C405.045 100.137 409.763 104.966 414.477 109.79L414.478 109.79L414.479 109.792C417.672 113.059 420.863 116.325 423.931 119.68C432.096 128.479 439.71 137.773 446.731 147.51C460.931 167.51 470.731 189.74 473.661 214.25C479.971 266.95 466.721 319.92 447.811 368.68C447.445 369.624 447.078 370.569 446.711 371.514C437.512 395.205 428.183 419.231 427.741 444.82C427.208 451.729 427.028 458.662 427.201 465.59C427.293 477.98 429.087 490.298 432.531 502.2C435.851 513.611 441.572 524.18 449.311 533.2C453.303 537.822 458.126 541.655 463.531 544.5C465.787 545.662 468.16 546.58 470.611 547.24C471.491 547.471 472.382 547.658 473.281 547.8C427.711 573.2 374.901 579.7 323.421 571.56C296.221 567.26 267.701 560.33 243.611 546.56C221.081 533.72 200.611 516.16 181.611 498.63C171.029 488.909 160.997 478.606 151.561 467.77C147.125 462.613 142.945 457.193 138.766 451.774L138.765 451.773C135.407 447.418 132.049 443.065 128.561 438.85L127.9 437.569C123.123 428.306 118.392 419.135 114.731 409.26C110.184 396.84 106.766 384.034 104.521 371C99.6309 342.82 100.161 313.78 104.781 285.6L104.801 285.58ZM27.1209 203.79C22.0509 204.49 16.6609 205.94 12.7109 209.38C8.09094 213.41 7.13094 218.91 13.1109 222.01C16.801 223.941 20.8935 224.3 24.9936 224.66C29.6603 225.069 34.3368 225.479 38.4409 228.21C45.1509 232.67 47.2909 240.83 48.5109 248.34C49.2846 252.986 49.7041 257.679 50.1234 262.37C50.6201 267.925 51.1165 273.479 52.2009 278.95C54.3609 289.77 59.5709 298.27 67.0309 306.27C67.6208 306.903 68.2184 307.554 68.8253 308.215C74.7828 314.705 81.6252 322.158 90.6009 323.22C91.6598 323.32 92.635 323.839 93.3109 324.66C93.6114 311.661 94.7941 298.698 96.8509 285.86H96.6709C77.3109 280.57 72.2609 256.65 70.0809 239.65C69.8788 238.036 69.7202 236.194 69.5502 234.218C68.6853 224.172 67.5254 210.698 58.8509 206.52C49.8409 202.21 36.8409 202.44 27.1209 203.79Z" fill="#231F20"/>
<path d="M185.941 283.67C184.031 282.19 180.271 283.2 180.611 286.12C182.669 302.865 189.128 318.765 199.331 332.2C209.451 345.51 224.121 354.66 239.481 360.84C255.591 367.32 273.281 369.46 290.201 364.98C305.621 360.89 320.081 352.37 331.951 341.8C344.261 330.8 355.441 315.62 358.391 299.06C358.752 297.313 357.911 295.538 356.331 294.71C355.573 293.862 354.467 293.408 353.331 293.48C324.961 293.95 297.071 295.48 268.731 292.63C255.141 291.24 241.561 289.63 227.991 288.02C214.221 286.42 199.831 283.54 185.941 283.67Z" fill="#231F20"/>
<path d="M402.321 264.28C407.381 262.53 409.321 255.6 405.471 251.69C404.007 250.207 401.971 249.433 399.891 249.57C395.771 246.24 391.171 252.7 391.441 256.84C391.771 262.1 397.201 266.06 402.321 264.28Z" fill="#231F20"/>
<path d="M144.252 251.39C146.877 251.159 149.082 249.32 149.782 246.78C150.422 244.78 150.492 241.94 149.322 240.1C147.722 237.58 144.532 237.52 142.322 239.1C141.565 239.365 140.861 239.761 140.242 240.27C138.225 241.96 137.407 244.689 138.162 247.21C139.019 249.816 141.512 251.527 144.252 251.39Z" fill="#231F20"/>
<path fill-rule="evenodd" clip-rule="evenodd" d="M197.682 238.63C190.457 239.269 183.245 237.269 177.382 233C161.212 221.26 163.112 194.37 170.262 178.01C177.272 161.96 200.872 146.01 218.452 154.25C237.662 163.26 239.302 188.72 236.182 207C233.002 226 217.242 240.33 197.682 238.63ZM187.822 168.01C180.532 173.48 176.272 180.98 174.382 190.2L174.412 190.17C172.312 200.47 170.932 214.67 177.962 223.37C182.262 228.67 188.742 231.14 195.332 231.26C187.932 220.75 184.562 206.14 184.202 194.01C184.072 189.81 184.632 176.73 187.822 168.01Z" fill="#231F20"/>
<path fill-rule="evenodd" clip-rule="evenodd" d="M383.571 187.87C386.551 211.16 370.061 240.82 345.121 244C316.821 247.59 301.501 217.58 303.691 193.32C304.831 180.82 309.251 169.66 319.891 162.32C331.361 154.45 345.951 153.71 359.071 157.32H359.131C361.35 157.804 363.497 158.57 365.521 159.6C376.151 164.98 382.111 176.42 383.571 187.87ZM337.401 162.37C331.44 163.449 325.87 166.081 321.251 170C312.311 177.81 310.051 189.91 310.511 201.28C311.181 216.66 322.051 234.53 337.351 236.66C318.171 220.4 317.101 184.51 333.401 166.08C334.614 164.72 335.953 163.477 337.401 162.37Z" fill="#231F20"/>
<path d="M447.221 203.53C451.221 221.53 451.941 239.65 453.101 257.95C453.161 258.78 454.521 259.1 454.671 258.16C460.531 221.16 447.371 183.16 429.401 151.44C429.29 151.252 429.048 151.189 428.861 151.3C428.673 151.41 428.61 151.652 428.721 151.84C437.391 167.8 443.251 185.85 447.221 203.53Z" fill="#231F20"/>
<path d="M453.071 273.15C451.889 283.153 451.531 293.237 452.001 303.3C452.001 304.46 453.881 304.83 454.131 303.58C456.011 293.96 456.411 282.77 454.321 273.15C454.201 272.55 453.151 272.5 453.071 273.15Z" fill="#231F20"/>
<path d="M187.28 481C193.835 487.756 200.921 493.976 208.47 499.6C215.71 505.09 223.47 511.45 231.96 514.82C232.76 515.14 233.26 514 232.75 513.46C226.4 506.71 217.68 501.99 210.32 496.46C202.414 490.637 195.009 484.165 188.18 477.11C175.55 463.77 165.59 448.24 151.36 436.42C150.75 435.92 149.87 436.74 150.47 437.31C164.38 450.46 174.1 467.24 187.28 481Z" fill="#231F20"/>
</svg>
