<svg width="375" height="583" viewBox="0 0 375 583" fill="none" xmlns="http://www.w3.org/2000/svg">
<path d="M247.729 377C252.309 380.51 254.419 368.77 248.569 370.38C247.886 370.576 247.156 370.522 246.509 370.23C246.335 370.692 246.211 371.172 246.139 371.66C245.939 373.31 246.269 375.86 247.729 377Z" fill="white"/>
<path d="M47.2188 489.74C50.0188 489.41 52.8188 489.04 55.6088 488.57C77.3988 484.9 98.6988 478.89 119.999 473.1C151.999 464.42 184.239 456.39 215.929 446.66C177.529 441.23 139.169 435.46 100.819 429.66C90.3388 428.08 79.8188 426.52 69.3788 424.9C67.0788 424.55 64.2088 423.64 61.8588 423.9C58.6688 424.31 56.4588 427.1 54.5688 429.36C51.8685 432.613 49.5749 436.182 47.7388 439.99C40.2988 455.3 40.5088 472.63 47.0388 488.15C47.2587 488.65 47.3215 489.204 47.2188 489.74Z" fill="#603913"/>
<path fill-rule="evenodd" clip-rule="evenodd" d="M298.78 363.08C296.75 373.41 294.19 384.08 288.49 393.08C283.57 400.889 275.783 405.834 268.048 410.746C258.034 417.106 248.108 423.409 244.61 435.8C244.481 436.272 244.437 436.763 244.48 437.25C240.007 438.87 235.507 440.427 230.98 441.92C230.439 441.265 229.664 440.845 228.82 440.75C204.933 437.123 181.03 433.597 157.11 430.17C141.4 424.26 130.79 410.66 126.26 394.66C121.11 376.5 121.05 353.44 127.4 335.59C132.024 322.591 140.282 311.244 148.506 299.944C157.496 287.592 166.444 275.296 170.56 260.96C171.299 264.958 171.816 268.994 172.11 273.05C172.35 276.38 176.72 277.9 178.57 274.8C185.34 263.44 192.17 252.14 200.08 241.52C203.765 236.561 207.614 231.718 211.465 226.874L211.465 226.874L211.465 226.873L211.465 226.873L211.465 226.873L211.465 226.873L211.466 226.873C215.628 221.635 219.791 216.397 223.75 211.01C235.33 195.21 245.15 177.42 247.33 157.92C283.29 213.3 303.83 282.16 277.9 345.98C276.61 349.14 280.89 351.99 283.54 350.31C290.652 345.819 297.277 340.601 303.31 334.74C302.1 344.23 300.63 353.69 298.78 363.08ZM134.77 385C135.207 384.478 135.546 383.882 135.77 383.24C136.024 382.373 135.96 381.444 135.59 380.62C134.973 379.151 133.543 378.189 131.95 378.17C130.538 378.209 129.243 378.963 128.51 380.17C128.077 380.941 127.911 381.835 128.04 382.71C128.173 383.565 128.555 384.362 129.14 385L129.17 385.04C129.248 385.145 129.321 385.242 129.41 385.34C130.821 386.722 133.079 386.722 134.49 385.34C134.59 385.23 134.68 385.12 134.77 385ZM153.77 371.24C146.58 378.54 136.71 370.92 135.89 362.41C135.763 360.936 135.944 359.451 136.42 358.05C136.741 355.506 138.362 353.313 140.7 352.26C143.005 350.564 146.001 350.119 148.7 351.07C149.884 351.257 151.025 351.653 152.07 352.24C158.73 356.18 158.82 366.09 153.72 371.28L153.77 371.24ZM155.46 311.14C160.22 304.97 164.48 298.07 166.67 290.53L166.62 290.57C166.7 290.162 166.49 289.753 166.112 289.579C165.734 289.406 165.287 289.514 165.03 289.84C163.578 292.098 162.335 294.478 161.091 296.859C159.927 299.086 158.764 301.313 157.43 303.44C156.107 305.543 154.606 307.51 153.106 309.476C151.974 310.959 150.843 312.441 149.79 313.98C145.22 320.66 143.64 328.67 142.98 336.61C142.91 337.41 144.16 337.55 144.35 336.8C146.84 327.07 149.21 319.24 155.46 311.14ZM201.67 404.6C191.08 405.14 184.87 392.11 188.03 383.06C188.39 381.864 189.491 381.045 190.74 381.045C191.989 381.045 193.09 381.864 193.45 383.06C193.717 383.977 193.897 385.226 194.097 386.602L194.097 386.602C194.787 391.367 195.698 397.662 201.16 397.01C204.801 396.576 204.963 392.136 205.097 388.42C205.152 386.912 205.203 385.523 205.48 384.57C206.22 382 210.48 380.91 211.71 383.75C214.86 391.36 211.11 404.15 201.61 404.64L201.67 404.6ZM263.79 398.38C264.025 398.059 264.243 397.725 264.44 397.38V397.4C265.237 396.038 265.129 394.328 264.168 393.076C263.206 391.825 261.582 391.28 260.06 391.7C259.081 391.956 258.247 392.598 257.75 393.48C257.181 394.463 256.93 395.598 257.03 396.73C257.044 397.135 257.105 397.538 257.21 397.93C257.681 399.603 259.412 400.584 261.09 400.13C261.598 399.965 262.083 399.733 262.53 399.44L262.473 399.464C262.975 399.191 263.422 398.824 263.79 398.38ZM253.81 185.79C263.7 210.49 269.87 235.48 271.07 262.16C271.691 275.743 271.129 289.354 269.39 302.84C267.87 314.62 265.91 326.92 261.27 337.91C260.71 339.23 258.98 338.18 259.16 337.02C260.009 331.539 261.102 326.119 262.195 320.7C263.752 312.98 265.308 305.261 266.16 297.37C267.468 285.314 267.872 273.176 267.37 261.06C266.31 235.87 261.66 209.75 252.85 186.06C252.61 185.45 253.58 185.2 253.81 185.79ZM247.51 361.45C243.88 361.65 241.14 364.69 239.88 367.9C237.57 373.81 239.53 382.21 246.11 384.44C253.94 387.08 260.85 379.7 259.75 372.08C259.319 368.391 257.065 365.164 253.75 363.49C253.25 363.257 252.727 363.076 252.19 362.95C250.885 361.86 249.206 361.321 247.51 361.45Z" fill="#FFF200"/>
<path d="M146.999 358.27C145.445 358.069 143.907 358.742 142.999 360.02C142.746 360.968 142.778 361.97 143.089 362.9C143.499 364.15 144.849 366.47 146.239 366.84C147.979 367.31 149.239 365.4 149.659 364.01C150.419 361.7 149.729 358.64 146.999 358.27Z" fill="white"/>
<path fill-rule="evenodd" clip-rule="evenodd" d="M124.37 425.48L139.27 427.59C117.27 410.59 113.78 374 117.27 348.17C119.91 328.8 130.56 313.17 141.86 297.77C153.79 281.48 166.46 263.94 165.86 242.77C165.75 238.64 171.51 238.25 172.73 241.84C175.008 248.557 176.698 255.46 177.78 262.47C182.48 254.73 187.32 247.08 192.66 239.76C196.562 234.43 200.665 229.267 204.772 224.1L204.772 224.1L204.772 224.1C208.201 219.785 211.633 215.468 214.95 211.05C229.06 192.33 241.53 170.87 240.47 146.66C240.31 142.82 245.27 142.14 247.17 144.85C285.97 200.07 310.79 270.48 289.35 336.71C295.31 332.028 300.79 326.765 305.71 321C307.77 318.57 312.56 320.47 312.22 323.7C312.022 325.563 311.828 327.446 311.632 329.343C309.471 350.306 307.122 373.087 297.87 391.95C293.24 401.39 286.18 408.42 277.36 414.01C275.863 414.959 274.314 415.89 272.751 416.828C265.277 421.319 257.497 425.993 253.61 433.76C262.964 430.108 272.125 425.983 281.06 421.4C283.324 420.228 285.583 418.935 287.849 417.639L287.85 417.638C298.033 411.812 308.336 405.916 319.69 410.62C334.576 394.289 344.799 374.256 349.29 352.62C345.503 354.977 341.349 356.683 337 357.67C333.74 358.42 330.46 354.85 332.45 351.76C352.58 320.53 363.45 283.5 366.07 246.54C367.585 227.613 364.95 208.583 358.35 190.78C357.382 188.188 356.383 185.609 355.385 183.033L355.385 183.031L355.384 183.03C353.083 177.088 350.787 171.16 348.89 165.12C345.185 176.648 338.78 187.125 330.21 195.68C327.69 198.2 323 196.38 323.08 192.68C324.35 133.39 306.82 75.5698 282.7 21.8398C280.91 43.2555 273.711 63.8661 261.78 81.7398C247.58 102.98 228.31 116.94 205.73 128.24C181.33 140.45 158.85 154.97 140.13 175.06C102 216.09 84.7698 276 106.07 329.33C107.78 333.62 101.55 335.21 99.2698 332.19C92.7935 323.592 87.1671 314.385 82.4698 304.7C79.1998 328 76.9998 352 83.3598 374.8C89.2398 395.98 102.5 415.17 123.07 424.14C123.667 424.392 124.136 424.875 124.37 425.48ZM329.1 339.56C330.824 335.137 332.729 330.799 334.636 326.459L334.636 326.459L334.637 326.458C337.286 320.426 339.936 314.393 342.1 308.13C345.563 298.019 348.238 287.654 350.1 277.13C354.081 254.2 354.419 230.785 351.1 207.75C350.93 206.55 352.72 205.99 352.97 207.24C357.333 229.553 357.719 252.462 354.11 274.91C350.63 296.91 344.17 321.91 331.06 340.35C330.38 341.28 328.63 340.75 329.1 339.56ZM310.28 141.29C308.06 122.727 304.14 104.406 298.57 86.5598V86.5898C298.47 86.3088 298.172 86.1497 297.883 86.222C297.593 86.2944 297.406 86.5747 297.45 86.8698C302.133 105.124 305.426 123.708 307.3 142.46C308.398 153.428 308.51 164.359 308.621 175.3V175.301C308.694 182.486 308.767 189.674 309.12 196.88C309.17 197.93 310.87 198.3 311.06 197.14C314.02 178.97 312.39 159.48 310.28 141.29ZM217.49 147.1C217.856 146.591 218.221 146.066 218.592 145.536C220.164 143.28 221.814 140.914 223.87 139.19C224.66 138.54 225.87 139.36 225.33 140.32C223.977 142.661 221.942 144.68 219.985 146.623C219.525 147.078 219.071 147.53 218.63 147.98C218.06 148.56 217 147.78 217.49 147.1ZM127.06 219.79C112.21 244.68 105.9 276 113.78 304.23C113.94 304.79 114.69 304.54 114.62 304C110.59 274.48 115.41 244.54 131.41 219.1C139.67 205.95 150.56 195.2 163.15 186.2C167.813 182.863 172.614 179.723 177.415 176.584C186.081 170.917 194.745 165.251 202.59 158.43C203.72 157.45 202.18 155.38 200.95 156.32C193.752 161.824 186.172 166.79 178.597 171.753C171.007 176.725 163.422 181.694 156.23 187.2C144.533 196.121 134.635 207.18 127.06 219.79Z" fill="#F7941E"/>
<path d="M335.06 465C334.74 450.35 333.76 429.59 320.83 420.08C316.327 416.539 310.316 415.571 304.93 417.52C305.48 434.13 308.48 450.52 315.43 465.72C317.188 469.559 319.151 473.301 321.31 476.93C323.08 479.93 325.25 484.86 328.12 486.85C332.66 489.99 333.3 482.68 334.01 479.26C334.899 474.562 335.251 469.778 335.06 465Z" fill="#F2B879"/>
<path d="M309.76 508.76C307.927 509.427 306.08 510.094 304.22 510.76C303.687 511.235 303.003 511.504 302.29 511.52C302.19 511.53 302.09 511.53 301.99 511.52C292.983 514.387 283.834 516.787 274.58 518.71C253 523.34 231.07 526.33 209.68 531.86C200.95 534.12 192.4 536.92 183.92 539.96C218.14 549.16 251.92 560.73 285.7 571.18C295.78 574.29 304.89 576.94 313.83 569.61C320.28 564.32 325.06 556.7 328.45 549.16C332.169 540.856 334.179 531.888 334.36 522.79C334.47 516.85 334.47 513.38 328.73 510.65C324.93 508.85 320.63 507.65 316.66 506.24C314.3 507.09 312 507.94 309.76 508.76Z" fill="#603913"/>
<path d="M318.09 486.09C313.619 479.366 309.849 472.202 306.84 464.71C301.042 450.699 298.131 435.662 298.28 420.5C291.9 424.14 285.51 427.72 278.86 430.87C251.54 443.81 222.71 452.74 193.65 460.87C162.24 469.61 130.81 478.34 99.2996 486.69C83.2996 490.93 67.1096 494.9 50.6796 497.28C38.3696 499.07 21.6796 497.5 11.5396 506.02C6.17964 517.48 7.65964 529.72 11.1896 542.02C14.2596 552.77 17.6496 564.02 27.0196 570.47C27.5939 570.548 28.1364 570.779 28.5896 571.14C37.4096 578.01 49.0396 575.07 58.9296 572.57C70.6796 569.57 82.3896 566.48 94.0296 563.09C115.05 556.97 135.82 550.047 156.34 542.32C160.56 540.73 164.77 539.11 168.98 537.52L171.24 536.66C186.24 530.98 201.3 525.57 217.08 521.98C236.49 517.57 256.22 514.71 275.65 510.36C285.47 508.241 295.154 505.532 304.65 502.25C311.22 499.93 318.25 497.41 324.39 493.72C321.942 491.485 319.821 488.916 318.09 486.09Z" fill="#8B5E3C"/>
<path fill-rule="evenodd" clip-rule="evenodd" d="M362.98 180.191L362.98 180.19C358.074 167.736 353.164 155.269 352.629 141.72C352.439 136.47 344.489 136.43 344.459 141.72C344.418 155.993 339.868 169.888 331.459 181.42C330.269 118.68 308.759 59 282.379 2.53C280.729 -0.989996 274.819 0.730004 275.049 4.53C276.494 29.8611 269.821 54.9927 255.999 76.27C249.167 86.8799 240.66 96.3122 230.809 104.2C221.673 111.504 211.278 116.761 200.907 122.007C198.598 123.174 196.291 124.341 193.999 125.53C147.799 149.37 108.309 189.53 94.5792 240.73C88.7158 262.244 87.769 284.801 91.8092 306.73C88.9936 301.501 86.4795 296.116 84.2792 290.6C83.1192 287.67 77.7392 286.54 77.1392 290.6L76.9753 291.705C72.7012 320.511 68.174 351.023 77.1392 379.4C82.6792 396.96 93.1392 413.11 108.359 423.2L82.2592 419.5C80.5103 419.253 78.6091 418.874 76.6271 418.479C69.1579 416.99 60.5401 415.272 54.5892 419.5C47.9292 424.24 43.0892 432.86 40.0292 440.22C33.2328 456.334 33.4939 474.557 40.7492 490.47C40.1653 490.53 39.5816 490.589 38.998 490.648L38.949 490.653L38.896 490.658L38.8955 490.658L38.895 490.658L38.8944 490.658L38.8938 490.659L38.8932 490.659C34.4243 491.111 29.9641 491.562 25.5192 492.23C20.2892 492.99 15.1792 494.33 10.8892 497.09C10.1031 497.093 9.36342 497.463 8.88923 498.09C8.49923 498.56 8.12923 499.04 7.77923 499.52C6.93013 500.311 6.14438 501.167 5.42923 502.08C4.80975 502.844 4.51526 503.821 4.60923 504.8C-1.15077 516.8 0.609234 531.26 4.16923 543.96C7.82923 557.19 12.7692 573.12 26.7092 578.66C27.3909 578.956 28.1598 578.981 28.8592 578.73C40.3022 585.771 57.1422 581.031 70.1059 577.381C72.0738 576.827 73.9524 576.299 75.7092 575.84C98.7892 569.84 121.576 562.84 144.069 554.84C151.029 552.369 157.931 549.732 164.832 547.095L164.833 547.095L164.834 547.095L164.834 547.094L164.836 547.094L164.838 547.093L164.868 547.082L164.894 547.071C167.998 545.886 171.101 544.7 174.209 543.53C190.809 549.59 207.752 554.817 224.66 560.033C229.907 561.651 235.15 563.269 240.379 564.91L275.529 575.91C277.336 576.476 279.181 577.112 281.054 577.757L281.057 577.758C289.406 580.635 298.316 583.705 306.899 581.68C324.789 577.44 335.989 555.52 339.949 539.26C341.949 531.05 344.009 519.86 340.899 511.71C338.759 506.09 332.989 503.42 327.119 501.47C331.426 499.229 335.128 495.98 337.909 492C338.137 491.664 338.296 491.287 338.379 490.89C339.804 487.839 340.813 484.61 341.379 481.29C343.279 472.29 342.879 463.03 341.959 453.94C340.529 439.94 337.959 424.01 326.509 414.8C344.492 394.775 355.773 369.636 358.779 342.89C359.179 339.44 354.179 337.68 351.999 340.08C350.176 342.1 348.106 343.884 345.839 345.39C362.179 316.78 370.899 283.77 373.899 251.14C375.659 232 374.539 212.82 368.369 194.56C366.738 189.732 364.859 184.963 362.98 180.192L362.98 180.192L362.98 180.191ZM47.7392 440.05C49.5754 436.242 51.8689 432.673 54.5692 429.42L54.6918 429.274L54.8264 429.113C56.6601 426.923 58.8128 424.352 61.8592 423.96C63.6015 423.73 65.6296 424.171 67.4993 424.577L67.4997 424.577C68.1518 424.719 68.7846 424.857 69.3792 424.96C76.4133 426.055 83.4744 427.114 90.5172 428.17C93.9574 428.686 97.3931 429.202 100.819 429.72C139.169 435.51 177.529 441.28 215.929 446.72C193.337 453.657 170.429 459.729 147.569 465.79L147.562 465.791C138.359 468.231 129.163 470.669 119.999 473.16C118.26 473.633 116.52 474.107 114.78 474.582C95.217 479.916 75.6197 485.26 55.6092 488.63C52.8192 489.1 50.0192 489.47 47.2192 489.8C47.3097 489.283 47.2471 488.752 47.0392 488.27C40.5092 472.69 40.2992 455.36 47.7392 440.05ZM303.309 334.71C297.277 340.571 290.651 345.789 283.539 350.28C280.889 352 276.609 349.11 277.899 345.93C303.829 282.11 283.329 213.25 247.329 157.87C245.149 177.37 235.359 195.16 223.749 210.96C219.753 216.398 215.554 221.685 211.354 226.972L211.354 226.972L211.354 226.972L211.353 226.973L211.353 226.973C207.545 231.768 203.736 236.562 200.079 241.47C192.169 252.09 185.339 263.39 178.569 274.75C176.719 277.85 172.349 276.33 172.109 273C171.816 268.941 171.299 264.902 170.559 260.9C166.444 275.236 157.495 287.532 148.505 299.884C140.282 311.184 132.024 322.531 127.399 335.53C121.049 353.38 121.109 376.44 126.259 394.6C130.789 410.56 141.399 424.2 157.109 430.11C181.036 433.51 204.939 437.04 228.819 440.7C229.664 440.788 230.44 441.204 230.979 441.86C235.506 440.373 240.006 438.817 244.479 437.19C244.436 436.703 244.48 436.212 244.609 435.74C248.105 423.374 258.021 417.081 268.029 410.73C275.769 405.817 283.565 400.87 288.489 393.05C294.189 384.05 296.779 373.41 298.779 363.05C300.629 353.71 302.099 344.2 303.309 334.71ZM171.239 536.64L168.979 537.5C167.002 538.247 165.025 539 163.047 539.754L163.012 539.767C160.79 540.614 158.566 541.461 156.339 542.3C135.853 550.033 115.073 556.957 93.9992 563.07C82.3592 566.46 70.6492 569.57 58.8992 572.55C49.0092 575.05 37.3792 577.99 28.5592 571.12C28.106 570.759 27.5634 570.528 26.9892 570.45C17.6192 563.96 14.2292 552.75 11.1592 542C7.62923 529.68 6.15923 517.44 11.5092 506C19.0726 499.639 30.2984 498.874 40.625 498.171L40.6263 498.171C44.1303 497.932 47.5306 497.701 50.6492 497.26C67.0792 494.88 83.2392 490.91 99.2692 486.67C130.779 478.32 162.209 469.59 193.619 460.85C222.679 452.76 251.509 443.85 278.829 430.85C285.479 427.7 291.829 424.12 298.249 420.48C298.1 435.642 301.012 450.679 306.809 464.69C309.819 472.182 313.589 479.346 318.059 486.07C319.786 488.888 321.9 491.45 324.339 493.68C318.199 497.37 311.169 499.89 304.599 502.21C295.104 505.492 285.42 508.201 275.599 510.32C266.081 512.451 256.49 514.224 246.901 515.998L246.9 515.998C236.914 517.844 226.93 519.69 217.029 521.94C201.299 525.55 186.259 531 171.239 536.64ZM334.359 522.78C334.469 516.84 334.469 513.37 328.729 510.64V510.59C326.288 509.434 323.641 508.538 321.011 507.647L321.01 507.647L321.01 507.647C319.545 507.151 318.086 506.656 316.669 506.12C314.846 506.823 313.041 507.49 311.296 508.135L311.287 508.138C310.978 508.253 310.67 508.366 310.365 508.479C310.165 508.553 309.967 508.627 309.769 508.7C307.936 509.413 306.089 510.08 304.229 510.7C303.697 511.175 303.012 511.444 302.299 511.46C302.261 511.464 302.222 511.466 302.184 511.467C302.122 511.468 302.061 511.466 301.999 511.46C292.99 514.344 283.838 516.76 274.579 518.7C266.112 520.517 257.59 522.081 249.068 523.645C235.872 526.068 222.676 528.49 209.679 531.85C200.919 534.11 192.399 536.95 183.919 539.95C207.466 546.294 230.786 553.742 254.061 561.175L254.062 561.176C264.612 564.545 275.151 567.911 285.699 571.17C295.779 574.28 304.889 576.93 313.829 569.6C320.279 564.31 325.059 556.69 328.449 549.15C332.169 540.846 334.179 531.878 334.359 522.78ZM335.059 465C335.243 469.762 334.888 474.529 333.999 479.21C333.916 479.613 333.833 480.07 333.745 480.558C333.084 484.208 332.114 489.57 328.109 486.8C325.928 485.28 324.175 482.068 322.664 479.302L322.664 479.301C322.186 478.427 321.734 477.598 321.299 476.88C319.141 473.251 317.178 469.509 315.419 465.67C308.469 450.46 305.469 434.08 304.919 417.47C310.306 415.521 316.317 416.489 320.819 420.03C333.759 429.54 334.739 450.3 335.059 465ZM332.439 351.81C352.569 320.59 363.469 283.59 366.059 246.59L366.079 246.54C367.587 227.63 364.952 208.618 358.359 190.83C357.392 188.24 356.394 185.662 355.397 183.087C353.095 177.14 350.797 171.206 348.899 165.17C345.194 176.698 338.79 187.176 330.219 195.73C327.699 198.2 323.009 196.38 323.089 192.73C324.359 133.44 306.829 75.62 282.709 21.89C280.919 43.3057 273.721 63.9163 261.789 81.79C247.589 103.03 228.319 116.99 205.739 128.29C181.339 140.5 158.859 155.02 140.139 175.11C101.999 216.09 84.7692 276 106.069 329.33C107.779 333.62 101.549 335.19 99.2692 332.19C92.793 323.592 87.1666 314.385 82.4692 304.7C79.1992 328 76.9992 352 83.3892 374.86C89.2692 396.04 102.529 415.2 123.099 424.2C123.696 424.452 124.166 424.936 124.399 425.54L139.299 427.65C117.299 410.69 113.789 374.06 117.299 348.23C119.939 328.83 130.589 313.25 141.889 297.83C153.789 281.5 166.459 263.96 165.889 242.83C165.759 238.7 171.539 238.31 172.759 241.9C175.038 248.617 176.728 255.52 177.809 262.53C182.509 254.82 187.349 247.14 192.689 239.82C196.689 234.356 200.898 229.055 205.107 223.754C208.432 219.566 211.757 215.378 214.979 211.11C229.089 192.39 241.559 170.93 240.499 146.72C240.339 142.91 245.299 142.2 247.199 144.91C285.999 200.13 310.819 270.54 289.379 336.77C295.324 332.073 300.787 326.797 305.689 321.02C307.749 318.59 312.539 320.49 312.199 323.72C312.018 325.453 311.839 327.203 311.659 328.965C309.506 350.037 307.16 372.988 297.849 391.97C293.219 401.41 286.159 408.44 277.339 414.03C275.842 414.979 274.293 415.91 272.731 416.848C265.257 421.339 257.477 426.013 253.589 433.78C262.943 430.128 272.105 426.003 281.039 421.42C283.303 420.248 285.563 418.955 287.829 417.658C298.012 411.832 308.316 405.937 319.669 410.64C334.555 394.309 344.779 374.277 349.269 352.64C345.488 355.006 341.337 356.723 336.989 357.72C333.729 358.47 330.439 354.9 332.439 351.81Z" fill="#231F20"/>
<path fill-rule="evenodd" clip-rule="evenodd" d="M148.699 351.11C149.883 351.297 151.024 351.694 152.069 352.28C158.729 356.18 158.819 366.09 153.769 371.28C146.579 378.58 136.709 370.96 135.889 362.45C135.762 360.976 135.943 359.491 136.419 358.09C136.74 355.546 138.361 353.353 140.699 352.3C143.005 350.604 146 350.159 148.699 351.11ZM146.239 366.83C147.979 367.3 149.199 365.39 149.659 364C150.419 361.7 149.729 358.64 146.999 358.25C145.445 358.049 143.906 358.722 142.999 360C142.744 360.951 142.775 361.957 143.089 362.89C143.499 364.14 144.849 366.46 146.239 366.83Z" fill="#231F20"/>
<path fill-rule="evenodd" clip-rule="evenodd" d="M253.709 363.49C257.025 365.164 259.279 368.391 259.709 372.08C260.809 379.7 253.899 387.12 246.029 384.44C239.489 382.21 237.529 373.81 239.839 367.9C241.099 364.69 243.809 361.65 247.469 361.45C249.165 361.321 250.844 361.859 252.149 362.95C252.687 363.076 253.209 363.257 253.709 363.49ZM246.509 370.2C246.335 370.662 246.211 371.141 246.139 371.63C245.939 373.31 246.269 375.86 247.729 376.97C252.309 380.48 254.419 368.74 248.569 370.35C247.887 370.545 247.157 370.492 246.509 370.2Z" fill="#231F20"/>
<path d="M262.999 392.11C262.088 391.592 261.011 391.452 259.999 391.72C259.02 391.976 258.186 392.618 257.689 393.5C257.12 394.483 256.869 395.618 256.969 396.75C256.983 397.155 257.043 397.558 257.149 397.95C257.62 399.623 259.351 400.604 261.029 400.15C261.537 399.985 262.022 399.753 262.469 399.46L261.589 399.83C262.426 399.572 263.17 399.075 263.729 398.4C263.964 398.079 264.181 397.745 264.379 397.4C265.422 395.553 264.811 393.212 262.999 392.11Z" fill="#231F20"/>
<path d="M131.929 378.2C130.517 378.24 129.222 378.993 128.489 380.2C128.056 380.972 127.89 381.865 128.019 382.74C128.152 383.595 128.535 384.392 129.119 385.03C129.209 385.15 129.289 385.26 129.389 385.37C130.8 386.752 133.058 386.752 134.469 385.37C134.569 385.26 134.659 385.15 134.749 385.03C135.186 384.509 135.525 383.912 135.749 383.27C135.99 382.41 135.919 381.493 135.549 380.68C134.944 379.206 133.522 378.232 131.929 378.2Z" fill="#231F20"/>
<path d="M205.419 384.61C204.419 387.91 206.219 396.44 201.099 397.05C194.099 397.89 194.579 387.19 193.389 383.1C193.03 381.904 191.928 381.085 190.679 381.085C189.431 381.085 188.329 381.904 187.969 383.1C184.809 392.1 190.969 405.18 201.609 404.64C211.109 404.15 214.859 391.36 211.609 383.79C210.449 381 206.159 382 205.419 384.61Z" fill="#231F20"/>
<path d="M131.409 219.1C139.669 205.95 150.559 195.21 163.149 186.2C176.229 176.84 190.399 169.03 202.589 158.43C203.719 157.43 202.179 155.38 200.949 156.32C186.539 167.32 170.599 176.15 156.229 187.2C144.533 196.121 134.634 207.18 127.059 219.79C112.209 244.68 105.899 276 113.779 304.23C113.939 304.79 114.689 304.54 114.619 304C110.589 274.48 115.419 244.54 131.409 219.1Z" fill="#231F20"/>
<path d="M218.629 148C220.949 145.63 223.629 143.23 225.329 140.34C225.889 139.34 224.659 138.56 223.869 139.21C221.329 141.34 219.409 144.45 217.489 147.12C216.999 147.78 218.059 148.56 218.629 148Z" fill="#231F20"/>
<path d="M307.299 142.49C309.129 160.66 308.229 178.73 309.119 196.91C309.169 197.96 310.869 198.33 311.059 197.17C314.059 179 312.389 159.51 310.279 141.32C308.059 122.757 304.139 104.437 298.569 86.5901C298.513 86.3901 298.356 86.2347 298.155 86.1827C297.954 86.1306 297.74 86.1897 297.595 86.3377C297.449 86.4856 297.393 86.7001 297.449 86.9001C302.132 105.155 305.425 123.738 307.299 142.49Z" fill="#231F20"/>
<path d="M331 340.38C344.11 321.97 350.57 296.94 354.05 274.94C357.659 252.492 357.273 229.584 352.91 207.27C352.66 206.02 350.91 206.58 351.04 207.78C354.359 230.815 354.021 254.23 350.04 277.16C348.178 287.685 345.503 298.049 342.04 308.16C338.34 318.93 333.18 329.02 329.04 339.59C328.63 340.75 330.38 341.28 331 340.38Z" fill="#231F20"/>
<path d="M267.358 261.06C267.861 273.177 267.456 285.314 266.148 297.37C264.708 310.8 261.218 323.73 259.148 337.02C258.968 338.18 260.698 339.23 261.258 337.91C265.898 326.91 267.858 314.62 269.378 302.84C271.118 289.355 271.68 275.743 271.058 262.16C269.858 235.48 263.688 210.49 253.798 185.79C253.568 185.2 252.598 185.45 252.798 186.06C261.648 209.75 266.298 235.87 267.358 261.06Z" fill="#231F20"/>
<path d="M165 289.88C162.19 294.25 160.16 299.08 157.4 303.48C155.08 307.17 152.21 310.48 149.76 314.02C145.19 320.7 143.61 328.71 142.95 336.65C142.88 337.45 144.13 337.59 144.32 336.84C146.81 327.11 149.18 319.28 155.43 311.18C160.19 305.01 164.43 298.11 166.64 290.57C166.748 290.139 166.526 289.694 166.116 289.521C165.707 289.349 165.232 289.501 165 289.88Z" fill="#231F20"/>
</svg>
