<svg width="562" height="431" viewBox="0 0 562 431" fill="none" xmlns="http://www.w3.org/2000/svg">
<path d="M374.148 206.545C374.665 206.812 375.251 206.917 375.828 206.845C378.038 204.515 377.238 198.695 375.188 196.765C373.458 195.125 371.578 195.275 369.658 195.855C369.658 198.855 369.968 201.745 370.948 203.645C371.654 204.947 372.783 205.97 374.148 206.545Z" fill="white"/>
<path d="M194.019 235.405C190.689 234.735 188.659 242.685 187.219 245.515C187.219 245.705 187.219 245.895 187.269 246.085C187.839 250.085 194.649 258.485 197.409 251.875C198.629 248.945 198.249 236.265 194.019 235.405Z" fill="white"/>
<path fill-rule="evenodd" clip-rule="evenodd" d="M113.698 320.605C128.358 286.695 142.828 252.705 156.828 218.515C171.101 183.648 185.094 148.672 198.808 113.585C205.341 96.7318 211.808 79.8518 218.208 62.9452C219.797 58.7411 221.632 54.4189 223.501 50.0173L223.501 50.0165L223.501 50.0163C227.336 40.9854 231.312 31.6203 233.598 22.2552C248.768 39.3502 265.601 55.2047 282.347 70.9773L282.347 70.9773L282.348 70.9781C290.307 78.4741 298.246 85.9517 305.978 93.5352C332.598 119.602 359.018 145.858 385.238 172.305C411.458 198.752 437.458 225.418 463.238 252.305C472.897 262.387 482.382 272.699 491.875 283.019L491.875 283.019L491.877 283.022C505.282 297.594 518.699 312.182 532.638 326.155C500.138 337.215 466.188 343.285 432.188 348.005C420.978 349.557 409.765 351.06 398.555 352.562C368.435 356.6 338.328 360.635 308.318 365.605C265.958 372.635 223.828 380.845 181.758 389.385C161.091 393.598 140.424 397.885 119.758 402.245C115.248 403.2 110.606 404.091 105.906 404.993C94.172 407.244 82.0749 409.565 70.7578 413.135C84.5606 388.902 95.7186 362.718 106.693 336.965L106.695 336.96C109.03 331.481 111.356 326.022 113.698 320.605ZM354.348 191.395C353.22 193.59 352.46 195.955 352.098 198.395H352.118C350.879 205.625 352.982 213.027 357.838 218.525C366.398 228.015 382.028 230.145 390.918 219.925C399.808 209.705 399.228 192.805 390.278 182.805C381.518 173.055 362.178 171.125 354.928 183.615C353.553 185.983 353.34 188.85 354.348 191.395ZM258.348 232.255C259.217 230.848 260.908 230.18 262.505 230.611C264.101 231.043 265.225 232.472 265.268 234.125C265.558 247.915 278.078 263.775 293.878 258.675C301.001 256.373 299.981 247.674 299.228 241.246L299.228 241.245C299.111 240.246 299 239.302 298.928 238.445C298.328 231.365 297.928 225.665 303.178 220.325C305.748 217.685 311.178 217.945 312.848 221.565C315.266 226.738 315.479 232.52 315.689 238.243C315.735 239.479 315.78 240.712 315.848 241.935C316.218 247.825 316.188 253.645 314.158 259.275C310.158 270.275 300.238 275.415 288.858 274.935C268.988 274.085 244.698 253.395 258.368 232.255H258.348ZM213.768 262.415C218.248 254.845 217.958 243.285 216.158 234.905H216.178C214.028 224.925 207.048 216.955 196.718 215.335C187.337 213.789 177.982 218.23 173.248 226.475C171.2 229.94 170.419 234.008 171.038 237.985C169.298 243.221 169.204 248.864 170.768 254.155C176.118 272.415 202.918 280.785 213.768 262.415Z" fill="#8DC63F"/>
<path d="M23.518 278.495C21.598 281.785 18.518 286.155 17.448 289.845C15.858 295.375 18.348 299.115 20.448 303.925C34.098 335.505 48.678 366.725 62.978 398.035C73.078 369.485 86.088 341.585 97.668 313.825C112.148 279.095 126.278 244.205 140.338 209.305C154.398 174.405 168.188 139.305 181.698 104.195C188.191 87.3218 194.651 70.4385 201.078 53.5452C202.078 50.8752 203.078 48.1152 203.998 45.3252C161.828 99.1352 119.298 152.655 76.898 206.255C64.508 221.905 51.828 237.365 40.068 253.505C34.1362 261.553 28.6126 269.893 23.518 278.495Z" fill="#009344"/>
<path fill-rule="evenodd" clip-rule="evenodd" d="M555.589 319.115C555.431 318.88 555.261 318.653 555.079 318.435C537.167 297.129 517.394 277.081 497.722 257.134L497.721 257.133C491.199 250.52 484.687 243.918 478.259 237.285C451.845 209.952 425.179 182.882 398.259 156.075C371.885 129.762 345.242 103.728 318.329 77.9752C310.225 70.2285 301.907 61.7736 293.416 53.1441L293.416 53.1436C276.929 36.3861 259.794 18.9704 242.329 4.80516C236.651 0.210663 229.035 -1.20041 222.089 1.05516C219.188 1.99626 216.623 3.76138 214.709 6.13516C172.451 58.4904 130.668 111.209 88.8884 163.923L88.8845 163.928L88.8763 163.938C76.0846 180.078 63.2932 196.217 50.4887 212.345C49.454 213.649 48.418 214.952 47.3817 216.256L47.3815 216.256C36.3298 230.161 25.2531 244.097 15.4887 258.935C14.9349 259.777 14.3759 260.621 13.8159 261.466C4.90035 274.921 -4.30404 288.811 2.17871 305.145C13.3194 333.241 26.092 360.837 38.836 388.371L38.8362 388.372C44.1317 399.813 49.4223 411.244 54.5887 422.695C54.6891 424.301 55.4056 425.805 56.5887 426.895C59.5287 431.895 65.3187 431.315 69.0287 428.005C82.1121 427.104 95.6249 424.006 108.683 421.011L108.684 421.011C113.89 419.817 119.024 418.64 124.029 417.625C144.695 413.418 165.399 409.285 186.139 405.225C228.319 397.025 270.652 389.575 313.139 382.875C335.662 379.34 358.616 376.707 381.667 374.064C440.828 367.28 500.623 360.423 555.379 338.035C564.559 334.255 561.169 325.045 555.589 319.115ZM62.9587 398.035C59.7151 390.933 56.4571 383.836 53.1989 376.738L53.1986 376.738C42.0922 352.543 30.9825 328.342 20.4287 303.925C20.104 303.174 19.7692 302.449 19.4415 301.74C17.6701 297.904 16.1038 294.512 17.4287 289.845C18.2371 287.031 20.2261 283.822 21.9764 280.997C22.5212 280.118 23.0429 279.276 23.4987 278.495C28.5931 269.89 34.1167 261.546 40.0487 253.495C49.0297 241.148 58.5725 229.199 68.1085 217.259C71.0381 213.59 73.9669 209.923 76.8787 206.245C87.0774 193.352 97.2836 180.464 107.49 167.576L107.52 167.538L107.524 167.533C139.739 126.853 171.958 86.1676 203.959 45.3152C203.581 46.3679 203.217 47.4164 202.855 48.4574C202.258 50.1753 201.668 51.8727 201.039 53.5352C194.639 70.4485 188.179 87.3318 181.659 104.185C168.152 139.325 154.365 174.362 140.299 209.295C126.239 244.195 112.109 279.085 97.6287 313.815C94.1139 322.259 90.465 330.714 86.8046 339.196L86.8045 339.197C78.4262 358.612 69.9877 378.166 62.9587 398.035ZM398.556 352.592C409.767 351.09 420.979 349.587 432.189 348.035V348.005C466.209 343.285 500.139 337.215 532.629 326.145C518.671 312.164 505.235 297.553 491.812 282.956C482.337 272.654 472.87 262.358 463.229 252.295C437.495 225.382 411.495 198.715 385.229 172.295C358.962 145.875 332.552 119.618 305.999 93.5252C298.268 85.9422 290.33 78.4652 282.373 70.9696C265.628 55.1963 248.796 39.3411 233.619 22.2452C231.34 31.6104 227.361 40.9756 223.524 50.0066C221.654 54.4084 219.818 58.7309 218.229 62.9352C211.862 79.8552 205.395 96.7352 198.829 113.575C185.102 148.668 171.102 183.648 156.829 218.515C142.829 252.705 128.379 286.695 113.689 320.635C111.346 326.053 109.019 331.514 106.684 336.995C95.7095 362.748 84.5514 388.932 70.7487 413.165C82.0496 409.581 94.1222 407.271 105.831 405.031C110.554 404.128 115.218 403.235 119.749 402.275C140.415 397.895 161.082 393.608 181.749 389.415C223.829 380.905 265.959 372.635 308.319 365.635C338.329 360.665 368.436 356.63 398.556 352.592Z" fill="#231F20"/>
<path fill-rule="evenodd" clip-rule="evenodd" d="M171.048 237.985C170.429 234.008 171.21 229.94 173.258 226.475C177.99 218.234 187.34 213.794 196.718 215.335C207.038 216.955 214.018 224.905 216.168 234.905C217.968 243.285 218.258 254.845 213.778 262.415C202.938 280.785 176.138 272.425 170.778 254.155C169.214 248.864 169.308 243.221 171.048 237.985ZM187.268 246.055C187.838 250.045 194.648 258.455 197.408 251.845C198.628 248.945 198.248 236.265 194.018 235.375C191.462 234.861 189.672 239.424 188.327 242.853C187.919 243.892 187.553 244.827 187.218 245.485C187.268 245.675 187.268 245.865 187.268 246.055Z" fill="#231F20"/>
<path d="M288.929 274.935C300.309 275.415 310.269 270.315 314.229 259.275C316.229 253.645 316.289 247.825 315.919 241.935C315.489 235.045 315.809 227.855 312.919 221.565C311.229 217.945 305.819 217.685 303.249 220.325C298.039 225.665 298.399 231.325 298.999 238.445C299.539 244.815 302.179 256.015 293.949 258.675C278.149 263.775 265.629 247.915 265.339 234.125C265.296 232.472 264.173 231.043 262.576 230.611C260.979 230.18 259.289 230.848 258.419 232.255C244.699 253.395 268.989 274.085 288.929 274.935Z" fill="#231F20"/>
<path fill-rule="evenodd" clip-rule="evenodd" d="M390.299 182.805C399.249 192.755 399.829 209.705 390.939 219.925C382.049 230.135 366.419 228.015 357.829 218.525C352.978 213.025 350.878 205.624 352.119 198.395C352.482 195.955 353.242 193.59 354.369 191.395C353.361 188.85 353.575 185.983 354.949 183.615C362.199 171.125 381.539 173.055 390.299 182.805ZM375.829 206.795C378.039 204.465 377.239 198.645 375.189 196.715C373.459 195.075 371.579 195.225 369.659 195.805C369.619 198.815 369.949 201.695 370.949 203.595C371.647 204.916 372.776 205.957 374.149 206.545C374.672 206.795 375.257 206.882 375.829 206.795Z" fill="#231F20"/>
</svg>
