<svg width="562" height="431" viewBox="0 0 562 431" fill="none" xmlns="http://www.w3.org/2000/svg">
<path d="M374.222 206.545C374.739 206.812 375.325 206.917 375.902 206.845C378.112 204.515 377.312 198.695 375.262 196.765C373.532 195.125 371.652 195.275 369.732 195.855C369.732 198.855 370.042 201.745 371.022 203.645C371.729 204.947 372.857 205.97 374.222 206.545Z" fill="white"/>
<path d="M194.093 235.405C190.763 234.735 188.733 242.685 187.293 245.515C187.293 245.705 187.293 245.895 187.343 246.085C187.913 250.085 194.723 258.485 197.483 251.875C198.703 248.945 198.323 236.265 194.093 235.405Z" fill="white"/>
<path fill-rule="evenodd" clip-rule="evenodd" d="M113.772 320.605C128.432 286.695 142.902 252.705 156.902 218.515C171.175 183.648 185.169 148.672 198.882 113.585C205.415 96.7318 211.882 79.8518 218.282 62.9452C219.871 58.7411 221.706 54.4189 223.575 50.0173L223.576 50.0165L223.576 50.0163C227.41 40.9854 231.386 31.6203 233.672 22.2552C248.842 39.3502 265.675 55.2047 282.422 70.9773L282.422 70.9773L282.422 70.9781C290.381 78.4741 298.32 85.9517 306.052 93.5352C332.672 119.602 359.092 145.858 385.312 172.305C411.532 198.752 437.532 225.418 463.312 252.305C472.971 262.387 482.457 272.699 491.949 283.019L491.949 283.019L491.952 283.022C505.356 297.594 518.774 312.182 532.712 326.155C500.212 337.215 466.262 343.285 432.262 348.005C421.052 349.557 409.84 351.06 398.629 352.562C368.509 356.6 338.403 360.635 308.392 365.605C266.032 372.635 223.902 380.845 181.832 389.385C161.165 393.598 140.499 397.885 119.832 402.245C115.322 403.2 110.68 404.091 105.98 404.993C94.2463 407.244 82.1491 409.565 70.832 413.135C84.6348 388.902 95.7929 362.718 106.767 336.965L106.769 336.96C109.104 331.481 111.43 326.022 113.772 320.605ZM354.422 191.395C353.295 193.59 352.535 195.955 352.172 198.395H352.192C350.953 205.625 353.057 213.027 357.912 218.525C366.472 228.015 382.102 230.145 390.992 219.925C399.882 209.705 399.302 192.805 390.352 182.805C381.592 173.055 362.252 171.125 355.002 183.615C353.628 185.983 353.414 188.85 354.422 191.395ZM258.422 232.255C259.292 230.848 260.982 230.18 262.579 230.611C264.176 231.043 265.299 232.472 265.342 234.125C265.632 247.915 278.152 263.775 293.952 258.675C301.075 256.373 300.056 247.674 299.302 241.246L299.302 241.245C299.185 240.246 299.075 239.302 299.002 238.445C298.402 231.365 298.002 225.665 303.252 220.325C305.822 217.685 311.252 217.945 312.922 221.565C315.34 226.738 315.553 232.52 315.764 238.243C315.809 239.479 315.855 240.712 315.922 241.935C316.292 247.825 316.262 253.645 314.232 259.275C310.232 270.275 300.312 275.415 288.932 274.935C269.062 274.085 244.772 253.395 258.442 232.255H258.422ZM213.842 262.415C218.322 254.845 218.032 243.285 216.232 234.905H216.252C214.102 224.925 207.122 216.955 196.792 215.335C187.411 213.789 178.056 218.23 173.322 226.475C171.274 229.94 170.493 234.008 171.112 237.985C169.372 243.221 169.278 248.864 170.842 254.155C176.192 272.415 202.992 280.785 213.842 262.415Z" fill="#8DC63F"/>
<path d="M23.5922 278.495C21.6722 281.785 18.5922 286.155 17.5222 289.845C15.9322 295.375 18.4222 299.115 20.5222 303.925C34.1722 335.505 48.7522 366.725 63.0522 398.035C73.1522 369.485 86.1622 341.585 97.7422 313.825C112.222 279.095 126.352 244.205 140.412 209.305C154.472 174.405 168.262 139.305 181.772 104.195C188.266 87.3218 194.726 70.4385 201.152 53.5452C202.152 50.8752 203.152 48.1152 204.072 45.3252C161.902 99.1352 119.372 152.655 76.9722 206.255C64.5822 221.905 51.9022 237.365 40.1422 253.505C34.2104 261.553 28.6868 269.893 23.5922 278.495Z" fill="#009344"/>
<path fill-rule="evenodd" clip-rule="evenodd" d="M555.663 319.115C555.505 318.88 555.335 318.653 555.153 318.435C537.242 297.129 517.469 277.081 497.796 257.134L497.795 257.133C491.273 250.52 484.762 243.918 478.333 237.285C451.92 209.952 425.253 182.882 398.333 156.075C371.96 129.762 345.316 103.728 318.403 77.9752C310.299 70.2285 301.981 61.7736 293.491 53.1441L293.49 53.1436C277.003 36.3861 259.869 18.9704 242.403 4.80516C236.726 0.210663 229.109 -1.20041 222.163 1.05516C219.262 1.99626 216.698 3.76138 214.783 6.13516C172.525 58.4904 130.742 111.209 88.9626 163.923L88.9587 163.928L88.9505 163.938C76.1588 180.078 63.3675 196.217 50.5629 212.345C49.5282 213.649 48.4922 214.952 47.4559 216.256L47.4557 216.256C36.404 230.161 25.3273 244.097 15.5629 258.935C15.0091 259.777 14.4502 260.621 13.8901 261.466C4.97457 274.921 -4.22982 288.811 2.25293 305.145C13.3936 333.241 26.1662 360.837 38.9102 388.371L38.9105 388.372C44.2059 399.813 49.4965 411.244 54.6629 422.695C54.7633 424.301 55.4798 425.805 56.6629 426.895C59.6029 431.895 65.3929 431.315 69.1029 428.005C82.1863 427.104 95.6991 424.006 108.757 421.011L108.759 421.011C113.964 419.817 119.098 418.64 124.103 417.625C144.77 413.418 165.473 409.285 186.213 405.225C228.393 397.025 270.726 389.575 313.213 382.875C335.736 379.34 358.69 376.707 381.741 374.064C440.903 367.28 500.697 360.423 555.453 338.035C564.633 334.255 561.243 325.045 555.663 319.115ZM63.0329 398.035C59.7893 390.933 56.5314 383.836 53.2731 376.738L53.2728 376.738C42.1664 352.543 31.0567 328.342 20.5029 303.925C20.1782 303.174 19.8434 302.449 19.5157 301.74C17.7444 297.904 16.1781 294.512 17.5029 289.845C18.3113 287.031 20.3003 283.822 22.0506 280.997C22.5954 280.118 23.1172 279.276 23.5729 278.495C28.6673 269.89 34.1909 261.546 40.1229 253.495C49.1039 241.148 58.6467 229.199 68.1827 217.259C71.1123 213.59 74.0412 209.923 76.9529 206.245C87.1516 193.352 97.3578 180.464 107.564 167.576L107.594 167.538L107.598 167.533C139.813 126.853 172.033 86.1676 204.033 45.3152C203.656 46.3679 203.291 47.4164 202.929 48.4574C202.332 50.1753 201.742 51.8727 201.113 53.5352C194.713 70.4485 188.253 87.3318 181.733 104.185C168.226 139.325 154.44 174.362 140.373 209.295C126.313 244.195 112.183 279.085 97.7029 313.815C94.1881 322.259 90.5392 330.714 86.8788 339.196L86.8787 339.197C78.5004 358.612 70.062 378.166 63.0329 398.035ZM398.631 352.592C409.841 351.09 421.053 349.587 432.263 348.035V348.005C466.283 343.285 500.213 337.215 532.703 326.145C518.745 312.164 505.309 297.553 491.886 282.956C482.412 272.654 472.944 262.358 463.303 252.295C437.57 225.382 411.57 198.715 385.303 172.295C359.036 145.875 332.626 119.618 306.073 93.5252C298.342 85.9422 290.404 78.4652 282.447 70.9696C265.702 55.1963 248.87 39.3411 233.693 22.2452C231.414 31.6104 227.435 40.9756 223.599 50.0066C221.729 54.4084 219.892 58.7309 218.303 62.9352C211.936 79.8552 205.47 96.7352 198.903 113.575C185.176 148.668 171.176 183.648 156.903 218.515C142.903 252.705 128.453 286.695 113.763 320.635C111.42 326.053 109.093 331.514 106.758 336.995C95.7837 362.748 84.6257 388.932 70.8229 413.165C82.1238 409.581 94.1965 407.271 105.905 405.031C110.628 404.128 115.293 403.235 119.823 402.275C140.49 397.895 161.156 393.608 181.823 389.415C223.903 380.905 266.033 372.635 308.393 365.635C338.404 360.665 368.51 356.63 398.631 352.592Z" fill="#231F20"/>
<path fill-rule="evenodd" clip-rule="evenodd" d="M171.122 237.985C170.503 234.008 171.284 229.94 173.332 226.475C178.064 218.234 187.414 213.794 196.792 215.335C207.112 216.955 214.092 224.905 216.242 234.905C218.042 243.285 218.332 254.845 213.852 262.415C203.012 280.785 176.212 272.425 170.852 254.155C169.288 248.864 169.382 243.221 171.122 237.985ZM187.342 246.055C187.912 250.045 194.722 258.455 197.482 251.845C198.702 248.945 198.322 236.265 194.092 235.375C191.536 234.861 189.746 239.424 188.401 242.853C187.994 243.892 187.627 244.827 187.292 245.485C187.342 245.675 187.342 245.865 187.342 246.055Z" fill="#231F20"/>
<path d="M289.003 274.935C300.383 275.415 310.343 270.315 314.303 259.275C316.303 253.645 316.363 247.825 315.993 241.935C315.563 235.045 315.883 227.855 312.993 221.565C311.303 217.945 305.893 217.685 303.323 220.325C298.113 225.665 298.473 231.325 299.073 238.445C299.613 244.815 302.253 256.015 294.023 258.675C278.223 263.775 265.703 247.915 265.413 234.125C265.371 232.472 264.247 231.043 262.65 230.611C261.053 230.18 259.363 230.848 258.493 232.255C244.773 253.395 269.063 274.085 289.003 274.935Z" fill="#231F20"/>
<path fill-rule="evenodd" clip-rule="evenodd" d="M390.374 182.805C399.324 192.755 399.904 209.705 391.014 219.925C382.124 230.135 366.494 228.015 357.904 218.525C353.052 213.025 350.952 205.624 352.194 198.395C352.556 195.955 353.316 193.59 354.444 191.395C353.435 188.85 353.649 185.983 355.024 183.615C362.274 171.125 381.614 173.055 390.374 182.805ZM375.904 206.795C378.114 204.465 377.314 198.645 375.264 196.715C373.534 195.075 371.654 195.225 369.734 195.805C369.694 198.815 370.024 201.695 371.024 203.595C371.721 204.916 372.85 205.957 374.224 206.545C374.746 206.795 375.331 206.882 375.904 206.795Z" fill="#231F20"/>
</svg>
