<svg width="480" height="583" viewBox="0 0 480 583" fill="none" xmlns="http://www.w3.org/2000/svg">
<path fill-rule="evenodd" clip-rule="evenodd" d="M118.007 97.7121C101.217 116.152 85.8274 135.562 74.3374 157.792C63.3374 179.032 56.8774 201.732 50.6274 224.702C50.0574 226.772 46.6274 226.392 46.8274 224.182C47.8774 208.412 51.8274 192.772 57.5275 177.792C58.8304 166.825 58.446 155.723 56.3874 144.872C55.2735 139.185 53.6606 133.606 51.5674 128.202C51.4829 127.985 51.3967 127.762 51.3086 127.533L51.3082 127.533C49.5397 122.956 47.0045 116.396 42.3374 114.272C36.7274 111.712 31.5174 118.212 28.8574 122.352C26.0951 126.983 24.0328 131.998 22.7374 137.232C19.521 149.337 17.1223 161.645 15.5574 174.072C9.14745 219.782 4.55745 265.922 11.8374 311.812C18.6774 355.202 32.6274 397.372 46.8374 438.812C60.0474 477.412 76.3975 516.392 106.607 544.922C119.777 557.362 136.057 568.422 153.757 573.112C161.247 575.112 171.827 576.112 176.967 568.882C181.981 561.867 178.682 551.645 176.232 544.053L176.23 544.048L176.227 544.037C176.108 543.669 175.991 543.307 175.877 542.952C175.775 542.654 175.708 542.346 175.677 542.032C171.011 540.699 166.411 539.199 161.877 537.532C154.224 534.732 146.714 531.589 139.347 528.102C138.736 527.813 138.12 527.523 137.502 527.233L137.497 527.23C130.574 523.973 123.345 520.571 117.287 515.982C116.716 515.611 116.491 514.884 116.754 514.255C117.017 513.627 117.692 513.276 118.357 513.422C124.607 514.797 130.669 517.271 136.672 519.721C139.007 520.674 141.333 521.623 143.657 522.502C151.957 525.642 159.947 528.662 168.267 531.252C183.547 536.175 199.434 538.958 215.477 539.522C230.897 539.795 246.313 538.828 261.577 536.632C274.667 534.852 287.737 532.122 300.097 527.402C306.228 525.081 312.105 522.139 317.637 518.622C321.334 516.257 324.606 513.453 327.89 510.637L327.89 510.637L327.891 510.636C329.564 509.202 331.24 507.765 332.977 506.382C336.227 503.802 341.847 507.132 339.177 511.172C333.777 519.342 325.177 525.512 316.087 530.232C317.142 530.974 317.605 532.306 317.237 533.542C317.104 534.119 316.959 534.726 316.809 535.358C314.453 545.266 310.62 561.384 322.877 565.962C328.085 567.898 334.802 565.439 339.871 563.584L340.367 563.402C345.676 561.412 350.744 558.833 355.477 555.712C373.157 544.242 385.847 526.912 396.477 509.042C407.797 489.932 418.237 469.932 425.017 448.702C431.797 427.472 435.317 405.282 437.107 383.062C437.985 372.164 438.305 361.238 438.625 350.313C438.957 338.963 439.289 327.614 440.247 316.302C440.386 314.471 441.912 313.057 443.747 313.057C445.583 313.057 447.109 314.471 447.247 316.302C449.247 344.602 447.687 373.732 443.997 401.852C440.997 424.632 435.737 446.902 426.997 468.112C443.617 469.452 454.107 450.442 459.737 437.042C466.407 421.212 469.347 404.042 469.997 386.972C471.207 354.892 465.357 322.622 458.277 291.452C450.691 258.146 440.449 225.502 427.647 193.832C415.477 163.732 401.037 133.932 380.967 108.192C371.774 96.4189 361.318 85.6882 349.787 76.1921C340.683 68.624 330.611 62.8417 320.495 57.0341C319.156 56.2653 317.816 55.496 316.477 54.7221C315.876 57.1769 314.716 59.4597 313.087 61.3921C305.957 69.9321 294.477 69.9821 284.477 67.6021C273.527 64.9921 262.277 60.6021 253.637 53.2421C250.287 50.4021 254.587 46.1421 257.957 47.6521C260.264 48.6705 262.539 49.7497 264.812 50.8283L264.813 50.8287C269.859 53.2236 274.9 55.6153 280.277 57.3321C287.217 59.5521 296.357 62.4321 303.167 58.4221C311.227 53.6821 307.827 45.9221 301.667 41.3421C295.595 36.9833 288.052 35.1874 280.667 36.3421C276.197 36.9321 274.747 30.0021 278.427 28.0521C281.569 26.4038 284.614 24.5775 287.547 22.5821C287.941 22.3117 288.455 21.9859 289.036 21.6175C291.487 20.0648 295.13 17.7574 295.897 15.6721C298.283 9.21293 283.722 9.14669 279.311 9.12662C279.044 9.12541 278.814 9.12436 278.627 9.12208C264.847 8.97208 251.327 11.9021 238.297 16.2321C226.784 20.2173 215.515 24.8753 204.547 30.1821C192.967 35.6221 181.327 41.1121 170.667 48.2321C151.013 61.3448 134.83 79.1757 119.011 96.6067L118.007 97.7121ZM443.697 283.712C444.15 284.713 444.663 285.716 445.18 286.729C446.512 289.337 447.874 292.004 448.327 294.842C448.421 295.249 448.209 295.664 447.824 295.827C447.44 295.989 446.994 295.852 446.767 295.502C445.092 293.172 444.202 290.314 443.333 287.52C442.993 286.429 442.657 285.348 442.277 284.312C441.967 283.522 443.337 282.932 443.697 283.752V283.712ZM426.748 217.472C420.648 201.262 413.438 185.732 406.008 170.112V170.152C405.607 169.322 404.397 170.052 404.797 170.932C412.238 187.182 418.668 204.112 424.798 220.932C427.728 228.932 430.478 237.072 433.109 245.192C433.876 247.577 434.591 249.987 435.307 252.4L435.307 252.4L435.307 252.401L435.308 252.402L435.308 252.403L435.308 252.404L435.309 252.405L435.309 252.406L435.309 252.407L435.309 252.408C436.973 258.015 438.641 263.635 440.969 268.982C441.429 270.032 442.789 269.192 442.669 268.262C441.61 260.539 439.068 252.947 436.58 245.511L436.579 245.511C436.155 244.244 435.732 242.98 435.319 241.722C432.625 233.555 429.768 225.472 426.748 217.472ZM59.7874 427.222C50.3374 407.432 43.7874 385.972 38.1974 364.802C32.6574 343.932 27.0374 321.622 26.0174 299.932C26.018 299.517 26.3251 299.166 26.7364 299.111C27.1478 299.055 27.5369 299.312 27.6474 299.712C28.9841 305.741 30.0092 311.861 31.0338 317.978C31.8719 322.981 32.7096 327.983 33.7174 332.932C35.8508 343.372 38.3141 353.739 41.1074 364.032C45.5946 380.628 51.3039 396.717 57.0317 412.858L57.0318 412.858L57.032 412.859L57.0321 412.859L57.0323 412.86L57.0325 412.86L57.0326 412.861L57.0328 412.861C58.6316 417.367 60.2319 421.876 61.8074 426.402C61.911 426.924 61.6293 427.446 61.1361 427.646C60.643 427.847 60.0771 427.669 59.7874 427.222ZM68.4835 449.591C70.9953 457.785 73.7323 466.714 77.9074 474.132C78.2089 474.62 78.8218 474.815 79.3495 474.59C79.8772 474.364 80.1611 473.787 80.0174 473.232C78.0253 464.938 73.896 456.433 70.142 448.701L69.9502 448.306L69.6474 447.682C69.2274 446.812 67.8174 447.422 68.0975 448.332C68.2256 448.749 68.3543 449.169 68.4835 449.591ZM110.567 134.132C106.33 134.696 102.774 137.602 101.377 141.642C99.8599 145.605 99.726 149.964 100.997 154.012C101.686 156.034 103.045 157.624 104.407 159.218L104.407 159.218C105.201 160.146 105.995 161.076 106.657 162.092C107.164 162.989 106.867 164.126 105.987 164.662C100.157 168.262 95.5375 161.762 93.8175 156.662C91.7158 150.11 92.3281 142.989 95.5175 136.892C98.4227 131.21 104.189 127.559 110.567 127.362C114.567 127.362 122.497 129.712 121.257 135.112C121.126 135.557 120.721 135.865 120.257 135.872C118.678 135.977 117.203 135.488 115.708 134.992C114.072 134.449 112.413 133.898 110.567 134.112V134.132ZM323.307 434.362C332.837 422.892 342.827 410.012 345.367 394.892V394.872C347.767 380.582 342.767 364.732 328.477 358.932C314.807 353.342 304.707 361.592 297.177 371.832C295.117 337.172 273.757 303.452 241.487 289.452C221.827 280.942 202.207 284.502 184.697 296.172C169.887 306.052 157.557 320.842 153.337 338.402C151.362 346.646 151.273 355.229 153.077 363.512C141.457 362.892 131.807 371.892 128.387 382.892C124.247 396.242 127.177 411.332 132.787 423.782C145.677 452.392 174.307 469.372 203.307 478.142C218.907 482.862 235.357 485.192 251.517 482.282C265.817 479.702 279.207 473.282 291.007 464.932C303.07 456.205 313.931 445.927 323.307 434.362ZM369.558 116.432C376.082 117.219 381.73 121.334 384.479 127.302C387.239 133.422 386.569 140.872 381.978 145.952C378.088 150.252 371.248 153.602 366.508 148.952C366.046 148.478 365.826 147.82 365.91 147.163C365.993 146.507 366.372 145.925 366.938 145.582C368.118 144.795 369.47 144.273 370.821 143.752C372.904 142.947 374.984 142.143 376.428 140.372C378.948 137.282 378.848 132.852 376.948 129.482C375.025 126.312 371.765 124.189 368.088 123.712C365.897 123.331 363.643 123.567 361.578 124.392C361.156 124.573 360.782 124.802 360.414 125.028C359.804 125.402 359.207 125.767 358.428 125.892C358.128 125.908 357.828 125.877 357.538 125.802C356.358 125.489 355.537 124.422 355.537 123.202C356.147 116.662 364.238 115.692 369.558 116.412V116.432ZM219.166 38.8321C215.407 38.5021 211.607 41.0721 208.927 43.4321V43.4521C208.337 43.9321 209.117 45.0021 209.837 44.5621C211.345 43.5767 212.962 42.7712 214.657 42.1621C215.401 41.8823 216.174 41.688 216.947 41.4939C217.805 41.2785 218.661 41.0634 219.476 40.7321C219.882 40.5428 220.112 40.1067 220.04 39.6647C219.968 39.2227 219.611 38.8825 219.166 38.8321ZM209.867 91.1021L210.429 90.9781C216.353 89.6697 222.291 88.3579 228.117 86.6421C247.177 81.0521 266.057 77.9721 285.887 81.0021C303.694 83.6433 320.377 91.3101 333.977 103.102C346.637 114.182 356.257 129.172 360.057 145.632C363.547 160.742 362.257 178.052 351.127 189.302C354.047 194.302 353.217 200.762 349.257 205.652C344.127 212.012 335.977 212.552 328.257 211.652C330.307 225.122 320.917 238.172 307.507 242.342C290.507 247.612 273.977 239.902 260.077 230.402C256.177 240.032 244.627 245.472 234.177 244.092C226.807 243.092 220.177 239.412 214.357 234.962C213.983 234.676 213.603 234.387 213.217 234.095C210.452 231.998 207.468 229.735 205.247 227.172C204.728 226.568 204.397 226.046 204.159 225.671C203.554 224.715 203.552 224.713 202.597 226.752C201.795 228.457 200.848 230.089 199.767 231.632C191.707 243.082 177.207 249.402 163.367 246.632C150.207 244.032 139.367 233.442 135.787 220.632C124.147 217.862 116.467 207.272 114.787 195.452C112.787 181.512 116.867 165.582 121.687 152.552C126.157 140.686 133.693 130.217 143.527 122.212C151.787 115.312 161.077 109.892 170.627 104.992C175.459 101.811 180.661 99.2315 186.117 97.3121C193.717 93.9321 201.677 91.0421 209.867 91.1221V91.1021ZM194.447 47.9621C182.057 51.0121 169.847 59.6721 159.997 67.5021V67.5221C149.173 75.914 139.876 86.1101 132.517 97.6621C132.217 98.1621 132.977 98.7821 133.347 98.3021C141.477 88.0321 150.217 78.3921 160.477 70.2321C165.722 66.0585 171.263 62.2719 177.057 58.9021C179.993 57.1917 183.059 55.734 186.122 54.2775C189.184 52.8215 192.243 51.3667 195.167 49.6621C195.575 49.4276 195.743 48.9262 195.56 48.4935C195.376 48.0608 194.899 47.8328 194.447 47.9621Z" fill="white"/>
<path fill-rule="evenodd" clip-rule="evenodd" d="M139.535 136.092C148.105 125.982 159.285 118.422 170.655 111.802L173.925 109.932C180.027 106.687 186.511 104.217 193.225 102.582C197.014 101.718 200.841 101.078 204.667 100.438C209.385 99.6498 214.102 98.8613 218.745 97.6521C221.898 96.8239 225.018 95.9564 228.124 95.0931C242.042 91.2242 255.657 87.4395 270.455 87.6521C302.455 88.1221 333.705 104.542 347.705 134.122C354.815 149.082 358.915 173.792 343.705 185.472C341.175 187.412 341.165 190.412 343.705 192.352C347.145 194.982 343.745 200.822 340.995 202.452C336.284 205.254 329.804 204.077 324.633 203.138L324.624 203.137C324.354 203.088 324.088 203.039 323.825 202.992C322.262 202.615 320.623 203.194 319.643 204.47C318.664 205.746 318.527 207.479 319.295 208.892C325.655 222.692 311.605 234.892 298.855 235.892C283.995 237.022 270.995 228.692 259.525 220.292C256.985 218.422 253.575 220.972 253.525 223.742C253.425 229.742 248.655 233.872 243.265 235.662C237.135 237.702 230.925 236.112 225.415 233.112C220.709 230.535 216.804 227.087 212.854 223.598C211.777 222.647 210.697 221.693 209.595 220.752C205.795 217.472 200.105 215.552 196.955 220.752C196.407 221.66 195.893 222.547 195.392 223.41L195.392 223.411L195.391 223.411C192.843 227.804 190.635 231.61 185.955 234.752C180.84 238.263 174.724 240.017 168.525 239.752C155.695 239.022 145.165 228.802 142.585 216.512C142.111 214.879 140.626 213.747 138.925 213.722C122.055 211.872 120.605 190.752 122.795 177.972C125.355 163.012 129.535 147.872 139.535 136.092ZM152.071 169.743C154.813 171.333 158.179 171.404 160.985 169.932C166.615 166.932 166.995 158.542 162.145 154.572C159.607 152.542 156.186 152.002 153.145 153.152C150.295 154.212 147.895 156.432 147.845 159.432C147.599 160.301 147.475 161.199 147.475 162.102C147.594 165.269 149.329 168.154 152.071 169.743ZM308.045 141.662L308.215 141.502C308.28 141.418 308.35 141.337 308.425 141.262C313.685 135.892 322.765 138.762 324.665 145.852C325.56 149.139 324.742 152.656 322.489 155.211C320.235 157.767 316.849 159.018 313.475 158.542C305.395 157.452 302.375 147.362 308.045 141.672V141.662ZM216.975 164.252C216.568 164.479 216.243 164.829 216.045 165.252L216.065 165.262C214.434 166.084 213.664 167.987 214.265 169.712C215.107 172.379 216.352 174.901 217.955 177.192C218.635 178.128 219.617 178.799 220.735 179.092C222.196 180.569 223.884 181.801 225.735 182.742C230.715 185.252 237.365 187.312 242.985 186.822C254.615 185.822 259.995 174.182 260.315 163.822C260.294 161.545 258.453 159.704 256.175 159.682C249.235 159.772 242.235 160.122 235.235 160.682C234.407 160.75 233.567 160.81 232.72 160.87C227.332 161.255 221.668 161.659 216.975 164.252Z" fill="#00AEEF"/>
<path d="M157.118 160.452C156.587 160.304 156.018 160.403 155.568 160.722C155 161.103 154.456 161.517 153.938 161.962C154.08 162.715 154.586 163.348 155.29 163.653C155.993 163.957 156.802 163.893 157.449 163.482C157.852 163.056 158.048 162.474 157.984 161.891C157.921 161.307 157.604 160.781 157.118 160.452Z" fill="white"/>
<path d="M329.568 363.542C323.408 360.122 316.178 359.772 310.098 363.542C304.388 367.042 300.628 373.012 297.098 378.542C296.657 379.241 295.812 379.571 295.015 379.355C294.218 379.139 293.655 378.428 293.628 377.602C293.656 358.744 288.031 340.311 277.478 324.682C267.727 310.202 253.627 297.842 237.207 291.552C218.397 284.362 199.907 289.382 183.967 300.772C169.967 310.772 158.707 325.532 155.687 342.702C154.474 349.736 154.688 356.942 156.317 363.892L156.917 364.012C158.687 364.422 158.477 366.612 157.227 367.302C159.691 375.539 164.225 383.006 170.397 388.992C171.167 389.722 170.057 390.752 169.267 390.122C161.962 384.197 156.658 376.167 154.077 367.122C136.597 364.622 129.517 385.372 130.397 399.592C131.297 414.182 137.727 428.142 146.937 439.352C164.027 460.162 190.877 472.352 216.797 477.662C243.737 483.202 269.047 476.412 291.018 460.302C301.224 452.643 310.512 443.831 318.698 434.042C327.498 423.752 336.698 412.362 340.578 399.172C344.268 386.432 342.168 370.532 329.568 363.542Z" fill="#00AEEF"/>
<path d="M316.187 149.932C316.656 149.429 316.818 148.712 316.611 148.056C316.404 147.399 315.86 146.905 315.187 146.762C314.668 146.675 314.135 146.72 313.637 146.892C313.351 147.421 313.174 148.003 313.117 148.602C313.046 149.36 313.471 150.078 314.17 150.38C314.868 150.683 315.682 150.502 316.187 149.932Z" fill="white"/>
<path d="M249.895 172.732H249.265C248.751 173.769 248.17 174.771 247.525 175.732C246.636 177.024 245.152 177.777 243.585 177.732L243.145 178.402C246.146 177.65 248.635 175.559 249.895 172.732Z" fill="white"/>
<path fill-rule="evenodd" clip-rule="evenodd" d="M143.537 122.362C151.797 115.462 161.087 110.042 170.637 105.142C175.478 102.005 180.683 99.4698 186.137 97.5921C193.727 94.0621 201.687 91.1721 209.877 91.2521C210.09 91.2051 210.303 91.1581 210.516 91.1111C216.415 89.8082 222.336 88.5005 228.127 86.7921C247.187 81.1521 266.067 78.1521 285.897 81.1521C303.703 83.7933 320.386 91.46 333.987 103.252C346.647 114.332 356.267 129.322 360.067 145.782C363.557 160.892 362.267 178.202 351.137 189.452C354.057 194.452 353.267 200.912 349.267 205.802C344.107 212.112 335.957 212.652 328.267 211.802C330.317 225.272 320.927 238.322 307.517 242.492C290.547 247.762 273.987 240.052 260.087 230.552C256.187 240.182 244.637 245.622 234.187 244.242C226.817 243.262 220.207 239.562 214.367 235.112C213.993 234.826 213.612 234.537 213.227 234.245C210.462 232.148 207.478 229.885 205.257 227.322C204.738 226.718 204.407 226.196 204.169 225.821C203.563 224.865 203.562 224.863 202.607 226.902C201.805 228.607 200.858 230.239 199.777 231.782C191.717 243.182 177.217 249.502 163.377 246.782C150.217 244.152 139.377 233.562 135.797 220.782C124.177 218.012 116.497 207.422 114.797 195.602C112.787 181.702 116.877 165.702 121.697 152.702C126.167 140.836 133.703 130.367 143.537 122.362ZM228.443 94.9779C225.233 95.8643 222.007 96.7551 218.747 97.6021C214.056 98.8236 209.291 99.6096 204.525 100.396C200.747 101.019 196.968 101.642 193.227 102.482C186.513 104.117 180.029 106.587 173.927 109.832L170.657 111.752C159.287 118.372 148.107 125.932 139.537 136.042C129.537 147.822 125.357 162.922 122.797 177.922C120.607 190.672 122.057 211.822 138.927 213.672C140.628 213.697 142.113 214.829 142.587 216.462C145.167 228.752 155.697 238.972 168.527 239.702C174.725 239.967 180.842 238.213 185.957 234.702C190.669 231.522 192.881 227.704 195.417 223.325C195.911 222.472 196.418 221.597 196.957 220.702C200.107 215.532 205.797 217.452 209.597 220.702C210.765 221.693 211.909 222.702 213.051 223.709C216.932 227.133 220.781 230.527 225.417 233.062C230.927 236.092 237.137 237.612 243.267 235.612C248.657 233.822 253.427 229.692 253.527 223.692C253.527 220.922 256.977 218.372 259.527 220.242C270.997 228.642 283.997 236.972 298.857 235.842C311.607 234.842 325.657 222.642 319.297 208.842C318.529 207.429 318.666 205.696 319.645 204.42C320.625 203.144 322.264 202.565 323.827 202.942C324.1 202.991 324.377 203.041 324.657 203.092C329.821 204.031 336.255 205.2 340.997 202.402C343.707 200.772 347.147 194.932 343.707 192.302C341.167 190.362 341.177 187.362 343.707 185.422C358.897 173.742 354.797 149.072 347.707 134.072C333.697 104.492 302.457 88.0521 270.457 87.6021C255.772 87.4317 242.251 91.1651 228.443 94.9779Z" fill="#231F20"/>
<path fill-rule="evenodd" clip-rule="evenodd" d="M153.154 153.152C156.194 152.002 159.615 152.542 162.153 154.572C166.993 158.542 166.613 166.932 160.983 169.932C158.177 171.399 154.815 171.326 152.077 169.737C149.338 168.148 147.604 165.266 147.484 162.102C147.484 161.199 147.608 160.301 147.854 159.432C147.904 156.442 150.304 154.212 153.154 153.152ZM155.317 163.653C156.02 163.957 156.829 163.893 157.475 163.482C157.879 163.056 158.075 162.474 158.011 161.891C157.948 161.307 157.631 160.781 157.145 160.452C156.614 160.304 156.045 160.403 155.595 160.722C155.027 161.103 154.483 161.517 153.964 161.962C154.107 162.715 154.613 163.348 155.317 163.653Z" fill="#231F20"/>
<path fill-rule="evenodd" clip-rule="evenodd" d="M322.503 155.228C320.243 157.783 316.849 159.028 313.474 158.542C305.394 157.452 302.374 147.362 308.074 141.672L308.244 141.512C308.309 141.428 308.379 141.347 308.454 141.272C313.694 135.862 322.793 138.772 324.693 145.862C325.586 149.154 324.763 152.674 322.503 155.228ZM315.224 146.782C314.705 146.695 314.172 146.74 313.674 146.912L313.644 146.932C313.375 147.458 313.211 148.033 313.164 148.622C313.1 149.375 313.523 150.086 314.216 150.387C314.909 150.688 315.718 150.513 316.224 149.952C316.693 149.449 316.855 148.732 316.648 148.076C316.441 147.419 315.897 146.925 315.224 146.782Z" fill="#231F20"/>
<path d="M217.974 177.202C218.653 178.138 219.635 178.809 220.754 179.102C222.214 180.579 223.903 181.811 225.754 182.752C230.754 185.262 237.384 187.322 243.004 186.832C254.634 185.832 260.004 174.182 260.334 163.832C260.312 161.555 258.471 159.714 256.194 159.692C249.194 159.772 242.194 160.122 235.254 160.692C229.154 161.192 222.424 161.232 216.994 164.262C216.587 164.489 216.261 164.839 216.064 165.262C214.435 166.091 213.673 167.999 214.284 169.722C215.126 172.389 216.37 174.911 217.974 177.202Z" fill="#231F20"/>
<path d="M120.256 135.852C120.719 135.845 121.124 135.537 121.256 135.092C122.496 129.692 114.616 127.302 110.566 127.342C104.173 127.525 98.3877 131.178 95.4756 136.872C92.2862 142.969 91.6739 150.09 93.7756 156.642C95.4956 161.742 100.116 168.242 105.946 164.642C106.825 164.106 107.122 162.969 106.616 162.072C104.816 159.312 102.046 157.192 100.956 153.992C99.6841 149.944 99.818 145.585 101.336 141.622C102.732 137.582 106.288 134.676 110.526 134.112C114.096 133.702 116.946 136.092 120.256 135.852Z" fill="#231F20"/>
<path d="M357.477 125.832C357.768 125.907 358.068 125.938 358.367 125.922C359.617 125.722 360.367 124.922 361.517 124.422C363.582 123.597 365.836 123.361 368.027 123.742C371.704 124.219 374.964 126.342 376.887 129.512C378.787 132.882 378.887 137.312 376.367 140.402C373.987 143.322 369.917 143.652 366.877 145.612C366.312 145.955 365.933 146.537 365.849 147.193C365.766 147.85 365.986 148.508 366.447 148.982C371.187 153.602 378.027 150.252 381.917 145.982C386.507 140.902 387.177 133.452 384.417 127.332C381.68 121.364 376.044 117.243 369.527 116.442C364.207 115.722 356.117 116.692 355.527 123.262C355.535 124.457 356.329 125.503 357.477 125.832Z" fill="#231F20"/>
<path fill-rule="evenodd" clip-rule="evenodd" d="M75.2258 141.622C89.7458 117.172 108.986 95.9021 128.416 75.2921C137.526 65.6321 146.976 56.2321 157.436 48.0121C168.656 39.1321 180.936 32.2221 193.776 26.0121C218.326 14.1221 244.046 2.34207 271.646 0.432073L271.852 0.417826C282.032 -0.284751 299.349 -1.47999 304.246 9.99207C307.446 17.5521 301.956 23.8021 295.246 28.5521C300.744 30.1015 305.794 32.94 309.976 36.8321C313.353 39.876 315.669 43.9193 316.586 48.3721C332.316 52.9321 346.876 63.1921 359.186 73.5421C373.366 85.4421 385.576 99.5421 396.186 114.662C416.276 143.292 430.576 175.932 442.796 208.512C455.597 242.804 465.393 278.144 472.076 314.132C478.156 346.752 482.406 380.602 476.256 413.542C473.316 429.262 467.786 445.192 458.726 458.482C450.896 469.982 437.656 480.142 423.236 476.632C413.606 497.702 401.896 518.732 387.486 536.832C374.006 553.742 355.726 568.462 334.106 572.912C324.316 574.932 315.206 572.692 310.206 563.362C305.096 553.812 307.286 542.582 310.726 532.812C307.736 534.172 304.736 535.392 301.826 536.472C288.516 541.422 274.516 544.032 260.516 545.822C243.776 547.952 226.646 549.362 209.776 548.182C201.333 547.568 192.95 546.294 184.706 544.372C187.766 553.482 189.866 563.842 184.556 572.532C179.246 581.222 168.996 583.702 159.416 582.702C137.426 580.362 116.236 565.702 100.566 550.932C66.5758 518.932 49.6358 474.202 35.2558 430.872C19.4758 383.302 4.05577 334.802 0.655773 284.482C-1.12423 258.142 0.945773 231.772 4.14577 205.622C4.58292 202.053 5.00216 198.453 5.42359 194.835C7.92326 173.372 10.4999 151.248 17.3458 130.882C20.2258 122.262 24.9558 112.612 33.4258 108.212C42.2258 103.642 50.1458 109.812 54.3658 117.432C61.5358 130.382 64.8958 145.682 64.8958 160.792C68.0758 154.202 71.5558 147.802 75.2258 141.622ZM238.296 16.2121C226.782 20.1973 215.513 24.8553 204.546 30.1621C192.966 35.6021 181.326 41.0921 170.646 48.2221C151.163 61.2394 135.092 78.9117 119.404 96.1623C118.931 96.6826 118.458 97.2026 117.986 97.7221C101.196 116.162 85.8058 135.572 74.3158 157.802C63.3358 179.042 56.8558 201.712 50.6058 224.712C50.0358 226.782 46.6558 226.402 46.8058 224.192C47.8558 208.422 51.7858 192.802 57.5058 177.802C58.8087 166.835 58.4243 155.733 56.3658 144.882C55.2518 139.195 53.6389 133.616 51.5458 128.212C51.4612 127.994 51.3748 127.771 51.2866 127.543C49.518 122.966 46.9829 116.406 42.3158 114.282C36.7058 111.722 31.4958 118.222 28.8358 122.362C26.0735 126.993 24.0112 132.008 22.7158 137.242C19.4994 149.347 17.1006 161.655 15.5358 174.082C9.12577 219.822 4.56577 265.932 11.8158 311.822C18.6858 355.202 32.6358 397.372 46.8158 438.822C60.0258 477.422 76.3758 516.402 106.586 544.932C119.736 557.372 136.036 568.432 153.736 573.122C161.226 575.112 171.806 576.102 176.946 568.892C181.959 561.877 178.66 551.655 176.21 544.063C176.09 543.689 175.971 543.322 175.856 542.962C175.753 542.664 175.686 542.356 175.656 542.042C171.002 540.709 166.402 539.209 161.856 537.542C154.206 534.742 146.796 531.642 139.326 528.112C138.712 527.822 138.096 527.532 137.476 527.241C130.553 523.983 123.324 520.582 117.266 515.992C116.694 515.621 116.469 514.894 116.732 514.266C116.995 513.637 117.67 513.286 118.336 513.432C124.668 514.825 130.894 517.368 136.959 519.846C139.207 520.764 141.434 521.674 143.636 522.512C151.776 525.612 159.926 528.672 168.246 531.262C183.539 536.185 199.44 538.965 215.496 539.522C230.915 539.795 246.331 538.828 261.596 536.632C274.686 534.852 287.756 532.122 300.116 527.402C306.246 525.081 312.124 522.139 317.656 518.622C321.353 516.257 324.624 513.453 327.908 510.637C329.581 509.203 331.258 507.766 332.996 506.382C336.246 503.802 341.866 507.172 339.196 511.172C333.796 519.342 325.206 525.512 316.106 530.232C317.161 530.974 317.624 532.306 317.256 533.542C317.126 534.101 316.987 534.688 316.842 535.299C314.491 545.202 310.651 561.375 322.896 565.962C328.093 567.904 334.792 565.45 339.857 563.596C340.035 563.53 340.211 563.466 340.386 563.402C345.687 561.411 350.749 558.831 355.476 555.712C373.176 544.242 385.866 526.912 396.476 509.042C407.796 489.932 418.196 469.932 424.986 448.662C431.776 427.392 435.296 405.242 437.076 383.022C437.947 372.149 438.267 361.248 438.587 350.349C438.922 338.973 439.256 327.599 440.216 316.262C440.354 314.431 441.88 313.017 443.716 313.017C445.552 313.017 447.077 314.431 447.216 316.262C449.196 344.562 447.656 373.692 443.966 401.812C441.016 424.592 435.746 446.862 426.966 468.072C443.586 469.412 454.076 450.402 459.706 437.002C466.376 421.172 469.316 404.022 469.966 386.932C471.176 354.932 465.326 322.622 458.246 291.452C450.66 258.146 440.417 225.502 427.616 193.832C415.476 163.732 401.036 133.932 381.016 108.152C371.822 96.3789 361.366 85.6482 349.836 76.1521C340.562 68.5164 330.375 62.6837 320.092 56.7962C318.887 56.1065 317.682 55.4162 316.476 54.7221C315.86 57.1814 314.683 59.4645 313.036 61.3921C305.956 69.9321 294.486 69.9821 284.486 67.6021C273.536 64.9921 262.286 60.5621 253.646 53.2421C250.296 50.4021 254.596 46.1421 257.966 47.6521C260.222 48.6493 262.447 49.7047 264.673 50.7603C269.767 53.1765 274.862 55.593 280.326 57.3121C287.266 59.5321 296.406 62.4021 303.216 58.4021C311.276 53.6621 307.876 45.9021 301.716 41.3221C295.644 36.9633 288.101 35.1674 280.716 36.3221C276.246 36.9121 274.796 29.9821 278.476 28.0321C281.6 26.3821 284.629 24.5558 287.546 22.5621C287.939 22.2917 288.453 21.9659 289.035 21.5976C291.486 20.0449 295.128 17.7374 295.896 15.6521C298.336 9.046 283.04 9.08977 279.023 9.10127C278.875 9.10169 278.742 9.10207 278.626 9.10207C264.846 8.95207 251.296 11.8821 238.296 16.2121Z" fill="#231F20"/>
<path fill-rule="evenodd" clip-rule="evenodd" d="M297.174 371.832C304.704 361.592 314.804 353.342 328.474 358.932C342.764 364.732 347.764 380.582 345.364 394.912C342.824 410.032 332.834 422.892 323.304 434.382C313.926 445.94 303.066 456.212 291.004 464.932C279.204 473.282 265.814 479.702 251.514 482.282C235.354 485.192 218.904 482.862 203.304 478.142C174.334 469.372 145.674 452.392 132.784 423.782C127.174 411.332 124.244 396.242 128.384 382.892C131.804 371.862 141.454 362.872 153.074 363.512C151.27 355.229 151.359 346.646 153.334 338.402C157.554 320.842 169.884 306.052 184.694 296.172C202.204 284.452 221.824 280.942 241.484 289.452C273.754 303.432 295.114 337.172 297.174 371.832ZM318.644 434.082C327.444 423.792 336.644 412.402 340.524 399.212V399.172C344.264 386.432 342.164 370.532 329.564 363.532C323.404 360.152 316.174 359.802 310.094 363.532C304.476 366.985 300.746 372.82 297.265 378.265L297.094 378.532C296.654 379.231 295.809 379.561 295.012 379.345C294.214 379.129 293.651 378.418 293.624 377.592C293.628 358.746 287.986 340.331 277.424 324.722C267.674 310.242 253.574 297.882 237.154 291.592C218.344 284.402 199.854 289.422 183.914 300.812C169.944 310.792 158.634 325.572 155.634 342.742C154.422 349.776 154.636 356.982 156.264 363.932L156.864 364.052C158.634 364.462 158.424 366.652 157.174 367.342C159.639 375.579 164.173 383.046 170.344 389.032C171.114 389.762 170.004 390.792 169.214 390.162C161.909 384.237 156.605 376.207 154.024 367.162C136.544 364.632 129.464 385.412 130.344 399.632C131.244 414.222 137.674 428.182 146.884 439.392C163.974 460.202 190.824 472.362 216.744 477.702C243.684 483.242 268.964 476.452 290.964 460.342C301.171 452.683 310.459 443.871 318.644 434.082Z" fill="#231F20"/>
<path d="M424.796 220.932C427.726 228.982 430.476 237.102 433.106 245.262C435.656 253.192 437.636 261.402 440.966 269.052C441.426 270.102 442.786 269.262 442.666 268.332C441.426 259.332 438.156 250.432 435.316 241.792C432.649 233.652 429.793 225.569 426.746 217.542C420.646 201.332 413.436 185.802 406.006 170.182C405.606 169.352 404.396 170.082 404.776 170.902C412.236 187.152 418.666 204.082 424.796 220.932Z" fill="#231F20"/>
<path d="M442.276 284.352C443.626 288.042 444.436 292.302 446.766 295.542C446.993 295.892 447.438 296.029 447.823 295.867C448.207 295.704 448.419 295.289 448.326 294.882C447.726 290.942 445.326 287.332 443.696 283.752C443.336 282.932 441.966 283.522 442.276 284.352Z" fill="#231F20"/>
<path d="M41.1056 364.002C38.3256 353.709 35.8623 343.342 33.7156 332.902C31.4556 321.902 30.0756 310.672 27.6456 299.702C27.535 299.302 27.1459 299.045 26.7346 299.101C26.3233 299.156 26.0162 299.507 26.0156 299.922C27.0156 321.622 32.6556 343.922 38.1956 364.802C43.8056 385.972 50.3356 407.432 59.7856 427.222C60.0857 427.654 60.6473 427.815 61.1311 427.61C61.6148 427.404 61.888 426.888 61.7856 426.372C54.5856 405.632 46.8456 385.232 41.1056 364.002Z" fill="#231F20"/>
<path d="M69.6451 447.682C69.2251 446.812 67.8151 447.422 68.0951 448.332C70.7151 456.862 73.5151 466.332 77.9051 474.132C78.2065 474.62 78.8195 474.815 79.3472 474.59C79.8748 474.365 80.1587 473.788 80.0151 473.232C77.9351 464.572 73.5251 455.702 69.6451 447.682Z" fill="#231F20"/>
<path d="M133.367 98.3021C141.477 88.0321 150.237 78.3921 160.477 70.2321C165.723 66.0688 171.264 62.2922 177.057 58.9321C182.927 55.5121 189.317 53.1021 195.167 49.6921C195.574 49.4575 195.743 48.9562 195.559 48.5235C195.376 48.0908 194.899 47.8628 194.447 47.9921C182.057 51.0421 169.847 59.7021 159.997 67.5321C149.18 75.9257 139.89 86.1218 132.537 97.6721C132.237 98.1621 132.997 98.7821 133.367 98.3021Z" fill="#231F20"/>
<path d="M209.788 44.5621C211.295 43.5767 212.913 42.7712 214.608 42.1621C216.178 41.5721 217.878 41.3621 219.428 40.7321C219.814 40.5415 220.035 40.125 219.976 39.6983C219.917 39.2716 219.591 38.9307 219.168 38.8521C215.408 38.5221 211.608 41.0921 208.928 43.4521C208.338 43.9321 209.118 45.0021 209.788 44.5621Z" fill="#231F20"/>
</svg>
