<svg width="544" height="573" viewBox="0 0 544 573" fill="none" xmlns="http://www.w3.org/2000/svg">
<path d="M116.741 69.7596C98.4812 76.2696 80.5112 85.5396 66.5312 99.1796C36.9112 128.1 25.8412 176.36 22.7012 217.51C34.1712 214.2 43.4112 201.07 52.1312 194.3C61.1397 187.194 71.9866 182.802 83.4012 181.64C99.6112 179.87 115.491 183.64 129.851 190.72C124.061 159.04 130.111 125.82 140.851 95.5196C145.141 83.4496 149.941 71.2896 155.161 59.3696C142.461 63.0496 129.121 65.3396 116.741 69.7596Z" fill="#F7941E"/>
<path d="M362.4 438.14C364.98 457.73 352.76 481.81 343.55 496.43C338.648 504.16 333.275 511.58 327.46 518.65C322.91 524.21 307.6 536.09 310.92 544.16C317.49 560.06 356.37 545.98 367.18 542.49C401.18 531.49 432.66 511.99 455.55 484.31C467.238 470.132 475.899 453.711 481 436.06C483.57 427.11 484 418.06 484.49 409.06C465.465 419.179 445.22 426.815 424.25 431.78C404.016 436.686 383.21 438.825 362.4 438.14Z" fill="#F7941E"/>
<path d="M502.82 283.3C494.53 289 485.24 293.54 476.7 297.87C459.999 306.352 442.723 313.654 425 319.72C387.407 332.597 348.082 339.711 308.36 340.82C305.22 340.9 302.06 340.94 298.9 340.96C310.9 357.96 309.09 384.13 315.66 402.88C319.6 414.13 328.9 413.52 339.28 414.65C347.401 415.513 355.564 415.917 363.73 415.86C380.548 415.772 397.301 413.758 413.66 409.86C446.09 402.11 480.58 386.71 504.6 362.99C519 348.73 521.4 330.31 516 311.23C513.18 301.53 507.44 292.53 502.82 283.3Z" fill="#F7941E"/>
<path d="M277.11 59.8996C282.11 52.2396 287.47 43.4496 293.72 35.5296C281.23 28.0996 268 25.0696 252.72 23.8196C236.4 22.4796 216.64 21.9796 201.51 29.0796C186.82 35.9996 181.34 54.1496 175.13 67.9996C167.77 84.3896 160.79 101 155.62 118.22C146.16 149.82 143.14 185.77 158.62 216.07C166.12 230.69 177.62 242.07 190.99 251.38C198.48 256.61 206.64 260.77 214.41 265.52C214.53 264.31 214.65 263.1 214.76 261.91C216.556 242.362 219.373 222.923 223.2 203.67C226.2 188.8 229.57 173.58 233.74 158.53C239.86 123.34 258.07 89.1096 277.11 59.8996Z" fill="#F7941E"/>
<path d="M430.001 292.63C446.334 286.391 462.198 278.989 477.471 270.48C490.411 263.28 504.031 255.97 504.201 239.28C504.341 224.16 497.601 207.52 492.341 193.51C487.443 180.496 481.618 167.85 474.911 155.67C460.971 130.31 443.402 107.122 422.761 86.8396C402.271 66.7096 376.171 43.9996 348.311 35.1196C327.731 28.5796 317.251 38.9996 305.771 54.6996C296.468 67.517 288.029 80.94 280.511 94.8796C268.291 117.45 259.861 141.45 249.801 164.88C246.381 177.54 243.231 190.28 240.801 203.24C238.754 214.28 236.984 225.37 235.491 236.51C236.111 237.558 236.377 238.778 236.251 239.99C236.32 241.853 235.832 243.694 234.851 245.28C234.651 245.62 234.451 245.94 234.241 246.28C233.621 251.513 233.074 256.746 232.601 261.98C231.371 275.67 226.211 300.98 237.351 311.98C247.941 322.41 275.271 318.8 289.001 318.79C304.311 318.721 319.606 317.79 334.811 316C367.395 312.232 399.376 304.38 430.001 292.63Z" fill="#F7941E"/>
<path fill-rule="evenodd" clip-rule="evenodd" d="M509.545 173.099C520.961 199.335 537.624 237.63 521.33 264.74C531.37 277.35 538.06 294.67 541.36 309.05C546.12 329.67 544.33 351.94 531.79 369.55C525.417 378.297 517.85 386.11 509.31 392.76C512.71 408.79 508.74 427.79 504.45 442.52C498.605 462.224 489.028 480.62 476.24 496.71C450.92 528.9 414.28 550.9 375.51 563.06C356.38 569.07 330.46 577.01 310.51 569.91C295.23 564.47 284.42 548.16 289.99 532.06C292.371 525.169 297.452 519.846 302.422 514.64L302.424 514.637C303.591 513.415 304.752 512.198 305.87 510.97C314.131 501.878 321.499 492.013 327.87 481.51C333.54 472.17 338.81 462.31 341.27 451.58C342.284 446.857 342.557 442.006 342.08 437.2C328.13 436.14 313.06 433.56 304.65 425.87C295.116 417.142 293.399 401.438 291.886 387.594L291.886 387.594L291.885 387.593L291.885 387.592C291.412 383.258 290.958 379.107 290.29 375.41C288.66 366.4 286.5 357.38 282.19 349.25C281.506 347.963 280.7 346.722 279.899 345.491C278.815 343.825 277.742 342.175 277 340.45C267.501 339.945 258.039 338.897 248.66 337.31C234.79 334.93 222.92 328.66 217.06 315.31C212.57 305.1 212.16 293.52 212.88 282.1C181.19 273.06 150.88 246.97 137.88 217.36C134.451 216.096 130.961 214.69 127.431 213.268C108.055 205.464 87.4339 197.158 68.6304 209C63.3735 212.324 58.9082 216.64 54.4334 220.966C49.485 225.749 44.5251 230.543 38.4704 234.02C28.8304 239.53 19.0704 240.92 8.29036 238.92C3.82036 238.1 0.140361 232.86 0.350361 228.48C2.56036 180.5 14.2804 123.11 48.6904 87.1998C63.8304 71.4098 83.1204 60.8498 103.48 53.3498C121.69 46.6498 144.38 39.1098 164.32 39.8598C164.567 39.3555 164.806 38.8512 165.045 38.3494L165.045 38.3483C165.445 37.5074 165.841 36.6738 166.26 35.8598C175.09 18.8098 188.47 8.26978 207.26 4.07978C227.382 -0.237652 248.136 -0.732924 268.44 2.61978C282.48 4.83978 300.88 8.02978 310.54 19.3298C312.568 17.9818 314.705 16.8076 316.93 15.8198C333.82 8.31978 352.77 13.6198 368.65 21.1498C431.21 50.8198 482 109.72 509.28 172.49L509.545 173.099ZM83.4004 181.66C99.6104 179.89 115.49 183.67 129.85 190.74V190.72C124.06 159 130.11 125.82 140.87 95.5198C145.18 83.4498 149.96 71.2898 155.18 59.3698C150.16 60.8221 145.044 62.0579 139.928 63.2935L139.928 63.2936L139.928 63.2937C132.08 65.1891 124.234 67.0842 116.74 69.7598C98.5304 76.2698 80.5304 85.5398 66.5304 99.1798C36.9104 128.1 25.8404 176.36 22.7004 217.51C30.3954 215.281 37.116 208.602 43.3473 202.409C46.3718 199.403 49.281 196.512 52.1304 194.3C61.1411 187.201 71.9878 182.817 83.4004 181.66ZM223.25 203.69C219.424 222.943 216.606 242.383 214.81 261.93C214.7 263.12 214.58 264.33 214.46 265.54C211.673 263.836 208.835 262.207 205.996 260.578C200.921 257.667 195.843 254.753 191.04 251.4C177.67 242.08 166.17 230.71 158.67 216.09C143.14 185.79 146.16 149.84 155.67 118.24C160.79 101 167.77 84.3898 175.13 67.9998C176.087 65.8673 177.025 63.6328 177.983 61.3531C183.246 48.8268 189.084 34.9343 201.52 29.0798C216.65 21.9798 236.41 22.4798 252.73 23.8198C268 25.0698 281.23 28.0998 293.73 35.5298C288.692 41.9139 284.226 48.8634 280.07 55.3306L280.069 55.3326L280.065 55.338C279.067 56.8913 278.086 58.4167 277.12 59.8998C258.12 89.1098 239.87 123.34 233.8 158.53C229.62 173.58 226.26 188.8 223.25 203.67V203.69ZM280.111 318.992C283.415 318.855 286.444 318.73 289 318.73C304.31 318.682 319.604 317.77 334.81 316C367.395 312.232 399.376 304.38 430 292.63C446.326 286.39 462.184 278.988 477.45 270.48L478.059 270.142C490.814 263.049 504.013 255.708 504.18 239.28C504.311 225.226 498.497 209.85 493.452 196.509L493.452 196.509L493.452 196.508L493.452 196.508C493.069 195.496 492.691 194.496 492.32 193.51C487.422 180.496 481.597 167.85 474.89 155.67C460.951 130.31 443.382 107.122 422.74 86.8398C402.31 66.7098 376.17 43.9798 348.31 35.1198C327.77 28.5798 317.25 38.9498 305.77 54.6998C296.47 67.4978 288.031 80.9008 280.51 94.8198C271.972 110.618 265.284 127.094 258.598 143.567C255.714 150.67 252.831 157.773 249.8 164.82C246.35 177.48 243.2 190.18 240.8 203.18C238.747 214.226 236.977 225.316 235.49 236.45C236.11 237.498 236.377 238.718 236.25 239.93C236.319 241.793 235.832 243.635 234.85 245.22C234.65 245.59 234.45 245.91 234.24 246.22C233.614 251.446 233.067 256.68 232.6 261.92C232.417 263.93 232.149 266.191 231.861 268.621L231.861 268.622C230.191 282.732 227.847 302.536 237.35 311.92C245.968 320.408 265.672 319.591 280.111 318.992ZM481 436.06C475.887 453.715 467.212 470.136 455.51 484.31C432.62 511.99 401.15 531.51 367.14 542.49C366.809 542.597 366.452 542.714 366.07 542.839C365.658 542.974 365.219 543.12 364.752 543.274C351.515 547.65 317.032 559.048 310.88 544.16C308.327 537.953 316.799 529.493 322.913 523.388C324.749 521.555 326.372 519.934 327.42 518.65C333.235 511.58 338.608 504.16 343.51 496.43C352.72 481.81 364.94 457.73 362.36 438.14C383.185 438.816 404.005 436.663 424.25 431.74C445.234 426.772 465.494 419.13 484.53 409L484.527 409.07V409.07C484.068 418.047 483.604 427.133 481 436.06ZM413.63 409.87C446.06 402.12 480.57 386.72 504.57 363C519 348.73 521.4 330.31 515.98 311.23C513.961 304.158 510.363 297.458 506.771 290.77C505.436 288.285 504.102 285.801 502.85 283.3C495.324 288.475 486.973 292.694 479.108 296.667C478.31 297.07 477.517 297.471 476.73 297.87C460.019 306.354 442.733 313.655 425 319.72C387.398 332.603 348.063 339.721 308.33 340.83C305.19 340.91 302.03 340.97 298.87 340.97C306.231 351.418 308.392 365.34 310.493 378.874C311.809 387.348 313.1 395.67 315.63 402.89C319.108 412.819 326.76 413.509 335.645 414.312C336.827 414.418 338.031 414.527 339.25 414.66C347.371 415.523 355.534 415.927 363.7 415.87C380.518 415.782 397.271 413.768 413.63 409.87Z" fill="#231F20"/>
</svg>
