<svg width="407" height="589" viewBox="0 0 407 589" fill="none" xmlns="http://www.w3.org/2000/svg">
<path d="M262.575 131.7C262.578 130.726 262.337 129.767 261.875 128.91C261.564 128.689 261.172 128.62 260.805 128.72C260.115 128.9 259.245 130.22 259.015 130.84C258.907 131.185 258.837 131.54 258.805 131.9C259.929 132.803 261.553 132.717 262.575 131.7Z" fill="white"/>
<path fill-rule="evenodd" clip-rule="evenodd" d="M198.432 180.062C194.294 180.51 190.156 180.958 186.016 181.38C184.446 181.541 182.774 181.755 181.041 181.976C168.565 183.572 152.849 185.582 148.196 171.35C148.138 171.173 148.047 171.01 147.926 170.87C148.594 169.401 149.711 168.183 151.116 167.39C154.039 165.719 157.755 165.001 161.045 164.366C161.142 164.347 161.239 164.328 161.336 164.31C167.842 163.046 174.493 162.799 181.099 162.555C181.235 162.55 181.37 162.545 181.506 162.54C186.252 162.362 191.01 162.107 195.771 161.852C204.975 161.358 214.192 160.864 223.366 160.93C226.39 160.901 229.408 161.203 232.366 161.83C234.966 162.43 239.756 163.67 241.106 166.32C243.706 171.46 230.336 175.39 227.046 176.24C221.526 177.668 215.781 178.249 210.078 178.826C209.313 178.903 208.549 178.981 207.786 179.06C204.666 179.386 201.549 179.724 198.432 180.062ZM184.944 169.248C177.551 169.847 169.922 170.465 163.016 172.72L163.036 172.7C162.611 172.738 162.297 173.115 162.336 173.54C162.374 173.965 162.751 174.278 163.176 174.24C170.543 175.187 178.26 174.374 185.761 173.584C187.922 173.357 190.064 173.131 192.176 172.95C196.816 172.55 201.396 172.14 206.076 171.72C207.358 171.605 208.682 171.532 210.02 171.459C213.567 171.266 217.219 171.066 220.486 170.05C221.377 169.769 221.937 168.886 221.811 167.96C221.685 167.033 220.91 166.332 219.976 166.3C216.582 165.878 212.946 166.36 209.416 166.827C208.088 167.003 206.775 167.177 205.496 167.3C200.669 167.766 195.842 168.24 191.016 168.72C189.024 168.917 186.993 169.082 184.944 169.248Z" fill="white"/>
<path d="M119.226 140.54C118.327 140.748 117.596 141.4 117.286 142.27C116.926 143.03 116.766 145.41 118.016 145.68C120.186 146.15 120.316 142.47 120.256 141.18C120.239 140.927 120.28 140.674 120.376 140.44C119.99 140.416 119.602 140.45 119.226 140.54Z" fill="white"/>
<path fill-rule="evenodd" clip-rule="evenodd" d="M122.253 94.1493C122.143 93.6239 121.769 93.1928 121.265 93.0097C121.052 92.8788 120.802 92.8225 120.555 92.8497C116.274 93.2528 112.093 94.3858 108.195 96.1997C115.665 87.1397 128.095 82.0997 138.865 78.6997C145.655 76.5265 152.647 75.0391 159.735 74.2597C163.355 73.8797 166.995 73.6497 170.645 73.6497C171.772 73.6461 172.94 73.7268 174.119 73.8082C176.214 73.9528 178.341 74.0997 180.325 73.7797C180.73 73.8719 181.156 73.7962 181.505 73.5697C200.855 61.9797 224.725 58.9297 245.725 67.2097L242.055 67.8997C239.795 68.3197 240.195 71.4697 242.055 72.0997C261.455 78.6197 277.825 92.8397 287.935 110.54C285.767 109.372 283.433 108.543 281.015 108.08C279.993 107.837 278.934 108.292 278.406 109.199C277.879 110.107 278.008 111.253 278.725 112.02C300.694 136.549 318.85 164.242 332.585 194.17L324.495 189.4C322.465 188.21 320.505 190.21 320.835 192.21C322.868 204.823 324.501 217.463 325.735 230.13C326.328 236.296 326.835 242.47 327.255 248.65C327.321 249.666 327.398 250.676 327.476 251.682L327.476 251.684C327.631 253.705 327.784 255.707 327.845 257.71C327.9 258.745 327.86 259.782 327.725 260.81C325.928 254.649 323.477 248.699 320.415 243.06C319.545 241.46 316.655 241.67 316.315 243.6C313.577 258.86 308.807 273.685 302.135 287.68C301.908 285.166 301.795 282.64 301.795 280.1C301.795 277.37 297.695 276.76 296.995 279.45C292.571 296.339 285.01 312.246 274.705 326.34C274.951 324.033 275.188 321.723 275.415 319.41C275.625 317.38 272.815 316.48 271.515 317.8C263.786 325.548 255.424 332.636 246.515 338.99C247.122 336.668 247.372 334.267 247.255 331.87C247.261 331.237 246.967 330.638 246.463 330.256C245.958 329.873 245.302 329.752 244.695 329.93C235.843 333.201 226.525 335.034 217.095 335.36L216.905 335.21C214.792 333.895 212.488 332.916 210.075 332.31C209.339 332.114 208.554 332.324 208.014 332.862C207.475 333.399 207.262 334.183 207.455 334.92V334.99C202.271 333.481 196.949 332.596 191.622 331.71L191.621 331.709C188.686 331.221 185.75 330.733 182.835 330.14C173.491 328.372 164.66 324.543 156.985 318.93C155.695 318.02 153.775 319.57 154.275 321.02C155.214 323.79 156.364 326.485 157.715 329.08C145.955 324.8 135.055 319.57 127.765 308.72C127.317 308.002 126.415 307.716 125.637 308.045C124.858 308.373 124.433 309.219 124.635 310.04C124.867 311.26 125.057 312.506 125.247 313.752L125.247 313.753C125.319 314.222 125.391 314.692 125.465 315.16C119.482 308.849 114.508 301.654 110.715 293.83C106.36 284.511 103.932 274.409 103.575 264.13C103.475 261.89 100.175 261.32 99.5745 263.59C97.0092 273.256 95.3915 283.15 94.7445 293.13C87.4545 276.48 83.8245 258.47 82.5145 240.35C81.643 229.95 81.5762 219.499 82.3145 209.09C83.2545 197.63 86.6445 187.11 90.8345 176.47C91.5345 174.78 88.9845 173.38 87.8345 174.7C83.2987 179.888 79.3761 185.583 76.1445 191.67C77.3136 175.082 81.3253 158.818 88.0045 143.59C95.9945 125.36 107.625 109.44 121.805 95.5897C122.193 95.2197 122.363 94.6747 122.253 94.1493ZM297.431 263.899C297.722 263.821 297.95 263.598 298.035 263.31C299.465 254.32 298.485 242.75 292.475 235.42C292.115 234.96 291.255 235.45 291.475 236.01C291.927 237.166 292.41 238.297 292.89 239.424L292.89 239.424C294.116 242.303 295.329 245.149 296.005 248.29C296.918 252.54 297.121 256.913 296.605 261.23C295.794 260.257 295.14 259.164 294.665 257.99C294.553 257.642 294.23 257.406 293.865 257.406C293.499 257.406 293.176 257.642 293.065 257.99C292.795 258.94 292.535 259.89 292.275 260.84C292.185 261.155 292.097 261.47 292.01 261.785C291.922 262.1 291.835 262.415 291.745 262.73C291.235 263.21 291.005 263.12 291.065 262.47C290.717 262.015 290.646 260.982 290.588 260.131V260.131C290.564 259.782 290.542 259.465 290.505 259.23C290.469 259.008 290.435 258.785 290.4 258.563L290.4 258.562L290.4 258.561C290.238 257.524 290.077 256.49 289.855 255.47C289.755 254.99 289.035 255.12 289.035 255.58C289.034 255.622 289.032 255.668 289.031 255.717L289.027 255.831L289.021 256.033C288.947 258.321 288.738 264.742 291.105 265.41C292.925 265.93 293.745 263.04 294.205 260.75C294.866 261.838 295.678 262.827 296.615 263.69C296.832 263.897 297.141 263.977 297.431 263.899ZM289.035 179.04C289.125 178.04 290.625 178.04 290.615 179.04L290.609 179.434V179.434C290.548 183.379 290.484 187.556 292.555 191.04L292.612 191.138L292.669 191.235C293.09 191.958 293.831 193.228 294.505 193.52C295.976 194.149 295.993 192.869 296.009 191.74C296.011 191.541 296.014 191.348 296.025 191.17C296.117 188.947 295.864 186.724 295.275 184.58C295.189 184.272 295.273 183.943 295.497 183.715C295.72 183.487 296.048 183.396 296.357 183.475C296.666 183.554 296.909 183.792 296.995 184.1C297.532 185.678 299.176 186.787 300.712 187.824C301.376 188.272 302.019 188.707 302.545 189.16C303.534 190.021 304.46 190.954 305.315 191.95C305.147 187.928 303.862 184.032 301.605 180.7C301.135 179.99 302.095 178.96 302.815 179.49C304.551 180.772 306.192 182.179 307.725 183.7C305.907 177.242 301.774 171.681 296.115 168.08C295.974 167.964 295.939 167.764 296.031 167.607C296.123 167.45 296.315 167.384 296.485 167.45C303.834 171.146 308.914 178.198 310.095 186.34C310.215 187.12 309.255 187.94 308.615 187.2C307.555 185.989 306.43 184.837 305.245 183.75C306.671 187.121 307.304 190.775 307.095 194.43C307.095 195.13 306.095 195.74 305.545 195.07C303.596 192.579 301.307 190.374 298.745 188.52C298.315 188.21 297.915 187.92 297.535 187.61C297.985 191.85 297.915 197.83 294.065 195.47C288.835 192.29 288.495 184.33 288.995 179.04H289.035ZM200.091 260.175C200.453 260.127 200.753 259.87 200.855 259.52H200.815C201.571 255.233 202.634 251.005 203.995 246.87C204.488 251.085 205.807 255.163 207.875 258.87C208.062 259.138 208.368 259.297 208.695 259.297C209.021 259.297 209.327 259.138 209.515 258.87C212.884 251.758 214.792 244.042 215.125 236.18C216.269 237.816 217.292 239.534 218.185 241.32C218.401 241.605 218.753 241.753 219.108 241.707C219.463 241.662 219.767 241.43 219.905 241.1C222.475 230.13 220.985 218.08 214.775 208.56C214.667 208.377 214.432 208.317 214.25 208.425C214.067 208.532 214.007 208.767 214.115 208.95C218.525 218.19 220.335 228.12 218.585 238.12C217.501 236.257 216.274 234.482 214.915 232.81C214.646 232.553 214.252 232.478 213.908 232.618C213.565 232.759 213.336 233.089 213.325 233.46C213.38 241.288 211.786 249.039 208.645 256.21C206.542 251.817 205.514 246.988 205.645 242.12C205.675 241.02 204.195 240.96 203.845 241.88C202.028 246.6 200.606 251.464 199.595 256.42C196.055 248.5 195.845 239.97 198.055 231.5C198.12 231.129 197.894 230.77 197.532 230.669C197.169 230.568 196.79 230.759 196.655 231.11C193.085 240.41 194.485 251.1 199.185 259.74C199.374 260.052 199.73 260.222 200.091 260.175ZM224.726 312.52C224.486 314.19 224.106 315 222.305 314.94C218.385 314.82 214.565 311.94 212.015 308.81L211.955 312.66C211.947 312.976 211.754 313.257 211.462 313.378C211.17 313.499 210.834 313.437 210.605 313.22C207.375 310.22 204.785 306.04 204.525 301.52C204.525 300.98 205.265 300.93 205.425 301.4C206.39 304.85 208.096 308.047 210.425 310.77V306.32C210.436 305.956 210.683 305.641 211.035 305.545C211.386 305.448 211.759 305.592 211.955 305.9C213.645 308.6 217.355 312.62 220.865 312.79C222.485 312.87 222.696 312.42 223.016 310.85C223.104 309.924 223.087 308.992 222.966 308.07C222.876 306.07 222.715 304.07 222.546 302.07C222.546 301.49 223.316 301.48 223.486 301.94C224.776 305.307 225.202 308.945 224.726 312.52ZM277.995 222.03C278.262 221.878 278.429 221.597 278.435 221.29H278.395C278.795 211.28 276.725 199.7 266.205 195.73C265.805 195.58 265.525 196.24 265.915 196.42C274.845 200.63 276.915 210.7 276.725 219.7L268.945 214.15C268.155 213.6 267.385 214.65 267.735 215.37C269.205 218.4 272.035 225.21 269.585 228.3C269.175 228.82 269.535 229.74 270.295 229.5C272.465 228.83 272.275 226.28 272.115 224.39C271.899 221.995 271.361 219.64 270.515 217.39L277.135 222.03C277.401 222.181 277.728 222.181 277.995 222.03ZM272.125 160.47C275.005 160.47 275.005 164.95 272.125 164.95C269.245 164.95 269.195 160.47 272.085 160.47H272.125ZM263.285 107.39C261.57 106.675 259.796 106.11 257.985 105.7C257.477 105.582 256.952 105.807 256.688 106.256C256.425 106.706 256.484 107.274 256.835 107.66C258.031 109.066 259.492 110.225 261.135 111.07C262.335 111.67 264.785 112.4 265.615 110.84C266.445 109.28 264.465 107.9 263.285 107.39ZM253.795 126.1C254.274 124.58 255.396 123.348 256.865 122.73C259.293 121.619 262.149 122.064 264.125 123.86C264.453 124.148 264.757 124.462 265.035 124.8C267.975 126.859 268.926 130.783 267.255 133.96C266.826 135.492 265.887 136.832 264.595 137.76C260.135 140.96 253.165 137.22 252.335 132.05C252.055 129.941 252.576 127.804 253.795 126.06V126.1ZM249.236 278.64C248.028 276.542 247.179 274.257 246.725 271.88C246.642 271.525 246.347 271.26 245.985 271.215C245.623 271.171 245.272 271.356 245.105 271.68C243.755 274.826 242.579 278.044 241.585 281.32C239.819 278.672 238.636 275.679 238.115 272.54C237.645 269.67 238.042 267.065 238.453 264.372C238.602 263.395 238.753 262.406 238.865 261.39C238.915 260.96 238.295 260.87 238.095 261.18C233.854 267.74 236.835 277.99 241.155 283.66C241.336 283.943 241.665 284.096 241.998 284.053C242.332 284.011 242.611 283.78 242.715 283.46C243.595 280.5 244.585 277.6 245.715 274.74C247.195 279.19 250.696 286.87 254.346 283.99C256.291 282.464 256.591 278.851 256.792 276.423C256.807 276.241 256.822 276.067 256.836 275.9C257.216 271.907 256.647 267.881 255.176 264.15C254.836 263.31 253.526 263.61 253.776 264.54C255.25 269.454 255.47 274.659 254.416 279.68C254.306 280.16 254.176 280.67 254.026 281.16C252.833 282.58 251.902 282.693 251.236 281.5C250.413 280.666 249.736 279.699 249.236 278.64ZM210.375 86.5497C219.155 87.9897 229.555 90.8397 232.175 100.55C232.248 100.831 232.166 101.13 231.961 101.336C231.755 101.542 231.456 101.623 231.175 101.55C227.855 100.61 224.585 99.5497 221.325 98.4497C223.762 100.608 225.919 103.064 227.745 105.76C229.425 108.37 231.815 112.76 229.805 115.76C229.664 115.985 229.43 116.135 229.167 116.17C228.904 116.205 228.639 116.12 228.445 115.94C227.595 115.22 226.756 114.491 225.916 113.761L225.915 113.76C226.407 116.882 226.504 120.053 226.205 123.2C226.135 123.81 225.305 124.38 224.815 123.77C222.715 121.16 220.265 118.06 219.595 114.71C219.479 114.434 219.608 114.116 219.885 114C220.161 113.884 220.479 114.014 220.595 114.29C221.538 115.54 222.33 116.888 223.125 118.24C223.652 119.137 224.18 120.036 224.755 120.91C224.918 117.841 224.628 114.764 223.895 111.78C223.817 111.419 223.981 111.05 224.3 110.865C224.619 110.681 225.021 110.723 225.295 110.97C226.474 111.969 227.633 112.968 228.792 113.967L228.795 113.97C229.725 110.77 226.095 105.9 224.445 103.85C222.384 101.424 220.119 99.1789 217.675 97.1397C217.451 96.898 217.411 96.5386 217.576 96.2537C217.742 95.9689 218.074 95.8253 218.395 95.8997C221.699 96.9899 225.025 98.0087 228.354 99.0285L228.354 99.0287L228.363 99.0312C228.97 99.2172 229.577 99.4032 230.185 99.5897C227.191 91.4769 217.884 89.2292 210.233 87.3815L210.185 87.3697C209.635 87.2097 209.875 86.4697 210.375 86.5497ZM163.376 98.4597C157.885 99.4197 154.295 103.51 151.185 107.83C151.034 108.087 151.056 108.41 151.238 108.645C151.421 108.88 151.728 108.981 152.015 108.9C153.708 108.28 155.418 107.713 157.145 107.2C153.745 111.05 151.885 116.19 154.885 120.99C155.045 121.251 155.344 121.393 155.648 121.355C155.952 121.316 156.205 121.103 156.295 120.81C157.045 118.398 158.318 116.473 159.662 114.44C159.895 114.088 160.13 113.732 160.365 113.37C160.449 113.21 160.418 113.013 160.29 112.887C160.161 112.76 159.964 112.733 159.805 112.82C157.76 114.239 156.221 116.274 155.415 118.63C153.625 114.01 156.625 109.37 160.235 106.25C160.825 105.74 160.195 104.83 159.515 105C157.585 105.5 155.685 106.06 153.805 106.71C156.355 103.35 159.365 100.29 163.566 99.1297C164.006 99.0097 163.816 98.3797 163.376 98.4597ZM145.305 170.21C146.225 166.99 149.305 165.08 152.135 163.79C160.475 160.02 169.785 158.99 178.805 158.34C185.836 157.833 192.964 157.545 200.071 157.258H200.071H200.071H200.071H200.071L200.072 157.258L200.073 157.258L200.073 157.258L200.073 157.258L200.074 157.258L200.074 157.258C202.083 157.177 204.091 157.096 206.095 157.01C207.824 156.935 209.566 156.834 211.316 156.733L211.316 156.733C217.792 156.357 224.367 155.975 230.745 156.92C236.125 157.73 245.875 160.5 246.085 167.4C246.295 174.3 236.365 178.11 231.035 179.81C224.09 182.023 216.752 182.71 209.519 183.387C208.94 183.441 208.362 183.495 207.785 183.55C203.583 183.967 199.382 184.371 195.182 184.775L195.182 184.775L195.182 184.775L195.181 184.775L195.181 184.775L195.18 184.775C190.213 185.253 185.247 185.731 180.285 186.23C179.435 186.315 178.576 186.408 177.71 186.502C170.498 187.28 162.818 188.11 156.015 185.36C151.555 183.57 147.115 179.93 145.935 175.22C144.998 173.724 144.767 171.891 145.305 170.21ZM141.635 270.25C141.805 269.78 141.115 269.54 140.865 269.92C135.724 277.97 143.365 288.47 148.005 294.72C148.575 295.51 149.845 294.83 149.335 293.94C147.992 291.632 147.262 289.019 147.215 286.35C149.389 291.169 152.599 295.451 156.615 298.89C156.853 299.115 157.201 299.179 157.503 299.054C157.806 298.928 158.006 298.637 158.015 298.31C158.056 296.306 157.966 294.302 157.745 292.31C159.105 294.96 160.575 297.56 162.165 300.08C162.306 300.3 162.456 300.553 162.616 300.821L162.616 300.822C163.74 302.71 165.346 305.41 167.596 303.59C169.881 301.767 170.481 297.065 170.852 294.156L170.886 293.89L170.916 293.66C171.486 289.26 171.376 284.38 169.676 280.26C169.579 279.906 169.214 279.698 168.861 279.795C168.507 279.891 168.299 280.256 168.396 280.61C168.998 283.729 169.332 286.894 169.396 290.07C169.357 291.876 169.166 293.675 168.826 295.45C168.794 295.633 168.76 295.836 168.725 296.053C168.519 297.32 168.237 299.056 167.606 299.91C166.849 300.847 165.539 301.126 164.466 300.58C163.987 300.038 163.593 299.428 163.296 298.77C162.435 297.403 161.609 296.016 160.815 294.61C159.225 291.8 157.795 288.91 156.475 285.96C156.075 285.08 154.715 285.72 154.945 286.61C155.779 289.833 156.238 293.141 156.315 296.47C152.281 292.681 149.233 287.964 147.435 282.73C147.205 282.05 146.055 281.9 145.895 282.73C145.495 284.861 145.495 287.048 145.895 289.18C142.075 283.49 139.155 277.09 141.635 270.25ZM107.345 127.07C106.345 127.74 105.285 126.63 105.485 125.65C105.873 123.659 107.361 122.035 108.666 120.61L108.685 120.59C109.995 119.16 111.555 117.51 113.485 118.09C113.93 118.214 114.232 118.628 114.215 119.09C114.215 120.633 113.004 121.689 111.906 122.647C111.688 122.837 111.474 123.024 111.275 123.21C110.84 123.615 110.406 124.095 109.956 124.593C109.163 125.469 108.321 126.4 107.345 127.07ZM114.275 173.62C114.385 173.497 114.482 173.363 114.565 173.22C115.134 172.182 114.955 170.893 114.125 170.05L114.065 170C113.829 169.773 113.555 169.59 113.255 169.46C112.303 169.054 111.201 169.264 110.465 169.99L110.405 170.04C109.667 170.806 109.455 171.938 109.865 172.92C109.877 172.952 109.898 172.984 109.92 173.016C109.952 173.064 109.985 173.112 109.985 173.16C110.029 173.293 110.083 173.423 110.145 173.55C110.451 174.034 110.924 174.39 111.475 174.55C111.716 174.632 111.97 174.669 112.225 174.66C112.453 174.684 112.684 174.663 112.905 174.6C113.338 174.48 113.73 174.241 114.035 173.91L113.81 174.083C113.978 173.942 114.133 173.787 114.275 173.62ZM129.945 236.49C130.161 236.688 130.349 236.881 130.514 237.051C131.179 237.734 131.468 238.03 131.725 236.74C131.629 236.244 131.562 235.743 131.525 235.24C131.525 234.62 132.365 234.58 132.525 235.1C132.602 235.314 132.703 235.549 132.81 235.795C133.325 236.983 133.958 238.443 132.525 239.23C131 240.067 129.296 238.201 128.256 237.062C128.116 236.909 127.988 236.768 127.875 236.65C124.786 233.417 122.811 229.283 122.235 224.85C121.955 225.828 121.787 226.834 121.735 227.85C121.713 228.203 121.444 228.491 121.093 228.538C120.742 228.584 120.407 228.375 120.295 228.04C118.585 221.04 119.215 213.28 123.145 207.12C123.273 206.927 123.53 206.867 123.731 206.983C123.932 207.1 124.008 207.352 123.905 207.56C121.546 212.633 120.553 218.235 121.025 223.81C121.32 222.936 121.698 222.092 122.155 221.29C122.328 221.006 122.667 220.87 122.988 220.956C123.309 221.041 123.535 221.328 123.545 221.66C123.392 227.303 125.72 232.73 129.915 236.51L129.945 236.49ZM124.554 153.48C127.463 150.9 128.463 146.32 127.463 142.64C125.933 137.1 119.724 135.32 116.004 137.92C110.655 140.49 110.285 148.6 115.134 153.26C117.721 155.814 121.85 155.91 124.554 153.48Z" fill="#00AEEF"/>
<path d="M290.027 117.78C291.027 118.97 292.027 120.17 293.027 121.37C292.171 120.06 291.164 118.855 290.027 117.78L290.027 117.78Z" fill="white"/>
<path d="M162.725 501.91C163.435 504.21 163.625 506.58 166.065 507.5C170.005 508.99 175.065 508.05 178.995 506.61C180.815 498.32 181.765 488.9 179.995 480.61C179.305 477.37 178.075 473.77 175.085 471.97C171.745 469.97 166.435 470.67 162.775 471.43C160.945 471.81 158.965 472.43 157.775 473.98C156.385 475.9 156.685 478.76 156.935 480.98C157.465 485.74 159.065 490.35 160.485 494.9C161.265 497.226 162.012 499.563 162.725 501.91Z" fill="#FFF200"/>
<path d="M188.977 559.6C175.317 568.791 160.278 575.742 144.427 580.19C138.027 581.98 130.857 583.33 124.227 581.91L124.677 582.21C129.617 585.4 135.097 584.89 140.617 583.77C159.227 580 177.257 574.93 192.927 563.77C199.617 559.03 206.497 553.32 210.177 545.77C211.519 543.005 212.249 539.983 212.317 536.91C211.227 539.46 209.742 541.822 207.917 543.91C202.637 550.13 195.637 555.11 188.977 559.6Z" fill="#27AAE1"/>
<path d="M167.368 531.99C163.676 532.082 160.07 530.875 157.178 528.58C156.628 529.65 156.027 530.69 155.438 531.73C157.281 532.328 159.193 532.691 161.128 532.81C163.231 532.761 165.323 532.486 167.368 531.99Z" fill="white"/>
<path d="M175.776 518.21C176.612 515.924 177.296 513.585 177.826 511.21C174.331 512.5 170.557 512.845 166.885 512.21C165.773 512.041 164.681 511.759 163.625 511.37C163.055 513.55 162.395 515.71 161.625 517.85C163.495 519.53 166.625 520.04 168.966 519.97C171.306 519.9 173.286 518.76 175.586 518.18L175.776 518.21Z" fill="#27AAE1"/>
<path d="M161.216 519.19C160.986 519.81 160.756 520.44 160.516 521.06C162.719 522.374 165.177 523.205 167.726 523.5C169.804 523.632 171.889 523.399 173.886 522.81C174.266 521.97 174.636 521.1 174.986 520.24C171.396 522.7 164.206 522.49 161.216 519.19Z" fill="white"/>
<path d="M154.238 538.63C155.604 538.81 156.987 538.83 158.358 538.69C161.851 538.465 165.088 536.781 167.278 534.05C163.508 535.41 158.448 534.7 154.668 533.05C154.168 533.94 153.668 534.84 153.198 535.75C152.948 536.25 152.118 537.45 152.428 538.03C152.738 538.61 153.798 538.55 154.238 538.63Z" fill="#27AAE1"/>
<path d="M170.514 529.39C171.053 528.47 171.513 527.52 172.053 526.58C172.273 526.17 172.483 525.75 172.693 525.33C168.233 526.053 163.671 524.923 160.064 522.2C159.404 523.84 158.704 525.45 157.954 527.05C157.884 527.19 157.804 527.33 157.734 527.48C159.41 528.584 161.274 529.37 163.234 529.8C165.824 530.33 168.074 529.85 170.514 529.39Z" fill="#27AAE1"/>
<path d="M57.5458 208.44C51.9228 200.584 47.7691 191.776 45.2858 182.44C39.5258 161.36 41.9958 139.32 47.6458 118.51C47.9592 117.498 49.0073 116.906 50.0358 117.16C58.8458 119.69 68.2858 115.4 71.4058 106.58C72.4058 103.83 73.8658 96.2197 69.9058 95.0997C65.6658 93.8997 60.6758 98.6697 58.3158 101.58C57.1858 102.97 54.6958 101.47 55.3158 99.8197C57.8758 92.8197 60.4558 85.4397 61.3158 78.0297C61.9258 72.6997 61.2258 63.2797 53.7258 63.6997C46.4958 64.0997 43.3558 72.5397 41.4058 78.2897C39.0022 85.1753 37.7389 92.4071 37.6658 99.6997C37.6658 102.2 34.1758 102.04 33.8958 99.6997C33.2258 94.1797 28.3658 67.7797 18.4658 73.9897C12.9658 77.4297 14.7658 84.8897 16.5558 89.8997C18.4437 95.1259 21.1141 100.035 24.4758 104.46C25.7858 106.19 23.3458 107.81 21.8158 107.11C17.5358 105.17 12.1658 102.92 7.38578 102.8C2.32578 102.68 3.85578 110.59 5.18578 113.42C9.01578 121.51 18.2758 123.9 26.5058 123.99C27.1157 124.002 27.6868 124.291 28.0568 124.776C28.4268 125.261 28.5553 125.888 28.4058 126.48C25.09 136.123 23.1771 146.192 22.7258 156.38C21.9429 174.019 27.3359 191.379 37.9758 205.47C43.3934 212.373 49.3847 218.806 55.8858 224.7C59.0858 227.7 62.2758 230.94 66.0058 233.32C69.7358 235.7 74.0058 236.75 78.3058 237.56C78.0458 233.36 77.8858 229.14 77.8758 224.93C69.2958 222.3 62.7258 215.54 57.5458 208.44Z" fill="#009344"/>
<path d="M245.645 540.1C247.872 540.96 250.266 541.302 252.645 541.1C262.055 540.27 268.745 532.1 274.975 525.92C282.045 518.92 290.115 512.09 295.845 503.92C298.745 499.895 300.877 495.369 302.135 490.57C302.357 489.668 302.498 488.747 302.555 487.82C293.175 499.25 282.695 509.98 272.265 520.43C265.005 527.64 256.365 538.01 245.645 540.1Z" fill="#FFF200"/>
<path d="M281.725 525.37C277.555 529.62 273.485 534.06 268.935 537.91C263.035 542.91 254.835 546.91 247.145 545.04C247.605 545.35 248.085 545.65 248.595 545.93C253.225 548.45 258.595 549.65 263.315 546.93C271.765 542 278.865 534.93 285.765 528.12C292.395 521.53 299.495 514.64 303.405 506C305.183 502.115 306.097 497.892 306.085 493.62C303.975 500.62 299.165 507.29 294.755 512.13C290.595 516.7 286.065 520.95 281.725 525.37Z" fill="#27AAE1"/>
<path d="M260.294 499.1C262.624 498.9 264.884 497.83 267.144 497.38C267.144 497 267.094 496.61 267.064 496.23C265.312 496.849 263.461 497.137 261.604 497.08C258.434 497.2 255.244 497.28 252.294 496.03C252.084 496.84 251.884 497.65 251.664 498.46C254.498 499.067 257.402 499.282 260.294 499.1Z" fill="white"/>
<path d="M261.213 510.7C262.223 510.359 263.256 510.088 264.303 509.89C264.413 509.72 264.513 509.53 264.623 509.35C262.897 509.653 261.138 509.721 259.393 509.55C256.124 509.25 252.234 508.55 249.264 506.81C248.954 507.81 248.654 508.81 248.324 509.81C250.324 510.26 252.324 511.2 254.394 511.42C256.692 511.605 259.005 511.361 261.213 510.7Z" fill="white"/>
<path d="M262.105 512.57C259.894 513.186 257.6 513.453 255.306 513.36C252.692 513.248 250.121 512.661 247.716 511.63C247.006 513.74 246.267 515.84 245.477 517.92C251.548 518.798 257.685 516.824 262.105 512.57Z" fill="#27AAE1"/>
<path d="M362.525 126.44C370.406 106.038 374.284 84.3085 373.945 62.4398C373.959 61.7201 374.302 61.0463 374.874 60.61C375.447 60.1738 376.187 60.0227 376.885 60.1998C381.77 60.9875 386.78 60.2907 391.265 58.1998C395.175 56.3698 399.825 53.0698 401.375 48.8598C402.545 45.6998 401.175 43.2998 397.825 42.8598C395.499 42.6027 393.151 42.6027 390.825 42.8598C385.154 43.4579 379.722 45.4655 375.025 48.6998C372.895 50.1298 370.625 46.9598 372.345 45.2298C375.95 41.6994 378.567 37.2862 379.935 32.4298C380.592 30.0109 380.928 27.5162 380.935 25.0098C380.955 23.8104 380.895 22.6111 380.755 21.4198C380.465 19.0998 379.185 19.4198 377.515 20.2598C369.045 24.6998 365.275 34.3198 361.885 42.6998C361.584 43.7878 360.458 44.4258 359.37 44.1248C358.282 43.8238 357.644 42.6978 357.945 41.6098C359.45 33.7827 360.12 25.8182 359.945 17.8498C359.845 13.2098 360.215 -0.690233 351.795 4.93977C346.065 8.77977 345.585 17.0198 345.185 23.2298C344.775 29.6198 345.135 35.8498 349.005 41.2298C350.395 43.1398 347.405 45.2298 345.835 43.6798C341.455 39.2998 336.145 33.8598 329.385 34.4598C326.615 34.7098 323.805 35.9898 322.535 38.5898C320.995 41.7498 322.415 45.4798 324.085 48.2698C327.129 53.2109 331.873 56.8702 337.425 58.5598C339.565 59.2198 341.965 59.6498 343.215 61.7398C344.465 63.8298 344.515 67.0498 344.925 69.4298C347.115 82.0198 348.165 94.5098 346.335 107.22C343.795 124.89 335.165 147.86 316.875 154.51C319.975 159.43 322.945 164.43 325.785 169.51C343.295 160.7 355.435 144.38 362.525 126.44Z" fill="#009344"/>
<path d="M192.556 545.12C184.798 551.331 176.486 556.817 167.726 561.51C158.805 566.285 149.249 569.763 139.346 571.84C134.796 572.762 130.176 573.297 125.536 573.44C122.74 573.63 119.931 573.465 117.176 572.95C120.176 577.24 127.176 578.12 132.176 577.86C139.956 577.44 147.676 574.57 154.906 571.86C168.585 566.682 181.445 559.555 193.086 550.7C198.496 546.56 204.966 541.84 207.926 535.51C208.953 533.265 209.495 530.828 209.516 528.36C205.786 535.24 198.436 540.5 192.556 545.12Z" fill="#FFF200"/>
<path d="M184.588 479.79C185.908 486.92 184.798 495.55 183.148 502.28C183.611 502.178 184.076 502.441 184.228 502.89C185.068 506.24 184.538 510.14 184.118 513.54C183.7 516.927 182.994 520.272 182.008 523.54C180.048 530.138 176.881 536.316 172.668 541.76C168.228 547.38 162.668 548.27 155.808 547.62C154.648 547.51 147.047 546.62 144.917 544.72C140.319 548.202 135.274 551.05 129.917 553.19C126.507 554.57 122.637 555.54 119.747 557.94C116.857 560.34 115.317 565.23 115.747 569.09C115.822 569.744 115.969 570.388 116.187 571.01C124.377 572.83 133.417 571.32 141.417 569.43C150.57 567.209 159.39 563.789 167.648 559.26C176.04 554.638 184.008 549.284 191.458 543.26C198.388 537.75 204.558 532.32 209.068 524.63C209.117 524.554 209.174 524.483 209.238 524.42C208.505 520.266 207.3 516.21 205.648 512.33C202.808 505.1 199.868 497.94 197.648 490.47C195.888 484.55 194.998 477.92 192.408 472.22C190.452 475.339 187.769 477.936 184.588 479.79Z" fill="#009344"/>
<path d="M160.054 325.5C161.04 327.591 162.155 329.618 163.394 331.57C163.75 332.218 163.689 333.015 163.237 333.6C162.786 334.186 162.032 334.448 161.314 334.27C154.394 331.87 146.684 329.19 139.914 325.27C137.224 325.191 134.538 325.552 131.964 326.34C129.246 327.33 126.744 328.834 124.594 330.77C120.661 334.36 117.775 338.949 116.244 344.05C112.794 354.88 114.924 366.27 118.614 376.75C122.421 387.791 127.396 398.395 133.454 408.38C139.314 417.85 146.904 426.06 153.374 435.09C160.174 444.59 164.574 455.09 168.714 465.97L168.774 466.17C169.864 466.17 170.904 466.26 171.874 466.36C177.874 467.02 181.424 470.48 183.314 475.26C186.063 473.501 188.28 471.026 189.724 468.1C189.2 467.075 188.801 465.99 188.534 464.87C188.374 464.27 188.244 463.67 188.144 463.08C188.015 462.885 187.914 462.673 187.844 462.45C185.974 455.8 184.644 449.18 182.014 442.75C179.29 436.267 176.001 430.036 172.184 424.13C165.534 413.63 157.444 404.33 149.864 394.52C142.284 384.71 135.544 373.21 136.774 360.42C137.274 355.27 139.014 349.72 143.034 346.21C147.404 342.38 153.234 342.8 158.654 342.91C165.364 343.05 172.224 343.62 178.914 343.11C184.524 342.69 189.744 340.69 192.914 336.11C188.864 335.4 184.804 334.74 180.794 333.86C173.455 332.276 166.441 329.449 160.054 325.5Z" fill="#009344"/>
<path d="M270.218 473.53C273.218 467.33 273.838 456.23 267.678 451.53C263.568 448.4 258.458 451.87 255.158 454.53C253.158 456.14 252.708 457.11 252.878 459.71C253.028 461.89 253.168 464.06 253.258 466.23C253.528 472.39 253.608 479.08 252.258 485.29C259.917 484.863 266.765 480.379 270.218 473.53Z" fill="#FFF200"/>
<path d="M253.795 489.88C253.395 491.633 252.975 493.38 252.535 495.12C255.193 495.39 257.866 495.467 260.535 495.35C262.666 495.204 264.777 494.842 266.835 494.27C266.441 491.449 265.897 488.652 265.205 485.89C261.758 488.076 257.854 489.441 253.795 489.88Z" fill="#27AAE1"/>
<path d="M265.834 506.75C266.686 504.419 267.136 501.961 267.164 499.48C262.075 501.372 256.48 501.397 251.374 499.55C250.824 501.55 250.264 503.55 249.664 505.55C252.564 506.407 255.517 507.075 258.504 507.55C260.976 507.835 263.481 507.562 265.834 506.75Z" fill="#27AAE1"/>
<path d="M298.837 476.4C294.267 469.52 289.497 462.64 284.417 456.08L282.547 453.7L281.547 452.47L280.147 453.24C277.987 454.44 276.047 451.13 278.217 449.93L281.047 448.36C281.246 448.25 281.462 448.175 281.687 448.14C279.991 439.137 275.568 430.874 269.017 424.47C254.787 410.84 232.207 402.53 226.587 381.87C224.419 373.221 224.815 364.128 227.727 355.7C229.205 351.321 231.22 347.142 233.727 343.26C235.107 341.08 236.607 338.64 238.297 336.39C230.722 338.57 222.88 339.684 214.997 339.7C214.161 339.737 213.401 339.22 213.127 338.43C212.127 339.81 210.877 341.05 209.837 342.43C208.47 344.261 207.249 346.197 206.187 348.22C204.039 352.415 202.571 356.924 201.837 361.58C198.837 379.58 206.897 396.92 218.707 410.13C225.077 417.26 232.977 422.61 239.557 429.49C245.147 435.33 250.557 442.49 253.607 450.11C256.437 447.92 259.517 446 263.177 445.65C271.377 444.87 275.837 452.65 276.987 459.8C278.399 468.387 275.392 477.108 268.987 483C271.537 492.58 273.797 503.87 267.797 512.67C262.737 520.11 252.427 523.95 243.607 522.23C241.837 526.01 239.607 530.48 240.337 534.34C240.382 534.404 240.416 534.475 240.437 534.55C240.527 534.91 240.627 535.26 240.727 535.61C241.323 537.04 242.337 538.257 243.637 539.1C255.717 536.65 265.127 524.96 273.267 516.67C283.377 506.39 292.757 495.52 302.447 484.87C301.892 481.812 300.659 478.917 298.837 476.4Z" fill="#009344"/>
<path d="M164.496 545.48C169.836 543.97 173.026 538.3 175.496 533.72C178.05 528.977 179.932 523.902 181.086 518.64C181.706 515.818 182.107 512.953 182.286 510.07C182.386 508.47 182.286 506.86 182.346 505.25C182.156 505.92 181.966 506.56 181.766 507.16C182.009 507.594 182.097 508.099 182.016 508.59C180.286 516.97 177.896 524.77 173.436 532.16C171.842 535.05 169.726 537.62 167.196 539.74C164.136 542.09 160.616 542.74 156.846 542.84C154.346 542.93 151.176 542.99 149.316 541.03C148.316 541.97 147.246 542.86 146.176 543.72C148.176 545.43 154.236 545.65 155.806 545.78C158.616 546.02 161.726 546.25 164.496 545.48Z" fill="#27AAE1"/>
<path fill-rule="evenodd" clip-rule="evenodd" d="M115.135 153.26C110.285 148.6 110.655 140.49 116.005 137.92C119.725 135.32 125.935 137.1 127.465 142.64C128.485 146.32 127.485 150.9 124.555 153.48C121.851 155.911 117.722 155.814 115.135 153.26ZM117.275 142.27C116.915 143.03 116.755 145.41 118.005 145.68L118.015 145.7C120.185 146.15 120.315 142.47 120.245 141.18C120.227 140.927 120.268 140.674 120.365 140.44C119.978 140.416 119.591 140.45 119.215 140.54C118.316 140.748 117.584 141.4 117.275 142.27Z" fill="#231F20"/>
<path d="M114.098 169.98C113.863 169.753 113.589 169.57 113.288 169.44C112.337 169.034 111.234 169.244 110.498 169.97L110.438 170.02C109.7 170.786 109.488 171.918 109.898 172.9C109.898 172.98 109.978 173.06 110.018 173.14C110.062 173.273 110.116 173.403 110.178 173.53C110.484 174.014 110.957 174.37 111.508 174.53C111.749 174.612 112.003 174.649 112.258 174.64C112.487 174.664 112.718 174.643 112.938 174.58C113.372 174.46 113.764 174.221 114.068 173.89L113.588 174.26C113.855 174.071 114.097 173.849 114.309 173.6C114.419 173.477 114.516 173.343 114.599 173.2C115.186 172.164 115.019 170.864 114.188 170.01L114.098 169.98Z" fill="#231F20"/>
<path d="M114.216 119.05C114.233 118.588 113.931 118.174 113.486 118.05C111.556 117.47 109.876 119.24 108.685 120.55C107.495 121.86 105.875 123.64 105.485 125.61C105.285 126.61 106.365 127.7 107.345 127.03C108.875 125.98 109.946 124.42 111.276 123.13C112.606 121.84 114.246 120.9 114.216 119.05Z" fill="#231F20"/>
<path fill-rule="evenodd" clip-rule="evenodd" d="M393.806 38.2097C397.066 38.0997 401.226 38.0097 403.806 40.3597C405.803 42.2924 406.774 45.0525 406.426 47.8097C405.776 54.0697 399.666 59.2097 394.426 61.9097C389.546 64.4256 384.059 65.5271 378.586 65.0897C378.336 87.0297 374.636 109.32 366.246 129.64C358.676 147.99 346.466 165.05 327.986 173.48C332.466 181.813 336.573 190.36 340.306 199.12C341.236 201.29 339.226 204.02 336.836 202.59L326.476 196.4C328.376 209.15 329.946 221.94 331.096 234.78C331.776 242.28 332.456 249.83 332.656 257.37C332.776 261.65 331.856 266.6 327.196 267.97C325.945 268.298 324.659 267.571 324.296 266.33C323.141 261.148 321.493 256.088 319.376 251.22C315.958 267.13 310.44 282.515 302.966 296.97C302.036 298.76 298.936 298.39 298.536 296.39C298.326 295.29 298.136 294.18 297.966 293.07C292.348 308.836 283.945 323.464 273.156 336.26C271.856 337.79 268.776 336.59 269.016 334.54C269.376 331.51 269.746 328.44 270.126 325.44C261.273 333.717 251.736 341.231 241.616 347.9C239.356 349.38 237.326 346.2 238.906 344.38C240.792 342.224 242.121 339.638 242.776 336.85C242.403 337.349 242.02 337.844 241.637 338.337L241.637 338.338L241.637 338.338L241.637 338.338C241.116 339.01 240.596 339.68 240.106 340.36C238.374 342.751 236.778 345.238 235.326 347.81C232.844 352.249 231.098 357.061 230.156 362.06C228.496 370.94 229.466 380.56 234.276 388.35C238.698 395.501 245.829 400.591 252.688 405.487C254.173 406.547 255.646 407.599 257.076 408.66C258.075 409.401 259.079 410.136 260.084 410.871C267.157 416.046 274.23 421.222 279.256 428.56C284.341 435.928 287.182 444.611 287.436 453.56C290.516 457.32 293.556 461.11 296.436 465.06C297.059 465.915 297.714 466.785 298.38 467.67L298.381 467.67C301.418 471.705 304.698 476.061 306.256 480.76C310.986 486.37 310.266 496.75 308.366 503.05C305.866 511.37 300.336 518.39 294.436 524.6C288.192 531.328 281.428 537.554 274.206 543.22C270.536 546.02 266.616 548.97 262.426 550.97C258.646 552.75 254.906 552.35 251.036 551.02C245.646 549.17 239.886 544.79 238.556 539.08C235.396 533.79 237.286 526.65 241.146 521.39C240.325 520.857 239.948 519.851 240.216 518.91C243.44 510.107 246.187 501.138 248.446 492.04C248.036 491.839 247.814 491.387 247.906 490.94C247.976 490.404 248.047 489.866 248.119 489.327L248.12 489.314C248.753 484.54 249.398 479.671 249.246 474.94C249.092 470.18 248.775 465.444 248.458 460.696L248.458 460.695L248.458 460.694L248.457 460.694L248.457 460.693L248.457 460.692L248.457 460.691L248.457 460.69L248.457 460.689L248.457 460.689L248.457 460.688L248.457 460.687L248.457 460.686L248.457 460.685L248.457 460.685L248.457 460.684L248.457 460.683L248.457 460.682L248.457 460.681L248.457 460.68L248.457 460.68L248.457 460.679L248.457 460.678L248.457 460.677L248.457 460.676L248.454 460.638C248.421 460.149 248.388 459.659 248.356 459.17C248.099 457.136 248.656 455.084 249.906 453.46C249.343 452.442 248.793 451.423 248.245 450.408L248.239 450.396L248.238 450.394L248.238 450.394C246.151 446.527 244.09 442.708 241.416 439.14C238.032 434.673 234.15 430.607 229.846 427.02C215.146 414.63 201.896 400.08 197.846 380.63C196.045 372.089 196.347 363.238 198.726 354.84C199.907 350.781 201.636 346.901 203.866 343.31C204.738 341.867 205.697 340.478 206.736 339.15C203.447 338.184 200.109 337.396 196.736 336.79C193.083 348.336 177.716 347.88 167.261 347.569H167.26H167.259C166.35 347.542 165.479 347.517 164.656 347.5C163.674 347.478 162.691 347.452 161.707 347.426L161.704 347.426C159.131 347.358 156.553 347.29 153.986 347.29C151.056 347.31 148.126 347.64 145.846 349.64C141.326 353.64 140.616 361 141.266 366.64C142.696 379.048 150.9 388.864 158.621 398.1L158.629 398.11L158.645 398.129C159.067 398.634 159.488 399.138 159.906 399.64C167.556 408.83 174.796 418.44 180.636 428.9C186.076 438.68 191.616 450.42 192.076 461.79C192.208 462.444 192.385 463.089 192.606 463.72C192.838 464.318 193.105 464.903 193.406 465.47C193.811 465.656 194.157 465.95 194.406 466.32C197.006 470.03 198.316 474.3 199.466 478.63C200.816 483.62 202.216 488.56 203.816 493.47C204.96 496.97 206.37 500.434 207.783 503.907C210.162 509.752 212.552 515.624 213.706 521.74C214.146 522.84 214.502 523.991 214.866 525.169L214.867 525.17L214.966 525.49C215.976 528.403 216.647 531.423 216.966 534.49C217.337 539.832 216.104 545.163 213.426 549.8C208.636 558.27 200.426 564.68 192.426 569.96C183.568 575.82 173.847 580.258 163.616 583.11C157.826 584.71 151.936 585.89 146.046 587.04C145.661 587.115 145.274 587.19 144.887 587.266C140.203 588.187 135.401 589.13 130.626 588.41C126.056 587.73 122.266 585.25 118.986 582.09C116.872 580.219 115.082 578.013 113.686 575.56C111.475 572.301 110.675 568.287 111.466 564.43C112.846 556.47 118.156 552.74 125.286 550.02C133.364 546.974 140.849 542.545 147.406 536.93C147.668 536.694 147.984 536.526 148.326 536.44C148.929 534.824 149.735 533.292 150.726 531.88C155.09 524.572 158.292 516.631 160.216 508.34C159.53 506.811 158.981 505.225 158.576 503.6C158.129 502.185 157.672 500.776 157.215 499.367C156.056 495.796 154.898 492.228 153.916 488.6C152.756 484.3 151.566 479.24 152.566 474.79C153.736 469.5 158.646 467.21 163.816 466.45C161.395 459.62 158.488 452.973 155.116 446.56C151.594 440.537 147.605 434.799 143.186 429.4C135.606 419.71 128.616 410.03 123.376 398.85C118.056 387.5 112.746 375.53 110.936 363.05C109.456 352.8 110.936 341.91 116.936 333.26C120.626 327.95 127.446 322.45 134.446 321.61C132.477 320.131 130.665 318.456 129.036 316.61C129.218 318.042 129.302 319.486 129.286 320.93C129.274 321.482 128.893 321.958 128.356 322.089C127.819 322.221 127.261 321.975 126.996 321.49C126.528 321.48 126.079 321.307 125.726 321C112.556 309.98 104.146 293.45 100.956 276.45C99.4738 284.772 98.7044 293.206 98.6559 301.66C98.6359 303.67 95.7559 304.6 94.7559 302.72C84.8959 283.92 80.2659 262.92 78.6359 241.92C78.4303 241.95 78.2215 241.95 78.0159 241.92C72.4859 240.98 67.2159 239.57 62.5959 236.28C58.6197 233.272 54.8696 229.976 51.3759 226.42C38.0259 213.64 25.9159 199.21 21.1459 180.97C16.5859 163.49 18.3359 144.81 23.8559 127.75C13.4759 126.84 2.34587 121.98 0.255872 110.66C-0.534128 106.41 0.325871 100.03 5.38587 98.9397C7.92416 98.3939 10.9425 99.2054 13.4921 99.891L13.4944 99.8916C13.7464 99.9593 13.9939 100.026 14.2359 100.09C15.4159 100.4 16.5759 100.76 17.7259 101.16C14.8345 96.5095 12.7391 91.4095 11.5259 86.0697C10.2559 79.9397 11.5359 72.5697 18.0459 69.9397C24.1159 67.4397 28.9359 72.4397 31.4059 77.4397C32.931 80.5737 34.1855 83.8322 35.1559 87.1797C36.1302 82.1869 37.5974 77.303 39.5359 72.5997C42.1259 66.2497 46.8759 59.5997 54.5359 59.7797C61.6759 59.9497 65.0659 66.9397 65.4059 73.2097C65.7759 80.0197 63.8259 87.0597 61.4659 93.6997C63.976 91.7907 67.1025 90.8756 70.2459 91.1297C76.4059 91.9197 77.1259 98.9197 76.4059 103.92C75.5193 109.709 72.2774 114.873 67.4493 118.188C62.6211 121.503 56.6368 122.672 50.9159 121.42C45.6259 140.41 43.7159 160.78 48.6259 180.03C52.7959 196.41 62.3359 213.87 77.9459 221.78C78.0059 217.18 78.2459 212.58 78.7259 208.01C79.5462 200.821 81.0976 193.734 83.3559 186.86C80.3312 191.605 77.7663 196.627 75.6959 201.86C74.9259 203.81 71.8459 203.69 71.8459 201.33C71.899 192.336 72.7726 183.365 74.4559 174.53C79.9459 145.8 94.2659 117.62 115.396 97.1197C111.671 98.2393 108.035 99.6331 104.516 101.29C103.913 101.615 103.168 101.506 102.684 101.022C102.2 100.537 102.091 99.7925 102.416 99.1897C109.116 86.9597 123.396 80.4697 136.006 76.1297C146.847 72.4496 158.19 70.4629 169.636 70.2397C170.247 70.2283 170.888 70.2048 171.548 70.1806L171.549 70.1806C174.344 70.0782 177.473 69.9636 180.046 70.6997C201.236 54.9097 231.506 54.2097 254.596 66.1697C256.296 67.0397 256.046 70.1097 254.046 70.4297L250.596 70.9797C271.916 80.9197 289.136 98.3697 297.856 120.5C298.676 122.6 296.086 123.97 294.446 123.12C301.884 132.316 308.821 141.906 315.226 151.85C325.226 146.45 332.186 137.43 336.586 126.85C341.496 114.642 343.548 101.473 342.586 88.3497C342.136 81.3497 341.026 74.3497 339.886 67.3497C339.832 67.0176 339.795 66.7009 339.76 66.4003C339.599 65.0268 339.477 63.9897 337.976 63.3497C337.382 63.0981 336.76 62.8997 336.137 62.7009C335.523 62.5046 334.907 62.3081 334.316 62.0597C331.965 61.0703 329.748 59.7903 327.716 58.2497C320.726 52.9697 312.936 40.2497 322.316 33.2497C328.916 28.3397 336.006 30.8897 342.006 35.1097C340.926 30.0497 341.296 24.5597 341.846 19.5597C342.646 12.4097 344.576 4.03974 351.916 0.909738C364.546 -4.47026 364.996 15.1597 363.696 29.6297C364.688 27.8988 365.783 26.2291 366.976 24.6297C369.826 20.8497 375.446 14.8397 380.746 15.3697C386.746 15.9697 385.436 26.9697 384.746 30.9697C384.15 34.3766 383.002 37.6632 381.346 40.6997C385.341 39.2143 389.547 38.3738 393.806 38.2097ZM57.1729 225.962L57.173 225.962L57.1731 225.962C59.9505 228.608 62.7757 231.299 66.0059 233.36V233.33C69.7259 235.7 73.9959 236.76 78.2559 237.6C77.9959 233.4 77.8259 229.18 77.8259 224.97C69.2459 222.33 62.6859 215.57 57.4959 208.47C51.8729 200.614 47.7192 191.806 45.2359 182.47C39.4759 161.39 41.9459 139.35 47.5959 118.54C47.9093 117.528 48.9574 116.936 49.9859 117.19C58.7959 119.72 68.2359 115.43 71.3559 106.61C72.3259 103.86 73.8559 96.2497 69.8559 95.1297C65.6159 93.9297 60.6259 98.6997 58.2659 101.61C57.1559 103 54.6659 101.5 55.2659 99.8497C57.8259 92.8797 60.4059 85.4697 61.2659 78.0597C61.8959 72.6997 61.1959 63.2797 53.6759 63.6997C46.4459 64.0997 43.3559 72.5397 41.3559 78.2897C38.9612 85.1701 37.7047 92.3949 37.6359 99.6797C37.6259 102.18 34.1459 102.02 33.8659 99.6797C33.1959 94.1597 28.3359 67.7597 18.4359 73.9697C12.9359 77.4097 14.7359 84.8797 16.5259 89.8797C18.4138 95.1059 21.0842 100.015 24.4459 104.44C25.7859 106.17 23.3159 107.79 21.7859 107.09C17.5059 105.15 12.1359 102.9 7.35587 102.78C2.29587 102.66 3.82587 110.57 5.15587 113.4C8.98587 121.49 18.2459 123.88 26.4759 123.97C27.0858 123.982 27.6569 124.271 28.0269 124.756C28.3969 125.241 28.5254 125.868 28.3759 126.46C25.0684 136.111 23.1656 146.187 22.7259 156.38C21.9445 174.033 27.3486 191.405 38.0059 205.5C43.4135 212.405 49.3947 218.841 55.8859 224.74C56.3146 225.144 56.7432 225.553 57.1729 225.962ZM293.006 121.36L292.976 121.323C292.127 120.028 291.13 118.835 290.006 117.77C290.996 118.948 291.986 120.136 292.976 121.323L293.006 121.37V121.36ZM157.846 473.97C156.456 475.88 156.756 478.74 157.006 480.97V480.98C157.488 485.276 158.857 489.515 160.2 493.673C160.285 493.934 160.369 494.195 160.453 494.456L160.596 494.9C160.821 495.616 161.05 496.338 161.278 497.062C161.791 498.682 162.305 500.31 162.796 501.9C162.916 502.29 163.022 502.681 163.126 503.068C163.635 504.962 164.109 506.726 166.136 507.49C170.066 508.98 175.146 508.04 179.066 506.6C180.886 498.32 181.836 488.9 180.066 480.6C179.376 477.36 178.156 473.76 175.156 471.96C171.846 469.93 166.506 470.66 162.846 471.42C160.976 471.8 158.996 472.4 157.846 473.97ZM169.006 519.97C166.676 520.04 163.536 519.53 161.666 517.85C162.396 515.71 163.056 513.55 163.666 511.37C164.721 511.759 165.814 512.041 166.926 512.21C170.597 512.845 174.371 512.5 177.866 511.21C177.336 513.585 176.651 515.924 175.816 518.21H175.666C174.823 518.422 174.042 518.706 173.272 518.985C171.904 519.482 170.574 519.965 169.006 520.01V519.97ZM174.983 520.255L175.006 520.2V520.24L174.983 520.255ZM161.216 519.15C164.2 522.483 171.366 522.699 174.983 520.255C174.64 521.097 174.278 521.948 173.906 522.77C171.909 523.359 169.824 523.592 167.746 523.46C165.19 523.168 162.726 522.336 160.516 521.02C160.705 520.532 160.887 520.038 161.069 519.548L161.069 519.547L161.069 519.546C161.118 519.414 161.167 519.281 161.216 519.15ZM158.006 527.01C158.756 525.41 159.456 523.8 160.116 522.16C163.711 524.891 168.266 526.036 172.726 525.33C172.516 525.75 172.306 526.17 172.086 526.58C171.596 527.52 171.086 528.47 170.546 529.39C170.425 529.412 170.305 529.435 170.185 529.458C167.882 529.895 165.728 530.303 163.266 529.8C161.306 529.37 159.441 528.584 157.766 527.48C157.799 527.357 157.858 527.241 157.917 527.126L157.92 527.12C157.932 527.096 157.944 527.073 157.956 527.05L158.006 527.01ZM167.416 531.95C163.725 532.042 160.118 530.835 157.226 528.54L157.176 528.58C156.8 529.345 156.401 530.054 156.014 530.742L156.014 530.742L156.013 530.743C155.834 531.062 155.657 531.376 155.486 531.69C157.329 532.288 159.241 532.651 161.176 532.77C163.279 532.721 165.371 532.446 167.416 531.95ZM153.226 535.73C153.483 535.233 153.757 534.738 154.03 534.247C154.257 533.839 154.483 533.433 154.696 533.03C158.476 534.66 163.536 535.37 167.306 534.03C165.116 536.761 161.879 538.445 158.386 538.67C157.015 538.81 155.632 538.79 154.266 538.61C154.225 538.602 154.177 538.595 154.125 538.587C154.076 538.58 154.023 538.573 153.966 538.566L153.965 538.565L153.963 538.565L153.962 538.565C153.44 538.495 152.652 538.389 152.456 538.03C152.241 537.635 152.805 536.533 153.105 535.949C153.139 535.882 153.17 535.821 153.196 535.77L153.226 535.73ZM156.876 542.8C154.346 542.89 151.206 542.99 149.346 540.99L149.316 541.03C148.306 541.97 147.246 542.86 146.176 543.7C147.977 545.225 152.975 545.565 155.15 545.713C155.299 545.723 155.436 545.732 155.557 545.741C155.649 545.747 155.732 545.754 155.806 545.76C158.616 546 161.746 546.23 164.496 545.46C169.836 543.95 173.026 538.28 175.496 533.7C178.063 528.952 179.954 523.87 181.116 518.6C181.736 515.778 182.137 512.913 182.316 510.03C182.376 508.43 182.376 506.82 182.376 505.21C182.186 505.88 181.996 506.52 181.796 507.12C182.039 507.554 182.128 508.059 182.046 508.55C180.316 516.93 177.926 524.73 173.466 532.12C171.872 535.01 169.756 537.58 167.226 539.7C164.166 542.05 160.646 542.65 156.876 542.8ZM210.206 545.82C206.526 553.32 199.646 559.03 192.956 563.82C177.286 574.94 159.256 580.01 140.646 583.82C135.126 584.94 129.646 585.45 124.706 582.26L124.256 581.96C130.886 583.38 138.056 582.03 144.456 580.24C160.307 575.792 175.347 568.841 189.006 559.65C195.666 555.16 202.666 550.18 207.946 544.06C209.771 541.972 211.256 539.61 212.346 537.06C212.26 540.115 211.52 543.115 210.176 545.86L210.206 545.82ZM194.206 549.828C199.365 545.852 205.155 541.389 207.956 535.48L207.926 535.52C208.957 533.276 209.502 530.839 209.526 528.37C206.143 534.535 199.877 539.403 194.377 543.676L194.369 543.683C193.743 544.169 193.127 544.648 192.526 545.12C184.777 551.329 176.476 556.816 167.726 561.51C158.808 566.259 149.258 569.714 139.366 571.77C134.816 572.692 130.196 573.227 125.556 573.37C122.76 573.56 119.951 573.395 117.196 572.88C120.276 577.17 127.256 578.05 132.196 577.79C139.976 577.4 147.696 574.53 154.926 571.79C168.606 566.625 181.469 559.512 193.116 550.67C193.475 550.391 193.839 550.111 194.206 549.828ZM192.466 472.22C194.147 475.92 195.112 480.012 196.064 484.047L196.064 484.047L196.064 484.047L196.064 484.048L196.064 484.048L196.064 484.048L196.064 484.049L196.064 484.049L196.064 484.049L196.065 484.051L196.065 484.052C196.579 486.231 197.089 488.394 197.706 490.47C199.647 497.033 202.153 503.356 204.665 509.698L204.665 509.698L204.665 509.699L204.665 509.699L204.666 509.699L204.666 509.699L204.666 509.7L204.666 509.7L204.666 509.7L204.666 509.7L204.666 509.701L204.666 509.701L204.666 509.701L204.666 509.702C205.013 510.577 205.36 511.453 205.706 512.33C207.358 516.21 208.563 520.266 209.296 524.42C209.231 524.483 209.174 524.554 209.126 524.63C204.616 532.32 198.446 537.75 191.516 543.26C184.066 549.284 176.098 554.638 167.706 559.26C159.448 563.789 150.629 567.209 141.476 569.43C133.476 571.32 124.476 572.83 116.246 571.01C116.028 570.388 115.88 569.744 115.806 569.09C115.356 565.23 116.806 560.46 119.806 557.94C122.049 556.055 124.717 555.105 127.346 554.168C128.233 553.852 129.116 553.538 129.976 553.19C135.332 551.05 140.377 548.202 144.976 544.72C147.106 546.61 154.706 547.51 155.866 547.62C162.716 548.27 168.286 547.38 172.726 541.76C176.939 536.316 180.106 530.138 182.066 523.54C183.052 520.272 183.758 516.927 184.176 513.54L184.221 513.175C184.632 509.863 185.096 506.121 184.286 502.89C184.134 502.441 183.669 502.178 183.206 502.28C184.856 495.55 185.966 486.92 184.646 479.79C187.811 477.944 190.484 475.36 192.436 472.26L192.466 472.22ZM164.336 343.098C169.188 343.286 174.071 343.475 178.866 343.11C184.476 342.7 189.726 340.7 192.846 336.11C192.61 336.068 192.373 336.027 192.137 335.986L191.645 335.9L191.275 335.836L190.569 335.714C187.274 335.145 183.977 334.575 180.726 333.86C173.429 332.269 166.456 329.449 160.106 325.52C161.091 327.611 162.207 329.638 163.446 331.59C163.802 332.238 163.74 333.035 163.289 333.62C162.838 334.205 162.083 334.468 161.366 334.29L161.15 334.214L161.149 334.214C154.285 331.814 146.665 329.149 139.966 325.29C137.275 325.211 134.59 325.572 132.016 326.36C129.298 327.35 126.796 328.854 124.646 330.79C120.713 334.38 117.827 338.969 116.296 344.07C112.846 354.9 114.976 366.29 118.666 376.77C122.473 387.811 127.447 398.415 133.506 408.4C137.086 414.186 141.312 419.512 145.534 424.834C148.222 428.222 150.909 431.608 153.426 435.11C160.226 444.61 164.626 455.13 168.766 465.99L168.826 466.19C169.926 466.21 170.926 466.28 171.926 466.38C177.936 467.04 181.476 470.5 183.366 475.28C186.099 473.509 188.298 471.027 189.726 468.1C189.184 467.077 188.768 465.992 188.486 464.87C188.326 464.27 188.196 463.67 188.096 463.08C187.966 462.885 187.865 462.673 187.796 462.45C187.328 460.748 186.889 459.048 186.452 457.353L186.452 457.35L186.45 457.341L186.449 457.34L186.449 457.339L186.449 457.338L186.449 457.337L186.448 457.336L186.448 457.335L186.448 457.335C185.179 452.412 183.92 447.528 181.966 442.75C179.241 436.267 175.952 430.036 172.136 424.13C167.34 416.557 161.759 409.567 156.202 402.608L156.202 402.608L156.201 402.607L156.201 402.607L156.2 402.606L156.2 402.606L156.199 402.605L156.199 402.604L156.199 402.604C154.052 399.915 151.909 397.231 149.816 394.52C142.306 384.79 135.496 373.21 136.726 360.42C137.226 355.27 138.986 349.72 142.986 346.21C147.065 342.634 152.417 342.763 157.52 342.885C157.883 342.894 158.246 342.902 158.606 342.91C160.506 342.949 162.419 343.024 164.336 343.098ZM251.376 499.55C256.482 501.397 262.077 501.372 267.166 499.48C267.138 501.961 266.688 504.419 265.836 506.75C263.482 507.555 260.977 507.821 258.506 507.53C255.519 507.055 252.566 506.387 249.666 505.53C250.266 503.54 250.826 501.54 251.376 499.55ZM252.876 459.71C253.026 461.89 253.166 464.06 253.256 466.23C253.526 472.39 253.606 479.08 252.276 485.29C259.927 484.856 266.766 480.373 270.216 473.53C273.256 467.34 273.836 456.24 267.676 451.53C263.566 448.39 258.456 451.86 255.156 454.53C253.166 456.14 252.706 457.11 252.876 459.71ZM266.865 494.23L266.859 494.231C266.478 491.408 265.945 488.607 265.265 485.84C261.81 488.034 257.895 489.403 253.826 489.84C253.426 491.593 253.006 493.34 252.566 495.08C255.223 495.35 257.897 495.427 260.565 495.31C262.694 495.164 264.803 494.803 266.859 494.231L266.865 494.27V494.23ZM261.606 497.04C258.436 497.16 255.246 497.24 252.296 495.99V496.03C252.235 496.265 252.175 496.504 252.115 496.743L252.115 496.744L252.115 496.744L252.114 496.744L252.114 496.745L252.114 496.745L252.114 496.745L252.114 496.746L252.114 496.746C251.968 497.329 251.822 497.91 251.666 498.42C254.5 499.027 257.403 499.242 260.296 499.06C261.67 498.942 263.02 498.521 264.36 498.103C265.292 497.813 266.219 497.524 267.146 497.34C267.138 497.189 267.124 497.037 267.109 496.884L267.109 496.882C267.088 496.651 267.066 496.418 267.066 496.19C265.314 496.809 263.463 497.097 261.606 497.04ZM249.296 506.73C252.296 508.47 256.156 509.17 259.426 509.47C261.17 509.641 262.93 509.573 264.656 509.27C264.546 509.45 264.446 509.64 264.336 509.81C263.288 510.008 262.256 510.279 261.246 510.62C259.038 511.288 256.725 511.539 254.426 511.36C253.237 511.229 252.031 510.844 250.823 510.458C249.999 510.195 249.175 509.932 248.356 509.75C248.537 509.171 248.717 508.575 248.9 507.971L248.9 507.971L248.9 507.971L248.9 507.971L248.901 507.97C249.021 507.572 249.143 507.171 249.266 506.77L249.296 506.73ZM255.315 513.36C252.702 513.247 250.13 512.661 247.726 511.63L247.581 512.046C246.907 513.986 246.214 515.979 245.486 517.92C251.557 518.798 257.694 516.824 262.115 512.57C259.903 513.186 257.609 513.453 255.315 513.36ZM303.426 505.96C299.629 514.349 292.834 521.089 286.364 527.506L285.786 528.08C278.886 534.93 271.786 541.96 263.336 546.89C258.606 549.65 253.246 548.45 248.616 545.89C248.106 545.61 247.616 545.31 247.166 545C254.856 546.91 263.056 542.86 268.956 537.87C272.538 534.839 275.823 531.442 279.093 528.06C279.977 527.146 280.859 526.234 281.746 525.33C283.174 523.872 284.624 522.43 286.074 520.987L286.078 520.983L286.079 520.981L286.08 520.981C289.025 518.05 291.973 515.117 294.746 512.05C299.156 507.21 303.966 500.54 306.076 493.54C306.1 497.824 305.193 502.062 303.416 505.96H303.426ZM295.886 503.83C298.786 499.805 300.919 495.279 302.176 490.48H302.166C302.39 489.568 302.531 488.637 302.586 487.7C293.206 499.16 282.726 509.89 272.336 520.25C271.327 521.26 270.292 522.329 269.23 523.427C262.614 530.262 254.922 538.209 245.686 540.01C247.913 540.87 250.307 541.212 252.686 541.01C260.909 540.284 267.055 533.977 272.632 528.253C273.437 527.427 274.23 526.613 275.016 525.83C276.724 524.138 278.49 522.46 280.268 520.771L280.276 520.764L280.279 520.761C285.856 515.463 291.543 510.06 295.886 503.83ZM284.427 456.08C289.507 462.64 294.277 469.52 298.847 476.4C300.674 478.903 301.918 481.783 302.487 484.83C299.705 487.887 296.949 490.963 294.193 494.038L294.19 494.041C287.349 501.675 280.513 509.302 273.307 516.63C272.113 517.845 270.892 519.135 269.639 520.457C262.349 528.154 253.985 536.986 243.676 539.06C242.376 538.216 241.362 537 240.766 535.57L240.765 535.568C240.666 535.219 240.566 534.869 240.476 534.51C240.455 534.434 240.421 534.363 240.376 534.3C239.652 530.67 241.615 526.502 243.324 522.875L243.52 522.458L243.646 522.19C252.466 523.91 262.776 520.07 267.836 512.63C273.837 503.83 271.576 492.54 269.026 482.96C275.431 477.068 278.438 468.347 277.027 459.76C276.795 458.331 276.437 456.925 275.957 455.56L281.597 452.47L282.597 453.7L284.427 456.08ZM227.726 355.7C229.2 351.304 231.215 347.108 233.726 343.21C235.056 341.03 236.556 338.59 238.276 336.35C230.717 338.526 222.892 339.64 215.026 339.66C214.19 339.697 213.429 339.18 213.156 338.39C212.678 339.019 212.156 339.621 211.635 340.222C211.021 340.93 210.407 341.638 209.866 342.39C208.499 344.221 207.278 346.157 206.216 348.18C204.068 352.375 202.6 356.884 201.866 361.54C198.896 379.56 206.926 396.88 218.736 410.09C222.159 413.921 226.024 417.239 229.888 420.556C233.215 423.411 236.542 426.267 239.586 429.45C245.176 435.29 250.636 442.43 253.636 450.07C256.466 447.88 259.546 445.96 263.206 445.61C268.356 445.12 272.046 448.05 274.356 452.05L281.086 448.36C281.285 448.249 281.501 448.175 281.726 448.14C280.018 439.154 275.592 430.909 269.046 424.52C264.568 420.24 259.262 416.481 253.919 412.695C242.283 404.45 230.467 396.078 226.616 381.92C224.429 373.258 224.814 364.146 227.726 355.7ZM332.615 194.21L324.525 189.44C322.525 188.24 320.525 190.21 320.865 192.25C322.905 204.83 324.538 217.47 325.765 230.17C326.365 236.336 326.872 242.51 327.285 248.69C327.348 249.641 327.422 250.591 327.495 251.544L327.496 251.552C327.654 253.603 327.813 255.662 327.875 257.75C327.93 258.785 327.89 259.822 327.755 260.85C325.97 254.698 323.533 248.754 320.485 243.12C319.615 241.52 316.725 241.73 316.385 243.66C313.628 258.909 308.842 273.72 302.155 287.7C301.915 285.193 301.802 282.666 301.815 280.12C301.815 277.39 297.715 276.78 297.015 279.47C292.592 296.359 285.03 312.266 274.725 326.36C274.965 324.053 275.202 321.743 275.435 319.43C275.645 317.43 272.835 316.5 271.535 317.82C263.807 325.568 255.445 332.656 246.535 339.01C247.143 336.688 247.393 334.287 247.275 331.89C247.282 331.257 246.988 330.658 246.483 330.276C245.979 329.893 245.323 329.772 244.715 329.95C235.864 333.221 226.546 335.054 217.115 335.38L216.925 335.23C214.813 333.915 212.509 332.936 210.095 332.33C209.359 332.134 208.575 332.344 208.035 332.882C207.496 333.419 207.283 334.203 207.475 334.94V335.01C202.316 333.501 196.986 332.615 191.65 331.729L191.649 331.729C188.71 331.241 185.77 330.753 182.855 330.16C173.512 328.392 164.681 324.563 157.006 318.95C155.716 317.95 153.796 319.59 154.296 321.04C155.232 323.81 156.379 326.504 157.726 329.1C145.966 324.82 135.066 319.59 127.776 308.74C127.329 308.023 126.427 307.736 125.648 308.065C124.869 308.393 124.444 309.239 124.646 310.06C124.878 311.28 125.068 312.526 125.258 313.771C125.33 314.241 125.402 314.711 125.476 315.18C119.494 308.869 114.519 301.675 110.726 293.85C106.371 284.531 103.943 274.429 103.586 264.15C103.506 261.91 100.206 261.34 99.5858 263.61C97.0204 273.276 95.4028 283.17 94.7558 293.15C87.4658 276.5 83.8358 258.49 82.5258 240.37C81.6544 229.97 81.5875 219.519 82.3258 209.11C83.2658 197.65 86.6558 187.11 90.8458 176.49C91.5158 174.8 88.9658 173.4 87.8458 174.72C83.3132 179.893 79.3907 185.57 76.1559 191.64C77.3249 175.052 81.3366 158.788 88.0158 143.56C96.0158 125.36 107.636 109.44 121.816 95.5597C122.205 95.1897 122.374 94.6448 122.264 94.1193C122.154 93.5939 121.78 93.1628 121.276 92.9797C121.066 92.8419 120.816 92.7785 120.566 92.7997C116.285 93.2028 112.104 94.3358 108.206 96.1497C115.676 87.0897 128.106 82.0497 138.876 78.6497C145.68 76.4807 152.685 75 159.786 74.2297C163.406 73.8497 167.046 73.6397 170.695 73.6197C171.806 73.6197 172.956 73.699 174.117 73.779L174.117 73.779C176.229 73.9245 178.375 74.0724 180.375 73.7497C180.781 73.8419 181.207 73.7662 181.555 73.5397C200.905 61.9497 224.815 58.8997 245.775 67.1797L242.105 67.8697C239.845 68.2897 240.245 71.4397 242.105 72.0697C261.505 78.5897 277.875 92.8097 287.985 110.51C285.817 109.342 283.484 108.513 281.065 108.05C280.044 107.807 278.984 108.262 278.457 109.169C277.929 110.077 278.059 111.223 278.775 111.99C300.722 136.533 318.855 164.236 332.565 194.17L332.615 194.21ZM391.266 58.2297C395.176 56.3997 399.826 53.0997 401.376 48.8897C402.546 45.6997 401.176 43.3297 397.786 42.9397C395.46 42.6827 393.112 42.6827 390.786 42.9397C385.136 43.5174 379.72 45.4936 375.026 48.6897C372.896 50.1197 370.626 46.9497 372.346 45.2197C375.951 41.6893 378.567 37.2762 379.936 32.4197C380.593 30.0009 380.929 27.5062 380.936 24.9997C380.956 23.8004 380.896 22.6011 380.756 21.4097C380.466 19.0897 379.186 19.3797 377.516 20.2497C369.225 24.6055 365.438 33.9433 362.102 42.1675C362.03 42.3455 361.958 42.5229 361.886 42.6997C361.566 43.785 360.426 44.4051 359.341 44.0847C358.256 43.7644 357.636 42.625 357.956 41.5397C359.461 33.7127 360.131 25.7482 359.956 17.7797C359.95 17.4932 359.945 17.1713 359.941 16.8209C359.868 11.4973 359.706 -0.412556 351.806 4.86974C346.128 8.67495 345.605 16.8008 345.207 22.9905L345.196 23.1597C344.786 29.5897 345.146 35.8197 349.016 41.1597C350.406 43.0697 347.416 45.1797 345.846 43.6097L345.622 43.3855C341.285 39.0465 336.041 33.7999 329.396 34.3897C326.626 34.6397 323.816 35.9197 322.546 38.5197C321.006 41.6797 322.426 45.4097 324.096 48.1997C327.134 53.1522 331.879 56.8226 337.436 58.5197C337.735 58.6119 338.038 58.699 338.343 58.7864C340.221 59.325 342.142 59.8757 343.226 61.6997C344.161 63.2736 344.424 65.4372 344.665 67.4213C344.749 68.1098 344.83 68.7766 344.936 69.3897C347.126 81.9797 348.176 94.4697 346.346 107.18C343.806 124.85 335.176 147.82 316.886 154.47C319.986 159.37 322.956 164.37 325.796 169.47C343.296 160.74 355.436 144.41 362.526 126.47C370.407 106.068 374.284 84.3385 373.946 62.4697C373.96 61.75 374.303 61.0763 374.875 60.64C375.448 60.2038 376.188 60.0527 376.886 60.2297C381.771 61.0174 386.781 60.3207 391.266 58.2297Z" fill="#231F20"/>
<path fill-rule="evenodd" clip-rule="evenodd" d="M177.712 186.502C170.5 187.28 162.82 188.11 156.016 185.36C151.556 183.57 147.116 179.93 145.916 175.21C144.983 173.716 144.752 171.888 145.286 170.21C146.206 166.99 149.256 165.08 152.116 163.79C160.456 160.02 169.706 158.99 178.786 158.34C185.881 157.832 193 157.544 200.109 157.256C202.099 157.175 204.089 157.095 206.076 157.01C207.806 156.935 209.548 156.834 211.298 156.733C217.774 156.357 224.349 155.975 230.726 156.92C236.126 157.7 245.876 160.4 246.086 167.4C246.296 174.4 236.366 178.11 231.036 179.81C224.349 181.941 217.295 182.625 210.323 183.301C209.476 183.383 208.63 183.465 207.786 183.55C203.585 183.967 199.384 184.371 195.184 184.775C190.216 185.253 185.25 185.731 180.286 186.23C179.437 186.315 178.578 186.408 177.712 186.502ZM161.001 164.339C157.714 164.973 153.996 165.692 151.086 167.36V167.39C149.67 168.178 148.542 169.397 147.866 170.87C147.987 171.01 148.079 171.173 148.136 171.35C152.815 185.553 168.53 183.543 181.005 181.947C182.741 181.725 184.414 181.511 185.986 181.35C190.127 180.928 194.264 180.48 198.402 180.031C201.52 179.694 204.637 179.356 207.756 179.03C208.506 178.952 209.256 178.876 210.006 178.8C215.716 178.222 221.448 177.641 227.016 176.21C230.306 175.36 243.676 171.43 241.076 166.29C239.726 163.64 234.936 162.4 232.336 161.8C229.378 161.173 226.36 160.871 223.336 160.9C214.163 160.834 204.945 161.328 195.742 161.822C190.981 162.077 186.223 162.332 181.476 162.51C181.341 162.515 181.205 162.52 181.07 162.525C174.464 162.769 167.813 163.016 161.306 164.28C161.205 164.299 161.103 164.319 161.001 164.339Z" fill="#231F20"/>
<path d="M163.235 174.18C172.685 175.4 182.755 173.7 192.234 172.89C196.901 172.49 201.534 172.08 206.134 171.66C210.814 171.24 216.044 171.39 220.544 169.99C221.435 169.709 221.995 168.826 221.869 167.9C221.743 166.973 220.968 166.272 220.034 166.24C215.364 165.7 210.234 166.83 205.554 167.24C200.874 167.65 195.904 168.18 191.074 168.66C181.895 169.59 171.895 169.8 163.075 172.66C162.655 172.704 162.351 173.08 162.395 173.5C162.439 173.919 162.815 174.224 163.235 174.18Z" fill="#231F20"/>
<path fill-rule="evenodd" clip-rule="evenodd" d="M267.254 133.9C266.825 135.432 265.886 136.772 264.594 137.7C260.134 140.92 253.165 137.18 252.335 131.99C252.066 129.894 252.586 127.773 253.795 126.04C254.274 124.52 255.396 123.288 256.864 122.67C259.292 121.559 262.148 122.004 264.124 123.8C264.452 124.088 264.756 124.402 265.034 124.74C267.974 126.799 268.925 130.723 267.254 133.9ZM260.805 128.67C260.115 128.85 259.245 130.17 259.015 130.79V130.81C258.909 131.148 258.838 131.497 258.805 131.85C259.929 132.753 261.553 132.667 262.575 131.65C262.578 130.676 262.338 129.717 261.875 128.86C261.565 128.639 261.172 128.57 260.805 128.67Z" fill="#231F20"/>
<path d="M261.134 111.03C262.334 111.63 264.764 112.41 265.614 110.8C266.464 109.19 264.464 107.86 263.284 107.35C261.569 106.635 259.796 106.07 257.984 105.66C257.46 105.513 256.903 105.74 256.631 106.212C256.36 106.684 256.443 107.281 256.834 107.66C258.035 109.052 259.495 110.197 261.134 111.03Z" fill="#231F20"/>
<path d="M272.086 164.95C274.966 164.95 274.966 160.47 272.086 160.47C269.206 160.47 269.196 164.95 272.086 164.95Z" fill="#231F20"/>
<path d="M123.575 221.64C123.566 221.308 123.339 221.021 123.018 220.936C122.697 220.85 122.358 220.986 122.185 221.27C121.728 222.072 121.35 222.916 121.055 223.79C120.583 218.215 121.576 212.613 123.935 207.54C124.038 207.332 123.962 207.08 123.761 206.963C123.56 206.847 123.304 206.907 123.175 207.1C119.245 213.26 118.615 221.03 120.325 228.02C120.437 228.355 120.772 228.564 121.123 228.518C121.474 228.471 121.743 228.183 121.765 227.83C121.817 226.814 121.985 225.808 122.265 224.83C122.841 229.263 124.817 233.397 127.905 236.63C128.905 237.63 130.905 240.09 132.555 239.21C134.205 238.33 133.005 236.33 132.555 235.08C132.365 234.56 131.505 234.6 131.555 235.22C131.593 235.723 131.659 236.224 131.755 236.72C131.435 238.33 131.065 237.44 129.975 236.47C125.781 232.69 123.453 227.263 123.605 221.62L123.575 221.64Z" fill="#231F20"/>
<path d="M209.505 258.87C212.875 251.758 214.783 244.042 215.115 236.18C216.26 237.816 217.283 239.534 218.175 241.32C218.392 241.605 218.744 241.753 219.099 241.707C219.454 241.662 219.758 241.43 219.895 241.1C222.465 230.1 220.975 218.1 214.765 208.56C214.696 208.442 214.568 208.37 214.431 208.371C214.295 208.373 214.169 208.447 214.101 208.566C214.034 208.686 214.036 208.832 214.105 208.95C218.515 218.19 220.325 228.09 218.575 238.12C217.492 236.257 216.265 234.482 214.905 232.81C214.637 232.553 214.243 232.478 213.899 232.618C213.555 232.759 213.327 233.089 213.315 233.46C213.371 241.288 211.776 249.039 208.635 256.21C206.533 251.817 205.504 246.988 205.635 242.12C205.635 241.02 204.185 240.96 203.835 241.88C202.018 246.6 200.597 251.464 199.585 256.42C196.045 248.5 195.835 239.97 198.045 231.5C198.111 231.129 197.885 230.77 197.523 230.669C197.16 230.568 196.78 230.759 196.645 231.11C193.075 240.41 194.475 251.11 199.175 259.74C199.365 260.052 199.72 260.222 200.082 260.175C200.444 260.127 200.743 259.87 200.845 259.52C201.597 255.219 202.657 250.979 204.015 246.83C204.509 251.046 205.828 255.123 207.895 258.83C208.077 259.09 208.372 259.249 208.69 259.257C209.008 259.265 209.311 259.121 209.505 258.87Z" fill="#231F20"/>
<path d="M266.208 195.7C265.808 195.55 265.528 196.21 265.918 196.39C274.848 200.6 276.918 210.67 276.728 219.67L268.908 214.13C268.118 213.58 267.348 214.63 267.698 215.35C269.168 218.35 271.998 225.19 269.548 228.28C269.138 228.8 269.498 229.72 270.258 229.48C272.428 228.81 272.258 226.26 272.078 224.37C271.862 221.975 271.324 219.62 270.478 217.37L277.098 222.01C277.364 222.161 277.691 222.161 277.958 222.01C278.225 221.858 278.392 221.577 278.398 221.27C278.798 211.28 276.728 199.7 266.208 195.7Z" fill="#231F20"/>
<path d="M294.036 195.48C297.886 197.84 297.956 191.86 297.506 187.62C297.886 187.93 298.286 188.22 298.716 188.53C301.278 190.384 303.567 192.589 305.516 195.08C306.036 195.75 307.026 195.14 307.066 194.44C307.275 190.785 306.642 187.131 305.216 183.76C306.401 184.847 307.526 185.999 308.586 187.21C309.226 187.95 310.186 187.13 310.066 186.35C308.886 178.209 303.805 171.156 296.456 167.46C296.286 167.394 296.094 167.46 296.002 167.617C295.91 167.774 295.946 167.974 296.086 168.09C301.754 171.683 305.899 177.241 307.726 183.7C306.202 182.184 304.571 180.78 302.846 179.5C302.126 178.97 301.166 180 301.636 180.71C303.879 184.047 305.15 187.942 305.306 191.96C304.451 190.964 303.526 190.031 302.536 189.17C300.796 187.67 297.756 186.37 296.986 184.11C296.853 183.635 296.361 183.357 295.886 183.49C295.411 183.622 295.133 184.115 295.266 184.59C295.855 186.734 296.108 188.958 296.016 191.18C295.946 192.37 296.226 194.27 294.496 193.53C293.756 193.21 292.936 191.71 292.546 191.05C290.406 187.43 290.546 183.05 290.606 179.05C290.606 178.05 289.116 178.05 289.026 179.05C288.496 184.33 288.836 192.29 294.036 195.48Z" fill="#231F20"/>
<path d="M245.136 271.7C243.786 274.846 242.611 278.064 241.616 281.34C239.85 278.692 238.667 275.699 238.146 272.56C237.506 268.65 238.476 265.23 238.896 261.41C238.946 260.98 238.326 260.89 238.126 261.2C233.886 267.76 236.866 278.01 241.186 283.68C241.368 283.963 241.696 284.116 242.03 284.074C242.363 284.031 242.642 283.8 242.746 283.48C243.606 280.48 244.596 277.62 245.746 274.76C247.226 279.21 250.746 286.89 254.376 284.01C256.466 282.37 256.656 278.32 256.866 275.92C257.246 271.927 256.677 267.901 255.206 264.17C254.866 263.33 253.556 263.63 253.806 264.56C255.274 269.475 255.487 274.68 254.426 279.7C254.316 280.2 254.186 280.7 254.036 281.18C252.843 282.6 251.913 282.713 251.246 281.52C250.423 280.686 249.747 279.719 249.246 278.66C248.039 276.562 247.19 274.277 246.736 271.9C246.645 271.557 246.355 271.305 246.004 271.261C245.652 271.217 245.309 271.39 245.136 271.7Z" fill="#231F20"/>
<path d="M291.476 236.01C293.086 240.12 295.066 243.92 296.006 248.29C296.919 252.54 297.122 256.913 296.606 261.23C295.795 260.257 295.141 259.164 294.666 257.99C294.555 257.642 294.231 257.406 293.866 257.406C293.501 257.406 293.177 257.642 293.066 257.99C292.796 258.94 292.536 259.89 292.276 260.84C292.096 261.47 291.926 262.1 291.746 262.73C291.236 263.21 291.006 263.12 291.066 262.47C290.576 261.83 290.636 260.04 290.506 259.23C290.306 257.97 290.126 256.71 289.856 255.47C289.756 254.99 289.046 255.12 289.036 255.58C289.036 257.29 288.556 264.69 291.106 265.41C292.926 265.93 293.746 263.04 294.206 260.75C294.868 261.838 295.679 262.827 296.616 263.69C296.833 263.897 297.143 263.977 297.433 263.899C297.723 263.821 297.952 263.598 298.036 263.31C299.466 254.31 298.486 242.75 292.496 235.42C292.116 234.96 291.256 235.45 291.476 236.01Z" fill="#231F20"/>
<path d="M149.328 293.95C147.984 291.642 147.255 289.029 147.208 286.36C149.382 291.179 152.592 295.461 156.608 298.9C156.846 299.125 157.193 299.189 157.496 299.063C157.798 298.938 157.999 298.647 158.008 298.32C158.048 296.316 157.958 294.312 157.738 292.32C159.098 294.97 160.568 297.57 162.158 300.09C163.288 301.86 165.018 305.68 167.588 303.6C170.008 301.6 170.538 296.51 170.908 293.67C171.478 289.3 171.368 284.39 169.668 280.27C169.571 279.916 169.206 279.708 168.853 279.805C168.499 279.901 168.291 280.266 168.388 280.62C168.99 283.739 169.324 286.904 169.388 290.08C169.349 291.886 169.158 293.685 168.818 295.46C168.578 296.71 168.338 298.9 167.598 299.92C166.841 300.857 165.531 301.136 164.458 300.59C163.979 300.048 163.585 299.438 163.288 298.78C162.428 297.446 161.601 296.06 160.808 294.62C159.218 291.81 157.808 288.92 156.468 285.97C156.068 285.09 154.708 285.73 154.938 286.62C155.771 289.843 156.231 293.151 156.308 296.48C152.286 292.674 149.255 287.944 147.478 282.7C147.248 282.02 146.098 281.87 145.938 282.7C145.538 284.831 145.538 287.018 145.938 289.15C142.118 283.46 139.198 277.06 141.678 270.22C141.848 269.75 141.158 269.51 140.908 269.89C135.718 277.89 143.408 288.44 148.038 294.7C148.568 295.52 149.838 294.84 149.328 293.95Z" fill="#231F20"/>
<path d="M222.494 302.03C222.664 304.03 222.824 306.03 222.914 308.03C223.036 308.952 223.052 309.884 222.964 310.81C222.644 312.38 222.434 312.81 220.814 312.75C217.304 312.58 213.594 308.56 211.904 305.86C211.709 305.552 211.335 305.408 210.984 305.505C210.633 305.601 210.385 305.916 210.374 306.28C210.374 307.76 210.374 309.28 210.374 310.73C208.046 308.007 206.34 304.81 205.374 301.36C205.214 300.89 204.434 300.94 204.474 301.48C204.734 306 207.324 310.14 210.554 313.18C210.783 313.397 211.119 313.459 211.411 313.338C211.703 313.217 211.896 312.936 211.904 312.62L211.964 308.77C214.514 311.9 218.334 314.77 222.254 314.9C224.054 314.96 224.434 314.15 224.674 312.48C225.155 308.891 224.725 305.239 223.424 301.86C223.264 301.44 222.444 301.45 222.494 302.03Z" fill="#231F20"/>
<path d="M152.015 108.9C153.702 108.28 155.412 107.713 157.146 107.2C153.746 111.05 151.835 116.2 154.886 120.99C155.046 121.251 155.345 121.393 155.649 121.355C155.953 121.316 156.206 121.103 156.296 120.81C157.176 117.98 158.776 115.81 160.366 113.37C160.45 113.21 160.419 113.014 160.29 112.887C160.161 112.76 159.965 112.733 159.806 112.82C157.76 114.239 156.222 116.274 155.416 118.63C153.626 114.01 156.626 109.37 160.236 106.25C160.826 105.74 160.236 104.83 159.516 105C157.586 105.5 155.686 106.06 153.806 106.71C156.356 103.35 159.366 100.29 163.566 99.1298C164.006 99.0098 163.816 98.3798 163.376 98.4598C157.886 99.4598 154.296 103.46 151.185 107.83C151.035 108.087 151.057 108.41 151.239 108.645C151.422 108.88 151.729 108.981 152.015 108.9Z" fill="#231F20"/>
<path d="M210.168 87.3398C217.828 89.1898 227.168 91.4298 230.168 99.5598C226.228 98.3498 222.288 97.1598 218.378 95.8698C218.057 95.7953 217.725 95.9389 217.559 96.2237C217.394 96.5086 217.434 96.868 217.658 97.1098C220.102 99.149 222.367 101.394 224.428 103.82C226.078 105.82 229.708 110.74 228.778 113.94C227.618 112.94 226.458 111.94 225.278 110.94C225.004 110.693 224.602 110.651 224.283 110.836C223.964 111.02 223.8 111.389 223.878 111.75C224.611 114.734 224.901 117.811 224.738 120.88C223.298 118.69 222.148 116.34 220.578 114.26C220.462 113.984 220.144 113.854 219.868 113.97C219.591 114.086 219.462 114.404 219.578 114.68C220.248 118.03 222.698 121.13 224.798 123.74C225.288 124.35 226.118 123.74 226.188 123.17C226.487 120.023 226.39 116.852 225.898 113.73C226.738 114.46 227.578 115.19 228.428 115.91C228.622 116.09 228.887 116.175 229.15 116.14C229.413 116.105 229.647 115.955 229.788 115.73C231.788 112.73 229.408 108.36 227.728 105.73C225.902 103.034 223.745 100.578 221.308 98.4198C224.568 99.5298 227.838 100.58 231.158 101.52C231.439 101.593 231.738 101.512 231.944 101.306C232.149 101.1 232.231 100.801 232.158 100.52C229.538 90.7998 219.158 87.9498 210.358 86.5198C209.878 86.4698 209.638 87.2098 210.168 87.3398Z" fill="#231F20"/>
</svg>
