<svg width="461" height="562" viewBox="0 0 461 562" fill="none" xmlns="http://www.w3.org/2000/svg">
<path d="M164.513 112.28C186.793 124.96 214.023 131.88 237.923 119.8C257.083 110.11 271.923 93.5199 280.753 74.0699C284.954 64.8208 287.699 54.9779 288.893 44.8899C289.489 39.6455 289.646 34.3604 289.363 29.0899C289.113 24.3799 287.953 19.8399 288.793 15.2099C230.223 8.67063 171.254 23.3953 122.633 56.6999C128.693 80.6999 142.633 99.8299 164.513 112.28Z" fill="white"/>
<path d="M365.632 276.36C350.372 281.46 344.722 294.93 344.812 310.19C344.945 317.854 345.738 325.492 347.182 333.02C347.962 337.3 350.962 341.65 351.052 345.91C353.782 346.16 356.512 346.36 359.262 346.42C378.632 346.85 398.642 342.54 414.462 330.87C428.742 320.33 437.782 304.42 442.622 287.57C419.742 273.63 391.682 267.7 365.632 276.36Z" fill="white"/>
<path d="M394.633 153.83C386.953 165.59 379.633 181.3 382.113 195.66C384.463 209.47 395.113 220.66 407.333 226.66C414.513 230.06 422.201 232.262 430.093 233.18C435.163 233.84 440.763 233.27 445.853 234.18C445.033 226.86 443.853 219.58 442.493 212.42C438.297 189.841 432.369 167.619 424.763 145.95C423.193 141.56 421.503 137.21 419.763 132.95C415.973 134.49 412.133 135.88 408.693 138.4C403.117 142.657 398.354 147.884 394.633 153.83Z" fill="white"/>
<path d="M128.983 176.76L128.853 176.68C127.569 177.58 126.65 178.91 126.263 180.43C125.373 183.62 127.193 187.5 130.763 187.9C135.033 188.38 136.763 183.58 134.503 180.47C133.143 178.57 130.863 177.96 128.983 176.76Z" fill="white"/>
<path d="M260.632 286.77C249.162 283.26 235.962 283.14 224.952 288.36C213.422 293.84 212.952 304.42 211.322 315.11C218.632 312.37 226.112 310.11 233.972 309.61C255.542 308.12 275.972 322.37 295.122 330.38C297.282 331.28 299.462 332.16 301.642 333.02C296.222 312.01 282.122 293.32 260.632 286.77Z" fill="white"/>
<path d="M333.883 174.3C332.173 174.61 330.509 175.138 328.933 175.87C328.604 177.158 328.677 178.515 329.143 179.76C330.513 183.38 335.933 184.34 338.043 180.88C340.153 177.42 337.633 173.95 333.883 174.3Z" fill="white"/>
<path fill-rule="evenodd" clip-rule="evenodd" d="M400.922 261.9C385.192 260.57 365.632 262.23 352.102 271.12C338.132 280.28 334.062 297.13 335.012 312.97C335.027 313.221 335.043 313.497 335.059 313.796L335.072 314.021L335.094 314.434C335.464 321.232 336.333 337.18 341.522 344.7C332.522 343.101 323.661 340.797 315.022 337.81C315.032 337.344 314.999 336.879 314.922 336.42C309.632 306.52 288.052 279.91 257.152 274.69C243.312 272.35 227.132 273.95 215.522 282.48C204.672 290.44 201.372 305.4 203.122 318.26L201.882 318.77C201.63 318.884 201.386 319.014 201.152 319.16C193.572 321.149 186.099 323.526 178.762 326.28L173.322 328.28C173.922 286.2 160.852 239.77 116.102 226.2C95.1418 219.84 72.3918 222.33 52.8718 231.99C42.98 236.976 33.9817 243.565 26.2418 251.49C22.5439 255.155 19.115 259.082 15.9818 263.24C9.25178 231.99 16.8418 199.34 29.6918 169.99C37.7418 176.71 49.9218 178.33 59.9218 176.99C72.4518 175.31 84.0118 168.04 92.5618 158.88C102.132 148.62 103.192 134.86 102.692 121.53C102.192 108.2 99.8918 92.2898 92.6318 80.6998C99.7996 74.0046 107.352 67.7339 115.252 61.9198C120.252 102.52 163.532 130.06 201.092 136.2C241.962 142.84 278.722 110.98 293.632 75.1998C297.656 65.5132 300.27 55.299 301.392 44.8698C302.252 37.0798 303.482 25.1898 300.342 16.9498C312.461 19.073 324.27 22.6871 335.502 27.7098C333.556 32.2018 332.121 36.8979 331.222 41.7098C328.492 55.3298 329.132 69.6598 337.362 81.3298C344.538 91.4205 355.247 98.4423 367.362 101C377.472 103.1 392.692 103.28 402.692 97.6798C407.578 106.3 412.022 115.123 416.022 124.15C404.512 126.38 393.422 137.87 387.512 146.01C377.482 159.8 369.182 178.46 371.092 195.8C372.902 212.12 383.772 226.23 397.492 234.7C405.341 239.414 413.965 242.698 422.962 244.4C423.257 244.458 423.557 244.518 423.861 244.579C424.138 244.635 424.418 244.691 424.701 244.748L424.732 244.754L424.739 244.756C431.488 246.115 439.999 247.829 446.852 246.27C447.409 256.174 446.886 266.109 445.292 275.9C431.922 267.75 416.402 263.2 400.922 261.9ZM106.862 216.15C108.45 216.136 109.97 215.504 111.102 214.39H111.062C112.202 213.272 112.85 211.746 112.862 210.15C112.795 208.573 112.172 207.07 111.102 205.91L110.972 205.76C109.257 204.03 106.666 203.51 104.416 204.442C102.165 205.374 100.702 207.574 100.712 210.01C100.711 211.604 101.344 213.133 102.472 214.26L102.622 214.39C103.766 215.486 105.278 216.113 106.862 216.15ZM124.832 198.57C119.979 196.424 116.375 192.174 115.049 187.036C113.724 181.898 114.823 176.436 118.032 172.21C120.682 168.67 124.942 166.02 129.372 166.61C130.428 166.229 131.554 166.082 132.672 166.18C135.35 166.41 137.914 167.364 140.092 168.94C145.121 172.3 148.126 177.961 148.092 184.01C147.762 195.59 135.202 203.1 124.792 198.57H124.832ZM236.572 222.52C245.032 222.64 252.162 217.3 256.252 210.18H256.212C260.632 202.55 264.252 190.5 261.122 181.98C260.454 179.818 258.455 178.343 256.192 178.343C253.929 178.343 251.93 179.818 251.262 181.98C250.542 183.999 250.115 186.896 249.645 190.081C248.358 198.805 246.753 209.68 237.962 210.53C230.632 211.239 226.782 201.825 223.583 194C222.177 190.562 220.897 187.431 219.502 185.6C219.114 184.976 218.466 184.559 217.738 184.464C217.009 184.369 216.277 184.606 215.742 185.11C208.692 190.64 214.032 201.26 217.412 207.41C221.492 214.84 227.272 222.39 236.572 222.52ZM362.252 206.23C362.238 207.983 361.542 209.661 360.312 210.91C359.058 212.132 357.383 212.826 355.632 212.85C352.955 212.849 350.542 211.236 349.518 208.763C348.493 206.29 349.059 203.443 350.952 201.55C352.205 200.326 353.881 199.632 355.632 199.61C359.24 199.701 362.134 202.621 362.192 206.23H362.252ZM327.422 162.84C322.333 165.217 318.666 169.859 317.532 175.36C316.628 180.902 318.52 186.533 322.587 190.406C326.653 194.278 332.37 195.893 337.862 194.72C349.072 192.37 354.832 178.9 348.652 169.15C344.892 163.21 337.062 160.49 330.422 162C329.386 162.13 328.375 162.413 327.422 162.84Z" fill="#BE1E2D"/>
<path d="M278.003 337.99L276.763 337.44C265.633 332.44 254.543 325.93 242.413 323.68C241.233 323.47 240.043 323.32 238.863 323.2C227.765 324.458 216.8 326.69 206.093 329.87C202.543 330.96 199.013 332.16 195.503 333.43C201.563 373.32 185.683 410.3 169.073 445.51C156.173 472.85 145.213 506.41 158.193 534.12C166.363 540.86 176.763 544.64 188.003 546.35C208.093 549.42 229.203 548.56 249.453 547.92C269.453 547.28 290.503 547.02 310.003 542.32C312.949 541.611 315.834 540.671 318.633 539.51C334.323 511.05 327.563 475.96 315.953 446.51C308.953 428.8 300.483 411.73 293.953 393.86C291.181 386.585 288.811 379.164 286.853 371.63C281.143 361.11 276.973 349.96 278.003 337.99Z" fill="#F2B879"/>
<path d="M375.992 90.6299C381.071 90.9037 386.163 90.4252 391.102 89.2099C393.032 88.7499 394.872 88.1299 396.722 87.5599C396.312 86.8899 395.912 86.2199 395.492 85.5599C384.742 68.3299 371.992 51.5599 355.492 39.3699C351.703 36.5975 347.742 34.0691 343.632 31.7999C342.932 34.4199 342.712 37.3099 342.312 39.5099C341.303 44.4111 340.711 49.3888 340.542 54.3899C340.432 64.1999 343.742 73.0899 350.872 79.9099C357.71 86.3468 366.613 90.1459 375.992 90.6299Z" fill="white"/>
<path d="M324.513 457.18C332.963 482.82 336.093 513.54 322.863 537.54C334.383 531.39 341.793 521.09 343.963 506.43C347.083 485.28 340.223 463.75 330.853 445.03C321.613 426.59 310.033 409.32 299.133 391.84L296.383 387.47C297.933 392.01 299.633 396.47 301.383 400.96C308.953 419.76 318.163 437.9 324.513 457.18Z" fill="#F7941E"/>
<path d="M59.8626 165.14C69.3526 163.14 78.5926 156.36 84.6626 148.89C91.7626 140.16 90.5326 125.95 89.4726 115.39C88.5626 106.39 85.7426 98.2398 83.4726 89.7598C66.7139 107.088 52.3406 126.573 40.7326 147.7C38.2826 152.17 35.9026 156.77 33.6426 161.46C42.3726 164.29 50.3426 167.19 59.8626 165.14Z" fill="white"/>
<path d="M113.053 237.26C94.2087 231.272 73.7655 232.931 56.1333 241.88C47.6341 246.177 39.8328 251.733 32.9933 258.36C27.8233 263.36 23.6933 269.36 19.1133 274.81C24.8733 291.81 35.3533 307.81 50.3733 317.95C68.0333 329.89 91.2633 335.74 112.223 338.17C129.563 340.17 145.293 337.33 161.063 332.48C162.633 294.7 153.783 250.48 113.053 237.26Z" fill="white"/>
<path d="M158.632 458.7C166.972 438.7 178.052 419.92 184.692 399.25C191.562 377.89 192.802 356.71 192.582 334.56C190.582 335.313 188.582 336.073 186.582 336.84C190.582 356.45 182.342 374.32 173.282 392.05C162.282 413.6 152.532 436.19 145.842 459.5C140.422 478.39 137.652 499.34 145.932 517.87C147.074 520.408 148.443 522.838 150.022 525.13C144.632 503.53 150.522 477.97 158.632 458.7Z" fill="#F7941E"/>
<path fill-rule="evenodd" clip-rule="evenodd" d="M447.362 171.34C459.402 215.68 470.002 266.52 449.002 309.85C429.782 349.47 386.632 364.7 344.822 359.17C326.292 356.76 308.622 350.86 291.432 343.76C292.532 354.2 297.812 363.52 303.432 372.52C307.214 378.6 311.018 384.669 314.822 390.737L314.823 390.738L314.824 390.74L314.825 390.741L314.826 390.743L314.827 390.744L314.828 390.746L314.829 390.747L314.83 390.749L314.831 390.751L314.844 390.77L314.856 390.79L314.868 390.809C318.081 395.934 321.294 401.059 324.492 406.19C337.472 427.03 350.472 448.62 355.892 472.84C360.242 492.26 360.382 515.19 349.312 532.55C339.062 548.56 321.062 555.17 303.062 557.82C280.442 561.14 257.222 561.85 234.382 561.92C232.96 561.924 231.531 561.931 230.095 561.938L230.051 561.938L230.007 561.939L229.961 561.939L229.914 561.939L229.865 561.939L229.815 561.939L229.764 561.94C210.798 562.032 190.798 562.13 172.602 556.74C154.152 551.27 139.982 538.88 132.722 520.99C124.762 501.4 126.492 479.7 131.932 459.7C137.872 437.9 146.942 416.7 156.822 396.35C158.558 392.786 160.441 389.258 162.329 385.722L162.329 385.721C166.108 378.642 169.905 371.529 172.572 364.02C175.097 356.48 176.426 348.591 176.512 340.64C163.942 345.39 151.332 349.81 137.942 351.39C114.442 354.16 89.6524 349.05 67.5724 341.05C47.6124 333.85 30.9324 322.08 18.9324 304.39C7.66244 287.71 1.71244 267.76 0.472443 247.76C-2.36756 202.37 17.6324 156.42 42.5724 119.47C65.5424 85.4698 95.8024 56.2898 131.312 35.5898C170.72 12.6861 215.483 0.611207 261.062 0.589844C283.922 0.619844 307.502 3.54984 329.242 10.8098C350.462 17.9313 369.46 30.4596 384.362 47.1598C415.562 81.6298 435.322 127 447.362 171.34ZM359.272 346.4C378.642 346.85 398.652 342.52 414.472 330.85V330.87C428.752 320.33 437.792 304.42 442.642 287.55C419.742 273.61 391.642 267.65 365.642 276.34C350.382 281.44 344.732 294.91 344.822 310.17C344.956 317.834 345.749 325.472 347.192 333C347.53 334.852 348.283 336.717 349.036 338.582C350.024 341.027 351.011 343.473 351.062 345.89C353.792 346.14 356.522 346.34 359.272 346.4ZM424.792 145.97C432.399 167.639 438.326 189.861 442.522 212.44C443.892 219.6 445.062 226.88 445.882 234.2C443.049 233.677 440.057 233.621 437.087 233.566C434.721 233.523 432.37 233.479 430.122 233.2C422.232 232.289 414.544 230.093 407.362 226.7C395.142 220.7 384.492 209.5 382.142 195.7C379.702 181.34 386.982 165.63 394.662 153.87C398.365 147.925 403.107 142.695 408.662 138.43C411.702 136.203 415.054 134.859 418.407 133.514C418.849 133.336 419.291 133.159 419.732 132.98C421.532 137.25 423.222 141.6 424.792 145.99V145.97ZM342.672 37.0072C342.549 37.8978 342.431 38.7455 342.292 39.5098C341.287 44.4114 340.699 49.3891 340.532 54.3898C340.422 64.1998 343.732 73.0898 350.862 79.9098C357.706 86.3511 366.616 90.1505 376.002 90.6298C381.082 90.9037 386.173 90.4252 391.112 89.2098C392.618 88.8511 394.068 88.3951 395.511 87.9413L395.511 87.9412C395.919 87.8131 396.325 87.6853 396.732 87.5598C396.619 87.3747 396.507 87.1895 396.394 87.0046L396.394 87.0042L396.394 87.0037C396.099 86.5197 395.806 86.0372 395.502 85.5598C384.742 68.3698 371.992 51.5098 355.502 39.3698C351.704 36.5964 347.733 34.068 343.612 31.7998C343.156 33.5096 342.903 35.3343 342.672 37.0072ZM231.002 15.5798C250.183 13.1676 269.582 13.0434 288.792 15.2098C288.218 18.3759 288.579 21.4998 288.944 24.6648L288.944 24.6659L288.945 24.667L288.945 24.6682L288.945 24.6693L288.945 24.6705L288.945 24.6717C289.114 26.1329 289.284 27.6029 289.362 29.0898C289.646 34.3604 289.489 39.6454 288.892 44.8898C287.699 54.9779 284.953 64.8208 280.752 74.0698C271.902 93.5198 257.082 110.07 237.922 119.8C214.022 131.88 186.792 124.96 164.512 112.28C142.632 99.8298 128.692 80.6998 122.632 56.6998C154.959 34.5461 192.117 20.4471 231.002 15.5798ZM83.4324 89.7698C66.6886 107.097 52.3288 126.579 40.7324 147.7C38.2824 152.16 35.9024 156.76 33.6024 161.46C34.0377 161.601 34.4711 161.743 34.9029 161.884L34.918 161.889L34.9221 161.891C43.1457 164.58 50.8126 167.087 59.8224 165.15C69.3124 163.11 78.5524 156.37 84.6224 148.9C91.7224 140.17 90.4924 125.96 89.4324 115.4C88.7488 108.367 86.8613 101.798 84.9632 95.1919C84.4457 93.3906 83.9274 91.5867 83.4324 89.7698ZM161.062 332.48C145.292 337.33 129.562 340.17 112.222 338.17C91.2224 335.74 68.0324 329.89 50.3724 317.95C35.3724 307.79 24.8724 291.84 19.1124 274.81C20.5475 273.09 21.9384 271.323 23.331 269.555L23.3312 269.554L23.3318 269.554L23.3331 269.552C26.3841 265.677 29.4432 261.792 32.9924 258.36C39.832 251.733 47.6333 246.177 56.1324 241.88C73.7647 232.931 94.2079 231.272 113.052 237.26C153.782 250.48 162.632 294.7 161.062 332.48ZM145.762 459.46C140.342 478.35 137.572 499.3 145.852 517.83C147.005 520.383 148.388 522.827 149.982 525.13C144.632 503.57 150.562 478.01 158.632 458.7C161.82 451.02 165.417 443.514 169.013 436.01C174.781 423.973 180.547 411.942 184.612 399.21C191.502 377.85 192.722 356.67 192.502 334.52C190.502 335.267 188.502 336.026 186.502 336.8C190.462 356.41 182.262 374.28 173.202 392.01C162.192 413.56 152.452 436.15 145.762 459.46ZM306.02 402.761L306.021 402.764L306.022 402.765C314.766 416.573 323.542 430.43 330.852 445.02C340.222 463.74 347.082 485.27 343.962 506.42C341.792 521.08 334.382 531.42 322.862 537.53C336.092 513.53 332.962 482.81 324.512 457.17C320.502 444.992 315.35 433.269 310.198 421.547L310.198 421.547L310.198 421.546L310.198 421.546L310.198 421.545C307.194 414.71 304.19 407.875 301.412 400.95C299.632 396.49 297.932 392 296.412 387.46L299.132 391.83C301.407 395.477 303.71 399.114 306.016 402.756L306.018 402.758L306.02 402.761ZM305.937 422.854C301.734 413.262 297.529 403.667 293.912 393.83C291.126 386.546 288.742 379.115 286.772 371.57C281.102 361.08 276.962 349.96 277.962 337.96L276.722 337.41C274.063 336.211 271.407 334.927 268.738 333.638L268.736 333.637L268.735 333.637L268.734 333.637L268.734 333.636C260.232 329.53 251.603 325.362 242.372 323.65C241.192 323.44 240.002 323.29 238.822 323.17C227.725 324.428 216.759 326.66 206.052 329.84C202.462 330.93 198.972 332.13 195.462 333.4C201.522 373.29 185.642 410.27 169.032 445.48C156.152 472.82 145.152 506.38 158.152 534.09C166.322 540.83 176.722 544.61 187.962 546.32C207.107 549.245 227.178 548.602 246.549 547.981C247.505 547.951 248.46 547.92 249.412 547.89C250.759 547.849 252.111 547.81 253.467 547.771L253.596 547.767C272.3 547.227 291.82 546.663 309.962 542.29C312.908 541.581 315.794 540.641 318.592 539.48C334.282 511.05 327.522 475.96 315.912 446.48C312.802 438.519 309.37 430.687 305.937 422.854ZM295.122 330.38C290.194 328.323 285.183 325.852 280.092 323.342C265.381 316.088 249.997 308.503 233.972 309.61C226.112 310.15 218.632 312.37 211.322 315.11C211.476 314.122 211.619 313.136 211.761 312.154C213.158 302.508 214.488 293.334 224.952 288.36C235.952 283.14 249.162 283.26 260.632 286.77C282.122 293.32 296.222 312.01 301.632 333.02C299.462 332.16 297.282 331.28 295.122 330.38ZM314.902 336.53C314.979 336.989 315.013 337.454 315.002 337.92C323.663 340.845 332.541 343.086 341.552 344.62C336.363 337.1 335.495 321.152 335.125 314.354C335.095 313.802 335.068 313.311 335.042 312.89C334.132 297.06 338.132 280.22 352.132 271.06C365.662 262.17 385.222 260.51 400.952 261.84C416.432 263.17 431.982 267.72 445.322 275.84C446.917 266.049 447.44 256.114 446.882 246.21C440.045 247.766 431.573 246.063 424.819 244.705C424.195 244.579 423.585 244.457 422.992 244.34C413.999 242.653 405.376 239.386 397.522 234.69C383.802 226.22 372.932 212.11 371.122 195.79C369.212 178.45 377.542 159.78 387.542 146C393.452 137.86 404.572 126.37 416.052 124.14C412.019 115.1 407.576 106.277 402.722 97.6698C392.712 103.27 377.502 103.09 367.392 100.99C355.277 98.4323 344.568 91.4105 337.392 81.3198C329.162 69.6998 328.522 55.2998 331.252 41.6998C332.151 36.8879 333.587 32.1919 335.532 27.6998C324.31 22.6615 312.507 19.0306 300.392 16.8898C303.532 25.1298 302.302 37.0198 301.442 44.8098C300.312 55.2332 297.692 65.4406 293.662 75.1198C278.752 110.94 241.992 142.8 201.122 136.12C163.562 129.98 120.282 102.44 115.282 61.8398C107.371 67.6788 99.8077 73.9763 92.6324 80.6998C99.8724 92.3298 102.172 108.2 102.672 121.64C103.172 135.08 102.112 148.73 92.5424 158.99C83.9924 168.1 72.4324 175.42 59.9024 177.1C49.9424 178.39 37.6724 176.77 29.6724 170.1C16.8224 199.45 9.23244 232.1 15.9624 263.35C19.0957 259.192 22.5246 255.265 26.2224 251.6C33.9623 243.675 42.9606 237.086 52.8524 232.1C72.3724 222.44 95.0824 219.95 116.082 226.31C160.832 239.88 173.902 286.39 173.302 328.39C175.109 327.723 176.922 327.057 178.742 326.39C186.079 323.636 193.552 321.259 201.132 319.27C201.367 319.124 201.611 318.994 201.862 318.88L203.102 318.37C201.352 305.51 204.652 290.59 215.502 282.59C227.132 274.06 243.292 272.46 257.132 274.8C288.032 280.02 309.612 306.63 314.902 336.53Z" fill="#231F20"/>
<path fill-rule="evenodd" clip-rule="evenodd" d="M132.633 166.18C135.311 166.41 137.876 167.364 140.053 168.94C145.083 172.3 148.088 177.961 148.053 184.01C147.793 195.57 135.203 203.1 124.793 198.57C119.94 196.424 116.337 192.174 115.011 187.036C113.686 181.898 114.784 176.436 117.993 172.21C120.643 168.67 124.903 166.02 129.333 166.61C130.389 166.229 131.515 166.082 132.633 166.18ZM126.263 180.47C125.373 183.66 127.193 187.54 130.763 187.94V187.9C135.033 188.38 136.743 183.58 134.503 180.51C133.566 179.201 132.193 178.504 130.814 177.805C130.191 177.489 129.568 177.173 128.983 176.8L128.853 176.72C127.57 177.62 126.651 178.95 126.263 180.47Z" fill="#231F20"/>
<path fill-rule="evenodd" clip-rule="evenodd" d="M330.403 162C337.043 160.49 344.873 163.21 348.633 169.15C354.813 178.9 349.053 192.37 337.843 194.7C332.356 195.871 326.643 194.259 322.578 190.391C318.512 186.524 316.617 180.899 317.513 175.36C318.647 169.859 322.314 165.217 327.403 162.84C328.356 162.413 329.367 162.13 330.403 162ZM328.933 175.87C328.605 177.158 328.678 178.515 329.143 179.76C330.513 183.38 335.973 184.26 338.043 180.88C340.113 177.5 337.593 173.95 333.883 174.3C332.173 174.61 330.51 175.138 328.933 175.87Z" fill="#231F20"/>
<path d="M251.223 181.98C248.533 189.58 249.933 209.37 237.923 210.53C227.373 211.53 224.033 191.65 219.463 185.6C219.075 184.976 218.427 184.559 217.699 184.464C216.97 184.369 216.238 184.606 215.703 185.11C208.653 190.64 213.993 201.26 217.373 207.41C221.453 214.84 227.233 222.41 236.533 222.52C244.993 222.64 252.123 217.3 256.213 210.18C260.593 202.55 264.213 190.5 261.083 181.98C260.415 179.818 258.416 178.343 256.153 178.343C253.89 178.343 251.891 179.818 251.223 181.98Z" fill="#231F20"/>
<path d="M110.933 205.76C109.222 204.001 106.612 203.462 104.344 204.398C102.076 205.334 100.606 207.556 100.633 210.01C100.632 211.604 101.265 213.133 102.393 214.26L102.543 214.39C103.687 215.486 105.2 216.113 106.783 216.15C108.371 216.136 109.892 215.504 111.023 214.39C112.149 213.266 112.782 211.741 112.783 210.15C112.717 208.573 112.093 207.07 111.023 205.91L110.933 205.76Z" fill="#231F20"/>
<path d="M348.953 206.23C349.012 209.861 351.942 212.791 355.573 212.85C357.324 212.826 358.999 212.132 360.253 210.91C362.146 209.017 362.712 206.17 361.687 203.697C360.663 201.224 358.25 199.611 355.573 199.61C353.822 199.632 352.146 200.326 350.893 201.55C349.658 202.795 348.961 204.476 348.953 206.23Z" fill="#231F20"/>
</svg>
