<svg width="561" height="454" viewBox="0 0 561 454" fill="none" xmlns="http://www.w3.org/2000/svg">
<path d="M458.541 209.374C458.823 208.602 459.196 207.867 459.651 207.184C454.738 197.327 448.249 188.339 440.441 180.574C431.302 171.73 420.51 164.774 408.681 160.104C404.771 178.604 399.781 204.604 413.981 219.904C427.141 234.064 452.251 226.764 458.541 209.374Z" fill="white"/>
<path d="M368.219 330.753C350.029 337.643 340.159 355.753 332.289 372.583C355.809 371.023 379.289 366.483 400.699 357.083C400.845 356.168 401.114 355.277 401.499 354.433C404.959 346.883 400.819 337.813 394.709 332.923C387.219 326.933 376.729 327.573 368.219 330.753Z" fill="white"/>
<path d="M348.09 201.423C370.5 197.623 378.9 170.953 390.49 154.113C379.198 151.341 367.712 149.429 356.13 148.393C353.864 148.353 351.627 148.297 349.42 148.223C343.22 148.003 337.097 147.57 331.05 146.923C331.703 148.253 331.953 149.744 331.77 151.213C330.24 165.833 321.41 205.943 348.09 201.423Z" fill="white"/>
<path d="M263 206.804C276.76 206.804 285.7 194.124 292.26 183.694C299.95 171.474 307.18 158.944 314.62 146.574C314.814 146.27 315.027 145.979 315.26 145.704C294.41 144.544 273.51 143.004 253.26 138.124C248.68 155.224 236.6 206.844 263 206.804Z" fill="white"/>
<path d="M224.06 328.573C221.5 318.843 217.93 306.203 210.68 298.793C196.16 283.943 169.63 328.343 165.21 339.263C165.05 339.643 164.86 339.973 164.68 340.313C184 351.313 205.32 359.023 227.39 364.243C228.155 352.252 227.031 340.215 224.06 328.573Z" fill="white"/>
<path d="M185.4 153.263C203.4 164.883 223.4 146.983 234.6 132.443C218.67 126.333 204.43 116.923 188.81 110.203C182.6 115.813 176.81 121.903 175.17 130.493C173.45 139.573 177.74 148.323 185.4 153.263Z" fill="white"/>
<path d="M282.489 325.923C265.789 333.433 259.219 354.573 247.199 368.213C269.172 371.815 291.415 373.505 313.679 373.263C313.542 372.703 313.465 372.13 313.449 371.553C313.029 356.013 308.769 314.113 282.489 325.923Z" fill="white"/>
<path fill-rule="evenodd" clip-rule="evenodd" d="M108.659 378.993C80.049 360.763 55.269 336.633 39.219 306.473C31.4493 291.527 25.8369 275.554 22.549 259.033C21.369 242.223 22.289 225.143 23.289 208.573C24.939 182.633 28.679 156.743 36.549 131.923C50.779 86.9131 80.779 47.0831 126.779 31.6131C147.519 24.6431 170.169 23.4231 190.909 31.0831C205.565 36.4966 218.275 45.7189 230.978 54.9352C239.675 61.2455 248.368 67.5529 257.679 72.6331C265.122 76.6744 272.873 80.1217 280.859 82.9431L282.919 84.1531C304.657 96.3629 328.629 104.073 353.409 106.823C367.835 108.422 383.3 108.043 398.967 107.658C410.83 107.367 422.809 107.073 434.539 107.633C459.529 111.703 483.609 118.583 504.189 134.093C506.319 135.715 508.365 137.444 510.319 139.273C542.539 175.983 541.059 231.273 530.099 276.663C519.139 322.053 495.899 367.533 454.379 391.843C431.529 405.203 405.339 411.723 379.529 416.423C351.952 421.348 323.956 423.529 295.949 422.933C241.3 421.752 187.28 411.006 136.339 391.183C126.909 387.533 117.659 383.503 108.659 378.993ZM89.439 109.043C76.889 125.353 71.009 145.363 68.009 165.473V165.483C64.459 189.263 62.849 213.753 66.499 237.633C72.149 275.073 90.989 305.683 116.989 329.473C140.529 355.763 171.879 374.343 205.319 385.473C249.859 400.323 298.669 402.953 345.319 400.683C367.309 399.613 389.409 396.613 409.679 387.613C428.729 379.203 444.279 365.363 456.829 348.923C482.429 315.383 501.269 269.203 498.429 226.513C495.779 186.683 473.399 151.173 435.149 137.323C412.379 129.076 388.264 128.641 364.127 128.206C360.11 128.134 356.092 128.062 352.079 127.953C342.859 127.183 333.599 126.673 324.359 126.183C319.439 125.603 314.539 124.823 309.689 123.823C285.749 118.793 264.179 109.193 242.899 97.3831C230.009 90.2131 216.959 83.3331 203.009 78.9031C190.269 73.1631 176.179 71.8531 162.349 73.8531C134.439 75.2231 106.949 86.3031 89.439 109.043Z" fill="#BE1E2D"/>
<path d="M148 329.623C147.533 316.223 147.067 302.83 146.6 289.443C146.22 278.723 148.6 260.493 138.96 252.963C130.3 246.183 116.88 250.773 111.09 259.053C107.25 264.553 106.09 270.853 106.09 277.293C110.877 289.037 117.294 300.048 125.15 310.003C132.16 317.218 139.808 323.785 148 329.623Z" fill="white"/>
<path fill-rule="evenodd" clip-rule="evenodd" d="M11.9399 300.163C7.84004 286.93 5.40133 273.238 4.67993 259.403C2.5189 246.93 1.15945 234.331 0.609933 221.683C-1.87007 170.793 2.40993 115.593 28.5099 70.6833C53.3433 27.9607 98.6448 1.26638 148.05 0.24331C169.395 -0.270417 190.571 4.14749 209.93 13.1533L291.93 54.2433C319.511 68.0804 349.221 77.1839 379.82 81.1733C387.576 82.1994 395.376 83.05 403.184 83.9014C418.126 85.5308 433.094 87.163 447.82 90.0333C449.73 90.2333 451.64 90.4433 453.56 90.6933C477.11 93.7833 499.29 102.453 516.68 118.573C522.199 122.769 527.272 127.521 531.82 132.753C549.91 153.513 556.7 179.893 559.38 206.753C564.64 259.493 556.99 316.813 527.8 362.053C499.01 406.683 450.8 434.503 399.68 445.853C339.68 459.183 276.03 452.323 216.43 439.933C174.53 431.223 133.07 417.043 97.1699 393.793C81.7399 385.973 67.0599 376.763 54.0599 365.163C34.5121 347.608 19.9768 325.177 11.9399 300.163ZM36.5499 131.943C28.6999 156.763 24.9399 182.653 23.2899 208.573C22.2399 225.123 21.3699 242.203 22.5499 259.013C25.836 275.542 31.4485 291.521 39.2199 306.473C55.2699 336.633 80.0499 360.763 108.66 378.993C117.62 383.503 126.91 387.533 136.34 391.183C187.281 411.007 241.301 421.752 295.95 422.933C323.957 423.529 351.953 421.348 379.53 416.423C405.38 411.723 431.56 405.203 454.38 391.843C495.9 367.573 519.17 321.973 530.1 276.683C541.03 231.393 542.54 176.003 510.32 139.293C508.366 137.464 506.32 135.735 504.19 134.113C483.61 118.603 459.54 111.723 434.54 107.653C422.839 107.094 410.891 107.393 399.056 107.689C383.359 108.081 367.863 108.468 353.41 106.843C328.63 104.093 304.658 96.3831 282.92 84.1733L280.86 82.9633C272.874 80.142 265.123 76.6946 257.68 72.6533C248.369 67.5731 239.676 61.2657 230.979 54.9555C218.276 45.7391 205.566 36.5168 190.91 31.1033C170.17 23.4433 147.52 24.6333 126.78 31.6333C80.7699 47.1033 50.7999 86.9433 36.5499 131.943Z" fill="#231F20"/>
<path fill-rule="evenodd" clip-rule="evenodd" d="M116.94 329.453C140.48 355.773 171.83 374.353 205.27 385.453C249.86 400.303 298.67 402.933 345.27 400.663C367.27 399.593 389.36 396.563 409.63 387.593C428.68 379.183 444.23 365.343 456.78 348.903C482.37 315.363 501.22 269.183 498.38 226.493C495.73 186.663 473.38 151.153 435.1 137.303C412.333 129.057 388.185 128.621 364.072 128.187L364.072 128.187L364.071 128.187L364.071 128.187L364.07 128.187L364.07 128.186L364.07 128.186L364.069 128.186C360.053 128.114 356.038 128.042 352.03 127.933C342.81 127.173 333.55 126.653 324.31 126.163C319.39 125.583 314.49 124.823 309.64 123.803C285.7 118.803 264.13 109.173 242.85 97.3631C229.93 90.1931 216.91 83.3631 202.96 78.8831C190.22 73.1431 176.13 71.7931 162.3 73.8331C134.35 75.2031 106.9 86.2831 89.39 109.023C76.84 125.333 70.95 145.343 67.96 165.453C64.41 189.233 62.8 213.723 66.4 237.583C72.1 275.053 90.94 305.663 116.94 329.453ZM408.68 160.103C420.509 164.773 431.301 171.729 440.44 180.573C448.259 188.337 454.758 197.325 459.68 207.183C459.225 207.867 458.853 208.602 458.57 209.373C452.28 226.763 427.17 234.063 414.03 219.903C399.8 204.573 404.79 178.573 408.68 160.103ZM400.68 357.083C400.826 356.168 401.095 355.276 401.48 354.433H401.5C404.96 346.883 400.82 337.813 394.69 332.923C387.2 326.933 376.71 327.533 368.2 330.753C350.01 337.643 340.14 355.743 332.27 372.583C355.79 371.023 379.23 366.483 400.68 357.083ZM331.05 146.923C337.103 147.59 343.227 148.023 349.42 148.223C351.62 148.29 353.857 148.346 356.13 148.393C367.711 149.429 379.198 151.341 390.49 154.113C387.652 158.236 385.005 162.949 382.296 167.771C373.943 182.643 365.005 198.554 348.09 201.423C324.496 205.42 328.673 174.514 331.012 157.2L331.013 157.198C331.319 154.935 331.593 152.903 331.77 151.213C331.952 149.744 331.702 148.253 331.05 146.923ZM258.523 351.968L258.522 351.968L258.522 351.968L258.522 351.968L258.522 351.968C254.967 357.698 251.418 363.419 247.2 368.213C269.159 371.813 291.389 373.502 313.64 373.263C313.503 372.703 313.426 372.13 313.41 371.553C313.03 356.013 308.77 314.113 282.49 325.923C271.66 330.793 265.082 341.396 258.523 351.968ZM253.29 138.123C273.51 143.003 294.41 144.543 315.29 145.703C315.058 145.979 314.844 146.269 314.65 146.573C312.259 150.548 309.89 154.539 307.521 158.532L307.52 158.532L307.52 158.533L307.52 158.533L307.52 158.533L307.519 158.534L307.519 158.534C302.515 166.965 297.508 175.401 292.29 183.693C285.73 194.123 276.79 206.783 263.03 206.803C236.6 206.843 248.68 155.223 253.29 138.123ZM188.81 110.203C182.6 115.813 176.81 121.903 175.17 130.493C173.45 139.573 177.74 148.323 185.4 153.263C203.39 164.883 223.36 146.983 234.6 132.443C225.825 129.078 217.563 124.711 209.301 120.344L209.301 120.344C202.564 116.783 195.826 113.222 188.81 110.203ZM165.17 339.243C169.68 328.323 196.16 283.923 210.68 298.773C217.93 306.183 221.5 318.823 224.06 328.553C227.032 340.195 228.155 352.232 227.39 364.223C205.32 359.003 184 351.223 164.68 340.293C164.718 340.221 164.757 340.149 164.796 340.077C164.939 339.81 165.084 339.542 165.21 339.243H165.17ZM138.92 252.963C130.26 246.183 116.84 250.773 111.05 259.053H111.09C107.25 264.573 106.04 270.853 106.1 277.293C110.887 289.037 117.304 300.048 125.16 310.003C132.154 317.216 139.785 323.782 147.96 329.623C147.487 316.223 147.02 302.83 146.56 289.443C146.49 287.481 146.512 285.267 146.536 282.914C146.64 272.408 146.771 259.115 138.92 252.963Z" fill="#231F20"/>
</svg>
