<svg width="571" height="392" viewBox="0 0 571 392" fill="none" xmlns="http://www.w3.org/2000/svg">
<path d="M304.631 87.7895C293.071 88.1395 281.521 88.3895 269.961 88.5995C265.041 88.6895 259.281 89.2095 253.871 88.7095C256.355 95.0301 258.419 101.507 260.051 108.099C269.431 107.789 278.821 107.629 288.201 107.399C292.157 107.448 295.353 110.643 295.401 114.599C294.921 136.409 295.121 158.219 296.131 180.009C297.061 200.159 300.131 220.399 300.911 240.539L329.551 240.469C331.061 196.639 330.501 152.189 325.341 108.649C324.881 104.649 328.961 101.649 332.461 101.529C343.341 101.059 354.261 100.999 365.171 100.939C365.011 95.9195 364.854 90.9195 364.701 85.9395C344.701 86.6195 324.631 87.1795 304.631 87.7895Z" fill="#FFF200"/>
<path fill-rule="evenodd" clip-rule="evenodd" d="M544.941 20.4298C550.351 20.8998 552.182 23.4998 553.411 28.4998C555.29 36.1521 555.563 44.4299 555.832 52.5647C555.956 56.336 556.08 60.0766 556.362 63.7098C556.584 66.5155 556.754 69.3486 556.926 72.193L556.927 72.206C557.048 74.2235 557.17 76.2466 557.311 78.2698C557.179 81.3973 557.044 84.525 556.91 87.653L556.908 87.6984L556.905 87.7494C556.069 107.202 555.232 126.664 554.802 146.14C554.401 164.293 553.835 182.44 553.102 200.58C552.936 204.726 552.611 209.006 552.281 213.346C551.811 219.516 551.333 225.809 551.292 232.02C550.797 236.326 550.741 240.759 550.687 245.087C550.662 247.061 550.637 249.012 550.571 250.92C550.508 252.744 550.453 254.571 550.399 256.398L550.399 256.403L550.398 256.407C550.29 260.045 550.181 263.687 550.001 267.32C549.621 275.011 546.53 275.179 540.232 275.523C539.741 275.549 539.231 275.577 538.701 275.61C527.111 276.32 515.501 276.88 503.891 277.17C495.463 277.384 487.035 278.286 478.157 279.235L478.156 279.235L478.153 279.236L478.145 279.237C475.44 279.526 472.693 279.82 469.891 280.1C467.411 280.23 465.001 281.74 463.891 285.1C460.401 295.638 457.845 306.557 455.297 317.443L455.297 317.443C454.034 322.837 452.773 328.222 451.401 333.55C448.808 343.483 446.178 353.4 443.511 363.3L443.162 362.647C430.336 338.68 417.376 314.462 401.401 292.66C400.3 291.259 398.567 290.507 396.791 290.66C391.365 288.503 385.67 289.03 379.85 289.569L379.845 289.57C378.652 289.68 377.454 289.791 376.251 289.88C370.632 290.3 365.032 290.745 359.415 291.19L359.407 291.191C356.081 291.455 352.748 291.719 349.401 291.98C345.612 292.276 341.823 292.576 338.033 292.876L338.002 292.879C324.932 293.914 311.86 294.949 298.781 295.84C264.427 298.025 229.977 298.305 195.591 296.68C188.349 296.368 181.106 296.023 173.862 295.677L173.857 295.676L173.851 295.676C146.893 294.389 119.923 293.101 92.9215 293.59C88.8714 293.662 84.2546 293.989 79.3425 294.336C55.5229 296.023 24.7616 298.202 18.0215 274.16C20.1364 266.83 19.8634 259.153 19.5922 251.529L19.5922 251.529C19.5442 250.177 19.4961 248.826 19.4615 247.48C19.1882 237.173 18.9248 226.87 18.6715 216.57C18.1648 195.963 17.6982 175.353 17.2715 154.74C17.1677 149.562 17.0755 144.377 16.9831 139.185C16.3994 106.362 15.8116 73.3084 12.2715 40.7398C12.2715 35.3098 12.9315 30.1398 15.3315 26.5198C22.6418 15.4893 43.5765 16.7832 58.3336 17.6954C61.7444 17.9062 64.8252 18.0966 67.3315 18.1098C102.324 18.281 137.317 17.8869 172.31 17.4927C184.317 17.3574 196.324 17.2222 208.331 17.1098C221.264 16.9864 234.201 16.8071 247.142 16.6278C280.34 16.1679 313.554 15.7077 346.731 16.1898C369.78 16.5295 392.778 18.0251 415.775 19.5207C439.493 21.0632 463.21 22.6056 486.981 22.8798C499.691 23.0098 512.422 22.8198 525.112 22.0098C527.378 21.8661 529.765 21.5508 532.184 21.2311C536.499 20.6611 540.917 20.0774 544.941 20.4298ZM213.911 188.276C220.065 155.244 226.228 122.165 230.411 88.9698H230.381C231.111 83.2398 224.761 80.6098 220.241 82.1598C206.801 82.6731 193.355 83.2064 179.901 83.7598C177.191 83.8598 173.641 85.8598 173.191 88.8598C172.517 93.4944 171.844 98.1291 171.172 102.764C168.671 119.989 166.17 137.212 163.601 154.43C162.412 151.59 161.227 148.748 160.042 145.907L160.041 145.904L160.039 145.901C158.017 141.051 155.994 136.201 153.951 131.36C152.751 128.51 150.591 126.27 147.261 126.27L126.261 126.46C122.458 126.503 119.385 129.576 119.341 133.38C119.157 140.218 118.489 147.036 117.341 153.78C110.675 129.686 104.675 105.44 99.3415 81.0398C98.5376 78.216 95.9674 76.2608 93.0315 76.2398C91.1036 76.2835 89.1923 76.316 87.2933 76.3484C79.2044 76.486 71.3387 76.6198 63.3615 77.5998C59.5515 74.9398 53.3015 76.0698 53.6615 82.0698C54.2079 91.2325 56.3473 100.257 58.4705 109.213C59.0284 111.567 59.5851 113.915 60.1115 116.26C62.9248 128.82 65.7615 141.37 68.6215 153.91C69.156 156.252 69.6904 158.593 70.2247 160.935C75.2784 183.083 80.3313 205.228 85.5315 227.34C85.8967 228.885 86.2115 230.591 86.5398 232.372C87.9644 240.095 89.6454 249.209 96.8215 252.59C103.128 255.589 112.506 254.971 120.201 254.464C121.768 254.361 123.265 254.262 124.651 254.2C134.531 253.75 139.041 249.56 142.281 240.33C144.431 234.19 146.311 227.93 148.021 221.64C148.606 222.605 149.192 223.57 149.778 224.533L149.778 224.534L149.797 224.564L149.799 224.568L149.801 224.571C150.761 226.15 151.72 227.728 152.671 229.31C153.218 230.218 153.758 231.143 154.3 232.073L154.301 232.074C156.967 236.643 159.709 241.34 163.671 244.83C173.431 253.43 187.161 251.34 198.721 248.43C201.031 247.84 203.611 245.62 204.031 243.13C207.097 224.852 210.503 206.571 213.911 188.276ZM363.512 115.991H363.509H363.508C355.715 116.018 347.918 116.045 340.131 115.91C343.131 159.8 345.131 203.4 343.411 247.47C343.322 251.298 340.24 254.38 336.411 254.47C322.598 254.51 308.788 254.563 294.981 254.63C290.631 254.63 288.381 251.44 288.191 248.06C288.04 247.701 287.92 247.329 287.831 246.95C284.027 229.273 283.212 210.35 282.423 192.028C282.275 188.583 282.128 185.16 281.961 181.77C280.961 161.84 280.721 141.89 280.961 121.95C280.106 121.973 279.251 121.997 278.396 122.02L278.362 122.021C270.467 122.239 262.565 122.458 254.671 122.53C251.466 122.498 248.663 120.362 247.781 117.28C247.472 115.967 247.158 114.659 246.844 113.354C244.554 103.82 242.301 94.4397 242.221 84.6498C241.041 83.3898 240.561 81.1798 242.131 79.9498L242.471 79.7198C242.717 78.7644 243.344 77.952 244.207 77.4734C245.07 76.9948 246.091 76.8923 247.031 77.1898C252.749 74.8946 259.62 74.6676 265.908 74.4598L265.908 74.4598C267.318 74.4132 268.699 74.3676 270.031 74.2998C280.981 73.7498 291.921 73.2198 302.871 72.7998C309.39 72.5544 315.908 72.3003 322.426 72.0461L322.427 72.0461C339.019 71.3992 355.61 70.7523 372.201 70.2498C376.431 70.1198 379.781 73.8698 379.871 77.9298C380.111 88.0764 380.348 98.2264 380.581 108.38C380.554 112.571 377.163 115.963 372.971 115.99L373.001 115.97C369.84 115.97 366.676 115.981 363.512 115.991ZM454.951 113.21C473.731 113.296 492.511 113.28 511.291 113.16L511.261 113.18C515.081 113.16 518.711 109.86 518.631 105.98C518.205 95.6464 517.781 85.3131 517.361 74.9798C517.211 71.1098 514.131 67.5198 510.031 67.6498C493.232 68.1538 476.432 68.7797 459.632 69.4057L456.031 69.5398C451.881 69.7023 447.632 69.7715 443.339 69.8413C430.203 70.0551 416.657 70.2754 404.281 73.1998C403.24 73.4439 402.321 74.0543 401.691 74.9198C399.177 75.4947 397.417 77.7616 397.481 80.3398C396.257 107.423 398.071 134.607 399.876 161.664C399.958 162.89 400.04 164.115 400.121 165.34C400.277 167.672 400.43 170.007 400.584 172.344C402.255 197.733 403.939 223.324 407.601 248.47C407.929 250.97 409.839 252.969 412.321 253.41C413.614 254.371 415.203 254.848 416.811 254.76C428.238 254.466 439.658 254.1 451.071 253.66C455.175 253.58 458.482 250.273 458.561 246.17C458.861 223.74 458.611 201.33 458.011 178.91C466.791 177.783 475.571 176.67 484.351 175.57C488.021 175.09 491.501 172.72 491.351 168.57C491.044 160.063 491.379 151.546 492.351 143.09C492.781 139.39 488.841 136.19 485.451 136.19C480.238 136.236 475.028 136.26 469.821 136.26H462.881C462.215 136.26 461.435 136.155 460.719 136.059C459.36 135.876 458.234 135.725 458.561 136.38C457.357 134.476 457.058 129.963 456.819 126.352C456.713 124.748 456.618 123.321 456.461 122.38C455.951 119.32 455.451 116.27 454.951 113.21Z" fill="#009444"/>
<path d="M173.192 181.249C172.382 186.889 162.892 188.079 160.682 182.879C154.622 168.673 148.622 154.439 142.682 140.179L132.802 140.259C131.869 154.446 129.017 168.44 124.322 181.859C122.122 188.159 113.042 188.629 111.032 181.859C101.965 151.326 94.192 120.483 87.712 89.3294C81.3154 89.3929 74.9224 88.9986 68.582 88.1494C73.942 103.959 76.582 121.289 80.412 137.329L93.522 192.759C95.632 201.699 97.632 210.699 99.692 219.619C100.692 224.199 101.252 229.569 102.972 233.949C105.182 239.569 105.772 238.789 111.922 238.819C115.052 238.819 121.812 240.149 124.602 238.879C128.602 237.039 128.992 231.979 130.302 227.819C133.142 218.759 135.612 209.599 137.832 200.359C139.372 193.939 148.332 193.209 151.562 198.569C157.392 208.219 163.112 217.979 169.162 227.479C174.692 236.169 181.582 236.479 190.102 234.809C194.329 210.896 198.479 186.973 202.552 163.039C206.322 140.859 209.372 118.369 213.782 96.2694L185.782 97.4194C181.512 125.349 177.222 153.279 173.192 181.249Z" fill="#FFF200"/>
<path d="M456.002 83.6994C440.902 84.0994 424.612 85.6494 409.422 83.9394C412.052 110.369 412.822 136.939 414.682 163.449C416.462 188.889 419.412 214.269 421.262 239.709C428.735 239.389 436.202 239.103 443.662 238.849C444.022 216.779 444.062 194.709 443.662 172.639C443.582 168.439 447.012 165.989 450.762 165.539C459.622 164.499 468.479 163.443 477.332 162.369C477.332 158.209 477.542 154.079 477.882 149.939C472.302 149.939 466.722 149.939 461.152 149.939C456.822 149.889 452.152 150.109 448.742 146.939C444.742 143.199 444.862 136.289 444.102 131.389C442.892 123.649 441.752 115.899 440.432 108.179C439.672 103.799 442.242 99.6194 447.022 99.5294C465.909 99.1561 484.802 98.8728 503.702 98.6794L502.992 82.4194C487.319 82.9194 471.655 83.3461 456.002 83.6994Z" fill="#FFF200"/>
<path fill-rule="evenodd" clip-rule="evenodd" d="M560.142 9.51965C565.902 14.3396 568.212 21.4996 569.142 28.7496C570.492 39.102 570.151 49.9711 569.822 60.4729C569.788 61.5661 569.754 62.6554 569.722 63.7396C569.672 65.2116 569.629 66.6955 569.585 68.1877C569.446 72.9404 569.305 77.7774 568.932 82.5797C569.842 103.72 570.362 124.85 569.932 146.17C569.559 164.323 569.022 182.47 568.322 200.61C568.183 204.238 568.144 208.015 568.104 211.865C568.022 219.686 567.937 227.809 567.012 235.61C567.236 241.114 566.866 246.785 566.51 252.25C566.294 255.553 566.084 258.78 566.012 261.85C566.004 262.182 565.997 262.516 565.989 262.851C565.747 273.609 565.475 285.673 553.352 289.65C543.54 292.869 531.603 292.597 520.597 292.346C517.38 292.273 514.243 292.202 511.262 292.22C509.285 292.232 507.243 292.237 505.158 292.242C495.83 292.264 485.656 292.288 476.772 293.04C473.174 317.586 466.35 340.992 459.469 364.589C457.4 371.686 455.325 378.801 453.332 385.97C451.582 392.25 442.442 393.71 439.212 387.81C436.206 382.33 433.151 376.853 430.091 371.365C417.684 349.122 405.182 326.705 395.452 303.26C390.923 305.251 385.571 305.529 380.481 305.793C379.053 305.867 377.645 305.94 376.282 306.05C370.463 306.523 364.64 306.963 358.818 307.403C356.286 307.594 353.753 307.786 351.222 307.98C346.883 308.312 342.544 308.649 338.205 308.986C325.683 309.96 313.16 310.933 300.632 311.78C258.798 314.61 217.26 312.847 175.628 311.081C156.505 310.27 137.362 309.458 118.162 309.09C103.162 308.81 88.162 308.9 73.162 309.66C71.7688 309.729 70.3719 309.806 68.9722 309.883C57.5424 310.508 45.9339 311.144 34.762 308.24C19.252 304.2 0.832028 287.79 5.16203 270.86C3.58192 264.38 3.55908 257.542 3.53662 250.814C3.53079 249.069 3.52498 247.332 3.49203 245.61C3.28536 235.303 3.09869 225 2.93203 214.7C2.58536 194.7 2.27203 174.7 1.99203 154.7C1.94772 151.456 1.90045 148.209 1.85312 144.957C1.48387 119.59 1.11154 94.0115 2.12203 68.5896C1.74938 64.1041 1.52436 59.5614 1.30237 55.0798C1.20268 53.0672 1.1036 51.0669 0.992028 49.0896C0.923467 47.8497 0.838973 46.6004 0.754157 45.3463C0.10909 35.8082 -0.55454 25.9957 5.63203 17.9796C16.1958 4.21084 36.8181 4.18215 53.683 4.15868C56.5506 4.15469 59.3096 4.15086 61.892 4.07965C102.28 2.99432 142.692 2.54296 183.1 2.09164C195.188 1.95663 207.275 1.82162 219.362 1.66965C231.789 1.51238 244.23 1.27448 256.677 1.03645C296.466 0.275587 336.322 -0.486546 375.992 1.37965C389.703 2.02464 403.42 2.92883 417.142 3.83332C455.544 6.36456 493.981 8.89816 532.402 5.75965C533.622 5.66065 534.855 5.53967 536.094 5.41808C544.49 4.59397 553.171 3.74205 560.142 9.51965ZM553.102 200.59C553.835 182.45 554.402 164.303 554.802 146.15C555.302 123.51 556.352 100.89 557.412 78.2896C557.271 76.2623 557.149 74.235 557.027 72.2134C556.855 69.3688 556.684 66.5356 556.462 63.7296C556.158 60.0164 556.024 56.1933 555.89 52.3406C555.609 44.282 555.323 36.0938 553.462 28.5096C552.232 23.4396 550.402 20.9096 544.992 20.4396C540.968 20.0872 536.55 20.6709 532.235 21.241C529.816 21.5606 527.429 21.876 525.162 22.0196C512.472 22.8296 499.742 23.0396 487.032 22.8896C463.311 22.6161 439.643 21.0744 415.975 19.5327C392.928 18.0315 369.881 16.5302 346.782 16.1996C313.604 15.7176 280.39 16.1777 247.192 16.6377C234.252 16.817 221.314 16.9962 208.382 17.1196C196.032 17.2326 183.681 17.3705 171.331 17.5083C136.681 17.8951 102.032 18.2818 67.382 18.1196C64.8766 18.1065 61.7954 17.9162 58.3832 17.7055C43.6135 16.7933 22.643 15.4982 15.332 26.5296C12.932 30.1496 12.272 35.3196 12.272 40.7496C15.7588 73.0644 16.3612 105.856 16.959 138.396C17.059 143.838 17.1588 149.274 17.272 154.7C17.6987 175.313 18.1654 195.923 18.672 216.53C18.932 226.836 19.1954 237.14 19.462 247.44C19.4967 248.786 19.5447 250.137 19.5928 251.489C19.864 259.113 20.137 266.79 18.022 274.12C24.7621 298.162 55.5235 295.983 79.3431 294.296C84.2551 293.948 88.8719 293.621 92.922 293.55C119.923 293.061 146.893 294.349 173.852 295.636C181.099 295.982 188.346 296.328 195.592 296.64C229.978 298.265 264.427 297.984 298.782 295.8C310.025 295.066 321.289 294.18 332.552 293.295C338.17 292.854 343.788 292.412 349.402 291.99C352.386 291.756 355.37 291.52 358.355 291.283C364.32 290.81 370.286 290.336 376.252 289.89C377.454 289.801 378.652 289.69 379.846 289.58C385.675 289.04 391.389 288.512 396.792 290.67C398.567 290.517 400.3 291.269 401.402 292.67C417.481 314.667 430.521 339.035 443.436 363.168L443.512 363.31C446.225 353.416 448.855 343.5 451.402 333.56C452.774 328.232 454.034 322.847 455.297 317.453C457.845 306.567 460.401 295.648 463.892 285.11C465.002 281.73 467.412 280.22 469.892 280.11C473.719 279.776 477.526 279.374 481.305 278.975C488.972 278.165 496.524 277.367 503.892 277.18C515.502 276.89 527.112 276.33 538.702 275.62C539.212 275.588 539.704 275.561 540.177 275.535C546.488 275.186 549.621 275.013 550.002 267.33C550.182 263.694 550.291 260.05 550.399 256.408C550.454 254.581 550.509 252.754 550.572 250.93C550.638 249.014 550.659 247.054 550.679 245.072C550.725 240.752 550.771 236.328 551.292 232.03C551.333 225.808 551.814 219.489 552.284 213.305C552.613 208.974 552.937 204.709 553.102 200.59Z" fill="#231F20"/>
<path fill-rule="evenodd" clip-rule="evenodd" d="M179.802 83.7597C193.248 83.2197 206.695 82.6864 220.142 82.1597C224.762 80.6097 231.112 83.2397 230.312 88.9697C226.129 122.165 219.966 155.244 213.811 188.276C210.403 206.571 206.997 224.852 203.932 243.13C203.512 245.62 200.982 247.84 198.622 248.43C187.062 251.34 173.332 253.44 163.572 244.83C159.654 241.366 156.927 236.712 154.268 232.174C153.703 231.21 153.141 230.251 152.572 229.31C151.619 227.726 150.658 226.146 149.697 224.565C149.105 223.59 148.513 222.616 147.922 221.64C146.182 227.93 144.332 234.19 142.182 240.33C138.942 249.56 134.432 253.75 124.552 254.2C123.228 254.263 121.805 254.357 120.316 254.455C112.581 254.965 103.087 255.592 96.7218 252.59C89.5958 249.233 87.921 240.235 86.4888 232.541C86.1463 230.701 85.8177 228.936 85.4318 227.34C80.3156 205.603 75.342 183.803 70.37 162.01C69.754 159.31 69.138 156.61 68.5218 153.91C65.6551 141.37 62.8184 128.82 60.0118 116.26C59.4854 113.915 58.9287 111.567 58.3708 109.213C56.2476 100.257 54.1082 91.2324 53.5618 82.0697C53.2018 76.0697 59.4518 74.9397 63.2618 77.5997C71.239 76.6198 79.1047 76.486 87.1935 76.3483C89.0925 76.316 91.0038 76.2835 92.9318 76.2397C95.8677 76.2608 98.4379 78.2159 99.2418 81.0397C104.575 105.46 110.575 129.706 117.242 153.78C118.389 147.035 119.058 140.218 119.242 133.38C119.285 129.576 122.358 126.503 126.162 126.46L147.162 126.27C150.492 126.24 152.652 128.51 153.852 131.36C155.895 136.203 157.918 141.054 159.942 145.906C161.127 148.747 162.312 151.589 163.502 154.43C166.07 137.214 168.571 119.993 171.071 102.77C171.744 98.1333 172.417 93.4965 173.092 88.8597C173.542 85.8197 177.062 83.8697 179.802 83.7597ZM190.102 234.81C194.322 210.903 198.472 186.98 202.552 163.04C203.932 154.921 205.215 146.76 206.5 138.592C208.725 124.447 210.953 110.28 213.692 96.2697L185.692 97.4197C185.004 101.931 184.314 106.441 183.625 110.951C180.045 134.365 176.466 157.772 173.112 181.25C172.302 186.88 162.812 188.08 160.602 182.88C154.602 168.666 148.602 154.433 142.602 140.18L132.722 140.26C131.789 154.446 128.937 168.44 124.242 181.86C122.042 188.16 112.952 188.63 110.952 181.86C101.845 151.353 94.0718 120.51 87.6318 89.3297C81.2485 89.3913 74.8689 88.997 68.5418 88.1497C72.1889 98.9075 74.5906 110.387 76.9503 121.667C78.0585 126.964 79.1574 132.217 80.3718 137.33L93.4818 192.76C95.5385 201.474 97.5287 210.169 99.5358 218.938L99.6918 219.62C100.038 221.129 100.325 222.724 100.616 224.341C101.209 227.631 101.819 231.013 102.972 233.95C104.926 238.919 105.613 238.908 109.998 238.839C110.572 238.83 111.21 238.82 111.922 238.82C112.871 238.823 114.153 238.946 115.558 239.081C118.786 239.392 122.658 239.765 124.602 238.88C127.799 237.424 128.685 233.951 129.565 230.504C129.797 229.595 130.028 228.688 130.302 227.82C133.142 218.76 135.612 209.6 137.832 200.36C139.372 193.94 148.332 193.21 151.562 198.57C153.112 201.135 154.654 203.708 156.196 206.282C160.456 213.391 164.72 220.505 169.162 227.48C174.692 236.17 181.582 236.52 190.102 234.81Z" fill="#231F20"/>
<path fill-rule="evenodd" clip-rule="evenodd" d="M322.376 72.096C338.968 71.4491 355.559 70.8022 372.151 70.2997C376.381 70.1697 379.731 73.9197 379.801 78.0097C380.034 88.163 380.271 98.313 380.511 108.46C380.457 112.612 377.104 115.966 372.951 116.02C370.084 116.022 367.216 116.032 364.347 116.043C356.258 116.071 348.164 116.1 340.081 115.96C343.131 159.85 345.091 203.45 343.361 247.52C343.271 251.348 340.189 254.43 336.361 254.52C322.548 254.553 308.738 254.606 294.931 254.68C290.581 254.71 288.331 251.49 288.141 248.11C287.99 247.751 287.869 247.379 287.781 247C283.976 229.314 283.162 210.395 282.373 192.075C282.225 188.631 282.077 185.209 281.911 181.82C280.911 161.89 280.641 141.94 280.911 122C280.045 122.023 279.179 122.047 278.313 122.071C270.417 122.289 262.515 122.508 254.621 122.58C251.415 122.548 248.612 120.412 247.731 117.33C247.411 115.965 247.084 114.604 246.759 113.247C244.486 103.766 242.25 94.4358 242.171 84.6997C240.991 83.4397 240.511 81.2297 242.081 79.9997L242.421 79.7697C242.666 78.8142 243.294 78.0019 244.157 77.5233C245.019 77.0447 246.041 76.9422 246.981 77.2397C252.697 74.9453 259.579 74.7176 265.859 74.5099C267.27 74.4632 268.651 74.4176 269.981 74.3497C280.931 73.7997 291.871 73.2697 302.821 72.8497C309.339 72.6043 315.858 72.3501 322.376 72.096ZM325.361 108.65C324.901 104.69 328.981 101.69 332.481 101.53C342.178 101.111 351.906 101.018 361.63 100.924C362.817 100.913 364.004 100.902 365.191 100.89C365.031 95.903 364.874 90.903 364.721 85.8897C349.555 86.4351 334.372 86.8887 319.206 87.3418C314.352 87.4868 309.5 87.6318 304.651 87.7797C293.091 88.1297 281.541 88.3797 269.981 88.5897C268.678 88.6188 267.315 88.6753 265.916 88.7334C262.034 88.8944 257.868 89.0672 253.891 88.6997C256.375 95.0236 258.44 101.504 260.071 108.1C266.463 107.888 272.86 107.747 279.255 107.605C282.244 107.539 285.233 107.473 288.221 107.4C292.177 107.448 295.373 110.644 295.421 114.6C294.941 136.41 295.151 158.22 296.151 180.01C296.597 189.664 297.543 199.34 298.489 209.015C299.517 219.532 300.546 230.05 300.931 240.54L329.571 240.47C331.081 196.65 330.521 152.19 325.361 108.65Z" fill="#231F20"/>
<path fill-rule="evenodd" clip-rule="evenodd" d="M459.552 69.3155C476.352 68.6895 493.152 68.0636 509.952 67.5596C514.052 67.4296 517.132 71.0196 517.232 74.7796C517.658 85.1196 518.082 95.4529 518.502 105.78C518.662 109.75 515.032 113.07 511.212 113.07C492.432 113.163 473.652 113.18 454.872 113.12L454.981 113.777C455.455 116.617 455.927 119.449 456.382 122.29C456.529 123.21 456.62 124.598 456.723 126.163C456.963 129.804 457.265 134.401 458.482 136.29C458.154 135.641 459.281 135.791 460.64 135.971C461.356 136.066 462.136 136.17 462.802 136.17H469.742C474.948 136.123 480.158 136.1 485.372 136.1C488.762 136.08 492.702 139.3 492.272 143C491.299 151.456 490.965 159.973 491.272 168.48C491.392 172.65 487.912 175.02 484.272 175.48C475.492 176.586 466.712 177.7 457.932 178.82C458.532 201.24 458.782 223.65 458.482 246.08C458.402 250.183 455.095 253.49 450.992 253.57C439.572 254.003 428.152 254.37 416.732 254.67C415.123 254.758 413.535 254.281 412.242 253.32C409.759 252.879 407.849 250.879 407.522 248.38C403.859 223.234 402.175 197.643 400.504 172.254C400.35 169.917 400.197 167.582 400.042 165.25C399.961 164.043 399.881 162.836 399.8 161.628C397.993 134.581 396.176 107.378 397.402 80.2496C397.337 77.6714 399.098 75.4045 401.612 74.8296C402.241 73.9641 403.16 73.3537 404.202 73.1096C416.677 70.1617 430.342 69.9442 443.577 69.7335C447.762 69.6669 451.904 69.6009 455.952 69.4496C457.152 69.4049 458.352 69.3602 459.552 69.3155ZM440.362 108.21C439.602 103.83 442.172 99.6496 446.952 99.5596L446.982 99.5396C465.868 99.1729 484.752 98.8929 503.632 98.6996L502.932 82.4296C487.245 82.8962 471.578 83.3296 455.932 83.7296C452.088 83.8314 448.166 84.0078 444.206 84.1859C432.609 84.7075 420.675 85.2442 409.352 83.9696C411.01 100.632 411.929 117.358 412.847 134.082C413.386 143.886 413.924 153.69 414.612 163.48C415.529 176.59 416.757 189.684 417.985 202.779C419.14 215.094 420.295 227.41 421.192 239.74C428.658 239.426 436.125 239.14 443.592 238.88C443.992 216.81 444.032 194.74 443.592 172.67C443.512 168.47 446.942 166.02 450.692 165.57C459.545 164.516 468.402 163.46 477.262 162.4C477.282 158.24 477.472 154.11 477.812 149.97C475.951 149.97 474.091 149.977 472.231 149.985C468.512 150.001 464.795 150.016 461.082 149.97C460.761 149.966 460.437 149.964 460.113 149.961C456.066 149.934 451.829 149.904 448.672 146.97C445.458 143.972 444.903 138.937 444.418 134.534C444.298 133.443 444.183 132.392 444.032 131.42C443.694 129.258 443.361 127.095 443.029 124.933C442.171 119.353 441.313 113.773 440.362 108.21Z" fill="#231F20"/>
</svg>
