<svg width="473" height="566" viewBox="0 0 473 566" fill="none" xmlns="http://www.w3.org/2000/svg">
<path d="M317.8 203.433C312.56 207.633 307.353 211.869 302.18 216.143C305.62 220.053 308.75 224.143 312.85 227.463C318.04 231.609 323.929 234.796 330.24 236.873C334.06 230.873 337.81 224.813 342.04 219.183C333.28 215.293 325.25 209.443 317.8 203.433Z" fill="#939598"/>
<path d="M446.568 65.9825C444.698 82.5425 443.028 99.5625 435.738 114.782C428.67 129.435 416.468 140.982 401.448 147.232C386.098 153.562 368.808 154.282 355.678 165.442C343.168 176.082 337.338 190.982 332.898 206.262C334.848 207.452 336.808 208.622 338.778 209.792C344.778 196.102 353.698 182.422 366.508 174.522C377.868 167.522 391.168 164.882 403.578 160.382C418.054 155.246 430.657 145.886 439.758 133.512C449.168 120.612 452.758 106.002 454.818 90.4225C455.958 81.7725 457.008 73.1125 458.128 64.4225C459.048 57.3325 459.438 49.7125 461.268 42.7525C460.832 37.979 460.705 33.1823 460.888 28.3925C461.06 23.7552 461.706 19.1477 462.818 14.6425C463.078 13.6425 463.398 12.5725 463.738 11.5525C459.018 18.7625 454.888 25.8425 452.318 34.4325C449.208 44.7425 447.768 55.3625 446.568 65.9825Z" fill="#8B5E3C"/>
<path d="M304.98 255.053C301.226 252.923 297.672 250.46 294.36 247.693C289.64 243.693 284.98 238.433 283.02 232.383C281.93 233.313 280.84 234.243 279.73 235.163C282.964 241.268 287.555 246.55 293.15 250.603C296.315 252.959 299.659 255.065 303.15 256.903C306.53 258.683 310.52 259.743 313.6 261.973L314.86 260.083C311.45 259.043 308.04 256.813 304.98 255.053Z" fill="#939598"/>
<path d="M329.641 204.213C333.081 188.213 341.561 171.973 354.251 161.733C366.941 151.493 382.512 150.163 397.202 144.833C415.852 138.073 429.712 123.003 435.922 104.293C441.712 86.8626 441.922 68.2926 444.922 50.2925C446.692 39.7925 449.542 27.2225 455.572 17.3425C453.38 19.3686 451.341 21.5546 449.472 23.8825C443.501 31.4124 439.205 40.1299 436.872 49.4525C432.942 65.1226 433.872 81.8726 427.932 97.0826C421.742 113.083 408.322 122.083 393.812 129.913C377.112 138.963 359.811 147.243 343.501 157.043C328.141 166.293 322.121 181.343 321.621 198.593C324.261 200.633 326.931 202.463 329.641 204.213Z" fill="#8B5E3C"/>
<path d="M336.249 154.763C343.999 149.083 352.969 144.913 361.379 140.313C370.64 135.233 379.92 130.203 389.19 125.143C397.3 120.722 405.58 116.242 412.19 109.682C416.185 105.656 419.318 100.859 421.4 95.5825C421.4 95.5825 421.4 95.5125 421.4 95.4725C421.88 91.1125 422.32 87.1225 421.4 82.7725C421.23 81.9325 421.02 81.1025 420.8 80.2725C417.58 90.2725 410.68 99.2025 403.12 106.002C391.71 116.272 377.58 122.702 363.679 128.823C349.289 135.153 333.369 141.253 322.819 153.453C313.459 164.283 311.199 177.513 316.599 189.633C317.449 176.003 325.509 162.643 336.249 154.763Z" fill="#8B5E3C"/>
<path d="M291.201 271.363C286.25 268.132 281.568 264.507 277.201 260.523C274.25 257.959 271.609 255.059 269.331 251.883C250.451 274.103 231.451 296.153 212.451 318.293C177.471 358.959 142.428 399.626 107.321 440.293C90.0344 460.346 72.7444 480.389 55.4511 500.423C42.5211 515.423 29.7411 530.653 18.1211 546.703C34.3211 532.103 48.8811 515.703 64.1711 500.143C83.0211 480.913 103.891 463.903 124.171 446.213C145.151 427.873 165.818 409.166 186.171 390.093C225.111 353.479 262.838 315.643 299.351 276.583C296.361 274.973 293.531 272.893 291.201 271.363Z" fill="#603913"/>
<path d="M298.01 219.583L294.64 222.363C291.39 225.063 288.18 227.913 284.93 230.723C288.44 236.723 292.16 242.003 297.78 246.433C301.062 248.966 304.551 251.221 308.21 253.173C310.92 254.663 314.01 255.793 316.54 257.603C319.873 252.596 323.206 247.596 326.54 242.603C315.37 238.463 303.5 230.393 298.01 219.583Z" fill="#939598"/>
<path d="M287.899 254.293C282.779 250.153 277.319 244.933 275.629 238.393C274.419 239.333 273.189 240.253 271.939 241.123C271.139 249.703 282.299 257.223 288.199 261.653C292.207 264.663 296.424 267.383 300.819 269.793C302.055 270.611 303.353 271.333 304.699 271.953C305.186 271.933 305.67 272.033 306.109 272.243C306.36 272.247 306.61 272.21 306.849 272.133C307.919 271.773 309.619 268.133 310.439 266.753C302.449 265.563 293.859 259.163 287.899 254.293Z" fill="#939598"/>
<path d="M457.39 98.0525C453.17 125.982 436.52 150.532 410.03 161.732C397.03 167.232 382.62 169.462 370.15 176.302C355.78 184.162 349.02 197.802 341 211.122L345.48 213.812C347.75 209.582 351.1 205.612 353.97 202.212C358.657 196.667 364.034 191.744 369.97 187.562C382.26 178.882 395.76 175.442 410.11 171.802C425.23 167.952 437.65 160.642 447.62 148.522C452.349 142.581 456.401 136.132 459.7 129.292C460.85 124.622 461.87 120.002 462.79 115.482C464.79 105.562 466.37 95.7325 466.03 85.5725C465.7 75.7925 464.12 66.1125 462.81 56.4225V56.2925C462.15 61.3525 461.29 66.4025 460.71 71.2925C459.63 80.1925 458.73 89.1525 457.39 98.0525Z" fill="#8B5E3C"/>
<path d="M377.25 187.143C370.337 191.265 364.058 196.368 358.61 202.293C354.82 206.423 352.11 211.293 349 215.843H349.27C354.71 209.603 364.64 206.323 372.22 204.173C382.05 201.383 392.219 200.013 402.159 197.833C413.419 195.373 424.229 191.593 433.449 184.473C436.545 182.078 439.41 179.4 442.009 176.472C447.981 165.643 452.72 154.178 456.139 142.292C454.829 144.292 453.479 146.172 452.139 147.992C444.139 158.592 433.949 167.302 421.449 171.992C406.629 177.673 391.099 178.903 377.25 187.143Z" fill="#8B5E3C"/>
<path d="M379.218 206.013C373.939 207.143 368.774 208.753 363.788 210.823C361.007 212.112 358.349 213.652 355.848 215.423C360.218 215.733 364.638 216.923 369.018 217.683C378.825 219.229 388.864 218.294 398.218 214.963C413.848 209.633 425.738 199.693 434.908 187.323C427.624 192.781 419.397 196.849 410.638 199.323C400.318 202.233 389.658 203.603 379.218 206.013Z" fill="#8B5E3C"/>
<path fill-rule="evenodd" clip-rule="evenodd" d="M314.063 272.837C312.162 275.895 309.992 279.386 306.019 278.993H305.829C285.069 301.346 263.863 323.259 242.209 344.733C203.029 383.539 162.619 420.973 120.979 457.033C119.285 458.502 117.59 459.97 115.895 461.438L115.895 461.438C97.3947 477.459 78.9821 493.404 61.9794 511.103C59.3368 513.853 56.7065 516.618 54.0759 519.383C38.6893 535.555 23.2934 551.737 5.35944 565.213C2.75944 567.173 -1.48056 564.613 0.519441 561.403C16.2694 536.293 35.4594 513.763 54.7694 491.403C73.7975 469.373 92.7921 447.314 111.787 425.256C163.228 365.517 214.668 305.779 266.769 246.623C266.199 244.636 266.241 242.525 266.889 240.563C266.727 239.799 266.931 239.004 267.439 238.413C272.733 232.412 279.161 227.155 285.461 222.002L285.461 222.002L285.462 222.001L285.463 222.001L285.463 222L285.464 221.999L285.465 221.999L285.466 221.998L285.466 221.998L285.467 221.997L285.468 221.996C287.365 220.445 289.25 218.903 291.089 217.353C298.969 210.746 306.909 204.223 314.909 197.783C307.119 187.533 305.779 173.493 310.909 161.673C317.329 146.983 331.029 137.663 344.909 130.803C349.752 128.408 354.693 126.2 359.634 123.991C369.531 119.569 379.429 115.145 388.539 109.223C403.569 99.4426 413.679 86.2026 416.759 68.4426C416.884 67.7051 417.312 67.0535 417.939 66.6451C418.565 66.2368 419.334 66.109 420.059 66.2926C420.724 66.1168 421.431 66.2146 422.023 66.5642C422.615 66.9137 423.042 67.4858 423.209 68.1526C423.618 69.3882 424.085 70.7037 424.573 72.079L424.573 72.0795C425.076 73.4978 425.602 74.9796 426.109 76.5026C426.556 73.5346 426.936 70.5592 427.316 67.5871C428.691 56.8401 430.06 46.1371 434.509 35.9926C441.009 21.2026 453.449 6.59258 468.569 0.282579C471.599 -0.977421 474.039 2.25258 472.499 4.52258C472.407 6.56493 471.345 8.78407 470.352 10.857C469.727 12.164 469.129 13.4128 468.819 14.5226C467.266 20.5064 466.592 26.6846 466.819 32.8626C466.995 41.6953 468.348 50.4231 469.699 59.1394C470.118 61.8406 470.536 64.5408 470.919 67.2426C472.299 76.9026 473.329 86.6826 472.579 96.4526C471.779 106.823 469.469 117.113 467.179 127.243C462.449 148.083 455.729 168.973 443.549 186.763C432.649 202.633 417.699 215.683 399.209 221.763C390.877 224.553 382.073 225.661 373.309 225.023C370.637 224.816 367.803 224.17 364.921 223.512C359.014 222.165 352.903 220.771 347.559 223.023L347.249 223.123C343.178 230.189 338.403 236.992 333.662 243.748L333.661 243.749L333.661 243.749L333.66 243.75L333.66 243.75L333.66 243.75L333.66 243.751C331.182 247.281 328.714 250.798 326.359 254.333L315.019 271.333C314.703 271.807 314.387 272.316 314.063 272.837ZM369.019 217.713C378.827 219.259 388.866 218.324 398.219 214.993V214.963C413.849 209.633 425.739 199.693 434.909 187.343C427.626 192.801 419.399 196.869 410.639 199.343C404.46 201.091 398.158 202.284 391.855 203.477C387.632 204.276 383.408 205.076 379.219 206.043C373.94 207.173 368.776 208.783 363.789 210.853C361.009 212.142 358.351 213.682 355.849 215.453C358.792 215.661 361.758 216.269 364.718 216.876C366.154 217.17 367.589 217.464 369.019 217.713ZM456.138 142.293C452.712 154.14 447.972 165.568 442.008 176.363C439.41 179.29 436.544 181.968 433.448 184.363C424.229 191.483 413.449 195.263 402.159 197.723C398.552 198.509 394.932 199.19 391.315 199.87C384.903 201.076 378.504 202.279 372.219 204.063C364.639 206.213 354.709 209.493 349.269 215.733H348.999C349.871 214.458 350.711 213.157 351.553 211.855C353.713 208.511 355.882 205.155 358.609 202.183C364.056 196.251 370.335 191.142 377.249 187.013C385.843 181.9 395.083 179.486 404.39 177.055C410.082 175.568 415.799 174.074 421.409 171.953C433.908 167.213 444.108 158.503 452.098 147.953C453.448 146.213 454.828 144.293 456.138 142.293ZM462.812 56.3591L462.809 56.3426L462.829 56.2226L462.812 56.3591ZM461.868 62.9969C462.193 60.7987 462.521 58.5819 462.812 56.3591C463.043 58.0665 463.282 59.7735 463.521 61.4809C464.639 69.4579 465.758 77.4414 466.029 85.4926C466.369 95.6526 464.819 105.493 462.789 115.403C461.869 119.923 460.849 124.543 459.699 129.213C456.412 136.064 452.37 142.527 447.649 148.483C437.649 160.603 425.259 167.913 410.139 171.763C395.789 175.403 382.289 178.843 369.999 187.523C364.063 191.704 358.686 196.627 353.999 202.173C351.129 205.573 347.779 209.543 345.509 213.773L341.029 211.083C341.948 209.553 342.851 208.019 343.75 206.489C350.687 194.698 357.46 183.185 370.179 176.263C377.479 172.259 385.43 169.834 393.384 167.409C399.018 165.691 404.653 163.973 410.059 161.693C436.549 150.493 453.199 125.943 457.419 98.0126C458.385 91.6007 459.122 85.1576 459.859 78.7171L459.86 78.707L459.861 78.6969L459.862 78.6874C460.147 76.1981 460.431 73.7092 460.729 71.2226C461.05 68.5273 461.457 65.777 461.868 62.9969ZM463.709 11.5526L463.681 11.6356C458.973 18.8307 454.854 25.8996 452.319 34.4726C449.239 44.7426 447.799 55.3626 446.599 65.9826L446.442 67.4093C444.667 83.518 442.85 99.9994 435.769 114.783C428.694 129.441 416.48 140.989 401.449 147.233C396.124 149.424 390.57 150.945 385.039 152.459L385.039 152.459L385.038 152.459L385.038 152.459L385.038 152.459L385.037 152.459L385.037 152.459L385.037 152.459C374.594 155.318 364.233 158.154 355.649 165.443C343.139 176.083 337.309 190.983 332.869 206.263C334.819 207.453 336.749 208.623 338.749 209.793C344.779 196.103 353.669 182.423 366.479 174.523C374.418 169.617 383.303 166.86 392.17 164.109C395.992 162.923 399.811 161.738 403.549 160.383C418.025 155.246 430.628 145.886 439.729 133.513C449.139 120.613 452.789 106.003 454.789 90.4226C455.414 85.664 456.011 80.9143 456.608 76.1704C457.1 72.2512 457.593 68.3359 458.099 64.4226C458.356 62.4417 458.572 60.4226 458.789 58.3886C459.35 53.1423 459.921 47.7969 461.239 42.7526C460.803 37.9791 460.676 33.1824 460.859 28.3926C461.031 23.7553 461.677 19.1478 462.789 14.6426C463.042 13.6313 463.352 12.6106 463.681 11.6356L463.709 11.5926V11.5526ZM359.525 130.642C346.306 136.378 332.378 142.422 322.839 153.453C313.449 164.293 311.219 177.513 316.639 189.633C317.489 176.003 325.529 162.643 336.269 154.763C342.067 150.513 348.548 147.109 354.966 143.738L354.967 143.737L354.967 143.737L354.968 143.737L354.969 143.736L354.971 143.735L354.972 143.735C357.131 142.601 359.283 141.47 361.399 140.313C367.246 137.105 373.1 133.918 378.955 130.73L378.964 130.725L378.974 130.72C382.386 128.862 385.798 127.005 389.209 125.143L390.086 124.661C397.913 120.36 405.837 116.006 412.209 109.683C416.204 105.656 419.338 100.859 421.419 95.5826V95.4726L421.429 95.3801C421.896 91.0561 422.323 87.0918 421.419 82.7726C421.249 81.9326 421.039 81.1026 420.819 80.2726C417.599 90.2226 410.699 99.2026 403.139 106.003C391.699 116.273 377.599 122.703 363.699 128.823C362.336 129.422 360.96 130.02 359.575 130.62L359.572 130.622L359.552 130.63L359.528 130.641L359.525 130.642ZM343.539 157.063C354.171 150.663 365.251 144.911 376.311 139.169L376.313 139.168C382.187 136.119 388.056 133.072 393.849 129.933C408.359 122.073 421.779 113.083 427.969 97.1026C431.415 88.2203 432.541 78.7991 433.667 69.3848V69.3845C434.469 62.678 435.27 55.9749 436.909 49.4726C439.242 40.1499 443.538 31.4324 449.509 23.9026C451.378 21.5747 453.417 19.3887 455.609 17.3626C449.609 27.2426 446.729 39.8126 444.959 50.3626C443.959 56.3626 443.265 62.4237 442.571 68.4848C441.182 80.607 439.793 92.7292 435.959 104.363C429.749 123.073 415.889 138.143 397.239 144.903C392.777 146.522 388.22 147.781 383.686 149.034C373.296 151.905 363.027 154.743 354.289 161.803C341.739 171.943 333.119 188.283 329.679 204.283C326.969 202.533 324.299 200.703 321.679 198.683C322.159 181.363 328.179 166.293 343.539 157.063ZM124.119 446.183C145.153 427.856 165.819 409.149 186.119 390.063V390.093C225.006 353.379 262.713 315.559 299.239 276.633C297.116 275.47 295.05 274.061 293.188 272.792L293.186 272.791L293.186 272.791L293.182 272.788C292.468 272.302 291.785 271.836 291.139 271.413C286.188 268.182 281.506 264.557 277.139 260.573C274.189 258.009 271.548 255.109 269.269 251.933C252.244 272.034 235.071 291.997 217.884 311.975C216.072 314.081 214.261 316.187 212.449 318.293C177.443 358.959 142.399 399.626 107.319 440.293C90.0061 460.293 72.6994 480.326 55.3994 500.393C42.4694 515.423 29.6894 530.673 18.0694 546.673C29.2536 536.621 39.656 525.682 50.0567 514.746L50.0584 514.744C54.7223 509.84 59.3859 504.936 64.1194 500.113C78.5467 485.418 94.1361 472.02 109.723 458.623L109.723 458.623L109.723 458.623L109.723 458.623L109.724 458.622C114.534 454.488 119.344 450.354 124.119 446.183ZM306.849 272.173C306.61 272.25 306.36 272.287 306.109 272.283C305.67 272.073 305.186 271.973 304.699 271.993C303.353 271.373 302.056 270.651 300.819 269.833C296.424 267.423 292.207 264.703 288.199 261.693C287.757 261.36 287.284 261.01 286.79 260.644L286.788 260.643C280.69 256.127 271.2 249.098 271.939 241.163C273.189 240.293 274.419 239.373 275.629 238.433C277.319 244.973 282.779 250.193 287.899 254.333C293.899 259.163 302.409 265.563 310.439 266.793C310.267 267.089 310.056 267.482 309.82 267.922L309.814 267.933L309.813 267.936L309.813 267.936L309.812 267.937C308.926 269.59 307.692 271.889 306.849 272.173ZM307.279 258.751C309.504 259.675 311.738 260.603 313.629 261.973L314.919 260.053C312.083 259.238 309.32 257.599 306.738 256.068L306.738 256.068L306.738 256.067C306.152 255.72 305.575 255.378 305.009 255.053C301.255 252.923 297.701 250.46 294.389 247.693C289.669 243.693 285.049 238.383 283.049 232.383C281.959 233.313 280.869 234.243 279.759 235.163C282.993 241.268 287.584 246.55 293.179 250.603C296.344 252.959 299.688 255.065 303.179 256.903C304.484 257.59 305.88 258.17 307.279 258.751ZM316.539 257.603C314.93 256.451 313.093 255.574 311.272 254.705C310.231 254.209 309.195 253.714 308.209 253.173C304.551 251.221 301.062 248.966 297.779 246.433C292.159 242.003 288.439 236.703 284.929 230.723C285.866 229.913 286.8 229.099 287.732 228.287C290.033 226.282 292.326 224.284 294.639 222.363L298.009 219.583C303.499 230.393 315.369 238.463 326.519 242.583C323.193 247.596 319.866 252.603 316.539 257.603ZM304.408 218.724C307.036 221.8 309.647 224.854 312.849 227.463C318.04 231.609 323.929 234.796 330.239 236.873C330.754 236.065 331.269 235.255 331.784 234.444C335.069 229.268 338.383 224.05 342.039 219.183C333.279 215.293 325.249 209.433 317.799 203.433C312.566 207.646 307.359 211.883 302.179 216.143C302.933 216.999 303.671 217.862 304.408 218.724Z" fill="#231F20"/>
</svg>
