<svg width="532" height="551" viewBox="0 0 532 551" fill="none" xmlns="http://www.w3.org/2000/svg">
<path fill-rule="evenodd" clip-rule="evenodd" d="M212.865 15.7695C275.445 6.62951 337.755 29.9095 386.445 68.5095C413.735 90.2302 437.608 115.927 457.265 144.74C477.095 173.79 494.905 204.52 505.525 238.22C515.365 269.41 517.525 301.91 512.845 334.22C508.215 366.03 499.075 399.99 479.215 425.82C459.215 451.8 431.835 473.21 404.215 490.53C376.783 507.834 346.79 520.699 315.345 528.65C257.925 542.98 196.455 537.339 143.545 510.34C86.4649 481.18 49.3549 429.699 30.9349 369.049C21.4449 337.569 16.8049 304.7 15.3849 271.94C14.7149 257.17 14.1749 241.87 14.9349 226.7C22.1849 189.09 36.9949 152.56 57.7149 121.7C93.1549 68.9795 148.695 25.1395 212.865 15.7695ZM133.671 403.201C135.469 401.112 137.215 399.082 138.935 397.25C145.682 390.009 152.372 382.707 159.076 375.389L159.083 375.381L159.093 375.371C162.151 372.032 165.213 368.69 168.285 365.349C174.643 358.344 181.099 351.399 187.56 344.449C200.874 330.127 214.209 315.783 226.745 300.85C227.383 300.117 227.802 299.219 227.955 298.26C229.43 297.033 230.085 295.077 229.645 293.21C224.72 271.426 219.412 249.719 214.103 228.01L214.102 228.007L214.102 228.005C211.239 216.301 208.377 204.596 205.575 192.88C201.575 176.153 197.575 159.42 193.575 142.68C192.414 137.8 191.4 132.735 190.376 127.62C187.985 115.682 185.539 103.468 181.045 92.6795C180.225 90.6438 177.918 89.6487 175.875 90.4495C174.353 89.0859 172.123 88.8673 170.365 89.9095C138.945 105.66 108.175 129.96 85.3649 156.72C65.0449 180.55 52.0249 209.41 46.6649 240.22C35.2849 305.65 60.3249 375.03 104.665 423.43C108.255 427.38 114.505 424.47 114.455 420.38C121.854 416.934 128.014 409.775 133.671 403.201ZM442.465 369.109C422.845 422.699 368.235 457.699 317.015 476.26C290.285 485.93 262.545 490.659 234.155 487.44C209.555 484.65 181.275 476.669 161.815 460.76C159.105 458.549 159.385 455 161.115 452.659C159.035 453.259 157.175 450.659 158.025 448.729C162.444 439.073 170.064 431.066 177.454 423.302C179.178 421.491 180.89 419.692 182.545 417.889C192.138 407.43 201.662 396.886 211.115 386.259C218.913 377.463 226.51 368.448 234.111 359.429C244.854 346.682 255.603 333.927 266.935 321.77C267.915 320.675 269.224 319.927 270.665 319.639C271.123 319.189 271.71 318.892 272.345 318.789C282.31 317.003 293.011 320.569 302.978 323.89L302.979 323.89C305.734 324.808 308.433 325.707 311.045 326.47C324.778 330.47 338.508 334.47 352.235 338.47C366.519 342.643 380.82 346.757 395.117 350.87L395.123 350.872C407.168 354.337 419.21 357.802 431.235 361.299C435.775 356.46 445.085 361.78 442.415 369.109H442.465ZM464.505 317.24C468.675 317.78 472.815 314.5 472.315 310.049H472.265C465.675 250.09 442.935 186.39 398.385 144.33C375.405 122.6 346.845 107.88 317.845 95.8195C304.621 90.1472 291.12 85.1409 277.395 80.8195C263.405 76.5395 247.285 71.7695 232.565 73.5395C227.355 74.1595 226.405 80.0195 229.505 82.9395C228.376 91.9368 231.832 102.462 234.891 111.778C235.898 114.845 236.862 117.782 237.605 120.49C241.107 133.243 244.719 145.969 248.331 158.696C249.607 163.193 250.883 167.691 252.155 172.19C252.99 175.144 253.824 178.099 254.659 181.053C258.509 194.688 262.358 208.319 266.295 221.93C267.516 226.152 268.597 230.641 269.698 235.215C272.648 247.462 275.745 260.32 282.065 270.31C282.634 271.313 283.6 272.03 284.725 272.283C285.851 272.537 287.031 272.303 287.975 271.639C290.086 273.726 292.678 274.409 295.933 275.266C296.687 275.464 297.477 275.672 298.305 275.91C305.855 278.07 313.475 280.04 321.085 281.97C326.438 283.321 331.796 284.654 337.156 285.986C347.657 288.597 358.161 291.209 368.635 293.97C383.835 297.983 398.998 302.15 414.125 306.47C416.95 307.276 419.77 308.096 422.59 308.916C427.324 310.293 432.058 311.67 436.815 312.98C438.38 313.411 439.959 313.902 441.55 314.396C447.328 316.192 453.252 318.034 459.165 317.25C459.665 317.181 460.152 317.032 460.605 316.81L461.028 316.853C462.146 316.969 463.298 317.089 464.505 317.24Z" fill="#2E3192"/>
<path fill-rule="evenodd" clip-rule="evenodd" d="M227.863 298.24C227.711 299.2 227.291 300.097 226.653 300.83C213.975 315.932 200.491 330.431 187.026 344.908C180.716 351.694 174.41 358.474 168.193 365.31L167.271 366.324C157.859 376.676 148.451 387.023 138.883 397.23C137.164 399.063 135.417 401.093 133.619 403.182C127.962 409.755 121.802 416.915 114.403 420.36C114.453 424.41 108.203 427.33 104.613 423.41C60.273 375.01 35.233 305.63 46.613 240.2C51.973 209.39 64.993 180.53 85.313 156.7C108.123 129.96 138.933 105.7 170.273 89.8899C172.031 88.8477 174.261 89.0663 175.783 90.4299C177.826 89.6291 180.133 90.6241 180.953 92.6599C185.444 103.453 187.889 115.66 190.278 127.583C191.304 132.706 192.32 137.776 193.483 142.66C197.483 159.4 201.483 176.133 205.483 192.86C208.496 205.52 211.584 218.171 214.673 230.822C219.745 251.598 224.817 272.375 229.553 293.19C229.993 295.057 229.338 297.013 227.863 298.24ZM125.514 396.171C127.356 394.285 129.155 392.444 130.793 390.63C138.799 381.756 146.921 372.998 155.035 364.249C156.731 362.419 158.428 360.59 160.123 358.76C169.059 349.103 177.806 339.262 186.553 329.421C197.089 317.568 207.625 305.714 218.493 294.18C218.851 293.795 219.258 293.459 219.703 293.18C214.678 272.896 209.968 252.517 205.26 232.146C202.322 219.436 199.385 206.729 196.373 194.05L183.993 141.91C182.906 137.326 181.631 132.67 180.345 127.974C177.975 119.319 175.568 110.529 174.233 101.81C165.749 108.644 156.981 114.956 148.242 121.247C130.229 134.213 112.342 147.09 97.333 164.26C77.4672 186.78 64.1822 214.332 58.933 243.9C47.843 307.16 72.263 365.82 111.013 414.63C114.171 407.782 120.034 401.78 125.514 396.171Z" fill="#231F20"/>
<path fill-rule="evenodd" clip-rule="evenodd" d="M277.344 80.6999C291.069 85.0213 304.569 90.0276 317.794 95.6999C346.764 107.78 375.354 122.5 398.334 144.11C442.904 186.27 465.674 249.93 472.264 309.93C472.764 314.38 468.624 317.66 464.454 317.12C463.247 316.969 462.095 316.85 460.978 316.734C460.836 316.719 460.694 316.705 460.554 316.69C460.1 316.913 459.614 317.061 459.114 317.13C453.22 317.943 447.314 316.098 441.553 314.298C439.944 313.796 438.346 313.297 436.764 312.86C432.007 311.55 427.273 310.173 422.539 308.796C419.719 307.976 416.899 307.156 414.074 306.35C398.96 302.017 383.797 297.85 368.584 293.85C358.138 291.13 347.662 288.514 337.19 285.899C331.802 284.554 326.415 283.209 321.034 281.85C313.424 279.92 305.804 277.95 298.254 275.79C297.405 275.545 296.596 275.331 295.825 275.128C292.597 274.274 290.022 273.594 287.924 271.52C286.98 272.183 285.8 272.417 284.674 272.164C283.549 271.91 282.582 271.194 282.014 270.19C275.694 260.2 272.597 247.343 269.647 235.095C268.545 230.521 267.464 226.032 266.244 221.81C262.307 208.199 258.458 194.568 254.607 180.934C253.773 177.979 252.939 175.025 252.104 172.07C250.832 167.572 249.556 163.075 248.28 158.578C244.668 145.85 241.056 133.124 237.554 120.37C236.81 117.659 235.844 114.722 234.836 111.653C231.778 102.35 228.326 91.8439 229.454 82.8199C226.354 79.8999 227.304 74.0399 232.514 73.4199C247.234 71.6999 263.344 76.4699 277.344 80.6999ZM446.396 302.693C448.353 303.14 450.262 303.576 452.104 304.11C453.852 303.606 455.664 303.36 457.484 303.38C447.244 248.27 431.014 192.8 388.574 153.38C366.614 132.98 339.754 119.27 312.304 107.81C299.574 102.5 286.674 97.4499 273.494 93.3199C265.678 90.8525 257.709 89.391 249.744 87.9302C246.734 87.3781 243.724 86.8261 240.724 86.2199C244.38 93.2615 246.447 102.173 248.297 110.153C249.109 113.653 249.879 116.974 250.724 119.88C255.524 136.44 260.204 153.03 264.874 169.62C266.314 174.736 267.759 179.852 269.204 184.967C272.444 196.439 275.685 207.912 278.874 219.4C280.022 223.538 281.438 227.84 282.883 232.229C286.271 242.522 289.817 253.294 290.434 263.55C293.743 262.825 296.903 263.73 300.547 264.774C301.628 265.083 302.751 265.405 303.934 265.7C311.584 267.63 319.174 269.7 326.734 271.78C328.377 272.238 330.02 272.696 331.663 273.154C345.168 276.919 358.673 280.684 372.234 284.25C388.027 288.443 403.88 292.443 419.794 296.25C421.11 296.566 422.427 296.881 423.743 297.195C430.053 298.705 436.357 300.213 442.654 301.81C443.916 302.127 445.166 302.412 446.396 302.693Z" fill="#231F20"/>
<path fill-rule="evenodd" clip-rule="evenodd" d="M397.415 351.536C408.704 354.783 419.998 358.032 431.284 361.31C435.774 356.46 445.084 361.78 442.414 369.11C422.844 422.7 368.234 457.7 317.014 476.26C290.284 485.93 262.544 490.66 234.154 487.44C209.554 484.7 181.274 476.7 161.814 460.76C159.114 458.55 159.384 455 161.114 452.66C159.024 453.26 157.174 450.61 158.024 448.73C162.443 439.073 170.063 431.066 177.453 423.302C179.177 421.491 180.889 419.693 182.544 417.89C192.137 407.423 201.674 396.883 211.154 386.27C218.968 377.459 226.577 368.431 234.19 359.398C244.921 346.665 255.658 333.924 266.984 321.78C267.964 320.685 269.273 319.937 270.714 319.65C271.172 319.199 271.759 318.902 272.394 318.8C282.331 316.984 293.026 320.556 302.987 323.883C305.757 324.808 308.47 325.714 311.094 326.48C324.821 330.48 338.551 334.48 352.284 338.48C367.304 342.875 382.356 347.204 397.415 351.536ZM236.044 476.4C263.154 479.63 289.324 474.21 314.624 464.51C361.514 446.53 403.054 417.86 425.594 372.82C399.654 365.98 373.854 358.68 348.094 351.19C334.434 347.203 320.811 343.116 307.224 338.93C304.739 338.165 302.118 337.457 299.441 336.733C292.104 334.749 284.351 332.653 277.844 328.99C277.64 329.387 277.406 329.768 277.144 330.13C262.729 349.223 246.272 367.059 229.974 384.722C226.553 388.429 223.14 392.128 219.754 395.83C209.721 406.796 199.577 417.67 189.324 428.45C188.386 429.434 187.446 430.43 186.501 431.432C180.039 438.285 173.361 445.366 165.404 450.34C166.273 450.341 167.129 450.558 167.894 450.97C190.194 462.76 210.524 473.4 236.044 476.4Z" fill="#231F20"/>
<path fill-rule="evenodd" clip-rule="evenodd" d="M78.6139 76.8697C124.674 27.5797 189.414 -4.35033 257.804 0.869665C326.934 6.14967 388.334 44.7697 434.784 94.5297C483.784 147.1 527.194 215.47 530.784 289.1C532.394 322.32 526.704 355.51 516.254 386.99C504.704 421.79 483.444 447.91 455.934 471.61C403.514 516.7 336.934 547.07 267.344 550.16C207.064 552.82 144.364 535.02 97.6339 496.08C64.0439 468.09 40.8639 431.37 25.9239 391.2C6.06394 345.21 -2.48606 293.47 2.06394 244.32C2.39728 240.76 2.80394 237.206 3.28394 233.66C3.48394 227.89 3.75394 222.12 4.15394 216.37C5.36394 199.34 8.66394 182.84 15.8839 167.28C21.957 154.199 30.0683 142.074 38.1096 130.054C39.4428 128.061 40.7742 126.071 42.0939 124.08C42.5165 123.415 43.1062 122.874 43.8039 122.51C53.8743 106.186 65.5344 90.8982 78.6139 76.8697ZM512.804 334.23C517.484 301.91 515.324 269.41 505.484 238.23C494.864 204.53 477.054 173.8 457.264 144.76C437.62 115.946 413.761 90.2464 386.484 68.5197C337.794 29.9197 275.504 6.63966 212.904 15.7797C148.754 25.1897 93.1939 69.0297 57.7539 121.78C37.0339 152.61 22.2239 189.14 14.9339 226.7C14.1339 241.82 14.6739 257.12 15.3439 271.89C16.8039 304.7 21.4439 337.57 30.9339 369.05C49.3539 429.7 86.464 481.18 143.544 510.39C196.454 537.41 257.924 543.03 315.344 528.7C346.777 520.733 376.756 507.855 404.174 490.54C431.834 473.22 459.174 451.83 479.174 425.83C499.034 400 508.204 366.04 512.804 334.23Z" fill="#231F20"/>
</svg>
