<svg width="422" height="581" viewBox="0 0 422 581" fill="none" xmlns="http://www.w3.org/2000/svg">
<path d="M120.36 295.832C137.23 282.552 157.36 275.112 178.47 271.752L181.1 222.132C179.452 223.279 177.728 224.311 175.94 225.222C162.77 231.832 147.25 234.222 132.85 236.502C106.5 240.732 79.0398 242.332 54.5598 253.922C32.3798 264.432 15.4598 281.382 11.4098 306.252C10.4798 312.002 7.93977 321.912 11.3098 327.192C14.0398 331.472 20.1998 331.642 24.5798 330.302C30.9298 328.372 35.6598 323.012 40.1498 318.422C43.8124 314.577 47.7749 311.029 51.9998 307.812C70.1498 294.352 97.9998 287.392 119.74 295.542C119.952 295.627 120.159 295.724 120.36 295.832Z" fill="#8DC63F"/>
<path fill-rule="evenodd" clip-rule="evenodd" d="M228.46 279.272C250.17 279.572 272.87 278.432 292.17 267.432C308.86 257.962 320.95 241.292 320.45 221.702C320.35 217.642 314.37 217.702 314.16 221.702C313.1 241.812 296.3 257.762 278.3 264.172C259.666 270.8 239.784 270.304 220.236 269.817C217.103 269.739 213.979 269.661 210.87 269.612C203.275 269.482 195.678 269.793 188.12 270.542C189.16 250.356 190.216 230.179 191.29 210.012C192.044 207.783 192.172 205.39 191.66 203.092C192.193 193.092 192.74 183.092 193.3 173.092C195.09 141.642 200.71 111.802 216.76 84.3025C229.58 62.3425 251.65 32.8225 279.92 32.7225C294.64 32.6625 308.31 41.1725 319.04 50.5725C329.432 59.8362 338.18 70.7948 344.91 82.9825C359.95 109.692 365.89 140.282 368.67 170.502C371.733 203.787 372.526 237.38 373.315 270.785L373.32 270.982C374.98 339.322 374.023 407.599 370.45 475.812C370.253 479.552 370.078 483.302 369.903 487.057C369.273 500.53 368.641 514.063 367.03 527.412C365.4 540.942 362.03 556.092 351.4 565.532C345.63 570.682 336.96 574.372 329.4 570.883C322.66 567.773 318.91 560.212 316.4 553.642C309.95 536.642 307.3 518.532 305.06 500.642C305.029 500.405 304.975 500.17 304.9 499.942C305.9 499.722 306.9 499.492 307.9 499.252C308.46 499.12 309.023 498.992 309.586 498.865C313.518 497.976 317.462 497.084 320.48 494.302C322.44 492.492 321.64 488.392 318.8 487.942C315.258 487.371 312.08 488.244 308.748 489.159L308.745 489.16C307.938 489.382 307.122 489.606 306.29 489.812C301.62 490.962 296.9 491.952 292.15 492.752C283.051 494.293 273.855 495.192 264.63 495.442C255.641 495.644 246.648 495.31 237.7 494.442C232.92 493.992 228.06 493.383 223.39 492.712C222.4 492.571 221.412 492.408 220.426 492.245L220.426 492.245L220.425 492.245L220.425 492.245L220.425 492.244L220.424 492.244L220.424 492.244L220.423 492.244L220.423 492.244L220.423 492.244L220.422 492.244L220.422 492.244L220.422 492.244L220.421 492.244C216.754 491.638 213.1 491.034 209.39 491.522C208.5 491.663 207.5 492.902 208.5 493.662C212.47 496.812 217.64 498.642 222.94 499.892C222.49 519.432 221.44 539.872 214.44 558.383C211.39 566.503 205 571.362 196.72 566.503C189.13 562.052 185.65 553.792 183.82 545.573C182.026 537.453 181.854 529.056 181.684 520.745L181.684 520.743C181.658 519.464 181.632 518.186 181.6 516.912C181.326 506.419 181.06 495.926 180.8 485.432C180.26 464.432 179.726 443.432 179.2 422.432C179.076 418.105 178.963 413.777 178.849 409.448C178.652 401.882 178.454 394.315 178.2 386.752C178.109 383.978 178.079 381.157 178.05 378.316C177.981 371.775 177.912 365.124 177.09 358.682C180.698 360.277 184.228 362.091 187.707 363.879L187.711 363.881C189.206 364.65 190.691 365.413 192.17 366.152C211.7 375.922 232.39 383.522 254.17 385.792C275.5 388.012 297.37 384.182 315.7 372.742C330.84 363.302 348.56 345.533 347.7 326.302C347.56 323.152 343.04 321.482 341.41 324.602C340.191 326.948 339.076 329.344 337.962 331.738L337.961 331.738C335.665 336.673 333.371 341.602 330.18 346.072C325.19 352.871 318.99 358.692 311.89 363.242C296.34 373.383 278.22 377.382 259.78 376.382C238.48 375.262 217.76 368.032 198.7 358.792C197.613 358.264 196.528 357.733 195.443 357.201L195.438 357.199L195.43 357.195C179.002 349.147 162.726 341.173 143.97 346.462C142.274 346.941 139.563 348.022 136.278 349.333C121.51 355.225 95.1235 365.752 97.0295 347.002C98.6495 331.062 111.42 315.642 123.1 305.642C135.97 294.692 151.71 287.292 167.97 283.082C185.658 278.496 203.703 278.827 221.794 279.159H221.795L221.796 279.159L221.798 279.159L221.8 279.159L221.802 279.159L221.804 279.159L221.806 279.159L221.807 279.16L221.809 279.16L221.811 279.16L221.813 279.16L221.815 279.16L221.817 279.16L221.819 279.16L221.821 279.16C224.033 279.2 226.246 279.241 228.46 279.272ZM207.41 181.912C202.41 181.912 202.41 174.142 207.41 174.142C212.41 174.142 212.41 181.912 207.41 181.912ZM204.09 150.912C203.85 144.592 210.76 137.912 217.04 140.372C219.287 140.683 221.365 141.739 222.94 143.372C227.73 148.432 225.8 157.112 219.87 160.372C213.17 164.042 204.37 158.302 204.09 150.912ZM249.49 238.872C252.49 243.492 257.77 246.732 263.49 245.082C269.58 243.332 273.22 236.122 270.35 230.412C269.961 229.796 269.183 229.551 268.511 229.833C267.839 230.116 267.47 230.843 267.64 231.552C269.21 236.232 266.74 241.472 261.49 242.232C256.24 242.992 252.05 238.742 250.49 234.162C250.215 233.415 249.414 233.003 248.647 233.214C247.879 233.426 247.402 234.19 247.55 234.972C245.276 238.892 242.9 239.352 240.42 236.352C239.53 235.354 238.85 234.188 238.42 232.922C237.863 231.752 237.424 230.512 236.988 229.284L236.988 229.284L236.988 229.284C236.68 228.415 236.374 227.551 236.03 226.722C235.56 225.532 233.61 225.202 233.27 226.722C232.32 231.012 227.85 233.982 223.53 232.132C219.91 230.582 218.22 226.862 218.08 223.062C218.06 222.452 217.09 222.252 216.96 222.912C214.75 234.282 229.28 239.252 234.56 231.052C236.05 235.312 237.93 239.902 242.49 241.152C245.07 241.906 247.848 241.001 249.49 238.872ZM280.79 176.082C278.1 181.832 272.74 186.762 266.16 187.182C250.86 188.182 243.29 169.092 251.46 157.592C251.78 157.081 252.398 156.84 252.981 156.999C253.563 157.158 253.973 157.679 253.99 158.282C254.07 159.289 254.122 160.318 254.174 161.357C254.368 165.219 254.569 169.213 256.28 172.672C258.28 176.672 262.77 180.022 267.28 178.232C273.41 175.849 273.734 170.445 274.057 165.036C274.277 161.367 274.496 157.695 276.53 154.962C277.53 153.662 279.53 152.962 280.77 154.422C285.47 159.712 283.54 170.252 280.79 176.122V176.082ZM271.68 339.572C275.24 343.972 281.04 346.572 286.79 344.672L286.77 344.712C292.68 342.762 296.68 336.192 295.09 330.142C294.63 328.542 291.87 328.812 292.09 330.542C293.76 343.722 277.61 345.392 272.3 334.952C271.939 334.387 271.253 334.121 270.606 334.298C269.959 334.475 269.502 335.052 269.48 335.722C269.61 342.502 261.57 342.842 257.69 339.142C254.88 336.462 253.92 332.502 253.2 328.842C253.01 327.872 251.5 328.072 251.5 329.072C251.64 335.642 254.56 343.032 261.76 344.462C265.801 345.338 269.913 343.311 271.68 339.572ZM222.99 471.372C217.63 478.492 207.31 476.372 203.99 469.372C201.725 472.53 197.743 473.955 193.99 472.952C186.32 471.003 184.81 461.763 187.18 455.253C187.3 454.88 187.669 454.647 188.057 454.698C188.445 454.75 188.741 455.071 188.76 455.462C188.861 456.613 188.847 457.783 188.834 458.945C188.796 462.258 188.759 465.512 191.38 468.103C195.77 472.443 201.74 469.702 202.89 464.543C202.887 463.673 202.971 462.805 203.14 461.952C203.48 460.193 206.08 460.723 206.14 462.362C206.167 463.231 206.094 464.101 205.92 464.952C206.22 473.152 217.5 475.732 221.47 467.682C221.764 467.189 222.295 466.887 222.87 466.887C223.444 466.887 223.975 467.189 224.27 467.682C226.56 471.682 230.52 473.913 235.1 473.103C239.68 472.293 242.1 468.372 243.38 464.103C243.585 463.406 244.267 462.963 244.987 463.061C245.707 463.158 246.247 463.766 246.26 464.492C245.75 477.202 230.15 479.793 222.97 471.413L222.99 471.372ZM222.08 409.192C224.21 416.062 229.54 421.682 237.21 422.062L237.19 422.102C243.305 422.447 248.821 418.45 250.4 412.532C253.771 415.606 258.643 416.391 262.81 414.532C269.5 411.352 270.46 402.962 270.12 396.452C270 394.242 266.55 394.232 266.68 396.452C266.91 400.542 266.92 405.332 264.39 408.812C260.6 414.042 253.21 412.662 250.48 407.262C249.75 405.832 247.16 406.442 247.35 408.102C248.18 415.382 241.41 420.532 234.46 418.382C228.21 416.462 225.1 410.772 224.1 404.702C223.83 403.102 221.6 403.402 221.16 404.702C219.5 409.612 213.43 412.822 208.64 409.992C204.4 407.482 203.57 401.942 205.17 397.662C205.5 396.772 204.15 396.292 203.68 397.042C202.013 399.778 201.597 403.096 202.537 406.159C203.478 409.221 205.684 411.734 208.6 413.062C213.58 415.192 218.94 413.132 222.08 409.192ZM277.92 456.192C274.134 456.652 270.488 454.599 268.92 451.122C266.088 453.037 262.475 453.372 259.34 452.012C254.27 449.822 252.59 444.672 254.15 439.642C254.288 439.26 254.697 439.048 255.089 439.155C255.481 439.262 255.725 439.653 255.65 440.052C255.055 443.4 256.397 446.796 259.12 448.832C261.76 450.612 267.28 450.712 268.58 446.832C268.64 446.542 268.7 446.252 268.79 445.962C269.039 445.254 269.795 444.86 270.519 445.06C271.243 445.26 271.689 445.986 271.54 446.722C270.32 450.772 274.38 453.312 277.75 453.122C279.555 452.935 281.27 452.241 282.7 451.122C283.296 450.71 283.985 449.938 284.722 449.113C285.955 447.732 287.319 446.204 288.599 445.968C288.183 446.013 287.775 445.809 287.564 445.44C287.337 445.042 287.391 444.542 287.7 444.202L288.15 443.642C288.579 443.222 289.236 443.136 289.76 443.432L290.53 443.832C290.992 444.102 291.274 444.598 291.27 445.132C290.61 450.442 282.94 455.762 277.9 456.232L277.92 456.192ZM289.96 424.812C286.15 435.592 305.31 441.922 310.31 433.432L310.29 433.472C312.438 435.991 315.702 437.27 318.99 436.882C324.89 436.312 330.31 429.952 331.16 424.312C331.37 423.703 331.079 423.034 330.489 422.773C329.9 422.512 329.209 422.747 328.9 423.312C328.142 424.325 327.528 425.418 326.916 426.509C325.918 428.286 324.924 430.056 323.32 431.462C319.88 434.492 312.04 434.852 311.49 428.672C311.32 426.732 308.41 426.672 308.41 428.672C308.45 439.042 291.2 434.112 291.68 425.042C291.73 424.012 290.27 423.932 289.96 424.812ZM353.31 455.082C349.48 457.842 341.46 459.362 336.89 456.552C335.55 461.382 332.8 466.112 327.82 467.742C322.796 469.379 317.325 467.141 314.89 462.452C314.48 461.632 315.53 460.722 316.2 461.452C319.65 465.152 324.5 466.802 328.98 463.722C332.46 461.322 333.79 457.192 334.5 453.222C334.75 451.842 336.67 451.832 337.32 452.852C340.53 457.852 351.74 453.582 353.92 449.852C356.254 445.852 355.362 441.65 354.475 437.473C354.196 436.158 353.917 434.845 353.74 433.542C353.56 432.202 355.48 431.022 356.16 432.542C359.35 439.572 360.36 450.052 353.33 455.122L353.31 455.082ZM357.569 360.76C357.114 360.885 356.79 361.29 356.77 361.763L356.79 361.802C356.709 363.339 356.879 365.284 357.061 367.345C357.707 374.702 358.484 383.541 348.4 380.573C347.33 380.223 345.91 381.393 346.4 382.573C348.166 386.754 346.486 391.594 342.51 393.783C338.27 396.092 333.34 394.753 329.51 392.363C329.021 392.087 328.424 392.09 327.938 392.369C327.452 392.648 327.148 393.162 327.14 393.723C326.89 397.733 324.75 401.402 320.69 402.663C319.52 403.053 308.31 402.663 311.23 398.663C311.71 398.003 310.78 397.143 310.13 397.562C305.06 400.853 313.54 405.543 316.54 405.953C323.23 406.872 328.44 402.203 329.9 396.203C334.78 398.592 340.68 399.133 345.34 395.842C349.035 393.233 350.948 388.768 350.29 384.293C354.23 384.962 357.88 384.223 359.72 379.863C361.91 374.712 361.54 366.013 358.77 361.212C358.51 360.817 358.025 360.635 357.569 360.76ZM329.33 137.272C329.613 136.85 329.928 136.449 330.27 136.072C330.929 134.521 332.146 133.272 333.68 132.572C341.96 128.422 350.89 136.072 348.96 144.822C348.068 148.919 344.879 152.124 340.787 153.037C336.696 153.949 332.447 152.402 329.9 149.072C327.158 145.684 326.928 140.91 329.33 137.272ZM340.45 165.052H340.44C339.794 164.969 339.139 165.045 338.53 165.272C337.308 165.645 336.263 166.448 335.59 167.533C335.062 168.489 334.858 169.591 335.01 170.673C335.337 173.092 337.389 174.905 339.83 174.932C341.306 174.932 342.73 174.387 343.83 173.402C344.08 173.193 344.33 172.962 344.56 172.732C345.498 171.79 345.936 170.458 345.74 169.143C345.616 167.838 344.871 166.673 343.74 166.012C343.226 165.721 342.678 165.492 342.11 165.333L341.87 165.232C341.83 165.225 341.791 165.218 341.752 165.211L341.746 165.21C341.508 165.166 341.27 165.122 341.04 165.122L340.45 165.052ZM318.79 208.232C313.73 208.962 308.89 206.442 307.25 201.572C306.92 200.572 308.37 200.042 308.86 200.892C311.179 204.885 316.143 206.475 320.35 204.572C324.79 202.672 326.88 198.182 327.85 193.742C328.03 193.142 328.547 192.703 329.17 192.623C329.792 192.544 330.403 192.837 330.73 193.372C335.63 203.752 350.83 198.932 348.31 187.622C347.85 185.542 351.05 184.622 351.5 186.742C354.42 200.332 337.68 207.592 329.88 197.942C327.99 202.952 324.38 207.412 318.8 208.232H318.79ZM315.44 297.842C312.95 297.202 310.82 294.452 309.37 292.572C308.51 291.452 306.5 291.672 306.54 293.342C306.66 298.482 303.05 303.032 297.66 303.032C292.67 303.042 289.11 299.142 288.11 294.422C287.997 294.011 287.597 293.746 287.174 293.804C286.751 293.862 286.436 294.225 286.44 294.652C286.58 300.962 291.8 306.452 298.35 306.142C303.73 305.922 307.82 301.812 309.14 296.922C312.46 300.312 316.46 302.402 321.46 299.972C327.03 297.252 328.91 291.422 329.91 285.742C334.78 289.602 340.53 291.312 345.71 286.092C351.55 280.202 350.83 270.152 349.18 262.712C349.001 262.085 348.389 261.685 347.743 261.773C347.097 261.861 346.614 262.411 346.61 263.062C346.61 264.76 346.756 266.476 346.902 268.194C347.196 271.636 347.49 275.087 346.61 278.422C345.75 281.812 343.43 285.442 339.75 286.332C335.639 287.338 332.618 284.43 329.957 281.868L329.92 281.832C329.541 281.469 329.001 281.329 328.494 281.464C327.986 281.599 327.587 281.989 327.44 282.492C327.404 282.721 327.368 282.95 327.332 283.18C326.769 286.798 326.168 290.659 324.1 293.742C322.25 296.482 318.9 298.732 315.44 297.842Z" fill="#009444"/>
<path d="M337.22 144.772C339.22 145.522 341.52 142.992 340.09 141.142C339.09 139.842 337.33 140.272 335.61 140.732C335.433 141.044 335.305 141.382 335.23 141.732C335.039 143.101 335.889 144.4 337.22 144.772Z" fill="white"/>
<path d="M304.128 28.8524C305.078 29.3024 306.008 29.7724 306.938 30.2524C306.938 30.1724 306.938 30.0924 306.938 30.0024C308.588 21.3124 303.698 10.8224 294.848 8.13237C285.548 5.30237 275.148 13.7124 275.468 23.2824C285.347 22.5606 295.239 24.4832 304.128 28.8524Z" fill="#8DC63F"/>
<path d="M212.569 150.732C212.41 150.917 212.232 151.084 212.039 151.232C212.699 152.652 214.479 153.742 215.879 152.892C216.879 152.292 217.689 150.312 216.739 149.342C215.249 147.812 213.439 149.732 212.569 150.732Z" fill="white"/>
<path d="M381.839 242.242C389.739 241.242 396.839 233.922 395.609 225.552C394.609 218.432 387.659 213.312 380.719 213.042C381.159 222.776 381.532 232.509 381.839 242.242Z" fill="#8DC63F"/>
<path d="M383.068 306.502C383.068 310.162 383.068 313.829 383.068 317.502C398.448 313.942 411.828 300.172 412.358 284.022C412.918 267.202 398.678 251.922 382.068 251.152C382.615 269.592 382.948 288.042 383.068 306.502Z" fill="#8DC63F"/>
<path d="M358.439 88.3023C365.779 71.3023 369.059 51.3023 357.909 35.1423C352.719 27.6223 344.689 22.4223 335.429 22.1423C326.949 21.9323 318.639 25.5923 314.229 33.0223C314.024 33.3724 313.768 33.6893 313.469 33.9623C333.459 46.6623 348.419 67.0323 358.439 88.3023Z" fill="#8DC63F"/>
<path d="M382.959 351.382C387.986 345.683 388.045 337.151 383.099 331.382C383.079 338.036 383.032 344.702 382.959 351.382Z" fill="#8DC63F"/>
<path d="M370.54 122.732C378.21 120.232 384.99 111.512 381.18 103.362C378.09 96.7723 368.59 94.4323 362.93 98.7823C365.978 106.594 368.52 114.594 370.54 122.732Z" fill="#8DC63F"/>
<path d="M372.488 131.082C376.888 151.792 378.648 173.132 379.798 194.212C379.928 196.702 380.048 199.212 380.178 201.682C387.008 198.402 394.498 196.392 400.178 191.072C407.425 184.261 411.633 174.825 411.858 164.882C412.198 144.462 392.308 128.442 372.488 131.082Z" fill="#8DC63F"/>
<path fill-rule="evenodd" clip-rule="evenodd" d="M161.059 221.812C168.949 219.692 176.329 216.752 181.679 211.442L182.679 191.572C182.832 188.856 182.975 186.137 183.118 183.417V183.417V183.416V183.416V183.416V183.416V183.416V183.416V183.416C183.911 168.346 184.707 153.227 187.189 138.302C192.366 107.25 205.841 78.174 226.189 54.1524C235.749 42.8524 247.149 32.3724 261.039 26.7424C263.794 25.6294 266.642 24.7627 269.549 24.1524C267.469 10.6624 280.889 -1.68761 294.389 0.312392C305.159 1.94239 312.339 10.8724 314.449 20.8724C328.079 10.0324 349.759 13.0724 361.499 26.6424C376.939 44.4724 375.099 67.9924 367.099 88.5524C375.299 87.5424 384.299 91.4724 388.299 99.1124C392.629 107.332 390.189 116.652 384.459 123.222C402.309 126.492 417.859 140.432 420.209 159.332C421.57 171.22 418.14 183.159 410.679 192.512C407.221 196.916 402.904 200.57 397.989 203.252C395.418 204.54 392.766 205.659 390.049 206.602C397.555 209.744 402.888 216.561 404.129 224.602C405.239 232.702 401.599 240.312 395.599 245.312C410.669 251.642 421.909 267.262 421.499 283.982C421.019 303.082 407.069 318.872 389.679 324.872C399.629 336.092 397.359 355.212 382.809 362.872C382.529 381.366 382.056 399.852 381.389 418.332C380.742 437.146 379.909 455.946 378.889 474.732C378.694 478.356 378.516 481.988 378.337 485.623C377.664 499.311 376.989 513.05 375.409 526.632C373.919 539.432 371.309 552.852 363.859 563.632C356.589 574.102 343.859 582.762 330.589 579.852C317.109 576.892 310.879 562.922 307.109 551.082C301.969 534.962 298.709 518.012 299.219 501.082C297.079 501.482 294.929 501.862 292.769 502.182C283.141 503.645 273.417 504.38 263.679 504.382C253.985 504.405 244.306 503.629 234.739 502.062L231.739 501.572C232.047 514.05 230.99 526.524 228.589 538.772C228.534 539.075 228.479 539.379 228.423 539.685C228.354 540.068 228.285 540.454 228.215 540.842C226.458 550.6 224.42 561.919 218.419 569.832C206.829 585.142 186.759 574.742 179.569 560.742C175.099 551.972 173.689 541.882 173.099 532.172C172.581 523.748 172.462 515.288 172.342 506.836L172.342 506.83L172.342 506.825L172.342 506.82L172.342 506.815L172.342 506.81L172.342 506.805L172.342 506.8C172.295 503.515 172.249 500.232 172.179 496.952C171.652 472.812 171.129 448.672 170.609 424.532C170.549 421.816 170.487 419.1 170.425 416.384C170.208 406.859 169.991 397.334 169.859 387.802C169.821 384.942 169.717 382.036 169.612 379.11V379.11C169.335 371.385 169.053 363.514 169.959 355.942C166.846 354.915 163.63 354.227 160.369 353.892C150.77 352.982 141.827 356.594 133.096 360.12L133.092 360.122C132.811 360.236 132.53 360.349 132.249 360.462C118.379 366.052 89.5391 374.162 87.7991 350.732C87.1791 342.292 90.8991 333.662 94.6791 326.292C98.6093 318.733 103.611 311.781 109.529 305.652C110.379 304.762 111.249 303.912 112.119 303.062C99.6391 301.432 87.8091 301.592 75.4691 305.892C68.7448 308.241 62.4236 311.614 56.7291 315.892C53.1374 318.591 50.0249 321.772 46.9105 324.955L46.9098 324.956C44.9346 326.975 42.9586 328.995 40.8591 330.892C32.8291 338.132 21.8091 343.312 11.0891 338.672C-1.59089 333.172 0.199113 318.952 1.73911 307.672C3.47911 294.822 7.38911 282.972 15.2791 272.572C22.2955 263.596 30.9902 256.07 40.8791 250.412C63.8691 236.852 90.1391 232.992 116.139 229.542C117.383 229.378 118.627 229.215 119.872 229.052L119.884 229.051L119.899 229.049C133.724 227.238 147.572 225.425 161.059 221.812ZM40.1491 318.422C43.8118 314.577 47.7742 311.029 51.9991 307.812C70.1491 294.352 97.9691 287.392 119.739 295.542C119.951 295.627 120.158 295.724 120.359 295.832C137.229 282.552 157.389 275.112 178.469 271.752L181.099 222.132C179.452 223.279 177.728 224.311 175.939 225.222C163.182 231.625 148.22 234.031 134.206 236.284L132.849 236.502C127.29 237.395 121.681 238.17 116.061 238.947L116.06 238.947L116.059 238.947L116.057 238.948L116.056 238.948L116.055 238.948L116.053 238.948L116.053 238.948L116.052 238.948C95.0382 241.853 73.8714 244.779 54.5591 253.922C32.4091 264.432 15.4091 281.382 11.4091 306.252C11.2756 307.078 11.1088 307.99 10.9311 308.961C9.87149 314.753 8.42305 322.671 11.3091 327.192C14.0391 331.472 20.1991 331.642 24.5791 330.302C30.3398 328.551 34.7673 323.978 38.8918 319.717C39.3137 319.281 39.7324 318.848 40.1491 318.422ZM382.999 351.382L383 351.336C387.998 345.647 388.061 337.146 383.139 331.382C383.119 338.034 383.073 344.685 383 351.336L382.959 351.382H382.999ZM383.149 317.482C398.529 313.922 411.909 300.152 412.439 284.002H412.399C412.959 267.182 398.679 251.902 382.149 251.112C382.676 269.566 383.009 288.022 383.149 306.482V317.482ZM395.609 225.572C396.819 233.942 389.739 241.252 381.839 242.262C381.532 232.536 381.159 222.802 380.719 213.062C387.679 213.312 394.569 218.432 395.609 225.572ZM400.209 191.092C407.455 184.281 411.663 174.845 411.889 164.902V164.882C412.199 144.462 392.309 128.442 372.519 131.102C376.919 151.812 378.679 173.152 379.829 194.232C379.896 195.508 379.961 196.795 380.025 198.084L380.027 198.123L380.028 198.135C380.087 199.324 380.147 200.516 380.209 201.702C382.097 200.792 384.038 199.979 385.98 199.166L385.98 199.166C391.031 197.051 396.085 194.935 400.209 191.092ZM381.179 103.362C384.989 111.512 378.179 120.232 370.539 122.732C368.521 114.577 365.979 106.56 362.929 98.7324C368.589 94.4324 378.089 96.7724 381.179 103.362ZM335.429 22.1924C326.949 21.9824 318.639 25.6424 314.229 33.0724C314.02 33.4423 313.753 33.7764 313.439 34.0624C333.439 46.7124 348.439 67.0824 358.439 88.3524C365.779 71.3024 369.059 51.3724 357.909 35.1924C352.719 27.6224 344.689 22.4224 335.429 22.1924ZM294.869 8.13239C303.719 10.8224 308.609 21.3124 306.959 30.0024V30.2524C306.742 30.1402 306.524 30.0259 306.307 29.9114L306.304 29.91C305.592 29.535 304.876 29.1585 304.149 28.8524C295.266 24.4867 285.381 22.5642 275.509 23.2824C275.169 13.7124 285.569 5.30239 294.869 8.13239ZM314.159 221.662C314.369 217.662 320.349 217.602 320.449 221.662C320.949 241.292 308.859 257.962 292.219 267.422C272.919 278.382 250.179 279.562 228.509 279.262C226.287 279.231 224.065 279.19 221.844 279.149C203.753 278.817 185.708 278.486 168.019 283.072C151.759 287.282 135.989 294.682 123.149 305.632C111.469 315.602 98.6991 331.052 97.0791 346.992C95.1731 365.742 121.559 355.215 136.328 349.323C139.613 348.012 142.323 346.931 144.019 346.452C162.763 341.147 178.984 349.098 195.372 357.131C196.496 357.683 197.622 358.235 198.749 358.782C217.829 368.022 238.529 375.252 259.829 376.372C278.269 377.342 296.389 373.392 311.939 363.232C319.039 358.682 325.24 352.861 330.229 346.062C333.421 341.592 335.715 336.663 338.011 331.728C339.126 329.334 340.241 326.938 341.459 324.592C343.089 321.472 347.609 323.142 347.749 326.292C348.629 345.522 330.909 363.272 315.749 372.732C297.419 384.172 275.549 388.002 254.219 385.782C232.389 383.512 211.699 375.912 192.219 366.142C190.814 365.437 189.401 364.711 187.981 363.98C184.429 362.154 180.825 360.301 177.139 358.672C177.962 365.114 178.031 371.765 178.099 378.306C178.129 381.147 178.158 383.968 178.249 386.742C178.581 395.922 178.812 405.107 179.042 414.29C179.11 417.001 179.178 419.712 179.249 422.422C179.776 443.436 180.309 464.436 180.849 485.422L181.649 516.902C181.676 518.051 181.698 519.203 181.72 520.357C181.883 528.791 182.048 537.32 183.869 545.562C185.699 553.782 189.179 562.042 196.769 566.492C205.049 571.372 211.439 566.462 214.489 558.372C221.479 539.882 222.539 519.422 222.989 499.882C217.689 498.652 212.549 496.802 208.549 493.652C207.589 492.892 208.509 491.632 209.439 491.512C213.136 491.026 216.721 491.617 220.394 492.223C221.401 492.389 222.415 492.556 223.439 492.702C228.199 493.382 232.969 493.982 237.749 494.432C246.698 495.3 255.691 495.634 264.679 495.432C273.881 495.175 283.053 494.273 292.129 492.732C296.879 491.932 301.599 490.942 306.269 489.792C307.103 489.586 307.92 489.361 308.728 489.139C312.059 488.224 315.238 487.351 318.779 487.922C321.619 488.372 322.459 492.472 320.459 494.282C317.441 497.064 313.498 497.956 309.566 498.845C309.002 498.972 308.439 499.1 307.879 499.232C306.879 499.472 305.879 499.702 304.879 499.922C304.955 500.15 305.008 500.384 305.039 500.622C307.279 518.522 309.929 536.672 316.379 553.622C318.899 560.192 322.649 567.752 329.379 570.862C336.909 574.352 345.579 570.662 351.379 565.512C362.009 556.072 365.379 540.922 367.009 527.392C368.62 514.043 369.253 500.51 369.882 487.037C370.058 483.283 370.233 479.532 370.429 475.792C373.956 407.532 374.912 339.256 373.299 270.962L373.295 270.785C372.506 237.364 371.714 203.774 368.649 170.482C365.889 140.262 359.889 109.672 344.889 82.9624C338.163 70.7834 329.423 59.8318 319.039 50.5724C308.309 41.1724 294.679 32.6624 279.919 32.6824C251.649 32.7824 229.579 62.2624 216.759 84.2624C200.709 111.762 195.089 141.602 193.299 173.052C192.732 183.052 192.186 193.052 191.659 203.052C192.172 205.349 192.044 207.743 191.289 209.972C190.236 230.146 189.179 250.322 188.119 270.502C195.678 269.753 203.274 269.442 210.869 269.572C213.978 269.621 217.103 269.699 220.236 269.777C239.784 270.264 259.666 270.76 278.299 264.132C296.339 257.722 313.099 241.772 314.159 221.662Z" fill="#231F20"/>
<path fill-rule="evenodd" clip-rule="evenodd" d="M217.04 140.352C219.287 140.663 221.365 141.719 222.94 143.352C227.73 148.412 225.8 157.092 219.87 160.332C213.17 164.022 204.37 158.282 204.09 150.892C203.85 144.572 210.76 137.932 217.04 140.352ZM212.04 151.232C212.7 152.652 214.48 153.742 215.88 152.892C216.87 152.292 217.68 150.312 216.74 149.342C215.25 147.812 213.44 149.732 212.57 150.732C212.411 150.917 212.233 151.084 212.04 151.232Z" fill="#231F20"/>
<path fill-rule="evenodd" clip-rule="evenodd" d="M333.629 132.612C341.909 128.462 350.839 136.112 348.909 144.862C348.018 148.959 344.829 152.164 340.737 153.077C336.645 153.989 332.396 152.442 329.849 149.112C327.104 145.705 326.893 140.908 329.329 137.272C329.613 136.85 329.927 136.449 330.269 136.072C330.925 134.545 332.121 133.313 333.629 132.612ZM335.609 140.702C335.432 141.014 335.304 141.352 335.229 141.702C335.038 143.071 335.888 144.37 337.219 144.742C339.229 145.492 341.519 142.962 340.089 141.112C339.079 139.812 337.329 140.242 335.609 140.702Z" fill="#231F20"/>
<path d="M338.539 165.292C337.318 165.665 336.273 166.468 335.599 167.552C335.072 168.509 334.868 169.61 335.019 170.692C335.347 173.111 337.398 174.925 339.839 174.952C341.316 174.952 342.74 174.407 343.839 173.422C344.089 173.212 344.339 172.982 344.569 172.752C345.508 171.809 345.945 170.478 345.749 169.162C345.625 167.858 344.881 166.693 343.749 166.032C343.236 165.74 342.688 165.512 342.119 165.352L341.879 165.252C341.599 165.202 341.319 165.182 341.049 165.142L340.459 165.072H340.339H340.449C339.804 164.989 339.149 165.065 338.539 165.292Z" fill="#231F20"/>
<path d="M207.408 174.142C202.408 174.142 202.408 181.912 207.408 181.912C212.408 181.912 212.418 174.142 207.408 174.142Z" fill="#231F20"/>
<path d="M276.549 155.002C271.549 161.762 277.549 174.232 267.299 178.272C262.769 180.062 258.299 176.712 256.299 172.712C254.129 168.332 254.389 163.072 254.009 158.322C253.992 157.719 253.583 157.198 253 157.039C252.418 156.88 251.8 157.121 251.479 157.632C243.309 169.132 250.879 188.202 266.179 187.222C272.759 186.802 278.119 181.872 280.809 176.122C283.499 170.372 285.489 159.712 280.809 154.462C279.519 153.042 277.519 153.702 276.549 155.002Z" fill="#231F20"/>
<path d="M267.678 231.572C269.248 236.282 266.738 241.492 261.528 242.252C256.318 243.012 252.108 238.762 250.528 234.182C250.254 233.435 249.453 233.023 248.686 233.234C247.918 233.446 247.441 234.21 247.588 234.992C245.315 238.912 242.938 239.372 240.458 236.372C239.569 235.374 238.889 234.208 238.458 232.942C237.508 230.942 236.898 228.792 236.068 226.742C235.598 225.552 233.648 225.222 233.308 226.742C232.358 231.032 227.888 234.002 223.568 232.152C219.948 230.602 218.258 226.882 218.118 223.082C218.118 222.472 217.118 222.272 216.998 222.932C214.788 234.302 229.318 239.272 234.598 231.072C236.088 235.332 237.968 239.922 242.528 241.172C245.109 241.925 247.887 241.021 249.528 238.892C252.528 243.512 257.798 246.752 263.528 245.102C269.618 243.352 273.258 236.102 270.418 230.432C270.059 229.751 269.239 229.456 268.528 229.752C267.817 230.048 267.448 230.837 267.678 231.572Z" fill="#231F20"/>
<path d="M297.679 303.022C292.679 303.022 289.089 299.132 288.129 294.412C288.017 294.001 287.616 293.736 287.193 293.794C286.77 293.852 286.456 294.215 286.459 294.642C286.599 300.952 291.819 306.442 298.369 306.132C303.749 305.882 307.839 301.802 309.159 296.912C312.449 300.302 316.489 302.392 321.479 299.962C327.049 297.242 328.899 291.412 329.929 285.732C334.799 289.592 340.549 291.302 345.729 286.082C351.569 280.192 350.849 270.142 349.199 262.702C349.021 262.075 348.408 261.675 347.762 261.763C347.116 261.851 346.633 262.4 346.629 263.052C346.629 268.152 347.969 273.362 346.629 278.412C345.749 281.802 343.449 285.412 339.769 286.322C335.639 287.322 332.609 284.392 329.939 281.822C329.561 281.459 329.02 281.319 328.513 281.454C328.006 281.589 327.606 281.979 327.459 282.482C326.859 286.292 326.319 290.482 324.119 293.732C322.269 296.472 318.919 298.732 315.459 297.832C312.969 297.192 310.839 294.442 309.389 292.562C308.529 291.452 306.519 291.672 306.539 293.332C306.589 298.472 303.029 303.012 297.679 303.022Z" fill="#231F20"/>
<path d="M292.049 330.512C293.719 343.692 277.569 345.362 272.259 334.922C271.899 334.356 271.212 334.091 270.565 334.268C269.918 334.444 269.462 335.022 269.439 335.692C269.569 342.472 261.529 342.812 257.649 339.112C254.839 336.432 253.879 332.472 253.159 328.812C252.969 327.812 251.439 328.072 251.459 329.042C251.599 335.612 254.519 343.042 261.719 344.432C265.766 345.333 269.899 343.317 271.679 339.572C275.279 344.002 281.079 346.632 286.809 344.742C292.809 342.792 296.679 336.222 295.049 330.142C294.589 328.572 291.829 328.782 292.049 330.512Z" fill="#231F20"/>
<path d="M262.849 414.572C269.539 411.392 270.499 403.002 270.159 396.492C270.039 394.282 266.589 394.272 266.719 396.492C266.949 400.582 266.959 405.372 264.429 408.852C260.639 414.082 253.249 412.702 250.519 407.302C249.789 405.872 247.199 406.482 247.389 408.142C248.219 415.382 241.449 420.572 234.499 418.422C228.249 416.502 225.169 410.812 224.139 404.742C223.869 403.142 221.639 403.442 221.199 404.742C219.539 409.652 213.469 412.862 208.679 410.032C204.439 407.522 203.609 401.982 205.209 397.702C205.539 396.812 204.209 396.332 203.719 397.082C202.034 399.813 201.601 403.136 202.531 406.207C203.46 409.279 205.663 411.804 208.579 413.142C213.579 415.312 218.919 413.212 222.059 409.272C224.229 416.092 229.519 421.762 237.189 422.142C243.319 422.506 248.858 418.506 250.439 412.572C253.811 415.646 258.682 416.431 262.849 414.572Z" fill="#231F20"/>
<path d="M348.419 380.502C347.329 380.172 345.909 381.342 346.419 382.502C348.26 386.701 346.595 391.611 342.579 393.822C338.319 396.132 333.389 394.822 329.579 392.402C329.09 392.127 328.493 392.13 328.007 392.409C327.521 392.688 327.218 393.202 327.209 393.762C326.959 397.762 324.819 401.442 320.759 402.702C319.589 403.072 308.379 402.642 311.299 398.702C311.779 398.042 310.849 397.182 310.199 397.602C305.129 400.892 313.609 405.602 316.609 405.992C323.299 406.912 328.509 402.282 329.969 396.242C334.849 398.632 340.749 399.172 345.409 395.882C349.104 393.273 351.017 388.808 350.359 384.332C354.299 385.002 357.949 384.262 359.789 379.902C361.979 374.752 361.609 366.052 358.839 361.252C358.579 360.857 358.094 360.674 357.639 360.8C357.183 360.925 356.86 361.33 356.839 361.802C356.419 368.822 361.309 384.372 348.419 380.502Z" fill="#231F20"/>
<path d="M318.969 436.872C324.869 436.282 330.289 429.942 331.139 424.302C331.35 423.693 331.059 423.024 330.469 422.763C329.879 422.502 329.188 422.737 328.879 423.302C326.879 425.962 325.879 429.182 323.299 431.452C319.859 434.452 312.019 434.842 311.469 428.662C311.299 426.722 308.379 426.662 308.389 428.662C308.389 439.062 291.179 434.102 291.659 425.032C291.659 424.032 290.249 423.922 289.939 424.802C286.129 435.582 305.289 441.912 310.289 433.422C312.425 435.949 315.681 437.243 318.969 436.872Z" fill="#231F20"/>
<path d="M290.439 443.852L289.669 443.452C289.146 443.156 288.489 443.241 288.059 443.662L287.609 444.222C287.301 444.562 287.247 445.062 287.474 445.46C287.702 445.859 288.16 446.065 288.609 445.972C286.559 446.242 284.249 450.022 282.609 451.142C281.18 452.261 279.465 452.954 277.659 453.142C274.289 453.332 270.229 450.792 271.449 446.742C271.599 446.006 271.153 445.28 270.429 445.08C269.705 444.88 268.949 445.274 268.699 445.982C268.609 446.272 268.549 446.562 268.489 446.852C267.189 450.712 261.669 450.612 259.029 448.852C256.307 446.816 254.965 443.419 255.559 440.072C255.635 439.673 255.391 439.282 254.999 439.175C254.606 439.068 254.197 439.28 254.059 439.662C252.499 444.662 254.179 449.842 259.249 452.032C262.385 453.392 265.998 453.057 268.829 451.142C270.398 454.619 274.043 456.672 277.829 456.212C282.829 455.742 290.539 450.422 291.109 445.132C291.122 444.619 290.868 444.135 290.439 443.852Z" fill="#231F20"/>
<path d="M243.379 464.122C242.129 468.362 239.809 472.262 235.099 473.122C230.389 473.982 226.559 471.662 224.269 467.702C223.975 467.209 223.443 466.907 222.869 466.907C222.294 466.907 221.763 467.209 221.469 467.702C217.469 475.702 206.219 473.172 205.919 464.972C206.093 464.121 206.167 463.251 206.139 462.382C206.079 460.742 203.479 460.212 203.139 461.972C202.97 462.825 202.886 463.693 202.889 464.562C201.739 469.722 195.769 472.462 191.379 468.122C187.839 464.622 189.149 459.912 188.759 455.482C188.74 455.091 188.444 454.77 188.056 454.718C187.668 454.666 187.299 454.9 187.179 455.272C184.809 461.782 186.319 471.022 193.989 472.972C197.742 473.975 201.724 472.549 203.989 469.392C207.319 476.392 217.639 478.562 222.989 471.392C230.169 479.772 245.769 477.182 246.279 464.492C246.294 463.741 245.741 463.099 244.995 463.003C244.249 462.908 243.552 463.391 243.379 464.122Z" fill="#231F20"/>
<path d="M353.759 433.572C354.499 439.012 357.009 444.622 353.939 449.882C351.759 453.612 340.549 457.882 337.339 452.882C336.689 451.882 334.769 451.882 334.519 453.252C333.809 457.252 332.519 461.352 328.999 463.752C324.519 466.832 319.669 465.182 316.219 461.482C315.549 460.762 314.499 461.672 314.909 462.482C317.344 467.171 322.815 469.409 327.839 467.772C332.839 466.142 335.569 461.412 336.909 456.582C341.479 459.392 349.499 457.872 353.329 455.112C360.329 450.042 359.329 439.512 356.179 432.532C355.499 431.052 353.579 432.232 353.759 433.572Z" fill="#231F20"/>
<path d="M329.879 197.972C337.679 207.622 354.419 200.362 351.499 186.772C351.049 184.702 347.849 185.572 348.309 187.652C350.829 198.962 335.629 203.782 330.729 193.402C330.403 192.867 329.792 192.573 329.169 192.653C328.547 192.733 328.03 193.172 327.849 193.772C326.849 198.212 324.789 202.702 320.349 204.602C316.137 206.493 311.178 204.891 308.869 200.892C308.379 200.042 306.929 200.602 307.259 201.572C308.899 206.442 313.739 208.962 318.799 208.232C324.379 207.412 327.989 202.952 329.879 197.972Z" fill="#231F20"/>
</svg>
