<svg width="583" height="360" viewBox="0 0 583 360" fill="none" xmlns="http://www.w3.org/2000/svg">
<path d="M336.849 265.048C335.909 272.648 335.609 280.768 333.949 288.338C343.763 287.738 353.579 287.171 363.399 286.638C363.399 278.068 365.569 268.998 366.729 260.588C367.736 253.254 368.786 245.921 369.879 238.588C368.888 237.325 368.439 235.721 368.629 234.128C368.969 228.018 370.309 221.768 371.139 215.698C372.729 204.008 373.479 191.588 376.299 180.048C366.459 180.634 356.619 181.231 346.779 181.838C344.619 200.258 342.489 218.678 340.259 237.078C339.119 246.411 337.983 255.734 336.849 265.048Z" fill="white"/>
<path d="M242.41 269.198C241.31 277.328 240.63 285.638 239.16 293.738C248.42 293.244 257.677 292.744 266.93 292.238C267.38 279.238 269.24 265.968 271.16 252.888C269.9 252.888 268.65 252.838 267.5 252.888C265.12 252.988 264.03 250.698 264.31 248.698C265.83 237.618 267.367 226.541 268.92 215.468C270.25 205.938 271.11 196.048 273.16 186.578L253.94 187.858C253.57 196.458 251.57 205.228 250.32 213.728C248.96 222.968 247.66 232.218 246.32 241.468C244.98 250.718 243.65 259.948 242.41 269.198Z" fill="white"/>
<path d="M423.062 282.888C429.729 282.388 436.362 281.844 442.962 281.258C444.833 266.608 447.422 252.018 450.122 237.488H449.222C447.473 237.471 446.059 236.057 446.042 234.308C446.422 224.398 448.722 214.698 450.642 204.998C452.562 195.298 454.082 185.058 456.912 175.458L447.753 175.958C444.319 189.211 441.202 202.544 438.403 215.958C438.243 217.628 438.062 219.298 437.903 220.958C437.523 224.898 437.692 229.528 436.632 233.348C436.247 234.848 435.379 236.179 434.163 237.138C433.524 238.467 432.09 239.222 430.633 238.998C429.352 245.998 428.109 252.998 426.902 259.998C425.622 267.458 424.872 275.408 423.062 282.888Z" fill="white"/>
<path d="M331.142 262.898C332.135 253.938 333.135 244.984 334.142 236.038C336.142 218.108 338.232 200.198 340.302 182.278L322.552 183.398C322.557 183.461 322.557 183.524 322.552 183.588C322.232 190.728 320.112 197.958 319.012 205.018C317.879 212.304 316.985 219.621 316.332 226.968C316.022 230.438 315.752 233.908 315.542 237.388C315.352 240.508 315.752 244.168 314.922 247.188C314.092 250.208 312.332 251.058 310.002 250.988C309.335 256.941 308.695 262.891 308.082 268.838C307.382 275.688 307.342 283.088 306.082 290.008C313.569 289.568 321.052 289.118 328.532 288.658C328.442 280.158 330.222 271.278 331.142 262.898Z" fill="white"/>
<path d="M300.392 290.348C300.093 281.868 301.792 272.808 302.573 264.558C303.032 259.651 303.516 254.748 304.022 249.848C300.802 249.108 297.432 247.948 296.722 244.848C296.093 242.038 296.773 238.408 296.903 235.548C297.062 232.028 297.253 228.498 297.493 224.978C298.363 211.858 298.903 197.608 302.142 184.708C298.263 184.958 294.392 185.198 290.522 185.458C290.558 185.99 290.558 186.525 290.522 187.058C290.342 191.218 289.113 195.608 288.433 199.728L284.432 224.018C283.142 231.908 282.682 240.658 280.432 248.318C280.03 249.877 278.973 251.186 277.532 251.908C276.773 257.454 276.033 263.008 275.312 268.568C274.312 276.338 273.692 284.248 272.312 291.958C281.672 291.438 291.033 290.901 300.392 290.348Z" fill="white"/>
<path d="M402.311 261.648C401.091 269.218 400.261 277.038 398.621 284.578C404.888 284.178 411.158 283.751 417.431 283.298C417.871 275.348 419.751 267.228 420.991 259.458C422.081 252.658 423.221 245.868 424.371 239.078C423.611 239.078 422.861 238.988 422.141 238.928C421.181 238.917 420.279 238.467 419.694 237.706C419.109 236.945 418.905 235.958 419.141 235.028C421.851 223.478 424.091 211.818 425.781 200.028C426.691 193.728 427.341 187.408 428.171 181.098C428.299 179.696 428.56 178.31 428.951 176.958L416.771 177.668C413.501 196.058 410.111 214.428 407.021 232.858C405.434 242.464 403.864 252.061 402.311 261.648Z" fill="white"/>
<path d="M91.8506 139.428C92.7306 134.488 93.5106 129.518 94.2806 124.558C94.7506 121.558 100.121 92.3977 96.0506 91.8677H95.8806C95.5206 100.508 94.0606 109.158 93.0206 117.708C91.8606 127.198 90.7406 136.708 89.5406 146.188C89.4006 147.238 89.2706 148.298 89.1406 149.348C89.4909 147.703 90.0417 146.108 90.7806 144.598C91.249 142.899 91.6064 141.172 91.8506 139.428Z" fill="#FFF200"/>
<path fill-rule="evenodd" clip-rule="evenodd" d="M179.929 150.467C279.059 141.587 378.249 132.727 477.519 125.467V125.387C477.592 113.069 480.655 100.249 483.541 88.1716C483.813 87.0333 484.083 85.9016 484.349 84.7775C486.029 77.7241 487.843 70.7041 489.789 63.7175C490.202 62.2535 490.696 60.751 491.199 59.2238C492.412 55.5347 493.674 51.7011 493.949 47.9175C472.465 51.3408 450.81 53.9493 429.192 56.5535L429.19 56.5538L429.189 56.5539C424.033 57.175 418.879 57.7959 413.729 58.4275C364.489 64.4675 315.156 69.7441 265.729 74.2575C241.209 76.5308 216.676 78.6275 192.129 80.5475C188.035 80.874 183.939 81.2098 179.842 81.5457L179.842 81.5458C160.723 83.1134 141.574 84.6834 122.419 85.3175C122.102 85.6289 121.691 85.826 121.249 85.8775C120.208 86.0488 119.154 86.1291 118.099 86.1175C115.912 91.0704 114.774 96.5071 113.656 101.848L113.656 101.848L113.656 101.848L113.656 101.848L113.656 101.848L113.656 101.849L113.656 101.849C113.419 102.978 113.184 104.102 112.939 105.217C111.606 111.444 110.329 117.687 109.109 123.947C108.331 128.024 107.718 132.213 107.101 136.423C106.054 143.571 104.997 150.783 103.109 157.617C111.517 156.419 120.036 155.725 128.519 155.033H128.519L128.52 155.033L128.521 155.033L128.521 155.033L128.522 155.033C131.934 154.755 135.339 154.477 138.729 154.167L179.929 150.467ZM259.779 134.297C252.902 136.155 245.084 135.97 237.617 135.794C235.073 135.734 232.571 135.675 230.159 135.697C227.019 135.697 227.099 131.097 230.159 130.867C232.503 130.692 234.919 130.437 237.37 130.179L237.37 130.179C244.854 129.389 252.669 128.564 259.779 129.867C262.099 130.267 261.859 133.787 259.779 134.297ZM289.681 131.237C295.493 130.862 301.349 130.484 306.929 129.217C309.799 128.567 308.859 124.667 306.279 124.407C298.727 123.658 290.64 125.131 283.08 126.509L283.077 126.51L283.064 126.512L283.056 126.513C282.156 126.677 281.263 126.84 280.379 126.997C277.639 127.487 278.229 132.197 281.039 131.907C283.882 131.611 286.776 131.424 289.681 131.237ZM373.739 124.687C369.915 126.11 365.506 126.234 361.294 126.352C360 126.389 358.724 126.425 357.489 126.497C351.889 126.827 346.339 126.917 340.729 126.937C338.509 126.937 337.949 123.447 340.199 122.997C345.575 122.003 350.999 121.292 356.449 120.867C357.712 120.754 359.008 120.601 360.322 120.446C364.802 119.918 369.486 119.365 373.739 120.277C376.139 120.787 375.679 123.967 373.739 124.687ZM457.089 113.899C461.628 114.137 466.97 114.417 470.741 112.207H470.781C471.632 111.674 472.092 110.691 471.954 109.695C471.815 108.7 471.105 107.878 470.14 107.597C466.094 106.185 460.881 107.504 456.505 108.612C455.646 108.829 454.819 109.039 454.039 109.217C451.409 109.787 452.099 113.697 454.66 113.787C455.431 113.813 456.246 113.855 457.088 113.899L457.089 113.899L457.089 113.899ZM433.839 71.4975C438.901 70.4714 444.03 69.8941 449.151 69.3177L449.509 69.2775C451.062 69.1045 452.63 68.8924 454.204 68.6793C458.363 68.1163 462.57 67.5469 466.698 67.6775C468.008 67.7162 469.098 68.6973 469.274 69.9965C469.45 71.2956 468.661 72.5315 467.408 72.9175C457.278 75.8175 444.909 76.2975 434.409 75.9175C432.059 75.7875 431.339 72.0075 433.879 71.4975H433.839ZM447.199 93.1175C439.099 91.4275 428.099 93.8575 420.099 95.7875C417.549 96.4375 418.159 100.267 420.709 100.307C425.329 100.437 429.969 100.147 434.579 99.8475C435.404 99.7943 436.241 99.7559 437.082 99.7172C440.513 99.5595 444.027 99.398 447.199 98.2175C449.429 97.3775 449.979 93.6975 447.199 93.1175ZM431.828 113.627C434.208 114.137 434.208 117.947 431.828 118.447C428.147 119.197 424.365 119.272 420.596 119.347C419.337 119.372 418.08 119.397 416.829 119.447C415.172 119.515 413.508 119.618 411.842 119.722C408.059 119.958 404.262 120.195 400.499 120.007C397.909 119.867 397.259 116.117 399.869 115.417C405.019 114.027 410.499 113.657 415.809 113.327C416.133 113.307 416.459 113.287 416.784 113.266C421.788 112.949 426.918 112.625 431.828 113.657V113.627ZM395.601 75.8634C391.034 77.1856 386.449 78.5133 381.879 78.0875V78.1175C379.549 77.9075 379.219 81.4675 381.339 82.1075C386.089 83.4275 390.629 83.1075 395.429 82.1075C401.249 80.9275 406.769 79.9275 412.679 79.2875C414.699 79.0675 416.319 75.8575 413.879 74.8575C407.879 72.3082 401.757 74.0808 395.601 75.8634ZM381.153 99.1531L381.154 99.153L382.129 98.9975C383.1 98.843 384.08 98.6635 385.067 98.483L385.067 98.4829C388.358 97.8804 391.714 97.2659 394.999 97.5275C397.129 97.6975 398.479 100.817 396.189 101.937C388.409 105.737 377.289 105.937 368.779 105.937C366.169 105.987 365.549 101.927 368.129 101.417V101.387C372.448 100.541 376.784 99.8495 381.153 99.1531ZM342.844 81.3835L342.844 81.3835L342.843 81.3837C340.611 81.8964 338.436 82.396 336.369 82.7875C333.789 83.2875 334.389 87.4575 336.979 87.3375C338.127 87.2944 339.33 87.2633 340.573 87.2311C348.265 87.0323 357.44 86.7951 363.888 83.4375C365.598 82.5475 365.408 79.2975 363.308 79.0075C356.922 78.15 349.62 79.8272 342.844 81.3835ZM335.489 106.017C338.349 106.477 337.879 110.617 335.489 111.347C328.444 113.511 319.609 113.213 311.897 112.954C310.732 112.915 309.593 112.876 308.489 112.847C305.949 112.777 305.179 108.687 307.869 108.237C308.972 108.058 310.103 107.866 311.256 107.67C319.097 106.337 327.939 104.834 335.489 106.037V106.017ZM305.139 83.9375C299.228 84.9934 293.387 86.4127 287.649 88.1875C285.549 88.8375 285.849 92.2075 288.199 92.1075C292.139 91.9375 296.149 91.6775 299.899 91.1775C300.977 91.0337 302.204 90.771 303.493 90.495C306.687 89.8109 310.263 89.0451 312.899 89.8075C313.959 90.0655 315.061 89.5957 315.609 88.653C316.156 87.7104 316.018 86.5197 315.269 85.7275C312.389 82.6575 308.959 83.2475 305.139 83.9375ZM281.258 109.257C283.608 110.677 282.338 113.708 279.968 114.008C278.299 114.221 276.649 114.391 275.006 114.56L275.006 114.56C271.875 114.881 268.766 115.201 265.579 115.818C261.641 116.761 257.545 116.826 253.579 116.008C250.939 115.398 251.669 111.547 254.199 111.457C257.085 111.356 260.302 110.489 263.597 109.6C269.756 107.938 276.19 106.202 281.258 109.257ZM249.499 90.1118C246.111 90.4817 242.693 90.8549 239.469 91.8474C237.639 92.4174 237.369 95.4174 239.469 95.8474C247.529 97.4674 259.238 96.5074 266.958 93.6374C269.788 92.5774 269.498 88.2575 266.228 88.2075C263.037 88.1482 259.84 88.6537 256.667 89.1555C255.554 89.3315 254.444 89.5069 253.339 89.6575C252.071 89.831 250.788 89.9712 249.499 90.1118ZM231.829 115.847C234.169 116.317 233.769 119.527 231.829 120.187C227.531 121.674 222.775 121.772 218.172 121.868C217.046 121.891 215.928 121.914 214.829 121.957C213.883 121.995 212.927 122.042 211.965 122.089L211.964 122.089C207.249 122.321 202.398 122.56 197.829 121.687C195.629 121.277 195.769 117.897 197.829 117.397C201.995 116.377 206.428 116.238 210.778 116.102C212.14 116.059 213.494 116.017 214.829 115.947C216.153 115.879 217.49 115.774 218.834 115.669L218.835 115.669C223.178 115.328 227.591 114.982 231.829 115.837V115.847ZM192.776 94.1894C188.311 94.7125 183.803 95.2407 179.549 96.6675C178.822 96.7639 178.202 97.2409 177.922 97.9188C177.642 98.5967 177.745 99.3724 178.192 99.9538C178.639 100.535 179.362 100.834 180.089 100.737C190.499 100.887 202.649 101.027 212.649 97.7375C215.369 96.8475 214.649 93.3175 212.009 92.9975C207.1 92.3796 202.018 93.0299 197.074 93.6626L197.073 93.6627C196.177 93.7774 195.285 93.8916 194.399 93.9975C193.859 94.0624 193.318 94.1259 192.776 94.1894ZM178.076 134.342H178.076L178.081 134.341H178.081C178.838 134.281 179.595 134.221 180.349 134.157C181.437 134.065 182.529 133.95 183.622 133.835L183.623 133.835L183.623 133.835L183.623 133.835C187.51 133.426 191.421 133.014 195.229 133.607C197.829 134.017 197.359 137.737 195.229 138.407C191.853 139.489 188.195 139.647 184.601 139.802C183.512 139.849 182.428 139.895 181.359 139.967C180.52 140.026 179.678 140.09 178.835 140.154L178.833 140.154H178.833H178.833H178.833C174.607 140.477 170.347 140.803 166.129 140.377C163.749 140.137 162.969 136.787 165.549 136.077C169.625 135.01 173.865 134.675 178.076 134.342ZM160.819 124.127C162.839 123.217 162.199 119.887 160.199 119.437H160.159C157.259 118.779 154.256 119.204 151.285 119.625C150.557 119.728 149.831 119.831 149.109 119.917C148.719 119.964 148.326 120.01 147.932 120.055L147.931 120.056L147.93 120.056C144.623 120.439 141.225 120.832 138.169 122.127C136.559 122.807 135.989 125.547 138.169 125.987C141.829 126.699 145.596 126.367 149.301 126.041L149.301 126.041L149.307 126.04C149.508 126.023 149.709 126.005 149.909 125.987C150.539 125.933 151.171 125.888 151.803 125.842C154.891 125.62 157.989 125.397 160.819 124.127ZM122.869 99.3675C130.059 97.8775 138.769 97.1475 146.009 98.6775C148.569 99.2175 148.559 103.307 146.009 103.847C138.769 105.377 130.059 104.647 122.869 103.157C122.053 102.892 121.498 102.135 121.489 101.277C121.48 100.419 122.019 99.6503 122.829 99.3675H122.869ZM115.296 143.88C115.402 144.689 115.989 145.353 116.779 145.557H116.739C119.754 146.451 123.039 146.099 126.281 145.751C127.502 145.621 128.717 145.49 129.909 145.427C131.139 145.353 132.382 145.321 133.627 145.289C136.866 145.206 140.123 145.123 143.229 144.277C145.549 143.647 145.679 139.997 143.229 139.437C139.231 138.502 135.049 138.885 130.961 139.259C130.284 139.32 129.61 139.382 128.939 139.437C128.221 139.5 127.482 139.549 126.734 139.598C123.149 139.837 119.327 140.091 116.299 141.877C115.588 142.278 115.19 143.07 115.296 143.88Z" fill="#58595B"/>
<path d="M66.8187 119.788C80.8187 117.078 81.8187 91.2476 69.9487 87.3276C69.5684 87.3483 69.1911 87.2504 68.8687 87.0476C67.4159 86.7626 65.9216 86.7626 64.4687 87.0476C63.8447 87.1669 63.1986 87.068 62.6387 86.7676C57.9887 89.6376 55.6387 99.2176 55.5687 103.288C55.4087 109.338 58.3087 121.418 66.8187 119.788Z" fill="#FFF200"/>
<path d="M447.949 280.787C450.419 280.557 452.879 280.317 455.349 280.067C465.439 279.067 472.559 275.257 474.979 264.847C477.199 255.317 477.489 245.107 478.429 235.387C480.316 215.734 481.919 196.067 483.239 176.387C483.075 176.176 482.935 175.949 482.819 175.707C481.819 173.547 477.269 174.007 474.089 174.397C474.115 174.664 474.115 174.931 474.089 175.197C472.439 195.837 464.269 215.007 460.279 235.197C459.891 236.572 458.638 237.523 457.209 237.527H456.309C453.599 251.947 450.999 266.427 447.949 280.787Z" fill="white"/>
<path d="M66.6495 140.658C65.3895 140.598 62.2995 139.928 60.8095 140.358L60.7095 140.458C60.7695 143.908 60.6095 147.368 60.7095 150.828C64.1649 151.14 67.6403 151.164 71.0995 150.898C71.3831 149.244 71.5602 147.574 71.6295 145.898C71.7995 144.618 72.4495 142.428 72.5495 140.738C70.5859 140.602 68.6162 140.575 66.6495 140.658Z" fill="#FFF200"/>
<path d="M372.739 261.128C371.449 269.318 371.009 278.248 368.859 286.328C376.946 285.868 385.043 285.394 393.149 284.908C393.659 276.608 395.329 268.228 396.529 260.058C397.863 250.791 399.289 241.538 400.809 232.298C403.739 214.198 406.749 196.098 410.189 178.088L392.639 179.088C392.686 179.419 392.686 179.756 392.639 180.088C389.989 193.438 387.639 206.828 385.759 220.308C385.259 223.908 384.796 227.514 384.369 231.128C384.089 233.428 384.369 236.278 383.259 238.388C381.859 241.148 378.889 241.388 376.029 240.988C374.916 247.694 373.819 254.408 372.739 261.128Z" fill="white"/>
<path d="M565.552 36.6676C563.362 32.0176 560.832 27.5176 558.322 23.0176C557.892 25.8076 557.322 28.5876 556.842 31.3076C555.762 37.6876 554.649 44.0676 553.502 50.4476C545.502 95.4476 536.292 140.188 527.262 184.978C522.735 207.471 518.202 229.958 513.662 252.438C511.382 263.731 509.105 275.018 506.832 286.298C505.592 292.428 504.242 298.928 499.832 303.298C506.052 308.858 511.082 317.178 514.832 324.228C518.672 320.048 520.832 314.278 522.522 308.368C525.362 298.508 527.972 288.568 530.592 278.648C549.182 208.238 563.342 137.018 575.902 65.3376C575.902 60.9176 574.222 56.7976 572.532 52.5876C570.359 47.2209 568.032 41.9142 565.552 36.6676Z" fill="#58595B"/>
<path d="M494.211 305.948C493.403 305.58 492.798 304.873 492.561 304.018C458.261 308.424 423.895 312.318 389.461 315.698C326.228 321.984 262.895 326.784 199.461 330.098C167.728 331.724 135.981 332.974 104.221 333.848C88.3413 334.281 72.4613 334.614 56.5812 334.848C41.5812 335.078 26.4913 335.728 11.5312 335.028C12.9212 338.498 14.2512 342.028 15.7512 345.398C16.2812 347.008 16.9818 348.557 17.8412 350.018C19.2413 351.878 19.6112 351.568 21.8413 352.018L22.9913 352.258C39.1512 352.178 55.3813 353.258 71.5213 353.558C89.2946 353.844 107.065 353.904 124.831 353.738C188.341 353.178 251.831 350.008 315.161 345.508C347.051 343.238 378.921 340.698 410.781 338.088C442.311 335.498 474.271 334.088 505.511 328.908C506.192 328.789 506.892 328.891 507.511 329.198C508.264 328.909 508.999 328.575 509.711 328.198C507.268 323.818 504.598 319.569 501.711 315.468C499.341 312.248 496.551 309.228 494.211 305.948Z" fill="#58595B"/>
<path fill-rule="evenodd" clip-rule="evenodd" d="M496.841 297.288C370.791 313.198 244.161 323.588 117.161 327.518C99.1143 328.078 81.0676 328.514 63.021 328.828C57.0342 328.928 51.0294 328.935 45.0197 328.943H45.015C33.1382 328.957 21.2427 328.971 9.43095 329.708C9.34001 329.61 9.25328 329.508 9.1653 329.405C9.11784 329.35 9.07001 329.294 9.02095 329.238C8.51095 328.108 7.98095 326.978 7.42095 325.868C7.25117 325.519 6.98364 325.227 6.65095 325.028C5.24095 320.838 5.62095 315.888 6.01095 311.558C6.60626 304.903 7.22668 298.253 7.84729 291.602C8.10239 288.867 8.35752 286.133 8.61095 283.398C10.371 264.031 12.1743 244.661 14.021 225.288C17.661 187.088 21.631 148.978 27.541 111.088L27.6897 110.133C29.26 100.058 30.8368 89.9425 32.921 79.9676C34.921 70.2376 38.681 59.7576 48.921 56.1876C49.5638 55.9695 50.1184 55.5483 50.501 54.9876C98.8686 45.5978 148.168 41.5888 197.337 37.5905C211.581 36.4321 225.814 35.2747 240.011 33.9876C305.144 27.9742 370.298 22.0609 435.471 16.2476C472.378 12.9676 509.274 9.63423 546.161 6.24756C547.98 6.28923 549.689 7.13069 550.831 8.54756C551.102 9.10408 551.355 9.65557 551.607 10.2046L551.609 10.2105C551.859 10.7545 552.108 11.296 552.371 11.8376C553.804 17.3223 552.086 25.5815 550.978 30.9152L550.977 30.9163C550.732 32.0976 550.516 33.1353 550.371 33.9676C548.644 43.9009 546.861 53.8176 545.021 63.7176C541.368 83.1709 537.588 102.598 533.681 121.998C525.801 161.044 517.914 200.094 510.021 239.148C507.814 250.081 505.611 261.011 503.411 271.938C503.066 273.644 502.726 275.351 502.386 277.058L502.385 277.063L502.383 277.075L502.382 277.081C501.69 280.559 500.998 284.035 500.261 287.498C499.541 290.878 498.711 294.418 496.841 297.288ZM528.514 55.524V55.5246C528.214 57.297 527.915 59.0557 527.601 60.7876C527.262 62.665 526.88 64.5754 526.494 66.5053L526.493 66.5077C525.1 73.4692 523.655 80.6853 524.031 87.5276C524.05 87.8873 524.321 88.183 524.678 88.2319C525.035 88.2808 525.376 88.0691 525.491 87.7276C527.506 81.7485 528.339 75.1827 529.16 68.7124C529.561 65.5515 529.959 62.4134 530.491 59.3776C530.97 56.6362 531.544 53.8801 532.119 51.1146C533.381 45.0528 534.652 38.9455 534.961 32.8476C534.981 32.2876 534.231 32.2776 534.051 32.7276C531.173 39.8572 529.822 47.8196 528.514 55.524ZM520.379 107.004L520.38 107.003L520.381 106.992C520.539 105.748 520.698 104.5 520.871 103.248C520.971 102.568 521.971 102.688 522.151 103.248C523.488 108.258 522.669 113.599 519.891 117.978C519.724 118.217 519.415 118.31 519.143 118.203C518.872 118.095 518.71 117.816 518.751 117.528V117.498C519.488 114.003 519.932 110.519 520.378 107.01L520.378 107.009L520.379 107.008L520.379 107.007L520.379 107.006L520.379 107.005L520.379 107.004ZM16.901 275.738C17.3649 275.865 17.8439 275.591 17.971 275.128C19.371 270.528 20.761 265.268 19.381 260.468C19.2883 260.19 19.0285 260.003 18.736 260.003C18.4434 260.003 18.1836 260.19 18.091 260.468C17.2553 263.314 17.0315 266.357 16.8095 269.378C16.6782 271.164 16.5474 272.943 16.291 274.668C16.1639 275.132 16.437 275.611 16.901 275.738ZM24.141 220.488C23.8743 222.666 23.6702 224.903 23.4642 227.16C22.8977 233.367 22.3169 239.731 20.381 245.488C20.2821 245.816 19.9597 246.025 19.6194 245.98C19.2792 245.935 19.0216 245.651 19.011 245.308C18.4795 238.661 19.5857 231.622 20.6589 224.793C21.0599 222.242 21.4563 219.719 21.761 217.258C21.9751 215.505 22.1087 213.578 22.2474 211.577C22.6723 205.448 23.1458 198.619 26.131 193.938C26.3061 193.668 26.6355 193.542 26.9459 193.626C27.2564 193.711 27.4767 193.986 27.491 194.308C27.1833 199.857 26.3295 205.473 25.4769 211.08C24.9991 214.223 24.5217 217.363 24.141 220.488ZM117.031 80.2576C115.738 79.9421 114.388 80.4901 113.681 81.6176C108.932 90.8373 106.939 101.753 105.028 112.222C104.532 114.937 104.042 117.621 103.511 120.238C102.607 124.689 101.909 129.271 101.207 133.876L101.207 133.876L101.207 133.877L101.206 133.877L101.206 133.877L101.206 133.877L101.206 133.877L101.206 133.877L101.206 133.877C99.9035 142.422 98.5885 151.046 95.931 159.058C95.4058 159.6 95.1575 160.353 95.2569 161.101C95.3563 161.849 95.7925 162.511 96.441 162.898C97.6676 163.93 99.434 164.012 100.751 163.098C109.007 162.876 117.294 162.059 125.542 161.246H125.542H125.543H125.543H125.543C128.853 160.92 132.158 160.594 135.451 160.308C147.738 159.214 160.031 158.128 172.331 157.048C197.291 154.888 222.245 152.744 247.191 150.618C250.797 150.31 254.403 150.002 258.009 149.694L258.013 149.694C304.317 145.739 350.632 141.783 396.972 138.258C406.139 137.559 415.307 136.875 424.475 136.191L424.501 136.189C443.558 134.766 462.614 133.343 481.662 131.798C482.976 131.662 484.104 130.804 484.586 129.575C485.068 128.346 484.823 126.95 483.952 125.958C484.754 121.846 485.287 117.714 485.823 113.556C486.282 109.987 486.745 106.399 487.382 102.788C488.762 94.9676 490.412 87.1976 492.282 79.4876C494.062 72.0976 495.972 64.7476 497.972 57.4176C498.135 56.8163 498.312 56.2036 498.49 55.5831C499.889 50.7236 501.427 45.3833 497.782 41.2776C497.351 40.7615 496.701 40.4796 496.03 40.517C495.358 40.5544 494.744 40.9068 494.372 41.4676C471.431 44.1193 448.53 47.0925 425.629 50.0659L425.627 50.0661C399.732 53.4281 373.837 56.7901 347.882 59.6876C299.292 65.0576 250.621 70.0576 201.881 74.0576C191.81 74.8923 181.724 75.6211 171.637 76.35L171.635 76.3501C154.168 77.6122 136.698 78.8747 119.291 80.6876C118.571 80.5076 117.841 80.3876 117.031 80.2576ZM87.551 139.788C87.7545 138.23 87.96 136.68 88.1658 135.129L88.1658 135.128L88.1663 135.125C88.4253 133.171 88.6847 131.215 88.941 129.238C89.4347 125.493 89.8585 121.703 90.2839 117.898L90.2839 117.898L90.2839 117.898L90.284 117.898C91.4094 107.832 92.5464 97.6626 95.021 87.9676C95.0907 87.7253 95.3269 87.5703 95.5768 87.6028C95.8268 87.6353 96.0155 87.8456 96.021 88.0976V89.3176C96.1699 89.2926 96.322 89.2926 96.471 89.3176C100.697 89.9147 100.391 93.8112 100.119 97.2709C100.095 97.5774 100.071 97.8805 100.051 98.1776C99.581 105.098 98.821 111.988 97.891 118.848L97.8909 118.848L97.8909 118.848L97.8909 118.848L97.8909 118.848C96.8909 125.958 95.8909 133.068 94.631 140.138C94.5745 140.466 94.5169 140.828 94.4555 141.214C93.9184 144.59 93.0818 149.848 90.031 151.428C88.141 152.428 86.811 151.528 86.381 149.668C85.8762 147.75 86.4945 144.901 87.0324 142.423L87.0324 142.422C87.2405 141.464 87.4366 140.56 87.551 139.788ZM65.361 80.7876C57.461 80.0476 51.171 91.3476 49.921 98.7876C48.241 108.788 51.871 125.128 64.351 126.148C70.481 126.658 75.811 122.728 79.651 118.308C84.391 112.828 85.211 106.308 84.491 99.3076C83.491 89.4676 75.801 78.1576 65.361 80.7876ZM77.3762 149.377L77.3762 149.377C77.2035 151.702 77.0027 154.407 75.371 155.868C73.88 157.203 71.4764 157.089 69.4575 156.993L69.457 156.993C69.0116 156.971 68.585 156.951 68.191 156.948L57.721 156.858C56.0545 156.805 54.7221 155.455 54.691 153.788C54.351 148.398 54.211 142.688 55.841 137.468C56.3558 133.792 61.4629 134.121 64.9299 134.344L64.9323 134.345C65.3032 134.368 65.6553 134.391 65.981 134.408C66.6412 134.442 67.4476 134.431 68.3308 134.418C72.5307 134.357 78.4679 134.27 78.691 139.038C78.7814 140.951 78.3876 142.986 78.0049 144.963C77.8377 145.827 77.6726 146.68 77.5509 147.508C77.4729 148.074 77.4257 148.71 77.3762 149.377ZM28.6908 290.952C28.1684 294.621 27.6273 298.421 27.991 301.918C28.798 309.671 36.9694 309.064 43.2455 308.598C44.2792 308.522 45.2615 308.449 46.151 308.418C91.291 306.918 136.421 305.298 181.531 303.168C227.371 300.988 273.201 298.548 319.021 295.848C327.721 295.333 336.427 294.834 345.136 294.334C381.62 292.242 418.154 290.147 454.531 286.918C463.041 286.168 471.901 284.318 477.161 276.918C481.922 270.266 482.672 261.597 483.37 253.519C483.492 252.113 483.612 250.724 483.751 249.368C486.371 223.948 488.524 198.494 490.211 173.008C490.303 172.138 490.003 171.272 489.392 170.645C488.781 170.019 487.923 169.697 487.051 169.768C484.781 167.688 481.451 167.318 478.211 167.318C475.211 167.348 472.211 167.478 469.211 167.648C468.597 166.926 467.678 166.537 466.733 166.598C465.788 166.659 464.927 167.163 464.411 167.958C463.809 167.999 463.207 168.04 462.606 168.081C459.831 168.271 457.063 168.461 454.301 168.618C438.341 169.498 422.388 170.404 406.441 171.338C374.888 173.178 343.348 175.124 311.821 177.178L285.621 178.918C284.656 178.445 283.511 178.525 282.621 179.128C228.914 182.694 175.248 186.558 121.621 190.718C110.534 191.591 99.4476 192.471 88.361 193.358C87.4582 193.036 86.4608 193.116 85.621 193.578C83.4697 193.749 81.3183 193.918 79.167 194.087C75.9383 194.34 72.7096 194.594 69.481 194.858C67.3927 195.025 65.2498 195.134 63.0867 195.245C57.5119 195.528 51.8031 195.819 46.551 197.138C44.666 197.58 42.8903 198.4 41.331 199.548C40.5263 199.413 39.7016 199.612 39.0469 200.099C38.3922 200.586 37.964 201.318 37.861 202.128C35.612 218.632 34.0875 235.281 32.5642 251.918C32.008 257.992 31.452 264.064 30.861 270.128C30.341 275.528 29.8143 280.928 29.281 286.328C29.1366 287.822 28.9155 289.375 28.6908 290.952Z" fill="#939598"/>
<path d="M138.611 196.578C138.572 196.431 138.548 196.28 138.541 196.128L125.911 197.128L120.66 197.538C120.66 197.538 120.66 197.618 120.66 197.668C118.914 215.794 117.897 233.974 117.61 252.208C117.583 253.639 116.632 254.889 115.26 255.298C113.99 255.648 112.73 255.918 111.47 256.138C110.81 263.448 110.16 270.758 109.42 278.068C108.7 285.188 108.68 293.008 106.93 300.068C116.01 299.634 125.084 299.208 134.151 298.788C134.221 289.838 135.811 280.788 136.741 271.888C137.301 266.554 137.865 261.221 138.431 255.888C137.981 255.888 137.541 255.888 137.141 255.888C135.367 255.877 133.932 254.442 133.921 252.668C134.481 242.608 135.174 232.551 136.001 222.498C136.691 214.148 136.711 204.908 138.611 196.578Z" fill="white"/>
<path d="M82.4578 200.448L68.4586 201.578C65.548 219.569 63.6286 237.706 62.7089 255.908C62.6389 257.458 61.289 259.278 59.5391 259.068L58.5392 258.988C57.8792 266.188 57.2359 273.378 56.6093 280.558C56.0193 287.458 56.2993 295.298 54.6094 302.168C60.889 301.928 67.1653 301.678 73.4383 301.418C73.2983 292.978 74.9782 284.188 75.8182 275.858L78.428 249.958C80.0879 233.448 81.4278 216.848 83.4277 200.378L82.4578 200.448Z" fill="white"/>
<path d="M105.73 198.647L89.5511 199.897C88.1612 216.967 85.9813 234.007 84.2013 251.037L81.3815 278.037C80.5915 285.607 80.3815 293.677 78.8516 301.207L102.201 300.207C101.511 292.297 103.091 283.697 103.691 275.857C104.191 269.457 104.751 263.047 105.31 256.647C103.722 256.443 102.527 255.099 102.511 253.497C103.237 243.411 103.881 233.321 104.441 223.227C104.851 215.097 104.811 206.787 105.73 198.647Z" fill="white"/>
<path d="M51.6607 220.068C52.4307 214.198 52.8308 207.998 54.3809 202.268C49.4406 202.388 43.7403 203.068 43.2102 206.598C43.1686 206.897 43.0702 207.185 42.9202 207.448C41.4001 229.448 38.82 251.448 36.6899 273.368L35.0098 290.648C34.7497 293.238 33.8097 296.708 34.1397 299.288C34.6697 303.338 37.1399 302.778 40.6801 302.658C43.6803 302.568 46.6804 302.448 49.6806 302.338C48.9105 295.248 50.3706 287.538 50.9207 280.558C51.5007 273.228 52.1407 265.898 52.8008 258.558C50.6506 258.188 48.7205 257.408 47.8705 255.558C46.0804 251.648 48.5405 244.298 49.0606 240.198C49.9339 233.491 50.8007 226.781 51.6607 220.068Z" fill="white"/>
<path d="M177.451 193.238L154.451 194.938C154.461 195.117 154.461 195.298 154.451 195.478L149.861 235.148C149.491 238.358 149.111 241.578 148.741 244.798C148.451 247.258 148.651 250.668 147.571 252.968C146.928 254.273 145.724 255.212 144.301 255.518C143.635 261.704 142.945 267.888 142.231 274.068C141.281 282.178 140.771 290.578 139.031 298.588C147.871 298.201 156.711 297.798 165.551 297.378C165.551 289.068 167.311 280.438 168.241 272.268C169.241 263.368 170.301 254.468 171.341 245.568C173.421 228.128 175.411 210.678 177.451 193.238Z" fill="white"/>
<path d="M201.61 271.408C202.31 264.818 202.98 258.228 203.66 251.638L201.55 251.788C199.762 251.771 198.316 250.326 198.3 248.538C198.59 229.808 198.83 209.938 202.61 191.458L183.71 192.788C181.58 210.738 179.37 228.678 177.21 246.628C176.11 255.888 174.993 265.148 173.86 274.408C172.94 281.818 172.62 289.738 171 297.118L199.06 295.788C199.34 287.658 200.76 279.428 201.61 271.408Z" fill="white"/>
<path d="M240.06 240.618C241.2 231.778 242.43 222.948 243.66 214.118C244.85 205.628 245.47 196.668 247.49 188.308C237.751 188.974 228.008 189.641 218.261 190.308C217.161 209.518 215.621 228.638 215.151 247.878C215.119 249.676 213.669 251.126 211.871 251.158L209.871 251.278C209.051 258.704 208.225 266.131 207.391 273.558C206.572 280.788 206.142 288.258 204.852 295.478C214.465 294.998 224.074 294.508 233.681 294.008C234.461 276.268 237.801 258.218 240.06 240.618Z" fill="white"/>
<path fill-rule="evenodd" clip-rule="evenodd" d="M345.635 294.317L345.627 294.317L345.583 294.32L345.526 294.323C336.684 294.829 327.844 295.335 319.01 295.857C273.203 298.577 227.373 301.004 181.52 303.137C136.41 305.267 91.2797 306.887 46.1397 308.387C45.2539 308.417 44.2757 308.488 43.246 308.562C36.9753 309.016 28.7971 309.608 27.9897 301.877C27.6269 298.41 28.1645 294.627 28.6857 290.958C28.9116 289.368 29.1345 287.799 29.2797 286.287C29.813 280.887 30.3397 275.487 30.8597 270.087C31.5102 263.548 32.1188 256.993 32.728 250.434L32.728 250.433L32.7281 250.433L32.7281 250.433L32.7281 250.433L32.7281 250.432L32.7281 250.432L32.7282 250.432L32.7282 250.432L32.7282 250.432C34.2261 234.302 35.7271 218.139 37.8597 202.087C37.9628 201.278 38.391 200.546 39.0456 200.059C39.7003 199.572 40.525 199.373 41.3297 199.507C42.8901 198.379 44.6621 197.576 46.5397 197.147C51.7918 195.829 57.5007 195.538 63.0755 195.254C65.2386 195.144 67.3815 195.035 69.4697 194.867C72.6977 194.603 75.9257 194.35 79.1537 194.097C81.3057 193.928 83.4577 193.759 85.6097 193.587C86.4495 193.126 87.4469 193.045 88.3497 193.367C99.4297 192.467 110.516 191.587 121.61 190.727C175.263 186.581 228.93 182.717 282.61 179.137C283.5 178.535 284.644 178.455 285.61 178.927C294.336 178.341 303.07 177.761 311.81 177.187C343.336 175.134 374.876 173.187 406.43 171.347C422.376 170.414 438.33 169.507 454.29 168.627C457.051 168.471 459.82 168.281 462.595 168.091L462.599 168.091C463.199 168.05 463.799 168.008 464.4 167.967C464.916 167.173 465.777 166.669 466.722 166.608C467.667 166.547 468.586 166.936 469.2 167.657C472.2 167.487 475.2 167.327 478.2 167.327C481.44 167.287 484.77 167.697 487.04 169.777C487.912 169.707 488.77 170.029 489.381 170.655C489.992 171.282 490.292 172.147 490.2 173.017C488.513 198.504 486.36 223.957 483.74 249.377C483.603 250.704 483.485 252.061 483.365 253.436V253.437L483.364 253.437C482.656 261.541 481.895 270.25 477.15 276.927C471.89 284.317 463.03 286.167 454.52 286.927C418.314 290.158 381.954 292.238 345.641 294.316L345.64 294.317L345.64 294.317L345.64 294.317L345.639 294.317L345.639 294.317L345.638 294.317L345.638 294.317L345.638 294.317L345.637 294.317L345.637 294.317L345.637 294.317L345.636 294.317L345.636 294.317L345.635 294.317ZM466.27 211.819C464.073 219.547 461.874 227.28 460.31 235.167C459.91 236.516 458.676 237.445 457.27 237.457H456.37C455.725 240.858 455.088 244.261 454.451 247.663L454.443 247.702C452.376 258.743 450.309 269.782 447.98 280.757C450.45 280.527 452.91 280.287 455.38 280.037C465.47 279.017 472.59 275.227 475.01 264.817C476.659 257.743 477.243 250.294 477.819 242.949C478.019 240.399 478.218 237.862 478.461 235.357C480.334 215.724 481.937 196.057 483.271 176.357C483.107 176.146 482.966 175.918 482.851 175.677C481.801 173.517 477.301 173.977 474.12 174.367C474.146 174.634 474.146 174.901 474.12 175.167C473.115 187.746 469.695 199.776 466.27 211.819ZM434.16 237.107C435.376 236.149 436.244 234.818 436.63 233.317C437.356 230.701 437.505 227.705 437.649 224.81L437.649 224.808C437.715 223.478 437.78 222.168 437.9 220.927C437.982 220.071 438.069 219.214 438.156 218.358C438.239 217.546 438.322 216.736 438.4 215.927C441.2 202.541 444.316 189.207 447.75 175.927L456.91 175.427C454.816 182.53 453.45 189.928 452.096 197.265L452.095 197.269C451.619 199.848 451.144 202.419 450.64 204.967C450.324 206.56 450 208.147 449.677 209.731C448.009 217.895 446.358 225.978 446.04 234.277C446.056 236.027 447.47 237.441 449.22 237.457H450.12C447.42 251.987 444.83 266.577 442.96 281.227C436.34 281.814 429.706 282.357 423.06 282.857C424.243 277.968 424.973 272.878 425.694 267.85C426.077 265.185 426.456 262.538 426.9 259.947C428.106 252.941 429.35 245.941 430.63 238.947C432.083 239.176 433.515 238.429 434.16 237.107ZM428.2 181.137C428.327 179.736 428.588 178.349 428.98 176.997L416.83 177.747C415.909 182.927 414.978 188.106 414.047 193.284L414.045 193.296L414.043 193.308L414.041 193.32L414.038 193.333L414.036 193.346L414.034 193.36L414.031 193.373L414.029 193.387L414.026 193.4L414.024 193.414L414.021 193.429L414.019 193.444L414.016 193.456C411.653 206.605 409.29 219.756 407.08 232.937C405.48 242.524 403.9 252.107 402.34 261.687C401.933 264.212 401.569 266.764 401.205 269.324V269.324L401.204 269.329L401.204 269.33C400.476 274.446 399.742 279.594 398.65 284.617C404.923 284.211 411.193 283.784 417.46 283.337C417.772 277.696 418.809 271.969 419.828 266.343L419.828 266.343L419.829 266.342L419.829 266.339L419.829 266.337C420.246 264.036 420.66 261.752 421.02 259.497C422.11 252.697 423.25 245.907 424.4 239.117C423.64 239.077 422.89 239.027 422.17 238.967C421.21 238.957 420.308 238.507 419.723 237.746C419.137 236.985 418.934 235.998 419.17 235.067C421.88 223.477 424.12 211.817 425.81 200.067C426.348 196.341 426.795 192.607 427.243 188.873C427.552 186.294 427.861 183.715 428.2 181.137ZM383.21 238.367C383.962 236.869 384.065 234.978 384.161 233.198C384.2 232.471 384.238 231.763 384.32 231.107C384.746 227.494 385.21 223.887 385.71 220.287C387.55 206.787 389.94 193.417 392.55 180.067C392.597 179.736 392.597 179.399 392.55 179.067L410.1 178.067C406.66 196.067 403.65 214.177 400.72 232.277C399.273 241.531 397.883 250.791 396.55 260.057C396.219 262.308 395.853 264.574 395.485 266.85L395.485 266.851C394.518 272.838 393.539 278.894 393.17 284.907C385.07 285.407 376.973 285.881 368.88 286.327C370.297 281.001 370.971 275.309 371.636 269.699C371.979 266.799 372.32 263.922 372.76 261.127C373.826 254.407 374.906 247.687 376 240.967C378.84 241.327 381.81 241.127 383.21 238.367ZM372.422 205.074C373.366 196.686 374.325 188.156 376.3 180.077C366.466 180.664 356.626 181.271 346.78 181.897C346.29 186.07 345.803 190.242 345.315 194.413L345.314 194.427C343.649 208.669 341.984 222.909 340.26 237.137C339.126 246.431 337.99 255.744 336.85 265.077C336.573 267.414 336.349 269.799 336.124 272.203C335.616 277.618 335.099 283.125 333.95 288.367C343.763 287.781 353.58 287.214 363.4 286.667C363.386 280.682 364.45 274.452 365.488 268.374C365.936 265.749 366.38 263.153 366.73 260.617C367.75 253.284 368.8 245.951 369.88 238.617C368.889 237.355 368.439 235.751 368.63 234.157C368.858 230.062 369.535 225.904 370.207 221.779L370.207 221.778L370.207 221.777L370.209 221.766L370.209 221.765L370.209 221.765C370.538 219.741 370.867 217.724 371.14 215.727C371.616 212.234 372.018 208.668 372.422 205.075L372.422 205.074ZM308.03 268.837C308.636 262.884 309.276 256.934 309.95 250.987C312.28 251.057 314.08 250.067 314.87 247.187C315.404 245.24 315.413 242.873 315.421 240.579V240.578C315.425 239.48 315.428 238.398 315.49 237.387C315.7 233.907 315.97 230.387 316.28 226.967C316.947 219.634 317.84 212.317 318.96 205.017C319.352 202.504 319.873 199.968 320.396 197.423C321.342 192.82 322.294 188.185 322.5 183.587C322.505 183.524 322.505 183.461 322.5 183.397L340.281 182.277C339.851 185.997 339.42 189.716 338.989 193.435L338.979 193.525L338.969 193.612L338.959 193.698L338.949 193.781L338.939 193.867L338.929 193.956L338.929 193.958L338.928 193.96L338.928 193.962L338.928 193.964L338.928 193.965L338.928 193.967L338.928 193.968L338.927 193.97L338.927 193.972C337.302 207.991 335.678 222.008 334.121 236.037C333.121 244.984 332.121 253.937 331.121 262.897C330.835 265.497 330.467 268.145 330.096 270.814L330.096 270.816C329.27 276.752 328.43 282.795 328.45 288.657C320.97 289.117 313.487 289.567 306 290.007C306.836 285.524 307.147 280.838 307.452 276.232C307.619 273.729 307.783 271.249 308.03 268.837ZM280.45 248.297C280.048 249.857 278.99 251.166 277.55 251.887C276.776 257.441 276.036 262.987 275.33 268.527C274.994 271.136 274.702 273.76 274.41 276.387L274.41 276.389L274.41 276.39C273.832 281.588 273.253 286.797 272.33 291.917C281.716 291.397 291.076 290.867 300.41 290.327C300.199 284.377 300.974 278.14 301.724 272.099V272.098L301.724 272.098C302.043 269.53 302.357 266.998 302.59 264.537C303.056 259.631 303.54 254.727 304.04 249.827C300.82 249.107 297.45 247.947 296.74 244.827C296.286 242.803 296.512 240.353 296.722 238.072C296.804 237.187 296.883 236.327 296.92 235.527C297.08 232.007 297.27 228.477 297.51 224.957C297.619 223.307 297.723 221.639 297.828 219.958C298.558 208.274 299.327 195.965 302.16 184.687C300.923 184.767 299.688 184.846 298.453 184.924L298.45 184.925L298.448 184.925C295.81 185.093 293.175 185.26 290.54 185.437C290.576 185.97 290.576 186.505 290.54 187.037C290.419 189.823 289.828 192.712 289.246 195.554C288.959 196.956 288.674 198.346 288.45 199.707L284.45 223.997C284.027 226.58 283.694 229.255 283.358 231.954C282.667 237.499 281.963 243.145 280.45 248.297ZM253.95 187.887L273.17 186.607C271.72 193.303 270.866 200.209 270.019 207.049L270.019 207.051L270.019 207.052C269.668 209.885 269.319 212.707 268.93 215.497C267.39 226.577 265.853 237.654 264.32 248.727C264.04 250.727 265.13 253.017 267.51 252.917C268.272 252.884 269.079 252.895 269.903 252.906C270.322 252.912 270.745 252.917 271.17 252.917C269.25 265.997 267.39 279.227 266.94 292.267C257.68 292.774 248.423 293.274 239.17 293.767C240.123 288.513 240.745 283.169 241.364 277.844L241.364 277.843C241.699 274.96 242.033 272.083 242.42 269.227C243.66 259.977 245 250.737 246.34 241.497C246.861 237.904 247.374 234.307 247.888 230.71L247.89 230.695L247.891 230.692L247.891 230.689C248.697 225.044 249.504 219.397 250.34 213.757C250.729 211.015 251.199 208.249 251.672 205.471L251.672 205.47L251.672 205.469C252.669 199.606 253.675 193.693 253.94 187.857L253.95 187.887ZM209.83 251.287C209.016 258.714 208.19 266.141 207.35 273.567C207.115 275.683 206.911 277.822 206.706 279.969L206.705 279.971C206.21 285.151 205.71 290.387 204.77 295.497C214.376 295.017 223.986 294.527 233.6 294.027C234.181 281.436 236.031 268.694 237.864 256.069C238.615 250.896 239.363 245.743 240.02 240.627C241.16 231.787 242.39 222.957 243.62 214.127C243.974 211.603 244.279 209.036 244.586 206.456C245.311 200.361 246.044 194.191 247.45 188.317C237.703 188.984 227.96 189.651 218.22 190.317C217.903 195.794 217.553 201.263 217.202 206.73C216.323 220.439 215.446 234.133 215.11 247.887C215.078 249.686 213.628 251.135 211.83 251.167L209.83 251.287ZM47.8997 255.567C48.7497 257.417 50.6797 258.197 52.8297 258.567C52.1697 265.897 51.5297 273.227 50.9497 280.567C50.797 282.51 50.5751 284.506 50.3503 286.527C49.7651 291.789 49.1606 297.225 49.7097 302.347C48.9594 302.375 48.2091 302.403 47.4588 302.431C45.2091 302.516 42.9594 302.6 40.7097 302.667C40.3649 302.679 40.0301 302.695 39.7064 302.711L39.704 302.711C36.7144 302.853 34.6568 302.951 34.1697 299.297C33.946 297.549 34.3057 295.391 34.6417 293.376C34.8015 292.418 34.9559 291.492 35.0397 290.657L36.7197 273.377C37.3511 266.87 38.0221 260.362 38.6933 253.851C40.2862 238.399 41.8803 222.936 42.9497 207.457C43.0996 207.195 43.1981 206.907 43.2397 206.607C43.7697 203.077 49.4697 202.397 54.4097 202.277C53.1856 206.803 52.6476 211.621 52.1208 216.338C51.9805 217.594 51.8411 218.843 51.6897 220.077C50.8297 226.791 49.973 233.504 49.1197 240.217C48.9761 241.248 48.7138 242.485 48.4304 243.822C47.5887 247.792 46.5606 252.643 47.8997 255.567ZM74.8407 283.596L74.8407 283.596L74.8407 283.596L74.8407 283.596L74.8407 283.596C75.1782 280.989 75.5131 278.402 75.7697 275.857L78.3797 249.957C78.9443 244.376 79.47 238.784 79.9959 233.19C81.0256 222.238 82.0559 211.279 83.3797 200.377L82.4697 200.447L68.4697 201.577C65.559 219.568 63.6394 237.706 62.7197 255.907C62.6497 257.457 61.2997 259.277 59.5497 259.067L58.5497 258.987C57.883 266.187 57.2197 273.377 56.5597 280.557C56.4008 282.588 56.3129 284.7 56.2236 286.844C56.0095 291.988 55.7876 297.319 54.5597 302.167C60.833 301.927 67.1097 301.677 73.3897 301.417C73.2924 295.555 74.0732 289.525 74.8407 283.596ZM105.28 256.647C104.72 263.047 104.16 269.457 103.66 275.857C103.486 278.132 103.229 280.47 102.969 282.837V282.837V282.837V282.837C102.334 288.629 101.68 294.592 102.17 300.207L78.8197 301.207C79.8909 296.037 80.3114 290.611 80.7256 285.268C80.9145 282.83 81.1022 280.409 81.3497 278.037L84.1697 251.037C84.7603 245.397 85.3994 239.748 86.0391 234.094L86.0392 234.093C87.3272 222.709 88.6177 211.303 89.5197 199.897L105.73 198.647C105.118 204.049 104.931 209.543 104.744 215.009C104.651 217.761 104.557 220.505 104.41 223.227C103.85 233.314 103.206 243.404 102.48 253.497C102.497 255.099 103.691 256.443 105.28 256.647ZM138.43 255.927H137.14C135.366 255.911 133.935 254.471 133.93 252.697C134.476 242.637 135.17 232.581 136.01 222.527C136.196 220.246 136.334 217.905 136.473 215.538L136.473 215.538C136.848 209.162 137.234 202.603 138.62 196.527C138.58 196.38 138.557 196.23 138.55 196.077L125.92 197.077L120.67 197.487V197.617C118.93 215.757 117.913 233.937 117.62 252.157C117.592 253.589 116.642 254.839 115.27 255.247C114 255.597 112.74 255.867 111.48 256.087L111.282 258.282L111.282 258.285L111.281 258.285C110.689 264.862 110.096 271.44 109.43 278.017C109.217 280.126 109.065 282.298 108.912 284.491V284.492C108.547 289.725 108.173 295.085 106.94 300.017C116.013 299.637 125.083 299.241 134.15 298.827C134.199 292.536 134.999 286.186 135.793 279.884C136.129 277.221 136.463 274.566 136.74 271.927C137.3 266.594 137.863 261.261 138.43 255.927ZM165.55 297.377C156.71 297.791 147.87 298.194 139.03 298.587C140.3 292.748 140.915 286.69 141.523 280.689C141.749 278.47 141.973 276.258 142.23 274.067C142.95 267.887 143.64 261.704 144.3 255.517C145.722 255.212 146.927 254.273 147.57 252.967C148.339 251.329 148.459 249.129 148.569 247.109C148.613 246.292 148.656 245.506 148.74 244.797C148.936 243.088 149.135 241.378 149.334 239.67L149.335 239.67C149.51 238.161 149.686 236.653 149.86 235.147L154.45 195.477C154.459 195.298 154.459 195.117 154.45 194.937L177.45 193.237L177.354 194.068C175.386 211.231 173.417 228.404 171.38 245.567C170.85 250.279 170.296 254.991 169.741 259.702C169.248 263.891 168.755 268.079 168.28 272.267C167.989 274.824 167.618 277.426 167.245 280.049L167.245 280.049V280.05C166.425 285.808 165.591 291.668 165.55 297.377ZM177.17 246.597C176.076 255.857 174.96 265.117 173.82 274.377L173.86 274.407C173.558 276.827 173.321 279.314 173.082 281.823C172.591 286.965 172.092 292.201 171.01 297.147L199.07 295.797C199.259 290.316 199.969 284.77 200.672 279.281C201.009 276.649 201.344 274.03 201.62 271.437C202.145 266.496 202.653 261.555 203.161 256.614C203.33 254.965 203.5 253.316 203.67 251.667L201.55 251.787C200.671 251.793 199.827 251.446 199.207 250.823C198.586 250.201 198.242 249.356 198.25 248.477C198.259 247.926 198.268 247.374 198.277 246.82C198.576 228.579 198.891 209.333 202.56 191.397L183.67 192.757C182.363 203.766 181.027 214.771 179.69 225.776C178.848 232.716 178.005 239.656 177.17 246.597Z" fill="#231F20"/>
<path fill-rule="evenodd" clip-rule="evenodd" d="M79.6508 118.318C75.8108 122.738 70.4808 126.668 64.3508 126.158C51.8708 125.128 48.2408 108.788 49.9208 98.7976C51.1708 91.3676 57.4608 80.0676 65.3608 80.7976C75.8008 78.1676 83.4908 89.4776 84.4908 99.3176C85.2108 106.388 84.3908 112.858 79.6508 118.318ZM62.6208 86.7476C57.9708 89.6176 55.6308 99.1976 55.5508 103.268C55.4108 109.338 58.3108 121.418 66.8008 119.768C80.8208 117.058 81.7508 91.2276 69.9308 87.3076C69.5505 87.3283 69.1731 87.2304 68.8508 87.0276C67.398 86.7426 65.9036 86.7426 64.4508 87.0276C63.8267 87.1469 63.1806 87.048 62.6208 86.7476Z" fill="#231F20"/>
<path fill-rule="evenodd" clip-rule="evenodd" d="M64.9422 134.346C65.3087 134.369 65.6567 134.391 65.9789 134.408C66.6392 134.442 67.4455 134.431 68.3287 134.418C72.5286 134.357 78.4658 134.27 78.6889 139.038C78.7776 140.9 78.401 142.901 78.0352 144.846C77.8647 145.752 77.6965 146.646 77.5789 147.508C77.5009 148.074 77.4536 148.71 77.4041 149.377C77.2315 151.702 77.0307 154.407 75.3989 155.868C73.9303 157.183 71.5891 157.079 69.5838 156.989C69.1041 156.968 68.6436 156.948 68.2189 156.948L57.7489 156.858C56.0707 156.82 54.7207 155.466 54.6889 153.788C54.3489 148.398 54.2089 142.688 55.8389 137.468C56.3544 133.796 61.4749 134.124 64.9422 134.346ZM71.0778 150.868C71.3613 149.214 71.5383 147.544 71.6077 145.868C71.6716 145.387 71.8033 144.777 71.947 144.111C72.1857 143.006 72.4577 141.747 72.5076 140.668C70.5502 140.543 68.5875 140.526 66.6282 140.618C66.2597 140.6 65.7346 140.53 65.1388 140.451C63.6977 140.26 61.8429 140.013 60.7889 140.318L60.6889 140.418C60.7289 142.142 60.7089 143.869 60.6889 145.598C60.6689 147.327 60.6489 149.057 60.6889 150.788C64.1436 151.104 67.6186 151.131 71.0778 150.868Z" fill="#231F20"/>
<path fill-rule="evenodd" clip-rule="evenodd" d="M100.759 163.098C99.4422 164.012 97.6759 163.93 96.4492 162.898C95.8022 162.509 95.3681 161.847 95.2707 161.098C95.1733 160.35 95.4232 159.598 95.9492 159.058C98.6109 151.034 99.93 142.383 101.235 133.825C101.935 129.232 102.632 124.666 103.529 120.238C104.061 117.613 104.551 114.918 105.047 112.191C106.946 101.742 108.931 90.8247 113.689 81.6175C114.396 80.49 115.746 79.9421 117.039 80.2575C117.849 80.3875 118.579 80.5075 119.299 80.6875C136.706 78.8746 154.177 77.6122 171.643 76.3501C181.731 75.6211 191.817 74.8923 201.889 74.0575C250.619 70.0175 299.289 65.1075 347.889 59.6875C373.844 56.79 399.741 53.4279 425.636 50.0659C448.537 47.0925 471.439 44.1192 494.379 41.4675C494.751 40.9068 495.365 40.5544 496.037 40.517C496.708 40.4796 497.358 40.7615 497.789 41.2775C501.434 45.3833 499.896 50.7236 498.497 55.5831C498.319 56.2036 498.142 56.8163 497.979 57.4175C495.989 64.7475 494.069 72.0975 492.289 79.4875C490.389 87.1975 488.739 95.1075 487.389 102.788C486.772 106.301 486.313 109.851 485.854 113.4C485.311 117.607 484.767 121.813 483.959 125.958C484.83 126.95 485.075 128.346 484.593 129.575C484.111 130.804 482.983 131.662 481.669 131.798C462.622 133.343 443.566 134.766 424.51 136.188C415.332 136.874 406.155 137.559 396.979 138.258C350.638 141.783 304.323 145.739 258.018 149.694C254.411 150.002 250.805 150.31 247.199 150.618C222.246 152.718 197.293 154.861 172.339 157.048C160.039 158.121 147.746 159.208 135.459 160.308C132.421 160.58 129.374 160.881 126.322 161.183C117.819 162.024 109.273 162.869 100.759 163.098ZM112.949 105.248C111.596 111.474 110.319 117.718 109.119 123.978C108.348 128.023 107.743 132.176 107.136 136.35C106.09 143.537 105.035 150.789 103.099 157.678C111.507 156.479 120.026 155.785 128.509 155.093C131.922 154.815 135.328 154.537 138.719 154.228L179.939 150.498C279.069 141.588 378.259 132.728 477.529 125.498V125.418C477.603 113.021 480.704 100.075 483.605 87.9638C483.859 86.905 484.111 85.8526 484.359 84.8075C486.026 77.7542 487.839 70.7342 489.799 63.7475C490.218 62.2546 490.72 60.7274 491.229 59.1779C492.437 55.5064 493.685 51.7097 493.959 47.9475C472.474 51.3709 450.82 53.9794 429.202 56.5836C424.044 57.2048 418.889 57.8258 413.739 58.4575C364.473 64.4309 315.139 69.7075 265.739 74.2875C241.213 76.5209 216.679 78.6175 192.139 80.5775C188.325 80.8817 184.51 81.1928 180.693 81.5041C161.294 83.0862 141.865 84.6707 122.429 85.3475C122.112 85.659 121.701 85.856 121.259 85.9075C120.218 86.0788 119.164 86.1591 118.109 86.1475C115.918 91.134 114.78 96.565 113.659 101.909C113.425 103.027 113.192 104.142 112.949 105.248Z" fill="#231F20"/>
<path fill-rule="evenodd" clip-rule="evenodd" d="M572.127 36.4176C572.544 37.3173 572.958 38.2113 573.371 39.0976C573.961 40.367 574.652 41.745 575.382 43.2018C578.116 48.6535 581.404 55.2097 582.051 61.3176C582.538 62.0124 582.731 62.8709 582.591 63.7076C579.261 85.9176 575.091 108.038 570.841 130.088C563.494 168.654 555.047 206.964 545.501 245.018C540.601 264.391 535.484 283.698 530.151 302.938C530.054 303.291 529.956 303.65 529.857 304.013C526.583 316.035 522.013 332.816 507.851 334.758C507.621 334.848 507.383 334.915 507.141 334.958C480.503 339.339 453.399 341.257 426.387 343.168L426.386 343.168C418.261 343.743 410.144 344.317 402.051 344.958C338.351 350.008 274.551 354.588 210.771 357.218C178.521 358.558 146.241 359.378 113.951 359.478C97.9973 359.538 82.0406 359.408 66.0806 359.088C63.2546 359.03 60.4208 358.986 57.5822 358.941C46.4991 358.767 35.3446 358.591 24.3106 357.668H24.2106C23.2596 357.569 22.2927 357.635 21.3306 357.701C19.6523 357.816 17.9888 357.93 16.4506 357.168C14.1851 356.044 13.1641 353.685 12.2225 351.51C12.1583 351.361 12.0945 351.214 12.0306 351.068C9.1812 345.1 6.78769 338.926 4.8706 332.598C1.3606 329.238 0.220603 324.018 0.0406027 318.888C-0.207421 311.093 0.724653 303.102 1.6447 295.214C2.02299 291.971 2.39924 288.745 2.6906 285.558C3.45634 277.004 4.20563 268.447 4.95498 259.89C7.99282 225.2 11.0316 190.5 15.1706 155.928C17.7206 134.708 20.6706 113.538 24.3006 92.4776C24.4686 91.4874 24.6354 90.4743 24.805 89.4439C27.3114 74.2192 30.4416 55.2054 47.3006 50.2976C48.0723 50.039 48.9181 50.1265 49.6206 50.5376C77.0661 42.6648 106.104 40.174 134.64 37.7262L134.641 37.7262L134.641 37.7262C140.104 37.2575 145.549 36.7905 150.961 36.2876C282.687 24.0142 414.444 11.9276 546.231 0.0275834C547.087 -0.099329 547.949 0.216983 548.521 0.867583C552.891 1.81758 556.051 5.18758 557.671 9.44758C563.457 17.6989 567.927 27.349 572.127 36.4176ZM8.80137 328.74C8.87429 328.902 8.94724 329.065 9.0206 329.228C9.05801 329.27 9.0947 329.313 9.13105 329.355L9.13192 329.356L9.1325 329.357C9.23172 329.473 9.3285 329.586 9.4306 329.688C21.2417 328.951 33.1366 328.937 45.0129 328.923H45.0139H45.0187C51.0286 328.915 57.0336 328.908 63.0206 328.808C81.0739 328.501 99.1206 328.068 117.161 327.508C244.171 323.578 370.841 313.188 496.841 297.278C498.711 294.408 499.541 290.868 500.261 287.488C500.998 284.023 501.69 280.546 502.382 277.067L502.383 277.064L502.385 277.053L502.386 277.048C502.726 275.341 503.065 273.634 503.411 271.928C505.617 260.994 507.821 250.064 510.021 239.138C517.947 200.098 525.834 161.048 533.681 121.988C537.621 102.594 541.401 83.1676 545.021 63.7076C546.867 53.8076 548.651 43.8909 550.371 33.9576C550.516 33.1254 550.731 32.0877 550.977 30.9064L550.977 30.9052C552.086 25.5716 553.803 17.3124 552.371 11.8276C551.831 10.7376 551.331 9.64758 550.831 8.53758C549.689 7.12071 547.98 6.27925 546.161 6.23758C509.267 9.61092 472.371 12.9443 435.471 16.2376C370.317 22.1576 305.164 28.0709 240.011 33.9776C225.598 35.2934 211.148 36.4735 196.686 37.6545L196.686 37.6545L196.685 37.6546C147.733 41.6523 98.6548 45.6602 50.5006 54.9776C50.118 55.5383 49.5635 55.9595 48.9206 56.1776C38.6806 59.7476 34.9206 70.2276 32.9206 79.9576C30.8364 89.9326 29.2597 100.049 27.6894 110.123L27.5406 111.078C21.6306 148.968 17.6606 187.118 14.0206 225.278C12.1939 244.644 10.3906 264.014 8.6106 283.388C8.35718 286.123 8.10206 288.857 7.84697 291.591C7.22635 298.243 6.60592 304.893 6.0106 311.548C5.6506 315.878 5.2406 320.828 6.6506 325.018C6.98329 325.217 7.25082 325.509 7.4206 325.858C7.93429 326.808 8.36736 327.773 8.80137 328.74ZM507.481 329.168C506.862 328.861 506.161 328.759 505.481 328.878C481.741 332.806 457.585 334.57 433.519 336.326C425.915 336.881 418.32 337.436 410.751 338.058C378.891 340.668 347.021 343.208 315.131 345.478C251.791 349.978 188.311 353.148 124.801 353.708C107.027 353.868 89.2573 353.808 71.4906 353.528C64.8194 353.416 58.1329 353.161 51.4422 352.906H51.4418L51.4403 352.905C41.9445 352.543 32.4405 352.181 22.9606 352.228L21.8106 351.988C21.4095 351.912 21.0684 351.861 20.7706 351.815C19.4054 351.608 18.9517 351.539 17.8106 349.988C16.9512 348.527 16.2505 346.978 15.7206 345.368C14.5985 342.817 13.5715 340.221 12.5434 337.622C12.1972 336.747 11.8508 335.872 11.5006 334.998C22.9535 335.532 34.4529 335.28 45.9145 335.028C49.4643 334.95 53.0105 334.872 56.5506 334.818C72.4306 334.578 88.3106 334.244 104.191 333.818C135.951 332.944 167.697 331.694 199.431 330.068C262.877 326.801 326.227 322.001 389.481 315.668C423.901 312.234 458.267 308.341 492.581 303.988C492.818 304.843 493.422 305.55 494.231 305.918C495.433 307.625 496.774 309.262 498.109 310.893L498.109 310.893C499.339 312.394 500.563 313.889 501.671 315.428C504.557 319.529 507.227 323.778 509.671 328.158C508.962 328.538 508.23 328.875 507.481 329.168ZM530.1 280.355L530.551 278.648C549.181 208.238 563.341 137.018 575.881 65.3376C575.851 60.9176 574.201 56.7976 572.511 52.5876C570.304 47.2142 567.971 41.9076 565.511 36.6676C563.281 32.0176 560.791 27.5176 558.281 23.0176C558.054 24.3355 557.814 25.6511 557.575 26.9592C557.308 28.4205 557.043 29.8724 556.801 31.3076C555.714 37.6876 554.601 44.0676 553.461 50.4476C546.595 88.8563 538.884 127.105 531.174 165.348C529.854 171.891 528.535 178.434 527.221 184.978C522.681 207.464 518.147 229.951 513.621 252.438C511.361 263.724 509.084 275.011 506.791 286.298C505.551 292.428 504.201 298.928 499.791 303.298C506.041 308.858 511.071 317.178 514.791 324.228C518.631 320.048 520.791 314.278 522.481 308.368C525.158 299.073 527.63 289.708 530.1 280.355Z" fill="#231F20"/>
<path d="M143.192 139.408C138.532 138.348 133.622 139.048 128.902 139.408C124.742 139.768 119.902 139.688 116.262 141.848C115.551 142.248 115.153 143.04 115.259 143.85C115.365 144.659 115.952 145.324 116.742 145.528C120.892 146.768 125.592 145.628 129.872 145.368C134.302 145.098 138.872 145.368 143.192 144.218C145.552 143.618 145.642 139.968 143.192 139.408Z" fill="#231F20"/>
<path d="M138.13 125.968C141.99 126.738 145.97 126.328 149.87 125.968C153.57 125.648 157.37 125.638 160.78 124.108C162.78 123.198 162.21 119.868 160.16 119.418C156.52 118.598 152.74 119.418 149.07 119.878C145.4 120.338 141.55 120.638 138.13 122.088C136.55 122.788 135.95 125.528 138.13 125.968Z" fill="#231F20"/>
<path d="M122.829 103.158C130.019 104.648 138.729 105.378 145.969 103.848C148.519 103.308 148.529 99.2177 145.969 98.6777C138.729 97.1477 130.019 97.8777 122.829 99.3677C122.016 99.6421 121.469 100.405 121.469 101.263C121.469 102.121 122.016 102.883 122.829 103.158Z" fill="#231F20"/>
<path d="M180.12 100.668C190.53 100.848 202.68 100.988 212.68 97.6676C215.4 96.7776 214.68 93.2476 212.04 92.9276C206.24 92.2376 200.2 93.2776 194.43 93.9276C189.43 94.5276 184.35 94.9976 179.58 96.5976C178.456 96.7467 177.666 97.7787 177.815 98.9026C177.964 100.026 178.996 100.817 180.12 100.668Z" fill="#231F20"/>
<path d="M239.472 95.8476C247.531 97.4675 259.24 96.5075 266.96 93.6376C269.79 92.5776 269.5 88.2576 266.23 88.2076C261.92 88.1276 257.601 89.0776 253.341 89.6576C248.741 90.2876 243.921 90.4776 239.472 91.8476C237.642 92.4176 237.372 95.4176 239.472 95.8476Z" fill="#231F20"/>
<path d="M288.182 92.1074C292.123 91.9374 295.973 91.7074 299.883 91.1774C303.793 90.6474 309.203 88.7375 312.883 89.8074C313.943 90.0655 315.045 89.5957 315.593 88.653C316.14 87.7103 316.002 86.5197 315.253 85.7275C312.373 82.6575 308.943 83.2475 305.123 83.9375C299.211 84.9934 293.37 86.4127 287.632 88.1875C285.552 88.8375 285.852 92.2074 288.182 92.1074Z" fill="#231F20"/>
<path d="M336.981 87.3577C345.231 87.0477 356.401 87.3577 363.891 83.4577C365.601 82.5677 365.411 79.3177 363.311 79.0277C354.821 77.8877 344.711 81.2277 336.371 82.8077C333.791 83.2877 334.391 87.4577 336.981 87.3577Z" fill="#231F20"/>
<path d="M381.34 82.0876C386.09 83.4576 390.63 83.0876 395.43 82.0876C401.25 80.9076 406.77 79.9076 412.68 79.2676C414.68 79.0476 416.32 75.8676 413.88 74.8376C403.43 70.3976 392.61 79.0576 381.88 78.0676C379.55 77.9076 379.22 81.4676 381.34 82.0876Z" fill="#231F20"/>
<path d="M434.48 75.8676C444.95 76.2976 457.32 75.8176 467.48 72.8676C468.733 72.4815 469.523 71.2457 469.347 69.9466C469.171 68.6474 468.081 67.6663 466.77 67.6276C461.08 67.4476 455.24 68.6276 449.58 69.2276C444.34 69.8176 439.09 70.3976 433.91 71.4476C431.34 72.0076 432.06 75.7876 434.48 75.8676Z" fill="#231F20"/>
<path d="M197.789 121.678C203.309 122.728 209.209 122.178 214.789 121.948C220.369 121.718 226.459 122.028 231.789 120.178C233.729 119.518 234.129 116.308 231.789 115.838C226.239 114.718 220.389 115.648 214.789 115.938C209.189 116.228 203.239 116.048 197.789 117.388C195.729 117.888 195.549 121.268 197.789 121.678Z" fill="#231F20"/>
<path d="M253.621 116.008C257.587 116.826 261.684 116.761 265.621 115.818C270.481 114.878 275.161 114.628 280.011 114.008C282.381 113.708 283.651 110.678 281.301 109.258C273.521 104.568 262.521 111.168 254.301 111.458C251.711 111.548 250.981 115.398 253.621 116.008Z" fill="#231F20"/>
<path d="M308.469 112.868C316.899 113.088 327.379 113.868 335.469 111.368C337.859 110.638 338.329 106.498 335.469 106.038C326.809 104.658 316.469 106.838 307.829 108.258C305.159 108.708 305.929 112.788 308.469 112.868Z" fill="#231F20"/>
<path d="M368.751 105.988C377.261 105.988 388.381 105.768 396.161 101.988C398.451 100.868 397.101 97.7476 394.971 97.5776C390.701 97.2376 386.311 98.3776 382.101 99.0476C377.431 99.7976 372.771 100.528 368.101 101.438C365.551 101.928 366.171 105.988 368.751 105.988Z" fill="#231F20"/>
<path d="M420.709 100.337C425.329 100.467 429.969 100.177 434.579 99.8775C438.769 99.6075 443.249 99.7175 447.199 98.2475C449.429 97.4075 449.979 93.7275 447.199 93.1475C439.109 91.4575 428.059 93.8875 420.099 95.8175C417.549 96.4375 418.159 100.267 420.709 100.337Z" fill="#231F20"/>
<path d="M166.092 140.378C171.152 140.888 176.272 140.318 181.322 139.968C185.912 139.658 190.792 139.818 195.192 138.408C197.322 137.738 197.792 134.018 195.192 133.608C190.282 132.848 185.242 133.748 180.312 134.158C175.382 134.568 170.312 134.818 165.512 136.078C162.972 136.788 163.752 140.138 166.092 140.378Z" fill="#231F20"/>
<path d="M259.781 129.848C250.341 128.138 239.661 130.158 230.161 130.848C227.101 131.078 227.021 135.698 230.161 135.678C239.651 135.588 250.561 136.768 259.781 134.278C261.861 133.788 262.101 130.268 259.781 129.848Z" fill="#231F20"/>
<path d="M306.279 124.408C297.819 123.568 288.689 125.518 280.379 126.998C277.639 127.488 278.229 132.198 281.039 131.908C289.569 131.018 298.559 131.118 306.929 129.218C309.799 128.568 308.859 124.668 306.279 124.408Z" fill="#231F20"/>
<path d="M373.742 120.277C368.242 119.097 362.022 120.367 356.452 120.867C351.001 121.292 345.577 122.003 340.202 122.997C337.952 123.447 338.512 126.937 340.732 126.937C346.342 126.937 351.892 126.827 357.492 126.497C362.752 126.187 368.782 126.547 373.742 124.687C375.682 123.967 376.142 120.787 373.742 120.277Z" fill="#231F20"/>
<path d="M400.55 120.048C405.97 120.318 411.46 119.708 416.88 119.488C421.88 119.278 426.97 119.488 431.88 118.488C434.26 117.988 434.26 114.178 431.88 113.668C426.65 112.568 421.16 113.048 415.88 113.378C410.6 113.708 405.09 114.078 399.94 115.468C397.26 116.158 397.91 119.908 400.55 120.048Z" fill="#231F20"/>
<path d="M454.081 109.217C451.451 109.817 452.141 113.697 454.701 113.787C459.631 113.947 466.311 114.787 470.781 112.207C471.634 111.681 472.099 110.703 471.97 109.709C471.84 108.714 471.14 107.888 470.181 107.597C465.341 105.907 458.831 108.127 454.081 109.217Z" fill="#231F20"/>
<path fill-rule="evenodd" clip-rule="evenodd" d="M94.3129 141.531C93.7497 144.911 92.9143 149.923 89.9487 151.458C88.0587 152.438 86.7287 151.558 86.2687 149.698C85.8357 147.819 86.4172 145.082 86.9301 142.668C87.1515 141.626 87.3601 140.644 87.4687 139.818C87.7251 137.839 87.9847 135.881 88.2439 133.926C88.4496 132.375 88.6551 130.825 88.8587 129.268C89.3525 125.523 89.7763 121.733 90.2017 117.928C91.3271 107.862 92.4641 97.6928 94.9387 87.9977C95.0084 87.7554 95.2446 87.6005 95.4946 87.633C95.7445 87.6654 95.9332 87.8757 95.9387 88.1277V89.3477C96.0876 89.3227 96.2397 89.3227 96.3887 89.3477C100.608 89.9465 100.304 93.8643 100.034 97.3315C100.011 97.6277 99.9884 97.9205 99.9687 98.2077C99.4987 105.128 98.7387 112.018 97.8087 118.878C96.8387 125.988 95.7687 133.098 94.5487 140.168C94.472 140.577 94.3954 141.036 94.3129 141.531ZM91.8236 127.52C91.0738 133.728 90.3234 139.942 89.5387 146.148H89.5487C89.4332 146.956 89.3296 147.77 89.2287 148.563C89.1985 148.8 89.1686 149.035 89.1387 149.268C89.489 147.623 90.0398 146.028 90.7787 144.518C91.2454 142.833 91.6028 141.119 91.8487 139.388C92.7287 134.448 93.5087 129.518 94.2787 124.518C94.3236 124.226 94.4134 123.696 94.5355 122.975C95.6897 116.16 99.7294 92.307 96.0487 91.8277H95.8787C95.6265 97.8809 94.8147 103.939 94.0073 109.964C93.6623 112.539 93.3181 115.108 93.0187 117.668C92.6172 120.949 92.2205 124.234 91.8236 127.52Z" fill="#231F20"/>
<path d="M525.479 87.7876C528.479 78.8876 528.869 68.6876 530.479 59.4376C532.009 50.6876 534.479 41.7876 534.949 32.9076C534.949 32.3476 534.219 32.3376 534.039 32.7876C530.499 41.5576 529.269 51.5876 527.589 60.8476C526.029 69.4676 523.589 78.7876 524.009 87.5876C524.014 87.959 524.29 88.2709 524.658 88.321C525.026 88.3711 525.375 88.1442 525.479 87.7876Z" fill="#231F20"/>
<path d="M519.892 118.008C522.671 113.629 523.491 108.288 522.153 103.278C521.973 102.718 520.973 102.598 520.873 103.278C520.212 108.068 519.712 112.788 518.752 117.528C518.69 117.823 518.846 118.121 519.124 118.238C519.402 118.355 519.724 118.258 519.892 118.008Z" fill="#231F20"/>
<path d="M26.1326 193.928C22.1326 200.138 22.6326 210.128 21.7626 217.248C20.6426 226.308 18.2825 236.168 19.0126 245.298C19.0232 245.64 19.2808 245.925 19.621 245.97C19.9612 246.015 20.2837 245.806 20.3826 245.478C23.0226 237.638 23.1525 228.658 24.1425 220.478C25.2025 211.818 27.0126 202.958 27.4925 194.288C27.4743 193.968 27.2526 193.696 26.9431 193.614C26.6336 193.532 26.3065 193.659 26.1326 193.928Z" fill="#231F20"/>
<path d="M18.089 260.468C16.759 264.998 16.979 270.028 16.289 274.668C16.1619 275.132 16.435 275.611 16.899 275.738C17.3629 275.865 17.8419 275.592 17.969 275.128C19.369 270.528 20.759 265.268 19.379 260.468C19.2863 260.19 19.0265 260.003 18.734 260.003C18.4414 260.003 18.1816 260.19 18.089 260.468Z" fill="#231F20"/>
</svg>
