<svg width="326" height="583" viewBox="0 0 326 583" fill="none" xmlns="http://www.w3.org/2000/svg">
<path d="M239.535 557.864C246.755 554.414 253.895 550.764 261.475 548.244C261.974 540.538 262.858 532.861 264.125 525.244C261.195 530.014 257.955 534.584 254.965 538.914C250.362 545.651 245.2 551.99 239.535 557.864Z" fill="#BE1E2D"/>
<path d="M90.9056 276.854C83.3456 277.444 75.8156 278.404 68.2756 279.234C54.7656 280.714 40.9856 281.604 27.7656 278.704C32.1456 298.964 35.8456 319.364 40.2956 339.604C42.1423 348.031 43.979 356.464 45.8056 364.904C46.5256 363.494 47.3456 362.114 48.0956 360.714C50.2856 356.654 52.4956 352.614 54.6756 348.554C59.0356 340.434 63.3223 332.274 67.5356 324.074C75.549 308.427 83.339 292.687 90.9056 276.854Z" fill="#BE1E2D"/>
<path d="M230.474 326.484C238.544 307.064 245.934 287.314 254.244 267.994C245.764 269.304 237.244 270.154 228.854 270.704C225.394 270.924 221.944 271.044 218.494 271.104C218.47 271.295 218.423 271.483 218.354 271.664C210.294 293.464 201.104 314.904 192.474 336.484C185.214 354.644 178.474 373.094 169.994 390.734C161.154 409.134 150.934 426.914 141.194 444.854C131.654 462.404 122.334 480.074 112.674 497.564C104.674 512.134 95.9142 527.564 84.0742 539.494C86.0742 548.364 88.0042 557.264 89.5342 566.204C89.9559 566.653 90.4033 567.077 90.8742 567.474C100.164 560.594 107.244 552.474 114.224 542.974C121.924 532.564 129.534 522.044 136.644 511.214C161.694 473.064 183.134 432.574 202.264 391.214C212.134 369.834 221.444 348.214 230.474 326.484Z" fill="#BE1E2D"/>
<path d="M137.356 353.214C144.076 338.874 150.536 324.414 156.916 309.924C160.25 302.404 163.5 294.847 166.666 287.254C168.846 282.034 170.666 276.164 173.386 271.024C160.046 271.704 146.976 274.534 133.736 275.854C132.426 282.404 128.536 289.064 125.866 295.174C123.196 301.284 120.406 307.494 117.586 313.604C111.706 326.364 105.513 338.974 99.0062 351.434C92.5163 363.894 85.7962 376.234 78.7262 388.374C72.2563 399.484 66.0863 411.494 57.9062 421.464C60.1596 431.957 62.4263 442.441 64.7063 452.914C66.4062 460.714 68.1163 468.511 69.8363 476.304C77.3563 462.804 85.7463 449.734 93.4463 436.304C109.056 409.214 124.076 381.604 137.356 353.214Z" fill="#BE1E2D"/>
<path d="M256.467 401.034C241.957 434.364 225.074 466.611 205.947 497.524C196.337 512.914 186.327 528.014 175.447 542.524C170.367 549.294 165.147 555.944 159.707 562.434C155.819 567.263 151.556 571.777 146.957 575.934C156.367 575.464 165.727 574.274 175.137 572.934L178.677 572.444C189.387 563.214 196.977 550.234 205.017 538.764C213.577 526.574 221.937 514.244 229.947 501.694C237.957 489.144 245.577 476.384 252.737 463.344C256.457 456.584 260.034 449.751 263.467 442.844C266.157 437.384 268.317 430.904 271.767 425.734C272.487 407.294 273.067 388.844 273.877 370.404C274.044 366.357 274.23 362.301 274.437 358.234C272.437 363.614 270.017 368.894 267.917 374.044C264.217 383.084 260.4 392.081 256.467 401.034Z" fill="#BE1E2D"/>
<path fill-rule="evenodd" clip-rule="evenodd" d="M5.00605 249.304C5.77605 260.564 12.486 271.684 24.006 274.134L24.146 274.184C25.0488 273.716 26.1588 274 26.726 274.844C42.5177 277.77 58.5819 275.736 74.5031 273.721H74.5034L74.5538 273.715C75.3216 273.617 76.089 273.52 76.856 273.424C85.4984 272.216 94.2025 271.502 102.926 271.284C106.24 271.246 109.556 271.3 112.873 271.354H112.874H112.876H112.877H112.878H112.879H112.88H112.882H112.883H112.884C118.403 271.445 123.923 271.535 129.436 271.204C135.68 270.829 141.914 269.729 148.149 268.629L148.15 268.629L148.151 268.629C150.732 268.173 153.314 267.718 155.896 267.314C164.204 266.07 172.586 265.378 180.986 265.244C186.585 265.118 192.18 265.108 197.773 265.098H197.774H197.774H197.775H197.776H197.776H197.777H197.778H197.778H197.779C209.926 265.077 222.061 265.056 234.186 263.844C251.896 262.074 268.976 257.754 286.266 253.364C287.467 252.984 288.778 253.381 289.566 254.364C302.566 252.834 314.346 245.624 317.446 231.684C319.239 223.629 317.695 215.192 313.166 208.294C308.036 200.714 298.826 195.594 290.106 200.634C287.836 201.954 284.696 199.204 286.326 196.854C292.326 188.254 295.116 176.404 297.326 166.304C299.496 156.454 300.246 145.854 296.456 136.304C293.276 128.304 286.656 120.874 277.766 119.624C269.916 118.514 261.926 121.894 258.576 129.284C257.276 132.164 253.146 130.474 253.026 127.774C252.815 123.074 253.009 118.047 253.207 112.904C253.817 97.0996 254.468 80.2086 243.536 68.4237C236.82 61.3954 226.835 58.536 217.416 60.9437C208.326 63.3237 201.756 70.5837 198.416 79.1437V79.2237C198.365 79.3465 198.309 79.4666 198.246 79.5837V79.6437C196.866 81.9337 192.926 82.3837 192.306 79.1137C191.792 76.4063 191.357 73.6989 190.923 70.9975L190.923 70.9974L190.923 70.9972L190.923 70.9971L190.923 70.9969L190.923 70.9968L190.923 70.9966L190.923 70.9965L190.923 70.9963L190.923 70.9962C189.915 64.7179 188.912 58.4721 186.926 52.3337C184.265 43.8322 180.062 35.8933 174.526 28.9137C165.096 17.3037 151.266 8.60373 136.146 7.23373C118.916 5.65373 103.316 13.4237 92.146 26.1637C71.916 49.1637 67.316 81.9837 77.146 110.454C78.5161 114.454 72.3361 116.024 70.9361 112.164C65.376 96.8437 43.746 103.984 34.066 110.364C23.486 117.364 15.706 128.244 11.576 140.144C6.66605 154.264 6.38605 169.694 8.98605 184.304C11.336 197.514 16.156 210.404 25.916 219.924C26.7715 220.82 27.0176 222.137 26.5436 223.282C26.0696 224.427 24.9648 225.184 23.726 225.214C10.986 225.104 4.22605 237.904 5.00605 249.304ZM267.336 166.444C267.702 166.667 267.925 167.065 267.925 167.494C267.925 167.923 267.702 168.32 267.336 168.544C262.676 172.144 265.336 176.594 269.716 178.714C272.516 180.054 274.816 180.124 275.626 176.784C276.116 174.784 275.416 170.144 272.256 171.784C271.432 172.242 270.404 172.099 269.737 171.432C269.071 170.766 268.927 169.737 269.386 168.914C272.736 163.054 280.106 167.194 281.176 172.524C282.246 177.854 279.406 185.424 273.066 185.264C267.436 185.124 260.326 180.264 259.526 174.504C258.916 170.094 262.296 163.934 267.336 166.444ZM261.756 229.694C261.253 229.189 260.473 229.086 259.856 229.444V229.404C256.966 231.344 257.986 235.234 259.976 237.564C262.221 240.105 265.804 240.993 268.976 239.794C272.045 238.721 274.099 235.825 274.096 232.574C274.016 229.624 271.586 227.204 269.016 226.004C267.946 225.494 266.996 227.024 268.066 227.624C271.086 229.314 270.086 234.554 266.546 234.964C265.076 235.094 264.176 234.174 263.546 232.964C263.071 231.811 262.471 230.715 261.756 229.694ZM211.026 159.894C211.514 159.889 211.943 160.214 212.07 160.685C212.197 161.156 211.99 161.653 211.566 161.894C202.996 165.534 209.456 178.034 217.336 176.294C219.766 175.754 227.816 169.524 221.336 168.074C219.794 167.725 218.752 168.669 217.701 169.621C216.885 170.36 216.063 171.105 214.996 171.254C214.361 171.391 213.706 171.125 213.346 170.584C211.446 167.874 214.346 164.974 216.676 163.754C219.383 162.322 222.655 162.476 225.216 164.154C231.976 168.734 228.106 176.294 222.446 179.474C215.746 183.244 207.786 180.474 204.356 173.574C201.486 167.724 204.396 160.684 211.026 159.854V159.894ZM185.386 104.844C181.276 103.004 176.466 105.244 174.626 109.244V109.204C172.833 113.475 174.479 118.413 178.476 120.754C182.466 123.114 187.806 121.434 190.156 117.544C192.156 114.224 191.496 106.544 186.156 107.544C185.255 107.791 184.629 108.609 184.626 109.544C184.667 110.281 184.984 110.937 185.295 111.581C185.753 112.526 186.196 113.443 185.726 114.544C185.308 115.518 184.467 116.248 183.443 116.523C182.419 116.798 181.326 116.588 180.476 115.954C178.781 114.662 178.348 112.292 179.476 110.484C180.726 108.574 182.926 107.924 185.026 107.574C185.595 107.403 186.011 106.914 186.088 106.325C186.166 105.736 185.891 105.156 185.386 104.844ZM170.466 236.244C170.956 232.034 173.346 227.644 177.086 225.474C180.326 223.584 184.536 223.774 186.486 227.194C186.765 227.686 186.764 228.289 186.483 228.78C186.202 229.27 185.682 229.576 185.116 229.584L184.891 229.577C182.342 229.498 180.062 229.427 178.226 231.584C176.294 233.883 175.553 236.956 176.226 239.884C177.606 245.284 183.306 246.434 187.496 243.544C190.846 241.18 192.925 237.409 193.136 233.314C193.246 230.954 192.726 228.214 191.006 226.474C189.436 224.856 187.625 224.768 185.699 224.674C185.173 224.648 184.637 224.622 184.096 224.564C183.74 224.562 183.412 224.37 183.235 224.061C183.057 223.752 183.058 223.372 183.236 223.064C185.066 220.234 188.626 220.064 191.576 221.404C195.576 223.134 197.756 227.124 198.296 231.274C199.296 239.444 193.996 248.334 185.896 250.544C176.996 252.934 169.486 244.814 170.466 236.214V236.244ZM160.176 201.544C162.866 198.174 162.326 193.164 159.666 189.954V189.924C156.426 186.024 152.156 187.094 148.176 189.214C147.116 189.794 147.856 191.664 149.016 191.214C151.286 190.314 153.716 189.514 155.786 191.314C157.615 192.899 158.185 195.499 157.186 197.704C156.456 199.084 154.396 200.344 152.936 199.204C152.155 198.606 152.123 197.638 152.092 196.67C152.076 196.163 152.06 195.657 151.936 195.204C151.664 194.233 150.658 193.665 149.686 193.934C145.796 195.564 147.026 200.634 149.686 202.934C152.846 205.674 157.696 204.654 160.176 201.544ZM115.166 58.4237C117.276 53.5637 121.056 48.6337 126.036 46.4937C131.516 44.1337 138.596 45.8037 143.496 48.8537C154.576 55.7537 156.216 69.8537 151.636 81.1937C149.296 86.9537 145.636 90.4937 139.246 90.8137C134.166 91.0637 128.946 88.5737 128.706 82.9937C128.586 80.0637 132.706 79.7837 133.596 82.3337C134.706 85.6637 138.466 85.7337 141.266 84.7237C144.042 83.7226 144.891 81.6897 145.899 79.2776L145.926 79.2137C147.566 75.4604 148.296 71.3727 148.056 67.2837C147.426 59.1737 142.406 52.7437 134.306 51.1337C125.066 49.2837 118.706 59.1337 117.846 67.2737C117.036 74.9537 120.626 82.0837 125.846 87.4937C126.285 87.8334 126.366 88.4647 126.026 88.9037C125.686 89.3428 125.055 89.4234 124.616 89.0837C113.766 83.0337 110.356 69.5137 115.166 58.4237ZM119.676 170.514C120.826 162.764 115.166 155.004 107.166 154.764H107.186C100.966 154.604 92.926 160.544 93.956 167.284C94.146 168.404 96.056 168.154 95.956 167.014C95.566 162.524 102.716 158.524 106.506 158.814C111.266 159.174 114.656 163.684 114.566 168.284C114.476 172.664 110.876 177.024 106.116 175.944C100.996 174.784 102.066 170.274 102.996 166.554C103.2 165.706 102.885 164.817 102.194 164.286C101.503 163.754 100.563 163.679 99.7961 164.094C93.076 167.924 96.926 178.184 102.796 180.714C110.456 184.034 118.526 178.264 119.676 170.514ZM59.1654 229.844C58.1055 231.104 56.1656 229.464 56.9356 228.124C59.8354 223.314 66.375 222.674 69.7548 227.394C73.5446 232.674 69.6149 239.694 65.3451 243.394C60.8354 247.264 53.4558 246.714 50.106 241.524C47.1061 236.814 48.4761 229.784 54.2357 228.374C54.8036 228.233 55.4012 228.442 55.7572 228.906C56.1131 229.371 56.1596 230.002 55.8756 230.514C54.6857 232.514 53.3258 235.734 54.4357 237.944C55.0823 239.104 56.1813 239.943 57.4704 240.262C58.7595 240.58 60.123 240.349 61.2353 239.624C63.5282 238.056 65.3364 235.877 66.455 233.334C68.4549 228.324 62.0953 226.354 59.1554 229.844H59.1654ZM54.6174 130.695C51.7019 126.304 45.9479 124.812 41.266 127.234C36.906 129.494 34.446 135.404 37.176 139.794C37.4623 140.266 38.0261 140.492 38.559 140.348C39.092 140.204 39.4658 139.726 39.476 139.174C39.386 136.344 39.806 133.314 42.216 131.484C44.6374 129.632 48.0569 129.868 50.2019 132.033C52.347 134.198 52.55 137.62 50.676 140.024C48.4589 142.686 46.4301 141.287 44.3594 139.859C43.7309 139.426 43.0986 138.99 42.456 138.664C41.873 138.35 41.1601 138.408 40.6354 138.812C40.1108 139.216 39.8721 139.89 40.026 140.534C41.326 146.084 48.476 147.664 52.626 144.344C56.6747 140.969 57.5328 135.087 54.6174 130.695Z" fill="white"/>
<path fill-rule="evenodd" clip-rule="evenodd" d="M0.105934 248.494C1.10593 259.914 8.10593 274.494 20.3359 276.684C21.2359 276.984 22.1359 277.264 23.0359 277.524C28.2154 306.986 34.2284 336.344 40.2397 365.694L40.2397 365.695L40.2398 365.695L40.2398 365.695L40.2399 365.695L40.2399 365.696C41.935 373.972 43.6299 382.247 45.3059 390.524C52.9926 428.404 61.0726 466.207 69.5459 503.934C70.8488 509.739 72.0977 515.576 73.3482 521.42L73.3486 521.422L73.3491 521.424C76.6671 536.932 79.9968 552.493 84.3759 567.664C84.5584 568.461 85.1239 569.116 85.8859 569.414C86.2665 569.915 86.6808 570.389 87.1259 570.834C86.9459 571.934 87.7459 573.184 89.0659 572.694L89.2559 572.614C95.4264 577.116 105.01 578.609 112.301 579.745L112.309 579.746C113.452 579.924 114.538 580.093 115.546 580.264C132.854 583.128 150.499 583.32 167.866 580.834C171.787 580.307 175.732 579.817 179.687 579.325C192.625 577.716 205.664 576.095 218.286 573.154C226.048 571.237 233.601 568.557 240.836 565.154C242.297 564.487 243.781 563.825 245.274 563.158L245.276 563.157L245.277 563.156C251.958 560.173 258.838 557.101 264.836 553.154C265.507 552.691 265.964 551.98 266.107 551.177C266.25 550.375 266.066 549.549 265.596 548.884C268.302 540.62 269.483 531.976 270.659 523.36L270.756 522.654C272.016 513.394 273.083 504.114 273.956 494.814C275.706 475.814 276.766 456.814 277.566 437.744C278.097 424.995 278.482 412.239 278.868 399.483V399.483V399.482V399.482V399.482V399.482C279.644 373.778 280.421 348.074 282.386 322.424C283.216 311.574 284.236 300.744 285.536 289.944C286.184 284.566 287.012 279.22 287.841 273.871L287.841 273.87L287.841 273.87L287.841 273.869L287.841 273.868L287.841 273.867C288.484 269.719 289.127 265.57 289.686 261.404C307.336 262.334 323.426 246.724 325.176 229.184C326.176 218.854 322.756 207.764 315.176 200.514C309.883 195.314 302.561 192.722 295.176 193.434C300.496 183.834 303.556 172.744 305.226 162.054C307.056 150.364 306.076 137.914 299.556 127.734C294.306 119.544 285.886 113.644 275.936 113.484C269.834 113.363 263.884 115.399 259.136 119.234C259.181 117.482 259.241 115.706 259.302 113.913C259.97 94.0584 260.706 72.2064 242.876 60.0538C228.486 50.2538 208.306 54.3638 198.736 67.8138C197.416 53.6038 191.286 38.9038 183.276 27.8938C173.686 14.7038 159.556 4.41378 143.466 1.13378C107.006 -6.29622 78.0559 24.0038 68.8559 56.6038C64.9499 70.3753 64.3401 84.8729 67.0759 98.9238C52.7859 92.0538 30.3559 103.624 20.3459 114.324C2.27593 133.604 -1.23407 161.514 3.24593 186.674C5.39593 198.804 9.72593 210.724 17.6459 220.164C6.01593 223.914 -0.954066 235.924 0.105934 248.494ZM48.0559 360.714C47.7484 361.288 47.429 361.859 47.1097 362.43C46.6502 363.251 46.1907 364.072 45.7659 364.904C43.9326 356.47 42.0959 348.037 40.2559 339.604C37.9204 328.981 35.7915 318.315 33.6625 307.647L33.6624 307.647C31.7348 297.989 29.8071 288.331 27.7259 278.704C40.9859 281.584 54.7859 280.704 68.2759 279.234C70.2325 279.018 72.1884 278.794 74.1443 278.57L74.146 278.57L74.1478 278.57L74.1495 278.569L74.1512 278.569L74.153 278.569L74.1534 278.569C79.7319 277.93 85.3107 277.29 90.9059 276.854C83.3259 292.687 75.5226 308.427 67.4959 324.074C63.2893 332.274 59.0026 340.434 54.6359 348.554C53.456 350.746 52.2673 352.938 51.0778 355.131L51.0746 355.137L51.0642 355.156C50.0604 357.008 49.0561 358.86 48.0559 360.714ZM57.9059 421.464C60.1459 431.95 62.4126 442.434 64.7059 452.914C66.4059 460.707 68.1159 468.517 69.8359 476.344C74.0954 468.675 78.6339 461.156 83.1681 453.645L83.1684 453.644C86.6392 447.895 90.1074 442.149 93.4459 436.344C109.056 409.214 124.076 381.564 137.356 353.214C144.076 338.874 150.536 324.414 156.916 309.924C160.236 302.404 163.486 294.847 166.666 287.254C167.402 285.487 168.096 283.649 168.798 281.791C170.174 278.147 171.578 274.428 173.386 271.024C165.544 271.424 157.794 272.566 150.049 273.709C144.62 274.509 139.192 275.31 133.736 275.854C132.785 280.606 130.477 285.416 128.262 290.032C127.423 291.778 126.599 293.497 125.866 295.174C123.166 301.347 120.406 307.49 117.586 313.604C111.706 326.364 105.496 338.974 99.0059 351.434C92.5159 363.894 85.7959 376.234 78.7259 388.374C77.3921 390.66 76.0711 392.985 74.7426 395.323C69.6266 404.326 64.3996 413.525 57.9059 421.464ZM136.646 511.254C129.536 522.084 121.926 532.604 114.226 543.014C107.226 552.464 100.166 560.634 90.8759 567.514C90.4051 567.117 89.9576 566.693 89.5359 566.244C88.0059 557.304 86.0959 548.404 84.0759 539.534C95.9159 527.534 104.626 512.174 112.676 497.604C118.764 486.582 124.724 475.488 130.683 464.398L130.683 464.398L130.684 464.397L130.684 464.396C134.18 457.889 137.676 451.383 141.196 444.894C143.653 440.368 146.143 435.852 148.635 431.334L148.638 431.329L148.638 431.329C156.022 417.94 163.417 404.53 169.996 390.774C176.479 377.287 181.946 363.327 187.405 349.385C189.086 345.092 190.767 340.8 192.476 336.524C195.288 329.491 198.161 322.475 201.034 315.456C206.976 300.94 212.923 286.413 218.356 271.704C218.425 271.523 218.472 271.335 218.496 271.144C221.946 271.084 225.396 270.964 228.856 270.744C237.226 270.194 245.766 269.344 254.246 268.034C249.48 279.114 245.017 290.336 240.554 301.556L240.554 301.557C237.235 309.9 233.917 318.242 230.476 326.524C221.476 348.254 212.136 369.874 202.266 391.244C183.136 432.604 161.696 473.104 136.646 511.254ZM242.802 556.302L242.803 556.302C248.922 553.347 255.04 550.393 261.476 548.254V548.244C261.976 540.548 262.86 532.881 264.126 525.274C261.565 529.443 258.775 533.46 256.109 537.297C255.725 537.85 255.344 538.399 254.966 538.944C250.361 545.674 245.2 552.007 239.536 557.874C240.626 557.353 241.714 556.828 242.802 556.302ZM273.876 370.444C273.373 381.902 272.958 393.364 272.544 404.825L272.543 404.844C272.291 411.821 272.038 418.798 271.766 425.774C269.501 429.169 267.791 433.128 266.123 436.993C265.251 439.014 264.39 441.009 263.466 442.884C260.046 449.797 256.469 456.63 252.736 463.384C245.576 476.424 237.979 489.207 229.946 501.734C221.946 514.284 213.576 526.614 205.016 538.804C203.429 541.079 201.857 543.413 200.272 545.766L200.272 545.767C193.868 555.276 187.261 565.085 178.676 572.484L175.136 572.974C165.726 574.304 156.366 575.494 146.956 575.974C151.555 571.817 155.818 567.303 159.706 562.474C165.146 555.984 170.366 549.334 175.446 542.564C186.326 528.034 196.336 512.934 205.946 497.564C225.073 466.65 241.956 434.404 256.466 401.074C260.399 392.14 264.216 383.14 267.916 374.074C268.693 372.167 269.509 370.243 270.332 368.303L270.333 368.3C271.732 365 273.151 361.651 274.436 358.264C274.236 362.324 274.049 366.38 273.876 370.434V370.444ZM26.5235 223.282C26.0495 224.427 24.9447 225.184 23.7059 225.214C10.9859 225.104 4.32593 238.054 5.04593 249.314C5.76593 260.574 12.4759 271.694 24.0459 274.144L24.1859 274.194C25.0887 273.726 26.1987 274.01 26.7659 274.854C42.5577 277.78 58.622 275.746 74.5433 273.731C75.3279 273.632 76.1121 273.532 76.8959 273.434C85.5383 272.226 94.2424 271.512 102.966 271.294C106.195 271.265 109.412 271.316 112.631 271.367C118.215 271.455 123.805 271.544 129.476 271.214C135.783 270.847 141.971 269.748 148.166 268.648C150.752 268.189 153.339 267.73 155.936 267.324C164.244 266.08 172.626 265.388 181.026 265.254C186.629 265.128 192.219 265.119 197.805 265.11C209.924 265.091 222.028 265.072 234.226 263.854C252.038 262.075 269.001 257.768 286.283 253.38L286.306 253.374C287.507 252.994 288.818 253.391 289.606 254.374C302.626 252.844 314.386 245.634 317.486 231.694C319.279 223.639 317.735 215.202 313.206 208.304C308.076 200.724 298.866 195.644 290.146 200.644C287.876 201.964 284.736 199.214 286.366 196.864C292.306 188.264 295.136 176.414 297.366 166.314C299.496 156.474 300.286 145.874 296.496 136.314C293.316 128.304 286.696 120.884 277.806 119.634C269.956 118.524 261.966 121.904 258.616 129.294C257.316 132.174 253.186 130.484 253.066 127.784C252.854 123.078 253.052 118.042 253.253 112.891C253.872 97.0938 254.533 80.2132 243.576 68.4338C236.86 61.4054 226.875 58.546 217.456 60.9538C208.316 63.3338 201.746 70.5938 198.456 79.1538V79.2338C198.405 79.3565 198.349 79.4767 198.286 79.5938V79.6538C196.906 81.9438 192.966 82.3938 192.346 79.1238C191.83 76.413 191.395 73.6986 190.96 70.9891C189.953 64.7127 188.95 58.4624 186.966 52.3438C184.305 43.8423 180.101 35.9033 174.566 28.9238C165.096 17.3038 151.266 8.60378 136.126 7.23378C118.946 5.65378 103.346 13.4238 92.1259 26.1638C71.8659 49.1338 67.2659 81.9838 77.1259 110.454C78.4959 114.404 72.3159 116.024 70.9159 112.164C65.3559 96.8438 43.7259 103.984 34.0459 110.364C23.4659 117.354 15.6859 128.244 11.5559 140.144C6.64593 154.304 6.36593 169.694 8.96593 184.304C11.3159 197.514 16.1359 210.404 25.8959 219.924C26.7514 220.82 26.9975 222.137 26.5235 223.282Z" fill="#231F20"/>
<path d="M124.586 89.0839C125.025 89.4236 125.656 89.343 125.996 88.9039C126.335 88.4649 126.255 87.8336 125.816 87.4939C120.626 82.0839 117.036 74.9539 117.816 67.2739C118.676 59.1139 125.036 49.2739 134.276 51.1339C142.376 52.7439 147.396 59.1339 148.026 67.2839C148.265 71.3728 147.535 75.4605 145.896 79.2139C144.896 81.6539 143.896 83.7639 141.236 84.7239C138.576 85.6839 134.676 85.6639 133.566 82.3339C132.716 79.7839 128.566 80.0639 128.676 82.9939C128.916 88.5739 134.136 91.0639 139.216 90.8139C145.626 90.4939 149.216 86.9539 151.606 81.1939C156.186 69.8839 154.546 55.7539 143.466 48.8539C138.566 45.8539 131.466 44.1339 126.006 46.4939C121.006 48.6339 117.246 53.5639 115.136 58.4239C110.356 69.5139 113.766 83.0339 124.586 89.0839Z" fill="#231F20"/>
<path d="M95.9941 167.014C95.6041 162.524 102.754 158.524 106.544 158.814C111.304 159.174 114.694 163.684 114.604 168.284C114.514 172.664 110.914 177.024 106.154 175.944C101.004 174.784 102.154 170.274 103.034 166.554C103.238 165.706 102.924 164.817 102.232 164.286C101.541 163.754 100.601 163.679 99.8341 164.094C93.0941 167.924 96.9441 178.184 102.834 180.714C110.494 184.034 118.544 178.334 119.714 170.514C120.884 162.694 115.244 155.004 107.204 154.764C100.984 154.574 92.9441 160.544 94.0241 167.284C94.1841 168.404 96.0941 168.154 95.9941 167.014Z" fill="#231F20"/>
<path d="M39.4772 139.174C39.3872 136.344 39.8072 133.314 42.2172 131.484C44.6385 129.633 48.058 129.868 50.2031 132.033C52.3481 134.198 52.5511 137.62 50.6772 140.024C47.7872 143.494 45.2172 140.024 42.4572 138.664C41.8741 138.35 41.1612 138.408 40.6365 138.812C40.1119 139.216 39.8732 139.89 40.0272 140.534C41.3272 146.084 48.4772 147.664 52.6272 144.344C56.6758 140.969 57.534 135.087 54.6185 130.696C51.703 126.304 45.949 124.812 41.2672 127.234C36.9072 129.494 34.4472 135.404 37.1772 139.794C37.4634 140.266 38.0272 140.492 38.5601 140.348C39.0931 140.204 39.4669 139.726 39.4772 139.174Z" fill="#231F20"/>
<path d="M61.2259 239.604C60.1136 240.329 58.7502 240.56 57.4611 240.242C56.172 239.923 55.0729 239.084 54.4264 237.924C53.3164 235.714 54.6763 232.454 55.8663 230.494C56.1503 229.982 56.1037 229.351 55.7478 228.886C55.3918 228.422 54.7943 228.212 54.2264 228.354C48.4667 229.764 47.0568 236.794 50.0966 241.504C53.4464 246.694 60.8259 247.244 65.3356 243.374C69.6054 239.694 73.5351 232.674 69.7454 227.374C66.3656 222.654 59.826 223.294 56.9262 228.104C56.1162 229.444 58.0961 231.104 59.156 229.824C62.0959 226.334 68.4554 228.304 66.4456 233.294C65.3301 235.844 63.5217 238.03 61.2259 239.604Z" fill="#231F20"/>
<path d="M149.026 191.204C151.296 190.314 153.726 189.504 155.796 191.304C157.625 192.889 158.195 195.488 157.196 197.694C156.466 199.074 154.406 200.334 152.946 199.194C151.746 198.254 152.296 196.484 151.946 195.194C151.674 194.223 150.668 193.655 149.696 193.924C145.806 195.564 147.036 200.634 149.696 202.924C152.856 205.664 157.696 204.644 160.186 201.534C162.876 198.164 162.336 193.154 159.676 189.944C156.436 186.044 152.166 187.114 148.196 189.234C147.126 189.784 147.866 191.654 149.026 191.204Z" fill="#231F20"/>
<path d="M178.437 120.704C182.437 123.064 187.767 121.384 190.117 117.494C192.117 114.184 191.447 106.494 186.117 107.494C185.216 107.741 184.59 108.559 184.587 109.494C184.727 111.304 186.477 112.634 185.687 114.494C185.27 115.468 184.428 116.197 183.404 116.472C182.38 116.747 181.287 116.538 180.437 115.904C178.742 114.611 178.309 112.242 179.437 110.434C180.687 108.544 182.887 107.874 184.987 107.524C185.556 107.353 185.972 106.864 186.049 106.275C186.127 105.686 185.852 105.106 185.347 104.794C181.237 102.954 176.427 105.164 174.587 109.194C172.818 113.453 174.461 118.366 178.437 120.704Z" fill="#231F20"/>
<path d="M222.477 179.424C228.137 176.244 232.007 168.684 225.247 164.104C222.686 162.426 219.415 162.272 216.707 163.704C214.357 164.924 211.477 167.824 213.377 170.534C213.737 171.075 214.392 171.341 215.027 171.204C217.467 170.864 218.627 167.404 221.367 168.024C227.817 169.474 219.767 175.704 217.367 176.244C209.487 177.984 203.027 165.484 211.597 161.844C212.021 161.603 212.228 161.106 212.101 160.635C211.974 160.164 211.545 159.839 211.057 159.844C204.427 160.674 201.517 167.714 204.417 173.514C207.817 180.384 215.767 183.194 222.477 179.424Z" fill="#231F20"/>
<path d="M185.844 250.514C193.944 248.304 199.294 239.414 198.244 231.244C197.704 227.094 195.484 223.104 191.524 221.374C188.574 220.084 185.014 220.204 183.184 223.034C183.006 223.342 183.005 223.722 183.183 224.031C183.36 224.34 183.688 224.532 184.044 224.534C186.564 224.804 188.924 224.384 190.954 226.444C192.674 228.184 193.194 230.924 193.084 233.284C192.873 237.379 190.794 241.15 187.444 243.514C183.254 246.404 177.554 245.254 176.174 239.854C175.501 236.927 176.242 233.853 178.174 231.554C180.114 229.334 182.424 229.474 185.064 229.554C185.63 229.546 186.149 229.24 186.431 228.75C186.712 228.259 186.713 227.656 186.434 227.164C184.434 223.744 180.274 223.554 177.034 225.444C173.294 227.614 170.904 232.004 170.414 236.214C169.484 244.814 176.994 252.934 185.844 250.514Z" fill="#231F20"/>
<path d="M273.067 185.274C279.407 185.434 282.247 177.804 281.177 172.534C280.107 167.264 272.737 163.064 269.387 168.924C268.929 169.747 269.072 170.776 269.739 171.442C270.406 172.109 271.434 172.252 272.257 171.794C275.417 170.144 276.117 174.794 275.627 176.794C274.817 180.134 272.517 180.064 269.717 178.724C265.317 176.604 262.717 172.154 267.337 168.554C267.703 168.33 267.927 167.932 267.927 167.504C267.927 167.075 267.703 166.677 267.337 166.454C262.337 163.944 258.917 170.104 259.527 174.524C260.327 180.314 267.437 185.134 273.067 185.274Z" fill="#231F20"/>
<path d="M268.968 239.704C272.037 238.632 274.091 235.735 274.088 232.484C273.968 229.534 271.578 227.114 269.008 225.914C267.938 225.404 267.008 226.914 268.058 227.534C271.058 229.224 270.058 234.464 266.538 234.874C265.078 235.054 264.178 234.134 263.538 232.874C263.063 231.722 262.463 230.625 261.748 229.604C261.245 229.099 260.464 228.996 259.848 229.354C256.958 231.294 257.978 235.184 259.938 237.424C262.176 239.996 265.777 240.905 268.968 239.704Z" fill="#231F20"/>
</svg>
