<svg width="423" height="574" viewBox="0 0 423 574" fill="none" xmlns="http://www.w3.org/2000/svg">
<path fill-rule="evenodd" clip-rule="evenodd" d="M335.92 317.712V317.712C335.506 304.867 335.091 292.024 334.627 279.189C333.2 239.855 331.76 200.542 330.307 161.249C330.174 157.688 330.048 154.126 329.921 150.563L329.921 150.562L329.921 150.562L329.921 150.561L329.921 150.56L329.921 150.559C329.361 134.785 328.8 119 327.707 103.249C327.057 93.8287 326.207 84.4087 324.997 75.0387C324.794 73.4601 324.615 71.8066 324.432 70.1113L324.432 70.1094L324.432 70.1078L324.432 70.1065L324.432 70.1054C323.616 62.5452 322.71 54.1532 319.117 47.8487C312.581 36.3764 295.494 36.3198 282.397 36.2765C279.946 36.2684 277.634 36.2607 275.557 36.1787C256.097 35.4187 236.641 34.622 217.187 33.7887C197.734 32.9554 178.281 32.1287 158.828 31.3087L158.418 31.2902C140.622 30.4861 122.692 29.6759 104.928 31.9087C105.112 40.1364 104.846 48.3679 104.58 56.6008C104.411 61.8164 104.242 67.0326 104.188 72.2487C104.048 85.6987 104.188 99.4087 104.448 112.979C105.084 144.268 106.089 175.529 107.094 206.793L107.094 206.793C107.668 224.669 108.242 242.545 108.748 260.429C109.415 284.769 110.081 309.102 110.748 333.429C111.108 345.909 111.461 358.389 111.808 370.869C111.988 377.109 112.165 383.349 112.338 389.589C112.36 390.382 112.387 391.172 112.414 391.961C112.567 396.452 112.717 400.878 112.028 405.319C113.558 413.379 123.208 416.169 130.288 417.319C139.128 418.789 148.068 419.849 156.978 420.869C188.798 424.552 220.832 426.066 252.857 425.399C268.717 425.045 284.55 424.142 300.357 422.689C308.257 421.949 316.14 421.075 324.007 420.069C324.456 420.011 324.931 419.955 325.424 419.896L325.441 419.894L325.45 419.893C331.548 419.169 340.485 418.109 339.497 410.349C339.475 410.037 339.495 409.725 339.557 409.419C337.895 378.885 336.907 348.292 335.92 317.712ZM316.728 154.689C317.128 158.11 317.309 161.554 317.268 164.999C317.295 165.78 317.339 166.565 317.382 167.352L317.382 167.353L317.383 167.354L317.383 167.355L317.383 167.356L317.383 167.357C317.53 170.025 317.679 172.712 317.208 175.329C317.038 176.269 315.738 176.089 315.468 175.329C313.468 169.529 313.688 160.609 315.128 154.689C315.348 153.939 316.628 153.859 316.728 154.689ZM313.143 68.4301C312.877 68.4301 312.644 68.6044 312.568 68.8587H312.608C311.454 73.8617 311.447 79.1656 311.44 84.3371C311.439 85.3471 311.438 86.352 311.428 87.3487C311.401 93.762 311.488 100.175 311.688 106.589C311.739 108.295 311.781 110.01 311.823 111.732L311.823 111.733L311.823 111.734L311.823 111.736L311.823 111.737C312.09 122.617 312.363 133.741 314.797 144.299C314.911 144.635 315.248 144.843 315.599 144.794C315.951 144.745 316.219 144.453 316.236 144.099C316.707 135.772 316.153 127.372 315.601 118.995C315.308 114.545 315.016 110.102 314.877 105.679C314.687 99.5687 314.567 93.4587 314.497 87.3487C314.48 85.9007 314.49 84.4376 314.5 82.968C314.532 78.2362 314.564 73.4368 313.717 68.8587C313.642 68.6044 313.408 68.4301 313.143 68.4301ZM180.618 63.8587C197.728 46.3587 226.088 45.3587 245.268 59.9387C265.898 75.5887 274.378 105.839 260.678 128.769C247.678 150.519 220.548 155.629 198.968 143.769C190.669 139.123 183.83 132.256 179.218 123.939C172.358 117.299 169.218 106.009 168.668 97.1387C167.809 84.8532 172.161 72.7737 180.658 63.8587H180.618ZM118.058 342.881C118.452 348.084 118.85 353.332 120.338 358.349C120.454 358.788 120.879 359.071 121.329 359.01C121.779 358.949 122.113 358.563 122.108 358.109C122.426 353.285 121.915 348.415 121.406 343.573C121.211 341.71 121.015 339.85 120.868 337.999C120.361 331.585 119.941 325.169 119.608 318.749C118.938 305.619 118.388 292.419 118.268 279.269C118.23 278.975 117.979 278.755 117.683 278.755C117.387 278.755 117.137 278.975 117.098 279.269C116.358 292.769 116.058 306.149 116.598 319.669C116.871 326.402 117.278 333.122 117.818 339.829C117.903 340.843 117.98 341.861 118.058 342.88L118.058 342.881ZM123.958 390.279C123.838 391.219 122.358 391.129 122.148 390.279C120.637 383.104 120.299 375.732 121.148 368.449C121.248 367.539 122.638 367.179 122.858 368.219C124.417 375.464 124.788 382.914 123.958 390.279ZM282.549 361.109C301.799 349.539 312.94 331.639 317.27 309.789C321.347 288.639 319.661 266.783 312.39 246.509C305.359 226.729 293.669 206.389 274.669 196.039C255.249 185.429 231.149 181.629 209.319 184.519C169.368 189.809 137.278 221.069 129.728 260.589C125.668 281.939 129.438 303.939 139.458 323.169C144.713 333.29 151.587 342.485 159.808 350.389C159.959 350.728 160.185 351.029 160.468 351.269C176.968 365.519 194.849 378.369 217.269 380.369C229.189 381.429 241.109 378.779 252.269 374.839C262.795 371.282 272.938 366.683 282.549 361.109Z" fill="#939598"/>
<path d="M392.58 85.1688C399.301 86.3173 405.516 89.4802 410.4 94.2388C410.5 91.9888 410.78 89.7188 410.87 87.6388C410.97 85.0788 410.95 82.3588 411.25 79.7088C410.394 79.7181 409.543 79.5863 408.73 79.3188C406.644 78.5814 404.899 77.1096 403.82 75.1788C402.374 77.6076 400.015 79.3548 397.27 80.0288C395.94 80.3646 394.582 79.5929 394.19 78.2788C391.7 70.2788 392.54 62.7088 394.52 55.2788C394.421 54.7338 394.536 54.1717 394.84 53.7088C394.9 53.6018 394.967 53.4983 395.04 53.3988C397.79 43.8488 402.09 34.4488 403.4 24.6088C403.748 22.1483 403.842 19.6585 403.68 17.1788C403.367 15.2107 402.861 13.2781 402.17 11.4088C401.84 12.0688 401.43 12.7388 401.24 13.1588C400.07 15.8388 398.95 18.5488 397.87 21.2688C394.244 30.4649 391.113 39.8483 388.489 49.3788C387.619 52.4788 383.309 52.2988 382.369 49.3788C378.439 37.1488 380.369 23.3788 376.369 11.2588C372.369 26.0488 374.129 41.6988 375.939 56.8588C376.209 59.1388 373.409 60.1088 371.739 59.2688C368.739 57.7788 367.319 55.0188 365.739 52.2688C365.019 51.0288 364.129 48.6288 362.429 50.0488C360.289 51.8488 364.719 57.9888 365.659 59.7788C370.362 68.7023 373.981 78.1561 376.439 87.9388C381.375 85.2851 387.041 84.3127 392.58 85.1688Z" fill="#FFF200"/>
<path d="M398.441 73.6889C402.341 69.6889 403.901 59.2789 400.251 55.9189C398.591 61.7589 397.641 67.6489 398.441 73.6889Z" fill="#FFF200"/>
<path d="M406.819 65.7191C407.469 67.0291 407.509 68.3992 408.009 70.0892C408.509 71.7792 409.44 74.3492 411.47 72.3092C412.38 71.3992 412.05 68.3892 412.14 66.9891C412.31 63.9891 412.61 60.3391 411.04 57.6791C410.162 55.9901 408.177 55.2021 406.379 55.8291C407.205 59.0603 407.355 62.4273 406.819 65.7191Z" fill="#FFF200"/>
<path d="M380.49 105.819C380.631 105.594 380.784 105.377 380.95 105.169C384.11 101.259 389.4 102.399 393.15 104.699C398.38 107.808 402.924 111.944 406.51 116.859C408.87 120.309 411.27 125.469 410.2 129.769C410.3 130.349 410.38 130.939 410.44 131.529L410.56 131.359C411.88 129.44 413.002 127.393 413.91 125.249C415.97 120.189 414.96 114.899 412.6 110.129C408.78 102.419 402.05 95.3291 393.65 92.7991C385.25 90.2691 374.54 93.2591 371.54 102.369C369.18 109.549 373.41 115.599 378.3 120.539C378.23 116.769 378.19 112.999 378.2 109.239C378.094 107.71 379.036 106.303 380.49 105.819Z" fill="#FFF200"/>
<path d="M340.91 244.099C341.35 255.466 341.797 266.836 342.25 278.209C355.81 282.409 374.63 276.639 385.25 267.699C397.14 257.699 400.91 239.839 402.76 225.129C404.83 208.739 404.52 192.019 404.33 175.519C404.23 166.979 404.02 158.436 403.7 149.889C403.53 145.619 403.33 141.349 403.15 137.079C403.03 134.079 402.65 130.939 403.15 127.969C402.967 127.062 402.73 126.167 402.44 125.289C401.407 122.492 399.768 119.958 397.64 117.869C395.646 115.846 393.511 113.968 391.25 112.249C390.19 111.429 387.04 109.149 385.79 109.879C387.49 125.299 387.12 141.219 386.91 156.709C386.7 171.119 386.53 185.789 383.43 199.929C380.74 212.149 375.43 224.129 366.26 232.879C359.43 239.389 350.41 244.539 340.91 244.099Z" fill="#BE1E2D"/>
<path fill-rule="evenodd" clip-rule="evenodd" d="M256.851 117.029C249.821 137.889 227.631 146.379 207.731 138.689C196.901 134.509 188.871 126.099 183.261 116.089C178.305 107.306 177.485 97.9653 176.644 88.3769C176.577 87.6157 176.511 86.8529 176.441 86.0887C177.353 82.1137 178.914 78.3161 181.061 74.8487C191.861 57.5587 216.201 52.9787 233.651 62.2287C252.851 72.4187 263.951 95.9287 256.851 117.029ZM206.061 73.8687C201.204 77.5213 198.079 83.0254 197.431 89.0687C197.004 92.8043 197.538 96.587 198.981 100.059C199.926 103.147 201.537 105.991 203.701 108.389C208.741 113.579 216.111 113.599 222.821 112.389C229.271 111.269 235.181 107.879 237.431 101.389C239.501 95.4087 238.701 87.9687 236.951 81.8587C235.201 75.7487 231.121 71.3487 224.831 70.2687C218.541 69.1887 211.301 70.0287 206.061 73.8687Z" fill="#58595B"/>
<path fill-rule="evenodd" clip-rule="evenodd" d="M255.46 197.409C264.87 200.449 274.09 204.769 281.27 211.709C288.3 218.499 293.65 227.099 298.06 235.719C306.83 253.044 311.056 272.314 310.34 291.719C309.56 310.919 303.95 331.579 289.34 344.919C281.31 352.249 271.32 357.269 261.39 361.519C250.09 366.379 238.03 370.819 225.65 371.519C208.54 372.479 192.13 365.329 177.54 356.179C166.48 347.539 156.72 337.849 149.3 325.469C140.4 310.589 135.34 293.309 135.78 275.919C136.66 241.009 160.15 207.199 193.66 196.199C213.65 189.659 235.61 191.009 255.46 197.409ZM224.291 329.299C237.066 328.027 249.08 322.636 258.522 313.939C268.732 304.449 270.612 291.939 270.242 278.619C269.892 265.679 267.592 253.459 259.182 243.239C251.862 234.542 241.775 228.625 230.612 226.479C207.961 222.179 185.401 235.409 175.901 256.079C170.13 268.659 169.99 283.489 174.54 296.659C175.811 304.609 181.291 312.079 187.381 317.429C190.14 320.189 193.23 322.598 196.581 324.599C197.147 324.936 197.842 324.974 198.441 324.699C206.48 328.553 215.417 330.143 224.291 329.299Z" fill="#58595B"/>
<path d="M219.729 234.079C201.019 234.639 184.859 249.429 179.819 266.969C177.039 276.802 177.663 287.285 181.589 296.719C183.023 299.723 184.77 302.569 186.799 305.209C190.272 309.392 194.477 312.909 199.209 315.589C209.119 321.229 221.099 321.949 231.959 318.849C242.009 315.989 253.689 309.379 258.399 299.599C262.859 290.359 261.959 277.099 260.399 267.249C257.159 247.859 239.339 233.499 219.729 234.079Z" fill="#2B3990"/>
<path d="M213.849 504.939C216.059 492.809 212.089 479.699 201.059 474.309C201.2 478.943 200.797 483.578 199.859 488.119C199.029 492.789 197.859 497.869 194.269 501.239C187.749 507.349 176.929 504.809 171.269 498.849C163.439 490.579 161.489 477.079 159.499 466.349C157.289 454.449 155.189 440.639 158.009 428.629C151.603 427.815 145.203 426.909 138.809 425.909C136.719 425.569 134.449 425.219 132.109 424.779C132.989 442.409 133.359 459.699 136.909 477.139C141.909 501.649 156.359 535.689 187.049 532.739C202.319 531.299 211.229 519.359 213.849 504.939Z" fill="#BE1E2D"/>
<path d="M222.911 516.039C222.411 512.929 221.331 509.499 220.721 506.149C218.011 521.599 208.611 535.449 192.591 538.789C191.741 538.969 190.891 539.109 190.051 539.229C190.401 542.639 189.891 546.109 190.871 549.569C191.957 553.51 193.981 557.13 196.771 560.119C202.491 566.179 213.661 569.679 220.531 563.359C224.311 559.879 224.851 554.359 225.031 549.499C225.241 543.969 225.081 538.399 224.741 532.879C224.401 527.359 223.801 521.619 222.911 516.039Z" fill="#FFF200"/>
<path d="M198.151 466.499C211.681 468.609 219.051 480.269 220.881 492.739C221.679 491.569 222.303 490.289 222.731 488.939C223.787 484.852 223.957 480.587 223.231 476.429C222.161 468.749 219.861 460.949 212.291 457.429C205.162 454.024 196.612 456.628 192.591 463.429C189.291 469.229 189.801 478.349 194.091 483.709C194.571 479.619 194.301 475.489 194.671 471.399C194.081 470.275 194.173 468.915 194.908 467.881C195.642 466.846 196.896 466.312 198.151 466.499Z" fill="#FFF200"/>
<path d="M240.091 495.939C238.631 483.759 245.401 471.109 256.751 466.109C257.041 465.982 257.347 465.895 257.661 465.849C258.347 465.089 259.393 464.764 260.389 465.001C261.385 465.239 262.171 466.001 262.441 466.989C263.781 470.789 265.031 474.729 266.691 478.449C268.471 473.119 268.191 466.709 265.111 462.089C260.851 455.689 249.951 452.089 242.801 454.799C234.721 457.799 232.911 467.609 232.621 475.269C232.391 481.199 233.671 486.829 235.351 492.419C236.237 493.112 237.079 493.86 237.871 494.659C238.367 495.077 238.914 495.43 239.501 495.709C239.731 495.839 239.891 495.939 240.091 495.939Z" fill="#FFF200"/>
<path d="M287.829 432.019C290.009 442.279 289.319 453.599 289.629 464.019C289.789 469.489 290.039 475.019 289.999 480.449C289.999 484.539 289.519 488.739 287.149 492.199C282.659 498.729 274.429 498.059 269.039 493.109C263.879 488.369 259.809 480.599 257.839 473.339C245.669 481.119 243.349 496.909 253.089 508.209C262.249 518.839 280.559 526.569 294.339 521.599C311.339 515.489 311.259 493.599 311.389 478.779L311.629 451.429C311.689 444.299 311.509 437.089 312.119 429.969C310.619 430.079 309.119 430.209 307.689 430.349C301.049 430.995 294.429 431.552 287.829 432.019Z" fill="#BE1E2D"/>
<path d="M274.129 528.729C270.692 527.824 267.344 526.605 264.129 525.089C253.9 520.279 244.32 511.689 241.07 500.599C240.845 500.686 240.61 500.746 240.37 500.779C239.816 500.827 239.257 500.759 238.73 500.579C241.01 510.149 240.33 520.839 240.73 530.509C241.18 540.509 241.65 551.449 248 559.759C254 567.609 266.419 570.849 272.649 561.409C278.119 553.129 276.409 540.049 273.889 531.019C273.661 530.254 273.747 529.43 274.129 528.729Z" fill="#FFF200"/>
<path d="M68.8877 212.939C62.5645 189.141 58.7999 164.736 57.6577 140.139C57.1652 139.792 56.7888 139.304 56.5777 138.739C54.7377 133.809 43.2177 141.119 40.9677 142.949C36.8577 146.289 35.5277 150.059 34.3477 154.589C35.9277 161.079 36.1477 167.849 36.9077 174.459C37.7477 181.789 38.9077 189.089 40.2477 196.339C42.8574 210.249 46.4702 223.951 51.0577 237.339C55.4477 250.159 61.0577 262.239 71.6277 271.109C76.2516 274.986 81.4635 278.102 87.0677 280.339C91.9977 282.339 97.2177 282.709 102.178 284.189L101.358 254.529C82.5477 251.619 73.1077 229.169 68.8877 212.939Z" fill="#BE1E2D"/>
<path d="M30.7296 115.269C37.3096 111.079 47.3496 107.099 55.7296 108.579C55.9696 103.289 58.4496 98.5789 60.8696 93.7389C63.5096 88.5189 66.6696 82.2489 64.2696 76.5789C60.1196 78.0089 58.0296 83.4689 56.6696 87.2189C56.2545 88.5583 54.9324 89.4017 53.5429 89.2134C52.1534 89.0252 51.1033 87.8605 51.0596 86.4589C50.6596 79.1189 50.0596 71.7889 49.1496 64.4589C48.7996 61.6889 48.5596 49.3489 44.9396 46.3989C39.5396 60.7989 45.0696 76.8289 42.3896 91.7689C41.7296 95.4589 36.7796 94.0389 36.3896 90.9689C35.5598 83.7214 34.338 76.5242 32.7296 69.4089C31.9496 66.0023 31.0829 62.6156 30.1296 59.2489C29.6596 57.5689 29.1296 55.8889 28.6296 54.2489C28.2296 52.9389 28.2896 50.9389 26.7296 51.0689C24.7296 51.2289 27.0796 68.5889 27.2896 71.0689C27.8896 78.2289 28.6496 85.3689 29.2896 92.5289C29.5696 95.8689 24.0296 96.5889 23.4596 93.3189C22.1787 85.8642 20.4217 78.4991 18.1996 71.2689C17.1662 67.9356 16.0329 64.6356 14.7996 61.3689C14.4696 60.4789 13.1696 55.7689 12.2196 55.7389C11.0396 55.7389 11.2196 58.0189 11.1296 59.2689C10.3296 74.6689 12.8896 90.5089 16.9396 105.319C17.1986 106.575 16.5281 107.838 15.3425 108.327C14.1569 108.816 12.7912 108.392 12.0896 107.319C10.5875 104.592 8.15686 102.495 5.23957 101.409C4.98957 106.179 8.39957 110.919 10.5796 114.979C12.8696 119.249 15.1896 123.499 17.3796 127.819C20.9769 122.812 25.5105 118.55 30.7296 115.269Z" fill="#FFF200"/>
<path d="M61.4705 134.569C62.4705 132.289 62.1505 129.249 61.9205 126.859C61.5305 122.719 60.3405 118.259 56.1805 116.529C48.4405 113.319 37.2405 118.889 31.0605 123.349C23.2905 128.939 16.7305 138.189 17.2605 148.169C17.5407 152.58 19.5278 156.709 22.8005 159.679C24.9505 161.679 27.4105 162.189 29.8005 163.049C29.7737 161.153 29.8472 159.257 30.0205 157.369V157.309C24.7305 141.679 55.1405 124.259 61.4705 134.569Z" fill="#FFF200"/>
<path d="M220.73 105.009C225.37 104.279 229.58 102.369 230.73 97.429C231.61 93.519 231.03 88.949 230.17 85.069C229.04 79.999 226.54 77.259 221.17 76.899C216.62 76.599 212.05 77.199 208.52 80.299C206.027 82.5416 204.282 85.4942 203.52 88.759C206.13 92.129 205.52 96.759 207.52 100.579C210.16 105.739 215.61 105.829 220.73 105.009Z" fill="#2B3990"/>
<path fill-rule="evenodd" clip-rule="evenodd" d="M209.381 184.519C231.211 181.629 255.311 185.429 274.731 196.039C293.641 206.389 305.381 226.729 312.471 246.509C319.736 266.785 321.415 288.642 317.331 309.789C313.001 331.639 301.861 349.539 282.611 361.109C273 366.683 262.857 371.282 252.331 374.839C241.151 378.779 229.231 381.429 217.331 380.369C194.911 378.369 177.031 365.519 160.531 351.269C160.248 351.029 160.022 350.729 159.871 350.389C151.65 342.485 144.776 333.29 139.521 323.169C129.481 303.949 125.711 281.949 129.791 260.589C137.381 221.069 169.381 189.809 209.381 184.519ZM289.361 344.949C303.991 331.609 309.601 310.959 310.361 291.749H310.321C311.034 272.362 306.816 253.111 298.061 235.799C293.671 227.129 288.291 218.529 281.291 211.739C274.111 204.799 264.891 200.439 255.481 197.439C235.631 191.039 213.681 189.689 193.681 196.229C160.171 207.189 136.671 241.039 135.801 275.949C135.321 293.339 140.421 310.619 149.321 325.499C156.741 337.879 166.501 347.569 177.561 356.209C192.151 365.359 208.531 372.549 225.671 371.549C238.051 370.819 250.111 366.379 261.411 361.549C271.361 357.299 281.361 352.279 289.361 344.949Z" fill="#231F20"/>
<path fill-rule="evenodd" clip-rule="evenodd" d="M230.609 226.479C241.773 228.625 251.859 234.542 259.18 243.239C267.59 253.459 269.89 265.679 270.24 278.619C270.61 291.939 268.76 304.449 258.52 313.939C249.078 322.636 237.063 328.027 224.289 329.299C215.415 330.143 206.478 328.552 198.439 324.699C197.84 324.974 197.145 324.936 196.579 324.599C193.228 322.598 190.138 320.189 187.379 317.429C181.289 312.079 175.809 304.609 174.539 296.659C169.989 283.489 170.129 268.619 175.899 256.079C185.399 235.409 207.959 222.179 230.609 226.479ZM231.909 318.849C241.959 315.989 253.639 309.379 258.349 299.599C262.809 290.359 261.909 277.099 260.269 267.219C257.119 247.829 239.299 233.469 219.639 234.049C200.929 234.609 184.729 249.399 179.729 266.939C176.949 276.783 177.58 287.278 181.519 296.719C182.953 299.723 184.7 302.569 186.729 305.209C190.208 309.394 194.42 312.911 199.159 315.589C209.069 321.229 221.049 321.949 231.909 318.849Z" fill="#231F20"/>
<path fill-rule="evenodd" clip-rule="evenodd" d="M222.852 112.389C216.141 113.649 208.731 113.629 203.731 108.389C201.567 105.991 199.955 103.148 199.011 100.059C195.152 90.7339 198.06 79.9798 206.091 73.8688C211.331 70.0288 218.451 69.1688 224.862 70.2688C231.272 71.3688 235.272 75.8788 236.982 81.8589C238.692 87.8389 239.532 95.3889 237.462 101.389C235.212 107.829 229.302 111.219 222.852 112.389ZM221.181 76.8988C216.631 76.5988 212.061 77.1988 208.531 80.2988H208.501C205.972 82.5276 204.191 85.4817 203.401 88.7588C204.879 90.6382 205.33 92.9157 205.787 95.2219C206.15 97.051 206.516 98.898 207.401 100.579C210.131 105.739 215.581 105.829 220.741 105.009C225.421 104.279 229.631 102.369 230.741 97.4288C231.621 93.5188 231.041 88.9488 230.181 85.0688C229.071 79.9988 226.571 77.2588 221.181 76.8988Z" fill="#231F20"/>
<path fill-rule="evenodd" clip-rule="evenodd" d="M198.97 143.719C190.678 139.087 183.839 132.238 179.22 123.939C172.36 117.289 169.25 105.999 168.66 97.1291C167.807 84.8456 172.162 72.77 180.66 63.8591C197.73 46.3591 226.09 45.3591 245.27 59.8891C265.9 75.5391 274.38 105.789 260.68 128.719C247.69 150.509 220.55 155.619 198.97 143.719ZM233.65 62.2391C216.2 52.9891 191.86 57.5691 181.06 74.8591V74.8491C178.909 78.3289 177.348 82.1402 176.44 86.1291C176.51 86.8962 176.577 87.662 176.644 88.4264C177.485 97.9858 178.306 107.323 183.26 116.129C188.87 126.109 196.9 134.519 207.73 138.699C227.63 146.389 249.85 137.899 256.85 117.039C263.95 95.9391 252.87 72.4291 233.65 62.2391Z" fill="#231F20"/>
<path fill-rule="evenodd" clip-rule="evenodd" d="M363.89 224.699C357.57 232.119 349.7 236.599 340.73 239.519C339.756 214.992 338.796 190.462 337.85 165.929C337.688 161.738 337.536 157.545 337.384 153.352L337.383 153.336L337.383 153.319L337.382 153.302L337.382 153.285L337.381 153.269L337.38 153.252V153.25C336.797 137.189 336.214 121.12 335.13 105.089C334.46 95.0889 333.55 85.0289 332.26 75.0889C332.074 73.6521 331.9 72.1948 331.724 70.7259V70.7255C330.855 63.4737 329.953 55.936 327.55 49.1589C322.32 34.4189 307.549 30.6589 293.44 29.7789C279.49 28.9057 265.486 28.4937 251.49 28.0819L251.49 28.0819L251.489 28.0819C245.61 27.9089 239.731 27.736 233.86 27.5289C227.859 27.3136 221.859 27.0948 215.859 26.8761L215.854 26.8759L215.853 26.8758C199.005 26.2615 182.155 25.6472 165.3 25.1089L164.363 25.0788C142.555 24.3779 120.751 23.677 99.1895 27.7389C98.1074 28.0421 97.3569 29.0252 97.3495 30.1489C97.6395 35.7289 98.0195 41.2889 98.4095 46.8589C97.1678 62.0844 97.3637 77.5876 97.5561 92.813C97.5945 95.8576 97.6329 98.891 97.6595 101.909C97.8795 126.669 98.2995 151.489 99.3795 176.229C100.007 191.178 100.296 206.134 100.585 221.094V221.094L100.585 221.096L100.585 221.098L100.585 221.1L100.585 221.101L100.585 221.103L100.585 221.105L100.585 221.107L100.585 221.109L100.586 221.11L100.586 221.112L100.586 221.114L100.586 221.116L100.586 221.118L100.586 221.119L100.586 221.121C100.757 229.98 100.928 238.839 101.17 247.699C94.3688 245.028 88.5817 240.284 84.6295 234.139C78.9995 225.489 76.4195 215.299 74.0695 205.379C69.1495 184.649 66.4395 163.759 64.7195 142.589C73.3095 138.589 69.7795 119.939 65.4295 114.349C64.4599 113.096 63.303 112 61.9995 111.099C62.3854 106.337 64.5371 101.707 66.6881 97.0778C70.1114 89.7108 73.5327 82.3482 69.8295 74.4689C67.4995 69.4689 63.3695 69.6889 59.1895 72.7389C57.9412 73.6732 56.8362 74.785 55.9095 76.0389C55.2429 68.8922 54.3795 61.7622 53.3195 54.6489C52.3195 48.3989 50.8395 40.6489 43.2395 39.9989C42.2027 39.9847 41.2406 40.5367 40.7295 41.4389C37.5295 47.4389 36.6695 53.7289 36.6195 60.1989C35.6612 56.3269 34.469 52.5166 33.0495 48.7889C31.9695 46.0589 30.2095 43.8589 27.0495 43.9089C18.9206 44.0338 19.9504 53.8716 20.5669 59.7601C20.592 59.9999 20.6164 60.2331 20.6395 60.4589C18.7295 55.3489 14.7295 44.9389 8.24952 50.8389C5.92952 52.9289 5.51952 56.3589 5.44952 59.2889C5.34294 64.6495 5.54661 70.0118 6.05952 75.3489C6.72617 82.8581 7.89208 90.3146 9.54952 97.6689C7.79961 96.6962 5.90052 96.0203 3.92952 95.6689C2.55192 95.3302 1.14902 96.1237 0.729517 97.4789C-1.18048 102.879 0.979517 107.869 3.52952 112.659C7.01952 119.239 10.5995 125.819 14.4195 132.209C14.4555 132.269 14.4914 132.318 14.5274 132.367L14.5275 132.367C14.5515 132.4 14.5755 132.433 14.5995 132.469C12.0534 137.275 10.9229 142.706 11.3395 148.129C11.8225 153.801 14.3914 159.092 18.5495 162.979C21.2195 165.429 25.9595 168.399 30.0195 168.049C30.2212 170.799 30.5153 173.549 30.8094 176.299L30.8895 177.049C31.6695 184.369 32.6995 191.669 34.0595 198.909C36.9447 214.817 41.2245 230.441 46.8495 245.599C51.6395 258.309 58.4395 269.599 69.3095 278.009C77.8395 284.579 91.0795 291.619 102.31 290.589L103.25 323.999L104.4 365.179L104.97 385.779C105.01 387.228 105.028 388.689 105.045 390.153C105.111 395.842 105.178 401.598 106.65 407.069C106.711 407.281 106.802 407.483 106.92 407.669C108.68 417.239 117.83 421.399 127.21 423.669C125 442.259 127.58 462.089 131.31 480.279C134.69 496.779 140.52 513.479 152.74 525.579C161.24 533.999 172.4 539.389 184.16 539.509C183.08 543.179 183.76 547.829 184.6 551.179C185.872 556.019 188.298 560.48 191.67 564.179C198.54 571.769 209.93 575.509 219.67 571.469C231.37 566.609 232.01 553.589 232 542.599C231.96 534.85 231.429 527.111 230.41 519.429C230.243 518.174 230.104 516.813 229.959 515.396L229.959 515.395L229.958 515.394L229.958 515.392C229.369 509.644 228.685 502.972 225.75 498.649L225.7 498.599C227.712 496.115 229.085 493.176 229.7 490.039C230.487 491.934 231.512 493.722 232.75 495.359C233.138 496.247 233.695 497.052 234.39 497.729C234.39 497.779 234.39 497.809 234.34 497.859C232.984 503.887 233.275 510.178 233.561 516.361L233.561 516.363L233.561 516.364L233.561 516.365L233.561 516.367L233.561 516.368L233.561 516.369L233.561 516.37L233.561 516.372L233.561 516.373L233.561 516.374L233.561 516.376L233.561 516.377L233.561 516.378L233.561 516.379C233.623 517.719 233.685 519.053 233.73 520.379C233.781 521.933 233.821 523.493 233.862 525.056L233.862 525.06L233.862 525.065L233.862 525.069L233.862 525.074L233.862 525.078L233.863 525.083L233.863 525.088L233.863 525.092L233.863 525.097L233.863 525.101L233.863 525.106L233.863 525.11L233.863 525.115L233.864 525.12C234.006 530.574 234.148 536.064 234.73 541.489C236.03 552.829 240.31 565.409 251.07 571.099C260.68 576.179 272.359 574.019 278.43 564.749C281.5 560.059 282.68 554.429 282.86 548.899C283.07 542.899 282.79 535.599 280.53 529.899C288.91 530.899 297.4 529.499 304.22 524.089C316.07 514.689 317.97 498.869 318.04 484.749C318.04 478.137 318.004 471.522 317.968 464.907L317.968 464.895C317.951 461.589 317.933 458.283 317.92 454.979C317.92 453.047 317.936 451.109 317.953 449.166V449.165V449.164V449.162V449.162C318.009 442.587 318.066 435.968 317.48 429.439C323.81 428.939 330.25 428.249 335.97 426.319C342.42 424.149 348.48 418.179 347.17 411.129C346.576 382.255 345.324 353.37 344.073 324.497V324.496V324.496V324.495V324.495V324.494V324.494V324.493V324.493V324.492V324.491V324.491V324.49V324.49V324.489V324.489L344.072 324.471C343.552 312.474 343.032 300.48 342.56 288.489C342.53 287.694 342.497 286.896 342.465 286.099C342.432 285.301 342.4 284.504 342.37 283.709C355.82 288.919 372.74 284.399 384.61 277.179C399.04 268.399 405.23 252.179 408.45 236.349C412.103 218.361 412.012 199.794 411.922 181.513L411.92 180.959C411.873 171.192 411.68 161.426 411.34 151.659C411.199 147.799 411.033 143.946 410.84 140.099C415.84 138.779 419.19 132.039 420.96 127.669C423.509 121.379 422.96 114.669 420.32 108.529C419.162 105.813 417.724 103.226 416.03 100.809C417.165 97.8149 417.139 94.5003 417.114 91.2509C417.107 90.3219 417.099 89.3982 417.12 88.4889C417.139 87.6361 417.175 86.7676 417.211 85.8904C417.361 82.2828 417.517 78.5276 416.56 75.1089C417.372 72.7397 417.827 70.2624 417.91 67.7589C418.21 62.1789 417.98 53.5989 411.79 51.0689C409.24 50.0618 406.358 50.38 404.09 51.9189C403.464 51.2643 402.73 50.7229 401.92 50.3189C402.602 48.3414 403.326 46.3674 404.051 44.3933L404.051 44.392C408.243 32.9694 412.436 21.5431 408.48 9.41891C407.48 6.30891 405.92 1.75891 401.83 2.34891C398.107 2.88886 396.46 7.35092 395.151 10.8946C394.86 11.6825 394.586 12.425 394.31 13.0689C391.183 20.4022 388.386 27.8822 385.92 35.5089C385.66 33.252 385.46 30.9788 385.261 28.7037C384.436 19.3156 383.608 9.89659 378.57 1.46891C377.11 -0.971087 373.99 -0.121087 373.04 2.18891C367.04 16.7489 367.49 32.4089 369.21 47.7789C368.495 46.6288 367.496 45.6819 366.31 45.0289C362.45 43.0289 358.25 45.6189 357.21 49.5989C356.034 54.0611 358.997 59.0765 361.571 63.4356C362.458 64.9378 363.3 66.3621 363.91 67.6589C367.355 75.1291 370.184 82.8681 372.37 90.7989C369.49 93.3135 367.359 96.5727 366.21 100.219C362.94 110.559 369.639 121.219 378.43 126.479C378.498 129.114 378.574 131.75 378.651 134.387V134.387C379.205 153.435 379.76 172.516 377.09 191.419C375.419 203.319 371.79 215.399 363.89 224.699ZM9.27889 112.721L9.27885 112.72C7.26907 109.227 5.04595 105.363 5.24952 101.479C8.16681 102.565 10.5974 104.662 12.0995 107.389C12.8011 108.462 14.1668 108.886 15.3524 108.397C16.5381 107.908 17.2086 106.645 16.9495 105.389C12.9495 90.5789 10.3395 74.7389 11.1395 59.3389C11.1504 59.1455 11.1557 58.9266 11.1613 58.695C11.1921 57.4299 11.2321 55.7836 12.2295 55.8089C13.0433 55.8089 14.0227 58.9482 14.5371 60.5969L14.5371 60.5969C14.6548 60.9741 14.7481 61.2732 14.8095 61.4389C16.0495 64.6989 17.1828 67.9989 18.2095 71.3389C20.4317 78.5691 22.1886 85.9342 23.4695 93.3889C24.0395 96.6589 29.5795 95.9389 29.2995 92.5989C28.9731 88.7678 28.6038 84.9424 28.2344 81.1166L28.2344 81.1164L28.2344 81.1161L28.2343 81.1159L28.2343 81.1157L28.2343 81.1155L28.2343 81.1152L28.2342 81.115L28.2342 81.1148L28.2342 81.1145L28.2342 81.1143L28.2342 81.1141L28.2341 81.1139L28.2341 81.1136L28.2341 81.1134L28.2341 81.1132C27.9132 77.7901 27.5923 74.4666 27.2995 71.1389C27.2664 70.7444 27.181 69.9799 27.0683 68.9715L27.0683 68.9714C26.4668 63.589 25.0888 51.2568 26.7395 51.1389C27.9118 51.0387 28.1443 52.1757 28.3774 53.3158C28.4465 53.654 28.5157 53.9924 28.6095 54.2989C28.9527 55.3736 29.2706 56.4568 29.5879 57.5374L29.588 57.5376L29.588 57.5378L29.5881 57.538L29.5881 57.5382L29.5882 57.5384L29.5882 57.5386L29.5883 57.5388L29.5884 57.539L29.5884 57.5392L29.5885 57.5394L29.5885 57.5396L29.5886 57.5397L29.5886 57.5399L29.5887 57.5401L29.5888 57.5403C29.7612 58.1278 29.9335 58.7146 30.1095 59.2989C31.0695 62.6322 31.9362 66.0189 32.7095 69.4589C34.3093 76.588 35.521 83.7986 36.3395 91.0589C36.6995 94.1289 41.6495 95.5489 42.3395 91.8589C43.4897 85.4468 43.1277 78.8284 42.7664 72.2258C42.286 63.4446 41.8071 54.6914 44.8895 46.4889C47.8977 48.9819 48.5718 57.8899 48.9146 62.4193C48.9843 63.3406 49.0404 64.0807 49.0995 64.5489C49.9995 71.8389 50.6095 79.1689 51.0095 86.5489C51.0532 87.9504 52.1033 89.1152 53.4928 89.3034C54.8824 89.4917 56.2045 88.6483 56.6195 87.3089C57.9795 83.5589 60.0695 78.0989 64.2195 76.6689C66.6195 82.3389 63.4595 88.6089 60.8195 93.8289L60.6082 94.247C58.2571 98.8964 55.9125 103.533 55.6795 108.669C47.3395 107.189 37.2995 111.169 30.6795 115.359C25.4793 118.655 20.9663 122.927 17.3895 127.939C15.5788 124.326 13.6793 120.795 11.7813 117.267C11.3837 116.528 10.9862 115.789 10.5895 115.049C10.1847 114.295 9.73739 113.517 9.27902 112.721L9.27889 112.721ZM29.9895 157.369V157.309C24.7295 141.679 55.1395 124.259 61.4395 134.569C62.4181 132.338 62.1326 129.379 61.9044 127.013L61.8895 126.859C61.4995 122.719 60.3095 118.259 56.1495 116.529C48.4095 113.349 37.2095 118.889 31.0295 123.349C23.2295 128.969 16.6795 138.169 17.2295 148.169C17.5097 152.58 19.4968 156.708 22.7695 159.679C24.5218 161.292 26.4886 161.946 28.4613 162.603L28.4614 162.603C28.8979 162.748 29.3347 162.893 29.7695 163.049C29.7428 161.153 29.8162 159.257 29.9895 157.369ZM87.0695 280.399C81.4654 278.162 76.2534 275.046 71.6295 271.169C61.0595 262.299 55.4495 250.169 51.0595 237.399C46.472 224.011 42.8593 210.308 40.2495 196.399C38.8895 189.149 37.7495 181.849 36.9095 174.519C36.6934 172.639 36.5193 170.747 36.345 168.851C35.9063 164.081 35.4659 159.293 34.3495 154.649C35.5295 150.119 36.8595 146.349 40.9695 143.009C43.2195 141.179 54.7395 133.869 56.5795 138.799C56.7907 139.363 57.167 139.851 57.6595 140.199C58.806 164.776 62.5706 189.16 68.8895 212.939C73.1095 229.129 82.5495 251.579 101.36 254.549L102.18 284.209C100.185 283.63 98.1483 283.217 96.1053 282.804L96.1048 282.804L96.1044 282.803L96.1041 282.803L96.1038 282.803L96.1033 282.803C93.0668 282.188 90.0163 281.57 87.0695 280.399ZM132.457 431.921C133.157 447.103 133.848 462.08 136.92 477.169C141.91 501.679 156.37 535.719 187.07 532.769C202.33 531.299 211.24 519.359 213.86 504.969C216.07 492.839 212.07 479.729 201.07 474.339C201.21 478.973 200.807 483.608 199.87 488.149C199.04 492.819 197.88 497.899 194.28 501.269C187.75 507.379 176.93 504.879 171.28 498.879C164.047 491.24 161.84 479.138 159.969 468.879C159.814 468.032 159.662 467.197 159.51 466.379C157.3 454.479 155.2 440.659 158.02 428.659C151.6 427.852 145.2 426.946 138.82 425.939C138.414 425.873 138.002 425.807 137.583 425.739L137.579 425.739C135.843 425.459 134.004 425.163 132.12 424.809C132.238 427.185 132.347 429.555 132.457 431.92V431.921ZM194.62 471.449C194.449 473.332 194.415 475.224 194.38 477.117C194.339 479.334 194.299 481.552 194.04 483.759C189.749 478.399 189.239 469.279 192.54 463.479C196.561 456.678 205.111 454.074 212.24 457.479C219.811 460.999 222.111 468.799 223.181 476.479C223.916 480.617 223.762 484.865 222.731 488.939C222.317 490.283 221.71 491.559 220.931 492.729C219.101 480.259 211.73 468.599 198.2 466.489C196.911 466.239 195.593 466.76 194.825 467.825C194.056 468.89 193.976 470.304 194.62 471.449ZM220.53 563.309C224.31 559.829 224.85 554.279 225.03 549.449V549.499C225.24 543.939 225.08 538.399 224.74 532.829C224.406 527.182 223.796 521.569 222.91 515.989C222.646 514.351 222.222 512.623 221.79 510.866L221.79 510.866L221.79 510.865L221.79 510.865C221.402 509.286 221.008 507.684 220.72 506.099C218.01 521.549 208.59 535.399 192.59 538.739C191.74 538.919 190.89 539.059 190.05 539.179C190.177 540.424 190.188 541.678 190.198 542.936C190.216 545.123 190.235 547.323 190.87 549.519C191.955 553.46 193.98 557.08 196.77 560.069C202.53 566.129 213.66 569.629 220.53 563.309ZM228.3 466.599C225.58 458.529 220.3 451.849 211.19 449.749C201.279 447.649 191.207 452.541 186.73 461.629C182.39 470.679 184.39 483.629 192.47 489.839C192.649 489.968 192.844 490.076 193.05 490.159C192.41 493.009 191.31 495.749 189.15 497.219C180.95 502.789 173.15 492.399 170.72 485.809C167.63 477.429 165.9 468.229 164.5 459.429C163.281 451.742 163.254 444.238 163.226 436.645C163.217 434.202 163.208 431.75 163.16 429.279C173.526 430.499 183.92 431.462 194.34 432.169C223.683 434.174 253.127 434.244 282.48 432.379C281.894 437.603 282.134 442.953 282.371 448.239L282.371 448.24C282.441 449.813 282.511 451.381 282.56 452.939C282.8 460.939 283.01 468.912 283.19 476.859C283.203 477.454 283.233 478.076 283.264 478.713C283.412 481.781 283.578 485.21 282.03 487.769C279.38 492.159 274.85 490.339 272.03 487.179C271.622 486.724 271.241 486.232 270.878 485.765L270.878 485.764L270.82 485.689C276.41 479.379 275.51 466.689 271.73 459.899C266.73 450.999 254.21 446.269 244.46 448.289C234.71 450.309 230.14 457.739 228.3 466.649V466.599ZM232.62 475.259C232.35 481.189 233.67 486.819 235.35 492.409V492.459C236.234 493.136 237.076 493.867 237.87 494.649C238.366 495.067 238.913 495.42 239.5 495.699C239.7 495.789 239.89 495.859 240.09 495.929C238.63 483.749 245.4 471.099 256.75 466.099C257.04 465.972 257.346 465.885 257.66 465.839C258.346 465.079 259.392 464.754 260.388 464.991C261.383 465.229 262.17 465.991 262.44 466.979C262.736 467.821 263.029 468.669 263.322 469.521C264.353 472.514 265.397 475.543 266.69 478.439C268.47 473.079 268.19 466.699 265.11 462.079C260.85 455.679 249.95 452.119 242.8 454.789C234.72 457.789 232.91 467.599 232.62 475.259ZM272.648 561.409C266.418 570.849 253.999 567.609 247.999 559.759C241.67 551.476 241.183 540.61 240.734 530.606L240.729 530.509C240.615 527.864 240.582 525.142 240.549 522.388C240.461 515.074 240.371 507.531 238.73 500.579C239.256 500.759 239.815 500.827 240.369 500.779C240.609 500.746 240.844 500.686 241.069 500.599C244.319 511.689 253.899 520.279 264.128 525.089C267.343 526.605 270.691 527.823 274.128 528.729C273.747 529.43 273.66 530.254 273.888 531.019C276.408 540.049 278.118 553.129 272.648 561.409ZM311.41 478.759L311.65 451.409L311.63 451.389C311.657 449.438 311.66 447.482 311.664 445.522C311.673 440.319 311.682 435.096 312.14 429.909C310.64 430.019 309.16 430.149 307.71 430.289C301.096 430.962 294.476 431.532 287.85 431.999C289.465 439.632 289.504 447.825 289.543 455.781V455.782C289.556 458.562 289.569 461.312 289.65 463.999C289.679 464.997 289.71 465.999 289.741 467.003L289.741 467.006V467.007V467.007V467.008V467.009V467.009C289.88 471.464 290.02 475.967 290.02 480.429C289.99 484.519 289.54 488.719 287.17 492.179C282.68 498.709 274.45 498.039 269.06 493.089C263.86 488.319 259.86 480.579 257.86 473.319C245.69 481.099 243.37 496.889 253.11 508.189C262.27 518.819 280.58 526.579 294.36 521.579C311.094 515.55 311.278 494.13 311.404 479.353L311.41 478.759ZM324.081 420.129C316.207 421.149 308.324 422.022 300.431 422.749C284.631 424.209 268.79 425.105 252.91 425.439C220.885 426.116 188.851 424.612 157.03 420.939C148.12 419.939 139.18 418.859 130.34 417.389C123.26 416.219 113.61 413.389 112.08 405.389C112.769 400.948 112.618 396.522 112.466 392.031C112.439 391.242 112.412 390.452 112.39 389.659C112.21 383.419 112.033 377.179 111.86 370.939C111.513 358.459 111.16 345.979 110.8 333.499C110.133 309.159 109.466 284.825 108.8 260.499C108.294 242.615 107.719 224.739 107.145 206.863C106.14 175.599 105.136 144.338 104.5 113.049C104.23 99.4789 104.09 85.8989 104.24 72.3189C104.298 67.0406 104.462 61.8015 104.625 56.5795V56.5794V56.5793V56.5792V56.5791V56.579C104.883 48.3659 105.138 40.1948 104.98 31.9789C122.729 29.7428 140.756 30.5586 158.548 31.3639L158.88 31.3789C178.333 32.2522 197.787 33.0789 217.24 33.8589C236.694 34.6389 256.15 35.4356 275.611 36.2489C277.693 36.3315 280.017 36.3374 282.484 36.3437C295.556 36.3771 312.643 36.4207 319.171 47.9289C322.764 54.2333 323.67 62.6251 324.485 70.1852V70.1855C324.669 71.8829 324.847 73.5384 325.051 75.1189C326.261 84.4889 327.111 93.9089 327.761 103.329C328.854 119.08 329.415 134.872 329.976 150.66L329.977 150.701C330.103 154.244 330.229 157.787 330.361 161.329C331.834 200.662 333.274 239.975 334.681 279.269C335.145 292.1 335.56 304.939 335.974 317.781L335.974 317.791C336.961 348.371 337.949 378.964 339.611 409.499C339.563 409.83 339.563 410.167 339.611 410.499C340.542 418.142 331.605 419.206 325.534 419.929C325.02 419.99 324.526 420.049 324.061 420.109L324.081 420.129ZM412.203 66.6035C412.373 63.7258 412.578 60.2384 411.08 57.6989L411.04 57.6789C410.158 56.0171 408.2 55.2415 406.42 55.8489C407.245 59.0802 407.395 62.4471 406.86 65.7389C407.276 66.5791 407.459 67.4604 407.657 68.4198L407.658 68.4205L407.658 68.4211C407.769 68.9571 407.885 69.5176 408.05 70.1089C408.51 71.7589 409.51 74.3289 411.51 72.3289C412.192 71.6461 412.177 69.7807 412.165 68.3005C412.161 67.8081 412.157 67.3584 412.18 67.0089C412.187 66.8753 412.195 66.7401 412.203 66.6035ZM398.48 73.6989L398.474 73.6538C402.349 69.6283 403.889 59.2692 400.29 55.9289C398.634 61.7543 397.684 67.6692 398.474 73.6538L398.44 73.6889L398.48 73.6989ZM364.892 58.4046C365.221 58.9411 365.495 59.3885 365.66 59.6989L365.62 59.7089C370.341 68.6528 373.974 78.1304 376.44 87.9389C381.375 85.2853 387.041 84.3128 392.58 85.1689C399.301 86.3174 405.515 89.4803 410.4 94.2389C410.45 93.1 410.547 91.9559 410.642 90.8339L410.642 90.8309C410.734 89.7375 410.825 88.6651 410.87 87.6389C410.897 86.9264 410.916 86.2016 410.935 85.4692C410.983 83.5703 411.033 81.6214 411.25 79.7089C410.394 79.7182 409.542 79.5864 408.73 79.3189C406.654 78.5587 404.927 77.0694 403.87 75.1289C402.424 77.5577 400.064 79.3049 397.32 79.9789C395.99 80.3148 394.632 79.5431 394.24 78.2289C391.75 70.2989 392.57 62.7089 394.57 55.2289C394.471 54.6839 394.586 54.1219 394.89 53.6589C394.95 53.5519 395.017 53.4484 395.09 53.3489C396.018 50.1246 397.123 46.9173 398.23 43.7044L398.231 43.7038L398.231 43.7031C400.403 37.4005 402.582 31.0762 403.45 24.5589C403.798 22.0984 403.892 19.6086 403.73 17.1289C403.391 15.1373 402.855 13.1844 402.13 11.2989C401.972 11.6134 401.797 11.9301 401.636 12.221L401.635 12.2227L401.634 12.2235C401.458 12.5421 401.299 12.8296 401.2 13.0489C400.03 15.7289 398.91 18.4389 397.83 21.1589C394.204 30.3551 391.073 39.7384 388.45 49.2689C387.58 52.3689 383.27 52.1889 382.33 49.2689C380.391 43.2051 379.883 36.7579 379.376 30.3232V30.323C378.861 23.7797 378.346 17.2495 376.33 11.1489C372.34 25.9389 374.09 41.5889 375.9 56.7489C376.17 59.0289 373.37 59.9989 371.7 59.1589C368.93 57.8017 367.524 55.3448 366.065 52.7957C365.944 52.5839 365.822 52.3714 365.7 52.1589C365.598 51.9868 365.493 51.7908 365.383 51.5851L365.382 51.5831C364.711 50.3309 363.849 48.7199 362.39 49.9389C360.627 51.4543 363.355 55.9001 364.892 58.4046ZM378.24 109.229C378.24 112.989 378.24 116.759 378.34 120.529C373.45 115.589 369.22 109.529 371.58 102.359C374.58 93.2489 385.19 90.2289 393.69 92.7889C402.19 95.3489 408.82 102.409 412.64 110.119C415 114.889 416.01 120.179 413.95 125.239C413.041 127.383 411.919 129.43 410.6 131.349L410.48 131.519C410.42 130.929 410.34 130.339 410.24 129.759C411.31 125.459 408.91 120.299 406.55 116.849C402.964 111.934 398.419 107.797 393.19 104.689C389.44 102.389 384.19 101.249 380.99 105.159C380.824 105.367 380.67 105.584 380.53 105.809C379.056 106.28 378.094 107.696 378.2 109.239L378.24 109.229ZM386.89 157.354C386.684 171.559 386.474 186.006 383.419 199.939C380.729 212.149 375.41 224.129 366.24 232.889C359.419 239.399 350.4 244.549 340.9 244.109C341.346 255.476 341.793 266.846 342.24 278.219C355.85 282.419 374.669 276.649 385.24 267.709C397.13 257.669 400.9 239.849 402.75 225.139C404.722 209.521 404.533 193.603 404.347 177.862C404.338 177.084 404.328 176.306 404.32 175.529C404.22 166.982 404.01 158.439 403.69 149.899C403.587 147.336 403.475 144.773 403.362 142.21C403.287 140.503 403.211 138.796 403.139 137.089C403.109 136.509 403.07 135.927 403.031 135.344C402.868 132.882 402.703 130.404 403.139 127.979C402.957 127.072 402.72 126.177 402.43 125.299C401.396 122.502 399.757 119.968 397.63 117.879C395.635 115.856 393.5 113.978 391.24 112.259C390.18 111.439 387.03 109.159 385.78 109.889C387.361 124.239 387.151 139.021 386.945 153.487C386.929 154.566 386.914 155.644 386.9 156.719L386.89 157.354Z" fill="#231F20"/>
<path d="M311.728 106.589C312.098 119.079 312.018 132.069 314.837 144.299C314.951 144.635 315.288 144.843 315.64 144.794C315.992 144.746 316.259 144.454 316.277 144.099C316.997 131.349 315.277 118.429 314.917 105.679C314.724 99.5654 314.597 93.4554 314.537 87.3488C314.467 81.2388 314.867 74.8888 313.758 68.8588C313.682 68.6045 313.448 68.4302 313.183 68.4302C312.918 68.4302 312.684 68.6045 312.608 68.8588C311.229 74.8588 311.488 81.2488 311.468 87.3488C311.435 93.7421 311.522 100.155 311.728 106.589Z" fill="#231F20"/>
<path d="M315.171 154.689C313.731 160.609 313.511 169.529 315.511 175.329C315.781 176.089 317.081 176.269 317.251 175.329C317.861 171.939 317.431 168.429 317.311 164.999C317.352 161.554 317.171 158.111 316.771 154.689C316.631 153.859 315.351 153.939 315.171 154.689Z" fill="#231F20"/>
<path d="M122.111 358.109C122.551 351.429 121.401 344.659 120.871 337.999C120.365 331.585 119.945 325.169 119.611 318.749C118.941 305.619 118.391 292.419 118.271 279.269C118.233 278.975 117.983 278.755 117.686 278.755C117.39 278.755 117.14 278.975 117.101 279.269C116.361 292.769 116.101 306.149 116.601 319.669C116.868 326.395 117.275 333.115 117.821 339.829C118.321 346.019 118.561 352.379 120.341 358.349C120.458 358.788 120.883 359.071 121.332 359.01C121.782 358.949 122.116 358.563 122.111 358.109Z" fill="#231F20"/>
<path d="M121.128 368.449C120.279 375.732 120.617 383.104 122.128 390.279C122.338 391.129 123.818 391.219 123.938 390.279C124.762 382.914 124.383 375.463 122.818 368.219C122.618 367.179 121.228 367.539 121.128 368.449Z" fill="#231F20"/>
</svg>
