<svg width="534" height="571" viewBox="0 0 534 571" fill="none" xmlns="http://www.w3.org/2000/svg">
<path fill-rule="evenodd" clip-rule="evenodd" d="M166.464 171.494C149.574 197.654 139.034 227.894 145.344 259.294C152.004 292.504 177.644 315.014 205.594 331.654C232.084 347.434 262.594 358.054 293.764 356.654C309.764 355.944 325.164 351.554 339.964 345.564C355.178 339.584 369.935 332.499 384.114 324.364C397.184 316.674 407.424 306.914 414.324 293.304C421.624 278.914 425.984 262.484 428.164 246.544C432.394 215.694 427.334 183.544 410.844 156.854C395.784 132.504 372.474 114.654 344.594 107.764C329.164 103.954 313.234 103.214 297.414 103.324L297.355 103.324C280.473 103.444 262.865 103.569 246.504 108.134C217.664 116.134 194.504 138.134 175.334 160.134C172.494 163.394 169.684 166.824 166.964 170.374C166.856 170.771 166.687 171.149 166.464 171.494ZM163.274 270.494C154.454 264.234 151.224 252.544 150.064 242.294C148.558 228.121 150.66 213.797 156.174 200.654C156.644 199.534 158.464 199.954 158.064 201.174C153.918 213.112 152.162 225.748 152.894 238.364C153.724 250.244 157.964 259.684 164.184 269.624C164.514 270.124 163.824 270.884 163.274 270.494ZM412.664 216.684C412.628 232.615 410.99 248.501 407.774 264.104C407.702 264.413 407.895 264.722 408.204 264.794C408.513 264.866 408.822 264.673 408.894 264.364C413.743 248.966 415.567 232.775 414.264 216.684C414.264 216.242 413.906 215.884 413.464 215.884C413.022 215.884 412.664 216.242 412.664 216.684ZM369.564 180.234C369.724 179.789 369.932 179.363 370.184 178.964L370.434 178.604L370.504 178.444L370.623 178.164L370.592 178.244C370.57 178.301 370.547 178.357 370.524 178.414C371.073 177.132 372.098 176.113 373.384 175.574C374.033 175.233 374.762 175.071 375.494 175.104C376.467 175.108 377.422 175.367 378.264 175.854C379.269 176.39 380.093 177.211 380.634 178.214C380.872 178.626 381.057 179.066 381.184 179.524C381.758 180.781 381.843 182.207 381.424 183.524C381.026 184.983 380.167 186.274 378.974 187.204C377.788 188.116 376.33 188.605 374.834 188.594C372.838 188.597 370.979 187.577 369.91 185.891C368.84 184.205 368.71 182.089 369.564 180.284V180.234ZM370.734 177.904C370.693 177.991 370.658 178.077 370.623 178.164L370.734 177.904ZM380.544 308.514C373.369 316.113 365.093 322.592 355.994 327.734H356.014C355.294 328.144 355.924 329.184 356.634 328.864C366.296 324.343 375.108 318.193 382.684 310.684C389.464 303.874 397.194 295.184 399.524 285.684C399.704 284.944 398.704 284.224 398.144 284.884C395.32 288.241 392.884 291.848 390.446 295.458L390.446 295.458C387.401 299.965 384.353 304.477 380.544 308.514ZM321.884 154.734C328.044 146.584 339.784 148.394 346.754 154.834C354.134 161.654 353.904 173.994 343.054 176.834C335.704 178.774 322.684 176.534 320.054 168.234C319.123 164.641 319.528 160.831 321.194 157.514C321.041 156.529 321.298 155.525 321.904 154.734H321.884ZM265.136 173.243C264.568 173.317 264.065 173.65 263.774 174.144C260.674 180.294 263.004 190.094 266.444 195.694C270.844 202.814 278.684 205.964 286.844 205.994C295.004 206.024 301.014 201.964 302.674 193.774C304.114 186.774 305.274 171.844 299.274 166.774C298.522 166.05 297.482 165.707 296.446 165.839C295.411 165.971 294.491 166.565 293.944 167.454C291.888 170.862 292.307 174.886 292.72 178.856L292.72 178.856C292.888 180.466 293.054 182.067 293.054 183.614C293.193 186.333 293.066 189.06 292.674 191.754C291.884 195.944 288.614 196.364 284.784 196.144C278.114 195.754 273.964 192.144 271.534 186.144C270.957 184.716 270.535 183.221 270.114 181.729C269.317 178.906 268.523 176.093 266.684 173.764C266.276 173.361 265.705 173.169 265.136 173.243ZM216.014 179.964C216.047 179.832 216.075 179.699 216.103 179.563L216.103 179.563C216.144 179.369 216.185 179.17 216.244 178.964C216.675 177.623 217.331 176.365 218.184 175.244C220.337 171.889 223.75 169.542 227.654 168.734C238.524 166.614 249.074 177.244 245.514 188.054C243.806 193.279 239.441 197.197 234.062 198.331C228.682 199.466 223.107 197.645 219.434 193.554C218.949 193.014 218.504 192.44 218.104 191.834C215.501 188.461 214.717 184.026 216.004 179.964H216.014ZM198.474 209.461C196.984 208.326 195.056 207.94 193.244 208.414H193.234C189.614 209.364 187.504 213.964 189.674 217.274C190.283 218.241 191.126 219.038 192.124 219.594L192.264 219.664L193.344 220.114C194.091 220.31 194.871 220.347 195.634 220.224C196.948 220.024 198.166 219.415 199.114 218.484C200.222 217.34 200.852 215.816 200.874 214.224C200.849 212.352 199.964 210.595 198.474 209.461Z" fill="#FFF200"/>
<path d="M235.164 184.674C235.874 181.674 232.164 178.804 229.314 179.994C227.114 180.924 226.544 183.814 226.634 186.244L226.694 186.324C229.234 189.044 234.194 188.814 235.164 184.674Z" fill="white"/>
<path d="M339.234 166.304C340.974 166.054 341.614 166.214 340.604 164.864C339.706 163.541 338.506 162.451 337.104 161.684C334.784 160.556 332.135 160.304 329.644 160.974C329.264 162.514 329.274 163.974 330.014 164.844C331.524 166.604 337.214 166.604 339.234 166.304Z" fill="white"/>
<path d="M370.473 178.564L370.543 178.414L370.483 178.544L370.473 178.564Z" fill="white"/>
<path fill-rule="evenodd" clip-rule="evenodd" d="M157.614 139.674C156.684 141.924 153.514 142.564 151.464 140.944C106.59 149.429 60.8506 152.421 15.2539 149.854C37.9675 184.805 66.9642 215.243 100.774 239.624C104.414 242.244 104.224 248.064 99.4939 249.434C76.5642 256.059 55.1148 267.013 36.3039 281.704C62.1239 289.297 87.9572 296.847 113.804 304.354C115.6 304.885 116.989 306.315 117.467 308.125C117.945 309.936 117.444 311.865 116.144 313.214L78.4739 353.994C90.955 353.616 103.338 351.654 115.324 348.154C120.594 346.614 124.104 353.304 120.534 357.084C95.0123 384.109 72.7286 414.018 54.1339 446.204C70.8275 442.221 86.7675 435.687 102.663 429.171L102.664 429.171C103.45 428.849 104.237 428.526 105.024 428.204L169.274 401.824C172.274 400.574 176.354 403.764 176.034 406.964C173.834 428.824 172.044 450.711 170.664 472.624C183.299 452.34 197.064 432.783 211.894 414.044C212.748 412.806 214.194 412.114 215.694 412.224C216.72 411.452 218.099 411.343 219.234 411.944C219.797 412.311 220.338 412.712 220.854 413.144C222.934 413.064 224.584 414.774 225.464 416.934C226.841 419.993 227.777 423.232 228.244 426.554C228.283 426.958 228.242 427.366 228.124 427.754C243.844 467.841 259.547 507.937 275.234 548.044C282.773 521.353 293.504 495.784 304.238 470.206L304.238 470.206L304.238 470.206L304.238 470.205L304.238 470.205L304.238 470.205L304.239 470.205L304.239 470.204L304.239 470.204L304.239 470.204L304.239 470.203L304.239 470.203L304.239 470.203L304.239 470.203L304.239 470.202L304.239 470.202L304.24 470.202L304.24 470.202L304.24 470.201L304.24 470.201L304.24 470.201L304.24 470.2L304.24 470.2L304.24 470.2C313.935 447.098 323.633 423.99 330.984 400.044C331.438 398.492 332.575 397.232 334.073 396.622C335.571 396.012 337.265 396.12 338.674 396.914C362.214 411.467 385.731 426.047 409.224 440.654C414.015 408.781 416.321 376.871 418.64 344.786C418.998 339.836 419.356 334.883 419.724 329.924C419.785 328.982 420.134 328.081 420.724 327.344C420.249 325.747 420.504 324.021 421.42 322.629C422.336 321.237 423.819 320.32 425.474 320.124C453.823 317.278 482.437 318.626 510.394 324.124C497.333 299.386 482.036 275.894 464.694 253.944C464.224 253.355 463.715 252.752 463.195 252.136C459.962 248.31 456.278 243.949 458.604 238.824C460.388 234.883 465.275 232.233 469.516 229.934L469.517 229.934C470.86 229.205 472.139 228.512 473.234 227.824C483.974 221.157 494.811 214.654 505.744 208.314C498.456 206.348 491.14 204.505 483.822 202.662C477.817 201.149 471.809 199.636 465.814 198.054C463.154 197.354 462.264 194.474 462.894 192.214C462.931 191.212 463.281 190.247 463.894 189.454C482.084 165.314 500.274 141.164 518.234 116.864C481.627 111.873 444.72 109.408 407.774 109.484C404.464 109.484 401.304 105.964 402.524 102.584C407.964 87.5706 413.411 72.5706 418.864 57.5839C405.806 64.2363 392.232 69.8212 378.274 74.2839C378.009 74.3595 377.738 74.413 377.464 74.4439C374.294 75.9539 369.754 73.7439 370.464 68.7739C372.364 55.1239 373.864 41.3939 374.864 27.6439C358.464 40.9773 342.037 54.3106 325.584 67.6439C322.514 70.1239 318.704 69.1239 317.264 65.4439C310.991 49.3639 304.271 33.4806 297.104 17.7939C294.731 24.2339 292.341 30.6673 289.934 37.0939C289.216 39.0121 288.512 40.9531 287.804 42.9033L287.804 42.9035L287.804 42.904L287.803 42.9049C284.944 50.7855 282.03 58.8156 277.934 66.0939C277.606 66.7819 276.999 67.2964 276.267 67.5067C275.534 67.7171 274.747 67.6032 274.104 67.1939C272.642 67.3134 271.214 66.708 270.284 65.5739C256.828 50.5781 242.159 36.7178 226.424 24.1339L220.844 64.7039C220.607 66.4309 220.454 68.4171 220.292 70.5181C219.493 80.9117 218.477 94.1146 205.974 92.6339C192.804 91.0639 179.234 85.3839 167.154 80.1639C157.18 75.8441 147.54 70.7902 138.314 65.0439C141.809 79.9255 145.925 94.6031 150.045 109.296L150.045 109.297C152.044 116.424 154.044 123.555 155.974 130.714C160.534 131.294 162.214 138.054 157.614 139.674ZM95.0539 264.134C92.0892 266.04 88.5446 267.077 85.0383 268.102C83.3763 268.588 81.7229 269.072 80.1439 269.644C73.9939 271.884 67.8339 274.284 61.8539 276.924C60.9139 277.334 60.1139 276.074 61.0339 275.524C66.1984 272.351 71.5935 269.57 77.1739 267.204C77.9116 266.901 78.6682 266.581 79.4397 266.255L79.4398 266.255C84.2008 264.24 89.5314 261.985 94.5139 262.114C94.997 262.126 95.4142 262.455 95.539 262.922C95.6638 263.389 95.4663 263.882 95.0539 264.134ZM75.9745 162.161C86.7521 162.189 97.1938 162.216 107.904 163.854C108.774 163.984 109.624 162.964 108.824 162.274C102.835 157.073 93.0078 157.564 84.6225 157.983C82.464 158.091 80.4011 158.194 78.5239 158.194C65.4608 158.194 52.4492 158.641 39.4176 159.089C38.3931 159.124 37.3686 159.159 36.3439 159.194C35.7723 159.194 35.3089 159.657 35.3089 160.229C35.3089 160.801 35.7723 161.264 36.3439 161.264C38.2834 161.326 40.2222 161.391 42.1605 161.456L42.1614 161.456C52.6251 161.805 63.0753 162.154 73.5539 162.154C74.2999 162.157 75.0441 162.158 75.7867 162.16L75.8006 162.16L75.8148 162.16L75.8292 162.161L75.844 162.161L75.859 162.161L75.8744 162.161L75.8901 162.161L75.9062 162.161L75.9227 162.161L75.9396 162.161L75.9569 162.161L75.9745 162.161ZM112.904 333.854C111.322 335.759 109.067 337.21 106.905 338.6L106.903 338.601L106.901 338.602L106.9 338.603L106.898 338.604L106.897 338.605L106.895 338.606L106.893 338.607L106.892 338.608L106.89 338.609L106.889 338.61L106.887 338.611L106.886 338.612L106.884 338.613L106.883 338.615L106.881 338.616L106.881 338.616C106.237 339.03 105.601 339.439 104.994 339.854C101.994 341.854 98.9939 343.804 95.9039 345.734C95.1839 346.184 94.3339 345.104 94.9939 344.554C97.9139 342.104 100.834 339.664 103.844 337.314C104.344 336.922 104.847 336.515 105.353 336.103L105.353 336.103L105.354 336.103L105.354 336.102L105.355 336.102L105.355 336.102L105.356 336.101C107.358 334.475 109.428 332.793 111.734 331.844C112.934 331.364 113.534 333.024 112.864 333.834L112.904 333.854ZM92.2176 409.266L92.2178 409.266C96.8846 404.816 101.781 400.147 104.904 394.784L104.894 394.764C105.384 393.924 104.364 392.744 103.494 393.384C99.0655 396.534 95.2571 400.78 91.4928 404.977C89.7234 406.95 87.9637 408.912 86.1539 410.744C84.4428 412.476 82.6485 414.174 80.8459 415.879L80.8457 415.879L80.8455 415.88L80.8453 415.88L80.8448 415.88C76.6852 419.815 72.4815 423.792 69.1539 428.334C68.7439 428.894 69.5339 429.604 70.0939 429.264C75.7678 425.793 80.7418 420.731 85.4707 415.918C86.451 414.921 87.4207 413.934 88.3839 412.974C89.6141 411.748 90.9068 410.516 92.2176 409.266ZM123.504 375.924C122.728 377.073 121.556 377.959 120.415 378.822C119.997 379.139 119.583 379.452 119.194 379.774C118.675 380.203 118.158 380.649 117.638 381.097L117.638 381.097L117.637 381.098L117.637 381.098C116.703 381.903 115.76 382.715 114.784 383.454C114.154 383.924 113.464 383.034 113.784 382.454C114.788 380.696 116.045 379.096 117.514 377.704C118.824 376.404 120.464 374.824 122.294 374.344C122.705 374.256 123.13 374.412 123.386 374.745C123.643 375.078 123.685 375.529 123.494 375.904L123.504 375.924ZM118.874 326.044C119.824 325.234 120.774 324.484 121.774 323.704C121.928 323.574 122.102 323.439 122.284 323.299L122.284 323.299L122.285 323.298C123.022 322.73 123.882 322.066 124.034 321.184C124.104 320.909 124.045 320.618 123.874 320.392C123.702 320.166 123.437 320.03 123.154 320.024C122.149 320.066 121.488 320.76 120.759 321.525C120.618 321.673 120.473 321.824 120.324 321.974C119.916 322.382 119.501 322.811 119.091 323.235C118.575 323.767 118.067 324.292 117.594 324.754C116.744 325.584 117.924 326.854 118.874 326.044ZM129.304 163.204C126.675 164.413 123.493 163.972 120.634 163.575L120.632 163.574C120.229 163.518 119.832 163.463 119.444 163.414C118.896 163.361 118.477 162.9 118.477 162.349C118.477 161.798 118.896 161.337 119.444 161.284C119.849 161.234 120.264 161.177 120.687 161.119L120.687 161.119C123.541 160.729 126.726 160.293 129.304 161.504C129.595 161.691 129.768 162.016 129.762 162.362C129.756 162.708 129.571 163.027 129.274 163.204H129.304ZM177.624 444.504C177.484 445.274 178.634 445.924 179.004 445.084H178.974C182.394 437.244 186.134 426.364 185.014 417.744C184.932 417.322 184.59 416.999 184.164 416.942C183.738 416.886 183.323 417.108 183.134 417.494C182.04 420.275 181.605 423.318 181.166 426.383L181.166 426.383L181.166 426.384C180.947 427.915 180.727 429.452 180.424 430.964C180.057 432.796 179.665 434.615 179.274 436.431L179.274 436.432L179.274 436.432L179.274 436.433L179.274 436.434L179.273 436.435L179.273 436.435L179.273 436.436L179.273 436.437L179.273 436.437L179.273 436.438L179.273 436.439L179.272 436.44L179.272 436.44L179.272 436.441L179.272 436.442L179.272 436.443C178.695 439.124 178.118 441.8 177.624 444.504ZM253.144 462.784C253.117 463.347 252.692 463.811 252.133 463.887C251.574 463.963 251.04 463.63 250.864 463.094C249.774 459.123 248.939 455.078 248.102 451.026C247.266 446.975 246.429 442.918 245.334 438.924C245.06 437.92 244.779 436.914 244.498 435.905C242.725 429.547 240.923 423.088 240.604 416.494C240.554 415.494 241.914 415.494 242.194 416.274C244.374 422.758 246.221 429.446 248.042 436.046C248.426 437.437 248.809 438.824 249.194 440.204C249.38 440.861 249.571 441.524 249.763 442.193L249.764 442.197C251.666 448.809 253.713 455.928 253.114 462.784H253.144ZM260.204 489.894C260.514 490.894 262.124 491.044 262.324 489.894H262.294C263.194 484.804 260.834 477.964 257.104 474.424C256.444 473.804 255.184 474.414 255.504 475.354C255.89 476.503 256.37 477.612 256.85 478.722L256.85 478.723L256.851 478.723L256.851 478.723L256.851 478.724L256.851 478.724L256.851 478.725L256.851 478.725L256.851 478.725L256.852 478.726L256.852 478.726L256.852 478.726L256.852 478.727L256.852 478.727L256.852 478.727C257.379 479.944 257.907 481.164 258.314 482.444C258.69 483.626 258.955 484.839 259.219 486.05L259.219 486.05C259.502 487.347 259.785 488.642 260.204 489.894ZM376.324 409.754C373.186 408.225 370.322 406.116 367.476 404.02C366.114 403.017 364.756 402.016 363.374 401.084C359.104 398.204 354.674 395.294 350.184 392.674C349.184 392.114 350.064 390.804 351.024 391.224C360.154 395.224 371.174 400.224 377.464 408.284C377.787 408.62 377.815 409.143 377.529 409.512C377.243 409.88 376.73 409.984 376.324 409.754ZM388.066 419.838C389.153 420.678 390.405 421.646 391.774 421.584C392.013 421.583 392.238 421.471 392.383 421.281C392.527 421.091 392.576 420.845 392.514 420.614C392.04 419.33 390.829 418.602 389.687 417.915C389.575 417.848 389.464 417.781 389.354 417.714C388.29 417.071 387.192 416.524 386.093 415.977L386.091 415.975L386.089 415.974C385.6 415.73 385.11 415.486 384.624 415.234C383.974 414.894 383.184 415.774 383.804 416.284C384.251 416.658 384.689 417.041 385.126 417.424C385.949 418.144 386.769 418.861 387.644 419.514C387.781 419.617 387.921 419.726 388.064 419.836L388.066 419.838ZM472.173 217.111L472.173 217.111C474.764 215.671 477.388 214.213 480.214 213.364C480.586 213.28 480.969 213.448 481.16 213.778C481.35 214.108 481.303 214.524 481.044 214.804C478.404 217.554 474.854 219.334 471.464 221.024L471.177 221.167C467.871 222.816 464.358 224.569 460.714 225.074C460.134 225.164 459.434 224.414 460.044 223.924C462.189 222.265 464.643 221.031 467.099 219.796C468.033 219.326 468.967 218.857 469.884 218.364C470.647 217.959 471.408 217.536 472.173 217.111ZM492.504 141.744C491.082 143.842 489.78 146.019 488.604 148.264V148.294C488.525 148.539 488.609 148.807 488.813 148.964C489.017 149.121 489.297 149.133 489.514 148.994C491.332 147.304 492.943 145.404 494.314 143.334C494.485 143.091 494.661 142.846 494.839 142.599C496.102 140.842 497.449 138.966 497.844 136.844C497.926 136.497 497.772 136.136 497.463 135.957C497.155 135.777 496.765 135.821 496.504 136.064C495.183 137.187 494.266 138.76 493.367 140.301C493.081 140.79 492.798 141.276 492.504 141.744ZM454.244 190.124C458.714 183.124 463.454 176.454 468.544 169.924C469.28 168.981 470.017 168.02 470.76 167.05L470.761 167.049L470.761 167.049C475.008 161.51 479.454 155.71 484.994 151.634C485.684 151.124 486.484 152.094 486.114 152.754C483.406 157.573 479.636 161.852 475.919 166.071C474.407 167.788 472.904 169.495 471.484 171.224C466.084 177.784 460.764 184.424 455.484 191.044C454.894 191.754 453.774 190.864 454.244 190.154V190.124ZM474.774 309.364C474.774 308.812 474.326 308.364 473.774 308.364C464 305.793 451.724 307.352 441.744 308.62L441.634 308.634C441.345 308.672 441.13 308.918 441.13 309.209C441.13 309.5 441.345 309.746 441.634 309.784C443.275 309.923 444.964 310.085 446.686 310.25L446.691 310.25C455.609 311.104 465.394 312.04 473.774 310.364C474.326 310.364 474.774 309.916 474.774 309.364ZM398.512 85.8423L398.584 85.6942C400.429 81.8937 402.422 77.7916 405.454 74.8439C406.244 74.0739 407.824 74.8439 407.454 75.9839C406.541 78.5478 405.138 80.9194 403.741 83.2815C403.072 84.4112 402.405 85.5387 401.794 86.6839C401.166 87.8577 400.575 89.0674 399.982 90.2811L399.982 90.2815C398.62 93.0693 397.247 95.8786 395.394 98.3239C395.084 98.7339 394.214 98.6839 394.284 98.0239C394.654 93.9339 396.434 90.1039 398.224 86.4339L398.38 86.1125L398.512 85.8423ZM366.114 44.3339C366.154 43.2439 364.404 42.6539 363.934 43.7439C360.154 52.5639 359.044 65.1139 360.624 74.4739C360.735 74.8218 361.059 75.0578 361.424 75.0578C361.789 75.0578 362.113 74.8218 362.224 74.4739C362.839 71.3856 363.122 68.2623 363.404 65.1359V65.1354L363.404 65.1349L363.405 65.1343L363.405 65.1328C363.549 63.5326 363.694 61.9316 363.884 60.3339C364.127 58.2812 364.489 56.2284 364.852 54.1716L364.852 54.1709L364.852 54.1703L364.852 54.1697L364.852 54.1691L364.852 54.1685L364.852 54.1678C365.427 50.9054 366.004 47.6329 366.114 44.3339ZM301.304 47.3639C304.964 53.4339 307.514 61.7939 308.444 68.7939C308.544 69.5539 307.394 69.7939 307.064 69.1739C305.463 66.0416 304.103 62.7922 302.994 59.4539C302.738 58.7712 302.474 58.0877 302.209 57.4026C301.046 54.3948 299.87 51.3541 299.324 48.1939C299.207 47.678 299.478 47.1527 299.966 46.9481C300.454 46.7436 301.018 46.9189 301.304 47.3639ZM298.354 38.6939C298.574 36.3739 298.634 32.7539 296.574 31.1839C296.104 30.8239 295.564 31.3639 295.514 31.7939C295.544 32.8864 295.75 33.9669 296.124 34.9939C296.389 36.2084 296.49 37.4527 296.424 38.6939C296.354 39.9539 298.224 39.9039 298.354 38.6939ZM239.394 48.0339C243.473 49.2902 246.937 53.2046 249.895 56.5469L249.896 56.5482C250.375 57.0897 250.841 57.6162 251.294 58.1139C255.049 62.3568 258.568 66.8035 261.834 71.4339C262.414 72.2239 261.084 73.2439 260.464 72.4839C256.929 68.1928 253.146 64.1124 249.134 60.2639C248.1 59.2508 246.911 58.2477 245.695 57.2219C242.879 54.8458 239.92 52.3483 238.404 49.3239C238.236 49.015 238.266 48.6363 238.48 48.3575C238.694 48.0786 239.052 47.9519 239.394 48.0339ZM234.314 40.5539L234.194 40.6439C233.939 40.9096 233.838 41.2864 233.924 41.6439L234.014 42.0339C234.161 42.4224 234.533 42.6793 234.949 42.6793C235.364 42.6793 235.737 42.4224 235.884 42.0339L235.974 41.6439C236.06 41.2864 235.958 40.9096 235.704 40.6439L235.584 40.5539C235.225 40.2247 234.673 40.2247 234.314 40.5539ZM214.894 110.644C231.024 100.294 248.684 94.8339 267.714 93.0439C301.974 89.8239 339.504 89.4539 371.164 104.694C398.164 117.694 419.104 141.814 430.654 169.234C444.554 202.234 444.554 239.974 434.554 274.054C429.974 289.704 423.554 305.424 412.394 317.604C401.234 329.784 386.494 337.374 371.954 344.384C355.584 352.264 338.954 360.194 321.304 364.794C304.482 369.116 286.981 370.125 269.774 367.764C235.994 363.254 204.064 347.704 177.274 326.994C152.194 307.614 134.924 281.994 132.274 249.904C129.934 221.714 138.764 190.534 157.034 168.614C162.338 161.022 168.102 153.761 174.294 146.874C186.324 133.364 199.564 120.514 214.894 110.684V110.644ZM167.969 87.8625C163.932 85.7285 159.889 83.5912 156.074 81.0439C155.718 80.8379 155.264 80.928 155.013 81.2546C154.762 81.5812 154.793 82.043 155.084 82.3339C161.474 87.9539 169.434 93.9039 177.864 95.8539C178.369 95.9679 178.883 95.7038 179.085 95.2268C179.287 94.7498 179.118 94.1968 178.684 93.9139C175.231 91.7017 171.602 89.7834 167.969 87.8625Z" fill="#FBB040"/>
<path fill-rule="evenodd" clip-rule="evenodd" d="M132.233 249.904C129.893 221.714 138.723 190.534 156.993 168.614C162.294 161.022 168.054 153.762 174.243 146.874C186.313 133.324 199.553 120.514 214.883 110.684C231.013 100.334 248.703 94.8739 267.703 93.0839C301.963 89.8639 339.493 89.4939 371.153 104.734C398.183 117.734 419.093 141.854 430.643 169.274C444.543 202.284 444.543 240.014 434.543 274.094C429.963 289.744 423.423 305.564 412.383 317.644C401.343 329.724 386.483 337.424 371.943 344.424C355.573 352.304 338.943 360.234 321.293 364.834C304.459 369.147 286.947 370.142 269.733 367.764C235.953 363.254 204.023 347.704 177.233 326.994C152.163 307.614 134.893 282.014 132.233 249.904ZM297.356 103.304C280.463 103.424 262.864 103.549 246.503 108.114C217.663 116.154 194.533 138.134 175.333 160.184C172.493 163.424 169.683 166.874 166.963 170.424C166.853 170.814 166.684 171.185 166.463 171.524C149.573 197.684 139.033 227.924 145.343 259.324C152.003 292.534 177.643 315.044 205.593 331.684C232.083 347.434 262.613 358.054 293.763 356.684C309.793 355.974 325.163 351.594 339.963 345.594C355.179 339.598 369.935 332.496 384.113 324.344C397.183 316.654 407.423 306.894 414.323 293.284C421.623 278.894 425.983 262.464 428.163 246.524C432.393 215.674 427.333 183.504 410.843 156.834C395.783 132.484 372.473 114.634 344.593 107.744C329.163 103.934 313.233 103.194 297.413 103.304L297.356 103.304Z" fill="#231F20"/>
<path fill-rule="evenodd" clip-rule="evenodd" d="M234.052 198.371C228.673 199.505 223.097 197.685 219.425 193.594C218.941 193.067 218.496 192.506 218.095 191.914C215.482 188.529 214.7 184.076 216.005 180.004C216.029 179.893 216.051 179.786 216.072 179.68C216.12 179.443 216.165 179.219 216.235 179.004C216.665 177.663 217.321 176.405 218.175 175.284C220.327 171.929 223.741 169.582 227.645 168.774C238.505 166.654 249.065 177.284 245.505 188.094C243.797 193.319 239.431 197.237 234.052 198.371ZM235.165 184.674C235.875 181.654 232.145 178.804 229.315 179.994C227.115 180.924 226.545 183.814 226.635 186.244L226.695 186.324C229.235 189.044 234.165 188.814 235.165 184.674Z" fill="#231F20"/>
<path fill-rule="evenodd" clip-rule="evenodd" d="M343.054 176.854C335.724 178.794 322.704 176.554 320.054 168.254C319.121 164.669 319.519 160.868 321.174 157.554C321.016 156.563 321.272 155.55 321.884 154.754C328.044 146.604 339.754 148.414 346.754 154.854C354.134 161.654 353.904 173.994 343.054 176.854ZM337.104 161.684C334.784 160.556 332.135 160.304 329.644 160.974C329.264 162.514 329.274 163.984 330.014 164.844C331.524 166.604 337.234 166.604 339.234 166.304C339.475 166.269 339.695 166.243 339.892 166.219C341.117 166.069 341.465 166.027 340.604 164.864C339.706 163.541 338.506 162.451 337.104 161.684Z" fill="#231F20"/>
<path d="M286.834 206.004C294.994 206.004 301.004 202.004 302.664 193.784C304.104 186.714 305.274 171.784 299.264 166.784C298.511 166.06 297.472 165.717 296.436 165.849C295.401 165.981 294.481 166.575 293.934 167.464C290.994 172.254 293.004 178.264 293.044 183.624C293.183 186.343 293.056 189.069 292.664 191.764C291.874 195.954 288.604 196.374 284.774 196.154C278.104 195.784 273.954 192.154 271.524 186.154C269.854 182.024 269.524 177.334 266.674 173.774C266.266 173.371 265.695 173.179 265.126 173.253C264.557 173.327 264.055 173.66 263.764 174.154C260.674 180.304 263.004 190.104 266.434 195.714C270.774 202.824 278.774 205.974 286.834 206.004Z" fill="#231F20"/>
<path d="M192.084 219.584L192.224 219.654L193.304 220.104C194.051 220.3 194.831 220.337 195.594 220.214C196.908 220.014 198.126 219.405 199.074 218.474C200.182 217.33 200.812 215.806 200.834 214.214C200.809 212.342 199.924 210.585 198.434 209.451C196.944 208.316 195.016 207.93 193.204 208.404C189.584 209.404 187.474 213.954 189.604 217.254C190.22 218.228 191.074 219.03 192.084 219.584Z" fill="#231F20"/>
<path d="M374.855 188.544C376.351 188.555 377.808 188.066 378.995 187.154C380.187 186.224 381.047 184.933 381.445 183.474C381.864 182.157 381.778 180.731 381.205 179.474C381.077 179.016 380.893 178.576 380.655 178.164C380.114 177.161 379.29 176.34 378.285 175.804C377.443 175.317 376.488 175.058 375.515 175.054C374.782 175.021 374.054 175.183 373.405 175.524C372.119 176.063 371.093 177.082 370.545 178.364L370.475 178.514L370.535 178.384L370.465 178.544L370.215 178.904C369.962 179.303 369.755 179.729 369.595 180.174C368.741 181.979 368.871 184.095 369.94 185.781C371.009 187.467 372.868 188.487 374.865 188.484L374.855 188.544Z" fill="#231F20"/>
<path d="M370.773 177.904L370.543 178.444C370.613 178.244 370.673 178.074 370.773 177.904Z" fill="#231F20"/>
<path fill-rule="evenodd" clip-rule="evenodd" d="M147.214 131.784C137.914 107.384 131.964 81.324 126.634 55.904C125.864 52.184 129.934 48.054 133.574 50.564C153.796 64.5208 176.311 74.8203 200.094 80.994C200.51 81.1031 201.043 81.275 201.639 81.4675C203.992 82.2275 207.335 83.3068 208.404 82.094C209.364 81.0049 209.492 77.7803 209.591 75.3037C209.63 74.3238 209.664 73.461 209.744 72.894C210.637 66.434 211.524 59.974 212.404 53.514C214.244 40.1806 216.074 26.8473 217.894 13.514C218.304 10.514 222.874 8.71396 225.244 10.514C242.887 23.8836 259.372 38.716 274.524 54.854C276.011 49.4791 277.851 44.154 279.667 38.8992C280.294 37.0854 280.918 35.2801 281.524 33.484C284.884 23.494 288.254 13.524 291.774 3.59396C293.074 -0.0360434 298.774 -1.71604 300.774 2.42396C309.167 20.0373 316.967 37.8973 324.174 56.004C341.714 41.764 359.307 27.5806 376.954 13.454C379.934 11.074 385.534 12.254 385.244 16.894C384.264 32.404 382.994 47.854 381.164 63.284C382.923 62.4886 384.683 61.6956 386.443 60.9028C399.683 54.9372 412.899 48.9825 425.734 42.124C429.504 40.124 435.144 43.534 433.504 48.124L415.504 98.584C453.676 98.6474 491.787 101.633 529.504 107.514C532.764 108.024 534.764 112.884 532.764 115.514C522.534 129.097 512.346 142.712 502.158 156.328C493.572 167.803 484.985 179.278 476.374 190.734C491.424 193.356 506.29 196.936 520.884 201.454C525.214 202.754 526.264 208.944 522.164 211.254C509.184 218.547 496.36 226.064 483.694 233.804C480.607 235.677 477.524 237.571 474.444 239.484C474.029 239.741 473.52 240.136 472.972 240.561C471.751 241.51 470.335 242.609 469.334 242.664L469.184 242.824C470.757 243.663 472.514 246.329 473.985 248.56C474.599 249.492 475.163 250.348 475.644 250.964C477.55 253.417 479.437 255.884 481.304 258.364C497.971 280.518 512.573 304.154 524.924 328.974C525.938 330.848 525.757 333.144 524.462 334.836C523.167 336.529 520.998 337.303 518.924 336.814C489.348 329.641 458.79 327.398 428.484 330.174C429.824 370.384 424.854 411.234 418.484 450.874C417.924 454.304 413.274 455.774 410.564 454.094C386.67 439.214 362.804 424.304 338.964 409.364C331.998 430.315 323.478 450.718 314.961 471.114C301.933 502.312 288.911 533.493 281.474 566.594C280.214 572.174 273.014 571.034 271.274 566.594C252.847 519.734 234.437 472.864 216.044 425.984C198.705 448.467 182.912 472.102 168.774 496.724C166.194 501.204 158.494 499.424 158.774 494.024C160.107 467.697 162.034 441.417 164.554 415.184L107.834 438.444C107.304 438.662 106.774 438.881 106.245 439.099C86.4014 447.286 66.4846 455.503 45.1637 458.844C40.7137 459.554 36.7637 455.404 39.1637 450.994C56.5059 419.23 77.3418 389.502 101.284 362.364C89.7816 364.39 78.0887 365.122 66.4237 364.544C64.2992 364.481 62.4094 363.177 61.5959 361.213C60.7823 359.249 61.1964 356.991 62.6537 355.444L102.714 312.184C76.4404 304.444 50.1471 296.761 23.8337 289.134C20.2037 288.084 18.4037 282.974 21.4937 280.264C40.5151 263.516 62.6119 250.627 86.5537 242.314C52.3114 215.96 23.2074 183.535 0.693743 146.654C-1.30626 143.354 1.26374 138.384 5.26374 138.654C52.7737 141.944 100.214 139.254 147.214 131.784ZM205.984 92.544C192.814 90.974 179.244 85.294 167.164 80.074C157.184 75.7319 147.541 70.6546 138.314 64.884C141.809 79.7657 145.925 94.4434 150.045 109.137C152.044 116.264 154.043 123.395 155.974 130.554C160.524 131.224 162.204 137.984 157.604 139.604C156.674 141.874 153.504 142.494 151.454 140.874C106.58 149.359 60.8404 152.351 15.2437 149.784C37.9633 184.737 66.9668 215.175 100.784 239.554C104.424 242.174 104.234 247.994 99.5037 249.364C76.574 255.989 55.1247 266.943 36.3137 281.634C62.1404 289.194 87.9737 296.744 113.814 304.284C115.61 304.815 116.999 306.245 117.477 308.056C117.955 309.866 117.454 311.795 116.154 313.144L78.4837 353.924C90.9649 353.546 103.347 351.584 115.334 348.084C120.604 346.544 124.114 353.234 120.544 357.014C95.0222 384.039 72.7384 413.948 54.1437 446.134C70.9969 442.142 87.082 435.522 103.129 428.918C103.764 428.656 104.399 428.395 105.034 428.134L169.284 401.754C172.324 400.504 176.364 403.694 176.044 406.894C173.857 428.754 172.067 450.641 170.674 472.554C183.309 452.27 197.074 432.713 211.904 413.974C212.758 412.736 214.204 412.044 215.704 412.154C216.73 411.382 218.109 411.273 219.244 411.874C219.807 412.241 220.348 412.642 220.864 413.074C222.944 412.994 224.594 414.704 225.474 416.864C226.851 419.923 227.787 423.162 228.254 426.484C228.292 426.888 228.252 427.296 228.134 427.684C243.854 467.777 259.557 507.874 275.244 547.974C282.779 521.311 293.5 495.761 304.228 470.2C313.93 447.079 323.637 423.948 330.994 399.974C331.447 398.422 332.585 397.161 334.083 396.552C335.581 395.942 337.275 396.05 338.684 396.844C362.224 411.377 385.74 425.957 409.234 440.584C414.025 408.534 416.35 376.446 418.688 344.181C419.033 339.409 419.379 334.634 419.734 329.854C419.794 328.912 420.144 328.011 420.734 327.274C420.259 325.677 420.514 323.951 421.43 322.559C422.345 321.167 423.829 320.25 425.484 320.054C453.833 317.208 482.447 318.556 510.404 324.054C497.343 299.316 482.046 275.824 464.704 253.874C464.234 253.285 463.725 252.682 463.205 252.066C459.972 248.24 456.288 243.879 458.614 238.754C460.414 234.748 465.37 232.08 469.635 229.783C470.939 229.081 472.179 228.414 473.244 227.754C483.984 221.101 494.82 214.597 505.754 208.244C498.466 206.278 491.15 204.435 483.833 202.592C477.827 201.079 471.819 199.566 465.824 197.984C463.164 197.284 462.274 194.404 462.904 192.144C462.941 191.142 463.29 190.177 463.904 189.384C482.094 165.244 500.244 141.094 518.244 116.794C481.624 111.798 444.703 109.329 407.744 109.404C404.434 109.414 401.274 105.884 402.494 102.504C407.934 87.4906 413.38 72.474 418.834 57.454C405.781 64.1229 392.21 69.7245 378.254 74.204C377.989 74.2795 377.718 74.333 377.444 74.364C374.294 75.874 369.754 73.694 370.444 68.694C372.344 55.044 373.844 41.314 374.844 27.564C358.424 40.8973 341.997 54.2306 325.564 67.564C322.494 70.044 318.684 69.044 317.244 65.364C310.964 49.3173 304.254 33.4473 297.114 17.754C294.747 24.194 292.357 30.6273 289.944 37.054C289.18 39.0771 288.433 41.1269 287.683 43.1861C284.846 50.9694 281.961 58.8869 277.944 66.004C277.616 66.692 277.009 67.2064 276.277 67.4167C275.544 67.6271 274.757 67.5132 274.114 67.104C272.652 67.2235 271.224 66.618 270.294 65.484C256.838 50.4881 242.168 36.6278 226.434 24.044L220.854 64.614C220.617 66.335 220.464 68.3137 220.302 70.4068C219.495 80.8036 218.47 94.0257 205.984 92.544Z" fill="#231F20"/>
<path d="M78.5236 158.194C64.4336 158.194 50.4036 158.714 36.3436 159.194C35.772 159.194 35.3086 159.657 35.3086 160.229C35.3086 160.801 35.772 161.264 36.3436 161.264C48.7536 161.664 61.1336 162.104 73.5536 162.154C85.1936 162.154 96.3936 162.094 107.904 163.854C108.734 163.984 109.624 162.964 108.824 162.274C101.294 155.734 87.6936 158.174 78.5236 158.194Z" fill="#231F20"/>
<path d="M129.274 161.504C126.274 160.114 122.554 160.894 119.414 161.284C118.866 161.337 118.447 161.798 118.447 162.349C118.447 162.9 118.866 163.361 119.414 163.414C122.554 163.814 126.314 164.584 129.274 163.204C129.568 163.022 129.747 162.7 129.747 162.354C129.747 162.008 129.568 161.686 129.274 161.504Z" fill="#231F20"/>
<path d="M94.5138 262.114C88.7238 261.964 82.5138 265.034 77.1738 267.204C71.5934 269.57 66.1982 272.351 61.0338 275.524C60.1138 276.074 60.9138 277.334 61.8538 276.924C67.8538 274.284 73.9938 271.924 80.1438 269.644C85.0238 267.864 90.6838 266.944 95.0538 264.134C95.4662 263.882 95.6637 263.389 95.5389 262.922C95.4141 262.455 94.9968 262.126 94.5138 262.114Z" fill="#231F20"/>
<path d="M111.694 331.824C108.774 333.014 106.284 335.354 103.804 337.294C100.804 339.644 97.8743 342.084 94.9543 344.534C94.2943 345.084 95.1443 346.164 95.8643 345.714C98.8643 343.784 101.964 341.864 104.954 339.834C107.604 338.024 110.804 336.314 112.864 333.834C113.534 333.024 112.934 331.364 111.694 331.824Z" fill="#231F20"/>
<path d="M123.125 320.024C121.925 320.024 121.125 321.164 120.295 321.974C119.465 322.784 118.495 323.854 117.565 324.754C116.635 325.654 117.965 326.754 118.845 326.044C119.725 325.334 120.785 324.484 121.745 323.704C122.555 323.044 123.845 322.284 124.005 321.184C124.075 320.909 124.016 320.617 123.844 320.392C123.673 320.166 123.408 320.03 123.125 320.024V320.024Z" fill="#231F20"/>
<path d="M103.495 393.364C96.9846 397.994 91.7646 405.044 86.1546 410.724C80.5446 416.404 73.9146 421.804 69.1546 428.314C68.7446 428.874 69.5346 429.584 70.0946 429.244C76.9446 425.054 82.7146 418.584 88.3846 412.954C94.0546 407.324 100.905 401.634 104.905 394.764C105.385 393.924 104.365 392.744 103.495 393.364Z" fill="#231F20"/>
<path d="M122.274 374.364C120.444 374.844 118.804 376.424 117.494 377.724C116.025 379.116 114.768 380.716 113.764 382.474C113.454 383.064 114.144 383.954 114.764 383.474C116.284 382.324 117.704 381.014 119.174 379.794C120.644 378.574 122.424 377.514 123.484 375.944C123.689 375.566 123.653 375.103 123.391 374.762C123.13 374.421 122.692 374.265 122.274 374.364Z" fill="#231F20"/>
<path d="M183.104 417.494C181.464 421.664 181.284 426.554 180.394 430.964C179.504 435.374 178.394 439.964 177.594 444.504C177.454 445.274 178.594 445.924 178.974 445.084C182.394 437.244 186.134 426.384 184.974 417.744C184.887 417.329 184.548 417.013 184.127 416.957C183.707 416.901 183.297 417.116 183.104 417.494Z" fill="#231F20"/>
<path d="M242.164 416.274C241.884 415.454 240.524 415.534 240.574 416.494C240.944 424.134 243.294 431.594 245.304 438.924C247.494 446.924 248.654 455.154 250.834 463.094C251.01 463.63 251.544 463.963 252.103 463.887C252.662 463.811 253.087 463.347 253.114 462.784C253.744 455.234 251.224 447.404 249.204 440.204C246.954 432.234 244.774 424.124 242.164 416.274Z" fill="#231F20"/>
<path d="M255.473 475.364C256.293 477.774 257.473 480.024 258.283 482.454C259.093 484.884 259.363 487.454 260.173 489.904C260.483 490.904 262.093 491.054 262.293 489.904C263.193 484.814 260.833 477.974 257.073 474.434C256.413 473.804 255.153 474.414 255.473 475.364Z" fill="#231F20"/>
<path d="M351.024 391.224C350.024 390.804 349.224 392.114 350.184 392.674C354.674 395.294 359.064 398.164 363.374 401.084C367.684 404.004 371.684 407.494 376.324 409.754C376.73 409.984 377.243 409.88 377.529 409.512C377.815 409.143 377.788 408.62 377.464 408.284C371.174 400.224 360.154 395.214 351.024 391.224Z" fill="#231F20"/>
<path d="M389.353 417.714C387.813 416.784 386.203 416.054 384.623 415.234C383.973 414.894 383.183 415.774 383.803 416.284C385.093 417.364 386.303 418.504 387.643 419.514C388.823 420.404 390.223 421.654 391.773 421.584C392.019 421.586 392.251 421.47 392.397 421.272C392.543 421.074 392.587 420.819 392.513 420.584C391.993 419.204 390.583 418.464 389.353 417.714Z" fill="#231F20"/>
<path d="M441.674 309.744C451.794 310.604 463.804 312.294 473.814 310.324C474.366 310.324 474.814 309.876 474.814 309.324C474.814 308.772 474.366 308.324 473.814 308.324C463.964 305.794 451.634 307.384 441.674 308.604C441.4 308.656 441.201 308.895 441.201 309.174C441.201 309.453 441.4 309.692 441.674 309.744Z" fill="#231F20"/>
<path d="M460.714 225.144C464.494 224.624 468.084 222.774 471.464 221.094C474.844 219.414 478.404 217.624 481.044 214.874C481.304 214.594 481.351 214.178 481.16 213.848C480.97 213.518 480.586 213.35 480.214 213.434C476.554 214.494 473.214 216.614 469.884 218.434C466.554 220.254 463.004 221.674 460.044 224.034C459.434 224.484 460.134 225.234 460.714 225.144Z" fill="#231F20"/>
<path d="M455.434 191.074C460.764 184.454 466.084 177.814 471.434 171.254C476.344 165.254 482.254 159.564 486.064 152.784C486.434 152.124 485.634 151.154 484.944 151.664C478.434 156.454 473.434 163.664 468.494 169.954C463.404 176.484 458.664 183.184 454.194 190.154C453.774 190.864 454.894 191.754 455.434 191.074Z" fill="#231F20"/>
<path d="M489.553 149.024C491.371 147.334 492.982 145.434 494.353 143.364C495.743 141.364 497.433 139.294 497.883 136.874C497.965 136.527 497.811 136.166 497.502 135.987C497.194 135.807 496.804 135.851 496.543 136.094C494.763 137.574 493.723 139.834 492.543 141.774C491.121 143.872 489.819 146.049 488.643 148.294C488.544 148.543 488.619 148.828 488.828 148.996C489.037 149.163 489.331 149.175 489.553 149.024Z" fill="#231F20"/>
<path d="M395.354 98.3639C398.014 94.8539 399.684 90.5939 401.754 86.7239C403.644 83.1839 406.064 79.8139 407.414 76.0239C407.824 74.8839 406.244 74.1139 405.414 74.8839C402.184 78.0239 400.134 82.4739 398.184 86.4739C396.394 90.1439 394.614 93.9739 394.184 98.0639C394.174 98.6839 395.044 98.7339 395.354 98.3639Z" fill="#231F20"/>
<path d="M362.224 74.514C363.154 69.844 363.324 65.094 363.884 60.374C364.514 55.024 365.934 49.714 366.114 44.374C366.114 43.284 364.404 42.694 363.934 43.784C360.154 52.604 359.044 65.154 360.624 74.554C360.744 74.8993 361.073 75.1276 361.439 75.1184C361.804 75.1093 362.122 74.8649 362.224 74.514Z" fill="#231F20"/>
<path d="M302.994 59.434C304.102 62.7722 305.463 66.0216 307.064 69.154C307.394 69.754 308.544 69.534 308.444 68.774C307.514 61.774 304.964 53.414 301.304 47.344C301.034 46.8609 300.445 46.6565 299.934 46.8686C299.423 47.0806 299.152 47.6419 299.304 48.174C299.994 52.054 301.614 55.754 302.994 59.434Z" fill="#231F20"/>
<path d="M296.424 38.694C296.364 39.954 298.224 39.904 298.354 38.694C298.594 36.374 298.634 32.754 296.574 31.184C296.104 30.824 295.574 31.334 295.514 31.794C295.544 32.8865 295.75 33.9669 296.124 34.994C296.388 36.2084 296.489 37.4528 296.424 38.694Z" fill="#231F20"/>
<path d="M249.135 60.264C253.147 64.1124 256.93 68.1928 260.465 72.484C261.085 73.244 262.415 72.224 261.835 71.434C258.569 66.8035 255.05 62.3568 251.295 58.114C248.045 54.544 244.135 49.494 239.395 48.034C239.051 47.9467 238.689 48.0713 238.472 48.3512C238.255 48.6312 238.224 49.0133 238.395 49.324C240.575 53.654 245.705 56.904 249.135 60.264Z" fill="#231F20"/>
<path d="M234.015 42.074C234.162 42.4624 234.534 42.7193 234.95 42.7193C235.365 42.7193 235.737 42.4624 235.885 42.074L235.975 41.684C236.061 41.3264 235.959 40.9496 235.705 40.684L235.585 40.594C235.225 40.2647 234.674 40.2647 234.315 40.594L234.195 40.684C233.94 40.9496 233.838 41.3264 233.925 41.684L234.015 42.074Z" fill="#231F20"/>
<path d="M178.683 93.914C171.393 89.244 163.323 85.914 156.073 81.044C155.716 80.8192 155.247 80.902 154.988 81.2355C154.73 81.569 154.767 82.0442 155.073 82.334C161.463 87.954 169.423 93.904 177.853 95.854C178.361 95.9765 178.883 95.7148 179.088 95.2347C179.294 94.7547 179.122 94.1965 178.683 93.914Z" fill="#231F20"/>
<path d="M152.893 238.364C152.166 225.761 153.923 213.139 158.063 201.214C158.463 199.994 156.643 199.574 156.173 200.694C150.659 213.837 148.557 228.161 150.063 242.334C151.223 252.584 154.453 264.274 163.273 270.534C163.823 270.924 164.513 270.164 164.183 269.624C157.963 259.644 153.773 250.204 152.893 238.364Z" fill="#231F20"/>
<path d="M356.653 328.834C366.315 324.313 375.127 318.163 382.703 310.654C389.483 303.874 397.213 295.184 399.543 285.654C399.723 284.914 398.723 284.194 398.163 284.854C391.813 292.404 387.423 301.214 380.563 308.484C373.388 316.083 365.112 322.562 356.013 327.704C355.293 328.144 355.923 329.184 356.653 328.834Z" fill="#231F20"/>
<path d="M408.893 264.364C413.754 248.955 415.584 232.749 414.283 216.644C414.283 216.202 413.925 215.844 413.483 215.844C413.041 215.844 412.683 216.202 412.683 216.644C412.643 232.589 410.998 248.489 407.773 264.104C407.701 264.413 407.894 264.722 408.203 264.794C408.512 264.866 408.821 264.673 408.893 264.364Z" fill="#231F20"/>
</svg>
