<svg width="534" height="571" viewBox="0 0 534 571" fill="none" xmlns="http://www.w3.org/2000/svg">
<path fill-rule="evenodd" clip-rule="evenodd" d="M166.593 171.975C149.703 198.135 139.163 228.375 145.473 259.775C152.133 292.985 177.773 315.495 205.723 332.135C232.213 347.915 262.723 358.535 293.893 357.135C309.893 356.425 325.293 352.035 340.093 346.045C355.307 340.066 370.063 332.98 384.243 324.845C397.313 317.155 407.553 307.395 414.453 293.785C421.753 279.395 426.113 262.965 428.293 247.025C432.523 216.175 427.463 184.025 410.973 157.335C395.913 132.985 372.603 115.135 344.723 108.245C329.293 104.435 313.363 103.695 297.543 103.805L297.484 103.806C280.602 103.926 262.994 104.051 246.633 108.615C217.793 116.615 194.633 138.615 175.463 160.615C172.623 163.875 169.813 167.305 167.093 170.855C166.985 171.252 166.816 171.63 166.593 171.975ZM163.403 270.975C154.583 264.715 151.353 253.025 150.193 242.775C148.687 228.602 150.789 214.278 156.303 201.135C156.773 200.015 158.593 200.435 158.193 201.655C154.047 213.593 152.291 226.23 153.023 238.845C153.853 250.725 158.093 260.165 164.313 270.105C164.643 270.605 163.953 271.365 163.403 270.975ZM412.793 217.165C412.757 233.096 411.119 248.983 407.903 264.585C407.831 264.895 408.024 265.204 408.333 265.275C408.642 265.347 408.951 265.155 409.023 264.845C413.872 249.447 415.696 233.256 414.393 217.165C414.393 216.724 414.035 216.365 413.593 216.365C413.151 216.365 412.793 216.724 412.793 217.165ZM369.693 180.715C369.853 180.271 370.061 179.845 370.313 179.445L370.563 179.085L370.633 178.925L370.752 178.645L370.721 178.725C370.699 178.782 370.676 178.839 370.653 178.895C371.201 177.613 372.227 176.595 373.513 176.055C374.162 175.715 374.89 175.552 375.623 175.585C376.596 175.59 377.551 175.848 378.393 176.335C379.398 176.872 380.222 177.693 380.763 178.695C381.001 179.107 381.186 179.547 381.313 180.005C381.886 181.263 381.972 182.688 381.553 184.005C381.155 185.465 380.296 186.756 379.103 187.685C377.917 188.597 376.459 189.087 374.963 189.075C372.967 189.079 371.108 188.058 370.038 186.372C368.969 184.686 368.839 182.57 369.693 180.765V180.715ZM370.863 178.385C370.822 178.472 370.787 178.559 370.752 178.645L370.863 178.385ZM380.673 308.995C373.498 316.595 365.222 323.073 356.123 328.215H356.143C355.423 328.625 356.053 329.665 356.763 329.345C366.425 324.824 375.237 318.675 382.813 311.165C389.593 304.355 397.323 295.665 399.653 286.165C399.833 285.425 398.833 284.705 398.273 285.365C395.449 288.723 393.013 292.33 390.575 295.939L390.575 295.939C387.53 300.447 384.482 304.958 380.673 308.995ZM322.013 155.215C328.173 147.065 339.913 148.875 346.883 155.315C354.263 162.135 354.033 174.475 343.183 177.315C335.833 179.255 322.813 177.015 320.183 168.715C319.252 165.122 319.657 161.313 321.323 157.995C321.17 157.011 321.427 156.006 322.033 155.215H322.013ZM265.265 173.724C264.696 173.799 264.194 174.131 263.903 174.625C260.803 180.775 263.133 190.575 266.573 196.175C270.973 203.295 278.813 206.445 286.973 206.475C295.133 206.505 301.143 202.445 302.803 194.255C304.243 187.255 305.403 172.325 299.403 167.255C298.65 166.532 297.611 166.188 296.575 166.32C295.54 166.452 294.62 167.046 294.073 167.935C292.017 171.343 292.436 175.368 292.849 179.337L292.849 179.337C293.016 180.948 293.183 182.549 293.183 184.095C293.322 186.815 293.195 189.541 292.803 192.235C292.013 196.425 288.743 196.845 284.913 196.625C278.243 196.235 274.093 192.625 271.663 186.625C271.086 185.197 270.664 183.703 270.242 182.211C269.445 179.387 268.651 176.575 266.813 174.245C266.405 173.842 265.834 173.65 265.265 173.724ZM216.143 180.445C216.176 180.314 216.204 180.18 216.232 180.044L216.232 180.044C216.273 179.85 216.314 179.651 216.373 179.445C216.804 178.104 217.46 176.846 218.313 175.725C220.466 172.37 223.879 170.023 227.783 169.215C238.653 167.095 249.203 177.725 245.643 188.535C243.935 193.761 239.569 197.678 234.19 198.813C228.811 199.947 223.236 198.126 219.563 194.035C219.078 193.496 218.633 192.921 218.233 192.315C215.63 188.942 214.845 184.507 216.133 180.445H216.143ZM198.603 209.942C197.113 208.808 195.185 208.422 193.373 208.895H193.363C189.743 209.845 187.633 214.445 189.803 217.755C190.412 218.722 191.255 219.52 192.253 220.075L192.393 220.145L193.473 220.595C194.22 220.791 195 220.829 195.763 220.705C197.077 220.506 198.295 219.897 199.243 218.965C200.351 217.822 200.98 216.298 201.003 214.705C200.978 212.833 200.093 211.077 198.603 209.942Z" fill="#FFF200"/>
<path d="M235.293 185.155C236.003 182.155 232.293 179.285 229.443 180.475C227.243 181.405 226.673 184.295 226.763 186.725L226.823 186.805C229.363 189.525 234.323 189.295 235.293 185.155Z" fill="white"/>
<path d="M339.363 166.785C341.103 166.535 341.743 166.695 340.733 165.345C339.835 164.023 338.635 162.933 337.233 162.165C334.913 161.037 332.264 160.785 329.773 161.455C329.393 162.995 329.403 164.455 330.143 165.325C331.653 167.085 337.343 167.085 339.363 166.785Z" fill="white"/>
<path d="M370.602 179.045L370.672 178.895L370.612 179.025L370.602 179.045Z" fill="white"/>
<path fill-rule="evenodd" clip-rule="evenodd" d="M157.743 140.155C156.813 142.405 153.643 143.045 151.593 141.425C106.719 149.91 60.9795 152.902 15.3828 150.335C38.0964 185.287 67.0931 215.725 100.903 240.105C104.543 242.725 104.353 248.545 99.6228 249.915C76.6931 256.541 55.2437 267.495 36.4328 282.185C62.2528 289.779 88.0862 297.329 113.933 304.835C115.729 305.366 117.118 306.796 117.596 308.607C118.074 310.418 117.573 312.347 116.273 313.695L78.6028 354.475C91.0839 354.098 103.466 352.135 115.453 348.635C120.723 347.095 124.233 353.785 120.663 357.565C95.1413 384.591 72.8575 414.499 54.2628 446.685C70.9564 442.703 86.8964 436.169 102.792 429.653L102.793 429.653C103.579 429.33 104.366 429.008 105.153 428.685L169.403 402.305C172.403 401.055 176.483 404.245 176.163 407.445C173.963 429.305 172.173 451.192 170.793 473.105C183.428 452.822 197.193 433.264 212.023 414.525C212.877 413.288 214.323 412.595 215.823 412.705C216.849 411.933 218.228 411.824 219.363 412.425C219.926 412.793 220.467 413.194 220.983 413.625C223.063 413.545 224.713 415.255 225.593 417.415C226.97 420.474 227.906 423.713 228.373 427.035C228.411 427.439 228.371 427.847 228.253 428.235C243.973 468.322 259.676 508.419 275.363 548.525C282.902 521.835 293.633 496.265 304.367 470.688L304.367 470.687L304.367 470.687L304.367 470.687L304.367 470.687L304.367 470.686L304.367 470.686L304.368 470.686L304.368 470.685L304.368 470.685L304.368 470.685L304.368 470.685L304.368 470.684L304.368 470.684L304.368 470.684L304.368 470.684L304.368 470.683L304.368 470.683L304.369 470.683L304.369 470.682L304.369 470.682L304.369 470.682L304.369 470.682L304.369 470.681C314.064 447.579 323.762 424.471 331.113 400.525C331.566 398.973 332.704 397.713 334.202 397.103C335.7 396.494 337.394 396.601 338.803 397.395C362.343 411.949 385.859 426.529 409.353 441.135C414.144 409.263 416.45 377.352 418.769 345.268C419.127 340.318 419.485 335.364 419.853 330.405C419.913 329.463 420.263 328.562 420.853 327.825C420.378 326.228 420.633 324.503 421.549 323.111C422.464 321.719 423.948 320.802 425.603 320.605C453.952 317.76 482.566 319.108 510.523 324.605C497.462 299.867 482.165 276.376 464.823 254.425C464.353 253.836 463.844 253.234 463.324 252.618C460.091 248.791 456.407 244.43 458.733 239.305C460.517 235.364 465.404 232.715 469.645 230.416L469.646 230.415C470.989 229.687 472.268 228.993 473.363 228.305C484.103 221.639 494.939 215.135 505.873 208.795C498.585 206.829 491.269 204.987 483.951 203.143C477.945 201.631 471.938 200.118 465.943 198.535C463.283 197.835 462.393 194.955 463.023 192.695C463.06 191.694 463.409 190.728 464.023 189.935C482.213 165.795 500.403 141.645 518.363 117.345C481.756 112.355 444.848 109.889 407.903 109.965C404.593 109.965 401.433 106.445 402.653 103.065C408.093 88.0521 413.539 73.0521 418.993 58.0654C405.935 64.7177 392.361 70.3026 378.403 74.7654C378.138 74.841 377.867 74.8945 377.593 74.9254C374.423 76.4354 369.883 74.2254 370.593 69.2554C372.493 55.6054 373.993 41.8754 374.993 28.1254C358.593 41.4587 342.166 54.7921 325.713 68.1254C322.643 70.6054 318.833 69.6054 317.393 65.9254C311.119 49.8454 304.399 33.9621 297.233 18.2754C294.859 24.7154 292.469 31.1487 290.063 37.5754C289.345 39.4936 288.64 41.4346 287.933 43.3847L287.933 43.385L287.933 43.3854L287.932 43.3864C285.073 51.2669 282.159 59.297 278.063 66.5754C277.735 67.2634 277.128 67.7778 276.396 67.9882C275.663 68.1985 274.876 68.0846 274.233 67.6754C272.771 67.7949 271.343 67.1895 270.413 66.0554C256.957 51.0595 242.287 37.1992 226.553 24.6154L220.973 65.1854C220.736 66.9123 220.583 68.8985 220.421 70.9995C219.621 81.3931 218.605 94.5961 206.103 93.1154C192.933 91.5454 179.363 85.8654 167.283 80.6454C157.309 76.3255 147.669 71.2716 138.443 65.5254C141.938 80.407 146.054 95.0845 150.174 109.778L150.174 109.778C152.173 116.905 154.173 124.036 156.103 131.195C160.663 131.775 162.343 138.535 157.743 140.155ZM95.1828 264.615C92.2181 266.522 88.6735 267.558 85.1672 268.584C83.5052 269.07 81.8518 269.553 80.2728 270.125C74.1228 272.365 67.9628 274.765 61.9828 277.405C61.0428 277.815 60.2428 276.555 61.1628 276.005C66.3273 272.833 71.7224 270.051 77.3028 267.685C78.0405 267.383 78.7971 267.063 79.5686 266.736L79.5687 266.736C84.3297 264.722 89.6603 262.466 94.6428 262.595C95.1259 262.608 95.5431 262.937 95.6679 263.404C95.7927 263.87 95.5953 264.364 95.1828 264.615ZM76.1034 162.642C86.881 162.67 97.3227 162.698 108.033 164.335C108.903 164.465 109.753 163.445 108.953 162.755C102.964 157.554 93.1367 158.045 84.7514 158.464C82.5929 158.572 80.5301 158.675 78.6528 158.675C65.5897 158.675 52.5782 159.122 39.5465 159.57C38.522 159.605 37.4975 159.64 36.4728 159.675C35.9012 159.675 35.4378 160.139 35.4378 160.71C35.4378 161.282 35.9012 161.745 36.4728 161.745C38.4123 161.808 40.3511 161.873 42.2894 161.937L42.2903 161.937C52.754 162.287 63.2042 162.635 73.6828 162.635C74.4288 162.638 75.173 162.64 75.9156 162.642L75.9295 162.642L75.9437 162.642L75.9581 162.642L75.9729 162.642L75.9879 162.642L76.0033 162.642L76.019 162.642L76.0351 162.642L76.0517 162.642L76.0685 162.642L76.0858 162.642L76.1034 162.642ZM113.033 334.335C111.45 336.24 109.196 337.691 107.034 339.082L107.032 339.083L107.03 339.084L107.029 339.085L107.027 339.086L107.025 339.087L107.024 339.088L107.022 339.089L107.021 339.09L107.019 339.091L107.018 339.092L107.016 339.093L107.015 339.094L107.013 339.095L107.012 339.096L107.01 339.097L107.01 339.097C106.365 339.512 105.73 339.921 105.123 340.335C102.123 342.335 99.1228 344.285 96.0328 346.215C95.3128 346.665 94.4628 345.585 95.1228 345.035C98.0428 342.585 100.963 340.145 103.973 337.795C104.473 337.404 104.975 336.996 105.482 336.585L105.482 336.584L105.483 336.584L105.483 336.584L105.484 336.583L105.484 336.583L105.485 336.583C107.487 334.956 109.557 333.275 111.863 332.325C113.063 331.845 113.663 333.505 112.993 334.315L113.033 334.335ZM92.3465 409.747L92.3467 409.747C97.0135 405.297 101.91 400.629 105.033 395.265L105.023 395.245C105.513 394.405 104.493 393.225 103.623 393.865C99.1944 397.015 95.386 401.261 91.6217 405.458C89.8523 407.431 88.0926 409.393 86.2828 411.225C84.5717 412.958 82.7774 414.655 80.9748 416.361L80.9746 416.361L80.9744 416.361L80.9742 416.361L80.9737 416.362C76.8141 420.297 72.6105 424.274 69.2828 428.815C68.8728 429.375 69.6628 430.085 70.2228 429.745C75.8967 426.275 80.8707 421.213 85.5996 416.4C86.5799 415.402 87.5496 414.415 88.5128 413.455C89.743 412.23 91.0357 410.997 92.3465 409.747ZM123.633 376.405C122.857 377.554 121.685 378.441 120.544 379.304C120.126 379.62 119.712 379.934 119.323 380.255C118.804 380.684 118.287 381.13 117.767 381.578L117.767 381.579L117.766 381.579L117.766 381.579C116.832 382.384 115.889 383.197 114.913 383.935C114.283 384.405 113.593 383.515 113.913 382.935C114.917 381.178 116.173 379.577 117.643 378.185C118.953 376.885 120.593 375.305 122.423 374.825C122.834 374.737 123.259 374.893 123.515 375.227C123.772 375.56 123.813 376.011 123.623 376.385L123.633 376.405ZM119.003 326.525C119.953 325.715 120.903 324.965 121.903 324.185C122.057 324.055 122.231 323.921 122.412 323.781L122.413 323.78L122.414 323.78C123.151 323.211 124.01 322.548 124.163 321.665C124.233 321.391 124.174 321.099 124.003 320.873C123.831 320.647 123.566 320.512 123.283 320.505C122.278 320.547 121.617 321.241 120.888 322.006C120.746 322.155 120.602 322.306 120.453 322.455C120.045 322.863 119.63 323.292 119.219 323.716C118.704 324.249 118.196 324.773 117.723 325.235C116.873 326.065 118.053 327.335 119.003 326.525ZM129.433 163.685C126.804 164.895 123.622 164.453 120.763 164.056L120.761 164.056C120.358 164 119.961 163.945 119.573 163.895C119.024 163.842 118.606 163.381 118.606 162.83C118.606 162.279 119.024 161.819 119.573 161.765C119.978 161.715 120.393 161.658 120.815 161.601L120.816 161.6C123.67 161.21 126.855 160.775 129.433 161.985C129.724 162.173 129.897 162.498 129.891 162.844C129.885 163.19 129.7 163.508 129.403 163.685H129.433ZM177.753 444.985C177.613 445.755 178.763 446.405 179.133 445.565H179.103C182.523 437.725 186.263 426.845 185.143 418.225C185.061 417.803 184.719 417.48 184.293 417.424C183.867 417.367 183.452 417.589 183.263 417.975C182.169 420.756 181.734 423.799 181.295 426.865L181.295 426.865L181.295 426.866C181.076 428.397 180.856 429.933 180.553 431.445C180.186 433.277 179.794 435.096 179.403 436.912L179.403 436.913L179.403 436.914L179.403 436.914L179.402 436.915L179.402 436.916L179.402 436.917L179.402 436.917L179.402 436.918L179.402 436.919L179.402 436.92L179.401 436.92L179.401 436.921L179.401 436.922L179.401 436.923L179.401 436.923L179.401 436.924C178.823 439.605 178.247 442.281 177.753 444.985ZM253.273 463.265C253.246 463.829 252.821 464.293 252.262 464.369C251.703 464.445 251.169 464.111 250.993 463.575C249.903 459.605 249.068 455.559 248.231 451.507C247.395 447.457 246.558 443.4 245.463 439.405C245.189 438.402 244.908 437.395 244.627 436.387C242.854 430.029 241.052 423.569 240.733 416.975C240.683 415.975 242.043 415.975 242.323 416.755C244.503 423.239 246.35 429.927 248.171 436.527C248.555 437.918 248.938 439.305 249.323 440.685C249.509 441.343 249.7 442.006 249.892 442.674L249.893 442.678C251.795 449.29 253.842 456.41 253.243 463.265H253.273ZM260.333 490.375C260.643 491.375 262.253 491.525 262.453 490.375H262.423C263.323 485.285 260.963 478.445 257.233 474.905C256.573 474.285 255.313 474.895 255.633 475.835C256.019 476.985 256.499 478.093 256.979 479.204L256.979 479.204L256.979 479.205L256.98 479.205L256.98 479.205L256.98 479.206L256.98 479.206L256.98 479.206L256.98 479.207L256.98 479.207L256.981 479.207L256.981 479.208L256.981 479.208L256.981 479.209L256.981 479.209C257.508 480.426 258.035 481.645 258.443 482.925C258.819 484.108 259.084 485.321 259.348 486.531L259.348 486.531C259.631 487.829 259.914 489.123 260.333 490.375ZM376.453 410.235C373.315 408.707 370.451 406.598 367.605 404.501C366.243 403.498 364.885 402.498 363.503 401.565C359.233 398.685 354.803 395.775 350.313 393.155C349.313 392.595 350.193 391.285 351.153 391.705C360.283 395.705 371.303 400.705 377.593 408.765C377.916 409.102 377.944 409.624 377.658 409.993C377.372 410.362 376.859 410.465 376.453 410.235ZM388.195 420.319C389.282 421.159 390.534 422.127 391.903 422.065C392.142 422.064 392.367 421.952 392.511 421.762C392.656 421.573 392.705 421.326 392.643 421.095C392.169 419.811 390.958 419.083 389.816 418.397C389.704 418.329 389.593 418.262 389.483 418.195C388.418 417.553 387.321 417.005 386.222 416.458L386.22 416.457L386.218 416.456C385.729 416.212 385.239 415.968 384.753 415.715C384.103 415.375 383.313 416.255 383.933 416.765C384.38 417.14 384.818 417.523 385.255 417.905C386.078 418.625 386.897 419.342 387.773 419.995C387.91 420.099 388.05 420.207 388.193 420.318L388.195 420.319ZM472.301 217.592L472.302 217.592C474.893 216.152 477.517 214.695 480.343 213.845C480.715 213.761 481.098 213.929 481.289 214.259C481.479 214.59 481.432 215.006 481.173 215.285C478.533 218.035 474.983 219.815 471.593 221.505L471.306 221.648C467.999 223.298 464.487 225.05 460.843 225.555C460.263 225.645 459.563 224.895 460.173 224.405C462.318 222.746 464.772 221.512 467.228 220.277C468.162 219.808 469.096 219.338 470.013 218.845C470.776 218.44 471.537 218.017 472.301 217.592ZM492.633 142.225C491.211 144.323 489.909 146.5 488.733 148.745V148.775C488.654 149.02 488.738 149.288 488.942 149.445C489.146 149.602 489.426 149.614 489.643 149.475C491.461 147.785 493.072 145.885 494.443 143.815C494.614 143.573 494.79 143.328 494.967 143.081C496.23 141.323 497.578 139.447 497.973 137.325C498.055 136.978 497.901 136.618 497.592 136.438C497.284 136.259 496.894 136.302 496.633 136.545C495.312 137.669 494.395 139.242 493.496 140.783C493.21 141.272 492.927 141.758 492.633 142.225ZM454.373 190.605C458.843 183.605 463.583 176.935 468.673 170.405C469.409 169.463 470.146 168.501 470.889 167.532L470.89 167.531L470.89 167.53C475.137 161.991 479.583 156.192 485.123 152.115C485.813 151.605 486.613 152.575 486.243 153.235C483.535 158.055 479.765 162.333 476.048 166.553C474.536 168.269 473.033 169.976 471.613 171.705C466.213 178.265 460.893 184.905 455.613 191.525C455.023 192.235 453.903 191.345 454.373 190.635V190.605ZM474.903 309.845C474.903 309.293 474.455 308.845 473.903 308.845C464.129 306.275 451.853 307.834 441.872 309.101L441.763 309.115C441.474 309.154 441.259 309.399 441.259 309.69C441.259 309.981 441.474 310.227 441.763 310.265C443.404 310.405 445.093 310.566 446.815 310.731L446.82 310.732C455.738 311.585 465.523 312.521 473.903 310.845C474.455 310.845 474.903 310.398 474.903 309.845ZM398.641 86.3237L398.713 86.1756C400.558 82.3751 402.551 78.273 405.583 75.3254C406.373 74.5554 407.953 75.3254 407.583 76.4654C406.67 79.0292 405.267 81.4009 403.869 83.763C403.201 84.8926 402.534 86.0201 401.923 87.1654C401.295 88.3392 400.704 89.5488 400.111 90.7626L400.111 90.7629C398.749 93.5508 397.376 96.3601 395.523 98.8054C395.213 99.2154 394.343 99.1654 394.413 98.5054C394.783 94.4154 396.563 90.5854 398.353 86.9154L398.509 86.594L398.641 86.3237ZM366.243 44.8154C366.283 43.7254 364.533 43.1354 364.063 44.2254C360.283 53.0454 359.173 65.5954 360.753 74.9554C360.864 75.3032 361.188 75.5393 361.553 75.5393C361.918 75.5393 362.241 75.3032 362.353 74.9554C362.968 71.8671 363.25 68.7438 363.533 65.6173V65.6168L363.533 65.6163L363.533 65.6158L363.534 65.6143C363.678 64.0141 363.823 62.413 364.013 60.8154C364.256 58.7626 364.618 56.7098 364.98 54.653L364.981 54.6524L364.981 54.6518L364.981 54.6511L364.981 54.6505L364.981 54.6499L364.981 54.6493C365.556 51.3869 366.132 48.1143 366.243 44.8154ZM301.433 47.8454C305.093 53.9154 307.643 62.2754 308.573 69.2754C308.673 70.0354 307.523 70.2754 307.193 69.6554C305.592 66.523 304.232 63.2737 303.123 59.9354C302.867 59.2526 302.603 58.5692 302.338 57.884C301.174 54.8763 299.999 51.8355 299.453 48.6754C299.336 48.1594 299.607 47.6341 300.095 47.4296C300.582 47.2251 301.147 47.4004 301.433 47.8454ZM298.483 39.1754C298.703 36.8554 298.763 33.2354 296.703 31.6654C296.233 31.3054 295.693 31.8454 295.643 32.2754C295.673 33.3679 295.879 34.4483 296.253 35.4754C296.518 36.6898 296.618 37.9342 296.553 39.1754C296.483 40.4354 298.353 40.3854 298.483 39.1754ZM239.523 48.5154C243.601 49.7717 247.066 53.686 250.023 57.0284L250.025 57.0296C250.504 57.5712 250.97 58.0977 251.423 58.5954C255.178 62.8382 258.697 67.285 261.963 71.9154C262.543 72.7054 261.213 73.7254 260.593 72.9654C257.058 68.6742 253.275 64.5939 249.263 60.7454C248.229 59.7323 247.04 58.7291 245.824 57.7033C243.008 55.3273 240.048 52.8298 238.533 49.8054C238.365 49.4965 238.395 49.1178 238.609 48.8389C238.823 48.5601 239.181 48.4333 239.523 48.5154ZM234.443 41.0354L234.323 41.1254C234.068 41.391 233.967 41.7678 234.053 42.1254L234.143 42.5154C234.29 42.9039 234.662 43.1607 235.078 43.1607C235.493 43.1607 235.865 42.9039 236.013 42.5154L236.103 42.1254C236.189 41.7678 236.087 41.391 235.833 41.1254L235.713 41.0354C235.353 40.7062 234.802 40.7062 234.443 41.0354ZM215.023 111.125C231.153 100.775 248.813 95.3154 267.843 93.5254C302.103 90.3054 339.633 89.9354 371.293 105.175C398.293 118.175 419.233 142.295 430.783 169.715C444.683 202.715 444.683 240.455 434.683 274.535C430.103 290.185 423.683 305.905 412.523 318.085C401.363 330.265 386.623 337.855 372.083 344.865C355.713 352.745 339.083 360.675 321.433 365.275C304.611 369.597 287.11 370.606 269.903 368.245C236.123 363.735 204.193 348.185 177.403 327.475C152.323 308.095 135.053 282.475 132.403 250.385C130.063 222.195 138.893 191.015 157.163 169.095C162.467 161.503 168.231 154.243 174.423 147.355C186.453 133.845 199.693 120.995 215.023 111.165V111.125ZM168.098 88.344C164.061 86.2099 160.018 84.0726 156.203 81.5254C155.846 81.3193 155.392 81.4094 155.142 81.736C154.891 82.0626 154.922 82.5244 155.213 82.8154C161.603 88.4354 169.563 94.3854 177.993 96.3354C178.498 96.4494 179.012 96.1852 179.214 95.7082C179.415 95.2312 179.247 94.6783 178.813 94.3954C175.359 92.1831 171.731 90.2649 168.098 88.344Z" fill="#FBB040"/>
<path fill-rule="evenodd" clip-rule="evenodd" d="M132.362 250.385C130.022 222.195 138.852 191.015 157.122 169.095C162.423 161.503 168.183 154.243 174.372 147.355C186.442 133.805 199.682 120.995 215.012 111.165C231.142 100.815 248.832 95.3554 267.832 93.5654C302.092 90.3454 339.622 89.9754 371.282 105.215C398.312 118.215 419.222 142.335 430.772 169.755C444.672 202.765 444.672 240.495 434.672 274.575C430.092 290.225 423.552 306.045 412.512 318.125C401.472 330.205 386.612 337.905 372.072 344.905C355.702 352.785 339.072 360.715 321.422 365.315C304.588 369.628 287.076 370.623 269.862 368.245C236.082 363.735 204.152 348.185 177.362 327.475C152.292 308.095 135.022 282.495 132.362 250.385ZM297.485 103.786C280.592 103.906 262.993 104.031 246.632 108.595C217.792 116.635 194.662 138.615 175.462 160.665C172.622 163.905 169.812 167.355 167.092 170.905C166.982 171.295 166.813 171.666 166.592 172.005C149.702 198.165 139.162 228.405 145.472 259.805C152.132 293.015 177.772 315.525 205.722 332.165C232.212 347.915 262.742 358.535 293.892 357.165C309.922 356.455 325.292 352.075 340.092 346.075C355.308 340.08 370.064 332.977 384.242 324.825C397.312 317.135 407.552 307.375 414.452 293.765C421.752 279.375 426.112 262.945 428.292 247.005C432.522 216.155 427.462 183.985 410.972 157.315C395.912 132.965 372.602 115.115 344.722 108.225C329.292 104.415 313.362 103.675 297.542 103.785L297.485 103.786Z" fill="#231F20"/>
<path fill-rule="evenodd" clip-rule="evenodd" d="M234.181 198.853C228.802 199.987 223.226 198.166 219.553 194.075C219.07 193.549 218.625 192.987 218.223 192.395C215.611 189.011 214.829 184.557 216.133 180.485C216.158 180.375 216.18 180.267 216.201 180.162C216.249 179.925 216.294 179.7 216.363 179.485C216.794 178.144 217.45 176.886 218.303 175.765C220.456 172.41 223.87 170.063 227.773 169.255C238.633 167.135 249.193 177.765 245.633 188.575C243.925 193.801 239.56 197.718 234.181 198.853ZM235.293 185.155C236.003 182.135 232.273 179.285 229.443 180.475C227.243 181.405 226.673 184.295 226.763 186.725L226.823 186.805C229.363 189.525 234.293 189.295 235.293 185.155Z" fill="#231F20"/>
<path fill-rule="evenodd" clip-rule="evenodd" d="M343.183 177.335C335.853 179.275 322.833 177.035 320.183 168.735C319.25 165.151 319.648 161.349 321.303 158.035C321.144 157.044 321.401 156.031 322.013 155.235C328.173 147.085 339.883 148.895 346.883 155.335C354.263 162.135 354.033 174.475 343.183 177.335ZM337.233 162.165C334.913 161.037 332.264 160.785 329.773 161.455C329.393 162.995 329.403 164.465 330.143 165.325C331.653 167.085 337.363 167.085 339.363 166.785C339.604 166.751 339.824 166.724 340.021 166.7C341.246 166.551 341.594 166.508 340.733 165.345C339.835 164.023 338.635 162.933 337.233 162.165Z" fill="#231F20"/>
<path d="M286.963 206.485C295.123 206.485 301.133 202.485 302.793 194.265C304.233 187.195 305.403 172.265 299.393 167.265C298.64 166.542 297.601 166.198 296.565 166.33C295.53 166.462 294.61 167.056 294.063 167.945C291.123 172.735 293.133 178.745 293.173 184.105C293.312 186.825 293.185 189.551 292.793 192.245C292.003 196.435 288.733 196.855 284.903 196.635C278.233 196.265 274.083 192.635 271.653 186.635C269.983 182.505 269.653 177.815 266.803 174.255C266.395 173.852 265.824 173.66 265.255 173.734C264.686 173.809 264.184 174.141 263.893 174.635C260.803 180.785 263.133 190.585 266.563 196.195C270.903 203.305 278.903 206.455 286.963 206.485Z" fill="#231F20"/>
<path d="M192.213 220.065L192.353 220.135L193.433 220.585C194.18 220.781 194.96 220.819 195.723 220.695C197.037 220.496 198.255 219.887 199.203 218.955C200.311 217.811 200.94 216.288 200.963 214.695C200.938 212.823 200.053 211.066 198.563 209.932C197.073 208.798 195.144 208.412 193.333 208.885C189.713 209.885 187.603 214.435 189.733 217.735C190.349 218.709 191.202 219.511 192.213 220.065Z" fill="#231F20"/>
<path d="M374.984 189.025C376.48 189.037 377.937 188.547 379.124 187.635C380.316 186.706 381.176 185.415 381.574 183.955C381.993 182.638 381.907 181.213 381.334 179.955C381.206 179.497 381.022 179.057 380.784 178.645C380.243 177.643 379.419 176.822 378.414 176.285C377.571 175.798 376.617 175.54 375.644 175.535C374.911 175.502 374.183 175.665 373.534 176.005C372.248 176.545 371.222 177.563 370.674 178.845L370.604 178.995L370.664 178.865L370.594 179.025L370.344 179.385C370.091 179.785 369.883 180.211 369.724 180.655C368.869 182.46 369 184.576 370.069 186.262C371.138 187.948 372.997 188.969 374.994 188.965L374.984 189.025Z" fill="#231F20"/>
<path d="M370.902 178.385L370.672 178.925C370.742 178.725 370.802 178.555 370.902 178.385Z" fill="#231F20"/>
<path fill-rule="evenodd" clip-rule="evenodd" d="M147.343 132.265C138.043 107.865 132.093 81.8054 126.763 56.3854C125.993 52.6654 130.063 48.5354 133.703 51.0454C153.925 65.0022 176.44 75.3018 200.223 81.4754C200.639 81.5845 201.171 81.7565 201.767 81.9489C204.121 82.709 207.463 83.7883 208.533 82.5754C209.493 81.4863 209.621 78.2617 209.72 75.7852C209.759 74.8052 209.793 73.9424 209.873 73.3754C210.766 66.9154 211.653 60.4554 212.533 53.9954C214.373 40.6621 216.203 27.3287 218.023 13.9954C218.433 10.9954 223.003 9.1954 225.373 10.9954C243.016 24.365 259.501 39.1975 274.653 55.3354C276.139 49.9606 277.98 44.6354 279.796 39.3806C280.423 37.5669 281.047 35.7615 281.653 33.9654C285.013 23.9754 288.383 14.0054 291.903 4.0754C293.203 0.445402 298.903 -1.2346 300.903 2.9054C309.296 20.5187 317.096 38.3787 324.303 56.4854C341.843 42.2454 359.436 28.0621 377.083 13.9354C380.063 11.5554 385.663 12.7354 385.373 17.3754C384.393 32.8854 383.123 48.3354 381.293 63.7654C383.052 62.9701 384.812 62.1771 386.572 61.3843C399.812 55.4186 413.028 49.4639 425.863 42.6054C429.633 40.6054 435.273 44.0154 433.633 48.6054L415.633 99.0654C453.805 99.1289 491.916 102.114 529.633 107.995C532.893 108.505 534.893 113.365 532.893 115.995C522.663 129.578 512.475 143.194 502.287 156.81C493.701 168.284 485.114 179.759 476.503 191.215C491.552 193.837 506.419 197.418 521.013 201.935C525.343 203.235 526.393 209.425 522.293 211.735C509.313 219.029 496.489 226.545 483.823 234.285C480.736 236.159 477.653 238.052 474.573 239.965C474.158 240.222 473.649 240.617 473.101 241.043C471.88 241.991 470.464 243.09 469.463 243.145L469.313 243.305C470.886 244.145 472.643 246.81 474.113 249.041C474.728 249.973 475.292 250.83 475.773 251.445C477.679 253.899 479.566 256.365 481.433 258.845C498.1 280.999 512.701 304.635 525.053 329.455C526.067 331.33 525.886 333.625 524.591 335.318C523.295 337.01 521.127 337.785 519.053 337.295C489.476 330.123 458.919 327.879 428.613 330.655C429.953 370.865 424.983 411.715 418.613 451.355C418.053 454.785 413.403 456.255 410.693 454.575C386.799 439.695 362.933 424.785 339.093 409.845C332.127 430.797 323.607 451.2 315.09 471.595C302.062 502.793 289.04 533.975 281.603 567.075C280.343 572.655 273.143 571.515 271.403 567.075C252.976 520.215 234.566 473.345 216.173 426.465C198.834 448.949 183.041 472.583 168.903 497.205C166.323 501.685 158.623 499.905 158.903 494.505C160.236 468.179 162.163 441.899 164.683 415.665L107.963 438.925C107.433 439.144 106.903 439.362 106.374 439.581C86.5303 447.768 66.6135 455.985 45.2926 459.325C40.8426 460.035 36.8926 455.885 39.2926 451.475C56.6348 419.711 77.4707 389.984 101.413 362.845C89.9106 364.872 78.2176 365.603 66.5527 365.025C64.4281 364.962 62.5383 363.658 61.7248 361.695C60.9112 359.731 61.3253 357.473 62.7826 355.925L102.843 312.665C76.5693 304.925 50.276 297.242 23.9627 289.615C20.3326 288.565 18.5326 283.455 21.6227 280.745C40.644 263.997 62.7408 251.108 86.6826 242.795C52.4403 216.442 23.3363 184.016 0.822649 147.135C-1.17735 143.835 1.39265 138.865 5.39265 139.135C52.9026 142.425 100.343 139.735 147.343 132.265ZM206.113 93.0254C192.943 91.4554 179.373 85.7754 167.293 80.5554C157.313 76.2134 147.67 71.1361 138.443 65.3654C141.938 80.2472 146.054 94.9249 150.174 109.618C152.173 116.745 154.172 123.876 156.103 131.035C160.653 131.705 162.333 138.465 157.733 140.085C156.803 142.355 153.633 142.975 151.583 141.355C106.709 149.84 60.9693 152.832 15.3726 150.265C38.0922 185.219 67.0957 215.657 100.913 240.035C104.553 242.655 104.363 248.475 99.6327 249.845C76.7029 256.471 55.2536 267.425 36.4426 282.115C62.2693 289.675 88.1026 297.225 113.943 304.765C115.739 305.296 117.128 306.726 117.606 308.537C118.084 310.348 117.582 312.277 116.283 313.625L78.6126 354.405C91.0938 354.028 103.476 352.065 115.463 348.565C120.733 347.025 124.243 353.715 120.673 357.495C95.1511 384.521 72.8673 414.429 54.2727 446.615C71.1258 442.623 87.2109 436.003 103.258 429.399C103.893 429.138 104.528 428.877 105.163 428.615L169.413 402.235C172.453 400.985 176.493 404.175 176.173 407.375C173.986 429.235 172.196 451.122 170.803 473.035C183.437 452.752 197.203 433.194 212.033 414.455C212.887 413.218 214.333 412.525 215.833 412.635C216.858 411.863 218.238 411.754 219.373 412.355C219.936 412.723 220.477 413.124 220.993 413.555C223.073 413.475 224.723 415.185 225.603 417.345C226.98 420.404 227.916 423.643 228.383 426.965C228.421 427.369 228.381 427.777 228.263 428.165C243.983 468.259 259.686 508.355 275.373 548.455C282.907 521.792 293.629 496.243 304.356 470.681C314.059 447.561 323.766 424.43 331.123 400.455C331.576 398.903 332.714 397.643 334.212 397.033C335.71 396.424 337.404 396.531 338.813 397.325C362.353 411.859 385.869 426.439 409.363 441.065C414.154 409.015 416.479 376.927 418.817 344.662C419.162 339.891 419.508 335.115 419.863 330.335C419.923 329.393 420.272 328.492 420.863 327.755C420.388 326.158 420.643 324.433 421.558 323.041C422.474 321.649 423.958 320.732 425.613 320.535C453.962 317.69 482.576 319.038 510.533 324.535C497.472 299.797 482.175 276.306 464.833 254.355C464.363 253.766 463.854 253.164 463.333 252.548C460.101 248.721 456.417 244.36 458.743 239.235C460.543 235.23 465.499 232.561 469.764 230.265C471.068 229.563 472.308 228.896 473.373 228.235C484.113 221.582 494.949 215.079 505.883 208.725C498.595 206.759 491.279 204.917 483.962 203.074C477.956 201.561 471.948 200.048 465.953 198.465C463.293 197.765 462.403 194.885 463.033 192.625C463.07 191.624 463.419 190.658 464.033 189.865C482.223 165.725 500.373 141.575 518.373 117.275C481.753 112.28 444.832 109.81 407.873 109.885C404.563 109.895 401.403 106.365 402.623 102.985C408.063 87.9721 413.509 72.9554 418.963 57.9354C405.91 64.6044 392.339 70.206 378.383 74.6854C378.118 74.761 377.847 74.8145 377.573 74.8454C374.423 76.3554 369.883 74.1754 370.573 69.1754C372.473 55.5254 373.973 41.7954 374.973 28.0454C358.553 41.3787 342.126 54.7121 325.693 68.0454C322.623 70.5254 318.813 69.5254 317.373 65.8454C311.093 49.7987 304.383 33.9287 297.243 18.2354C294.876 24.6754 292.486 31.1087 290.073 37.5354C289.309 39.5585 288.562 41.6084 287.812 43.6676C284.975 51.4509 282.09 59.3684 278.073 66.4854C277.745 67.1734 277.138 67.6878 276.405 67.8982C275.673 68.1085 274.885 67.9947 274.243 67.5854C272.781 67.7049 271.353 67.0995 270.423 65.9654C256.967 50.9695 242.297 37.1092 226.563 24.5254L220.983 65.0954C220.746 66.8165 220.593 68.7951 220.431 70.8882C219.624 81.2851 218.599 94.5071 206.113 93.0254Z" fill="#231F20"/>
<path d="M78.6525 158.675C64.5625 158.675 50.5325 159.195 36.4725 159.675C35.9009 159.675 35.4375 160.139 35.4375 160.71C35.4375 161.282 35.9009 161.745 36.4725 161.745C48.8825 162.145 61.2625 162.585 73.6825 162.635C85.3225 162.635 96.5225 162.575 108.033 164.335C108.863 164.465 109.753 163.445 108.952 162.755C101.423 156.215 87.8225 158.655 78.6525 158.675Z" fill="#231F20"/>
<path d="M129.403 161.985C126.403 160.595 122.683 161.375 119.543 161.765C118.995 161.819 118.576 162.279 118.576 162.83C118.576 163.381 118.995 163.842 119.543 163.895C122.683 164.295 126.443 165.065 129.403 163.685C129.697 163.503 129.876 163.182 129.876 162.835C129.876 162.489 129.697 162.168 129.403 161.985Z" fill="#231F20"/>
<path d="M94.6427 262.595C88.8527 262.445 82.6427 265.515 77.3027 267.685C71.7223 270.051 66.3271 272.832 61.1627 276.005C60.2427 276.555 61.0427 277.815 61.9827 277.405C67.9827 274.765 74.1227 272.405 80.2727 270.125C85.1527 268.345 90.8127 267.425 95.1827 264.615C95.5951 264.364 95.7926 263.87 95.6678 263.404C95.543 262.937 95.1257 262.608 94.6427 262.595Z" fill="#231F20"/>
<path d="M111.823 332.305C108.903 333.495 106.413 335.835 103.933 337.775C100.933 340.125 98.0032 342.565 95.0832 345.015C94.4232 345.565 95.2732 346.645 95.9932 346.195C98.9932 344.265 102.093 342.345 105.083 340.315C107.733 338.505 110.933 336.795 112.993 334.315C113.663 333.505 113.063 331.845 111.823 332.305Z" fill="#231F20"/>
<path d="M123.253 320.505C122.053 320.505 121.253 321.645 120.423 322.455C119.593 323.265 118.623 324.335 117.693 325.235C116.763 326.135 118.093 327.235 118.973 326.525C119.853 325.815 120.913 324.965 121.873 324.185C122.683 323.525 123.973 322.765 124.133 321.665C124.204 321.391 124.145 321.099 123.973 320.873C123.802 320.647 123.537 320.512 123.253 320.505V320.505Z" fill="#231F20"/>
<path d="M103.623 393.845C97.1135 398.475 91.8935 405.525 86.2835 411.205C80.6735 416.885 74.0435 422.285 69.2835 428.795C68.8735 429.355 69.6635 430.065 70.2235 429.725C77.0735 425.535 82.8435 419.065 88.5135 413.435C94.1835 407.805 101.033 402.115 105.033 395.245C105.513 394.405 104.493 393.225 103.623 393.845Z" fill="#231F20"/>
<path d="M122.403 374.845C120.573 375.325 118.933 376.905 117.623 378.205C116.154 379.597 114.897 381.198 113.893 382.955C113.583 383.545 114.273 384.435 114.893 383.955C116.413 382.805 117.833 381.495 119.303 380.275C120.773 379.055 122.553 377.995 123.613 376.425C123.818 376.048 123.782 375.585 123.52 375.243C123.259 374.902 122.821 374.746 122.403 374.845Z" fill="#231F20"/>
<path d="M183.233 417.975C181.593 422.145 181.413 427.035 180.523 431.445C179.633 435.855 178.523 440.445 177.723 444.985C177.583 445.755 178.723 446.405 179.103 445.565C182.523 437.725 186.263 426.865 185.103 418.225C185.016 417.81 184.677 417.494 184.256 417.438C183.836 417.382 183.425 417.597 183.233 417.975Z" fill="#231F20"/>
<path d="M242.293 416.755C242.013 415.935 240.653 416.015 240.703 416.975C241.073 424.615 243.423 432.075 245.433 439.405C247.623 447.405 248.783 455.635 250.963 463.575C251.139 464.111 251.673 464.445 252.231 464.369C252.79 464.293 253.216 463.829 253.243 463.265C253.873 455.715 251.353 447.885 249.333 440.685C247.083 432.715 244.903 424.605 242.293 416.755Z" fill="#231F20"/>
<path d="M255.602 475.845C256.422 478.255 257.602 480.505 258.412 482.935C259.222 485.365 259.492 487.935 260.302 490.385C260.612 491.385 262.222 491.535 262.422 490.385C263.322 485.295 260.962 478.455 257.202 474.915C256.542 474.285 255.282 474.895 255.602 475.845Z" fill="#231F20"/>
<path d="M351.153 391.705C350.153 391.285 349.353 392.595 350.313 393.155C354.803 395.775 359.193 398.645 363.503 401.565C367.813 404.485 371.813 407.975 376.453 410.235C376.859 410.465 377.372 410.362 377.658 409.993C377.944 409.624 377.916 409.102 377.593 408.765C371.303 400.705 360.283 395.695 351.153 391.705Z" fill="#231F20"/>
<path d="M389.482 418.195C387.942 417.265 386.332 416.535 384.752 415.715C384.102 415.375 383.312 416.255 383.932 416.765C385.222 417.845 386.432 418.985 387.772 419.995C388.952 420.885 390.352 422.135 391.902 422.065C392.148 422.067 392.38 421.951 392.526 421.753C392.672 421.556 392.715 421.3 392.642 421.065C392.122 419.685 390.712 418.945 389.482 418.195Z" fill="#231F20"/>
<path d="M441.803 310.225C451.923 311.085 463.933 312.775 473.943 310.805C474.495 310.805 474.943 310.358 474.943 309.805C474.943 309.253 474.495 308.805 473.943 308.805C464.093 306.275 451.763 307.865 441.803 309.085C441.529 309.137 441.33 309.377 441.33 309.655C441.33 309.934 441.529 310.174 441.803 310.225Z" fill="#231F20"/>
<path d="M460.843 225.625C464.623 225.105 468.213 223.255 471.593 221.575C474.973 219.895 478.533 218.105 481.173 215.355C481.433 215.076 481.479 214.66 481.289 214.33C481.099 213.999 480.715 213.831 480.343 213.915C476.683 214.975 473.343 217.095 470.013 218.915C466.683 220.735 463.133 222.155 460.173 224.515C459.563 224.965 460.263 225.715 460.843 225.625Z" fill="#231F20"/>
<path d="M455.563 191.555C460.893 184.935 466.213 178.295 471.563 171.735C476.473 165.735 482.383 160.045 486.193 153.265C486.563 152.605 485.763 151.635 485.073 152.145C478.563 156.935 473.563 164.145 468.623 170.435C463.533 176.965 458.793 183.665 454.323 190.635C453.903 191.345 455.023 192.235 455.563 191.555Z" fill="#231F20"/>
<path d="M489.682 149.505C491.5 147.815 493.111 145.915 494.482 143.845C495.872 141.845 497.562 139.775 498.012 137.355C498.094 137.008 497.94 136.648 497.631 136.468C497.323 136.289 496.933 136.332 496.672 136.575C494.892 138.055 493.852 140.315 492.672 142.255C491.25 144.354 489.948 146.53 488.772 148.775C488.673 149.025 488.748 149.309 488.957 149.477C489.166 149.645 489.46 149.656 489.682 149.505Z" fill="#231F20"/>
<path d="M395.483 98.8454C398.143 95.3354 399.813 91.0754 401.883 87.2054C403.773 83.6654 406.193 80.2954 407.543 76.5054C407.953 75.3654 406.373 74.5954 405.543 75.3654C402.313 78.5054 400.263 82.9554 398.313 86.9554C396.523 90.6254 394.743 94.4554 394.313 98.5454C394.303 99.1654 395.173 99.2154 395.483 98.8454Z" fill="#231F20"/>
<path d="M362.353 74.9954C363.283 70.3254 363.453 65.5754 364.013 60.8554C364.643 55.5054 366.063 50.1954 366.243 44.8554C366.243 43.7654 364.533 43.1754 364.063 44.2654C360.283 53.0854 359.173 65.6354 360.753 75.0354C360.873 75.3808 361.202 75.609 361.568 75.5999C361.933 75.5907 362.251 75.3463 362.353 74.9954Z" fill="#231F20"/>
<path d="M303.123 59.9154C304.231 63.2537 305.592 66.503 307.193 69.6354C307.523 70.2354 308.673 70.0154 308.573 69.2554C307.643 62.2554 305.093 53.8954 301.433 47.8254C301.163 47.3423 300.574 47.138 300.063 47.35C299.552 47.5621 299.281 48.1233 299.433 48.6554C300.123 52.5354 301.743 56.2354 303.123 59.9154Z" fill="#231F20"/>
<path d="M296.553 39.1754C296.493 40.4354 298.353 40.3854 298.483 39.1754C298.723 36.8554 298.763 33.2354 296.703 31.6654C296.233 31.3054 295.703 31.8154 295.643 32.2754C295.673 33.3679 295.879 34.4484 296.253 35.4754C296.517 36.6898 296.618 37.9342 296.553 39.1754Z" fill="#231F20"/>
<path d="M249.263 60.7454C253.276 64.5939 257.059 68.6742 260.593 72.9654C261.213 73.7254 262.543 72.7054 261.963 71.9154C258.698 67.285 255.179 62.8382 251.423 58.5954C248.173 55.0254 244.263 49.9754 239.523 48.5154C239.18 48.4281 238.818 48.5527 238.601 48.8327C238.384 49.1127 238.353 49.4947 238.523 49.8054C240.703 54.1354 245.833 57.3854 249.263 60.7454Z" fill="#231F20"/>
<path d="M234.143 42.5554C234.291 42.9439 234.663 43.2008 235.078 43.2008C235.494 43.2008 235.866 42.9439 236.013 42.5554L236.103 42.1654C236.19 41.8078 236.088 41.431 235.833 41.1654L235.713 41.0754C235.354 40.7462 234.803 40.7462 234.443 41.0754L234.323 41.1654C234.069 41.431 233.967 41.8078 234.053 42.1654L234.143 42.5554Z" fill="#231F20"/>
<path d="M178.812 94.3954C171.522 89.7254 163.452 86.3954 156.202 81.5254C155.845 81.3006 155.376 81.3835 155.117 81.717C154.859 82.0504 154.895 82.5257 155.202 82.8154C161.592 88.4354 169.552 94.3854 177.982 96.3354C178.49 96.458 179.012 96.1963 179.217 95.7162C179.422 95.2361 179.251 94.6779 178.812 94.3954Z" fill="#231F20"/>
<path d="M153.022 238.845C152.295 226.243 154.051 213.62 158.192 201.695C158.592 200.475 156.772 200.055 156.302 201.175C150.788 214.318 148.686 228.642 150.192 242.815C151.352 253.065 154.582 264.755 163.402 271.015C163.952 271.405 164.642 270.645 164.312 270.105C158.092 260.125 153.902 250.685 153.022 238.845Z" fill="#231F20"/>
<path d="M356.782 329.315C366.444 324.794 375.255 318.645 382.832 311.135C389.612 304.355 397.342 295.665 399.672 286.135C399.852 285.395 398.852 284.675 398.292 285.335C391.942 292.885 387.552 301.695 380.692 308.965C373.517 316.565 365.241 323.043 356.142 328.185C355.422 328.625 356.052 329.665 356.782 329.315Z" fill="#231F20"/>
<path d="M409.022 264.845C413.883 249.436 415.713 233.231 414.412 217.125C414.412 216.684 414.054 216.325 413.612 216.325C413.17 216.325 412.812 216.684 412.812 217.125C412.772 233.07 411.127 248.97 407.902 264.585C407.83 264.895 408.022 265.204 408.332 265.275C408.641 265.347 408.95 265.155 409.022 264.845Z" fill="#231F20"/>
</svg>
