<svg width="440" height="576" viewBox="0 0 440 576" fill="none" xmlns="http://www.w3.org/2000/svg">
<path d="M321.49 454.041C351.423 450.274 381.356 446.554 411.29 442.881C401.29 435.141 392.71 425.641 389.98 412.941C387.91 403.341 390.06 392.031 395.56 383.251C373.715 389.662 351.483 394.672 329 398.251C299.35 403.131 269.34 405.251 239.39 407.401C223.7 408.531 208.01 409.581 192.31 410.671C177.62 411.671 162.65 411.931 148.09 414.231C126.9 417.571 96.5197 432.341 103.9 459.271C107.28 471.631 120.4 476.191 131.96 477.021C143.17 477.821 154.2 476.301 165.32 476.671C165.02 475.041 164.74 473.411 164.43 471.791C162.43 461.321 159.48 450.561 159.43 439.841C158.97 438.795 158.881 437.624 159.18 436.521C163.12 424.031 181.93 422.851 192.82 422.521C208.39 422.041 212.46 432.521 215.66 445.981C217.359 453.182 218.694 460.465 219.66 467.801C226.66 466.161 234 465.591 240.97 464.601C249.92 463.321 258.88 462.151 267.84 460.981C285.72 458.651 303.6 456.301 321.49 454.041Z" fill="#F2B879"/>
<path d="M327.229 182.891C329.196 183.011 331.119 182.277 332.506 180.877C333.893 179.477 334.608 177.547 334.469 175.581C333.879 170.871 329.559 170.351 325.859 169.181C324.141 170.31 322.712 171.828 321.689 173.611C320.96 175.58 321.163 177.774 322.239 179.576C323.315 181.379 325.15 182.598 327.229 182.891Z" fill="white"/>
<path d="M107.028 418.251C106.581 417.593 106.243 416.867 106.028 416.101C88.3985 353.941 73.8985 290.891 61.4485 227.531C55.2085 195.811 49.2185 164.021 43.8485 132.141C39.1585 104.321 33.6685 76.3812 30.7085 48.3012C29.2962 48.5896 27.8277 48.2742 26.6585 47.4312C22.5185 44.6912 16.3785 61.8112 15.7085 64.3412C13.8085 71.5112 13.4785 79.0012 13.5785 86.3412C13.7985 101.861 16.5785 117.141 19.7885 132.341C31.1785 187.091 42.9885 241.801 56.3185 296.111C62.9318 323.031 70.0785 349.808 77.7585 376.441C81.7585 390.241 85.9385 403.985 90.2985 417.671C91.8885 422.671 93.7385 427.671 95.5585 432.731C98.5462 427.298 102.423 422.403 107.028 418.251Z" fill="#BE1E2D"/>
<path fill-rule="evenodd" clip-rule="evenodd" d="M118.649 409.891C101.489 349.021 87.4986 287.371 74.8986 225.431C70.6227 204.209 66.6065 182.94 62.591 161.675L62.5903 161.671L62.5901 161.67L62.5895 161.667L62.5891 161.664L62.5887 161.663C60.7074 151.699 58.8262 141.737 56.9186 131.781C55.2542 123.026 53.6928 114.226 52.1298 105.418L52.1298 105.418C48.5372 85.1721 44.9365 64.8798 40.0586 44.9712C42.4549 44.8176 44.8691 44.3834 47.2565 43.954L47.2565 43.954L47.2566 43.954C48.4458 43.7401 49.6283 43.5274 50.7986 43.3512C57.0653 42.3845 63.3219 41.3845 69.5686 40.3512C73.2866 39.7426 77.0039 39.1178 80.7219 38.4929C90.3838 36.869 100.051 35.2443 109.749 33.9012C129.294 31.1492 148.901 31.179 168.54 31.2089C176.162 31.2205 183.789 31.2321 191.419 31.0812C217.853 30.5588 244.233 28.4651 270.419 24.8112C283.705 22.9845 296.922 20.7378 310.069 18.0712C311.712 17.7409 313.355 17.3827 315 17.024L315 17.0239C319.182 16.1122 323.377 15.1976 327.619 14.7312C332.431 14.1964 337.04 14.6817 341.735 15.1761L341.736 15.1762C342.133 15.218 342.53 15.2598 342.929 15.3012C342.763 17.7459 343.269 20.3585 343.76 22.8939L343.76 22.8951C343.892 23.5743 344.022 24.2478 344.139 24.9112C345.29 31.3468 346.642 37.7642 347.991 44.1682L347.991 44.1687L347.991 44.1691L347.991 44.1695L347.991 44.1698L347.991 44.1701L347.991 44.1704L347.991 44.1707L347.991 44.1711C348.375 45.9955 348.759 47.8188 349.139 49.6412C352.352 65.0612 355.582 80.4812 358.829 95.9012C359.836 100.674 360.84 105.448 361.844 110.224L361.844 110.225L361.844 110.227C367.422 136.769 373.005 163.334 379.379 189.691C384.165 209.488 389.73 229.03 395.294 248.572C398.286 259.079 401.278 269.586 404.149 280.131C408.099 294.661 411.789 309.271 414.789 324.021C416.402 331.874 417.789 339.761 418.949 347.681C419.229 349.562 419.437 351.466 419.644 353.372L419.645 353.374C419.844 355.206 420.044 357.038 420.309 358.851C388.369 369.011 356.529 378.141 323.369 383.501C296.62 387.833 269.559 389.901 242.53 391.966H242.53L242.527 391.966L242.524 391.967L242.522 391.967L242.519 391.967L242.517 391.967L242.514 391.967L242.512 391.967L242.51 391.968C234.664 392.567 226.821 393.167 218.989 393.821C214.578 394.187 210.165 394.547 205.752 394.907C193.058 395.941 180.36 396.976 167.679 398.171C152.899 399.601 137.959 401.301 124.179 407.171C122.288 407.979 120.442 408.887 118.649 409.891ZM352.889 229.711C354.269 228.32 355.049 226.441 355.059 224.481H355.099C355.08 222.518 354.285 220.641 352.889 219.261C351.504 217.873 349.624 217.093 347.664 217.093C345.703 217.093 343.823 217.873 342.439 219.261C341.051 220.646 340.27 222.526 340.27 224.486C340.27 226.447 341.051 228.327 342.439 229.711C343.823 231.099 345.703 231.879 347.664 231.879C349.624 231.879 351.504 231.099 352.889 229.711ZM344.598 109.891C348.188 117.511 351.147 126.611 349.128 135.051C348.956 135.602 348.445 135.978 347.868 135.978C347.29 135.978 346.78 135.602 346.608 135.051C345.044 130.215 344.368 125.044 343.695 119.897V119.897C343.296 116.849 342.899 113.808 342.319 110.851C342.069 109.561 343.958 108.561 344.598 109.891ZM338.359 67.3012C336.879 57.4212 335.219 47.6412 333.019 37.8912V37.9512C332.823 37.5808 332.417 37.3718 332.001 37.4276C331.586 37.4835 331.25 37.7922 331.159 38.2012C331.739 47.7412 332.799 57.1612 334.069 66.6312C334.348 68.7201 334.595 70.8467 334.844 72.991C335.697 80.352 336.575 87.9214 338.899 94.8912C339.113 95.4663 339.708 95.8058 340.312 95.6977C340.916 95.5896 341.357 95.0649 341.359 94.4512C341.664 87.4331 340.463 80.1886 339.294 73.1343C338.969 71.1722 338.646 69.2248 338.359 67.3012ZM313.508 164.681C316.397 161.562 320.291 159.558 324.508 159.021C328.858 156.091 335.077 157.301 339.507 160.331C344.764 164.114 347.817 170.246 347.667 176.721C347.377 189.521 333.867 198.991 321.858 194.581C309.569 190.051 304.899 174.891 313.508 164.681ZM214.429 208.581C213.029 206.571 209.149 206.421 208.629 209.341C205.119 228.891 222.459 250.261 243.079 244.281C267.079 237.321 271.049 207.121 260.229 187.761C257.009 182.001 248.129 185.931 249.719 192.191C253.199 206.001 257.249 226.091 239.719 232.191C227.818 236.327 223.209 226.364 218.951 217.161C217.495 214.014 216.08 210.956 214.429 208.581ZM133.309 249.891C132.332 251.124 131.008 252.037 129.509 252.511L128.779 252.781C126.289 253.691 123.179 252.621 121.379 250.831C118.42 247.858 118.42 243.054 121.379 240.081C123.295 238.113 126.141 237.363 128.779 238.131L129.509 238.391C131.329 238.94 132.885 240.14 133.879 241.761C134.483 242.901 134.825 244.162 134.879 245.451C134.884 247.068 134.329 248.637 133.309 249.891ZM142.899 184.611C133.899 179.891 118.419 184.891 118.389 196.491C118.395 196.709 118.419 196.927 118.459 197.141C117.55 200.852 118.128 204.771 120.069 208.061C125.499 217.261 139.569 220.001 146.969 211.611C153.899 203.681 152.659 189.711 142.899 184.611ZM97.2486 229.061C101.949 238.981 105.519 250.651 104.639 261.761C104.614 262.492 104.067 263.098 103.342 263.197C102.618 263.296 101.928 262.858 101.709 262.161C99.7093 255.458 98.3548 248.445 97.0083 241.475C96.2738 237.672 95.5417 233.882 94.7086 230.161C94.3586 228.661 96.5386 227.581 97.2486 229.061ZM77.397 145.151C74.1629 129.509 70.9658 114.045 65.7586 98.8912C65.5533 98.3132 64.9366 97.9919 64.3453 98.1549C63.754 98.3178 63.3889 98.9096 63.5086 99.5112C66.9979 112.092 69.3487 124.98 71.6945 137.84C72.4345 141.896 73.174 145.95 73.9486 149.991C74.212 151.359 74.4732 152.743 74.7367 154.139C77.4545 168.538 80.4093 184.192 88.3586 196.471C88.6704 196.948 89.2785 197.134 89.8038 196.913C90.3291 196.692 90.6215 196.128 90.4986 195.571C88.8251 188.482 86.8411 181.501 84.854 174.509C82.3171 165.583 79.7752 156.639 77.8686 147.431C77.7112 146.671 77.554 145.911 77.397 145.151Z" fill="#00AEEF"/>
<path d="M206.768 471.581C205.998 465.161 204.908 458.771 203.528 452.461C202.328 447.001 201.618 436.981 195.368 435.461C189.998 434.141 181.958 436.111 176.778 437.271C173.608 437.971 171.048 438.601 168.348 440.391C168.218 440.481 168.108 440.591 167.988 440.691C171.828 449.541 173.628 459.331 175.558 468.691C177.878 479.925 179.962 491.195 181.808 502.501C183.578 513.331 185.178 524.191 186.498 535.081C187.328 541.871 188.418 548.881 189.058 555.871C191.679 552.596 194.555 549.533 197.658 546.711C200.81 543.698 204.679 541.539 208.898 540.441C207.368 529.981 209.128 518.281 208.988 508.001C208.899 495.83 208.158 483.673 206.768 471.581Z" fill="#BE1E2D"/>
<path d="M137.542 202.601C138.982 200.601 138.662 196.881 136.061 196.131C133.461 195.381 131.421 197.481 129.73 199.381C129.765 200.338 130.117 201.256 130.731 201.991C132.361 204.091 135.901 205.001 137.542 202.601Z" fill="white"/>
<path fill-rule="evenodd" clip-rule="evenodd" d="M267.829 473.891L268.348 473.835C286.586 471.854 304.832 469.871 323.069 467.781C359.376 463.655 395.676 459.455 431.969 455.181C438.879 454.361 442.519 445.481 435.709 441.381C435.39 441.19 435.07 440.997 434.748 440.804C423.791 434.23 411.164 426.654 405.889 414.501C399.819 400.501 408.159 388.851 419.009 380.621C420.316 380.223 421.598 379.749 422.849 379.201C423.3 379.008 423.759 378.817 424.222 378.625C428.285 376.934 432.622 375.129 434.049 370.721C434.201 370.213 434.259 369.681 434.219 369.151C434.359 368.865 434.473 368.568 434.559 368.261C437.05 359.677 434.959 349.046 433.11 339.641L433.109 339.64C432.679 337.454 432.263 335.334 431.919 333.321C429.799 320.971 427.129 308.721 424.149 296.561C419.747 278.621 414.644 260.88 409.541 243.137L409.541 243.136C407.689 236.698 405.838 230.259 404.019 223.811C393.497 186.473 385.134 148.578 376.771 110.687C373.935 97.8371 371.099 84.9879 368.179 72.1612L367.521 69.2587L367.519 69.2518C364.49 55.9005 361.459 42.5435 358.289 29.2212C358.238 29.0101 358.163 28.6613 358.065 28.2017C357.307 24.6783 355.15 14.6443 351.779 10.2212C352.094 8.48384 351.443 6.71228 350.079 5.59123C340.649 -1.88877 328.749 -0.408769 317.599 1.75123C313.758 2.48151 309.925 3.23735 306.094 3.99285L306.094 3.99301C297.02 5.7824 287.957 7.56984 278.809 9.01123C250.406 13.51 221.744 16.1822 192.999 17.0112C185.41 17.2322 177.831 17.3075 170.261 17.3826C150.426 17.5795 130.647 17.7759 110.889 20.5912C98.8403 22.3249 86.904 24.6522 74.9631 26.9803L74.963 26.9804L74.9589 26.9812C73.126 27.3386 71.2929 27.696 69.4593 28.0512C62.2326 29.4512 55.016 30.8946 47.8093 32.3812C46.8621 32.5771 45.9216 32.7558 44.9899 32.9328L44.9893 32.9329C42.1638 33.4697 39.4187 33.9913 36.8093 34.9312C34.815 33.3259 31.8973 33.6391 30.2893 35.6312C23.2893 31.8412 14.6093 38.2712 10.2893 44.4112C2.90929 54.8112 0.589289 67.9112 0.109289 80.4112C-0.870055 105.98 4.90436 131.649 10.5508 156.749C11.8231 162.405 13.0888 168.031 14.2693 173.621C27.4293 235.931 41.0293 298.201 57.7393 359.671C62.4493 377.001 67.3893 394.261 72.7393 411.421C73.9601 415.367 75.1271 419.415 76.3052 423.501C80.1546 436.852 84.1218 450.611 90.4693 462.571C90.9712 463.539 91.6983 464.373 92.5893 465.001C102.189 492.378 132.78 489.156 157.86 486.514C160.997 486.184 164.047 485.862 166.959 485.611C168.049 491.801 169.089 498.001 170.039 504.221C171.759 515.531 173.209 526.891 174.529 538.221C174.966 541.998 175.275 545.823 175.585 549.658C176.16 556.789 176.738 563.952 178.149 570.891C178.949 574.831 182.709 575.751 185.699 574.561C186.717 574.463 187.681 574.054 188.459 573.391C190.813 571.406 193.15 568.514 195.592 565.492C201.183 558.574 207.323 550.977 215.459 552.021C219.949 552.591 222.099 547.571 220.979 543.891C222.452 538.301 222.393 532.295 222.335 526.444V526.444V526.443V526.442C222.32 524.863 222.304 523.296 222.319 521.751C222.409 513.101 222.369 504.461 222.029 495.821C221.796 490.028 221.416 484.235 220.889 478.441C225.678 478.406 230.528 477.85 235.312 477.303C237.231 477.083 239.14 476.864 241.029 476.681C249.949 475.801 258.899 474.891 267.829 473.891ZM50.8293 43.3512C57.1026 42.4112 63.3593 41.4112 69.5993 40.3512C73.3167 39.7428 77.0333 39.1181 80.7506 38.4933L80.7513 38.4932L80.752 38.4931L80.7527 38.493L80.7529 38.4929C90.4147 36.8691 100.081 35.2444 109.779 33.9012C129.354 31.1811 148.992 31.1993 168.662 31.2175C176.253 31.2246 183.85 31.2316 191.449 31.0812C217.884 30.5588 244.264 28.4651 270.449 24.8112C283.729 22.9646 296.946 20.7179 310.099 18.0712C311.742 17.7409 313.385 17.3827 315.031 17.0241L315.031 17.0239C319.213 16.1123 323.408 15.1977 327.649 14.7312C332.764 14.163 337.648 14.7082 342.649 15.2666L342.959 15.3012C342.794 17.746 343.3 20.3586 343.791 22.8939L343.791 22.8952C343.923 23.5743 344.053 24.2479 344.169 24.9112C345.373 31.731 346.815 38.5304 348.254 45.315C348.56 46.7577 348.866 48.1998 349.169 49.6412C352.376 65.0612 355.606 80.4812 358.859 95.9012C359.941 101.024 361.017 106.149 362.093 111.275L362.094 111.278C367.592 137.47 373.095 163.682 379.409 189.691C384.194 209.448 389.757 228.994 395.319 248.54L395.32 248.543C398.314 259.061 401.307 269.58 404.179 280.131C408.179 294.661 411.819 309.271 414.819 324.021C416.419 331.875 417.806 339.761 418.979 347.681C419.26 349.562 419.467 351.467 419.675 353.372C419.875 355.204 420.075 357.037 420.339 358.851C388.419 369.011 356.559 378.141 323.399 383.501C297.267 387.751 270.796 389.803 244.36 391.852H244.359C235.895 392.508 227.434 393.164 218.989 393.891C214.594 394.256 210.198 394.615 205.801 394.973L205.755 394.977C193.06 396.011 180.361 397.046 167.679 398.241C152.899 399.631 137.959 401.331 124.179 407.241C122.289 408.049 120.443 408.957 118.649 409.961C101.489 349.021 87.4993 287.371 74.8993 225.431C70.6703 204.574 66.7279 183.672 62.7843 162.764L62.7836 162.76L62.7831 162.757L62.783 162.757L62.7824 162.754C60.8332 152.42 58.8838 142.084 56.8993 131.751C55.2313 122.977 53.6695 114.158 52.1061 105.331L52.1061 105.331C48.5238 85.1037 44.9334 64.831 40.0393 44.9412C42.6694 44.7755 45.2891 44.3034 47.8648 43.8393L47.8649 43.8393L47.8654 43.8392C48.864 43.6592 49.8559 43.4805 50.8393 43.3212L50.8293 43.3512ZM94.7828 430.649C95.0384 431.356 95.2941 432.063 95.5493 432.771L95.5593 432.741C98.5461 427.304 102.423 422.406 107.029 418.251C106.582 417.593 106.244 416.867 106.029 416.101C88.3993 353.941 73.8993 290.891 61.4393 227.571C55.1993 195.851 49.2093 164.061 43.8393 132.181C42.754 125.739 41.6281 119.293 40.5012 112.841C36.7582 91.4113 33.0051 69.9235 30.6993 48.3412C29.287 48.6296 27.8185 48.3142 26.6493 47.4712C22.5093 44.7312 16.3693 61.8512 15.6993 64.3812C13.7993 71.5012 13.4693 78.9912 13.5693 86.3812C13.7793 101.941 16.6193 117.221 19.7793 132.381C31.1693 187.151 42.9793 241.841 56.3093 296.151C62.8693 323.091 70.016 349.868 77.7493 376.481C81.7493 390.275 85.9293 404.018 90.2893 417.711C91.6553 421.998 93.2132 426.307 94.779 430.638L94.7828 430.649ZM208.899 540.441C204.695 541.553 200.844 543.718 197.709 546.731C194.606 549.553 191.73 552.616 189.109 555.891C188.687 551.272 188.069 546.652 187.458 542.093L187.458 542.09C187.144 539.741 186.831 537.409 186.549 535.101C185.229 524.211 183.629 513.351 181.859 502.521C180.006 491.188 177.923 479.918 175.609 468.711C175.443 467.9 175.277 467.087 175.111 466.271C173.353 457.638 171.548 448.77 168.039 440.711C168.079 440.678 168.118 440.643 168.157 440.609C168.235 440.54 168.313 440.471 168.399 440.411C171.099 438.621 173.659 437.991 176.829 437.291C177.128 437.224 177.436 437.155 177.752 437.083C182.927 435.915 190.359 434.237 195.419 435.481C200.738 436.783 202.074 444.234 203.069 449.785L203.069 449.786C203.243 450.757 203.407 451.67 203.579 452.481C204.959 458.791 206.049 465.181 206.819 471.601C208.161 483.689 208.856 495.839 208.899 508.001C208.965 511.735 208.774 515.657 208.581 519.638C208.241 526.618 207.893 533.781 208.899 540.441ZM219.698 467.78C219.698 467.784 219.699 467.787 219.699 467.791H219.649C219.665 467.787 219.682 467.784 219.698 467.78ZM215.699 445.971C217.397 453.169 218.732 460.448 219.698 467.78C224.555 466.641 229.606 466.019 234.6 465.405C236.757 465.139 238.904 464.875 241.019 464.571C249.969 463.291 258.889 462.121 267.889 460.951C272.456 460.359 277.022 459.765 281.587 459.171C294.908 457.437 308.226 455.704 321.549 454.021C351.476 450.241 381.409 446.521 411.349 442.861C401.309 435.121 392.769 425.621 390.039 412.921C387.969 403.321 390.119 392.011 395.619 383.231C373.774 389.642 351.543 394.653 329.059 398.231C299.838 403.047 270.189 405.175 240.63 407.296L239.449 407.381C228.932 408.139 218.414 408.86 207.894 409.582C202.72 409.937 197.545 410.292 192.369 410.651C188.31 410.933 184.229 411.155 180.141 411.378C169.436 411.961 158.686 412.547 148.149 414.211C126.939 417.561 96.5793 432.331 103.939 459.261C107.319 471.621 120.439 476.181 131.999 477.011C138.18 477.452 144.307 477.188 150.424 476.924C155.4 476.71 160.371 476.495 165.359 476.661C165.243 476.032 165.131 475.403 165.018 474.774C164.839 473.774 164.66 472.776 164.469 471.781C164.02 469.497 163.529 467.199 163.035 464.891C161.266 456.618 159.469 448.213 159.469 439.831C159.009 438.786 158.921 437.614 159.219 436.511C163.159 424.031 181.969 422.851 192.859 422.511C208.429 422.031 212.499 432.511 215.699 445.971Z" fill="#231F20"/>
<path d="M243.049 244.291C267.048 237.291 271.048 207.131 260.198 187.771C256.979 182.011 248.099 185.941 249.689 192.201C253.199 206.001 257.249 226.091 239.689 232.201C223.689 237.751 220.879 217.911 214.399 208.591C212.999 206.591 209.119 206.431 208.599 209.351C205.119 228.891 222.459 250.261 243.049 244.291Z" fill="#231F20"/>
<path fill-rule="evenodd" clip-rule="evenodd" d="M146.949 211.571C139.549 219.961 125.479 217.221 120.049 208.021C118.081 204.727 117.484 200.791 118.389 197.061C118.375 196.858 118.375 196.654 118.389 196.451C118.419 184.811 133.879 179.861 142.879 184.571C152.639 189.711 153.899 203.681 146.949 211.571ZM137.529 202.601C138.969 200.561 138.649 196.881 136.049 196.131H136.059C133.399 195.361 131.419 197.481 129.679 199.381C129.714 200.338 130.066 201.256 130.679 201.991C132.349 204.091 135.839 205.001 137.529 202.601Z" fill="#231F20"/>
<path fill-rule="evenodd" clip-rule="evenodd" d="M347.711 176.721C347.421 189.521 333.901 198.991 321.901 194.581C309.571 190.051 304.901 174.891 313.551 164.681C316.44 161.562 320.334 159.558 324.551 159.021C328.881 156.091 335.101 157.331 339.551 160.331C344.808 164.114 347.862 170.246 347.711 176.721ZM325.851 169.151C324.133 170.28 322.704 171.798 321.681 173.581L321.691 173.571C320.959 175.54 321.158 177.735 322.233 179.54C323.307 181.345 325.141 182.566 327.221 182.861C329.188 182.981 331.111 182.247 332.498 180.847C333.885 179.447 334.6 177.517 334.461 175.551C333.934 171.479 330.648 170.539 327.377 169.603C326.864 169.456 326.352 169.31 325.851 169.151Z" fill="#231F20"/>
<path d="M129.509 238.371L128.779 238.111C126.141 237.343 123.295 238.093 121.379 240.061C118.421 243.034 118.421 247.838 121.379 250.811C123.179 252.601 126.289 253.671 128.779 252.761L129.509 252.491C131.009 252.017 132.332 251.104 133.309 249.871C134.329 248.617 134.884 247.048 134.879 245.431C134.825 244.142 134.483 242.881 133.879 241.741C132.885 240.12 131.33 238.92 129.509 238.371Z" fill="#231F20"/>
<path d="M342.481 219.261C341.093 220.646 340.312 222.526 340.312 224.486C340.312 226.447 341.093 228.327 342.481 229.711C343.865 231.099 345.745 231.879 347.706 231.879C349.666 231.879 351.546 231.099 352.931 229.711C354.319 228.327 355.099 226.447 355.099 224.486C355.099 222.526 354.319 220.646 352.931 219.261C351.546 217.873 349.666 217.093 347.706 217.093C345.745 217.093 343.865 217.873 342.481 219.261Z" fill="#231F20"/>
<path d="M73.951 149.941C76.951 165.441 79.641 182.941 88.361 196.421C88.6727 196.898 89.2809 197.084 89.8062 196.863C90.3315 196.643 90.6238 196.078 90.501 195.521C86.691 179.351 81.241 163.711 77.871 147.381C74.501 131.051 71.221 114.731 65.761 98.8413C65.5556 98.2634 64.9389 97.9421 64.3476 98.105C63.7564 98.2679 63.3913 98.8598 63.511 99.4613C68.101 116.011 70.721 133.091 73.951 149.941Z" fill="#231F20"/>
<path d="M101.71 262.161C101.929 262.859 102.619 263.296 103.344 263.197C104.068 263.098 104.615 262.492 104.64 261.761C105.52 250.651 101.95 238.981 97.2498 229.061C96.5398 227.581 94.3598 228.661 94.6998 230.141C97.0698 240.701 98.6198 251.801 101.71 262.161Z" fill="#231F20"/>
<path d="M338.898 94.8912C339.072 95.4951 339.662 95.8806 340.285 95.798C340.908 95.7155 341.377 95.1896 341.387 94.5612C341.747 85.5612 339.677 76.2512 338.387 67.4112C336.907 57.5312 335.247 47.7512 333.048 38.0012C332.852 37.6309 332.446 37.4219 332.03 37.4777C331.615 37.5335 331.279 37.8423 331.188 38.2512C331.767 47.7912 332.828 57.2512 334.098 66.6812C335.307 75.8912 335.898 85.8912 338.898 94.8912Z" fill="#231F20"/>
<path d="M346.61 135.071C346.782 135.622 347.292 135.998 347.87 135.998C348.447 135.998 348.957 135.622 349.13 135.071C351.13 126.631 348.19 117.531 344.6 109.911C343.96 108.561 342.07 109.561 342.32 110.911C343.9 118.821 344.12 127.371 346.61 135.071Z" fill="#231F20"/>
</svg>
