<svg width="583" height="402" viewBox="0 0 583 402" fill="none" xmlns="http://www.w3.org/2000/svg">
<path fill-rule="evenodd" clip-rule="evenodd" d="M507.963 191.796C488.566 150.468 460.182 115.582 431.724 80.6062L431.724 80.6056C420.1 66.3192 408.464 52.0178 397.423 37.2563C378.023 54.3463 358.153 70.9263 338.143 87.2563C302.355 116.479 265.967 144.964 229.578 173.451C209.933 188.83 190.286 204.21 170.733 219.706C116.903 262.376 64.4932 306.646 12.5332 351.546C27.2233 351.786 41.9071 352.272 56.5913 352.757L56.5942 352.757L56.5971 352.757L56.6001 352.757L56.603 352.757L56.6059 352.757H56.607H56.6081H56.6091H56.6102H56.6112C73.7276 353.323 90.8446 353.889 107.973 354.066C113.973 340.696 128.403 331.626 143.293 334.066C157.633 336.416 167.733 348.066 170.223 361.716C185.922 362.432 201.627 363.055 217.331 363.678C228.396 364.116 239.462 364.555 250.523 365.026C258.893 340.356 285.193 323.516 311.263 326.226C336.673 328.856 357.263 347.856 365.633 371.316C375.164 361.694 388.997 357.691 402.194 360.736C415.392 363.781 426.072 373.441 430.423 386.266C462.843 385.426 495.053 386.446 527.313 388.766C527.787 380.116 528.377 371.476 528.966 362.839L528.966 362.836V362.836V362.836V362.835V362.835C530.652 338.133 532.336 313.454 531.313 288.626C530.071 255.115 522.132 222.191 507.963 191.796ZM146.163 287.386C139.463 291.246 131.923 293.656 124.463 296.036C122.543 297.676 120.633 299.336 118.763 301.036C116.293 303.266 113.213 301.776 112.243 299.356C111.456 299.01 110.942 298.236 110.929 297.376C110.916 296.515 111.406 295.726 112.183 295.356C112.35 295.27 112.514 295.175 112.678 295.081L112.679 295.08L112.683 295.078L112.688 295.074C112.767 295.029 112.845 294.984 112.925 294.939L112.983 294.906C118.693 285.586 138.603 257.626 150.683 270.156C156.223 275.936 152.073 284.036 146.163 287.426V287.386ZM194.617 328.493L194.619 328.493C196.428 328.663 198.191 328.828 199.883 329.006V329.046C205.833 329.676 212.823 329.036 212.083 321.056C210.613 305.036 179.173 313.766 168.293 317.246C167.19 317.308 166.091 317.435 165.003 317.626C162.943 318.016 162.693 320.096 163.633 321.476C163.595 322.618 164.078 323.715 164.945 324.458C165.813 325.201 166.971 325.51 168.093 325.296C169.313 325.156 170.533 325.076 171.743 325.006C178.966 327.025 187.179 327.795 194.617 328.493ZM265.983 276.796C260.351 277.081 254.5 276.565 248.792 276.06L248.791 276.06C247.486 275.945 246.189 275.831 244.903 275.726L244.247 275.672C239.212 275.252 234.145 274.829 229.363 273.286L228.613 273.406C224.513 274.106 221.863 267.836 226.073 266.246C229.034 265.123 232.137 263.788 235.325 262.416C244.423 258.501 254.216 254.288 263.383 253.836C270.383 253.486 279.193 257.196 279.813 265.196C280.433 273.196 272.803 276.436 265.983 276.796ZM266.283 214.786C270.743 212.546 275.233 210.356 279.843 208.446V208.436C286.423 205.726 293.353 200.376 288.103 192.546C283.403 185.546 274.373 186.606 268.613 191.546C263.023 196.386 259.323 202.846 256.373 209.546C253.556 211.62 251.157 214.209 249.303 217.176C248.733 218.084 248.754 219.243 249.357 220.13C249.96 221.016 251.029 221.462 252.083 221.266C253.469 220.953 254.824 220.518 256.133 219.966C257.184 220.306 258.336 220.041 259.133 219.276L260.683 217.786C261.376 217.418 262.065 217.041 262.752 216.665L262.752 216.665C263.93 216.021 265.103 215.38 266.283 214.786ZM354.343 215.356C353.389 215.23 352.56 214.637 352.132 213.774C351.705 212.911 351.735 211.892 352.213 211.056L352.273 210.986C352.381 210.809 352.512 210.648 352.663 210.506C353.527 209.402 354.536 208.42 355.663 207.586C356.885 205.79 357.842 203.854 358.801 201.917C360.046 199.398 361.292 196.877 363.123 194.656C365.903 191.201 369.423 188.412 373.423 186.496C379.833 183.496 389.473 182.906 394.153 189.306C399.443 196.556 393.153 201.966 386.743 204.676C380.943 207.146 375.093 209.536 369.203 211.776C368.474 212.054 367.737 212.349 366.993 212.646C362.915 214.278 358.64 215.989 354.343 215.346V215.356ZM381.563 321.436C390.553 322.306 400.383 321.546 408.493 320.796C416.003 320.126 424.063 314.946 421.013 306.266C413.263 284.206 379.043 307.456 368.873 314.716C364.673 317.706 368.633 324.586 373.293 323.436C375.376 322.906 377.464 322.411 379.553 321.915C380.223 321.756 380.893 321.597 381.563 321.436Z" fill="#BE1E2D"/>
<path d="M426.085 11.2461C419.705 17.2461 413.251 23.1628 406.725 28.9961C426.315 50.8161 444.665 74.0861 462.605 97.2461C493.265 136.816 521.605 179.556 534.765 228.406C548.825 280.586 544.255 336.646 535.365 389.346C540.015 389.716 544.665 390.096 549.315 390.516C560.125 360.446 569.215 330.236 570.075 297.996C571.595 241.246 552.415 185.666 525.475 136.406C499.545 88.9661 466.005 47.5261 426.085 11.2461Z" fill="#009444"/>
<path fill-rule="evenodd" clip-rule="evenodd" d="M497.184 70.6163C477.524 45.6663 455.884 22.2063 431.754 1.52629C430.555 0.4612 428.866 0.145697 427.364 0.706295C425.699 -0.0587991 423.74 0.227211 422.364 1.43629C404.993 15.5999 387.689 29.8342 370.387 44.0673L370.381 44.072C333.25 74.616 296.126 105.154 258.364 134.976C246.781 144.123 235.18 153.248 223.578 162.374L223.572 162.378L223.571 162.379C179.264 197.23 134.95 232.086 91.634 268.166C60.804 293.856 30.564 320.166 2.07403 348.406C1.07756 349.357 0.55414 350.702 0.644878 352.076C0.735616 353.451 1.43117 354.714 2.54403 355.526C2.57922 357.504 4.11161 359.132 6.08403 359.286C40.844 363.636 76.234 364.206 111.234 364.386C113.53 364.472 115.619 363.066 116.404 360.906C124.044 336.426 160.204 339.366 161.754 365.856C161.904 368.276 163.344 370.556 166.044 370.666C183.49 371.364 200.936 372.194 218.381 373.024L218.394 373.025C230.184 373.585 241.974 374.146 253.764 374.666C255.884 374.761 257.817 373.458 258.524 371.456C264.524 348.776 287.454 333.456 310.774 335.746C335.164 338.156 354.224 358.796 359.374 381.946C360.194 385.626 365.454 386.846 367.534 383.496C373.825 373.171 385.76 367.703 397.688 369.683C409.617 371.663 419.145 380.692 421.764 392.496C422.234 394.496 424.194 396.496 426.414 396.496C468.414 395.496 510.864 396.786 552.644 401.496C555.064 401.766 557.074 399.996 557.944 397.926C569.774 369.926 579.274 341.306 581.814 310.846C584.244 281.676 581.084 252.076 574.104 223.716C560.344 167.946 532.554 115.516 497.184 70.6163ZM527.284 388.796C495.024 386.476 462.814 385.456 430.394 386.296C426.034 373.488 415.361 363.845 402.178 360.803C388.994 357.761 375.175 361.753 365.644 371.356C357.304 347.896 336.644 328.896 311.274 326.266C285.204 323.556 258.904 340.396 250.534 365.066C239.472 364.595 228.407 364.156 217.342 363.717C201.638 363.095 185.932 362.472 170.234 361.756C167.744 348.076 157.644 336.456 143.304 334.106C128.414 331.666 113.954 340.736 107.984 354.106C90.854 353.929 73.7356 353.363 56.6178 352.797H56.6168L56.6138 352.797C41.9257 352.312 27.2381 351.826 12.544 351.586C64.544 306.686 116.914 262.416 170.744 219.746C190.278 204.265 209.905 188.904 229.531 173.543L229.532 173.543C265.94 145.048 302.347 116.554 338.154 87.2963C358.154 70.9563 378.034 54.3763 397.434 37.2963C408.47 52.0548 420.101 66.3535 431.722 80.6382L431.722 80.6385L431.722 80.6387C460.178 115.619 488.566 150.516 507.964 191.876C522.114 222.261 530.039 255.171 531.274 288.666C532.304 313.467 530.622 338.142 528.936 362.857C528.347 371.496 527.758 380.14 527.284 388.796ZM549.314 390.546C560.124 360.476 569.214 330.266 570.074 298.026V297.996C571.594 241.246 552.424 185.666 525.474 136.406C499.544 88.9663 466.004 47.5263 426.084 11.2463C419.697 17.2263 413.244 23.143 406.724 28.9963C426.314 50.7963 444.664 74.0863 462.604 97.2763C493.264 136.846 521.594 179.586 534.764 228.436C548.824 280.616 544.254 336.676 535.364 389.376C540.014 389.746 544.664 390.126 549.314 390.546Z" fill="#231F20"/>
<path d="M368.874 314.716C364.674 317.716 368.634 324.586 373.294 323.436C376.044 322.756 378.804 322.116 381.564 321.436C390.564 322.306 400.384 321.546 408.494 320.796C416.004 320.106 424.064 314.926 421.014 306.246C413.264 284.206 379.044 307.456 368.874 314.716Z" fill="#231F20"/>
<path d="M386.755 204.676C393.135 201.966 399.455 196.556 394.165 189.306C389.485 182.906 379.845 183.526 373.435 186.496C369.44 188.408 365.924 191.189 363.145 194.636C359.905 198.576 358.495 203.436 355.685 207.566C354.558 208.4 353.549 209.382 352.685 210.486C352.534 210.628 352.402 210.789 352.295 210.966L352.235 211.036C351.757 211.872 351.726 212.891 352.154 213.754C352.581 214.617 353.41 215.21 354.365 215.336C359.465 216.096 364.495 213.566 369.235 211.766C375.105 209.536 380.955 207.146 386.755 204.676Z" fill="#231F20"/>
<path d="M268.655 191.577C263.065 196.387 259.365 202.847 256.415 209.577C253.597 211.65 251.198 214.239 249.345 217.207C248.775 218.114 248.796 219.273 249.399 220.16C250.001 221.046 251.071 221.492 252.125 221.297C253.51 220.983 254.866 220.548 256.175 219.997C257.226 220.336 258.378 220.071 259.175 219.307L260.725 217.817C262.605 216.817 264.455 215.747 266.325 214.817C270.785 212.577 275.275 210.387 279.885 208.477C286.425 205.767 293.395 200.417 288.185 192.617C283.425 185.547 274.425 186.637 268.655 191.577Z" fill="#231F20"/>
<path d="M263.425 253.796C251.045 254.406 237.525 261.876 226.115 266.206C221.905 267.796 224.555 274.066 228.655 273.366L229.405 273.246C234.405 274.856 239.695 275.246 244.945 275.686C251.855 276.246 259.105 277.106 266.025 276.756C272.945 276.406 280.485 273.276 279.855 265.156C279.225 257.036 270.335 253.476 263.425 253.796Z" fill="#231F20"/>
<path d="M168.295 317.276C167.192 317.338 166.093 317.465 165.005 317.656C162.945 318.046 162.695 320.126 163.635 321.506C163.597 322.648 164.079 323.745 164.947 324.488C165.814 325.231 166.973 325.54 168.095 325.326C169.315 325.186 170.535 325.106 171.745 325.036C180.745 327.556 191.235 328.136 199.885 329.036C205.835 329.666 212.825 329.036 212.085 321.036C210.615 305.066 179.175 313.796 168.295 317.276Z" fill="#231F20"/>
<path d="M112.984 294.946C112.714 295.096 112.454 295.256 112.184 295.396C111.407 295.766 110.917 296.555 110.93 297.416C110.943 298.276 111.456 299.05 112.244 299.396C113.244 301.816 116.294 303.306 118.764 301.076C120.634 299.386 122.544 297.726 124.464 296.076C131.924 293.696 139.464 291.286 146.164 287.426C152.074 284.036 156.224 275.936 150.684 270.196C138.604 257.666 118.694 285.626 112.984 294.946Z" fill="#231F20"/>
</svg>
