<svg width="548" height="408" viewBox="0 0 548 408" fill="none" xmlns="http://www.w3.org/2000/svg">
<path fill-rule="evenodd" clip-rule="evenodd" d="M21.7248 142.916C46.4448 87.2556 97.7248 46.2756 154.285 26.1056C222.215 1.88555 298.095 5.60555 366.815 24.6056C428.085 41.6056 487.815 74.8156 517.955 133.156C534.819 165.999 541.639 203.081 537.565 239.776C535.655 256.806 530.705 276.226 515.505 286.076C506.156 292.134 495.109 294.216 484.097 296.292C477.204 297.591 470.325 298.888 463.885 301.156C462.255 301.676 460.635 303.256 460.805 305.156C463.515 336.306 453.835 371.936 430.965 394.306C423.685 401.416 414.435 399.326 409.055 391.086C404.495 384.106 403.115 374.836 402.115 366.706C400.118 349.034 402.072 331.14 407.835 314.316C408.785 311.576 406.395 309.186 403.835 309.016C389.061 308.051 374.266 310.558 360.635 316.336C358.275 315.556 355.345 316.716 355.525 319.916C356.195 331.786 357.055 364.916 338.465 364.916C330.415 364.936 326.165 355.556 324.035 349.166C322.488 344.503 321.951 339.789 321.415 335.078C321.011 331.534 320.608 327.992 319.775 324.476C319.449 323.11 318.174 322.188 316.775 322.306C315.827 321.148 314.328 320.593 312.855 320.856C301.202 322.711 289.399 323.461 277.605 323.096C275.416 323.143 273.652 324.906 273.605 327.096C273.463 330.591 273.445 334.143 273.427 337.715V337.717C273.37 348.975 273.312 360.435 269.365 370.956C265.125 382.276 253.915 393.926 240.785 391.276C226.455 388.406 220.075 373.046 217.005 360.406C213.482 345.6 211.418 330.484 210.845 315.276C210.782 313.093 209.027 311.338 206.845 311.276C186.167 310.458 165.586 308.004 145.295 303.936C144.123 303.652 142.885 303.912 141.926 304.643C140.968 305.375 140.39 306.5 140.355 307.706C139.23 320.634 136.288 333.339 131.615 345.446C127.655 355.676 117.315 374.986 103.795 364.886C94.5657 357.991 94.1908 343.671 93.8992 332.536C93.8672 331.316 93.8363 330.135 93.7948 329.006C93.3048 315.276 94.3048 301.686 95.3648 288.006C95.6248 284.646 90.6448 283.596 89.1448 286.146C59.1248 289.106 31.2548 269.546 18.0348 243.266C2.34484 212.086 8.08484 173.696 21.7248 142.916ZM96.7248 206.206C97.91 209.102 100.777 210.951 103.905 210.836C111.345 210.266 113.995 199.006 107.485 195.316C105.766 194.334 103.733 194.058 101.815 194.546C101.224 194.167 100.5 194.06 99.8247 194.251C99.1497 194.442 98.5891 194.913 98.2848 195.546C98.2114 195.709 98.1377 195.872 98.064 196.035C96.5715 199.337 95.0953 202.603 96.7248 206.206ZM153.905 168.646C146.105 169.466 136.735 165.236 131.785 159.206C126.305 152.526 126.095 142.316 128.565 134.386C129.465 131.486 133.315 132.276 133.565 135.066C133.733 136.779 133.757 138.565 133.781 140.366C133.853 145.827 133.926 151.424 138.055 155.546C142.255 159.726 149.875 162.606 155.635 160.706C167.503 156.797 168.554 144.718 169.5 133.832C169.75 130.959 169.993 128.17 170.425 125.636C170.985 122.376 176.575 122.316 177.075 125.636C179.555 141.806 173.515 166.606 153.925 168.606L153.905 168.646ZM466.905 164.336C466.213 164.315 465.527 164.462 464.905 164.766H464.945C462.878 165.852 461.691 168.096 461.955 170.416C462.216 172.476 463.358 174.322 465.085 175.476C466.731 176.572 468.767 176.91 470.679 176.405C472.591 175.901 474.195 174.601 475.085 172.836C476.088 170.896 476.129 168.599 475.195 166.626C474.202 164.576 472.079 163.32 469.805 163.436C468.781 163.502 467.787 163.81 466.905 164.336ZM392.565 126.766C393.465 132.646 395.175 138.996 399.565 143.286C404.935 148.496 413.385 147.986 420.225 146.586C433.644 143.841 433.991 128.962 434.275 116.778V116.777C434.336 114.18 434.394 111.705 434.575 109.496C434.865 105.986 440.465 104.656 441.145 108.606C442.851 119.016 442.021 129.684 438.725 139.706C435.725 148.196 429.225 152.906 420.455 154.266C411.925 155.586 402.455 155.666 395.665 149.576C389.505 144.036 386.945 135.686 386.475 127.646C386.265 124.146 392.075 123.336 392.605 126.816L392.565 126.766ZM290.175 205.446C279.575 206.686 274.145 196.036 272.865 187.176C272.405 184.006 267.405 184.856 267.385 187.916C267.315 201.306 276.945 214.866 291.665 212.756C306.645 210.616 312.095 191.386 306.855 178.946C305.185 174.976 299.505 176.356 300.315 180.746C301.905 189.296 301.725 204.096 290.175 205.446Z" fill="#00AEEF"/>
<path fill-rule="evenodd" clip-rule="evenodd" d="M19.2049 130.346C48.9549 72.1355 106.285 31.1955 168.285 13.2855C241.555 -7.89447 323.565 -0.504465 394.855 24.9555C426.525 36.2655 456.845 52.1455 482.195 74.4555C508.203 97.3169 527.482 126.84 537.955 159.846C547.925 191.286 551.475 228.426 542.225 260.486C537.905 275.456 529.225 289.076 514.955 295.986C506.192 300.229 496.705 302.104 487.214 303.98C481.25 305.159 475.284 306.338 469.495 308.106C470.687 327.17 467.499 346.254 460.175 363.896C456.552 372.718 451.907 381.085 446.335 388.826C446.155 389.074 445.974 389.324 445.792 389.577C441.045 396.147 435.287 404.118 427.265 406.526C408.365 412.206 398.175 391.286 395.365 376.366C391.676 356.667 392.673 336.377 398.275 317.136C386.442 316.988 374.705 319.265 363.785 323.826C364.515 341.736 360.735 372.516 338.515 372.516C328.955 372.526 322.355 364.526 318.855 356.466C315.525 348.776 312.415 337.996 313.215 328.946C302.749 330.515 292.178 331.274 281.595 331.216C281.552 333.351 281.533 335.502 281.514 337.662C281.386 351.786 281.256 366.267 274.655 378.966C268.435 390.936 256.035 401.026 241.915 399.596C226.375 398.026 216.325 384.376 211.605 370.646C206.055 354.456 203.935 336.316 203.055 319.136C184.476 318.165 165.987 315.896 147.725 312.346C146.081 327.461 141.956 342.202 135.515 355.976C130.045 367.306 118.785 378.846 104.905 374.036C91.0249 369.226 87.9749 353.416 86.9049 340.656C85.4422 325.006 85.724 309.243 87.7449 293.656C81.8713 294.171 75.9556 293.926 70.1449 292.926C39.9649 287.646 15.3149 262.906 5.96488 234.346C-5.32512 199.886 3.09488 161.866 19.2049 130.346ZM537.645 239.706C541.719 203.011 534.899 165.929 518.035 133.086C487.815 74.8155 428.085 41.6055 366.815 24.6055C298.095 5.60553 222.215 1.88553 154.285 26.1055C97.7249 46.2755 46.4449 87.2555 21.8449 142.936C8.15488 173.716 2.46488 212.106 18.1549 243.286C31.3749 269.566 59.2649 289.166 89.2649 286.166C90.7649 283.616 95.7449 284.666 95.4849 288.026C94.4249 301.696 93.4249 315.286 93.9149 329.026C93.9536 330.132 93.9823 331.288 94.012 332.481C94.2893 343.627 94.6468 357.995 103.915 364.906C117.435 375.006 127.735 355.696 131.735 345.466C136.408 333.359 139.351 320.654 140.475 307.726C140.51 306.52 141.088 305.395 142.046 304.663C143.005 303.932 144.243 303.672 145.415 303.956C165.706 308.023 186.287 310.478 206.965 311.296C209.148 311.358 210.902 313.113 210.965 315.296C211.538 330.504 213.602 345.62 217.125 360.426C220.195 373.066 226.575 388.406 240.905 391.296C254.035 393.976 265.245 382.286 269.485 370.976C273.456 360.471 273.504 349.031 273.552 337.79C273.567 334.199 273.582 330.629 273.725 327.116C273.773 324.926 275.536 323.163 277.725 323.116C289.509 323.448 301.298 322.668 312.935 320.786C314.408 320.523 315.907 321.078 316.855 322.236C318.254 322.118 319.529 323.04 319.855 324.406C320.688 327.922 321.091 331.464 321.495 335.008C322.031 339.719 322.568 344.433 324.115 349.096C326.245 355.486 330.495 364.846 338.545 364.846C357.135 364.846 356.275 331.756 355.605 319.846C355.425 316.646 358.355 315.486 360.715 316.266C374.346 310.488 389.141 307.981 403.915 308.946C406.445 309.116 408.835 311.506 407.915 314.246C402.152 331.07 400.199 348.964 402.195 366.636C403.135 374.766 404.575 384.016 409.135 391.016C414.515 399.236 423.765 401.346 431.045 394.236C453.885 371.866 463.595 336.216 460.885 305.086C460.715 303.236 462.335 301.656 463.965 301.086C470.4 298.82 477.256 297.533 484.129 296.242C495.125 294.177 506.163 292.104 515.585 286.006C530.895 276.096 535.735 256.706 537.645 239.706Z" fill="#231F20"/>
<path d="M291.665 212.756C306.665 210.616 312.095 191.386 306.855 178.946C305.185 174.946 299.505 176.356 300.315 180.746C301.905 189.296 301.725 204.096 290.175 205.446C279.575 206.686 274.175 196.036 272.865 187.176C272.405 184.006 267.405 184.856 267.385 187.916C267.315 201.306 276.945 214.866 291.665 212.756Z" fill="#231F20"/>
<path d="M170.475 125.606C168.405 137.746 170.695 155.736 155.685 160.676C149.925 162.576 142.305 159.676 138.105 155.516C132.635 150.056 134.295 141.946 133.615 135.036C133.335 132.246 129.485 131.456 128.615 134.356C126.145 142.286 126.355 152.496 131.835 159.176C136.785 165.176 146.155 169.436 153.955 168.616C173.545 166.616 179.585 141.776 177.155 125.616C176.625 122.316 171.035 122.376 170.475 125.606Z" fill="#231F20"/>
<path d="M395.656 149.606C402.436 155.696 411.916 155.606 420.446 154.296C429.216 152.936 435.716 148.226 438.716 139.736C442.027 129.736 442.881 119.085 441.206 108.686C440.526 104.686 434.926 106.066 434.636 109.576C433.636 122.146 436.566 143.336 420.286 146.666C413.446 148.066 404.996 148.576 399.626 143.366C395.216 139.076 393.506 132.726 392.626 126.846C392.096 123.366 386.286 124.176 386.486 127.676C386.936 135.686 389.496 144.036 395.656 149.606Z" fill="#231F20"/>
<path d="M465.144 175.476C466.79 176.572 468.826 176.91 470.738 176.405C472.65 175.901 474.254 174.601 475.144 172.836C476.147 170.896 476.188 168.599 475.254 166.626C474.261 164.576 472.138 163.32 469.864 163.436C468.84 163.502 467.846 163.81 466.964 164.336C466.272 164.315 465.586 164.462 464.964 164.766C462.921 165.869 461.759 168.109 462.034 170.416C462.291 172.472 463.425 174.318 465.144 175.476Z" fill="#231F20"/>
<path d="M107.435 195.315C105.716 194.334 103.683 194.058 101.765 194.545C101.174 194.167 100.449 194.06 99.7745 194.251C99.0995 194.442 98.5389 194.913 98.2346 195.545C96.6346 199.015 94.9646 202.425 96.6746 206.205C97.8661 209.12 100.759 210.973 103.905 210.835C111.345 210.265 113.995 199.005 107.435 195.315Z" fill="#231F20"/>
</svg>
