<svg width="413" height="579" viewBox="0 0 413 579" fill="none" xmlns="http://www.w3.org/2000/svg">
<path d="M26.7757 91.8149C19.9057 92.2049 20.6957 119.065 21.1457 122.135C21.4374 124.581 21.8715 127.009 22.4457 129.405C22.9486 128.864 23.5047 128.375 24.1057 127.945C25.9957 125.945 29.0057 124.725 31.5557 123.855C34.5557 122.855 40.3557 123.465 40.9057 119.365C41.2857 116.625 38.9757 111.365 38.1057 108.765C35.6357 101.345 31.5157 97.5149 26.7757 91.8149Z" fill="#E27683"/>
<path d="M347.986 162.265C350.256 164.995 354.336 163.265 357.086 161.865C366.476 157.005 361.086 144.475 358.226 136.745C357.376 134.475 348.346 111.685 344.226 123.205C343.729 124.446 342.683 125.384 341.396 125.745C341.126 133.745 343.076 141.065 344.936 149.115C345.686 152.225 346.016 159.915 347.986 162.265Z" fill="#E27683"/>
<path d="M212.187 34.2251C211.766 33.9718 211.404 33.6307 211.127 33.2251C205.377 34.2251 205.277 45.0751 205.497 50.1751C205.846 56.9863 207.635 63.6461 210.747 69.7151C214.587 70.0251 219.227 70.0951 222.097 68.2751C227.317 64.9651 225.697 58.8251 224.717 53.8251C222.987 45.0451 219.947 38.8951 212.187 34.2251Z" fill="#E27683"/>
<path d="M354.705 423.255C354.255 422.555 353.815 421.845 353.365 421.125C334.445 448.285 306.365 467.335 276.135 480.405C257.756 488.355 238.656 494.405 219.436 500.005C204.436 504.335 188.826 509.465 173.086 509.845C173.556 510.235 174.016 510.655 174.486 511.045C210.986 541.135 255.206 556.045 299.345 570.755C299.963 570.246 300.699 569.902 301.485 569.755C333.595 563.315 398.195 571.005 402.245 523.895C403.955 504.015 393.865 485.065 383.995 468.555C374.755 453.125 364.285 438.475 354.705 423.255Z" fill="#F2B879"/>
<path fill-rule="evenodd" clip-rule="evenodd" d="M326.809 335.735C325.61 344.83 325.948 354.062 327.809 363.045C307.039 393.045 276.459 414.105 242.779 427.475C213.135 439.287 182.346 444.736 151.36 450.22L151.359 450.22L151.358 450.22C141.108 452.034 130.837 453.852 120.579 455.905L120.369 455.975L120.069 455.635C103.139 436.135 87.5087 415.495 74.5087 393.135C49.5887 350.235 34.7187 302.385 25.3587 253.865C20.6987 229.515 17.3087 204.925 14.6987 180.265C14.3246 176.674 13.9331 173.069 13.5405 169.454C11.3405 149.196 9.10469 128.609 9.69868 108.345C10.0787 95.1651 12.3187 81.5951 19.6287 70.3451C22.0587 66.6151 24.8087 63.0151 30.0587 64.1151C32.9081 64.739 36.4946 69.6638 38.3797 72.2522C38.519 72.4435 38.649 72.622 38.7687 72.7851C42.503 78.0268 45.5888 83.7014 47.9587 89.6851C52.008 99.549 54.8944 109.91 57.7642 120.213C58.601 123.216 59.4363 126.215 60.2987 129.195L73.4087 174.575C71.6123 178.777 70.9436 183.375 71.4687 187.915C72.0587 192.665 79.4687 192.845 79.0587 187.915C78.7555 184.24 79.4681 180.553 81.1187 177.255C82.2657 176.529 83.0061 175.308 83.1187 173.955C88.2129 167.109 96.5422 163.459 105.029 164.355C118.429 165.865 128.279 176.315 133.949 187.865C136.059 192.145 143.099 190.085 142.899 185.445C142.179 168.765 148.649 148.715 165.649 142.235C178.219 137.475 194.029 143.225 199.149 155.475C199.609 157.122 200.075 158.758 200.549 160.385C202.329 166.595 211.039 163.895 210.039 157.765C209.688 155.603 209.088 153.489 208.249 151.465C198.089 115.575 188.269 78.2851 192.519 40.7651C192.618 39.8858 192.716 38.9517 192.817 37.9765C193.658 29.924 194.791 19.0732 199.679 13.1951C207.239 4.09508 218.949 15.1651 224.039 21.5051C234.78 34.9063 241.175 51.1905 247.404 67.05L247.404 67.0502L247.405 67.0505L247.408 67.0591L247.412 67.0707C247.995 68.5534 248.576 70.0325 249.159 71.5051C263.852 108.565 277.935 145.862 291.409 183.395C291.634 184.024 291.882 184.752 292.156 185.554C295.291 194.738 301.722 213.581 313.559 203.225C317.915 199.425 319.254 192.481 320.398 186.548C320.651 185.236 320.894 183.973 321.159 182.805C323.429 172.825 325.219 162.745 326.599 152.605C327.759 144.035 328.629 135.435 329.149 126.805C329.333 123.661 329.427 120.518 329.521 117.374L329.521 117.371C329.579 115.406 329.638 113.44 329.719 111.475C329.959 105.755 331.079 101.825 337.589 101.115C355.339 99.1751 367.269 121.215 372.689 134.775C386.409 169.175 383.909 207.605 372.319 242.175C366.355 259.45 358.613 276.059 349.219 291.735C347.108 295.329 344.759 298.887 342.393 302.47C335.545 312.842 328.555 323.427 326.809 335.735ZM337.909 115.925C337.063 116.153 336.321 116.665 335.809 117.375H335.859C330.772 124.145 332.585 132.915 334.192 140.689L334.299 141.205C334.794 143.524 335.204 146.083 335.629 148.73L335.629 148.731C336.719 155.536 337.903 162.919 340.869 168.275C346.769 178.915 366.089 169.885 369.939 161.275C373.019 154.385 370.469 145.295 368.259 138.545L368.017 137.805C365.745 130.841 363.002 122.433 358.339 116.775C354.519 112.145 348.749 109.545 342.909 112.025C340.904 112.821 339.169 114.174 337.909 115.925ZM43.5199 130.415C41.8604 131.042 40.1401 131.304 38.4226 131.567C36.0826 131.924 33.7479 132.281 31.5794 133.555C30.5097 134.193 29.5582 135.054 28.6047 135.917C26.8843 137.473 25.1578 139.035 22.7191 139.305C8.89858 140.865 11.4187 110.355 12.5187 102.815C13.4588 96.4651 14.9188 87.6251 21.519 84.6051C24.5721 83.1004 28.2251 83.5354 30.8394 85.7151C42.7498 89.2451 48.43 108.135 49.7801 118.905C50.5201 124.115 48.7 128.445 43.5199 130.415ZM207.969 78.0851C214.069 79.6151 224.229 77.9851 229.519 74.4651C234.789 70.9551 234.759 65.2251 234.219 59.4851C233.219 48.9051 229.649 32.1451 218.289 28.0651C215.289 24.4851 210.759 23.6851 206.289 25.6851C200.679 28.2251 198.389 34.1851 197.459 39.8951C196.281 47.5717 196.744 55.4108 198.819 62.8951C198.88 63.1204 198.943 63.3528 199.007 63.5914C200.392 68.723 202.551 76.7186 207.969 78.0851Z" fill="#F2B879"/>
<path d="M272.717 471.725C302.457 458.645 330.177 439.775 347.957 412.145C341.277 400.675 335.077 388.275 330.957 375.435C284.877 436.875 199.777 456.375 126.777 463.335C138.777 476.925 151.237 490.335 164.677 502.535C184.097 500.535 202.377 495.485 221.087 489.895C238.587 484.685 256.017 479.045 272.717 471.725Z" fill="#F7941E"/>
<path fill-rule="evenodd" clip-rule="evenodd" d="M375.426 436.293L375.428 436.295C378.869 441.449 382.29 446.574 385.577 451.705C402.517 478.105 425.377 516.715 404.657 547.305C388.22 571.567 359.474 573.982 332.026 576.287C324.505 576.919 317.082 577.543 310.037 578.605L306.587 578.765C302.479 578.95 298.367 578.54 294.377 577.545C239.267 563.825 186.967 538.995 146.657 498.345C107.117 458.465 71.347 414.595 48.517 362.905C26.977 314.125 15.607 261.705 8.607 209.045C5.017 182.045 2.237 154.795 0.517 127.605C-0.863 105.155 -0.563 77.6549 15.517 59.8549C33.837 39.5949 52.367 74.7549 57.917 88.9549C65.3024 107.878 70.7092 127.796 76.0807 147.585C77.6042 153.197 79.1249 158.799 80.687 164.365C86.0254 159.343 92.8591 156.203 100.147 155.425C113.597 154.095 125.637 161.165 134.207 171.095C137.327 153.765 147.597 137.095 165.207 132.195C174.806 129.692 184.999 130.967 193.687 135.755C183.837 98.5449 176.777 59.7849 185.927 21.9349C187.807 14.1549 190.537 5.7149 198.177 1.8049C205.067 -1.7151 213.177 0.364898 219.467 4.1749C236.147 14.2549 245.217 35.7349 252.417 52.8849C269.087 92.5049 283.987 133.055 298.637 173.505C299.379 175.555 300.099 177.619 300.819 179.685L300.82 179.686L300.82 179.687C302.12 183.415 303.422 187.148 304.857 190.815C307.309 197.066 308.15 193.467 309.114 189.347C309.251 188.761 309.39 188.165 309.537 187.585C312.177 177.152 314.307 166.625 315.927 156.005C317.695 144.308 318.83 132.524 319.327 120.705C319.394 119.108 319.385 117.432 319.375 115.72V115.719V115.718C319.342 109.816 319.307 103.496 322.407 98.6049C330.237 86.3549 348.867 90.7749 358.607 97.6749C372.497 107.475 380.367 123.965 385.497 139.675C397.247 175.625 393.197 215.135 380.447 250.215C373.579 268.629 364.868 286.302 354.447 302.965C352.92 305.451 351.263 307.922 349.593 310.412L349.593 310.413L349.592 310.413C345.377 316.698 341.086 323.096 338.637 330.115C335.527 339.015 336.147 348.995 337.707 358.165C342.63 387.169 359.238 412.045 375.426 436.293ZM120.097 455.705L120.397 456.045L120.657 455.985C130.916 453.932 141.187 452.114 151.437 450.3L151.438 450.3L151.439 450.3C182.424 444.816 213.214 439.367 242.858 427.555C276.508 414.145 307.088 393.085 327.858 363.085C325.998 354.102 325.66 344.87 326.858 335.775C328.605 323.461 335.592 312.881 342.441 302.512L342.441 302.511C344.808 298.928 347.157 295.37 349.268 291.775C358.663 276.099 366.405 259.49 372.369 242.215C383.959 207.645 386.459 169.195 372.739 134.815C367.319 121.255 355.388 99.2149 337.638 101.155C331.128 101.865 330.008 105.795 329.768 111.515C329.688 113.481 329.629 115.446 329.57 117.412L329.57 117.415C329.477 120.558 329.383 123.702 329.198 126.845C328.648 135.475 327.808 144.075 326.648 152.645C325.268 162.785 323.478 172.845 321.208 182.845C320.942 184.015 320.697 185.283 320.443 186.601L320.442 186.602L320.442 186.603C319.3 192.518 317.958 199.463 313.608 203.265C301.783 213.611 295.352 194.797 292.214 185.616C291.937 184.805 291.686 184.069 291.458 183.435C277.958 145.915 263.875 108.618 249.208 71.5449C248.637 70.0999 248.068 68.6489 247.498 67.1945L247.492 67.1797L247.488 67.171C241.248 51.2608 234.849 34.9435 224.088 21.5449C218.998 15.2349 207.288 4.13489 199.728 13.2349C194.841 19.0938 193.708 29.9549 192.867 38.01C192.765 38.9876 192.667 39.9239 192.568 40.8049C188.298 78.3249 198.138 115.615 208.298 151.505C209.137 153.528 209.738 155.643 210.088 157.805C211.078 163.935 202.378 166.635 200.598 160.425C200.124 158.792 199.658 157.155 199.198 155.515C194.078 143.275 178.268 137.485 165.698 142.275C148.668 148.755 142.228 168.805 142.948 185.485C143.148 190.125 136.108 192.185 133.998 187.905C128.328 176.395 118.477 165.955 105.077 164.395C96.5909 163.499 88.2616 167.149 83.1673 173.995C83.0547 175.348 82.3144 176.569 81.1673 177.295C79.5177 180.593 78.8052 184.28 79.1073 187.955C79.5173 192.885 72.0773 192.705 71.5173 187.955C70.9911 183.427 71.6528 178.84 73.4373 174.645L60.3272 129.265C59.4648 126.285 58.6295 123.286 57.7927 120.282C54.9229 109.98 52.0365 99.6189 47.9872 89.7549C45.6155 83.769 42.5298 78.0912 38.7971 72.8449C38.7083 72.7223 38.6134 72.5908 38.513 72.4515C36.6801 69.9104 32.9881 64.7917 30.0871 64.1849C24.8371 63.0849 22.0771 66.6849 19.657 70.4149C12.347 81.6649 10.107 95.2349 9.727 108.415C9.10309 128.859 11.3718 149.573 13.6052 169.964L13.6052 169.964C13.985 173.431 14.3637 176.889 14.727 180.335C17.337 204.995 20.687 229.585 25.3871 253.935C34.7471 302.455 49.6172 350.305 74.5373 393.205C87.5273 415.565 103.167 436.205 120.097 455.705ZM126.807 463.365L126.831 463.363C138.814 476.943 151.276 490.373 164.737 502.565C184.147 500.575 202.437 495.515 221.147 489.925C238.617 484.755 256.047 479.105 272.747 471.755C302.487 458.675 330.207 439.805 347.987 412.175C341.277 400.705 335.077 388.305 330.987 375.465C284.912 436.898 199.826 456.361 126.831 463.363L126.807 463.335V463.365ZM326.425 566.836C359.094 564.068 399.088 560.679 402.247 523.935V523.905C403.957 504.045 393.867 485.045 384.027 468.565C378.664 459.604 372.887 450.909 367.11 442.214C362.933 435.927 358.757 429.641 354.737 423.255C354.372 422.687 354.014 422.113 353.651 421.532C353.567 421.397 353.482 421.261 353.397 421.125C334.477 448.285 306.387 467.335 276.167 480.405C257.787 488.355 238.687 494.435 219.467 500.005C217.804 500.486 216.133 500.977 214.454 501.471C201.027 505.417 187.108 509.507 173.117 509.845C173.352 510.04 173.585 510.242 173.817 510.445C174.049 510.647 174.282 510.85 174.517 511.045C209.997 540.315 252.817 555.245 295.817 569.545C297.665 570.118 299.631 570.194 301.517 569.765C308.576 568.348 317.209 567.616 326.425 566.836Z" fill="#231F20"/>
<path fill-rule="evenodd" clip-rule="evenodd" d="M369.988 161.245C366.138 169.885 346.818 178.915 340.918 168.245C337.949 162.884 336.766 155.492 335.675 148.671C335.252 146.026 334.842 143.467 334.348 141.145C334.327 141.045 334.305 140.946 334.284 140.846C332.618 133.048 330.724 124.177 335.858 117.345C336.37 116.634 337.112 116.122 337.958 115.895C339.218 114.144 340.953 112.79 342.958 111.995C348.798 109.515 354.568 112.115 358.388 116.745C363.051 122.403 365.795 130.811 368.066 137.775C368.147 138.023 368.228 138.27 368.308 138.515C370.518 145.245 373.068 154.355 369.988 161.245ZM344.258 123.205C343.761 124.445 342.715 125.384 341.428 125.745C341.18 133.04 342.802 139.831 344.547 147.136C344.703 147.791 344.861 148.451 345.018 149.115C345.222 150.035 345.393 151.34 345.582 152.785C346.038 156.283 346.602 160.601 348.018 162.265C350.288 164.995 354.368 163.285 357.118 161.865C366.034 157.25 361.661 145.721 358.714 137.951C358.557 137.538 358.404 137.135 358.258 136.745C357.378 134.475 348.348 111.685 344.258 123.205Z" fill="#231F20"/>
<path fill-rule="evenodd" clip-rule="evenodd" d="M206.278 25.6647C210.768 23.6347 215.278 24.4647 218.278 28.0447C229.638 32.1547 233.208 48.9147 234.188 59.4447C234.738 65.2047 234.798 70.9247 229.508 74.4447C224.218 77.9647 214.058 79.5947 207.958 78.0647C202.54 76.6983 200.381 68.7027 198.996 63.5711C198.932 63.3325 198.869 63.1 198.808 62.8747C196.734 55.3904 196.27 47.5513 197.448 39.8747C198.378 34.1647 200.668 28.2047 206.278 25.6647ZM210.748 69.6747C214.588 69.9847 219.228 70.0547 222.098 68.2347V68.2647C226.978 65.17 225.88 59.6016 224.931 54.7957C224.865 54.4613 224.8 54.1306 224.738 53.8047C223.008 45.0547 219.968 38.8847 212.208 34.2147C211.787 33.9614 211.425 33.6203 211.148 33.2147C205.398 34.2647 205.298 45.0647 205.518 50.1647C205.865 56.9643 207.647 63.6133 210.748 69.6747Z" fill="#231F20"/>
<path fill-rule="evenodd" clip-rule="evenodd" d="M21.5866 84.6049C24.6396 83.1002 28.2924 83.5353 30.9066 85.7149C42.8166 89.2449 48.5166 108.135 49.8966 118.905C50.5766 124.115 48.7466 128.415 43.5766 130.415C41.9106 131.041 40.1909 131.304 38.4766 131.566C36.1367 131.923 33.8067 132.279 31.6366 133.555C30.5169 134.197 29.536 135.086 28.5554 135.975C26.8649 137.508 25.1752 139.039 22.7766 139.305C8.94659 140.865 11.4666 110.355 12.5866 102.815C13.4766 96.4649 14.9366 87.6049 21.5866 84.6049ZM34.4749 123.259C37.3314 122.826 40.5067 122.346 40.9066 119.365C41.211 117.17 39.789 113.364 38.764 110.62C38.5096 109.939 38.2796 109.324 38.1066 108.815C36.0542 102.608 32.8695 98.9141 29.1262 94.5723C28.3645 93.6889 27.5797 92.7786 26.7766 91.8149C19.9066 92.2049 20.6966 119.065 21.1466 122.135C21.4383 124.581 21.8724 127.009 22.4466 129.405C22.9495 128.864 23.5056 128.375 24.1066 127.945C25.9966 125.985 29.0066 124.725 31.5566 123.855C32.3754 123.577 33.4027 123.421 34.4749 123.259Z" fill="#231F20"/>
</svg>
