<svg width="458" height="575" viewBox="0 0 458 575" fill="none" xmlns="http://www.w3.org/2000/svg">
<path fill-rule="evenodd" clip-rule="evenodd" d="M45.8609 251.134C29.071 270.604 23.761 299.024 23.661 324.024C23.571 350.024 30.781 375.884 46.2609 396.924C59.7909 415.294 78.5908 427.214 100.151 434.084C123.761 441.614 148.771 446.024 173.33 448.984C222.2 454.874 272.21 453.284 320.11 441.494C342.51 435.984 365.25 428.784 385.35 417.284C405.66 405.654 421.04 388.504 429.41 366.504C442.77 331.504 441.46 285.594 411.54 259.504C402.947 268.689 393.552 277.205 384.239 285.648C380.817 288.75 377.406 291.842 374.05 294.954C373.443 307.314 372.93 319.68 372.51 332.054C378.178 328.62 382.669 323.546 385.39 317.504C387.31 313.274 393.03 316.504 392.34 320.434C390.34 331.764 380 339.054 370.05 343.234C359.78 347.548 348.709 350.445 337.847 353.288C335.869 353.806 333.898 354.321 331.94 354.844C308.54 361.084 284.89 365.214 260.65 366.064C239.158 366.821 217.652 365.724 196.174 364.628L196.167 364.628C192.414 364.437 188.662 364.245 184.91 364.064C181.017 363.879 177.078 363.744 173.115 363.608L173.114 363.608L173.114 363.608L173.113 363.608C153.667 362.942 133.633 362.256 115.441 355.594C98.7507 349.474 81.0808 336.354 78.2308 317.594C77.9308 315.594 80.8508 313.864 81.8208 316.084C83.9264 320.916 86.6928 325.432 90.0408 329.504C90.5908 314.154 90.2908 298.874 89.7708 283.554C75.1608 277.184 61.9809 267.454 50.7709 256.234C49.0609 254.584 47.4509 252.874 45.8609 251.134ZM398.679 379.47L398.683 379.466L398.687 379.462L398.696 379.45C399.528 378.416 400.36 377.382 401.191 376.344C401.832 375.543 402.444 374.716 403.055 373.892C404.504 371.938 405.942 369.998 407.721 368.444C408.311 367.924 409.551 368.444 409.191 369.304C406.711 375.514 400.691 381.164 395.711 385.414C395.435 385.687 394.989 385.685 394.716 385.409C394.443 385.133 394.445 384.687 394.721 384.414C396.032 382.759 397.355 381.116 398.679 379.47ZM364.672 410.784C356.737 415.722 348.316 419.83 339.541 423.044C339.226 423.13 339.04 423.454 339.126 423.769C339.212 424.084 339.536 424.27 339.851 424.184C349.099 421.862 357.943 418.153 366.082 413.184L366.425 412.976C373.318 408.808 383.021 402.94 386.582 395.554C386.691 395.341 386.65 395.083 386.481 394.915C386.312 394.746 386.054 394.705 385.842 394.814C383.22 396.136 380.969 398.167 378.762 400.158L378.762 400.159C377.981 400.863 377.206 401.563 376.422 402.224C372.694 405.328 368.769 408.187 364.672 410.784ZM54.921 372.504C57.921 374.844 61.221 377.904 62.921 381.394C63.0472 381.669 62.9698 381.995 62.7333 382.184C62.4968 382.373 62.1619 382.377 61.921 382.194C59.6934 380.273 57.7431 377.822 55.8572 375.452L55.8571 375.452C55.2878 374.736 54.7244 374.028 54.161 373.344C54.0236 373.12 54.0501 372.833 54.226 372.639C54.4019 372.444 54.6851 372.389 54.921 372.504ZM37.361 336.074C39.331 346.364 43.251 358.364 50.751 365.994V365.964C51.311 366.504 52.141 365.814 51.861 365.144C50.8598 362.98 49.8266 360.864 48.8008 358.763C45.2465 351.482 41.7815 344.385 40.051 336.144C37.8268 325.41 37.735 314.343 39.781 303.574C39.951 302.654 38.591 302.254 38.361 303.184C35.6263 313.942 35.2849 325.169 37.361 336.074Z" fill="#FFF200"/>
<path d="M204.96 52.1938C205.21 53.3238 206.14 61.0238 207.17 61.3138C211.56 62.5438 209.67 45.3138 209.58 43.1638C209.36 37.5938 208.86 31.9538 208.86 26.3638L199.18 26.8238C200.74 32.1438 201.77 37.6738 202.95 43.0438L204.96 52.1938Z" fill="#FFF200"/>
<path d="M237.809 43.5038C239.129 53.8138 240.589 64.1838 243.948 74.0638C244.408 75.4238 245.808 81.4938 247.798 80.8138C249.448 80.2438 250.288 72.5238 250.418 71.2238C250.811 66.0604 250.935 60.88 250.788 55.7038C250.788 45.4738 249.788 35.1238 249.998 24.8838L247.878 24.9338C243.538 25.0405 239.205 25.1738 234.879 25.3338C235.559 26.5638 235.639 28.3338 235.879 29.8238C236.679 34.3138 237.219 38.8838 237.809 43.5038Z" fill="#FFF200"/>
<path d="M272.5 53.3037C272.87 56.6337 272.79 62.3937 274.73 65.3837C275.23 67.517 276.977 67.9537 279.97 66.6937C280.71 64.8665 281.123 62.9237 281.19 60.9537C281.4 59.1437 281.58 57.3337 281.74 55.5237C282.07 51.9037 282.33 48.2737 282.49 44.6337C282.79 38.2337 282.61 31.8437 282.65 25.4437C278.13 25.1137 273.6 24.9137 269.07 24.8037C270.29 30.5637 270.62 36.6537 271.27 42.4337C271.69 46.0537 272.14 49.6737 272.5 53.3037Z" fill="#FFF200"/>
<path d="M361.141 42.4338C365.241 34.6338 371.141 27.3038 376.521 20.6238C379.891 16.4238 385.761 9.11379 392.001 7.75379C391.293 7.36336 390.499 7.15383 389.691 7.14379C386.761 7.05379 383.691 10.5538 381.611 12.3238C379.531 14.0938 377.451 15.9038 375.431 17.7638C368.431 24.2538 362.271 31.5038 355.891 38.5738C357.361 39.5738 358.821 40.5738 360.251 41.5738C360.585 41.8187 360.884 42.108 361.141 42.4338Z" fill="#FFF200"/>
<path fill-rule="evenodd" clip-rule="evenodd" d="M96.2564 284.352C96.1023 280.708 95.9492 277.087 95.8395 273.504C95.1529 251.35 94.5095 229.204 93.9095 207.064C93.5177 191.642 92.9039 176.209 92.29 160.773C91.1802 132.87 90.0699 104.954 90.2695 77.0637C90.4295 55.7037 91.9895 34.4837 96.1495 13.5737C96.3904 15.212 96.4987 16.8883 96.5852 18.2273C96.6243 18.8335 96.659 19.3706 96.6995 19.8037C96.9057 22.1143 96.9758 24.4395 97.0459 26.7638C97.0914 28.2723 97.1369 29.7803 97.2195 31.2837L97.2405 31.6845C97.5132 36.898 97.8119 42.609 100.63 47.0937C100.526 47.7512 100.756 48.4173 101.243 48.8706C101.73 49.3239 102.411 49.505 103.06 49.3537C107.279 48.0837 111.209 45.8499 115.134 43.6184C117.73 42.1427 120.324 40.668 123 39.4737C130.089 36.4336 137.457 34.0893 145 32.4737C160.43 29.0337 176.3 27.9137 192.05 27.1437L196.81 26.9137C197.547 32.6705 198.857 38.4072 200.16 44.1096C200.694 46.4504 201.228 48.7855 201.72 51.1137C201.834 51.6577 201.94 52.4343 202.065 53.3464C202.673 57.7835 203.721 65.4289 208.25 65.1137C213.316 64.7773 213.05 57.1397 212.924 53.529C212.919 53.3838 212.914 53.2452 212.91 53.1137C212.835 50.7608 212.786 48.3904 212.736 46.0119V46.0118V46.0117V46.0117V46.0116V46.0115V46.0114V46.0114V46.0113C212.598 39.4133 212.458 32.7533 211.79 26.2337C218.59 25.9204 225.39 25.6371 232.19 25.3837C233.23 26.6568 233.402 30.3692 233.523 32.9935C233.564 33.8737 233.599 34.6314 233.66 35.1337C233.844 36.6576 234.032 38.1814 234.219 39.7053L234.219 39.7057L234.219 39.7062L234.219 39.7066L234.219 39.707L234.219 39.7075L234.219 39.7079L234.219 39.7083L234.22 39.7087C234.407 41.2337 234.595 42.7587 234.78 44.2837C235.45 49.6837 236.14 55.0837 237.14 60.4237C238.132 66.1606 239.638 71.7967 241.64 77.2637C241.774 77.6183 241.914 78.0353 242.066 78.4886L242.066 78.4896L242.066 78.4901L242.067 78.4904C242.936 81.0795 244.203 84.8516 247.02 84.9537C250.104 85.0618 251.442 80.9532 252.199 78.6277L252.24 78.5037C253.768 73.728 253.873 68.6695 253.975 63.7464V63.7462L253.99 63.0537C254.009 61.8336 254.03 60.6084 254.051 59.3789C254.249 47.932 254.453 36.1236 253.28 24.7637C257.706 24.6904 262.133 24.6904 266.56 24.7637C266.497 31.3138 267.419 38.0617 268.323 44.679V44.6792V44.6793V44.6795V44.6797V44.6798V44.68V44.6801V44.6802C268.72 47.5893 269.114 50.4731 269.42 53.3037C269.489 53.9384 269.548 54.6906 269.614 55.5219C270.074 61.3189 270.84 70.9665 277.19 71.4737C283.775 71.9939 284.337 62.8139 284.666 57.4468C284.71 56.7261 284.75 56.0742 284.8 55.5237C285.873 45.6223 286.207 35.6548 285.8 25.7037C291.47 26.1937 297.13 26.8937 302.74 27.8937C321.93 31.3037 339.77 37.9737 356.06 48.7937C358.7 50.5837 361.13 48.8937 361.88 46.5837C364.478 43.2075 366.85 39.6563 369.227 36.098L369.228 36.0977L369.228 36.0974C371.772 32.289 374.321 28.4725 377.16 24.8537C379.555 21.6234 382.232 18.6117 385.16 15.8537C387.032 14.1621 389.144 13.0698 391.237 11.987L391.238 11.987C392.263 11.4567 393.283 10.9287 394.27 10.3337C395.905 13.7381 395.711 19.0536 395.604 22.0042L395.595 22.2322L395.59 22.3937C395.263 31.9983 393.603 41.5535 391.951 51.0593L391.951 51.0596L391.95 51.0614L391.95 51.0633C391.373 54.3828 390.797 57.6963 390.28 61.0037C388.286 73.6704 386.393 86.3371 384.6 99.0037C377.433 149.497 372.1 200.164 368.6 251.004C366.66 279.35 365.25 307.73 364.37 336.144L363.58 336.444C355.105 339.531 346.301 341.923 337.569 344.296C336.09 344.698 334.613 345.1 333.14 345.504C311.14 351.504 288.99 356.034 266.2 357.204C244.929 358.296 223.615 357.349 202.356 356.405H202.355H202.355H202.354H202.354H202.354H202.353H202.353H202.352C200.834 356.338 199.317 356.27 197.8 356.204L163.8 354.754C163.095 354.723 162.39 354.693 161.685 354.662C151.384 354.22 141.054 353.776 130.9 351.904C116.82 349.294 104.08 343.604 94.4095 334.294C97.6818 318.064 96.9589 300.966 96.2564 284.352ZM325.086 245.062C325.952 248.091 326.82 251.13 327.76 254.164V254.134C328.02 254.954 329.43 254.854 329.34 253.954C327.05 231.284 315.29 202.014 293.91 190.894C293.55 190.704 293.13 191.184 293.46 191.474C302.14 199.194 309.58 207.264 315.08 217.614C319.751 226.39 322.406 235.68 325.086 245.062ZM343.761 216.984C343.167 216.002 342.581 215.026 341.999 214.055C336.701 205.223 331.717 196.912 323.76 189.884C314.76 181.884 304.36 177.174 293.1 173.264C292.823 173.189 292.66 172.905 292.735 172.629C292.809 172.353 293.093 172.189 293.37 172.264C304.97 174.064 315.97 180.264 324.86 187.764C333.45 194.984 342.371 205.234 345.321 216.304C345.5 216.746 345.288 217.249 344.846 217.429C344.404 217.608 343.9 217.396 343.721 216.954L343.761 216.984ZM346.516 172.926C347.684 174.228 348.855 175.532 350.111 176.784L350.071 176.754C350.561 177.244 351.551 176.744 351.311 176.064C348.051 166.934 337.77 160.394 329.25 156.884C317.21 151.924 304.51 151.784 291.78 153.254C290.99 153.344 290.96 154.574 291.78 154.514C303.28 153.664 315.5 154.464 326.33 158.664C331.305 160.555 335.954 163.211 340.11 166.534C342.512 168.467 344.51 170.692 346.516 172.926ZM290.67 114.604C296.05 99.4937 308.46 87.6737 324.83 85.6037C343.04 83.3437 350.83 111.044 341.45 123.604C340.45 125.004 337.71 124.744 337.82 122.604C337.886 121.298 337.977 120.005 338.067 118.72C338.468 113.025 338.857 107.496 337.03 101.834C336.1 98.9837 334.68 95.5937 332.34 93.5837C329.09 90.7937 324.75 91.6937 320.95 92.6737C309.16 95.6737 298.35 104.534 293.58 115.794C292.83 117.504 290.03 116.254 290.63 114.574L290.67 114.604ZM201.67 166.004C201.314 165.898 200.929 165.998 200.67 166.264L200.64 166.234C196.61 171.214 204.02 178.554 208.02 181.154C214.62 185.404 225.17 188.204 233.02 187.024C240.87 185.844 246.44 177.944 250.27 171.624C254.19 165.154 259.04 155.904 257.13 148.154C256.62 146.104 253.96 146.034 252.89 147.604C250.97 150.415 249.851 153.689 248.729 156.97L248.729 156.971C247.852 159.537 246.973 162.107 245.71 164.464C243.08 169.374 238.72 177.454 233.08 179.374C232.6 179.529 232.108 179.643 231.61 179.714C231.478 172.948 231.113 166.179 230.748 159.413L230.748 159.412C230.476 154.367 230.205 149.324 230.03 144.284C229.948 141.783 229.914 139.233 229.88 136.659V136.659V136.658V136.658V136.658V136.657C229.772 128.54 229.662 120.184 228.03 112.364C233.86 112.144 239.3 110.644 242.43 105.144C243.026 104.074 243.015 102.769 242.399 101.71C241.783 100.65 240.655 99.9945 239.43 99.9837C230.458 99.3818 221.446 99.8349 212.58 101.334C212.2 101.392 211.85 101.571 211.58 101.844C209.562 102.094 208.107 103.899 208.29 105.924C208.444 107.882 209.731 109.568 211.58 110.234H211.64C212.322 111.004 213.282 111.472 214.31 111.534C215.625 111.616 217.013 111.741 218.442 111.871L218.442 111.871L218.443 111.871C220.501 112.057 222.644 112.251 224.78 112.334C222.931 120.956 223.109 130.334 223.278 139.246C223.31 140.938 223.342 142.613 223.36 144.264C223.376 145.743 223.39 147.225 223.405 148.71L223.405 148.73C223.503 158.857 223.601 169.076 224.43 179.144L222.43 178.744C219.099 178.222 215.864 177.211 212.83 175.744C210.332 174.421 208.096 172.656 206.23 170.534C205.774 170.029 205.382 169.508 205.001 169.001C204.075 167.772 203.213 166.627 201.67 166.004ZM113.46 223.404C112.85 224.334 111.24 223.754 111.6 222.614C114.84 212.444 122.6 202.944 130.01 195.504C137.42 188.064 147.01 180.504 157.17 177.314C158.09 177.024 158.43 178.314 157.75 178.704C155.907 179.932 154.065 181.122 152.234 182.306C145.12 186.903 138.175 191.39 132.06 197.554C125.843 203.819 121.358 210.901 116.751 218.176L116.75 218.177L116.749 218.179L116.749 218.18C115.657 219.903 114.559 221.637 113.43 223.374L113.46 223.404ZM161.398 196.295C162.697 194.752 163.999 193.204 165.28 191.624L165.25 191.594C165.9 190.974 165.02 189.754 164.29 190.344C158.25 194.754 153.47 200.974 149.47 207.224C145.31 213.704 141.15 221.304 139.77 228.964C139.62 230.014 141.1 230.864 141.62 229.744C142.641 227.58 143.585 225.398 144.526 223.221L144.526 223.22C146.477 218.708 148.419 214.217 151.03 209.954C154.061 205.015 157.715 200.673 161.398 196.295ZM132.62 96.2038C149.01 87.3837 165.871 97.2038 171.991 113.524C172.551 115.034 170.451 116.024 169.411 115.024C168.042 113.696 166.721 112.264 165.391 110.822C161.86 106.995 158.264 103.097 153.55 100.904C147.06 97.8838 140.05 99.3738 134.24 103.044C121.627 111.008 120.709 125.178 119.844 138.514C119.762 139.78 119.681 141.039 119.59 142.284C119.577 143.139 118.94 143.857 118.092 143.972C117.245 144.087 116.44 143.565 116.2 142.744C111.309 126.224 116.77 104.694 132.59 96.1738L132.62 96.2038ZM139.11 165.874C129.24 168.964 118.73 172.514 110.05 178.264L110.02 178.234C109.31 178.714 109.74 180.014 110.67 179.694C114.895 178.246 119.007 176.53 123.117 174.813C127.014 173.187 130.91 171.56 134.9 170.164C138.73 168.814 142.61 167.604 146.51 166.474C147.206 166.281 147.951 166.047 148.726 165.803C152.661 164.566 157.399 163.076 160.741 165.474C161.301 165.874 161.961 164.994 161.471 164.534C156.533 159.869 148.384 162.693 142.124 164.861C141.056 165.231 140.043 165.582 139.11 165.874Z" fill="#F7941E"/>
<path d="M102.699 44.0338C104.511 41.9431 106.608 40.1185 108.929 38.6138C107.279 33.2238 105.599 27.8538 103.609 22.6138C102.939 20.8238 100.389 11.9038 97.4492 8.90381C99.5992 12.6338 99.6792 18.7938 99.9492 22.2838C100.439 28.8438 99.5492 37.7538 102.699 44.0338Z" fill="#FFF200"/>
<path d="M374.648 283.504C392.018 267.794 410.418 252.044 422.918 232.234C435.028 213.034 440.838 190.754 444.918 168.644C447.178 156.344 449.228 143.874 449.628 131.354C449.838 124.944 449.858 118.154 448.628 111.844C448.368 110.544 447.738 106.754 445.748 106.764C444.038 106.764 442.748 110.124 442.328 111.304C440.518 116.014 439.798 121.214 438.328 126.034C436.988 130.254 435.438 134.394 433.728 138.464C429.787 147.825 424.899 156.758 419.138 165.124C413.72 173.101 407.523 180.52 400.638 187.274C394.638 193.064 387.958 199.024 380.458 202.894C378.065 229.714 376.128 256.584 374.648 283.504Z" fill="#F7941E"/>
<path d="M149.799 454.334C138.229 452.384 126.359 450.274 114.699 447.404C118.949 462.104 122.099 477.234 126.319 491.934C130.969 508.124 135.629 524.634 142.059 540.234C145.059 547.444 148.709 554.784 153.819 560.734C155.589 562.794 157.909 565.044 160.459 562.414C162.459 560.414 162.389 557.214 162.459 554.634C162.629 550.344 162.459 546.014 162.319 541.724C162.106 532.957 161.666 524.204 160.999 515.464C160.409 507.964 158.809 500.084 158.489 492.464C153.569 493.264 148.399 494.094 143.649 493.064C142.269 492.774 142.329 491.014 143.289 490.324C147.939 486.944 154.419 485.694 160.219 484.594C160.896 484.222 161.674 484.075 162.439 484.174L162.919 484.074C170.129 482.644 177.419 481.554 184.7 480.544C198.76 478.594 212.92 477.314 227.1 476.674C241.51 476.024 255.96 476.074 270.37 476.674C277.064 476.842 283.742 477.403 290.37 478.354C295.89 479.244 302.91 480.184 306.37 484.984C307.51 486.594 306.37 489.534 304.37 489.834C300.94 490.364 297.25 489.464 293.6 488.484C296.29 496.244 298.11 504.354 300.42 512.224C303.087 521.384 306.01 530.464 309.19 539.464C312.01 547.464 314.43 557.824 320.86 563.774C323.57 566.284 327.47 568.034 331.23 567.284C335.88 566.354 337.16 561.864 338.18 557.834C342.99 538.784 342.98 518.834 343.62 499.374C344.234 480.847 344.857 462.314 345.49 443.774C332.953 447.709 320.211 450.957 307.32 453.504C255.44 463.814 201.84 463.114 149.799 454.334Z" fill="#F7941E"/>
<path d="M40.618 151.594C35.1823 141.749 30.4473 131.534 26.4481 121.024C23.2282 112.654 20.6982 102.624 13.8283 96.4539C6.98838 109.784 6.87838 125.274 8.10837 140.014C10.5883 169.894 18.7882 199.774 34.718 225.374C48.1847 246.962 67.0849 264.635 89.5273 276.624C89.3473 271.784 89.1473 266.944 88.9574 262.084C88.164 242.037 87.3407 221.984 86.4874 201.924C85.419 202.332 84.2133 202.129 83.3374 201.394C65.4576 188.254 51.4078 170.894 40.618 151.594Z" fill="#F7941E"/>
<path d="M207.961 181.094C214.561 185.344 225.151 188.094 232.961 186.964C240.771 185.834 246.381 177.884 250.211 171.564C254.131 165.094 258.981 155.844 257.071 148.094C256.561 146.044 253.901 145.974 252.831 147.544C249.411 152.544 248.531 159.034 245.651 164.404C243.011 169.334 238.651 177.404 233.021 179.314C232.541 179.469 232.049 179.583 231.551 179.654C231.321 167.844 230.381 156.024 229.971 144.224C229.611 133.834 230.101 122.604 227.971 112.304C233.801 112.114 239.241 110.584 242.371 105.084C242.967 104.014 242.956 102.709 242.34 101.65C241.724 100.591 240.596 99.9346 239.371 99.9238C230.399 99.3219 221.387 99.775 212.521 101.274C212.141 101.332 211.791 101.511 211.521 101.784C209.503 102.034 208.048 103.839 208.231 105.864C208.385 107.822 209.672 109.508 211.521 110.174H211.581C212.263 110.944 213.223 111.412 214.251 111.474C217.461 111.674 221.101 112.134 224.721 112.274C222.521 122.534 223.191 133.864 223.301 144.204C223.431 155.784 223.421 167.534 224.371 179.084L222.371 178.684C219.04 178.162 215.805 177.151 212.771 175.684C210.265 174.373 208.018 172.618 206.141 170.504C204.611 168.774 203.761 166.854 201.581 165.974C201.225 165.868 200.84 165.968 200.581 166.234C196.611 171.214 204.021 178.554 207.961 181.094Z" fill="#231F20"/>
<path d="M293.541 115.804C298.311 104.504 309.141 95.7138 320.911 92.6838C324.711 91.6838 329.051 90.8038 332.301 93.5938C334.641 95.5938 336.061 98.9938 336.991 101.844C339.231 108.784 338.141 115.524 337.781 122.614C337.671 124.744 340.361 125.004 341.411 123.614C350.751 111.054 343.001 83.3538 324.791 85.6138C308.421 87.6138 296.011 99.4738 290.631 114.614C290.031 116.254 292.831 117.504 293.541 115.804Z" fill="#231F20"/>
<path d="M119.559 142.254C120.609 127.894 120.399 111.734 134.209 103.014C140.019 99.3439 147.089 97.8839 153.519 100.874C159.949 103.864 164.349 110.144 169.379 114.994C170.379 115.994 172.519 114.994 171.959 113.494C165.839 97.1239 148.959 87.3539 132.589 96.1739C116.769 104.694 111.309 126.224 116.169 142.714C116.41 143.535 117.214 144.057 118.062 143.942C118.91 143.827 119.546 143.109 119.559 142.254Z" fill="#231F20"/>
<path fill-rule="evenodd" clip-rule="evenodd" d="M44.3802 142.354C39.2977 132.353 34.8326 122.05 31.0102 111.504C27.5202 102.204 23.3502 93.0037 14.5402 87.6537C12.7373 86.641 10.4561 87.2378 9.3802 89.0038C1.3102 101.834 -0.479801 117.114 0.100199 132.004C0.735786 147.719 3.11709 163.315 7.2002 178.504C13.8402 203.344 25.3602 227.004 41.9302 246.684C24.5902 262.204 18.8602 288.974 16.6302 311.094C14.0802 336.244 17.8002 362.094 29.1302 384.784C39.1302 404.914 55.0502 422.294 74.9802 432.944C85.4282 438.366 96.4412 442.621 107.82 445.634C109.844 459.199 113.626 472.791 117.301 485.995L117.301 485.995C117.475 486.617 117.647 487.238 117.82 487.858L118.112 488.91L118.26 489.444C122.54 504.884 127.11 520.324 132.56 535.444C134.847 542.059 137.669 548.477 141 554.634L141.307 555.175C144.272 560.401 148.191 567.309 153.64 570.044C158.75 572.594 164.64 569.834 167.4 565.144C170.353 560.071 170.074 553.371 169.824 547.369C169.771 546.095 169.719 544.853 169.7 543.664C169.55 534.284 169.13 524.894 168.49 515.534C168.355 513.519 168.255 511.447 168.154 509.348L168.154 509.347C167.865 503.362 167.565 497.147 166.41 491.344L167.428 491.198L167.429 491.198L167.43 491.198L167.43 491.197L167.431 491.197L167.432 491.197L167.432 491.197L167.433 491.197L167.434 491.197L167.434 491.197C172.953 490.405 178.473 489.614 184.01 488.964C197.73 487.374 211.49 486.224 225.29 485.664C239.09 485.104 252.91 485.034 266.72 485.574C273.11 485.824 279.53 486.094 285.89 486.844C286.33 486.894 286.77 486.964 287.21 487.044C288.657 501.887 293.739 516.861 298.565 531.079C299.078 532.59 299.588 534.091 300.09 535.584C300.698 537.394 301.3 539.342 301.927 541.368L301.928 541.372C305.653 553.416 310.233 568.222 321.83 573.264C326.93 575.484 333.17 575.694 337.95 572.574C343.708 568.813 345.191 561.538 346.487 555.175L346.555 554.844L346.61 554.574C350.16 537.384 351.05 519.754 351.73 502.264C352.524 481.837 353.297 461.407 354.05 440.974C362.945 437.875 371.655 434.272 380.14 430.184C401.8 419.724 420.35 404.374 431.78 382.924C453.01 343.054 454.31 284.124 417.41 252.994C421.053 248.771 424.462 244.351 427.62 239.754C441.62 219.284 448.36 194.874 452.54 170.754C454.74 158.044 456.69 145.184 457.13 132.284C457.391 125.778 457.1 119.261 456.26 112.804C455.66 108.424 454.58 103.344 450.57 100.744C442.39 95.4338 436.25 104.744 434.38 111.574C431.38 122.644 428.32 133.324 423.25 143.694C417.776 154.917 410.872 165.384 402.71 174.834C398.532 179.645 394.078 184.209 389.37 188.504C387.518 190.204 385.594 191.837 383.671 193.47L383.671 193.47C382.811 194.2 381.952 194.929 381.1 195.664C381.894 186.997 382.727 178.354 383.6 169.734C386.5 141.487 389.944 113.3 393.93 85.1738C395.85 71.6237 397.93 58.0938 400.1 44.5737C401.1 38.3937 402.02 32.1937 402.42 25.9438C402.78 20.3838 403.15 14.2838 401.08 8.94375C399.26 4.27375 394.94 0.23375 389.68 0.19375C384.784 0.19375 380.666 3.91544 377.104 7.13508L377.102 7.13699L377.096 7.14269C376.565 7.62225 376.047 8.09059 375.54 8.53375C366.54 16.3538 357.54 25.3238 350.94 35.4738C322.5 19.0038 287.5 15.9137 255.3 16.3438C239.781 16.5501 224.263 17.3362 208.754 18.1218L208.753 18.1218C204.725 18.3259 200.697 18.5299 196.67 18.7237C180.18 19.5337 163.61 20.5637 147.42 23.9737C138.725 25.7588 130.227 28.3983 122.05 31.8538C120.05 32.7137 117.93 33.6437 115.8 34.6838C113.497 26.6887 110.668 18.8549 107.33 11.2338C104.7 5.12375 100.74 -1.31625 93.1502 0.23375C91.799 0.590969 90.7423 1.64388 90.3802 2.99375C80.5095 42.2575 81.9678 83.1643 83.399 123.31L83.3998 123.334C83.4705 125.316 83.5411 127.296 83.6102 129.274C84.3902 150.76 85.2335 172.27 86.1402 193.804C68.3302 180.234 54.7102 162.114 44.3802 142.354ZM343.418 506.381L343.417 506.397V506.398C342.922 523.632 342.421 541.052 338.189 557.814C337.189 561.814 335.889 566.334 331.239 567.264C327.479 568.014 323.579 566.264 320.869 563.754C315.586 558.865 313.01 550.985 310.695 543.903L310.694 543.902L310.694 543.901C310.192 542.365 309.702 540.866 309.199 539.444C306.026 530.444 303.103 521.364 300.429 512.204C299.587 509.333 298.809 506.428 298.031 503.52L298.031 503.519C296.676 498.454 295.318 493.38 293.609 488.464C297.259 489.464 300.949 490.344 304.379 489.814C306.379 489.514 307.499 486.574 306.379 484.964C303.078 480.357 296.479 479.306 291.056 478.442L291.055 478.442H291.055L291.035 478.438L290.758 478.394L290.379 478.334C283.751 477.383 277.073 476.822 270.379 476.654C255.969 476.014 241.52 475.964 227.11 476.654C212.93 477.294 198.77 478.574 184.71 480.524C177.43 481.524 170.14 482.624 162.93 484.054L162.45 484.154C161.684 484.055 160.907 484.203 160.23 484.574C154.43 485.674 147.95 486.924 143.3 490.304C142.3 490.994 142.3 492.754 143.66 493.044C148.41 494.044 153.58 493.244 158.5 492.444C158.681 496.769 159.273 501.171 159.859 505.534L159.859 505.535C160.308 508.878 160.754 512.199 161.01 515.444C161.677 524.184 162.117 532.937 162.33 541.704C162.351 542.536 162.376 543.37 162.401 544.205C162.504 547.673 162.607 551.156 162.47 554.614L162.464 554.767L162.456 554.991L162.451 555.135L162.451 555.136L162.451 555.137C162.364 557.614 162.262 560.518 160.47 562.394C157.92 565.024 155.6 562.774 153.83 560.714C148.72 554.714 145.05 547.424 142.07 540.214C135.889 525.218 131.344 509.381 126.871 493.796L126.33 491.914C124.247 484.656 122.424 477.294 120.601 469.93L120.601 469.93C118.732 462.379 116.862 454.826 114.71 447.384C126.37 450.254 138.24 452.384 149.81 454.314C201.81 463.094 255.449 463.794 307.329 453.454C320.222 450.924 332.968 447.693 345.509 443.774C344.842 462.32 344.216 480.86 343.629 499.394V499.354C343.552 501.691 343.485 504.035 343.418 506.381ZM419.14 165.124C413.716 173.087 407.516 180.494 400.63 187.234V187.274C394.67 193.064 387.95 199.024 380.37 202.894C377.977 229.72 376.044 256.58 374.57 283.474C376.069 282.118 377.575 280.763 379.085 279.404L379.095 279.395L379.096 279.394C395.079 265.009 411.421 250.301 422.84 232.204C434.97 213.004 440.78 190.724 444.84 168.614C447.1 156.324 449.15 143.844 449.55 131.324C449.78 124.914 449.8 118.124 448.55 111.814C448.536 111.742 448.521 111.663 448.504 111.578V111.578C448.218 110.109 447.56 106.734 445.67 106.734C443.977 106.744 442.725 110.028 442.264 111.238L442.25 111.274C441.257 113.943 440.595 116.755 439.934 119.565L439.934 119.565L439.934 119.565L439.934 119.566C439.423 121.735 438.912 123.904 438.25 126.004C436.91 130.224 435.36 134.364 433.65 138.434C429.736 147.802 424.874 156.745 419.14 165.124ZM375.42 17.7638C377.42 15.9038 379.5 14.0837 381.6 12.3237C382.021 11.971 382.48 11.5481 382.969 11.0979C384.918 9.30153 387.337 7.07179 389.68 7.14375C390.489 7.15378 391.282 7.36332 391.99 7.75375C385.75 9.11375 379.88 16.4237 376.51 20.6237L376.383 20.7819C371.047 27.4194 365.198 34.6952 361.14 42.4338C360.884 42.108 360.585 41.8186 360.25 41.5737C358.82 40.5737 357.36 39.5737 355.89 38.5737C357.204 37.115 358.508 35.6486 359.81 34.1828L359.811 34.1822C364.822 28.544 369.825 22.9145 375.42 17.7638ZM282.667 30.078L282.666 30.0617C282.658 28.5228 282.65 26.9836 282.65 25.4437C278.14 25.1137 273.6 24.9137 269.07 24.8037C269.943 28.9948 270.366 33.3606 270.783 37.6545L270.783 37.6555V37.6558L270.783 37.6563L270.783 37.6568V37.6573C270.939 39.2638 271.093 40.8603 271.27 42.4337C271.561 44.9396 271.842 47.4454 272.124 49.9545C272.249 51.0702 272.374 52.1865 272.5 53.3037C272.581 54.0326 272.641 54.8774 272.704 55.7839C272.932 59.0191 273.215 63.0404 274.73 65.3838C275.23 67.5171 276.977 67.9538 279.97 66.6937C280.709 64.8665 281.122 62.9237 281.19 60.9538C281.4 59.1437 281.58 57.3337 281.74 55.5238C282.07 51.9037 282.33 48.2738 282.49 44.6338C282.718 39.7808 282.692 34.9336 282.667 30.0834V30.0825V30.0816V30.0807V30.0798V30.0789V30.078ZM247.879 24.8837L249.999 24.8337C249.889 30.4886 250.135 36.177 250.381 41.8602L250.381 41.8609C250.581 46.4688 250.78 51.0733 250.789 55.6537C250.936 60.83 250.812 66.0104 250.419 71.1737C250.289 72.4737 249.419 80.1737 247.799 80.7637C246.092 81.3444 244.829 77.0032 244.21 74.8756L244.209 74.8743L244.208 74.8713L244.208 74.8687C244.103 74.5078 244.016 74.2111 243.95 74.0137C240.59 64.1337 239.14 53.7637 237.81 43.5037C237.716 42.7755 237.623 42.0473 237.531 41.3192C237.041 37.4781 236.553 33.6403 235.88 29.8237C235.814 29.4509 235.76 29.0576 235.705 28.6579L235.705 28.6571L235.704 28.6563L235.704 28.6554L235.704 28.6545C235.542 27.4795 235.372 26.2509 234.88 25.3337C239.207 25.1537 243.54 25.0037 247.879 24.8837ZM209.293 37.1773C209.087 33.5734 208.88 29.9582 208.88 26.3638L199.21 26.8237C200.392 30.8539 201.27 35.0045 202.139 39.1148C202.417 40.4304 202.694 41.7418 202.98 43.0438L204.98 52.1937C205.014 52.3761 205.069 52.733 205.142 53.204L205.144 53.213L205.144 53.2164L205.145 53.2205L205.145 53.2235V53.2236L205.145 53.224L205.145 53.2244C205.52 55.6574 206.355 61.0716 207.19 61.3138C211.083 62.3996 210.051 49.0903 209.694 44.484L209.694 44.4828L209.693 44.4788L209.693 44.4748L209.693 44.4709C209.646 43.866 209.611 43.4127 209.6 43.1637C209.522 41.1762 209.408 39.1797 209.293 37.1798L209.293 37.1773ZM103.61 22.5737C105.61 27.8538 107.28 33.2238 108.93 38.5737C106.609 40.0784 104.512 41.9031 102.7 43.9937C100.363 39.335 100.25 33.2289 100.147 27.6922C100.111 25.7654 100.077 23.9076 99.9502 22.2038C99.9127 21.7192 99.8789 21.1831 99.8427 20.6093C99.6181 17.05 99.3017 12.0359 97.4502 8.82375C99.8949 11.3516 102.07 17.945 103.119 21.1241L103.119 21.1246C103.331 21.7685 103.497 22.2722 103.61 22.5737ZM96.1902 13.5737C92.0302 34.4837 90.4702 55.7037 90.3102 77.0637C90.111 104.904 91.2169 132.77 92.3221 160.615C92.9365 176.097 93.5507 191.572 93.9402 207.034C94.5335 229.167 95.1635 251.304 95.8302 273.444C95.9376 277.197 96.0958 280.994 96.255 284.815C96.9409 301.277 97.6465 318.213 94.4002 334.234C104.07 343.544 116.81 349.194 130.89 351.844C140.913 353.72 151.021 354.15 161.135 354.58H161.135C162.02 354.617 162.905 354.655 163.79 354.694L197.79 356.144C199.425 356.216 201.06 356.288 202.695 356.361L202.769 356.364L202.771 356.364C223.89 357.305 245.062 358.247 266.19 357.144C288.98 355.954 311.11 351.464 333.11 345.464C334.582 345.06 336.058 344.659 337.537 344.257L337.539 344.256L337.541 344.256C346.273 341.883 355.076 339.491 363.55 336.404L364.34 336.104C365.2 307.704 366.607 279.347 368.56 251.034C372.107 200.16 377.44 149.494 384.56 99.0337C386.35 86.3337 388.22 73.8138 390.24 61.0337C390.749 57.8149 391.31 54.593 391.873 51.3659C393.543 41.7802 395.221 32.1495 395.55 22.4237C395.555 22.2992 395.559 22.1692 395.564 22.0343C395.672 19.0838 395.865 13.7681 394.23 10.3637C393.26 10.9414 392.265 11.459 391.27 11.977C389.146 13.0819 387.02 14.1885 385.12 15.8837C382.193 18.6417 379.516 21.6534 377.12 24.8838C374.249 28.5182 371.674 32.3796 369.1 36.2378C366.753 39.7574 364.407 43.2743 361.84 46.6138C361.09 48.9237 358.66 50.5837 356.02 48.8237C339.76 37.9837 321.95 31.3138 302.76 27.9038C297.15 26.9137 291.49 26.2038 285.82 25.7137C286.228 35.6648 285.893 45.6324 284.82 55.5337C284.77 56.0841 284.731 56.7358 284.686 57.4563V57.4565V57.4568C284.358 62.8239 283.796 72.0039 277.21 71.4837C270.861 70.9765 270.095 61.3289 269.635 55.532C269.569 54.7006 269.509 53.9484 269.44 53.3138C269.137 50.5551 268.753 47.7459 268.365 44.9121L268.365 44.9117C267.45 38.2232 266.517 31.3973 266.58 24.7738C262.147 24.7004 257.72 24.7004 253.3 24.7738C254.474 36.1336 254.27 47.9418 254.072 59.3887C254.051 60.6182 254.03 61.8436 254.01 63.0638L254.004 63.4748V63.4749C253.927 68.4775 253.847 73.6456 252.29 78.4537L252.25 78.5777C251.493 80.9032 250.155 85.0118 247.07 84.9037C244.254 84.8017 242.987 81.0295 242.117 78.4404L242.117 78.4401L242.117 78.4397C241.965 77.986 241.824 77.5686 241.69 77.2137C239.701 71.7619 238.205 66.1427 237.22 60.4238C236.23 55.0838 235.53 49.6837 234.86 44.2837C234.49 41.2337 234.11 38.1338 233.74 35.1338C233.68 34.6355 233.645 33.8782 233.604 32.9967V32.9965V32.9964C233.483 30.3751 233.31 26.6559 232.27 25.3838C225.47 25.6437 218.67 25.9271 211.87 26.2337C212.539 32.7627 212.679 39.416 212.817 46.0147L212.817 46.0161L212.817 46.0174C212.867 48.3927 212.916 50.7609 212.99 53.1138C212.994 53.2444 212.999 53.3822 213.004 53.5265C213.13 57.1278 213.397 64.7676 208.33 65.1137C203.804 65.4122 202.755 57.7741 202.147 53.3466L202.147 53.3462L202.147 53.3457C202.021 52.4324 201.915 51.6558 201.8 51.1138C201.311 48.8078 200.778 46.4901 200.243 44.1638L200.242 44.1632L200.242 44.1623C198.927 38.4489 197.601 32.6839 196.89 26.9137L192.13 27.1437C176.38 27.9137 160.51 29.0338 145.08 32.4738C137.538 34.0893 130.17 36.4336 123.08 39.4738C120.363 40.6707 117.727 42.1703 115.088 43.6714C111.202 45.8825 107.309 48.097 103.14 49.3538C102.486 49.5212 101.792 49.3475 101.294 48.8918C100.796 48.4361 100.561 47.76 100.67 47.0938C97.8526 42.609 97.5539 36.898 97.2812 31.6845L97.2602 31.2837C97.1776 29.7807 97.1321 28.2729 97.0866 26.7648L97.0866 26.7643L97.0866 26.7639V26.7637C97.0165 24.4394 96.9464 22.1142 96.7402 19.8037C96.6997 19.3706 96.665 18.8335 96.6259 18.2273C96.5394 16.8883 96.4311 15.2121 96.1902 13.5737ZM90.0402 329.504C86.6938 325.439 83.9275 320.929 81.8202 316.104C80.8202 313.884 77.9302 315.614 78.2302 317.614C81.0802 336.394 98.7502 349.514 115.44 355.614C133.65 362.266 153.72 362.958 173.177 363.629H173.178L173.182 363.629C177.123 363.765 181.04 363.9 184.91 364.084C188.831 364.27 192.754 364.468 196.677 364.666H196.678C217.988 365.742 239.326 366.818 260.65 366.084C284.89 365.234 308.54 361.084 331.94 354.864C333.915 354.337 335.904 353.817 337.9 353.295L337.908 353.293C348.757 350.455 359.824 347.56 370.05 343.254C380 339.074 390.34 331.784 392.34 320.454C393.03 316.564 387.34 313.294 385.39 317.524C382.672 323.579 378.177 328.664 372.5 332.104C372.907 319.73 373.42 307.364 374.04 295.004C377.396 291.892 380.807 288.8 384.229 285.698L384.23 285.697C393.543 277.255 402.938 268.739 411.53 259.554C441.45 285.604 442.76 331.504 429.4 366.554C421.03 388.554 405.65 405.674 385.34 417.304C365.24 428.804 342.5 436.004 320.1 441.514C272.2 453.304 222.19 454.894 173.32 449.004C148.76 446.004 123.75 441.634 100.14 434.104C78.5802 427.234 59.7802 415.314 46.2502 396.944C30.7702 375.944 23.5602 350.024 23.6502 324.044C23.7502 299.044 29.0602 270.624 45.8502 251.154C47.4402 252.894 49.0502 254.604 50.7202 256.274C61.9702 267.494 75.1502 277.224 89.7202 283.594C90.2902 298.894 90.5902 314.174 90.0402 329.504ZM88.9602 262.064C88.1469 242.01 87.3235 221.957 86.4902 201.904V201.924C85.4305 202.32 84.2395 202.118 83.3702 201.394C65.4902 188.254 51.4402 170.894 40.6502 151.594C35.2144 141.749 30.4794 131.534 26.4802 121.024C25.8904 119.491 25.3237 117.902 24.7492 116.291C22.1877 109.109 19.4717 101.494 13.8602 96.4538C7.0202 109.784 6.9102 125.274 8.1402 140.014C10.5902 169.894 18.7902 199.774 34.7202 225.354C48.187 246.942 67.0875 264.615 89.5302 276.604C89.4133 273.46 89.2879 270.317 89.1624 267.167C89.0946 265.468 89.0268 263.767 88.9602 262.064Z" fill="#231F20"/>
<path d="M110.639 179.704C118.849 176.884 126.639 173.044 134.869 170.174C138.699 168.824 142.579 167.614 146.479 166.484C150.669 165.274 156.709 162.574 160.709 165.484C161.269 165.884 161.929 165.004 161.439 164.544C155.659 159.084 145.439 163.884 139.079 165.884C129.209 168.974 118.699 172.524 110.019 178.274C109.309 178.714 109.739 180.014 110.639 179.704Z" fill="#231F20"/>
<path d="M157.721 178.674C158.401 178.254 158.061 176.994 157.141 177.284C146.961 180.444 137.441 188.044 129.981 195.474C122.521 202.904 114.811 212.414 111.571 222.584C111.211 223.724 112.821 224.304 113.431 223.374C119.331 214.304 124.311 205.314 132.051 197.544C139.791 189.774 148.721 184.674 157.741 178.694L157.721 178.674Z" fill="#231F20"/>
<path d="M164.259 190.314C158.259 194.724 153.449 200.944 149.439 207.194C145.279 213.674 141.119 221.274 139.739 228.934C139.549 229.934 141.069 230.834 141.589 229.714C144.729 223.064 147.129 216.244 150.999 209.924C155.099 203.244 160.339 197.654 165.249 191.594C165.899 190.974 165.019 189.754 164.259 190.314Z" fill="#231F20"/>
<path d="M329.23 156.854C317.23 151.854 304.49 151.754 291.76 153.224C290.97 153.314 290.94 154.544 291.76 154.484C303.26 153.604 315.48 154.484 326.31 158.634C331.302 160.521 335.968 163.176 340.14 166.504C343.92 169.564 346.71 173.354 350.14 176.754C350.63 177.244 351.62 176.754 351.36 176.034C348.03 166.904 337.75 160.364 329.23 156.854Z" fill="#231F20"/>
<path d="M324.791 187.764C315.901 180.284 304.901 174.064 293.301 172.264C293.025 172.189 292.741 172.352 292.666 172.629C292.592 172.905 292.755 173.189 293.031 173.264C304.291 177.174 314.661 181.924 323.691 189.884C332.551 197.684 337.741 207.064 343.691 216.984C343.908 217.34 344.354 217.483 344.737 217.32C345.121 217.157 345.327 216.737 345.221 216.334C342.301 205.234 333.381 194.984 324.791 187.764Z" fill="#231F20"/>
<path d="M293.909 190.864C293.549 190.674 293.129 191.154 293.459 191.444C302.139 199.164 309.579 207.234 315.079 217.584C321.259 229.194 323.909 241.704 327.759 254.134C328.019 254.954 329.429 254.854 329.339 253.924C327.049 231.254 315.289 201.984 293.909 190.864Z" fill="#231F20"/>
<path d="M339.851 424.174C349.1 421.851 357.943 418.143 366.082 413.174C372.992 408.994 382.962 403.054 386.582 395.544C386.691 395.331 386.65 395.073 386.481 394.905C386.313 394.736 386.055 394.695 385.842 394.804C382.292 396.594 379.452 399.684 376.422 402.214C372.694 405.318 368.769 408.177 364.672 410.774C356.738 415.712 348.317 419.82 339.541 423.034C339.227 423.119 339.041 423.444 339.126 423.759C339.212 424.074 339.537 424.259 339.851 424.174Z" fill="#231F20"/>
<path d="M395.71 385.414C400.71 381.164 406.71 375.514 409.19 369.304C409.55 368.414 408.31 367.924 407.72 368.444C405.18 370.654 403.28 373.734 401.19 376.344C399.1 378.954 396.86 381.714 394.72 384.414C394.444 384.687 394.442 385.133 394.715 385.409C394.989 385.685 395.434 385.687 395.71 385.414Z" fill="#231F20"/>
<path d="M39.732 303.504C39.902 302.584 38.5419 302.184 38.3119 303.114C35.577 313.872 35.2356 325.099 37.3119 336.004C39.312 346.294 43.2023 358.294 50.7028 365.924C51.2628 366.504 52.0629 365.774 51.7628 365.114C47.2925 355.414 42.1822 346.694 39.952 336.114C37.7389 325.364 37.6641 314.283 39.732 303.504Z" fill="#231F20"/>
<path d="M61.8421 382.164C62.083 382.347 62.4179 382.343 62.6544 382.154C62.891 381.965 62.9683 381.639 62.8421 381.364C61.1821 377.874 57.8421 374.814 54.8421 372.474C54.6101 372.242 54.2341 372.242 54.0021 372.474C53.7701 372.706 53.7701 373.082 54.0021 373.314C56.5121 376.264 58.9421 379.664 61.8421 382.164Z" fill="#231F20"/>
</svg>
