<svg width="542" height="505" viewBox="0 0 542 505" fill="none" xmlns="http://www.w3.org/2000/svg">
<path d="M199.866 277.325C198.776 275.095 213.426 254.515 215.296 251.325C221.336 241.098 227.293 230.815 233.166 220.475C243.986 201.415 257.486 181.395 261.896 159.595C265.626 141.205 256.256 108.825 231.286 116.485C208.536 123.485 204.196 152.795 200.536 172.715C198.456 184.015 179.296 184.265 177.446 172.715C173.986 151.185 166.636 123.295 142.576 116.715C112.976 108.565 105.636 138.515 113.466 160.805C128.846 204.555 162.926 237.315 191.986 272.025C195.407 272.149 198.461 274.203 199.866 277.325Z" fill="white"/>
<path fill-rule="evenodd" clip-rule="evenodd" d="M26.9333 323.635C27.0003 325.081 27.0428 326.561 27.0859 328.059C27.4025 339.083 27.7464 351.055 38.0733 357.315C46.3333 362.315 56.9533 363.225 66.3633 363.745C119.283 366.745 172.883 365.165 225.813 363.125C239.743 362.585 253.673 361.885 267.593 361.125C269.343 361.031 271.097 360.873 272.839 360.717L272.841 360.717C281.251 359.961 289.406 359.229 295.743 365.715C297.373 367.389 298.874 369.184 300.233 371.085C301.582 372.058 302.587 373.434 303.103 375.015C303.178 375.245 303.248 375.475 303.318 375.706C303.388 375.935 303.458 376.165 303.533 376.395C308.363 385.395 310.373 395.645 310.413 405.885C313.613 426.575 313.763 447.785 312.103 468.775C338.033 445.715 355.303 414.835 362.903 380.305C363.903 375.875 368.683 372.425 373.113 372.535C403.113 373.235 433.112 373.245 463.112 372.385C465.731 372.311 468.391 372.28 471.071 372.249H471.071C481.05 372.132 491.319 372.012 500.872 369.655C517.272 365.655 519.662 354.965 519.592 339.655C519.395 299.599 518.222 259.526 517.049 219.465V219.463L517.049 219.451C516.437 198.558 515.825 177.668 515.352 156.785L513.492 74.4848C513.441 72.2319 513.578 69.2615 513.731 65.9267C514.3 53.5563 515.1 36.1699 507.412 31.7748C504.239 29.9575 498.135 29.9874 493.281 30.0111C491.511 30.0198 489.907 30.0276 488.672 29.9448C482.612 29.5248 476.552 29.1315 470.492 28.7648C415.943 25.4848 361.313 24.2348 306.733 23.6348C260.961 23.1316 215.119 23.5779 169.29 24.024C160.47 24.1099 151.651 24.1957 142.833 24.2748C115.5 24.5281 88.1832 24.8281 60.8833 25.1748C59.0367 25.2001 56.9433 25.0714 54.7672 24.9377C50.0612 24.6484 44.969 24.3355 41.1533 25.5048C33.7362 27.7921 31.5582 35.1539 29.6141 41.7254L29.6141 41.7255C29.5268 42.0204 29.4401 42.3136 29.3533 42.6048C26.0502 53.7371 25.6127 65.4907 25.183 77.0352L25.183 77.0357C25.1665 77.479 25.15 77.9221 25.1333 78.3648C23.1333 132.835 23.1333 187.455 24.2133 241.945C24.7533 269.198 25.66 296.428 26.9333 323.635ZM337.933 186.115C352.42 167.893 364.577 147.936 374.123 126.705C379.223 115.195 393.683 122.965 394.923 132.345C400.393 173.635 405.493 214.765 404.353 256.505C403.913 272.675 378.693 272.665 379.233 256.505C380.233 227.505 378.573 198.575 376.103 169.705C373.81 173.245 371.403 176.708 368.883 180.095L368.584 180.496C362.143 189.117 354.7 199.081 342.883 198.165C336.483 197.695 334.113 191.055 337.943 186.155L337.933 186.115ZM153.023 95.2848C126.263 85.7048 97.2033 97.2248 88.7333 125.285C78.9833 157.475 100.383 191.045 117.303 216.815C128.233 233.465 140.563 250.445 154.733 265.355L157.643 268.815C165.651 278.477 174.481 287.427 184.033 295.565C188.593 301.005 196.213 303.575 204.283 301.805C217.846 298.832 225.781 283.959 232.412 271.531C233.877 268.785 235.279 266.158 236.663 263.805C240.27 257.678 244.2 251.372 248.226 244.913C265.969 216.448 285.572 185 287.503 152.675C289.323 122.755 268.063 89.3848 235.323 90.9648C211.433 92.0848 197.173 108.385 188.433 128.085C180.803 113.445 169.533 101.215 153.023 95.2848Z" fill="#F7941E"/>
<path fill-rule="evenodd" clip-rule="evenodd" d="M79.1359 387.878C57.3476 387.321 32.1115 386.676 16.0848 369.965C1.39109 354.671 1.72056 328.29 1.99882 306.011C2.06806 300.467 2.13413 295.177 1.96476 290.375C-0.188569 229.788 -0.571902 169.205 0.814765 108.625C0.934044 103.759 0.964749 98.7999 0.995763 93.7912C1.13116 71.9256 1.27246 49.1059 8.81476 28.8548C17.8648 4.41481 33.8148 1.43481 57.8148 1.14481C179.165 -0.365187 300.675 -1.05519 421.965 3.45481C430.664 3.79267 439.478 3.9193 448.33 4.04647C468.56 4.33711 488.988 4.63059 508.695 7.45481C534.515 11.2048 536.775 30.8848 537.115 53.2048C538.121 114.158 539.045 175.108 539.885 236.055C540.01 245.116 540.118 254.185 540.226 263.259C540.482 284.666 540.737 306.095 541.215 327.495C541.239 328.569 541.266 329.652 541.294 330.74C541.794 350.366 542.341 371.856 523.875 383.955C508.393 394.102 487.89 394.172 469.395 394.234C466.256 394.245 463.174 394.255 460.185 394.315C433.885 394.835 407.585 394.665 381.285 393.945C369.095 438.175 341.285 475.835 303.945 502.605C297.555 507.185 286.235 501.145 287.285 493.035C290.525 467.885 290.505 443.165 289.445 418.305C289.175 417.467 289.023 416.595 288.995 415.715C288.927 404.972 285.707 394.485 279.735 385.555C214.205 390.155 148.075 389.845 82.4648 387.965C81.3654 387.935 80.2552 387.906 79.1359 387.878ZM25.1335 77.0257C25.1173 77.4623 25.1011 77.8987 25.0848 78.3348H25.1048C23.0548 132.805 23.0648 187.425 24.1848 241.875C24.7448 269.141 25.6614 296.395 26.9348 323.635C27.0019 325.09 27.0445 326.578 27.0876 328.084C27.4035 339.132 27.7456 351.099 38.0248 357.365C46.3148 362.375 56.9048 363.275 66.3148 363.795C119.235 366.745 172.835 365.175 225.765 363.175C239.695 362.625 253.625 361.925 267.545 361.175C269.296 361.08 271.05 360.923 272.793 360.766C281.203 360.011 289.358 359.279 295.695 365.765C297.325 367.439 298.826 369.234 300.185 371.135C301.534 372.108 302.539 373.484 303.055 375.065C303.13 375.295 303.2 375.525 303.27 375.755C303.34 375.985 303.41 376.215 303.485 376.445C308.315 385.415 310.365 395.695 310.365 405.935C313.565 426.625 313.715 447.825 312.055 468.825C337.985 445.765 355.255 414.885 362.855 380.355C363.835 375.925 368.635 372.475 373.065 372.585C403.065 373.285 433.065 373.295 463.065 372.435C465.693 372.36 468.362 372.33 471.053 372.299C481.022 372.185 491.28 372.067 500.825 369.705C517.225 365.705 519.615 355.015 519.545 339.705C519.348 299.649 518.174 259.576 517.001 219.514C516.39 198.616 515.778 177.722 515.305 156.835L513.445 74.5348C513.394 72.2819 513.53 69.3116 513.684 65.9768C514.253 53.6065 515.052 36.22 507.365 31.8248C504.192 30.0075 498.087 30.0374 493.233 30.0611C491.463 30.0698 489.859 30.0777 488.625 29.9948C482.565 29.5748 476.505 29.1815 470.445 28.8148C415.925 25.4848 361.335 24.2448 306.685 23.6048C261.517 23.0759 216.377 23.5237 171.225 23.9717C161.745 24.0657 152.266 24.1598 142.785 24.2448C115.485 24.5181 88.1681 24.8181 60.8348 25.1448C58.9882 25.1701 56.8948 25.0414 54.7187 24.9077C50.0127 24.6185 44.9204 24.3055 41.1048 25.4748C33.6433 27.7611 31.4893 35.1169 29.5657 41.6861C29.4784 41.9841 29.3916 42.2806 29.3048 42.5748C25.9994 53.7147 25.5636 65.4489 25.1335 77.0257Z" fill="#231F20"/>
<path fill-rule="evenodd" clip-rule="evenodd" d="M157.604 268.835L154.734 265.355C140.574 250.445 128.244 233.465 117.314 216.885C100.384 191.115 78.9843 157.545 88.7043 125.355C97.1743 97.2748 126.234 85.7548 152.994 95.3548C169.504 101.285 180.774 113.515 188.404 128.155C197.144 108.455 211.394 92.1848 235.294 91.0348C268.034 89.4548 289.254 122.825 287.474 152.745C285.541 185.103 265.9 216.602 248.143 245.081C244.136 251.508 240.225 257.781 236.634 263.875C235.25 266.228 233.848 268.855 232.383 271.601C225.752 284.029 217.817 298.902 204.254 301.875C196.184 303.635 188.564 301.075 184.004 295.635C174.446 287.482 165.613 278.515 157.604 268.835ZM177.444 172.695C173.984 151.205 166.634 123.315 142.574 116.695C112.974 108.545 105.634 138.495 113.464 160.765C125.892 196.117 150.53 224.293 174.863 252.121C180.643 258.731 186.406 265.322 191.984 271.985C195.401 272.112 198.45 274.165 199.854 277.282C199.857 277.29 199.861 277.297 199.864 277.305C199.861 277.297 199.857 277.289 199.854 277.282C199.109 275.487 207.317 263.271 212.131 256.106C213.659 253.832 214.845 252.066 215.294 251.305C221.334 241.078 227.291 230.795 233.164 220.455C235.034 217.162 236.983 213.84 238.952 210.486C248.378 194.424 258.246 177.608 261.894 159.575C265.624 141.185 256.284 108.805 231.284 116.465C209.531 123.129 204.61 150.247 201.021 170.025C200.856 170.931 200.695 171.822 200.534 172.695C198.444 183.995 179.294 184.245 177.444 172.695Z" fill="#231F20"/>
<path d="M342.934 198.205C354.853 199.205 362.383 188.845 368.933 180.135C371.46 176.755 373.866 173.291 376.153 169.745C378.623 198.615 380.263 227.565 379.283 256.545C378.743 272.705 403.962 272.715 404.402 256.545C405.542 214.805 400.403 173.675 394.973 132.385C393.733 123.005 379.273 115.235 374.173 126.745C364.627 147.976 352.47 167.933 337.984 186.155C334.114 191.055 336.484 197.695 342.934 198.205Z" fill="#231F20"/>
</svg>
