<svg width="558" height="492" viewBox="0 0 558 492" fill="none" xmlns="http://www.w3.org/2000/svg">
<path fill-rule="evenodd" clip-rule="evenodd" d="M306.986 205.927C304.786 205.48 302.579 205.077 300.366 204.717C355.726 194.187 416.606 196.207 454.876 242.747C493.466 289.717 494.946 358.107 466.876 410.557C453.266 435.967 429.436 465.727 399.126 470.367C364.996 475.547 342.856 440.977 333.076 413.367C330.144 405.092 327.615 396.635 325.084 388.176C318.441 365.965 311.794 343.74 297.846 324.767C278.046 297.837 250.636 290.427 218.566 288.677C198.779 287.603 178.979 287.233 159.166 287.567C151.038 287.701 142.868 288.244 134.691 288.788C133.129 288.892 131.568 288.996 130.006 289.097C159.476 263.617 191.646 242.277 227.096 226.897C234.02 224.671 241.095 222.943 248.266 221.727C266.182 219.002 284.451 219.68 302.116 223.727C317.983 227.487 333.124 233.828 346.936 242.497C352.704 246.127 358.088 250.41 363.474 254.694C370.358 260.17 377.244 265.648 384.936 269.767C388.656 271.787 394.256 268.387 392.656 263.837C381.256 231.497 338.126 212.337 306.986 205.927ZM412.606 363.717C414.256 369.347 421.316 368.537 423.256 363.717C431.236 343.907 420.826 317.237 410.226 300.347C407.066 295.297 397.736 298.527 400.126 304.607C403.871 314.042 406.71 323.813 408.606 333.787C409.401 337.984 409.736 342.256 410.071 346.519C410.528 352.341 410.984 358.146 412.606 363.717Z" fill="#BE1E2D"/>
<path d="M377.146 71.8965C381.456 82.1765 388.836 96.6765 401.946 96.0365C414.766 95.4265 423.586 82.6265 426.366 71.3765C429.616 58.2265 427.296 44.2065 426.296 30.9065C426.249 30.2586 426.28 29.6073 426.386 28.9665C416.862 25.047 406.797 22.6022 396.536 21.7165C386.956 21.0755 377.332 21.6772 367.906 23.5065C368.021 24.1132 368.077 24.7292 368.076 25.3465C367.914 41.3175 371 57.1547 377.146 71.8965Z" fill="white"/>
<path d="M322.296 133.106C337.296 125.966 341.216 97.5663 344.476 82.9363C348.407 64.7122 350.544 46.147 350.856 27.5063C333.516 32.3563 316.476 39.0563 299.266 43.5063C296.486 44.2163 293.716 44.8063 290.966 45.3463C290.236 64.0363 294.516 146.326 322.296 133.106Z" fill="white"/>
<path d="M243.986 146.047C264.746 150.307 268.236 124.047 269.506 109.607C271.316 88.9566 272.756 68.2666 274.366 47.6066C251.146 49.4566 228.466 46.0066 204.936 41.3066C205.759 60.6479 208.608 79.8495 213.436 98.5966C217.726 115.267 223.806 141.897 243.986 146.047Z" fill="white"/>
<path d="M165.045 96.3365C174.965 94.1765 177.375 71.7265 179.415 63.7665C181.622 55.0532 183.859 46.3332 186.125 37.6065C173.325 35.2865 160.385 33.6065 147.365 34.4565C146.585 34.4565 145.805 34.6165 145.025 34.6965C145.475 52.1165 146.725 100.317 165.045 96.3365Z" fill="white"/>
<path fill-rule="evenodd" clip-rule="evenodd" d="M375.365 1.09649C413.405 -3.42351 448.875 12.3865 478.525 35.0965C505.795 55.9865 530.725 82.2665 545.295 113.736C571.335 170.007 557.655 246.087 497.065 272.507C497.815 274.406 498.525 276.336 499.195 278.266C521.065 340.796 503.045 415.547 455.505 461.547C431.495 484.767 397.845 500.826 365.335 485.616C332.825 470.406 318.175 435.737 308.575 403.406C307.727 400.554 306.88 397.616 306.017 394.622C296.696 362.303 285.453 323.319 250.455 312.126C233.741 306.779 214.659 306.696 196.7 306.618H196.698H196.697H196.696H196.694C193.262 306.603 189.871 306.588 186.545 306.536C164.432 306.203 142.352 306.727 120.305 308.107C116.275 308.357 112.395 308.556 108.625 308.556C106.364 310.59 102.906 310.498 100.755 308.346C89.0455 307.637 78.2955 304.637 67.3455 296.637C52.8555 286.077 38.2655 274.406 27.3455 260.077C5.72548 231.747 -1.27452 192.607 0.865475 157.706C3.36548 117.906 21.8355 88.1465 51.5055 62.4765C79.0555 38.6465 109.965 17.6865 147.365 15.2365C167.677 13.9074 187.514 17.83 207.356 21.7535C226.031 25.4464 244.711 29.1402 263.795 28.4565C284.754 27.7192 304.55 21.0743 324.371 14.4205C341.111 8.801 357.87 3.1752 375.365 1.09649ZM426.375 28.9665C416.852 25.047 406.786 22.6022 396.525 21.7165H396.535C386.952 21.0746 377.325 21.6763 367.895 23.5065C368.01 24.1131 368.067 24.7292 368.065 25.3465C367.903 41.3174 370.989 57.1547 377.135 71.8965C381.445 82.1765 388.825 96.6765 401.935 96.0365C414.755 95.3765 423.575 82.6265 426.355 71.3765C429.001 60.6707 427.955 49.3883 426.936 38.3872L426.935 38.3843C426.703 35.8737 426.471 33.3776 426.285 30.9065C426.239 30.2585 426.269 29.6073 426.375 28.9665ZM290.955 45.3165C293.705 44.7765 296.475 44.1865 299.255 43.4765C308.703 41.05 318.1 37.9363 327.524 34.8139L327.524 34.8137L327.524 34.8136L327.525 34.8135C335.266 32.2484 343.025 29.6773 350.845 27.4765C350.533 46.1171 348.396 64.6823 344.465 82.9065C344.066 84.6993 343.657 86.6985 343.218 88.8397C340.078 104.171 335.447 126.785 322.285 133.076C294.515 146.326 290.235 64.0365 290.965 45.3165H290.955ZM272.873 67.1949L272.874 67.1927L272.874 67.1906C273.365 60.661 273.857 54.1323 274.365 47.6065C251.145 49.4565 228.465 46.0065 204.935 41.3165C205.759 60.6577 208.608 79.8593 213.435 98.6065C213.592 99.214 213.751 99.8348 213.913 100.467L213.918 100.49C218.193 117.201 224.55 142.05 243.985 146.046C264.745 150.307 268.235 124.056 269.505 109.606C270.744 95.4811 271.809 81.3369 272.873 67.1965L272.873 67.1957L272.873 67.1949ZM147.365 34.4665C160.365 33.6565 173.365 35.2965 186.125 37.6165C183.879 46.3232 181.642 55.0398 179.415 63.7665C179.069 65.1513 178.71 66.968 178.3 69.0367C176.343 78.9183 173.248 94.5504 165.045 96.3365C146.715 100.336 145.475 52.1165 145.045 34.7065C145.805 34.6065 146.585 34.5165 147.365 34.4665ZM399.085 470.336C429.395 465.696 453.225 435.936 466.835 410.526C494.905 358.076 493.425 289.686 454.785 242.686C416.565 196.176 355.725 194.156 300.325 204.686C302.539 205.04 304.745 205.443 306.945 205.896C338.085 212.306 381.215 231.466 392.615 263.806C394.215 268.356 388.655 271.736 384.895 269.736C377.28 265.648 370.447 260.212 363.61 254.773C358.173 250.448 352.733 246.121 346.895 242.466C333.084 233.798 317.942 227.457 302.075 223.696C284.411 219.65 266.142 218.972 248.225 221.696C241.055 222.913 233.98 224.641 227.055 226.866C191.605 242.246 159.435 263.586 129.965 289.066C131.527 288.965 133.089 288.862 134.65 288.758C142.827 288.214 150.997 287.671 159.125 287.536C178.945 287.21 198.745 287.58 218.525 288.646C250.595 290.396 278.005 297.806 297.805 324.736C311.736 343.716 318.393 365.95 325.046 388.168C327.576 396.62 330.106 405.069 333.035 413.336C342.815 440.986 364.955 475.556 399.085 470.336Z" fill="#231F20"/>
<path d="M400.126 304.607C403.886 314.048 406.739 323.825 408.646 333.807C410.486 343.697 409.796 354.087 412.646 363.737C414.276 369.367 421.356 368.557 423.296 363.737C431.296 343.927 420.866 317.257 410.296 300.347C407.066 295.277 397.726 298.507 400.126 304.607Z" fill="#231F20"/>
</svg>
