<svg width="468" height="582" viewBox="0 0 468 582" fill="none" xmlns="http://www.w3.org/2000/svg">
<path d="M83.4933 377.63C83.3733 376.04 83.2533 374.44 83.1433 372.84C76.6833 377.97 68.8433 381.63 61.4733 385.06C52.9733 389.01 44.0033 393.93 34.8633 396.32C38.5246 399.184 42.7245 401.282 47.2133 402.49C52.7233 398.21 58.6533 394.44 64.4033 390.49C70.7233 386.21 76.9333 381.7 83.4933 377.63Z" fill="#88E0FF"/>
<path d="M82.8545 368.98L82.4645 363.55C73.4645 368.45 63.6345 372.28 54.2045 376.19C45.4745 379.82 35.8945 384.52 26.3945 386.45C28.215 389.753 30.6051 392.709 33.4545 395.18C41.3845 389.66 51.1245 386.38 59.8245 382.24C67.7575 378.281 75.4477 373.853 82.8545 368.98Z" fill="#00AEEF"/>
<path d="M53.8637 372.77C63.4137 368.71 72.6437 363.85 82.2037 359.83C82.1337 358.9 82.0737 357.96 82.0137 357.03C79.887 357.647 77.7268 358.141 75.5437 358.51C69.3036 359.844 63.0937 361.304 56.9137 362.89C45.5137 365.8 34.2637 369.22 22.9137 372.25C22.865 374.372 23.0562 376.492 23.4837 378.57C23.927 380.606 24.5979 382.585 25.4837 384.47C29.3437 382.54 33.5537 381.14 37.4837 379.54C42.9337 377.32 48.4137 375.09 53.8637 372.77Z" fill="#88E0FF"/>
<path d="M64.4049 405.12C65.4749 404.65 66.5649 404.22 67.6649 403.76C73.3249 401.46 79.1349 398.92 85.0349 397.33C84.6049 391.96 84.1749 386.61 83.7649 381.24C78.2349 385.18 72.4349 388.81 66.7649 392.55C61.3849 396.1 56.0749 399.86 50.5449 403.19C53.9652 403.745 57.4549 403.715 60.8649 403.1C62.3832 402.799 63.892 403.66 64.4049 405.12Z" fill="#00AEEF"/>
<path d="M68.7132 356.46C73.0132 355.46 77.5732 354.83 81.7632 353.34C81.6532 351.72 81.5432 350.09 81.4432 348.47C81.319 349.067 80.812 349.509 80.2032 349.55C62.7432 352.18 45.0332 355.71 27.3932 356.83C25.015 360.821 23.5278 365.28 23.0332 369.9C32.236 366.4 41.6194 363.396 51.1432 360.9C57.0032 359.313 62.8599 357.833 68.7132 356.46Z" fill="#00AEEF"/>
<path d="M62.7646 411.95C62.5405 412.174 62.2712 412.348 61.9746 412.46C60.3865 414.278 59.0419 416.295 57.9746 418.46C62.7535 417.633 67.4786 416.521 72.1246 415.13C76.6046 413.89 81.5046 412.25 86.2246 412.47C85.9046 408.47 85.5946 404.47 85.2846 400.41C81.1046 402.29 76.6746 403.72 72.3546 405.22C70.1646 405.98 67.7446 406.59 65.3546 407.31C65.49 408.073 65.2975 408.857 64.8246 409.47C64.2116 410.355 63.5223 411.185 62.7646 411.95Z" fill="#88E0FF"/>
<path d="M81.3836 347.53C81.2736 345.87 81.1736 344.21 81.0636 342.53C75.1936 343.53 68.2336 342.38 62.4536 342.25C58.7036 342.16 54.9436 342.05 51.1936 341.86C49.9436 341.79 48.5636 341.59 47.1936 341.42C47.0158 341.504 46.8319 341.574 46.6436 341.63C39.5866 343.682 33.4324 348.063 29.1836 354.06C45.5936 350.34 62.6736 348.59 79.2936 346.13C80.2426 346.007 81.136 346.606 81.3836 347.53Z" fill="#88E0FF"/>
<path d="M79.3137 309.26C79.2237 307.26 79.1637 305.26 79.0837 303.26C68.5237 305.78 57.9603 308.29 47.3937 310.79C36.7237 313.31 26.2537 315.91 15.2637 315.79C19.7402 321.174 25.2093 325.648 31.3737 328.97C37.6537 324.97 43.8037 321.33 51.0237 318.84C60.2637 315.59 69.7637 311.64 79.3137 309.26Z" fill="#00AEEF"/>
<path d="M78.5745 286.37C78.5745 284.65 78.5145 282.92 78.4845 281.19C67.0345 281.58 55.2845 280.33 43.8545 280.06C33.1345 279.82 21.9945 280.45 11.2945 279.21C8.09625 285.225 6.82876 292.079 7.66449 298.84C18.6645 294.25 32.0745 293.2 43.7845 291.3C55.2545 289.45 66.9345 287.3 78.5745 286.37Z" fill="#00AEEF"/>
<path d="M78.9348 299.61C78.8348 296.48 78.7348 293.35 78.6548 290.21C67.0648 292.09 55.3148 293.21 43.7148 294.99C37.2148 295.99 30.7148 297.08 24.2248 298.14C18.8748 299.02 13.3348 300.31 7.88477 300.3C7.99477 300.86 8.10477 301.42 8.24477 301.97C9.35992 306.233 11.2515 310.253 13.8248 313.83C25.5848 313.51 37.1648 309.78 48.5248 307.01C58.6714 304.53 68.8081 302.063 78.9348 299.61Z" fill="#88E0FF"/>
<path d="M46.084 335.25L46.624 335.42C47.9456 335.835 48.863 337.036 48.914 338.42C52.094 338.42 55.314 338.83 57.334 338.84C61.774 338.84 66.214 338.97 70.644 339.04C73.964 339.1 77.544 338.79 80.864 339.34C80.5173 333.54 80.184 327.74 79.864 321.94C75.944 323.99 71.504 325.39 67.414 327.03C60.514 329.79 53.364 332.95 46.084 335.25Z" fill="#00AEEF"/>
<path d="M57.2449 327.52C61.2449 325.91 65.3049 324.31 69.3249 322.65C72.2649 321.43 76.8749 320.37 79.6949 318.09C79.6149 316.38 79.5549 314.66 79.4749 312.95C71.1949 316.27 62.2449 318.54 53.8249 321.25C48.6911 322.773 43.7229 324.806 38.9949 327.32C37.2449 328.32 35.5349 329.32 33.7949 330.21C36.3225 331.496 38.9161 332.647 41.5649 333.66C46.7049 331.4 52.0749 329.57 57.2449 327.52Z" fill="#88E0FF"/>
<path d="M86.9332 421.551L86.4232 415.061C81.0632 416.431 75.5332 417.321 70.1632 418.681C65.8936 419.869 61.485 420.484 57.0532 420.511C54.6532 426.591 54.6432 433.391 58.6532 438.891C62.5437 435.744 66.6878 432.924 71.0432 430.461C76.1732 427.331 81.3932 423.921 86.9332 421.551Z" fill="#00AEEF"/>
<path d="M77.6844 439.48C80.9744 436.41 84.2144 433.27 87.6144 430.31C87.5044 428.86 87.3944 427.4 87.2744 425.94L87.1844 424.71C82.7244 427.5 77.9544 429.85 73.4244 432.53C68.8944 435.21 64.6344 438.2 59.9844 440.53C62.7587 443.46 66.2456 445.62 70.1044 446.8C72.7944 444.53 75.1844 441.8 77.6844 439.48Z" fill="#88E0FF"/>
<path d="M113.775 114.341C118.985 117.161 124.895 119.401 129.575 123.031C129.73 123.151 129.85 123.309 129.925 123.491C131.972 120.897 134.088 118.337 136.275 115.811C121.91 108.18 108.562 98.773 96.545 87.8105C96.1745 93.9189 96.9269 100.043 98.765 105.881C103.718 108.767 108.722 111.587 113.775 114.341Z" fill="#00AEEF"/>
<path d="M138.595 113.17C140.425 111.17 142.305 109.17 144.215 107.17C140.215 105.17 136.905 101.54 133.585 98.6103C129.545 95.0636 125.545 91.457 121.585 87.7903C114.975 81.6403 107.435 75.3103 101.725 68.0703C99.0651 73.3964 97.3721 79.1524 96.7246 85.0703C102.725 89.3503 108.725 93.7803 114.725 97.9803C122.555 103.36 130.635 108.14 138.595 113.17Z" fill="#88E0FF"/>
<path d="M136.704 73.23C140.251 77.1834 143.734 81.1834 147.154 85.23C150.054 88.67 153.594 92.12 155.604 96.23C158.024 94.1034 160.494 92.04 163.014 90.04C156.014 82.79 150.734 74.04 144.754 66.04C141.201 61.3766 137.329 56.966 133.164 52.84C130.963 50.7186 129.01 48.3534 127.344 45.79C123.216 47.1682 119.311 49.1424 115.754 51.65C123.254 58.21 130.044 65.82 136.704 73.23Z" fill="#88E0FF"/>
<path d="M136.114 96.0496C139.414 98.9196 143.564 101.59 146.114 105.2C148.534 102.76 151.02 100.383 153.574 98.0696C149.644 94.8896 146.664 90.0696 143.424 86.2096C140.184 82.3496 136.954 78.6296 133.634 74.9096C127.084 67.5696 120.024 60.6796 113.484 53.3496C112.724 53.9596 111.974 54.5996 111.264 55.2696C108.054 58.2965 105.305 61.7767 103.104 65.5996C110.314 71.2696 116.674 78.4596 123.364 84.5996C127.564 88.4863 131.814 92.3029 136.114 96.0496Z" fill="#00AEEF"/>
<path d="M116.463 142.7C118.297 139.72 120.207 136.79 122.193 133.91C117.443 130.91 113.033 126.99 108.643 123.63C106.643 122.15 104.643 120.72 102.853 119.12C101.739 120.396 99.9249 120.801 98.3734 120.12C95.4206 118.815 92.249 118.076 89.0234 117.94C93.5728 121.076 97.8875 124.538 101.933 128.3C106.803 132.7 112.673 137.25 116.463 142.7Z" fill="#00AEEF"/>
<path d="M234.815 59.2598C236.995 58.9298 239.175 58.6398 241.355 58.3698C239.435 50.2898 237.735 42.1598 235.945 34.0598C234.415 27.1698 232.235 20.0598 232.015 12.9198C226.698 9.48554 220.55 7.55711 214.225 7.33984C217.575 15.0598 220.325 23.0598 223.395 30.8798C227.065 40.2098 232.185 49.6198 234.815 59.2598Z" fill="#00AEEF"/>
<path d="M94.9334 135.55C100.443 139.64 107.693 144.35 112.183 150.02C113.113 148.38 114.083 146.76 115.053 145.14C109.653 141.31 105.203 135.75 100.313 131.27C95.4234 126.79 90.3134 122.74 85.7834 118.03C82.4758 118.28 79.2339 119.085 76.1934 120.41C78.6534 122.31 80.8134 124.86 83.1934 126.76C86.9334 129.84 90.9334 132.62 94.9334 135.55Z" fill="#88E0FF"/>
<path d="M216.704 62.8903C208.604 46.6955 202.371 29.6327 198.124 12.0303C192.765 15.6869 188.56 20.797 186.004 26.7603C193.234 39.8803 201.154 52.3703 209.314 64.9603C211.754 64.2003 214.224 63.5203 216.704 62.8903Z" fill="#00AEEF"/>
<path d="M220.364 61.9899C224.274 61.0899 228.214 60.3499 232.174 59.6899C227.474 51.7499 224.574 42.1599 221.234 33.5899C217.894 25.0199 214.364 16.3299 211.934 7.41992C208.727 7.66784 205.582 8.43798 202.624 9.69992C201.704 10.0688 200.806 10.4895 199.934 10.9599C203.174 19.4699 206.224 28.0499 209.534 36.5299C212.844 45.0099 216.754 53.5099 220.364 61.9899Z" fill="#88E0FF"/>
<path d="M196.074 69.8802C199.08 68.5468 202.137 67.3502 205.244 66.2902L205.774 66.1102C201.494 59.5002 197.204 52.8902 193.004 46.2302C189.884 41.2302 186.584 36.0102 184.504 30.4102C182.701 35.389 181.503 40.5659 180.934 45.8302C183.284 49.0502 185.264 52.5902 187.354 55.9302C190.294 60.5702 193.2 65.2202 196.074 69.8802Z" fill="#88E0FF"/>
<path d="M182.664 76.7003C185.997 74.767 189.424 72.9836 192.944 71.3503C190.124 66.7903 187.314 62.2303 184.514 57.6703C183.234 55.5603 181.854 53.4603 180.514 51.3203C180.514 51.4403 180.514 51.5603 180.514 51.6803C180.475 53.0829 179.614 54.3311 178.316 54.8653C177.019 55.3994 175.529 55.1192 174.514 54.1503C174.204 53.8903 173.874 53.6603 173.514 53.4103C174.434 55.4103 175.264 57.4803 176.124 59.5003C178.534 64.9103 181.664 70.8003 182.664 76.7003Z" fill="#00AEEF"/>
<path d="M165.794 87.8702C168.074 86.1402 170.394 84.4602 172.794 82.8702C168.394 76.2702 164.794 68.9802 160.434 62.3102C156.524 56.3102 151.284 50.1302 148.434 43.4402C142.398 42.834 136.303 43.3081 130.434 44.8402C135.944 51.1702 142.144 56.8402 147.224 63.5802C153.394 71.7002 158.774 80.3802 165.794 87.8702Z" fill="#00AEEF"/>
<path d="M175.194 81.23C176.924 80.1 178.684 79.01 180.454 77.95C180.39 77.8941 180.332 77.8303 180.284 77.76C177.564 73.34 176.134 67.99 174.154 63.19C172.384 58.91 170.064 54.49 168.664 49.96C163.519 46.9616 157.87 44.9283 151.994 43.96C156.514 49.24 159.994 55.96 163.764 61.56C167.784 67.5 173.104 74.14 175.194 81.23Z" fill="#88E0FF"/>
<path d="M110.335 153.27C107.425 151.09 104.905 148.2 102.185 145.83C98.1349 142.32 93.9049 139.04 89.5949 135.83C84.7449 132.23 76.5949 127.55 73.5949 121.66C69.1808 124.062 65.5265 127.65 63.0449 132.02C78.3549 139.95 93.4349 148.33 108.355 157.02C109.005 155.75 109.665 154.51 110.335 153.27Z" fill="#00AEEF"/>
<path d="M33.0434 253.43C33.8934 253.3 34.7534 253.1 35.6234 252.92C34.2683 250.481 33.6369 247.706 33.8034 244.92C29.732 244.342 25.633 243.979 21.5234 243.83C22.9256 247.507 24.635 251.06 26.6334 254.45C28.7534 254.05 30.9334 253.77 33.0434 253.43Z" fill="#88E0FF"/>
<path d="M34.1937 241.701C35.4137 235.811 39.4737 231.561 44.4437 228.551C40.7137 227.691 37.0637 226.321 33.4437 225.131C28.0337 223.341 22.7737 221.421 17.5337 219.271C17.1564 226.641 18.1742 234.017 20.5337 241.011C25.0983 240.856 29.6679 241.086 34.1937 241.701Z" fill="#00AEEF"/>
<path d="M50.0134 225.8C51.1234 225.35 52.2434 224.94 53.3534 224.58C56.6339 223.519 59.9727 222.648 63.3534 221.97C56.6634 219.41 50.0234 216.73 43.4534 213.88C36.1734 210.7 28.0134 207.7 21.2334 203.24C19.3499 207.721 18.1563 212.462 17.6934 217.3C22.9834 218.53 28.1634 219.93 33.3734 221.55C38.8434 223.25 44.2834 225.42 50.0134 225.8Z" fill="#88E0FF"/>
<path d="M68.9843 220.17C69.3545 220.311 69.6747 220.558 69.9043 220.88C75.4748 220.177 81.0954 219.953 86.7043 220.21C68.6443 210.38 51.1343 198.7 34.4743 186.7C34.2654 186.548 34.0944 186.349 33.9743 186.12C29.0166 190.274 24.9892 195.426 22.1543 201.24C29.5943 203.56 36.7943 207.44 43.9143 210.38C52.2143 213.793 60.571 217.057 68.9843 220.17Z" fill="#00AEEF"/>
<path d="M44.9332 276.39C55.9332 276.57 67.4332 276.15 78.4432 277.39C78.4432 276.07 78.4432 274.75 78.4432 273.39C73.8332 272.54 69.3932 271.25 64.6732 270.73C60.2132 270.24 55.7332 270.03 51.2832 269.49C44.5232 268.569 37.8552 267.066 31.3532 265C30.679 265.801 29.7376 266.33 28.7032 266.49C21.9732 267.28 16.7032 271.17 13.0332 276.49C23.4632 275.43 34.4532 276.23 44.9332 276.39Z" fill="#88E0FF"/>
<path d="M90.815 203.84C76.915 194.84 62.715 186.42 48.655 177.74C44.2558 179.254 40.1144 181.432 36.375 184.2C53.445 195.37 70.855 205.92 88.105 216.79C88.865 212.444 89.7683 208.127 90.815 203.84Z" fill="#88E0FF"/>
<path d="M105.004 163.75C105.574 162.55 106.174 161.36 106.764 160.16C91.6944 151.74 76.7643 143.02 62.1443 133.88C59.7987 139.223 59.1596 145.16 60.3143 150.88C67.3143 151.69 74.3143 153.88 80.9243 155.82C89.0784 158.059 97.1152 160.706 105.004 163.75Z" fill="#88E0FF"/>
<path d="M94.1241 191.85C89.2341 190.77 84.3941 187.59 80.4741 184.91C76.7315 182.468 73.2968 179.584 70.2441 176.32C69.9654 176.322 69.6873 176.295 69.4141 176.24C63.4463 175.046 57.2819 175.266 51.4141 176.88C65.261 183.883 78.7145 191.638 91.7141 200.11C92.4841 197.34 93.2841 194.59 94.1241 191.85Z" fill="#00AEEF"/>
<path d="M82.0749 168.7C88.1249 170.45 94.6749 171.53 100.535 173.86C101.475 171.57 102.465 169.29 103.535 167.03C95.7049 164.4 87.9549 161.59 80.0449 159.19C73.8149 157.29 67.2549 155.88 61.0449 153.74C62.069 157.298 63.696 160.653 65.8549 163.66C71.2849 165.03 76.7249 167.14 82.0749 168.7Z" fill="#00AEEF"/>
<path d="M312.154 60.5197C312.964 56.5197 314.864 52.5797 316.154 48.7797C317.444 44.9797 318.524 40.6997 320.154 36.8697C317.491 35.1986 314.466 34.1904 311.334 33.9297C311.114 37.9297 309.854 42.0897 309.154 45.9897C308.404 50.1797 308.064 54.8597 306.934 59.0997C308.714 59.5197 310.444 59.9997 312.154 60.5197Z" fill="#88E0FF"/>
<path d="M314.414 61.2502C316.264 61.8702 318.074 62.5602 319.864 63.2502C320.649 61.234 321.627 59.2984 322.784 57.4702C324.454 54.3502 326.154 50.4102 328.914 48.1002C327.81 44.8856 326.003 41.9579 323.624 39.5302C323.334 39.2402 323.024 38.9702 322.724 38.7002C321.608 42.6973 320.272 46.6299 318.724 50.4802C317.514 54.0002 316.354 57.9602 314.414 61.2502Z" fill="#00AEEF"/>
<path d="M354.564 407.32C355.654 389.32 353.864 370.1 346.414 353.52C338.964 336.94 324.614 328.52 307.314 324.92C288.752 321.212 269.583 321.858 251.314 326.81C232.704 331.81 216.314 340.52 206.434 357.67C188.184 389.51 191.274 428 189.514 463.29C188.664 480.37 186.864 497.71 181.514 514.03C179.041 521.79 175.615 529.213 171.314 536.13C170.223 537.939 168.975 539.649 167.584 541.24C170.144 541.72 172.707 542.187 175.274 542.64C187.563 544.848 199.971 546.331 212.434 547.08H213.434C213.599 547.078 213.764 547.099 213.924 547.14C220.404 547.47 226.924 547.56 233.384 547.35C252.792 546.616 271.992 543.072 290.384 536.83C299.034 533.96 307.534 530.65 315.924 527.1C321.074 506.46 331.924 488.03 339.814 468.42C347.704 448.81 353.284 428.33 354.564 407.32Z" fill="#FFF200"/>
<path d="M294.233 56.8198C293.323 51.2498 294.973 44.8198 297.003 39.0398C295.233 38.8898 293.543 37.6198 293.793 35.6498C294.455 30.0108 292.516 24.3771 288.523 20.3398C289.243 32.1298 287.753 44.4598 287.023 56.2298C289.413 56.3298 291.833 56.5398 294.233 56.8198Z" fill="#88E0FF"/>
<path d="M244.585 57.9902C246.585 57.7602 248.645 57.5602 250.675 57.3602C248.555 45.9202 245.675 34.6102 243.675 23.1602C243.642 22.9353 243.662 22.7057 243.735 22.4902C241.066 19.7259 238.158 17.2028 235.045 14.9502C235.945 21.7902 237.915 28.5602 239.435 35.2402C241.185 42.8202 242.995 50.3802 244.585 57.9902Z" fill="#88E0FF"/>
<path d="M322.453 64.3398C325.193 65.5198 327.86 66.8064 330.453 68.1998C331.26 62.563 331.063 56.8281 329.873 51.2598C328.673 53.7298 326.873 56.0498 325.543 58.3798C324.543 60.1098 323.703 62.4998 322.453 64.3398Z" fill="#88E0FF"/>
<path d="M82.3035 181.78C86.3035 184.41 91.0635 186.07 95.1535 188.55C96.4335 184.59 97.8335 180.673 99.3535 176.8C92.9135 176.01 86.3535 173.5 80.2335 171.6C76.9435 170.6 73.4835 169.6 70.1035 168.43C70.7235 168.99 71.3635 169.52 72.0335 170.02C73.4895 171.023 73.995 172.939 73.2235 174.53C76.0932 177.137 79.126 179.558 82.3035 181.78Z" fill="#88E0FF"/>
<path d="M37.9335 255.91C36.4559 256.192 34.9635 256.388 33.4635 256.5C31.6855 256.727 29.8958 256.851 28.1035 256.87C29.1035 258.5 30.2735 260.07 31.4435 261.59C31.6893 261.918 31.8568 262.298 31.9335 262.7C39.6535 263.63 47.2135 265.81 55.0135 266.45C62.4235 267.06 71.2735 266.78 78.3235 269.82C78.3235 267.68 78.3235 265.54 78.3235 263.4C67.1135 264.15 46.6735 264.59 37.9335 255.91Z" fill="#00AEEF"/>
<path d="M128.243 125.32C122.563 123.81 117.153 120.16 112.023 117.32C108.173 115.19 104.383 112.97 100.613 110.7C101.334 112.336 102.149 113.928 103.053 115.47C103.145 115.624 103.225 115.784 103.293 115.95C106.413 118.224 109.537 120.49 112.663 122.75C116.433 125.49 120.583 128.09 124.173 131.15C125.493 129.3 126.833 127.47 128.173 125.66L128.433 125.34C128.37 125.337 128.306 125.33 128.243 125.32Z" fill="#88E0FF"/>
<path fill-rule="evenodd" clip-rule="evenodd" d="M192.134 79.5205C138.264 107.12 101.784 165.7 93.5935 224.7C93.1926 226.165 91.8619 227.18 90.3435 227.18C80.9808 226.375 71.5509 226.921 62.3435 228.8C54.3435 230.47 42.9635 233.37 40.4935 242.48C35.8035 259.77 69.1935 257.89 79.7135 257.23C80.7227 256.537 82.029 256.448 83.1232 256.997C84.2175 257.546 84.9264 258.647 84.9735 259.87C85.6635 287.42 86.4035 314.92 87.9735 342.44C90.1147 378.855 92.9571 415.23 95.7991 451.599C96.7665 463.98 97.7339 476.36 98.6735 488.74C99.282 496.656 99.8174 504.588 100.353 512.522C101.429 528.452 102.505 544.393 104.174 560.24C104.634 564.69 105.354 570.92 109.684 573.4C114.014 575.88 118.864 573.15 121.884 569.94C126.856 564.679 127.096 557.333 127.332 550.109C127.454 546.349 127.576 542.623 128.364 539.24C124.968 538.289 121.629 537.143 118.364 535.81C116.104 534.87 116.054 530.76 119.004 531.08C125.796 531.805 132.567 533.471 139.275 535.121L139.275 535.121L139.275 535.121C141.821 535.747 144.358 536.371 146.884 536.94C150.604 537.78 154.33 538.584 158.064 539.35C158.673 538.783 159.544 538.595 160.334 538.86C163.264 539.802 167.487 530.793 169.181 527.18C169.394 526.724 169.568 526.354 169.694 526.1C172.013 521.388 173.956 516.499 175.504 511.48C178.52 501.594 180.557 491.435 181.584 481.15C182.933 468.728 183.239 456.254 183.545 443.78C183.744 435.639 183.944 427.498 184.434 419.37C186.494 385.23 194.434 345.1 227.894 328.16C244.324 319.83 263.134 315.74 281.494 315.34C298.224 314.98 316.334 317.28 331.114 325.63C362.114 343.16 364.964 388.1 360.724 419.47C358.174 438.41 352.594 456.74 345.154 474.31C342.759 479.934 340.146 485.461 337.534 490.985L337.534 490.986L337.534 490.986L337.533 490.987L337.533 490.988L337.533 490.989L337.532 490.99L337.532 490.991L337.531 490.991L337.531 490.992C332.509 501.614 327.494 512.222 324.054 523.47C329.804 520.634 335.703 518.107 341.724 515.9C345.524 514.6 347.664 520.28 344.384 522.21C340.451 524.477 336.383 526.501 332.204 528.27C332.552 530.321 332.887 532.374 333.221 534.427C334.805 544.149 336.387 553.866 339.484 563.27C341.374 569.04 344.654 574.9 351.484 574.99C358.314 575.081 363.784 570.14 367.224 564.65C373.224 555.13 376.454 543.47 379.134 532.65C381.796 521.554 383.641 510.277 384.654 498.91C386.122 483.644 386.579 468.324 387.035 453.004C387.256 445.584 387.477 438.164 387.814 430.75C388.748 410.1 390.592 389.51 392.436 368.921V368.92V368.92V368.92V368.919V368.919V368.918V368.918V368.918V368.917C395.011 340.174 397.584 311.433 397.684 282.54C397.627 281.315 398.255 280.16 399.314 279.54C400.085 278.348 401.567 277.829 402.914 278.28C414.654 281.728 427.018 282.493 439.094 280.52C447.964 278.99 462.354 274.22 460.454 262.52C459.564 257.01 454.074 254.64 449.324 253.07C443.824 251.26 438.184 249.78 432.574 248.34C427.382 247.011 422.118 245.949 416.855 244.887L416.855 244.887L416.855 244.887L416.854 244.887L416.854 244.887L416.853 244.887L416.853 244.887L416.853 244.887L416.852 244.887L416.852 244.886C410.52 243.609 404.191 242.332 397.994 240.59C397.091 240.293 396.409 239.547 396.194 238.621C395.979 237.695 396.264 236.724 396.944 236.06C396.674 235.521 396.543 234.923 396.564 234.32C397.484 195.07 389.784 153.63 370.134 119.26C354.064 91.1705 327.994 68.6905 295.134 64.1905C277.874 61.8305 259.944 63.1905 242.724 65.3205C225.354 67.4605 207.854 71.4605 192.134 79.5205ZM125.485 166.265L125.485 166.266L125.485 166.266L125.485 166.266L125.485 166.266L125.485 166.266L125.485 166.267L125.485 166.267L125.484 166.267L125.484 166.267L125.484 166.268C123.695 169.646 121.905 173.025 120.314 176.49C115.988 185.996 112.53 195.873 109.984 206C109.844 206.58 108.894 206.46 108.984 205.86C109.894 195.71 112.864 186.17 116.834 176.86C120.804 167.55 125.164 158.07 131.394 150.16C131.934 149.45 133.094 150.18 132.794 150.97C130.788 156.254 128.137 161.259 125.485 166.265ZM169.124 490.97C171.01 484.636 172.549 478.203 173.734 471.701C173.91 470.791 174.096 469.87 174.283 468.942C175.371 463.555 176.512 457.907 176.154 452.55C176.148 452.013 175.748 451.561 175.215 451.491C174.682 451.42 174.178 451.753 174.034 452.27C171.938 457.855 171.049 464.019 170.165 470.15C169.59 474.141 169.017 478.117 168.114 481.91C167.534 484.361 158.714 511.331 157.714 510.671C157.224 510.32 156.734 511.141 157.224 511.51C161.654 514.861 168.294 493.671 169.124 490.97ZM177.824 430.46C177.8 431.027 177.785 431.596 177.771 432.165C177.713 434.461 177.655 436.769 176.974 438.98C176.816 439.396 176.418 439.67 175.974 439.67C175.529 439.67 175.132 439.396 174.974 438.98C174.572 436.158 174.505 433.298 174.774 430.46C174.777 430.358 174.781 430.255 174.784 430.152C174.789 429.995 174.794 429.837 174.798 429.68L174.807 429.379C174.879 426.881 174.952 424.339 175.774 421.98C175.891 421.598 176.244 421.337 176.644 421.337C177.043 421.337 177.396 421.598 177.514 421.98C178.106 424.314 177.991 426.773 177.877 429.218L177.877 429.218L177.877 429.219L177.877 429.22C177.858 429.624 177.839 430.028 177.824 430.43V430.46ZM167.424 141.31C167.984 147.77 174.244 150.76 179.984 148.37V148.34C184.864 146.32 189.054 140.39 186.124 135.21C184.529 132.728 181.856 131.145 178.914 130.94C178.409 130.691 177.836 130.614 177.284 130.72C176.894 130.79 176.514 130.88 176.134 130.98C174.673 131.182 173.292 131.769 172.134 132.68C169.184 134.52 167.094 137.45 167.424 141.31ZM385.474 189.52C387.834 193.11 390.004 199.19 388.554 203.44C388.406 203.829 388.034 204.086 387.619 204.086C387.203 204.086 386.831 203.829 386.684 203.44C386.13 202.1 385.95 200.624 385.77 199.153V199.152V199.152V199.152V199.152V199.152C385.674 198.362 385.577 197.575 385.424 196.81C385.181 195.603 384.884 194.389 384.585 193.171C384.342 192.18 384.099 191.186 383.884 190.19C383.722 189.758 383.925 189.275 384.348 189.089C384.77 188.903 385.264 189.079 385.474 189.49V189.52ZM380.124 160.07C378.414 153.96 376.654 147.85 373.864 142.14V142.11C373.344 141.04 371.824 141.82 372.044 142.9C372.902 147.049 374.093 151.114 375.284 155.179C375.939 157.415 376.594 159.651 377.194 161.9C377.668 163.695 378.06 165.564 378.455 167.448L378.455 167.448L378.455 167.448C379.307 171.516 380.174 175.652 381.924 179.26C382.434 180.31 383.994 179.7 383.994 178.7C384.196 173.735 382.602 168.415 381.118 163.46L381.118 163.46L381.118 163.459L381.117 163.459C380.772 162.306 380.433 161.174 380.124 160.07ZM365.864 404.44C365.974 404.06 366.322 403.798 366.719 403.798C367.115 403.798 367.464 404.06 367.574 404.44C369.334 409.11 368.734 416.66 367.124 421.34C366.934 421.91 365.994 422.03 365.854 421.34C365.435 418.555 365.281 415.735 365.394 412.92C365.398 412.301 365.387 411.675 365.377 411.046V411.045V411.043C365.339 408.801 365.301 406.526 365.934 404.41L365.864 404.44ZM361.273 462.286C364.247 454.019 367.951 443.724 366.404 435.17L366.434 435.14C366.244 434.11 364.934 434.36 364.564 435.17C363.374 438.169 362.843 441.43 362.314 444.677C362.016 446.509 361.718 448.336 361.304 450.11C360.234 454.79 358.794 459.39 357.234 463.94C354.507 471.876 351.288 479.654 348.078 487.414L348.077 487.415L348.073 487.426C347.482 488.854 346.891 490.282 346.304 491.71C346.034 492.36 347.094 492.77 347.424 492.18C352.653 483.153 357.093 473.692 360.694 463.9C360.882 463.372 361.076 462.834 361.272 462.288L361.273 462.286ZM347.324 125.61C348.922 125.336 350.567 125.548 352.044 126.22C354.885 127.568 356.832 130.284 357.198 133.407C357.564 136.531 356.296 139.622 353.844 141.59C348.924 145.67 341.094 143.35 338.844 137.41C336.814 131.81 341.304 125.04 347.324 125.61ZM305.974 148.81C292.414 147.16 273.564 146.77 265.414 159.61V159.56C261.565 163.189 258.285 167.376 255.684 171.98C247.867 185.171 242.767 199.791 240.684 214.98C240.186 218.96 240.076 222.979 240.354 226.98C240.082 227.773 240.155 228.644 240.554 229.38C243.054 252.65 258.724 272.34 281.404 281.24C294.254 286.29 309.264 287.46 322.194 282.04C335.744 276.36 344.694 263.96 350.504 250.9C356.844 236.679 359.831 221.19 359.234 205.63C358.644 191.18 355.574 175.19 344.974 164.63C334.744 154.4 319.974 150.51 305.974 148.81Z" fill="#8DC63F"/>
<path d="M266.654 56.1899C268.994 56.0765 271.328 55.9965 273.654 55.9499C272.094 49.1799 272.514 41.5599 272.484 34.6399C272.341 28.4574 272.628 22.2724 273.344 16.1299C268.803 17.5177 265.011 20.6749 262.824 24.8899C263.394 29.0499 263.274 33.4699 263.714 37.4799C264.424 43.7599 265.434 49.9999 266.654 56.1899Z" fill="#88E0FF"/>
<path d="M258.164 56.6999C259.884 56.5699 261.604 56.4599 263.334 56.3499C262.254 50.7599 261.334 45.1399 260.734 39.4799C260.594 38.2099 260.414 36.8799 260.244 35.4799C259.552 36.4571 258.425 37.033 257.228 37.021C256.031 37.009 254.916 36.4107 254.244 35.4199C252.155 32.2869 249.881 29.2815 247.434 26.4199C250.624 36.2499 252.434 46.8199 254.004 56.9899C255.394 56.9499 256.784 56.8199 258.164 56.6999Z" fill="#00AEEF"/>
<path d="M179.534 137.96C178.184 137.27 176.404 137.69 174.744 137.72C174.094 138.445 173.737 139.386 173.744 140.36C173.804 142.92 176.014 142.95 177.874 141.94C179.054 141.31 181.554 138.99 179.534 137.96Z" fill="white"/>
<path d="M348.935 136.95C349.766 136.645 350.38 135.932 350.559 135.065C350.739 134.198 350.457 133.3 349.815 132.69C348.005 131.23 346.585 133.27 346.465 135.01C346.431 135.511 346.292 135.998 346.055 136.44C346.873 137.073 347.949 137.263 348.935 136.95Z" fill="white"/>
<path d="M275.764 34.6398C275.834 41.6398 276.974 48.9698 276.354 55.9198C278.814 55.9198 281.271 55.9565 283.724 56.0298C284.164 43.6098 283.824 30.4898 286.054 18.2898C284.02 16.9007 281.687 16.0131 279.244 15.6998C278.084 15.5649 276.913 15.5649 275.754 15.6998C276.014 21.9798 275.704 28.3198 275.764 34.6398Z" fill="#00AEEF"/>
<path d="M292.933 179.43C295.688 179.968 298.473 180.332 301.273 180.52C302.653 172.3 302.703 163.77 304.083 155.57C300.248 155.102 296.387 154.871 292.523 154.88C291.523 161.04 290.033 167.06 289.723 173.36C289.563 177.25 288.933 178.64 292.933 179.43Z" fill="white"/>
<path d="M291.455 277.17C303.575 280.03 316.845 278.82 327.035 271.17C328.891 269.785 330.627 268.246 332.225 266.57C331.405 264.94 330.785 263.17 329.855 261.57C328.321 258.865 326.486 256.342 324.385 254.05C319.888 249.209 314.499 245.281 308.515 242.48C296.515 236.81 283.775 236.29 270.915 236.77C274.922 240.075 278.538 243.826 281.695 247.95C284.695 251.81 288.215 256.07 289.235 260.95C289.521 262.094 289.016 263.29 287.997 263.883C286.977 264.476 285.688 264.324 284.835 263.51C281.585 260.51 279.645 256.29 276.985 252.79C274.267 249.207 271.202 245.901 267.835 242.92C261.635 237.45 254.925 234.49 247.465 232.12C251.205 254.23 269.595 272.01 291.455 277.17Z" fill="#BE1E2D"/>
<path d="M314.554 180.77C317.954 180.69 323.444 181.77 325.114 177.83C326.194 175.3 325.714 171.04 325.884 168.31C325.919 165.808 326.133 163.311 326.524 160.84C321.189 158.696 315.621 157.189 309.934 156.35C310.744 164.35 309.344 172.91 307.934 180.8C310.154 180.833 312.36 180.823 314.554 180.77Z" fill="white"/>
<path d="M296.375 57.0905C298.945 57.4405 301.505 57.8905 304.045 58.4205C304.215 54.3005 305.245 50.0005 305.915 46.1105C306.585 42.2205 306.975 37.8505 308.275 33.9805C305.199 34.2898 302.316 35.6206 300.085 37.7605C299.545 40.2805 299.025 42.7605 298.555 45.3205C297.835 49.0905 297.875 53.1905 296.555 56.7805C296.511 56.8922 296.45 56.9967 296.375 57.0905H296.375Z" fill="#00AEEF"/>
<path d="M77.7841 443.37C76.2141 444.75 74.6241 446.26 72.9141 447.57C78.1341 448.8 83.7341 449.02 89.1241 449.66L87.9341 434.3C84.6241 437.4 81.1841 440.38 77.7841 443.37Z" fill="#00AEEF"/>
<path fill-rule="evenodd" clip-rule="evenodd" d="M1.28403 300C4.00403 318.8 20.074 331.7 36.934 338.7C22.634 346.7 13.834 363.78 17.334 380.23C21.094 397.89 38.334 409.87 55.814 409.62C48.814 418.54 46.114 431.45 52.544 441.38C60.154 453.11 76.424 456.49 89.614 455.61C90.9474 472.943 92.2807 490.25 93.614 507.53L96.794 548.33C96.9167 549.908 96.9918 551.592 97.0695 553.336C97.4351 561.54 97.8587 571.047 103.574 576.82C110.324 583.63 120.574 580.82 126.494 574.51C134.487 566.015 133.97 552.784 133.538 541.724C133.523 541.34 133.508 540.958 133.494 540.58C136.658 541.381 139.847 542.102 143.008 542.817C144.741 543.209 146.466 543.6 148.174 544C157.554 546.18 166.964 548.19 176.454 549.82C195.884 553.15 215.624 555.19 235.354 554.43C254.404 553.615 273.25 550.166 291.354 544.18C300.474 541.18 309.414 537.76 318.264 534.06C320.217 533.233 322.202 532.423 324.196 531.609C324.928 531.31 325.661 531.011 326.394 530.71C327.279 541.856 329.381 552.872 332.664 563.56C335.234 572.2 340.084 580.71 349.994 581.56C373.854 583.68 382.244 550.01 386.414 532.56C392.294 508.03 393.354 482.64 394.154 457.56C395.014 430.43 396.684 403.45 399.154 376.41C399.288 374.934 399.423 373.459 399.558 371.983C402.17 343.356 404.784 314.707 404.984 285.95C417.922 289.304 431.473 289.526 444.514 286.6C455.394 284.1 467.014 277.33 467.674 264.9C468.374 251.8 455.574 247.48 445.244 244.6L444.768 244.467C431.567 240.786 417.548 236.876 403.744 235.7C403.94 235.248 404.045 234.762 404.054 234.27C405.394 177.69 387.724 104.27 336.924 71.9301C338.984 58.3801 338.064 42.1301 326.594 32.7901C319.364 26.9101 308.854 24.9701 300.594 28.9201C298.754 18.5201 289.894 9.55006 279.034 8.72006C268.174 7.89006 258.714 15.3501 255.204 25.0501C242.204 8.76006 222.534 -5.30994 201.084 2.93006C183.964 9.51006 176.084 27.7701 174.084 45.1001C153.884 32.2201 125.904 33.2301 107.524 49.3901C90.254 64.5801 85.144 90.7701 93.654 111.75C79.584 109.44 64.404 115.82 57.214 128.75C50.024 141.68 52.554 157.65 61.374 168.85C42.744 169.32 25.004 180.85 16.634 197.79C6.43403 218.34 10.774 242.7 23.174 261.2C7.64403 266.28 -1.06597 283.83 1.28403 300ZM11.284 279.21L11.2935 279.211C8.0922 285.225 6.82141 292.079 7.65403 298.84C16.2671 295.256 26.313 293.83 35.8778 292.473L35.8814 292.472L35.8852 292.472L35.8895 292.471L35.8942 292.47L35.8946 292.47L35.8952 292.47L35.896 292.47L35.8969 292.47L35.8978 292.47C38.575 292.09 41.2144 291.715 43.774 291.3C45.8155 290.971 47.8642 290.632 49.9185 290.292L49.9198 290.292L49.9205 290.292L49.9213 290.292L49.9216 290.292H49.9219L49.9222 290.292H49.9224L49.9227 290.292H49.923L49.9233 290.292L49.9236 290.291L49.9254 290.291L49.9266 290.291L49.9288 290.291L49.9314 290.29C59.415 288.722 69.0165 287.134 78.564 286.37C78.474 284.65 78.474 282.92 78.474 281.191V281.19C71.2882 281.435 63.9843 281.033 56.7154 280.634L56.7146 280.634H56.7137H56.7129H56.7121H56.7113H56.7106H56.7099H56.7091H56.7084H56.7077H56.707H56.7063H56.7055H56.7048H56.7042H56.7037H56.7031H56.7025H56.7019H56.7013H56.7006H56.7H56.6993H56.6986H56.6978H56.697H56.6963H56.6955H56.6946L56.6938 280.634C52.3875 280.397 48.0937 280.161 43.844 280.06C40.4421 279.984 36.9978 279.995 33.5387 280.007H33.5375H33.5371C26.1 280.032 18.5943 280.056 11.2935 279.211L11.294 279.21H11.284ZM7.92403 300.3C8.03403 300.86 8.14403 301.42 8.28403 301.97H8.25403C9.37834 306.235 11.2802 310.256 13.864 313.83C23.1889 313.576 32.4006 311.179 41.4791 308.816L41.4794 308.815C43.8501 308.198 46.2118 307.584 48.564 307.01C58.7107 304.537 68.8474 302.07 78.974 299.61L78.9739 299.606C78.8739 296.477 78.774 293.349 78.694 290.21C72.6327 291.193 66.5277 291.96 60.4232 292.727L60.4222 292.728C54.8545 293.427 49.2872 294.127 43.754 294.99C38.909 295.737 34.0585 296.533 29.2065 297.33L29.1965 297.332L29.1865 297.333L29.1766 297.335L29.1667 297.337L29.1568 297.338L29.1469 297.34L29.137 297.342L29.1272 297.343L29.1174 297.345L29.1075 297.347C27.4931 297.612 25.8786 297.877 24.264 298.14C23.0732 298.336 21.8719 298.552 20.6636 298.77C16.4536 299.527 12.1587 300.3 7.92403 300.3ZM15.284 315.74L15.2976 315.74C19.7747 321.105 25.2387 325.562 31.394 328.87C37.674 324.9 43.824 321.23 51.044 318.74C53.8267 317.782 56.6237 316.756 59.4334 315.725L59.4431 315.722L59.4548 315.717L59.4682 315.712L59.4698 315.712C66.0287 313.306 72.6569 310.874 79.334 309.21C79.28 308.01 79.2368 306.81 79.1936 305.61C79.1648 304.81 79.136 304.01 79.104 303.21C73.9858 304.436 68.8912 305.641 63.7846 306.849L63.7605 306.855L63.7444 306.859L63.6735 306.875L63.6148 306.889C58.2417 308.16 52.8552 309.435 47.414 310.74L46.4431 310.973C36.113 313.454 25.9588 315.893 15.2976 315.74L15.264 315.7L15.284 315.74ZM37.5902 328.122C36.3294 328.835 35.0797 329.541 33.814 330.21H33.794C36.3282 331.496 38.9285 332.648 41.584 333.66C44.8548 332.222 48.2186 330.958 51.5648 329.701C53.4772 328.982 55.3839 328.266 57.264 327.52C61.344 325.91 65.344 324.31 69.344 322.65C70.1839 322.302 71.1601 321.966 72.1919 321.612C74.7719 320.725 77.6996 319.719 79.714 318.09C79.674 317.235 79.639 316.378 79.604 315.52C79.569 314.663 79.534 313.805 79.494 312.95C73.8925 315.183 67.9843 316.953 62.141 318.704L62.1407 318.704L62.1404 318.704L62.1402 318.704L62.1396 318.704L62.1383 318.704L62.1369 318.705L62.1354 318.705L62.1338 318.706C59.3422 319.542 56.5654 320.374 53.844 321.25C48.7102 322.772 43.742 324.806 39.014 327.32C38.5369 327.587 38.0628 327.855 37.5902 328.122ZM79.934 321.94C80.234 327.74 80.5674 333.54 80.934 339.34C78.6087 338.955 76.1558 338.992 73.754 339.027H73.7535C72.7263 339.043 71.7085 339.058 70.714 339.04C69.4397 339.02 68.1646 338.997 66.8889 338.974L66.8735 338.974L66.8575 338.974L66.8415 338.974L66.8257 338.973L66.8093 338.973L66.7922 338.973L66.7752 338.973L66.7583 338.972L66.7416 338.972C63.6314 338.917 60.5177 338.861 57.404 338.84C56.5084 338.84 55.3642 338.758 54.088 338.666C52.5143 338.553 50.74 338.426 48.984 338.42C48.933 337.036 48.0157 335.834 46.694 335.42L46.154 335.25C51.6083 333.527 56.9896 331.321 62.2559 329.162C64.0187 328.44 65.7686 327.722 67.504 327.03C68.8095 326.497 70.1562 325.99 71.5166 325.478C74.3451 324.412 77.2331 323.324 79.934 321.94ZM47.174 341.49C46.9962 341.574 46.8124 341.644 46.624 341.7C39.5554 343.756 33.393 348.148 29.144 354.16C41.0806 351.454 53.3716 349.791 65.5823 348.138C70.1584 347.519 74.7233 346.901 79.254 346.23C80.2013 346.094 81.1032 346.679 81.364 347.6C81.3164 346.869 81.2707 346.143 81.2252 345.421C81.1656 344.475 81.1064 343.536 81.044 342.6C76.9997 343.296 72.438 342.962 68.1013 342.644C66.1436 342.501 64.2317 342.36 62.434 342.32C58.684 342.23 54.924 342.12 51.174 341.93C50.2146 341.875 49.1639 341.742 48.0884 341.605L48.0877 341.605L47.6827 341.553C47.5135 341.532 47.3438 341.511 47.174 341.49ZM66.3437 351.758L66.3443 351.758C70.9777 351 75.5996 350.244 80.204 349.55C80.8128 349.509 81.3198 349.067 81.444 348.47C81.544 350.09 81.654 351.72 81.764 353.34C78.8784 354.366 75.8173 354.984 72.7864 355.597C71.4164 355.873 70.0526 356.149 68.714 356.46C62.834 357.84 56.9774 359.317 51.144 360.89C41.6202 363.387 32.2368 366.391 23.034 369.89C23.53 365.274 25.0172 360.819 27.394 356.83C40.3819 356.005 53.4077 353.874 66.3437 351.758ZM22.894 372.25C22.8454 374.371 23.0366 376.492 23.464 378.57C23.8881 380.603 24.5389 382.582 25.404 384.47C28.0513 383.143 30.8688 382.066 33.6517 381.003L33.652 381.003L33.6524 381.003L33.653 381.003L33.6552 381.002L33.6571 381.001L33.6591 381L33.6609 381C34.9221 380.518 36.1762 380.039 37.404 379.54C42.904 377.32 48.394 375.09 53.844 372.77C58.4651 370.805 63.0112 368.649 67.5561 366.493L67.557 366.493L67.5576 366.492L67.5581 366.492L67.5586 366.492L67.5591 366.492L67.5595 366.492L67.56 366.491L67.5605 366.491L67.561 366.491L67.5615 366.491L67.562 366.491L67.5624 366.491L67.5629 366.49L67.5634 366.49L67.5639 366.49L67.5644 366.49L67.5648 366.49L67.5653 366.489L67.5658 366.489L67.5663 366.489L67.5668 366.489L67.5672 366.489L67.5677 366.488L67.5682 366.488L67.5687 366.488L67.5692 366.488L67.5696 366.488L67.5701 366.488L67.5706 366.487L67.5711 366.487L67.5716 366.487L67.572 366.487L67.5725 366.487L67.573 366.486L67.5735 366.486L67.574 366.486L67.576 366.485C72.417 364.188 77.2566 361.892 82.184 359.83C82.1181 358.954 82.061 358.069 82.0044 357.191L81.994 357.03C79.8674 357.646 77.7072 358.141 75.524 358.51C69.284 359.863 63.074 361.323 56.894 362.89C50.7071 364.472 44.5586 366.214 38.4083 367.956L38.4074 367.956L38.4065 367.957L38.4054 367.957L38.403 367.957L38.4008 367.958C33.241 369.42 28.08 370.882 22.894 372.25ZM48.7528 378.517L48.7531 378.517C50.6003 377.718 52.4199 376.932 54.204 376.19C55.5829 375.618 56.97 375.048 58.3618 374.476C66.4884 371.137 74.7714 367.734 82.464 363.55L82.854 368.98C75.4569 373.852 67.7767 378.28 59.854 382.24C57.2253 383.491 54.5015 384.663 51.7615 385.843L51.7597 385.844L51.7593 385.844C45.4318 388.567 39.0173 391.328 33.484 395.18C30.6239 392.711 28.2235 389.756 26.394 386.45C33.9524 384.915 41.5615 381.626 48.7528 378.517ZM55.7645 387.787C48.9952 391.064 41.9812 394.459 34.864 396.32C38.5228 399.195 42.7229 401.303 47.214 402.52C51.3586 399.278 55.7407 396.342 60.1051 393.417C61.5431 392.454 62.9791 391.492 64.404 390.52C66.2623 389.253 68.1137 387.962 69.9676 386.67L69.9688 386.669L69.9697 386.668C74.42 383.566 78.8848 380.453 83.494 377.63C83.374 376.04 83.254 374.44 83.144 372.84C76.684 377.97 68.844 381.63 61.474 385.06C59.5928 385.934 57.6886 386.856 55.7645 387.787ZM50.554 403.19C54.3817 400.885 58.104 398.374 61.817 395.87L61.8189 395.868L61.8203 395.867L61.8216 395.866L61.823 395.866L61.8244 395.865L61.8257 395.864L61.8271 395.863L61.8285 395.862L61.8299 395.861L61.8312 395.86L61.8326 395.859L61.834 395.858L61.8354 395.857L61.8367 395.856L61.8381 395.855L61.8395 395.855L61.8409 395.854L61.8422 395.853L61.8436 395.852L61.845 395.851L61.8463 395.85L61.8477 395.849L61.8491 395.848L61.8505 395.847C63.4907 394.741 65.129 393.635 66.774 392.55C68.4436 391.447 70.1253 390.353 71.809 389.258L71.8093 389.258L71.8095 389.258L71.8098 389.258L71.8101 389.258L71.8104 389.257L71.8106 389.257L71.8109 389.257L71.8112 389.257L71.8115 389.257L71.8117 389.257L71.812 389.256L71.8123 389.256L71.8126 389.256L71.8128 389.256L71.8131 389.256L71.8134 389.255L71.8137 389.255L71.8139 389.255L71.8142 389.255L71.8145 389.255L71.8162 389.254L71.8193 389.252C75.84 386.637 79.8716 384.015 83.774 381.24C84.1556 386.237 84.5545 391.218 84.9545 396.212L84.955 396.219L85.044 397.33C80.047 398.677 75.1145 400.705 70.283 402.691C69.41 403.05 68.5402 403.408 67.674 403.76C67.292 403.92 66.9111 404.076 66.5319 404.231L66.5281 404.233L66.5255 404.234L66.5239 404.235L66.5229 404.235L66.5208 404.236C65.812 404.527 65.1088 404.815 64.414 405.12C63.8941 403.672 62.3934 402.822 60.884 403.12C57.4696 403.729 53.9764 403.753 50.554 403.19ZM68.0163 406.519C67.1342 406.77 66.2457 407.022 65.364 407.29C65.4824 408.052 65.2756 408.828 64.794 409.43C64.1788 410.323 63.4861 411.159 62.724 411.93C62.4999 412.154 62.2306 412.328 61.934 412.44C60.346 414.258 59.0013 416.275 57.934 418.44C62.7298 417.615 67.4716 416.503 72.134 415.11C72.7351 414.944 73.3437 414.77 73.9584 414.595C77.9255 413.463 82.1473 412.26 86.234 412.45C85.9873 409.358 85.7465 406.242 85.507 403.143L85.5061 403.131C85.4353 402.215 85.3647 401.301 85.294 400.39C81.814 401.955 78.1607 403.208 74.5418 404.45L74.5414 404.45L74.5347 404.452L74.5242 404.456L74.5119 404.46C73.794 404.706 73.0775 404.952 72.364 405.2C70.9765 405.677 69.5061 406.095 68.0173 406.519L68.0168 406.519L68.0163 406.519ZM57.054 420.51C61.4849 420.49 65.8935 419.882 70.164 418.7C72.8172 418.028 75.5094 417.471 78.2008 416.914C80.9569 416.343 83.7122 415.773 86.424 415.08L86.934 421.57C82.2447 423.576 77.7847 426.327 73.4144 429.023L73.4031 429.03C72.6141 429.517 71.828 430.002 71.044 430.48C66.6886 432.944 62.5445 435.763 58.654 438.91C54.644 433.39 54.654 426.59 57.054 420.51ZM69.303 435.081L69.3028 435.081C66.2605 437 63.2033 438.928 60.004 440.51V440.53C62.7863 443.456 66.2802 445.609 70.144 446.78C71.7136 445.446 73.1865 443.952 74.6418 442.477L74.642 442.476L74.6422 442.476L74.6424 442.476L74.6426 442.476L74.6428 442.476C75.6628 441.441 76.6741 440.416 77.704 439.46C78.478 438.738 79.2491 438.014 80.0202 437.29L80.0211 437.289C82.5278 434.937 85.0341 432.584 87.634 430.29L87.6106 429.981C87.5084 428.633 87.4055 427.276 87.294 425.92L87.204 424.69C84.731 426.254 82.135 427.667 79.5558 429.071C77.4835 430.199 75.4221 431.321 73.444 432.51C72.0596 433.343 70.6839 434.21 69.3052 435.08L69.303 435.081ZM76.5206 444.437L76.521 444.436C76.9447 444.056 77.3651 443.678 77.784 443.31C78.272 442.88 78.7608 442.449 79.2498 442.018L79.2871 441.985L79.3234 441.953L79.3589 441.922C82.2415 439.383 85.1328 436.837 87.924 434.24L89.124 449.6C87.693 449.446 86.2471 449.318 84.7979 449.189H84.7974L84.7969 449.189L84.7963 449.189L84.7958 449.189L84.7952 449.188L84.7945 449.188L84.7939 449.188L84.7933 449.188L84.7926 449.188L84.7919 449.188C80.7846 448.832 76.7515 448.473 72.934 447.57L72.914 447.51C74.1676 446.55 75.3566 445.482 76.5206 444.437ZM290.314 536.79C298.964 533.92 307.464 530.61 315.854 527.06V527.12C319.25 513.508 325.126 500.779 330.976 488.105C333.997 481.56 337.011 475.03 339.674 468.4C347.494 448.93 353.214 428.28 354.494 407.28C355.584 389.32 353.784 370.08 346.344 353.48C338.904 336.88 324.544 328.45 307.244 324.88C288.682 321.172 269.513 321.818 251.244 326.77C232.634 331.76 216.204 340.48 206.364 357.63C191.516 383.534 190.794 413.84 190.092 443.243L190.092 443.245C189.932 449.982 189.772 456.672 189.444 463.25C188.634 480.33 186.834 497.67 181.444 513.99C178.971 521.75 175.545 529.173 171.244 536.09C170.153 537.899 168.905 539.609 167.514 541.2C170.067 541.68 172.631 542.147 175.204 542.6C187.493 544.809 199.901 546.291 212.364 547.04H213.364C213.529 547.038 213.694 547.059 213.854 547.1C220.314 547.43 226.824 547.52 233.314 547.31C252.723 546.576 271.922 543.032 290.314 536.79ZM330.434 68.2001C327.854 66.8067 325.187 65.5201 322.434 64.3401C323.196 63.219 323.805 61.8937 324.387 60.6289C324.76 59.8179 325.121 59.0316 325.504 58.3401C326.052 57.3654 326.689 56.3924 327.333 55.4095C328.228 54.0428 329.136 52.6568 329.834 51.2201C331.036 56.8002 331.239 62.5491 330.434 68.2001ZM328.934 48.1301C327.824 44.9137 326.01 41.9858 323.624 39.5601C323.472 39.4082 323.315 39.2619 323.165 39.1225L323.164 39.1216C323.028 38.995 322.898 38.8742 322.784 38.7601C321.668 42.7571 320.332 46.6897 318.784 50.5401C318.535 51.2358 318.289 51.9503 318.04 52.6744L318.04 52.6747C317.04 55.5826 315.987 58.6461 314.434 61.2801C316.284 61.8701 318.094 62.5601 319.884 63.2801C320.669 61.2639 321.647 59.3282 322.804 57.5001C323.09 56.9666 323.376 56.4092 323.668 55.84C325.086 53.0804 326.646 50.0451 328.934 48.1301ZM311.384 33.9301C314.517 34.1908 317.541 35.199 320.204 36.8701C319.173 39.2777 318.395 41.8198 317.621 44.3471C317.165 45.8401 316.709 47.328 316.204 48.7801C315.774 50.0163 315.293 51.2435 314.812 52.4706L314.811 52.4715L314.811 52.4723L314.811 52.473L314.81 52.4738L314.81 52.4746L314.81 52.4754L314.81 52.4762L314.809 52.477L314.809 52.4778L314.809 52.4786L314.808 52.4794L314.808 52.4802L314.808 52.4809C313.769 55.1315 312.73 57.7815 312.204 60.5201C310.494 60.0001 308.764 59.5201 307.034 59.1001C307.758 56.3846 308.157 53.4887 308.548 50.6566C308.768 49.0665 308.984 47.4966 309.254 45.9901C309.482 44.6798 309.773 43.3436 310.066 41.9939L310.067 41.9935C310.647 39.326 311.238 36.606 311.384 33.9301ZM308.274 33.9801C305.198 34.2893 302.315 35.6202 300.084 37.7601C299.544 40.2801 299.024 42.8001 298.554 45.3201C298.295 46.6772 298.134 48.0771 297.973 49.4806C297.687 51.9759 297.399 54.4824 296.554 56.7801C296.51 56.8918 296.449 56.9963 296.374 57.0901C298.944 57.4201 301.504 57.8901 304.044 58.4201C304.172 55.3099 304.785 52.1029 305.37 49.04L305.37 49.0396L305.37 49.0391L305.371 49.0385L305.371 49.0379L305.371 49.0376L305.371 49.0373C305.561 48.0436 305.748 47.0652 305.914 46.1101C306.098 45.0546 306.26 43.9654 306.424 42.8613C306.867 39.886 307.326 36.8027 308.274 33.9801ZM288.504 20.3001C292.496 24.3373 294.435 29.971 293.774 35.6101C293.524 37.6101 295.214 38.8501 296.984 39.0001C294.984 44.7601 293.304 51.2101 294.214 56.7801C291.814 56.5001 289.394 56.2901 286.984 56.1501C287.166 53.31 287.391 50.4347 287.617 47.5404L287.617 47.5356C288.326 38.4777 289.05 29.2339 288.504 20.3001ZM286.054 18.3101C284.022 16.9139 281.688 16.0194 279.244 15.7001C278.089 15.5526 276.922 15.5392 275.764 15.6601C275.915 19.4787 275.862 23.2973 275.81 27.1115C275.775 29.63 275.74 32.1466 275.764 34.6601C275.79 37.2907 275.968 39.9709 276.147 42.6613L276.147 42.663C276.443 47.1207 276.741 51.6062 276.354 55.9401C278.814 55.9201 281.271 55.9567 283.724 56.0501C283.827 53.1345 283.888 50.1803 283.948 47.2085V47.2072C284.146 37.52 284.348 27.6457 286.054 18.3101ZM295.244 64.2201C328.074 68.7201 354.144 91.2201 370.244 119.29C389.894 153.66 397.594 195.1 396.674 234.35C396.653 234.953 396.784 235.551 397.054 236.09C396.374 236.754 396.09 237.725 396.304 238.651C396.519 239.576 397.201 240.323 398.104 240.62C404.302 242.362 410.631 243.639 416.962 244.916L416.963 244.916L416.963 244.916L416.964 244.916L416.964 244.916L416.964 244.917L416.965 244.917L416.965 244.917L416.965 244.917L416.966 244.917L416.966 244.917L416.967 244.917L416.967 244.917L416.967 244.917L416.968 244.917L416.968 244.917L416.968 244.917L416.971 244.918C422.232 245.979 427.494 247.041 432.684 248.37C438.294 249.81 443.934 251.29 449.434 253.1C454.184 254.67 459.674 257.04 460.564 262.55C462.464 274.26 448.074 279.03 439.204 280.55C427.098 282.533 414.702 281.764 402.934 278.3C401.587 277.849 400.105 278.367 399.334 279.56C398.275 280.179 397.648 281.335 397.704 282.56C397.605 311.454 395.031 340.196 392.457 368.941L392.457 368.942L392.457 368.944L392.456 368.945L392.456 368.946L392.456 368.948L392.456 368.949L392.456 368.951L392.456 368.952L392.456 368.954L392.456 368.955L392.456 368.957L392.456 368.958L392.456 368.96L392.455 368.961L392.455 368.963L392.455 368.964L392.455 368.965L392.455 368.967L392.455 368.968L392.455 368.97L392.455 368.971L392.455 368.973L392.455 368.974L392.455 368.976L392.454 368.977L392.454 368.979L392.454 368.98L392.454 368.982L392.454 368.983C390.611 389.558 388.768 410.134 387.834 430.77C387.519 437.93 387.304 445.096 387.088 452.262L387.088 452.267L387.088 452.272L387.088 452.276L387.088 452.281L387.088 452.285L387.087 452.29L387.087 452.294L387.087 452.299L387.087 452.304L387.087 452.308L387.087 452.313L387.086 452.317L387.086 452.322L387.086 452.327L387.086 452.331L387.086 452.336L387.085 452.34L387.085 452.345L387.085 452.349L387.085 452.354C386.618 467.897 386.15 483.442 384.674 498.93C383.661 510.297 381.817 521.573 379.154 532.67C376.474 543.49 373.214 555.15 367.244 564.67C363.804 570.16 358.394 575.1 351.504 575.01C344.614 574.92 341.364 569.06 339.504 563.29C336.344 553.7 334.739 543.776 333.133 533.848C332.834 531.995 332.534 530.141 332.224 528.29C336.404 526.52 340.471 524.496 344.404 522.23C347.684 520.3 345.544 514.62 341.744 515.92C335.723 518.127 329.825 520.654 324.074 523.49C327.484 512.341 332.458 501.821 337.436 491.293C340.094 485.673 342.752 480.051 345.174 474.33C352.614 456.76 358.174 438.43 360.744 419.49C364.984 388.12 362.164 343.18 331.134 325.65C316.354 317.3 298.244 315 281.514 315.36C263.154 315.76 244.344 319.85 227.914 328.18C194.504 345.12 186.514 385.25 184.454 419.39C183.964 427.514 183.765 435.653 183.565 443.791V443.792V443.792V443.792V443.792V443.793V443.793V443.793V443.793V443.794V443.794V443.794V443.795V443.795V443.795V443.795V443.796V443.796V443.796V443.796V443.797V443.797V443.797V443.798V443.798V443.798V443.798V443.799V443.799V443.799C183.259 456.273 182.953 468.747 181.604 481.17C180.577 491.455 178.541 501.614 175.524 511.5C173.976 516.519 172.033 521.408 169.714 526.12C169.646 526.258 169.563 526.431 169.467 526.634C169.423 526.727 169.376 526.827 169.326 526.933L169.201 527.2C167.507 530.813 163.284 539.821 160.354 538.88C159.565 538.615 158.694 538.803 158.084 539.37C154.351 538.603 150.624 537.8 146.904 536.96C144.378 536.391 141.841 535.767 139.295 535.14C132.587 533.49 125.816 531.825 119.024 531.1C116.024 530.78 116.124 534.89 118.384 535.83C121.649 537.163 124.988 538.308 128.384 539.26C127.597 542.642 127.475 546.363 127.352 550.117C127.116 557.33 126.876 564.666 121.904 569.96C118.904 573.17 113.984 575.87 109.704 573.42C105.424 570.97 104.704 564.71 104.194 560.26C102.538 544.412 101.458 528.471 100.378 512.54C99.84 504.606 99.3024 496.675 98.694 488.76C97.8621 477.917 97.0129 467.074 96.1637 456.23L96.1636 456.229L96.1624 456.214L96.1624 456.213C93.194 418.313 90.2253 380.408 87.994 342.46C86.384 314.94 85.644 287.46 84.994 259.89C84.9468 258.667 84.238 257.566 83.1437 257.017C82.0495 256.467 80.7432 256.557 79.734 257.25C69.214 257.91 35.824 259.79 40.514 242.5C42.984 233.39 54.314 230.5 62.364 228.82C71.5714 226.94 81.0013 226.395 90.364 227.2C91.8823 227.2 93.2131 226.184 93.614 224.72C101.804 165.72 138.284 107.14 192.154 79.5401C207.874 71.4801 225.374 67.4801 242.824 65.3501C260.024 63.2301 277.934 61.8401 295.214 64.2001L295.244 64.2201ZM60.0351 266.72C66.2022 267.059 72.8189 267.423 78.334 269.77C78.314 267.63 78.3074 265.49 78.314 263.35C67.114 264.15 46.674 264.59 37.934 255.91C36.4564 256.191 34.964 256.388 33.464 256.5C31.686 256.727 29.8964 256.851 28.104 256.87C29.154 258.5 30.274 260.07 31.444 261.59C31.6866 261.902 31.8573 262.264 31.944 262.65C35.3927 263.066 38.8094 263.73 42.2299 264.396L42.2303 264.396C46.4666 265.22 50.7086 266.046 55.024 266.4C56.6373 266.533 58.3188 266.625 60.0351 266.72ZM72.034 170.02C71.364 169.52 70.724 169.02 70.104 168.43C72.4851 169.247 74.9058 169.98 77.2789 170.698L77.2792 170.698L77.2825 170.699L77.2895 170.702C78.2815 171.002 79.2651 171.3 80.234 171.6C81.5621 172.012 82.9108 172.453 84.2745 172.899L84.2767 172.9C89.1969 174.509 94.3122 176.182 99.354 176.8C97.834 180.673 96.434 184.59 95.154 188.55C93.2656 187.405 91.2365 186.435 89.2045 185.463L89.2043 185.463L89.2042 185.463C86.8353 184.33 84.4625 183.196 82.304 181.78C79.1265 179.559 76.0937 177.137 73.224 174.53C73.9955 172.939 73.49 171.023 72.034 170.02ZM116.396 125.376L116.396 125.376L116.396 125.376L116.396 125.376L116.396 125.376L116.396 125.376L116.396 125.376L116.396 125.376L116.396 125.376L116.396 125.376L116.396 125.376L116.397 125.376L116.397 125.376L116.397 125.376L116.397 125.376L116.397 125.376L116.397 125.376L116.397 125.376L116.397 125.376L116.397 125.376L116.397 125.376L116.397 125.377L116.397 125.377L116.397 125.377L116.397 125.377L116.398 125.377L116.398 125.377C119.052 127.214 121.742 129.077 124.174 131.15C125.494 129.3 126.834 127.47 128.224 125.64L128.484 125.32C128.404 125.325 128.324 125.325 128.244 125.32C123.813 124.142 119.546 121.661 115.448 119.279L115.447 119.279L115.444 119.277L115.442 119.276C114.289 118.606 113.15 117.943 112.024 117.32C108.174 115.19 104.384 112.97 100.614 110.7C101.335 112.336 102.15 113.928 103.054 115.47C103.146 115.624 103.226 115.784 103.294 115.95C106.414 118.223 109.537 120.49 112.664 122.75C113.879 123.633 115.133 124.502 116.396 125.376ZM273.374 16.1501C272.658 22.2926 272.37 28.4776 272.514 34.6601C272.514 35.7994 272.503 36.9576 272.493 38.1279L272.493 38.1343C272.438 44.0705 272.381 50.3167 273.684 55.9701C271.331 56.0167 268.997 56.0967 266.684 56.2101C265.464 50.0201 264.454 43.7801 263.774 37.5001C263.575 35.6919 263.491 33.7958 263.405 31.8766C263.302 29.5501 263.196 27.1896 262.884 24.9101C265.06 20.6937 268.84 17.5296 273.374 16.1301V16.1501ZM257.228 37.0811C256.031 37.0692 254.916 36.4709 254.244 35.4801C252.153 32.3676 249.879 29.3823 247.434 26.5401C250.624 36.3701 252.474 46.9401 254.004 57.1101C254.359 57.0794 254.714 57.0481 255.069 57.0168L255.07 57.0168C256.104 56.9256 257.137 56.8345 258.164 56.7601C259.884 56.6301 261.604 56.5201 263.334 56.4101C262.254 50.8201 261.364 45.2001 260.734 39.5401C260.633 38.5934 260.511 37.6364 260.387 36.6651L260.385 36.6512L260.383 36.6392L260.383 36.6353L260.38 36.6133C260.335 36.2575 260.289 35.8998 260.244 35.5401C259.552 36.5172 258.425 37.0931 257.228 37.0811ZM243.754 22.4801L243.752 22.4875C241.083 19.7242 238.176 17.2019 235.064 14.9501C235.695 19.9094 236.92 24.832 238.133 29.7064L238.133 29.7067L238.133 29.707L238.133 29.7072L238.133 29.7075L238.133 29.7079L238.133 29.708L238.133 29.7082L238.133 29.7085L238.133 29.7088L238.133 29.7091L238.133 29.7093L238.133 29.7095L238.133 29.7097L238.133 29.71L238.134 29.7104L238.134 29.7108L238.134 29.7109L238.134 29.7112L238.134 29.7114L238.134 29.7117L238.134 29.7121L238.134 29.7124L238.134 29.7126C238.594 31.5589 239.051 33.3982 239.474 35.2301C239.937 37.2588 240.406 39.2861 240.875 41.3133L240.875 41.3138L240.875 41.3142L240.875 41.3145L240.875 41.3149L240.875 41.3152L240.875 41.3156L240.875 41.3159L240.875 41.3163L240.875 41.3166L240.875 41.317L240.876 41.3173L240.876 41.3177L240.876 41.3181L240.876 41.3184L240.876 41.3188L240.876 41.3191L240.876 41.3195L240.876 41.3198L240.876 41.3202L240.876 41.3205L240.876 41.3209L240.877 41.3212L240.877 41.3216C242.159 46.8659 243.44 52.4096 244.604 57.9801C246.323 57.7853 248.063 57.6121 249.77 57.4422L250.694 57.3501C249.717 52.1281 248.59 46.9333 247.464 41.7398L247.464 41.7396L247.464 41.7393L247.464 41.7391L247.463 41.7389L247.463 41.7387L247.463 41.7384L247.463 41.7382L247.463 41.738L247.463 41.7377L247.463 41.7375L247.463 41.7373L247.463 41.7371L247.463 41.7368L247.463 41.7366L247.463 41.7364L247.463 41.7361L247.463 41.7359L247.463 41.7357L247.463 41.7355L247.463 41.7352L247.463 41.735L247.463 41.7348L247.463 41.7345L247.462 41.7333L247.462 41.7332C246.121 35.5513 244.781 29.3713 243.694 23.1501C243.661 22.9277 243.681 22.7008 243.752 22.4875L243.754 22.4901V22.4801ZM234.804 29.2108L234.804 29.2105C233.506 23.8493 232.183 18.3826 232.014 12.9101V12.9201C226.699 9.48223 220.55 7.55032 214.224 7.33006C216.386 12.3114 218.297 17.4092 220.206 22.5001L220.207 22.5003L220.207 22.5005L220.207 22.5007L220.207 22.5009L220.207 22.5012L220.207 22.5014L220.207 22.5018C221.257 25.3002 222.305 28.0964 223.394 30.8701C224.689 34.163 226.165 37.4659 227.649 40.7854C230.368 46.8711 233.112 53.0124 234.814 59.2501C236.994 58.9201 239.174 58.6301 241.354 58.3601C240.001 52.6678 238.758 46.9507 237.515 41.2367L237.515 41.2358L237.515 41.2348L237.515 41.2338L237.515 41.2327L237.514 41.2317L237.514 41.2307L237.514 41.2296L237.514 41.2286L237.513 41.2276L237.513 41.2266L237.513 41.2255L237.513 41.2245L237.512 41.2235L237.512 41.2224L237.512 41.2214L237.512 41.2204L237.512 41.2193L237.511 41.2185L237.511 41.2177L237.511 41.2169L237.511 41.2161L237.511 41.2153L237.51 41.2145L237.51 41.2137L237.51 41.2128L237.51 41.212L237.51 41.2112L237.51 41.2104L237.509 41.2096L237.509 41.2088L237.509 41.208L237.509 41.2072L237.509 41.2063L237.508 41.2055L237.508 41.2047L237.508 41.2039L237.508 41.2031L237.508 41.2023L237.508 41.2015C236.989 38.8164 236.47 36.4319 235.944 34.0501C235.588 32.449 235.198 30.8354 234.805 29.2123L234.805 29.2116L234.804 29.2108ZM202.624 9.70006C205.583 8.43812 208.727 7.66797 211.934 7.42006C214.034 15.0578 216.943 22.5192 219.822 29.9051L219.822 29.9053C220.301 31.1355 220.78 32.3636 221.254 33.5901C222.057 35.6679 222.837 37.803 223.624 39.9585L223.624 39.9587C226.091 46.7145 228.631 53.6707 232.194 59.6901C228.194 60.3501 224.294 61.0901 220.384 61.9901C219.155 59.103 217.892 56.2286 216.629 53.3532L216.629 53.353L216.629 53.3528L216.629 53.3527L216.629 53.3526L216.629 53.3525L216.629 53.3524L216.629 53.3522L216.629 53.3521L216.629 53.352L216.629 53.3519L216.629 53.3518L216.629 53.3517L216.628 53.3516L216.628 53.3514L216.628 53.3513L216.628 53.3512L216.628 53.3511L216.628 53.351L216.628 53.3509L216.628 53.3508L216.628 53.3506C214.182 47.7812 211.733 42.2078 209.524 36.5301C207.599 31.5827 205.786 26.6883 203.978 21.8049L203.978 21.8046L203.978 21.8044L203.978 21.8041L203.978 21.8039L203.977 21.8037L203.977 21.8034L203.977 21.8032L203.977 21.8029C202.639 18.1882 201.302 14.5796 199.924 10.9601C200.799 10.4893 201.701 10.0686 202.624 9.70006ZM216.704 62.9401C208.604 46.7453 202.371 29.6825 198.124 12.0801V12.0301C192.757 15.7002 188.552 20.8284 186.004 26.8101C193.234 39.9301 201.154 52.4201 209.314 65.0101C211.754 64.2501 214.224 63.5701 216.704 62.9401ZM184.504 30.4101C186.584 36.0101 189.884 41.2701 193.004 46.2301C196.887 52.3866 200.846 58.5003 204.803 64.6109L205.774 66.1101L205.244 66.2901C202.144 67.3567 199.087 68.5534 196.074 69.8801C193.194 65.2134 190.301 60.5467 187.394 55.8801C186.786 54.909 186.188 53.9209 185.587 52.9288L185.587 52.9286C184.121 50.5085 182.641 48.0638 180.974 45.7801C181.534 40.5344 182.719 35.3745 184.504 30.4101ZM178.377 54.815C177.079 55.3492 175.589 55.0689 174.574 54.1001C174.264 53.8401 173.934 53.6101 173.614 53.4101C174.214 54.7218 174.776 56.0632 175.334 57.3929L175.334 57.3931C175.63 58.1009 175.925 58.8053 176.224 59.5001C176.751 60.7467 177.322 62.0157 177.899 63.3015L177.9 63.3036L177.903 63.3093L177.903 63.3101L177.903 63.3106C179.855 67.6539 181.893 72.1889 182.664 76.7001C186.017 74.7001 189.464 72.9001 193.004 71.3001C190.184 66.7467 187.374 62.1867 184.574 57.6201C184.138 56.9282 183.696 56.2373 183.254 55.5458L183.254 55.5449C182.348 54.1279 181.441 52.708 180.574 51.2701V51.6301C180.535 53.0327 179.674 54.2809 178.377 54.815ZM168.664 49.9601C169.596 52.976 170.936 55.9432 172.25 58.8529L172.25 58.8537C172.91 60.314 173.563 61.7599 174.154 63.1901C174.802 64.7453 175.388 66.3582 175.977 67.9786L175.977 67.9788C177.205 71.3594 178.445 74.7722 180.284 77.7601C180.332 77.8304 180.389 77.8942 180.454 77.9501C178.684 79.0101 176.924 80.1001 175.194 81.2301C173.507 75.5064 169.715 70.0761 166.201 65.0442C165.362 63.843 164.539 62.6644 163.764 61.5101C162.527 59.6663 161.313 57.6906 160.078 55.6806C157.59 51.6294 155.015 47.4392 151.994 43.9101C157.873 44.8939 163.523 46.9442 168.664 49.9601ZM156.747 57.0188C153.647 52.6743 150.427 48.1628 148.414 43.4201C142.385 42.8162 136.297 43.2903 130.434 44.8201C132.544 47.2484 134.758 49.5796 136.972 51.9102L136.972 51.9103L136.972 51.9103L136.972 51.9104L136.972 51.9105L136.972 51.9106L136.973 51.9107L136.973 51.9107L136.973 51.9108L136.973 51.9109L136.973 51.911L136.973 51.9111L136.973 51.9111L136.973 51.9112L136.973 51.9113L136.973 51.9114L136.974 51.9116C140.53 55.6558 144.086 59.3985 147.204 63.5401C149.13 66.0932 150.981 68.6911 152.828 71.2849C156.901 77.0014 160.959 82.6978 165.774 87.8501C168.084 86.1401 170.404 84.4601 172.774 82.8501C170.554 79.5093 168.525 75.9688 166.491 72.4176L166.49 72.4173L166.49 72.417L166.49 72.4166L166.49 72.4165L166.49 72.4163L166.49 72.4162L166.49 72.416L166.49 72.4158L166.489 72.4157L166.489 72.4155L166.489 72.4154L166.489 72.4152L166.489 72.415L166.489 72.4149L166.489 72.4147L166.489 72.4146L166.489 72.4144C164.529 68.9933 162.563 65.5622 160.414 62.2901C159.273 60.5583 158.02 58.8028 156.748 57.0192L156.747 57.0189L156.747 57.0188ZM127.344 45.7501C129.01 48.3134 130.963 50.6787 133.164 52.8001C137.329 56.926 141.201 61.3366 144.754 66.0001C146.541 68.4059 148.26 70.8668 149.979 73.3271L149.979 73.3272L149.979 73.3274L149.979 73.3275L149.979 73.3277L149.979 73.3278L149.979 73.3279L149.979 73.328L149.979 73.3282L149.98 73.3283L149.98 73.3286C154.033 79.1307 158.085 84.9303 163.014 90.0001C160.494 92.0001 158.024 94.0634 155.604 96.1901C154.098 93.1338 151.715 90.4232 149.391 87.781L149.391 87.7808L149.391 87.7806L149.39 87.7804L149.39 87.7802L149.39 87.78L149.39 87.7798L149.39 87.7796L149.389 87.7794L149.389 87.7792L149.389 87.779L149.389 87.7788L149.389 87.7786L149.389 87.7784L149.388 87.7782L149.388 87.778L149.388 87.7778C148.626 86.9111 147.87 86.0518 147.154 85.1901C143.734 81.1234 140.251 77.1234 136.704 73.1901L136.322 72.7654C129.784 65.4905 123.11 58.0636 115.704 51.5701C119.279 49.0721 123.201 47.1113 127.344 45.7501ZM113.464 53.3501C112.704 53.9601 111.954 54.6001 111.244 55.2701C108.026 58.3016 105.27 61.7887 103.064 65.6201C107.699 69.2269 111.946 73.4613 116.152 77.6547L116.153 77.6548L116.153 77.655C118.535 80.0304 120.905 82.3925 123.324 84.6201C127.524 88.4934 131.781 92.3034 136.094 96.0501C137.017 96.8479 138.004 97.6302 139.002 98.4216L139.004 98.4232L139.006 98.4246L139.006 98.4248C141.599 100.479 144.268 102.595 146.094 105.2C148.514 102.76 151.001 100.383 153.554 98.0701C150.835 95.8696 148.57 92.8886 146.359 89.9787L146.359 89.9785L146.359 89.9777L146.359 89.9776L146.358 89.9775L146.358 89.9773L146.358 89.9772L146.358 89.9771L146.358 89.977L146.358 89.9769L146.358 89.9768L146.358 89.9767L146.358 89.9765L146.358 89.9764L146.357 89.9756C145.374 88.6813 144.401 87.4011 143.404 86.2101C140.211 82.3967 136.947 78.6301 133.614 74.9101C130.34 71.2413 126.939 67.6851 123.539 64.1301L123.539 64.13L123.539 64.1299L123.539 64.1298L123.539 64.1297L123.538 64.1296L123.538 64.1295L123.538 64.1294L123.538 64.1293L123.538 64.1292L123.538 64.1291L123.538 64.1291L123.538 64.129L123.538 64.1289L123.538 64.1288L123.537 64.1285L123.537 64.1283L123.537 64.128L123.537 64.1278L123.536 64.1275L123.536 64.1273L123.536 64.127L123.536 64.1268L123.536 64.1265L123.535 64.1264C120.134 60.5701 116.734 57.0151 113.464 53.3501ZM117.455 83.9391L117.455 83.9392C118.868 85.2246 120.266 86.4962 121.624 87.7601C125.564 91.4201 129.564 95.0267 133.624 98.5801C134.425 99.2866 135.223 100.035 136.031 100.792L136.032 100.792C138.573 103.173 141.204 105.638 144.254 107.14C142.344 109.14 140.464 111.14 138.634 113.14C136.895 112.053 135.157 110.976 133.42 109.899L133.419 109.898C127.165 106.022 120.938 102.163 114.834 97.9601C111.037 95.337 107.302 92.6243 103.571 89.9144L103.571 89.9138L103.57 89.9137L103.57 89.9136L103.57 89.9134L103.57 89.9133L103.57 89.9132L103.569 89.913L103.569 89.9129L103.569 89.9128L103.569 89.9126L103.569 89.9125L103.569 89.9123L103.568 89.9122L103.568 89.9121C101.326 88.2837 99.0858 86.6563 96.834 85.0501C97.4584 79.1331 99.1276 73.3739 101.764 68.0401C106.301 73.7921 111.992 78.9697 117.455 83.9391ZM136.274 115.81C121.906 108.164 108.558 98.7401 96.544 87.7601C96.1768 93.8691 96.9326 99.9936 98.774 105.83C103.714 108.757 108.714 111.593 113.774 114.34C115.423 115.232 117.141 116.067 118.869 116.905C122.601 118.717 126.375 120.549 129.574 123.03C129.729 123.15 129.849 123.309 129.924 123.49C131.977 120.903 134.094 118.343 136.274 115.81ZM98.374 120.16C99.9255 120.841 101.739 120.436 102.854 119.16C104.105 120.254 105.44 121.254 106.783 122.26L106.783 122.26C107.404 122.726 108.027 123.192 108.644 123.67C110.019 124.723 111.397 125.831 112.786 126.949L112.787 126.95C115.831 129.401 118.933 131.897 122.194 133.95C120.194 136.83 118.284 139.76 116.464 142.74C113.372 138.262 108.896 134.389 104.681 130.741C103.729 129.917 102.791 129.105 101.884 128.3C97.8528 124.553 93.5548 121.104 89.024 117.98C92.2496 118.115 95.4212 118.855 98.374 120.16ZM95.2329 126.813L95.2328 126.813L95.2328 126.812L95.2327 126.812L95.2326 126.812L95.2325 126.812L95.2319 126.812L95.2318 126.812C91.9776 123.974 88.7131 121.128 85.734 118.03C82.4163 118.277 79.164 119.081 76.114 120.41C77.4529 121.432 78.6964 122.641 79.9253 123.837L79.9254 123.837L79.9254 123.837L79.9255 123.837L79.9256 123.837L79.9256 123.837C80.9821 124.865 82.0278 125.882 83.114 126.76C85.6505 128.832 88.3228 130.769 90.9969 132.706L90.997 132.706L90.9971 132.707L90.9972 132.707L90.9974 132.707L90.9975 132.707L90.9976 132.707L90.9977 132.707L90.9978 132.707L90.9979 132.707L90.9984 132.708L91.0005 132.709C92.2997 133.65 93.5994 134.592 94.884 135.55C95.8606 136.275 96.8919 137.019 97.9527 137.785L97.9528 137.785C102.877 141.34 108.44 145.355 112.134 150.02C113.064 148.38 114.004 146.76 115.004 145.14C111.558 142.67 108.466 139.496 105.43 136.379C103.708 134.612 102.005 132.862 100.264 131.27C98.6177 129.764 96.9268 128.29 95.2331 126.813L95.2329 126.813ZM73.604 121.7C76.0049 126.414 81.6979 130.353 86.3671 133.583C87.5321 134.389 88.6335 135.151 89.604 135.87C93.914 139.07 98.144 142.35 102.194 145.87C103.271 146.809 104.317 147.829 105.368 148.854L105.368 148.854C106.971 150.418 108.587 151.993 110.344 153.31C109.887 154.156 109.435 155.002 108.98 155.851L108.979 155.853C108.768 156.248 108.557 156.643 108.344 157.04C93.424 148.38 78.344 140.04 63.034 132.04C65.524 127.675 69.1853 124.093 73.604 121.7ZM106.764 160.19C91.694 151.77 76.784 143.05 62.144 133.91V133.88C59.8067 139.211 59.1678 145.133 60.314 150.84C66.323 151.539 72.3693 153.297 78.1825 154.987L78.1845 154.988C79.1039 155.255 80.0174 155.521 80.924 155.78C89.0794 158.043 97.1161 160.713 105.004 163.78C105.403 162.94 105.817 162.104 106.232 161.266C106.41 160.908 106.587 160.55 106.764 160.19ZM60.994 153.7C64.6426 154.957 68.4121 155.963 72.1644 156.964C74.7986 157.666 77.4244 158.366 79.994 159.15C85.4633 160.81 90.856 162.665 96.2516 164.521C98.6595 165.35 101.068 166.179 103.484 166.99C102.484 169.25 101.484 171.53 100.484 173.82C96.7241 172.325 92.6801 171.345 88.6663 170.372L88.6662 170.372L88.6661 170.372L88.6648 170.371L88.6646 170.371L88.6643 170.371L88.6636 170.371L88.663 170.371C86.4223 169.828 84.1911 169.287 82.024 168.66C79.8232 168.027 77.6072 167.297 75.3793 166.563C72.1916 165.513 68.9797 164.455 65.754 163.66C63.6086 160.637 61.9985 157.268 60.994 153.7ZM70.244 176.3C69.9654 176.302 69.6872 176.275 69.414 176.22V176.24C63.4607 175.046 57.3108 175.258 51.454 176.86C65.301 183.863 78.7544 191.618 91.754 200.09C92.484 197.32 93.284 194.57 94.124 191.83C89.234 190.75 84.394 187.57 80.474 184.89C76.7315 182.448 73.2968 179.564 70.244 176.3ZM48.654 177.7C52.9985 180.382 57.3563 183.043 61.7145 185.704L61.7157 185.705C71.4616 191.656 81.2094 197.609 90.814 203.8C89.774 208.08 88.8707 212.413 88.104 216.8C82.3207 213.156 76.5193 209.547 70.7188 205.939L70.718 205.939L70.7172 205.938L70.7164 205.938L70.7156 205.937L70.7148 205.937L70.7147 205.937L70.7139 205.936L70.7134 205.936C59.2146 198.784 47.7192 191.634 36.374 184.21C40.1102 181.425 44.2518 179.229 48.654 177.7ZM34.434 186.67C34.2252 186.518 34.0541 186.319 33.934 186.09C28.9763 190.244 24.9489 195.396 22.114 201.21C26.9419 202.716 31.6688 204.878 36.3383 207.014L36.3385 207.014L36.3388 207.014L36.339 207.014L36.3392 207.014C38.8653 208.17 41.3746 209.318 43.874 210.35C52.1674 213.77 60.524 217.043 68.944 220.17C69.3142 220.31 69.6344 220.558 69.864 220.88C75.4346 220.177 81.0552 219.953 86.664 220.21C68.604 210.38 51.094 198.67 34.434 186.67ZM21.234 203.24C26.6569 206.807 32.9626 209.447 39.0203 211.983C40.5363 212.617 42.0368 213.246 43.504 213.88C50.074 216.73 56.714 219.41 63.404 221.97C60.0234 222.648 56.6846 223.519 53.404 224.58C52.294 224.94 51.174 225.35 50.064 225.8C45.4966 225.497 41.1134 224.057 36.7524 222.624C35.6424 222.259 34.5338 221.895 33.424 221.55C28.214 219.93 23.034 218.55 17.744 217.3C18.191 212.464 19.3677 207.724 21.234 203.24ZM33.444 225.16C28.034 223.37 22.774 221.45 17.534 219.3C17.1568 226.671 18.1746 234.047 20.534 241.04C25.0987 240.885 29.6682 241.116 34.194 241.73C35.444 235.84 39.444 231.58 44.444 228.58C41.6098 227.927 38.8218 226.979 36.0581 226.039L36.0579 226.039L36.0576 226.039C35.1842 225.742 34.3133 225.446 33.444 225.16ZM21.534 243.86C25.6436 244.009 29.7426 244.372 33.814 244.95C33.6475 247.736 34.2789 250.511 35.634 252.95C35.4202 252.994 35.2069 253.04 34.9942 253.085L34.9939 253.085C34.3416 253.224 33.695 253.362 33.054 253.46C32.2611 253.586 31.4669 253.704 30.6733 253.821C29.325 254.021 27.9786 254.221 26.644 254.46C24.6431 251.077 22.9304 247.531 21.524 243.86H21.534ZM31.284 265.02C30.6098 265.821 29.6684 266.35 28.634 266.51H28.624C21.934 267.3 16.584 271.19 12.914 276.51C20.7315 275.692 28.8146 275.947 36.7435 276.197C39.4743 276.283 42.1869 276.369 44.864 276.41C47.8432 276.461 50.8552 276.468 53.8817 276.475C62.0604 276.494 70.3451 276.512 78.374 277.41V273.41C76.6927 273.1 75.034 272.732 73.3761 272.363C70.4882 271.722 67.6026 271.08 64.604 270.75C62.5585 270.525 60.5088 270.359 58.4596 270.194C56.0409 269.998 53.6231 269.802 51.214 269.51C44.4541 268.589 37.7861 267.086 31.284 265.02Z" fill="#231F20"/>
<path fill-rule="evenodd" clip-rule="evenodd" d="M357.198 133.407C357.564 136.53 356.296 139.622 353.843 141.59C348.933 145.7 341.093 143.35 338.893 137.41C336.813 131.81 341.323 125.04 347.323 125.61C348.922 125.335 350.567 125.548 352.043 126.22C354.885 127.568 356.832 130.283 357.198 133.407ZM349.763 132.69C347.953 131.23 346.533 133.27 346.413 135.01C346.38 135.51 346.24 135.998 346.003 136.44C346.822 137.072 347.898 137.263 348.883 136.95C349.715 136.645 350.329 135.932 350.508 135.065C350.687 134.197 350.406 133.299 349.763 132.69Z" fill="#231F20"/>
<path fill-rule="evenodd" clip-rule="evenodd" d="M177.303 130.69C177.856 130.584 178.429 130.661 178.933 130.91C181.876 131.115 184.549 132.698 186.143 135.18C189.073 140.39 184.883 146.34 180.003 148.34C174.263 150.73 167.983 147.74 167.443 141.28C167.153 137.42 169.203 134.49 172.153 132.65C173.312 131.739 174.693 131.152 176.153 130.95C176.533 130.85 176.913 130.76 177.303 130.69ZM173.803 140.33C173.863 142.91 176.073 142.91 177.933 141.91V141.94C179.053 141.31 181.553 138.99 179.593 137.93C178.628 137.437 177.442 137.526 176.238 137.617C175.758 137.654 175.276 137.69 174.803 137.69C174.153 138.415 173.796 139.356 173.803 140.33Z" fill="#231F20"/>
<path fill-rule="evenodd" clip-rule="evenodd" d="M240.594 229.3C240.195 228.563 240.123 227.693 240.394 226.9C240.124 222.885 240.244 218.852 240.754 214.86C242.838 199.67 247.938 185.05 255.754 171.86C258.354 167.289 261.624 163.133 265.454 159.53C273.604 146.73 292.474 147.08 306.014 148.73C319.944 150.43 334.744 154.32 345.014 164.55C355.614 175.14 358.684 191.13 359.274 205.55C359.872 221.11 356.885 236.599 350.544 250.82C344.734 263.88 335.784 276.28 322.234 281.96C309.304 287.38 294.294 286.21 281.444 281.16C258.764 272.3 243.094 252.57 240.594 229.3ZM326.504 160.84C321.176 158.698 315.615 157.191 309.934 156.35C310.764 164.38 309.364 172.91 307.954 180.77C310.141 180.824 312.334 180.824 314.534 180.77C315.146 180.756 315.826 180.778 316.539 180.801L316.539 180.801C319.787 180.908 323.725 181.036 325.094 177.83C325.858 176.047 325.842 173.388 325.827 171.018V171.018C325.82 170.039 325.814 169.109 325.864 168.31C325.9 165.808 326.114 163.312 326.504 160.84ZM291.61 159.93L291.61 159.93C291.925 158.248 292.241 156.565 292.524 154.87C296.388 154.861 300.249 155.092 304.084 155.56C303.394 159.663 303.036 163.848 302.679 168.036L302.679 168.036C302.321 172.218 301.964 176.403 301.274 180.51C298.474 180.323 295.689 179.959 292.934 179.42C289.405 178.732 289.48 177.569 289.67 174.632C289.696 174.241 289.723 173.818 289.744 173.36L289.724 173.35C289.949 168.783 290.778 164.363 291.61 159.93ZM276.984 252.79C274.266 249.208 271.201 245.902 267.834 242.92C261.634 237.45 254.934 234.49 247.474 232.14C251.224 254.25 269.614 272.03 291.474 277.19C303.594 280.01 316.864 278.8 327.054 271.19C328.91 269.805 330.646 268.267 332.244 266.59C331.901 265.917 331.593 265.215 331.283 264.509C330.851 263.526 330.415 262.533 329.874 261.59C328.341 258.885 326.506 256.362 324.404 254.07C319.907 249.23 314.519 245.301 308.534 242.5C296.554 236.79 283.794 236.31 270.934 236.79C274.933 240.09 278.543 243.834 281.694 247.95C281.936 248.264 282.181 248.58 282.428 248.898C285.241 252.523 288.315 256.483 289.234 260.95C289.52 262.095 289.015 263.29 287.996 263.883C286.976 264.476 285.688 264.324 284.834 263.51C282.757 261.593 281.215 259.177 279.678 256.77C278.81 255.41 277.944 254.053 276.984 252.79Z" fill="#231F20"/>
<path d="M131.353 150.12C125.123 158.03 120.703 167.59 116.793 176.82C112.883 186.05 109.853 195.71 108.943 205.82C108.943 206.42 109.843 206.54 109.943 205.96C112.49 195.832 115.948 185.955 120.273 176.45C124.273 167.85 129.393 159.78 132.753 150.93C133.093 150.18 131.933 149.45 131.353 150.12Z" fill="#231F20"/>
<path d="M377.194 161.87C378.694 167.54 379.364 173.95 381.924 179.23C382.434 180.28 383.924 179.7 383.994 178.67C384.244 172.55 381.764 165.89 380.124 160.04C378.414 153.93 376.654 147.82 373.864 142.11C373.344 141.04 371.864 141.82 372.044 142.87C373.374 149.3 375.504 155.53 377.194 161.87Z" fill="#231F20"/>
<path d="M383.934 190.16C384.414 192.38 385.044 194.56 385.474 196.78C385.904 199 385.884 201.35 386.734 203.41C386.881 203.799 387.253 204.055 387.669 204.055C388.084 204.055 388.456 203.799 388.604 203.41C390.054 199.16 387.884 193.08 385.524 189.49C385.303 189.113 384.837 188.957 384.435 189.127C384.032 189.297 383.818 189.739 383.934 190.16Z" fill="#231F20"/>
<path d="M174.033 452.24C170.573 461.46 170.403 472.24 168.113 481.88C167.533 484.33 158.753 511.3 157.713 510.64C157.173 510.29 156.713 511.11 157.223 511.48C161.653 514.83 168.293 493.64 169.123 490.94C171.009 484.615 172.548 478.192 173.733 471.7C174.893 465.54 176.573 458.86 176.153 452.55C176.163 452.006 175.767 451.54 175.23 451.462C174.692 451.383 174.179 451.716 174.033 452.24Z" fill="#231F20"/>
<path d="M175.734 421.95C174.734 424.65 174.824 427.59 174.734 430.43C174.465 433.268 174.532 436.128 174.934 438.95C175.092 439.365 175.49 439.64 175.934 439.64C176.378 439.64 176.776 439.365 176.934 438.95C177.734 436.19 177.664 433.28 177.784 430.43C177.904 427.58 178.164 424.72 177.434 421.95C177.299 421.598 176.961 421.365 176.584 421.365C176.206 421.365 175.868 421.598 175.734 421.95Z" fill="#231F20"/>
<path d="M357.265 463.91C354.035 473.31 350.115 482.49 346.335 491.68C346.065 492.33 347.125 492.74 347.455 492.15C352.684 483.123 357.124 473.661 360.725 463.87C363.725 455.36 368.085 444.26 366.435 435.14C366.245 434.14 364.895 434.36 364.595 435.14C362.735 439.83 362.485 445.14 361.335 450.08C360.235 454.76 358.825 459.36 357.265 463.91Z" fill="#231F20"/>
<path d="M365.934 421.31C366.074 422 367.014 421.88 367.204 421.31C368.814 416.63 369.414 409.08 367.654 404.41C367.544 404.03 367.195 403.768 366.799 403.768C366.402 403.768 366.054 404.03 365.944 404.41C365.174 407.12 365.464 410.09 365.474 412.89C365.361 415.705 365.515 418.525 365.934 421.31Z" fill="#231F20"/>
</svg>
