<svg width="572" height="574" viewBox="0 0 572 574" fill="none" xmlns="http://www.w3.org/2000/svg">
<path d="M63.2099 398.704C56.0399 392.184 49.1199 385.054 46.3799 375.494C46.3219 375.279 46.1003 375.151 45.8849 375.209C45.6695 375.267 45.5419 375.489 45.5999 375.704C47.4099 384.974 53.4399 392.174 60.0799 398.574C67.6199 405.894 76.6199 414.564 86.2199 419.064C86.8999 419.374 87.6899 418.544 87.0699 417.954C83.3899 414.474 78.9499 411.734 74.9699 408.604C70.9899 405.474 67.0099 402.154 63.2099 398.704Z" fill="#231F20"/>
<path d="M63.422 416.714C59.7918 413.934 55.7015 411.854 52.1114 408.974C48.8388 406.338 45.8037 403.42 43.0409 400.254C42.7709 399.944 42.2008 400.364 42.4609 400.704C47.4611 407.494 54.6815 415.154 62.9619 417.804C63.622 418.024 63.922 417.094 63.422 416.714Z" fill="#231F20"/>
<path d="M58.6182 327.014C58.1582 326.604 57.4782 327.264 57.9382 327.694C66.9382 336.154 72.7882 346.194 78.9382 356.694C79.3182 357.354 80.4682 356.924 80.1982 356.164C76.0082 344.804 67.4482 334.984 58.6182 327.014Z" fill="#231F20"/>
<path d="M61.4182 472.684C69.4179 479.684 78.1675 485.684 88.0771 489.684C88.7771 489.954 89.257 488.804 88.5871 488.474C79.2474 483.784 70.2778 478.614 62.1882 471.944C61.6182 471.474 60.8782 472.214 61.4182 472.684Z" fill="#231F20"/>
<path fill-rule="evenodd" clip-rule="evenodd" d="M5.36896 309.274C5.14896 294.144 5.70896 279.014 6.36896 263.894C49.3853 280.072 85.2267 311.052 107.459 351.274C108.76 353.644 112.78 352.644 112.64 349.874L110.54 306.824C143.9 340.504 163.64 384.644 182.54 427.504C183.59 429.984 187.68 428.714 187.54 426.144C186.9 414.744 186.267 403.347 185.64 391.954C210.65 411.954 227.4 440.624 233.93 471.954C234.036 472.765 234.695 473.39 235.51 473.454C237.51 489.327 239.51 505.204 241.51 521.084C241.633 522.051 241.751 523.037 241.871 524.036L241.871 524.043L241.872 524.046L241.872 524.052L241.873 524.053L241.873 524.056C242.726 531.189 243.66 538.997 246.99 545.254C224.628 560.653 197.973 568.594 170.83 567.944C131.058 566.562 94.276 546.471 71.6193 513.754C76.7247 513.186 81.647 511.521 86.0494 508.874C88.2894 507.604 87.4694 504.754 85.3894 503.874C59.8993 493.184 40.3591 470.784 32.6591 444.384C41.5525 446.157 50.5059 447.641 59.5192 448.834C62.5093 449.224 62.9093 445.064 60.9092 443.694C17.889 413.764 6.16896 358.484 5.36896 309.274ZM43.039 400.254C42.769 399.944 42.1989 400.364 42.459 400.704C47.4593 407.494 54.6797 415.154 62.9602 417.804C63.6603 418.024 63.9203 417.094 63.4203 416.714C61.7559 415.458 59.9948 414.332 58.2296 413.203C56.1446 411.87 54.0538 410.534 52.1096 408.974C48.837 406.338 45.8018 403.42 43.039 400.254ZM149.709 517.514C149.239 517.194 149.659 516.444 150.159 516.744C159.135 522.387 168.911 526.642 179.158 529.364C189.698 531.984 199.328 531.424 209.997 530.364C210.907 530.284 210.937 531.584 210.197 531.854C200.588 535.384 189.008 534.054 179.318 531.494C168.719 528.57 158.702 523.84 149.709 517.514ZM179.749 544.814C190.089 547.094 201.439 549.464 212.089 548.814C212.403 548.747 212.627 548.47 212.627 548.149C212.627 547.828 212.403 547.551 212.089 547.484C208.059 546.977 204.036 546.624 200.016 546.271L200.014 546.271L200.013 546.27L200.011 546.27L200.009 546.27L200.008 546.27L200.006 546.27L200.005 546.269L200.003 546.269C193.333 545.684 186.674 545.099 180.019 543.814C179.379 543.714 179.099 544.674 179.749 544.814ZM206.289 469.444C210.536 476.077 213.605 483.395 215.359 491.074C215.431 491.331 215.281 491.597 215.024 491.669C214.767 491.741 214.501 491.591 214.429 491.334C212.064 483.958 208.996 476.825 205.269 470.034C205.126 469.755 205.228 469.413 205.499 469.255C205.771 469.098 206.118 469.181 206.289 469.444ZM198.619 490.664C193.3 476.5 185.513 463.391 175.619 451.944C175.159 451.454 174.289 452.104 174.709 452.654C179.097 458.671 183.131 464.938 186.789 471.424C188.182 473.937 189.485 476.512 190.789 479.09L190.789 479.091C192.864 483.193 194.943 487.303 197.399 491.184C197.779 491.794 198.899 491.404 198.619 490.664ZM130.619 367.854C137.16 375.921 142.484 384.903 146.418 394.514C150.348 404.264 153.668 415.424 153.158 426.034C153.158 426.714 152.088 426.914 151.928 426.194C151.299 423.436 150.735 420.682 150.172 417.936C148.696 410.729 147.231 403.579 144.638 396.554C140.958 386.597 135.957 377.18 129.769 368.554C129.349 368.014 130.179 367.374 130.559 367.894L130.619 367.854ZM116.888 404.24L116.888 404.239C116.452 403.315 116.018 402.397 115.619 401.484C115.339 400.824 114.379 401.404 114.679 402.054C115.052 402.924 115.408 403.82 115.766 404.721L115.766 404.722L115.767 404.722L115.767 404.722L115.767 404.723C116.656 406.96 117.56 409.234 118.778 411.244C118.894 411.447 119.144 411.53 119.358 411.438C119.573 411.346 119.685 411.108 119.618 410.884C118.958 408.625 117.915 406.414 116.888 404.24ZM95.129 471.574C102.243 477.083 110.249 481.332 118.799 484.134C122.776 485.444 126.848 486.447 130.979 487.134C132.661 487.409 134.363 487.554 136.065 487.699L136.065 487.699L136.065 487.699L136.066 487.699C138.27 487.888 140.473 488.076 142.629 488.544C142.954 488.638 143.178 488.936 143.178 489.274C143.178 489.612 142.954 489.91 142.629 490.004C134.419 491.504 124.459 488.584 116.839 485.694C108.653 482.544 101.066 478.015 94.409 472.304C93.919 471.894 94.619 471.184 95.149 471.574H95.129ZM61.3989 472.654C69.3585 479.714 78.148 485.724 88.0574 489.654H88.0774C88.7773 489.894 89.2573 488.774 88.5674 488.414C79.2279 483.724 70.2584 478.554 62.1689 471.884C61.6289 471.444 60.859 472.184 61.3989 472.654ZM86.219 419.224C76.619 414.734 67.619 406.054 60.079 398.734C53.439 392.344 47.409 385.134 45.619 375.894C45.5943 375.693 45.7199 375.505 45.9146 375.45C46.1093 375.395 46.315 375.49 46.399 375.674C49.139 385.244 56.059 392.374 63.229 398.894C67.029 402.334 70.949 405.631 74.989 408.784C76.4114 409.901 77.8869 410.967 79.3634 412.034L79.3636 412.034C82.039 413.967 84.7176 415.902 87.089 418.144C87.689 418.704 86.899 419.544 86.219 419.224ZM57.8489 327.724C66.8483 336.154 72.7378 346.194 78.8474 356.724C79.2273 357.384 80.3773 356.954 80.0673 356.224C75.9676 344.834 67.4082 335.044 58.5289 327.044C58.0689 326.634 57.389 327.294 57.8489 327.724Z" fill="#F15A29"/>
<path fill-rule="evenodd" clip-rule="evenodd" d="M245.491 505.414C245.853 508.332 246.209 511.25 246.564 514.17C247.093 518.505 247.621 522.841 248.171 527.174C248.921 533.014 249.761 539.394 253.171 544.384C257.071 550.134 264.171 551.464 270.571 552.164C275.087 552.655 279.602 553.066 284.105 553.476L284.136 553.479C286.603 553.703 289.065 553.927 291.521 554.164C296.038 554.581 300.552 555.007 305.065 555.432L305.083 555.434C315.07 556.376 325.057 557.317 335.081 558.164C340.501 558.634 346.151 558.724 350.081 554.874C345.527 552.485 340.617 550.847 335.541 550.024C333.161 549.574 333.971 546.234 336.081 546.024C342.059 545.727 347.981 547.304 353.021 550.534C353.918 548.525 354.447 546.371 354.581 544.174C353.069 541.604 350.832 539.538 348.151 538.234C345.881 537.099 343.457 536.206 341.033 535.313L341.032 535.313C339.185 534.632 337.338 533.951 335.561 533.164C333.461 532.244 335.071 529.364 337.011 529.714C341.271 530.504 347.671 531.964 352.761 534.714C348.761 526.784 339.181 522.464 330.561 521.274C317.631 519.474 304.431 523.274 293.501 530.134C290.341 532.134 287.501 527.194 290.601 525.134C303.431 516.694 319.761 512.844 334.911 516.134C346.791 518.674 358.531 526.754 360.151 539.584C360.286 540.669 360.346 541.761 360.331 542.854C360.599 543.743 360.744 544.666 360.761 545.594C378.446 549.489 396.945 545.234 411.151 534.004C412.312 532.887 414.149 532.887 415.311 534.004C426.603 545.379 443.412 540.255 457.739 535.886L457.742 535.885C460.808 534.951 463.761 534.05 466.521 533.354C481.931 529.474 498.131 526.904 514.031 528.524C520.93 529.153 527.712 530.713 534.191 533.164C539.319 535.172 543.733 537.967 548.266 540.837L548.268 540.839C549.56 541.657 550.861 542.481 552.191 543.294C553.865 544.379 555.701 545.189 557.631 545.694C556.172 543.64 554.469 541.77 552.561 540.124C549.927 537.928 546.918 536.399 543.894 534.864L543.889 534.861C543.253 534.538 542.615 534.214 541.981 533.884C539.791 532.744 541.481 529.964 543.511 530.254C551.411 531.354 559.361 537.604 563.511 544.734H563.571C567.141 542.024 564.181 536.644 562.381 533.584C558.381 528.844 553.381 525.584 546.591 525.954C544.421 526.074 543.911 522.474 546.071 522.144C548.337 521.808 550.642 521.832 552.901 522.214C551.021 520.434 549.071 518.734 547.141 517.094C540.951 511.832 534.293 507.146 527.251 503.094C524.325 501.408 521.242 499.983 518.161 498.559L518.161 498.558L518.16 498.558C514.461 496.848 510.766 495.139 507.351 492.984C495.111 485.274 492.351 467.194 490.351 454.054C485.111 420.054 483.951 384.914 483.771 350.534C483.753 347.029 483.752 343.512 483.751 339.988C483.742 310.183 483.732 279.819 473.511 251.534C473.27 250.616 473.535 249.64 474.206 248.969C474.877 248.298 475.853 248.034 476.771 248.274C488.588 252.392 499.186 259.402 507.601 268.664C507.471 248.154 505.991 226.804 493.651 209.664C491.931 207.264 495.151 205.204 497.231 206.094C504.143 209.032 510.298 213.501 515.231 219.164C511.995 201.791 506.053 185.034 497.621 169.504C496.431 167.304 498.381 165.274 500.621 165.594L517.171 168.004C509.291 150.004 488.511 139.084 470.561 134.004C469.402 133.74 468.651 132.616 468.851 131.444C467.909 130.848 467.454 129.716 467.721 128.634C469.951 117.054 471.351 105.984 470.101 94.1742C468.783 82.7502 465.931 71.556 461.621 60.8942C459.141 54.6318 456.02 48.7285 452.894 42.8176C450.5 38.2892 448.103 33.7564 445.991 29.0542C443.521 23.5842 441.291 17.5042 440.991 11.4542C439.755 13.9594 438.397 16.4015 437.036 18.8501C436.371 20.0472 435.704 21.2459 435.051 22.4542C431.504 28.944 428.461 35.6973 425.951 42.6542C421.007 56.47 418.796 71.1148 419.441 85.7742C419.581 89.3342 414.331 89.1942 413.991 85.7742C412.571 71.3242 415.391 56.3042 420.171 42.6942C422.606 35.7724 425.557 29.0435 429.001 22.5642C430.014 20.6532 431.091 18.7787 432.166 16.9056L432.167 16.9053L432.167 16.9048C434.278 13.2305 436.385 9.56176 438.001 5.63422C434.138 6.34392 430.203 10.6895 427.299 13.8974L427.298 13.8978C426.602 14.6674 425.964 15.3715 425.401 15.9442C421.448 19.9442 417.608 24.0642 413.881 28.3042C408.796 34.0693 404.131 40.1196 399.459 46.179L399.458 46.1791C397.882 48.2233 396.305 50.2685 394.711 52.3042C396.121 52.3042 397.521 52.3542 398.921 52.4042L398.921 52.4042C400.346 52.491 401.457 53.6718 401.457 55.0992C401.457 56.5266 400.346 57.7074 398.921 57.7942C395.123 57.9545 391.33 58.0867 387.539 58.2189L387.539 58.2189C376.667 58.5978 365.813 58.9762 354.921 60.0142C339.991 61.4342 325.161 63.6242 310.431 66.4642C283.681 71.6142 257.121 78.0542 234.371 93.6442C232.791 94.7342 231.011 92.3042 232.371 91.0242C235.075 88.4732 237.97 86.1331 241.031 84.0242C236.694 79.1658 232.77 73.944 228.846 68.7225C224.185 62.5194 219.524 56.3167 214.171 50.7242C209.125 45.4796 203.199 41.1608 196.661 37.9642C193.766 36.5261 190.798 35.2377 187.771 34.1042C203.851 50.7742 210.241 73.7442 215.691 96.2442C216.481 99.4842 211.481 100.864 210.691 97.6242L210.642 97.4202C205.484 76.0599 199.639 51.8543 183.291 36.1742C185.748 45.4621 185.403 55.2632 185.062 64.9697L185.062 64.9697L185.062 64.9698L185.062 64.9698L185.062 64.9698L185.062 64.9699L185.062 64.9699L185.062 64.97L185.062 64.97L185.062 64.97L185.062 64.9701L185.062 64.9701L185.062 64.9701L185.062 64.9702C184.999 66.7593 184.936 68.5453 184.891 70.3242C184.691 78.1142 184.831 86.0642 187.321 93.5242C190.071 101.744 195.631 107.134 202.621 111.894C204.331 113.054 203.271 116.324 201.131 115.444C199.954 114.963 198.811 114.402 197.711 113.764C190.161 128.306 187.075 144.755 188.841 161.044L193.101 158.344C195.511 156.794 197.611 159.734 196.651 161.904C187.101 183.534 177.491 206.134 177.461 229.984C181.323 224.387 186.589 219.904 192.731 216.984C194.421 216.174 197.281 217.574 196.351 219.764C183.847 249.461 183.068 282.795 194.171 313.044C196.912 306.581 201.264 300.928 206.811 296.624C208.351 295.424 211.641 295.924 211.321 298.494C210.721 303.274 209.811 315.794 218.201 313.934C219.03 313.724 219.911 313.903 220.592 314.421C221.273 314.939 221.682 315.739 221.701 316.594C224.389 337.636 227.001 358.685 229.613 379.732L229.613 379.734L229.613 379.736L229.613 379.737L229.613 379.739L229.614 379.74L229.614 379.742L229.614 379.743L229.614 379.745L229.614 379.746L229.615 379.748L229.615 379.75L229.615 379.751L229.616 379.756L229.616 379.757L229.616 379.759L229.616 379.76L229.616 379.762L229.617 379.764L229.617 379.765L229.617 379.767L229.617 379.768L229.617 379.77L229.617 379.771L229.618 379.773L229.618 379.774L229.618 379.776C231.144 392.073 232.67 404.37 234.211 416.664C235.552 427.239 236.91 437.813 238.269 448.388L238.269 448.391C240.711 467.394 243.152 486.398 245.491 505.414ZM484.821 228.004C482.591 223.864 480.341 220.004 476.571 217.084C476.111 216.734 476.711 215.984 477.191 216.284C481.191 218.884 484.871 222.734 485.931 227.534C486.071 228.184 485.161 228.624 484.821 228.004ZM497.721 155.334C493.171 150.894 483.631 147.644 477.311 148.894C476.901 149.004 476.961 149.584 477.311 149.664C478.899 150.17 480.537 150.482 482.18 150.795C483.982 151.138 485.789 151.483 487.541 152.084C489.425 152.731 491.179 153.605 492.933 154.48C494.298 155.16 495.664 155.841 497.091 156.414C497.721 156.664 498.161 155.754 497.721 155.334ZM490.031 162.984C488.62 162.366 487.279 161.598 486.031 160.694C484.586 159.842 483.086 159.087 481.541 158.434C480.951 158.184 481.381 157.214 481.971 157.434L481.979 157.437C484.868 158.377 488.773 159.647 490.631 162.194C490.736 162.385 490.722 162.62 490.593 162.796C490.464 162.972 490.245 163.057 490.031 163.014V162.984ZM496.851 233.794C495.571 217.994 481.971 203.774 468.791 196.474V196.504C468.547 196.41 468.27 196.505 468.135 196.729C467.999 196.953 468.044 197.242 468.241 197.414C475.102 201.874 481.034 207.619 485.711 214.334C488.921 218.93 491.02 223.872 493.155 228.896C493.9 230.649 494.649 232.412 495.451 234.174C495.63 234.454 495.97 234.586 496.291 234.499C496.611 234.412 496.838 234.126 496.851 233.794ZM446.4 151.304C447.065 151.174 447.75 151.205 448.4 151.394C449.263 151.378 450.106 151.657 450.79 152.184C453.18 152.964 453.57 156.384 452.23 158.394C451.616 159.316 450.67 159.964 449.59 160.204C449.164 160.543 448.679 160.8 448.16 160.964C445.221 161.884 442.751 159.584 442.611 156.704C442.461 154.344 443.931 151.794 446.4 151.334V151.304ZM425.661 115.494C424.44 116.587 423.503 117.959 422.931 119.494C422.161 121.588 422.225 123.897 423.111 125.944C423.127 126.004 423.14 126.064 423.153 126.124C423.172 126.214 423.191 126.304 423.221 126.394C424.131 129.334 425.941 130.774 428.061 131.174C429.423 131.913 430.906 132.401 432.441 132.614C435.608 133.144 438.827 132.026 440.984 129.647C443.141 127.268 443.938 123.954 443.101 120.854C443.594 117.911 442.233 114.966 439.671 113.434C438.446 112.724 437.081 112.287 435.671 112.154C432.628 111.092 429.245 111.87 426.971 114.154C426.894 114.206 426.817 114.252 426.74 114.297C426.637 114.359 426.534 114.42 426.431 114.494C426.097 114.76 425.832 115.103 425.661 115.494ZM343.071 186.584C352.981 186.964 362.241 180.794 370.121 175.394C377.557 170.27 384.4 164.334 390.521 157.694C393.521 154.454 396.221 151.034 398.891 147.534C400.371 145.604 401.971 143.734 404.591 143.654C410.105 143.48 410.991 150.282 411.564 154.684L411.564 154.684C411.614 155.071 411.662 155.44 411.711 155.784C413.585 169.396 412.797 183.243 409.391 196.554C405.907 210.283 399.76 223.194 391.301 234.554C387.22 240.057 382.597 245.136 377.501 249.714C372.631 254.064 367.451 258.404 360.791 259.254C357.791 259.634 357.501 255.054 360.111 254.254C367.261 252.064 373.111 246.394 378.271 241.154C383.336 235.981 387.814 230.263 391.621 224.104C398.24 213.409 402.893 201.617 405.361 189.284C406.619 183.028 407.269 176.665 407.301 170.284V168.924C402.1 168.233 397.674 164.794 395.721 159.924C395.307 160.364 394.892 160.824 394.472 161.287C393.939 161.877 393.4 162.473 392.851 163.044C388.301 167.773 383.371 172.12 378.111 176.044C368.191 183.464 355.561 192.284 342.581 190.124C340.521 189.834 341.051 186.504 343.071 186.584ZM352.411 314.904C347.731 304.764 341.181 295.364 332.181 288.584V288.594C322.801 281.524 311.621 278.634 299.921 279.074C275.761 280.105 253.634 292.894 240.681 313.314C239.231 315.624 242.781 317.624 244.291 315.434C255.991 298.404 275.181 286.454 295.891 284.604C307.221 283.594 318.331 285.504 327.721 292.184C336.681 298.564 343.001 307.884 347.521 317.784C352.427 328.972 356.008 340.695 358.191 352.714C360.331 363.754 362.871 378.214 358.421 388.984C356.411 393.854 351.951 398.474 346.261 398.064C340.171 397.634 335.451 392.234 332.101 387.634C329.138 383.576 326.676 379.203 324.215 374.831L324.215 374.831C321.484 369.981 318.754 365.132 315.341 360.714C309.191 352.764 301.011 346.544 290.711 345.714C281.111 344.934 271.001 348.884 264.951 356.444C262.791 359.144 266.411 363.004 268.851 360.334C276.321 352.154 288.411 348.684 298.701 353.684C298.976 353.815 299.241 353.961 299.507 354.108L299.508 354.108L299.608 354.164C299.676 354.201 299.743 354.238 299.811 354.274C289.491 379.024 288.261 408.084 293.731 434.024C296.501 447.164 301.331 459.604 309.811 470.164C317.741 480.054 328.051 487.944 338.971 494.274C350.441 500.914 362.981 505.364 376.391 504.514C388.525 503.624 400.195 499.479 410.171 492.514C431.081 478.104 442.501 453.654 446.081 429.104C448.431 412.994 447.751 396.714 445.551 380.624C444.421 372.374 442.981 364.154 441.251 356.014C439.751 348.944 437.771 341.984 434.021 335.774C435.35 335.648 436.686 335.601 438.021 335.634C448.531 335.944 458.131 341.604 462.771 351.104C464.351 354.314 468.921 351.504 467.541 348.314C461.441 334.294 444.531 327.984 430.141 330.744C422.363 332.119 415.492 336.632 411.141 343.224C408.437 347.36 406.482 351.931 404.526 356.507L404.525 356.507C402.915 360.274 401.303 364.043 399.271 367.574C399.166 367.757 399.06 367.941 398.954 368.126C398.847 368.313 398.739 368.501 398.63 368.691L398.628 368.695C396.577 372.276 394.345 376.173 391.541 379.104C386.221 384.664 381.081 377.764 380.081 372.544C378.221 363.174 379.331 352.464 380.951 343.174C384.191 324.514 392.141 305.634 404.881 291.424C419.101 275.564 441.401 271.134 461.811 274.354C464.261 274.734 465.381 271.104 462.861 270.554C445.201 266.704 425.851 268.474 410.691 279.054C398.891 287.284 390.271 300.204 384.271 313.734C375.591 308.534 362.141 312.784 353.351 317.034L353.281 316.873L353.224 316.742L353.12 316.502C352.889 315.969 352.658 315.437 352.411 314.904ZM255.561 260.154C256.121 259.934 256.491 260.854 255.961 261.154C244.781 266.794 243.251 282.494 242.901 293.364C242.892 293.697 242.643 293.975 242.312 294.019C241.982 294.064 241.668 293.863 241.571 293.544C238.621 282.414 244.011 264.524 255.561 260.164V260.154ZM223.041 186.584C221.657 185.83 219.98 185.857 218.621 186.654C217.511 187.322 216.911 188.592 217.101 189.874C216.758 190.754 216.966 191.754 217.631 192.424C217.814 192.613 218.015 192.784 218.231 192.934C219.141 193.99 220.57 194.44 221.921 194.094C223.468 193.697 224.669 192.477 225.041 190.924C225.407 189.195 224.593 187.43 223.041 186.584ZM202.421 226.654C206.641 220.914 214.95 213.024 222.659 213.454C222.885 213.496 223.058 213.679 223.088 213.907C223.118 214.135 222.997 214.356 222.789 214.454C216.728 215.91 212.032 219.907 207.372 223.875L207.371 223.875L207.371 223.876C206.012 225.032 204.657 226.186 203.271 227.274C202.841 227.594 202.041 227.134 202.431 226.604L202.421 226.654ZM215.196 260.76C218.525 255.228 222.44 248.721 228.911 247.324L228.921 247.274C229.301 247.194 229.171 246.684 228.811 246.704C220.971 245.874 215.301 256.174 212.701 262.174C212.533 262.506 212.653 262.911 212.975 263.097C213.296 263.283 213.707 263.185 213.911 262.874C214.332 262.195 214.759 261.486 215.196 260.76ZM230.62 230.634C221.317 235.63 213.638 243.184 208.491 252.404C203.459 261.332 201.742 270.725 199.96 280.47C199.67 282.055 199.379 283.65 199.071 285.254C198.941 285.934 197.971 285.714 197.931 285.094C196.551 263.094 209.571 238.564 230.17 229.874C230.69 229.654 231.14 230.364 230.62 230.634ZM233.05 145.294C221.221 143.144 217.751 164.794 229.621 166.294C231.32 166.529 233.051 166.261 234.6 165.524C235.235 165.507 235.865 165.42 236.48 165.264C242.02 163.824 244.3 157.324 242.38 152.324C240.994 148.66 237.673 146.081 233.78 145.644C233.573 145.463 233.321 145.342 233.05 145.294Z" fill="#F7941E"/>
<path d="M233.979 153.244C231.98 149.964 228.171 152.384 228.91 155.664C229.227 156.81 229.891 157.83 230.81 158.584C231.303 158.448 231.776 158.249 232.219 157.994C232.815 157.659 233.328 157.194 233.719 156.634C233.967 156.162 234.307 155.743 234.719 155.404C234.613 154.643 234.362 153.91 233.979 153.244Z" fill="white"/>
<path d="M364.442 389.474C361.372 398.474 352.802 405.934 342.821 403.314C332.181 400.524 325.721 389.104 320.701 380.264C316.051 372.074 311.371 362.844 303.821 356.914C299.741 370.304 296.641 383.694 296.061 397.804C295.402 412.346 297.09 426.899 301.061 440.904C308.061 465.054 326.541 482.484 348.861 493.094C371.482 503.844 397.212 498.094 415.132 481.094C432.522 464.544 440.322 440.174 441.562 416.694C442.292 402.924 441.042 389.094 438.882 375.504C436.832 362.634 435.122 348.434 428.172 337.154C428.172 337.094 428.122 337.044 428.082 336.984C425.988 337.628 423.993 338.557 422.152 339.744C417.092 343.014 414.322 348.244 411.982 353.624C407.702 363.444 394.592 398.464 379.152 382.954C372.902 376.684 373.642 365.434 373.962 357.324C374.357 347.347 376.038 337.462 378.962 327.914C379.962 324.794 381.022 321.624 382.262 318.464C377.262 317.534 373.062 316.604 367.782 317.634C363.432 318.484 359.392 320.234 355.242 321.634C358.957 331.189 361.793 341.063 363.712 351.134C366.072 363.124 368.472 377.644 364.442 389.474Z" fill="#F15A29"/>
<path d="M434.168 124.224C435.364 123.066 436.048 121.479 436.068 119.814C434.58 118.761 432.735 118.34 430.938 118.644C430.531 118.862 430.144 119.113 429.778 119.394C429.318 120.444 429.452 121.659 430.128 122.584C431.032 123.881 432.615 124.524 434.168 124.224Z" fill="white"/>
<path fill-rule="evenodd" clip-rule="evenodd" d="M4.53962 257.434C3.71987 257.218 2.8464 257.393 2.17227 257.907C1.49813 258.421 1.09867 259.217 1.08962 260.064C-1.18038 314.354 -3.04038 373.594 29.8496 420.114C35.51 428.146 42.1514 435.439 49.6196 441.824C42.9196 440.758 36.2529 439.518 29.6196 438.104C28.6612 437.863 27.6467 438.144 26.948 438.843C26.2492 439.541 25.9688 440.556 26.2096 441.514C33.1495 469.769 52.167 493.541 78.2096 506.514C74.5071 507.897 70.5699 508.543 66.6196 508.414C65.6322 508.426 64.7248 508.96 64.2337 509.817C63.7426 510.673 63.7411 511.726 64.2296 512.584C94.4096 559.814 152.23 583.184 206.7 569.584C222.296 565.714 237.041 558.991 250.19 549.754C251.864 551.629 253.876 553.172 256.12 554.304C261.476 557.042 267.607 557.581 273.54 558.103C274.109 558.153 274.676 558.203 275.24 558.254L300.06 560.554L325.74 562.954C327.124 563.085 328.548 563.258 329.994 563.435C335.858 564.15 342.09 564.909 347.57 563.024C353.22 561.074 357.01 556.504 358.92 551.134C377.736 555.504 397.522 551.41 413.06 539.934C424.44 549.484 440.2 547.034 453.63 543.164C468.83 538.784 484.11 534.714 500 534.084C515.89 533.454 531.53 536.434 544.85 545.504L544.95 545.572C550.382 549.263 556.252 553.252 563.15 551.344C569.22 549.674 572.08 544.194 570.65 538.174C567.3 524.064 552.2 512.904 541.06 504.984C534.435 500.286 527.408 496.183 520.06 492.724C519.154 492.296 518.234 491.886 517.313 491.476L517.311 491.475C514.898 490.4 512.474 489.32 510.26 487.894C506.26 485.344 504.03 481.724 502.26 477.424C496.023 461.944 494.59 444.794 493.206 428.241L493.206 428.24C493.095 426.904 492.983 425.572 492.87 424.244C491.256 405.458 490.216 386.634 489.75 367.774C489.553 359.918 489.52 352.018 489.488 344.103V344.103C489.364 314.167 489.24 284.032 480.24 255.354C491.19 260.178 500.702 267.758 507.85 277.354C509.34 279.354 512.85 278.864 512.85 276.004C512.85 255.604 512.48 233.844 503.14 215.424C509.018 219.591 513.817 225.1 517.14 231.494C518.31 233.724 522.42 232.824 522.14 230.154C519.744 209.752 513.816 189.923 504.62 171.554L520.62 173.974C522.55 174.254 524.62 172.804 523.98 170.614C517.27 148.944 494.09 134.564 472.98 129.554C480.15 109.284 476.19 84.8842 469.22 65.1742C465.53 54.7442 460.53 45.0442 455.22 35.3642C452.221 30.2292 449.722 24.8176 447.76 19.2042C445.92 13.4242 445.76 7.7742 446.15 1.7842C446.25 0.0842041 443.53 -0.755796 442.81 0.884204C442.81 0.949087 442.778 1.00877 442.746 1.07076V1.07082C442.733 1.0948 442.721 1.11911 442.71 1.1442C442.577 1.07269 442.44 1.00924 442.3 0.954204C437.07 -0.975796 432.54 2.1942 428.81 5.6542C423.71 10.3842 418.92 15.5242 414.24 20.6542C405.24 30.4942 396.19 40.9442 389.11 52.2542C377.11 52.3642 365.11 53.3542 353.31 54.5342C338.18 56.0342 323.09 58.2242 308.19 61.2142L307.012 61.4511C286.673 65.5417 263.564 70.1895 245.19 81.3142C245.179 81.2904 245.166 81.2672 245.153 81.2447C245.142 81.2275 245.131 81.2106 245.12 81.1942C241.754 76.2854 237.961 71.6282 234.178 66.9837L234.178 66.9831C232.79 65.279 231.403 63.5767 230.04 61.8642C229.527 61.2145 229.015 60.5631 228.503 59.9114C224.602 54.9464 220.687 49.9629 216.17 45.5342C211.171 40.7054 205.432 36.7081 199.17 33.6942C198.752 33.4894 198.323 33.2771 197.884 33.0596C192.529 30.411 185.623 26.9951 179.7 26.8842L179.12 26.4342C177.01 24.8742 174.79 27.8142 175.79 29.7742C181.306 40.5664 180.87 52.6457 180.438 64.6039V64.6041C180.26 69.5103 180.084 74.396 180.32 79.1642C180.9 90.8342 184.62 103.314 193.62 110.894C184.194 127.707 180.879 147.265 184.24 166.244C184.466 167.037 185.044 167.681 185.807 167.992C186.571 168.302 187.435 168.244 188.15 167.834L188.62 167.524C178.83 190.234 170.01 214.184 172.86 239.234C172.929 240.463 173.86 241.47 175.079 241.636C176.299 241.802 177.465 241.08 177.86 239.914C180.134 234.044 183.994 228.92 189.01 225.114C177.652 256.639 178.794 291.315 192.2 322.024C193.12 324.124 196.52 323.464 197 321.394C198.389 315.255 201.329 309.574 205.54 304.894C205.364 308.369 206.319 311.807 208.26 314.694C210.169 317.485 213.247 319.252 216.62 319.494C221.86 362.601 227.166 405.711 232.54 448.824C223.283 422.792 206.382 400.161 184.05 383.894C182.41 382.694 179.88 384.304 179.99 386.224C180.45 394.658 180.913 403.088 181.38 411.514C163.01 370.324 142.69 329.084 109.38 297.884C107.71 296.324 104.51 297.344 104.63 299.884C105.256 312.844 105.89 325.804 106.53 338.764C82.666 300.939 46.7277 272.28 4.53962 257.434ZM221.74 316.584C221.72 315.729 221.312 314.929 220.631 314.411C219.949 313.893 219.069 313.714 218.24 313.924C209.85 315.784 210.76 303.264 211.36 298.484C211.68 295.914 208.36 295.414 206.85 296.614C201.303 300.918 196.951 306.571 194.21 313.034C183.106 282.785 183.885 249.451 196.39 219.754C197.32 217.564 194.46 216.164 192.77 216.974C186.628 219.894 181.362 224.377 177.5 229.974C177.5 206.124 187.14 183.524 196.69 161.894C197.69 159.724 195.55 156.784 193.14 158.334L188.88 161.034C187.114 144.745 190.2 128.296 197.75 113.754C198.85 114.392 199.993 114.953 201.17 115.434C203.31 116.314 204.37 113.044 202.66 111.884C195.66 107.124 190.11 101.734 187.36 93.5142C184.87 86.0542 184.73 78.1042 184.93 70.3142C184.975 68.5351 185.038 66.749 185.101 64.9597C185.442 55.2532 185.787 45.4521 183.33 36.1642C199.71 51.8942 205.56 76.1642 210.73 97.6142C211.51 100.854 216.51 99.4742 215.73 96.2342C210.28 73.7342 203.89 50.7642 187.81 34.0942C190.837 35.2277 193.804 36.5161 196.7 37.9542C203.238 41.1508 209.164 45.4696 214.21 50.7142C219.537 56.3066 224.183 62.4812 228.827 68.6541C232.77 73.8944 236.712 79.1335 241.07 84.0142C238.008 86.1231 235.113 88.4632 232.41 91.0142C231.07 92.2942 232.85 94.7242 234.41 93.6342C257.16 78.0442 283.72 71.6342 310.47 66.4542C325.2 63.6142 340.03 61.4542 354.96 60.0042C365.839 58.9652 376.696 58.5872 387.589 58.2079L387.59 58.2078C391.375 58.076 395.164 57.9441 398.96 57.7842C400.384 57.6974 401.495 56.5166 401.495 55.0892C401.495 53.6618 400.384 52.481 398.96 52.3942C398.071 52.3942 397.183 52.366 396.292 52.3377L396.291 52.3377C395.778 52.3214 395.265 52.3052 394.75 52.2942C396.376 50.2206 397.984 48.1364 399.591 46.0528C404.232 40.0378 408.869 34.0281 413.92 28.2942C417.653 24.0742 421.493 19.9542 425.44 15.9342C425.975 15.3821 426.578 14.7138 427.235 13.9853C430.149 10.7554 434.131 6.34225 438.04 5.6242C436.404 9.53024 434.305 13.204 432.202 16.8834L432.201 16.8843C431.128 18.7623 430.053 20.6417 429.04 22.5542C425.596 29.0334 422.644 35.7624 420.21 42.6842C415.43 56.2942 412.61 71.3142 414.03 85.7642C414.37 89.1842 419.62 89.3242 419.48 85.7642C418.835 71.1048 421.046 56.4599 425.99 42.6442C428.5 35.6873 431.542 28.934 435.09 22.4442C435.705 21.3125 436.329 20.1892 436.953 19.0678C438.357 16.5428 439.755 14.0271 441.03 11.4442C441.34 17.4942 443.57 23.5742 446.03 29.0442C448.151 33.8107 450.572 38.4015 452.992 42.9888L452.992 42.9893C456.079 48.844 459.164 54.6931 461.62 60.8942C465.938 71.5482 468.8 82.7355 470.13 94.1542C471.38 105.964 469.98 117.034 467.75 128.614C467.482 129.696 467.937 130.828 468.88 131.424C468.676 132.609 469.444 133.743 470.62 133.994C488.57 139.084 509.35 149.994 517.23 167.994L500.62 165.594C498.38 165.274 496.43 167.304 497.62 169.504C506.027 185.061 511.939 201.842 515.14 219.234C510.207 213.571 504.052 209.102 497.14 206.164C495.06 205.274 491.84 207.334 493.56 209.734C505.9 226.824 507.38 248.174 507.51 268.734C499.095 259.472 488.496 252.462 476.68 248.344C475.762 248.104 474.785 248.368 474.114 249.039C473.443 249.71 473.179 250.686 473.42 251.604C483.641 279.925 483.65 310.292 483.659 340.069C483.661 343.59 483.662 347.104 483.68 350.604C483.86 384.984 485.02 420.094 490.26 454.124C492.26 467.264 495.03 485.344 507.26 493.054C510.706 495.256 514.437 496.973 518.169 498.691L518.17 498.691C521.217 500.094 524.265 501.497 527.16 503.164C534.202 507.216 540.859 511.902 547.05 517.164C548.98 518.804 550.93 520.504 552.81 522.284C550.551 521.902 548.246 521.878 545.98 522.214C543.82 522.544 544.33 526.144 546.5 526.024C553.31 525.644 558.31 528.914 562.29 533.654C564.09 536.714 567.05 542.094 563.48 544.804H563.42C559.32 537.674 551.37 531.424 543.42 530.324C541.42 530.034 539.7 532.814 541.89 533.954C542.526 534.285 543.164 534.61 543.803 534.934C546.826 536.469 549.836 537.998 552.47 540.194C554.378 541.84 556.08 543.71 557.54 545.764C555.61 545.259 553.773 544.449 552.1 543.364C550.754 542.541 549.439 541.707 548.135 540.88L548.134 540.879C543.623 538.019 539.234 535.235 534.1 533.234C527.62 530.783 520.838 529.222 513.94 528.594C498.04 526.974 481.84 529.544 466.43 533.424C463.715 534.118 460.814 535.005 457.803 535.927L457.801 535.927C443.441 540.322 426.553 545.49 415.22 534.074C414.058 532.957 412.221 532.957 411.06 534.074C396.854 545.304 378.354 549.559 360.67 545.664C360.653 544.735 360.508 543.813 360.24 542.924C360.255 541.831 360.195 540.739 360.06 539.654C358.44 526.824 346.7 518.744 334.82 516.204C319.67 512.954 303.34 516.804 290.51 525.204C287.44 527.204 290.25 532.144 293.41 530.204C304.34 523.354 317.54 519.544 330.47 521.344C339.09 522.534 348.71 526.854 352.67 534.784C347.58 531.994 341.18 530.534 336.92 529.784C334.98 529.434 333.37 532.314 335.47 533.234C337.253 534.024 339.102 534.706 340.952 535.389C343.367 536.28 345.784 537.172 348.06 538.304C350.741 539.608 352.978 541.674 354.49 544.244C354.355 546.441 353.827 548.595 352.93 550.604C347.89 547.374 341.968 545.797 335.99 546.094C333.88 546.254 333.07 549.594 335.45 550.094C340.557 550.891 345.502 552.512 350.09 554.894C346.09 558.744 340.47 558.654 335.09 558.184C326.22 557.421 317.373 556.591 308.514 555.76L308.511 555.76C302.859 555.229 297.201 554.698 291.53 554.184C289.865 554.032 288.201 553.884 286.537 553.736L286.531 553.735C281.199 553.26 275.875 552.786 270.58 552.184C264.13 551.484 257.08 550.184 253.18 544.404C249.813 539.424 248.966 533.084 248.189 527.263L248.18 527.194C247.63 522.863 247.102 518.529 246.574 514.195L246.573 514.188C246.217 511.269 245.862 508.351 245.5 505.434C243.382 488.217 241.181 471.01 238.979 453.803L238.979 453.802C237.395 441.427 235.812 429.052 234.26 416.674C232.66 403.937 231.079 391.194 229.497 378.454L229.496 378.449L229.496 378.449C226.935 357.811 224.373 337.178 221.74 316.584ZM112.619 349.834C112.759 352.604 108.739 353.604 107.439 351.234C85.2077 311.044 49.387 280.087 6.39961 263.914C5.70961 279.034 5.14962 294.164 5.39962 309.294C6.19961 358.504 17.9395 413.784 60.9392 443.714C62.9092 445.084 62.5492 449.244 59.5492 448.854C50.5493 447.667 41.596 446.184 32.6894 444.404C40.4194 470.804 59.9292 493.204 85.419 503.894C87.499 504.724 88.319 507.574 86.079 508.894C81.6661 511.538 76.7332 513.196 71.6191 513.754C94.2801 546.451 131.051 566.525 170.808 567.904C197.952 568.554 224.606 560.613 246.968 545.214C243.636 538.927 242.703 531.132 241.849 524.001C241.729 523 241.611 522.013 241.488 521.044C239.488 505.171 237.488 489.294 235.488 473.414C234.673 473.35 234.014 472.725 233.908 471.914C227.378 440.624 210.618 411.914 185.618 391.914C186.258 403.307 186.892 414.704 187.518 426.104C187.708 428.674 183.618 429.944 182.518 427.464C163.648 384.604 143.909 340.434 110.519 306.784L112.619 349.834Z" fill="#231F20"/>
<path d="M342.62 190.174C355.62 192.334 368.23 183.514 378.15 176.094C383.41 172.17 388.339 167.823 392.89 163.094C393.89 162.094 394.82 161.024 395.76 159.974C397.713 164.844 402.139 168.283 407.34 168.974C407.34 169.424 407.34 169.884 407.34 170.334C407.308 176.715 406.658 183.078 405.4 189.334C402.914 201.652 398.247 213.427 391.62 224.104C387.811 230.274 383.331 236.002 378.26 241.184C373.11 246.424 367.26 252.094 360.1 254.284C357.49 255.094 357.81 259.674 360.78 259.284C367.44 258.434 372.62 254.094 377.49 249.744C382.586 245.166 387.209 240.087 391.29 234.584C399.749 223.224 405.895 210.313 409.38 196.584C412.786 183.273 413.574 169.426 411.7 155.814C411.1 151.564 410.56 143.494 404.58 143.684C401.96 143.764 400.36 145.684 398.88 147.564C396.21 151.064 393.49 154.484 390.51 157.724C384.388 164.364 377.546 170.3 370.11 175.424C362.23 180.824 352.97 186.994 343.06 186.614C341.05 186.504 340.52 189.834 342.62 190.174Z" fill="#231F20"/>
<path fill-rule="evenodd" clip-rule="evenodd" d="M428.039 131.224C425.919 130.824 424.109 129.384 423.199 126.444C423.18 126.388 423.166 126.332 423.152 126.278C423.128 126.188 423.107 126.103 423.069 126.034C422.177 123.97 422.119 121.64 422.909 119.534C423.481 117.999 424.418 116.627 425.639 115.534C425.81 115.143 426.075 114.8 426.409 114.534C426.512 114.46 426.615 114.399 426.717 114.337C426.795 114.292 426.872 114.246 426.949 114.194C429.223 111.91 432.606 111.132 435.649 112.194C437.059 112.327 438.424 112.764 439.649 113.474C442.211 115.006 443.572 117.951 443.079 120.894C443.921 123.996 443.125 127.312 440.968 129.694C438.81 132.076 435.588 133.196 432.419 132.664C430.884 132.451 429.401 131.963 428.039 131.224ZM430.939 118.644C430.533 118.862 430.145 119.113 429.779 119.394C429.331 120.451 429.48 121.666 430.169 122.584C431.067 123.866 432.63 124.507 434.17 124.224C435.367 123.066 436.051 121.479 436.071 119.814C434.582 118.761 432.737 118.34 430.939 118.644Z" fill="#231F20"/>
<path d="M448.13 160.994C448.649 160.83 449.133 160.573 449.56 160.234C450.64 159.994 451.586 159.346 452.2 158.424C453.54 156.424 453.15 152.994 450.76 152.214C450.076 151.687 449.233 151.408 448.37 151.424C447.72 151.235 447.034 151.204 446.37 151.334C443.9 151.794 442.43 154.334 442.55 156.734C442.72 159.614 445.19 161.894 448.13 160.994Z" fill="#231F20"/>
<path fill-rule="evenodd" clip-rule="evenodd" d="M242.419 152.374C244.339 157.384 242.059 163.874 236.519 165.314C235.912 165.485 235.288 165.589 234.659 165.624C233.099 166.348 231.36 166.598 229.659 166.344C217.789 164.794 221.259 143.144 233.089 145.344C233.36 145.392 233.612 145.513 233.819 145.694C237.712 146.131 241.033 148.71 242.419 152.374ZM232.219 157.994C232.815 157.659 233.327 157.194 233.719 156.634C233.973 156.16 234.32 155.741 234.739 155.404C234.627 154.642 234.369 153.909 233.979 153.244C231.979 149.964 228.169 152.384 228.909 155.664C229.226 156.81 229.889 157.83 230.809 158.584C231.302 158.448 231.776 158.249 232.219 157.994Z" fill="#231F20"/>
<path d="M217.619 192.424C217.803 192.613 218.004 192.783 218.219 192.934C219.129 193.99 220.559 194.439 221.91 194.094C223.457 193.697 224.658 192.477 225.03 190.924C225.396 189.194 224.583 187.43 223.03 186.584C221.646 185.83 219.969 185.857 218.609 186.654C217.503 187.334 216.915 188.612 217.119 189.894C216.777 190.763 216.973 191.751 217.619 192.424Z" fill="#231F20"/>
<path fill-rule="evenodd" clip-rule="evenodd" d="M244.279 315.434C242.769 317.624 239.219 315.624 240.669 313.314C253.618 292.893 275.74 280.1 299.899 279.064C311.559 278.584 322.789 281.514 332.169 288.584C341.159 295.364 347.719 304.764 352.399 314.904C352.647 315.437 352.877 315.969 353.108 316.502C353.185 316.679 353.262 316.857 353.339 317.034C362.129 312.734 375.579 308.534 384.259 313.734C390.219 300.204 398.879 287.284 410.679 279.054C425.849 268.474 445.189 266.704 462.849 270.554C465.369 271.104 464.249 274.734 461.799 274.354C441.389 271.134 419.089 275.564 404.869 291.424C392.129 305.634 384.179 324.514 380.939 343.174C379.319 352.464 378.209 363.214 380.069 372.544C381.109 377.764 386.209 384.664 391.529 379.104C394.334 376.173 396.565 372.276 398.616 368.694C398.832 368.317 399.047 367.943 399.259 367.574C401.291 364.043 402.903 360.274 404.514 356.507C406.47 351.931 408.425 347.36 411.129 343.224C415.48 336.632 422.351 332.119 430.129 330.744C444.529 327.984 461.429 334.314 467.529 348.314C468.909 351.504 464.339 354.344 462.759 351.104C458.119 341.634 448.519 335.944 438.009 335.634C436.674 335.601 435.338 335.648 434.009 335.774C437.759 342.014 439.739 348.944 441.239 356.014C442.969 364.154 444.409 372.374 445.539 380.624C447.739 396.714 448.419 412.994 446.069 429.104C442.489 453.654 431.029 478.124 410.159 492.514C400.183 499.479 388.513 503.624 376.379 504.514C362.959 505.364 350.429 500.914 338.959 494.274C328.039 487.944 317.729 480.054 309.799 470.164C301.319 459.604 296.489 447.194 293.719 434.024C288.249 408.084 289.479 378.984 299.799 354.274C299.698 354.219 299.597 354.164 299.496 354.108C299.23 353.961 298.965 353.815 298.689 353.684C288.399 348.634 276.309 352.154 268.839 360.334C266.399 363.004 262.779 359.144 264.939 356.444C270.989 348.884 281.099 344.934 290.699 345.714C300.999 346.524 309.179 352.714 315.329 360.714C318.742 365.132 321.472 369.981 324.203 374.831C326.664 379.203 329.126 383.576 332.089 387.634C335.439 392.234 340.159 397.624 346.249 398.064C351.939 398.474 356.409 393.854 358.409 388.984C362.859 378.214 360.319 363.714 358.179 352.714C355.996 340.695 352.415 328.972 347.509 317.784C342.989 307.884 336.709 298.564 327.709 292.184C318.319 285.504 307.209 283.604 295.879 284.604C275.169 286.434 255.979 298.434 244.279 315.434ZM381.497 318.314C376.843 317.443 372.814 316.688 367.819 317.634C364.533 318.276 361.423 319.432 358.336 320.58C357.336 320.951 356.339 321.322 355.339 321.674C359.055 331.229 361.89 341.103 363.809 351.174C366.129 363.124 368.499 377.644 364.499 389.474C361.429 398.474 352.879 405.934 342.879 403.314C332.239 400.524 325.759 389.104 320.759 380.264C320.271 379.405 319.783 378.535 319.292 377.658C315.096 370.174 310.637 362.222 303.879 356.914C299.799 370.304 296.699 383.694 296.119 397.804C295.46 412.346 297.148 426.899 301.119 440.904C308.099 465.094 326.599 482.484 348.919 493.094C371.539 503.844 397.269 498.094 415.189 481.094C432.619 464.544 440.379 440.174 441.619 416.694C442.319 402.894 441.069 389.094 438.919 375.504C438.739 374.376 438.562 373.238 438.384 372.093C436.529 360.168 434.55 347.446 428.209 337.154C428.2 337.14 428.19 337.127 428.18 337.114C428.149 337.07 428.119 337.03 428.119 336.984C426.025 337.628 424.03 338.557 422.189 339.744C417.129 343.014 414.359 348.244 412.019 353.624C411.714 354.325 411.363 355.154 410.97 356.084C405.856 368.185 393.527 397.357 379.189 382.954C373.197 376.942 373.63 366.352 373.958 358.342C373.972 357.997 373.986 357.658 373.999 357.324C374.395 347.347 376.075 337.462 378.999 327.914C379.959 324.794 381.059 321.624 382.299 318.464C382.029 318.414 381.762 318.364 381.497 318.314Z" fill="#231F20"/>
<path d="M477.309 149.694C480.639 150.754 484.189 150.974 487.54 152.114C490.89 153.254 493.83 155.114 497.09 156.444C497.71 156.694 498.16 155.784 497.72 155.364C493.17 150.894 483.619 147.674 477.309 148.894C476.899 149.004 476.959 149.584 477.309 149.694Z" fill="#231F20"/>
<path d="M481.988 157.444C481.398 157.244 480.988 158.214 481.558 158.444C483.103 159.097 484.603 159.852 486.048 160.704C487.296 161.608 488.637 162.376 490.048 162.994C490.262 163.044 490.486 162.964 490.619 162.789C490.753 162.615 490.772 162.378 490.668 162.184C488.788 159.654 484.878 158.384 481.988 157.444Z" fill="#231F20"/>
<path d="M468.238 197.444C475.099 201.904 481.032 207.649 485.708 214.364C490.038 220.564 492.348 227.364 495.448 234.204C495.627 234.484 495.967 234.616 496.288 234.529C496.609 234.442 496.836 234.156 496.848 233.824C495.568 218.024 481.968 203.824 468.788 196.504C468.529 196.352 468.195 196.44 468.043 196.699C467.892 196.959 467.979 197.292 468.238 197.444Z" fill="#231F20"/>
<path d="M477.191 216.284C476.711 215.984 476.111 216.734 476.571 217.084C480.341 220.034 482.571 223.864 484.821 228.004C485.161 228.624 486.071 228.184 485.931 227.534C484.871 222.734 481.221 218.894 477.191 216.284Z" fill="#231F20"/>
<path d="M230.18 229.894C209.58 238.584 196.56 263.074 197.94 285.114C197.94 285.734 198.94 285.954 199.08 285.274C201.28 273.814 202.65 262.804 208.5 252.424C213.642 243.198 221.317 235.637 230.62 230.634C231.14 230.364 230.69 229.654 230.18 229.894Z" fill="#231F20"/>
<path d="M228.838 246.654C220.998 245.824 215.328 256.164 212.728 262.124C212.56 262.456 212.68 262.861 213.002 263.047C213.324 263.233 213.735 263.135 213.938 262.824C217.548 256.974 221.598 248.824 228.938 247.274C229.298 247.194 229.168 246.684 228.838 246.654Z" fill="#231F20"/>
<path d="M203.278 227.254C209.418 222.464 214.968 216.314 222.798 214.434C223.006 214.336 223.127 214.115 223.097 213.887C223.067 213.659 222.894 213.476 222.668 213.434C214.958 213.004 206.668 220.894 202.428 226.634C202.038 227.134 202.838 227.594 203.278 227.254Z" fill="#231F20"/>
<path d="M241.618 293.524C241.716 293.843 242.03 294.044 242.36 293.999C242.69 293.955 242.939 293.677 242.948 293.344C243.298 282.474 244.828 266.774 256.008 261.134C256.538 260.864 256.168 259.944 255.608 260.134C244.008 264.524 238.618 282.414 241.618 293.524Z" fill="#231F20"/>
<path d="M144.62 396.554C148.2 406.254 149.62 416.174 151.91 426.194C152.07 426.914 153.1 426.714 153.14 426.034C153.65 415.424 150.33 404.264 146.4 394.514C142.449 384.914 137.112 375.946 130.56 367.894C130.18 367.414 129.35 368.054 129.71 368.554C135.912 377.177 140.926 386.595 144.62 396.554Z" fill="#231F20"/>
<path d="M118.758 411.244C118.821 411.398 118.961 411.506 119.125 411.529C119.289 411.552 119.453 411.485 119.555 411.354C119.657 411.223 119.681 411.048 119.618 410.894C118.718 407.674 116.998 404.554 115.618 401.494C115.318 400.834 114.358 401.414 114.618 402.064C115.958 405.084 117.048 408.424 118.758 411.244Z" fill="#231F20"/>
<path d="M116.858 485.694C124.477 488.584 134.437 491.504 142.647 490.004C142.972 489.91 143.195 489.613 143.195 489.274C143.195 488.936 142.972 488.638 142.647 488.544C138.827 487.714 134.857 487.764 130.997 487.134C126.867 486.447 122.795 485.444 118.818 484.134C110.268 481.332 102.262 477.084 95.1484 471.574C94.6385 471.184 93.9185 471.874 94.4285 472.304C101.086 478.015 108.672 482.544 116.858 485.694Z" fill="#231F20"/>
<path d="M186.758 471.424C190.398 477.934 193.408 484.864 197.368 491.184C197.748 491.794 198.868 491.404 198.588 490.664C193.269 476.5 185.482 463.391 175.588 451.944C175.148 451.454 174.278 452.104 174.668 452.654C179.06 458.67 183.097 464.938 186.758 471.424Z" fill="#231F20"/>
<path d="M214.429 491.334C214.501 491.591 214.767 491.741 215.024 491.669C215.281 491.598 215.431 491.331 215.359 491.074C213.605 483.395 210.537 476.078 206.29 469.444C206.104 469.228 205.79 469.177 205.544 469.322C205.298 469.467 205.192 469.767 205.29 470.034C209.01 476.826 212.071 483.958 214.429 491.334Z" fill="#231F20"/>
<path d="M210.197 531.894C210.937 531.624 210.907 530.324 209.997 530.404C199.327 531.404 189.698 531.974 179.158 529.404C168.911 526.682 159.134 522.427 150.159 516.784C149.659 516.484 149.239 517.234 149.709 517.554C158.701 523.888 168.717 528.624 179.318 531.554C189.008 534.104 200.617 535.434 210.197 531.894Z" fill="#231F20"/>
<path d="M212.089 547.464C201.369 546.114 190.689 545.854 180.019 543.794C179.379 543.674 179.099 544.634 179.749 544.794C190.099 547.114 201.439 549.484 212.089 548.794C212.403 548.727 212.627 548.45 212.627 548.129C212.627 547.808 212.403 547.531 212.089 547.464Z" fill="#231F20"/>
</svg>
