<svg width="438" height="550" viewBox="0 0 438 550" fill="none" xmlns="http://www.w3.org/2000/svg">
<path d="M304.113 383.468C301.603 383.848 299.113 386.528 298.113 389.317C294.717 393.166 292.347 397.809 291.223 402.817C288.844 412.667 287.454 432.647 300.223 436.317C312.292 439.777 317.132 419.177 318.712 411.227C319.922 405.077 321.032 397.167 317.182 391.617C314.372 387.548 315.412 381.738 304.113 383.468Z" fill="#58595B"/>
<path d="M293.575 269.687C327.575 276.097 346.235 239.387 350.935 211.937C356.995 176.527 356.515 136.327 335.665 105.697C326.065 91.5875 312.035 80.7775 294.445 87.6975C285.535 91.2075 279.325 97.4775 273.655 104.357C257.885 126.997 252.655 155.187 252.895 184.357C253.025 201.247 254.895 218.217 260.825 234.147C266.365 249.037 276.675 266.537 293.575 269.687Z" fill="#58595B"/>
<path d="M151.595 208.368C148.745 174.868 146.055 141.368 143.775 107.828C142.615 90.8275 141.595 73.8275 140.595 56.8275C139.875 44.5475 138.445 31.9275 138.405 19.4675C122.604 24.0075 107.224 30.4675 91.7843 36.0575C66.2941 45.2075 40.3539 56.7375 13.8438 63.0575C21.8438 96.1075 25.9238 130.648 30.6739 164.238C48.244 288.688 61.5341 413.818 92.2443 535.908C116.584 537.418 140.095 529.528 163.925 525.348C170.755 524.148 177.595 523.138 184.465 522.248C179.285 485.148 175.365 447.838 171.285 410.608C163.925 343.274 157.361 275.861 151.595 208.368Z" fill="#58595B"/>
<path fill-rule="evenodd" clip-rule="evenodd" d="M149.242 16.6876C150.597 26.3658 151.13 36.2861 151.657 46.1018L151.657 46.1018C151.932 51.2152 152.205 56.3001 152.592 61.3076C154.032 79.8276 155.509 98.3443 157.022 116.858C162.472 184.388 168.132 251.858 174.802 319.298C178.608 357.774 182.979 396.064 187.349 434.338C190.639 463.15 193.927 491.953 196.972 520.818C210.732 519.378 224.552 518.458 238.382 517.938C276.848 516.466 315.428 516.76 353.958 517.053L353.967 517.053C367.781 517.159 381.589 517.264 395.382 517.288C399.169 450.834 402.956 384.384 406.742 317.938C410.216 256.984 413.679 196.031 417.132 135.078C418.886 104.358 420.656 73.631 422.442 42.8976C422.497 41.9388 422.669 40.5821 422.867 39.0276V39.0274C423.565 33.5295 424.576 25.558 421.832 23.9676C420.186 23.0154 416.207 23.1191 413.11 23.1998C411.882 23.2318 410.792 23.2602 410.042 23.2176L399.512 22.6376C384.479 21.8243 369.446 21.061 354.412 20.3476C324.352 18.8943 294.296 17.6043 264.242 16.4776C256.529 16.1878 248.805 15.8493 241.075 15.5105C218.669 14.5285 196.214 13.5443 173.842 13.7376C165.561 13.8559 157.316 14.8446 149.242 16.6876ZM334.822 464.138C317.992 481.688 287.242 484.688 271.022 464.688C262.232 453.828 258.712 439.158 257.022 425.568C255.262 411.458 255.732 396.218 261.482 383.008C270.482 362.218 294.582 344.528 317.832 350.738C318.251 350.858 318.608 351.134 318.832 351.508C320.928 352.08 322.961 352.861 324.902 353.838C336.822 359.958 343.422 372.608 347.162 384.938C355.242 411.228 354.982 443.158 334.822 464.138ZM236.542 102.678C225.782 127.668 219.452 155.288 217.452 182.378C213.662 232.688 231.512 288.758 279.162 313.198C300.102 323.928 328.102 328.168 348.102 313.038C368.422 297.628 379.302 270.438 384.482 246.258C390.312 219.128 391.022 190.648 389.482 162.918C387.942 135.188 382.842 106.678 368.992 82.2476C355.262 58.0876 331.812 40.6876 302.992 44.6876C283.082 47.4076 267.372 58.2476 255.602 72.9276C247.462 81.4376 241.162 91.9476 236.542 102.678ZM183.922 258.158C187.173 266.043 188.252 274.918 189.281 283.39L189.283 283.404C189.333 283.813 189.382 284.221 189.432 284.628C190.622 294.408 191.432 304.188 190.372 314.008C190.232 315.318 188.132 315.878 187.862 314.348C186.716 307.739 186.113 301.092 185.508 294.432C185.3 292.142 185.092 289.85 184.862 287.558C184.532 284.379 184.079 281.181 183.624 277.974C182.702 271.466 181.775 264.922 181.862 258.438C181.894 257.933 182.277 257.521 182.777 257.453C183.278 257.385 183.757 257.68 183.922 258.158ZM181.211 204.282C181.043 201.589 180.875 198.9 180.732 196.218C179.946 181.738 179.129 167.244 178.282 152.738C177.952 147.578 177.645 142.412 177.336 137.242C176 114.814 174.659 92.324 171.522 70.0976C171.312 68.9676 169.522 69.2676 169.522 70.3676C169.479 90.8352 170.781 111.324 172.08 131.784C172.588 139.774 173.095 147.759 173.522 155.738C174.085 166.238 174.613 176.737 175.142 187.237C175.318 190.737 175.495 194.238 175.672 197.738C175.812 200.544 175.924 203.357 176.035 206.172C176.464 217.021 176.894 227.901 178.982 238.548C179.282 240.058 181.342 239.528 181.472 238.218C182.627 226.96 181.917 215.585 181.211 204.282Z" fill="#939598"/>
<path fill-rule="evenodd" clip-rule="evenodd" d="M289.241 367.267C299.495 358.853 314.428 359.464 323.961 368.687C332.991 377.177 336.241 391.367 338.221 403.097C342.301 427.637 334.351 463.747 304.031 466.097C272.481 468.557 266.461 426.977 268.661 403.557C270.191 387.267 278.011 375.577 289.241 367.267ZM279.221 404.717C276.311 421.958 281.681 452.778 306.111 448.388C325.742 444.858 333.462 414.737 331.752 398.057C330.872 389.247 326.952 382.727 318.522 379.057C318.437 379.022 318.287 378.825 318.137 378.627C317.987 378.43 317.837 378.232 317.752 378.197C317.742 377.915 317.56 378.102 317.297 378.372C316.999 378.677 316.598 379.089 316.222 379.057C301.341 377.907 281.911 388.717 279.221 404.717Z" fill="white"/>
<path fill-rule="evenodd" clip-rule="evenodd" d="M325.172 309.878C314.052 311.998 302.142 309.608 291.752 305.498C249.002 288.568 229.322 240.878 229.092 197.708C228.952 170.338 234.552 142.338 243.552 116.528C244.739 113.181 245.999 109.871 247.332 106.598C247.512 105.137 247.868 103.703 248.392 102.328C258.352 81.8975 275.242 64.6875 298.042 58.5875C321.712 52.2575 342.322 64.0175 355.042 83.7475C368.292 104.328 373.912 129.338 376.042 153.448C378.193 177.221 377.902 201.153 375.172 224.868C372.452 247.758 366.122 270.688 352.832 289.758C345.952 299.628 337.312 307.568 325.172 309.878ZM251.002 121.388C244.142 138.718 241.232 158.228 240.552 175.228C239.702 196.088 241.322 217.818 248.632 237.598C255.072 255.038 266.102 273.538 284.332 280.438C300.382 286.508 318.842 281.968 332.492 272.298C347.502 261.678 356.472 245.258 361.252 227.778C366.892 207.168 368.282 184.368 367.332 163.098C366.332 140.718 360.712 118.818 348.192 100.028C336.212 82.0375 318.222 67.5275 295.432 73.3875C274.692 78.6675 261.652 97.6375 255.002 117.388C254.192 119.157 252.772 120.577 251.002 121.388Z" fill="white"/>
<path fill-rule="evenodd" clip-rule="evenodd" d="M428.893 11.2376C424.617 9.37041 419.395 9.29215 414.51 9.21893C412.985 9.19607 411.493 9.17371 410.073 9.09759L386.013 7.86759C322.366 4.65425 258.699 2.14759 195.013 0.347586C194.348 0.329169 193.683 0.310438 193.018 0.291702C177.795 -0.137202 162.489 -0.568432 147.523 2.72759L139.243 4.86759C129.232 7.71682 119.441 11.5148 109.722 15.2845C106.821 16.41 103.925 17.5331 101.033 18.6276L50.2427 37.6876C47.8201 38.5986 45.3879 39.4996 42.9525 40.4018L42.9525 40.4018C30.9524 44.8473 18.8782 49.3202 7.52274 55.1476L1.97274 58.1476C-0.97466 59.8186 0.0396824 63.0934 0.835249 65.6619C1.06808 66.4136 1.28218 67.1048 1.37274 67.6776C2.99594 83.8176 6.27027 99.1497 9.55472 114.529C12.3406 127.574 15.1337 140.653 16.9327 154.288C19.7753 175.854 22.5303 197.43 25.2854 219.005L25.2854 219.006C26.5914 229.233 27.8974 239.461 29.2127 249.688C37.3227 312.848 45.8627 376.038 57.4827 438.688C64.0127 473.958 71.4827 509.088 80.6427 543.788C81.4527 546.848 84.1027 548.308 87.0127 548.628C106.629 550.83 125.833 546.82 144.961 542.826L144.963 542.826C150.583 541.653 156.197 540.48 161.813 539.468C187.073 534.918 212.763 532.978 238.393 532.038C277.041 530.617 315.787 530.946 354.499 531.275H354.5C368.394 531.393 382.284 531.511 396.163 531.548C397.897 531.548 399.287 531.459 400.84 531.36L400.846 531.36L400.883 531.358C404.953 530.728 409.043 528.618 409.343 523.438C416.609 395.998 423.876 268.554 431.143 141.108C432.956 109.381 434.749 77.6443 436.523 45.8976C436.626 44.0289 436.848 41.9577 437.081 39.7789C438.221 29.1324 439.635 15.9195 428.893 11.2376ZM143.781 529.488L143.779 529.489C126.754 533.239 109.727 536.99 92.2727 535.908C67.6444 438.091 54.2363 338.291 40.8271 238.483C37.4995 213.715 34.1719 188.946 30.6727 164.208C29.8815 158.612 29.1099 152.99 28.3363 147.353C24.4658 119.152 20.5434 90.5721 13.8427 63.0276C32.62 58.5369 51.1114 51.4424 69.3594 44.4412L69.3596 44.4411C76.8743 41.558 84.3476 38.6907 91.7827 36.0276C96.6259 34.2867 101.463 32.4572 106.309 30.6244C116.913 26.6142 127.559 22.5878 138.403 19.4376C138.403 27.7645 139.059 36.1629 139.71 44.4836L139.71 44.484C140.033 48.6138 140.354 52.7244 140.593 56.7976L140.593 56.8019C141.593 73.8005 142.593 90.799 143.773 107.798C146.053 141.338 148.773 174.798 151.593 208.338C157.359 275.851 163.933 343.274 171.313 410.608C171.787 414.935 172.259 419.264 172.731 423.593L172.731 423.595C176.321 456.509 179.915 489.46 184.493 522.248C177.623 523.138 170.783 524.148 163.953 525.348C157.212 526.53 150.497 528.009 143.781 529.488ZM417.163 135.068C418.903 104.341 420.673 73.6109 422.473 42.8776C422.528 41.9211 422.699 40.5687 422.896 39.0192C423.593 33.5216 424.604 25.5434 421.843 23.9676C420.203 23.0154 416.227 23.1191 413.131 23.1998C411.902 23.2318 410.813 23.2602 410.063 23.2176L399.533 22.6376C384.499 21.8309 369.466 21.0676 354.433 20.3476C324.353 18.9076 294.253 17.6276 264.183 16.4976C256.571 16.2115 248.948 15.8806 241.319 15.5495C218.812 14.5725 196.256 13.5933 173.783 13.7576C165.523 13.8735 157.298 14.8555 149.243 16.6876C150.599 26.3159 151.135 36.1759 151.667 45.9528C151.947 51.1028 152.226 56.2297 152.623 61.2876C154.089 79.8009 155.566 98.3176 157.053 116.838C162.503 184.368 168.183 252.008 174.833 319.278C178.627 357.66 183.001 395.968 187.375 434.275C190.666 463.106 193.958 491.936 197.003 520.798C210.763 519.358 224.583 518.438 238.413 517.918C276.887 516.452 315.485 516.744 354.044 517.035C367.841 517.14 381.633 517.244 395.413 517.268C399.206 450.814 402.993 384.364 406.773 317.918C410.239 256.971 413.703 196.021 417.163 135.068Z" fill="#231F20"/>
<path fill-rule="evenodd" clip-rule="evenodd" d="M332.453 272.248C318.803 281.918 300.343 286.458 284.293 280.388C266.063 273.488 255.033 254.988 248.553 237.548C241.323 217.818 239.703 196.088 240.553 175.228C241.243 158.238 244.143 138.688 251.003 121.388C252.014 119.407 252.912 117.37 253.693 115.288C260.333 95.5377 274.653 78.6677 295.393 73.3377C318.153 67.4777 336.153 81.9777 348.153 99.9777C360.673 118.768 366.293 140.668 367.293 163.048C368.213 184.318 366.853 207.118 361.213 227.728C356.453 245.248 347.453 261.628 332.453 272.248ZM273.653 104.388C257.893 127.038 252.663 155.228 252.893 184.388C253.023 201.278 254.893 218.248 260.823 234.178C266.363 249.038 276.673 266.538 293.574 269.718C327.594 276.128 346.234 239.418 350.934 211.968C356.994 176.558 356.514 136.358 335.664 105.728C326.064 91.6077 312.034 80.7977 294.444 87.7277C285.534 91.2377 279.324 97.5077 273.653 104.388Z" fill="#231F20"/>
<path fill-rule="evenodd" clip-rule="evenodd" d="M348.093 313.018C328.153 328.178 300.103 323.908 279.153 313.178C231.513 288.758 213.663 232.688 217.453 182.398C219.493 155.308 225.783 127.698 236.543 102.698C241.163 91.9476 247.463 81.4576 255.603 72.9476C267.373 58.2676 283.083 47.4276 302.993 44.6876C331.813 40.6876 355.243 58.0676 368.983 82.2276C382.833 106.658 387.963 135.268 389.473 162.898C390.983 190.528 390.283 219.108 384.473 246.238C379.293 270.418 368.413 297.608 348.093 313.018ZM247.333 106.598C245.973 109.884 244.713 113.194 243.553 116.528C234.593 142.338 228.953 170.338 229.073 197.708C229.303 240.878 248.983 288.568 291.733 305.498C302.153 309.608 314.033 311.998 325.153 309.878C337.293 307.568 345.933 299.628 352.813 289.758C366.103 270.688 372.433 247.718 375.153 224.868C377.883 201.153 378.174 177.221 376.023 153.448C373.923 129.338 368.303 104.328 355.023 83.7476C342.293 64.0176 321.683 52.2576 298.023 58.5876C275.243 64.6876 258.863 82.9176 248.903 103.348C248.758 103.646 248.588 104.004 248.404 104.391C248.072 105.093 247.694 105.889 247.333 106.598Z" fill="#231F20"/>
<path fill-rule="evenodd" clip-rule="evenodd" d="M317.604 376.608L318.094 376.798C326.524 380.468 330.924 389.248 331.824 397.998C333.484 414.708 325.764 444.828 306.134 448.358C281.704 452.748 276.334 421.928 279.244 404.688C281.914 388.688 299.334 371.978 315.124 375.808C315.457 375.889 315.872 376.037 316.293 376.189C316.756 376.355 317.227 376.524 317.604 376.608ZM300.234 436.318C312.304 439.778 317.144 419.178 318.724 411.228C319.934 405.078 321.044 397.168 317.184 391.618C314.364 387.548 311.394 384.058 303.544 385.668C301.324 386.122 300.082 387.364 298.655 388.79C298.481 388.964 298.305 389.14 298.124 389.318C294.728 393.166 292.358 397.809 291.234 402.818C288.864 412.668 287.474 432.648 300.234 436.318Z" fill="#231F20"/>
<path fill-rule="evenodd" clip-rule="evenodd" d="M324.983 353.788C336.903 359.888 343.503 372.558 347.243 384.888C355.243 411.228 354.983 443.158 334.873 464.138C318.073 481.638 287.313 484.688 271.073 464.638C262.283 453.778 258.763 439.108 257.073 425.518C255.313 411.408 255.783 396.168 261.533 382.958C270.573 362.168 294.633 344.478 317.883 350.688L324.983 353.788ZM268.703 403.558C266.503 426.978 272.523 468.558 304.073 466.098H304.023C334.343 463.748 342.293 427.688 338.263 403.118C336.303 391.368 333.013 377.178 324.013 368.678C313.633 358.918 300.143 360.968 289.283 367.268C278.053 375.558 270.233 387.308 268.703 403.558Z" fill="#231F20"/>
<path d="M169.473 70.3875C169.473 98.8475 172.003 127.387 173.473 155.757C174.223 169.757 174.913 183.757 175.623 197.757C176.303 211.377 176.303 225.157 178.933 238.567C179.233 240.077 181.293 239.567 181.423 238.237C182.853 224.317 181.423 210.237 180.683 196.237C179.916 181.744 179.066 167.257 178.133 152.777C176.413 125.237 175.233 97.4875 171.373 70.1375C171.243 68.9875 169.473 69.2875 169.473 70.3875Z" fill="#231F20"/>
<path d="M184.862 287.558C185.762 296.558 186.322 305.468 187.862 314.348C188.132 315.878 190.232 315.348 190.372 314.008C191.442 304.188 190.622 294.408 189.432 284.628C188.352 275.788 187.332 266.428 183.922 258.158C183.767 257.666 183.281 257.358 182.77 257.427C182.259 257.496 181.872 257.922 181.852 258.438C181.732 268.118 183.902 277.928 184.862 287.558Z" fill="#231F20"/>
</svg>
