<svg width="293" height="580" viewBox="0 0 293 580" fill="none" xmlns="http://www.w3.org/2000/svg">
<path d="M159.903 183.34C158.117 183.707 156.379 184.277 154.723 185.04C155.653 187.89 156.723 190.7 157.833 193.46C159.063 196.37 161.503 202.46 164.553 197.56C166.693 194.08 168.043 189.56 168.953 184.89C165.943 184.2 163.393 182.77 159.903 183.34Z" fill="#BE1E2D"/>
<path d="M170.154 177.22C170.364 175.52 170.554 173.89 170.714 172.37C171.374 166.48 172.064 159.54 171.564 153.17C170.308 154.165 168.97 155.051 167.564 155.82C164.75 157.324 161.711 158.361 158.564 158.89C155.533 159.437 152.425 159.407 149.404 158.8C150.544 165.4 151.224 172.01 152.874 178.57C157.354 175.41 165.254 174.84 170.154 177.22Z" fill="white"/>
<path d="M203.733 119.42C204.463 118.82 203.733 115.16 202.733 114.68C202.283 114.47 202.263 114.56 201.813 114.68C201.592 114.771 201.389 114.899 201.213 115.06C201.167 115.193 201.114 115.323 201.053 115.45C200.846 115.946 200.498 116.37 200.053 116.67C201.043 118.14 202.773 120.21 203.733 119.42Z" fill="white"/>
<path fill-rule="evenodd" clip-rule="evenodd" d="M266.024 337.23C267.839 336.687 269.762 336.612 271.614 337.01C272.224 337.125 272.826 337.329 273.419 337.531C274.938 338.047 276.402 338.544 277.804 337.48C280.708 335.298 281.892 329.354 282.68 325.403C282.788 324.863 282.888 324.361 282.984 323.91C285.224 313.4 284.654 302.39 282.564 291.91C279.027 274.213 271.527 257.64 264.042 241.102C253.391 217.569 242.773 194.108 243.654 167.58C243.651 166.023 244.478 164.582 245.824 163.8C249.824 161.95 253.354 162.08 257.624 162.48C261.714 162.87 264.974 162.61 264.624 157.69C264.385 154.229 262.846 150.842 261.412 147.684L261.411 147.683L261.411 147.683L261.411 147.683L261.41 147.681C261.166 147.144 260.925 146.613 260.694 146.09C258.574 141.236 256.404 136.416 254.184 131.63C246.484 115.01 238.128 98.6998 229.114 82.6998C220.794 67.8998 212.244 52.9398 202.194 39.2298C193.064 26.7798 181.404 14.6998 166.304 10.0198C153.304 5.95983 136.404 6.11982 126.254 16.3898C125.648 17.0592 124.669 17.2395 123.864 16.8298C107.506 31.1976 102.629 55.527 97.9876 78.6747C95.632 90.4232 93.3376 101.867 89.6342 111.55C86.484 120.156 81.9029 128.169 76.0842 135.25C75.416 136.039 74.5894 136.932 73.6874 137.908C68.3935 143.631 60.4999 152.164 66.7542 158.88C68.2565 160.501 70.2612 160.621 72.3152 160.744C74.0621 160.849 75.8446 160.956 77.3842 161.99C79.7939 163.745 81.3141 166.468 81.5442 169.44C82.4381 176.25 79.2516 183.191 76.3593 189.492C75.8542 190.592 75.3581 191.673 74.8942 192.73C67.1079 210.498 57.3504 227.264 47.5947 244.028L47.5946 244.028C36.5515 263.003 25.5108 281.975 17.3342 302.39C13.8342 311.13 10.3342 320.39 8.77421 329.73C8.02421 334.32 7.71421 339.73 9.83421 343.98C11.169 346.65 13.3948 348.059 15.6908 349.512C16.835 350.236 17.9966 350.972 19.0742 351.88C25.979 357.745 24.9883 368.103 24.1842 376.51C24.1067 377.32 24.031 378.112 23.9642 378.88C23.5674 383.57 23.0132 388.245 22.459 392.921C21.6164 400.03 20.7738 407.139 20.4842 414.3C19.7942 431.8 23.2842 452.77 38.4842 463.8C40.7665 465.457 43.2058 466.713 45.5973 467.944C50.6244 470.532 55.4404 473.012 58.1442 478.88C61.3274 485.793 61.2053 493.614 61.0875 501.157C61.0632 502.713 61.0391 504.258 61.0442 505.78C61.1342 526.09 63.4242 549.28 80.0942 563.28C96.0942 576.73 119.164 571.5 134.144 559.09C148.741 546.996 157.47 529.766 165.919 513.088L165.925 513.076L165.947 513.032L165.97 512.987L165.987 512.953L165.988 512.951L165.989 512.949C166.732 511.484 167.472 510.023 168.214 508.57C173.134 498.93 178.214 489.32 184.664 480.57C189.904 473.44 196.464 464.57 205.834 463.15C210.634 462.4 214.344 464.3 218.054 467.15C221.764 470 224.834 471.15 229.274 469.5C238.624 465.98 243.834 455.99 247.154 447.23C254.634 427.35 254.844 405.7 255.004 384.7C255.024 382.437 255.026 380.166 255.028 377.891V377.89C255.033 370.021 255.038 362.103 255.814 354.3C256.464 347.84 258.994 339.38 266.024 337.23ZM67.6342 398.63C55.7876 392.632 56.6337 375.51 57.1837 364.379L57.1842 364.37C57.6127 356.075 58.6893 347.827 60.4042 339.7C60.5039 339.231 60.6458 338.709 60.7952 338.159L60.7955 338.158L60.7956 338.157L60.7957 338.157L60.7958 338.157C61.246 336.499 61.7644 334.591 61.4042 333.15C60.2199 328.849 57.6003 329.329 54.8589 329.832L54.8556 329.833L54.8553 329.833C54.5193 329.894 54.1814 329.956 53.8442 330.01C53.5592 330.054 53.2715 330.103 52.982 330.152L52.9806 330.152L52.9793 330.152L52.9778 330.152C51.2372 330.447 49.4306 330.752 47.7342 330.17C43.1158 328.59 43.2839 322.736 43.4034 318.576C43.4109 318.313 43.4183 318.057 43.4242 317.81C43.5462 310 45.2898 302.3 48.5442 295.2C48.9642 294.3 50.4142 294.95 50.1242 295.87C47.8529 302.679 46.5338 309.769 46.2042 316.94C46.1942 317.339 46.174 317.769 46.1528 318.221L46.1528 318.222C45.9837 321.828 45.7513 326.782 50.1142 327.6C51.1962 327.799 52.5187 327.468 53.7746 327.154L53.7754 327.154C54.4693 326.98 55.1428 326.811 55.7442 326.74C66.0242 325.52 64.3442 335.51 63.0342 342.37C60.6042 355.18 58.3642 370.04 61.0342 383.01C62.2242 388.87 65.2242 395.16 71.5642 396.71C80.5642 398.91 85.4042 391.57 86.4342 383.84C86.6042 382.6 88.4342 382.12 88.7642 383.53C91.7842 395.24 77.4142 403.63 67.6342 398.63ZM213.104 147.23C213.077 147.278 213.053 147.328 213.034 147.38C212.67 148.079 212.497 148.862 212.534 149.65C212.574 150.494 212.796 151.319 213.184 152.07C213.716 152.951 214.519 153.636 215.474 154.02C217.26 154.764 219.319 154.371 220.704 153.02C221.706 152.023 222.261 150.663 222.244 149.25C222.239 148.745 222.179 148.242 222.064 147.75C222.016 147.595 221.956 147.445 221.884 147.3C221.744 146.774 221.514 146.277 221.204 145.83C220.788 145.206 220.25 144.673 219.624 144.26C218.442 143.599 217.024 143.512 215.77 144.021C214.516 144.531 213.561 145.582 213.174 146.88C213.104 147 213.104 147.11 213.104 147.23ZM195.724 109.54C196.456 108.66 197.414 107.996 198.494 107.62C201.59 106.031 205.344 106.508 207.944 108.82C212.214 112.7 213.174 121.64 208.044 125.27C202.364 129.27 195.674 123.46 194.134 117.9C193.23 115.023 193.827 111.884 195.724 109.54ZM144.334 151.77L142.214 151.7C141.584 151.732 141.028 152.123 140.784 152.706C140.541 153.288 140.654 153.959 141.074 154.43L141.134 154.48C141.022 154.802 140.955 155.139 140.934 155.48C140.414 163.52 142.654 172.6 144.704 180.32C146.614 187.58 148.894 196.21 153.154 202.5C156.374 207.27 162.194 209.82 167.434 206.5C172.727 203.136 174.495 195.794 175.901 189.954C176.003 189.527 176.104 189.108 176.204 188.7C178.181 180.645 179.364 172.416 179.734 164.13C179.934 159.885 179.904 155.632 179.644 151.39C179.612 150.904 179.595 150.4 179.578 149.888C179.493 147.354 179.401 144.62 177.454 142.89C173.733 139.582 169.9 142.926 166.506 145.887C165.139 147.08 163.843 148.211 162.654 148.82C157.544 151.44 151.784 151.84 146.124 151.77C145.536 151.63 144.923 151.63 144.334 151.77ZM107.964 116.37C109.238 113.962 111.461 112.197 114.094 111.5C114.96 111.284 115.853 111.193 116.744 111.23C119.474 109.86 122.464 112.06 123.744 114.56C124.854 116.932 125.257 119.574 124.904 122.17C124.244 128.04 118.784 132.17 112.904 130.1C107.304 128.2 105.284 121.47 107.964 116.41V116.37ZM102.204 154.96C108.264 154.96 108.274 145.55 102.204 145.55V145.59C96.1542 145.59 96.1442 154.96 102.204 154.96ZM111.894 322.4C110.134 331.19 98.8942 329.19 94.7942 323.57C91.8842 319.57 91.2742 314.57 91.4142 309.8C91.5643 304.403 92.2102 298.996 92.8528 293.615L92.8529 293.614C93.0664 291.826 93.2797 290.041 93.4742 288.26C93.5942 287.17 95.2642 287.11 95.2242 288.26C95.1417 291.03 94.9897 293.815 94.8374 296.604C94.5653 301.59 94.2924 306.59 94.4142 311.54C94.5042 315.78 95.4142 320.46 98.7342 323.42C100.386 324.94 102.637 325.629 104.856 325.295C107.076 324.961 109.024 323.639 110.154 321.7C110.44 321.383 110.895 321.283 111.288 321.449C111.681 321.616 111.924 322.014 111.894 322.44V322.4ZM110.794 202.11C107.744 213.26 106.724 231.16 115.164 240.4V240.48C122.344 248.33 129.634 241.75 134.214 235.05L134.447 234.715C137.549 230.262 141.43 224.69 147.214 229.05C148.89 230.313 150.229 231.914 151.553 233.498C153.919 236.327 156.238 239.101 160.354 239.8C162.074 240.14 163.858 239.822 165.354 238.91C166.596 238.122 167.337 236.869 168.039 235.681C169.44 233.311 170.688 231.198 175.464 233.55C176.413 234.018 177.256 234.625 178.096 235.23L178.096 235.23C179.336 236.123 180.568 237.011 182.124 237.44C184.496 238.064 187.007 237.896 189.274 236.96C195.414 234.61 198.384 228.46 199.844 222.46C202.036 213.439 203.161 204.193 203.194 194.91C203.194 192.96 200.394 193.05 200.194 194.91C199.983 196.921 199.799 198.94 199.614 200.962C198.956 208.148 198.296 215.365 196.454 222.35C195.304 226.75 193.274 231.23 189.064 233.44C184.867 235.68 182.089 233.857 179.037 231.853C178.22 231.317 177.383 230.768 176.494 230.28C174.434 229.15 171.884 228.34 169.544 229.09C167.636 229.702 166.988 230.838 166.237 232.154C165.945 232.665 165.637 233.204 165.234 233.75C160.97 239.501 156.513 234.523 152.414 229.944C150.448 227.748 148.565 225.644 146.824 224.86C139.614 221.601 135.417 227.642 131.654 233.06C130.521 234.69 129.428 236.263 128.304 237.51C121.024 245.58 114.814 235.65 113.114 228.43C111.8 222.833 112.031 217.294 112.264 211.723C112.394 208.604 112.524 205.475 112.384 202.32C112.38 201.917 112.08 201.578 111.68 201.525C111.281 201.472 110.903 201.722 110.794 202.11ZM201.212 374.347L201.212 374.349C199.852 380.846 198.416 387.712 195.444 393.61C193.084 398.3 189.094 402.52 183.884 403.9C178.674 405.28 173.944 402.9 169.434 400.45C169.172 400.307 168.904 400.16 168.633 400.01C165.9 398.5 162.751 396.76 159.594 397.57C155.954 398.5 154.623 402.325 153.53 405.466L153.494 405.57C153.338 406.029 153.185 406.494 153.031 406.963C151.873 410.481 150.662 414.16 147.714 416.57C139.114 423.57 127.994 414.2 131.974 404.44C132.384 403.44 133.974 403.82 133.634 404.89C132.073 408.81 133.864 413.266 137.704 415.015C141.544 416.764 146.081 415.191 148.014 411.44C149.052 409.62 149.679 407.621 150.307 405.621C150.834 403.938 151.362 402.256 152.134 400.68C155.134 394.6 160.834 393.08 166.904 395.68C168.29 396.273 169.658 397.048 171.038 397.829C174.101 399.564 177.225 401.333 180.734 401.23C188.104 401.01 192.384 393.76 194.454 387.61C198.576 375.141 200.475 362.046 200.064 348.92C200.084 348.244 200.591 347.682 201.261 347.592C201.932 347.503 202.568 347.913 202.764 348.56C204.724 356.22 203.234 364.7 201.634 372.34C201.493 373.004 201.353 373.673 201.212 374.347ZM213.984 295.13C220.664 299.06 227.764 295.91 230.984 289.06H230.964C235.014 280.46 234.254 268.7 230.024 260.33C229.374 259.07 227.364 259.97 227.724 261.33C229.854 269.28 231.574 277.7 228.854 285.77C227.234 290.57 222.354 295.99 216.734 293.2C215.775 292.728 214.987 292.07 214.207 291.419C213.051 290.454 211.912 289.504 210.264 289.2C205.434 288.29 202.324 292.79 200.084 296.29C196.944 301.21 191.524 303 187.804 297.46C185.354 293.82 185.484 288.5 185.724 284.32C185.764 283.49 184.554 283.54 184.454 284.32C183.494 291.56 182.964 302.04 192.314 304.04C195.554 304.73 198.414 303.34 200.554 300.95C201.745 299.403 202.844 297.786 203.844 296.11C205.684 293.52 206.544 292.65 209.844 293.38C212.033 293.858 212.213 293.979 212.947 294.472C213.196 294.639 213.508 294.849 213.984 295.13Z" fill="#8DC63F"/>
<path d="M114.884 122.77C116.464 123.7 116.884 122.08 116.964 120.91C117.061 120.071 116.944 119.221 116.624 118.44C116.498 118.237 116.357 118.043 116.204 117.86C115.626 118.147 115.115 118.553 114.704 119.05C113.944 120.01 113.634 122.04 114.884 122.77Z" fill="white"/>
<path fill-rule="evenodd" clip-rule="evenodd" d="M263.948 361.793C263.933 362.551 263.917 363.304 263.893 364.05C263.693 370.26 263.65 376.485 263.608 382.71C263.498 398.587 263.389 414.467 260.673 430.12C257.593 447.71 250.203 472.19 230.853 478.06C226.793 479.334 222.412 479.136 218.483 477.5C217.129 476.912 215.825 475.915 214.506 474.906C212.074 473.046 209.589 471.145 206.633 471.69C201.516 472.639 197.273 478.09 194.122 482.138C193.886 482.441 193.657 482.736 193.433 483.02C190.02 487.477 186.903 492.154 184.103 497.02C180.284 503.499 176.844 510.197 173.406 516.893C167.057 529.254 160.715 541.604 152.003 552.54C139.593 568.12 121.073 580.46 100.403 579.46C80.8534 578.5 66.2534 564.54 59.1934 547.04C55.0734 536.91 53.6434 525.89 53.1934 515.04C53.0673 511.931 53.2051 508.615 53.3455 505.236C53.6618 497.625 53.9917 489.688 51.3534 483.04C49.4704 478.275 45.6443 476.448 41.4385 474.44C40.9314 474.198 40.4188 473.953 39.9034 473.7C36.0329 471.841 32.4793 469.385 29.3734 466.42C23.2834 460.5 19.0934 452.82 16.3734 444.82C10.5627 427.698 12.6402 409.943 14.6981 392.356C15.2255 387.848 15.7517 383.352 16.1434 378.88C16.2391 377.856 16.3693 376.762 16.5044 375.627C17.0896 370.712 17.7681 365.013 16.1434 360.74C15.1434 358.083 12.7028 356.552 10.2642 355.021C8.65475 354.011 7.04619 353.002 5.85339 351.67C0.133386 345.39 -0.0466145 336.3 1.22339 328.39C4.42339 308.4 14.3034 288.73 23.6934 271.01C29.1221 260.756 34.9506 250.725 40.7791 240.694C45.8587 231.952 50.9383 223.21 55.7534 214.32C61.0993 204.637 65.9261 194.676 70.2134 184.48C70.5067 183.767 70.8325 183.026 71.1675 182.265C72.7172 178.741 74.4634 174.77 74.0934 171.07C73.7805 167.961 71.5987 167.826 69.1508 167.674C67.8428 167.593 66.4588 167.507 65.2434 166.96C58.6034 163.99 56.0334 155.56 57.6034 148.85C59.074 142.53 63.5307 137.64 67.9301 132.814C70.2617 130.256 72.5771 127.716 74.4234 124.99C84.2601 110.49 87.8661 93.2011 91.4091 76.2145C92.1666 72.5824 92.9213 68.9641 93.7334 65.3899C98.1634 45.9599 104.853 25.0699 121.163 12.2899C125.961 8.50731 131.373 5.57794 137.163 3.62993C147.423 -0.700067 159.073 -0.930068 170.353 2.76993C187.183 8.28993 199.913 21.4399 210.073 35.4399C222.073 51.9799 232.213 70.0999 241.933 88.0399C252.2 106.927 261.553 126.223 269.993 145.93C272.613 152.07 275.213 159.8 271.353 166.02C269.341 169.089 266.014 171.045 262.353 171.31C260.873 171.47 259.23 171.251 257.564 171.029C255.798 170.793 254.005 170.554 252.353 170.76C252.494 181.085 254.144 191.333 257.253 201.18C261.043 213.649 266.636 226.097 272.276 238.647C285.506 268.09 298.99 298.098 290.043 330.28C287.983 337.83 283.843 348.42 274.043 346.49C273.477 346.378 272.879 346.167 272.269 345.952C270.801 345.433 269.265 344.89 267.943 345.66C266.403 346.58 265.643 349.06 265.153 350.66C264.106 354.21 264.026 358.057 263.948 361.793ZM247.133 447.19C254.663 427.31 254.843 405.7 255.003 384.7C255.023 382.47 255.025 380.226 255.027 377.972C255.033 370.119 255.039 362.159 255.823 354.35C256.473 347.85 259.033 339.39 266.033 337.24C267.849 336.698 269.771 336.622 271.623 337.02C272.243 337.136 272.851 337.342 273.449 337.545C274.965 338.059 276.415 338.551 277.813 337.49C280.717 335.308 281.902 329.365 282.689 325.413C282.797 324.874 282.897 324.371 282.993 323.92C285.233 313.4 284.663 302.39 282.573 291.92C279.036 274.223 271.536 257.65 264.051 241.112C253.401 217.579 242.782 194.118 243.663 167.59C243.66 166.033 244.487 164.592 245.833 163.81C249.803 161.96 253.363 162.09 257.633 162.49C261.713 162.88 264.973 162.62 264.633 157.7C264.394 154.28 262.853 150.86 261.436 147.715C261.196 147.181 260.96 146.656 260.733 146.14C258.613 141.3 256.443 136.48 254.223 131.68C246.497 115.013 238.137 98.6799 229.143 82.6799C220.823 67.8799 212.273 52.9199 202.223 39.2099C193.093 26.7799 181.433 14.7399 166.333 10.0199C153.353 5.95993 136.433 6.11993 126.283 16.3899C125.677 17.0593 124.698 17.2396 123.893 16.8299C107.531 31.2018 102.642 55.5411 97.9906 78.6947C95.632 90.4362 93.3347 101.873 89.6334 111.55C86.473 120.144 81.8852 128.143 76.0634 135.21C75.3952 135.999 74.5686 136.893 73.6666 137.868C68.3727 143.591 60.479 152.124 66.7334 158.84C68.2336 160.448 70.2348 160.571 72.2858 160.697C74.0354 160.804 75.8212 160.914 77.3634 161.95C79.7731 163.705 81.2933 166.428 81.5234 169.4C82.4165 176.222 79.2363 183.145 76.346 189.437C75.8383 190.542 75.3396 191.628 74.8734 192.69C67.0901 210.494 57.3098 227.293 47.5301 244.09C36.5023 263.032 25.4753 281.972 17.3134 302.35C13.8134 311.09 10.2734 320.35 8.75339 329.69C8.00339 334.28 7.69339 339.64 9.81339 343.94C11.1373 346.621 13.3643 348.023 15.6549 349.465C16.8072 350.191 17.9757 350.926 19.0534 351.84C25.9556 357.675 24.9683 368.025 24.1643 376.453C24.0865 377.269 24.0104 378.066 23.9434 378.84C23.5462 383.398 23.0063 387.942 22.4664 392.486C21.6062 399.727 20.746 406.967 20.4634 414.26C19.7634 431.76 23.2534 452.76 38.4634 463.76C40.7456 465.417 43.1836 466.673 45.5739 467.904C50.5989 470.492 55.4128 472.971 58.1234 478.84C61.3368 485.819 61.2029 493.708 61.0736 501.325C61.0484 502.81 61.0234 504.284 61.0234 505.74C61.0734 526.05 63.4034 549.24 80.0734 563.24C96.1234 576.69 119.123 571.46 134.123 559.05C148.681 546.989 157.402 529.793 165.83 513.175C166.619 511.62 167.405 510.07 168.193 508.53C173.113 498.88 178.213 489.27 184.643 480.53C189.883 473.4 196.443 464.58 205.813 463.11C210.613 462.4 214.443 464.41 218.033 467.11C221.623 469.81 224.813 471.13 229.253 469.46C238.603 465.94 243.813 455.95 247.133 447.19Z" fill="#231F20"/>
<path fill-rule="evenodd" clip-rule="evenodd" d="M140.933 155.56C140.954 155.219 141.021 154.882 141.133 154.56L141.073 154.6C140.627 154.131 140.498 153.444 140.745 152.845C140.991 152.247 141.566 151.849 142.213 151.83L144.333 151.9C144.922 151.76 145.535 151.76 146.123 151.9C151.783 151.95 157.543 151.57 162.653 148.95C163.842 148.341 165.138 147.21 166.505 146.018C169.899 143.056 173.732 139.712 177.453 143.02C179.411 144.76 179.5 147.515 179.582 150.061C179.598 150.558 179.614 151.048 179.643 151.52C179.903 155.762 179.933 160.015 179.733 164.26C179.359 172.529 178.177 180.741 176.203 188.78C176.101 189.197 175.997 189.626 175.892 190.063C174.487 195.884 172.717 203.222 167.433 206.58C162.153 209.88 156.373 207.33 153.153 202.58C148.893 196.29 146.613 187.66 144.703 180.4C142.653 172.68 140.413 163.56 140.933 155.56ZM157.933 193.697C159.192 196.685 161.584 202.36 164.553 197.56C166.693 194.08 168.043 189.53 168.953 184.89C168.091 184.695 167.273 184.441 166.463 184.19C164.406 183.551 162.407 182.931 159.903 183.34C158.117 183.706 156.379 184.277 154.723 185.04C155.653 187.89 156.673 190.7 157.833 193.46C157.866 193.537 157.899 193.616 157.933 193.697Z" fill="#231F20"/>
<path d="M213.184 152.06C213.715 152.941 214.519 153.626 215.474 154.01C217.26 154.754 219.318 154.361 220.704 153.01C221.705 152.013 222.261 150.653 222.244 149.24C222.239 148.735 222.179 148.232 222.064 147.74C222.016 147.585 221.956 147.435 221.884 147.29C221.744 146.764 221.514 146.267 221.204 145.82C220.787 145.196 220.25 144.663 219.624 144.25C218.442 143.59 217.024 143.502 215.77 144.011C214.515 144.521 213.56 145.572 213.174 146.87C213.174 146.99 213.124 147.1 213.104 147.22C213.076 147.268 213.053 147.318 213.034 147.37C212.671 148.066 212.499 148.846 212.534 149.63C212.572 150.478 212.794 151.307 213.184 152.06Z" fill="#231F20"/>
<path fill-rule="evenodd" clip-rule="evenodd" d="M207.943 108.82C212.213 112.7 213.173 121.64 208.043 125.27C202.363 129.3 195.633 123.46 194.133 117.9C193.229 115.023 193.826 111.884 195.723 109.54C196.455 108.66 197.412 107.997 198.493 107.62C201.589 106.031 205.342 106.508 207.943 108.82ZM201.263 115.06C201.217 115.193 201.164 115.323 201.103 115.45C200.918 115.936 200.599 116.359 200.183 116.67C201.093 118.14 202.783 120.21 203.783 119.42C204.463 118.82 203.783 115.16 202.783 114.68C202.42 114.511 202.337 114.536 202.082 114.616C202.021 114.635 201.95 114.657 201.863 114.68C201.642 114.771 201.439 114.899 201.263 115.06Z" fill="#231F20"/>
<path fill-rule="evenodd" clip-rule="evenodd" d="M124.892 122.21C124.202 128.08 118.742 132.14 112.892 130.14C107.302 128.2 105.282 121.47 107.952 116.41C109.227 114.002 111.449 112.237 114.082 111.54C114.948 111.325 115.841 111.234 116.732 111.27C119.502 109.9 122.492 112.1 123.732 114.6C124.842 116.973 125.245 119.615 124.892 122.21ZM116.202 117.86C115.625 118.148 115.114 118.553 114.702 119.05C113.942 120.01 113.632 122.04 114.882 122.77C116.462 123.7 116.962 122.08 116.962 120.91C117.059 120.071 116.943 119.221 116.622 118.44C116.497 118.237 116.356 118.043 116.202 117.86Z" fill="#231F20"/>
<path d="M102.203 155C108.263 155 108.273 145.59 102.203 145.59C96.133 145.59 96.143 155 102.203 155Z" fill="#231F20"/>
<path d="M147.144 229.13C151.814 232.65 153.864 238.79 160.284 239.88C162.004 240.22 163.788 239.902 165.284 238.99C169.004 236.6 168.224 230.1 175.394 233.63C177.744 234.79 179.444 236.8 182.054 237.52C184.426 238.144 186.937 237.976 189.204 237.04C195.344 234.69 198.314 228.55 199.774 222.54C201.966 213.52 203.091 204.273 203.124 194.99C203.124 193.04 200.354 193.13 200.124 194.99C199.124 204.15 198.744 213.48 196.384 222.43C195.234 226.83 193.204 231.31 188.994 233.52C183.674 236.31 180.634 232.67 176.424 230.36C174.364 229.23 171.814 228.42 169.474 229.17C166.824 230.02 166.604 231.88 165.164 233.83C158.854 242.34 152.164 227.36 146.754 224.94C137.374 220.7 133.094 232.2 128.234 237.59C120.954 245.66 114.744 235.73 113.044 228.51C110.994 219.78 112.704 211.19 112.314 202.4C112.31 201.997 112.01 201.658 111.61 201.605C111.211 201.552 110.833 201.802 110.724 202.19C107.674 213.34 106.654 231.19 115.094 240.48C122.274 248.33 129.584 241.75 134.094 235.15C137.284 230.63 141.214 224.7 147.144 229.13Z" fill="#231F20"/>
<path d="M110.153 321.7C109.028 323.643 107.082 324.972 104.862 325.312C102.643 325.652 100.388 324.967 98.733 323.45C95.373 320.45 94.503 315.81 94.413 311.57C94.233 303.85 94.993 296.01 95.223 288.29C95.223 287.14 93.593 287.2 93.473 288.29C92.693 295.43 91.613 302.64 91.413 309.83C91.273 314.63 91.883 319.62 94.793 323.6C98.913 329.22 110.133 331.22 111.893 322.43C111.918 322.006 111.673 321.613 111.282 321.448C110.89 321.284 110.438 321.385 110.153 321.7Z" fill="#231F20"/>
<path d="M86.373 383.82C85.373 391.55 80.503 398.89 71.503 396.69C65.163 395.14 62.163 388.85 60.973 382.99C58.323 369.99 60.563 355.16 62.973 342.35C64.283 335.49 65.973 325.5 55.683 326.72C53.993 326.92 51.733 327.89 50.053 327.58C45.133 326.66 46.053 320.5 46.143 316.92C46.4726 309.749 47.7917 302.659 50.063 295.85C50.353 294.93 48.903 294.28 48.483 295.18C45.2286 302.28 43.4851 309.98 43.363 317.79C43.263 321.96 42.763 328.47 47.673 330.15C49.673 330.83 51.793 330.3 53.783 329.99C56.873 329.5 60.013 328.3 61.343 333.13C61.863 335.05 60.783 337.8 60.343 339.68C58.617 347.812 57.5303 356.068 57.093 364.37C56.513 375.5 55.693 392.59 67.543 398.63C77.353 403.63 91.723 395.24 88.643 383.51C88.343 382.1 86.543 382.58 86.373 383.82Z" fill="#231F20"/>
<path d="M200.044 348.92C200.455 362.046 198.556 375.142 194.434 387.61C192.364 393.76 188.084 401.01 180.714 401.23C175.624 401.38 171.344 397.59 166.884 395.68C160.814 393.09 155.084 394.61 152.114 400.68C150.424 404.13 149.904 408.09 147.994 411.44C146.008 415.082 141.546 416.571 137.771 414.851C133.996 413.132 132.19 408.789 133.634 404.9C133.994 403.83 132.384 403.45 131.974 404.45C127.974 414.21 139.114 423.62 147.714 416.58C151.054 413.85 152.164 409.49 153.494 405.58C154.584 402.41 155.914 398.51 159.594 397.58C163.064 396.69 166.524 398.88 169.434 400.46C173.944 402.92 178.604 405.31 183.884 403.91C189.164 402.51 193.084 398.31 195.444 393.62C198.724 387.11 200.134 379.42 201.634 372.35C203.254 364.73 204.744 356.23 202.764 348.57C202.596 347.888 201.944 347.441 201.247 347.53C200.551 347.62 200.033 348.218 200.044 348.92Z" fill="#231F20"/>
<path d="M227.744 261.34C229.884 269.29 231.594 277.71 228.874 285.78C227.254 290.58 222.374 296 216.754 293.21C214.374 292.03 213.044 289.71 210.284 289.21C205.454 288.3 202.344 292.8 200.104 296.3C196.964 301.22 191.544 303.01 187.824 297.47C185.374 293.83 185.504 288.47 185.744 284.33C185.744 283.5 184.574 283.55 184.474 284.33C183.474 291.57 182.984 302.07 192.334 304.05C195.594 304.74 198.434 303.35 200.574 300.96C201.765 299.413 202.864 297.797 203.864 296.12C205.684 293.53 206.544 292.66 209.864 293.39C212.794 294.03 212.124 294.03 214.004 295.14C220.664 299.08 227.764 295.92 231.004 289.07C235.054 280.47 234.294 268.73 230.084 260.38C229.394 259.08 227.384 259.98 227.744 261.34Z" fill="#231F20"/>
</svg>
