<svg width="293" height="580" viewBox="0 0 293 580" fill="none" xmlns="http://www.w3.org/2000/svg">
<path d="M159.321 183.165C157.535 183.532 155.797 184.102 154.141 184.865C155.071 187.715 156.141 190.525 157.251 193.285C158.481 196.195 160.921 202.285 163.971 197.385C166.111 193.905 167.461 189.385 168.371 184.715C165.361 184.025 162.811 182.595 159.321 183.165Z" fill="#BE1E2D"/>
<path d="M169.572 177.045C169.782 175.345 169.972 173.715 170.132 172.195C170.792 166.305 171.482 159.365 170.982 152.995C169.726 153.99 168.388 154.876 166.982 155.645C164.168 157.149 161.129 158.186 157.982 158.715C154.951 159.262 151.843 159.232 148.822 158.625C149.962 165.225 150.642 171.835 152.292 178.395C156.772 175.235 164.672 174.665 169.572 177.045Z" fill="white"/>
<path d="M203.151 119.245C203.881 118.645 203.151 114.985 202.151 114.505C201.701 114.295 201.681 114.385 201.231 114.505C201.01 114.596 200.807 114.725 200.631 114.885C200.585 115.018 200.532 115.148 200.471 115.275C200.264 115.771 199.916 116.195 199.471 116.495C200.461 117.965 202.191 120.035 203.151 119.245Z" fill="white"/>
<path fill-rule="evenodd" clip-rule="evenodd" d="M265.442 337.055C267.257 336.513 269.18 336.437 271.032 336.835C271.642 336.95 272.244 337.155 272.837 337.356C274.356 337.872 275.82 338.369 277.222 337.305C280.125 335.123 281.31 329.179 282.098 325.228C282.206 324.688 282.306 324.186 282.402 323.735C284.642 313.225 284.072 302.215 281.982 291.735C278.445 274.038 270.945 257.465 263.46 240.927C252.809 217.394 242.191 193.933 243.072 167.405C243.069 165.848 243.896 164.407 245.242 163.625C249.242 161.775 252.772 161.905 257.042 162.305C261.132 162.695 264.392 162.435 264.042 157.515C263.803 154.055 262.264 150.667 260.83 147.509L260.829 147.509L260.829 147.508L260.829 147.508L260.828 147.506C260.584 146.969 260.343 146.438 260.112 145.915C257.992 141.062 255.822 136.242 253.602 131.455C245.902 114.835 237.546 98.525 228.532 82.525C220.212 67.725 211.662 52.765 201.612 39.055C192.482 26.605 180.822 14.525 165.722 9.84502C152.722 5.78502 135.822 5.94502 125.672 16.215C125.066 16.8844 124.087 17.0647 123.282 16.655C106.924 31.0228 102.047 55.3522 97.4055 78.4999C95.05 90.2484 92.7555 101.692 89.0522 111.375C85.9019 119.981 81.3208 127.994 75.5022 135.075C74.8339 135.864 74.0074 136.758 73.1054 137.733C67.8115 143.456 59.9178 151.989 66.1722 158.705C67.6745 160.326 69.6792 160.446 71.7332 160.569C73.48 160.674 75.2626 160.781 76.8022 161.815C79.2119 163.57 80.7321 166.293 80.9622 169.265C81.8561 176.076 78.6696 183.017 75.7773 189.317C75.2722 190.417 74.776 191.498 74.3122 192.555C66.5259 210.323 56.7684 227.089 47.0126 243.853L47.0126 243.853C35.9695 262.829 24.9288 281.8 16.7522 302.215C13.2522 310.955 9.75217 320.215 8.19217 329.555C7.44217 334.145 7.13217 339.555 9.25217 343.805C10.587 346.475 12.8127 347.884 15.1088 349.337C16.253 350.062 17.4146 350.797 18.4922 351.705C25.397 357.57 24.4063 367.928 23.6022 376.335C23.5247 377.145 23.449 377.937 23.3822 378.705C22.9854 383.395 22.4312 388.07 21.877 392.746C21.0344 399.855 20.1917 406.965 19.9022 414.125C19.2122 431.625 22.7022 452.595 37.9022 463.625C40.1845 465.282 42.6238 466.538 45.0153 467.769C50.0424 470.357 54.8584 472.837 57.5622 478.705C60.7454 485.619 60.6233 493.439 60.5055 500.982C60.4812 502.538 60.457 504.083 60.4622 505.605C60.5522 525.915 62.8422 549.105 79.5122 563.105C95.5122 576.555 118.582 571.325 133.562 558.915C148.159 546.821 156.888 529.591 165.337 512.913L165.343 512.902L165.365 512.858L165.388 512.813L165.405 512.778L165.406 512.776L165.407 512.774C166.15 511.309 166.89 509.848 167.632 508.395C172.552 498.755 177.632 489.145 184.082 480.395C189.322 473.265 195.882 464.395 205.252 462.975C210.052 462.225 213.762 464.125 217.472 466.975C221.182 469.825 224.252 470.975 228.692 469.325C238.042 465.805 243.252 455.815 246.572 447.055C254.052 427.175 254.262 405.525 254.422 384.525C254.442 382.262 254.444 379.991 254.446 377.716V377.715C254.451 369.847 254.456 361.929 255.232 354.125C255.882 347.665 258.412 339.205 265.442 337.055ZM67.0522 398.455C55.2056 392.457 56.0517 375.335 56.6017 364.205L56.6022 364.195C57.0306 355.9 58.1073 347.652 59.8222 339.525C59.9218 339.057 60.0637 338.534 60.2132 337.984L60.2135 337.983L60.2136 337.982L60.2137 337.982L60.2138 337.982C60.664 336.324 61.1824 334.416 60.8222 332.975C59.6378 328.674 57.0183 329.155 54.2768 329.657L54.2735 329.658L54.2733 329.658C53.9373 329.72 53.5994 329.782 53.2622 329.835C52.9771 329.879 52.6895 329.928 52.3999 329.977L52.3985 329.977L52.3973 329.977L52.3957 329.978C50.6552 330.272 48.8486 330.578 47.1522 329.995C42.5338 328.415 42.7019 322.561 42.8213 318.401C42.8289 318.139 42.8362 317.883 42.8422 317.635C42.9642 309.825 44.7077 302.126 47.9622 295.025C48.3822 294.125 49.8322 294.775 49.5422 295.695C47.2709 302.504 45.9517 309.595 45.6222 316.765C45.6121 317.164 45.5919 317.595 45.5708 318.047L45.5707 318.047C45.4016 321.653 45.1693 326.608 49.5322 327.425C50.6141 327.625 51.9366 327.293 53.1925 326.979L53.1933 326.979C53.8872 326.805 54.5608 326.636 55.1622 326.565C65.4422 325.345 63.7622 335.335 62.4522 342.195C60.0222 355.005 57.7822 369.865 60.4522 382.835C61.6422 388.695 64.6422 394.985 70.9822 396.535C79.9822 398.735 84.8222 391.395 85.8522 383.665C86.0222 382.425 87.8522 381.945 88.1822 383.355C91.2022 395.065 76.8322 403.455 67.0522 398.455ZM212.522 147.055C212.495 147.103 212.471 147.153 212.452 147.205C212.088 147.904 211.915 148.687 211.952 149.475C211.992 150.319 212.214 151.145 212.602 151.895C213.134 152.776 213.937 153.461 214.892 153.845C216.678 154.59 218.737 154.196 220.122 152.845C221.124 151.848 221.679 150.488 221.662 149.075C221.657 148.57 221.597 148.067 221.482 147.575C221.434 147.42 221.374 147.27 221.302 147.125C221.162 146.599 220.932 146.102 220.622 145.655C220.206 145.032 219.668 144.498 219.042 144.085C217.86 143.425 216.442 143.337 215.188 143.846C213.934 144.356 212.979 145.407 212.592 146.705C212.522 146.825 212.522 146.935 212.522 147.055ZM195.142 109.365C195.874 108.485 196.832 107.822 197.912 107.445C201.008 105.856 204.762 106.333 207.362 108.645C211.632 112.525 212.592 121.465 207.462 125.095C201.782 129.095 195.092 123.285 193.552 117.725C192.648 114.848 193.245 111.709 195.142 109.365ZM143.752 151.595L141.632 151.525C141.002 151.557 140.446 151.948 140.202 152.531C139.959 153.114 140.072 153.784 140.492 154.255L140.552 154.305C140.44 154.628 140.373 154.964 140.352 155.305C139.832 163.345 142.072 172.425 144.122 180.145C146.032 187.405 148.312 196.035 152.572 202.325C155.792 207.095 161.612 209.645 166.852 206.325C172.145 202.961 173.913 195.619 175.319 189.779C175.421 189.352 175.522 188.934 175.622 188.525C177.599 180.47 178.782 172.241 179.152 163.955C179.352 159.71 179.322 155.457 179.062 151.215C179.03 150.729 179.013 150.225 178.996 149.713C178.911 147.179 178.819 144.445 176.872 142.715C173.151 139.407 169.318 142.751 165.924 145.713C164.557 146.906 163.261 148.036 162.072 148.645C156.962 151.265 151.202 151.665 145.542 151.595C144.954 151.455 144.341 151.455 143.752 151.595ZM107.382 116.195C108.656 113.787 110.879 112.022 113.512 111.325C114.378 111.11 115.271 111.019 116.162 111.055C118.892 109.685 121.882 111.885 123.162 114.385C124.272 116.758 124.675 119.4 124.322 121.995C123.662 127.865 118.202 131.995 112.322 129.925C106.722 128.025 104.702 121.295 107.382 116.235V116.195ZM101.622 154.785C107.682 154.785 107.692 145.375 101.622 145.375V145.415C95.5722 145.415 95.5622 154.785 101.622 154.785ZM111.312 322.225C109.552 331.015 98.3122 329.015 94.2122 323.395C91.3022 319.395 90.6922 314.395 90.8322 309.625C90.9823 304.228 91.6282 298.821 92.2708 293.44L92.2708 293.439C92.4844 291.651 92.6976 289.866 92.8922 288.085C93.0122 286.995 94.6822 286.935 94.6422 288.085C94.5597 290.855 94.4076 293.64 94.2554 296.429C93.9832 301.415 93.7103 306.415 93.8322 311.365C93.9222 315.605 94.8322 320.285 98.1522 323.245C99.8035 324.765 102.055 325.455 104.274 325.12C106.494 324.786 108.442 323.464 109.572 321.525C109.858 321.208 110.313 321.108 110.706 321.275C111.099 321.442 111.342 321.839 111.312 322.265V322.225ZM110.212 201.935C107.162 213.085 106.142 230.985 114.582 240.225V240.305C121.762 248.155 129.052 241.575 133.632 234.875L133.865 234.54C136.967 230.088 140.848 224.515 146.632 228.875C148.308 230.138 149.647 231.739 150.971 233.323C153.337 236.152 155.656 238.926 159.772 239.625C161.491 239.965 163.276 239.647 164.772 238.735C166.014 237.947 166.755 236.694 167.457 235.506C168.857 233.136 170.106 231.024 174.882 233.375C175.831 233.844 176.674 234.451 177.514 235.055L177.514 235.056C178.754 235.948 179.986 236.836 181.542 237.265C183.914 237.889 186.425 237.721 188.692 236.785C194.832 234.435 197.802 228.285 199.262 222.285C201.454 213.265 202.579 204.018 202.612 194.735C202.612 192.785 199.812 192.875 199.612 194.735C199.401 196.746 199.217 198.766 199.032 200.787C198.374 207.974 197.714 215.19 195.872 222.175C194.722 226.575 192.692 231.055 188.482 233.265C184.285 235.505 181.507 233.682 178.455 231.678C177.638 231.142 176.801 230.593 175.912 230.105C173.852 228.975 171.302 228.165 168.962 228.915C167.054 229.527 166.406 230.663 165.655 231.979C165.363 232.49 165.055 233.029 164.652 233.575C160.388 239.327 155.931 234.348 151.832 229.769C149.866 227.574 147.983 225.469 146.242 224.685C139.032 221.426 134.835 227.467 131.072 232.885C129.939 234.515 128.846 236.088 127.722 237.335C120.442 245.405 114.232 235.475 112.532 228.255C111.218 222.658 111.449 217.119 111.681 211.548C111.812 208.429 111.942 205.3 111.802 202.145C111.798 201.742 111.498 201.403 111.098 201.35C110.699 201.297 110.321 201.547 110.212 201.935ZM200.63 374.172L200.63 374.175C199.27 380.671 197.834 387.537 194.862 393.435C192.502 398.125 188.512 402.345 183.302 403.725C178.092 405.105 173.362 402.725 168.852 400.275C168.59 400.132 168.322 399.985 168.051 399.835C165.317 398.325 162.169 396.585 159.012 397.395C155.372 398.325 154.041 402.15 152.948 405.291L152.912 405.395C152.756 405.854 152.603 406.32 152.449 406.788C151.291 410.307 150.08 413.986 147.132 416.395C138.532 423.395 127.412 414.025 131.392 404.265C131.802 403.265 133.392 403.645 133.052 404.715C131.491 408.635 133.282 413.091 137.122 414.84C140.962 416.589 145.499 415.016 147.432 411.265C148.47 409.445 149.097 407.446 149.725 405.446C150.252 403.764 150.78 402.081 151.552 400.505C154.552 394.425 160.252 392.905 166.322 395.505C167.708 396.098 169.076 396.873 170.456 397.655C173.519 399.389 176.643 401.158 180.152 401.055C187.522 400.835 191.802 393.585 193.872 387.435C197.994 374.967 199.893 361.871 199.482 348.745C199.502 348.069 200.009 347.507 200.679 347.418C201.35 347.328 201.986 347.738 202.182 348.385C204.142 356.045 202.652 364.525 201.052 372.165C200.911 372.829 200.771 373.498 200.63 374.172ZM213.402 294.955C220.082 298.885 227.182 295.735 230.402 288.885H230.382C234.432 280.285 233.672 268.525 229.442 260.155C228.792 258.895 226.782 259.795 227.142 261.155C229.272 269.105 230.992 277.525 228.272 285.595C226.652 290.395 221.772 295.815 216.152 293.025C215.193 292.554 214.405 291.896 213.625 291.245C212.468 290.28 211.33 289.33 209.682 289.025C204.852 288.115 201.742 292.615 199.502 296.115C196.362 301.035 190.942 302.825 187.222 297.285C184.772 293.645 184.902 288.325 185.142 284.145C185.182 283.315 183.972 283.365 183.872 284.145C182.912 291.385 182.382 301.865 191.732 303.865C194.972 304.555 197.832 303.165 199.972 300.775C201.163 299.228 202.262 297.612 203.262 295.935C205.102 293.345 205.962 292.475 209.262 293.205C211.451 293.683 211.631 293.804 212.365 294.297C212.614 294.464 212.926 294.674 213.402 294.955Z" fill="#8DC63F"/>
<path d="M114.302 122.595C115.882 123.525 116.302 121.905 116.382 120.735C116.479 119.896 116.362 119.046 116.042 118.265C115.916 118.062 115.775 117.868 115.622 117.685C115.044 117.973 114.533 118.378 114.122 118.875C113.362 119.835 113.052 121.865 114.302 122.595Z" fill="white"/>
<path fill-rule="evenodd" clip-rule="evenodd" d="M263.366 361.618C263.351 362.376 263.335 363.13 263.311 363.875C263.111 370.086 263.068 376.31 263.026 382.535C262.916 398.413 262.807 414.292 260.091 429.945C257.011 447.535 249.621 472.015 230.271 477.885C226.211 479.159 221.83 478.961 217.901 477.325C216.547 476.738 215.243 475.74 213.924 474.731C211.492 472.872 209.007 470.971 206.051 471.515C200.934 472.464 196.691 477.915 193.54 481.963C193.304 482.266 193.075 482.561 192.851 482.845C189.438 487.302 186.321 491.979 183.521 496.845C179.702 503.324 176.262 510.022 172.824 516.718C166.475 529.079 160.133 541.429 151.421 552.365C139.011 567.945 120.491 580.285 99.8214 579.285C80.2714 578.325 65.6714 564.365 58.6114 546.865C54.4914 536.735 53.0614 525.715 52.6114 514.865C52.4853 511.756 52.623 508.441 52.7635 505.061C53.0798 497.45 53.4097 489.513 50.7714 482.865C48.8884 478.1 45.0623 476.273 40.8565 474.265C40.3494 474.023 39.8368 473.778 39.3214 473.525C35.4508 471.667 31.8973 469.21 28.7914 466.245C22.7014 460.325 18.5114 452.645 15.7914 444.645C9.98065 427.523 12.0582 409.768 14.1161 392.181C14.6435 387.674 15.1697 383.177 15.5614 378.705C15.657 377.681 15.7872 376.587 15.9224 375.452C16.5076 370.537 17.1861 364.838 15.5614 360.565C14.5614 357.909 12.1207 356.377 9.68221 354.847C8.07272 353.837 6.46416 352.827 5.27135 351.495C-0.448646 345.215 -0.628646 336.125 0.641354 328.215C3.84135 308.225 13.7214 288.555 23.1114 270.835C28.5401 260.581 34.3686 250.55 40.197 240.519C45.2767 231.777 50.3563 223.035 55.1714 214.145C60.5172 204.462 65.3441 194.501 69.6314 184.305C69.9246 183.592 70.2505 182.851 70.5855 182.09C72.1352 178.566 73.8814 174.595 73.5114 170.895C73.1985 167.786 71.0167 167.651 68.5687 167.499C67.2607 167.418 65.8768 167.332 64.6614 166.785C58.0214 163.815 55.4514 155.385 57.0214 148.675C58.492 142.355 62.9487 137.465 67.3481 132.639C69.6796 130.081 71.9951 127.541 73.8414 124.815C83.6781 110.315 87.2841 93.0263 90.827 76.0397C91.5846 72.4076 92.3393 68.7893 93.1514 65.2151C97.5814 45.7851 104.271 24.8951 120.581 12.1151C125.379 8.3325 130.791 5.40314 136.581 3.45513C146.841 -0.874872 158.491 -1.10487 169.771 2.59513C186.601 8.11513 199.331 21.2651 209.491 35.2651C221.491 51.8051 231.631 69.9251 241.351 87.8651C251.618 106.752 260.971 126.048 269.411 145.755C272.031 151.895 274.631 159.625 270.771 165.845C268.759 168.914 265.432 170.87 261.771 171.135C260.291 171.295 258.648 171.076 256.982 170.854C255.215 170.618 253.423 170.379 251.771 170.585C251.911 180.91 253.562 191.159 256.671 201.005C260.461 213.474 266.054 225.922 271.694 238.473C284.923 267.915 298.408 297.924 289.461 330.105C287.401 337.655 283.261 348.245 273.461 346.315C272.895 346.204 272.297 345.992 271.687 345.777C270.219 345.258 268.683 344.715 267.361 345.485C265.821 346.405 265.061 348.885 264.571 350.485C263.524 354.035 263.444 357.882 263.366 361.618ZM246.551 447.015C254.081 427.135 254.261 405.525 254.421 384.525C254.441 382.295 254.443 380.051 254.445 377.797C254.451 369.944 254.457 361.984 255.241 354.175C255.891 347.675 258.451 339.215 265.451 337.065C267.267 336.523 269.189 336.447 271.041 336.845C271.661 336.961 272.269 337.167 272.867 337.37C274.383 337.885 275.833 338.377 277.231 337.315C280.135 335.133 281.32 329.19 282.107 325.239C282.215 324.699 282.315 324.196 282.411 323.745C284.651 313.225 284.081 302.215 281.991 291.745C278.454 274.048 270.954 257.475 263.469 240.937C252.819 217.404 242.2 193.943 243.081 167.415C243.078 165.858 243.905 164.417 245.251 163.635C249.221 161.785 252.781 161.915 257.051 162.315C261.131 162.705 264.391 162.445 264.051 157.525C263.812 154.105 262.271 150.685 260.854 147.54C260.614 147.007 260.378 146.481 260.151 145.965C258.031 141.125 255.861 136.305 253.641 131.505C245.915 114.838 237.555 98.5051 228.561 82.5051C220.241 67.7051 211.691 52.7451 201.641 39.0351C192.511 26.6051 180.851 14.5651 165.751 9.84513C152.771 5.78513 135.851 5.94513 125.701 16.2151C125.095 16.8845 124.116 17.0648 123.311 16.6551C106.949 31.027 102.06 55.3663 97.4086 78.5199C95.05 90.2614 92.7526 101.698 89.0514 111.375C85.8909 119.969 81.3032 127.968 75.4814 135.035C74.8131 135.824 73.9866 136.718 73.0846 137.693C67.7907 143.416 59.897 151.949 66.1514 158.665C67.6516 160.273 69.6527 160.396 71.7037 160.522C73.4533 160.63 75.2392 160.739 76.7814 161.775C79.191 163.53 80.7112 166.253 80.9414 169.225C81.8345 176.047 78.6543 182.97 75.764 189.262C75.2563 190.367 74.7575 191.453 74.2914 192.515C66.508 210.319 56.7277 227.118 46.9481 243.915C35.9202 262.857 24.8932 281.797 16.7314 302.175C13.2314 310.915 9.69135 320.175 8.17135 329.515C7.42135 334.105 7.11135 339.465 9.23135 343.765C10.5553 346.446 12.7822 347.848 15.0728 349.29C16.2252 350.016 17.3936 350.751 18.4714 351.665C25.3735 357.501 24.3863 367.85 23.5823 376.278C23.5045 377.094 23.4284 377.891 23.3614 378.665C22.9642 383.223 22.4243 387.767 21.8844 392.312C21.0241 399.552 20.164 406.792 19.8814 414.085C19.1814 431.585 22.6714 452.585 37.8814 463.585C40.1635 465.242 42.6016 466.498 44.9919 467.729C50.0169 470.317 54.8307 472.797 57.5414 478.665C60.7548 485.644 60.6209 493.534 60.4916 501.15C60.4664 502.635 60.4414 504.11 60.4414 505.565C60.4914 525.875 62.8214 549.065 79.4914 563.065C95.5414 576.515 118.541 571.285 133.541 558.875C148.099 546.814 156.82 529.618 165.248 513C166.037 511.445 166.823 509.895 167.611 508.355C172.531 498.705 177.631 489.095 184.061 480.355C189.301 473.225 195.861 464.405 205.231 462.935C210.031 462.225 213.861 464.235 217.451 466.935C221.041 469.635 224.231 470.955 228.671 469.285C238.021 465.765 243.231 455.775 246.551 447.015Z" fill="#231F20"/>
<path fill-rule="evenodd" clip-rule="evenodd" d="M140.351 155.385C140.372 155.044 140.439 154.708 140.551 154.385L140.491 154.425C140.045 153.956 139.916 153.269 140.163 152.67C140.409 152.072 140.984 151.674 141.631 151.655L143.751 151.725C144.34 151.585 144.953 151.585 145.541 151.725C151.201 151.775 156.961 151.395 162.071 148.775C163.26 148.166 164.556 147.036 165.923 145.843C169.317 142.882 173.15 139.538 176.871 142.845C178.829 144.585 178.918 147.34 179 149.886C179.016 150.384 179.032 150.873 179.061 151.345C179.321 155.587 179.351 159.84 179.151 164.085C178.777 172.354 177.595 180.567 175.621 188.605C175.519 189.023 175.415 189.451 175.31 189.888C173.905 195.709 172.135 203.047 166.851 206.405C161.571 209.705 155.791 207.155 152.571 202.405C148.311 196.115 146.031 187.485 144.121 180.225C142.071 172.505 139.831 163.385 140.351 155.385ZM157.351 193.522C158.61 196.51 161.002 202.185 163.971 197.385C166.111 193.905 167.461 189.355 168.371 184.715C167.509 184.52 166.691 184.266 165.881 184.015C163.824 183.377 161.825 182.756 159.321 183.165C157.535 183.532 155.797 184.102 154.141 184.865C155.071 187.715 156.091 190.525 157.251 193.285C157.284 193.362 157.317 193.441 157.351 193.522Z" fill="#231F20"/>
<path d="M212.602 151.885C213.133 152.767 213.937 153.451 214.892 153.835C216.678 154.58 218.736 154.186 220.122 152.835C221.123 151.838 221.679 150.478 221.662 149.065C221.657 148.56 221.597 148.057 221.482 147.565C221.434 147.411 221.374 147.26 221.302 147.115C221.162 146.59 220.932 146.092 220.622 145.645C220.205 145.022 219.668 144.488 219.042 144.075C217.86 143.415 216.442 143.327 215.188 143.836C213.933 144.346 212.978 145.398 212.592 146.695C212.592 146.815 212.542 146.925 212.522 147.045C212.494 147.093 212.471 147.143 212.452 147.195C212.089 147.891 211.917 148.671 211.952 149.455C211.99 150.303 212.212 151.132 212.602 151.885Z" fill="#231F20"/>
<path fill-rule="evenodd" clip-rule="evenodd" d="M207.361 108.645C211.631 112.525 212.591 121.465 207.461 125.095C201.781 129.125 195.051 123.285 193.551 117.725C192.647 114.848 193.244 111.709 195.141 109.365C195.873 108.485 196.83 107.822 197.911 107.445C201.007 105.857 204.76 106.333 207.361 108.645ZM200.681 114.885C200.635 115.018 200.582 115.148 200.521 115.275C200.336 115.761 200.017 116.184 199.601 116.495C200.511 117.965 202.201 120.035 203.201 119.245C203.881 118.645 203.201 114.985 202.201 114.505C201.838 114.336 201.755 114.362 201.5 114.441C201.439 114.46 201.368 114.482 201.281 114.505C201.06 114.596 200.857 114.725 200.681 114.885Z" fill="#231F20"/>
<path fill-rule="evenodd" clip-rule="evenodd" d="M124.31 122.035C123.62 127.905 118.16 131.965 112.31 129.965C106.72 128.025 104.7 121.295 107.37 116.235C108.645 113.828 110.867 112.062 113.5 111.365C114.366 111.15 115.259 111.059 116.15 111.095C118.92 109.725 121.91 111.925 123.15 114.425C124.26 116.798 124.663 119.44 124.31 122.035ZM115.62 117.685C115.043 117.973 114.532 118.378 114.12 118.875C113.36 119.835 113.05 121.865 114.3 122.595C115.88 123.525 116.38 121.905 116.38 120.735C116.477 119.896 116.36 119.047 116.04 118.265C115.915 118.062 115.774 117.868 115.62 117.685Z" fill="#231F20"/>
<path d="M101.621 154.825C107.681 154.825 107.691 145.415 101.621 145.415C95.551 145.415 95.561 154.825 101.621 154.825Z" fill="#231F20"/>
<path d="M146.562 228.955C151.232 232.475 153.282 238.615 159.702 239.705C161.422 240.045 163.206 239.727 164.702 238.815C168.422 236.425 167.642 229.925 174.812 233.455C177.162 234.615 178.862 236.625 181.472 237.345C183.844 237.97 186.355 237.801 188.622 236.865C194.762 234.515 197.732 228.375 199.192 222.365C201.384 213.345 202.509 204.098 202.542 194.815C202.542 192.865 199.772 192.955 199.542 194.815C198.542 203.975 198.162 213.305 195.802 222.255C194.652 226.655 192.622 231.135 188.412 233.345C183.092 236.135 180.052 232.495 175.842 230.185C173.782 229.055 171.232 228.245 168.892 228.995C166.242 229.845 166.022 231.705 164.582 233.655C158.272 242.165 151.582 227.185 146.172 224.765C136.792 220.525 132.512 232.025 127.652 237.415C120.372 245.485 114.162 235.555 112.462 228.335C110.412 219.605 112.122 211.015 111.732 202.225C111.728 201.822 111.428 201.483 111.028 201.43C110.629 201.378 110.251 201.627 110.142 202.015C107.092 213.165 106.072 231.015 114.512 240.305C121.692 248.155 129.002 241.575 133.512 234.975C136.702 230.455 140.632 224.525 146.562 228.955Z" fill="#231F20"/>
<path d="M109.571 321.525C108.446 323.469 106.5 324.797 104.28 325.137C102.061 325.477 99.8064 324.792 98.151 323.275C94.791 320.275 93.921 315.635 93.831 311.395C93.651 303.675 94.411 295.835 94.641 288.115C94.641 286.965 93.011 287.025 92.891 288.115C92.111 295.255 91.031 302.465 90.831 309.655C90.691 314.455 91.301 319.445 94.211 323.425C98.331 329.045 109.551 331.045 111.311 322.255C111.336 321.831 111.091 321.438 110.7 321.274C110.308 321.109 109.856 321.21 109.571 321.525Z" fill="#231F20"/>
<path d="M85.791 383.645C84.791 391.375 79.921 398.715 70.921 396.515C64.581 394.965 61.581 388.675 60.391 382.815C57.741 369.815 59.981 354.985 62.391 342.175C63.701 335.315 65.391 325.325 55.101 326.545C53.411 326.745 51.151 327.715 49.471 327.405C44.551 326.485 45.471 320.325 45.561 316.745C45.8906 309.575 47.2097 302.484 49.481 295.675C49.771 294.755 48.321 294.105 47.901 295.005C44.6465 302.106 42.903 309.805 42.781 317.615C42.681 321.785 42.181 328.295 47.091 329.975C49.091 330.655 51.211 330.125 53.201 329.815C56.291 329.325 59.431 328.125 60.761 332.955C61.281 334.875 60.201 337.625 59.761 339.505C58.035 347.638 56.9483 355.893 56.511 364.195C55.931 375.325 55.111 392.415 66.961 398.455C76.771 403.455 91.141 395.065 88.061 383.335C87.761 381.925 85.961 382.405 85.791 383.645Z" fill="#231F20"/>
<path d="M199.462 348.745C199.873 361.871 197.974 374.967 193.852 387.435C191.782 393.585 187.502 400.835 180.132 401.055C175.042 401.205 170.762 397.415 166.302 395.505C160.232 392.915 154.502 394.435 151.532 400.505C149.842 403.955 149.322 407.915 147.412 411.265C145.426 414.907 140.964 416.396 137.189 414.677C133.414 412.957 131.608 408.614 133.052 404.725C133.412 403.655 131.802 403.275 131.392 404.275C127.392 414.035 138.532 423.445 147.132 416.405C150.472 413.675 151.582 409.315 152.912 405.405C154.002 402.235 155.332 398.335 159.012 397.405C162.482 396.515 165.942 398.705 168.852 400.285C173.362 402.745 178.022 405.135 183.302 403.735C188.582 402.335 192.502 398.135 194.862 393.445C198.142 386.935 199.552 379.245 201.052 372.175C202.672 364.555 204.162 356.055 202.182 348.395C202.014 347.713 201.362 347.266 200.665 347.356C199.969 347.445 199.451 348.043 199.462 348.745Z" fill="#231F20"/>
<path d="M227.162 261.165C229.302 269.115 231.012 277.535 228.292 285.605C226.672 290.405 221.792 295.825 216.172 293.035C213.792 291.855 212.462 289.535 209.702 289.035C204.872 288.125 201.762 292.625 199.522 296.125C196.382 301.045 190.962 302.835 187.242 297.295C184.792 293.655 184.922 288.295 185.162 284.155C185.162 283.325 183.992 283.375 183.892 284.155C182.892 291.395 182.402 301.895 191.752 303.875C195.012 304.565 197.852 303.175 199.992 300.785C201.183 299.238 202.282 297.622 203.282 295.945C205.102 293.355 205.962 292.485 209.282 293.215C212.212 293.855 211.542 293.855 213.422 294.965C220.082 298.905 227.182 295.745 230.422 288.895C234.472 280.295 233.712 268.555 229.502 260.205C228.812 258.905 226.802 259.805 227.162 261.165Z" fill="#231F20"/>
</svg>
