<svg width="297" height="582" viewBox="0 0 297 582" fill="none" xmlns="http://www.w3.org/2000/svg">
<path d="M50.7021 183.48C55.8021 201.82 59.8121 220.55 64.2621 239C69.4921 260.62 73.2621 283.36 80.4021 304.42C83.4021 313.19 88.4021 320.53 98.0721 322.29C107.932 324.09 119.252 321.75 129.012 320.35C149.025 317.513 168.794 313.167 188.152 307.35C204.612 302.4 226.482 296.81 227.602 276.09C228.122 266.48 225.362 256.9 223.122 247.64C220.742 237.793 218.182 227.983 215.442 218.21C209.962 198.683 203.809 179.35 196.982 160.21C195.112 155 193.232 149.8 191.232 144.65C189.482 140.16 188.122 135.16 183.002 133.51C175.152 130.99 163.002 136.63 155.602 138.64C135.282 144.16 114.975 149.73 94.6821 155.35L64.2421 163.7C60.5321 164.7 55.3321 165.31 52.1421 167.7C47.2421 171.38 49.4821 178.14 50.6421 183.06C50.6721 183.21 50.6821 183.34 50.7021 183.48Z" fill="#88E0FF"/>
<path d="M32.4538 328.86C48.2438 397.72 60.7838 474.86 110.784 526.86C101.934 509.09 96.1738 489.12 90.0438 471.21C71.7073 417.111 56.2292 362.085 43.6738 306.36C37.2238 278.14 31.1938 249.79 25.8138 221.36C22.1238 201.82 18.3938 180.36 20.7238 160C13.9838 171.14 10.3638 184.26 9.32379 197.12C7.54379 219.07 12.3238 240.79 17.1438 262.06C22.2238 284.327 27.3271 306.593 32.4538 328.86Z" fill="#58595B"/>
<path fill-rule="evenodd" clip-rule="evenodd" d="M75.7528 397.819C60.6328 345.139 48.0428 291.699 37.1828 237.989C36.9113 236.645 36.6385 235.301 36.3657 233.957C33.4728 219.701 30.5689 205.392 29.0428 190.899C27.6563 176.517 28.0763 162.017 30.2928 147.739C30.3562 147.676 30.4181 147.611 30.4802 147.546L30.4809 147.545L30.481 147.545L30.4811 147.545C30.5754 147.445 30.6705 147.345 30.7728 147.249C43.619 134.87 62.4218 129.226 79.685 124.044C82.3779 123.236 85.0333 122.439 87.6228 121.629C108.363 115.163 129.343 109.706 150.563 105.259C152.687 104.811 154.836 104.329 157.001 103.843C164.65 102.126 172.5 100.363 180.193 99.9192C192.333 99.2492 200.653 110.919 207.023 119.919C218.263 135.749 225.523 153.979 231.843 172.219C238.623 191.799 244.713 211.569 250.263 231.569C261.982 273.725 270.983 316.59 277.213 359.899C283.353 402.279 287.883 445.829 287.213 488.699C286.933 508.249 284.433 529.079 272.783 545.439C259.493 564.109 236.093 571.879 213.983 572.159C190.223 572.449 163.423 566.539 142.473 555.159C139.9 553.753 137.42 552.246 135.033 550.639C135.51 549.29 135.027 547.788 133.853 546.969C132.617 546.077 131.433 545.154 130.243 544.228C130.046 544.075 129.85 543.922 129.653 543.769C117.193 524.045 109.536 501.981 101.906 479.998C101.385 478.498 100.865 476.998 100.343 475.499C91.4495 449.826 83.2528 423.933 75.7528 397.819ZM92.0028 366.809C86.2328 370.089 85.0728 377.129 85.2328 383.229C85.3828 389.599 87.8328 396.369 94.4728 398.419C99.4728 399.919 105.033 398.999 110.473 397.559C116.503 397.849 122.553 395.189 127.923 392.689C134.003 389.829 138.963 385.579 140.133 378.689C141.123 372.889 139.763 364.539 135.193 360.399C130.263 355.909 123.113 357.529 117.323 358.909C115.995 359.227 114.626 359.54 113.232 359.857C106.035 361.499 98.1768 363.291 92.0028 366.809ZM95.2328 425.279C95.0828 419.169 96.2328 412.129 102.003 408.859C108.384 405.228 116.552 403.39 123.927 401.731L123.937 401.729L123.954 401.725L123.982 401.719C125.118 401.464 126.235 401.212 127.323 400.959C133.123 399.579 140.263 397.959 145.193 402.449C149.773 406.589 151.123 414.939 150.143 420.739C148.973 427.619 144.003 431.869 137.923 434.739C132.563 437.249 126.513 439.909 120.473 439.619C115.033 441.049 109.473 441.979 104.473 440.469C97.9328 438.419 95.4328 431.639 95.2729 425.279H95.2328ZM173.338 343.272C166.152 344.912 158.3 346.704 152.123 350.219H152.163C146.423 353.499 145.243 360.539 145.313 366.659C145.473 373.029 147.923 379.829 154.593 381.829C159.593 383.329 165.153 382.409 170.593 380.969C176.633 381.259 182.683 378.599 188.043 376.099C194.123 373.239 199.093 368.989 200.263 362.099C201.243 356.299 199.893 347.949 195.313 343.809C190.383 339.319 183.243 340.939 177.443 342.319C176.111 342.639 174.737 342.952 173.338 343.272ZM161.353 460.949C160.183 467.839 155.213 472.089 149.133 474.949C143.773 477.449 137.723 480.109 131.683 479.819C126.243 481.259 120.683 482.179 115.683 480.679C109.013 478.679 106.563 471.879 106.403 465.509C106.253 459.399 107.403 452.359 113.173 449.089C119.357 445.569 127.214 443.777 134.41 442.136C135.802 441.818 137.168 441.507 138.493 441.189C144.293 439.809 151.433 438.189 156.363 442.679C161.013 446.799 162.373 455.149 161.393 460.949H161.353ZM162.213 392.279C156.443 395.549 155.283 402.589 155.443 408.699C155.593 415.049 158.043 421.819 164.683 423.889C169.683 425.399 175.233 424.469 180.683 423.039C186.713 423.329 192.763 420.669 198.133 418.159C204.213 415.289 209.173 411.039 210.343 404.159C211.333 398.359 209.973 390.009 205.403 385.859C200.473 381.379 193.323 382.989 187.533 384.379C186.258 384.683 184.945 384.982 183.608 385.286L183.607 385.287L183.583 385.292L183.568 385.295L183.56 385.297L183.555 385.298C176.327 386.943 168.419 388.742 162.213 392.279ZM166.653 448.909C166.493 442.799 167.653 435.759 173.423 432.489C179.629 428.952 187.537 427.153 194.765 425.508L194.769 425.507L194.776 425.506L194.785 425.504L194.8 425.501L194.823 425.495C196.158 425.191 197.47 424.893 198.743 424.589C204.533 423.209 211.683 421.589 216.613 426.079C221.183 430.219 222.533 438.569 221.553 444.369C220.383 451.259 215.423 455.509 209.343 458.369C203.933 460.839 197.933 463.499 191.933 463.209C186.483 464.649 180.933 465.569 175.933 464.069C169.253 462.039 166.803 455.269 166.653 448.899V448.909ZM223.303 500.079C229.383 497.209 234.343 492.959 235.513 486.079V486.069C236.493 480.269 235.143 471.919 230.533 467.809C225.593 463.329 218.453 464.939 212.663 466.329C211.377 466.636 210.053 466.937 208.705 467.244L208.696 467.246L208.689 467.247L208.685 467.248C201.457 468.893 193.549 470.692 187.343 474.229C181.563 477.499 180.413 484.539 180.563 490.649C180.723 497.009 183.173 503.809 189.843 505.809C194.843 507.319 200.403 506.389 205.843 504.959C211.883 505.239 217.933 502.589 223.303 500.079ZM281.723 425.079C280.553 431.959 275.583 436.209 269.503 439.079C264.143 441.589 258.093 444.239 252.053 443.959C246.613 445.389 241.053 446.319 236.053 444.809C229.393 442.809 226.943 436.009 226.783 429.649C226.633 423.539 227.783 416.499 233.553 413.229C239.77 409.691 247.676 407.892 254.904 406.246L254.904 406.246L254.904 406.246C256.256 405.939 257.584 405.636 258.873 405.329C264.673 403.939 271.813 402.329 276.743 406.819C281.343 410.959 282.703 419.309 281.723 425.109V425.079ZM258.293 398.859C264.373 395.999 269.343 391.749 270.513 384.859V384.889C271.493 379.089 270.133 370.749 265.523 366.589C260.593 362.109 253.453 363.719 247.653 365.109C246.35 365.42 245.006 365.726 243.638 366.037L243.63 366.039L243.625 366.04C236.418 367.679 228.532 369.473 222.333 373.009C216.563 376.279 215.413 383.319 215.563 389.429C215.723 395.789 218.173 402.589 224.843 404.589C229.843 406.099 235.403 405.169 240.843 403.739C246.883 404.019 252.933 401.359 258.293 398.859ZM255.513 324.529C260.083 328.669 261.443 337.019 260.453 342.819C259.283 349.709 254.323 353.959 248.243 356.819C242.873 359.329 236.823 361.989 230.793 361.699C225.343 363.129 219.793 364.059 214.793 362.559C208.123 360.559 205.673 353.749 205.523 347.389C205.363 341.279 206.523 334.239 212.293 330.969C218.499 327.432 226.407 325.633 233.635 323.988L233.636 323.988C234.991 323.68 236.322 323.377 237.613 323.069C243.443 321.699 250.593 320.089 255.523 324.559L255.513 324.529ZM46.9428 160.739C44.4171 162.474 42.514 164.973 41.5128 167.869L41.5228 167.899C40.39 168.69 39.8263 170.072 40.0828 171.429C40.1778 171.984 40.2803 172.542 40.3828 173.099C40.4853 173.657 40.5878 174.214 40.6828 174.769C40.8296 176.888 41.2085 178.984 41.8128 181.019C44.8229 196.701 48.715 212.273 52.5946 227.794C54.1798 234.136 55.7629 240.47 57.2828 246.799L65.9728 282.979C66.4792 285.082 66.9586 287.206 67.4397 289.337C69.2103 297.182 71.0031 305.126 74.2428 312.439C83.2128 332.739 102.753 332.339 122.003 330.009C146.117 327.129 169.928 322.109 193.153 315.009C209.703 309.919 229.403 303.729 235.023 285.269C237.953 275.609 236.293 265.239 234.223 255.609C231.633 243.569 228.543 231.609 225.303 219.729C218.843 196.136 211.34 172.889 202.793 149.989C202.286 148.63 201.798 147.191 201.298 145.715C198.805 138.359 196.004 130.097 189.083 126.399C181.843 122.529 173.193 124.749 165.753 126.749C138.073 134.376 110.39 141.989 82.7028 149.589L61.9428 155.279C61.0456 155.524 60.1313 155.757 59.2102 155.991C54.9364 157.079 50.5133 158.205 46.9428 160.739Z" fill="#939598"/>
<path d="M213.034 353.03C214.278 355.368 216.736 356.804 219.384 356.74C214.064 351.62 211.974 343.49 214.994 336.68C212.424 338.85 211.904 342.29 211.814 345.78C211.596 348.261 212.016 350.756 213.034 353.03Z" fill="#58595B"/>
<path d="M143.153 446.42C137.197 447.649 131.311 449.201 125.523 451.07C124.713 451.32 123.873 451.56 123.033 451.8C123.028 452.176 122.936 452.546 122.763 452.88C119.423 459.23 119.043 467.03 125.813 471.43C131.523 475.15 137.883 472.85 143.603 470.43C149.663 467.91 155.303 464.75 155.333 457.43C155.333 454.3 154.723 450.87 152.703 448.43C150.093 445.33 146.933 445.7 143.153 446.42Z" fill="#88E0FF"/>
<path d="M164.722 372.59C170.432 376.3 176.792 374 182.512 371.59C188.572 369.08 194.212 365.91 194.242 358.59C194.242 355.46 193.632 352.03 191.612 349.59C189.002 346.45 185.862 346.82 182.062 347.54C176.106 348.77 170.22 350.322 164.432 352.19C163.622 352.44 162.782 352.68 161.942 352.92C161.943 353.297 161.85 353.668 161.672 354C158.332 360.38 157.932 368.18 164.722 372.59Z" fill="#88E0FF"/>
<path d="M146.283 96.9299C148.95 96.3566 151.64 95.7966 154.353 95.2499C148.053 80.6599 141.663 66.0999 135.353 51.5199C134.663 49.9099 134.443 47.6399 136.023 46.3799C153.653 32.2099 140.063 5.69989 118.423 9.09989C105.303 11.1499 102.763 22.4699 103.003 34.0199C103.183 42.9499 110.143 59.0199 121.633 51.4099C123.463 50.1899 126.763 50.8999 127.703 53.0099C131.423 61.2999 135.063 69.6299 138.703 78.0099C141.293 83.8699 145.313 90.3599 146.283 96.9299Z" fill="#58595B"/>
<path d="M104.563 389.18C110.263 392.89 116.633 390.6 122.343 388.18C128.403 385.67 134.053 382.5 134.083 375.18C134.083 372.05 133.463 368.62 131.443 366.18C128.843 363.04 125.693 363.41 121.893 364.13C115.94 365.36 110.058 366.912 104.273 368.78C103.453 369.03 102.613 369.27 101.773 369.51C101.774 369.886 101.682 370.258 101.503 370.59C98.1635 376.97 97.7935 384.77 104.563 389.18Z" fill="#88E0FF"/>
<path d="M114.602 431.219C120.312 434.939 126.672 432.639 132.392 430.269C138.452 427.749 144.092 424.589 144.122 417.269C144.122 414.149 143.512 410.719 141.492 408.269C138.882 405.119 135.742 405.499 131.942 406.219C125.985 407.443 120.099 408.996 114.312 410.869C113.502 411.119 112.662 411.359 111.822 411.599C111.822 411.976 111.729 412.347 111.552 412.679C108.212 419.019 107.832 426.809 114.602 431.219Z" fill="#88E0FF"/>
<path d="M104.712 414.569C102.132 416.739 101.612 420.179 101.522 423.669C101.462 426.069 101.582 428.759 102.742 430.919C104.172 433.579 106.502 434.489 109.102 434.629C103.772 429.509 101.692 421.379 104.712 414.569Z" fill="#58595B"/>
<path d="M94.6636 372.529C92.0936 374.699 91.5736 378.129 91.4836 381.619C91.2661 384.104 91.686 386.602 92.7036 388.879C94.1336 391.539 96.4536 392.449 99.0536 392.589C93.7336 387.459 91.6436 379.339 94.6636 372.529Z" fill="#58595B"/>
<path d="M224.933 353.33C230.633 357.05 237.003 354.75 242.713 352.38C248.773 349.86 254.423 346.7 254.453 339.38C254.453 336.26 253.833 332.83 251.813 330.38C249.213 327.23 246.063 327.61 242.263 328.33C236.308 329.555 230.426 331.107 224.643 332.98C223.823 333.23 222.983 333.47 222.143 333.71C222.143 334.086 222.05 334.457 221.873 334.79C218.493 341.13 218.123 348.92 224.933 353.33Z" fill="#88E0FF"/>
<path d="M236.243 418.939C233.673 421.109 233.153 424.549 233.063 428.039C233.003 430.439 233.123 433.129 234.283 435.289C235.713 437.949 238.043 438.859 240.643 438.999C235.313 433.879 233.223 425.749 236.243 418.939Z" fill="#58595B"/>
<path d="M263.484 410.579C257.527 411.805 251.642 413.354 245.854 415.219L243.364 415.959C243.358 416.335 243.266 416.705 243.094 417.039C239.754 423.389 239.374 431.179 246.094 435.589C251.804 439.299 258.164 437.009 263.884 434.639C269.934 432.119 275.584 428.959 275.614 421.639C275.614 418.519 275.004 415.089 272.984 412.639C270.424 409.479 267.284 409.849 263.484 410.579Z" fill="#88E0FF"/>
<path d="M217.274 471.539C211.32 472.765 205.438 474.314 199.654 476.179L197.154 476.919C197.153 477.296 197.061 477.667 196.884 477.999C193.544 484.349 193.164 492.139 199.944 496.549C205.644 500.259 212.004 497.969 217.724 495.549C223.784 493.029 229.424 489.869 229.464 482.549C229.464 479.429 228.844 475.999 226.824 473.549C224.224 470.439 221.074 470.809 217.274 471.539Z" fill="#88E0FF"/>
<path d="M225.042 378.699C222.462 380.869 221.942 384.309 221.852 387.789C221.792 390.199 221.912 392.889 223.072 395.049C224.502 397.709 226.832 398.619 229.432 398.759C224.102 393.699 222.012 385.539 225.042 378.699Z" fill="#58595B"/>
<path d="M252.272 370.36C246.316 371.588 240.43 373.141 234.642 375.01C233.832 375.26 232.992 375.5 232.152 375.74C232.147 376.119 232.055 376.492 231.882 376.83C228.542 383.17 228.162 390.97 234.932 395.38C240.642 399.09 247.002 396.8 252.722 394.38C258.722 391.87 264.422 388.7 264.452 381.38C264.452 378.25 263.842 374.83 261.822 372.38C259.212 369.27 256.072 369.64 252.272 370.36Z" fill="#88E0FF"/>
<path d="M190.044 479.899C187.474 482.069 186.944 485.509 186.854 488.999C186.794 491.399 186.924 494.089 188.084 496.249C189.504 498.909 191.834 499.819 194.434 499.959C189.104 494.839 187.024 486.699 190.044 479.899Z" fill="#58595B"/>
<path d="M185.983 454.84C191.683 458.56 198.053 456.26 203.763 453.89C209.823 451.37 215.463 448.21 215.503 440.89C215.503 437.76 214.883 434.33 212.863 431.89C210.263 428.75 207.113 429.12 203.313 429.84C197.36 431.07 191.478 432.622 185.693 434.49C184.873 434.74 184.033 434.98 183.193 435.22C183.193 435.596 183.1 435.967 182.923 436.3C179.583 442.64 179.213 450.44 185.983 454.84Z" fill="#88E0FF"/>
<path d="M164.873 397.979C162.303 400.149 161.783 403.589 161.693 407.079C161.475 409.561 161.895 412.056 162.913 414.329C164.343 416.989 166.663 417.899 169.263 418.039C163.933 412.919 161.853 404.789 164.873 397.979Z" fill="#58595B"/>
<path d="M115.933 454.779C113.363 456.959 112.843 460.389 112.753 463.879C112.693 466.279 112.813 468.969 113.973 471.129C115.218 473.471 117.681 474.908 120.333 474.839C114.983 469.699 112.933 461.589 115.933 454.779Z" fill="#58595B"/>
<path d="M174.772 414.63C180.472 418.35 186.842 416.05 192.552 413.68C198.612 411.16 204.252 408 204.292 400.68C204.292 397.56 203.672 394.13 201.652 391.68C199.052 388.53 195.902 388.9 192.102 389.63C186.149 390.856 180.267 392.405 174.482 394.27L171.982 395.01C171.982 395.386 171.89 395.757 171.712 396.09C168.372 402.43 168.002 410.22 174.772 414.63Z" fill="#88E0FF"/>
<path d="M159.223 375.989C153.893 370.869 151.813 362.739 154.833 355.939C152.253 358.109 151.733 361.539 151.643 365.029C151.583 367.429 151.713 370.129 152.863 372.289C154.111 374.627 156.573 376.06 159.223 375.989Z" fill="#58595B"/>
<path d="M176.084 438.189C173.514 440.369 172.994 443.799 172.904 447.289C172.686 449.771 173.106 452.266 174.124 454.539C175.368 456.878 177.825 458.314 180.474 458.249C175.154 453.129 173.064 444.999 176.084 438.189Z" fill="#58595B"/>
<path fill-rule="evenodd" clip-rule="evenodd" d="M91.3529 516.45C70.6929 490.13 57.3029 458.51 47.7529 426.51C37.6446 392.608 30.0026 357.861 22.3812 323.208L22.3809 323.207C19.5825 310.483 16.7869 297.772 13.8729 285.12C13.0319 281.458 12.1517 277.747 11.262 273.996C2.11348 235.422 -8.03622 192.627 13.0529 156.61C16.2026 151.226 20.1054 146.319 24.6429 142.04C24.9811 141.06 25.7824 140.311 26.7829 140.04C35.6029 132.38 46.1429 127 57.6029 122.65C79.8712 114.309 102.614 107.297 125.713 101.65C129.927 100.651 134.15 99.6526 138.374 98.6541L138.393 98.6495C135.846 95.0444 134.106 90.5632 132.458 86.3227L132.458 86.3226L132.458 86.322L132.458 86.321C131.771 84.5515 131.099 82.824 130.393 81.2196C127.446 74.5196 124.523 67.8362 121.623 61.1695C109.553 64.9895 97.7729 53.9095 95.4529 41.9095C92.6329 27.1795 95.2429 8.89955 110.633 2.78955C124.003 -2.48045 141.103 2.08955 148.583 14.7895C155.16 26.377 153.324 40.9111 144.073 50.4995C146.788 56.6218 149.488 62.7532 152.188 68.8852L152.191 68.8906L152.195 68.8995L152.197 68.9039C155.81 77.1083 159.423 85.3138 163.073 93.4995C163.57 93.3913 164.071 93.2814 164.574 93.171C172.668 91.3939 181.453 89.4653 189.343 91.6495C198.653 94.2295 205.803 103.29 211.473 110.57C217.465 118.354 222.646 126.731 226.933 135.57C236.493 154.95 243.113 175.76 249.593 196.32C256.846 219.373 263.263 242.65 268.843 266.15C279.784 312.23 287.552 359.006 292.093 406.15C294.373 429.83 295.963 453.63 296.443 477.43C296.843 496.6 296.093 516.73 288.923 534.73C273.093 574.63 230.213 585.44 191.093 579.55C169.263 576.27 146.613 569.89 128.483 556.89C113.473 546.12 101.743 531.609 91.3529 516.45ZM121.633 51.4095C123.463 50.1895 126.763 50.8995 127.703 53.0095C131.307 61.0422 134.837 69.1124 138.355 77.1565L138.356 77.1598L138.693 77.9296C139.404 79.5728 140.224 81.2581 141.06 82.9756L141.06 82.9758C143.247 87.4666 145.54 92.1771 146.263 96.9296C148.976 96.3629 151.666 95.8029 154.333 95.2495C150.304 85.8891 146.23 76.541 142.155 67.192L142.153 67.1885L142.148 67.1755C139.874 61.9579 137.599 56.74 135.333 51.5196C134.643 49.9095 134.423 47.6395 136.003 46.3795C153.653 32.2095 140.063 5.70955 118.423 9.09955C105.303 11.1495 102.763 22.4695 103.003 34.0195C103.183 42.9495 110.143 59.0595 121.633 51.4095ZM30.3229 147.76C30.3866 147.696 30.4487 147.631 30.5111 147.565C30.6055 147.466 30.7006 147.366 30.8029 147.27C43.7102 134.865 62.5387 129.216 79.8238 124.03C82.4789 123.233 85.0977 122.447 87.6529 121.65C108.32 115.19 129.3 109.733 150.593 105.28C152.881 104.805 155.195 104.288 157.526 103.767L157.526 103.767C165.024 102.09 172.693 100.374 180.223 99.9395C192.363 99.2395 200.683 110.94 207.053 119.94C218.293 135.77 225.553 154 231.873 172.24C238.653 191.82 244.743 211.63 250.293 231.59C262.012 273.746 271.014 316.611 277.243 359.92C283.353 402.3 287.883 445.85 287.243 488.72C286.933 508.28 284.463 529.11 272.813 545.47C259.523 564.14 236.123 571.91 214.013 572.19C190.253 572.48 163.453 566.57 142.503 555.19C139.936 553.79 137.456 552.283 135.063 550.67C135.54 549.32 135.057 547.818 133.883 547C132.791 546.241 131.739 545.414 130.689 544.588C130.486 544.428 130.283 544.269 130.081 544.11C129.948 544.006 129.816 543.903 129.683 543.8C117.21 524.025 109.529 501.899 101.878 479.86C101.377 478.416 100.875 476.972 100.373 475.53C91.4396 449.876 83.2429 423.983 75.7829 397.85C60.6329 345.14 48.0429 291.7 37.1829 237.99C36.9152 236.664 36.6462 235.339 36.3771 234.013C33.4806 219.739 30.5735 205.413 29.0729 190.92C27.6864 176.537 28.1064 162.038 30.3229 147.76ZM20.7229 159.98C13.9829 171.1 10.3229 184.24 9.32294 197.1C7.54294 219.05 12.2929 240.77 17.1429 262.03C22.2496 284.303 27.3529 306.576 32.4529 328.85C34.1202 336.122 35.7512 343.486 37.394 350.903C51.3088 413.728 66.0625 480.34 110.783 526.85C103.842 512.912 98.8011 497.621 93.9921 483.032C92.6698 479.021 91.365 475.062 90.0429 471.2C71.7061 417.097 56.228 362.068 43.6729 306.34C37.2229 278.13 31.1929 249.78 25.8129 221.34C22.1229 201.8 18.3929 180.3 20.7229 159.98Z" fill="#231F20"/>
<path fill-rule="evenodd" clip-rule="evenodd" d="M41.8028 181.079C41.1984 179.044 40.8195 176.948 40.6728 174.829C40.5303 173.982 40.3709 173.151 40.2115 172.321C40.1584 172.044 40.1053 171.767 40.0528 171.489C39.7727 170.11 40.3435 168.697 41.5028 167.899C42.5039 165.003 44.407 162.504 46.9328 160.769C50.4894 158.257 54.8978 157.129 59.1158 156.049C60.0685 155.805 61.0115 155.564 61.9328 155.309L82.6628 149.649C110.336 142.003 138.019 134.389 165.713 126.809C173.153 124.769 181.803 122.589 189.043 126.459C196.004 130.179 198.818 138.515 201.312 145.903C201.795 147.334 202.266 148.73 202.753 150.049C211.333 172.963 218.836 196.209 225.263 219.789C228.503 231.669 231.593 243.669 234.183 255.669C236.253 265.329 237.913 275.699 234.983 285.329C229.363 303.789 209.663 309.979 193.113 315.069C169.888 322.169 146.077 327.189 121.963 330.069C102.713 332.399 83.2028 332.799 74.2028 312.499C70.963 305.186 69.1702 297.243 67.3996 289.398C66.9186 287.266 66.4391 285.142 65.9328 283.039L57.2728 246.859C55.7764 240.64 54.2188 234.409 52.6583 228.167C48.7543 212.551 44.8319 196.861 41.8028 181.079ZM61.3043 164.395C58.1093 165.104 54.5525 165.894 52.1428 167.699C47.6783 171.052 49.141 176.962 50.3137 181.7C50.4281 182.162 50.5397 182.613 50.6428 183.049C50.7028 183.199 50.7028 183.329 50.7028 183.469C54.2746 196.314 57.3117 209.35 60.3398 222.347C61.6354 227.907 62.9293 233.461 64.2628 238.989C65.903 245.77 67.3957 252.66 68.8935 259.575C72.1717 274.707 75.4745 289.954 80.4028 304.409C83.3928 313.179 88.4128 320.519 98.0728 322.279C106.438 323.807 115.855 322.354 124.478 321.023C126.019 320.785 127.534 320.552 129.013 320.339C149.025 317.502 168.795 313.157 188.153 307.339C188.875 307.122 189.609 306.903 190.35 306.682C206.485 301.869 226.532 295.889 227.603 276.079C228.061 267.606 225.97 259.155 223.933 250.927C223.66 249.824 223.388 248.724 223.123 247.629C220.743 237.769 218.183 227.959 215.443 218.199C209.976 198.619 203.823 179.286 196.983 160.199C195.113 154.989 193.233 149.789 191.233 144.639C191.051 144.173 190.873 143.701 190.695 143.228C189.16 139.147 187.591 134.978 183.003 133.499C176.979 131.566 168.404 134.443 161.411 136.79C159.291 137.502 157.317 138.164 155.603 138.629C135.303 144.189 114.996 149.759 94.6828 155.339L64.2428 163.699C63.3354 163.944 62.3388 164.165 61.3043 164.395Z" fill="#231F20"/>
<path fill-rule="evenodd" clip-rule="evenodd" d="M110.472 397.539C116.472 397.829 122.552 395.169 127.922 392.669C134.002 389.829 138.922 385.579 140.132 378.669C141.132 372.869 139.762 364.519 135.192 360.379C130.262 355.909 123.112 357.509 117.322 358.889C115.858 359.247 114.342 359.596 112.799 359.951C105.721 361.578 98.0528 363.341 92.0024 366.789C86.2624 370.069 85.0724 377.109 85.2324 383.209C85.3824 389.579 87.8324 396.349 94.5024 398.379C99.4524 399.899 105.032 398.979 110.472 397.539ZM92.7024 388.879C91.6848 386.603 91.2649 384.104 91.4824 381.619C91.5724 378.129 92.0924 374.699 94.6624 372.529C91.6624 379.339 93.7324 387.459 99.0524 392.589C96.4524 392.449 94.1324 391.539 92.7024 388.879ZM101.772 369.539C101.773 369.916 101.681 370.287 101.502 370.619C98.1624 376.969 97.7924 384.769 104.602 389.209C110.302 392.879 116.672 390.589 122.382 388.209C128.442 385.719 134.122 382.549 134.122 375.209C134.132 372.069 133.482 368.639 131.482 366.209C128.932 363.069 125.732 363.439 121.932 364.159C115.966 365.388 110.07 366.94 104.272 368.809C103.452 369.059 102.613 369.299 101.773 369.539L101.772 369.539Z" fill="#231F20"/>
<path fill-rule="evenodd" clip-rule="evenodd" d="M154.672 381.81C159.612 383.31 165.192 382.39 170.672 380.95C176.672 381.24 182.762 378.58 188.122 376.08C194.202 373.24 199.172 368.99 200.342 362.08C201.342 356.28 199.972 347.93 195.392 343.79C190.462 339.32 183.322 340.92 177.522 342.3C176.054 342.659 174.534 343.009 172.986 343.365C165.918 344.991 158.256 346.754 152.202 350.2C146.462 353.48 145.282 360.52 145.432 366.62C145.552 373.01 148.002 379.78 154.672 381.81ZM161.672 354.03C161.85 353.698 161.943 353.326 161.942 352.95L161.942 352.949L161.942 352.949C162.782 352.709 163.622 352.47 164.432 352.22C170.22 350.352 176.106 348.799 182.062 347.57C185.862 346.85 189.002 346.48 191.612 349.62C193.612 352.05 194.262 355.48 194.242 358.62C194.242 365.96 188.572 369.13 182.512 371.62C176.792 373.99 170.432 376.29 164.722 372.62C157.932 368.18 158.332 360.38 161.672 354.03ZM154.862 355.94C152.282 358.11 151.762 361.54 151.672 365.03H151.642C151.582 367.43 151.712 370.13 152.892 372.29C154.141 374.627 156.603 376.06 159.252 375.99C153.922 370.87 151.862 362.74 154.862 355.94Z" fill="#231F20"/>
<path fill-rule="evenodd" clip-rule="evenodd" d="M205.562 347.39C205.712 353.75 208.162 360.53 214.832 362.56C219.772 364.06 225.352 363.13 230.832 361.7C236.832 361.99 242.912 359.33 248.282 356.82C254.362 353.99 259.282 349.74 260.492 342.82C261.492 337.02 260.122 328.67 255.552 324.53C250.622 320.06 243.472 321.66 237.682 323.04C236.378 323.351 235.032 323.657 233.661 323.968L233.66 323.968C226.434 325.61 218.515 327.41 212.362 330.94C206.592 334.24 205.402 341.28 205.562 347.39ZM221.832 334.78C222.01 334.447 222.102 334.076 222.102 333.7L222.103 333.7C222.943 333.46 223.782 333.22 224.602 332.97C230.386 331.097 236.268 329.545 242.222 328.32C246.022 327.6 249.172 327.22 251.772 330.37C253.772 332.8 254.422 336.23 254.412 339.37C254.412 346.72 248.732 349.88 242.672 352.37C236.962 354.74 230.592 357.04 224.892 353.32C218.122 348.92 218.492 341.13 221.832 334.78ZM214.979 336.711C214.983 336.701 214.988 336.69 214.992 336.68V336.7C214.988 336.704 214.983 336.708 214.979 336.711ZM214.979 336.711C212.421 338.862 211.932 342.296 211.812 345.78C211.595 348.261 212.015 350.756 213.032 353.03C214.277 355.368 216.734 356.804 219.382 356.74C214.071 351.628 211.999 343.515 214.979 336.711Z" fill="#231F20"/>
<path fill-rule="evenodd" clip-rule="evenodd" d="M120.514 439.589C126.514 439.879 132.604 437.219 137.964 434.709C144.044 431.869 149.014 427.619 150.184 420.709C151.184 414.909 149.814 406.559 145.234 402.419C140.304 397.949 133.164 399.549 127.364 400.929C126.068 401.239 124.732 401.543 123.372 401.853C116.155 403.496 108.253 405.295 102.044 408.829C96.3039 412.099 95.1239 419.139 95.2739 425.249C95.4339 431.609 97.8839 438.389 104.554 440.409C109.494 441.949 115.074 441.019 120.514 439.589ZM102.744 430.919C101.584 428.759 101.464 426.069 101.524 423.669C101.614 420.179 102.134 416.739 104.714 414.569C101.714 421.379 103.774 429.509 109.104 434.629C106.504 434.489 104.174 433.579 102.744 430.919ZM111.824 411.619C111.824 411.996 111.731 412.367 111.554 412.699C108.214 419.019 107.834 426.809 114.594 431.209C120.304 434.929 126.664 432.629 132.384 430.259C138.444 427.769 144.114 424.609 144.114 417.259C144.134 414.119 143.484 410.689 141.484 408.259C138.874 405.109 135.734 405.489 131.934 406.209C125.979 407.444 120.097 409.006 114.314 410.889C113.504 411.139 112.664 411.379 111.824 411.619Z" fill="#231F20"/>
<path fill-rule="evenodd" clip-rule="evenodd" d="M180.683 423C186.683 423.29 192.763 420.63 198.133 418.12C204.213 415.28 209.133 411.03 210.343 404.12C211.343 398.32 209.973 389.97 205.403 385.82C200.473 381.36 193.323 382.95 187.533 384.34C186.229 384.651 184.883 384.957 183.511 385.268C176.285 386.91 168.366 388.71 162.213 392.24C156.473 395.51 155.283 402.55 155.443 408.66C155.593 415.02 158.043 421.79 164.713 423.82C169.663 425.36 175.233 424.43 180.683 423ZM162.933 414.33C161.916 412.056 161.496 409.561 161.713 407.08C161.803 403.59 162.323 400.15 164.893 397.98C161.893 404.79 163.963 412.92 169.283 418.04C166.663 417.9 164.343 416.99 162.933 414.33ZM172.003 395C172.003 395.376 171.91 395.747 171.733 396.08H171.713C168.373 402.43 168.003 410.22 174.793 414.62C180.493 418.34 186.863 416.04 192.573 413.67C198.633 411.18 204.313 408.02 204.313 400.67C204.323 397.53 203.673 394.1 201.673 391.67C199.073 388.52 195.923 388.89 192.123 389.62C186.17 390.846 180.288 392.395 174.503 394.26L172.003 395Z" fill="#231F20"/>
<path fill-rule="evenodd" clip-rule="evenodd" d="M243.665 366.051L243.665 366.051C236.457 367.69 228.571 369.483 222.372 373.02C216.632 376.29 215.452 383.33 215.602 389.44C215.762 395.8 218.212 402.57 224.882 404.6C229.822 406.11 235.402 405.18 240.882 403.75C246.882 404.03 252.972 401.37 258.332 398.87C264.412 396.03 269.382 391.78 270.552 384.87C271.552 379.07 270.172 370.73 265.602 366.58C260.632 362.13 253.492 363.7 247.692 365.12C246.385 365.432 245.037 365.738 243.665 366.051ZM223.072 395.12C221.912 392.96 221.792 390.27 221.852 387.86C221.942 384.38 222.462 380.94 225.042 378.77C222.042 385.58 224.102 393.71 229.432 398.83C226.832 398.7 224.502 397.7 223.072 395.08V395.12ZM264.452 381.45C264.472 378.31 263.822 374.89 261.822 372.45V372.41C259.212 369.27 256.072 369.64 252.272 370.43C246.315 371.659 240.43 373.211 234.642 375.08C233.832 375.33 232.992 375.57 232.152 375.81C232.147 376.189 232.054 376.562 231.882 376.9C228.542 383.24 228.162 391.04 234.932 395.45C240.642 399.12 247.002 396.83 252.722 394.45C258.772 391.96 264.452 388.79 264.452 381.45Z" fill="#231F20"/>
<path fill-rule="evenodd" clip-rule="evenodd" d="M138.573 441.169C137.11 441.527 135.598 441.875 134.057 442.229C126.979 443.857 119.314 445.62 113.253 449.069C107.513 452.339 106.333 459.379 106.483 465.489C106.643 471.859 109.093 478.629 115.763 480.659C120.703 482.159 126.283 481.239 131.763 479.799C137.763 480.089 143.853 477.429 149.213 474.929C155.293 472.089 160.263 467.839 161.433 460.929C162.433 455.129 161.053 446.779 156.483 442.639C151.513 438.189 144.373 439.789 138.573 441.169ZM113.953 471.169C112.793 469.009 112.673 466.319 112.733 463.919C112.823 460.429 113.343 456.999 115.913 454.819C112.913 461.629 114.983 469.759 120.313 474.879C117.645 474.948 115.171 473.493 113.933 471.129L113.953 471.169ZM125.813 471.519C131.523 475.189 137.883 472.889 143.603 470.519V470.479C149.663 467.959 155.303 464.799 155.333 457.509C155.353 454.369 154.703 450.939 152.703 448.509C150.093 445.419 146.953 445.789 143.153 446.509C137.196 447.738 131.311 449.29 125.523 451.159C124.713 451.409 123.873 451.649 123.033 451.889C123.028 452.265 122.935 452.635 122.763 452.969C119.423 459.319 119.043 467.119 125.813 471.519Z" fill="#231F20"/>
<path fill-rule="evenodd" clip-rule="evenodd" d="M191.933 463.209C197.933 463.499 204.013 460.839 209.383 458.339C215.463 455.499 220.383 451.249 221.593 444.339C222.593 438.539 221.223 430.189 216.653 426.049C211.723 421.579 204.573 423.179 198.783 424.559C197.492 424.867 196.16 425.17 194.805 425.478L194.805 425.478C187.578 427.123 179.67 428.922 173.463 432.459C167.723 435.729 166.533 442.769 166.693 448.879C166.843 455.249 169.293 462.019 175.963 464.049C180.863 465.569 186.443 464.699 191.933 463.209ZM174.163 454.539C173.146 452.266 172.726 449.77 172.943 447.289C173.033 443.799 173.553 440.369 176.123 438.189C173.123 444.999 175.193 453.129 180.513 458.249C177.851 458.329 175.374 456.891 174.123 454.539H174.163ZM183.233 435.209C183.233 435.586 183.14 435.957 182.963 436.289H182.933C179.583 442.639 179.213 450.439 186.023 454.829C191.723 458.549 198.093 456.249 203.803 453.879C209.863 451.379 215.543 448.219 215.543 440.879C215.553 437.739 214.903 434.309 212.903 431.879C210.303 428.739 207.153 429.109 203.353 429.829C197.4 431.059 191.518 432.612 185.733 434.479C184.913 434.729 184.073 434.969 183.233 435.209L183.233 435.209Z" fill="#231F20"/>
<path fill-rule="evenodd" clip-rule="evenodd" d="M212.702 466.29C211.237 466.648 209.722 466.996 208.178 467.351C201.1 468.979 193.432 470.742 187.382 474.19C181.632 477.46 180.452 484.5 180.602 490.61C180.762 496.97 183.212 503.74 189.882 505.77C194.822 507.28 200.402 506.35 205.882 504.92C211.882 505.2 217.972 502.55 223.342 500.04C229.422 497.2 234.342 492.95 235.552 486.04C236.552 480.24 235.182 471.89 230.612 467.74C225.632 463.3 218.492 464.9 212.702 466.29ZM188.082 496.29C186.922 494.13 186.792 491.44 186.852 489.04C186.942 485.55 187.472 482.11 190.042 479.94C187.042 486.75 189.102 494.88 194.432 500C191.832 499.82 189.502 498.91 188.082 496.25V496.29ZM199.942 496.64C205.642 500.3 212.002 498.01 217.722 495.64V495.6C223.782 493.08 229.422 489.92 229.462 482.63C229.472 479.5 228.822 476.07 226.822 473.63C224.272 470.53 221.072 470.9 217.272 471.63C211.319 472.855 205.437 474.404 199.652 476.27L197.152 477.01C197.152 477.386 197.059 477.757 196.882 478.09C193.542 484.44 193.162 492.23 199.942 496.64Z" fill="#231F20"/>
<path fill-rule="evenodd" clip-rule="evenodd" d="M258.932 405.33C257.643 405.637 256.315 405.939 254.963 406.247C247.735 407.892 239.829 409.691 233.612 413.23C227.872 416.5 226.692 423.54 226.842 429.65C227.002 436.01 229.452 442.78 236.112 444.81C241.112 446.32 246.642 445.39 252.112 443.96C258.112 444.24 264.202 441.59 269.562 439.08C275.642 436.24 280.612 431.99 281.782 425.08C282.782 419.28 281.402 410.93 276.782 406.79C271.842 402.35 264.702 403.94 258.932 405.33ZM234.312 435.33C233.152 433.17 233.032 430.48 233.092 428.08C233.182 424.59 233.702 421.15 236.272 418.98C233.272 425.79 235.342 433.92 240.672 439.04C238.042 438.86 235.712 437.95 234.282 435.29L234.312 435.33ZM275.692 421.66C275.712 418.53 275.062 415.1 273.062 412.66L273.032 412.62C270.422 409.48 267.282 409.85 263.562 410.6C257.606 411.825 251.72 413.374 245.932 415.24L243.442 415.98C243.437 416.356 243.345 416.725 243.172 417.06C239.782 423.41 239.402 431.2 246.172 435.61C251.882 439.32 258.242 437.03 263.962 434.66C270.012 432.17 275.692 429.01 275.692 421.66Z" fill="#231F20"/>
</svg>
