<svg width="375" height="582" viewBox="0 0 375 582" fill="none" xmlns="http://www.w3.org/2000/svg">
<path d="M248.991 78.0452C252.281 74.9552 251.491 70.9352 249.781 67.3452C246.781 70.3452 243.861 73.2052 241.131 76.1052C240.341 76.9452 239.571 77.8052 238.791 78.6552C241.971 80.3452 246.671 80.2352 248.991 78.0452Z" fill="#88E0FF"/>
<path fill-rule="evenodd" clip-rule="evenodd" d="M143.431 403.705C132.711 392.415 120.381 381.915 105.431 376.705C97.1631 373.762 88.3393 372.712 79.6113 373.635C84.2982 369.562 88.8179 365.216 93.2851 360.92L93.2853 360.92L93.2856 360.92L93.2859 360.919C96.31 358.011 99.3099 355.126 102.321 352.365L105.911 349.045C111.281 354.595 122.841 355.665 129.441 355.045C138.982 354.037 147.783 349.44 154.061 342.185C160.503 334.541 163.897 324.787 163.591 314.795C163.489 309.269 162.625 303.784 161.021 298.495C160.909 298.118 160.797 297.732 160.682 297.339C159.681 293.902 158.525 289.933 156.281 287.115C163.702 272.352 169.438 256.801 173.381 240.755C176.239 229.558 178.593 218.219 180.943 206.894L180.943 206.894L180.943 206.893L180.943 206.892L181.121 206.035C195.471 211.545 210.791 200.725 214.411 186.545C216.166 178.999 215.221 171.077 211.741 164.155C209.201 158.725 203.011 148.385 196.201 148.005C204.987 124.382 217.939 102.526 234.441 83.4752L234.951 83.9252C239.165 87.1631 244.759 87.9774 249.721 86.0752C259.931 82.1352 260.351 69.9852 255.441 61.7352C266.311 51.0852 277.381 39.7552 283.881 26.5552C283.961 32.2352 284.001 37.9018 284.001 43.5552C284.01 45.2285 283.99 46.9698 283.971 48.7554V48.7558V48.7561V48.7565V48.7568V48.7571V48.7575V48.7578V48.7582C283.895 55.5831 283.813 63.0552 285.231 69.8552C285.811 74.3843 286.498 78.8961 287.185 83.4074V83.4076V83.4077L287.186 83.4097L287.186 83.4102C288.515 92.1356 289.844 100.86 290.391 109.705C291.311 124.555 291.991 140.965 287.921 155.425C284.967 165.914 277.836 174.101 270.766 182.218L270.766 182.218L270.766 182.218L270.766 182.218L270.766 182.219L270.766 182.219L270.765 182.219L270.765 182.219L270.765 182.219L270.765 182.219L270.765 182.219C268.216 185.145 265.676 188.062 263.341 191.075C255.051 201.795 247.841 213.435 243.471 226.325C236.614 246.543 240.218 266.283 243.858 286.222C245.542 295.445 247.234 304.711 247.901 314.085C249.087 328.762 246.267 343.485 239.741 356.685C235.309 365.455 229.145 373.013 222.979 380.572L222.979 380.572C220.687 383.382 218.395 386.192 216.191 389.065C211.86 394.498 208.291 400.497 205.581 406.895C202.621 414.199 201.645 422.028 200.679 429.773L200.581 430.555C199.081 443.095 196.521 456.425 186.581 464.305C175.081 442.2 160.558 421.804 143.431 403.705ZM196.854 395.898C197.747 394.548 198.644 393.191 199.431 391.755H199.391C199.622 391.309 199.509 390.762 199.119 390.445C198.73 390.128 198.171 390.128 197.781 390.445C192.088 396.059 188.928 403.75 189.031 411.745C189.06 413.991 189.277 416.228 189.494 418.465C189.728 420.87 189.961 423.276 189.961 425.695C189.961 430.458 188.637 434.313 187.139 438.678L186.961 439.195C186.861 439.475 187.231 439.775 187.471 439.595C193.001 435.555 192.721 427.025 192.291 420.925C192.227 420.055 192.152 419.182 192.077 418.307C191.694 413.852 191.307 409.347 192.351 404.925C193.149 401.499 194.992 398.712 196.854 395.898ZM206.611 380.485C205.635 381.463 204.507 382.277 203.271 382.895C202.966 383.038 202.603 382.924 202.434 382.633C202.265 382.341 202.346 381.969 202.621 381.775C203.669 381.039 204.594 380.141 205.361 379.115C205.57 378.837 205.759 378.504 205.952 378.165C206.341 377.481 206.746 376.77 207.361 376.415C207.606 376.278 207.905 376.28 208.148 376.419C208.392 376.558 208.545 376.815 208.551 377.095C208.641 378.255 207.321 379.695 206.571 380.485H206.611ZM221.451 358.355C221.171 358.735 221.771 359.165 222.081 358.845C233.041 347.905 240.401 328.955 235.981 313.565C235.867 313.229 235.53 313.021 235.179 313.069C234.827 313.118 234.559 313.41 234.541 313.765C234.504 314.826 234.473 315.882 234.443 316.932C234.242 323.814 234.047 330.498 232.121 337.265C229.84 344.871 226.227 352.011 221.451 358.355ZM275.171 83.5052C280.381 96.0152 283.101 110.815 283.501 124.345C283.801 134.895 283.081 149.745 275.781 158.125C275.521 158.425 275.111 158.125 275.171 157.765C275.698 155.021 276.526 152.36 277.355 149.694C278.306 146.637 279.259 143.575 279.761 140.375C280.652 134.5 280.911 128.546 280.531 122.615C280.053 114.571 278.257 106.887 276.458 99.1865C275.286 94.174 274.114 89.1548 273.301 84.0252C273.289 83.566 273.59 83.1572 274.033 83.0341C274.476 82.911 274.945 83.1053 275.171 83.5052ZM261.141 176.795C264.491 174.465 268.421 170.885 268.231 166.395C268.211 165.935 267.581 165.565 267.231 165.975C266.134 167.299 265.272 168.769 264.409 170.24L264.409 170.24C263.258 172.202 262.105 174.167 260.391 175.795C259.881 176.285 260.551 177.205 261.141 176.795ZM239.231 129.205C240.481 120.655 253.971 118.205 259.691 123.795C265.931 129.935 266.691 143.505 259.611 149.255C252.531 155.005 241.611 150.255 238.891 142.125C237.539 137.904 237.659 133.349 239.231 129.205ZM245.331 193.905C242.608 195.572 240.153 197.642 238.051 200.045C233.351 205.935 230.771 214.215 229.581 221.555C229.544 221.744 229.658 221.931 229.844 221.983C230.03 222.035 230.224 221.936 230.291 221.755C230.413 221.41 230.534 221.061 230.657 220.711C233.513 212.539 236.77 203.222 243.971 198.015C244.873 197.362 245.896 196.72 246.954 196.056L246.955 196.056C250.743 193.678 254.978 191.019 255.681 186.595C255.743 186.147 255.496 185.713 255.079 185.538C254.662 185.362 254.179 185.488 253.901 185.845C251.529 189.004 248.63 191.73 245.331 193.905ZM201.051 244.785C201.343 244.676 201.667 244.698 201.941 244.845C210.581 241.405 222.071 244.585 226.941 253.295C233.801 265.675 233.841 285.735 220.881 294.295C207.391 303.165 190.641 293.295 186.291 279.295C182.351 266.755 187.731 249.305 201.001 244.785H201.051ZM196.831 329.225H196.771H196.721C178.991 323.225 172.281 353.305 189.731 358.225C206.531 363.045 210.131 332.135 196.831 329.225Z" fill="#2B3990"/>
<path d="M127.903 347.575C135.929 346.732 143.308 342.785 148.463 336.575C154.133 329.755 156.083 320.935 155.463 312.235C155.125 308.031 154.33 303.877 153.093 299.845C152.703 298.535 152.143 297.185 151.583 295.845C146.682 304.27 141.068 312.259 134.803 319.725C127.286 328.478 119.273 336.791 110.803 344.625C112.67 345.423 114.579 346.118 116.523 346.705C120.235 347.662 124.088 347.956 127.903 347.575Z" fill="#88E0FF"/>
<path d="M207.272 183.165C208.452 177.015 206.722 170.685 203.683 165.325C202.03 162.415 200.014 159.726 197.682 157.325C196.441 156.205 195.312 154.966 194.312 153.625C189.312 168.625 185.812 184.065 182.562 199.535C188.052 199.155 193.562 200.295 198.562 196.955C203.212 193.905 206.232 188.585 207.272 183.165Z" fill="#88E0FF"/>
<path d="M195.141 349.945C197.971 347.735 198.051 342.545 197.141 339.485C196.451 337.195 195.071 335.235 194.011 333.115C190.011 334.205 186.781 338.645 186.491 342.655C186.201 346.665 190.301 353.735 195.141 349.945Z" fill="#88E0FF"/>
<path d="M215.692 288.395C225.692 282.945 224.852 267.395 220.852 258.475C218.292 252.765 213.852 250.475 207.702 250.825C204.332 250.901 200.992 251.477 197.792 252.535C193.492 258.745 190.722 265.655 192.262 273.695C194.222 283.895 204.902 294.235 215.692 288.395Z" fill="#88E0FF"/>
<path d="M255.802 142.705C258.322 139.475 257.802 131.705 254.572 128.915C250.962 125.815 247.622 129.425 244.302 131.535C243.856 134.085 244.024 136.704 244.792 139.175C246.352 143.315 252.332 147.145 255.802 142.705Z" fill="#88E0FF"/>
<path fill-rule="evenodd" clip-rule="evenodd" d="M320.901 122.125C319.806 111.545 320.646 100.854 323.381 90.5752C323.425 90.5459 323.469 90.5274 323.525 90.5038C323.545 90.4952 323.567 90.4859 323.591 90.4752C336.731 81.7252 342.141 99.0052 344.331 109.105L344.343 109.16C346.697 120.035 351.153 140.628 340.171 148.325C325.811 158.365 321.771 130.425 320.901 122.125ZM343.121 118.975C342.12 110.347 338.074 102.358 331.711 96.4452C330.111 94.9052 327.391 96.8452 328.581 98.8752C332.452 105.403 334.842 112.702 335.581 120.255C335.934 124.222 335.329 128.023 334.724 131.827C334.229 134.936 333.734 138.048 333.761 141.255C333.785 142.144 334.33 142.935 335.151 143.275C335.973 143.614 336.917 143.438 337.561 142.825C343.841 137.135 344.121 126.815 343.121 118.975Z" fill="#88E0FF"/>
<path fill-rule="evenodd" clip-rule="evenodd" d="M361.571 208.455C365.521 214.095 365.751 221.705 365.901 228.335C366.192 235.087 365.597 241.848 364.131 248.445C362.701 254.305 359.571 263.875 353.651 266.765C347.191 269.915 342.671 258.095 341.191 253.765C339.201 247.929 338.25 241.79 338.381 235.625C338.725 224.35 342.107 213.377 348.171 203.865C353.341 203.055 358.041 203.455 361.571 208.455ZM351.701 246.835C351.871 249.955 355.501 250.655 357.241 248.335L357.231 248.375C361.081 243.225 361.571 235.015 360.961 228.845C360.623 222.945 358.027 217.402 353.711 213.365C352.361 212.135 349.481 213.365 350.311 215.365C352.353 220.138 353.466 225.256 353.591 230.445C353.61 233.079 353.118 235.677 352.628 238.265C352.087 241.121 351.549 243.966 351.701 246.835Z" fill="#88E0FF"/>
<path fill-rule="evenodd" clip-rule="evenodd" d="M323.473 393.765C323.943 394.573 324.923 394.93 325.803 394.615C334.763 399.745 324.723 421.775 321.253 427.765C317.783 433.755 300.363 457.795 292.463 448.855C288.183 444.015 290.023 435.005 291.523 429.345C292.986 423.887 295.352 418.712 298.523 414.035C301.953 409.003 306.21 404.587 311.113 400.975C314.764 398.168 318.659 395.695 322.753 393.585C322.859 393.627 322.97 393.657 323.083 393.675C323.144 393.684 323.201 393.702 323.257 393.72C323.329 393.743 323.399 393.765 323.473 393.765ZM319.563 424.955C324.593 418.875 330.493 410.055 328.193 401.875V401.845C328.017 401.266 327.551 400.82 326.964 400.671C326.377 400.521 325.754 400.69 325.323 401.115C322.628 404.046 320.827 407.615 319.018 411.201C317.524 414.162 316.025 417.133 314.013 419.765C309.123 426.185 302.613 431.165 295.963 435.625C295.179 436.126 294.87 437.118 295.231 437.975C295.592 438.832 296.517 439.305 297.423 439.095C306.293 437.225 313.823 431.855 319.563 424.955Z" fill="#88E0FF"/>
<path d="M180.413 472.905C168.457 448.762 152.794 426.641 133.993 407.345C124.523 397.705 113.803 388.535 100.773 384.205C89.4428 380.425 68.2828 378.775 62.7728 392.615C57.4028 406.025 60.9328 423.085 65.4528 436.195C70.1828 449.945 78.5028 461.685 84.6528 474.655C86.8128 472.905 88.9728 471.155 91.1528 469.435C95.4328 466.055 99.7128 462.435 104.153 459.215C98.2028 453.145 94.1528 444.985 90.9628 437.305C87.7728 429.625 81.0428 415.185 87.1928 407.635C91.5928 402.225 99.7628 402.865 105.503 405.565C114.503 409.825 121.113 418.185 127.293 425.735C140.293 441.615 152.293 458.465 161.003 477.145C165.373 486.392 168.772 496.067 171.143 506.015C172.843 513.365 174.263 523.475 163.913 524.425C155.083 525.245 147.573 515.525 142.403 509.675C136.183 502.853 130.869 495.257 126.593 487.075L120.023 493.675C116.309 497.409 112.616 501.149 108.943 504.895C121.593 516.365 133.883 529.175 148.153 538.575C160.243 546.575 177.413 553.085 191.243 545.465C204.893 537.965 199.323 522.315 195.593 510.465C191.535 497.563 186.459 485.004 180.413 472.905Z" fill="#27AAE1"/>
<path d="M132.521 481.115C137.041 488.525 141.521 495.815 147.201 502.435C149.994 505.688 152.962 508.786 156.091 511.715C157.491 513.025 159.161 514.885 160.991 515.595C164.151 516.825 164.281 515.145 163.881 512.405C159.411 482.075 139.941 453.925 121.221 430.575C116.381 424.575 111.451 418.145 104.911 413.835C102.341 412.145 99.1014 410.555 95.9114 411.035C91.3614 411.725 92.2514 416.035 93.0614 419.605C94.8013 427.09 97.4335 434.338 100.901 441.195C103.401 446.195 106.571 450.845 109.271 455.725L110.791 454.775C116.031 451.635 121.671 449.825 127.281 452.015C127.91 451.96 128.537 452.131 129.051 452.495C135.551 456.965 142.911 463.655 139.631 472.495C138.311 475.905 135.181 478.565 132.521 481.115Z" fill="#88E0FF"/>
<path fill-rule="evenodd" clip-rule="evenodd" d="M348.528 279.939C348.957 280.921 349.382 281.891 349.723 282.845C351.618 288.362 352.945 294.058 353.683 299.845C355.052 311.002 354.51 322.31 352.083 333.285C349.595 344.235 345.642 354.8 340.333 364.695C337.694 369.68 334.796 374.523 331.653 379.205C330.862 380.383 329.996 381.547 329.123 382.72C327.719 384.605 326.299 386.513 325.153 388.535C324.479 388.567 323.81 388.658 323.153 388.805C322.876 388.87 322.614 388.989 322.383 389.155C317.383 390.275 312.863 391.615 308.273 394.615C302.898 398.162 298.164 402.595 294.273 407.725C286.753 417.545 281.353 430.925 282.753 443.475C283.016 445.973 283.72 448.404 284.833 450.655C284.615 450.739 284.405 450.839 284.203 450.955C279.871 453.493 276.603 458.19 273.714 462.341C273.495 462.656 273.278 462.968 273.063 463.275C269.712 468.176 266.673 473.283 263.963 478.565C262.106 482.099 260.331 485.681 258.556 489.264C255.112 496.215 251.668 503.166 247.623 509.765C241.374 520.128 233.071 529.103 223.223 536.135C218.533 539.417 213.56 542.275 208.363 544.675C207.003 545.315 205.583 545.875 204.133 546.405C208.239 541.196 210.158 534.594 209.483 527.995C208.116 512.828 201.542 497.333 195.641 483.427L195.603 483.335C193.756 479.002 191.796 474.715 189.723 470.475C197.503 466.275 202.413 457.605 205.053 449.205C206.946 443.195 207.757 436.977 208.565 430.777C209.745 421.718 210.921 412.697 215.463 404.415C219.554 396.946 225.073 390.494 230.592 384.044C233.895 380.183 237.197 376.323 240.193 372.245C248.64 360.662 254.086 347.167 256.043 332.965C258.163 317.64 255.249 302.559 252.34 287.508C249.281 271.681 246.229 255.887 249.043 239.875C251.593 225.405 258.713 212.245 267.243 200.465C270.291 196.255 273.775 192.273 277.268 188.28C283.548 181.101 289.857 173.889 293.713 165.265C300.543 150.065 300.153 131.725 299.433 115.405C298.813 101.225 297.453 86.3652 293.263 72.5852C293.102 70.6518 292.855 68.7209 292.608 66.7924C292.349 64.7707 292.091 62.7516 291.933 60.7352C291.54 55.9503 291.376 51.1484 291.211 46.3466L291.211 46.3423C291.157 44.783 291.104 43.2238 291.043 41.6652C290.856 36.8785 290.679 32.0852 290.513 27.2852C292.951 33.1636 296.503 38.5151 300.973 43.0452C301.652 43.7457 302.333 44.4412 303.013 45.1352L303.013 45.1361C307.474 49.692 311.872 54.183 315.343 59.6152C318.881 65.1415 320.846 70.8945 322.89 76.8739C323.312 78.1113 323.739 79.3584 324.183 80.6152L323.993 80.6852C323.079 80.5183 322.147 80.8635 321.563 81.5852C321.349 81.8585 321.154 82.1406 320.958 82.4228C320.86 82.564 320.763 82.7051 320.663 82.8452C319.834 83.6506 319.169 84.6081 318.703 85.6652C318.663 85.7518 318.632 85.8473 318.6 85.9429C318.585 85.9907 318.569 86.0385 318.553 86.0852C312.293 97.0852 311.393 110.505 312.473 123.005C313.533 135.345 315.753 153.045 329.333 157.935C330.883 158.497 332.507 158.833 334.153 158.935C333.486 162.822 333.804 167.117 334.095 171.037V171.037V171.037V171.037V171.037L334.096 171.043L334.096 171.046C334.136 171.59 334.176 172.127 334.213 172.655C334.583 178.064 335.251 183.449 336.213 188.785C336.247 188.972 336.29 189.231 336.344 189.55C336.872 192.698 338.377 201.664 341.383 204.125C335.084 212.4 331.35 222.34 330.643 232.715C329.623 245.205 332.233 260.825 341.133 270.275C342.66 271.919 344.504 273.239 346.553 274.155C346.849 276.1 347.698 278.04 348.528 279.939ZM228.084 518.984C228.305 519.205 228.656 519.227 228.903 519.035C238.833 509.895 248.343 494.845 248.703 480.965C248.733 479.885 247.263 479.815 246.923 480.725C245.964 483.224 245.165 485.746 244.367 488.262C243.053 492.41 241.743 496.541 239.733 500.525C236.463 506.8 232.541 512.712 228.033 518.165C227.841 518.412 227.863 518.763 228.084 518.984ZM262.473 464.845C261.766 465.812 261.113 466.823 260.459 467.834C260.133 468.34 259.806 468.845 259.473 469.345C259.093 469.955 258.023 469.565 258.273 468.845C258.903 467.09 259.732 465.412 260.743 463.845C260.847 463.685 260.954 463.514 261.065 463.338C261.807 462.154 262.72 460.697 264.043 460.375C264.413 460.285 264.903 460.555 264.853 460.985C264.748 462.141 263.944 463.083 263.186 463.971C262.934 464.266 262.687 464.556 262.473 464.845ZM292.163 402.645C304.703 392.655 312.413 376.315 314.003 360.545C314.922 352.082 313.601 343.527 310.173 335.735C307.103 328.885 301.413 320.595 292.893 322.075C292.558 322.13 292.236 322.246 291.943 322.415C279.703 324.075 268.683 338.245 262.803 347.415C254.333 360.635 246.783 380.025 253.433 395.415C260.453 411.645 279.313 412.875 292.163 402.645ZM313.333 266.675C308.993 273.075 302.993 280.205 294.873 281.325C286.753 282.445 279.663 277.045 275.063 270.895C265.293 257.845 265.913 239.585 269.553 224.475C272.473 212.335 280.963 191.575 295.743 191.685C302.533 189.585 309.743 188.795 315.173 194.445C320.983 200.505 322.713 209.925 323.783 217.925C326.003 234.605 322.903 252.615 313.333 266.675ZM336.824 346.247C337.215 346.411 337.668 346.31 337.953 345.995C346.963 330.035 352.143 305.935 340.263 290.005C339.953 289.585 339.163 289.805 339.353 290.395C342.273 299.315 344.933 307.715 344.063 317.315C343.475 323.752 341.405 329.681 339.323 335.643C338.215 338.814 337.105 341.995 336.213 345.265C336.187 345.689 336.433 346.082 336.824 346.247Z" fill="#27AAE1"/>
<path d="M123.372 480.525C126.302 477.585 132.732 473.195 133.182 468.765C133.582 464.855 130.122 461.585 127.082 459.095C126.893 459.069 126.706 459.029 126.522 458.975C121.292 457.305 116.062 459.755 111.352 462.975C111.123 463.276 110.804 463.496 110.442 463.605C107.712 465.605 105.172 467.725 102.912 469.415C95.6856 474.822 88.5822 480.409 81.6022 486.175C78.2422 488.955 74.9022 491.755 71.6022 494.625C68.8522 497.015 66.1522 500.365 62.6922 501.715C55.9022 504.405 48.8322 497.845 42.6022 495.845C29.4122 491.745 8.17224 496.175 8.40224 513.615C8.65224 533.945 35.4722 530.095 47.8022 524.215C50.7322 522.825 55.3222 526.025 52.8022 529.265C47.4522 536.265 41.4522 543.825 39.8022 552.735C38.4322 560.175 40.4622 569.055 47.9422 572.445C65.9422 580.585 77.7122 558.955 80.2122 544.685C80.9539 539.992 81.4413 535.261 81.6722 530.515C81.9022 527.045 81.7522 523.375 83.6722 520.335C85.5922 517.295 88.9322 514.675 91.5522 512.055C95.2222 508.385 98.9322 504.755 102.622 501.105C109.642 494.315 116.502 487.415 123.372 480.525Z" fill="white"/>
<path fill-rule="evenodd" clip-rule="evenodd" d="M292.621 328.085L292.901 328.205C307.711 332.845 307.481 356.445 304.231 368.465C300.651 381.735 289.441 402.075 273.311 401.295C264.061 400.855 259.421 392.115 259.191 383.745C258.961 375.575 261.721 367.035 265.081 359.645C268.2 352.775 272.341 346.417 277.361 340.785C281.381 336.285 286.621 330.485 292.621 328.085ZM301.56 363.673C303.065 359.248 304.739 354.329 303.791 349.705H303.781C303.371 347.705 300.331 346.785 299.011 348.435C296.926 350.999 296.084 354.017 295.219 357.116C295.035 357.777 294.85 358.441 294.651 359.105C293.473 363.298 291.861 367.357 289.841 371.215C287.69 374.991 284.964 378.408 281.761 381.345C281.096 381.983 280.414 382.685 279.713 383.406C277.326 385.862 274.714 388.549 271.761 389.755C269.901 390.505 269.861 393.835 272.281 393.625C281.371 392.825 289.741 385.175 294.811 377.925C297.61 373.751 299.798 369.198 301.311 364.405C301.393 364.163 301.476 363.919 301.56 363.673Z" fill="#88E0FF"/>
<path fill-rule="evenodd" clip-rule="evenodd" d="M299.822 198.548C304.01 197.733 307.986 196.958 311.041 201.845C314.961 208.045 315.781 216.845 316.131 224.135C316.941 240.205 312.591 257.895 300.591 269.345C296.921 272.845 292.821 274.585 288.021 271.975C284.301 269.955 281.491 266.375 279.491 262.705C275.841 255.895 274.991 247.875 275.321 240.265C275.71 231.691 277.528 223.241 280.701 215.265C282.951 209.705 286.501 202.705 291.751 198.705C294.404 199.604 297.156 199.068 299.822 198.548ZM295.571 263.685C304.331 257.765 309.101 244.395 310.621 234.395V234.355C312.411 222.615 309.201 212.845 302.191 203.555C301.011 201.995 298.111 202.795 298.771 204.995C298.913 205.469 299.055 205.941 299.197 206.412C301.953 215.558 304.574 224.254 302.491 233.945C301.402 238.78 299.698 243.454 297.421 247.855C296.915 248.857 296.376 249.845 295.837 250.833C294.122 253.979 292.408 257.124 291.731 260.685C291.341 262.775 293.571 265.065 295.571 263.685Z" fill="#88E0FF"/>
<path d="M335.582 120.235C336.222 127.465 333.702 134.125 333.762 141.235C333.785 142.124 334.33 142.915 335.152 143.255C335.973 143.594 336.918 143.418 337.562 142.805C343.842 137.115 344.112 126.805 343.122 118.955C342.12 110.327 338.075 102.338 331.712 96.4253C330.112 94.8853 327.392 96.8553 328.582 98.8353C332.455 105.369 334.845 112.675 335.582 120.235Z" fill="#231F20"/>
<path fill-rule="evenodd" clip-rule="evenodd" d="M295.742 191.685C302.532 189.585 309.772 188.795 315.172 194.445C320.982 200.505 322.712 209.925 323.782 217.925C326.002 234.605 322.892 252.615 313.332 266.675C308.992 273.075 302.962 280.205 294.872 281.325C286.782 282.445 279.662 277.045 275.062 270.895C265.292 257.845 265.912 239.585 269.552 224.475C272.472 212.335 280.962 191.575 295.742 191.685ZM288.022 271.905C292.822 274.515 296.922 272.775 300.592 269.275C312.572 257.845 316.902 240.135 316.132 224.035C315.782 216.855 314.962 208.015 311.042 201.775C307.968 196.868 303.994 197.649 299.811 198.471C297.15 198.994 294.404 199.533 291.752 198.635C286.502 202.655 282.952 209.585 280.702 215.195C277.529 223.171 275.711 231.62 275.322 240.195C274.992 247.805 275.842 255.825 279.492 262.635C281.462 266.305 284.302 269.905 288.022 271.905Z" fill="#231F20"/>
<path d="M298.771 204.995C301.671 214.665 304.681 223.755 302.491 233.945C301.401 238.776 299.697 243.447 297.421 247.845C295.301 252.035 292.621 255.995 291.731 260.675C291.341 262.725 293.531 265.015 295.571 263.675C304.331 257.755 309.101 244.415 310.621 234.385C312.411 222.645 309.201 212.915 302.191 203.585C301.011 201.975 298.111 202.845 298.771 204.995Z" fill="#231F20"/>
<path d="M353.702 213.425C352.352 212.175 349.472 213.425 350.302 215.425C352.343 220.198 353.457 225.316 353.582 230.505C353.582 236.045 351.402 241.425 351.692 246.895C351.862 250.015 355.492 250.715 357.232 248.395C361.082 243.245 361.572 235.035 360.962 228.835C360.603 222.959 358.005 217.443 353.702 213.425Z" fill="#231F20"/>
<path fill-rule="evenodd" clip-rule="evenodd" d="M291.952 322.405C292.246 322.236 292.568 322.121 292.902 322.065C301.412 320.585 307.102 328.845 310.182 335.715C313.612 343.51 314.933 352.069 314.012 360.535C312.422 376.305 304.712 392.635 292.172 402.635C279.322 412.865 260.442 411.645 253.442 395.405C246.812 380.015 254.342 360.625 262.812 347.405C268.692 338.245 279.712 324.075 291.952 322.405ZM273.312 401.295C289.442 402.075 300.652 381.735 304.232 368.465H304.222C307.482 356.445 307.712 332.845 292.902 328.205L292.622 328.085C286.592 330.485 281.362 336.285 277.362 340.785C272.342 346.417 268.201 352.776 265.082 359.645C261.722 367.035 258.962 375.575 259.192 383.745C259.422 392.115 264.062 400.855 273.312 401.295Z" fill="#231F20"/>
<path d="M289.813 371.215C287.662 374.991 284.936 378.408 281.733 381.345C278.823 384.155 275.573 388.195 271.733 389.755C269.873 390.505 269.833 393.835 272.253 393.625C281.343 392.825 289.713 385.175 294.783 377.925C297.581 373.751 299.77 369.198 301.283 364.405C302.843 359.795 304.773 354.585 303.763 349.705C303.353 347.705 300.313 346.785 298.963 348.435C296.433 351.545 295.733 355.325 294.603 359.105C293.431 363.297 291.826 367.356 289.813 371.215Z" fill="#231F20"/>
<path fill-rule="evenodd" clip-rule="evenodd" d="M372.362 213.945C375.562 227.435 374.792 244.245 369.792 257.185C367.422 263.255 363.642 270.405 357.742 273.725C356.914 274.192 356.035 274.561 355.122 274.825C355.82 276.342 356.378 277.955 356.874 279.392C356.956 279.628 357.036 279.86 357.115 280.085C357.195 280.315 357.274 280.539 357.352 280.755C359.369 286.377 360.767 292.201 361.522 298.125C363.08 309.977 362.494 322.011 359.792 333.655C357.054 345.183 352.715 356.271 346.902 366.595C343.901 372.023 340.592 377.275 336.992 382.325C336.539 382.959 336.084 383.613 335.623 384.278L335.622 384.279L335.622 384.279C334.27 386.226 332.86 388.256 331.272 390.075C334.242 392.116 336.25 395.28 336.832 398.835C338.172 405.885 335.762 413.925 333.242 420.455C328.463 432.991 320.355 443.985 309.792 452.255C304.752 456.175 299.012 460.215 292.412 457.725C291.313 457.318 290.277 456.759 289.332 456.065C287.646 458.917 285.488 461.501 283.324 464.093L283.324 464.093L283.324 464.094L283.323 464.094L283.323 464.094L283.323 464.095L283.323 464.095L283.323 464.095L283.322 464.095L283.322 464.096L283.322 464.096L283.322 464.096C281.366 466.439 279.405 468.787 277.782 471.345C274.602 476.385 271.812 481.665 269.132 486.985C268.148 488.933 267.178 490.889 266.207 492.846L266.207 492.847C261.616 502.105 257.019 511.377 250.902 519.755C243.747 529.584 234.738 537.917 224.382 544.285C215.712 549.605 203.022 556.395 192.442 555.085C190.429 555.92 188.339 556.557 186.202 556.985C156.477 562.985 131.592 538.417 111.183 518.266L111.18 518.263C108.493 515.611 105.884 513.035 103.352 510.615L99.5719 514.475C98.7973 515.247 97.8059 516.1 96.7444 517.012L96.7386 517.018L96.7357 517.02L96.7342 517.021L96.7303 517.024L96.7279 517.026L96.7266 517.028C93.8041 519.539 90.3573 522.502 89.4419 525.475C88.6649 527.954 88.6384 530.998 88.613 533.918C88.5988 535.545 88.585 537.134 88.4419 538.565C86.9619 553.535 82.1819 570.625 67.7819 578.175C55.7319 584.495 39.5819 581.175 34.0719 567.895C29.2119 556.225 33.5519 544.895 39.8919 534.895C27.7919 538.055 13.7619 538.065 5.8919 528.335C-1.9781 518.605 -0.198096 504.385 8.4319 495.825C18.6119 485.725 34.0619 484.695 46.9919 489.535C48.8883 490.243 50.7474 491.048 52.5619 491.945C53.0797 492.203 53.6745 492.584 54.3041 492.988C55.705 493.886 57.2786 494.895 58.5619 494.895C61.8474 494.895 65.2099 491.58 67.9524 488.876C68.7741 488.065 69.5402 487.31 70.2319 486.715C73.3786 483.982 76.5586 481.282 79.7719 478.615C68.3805 464.39 60.0774 447.947 55.3919 430.335C52.7665 420.815 51.909 410.895 52.8619 401.065C53.7219 393.375 55.6119 385.585 61.9819 380.585C62.8558 379.908 63.7673 379.28 64.7119 378.705C68.9602 373.568 73.8442 368.942 78.6893 364.353L78.6952 364.348C79.5163 363.57 80.3363 362.793 81.1519 362.015C82.7681 360.476 84.3861 358.938 86.0043 357.4L86.0164 357.388L86.0286 357.377C90.9204 352.727 95.8137 348.076 100.662 343.385C113.092 331.375 125.432 318.975 135.662 305.035C157.464 275.297 164.743 240.379 172.049 205.33C176.794 182.57 181.55 159.754 190.302 138.265C201.433 111.383 217.673 86.9141 238.122 66.2153C240.549 63.7342 243.019 61.2755 245.493 58.8143L245.493 58.8142L245.493 58.8141L245.493 58.8136L245.494 58.8131L245.494 58.8126L245.495 58.8121L245.495 58.8116L245.496 58.8111L245.496 58.8106L245.497 58.8097C261.753 42.6326 278.117 26.3479 282.882 2.91527C283.712 -0.98473 289.782 0.00527006 289.712 3.84527C289.692 4.76527 289.642 5.67527 289.582 6.58527C291.722 13.4353 294.122 20.6353 297.722 26.7553C300.768 31.8874 305.009 35.9688 309.258 40.0576L309.259 40.0577C310.366 41.1235 311.474 42.1898 312.562 43.2753C322.032 52.6953 330.552 66.1053 332.032 79.6953C332.827 79.7823 333.616 79.9226 334.392 80.1153C340.932 81.7753 345.502 87.0553 348.232 92.9953C351.412 99.9253 353.052 107.875 354.142 115.235C355.232 122.595 356.142 130.225 355.142 137.655C354.042 145.945 348.772 154.625 341.222 157.785C341.942 161.796 341.907 166.07 341.872 170.319V170.32V170.32V170.321V170.321V170.322V170.322V170.322V170.323V170.323V170.324C341.847 173.393 341.822 176.45 342.082 179.385C342.472 183.825 343.062 188.265 343.822 192.665C343.963 193.492 344.035 194.523 344.112 195.637C344.167 196.422 344.225 197.248 344.312 198.075C348.072 194.445 354.702 194.945 359.362 196.945C366.492 199.945 370.622 206.635 372.362 213.945ZM344.315 109.211L344.292 109.105C342.102 99.0053 336.692 81.7253 323.552 90.4753L323.543 90.4827L323.527 90.496C323.482 90.5331 323.432 90.5753 323.382 90.5753C320.633 100.852 319.78 111.543 320.862 122.125C321.732 130.425 325.772 158.325 340.132 148.325C351.116 140.64 346.671 120.099 344.315 109.211ZM241.132 76.1053C243.862 73.2053 246.782 70.2953 249.782 67.3453C251.492 70.9353 252.282 74.9553 248.992 78.0453C246.672 80.2353 241.992 80.3453 238.792 78.6553C239.222 78.2085 239.649 77.7343 240.078 77.258C240.427 76.8707 240.778 76.4819 241.132 76.1053ZM197.652 157.355C196.41 156.235 195.281 154.996 194.282 153.655C189.272 168.675 185.782 184.095 182.522 199.595C183.908 199.499 185.294 199.5 186.673 199.502C190.737 199.505 194.744 199.509 198.522 197.015C203.182 193.935 206.242 188.615 207.242 183.195C208.422 177.045 206.652 170.715 203.652 165.355C202 162.445 199.983 159.756 197.652 157.355ZM134.802 319.655C141.064 312.212 146.678 304.246 151.582 295.845L151.674 296.07C152.203 297.363 152.723 298.635 153.092 299.845C154.35 303.895 155.162 308.069 155.512 312.295C156.112 320.995 154.162 329.815 148.512 336.635C143.357 342.845 135.978 346.792 127.952 347.635C124.131 348.001 120.275 347.69 116.562 346.715C114.618 346.128 112.709 345.433 110.842 344.635C119.3 336.781 127.3 328.447 134.802 319.675V319.655ZM105.952 349.125L102.362 352.445C99.1024 355.434 95.8562 358.56 92.5825 361.713L92.5812 361.714C88.363 365.776 84.099 369.882 79.7019 373.795C88.4115 372.856 97.2207 373.881 105.482 376.795C120.412 381.965 132.742 392.465 143.482 403.795C160.608 421.894 175.131 442.29 186.632 464.395C196.532 456.515 199.092 443.185 200.632 430.645L200.711 430.011L200.711 430.01C201.684 422.199 202.662 414.336 205.632 406.985C208.341 400.587 211.911 394.589 216.242 389.155C218.44 386.29 220.726 383.484 223.013 380.678C229.184 373.105 235.356 365.531 239.792 356.775C246.321 343.563 249.138 328.824 247.942 314.135C247.275 304.762 245.586 295.498 243.906 286.276C240.272 266.336 236.674 246.594 243.512 226.375C247.882 213.485 255.092 201.845 263.382 191.125C265.719 188.109 268.264 185.189 270.817 182.26C277.889 174.145 285.023 165.96 287.962 155.475C292.032 141.015 291.352 124.605 290.432 109.755C289.885 100.909 288.556 92.1852 287.226 83.4594C286.539 78.9475 285.851 74.4351 285.272 69.9053C283.818 62.9364 283.914 55.2617 284.002 48.301V48.3006C284.022 46.6915 284.042 45.1205 284.042 43.6053C284.015 37.9319 283.975 32.2653 283.922 26.6053C277.422 39.7853 266.352 51.1353 255.482 61.7853C260.392 70.0353 259.972 82.1853 249.762 86.1253C244.8 88.0275 239.206 87.2132 234.992 83.9753L234.482 83.5253C217.979 102.576 205.028 124.432 196.242 148.055C203.052 148.435 209.192 158.775 211.782 164.205C215.262 171.127 216.206 179.049 214.452 186.595C210.832 200.775 195.512 211.545 181.162 206.085L180.984 206.941L180.984 206.942C178.634 218.267 176.28 229.608 173.422 240.805C169.478 256.851 163.742 272.402 156.322 287.165C158.565 289.983 159.721 293.952 160.723 297.389C160.837 297.782 160.95 298.168 161.062 298.545C162.665 303.834 163.53 309.319 163.632 314.845C163.945 324.848 160.551 334.613 154.102 342.265C147.824 349.52 139.023 354.117 129.482 355.125C122.882 355.695 111.322 354.625 105.952 349.125ZM102.722 501.145C101.492 502.362 100.26 503.576 99.0286 504.79C96.5638 507.219 94.099 509.648 91.6519 512.095C90.9246 512.823 90.1496 513.543 89.3661 514.271C87.3271 516.166 85.2312 518.114 83.7719 520.375C82.0715 523.01 81.9584 525.964 81.8458 528.902C81.8247 529.455 81.8035 530.006 81.7719 530.555C81.541 535.301 81.0536 540.032 80.3119 544.725C77.8119 558.995 66.0719 580.625 48.0419 572.485C40.5619 569.095 38.5319 560.215 39.9019 552.775C41.4651 544.23 47.0478 536.945 52.2393 530.171L52.4973 529.834C52.6325 529.657 52.7674 529.481 52.9019 529.305C55.3719 526.065 50.7819 522.865 47.9019 524.255C35.5719 530.135 8.7519 533.985 8.5019 513.655C8.2719 496.215 29.5019 491.785 42.7019 495.885C44.6692 496.498 46.7232 497.573 48.8262 498.674C53.383 501.059 58.1697 503.565 62.8019 501.745C65.33 500.759 67.4523 498.705 69.4849 496.738L69.4855 496.737C70.2345 496.012 70.9714 495.299 71.7119 494.655C75.0019 491.785 78.3419 488.985 81.7119 486.205C88.6786 480.445 95.7819 474.859 103.022 469.445C103.958 468.745 104.942 467.965 105.967 467.152L105.967 467.151C107.418 466.001 108.952 464.784 110.552 463.635C110.914 463.526 111.232 463.306 111.462 463.005C116.172 459.755 121.402 457.305 126.632 459.005C126.815 459.059 127.003 459.099 127.192 459.125C130.192 461.615 133.692 464.885 133.292 468.795C132.947 472.188 129.095 475.557 125.994 478.27L125.994 478.27L125.992 478.271C125.045 479.1 124.168 479.867 123.482 480.555C119.633 484.338 115.821 488.132 112.016 491.92C108.919 495.003 105.827 498.081 102.722 501.145ZM127.252 452.015C127.88 451.96 128.507 452.13 129.022 452.495C135.522 456.965 142.902 463.655 139.592 472.445C138.452 475.503 135.875 477.936 133.455 480.22C133.137 480.521 132.821 480.819 132.512 481.115C137.032 488.525 141.502 495.815 147.192 502.435C149.984 505.688 152.952 508.786 156.082 511.715C156.332 511.949 156.591 512.201 156.858 512.461L156.863 512.466L156.865 512.468C158.09 513.659 159.482 515.013 160.982 515.595C164.142 516.825 164.272 515.145 163.872 512.405C159.402 482.075 139.932 453.925 121.212 430.575C121.057 430.382 120.902 430.189 120.747 429.995L120.399 429.56L120.378 429.534L120.353 429.503C115.784 423.796 111.055 417.891 104.902 413.835C102.342 412.145 99.1019 410.555 95.9019 411.035C91.3519 411.725 92.2419 416.035 93.0519 419.605C94.7854 427.089 97.4108 434.337 100.872 441.195C102.353 444.163 104.069 447.001 105.783 449.835C106.962 451.786 108.141 453.736 109.242 455.725L110.762 454.775C116.002 451.635 121.642 449.825 127.252 452.015ZM191.222 545.495C177.392 553.115 160.222 546.565 148.132 538.605C137.309 531.476 127.625 522.385 118.059 513.405C115.012 510.545 111.977 507.696 108.922 504.925C112.602 501.179 116.295 497.439 120.002 493.705L126.572 487.105C130.848 495.287 136.162 502.883 142.382 509.705C142.84 510.223 143.316 510.771 143.809 511.34L143.813 511.344L143.814 511.345C148.896 517.198 155.846 525.202 163.892 524.455C174.242 523.455 172.822 513.395 171.122 506.045C168.751 496.097 165.352 486.422 160.982 477.175C152.322 458.495 140.262 441.645 127.272 425.765C127.003 425.437 126.734 425.107 126.463 424.776L126.442 424.75C120.501 417.478 114.119 409.665 105.482 405.595C99.7419 402.895 91.5719 402.255 87.1719 407.665C81.4352 414.708 86.9404 427.807 90.2629 435.712L90.2636 435.714C90.5027 436.282 90.7304 436.824 90.9419 437.335C94.0919 444.945 98.1819 453.175 104.132 459.245C100.936 461.581 97.8324 464.082 94.7625 466.555L94.7623 466.555L94.7621 466.555L94.7619 466.556C93.5479 467.534 92.3391 468.507 91.1319 469.465C88.9531 471.184 86.7942 472.933 84.6354 474.682L84.6345 474.683L84.6336 474.684L84.6328 474.685L84.6319 474.685C82.299 469.754 79.6539 465.008 77.0109 460.266C72.6864 452.508 68.3677 444.759 65.4319 436.225C60.9119 423.115 57.4319 406.055 62.7519 392.645C68.3019 378.805 89.4619 380.455 100.752 384.235C113.752 388.565 124.502 397.735 133.972 407.375C152.773 426.671 168.436 448.792 180.392 472.935C186.432 485.034 191.501 497.594 195.552 510.495C195.688 510.924 195.826 511.357 195.966 511.796C199.683 523.439 204.406 538.237 191.222 545.465V545.495ZM292.432 448.885C300.332 457.795 317.752 433.795 321.222 427.795L321.232 427.765C324.682 421.845 334.762 399.745 325.772 394.645C324.892 394.96 323.912 394.603 323.442 393.795C323.399 393.785 323.356 393.772 323.314 393.759C323.23 393.732 323.145 393.705 323.052 393.705C322.939 393.687 322.828 393.657 322.722 393.615C318.628 395.725 314.733 398.198 311.082 401.005C306.179 404.618 301.922 409.033 298.492 414.065C295.321 418.742 292.955 423.917 291.492 429.375C289.992 435.035 288.152 444.045 292.432 448.885ZM351.992 333.285C349.504 344.236 345.552 354.801 340.242 364.695C337.603 369.68 334.706 374.523 331.562 379.205C330.772 380.383 329.905 381.547 329.032 382.72C327.629 384.606 326.208 386.513 325.062 388.535C324.389 388.568 323.72 388.658 323.062 388.805C322.785 388.87 322.523 388.989 322.292 389.155C317.292 390.275 312.772 391.615 308.182 394.615C302.807 398.162 298.073 402.595 294.182 407.725C286.672 417.545 281.262 430.925 282.662 443.475C282.925 445.973 283.629 448.404 284.742 450.655C284.524 450.739 284.314 450.839 284.112 450.955C279.855 453.449 276.625 458.062 273.773 462.134L273.773 462.134C273.503 462.52 273.236 462.901 272.972 463.275C269.622 468.177 266.582 473.283 263.872 478.565C262.015 482.1 260.239 485.679 258.464 489.259L258.463 489.261L258.463 489.261C255.02 496.204 251.576 503.148 247.532 509.765C241.284 520.128 232.98 529.103 223.132 536.135C218.442 539.417 213.469 542.275 208.272 544.675C206.912 545.315 205.492 545.875 204.042 546.405C208.148 541.196 210.067 534.594 209.392 527.995C208.042 513.013 201.581 497.711 195.765 483.936L195.512 483.335C193.672 478.995 191.712 474.709 189.632 470.475C197.412 466.275 202.322 457.605 204.962 449.205C206.855 443.195 207.666 436.977 208.474 430.777C209.655 421.718 210.83 412.697 215.372 404.415C219.469 396.935 224.995 390.475 230.521 384.015C233.816 380.164 237.11 376.313 240.102 372.245C248.549 360.663 253.995 347.167 255.952 332.965C258.096 317.611 255.176 302.503 252.263 287.423C249.21 271.625 246.163 255.859 248.952 239.875C251.502 225.405 258.612 212.255 267.152 200.465C270.205 196.25 273.686 192.265 277.175 188.271C283.446 181.094 289.741 173.888 293.622 165.265C300.452 150.065 300.062 131.725 299.342 115.405C298.722 101.225 297.342 86.4053 293.172 72.5853C292.997 70.6983 292.765 68.8315 292.534 66.972C292.274 64.8897 292.016 62.8167 291.842 60.7353C291.449 55.9506 291.285 51.1488 291.12 46.3471V46.3469C291.067 44.7862 291.013 43.2254 290.952 41.6653C290.772 36.8786 290.595 32.0853 290.422 27.2853C292.86 33.1637 296.412 38.5152 300.882 43.0453C301.538 43.7221 302.196 44.3942 302.852 45.0648L302.854 45.067L302.854 45.0672C307.335 49.6468 311.746 54.1556 315.252 59.6153C318.79 65.1416 320.756 70.8944 322.799 76.8737C323.222 78.1112 323.648 79.3584 324.092 80.6153L323.902 80.6853C322.988 80.5185 322.056 80.8636 321.472 81.5853C321.259 81.8587 321.063 82.141 320.867 82.4232L320.867 82.424C320.769 82.5648 320.672 82.7056 320.572 82.8453C319.75 83.6555 319.091 84.6163 318.632 85.6753C318.592 85.762 318.561 85.8576 318.53 85.9532C318.514 86.0009 318.499 86.0486 318.482 86.0953C312.222 97.0953 311.322 110.515 312.402 123.015C313.462 135.355 315.682 153.015 329.262 157.945C330.813 158.507 332.436 158.843 334.082 158.945C333.415 162.833 333.734 167.128 334.024 171.048C334.065 171.595 334.105 172.135 334.142 172.665C334.513 178.075 335.18 183.459 336.142 188.795C336.178 188.988 336.224 189.261 336.281 189.599C336.816 192.77 338.321 201.686 341.312 204.135C335.014 212.41 331.28 222.35 330.572 232.725C329.572 245.215 332.162 260.835 341.062 270.285C342.59 271.929 344.433 273.249 346.482 274.165C346.77 276.054 347.595 277.938 348.403 279.784L348.403 279.785C348.858 280.822 349.306 281.848 349.652 282.855C351.557 288.351 352.897 294.027 353.652 299.795C355.007 310.961 354.449 322.277 352.002 333.255L351.992 333.285ZM341.172 253.765C342.632 258.125 347.132 269.945 353.632 266.765L353.642 266.735C359.562 263.845 362.692 254.275 364.122 248.395C365.585 241.808 366.18 235.057 365.892 228.315C365.742 221.685 365.512 214.075 361.562 208.435C358.032 203.395 353.332 203.035 348.162 203.845C342.091 213.362 338.705 224.342 338.362 235.625C338.231 241.79 339.182 247.929 341.172 253.765Z" fill="#231F20"/>
<path d="M325.322 401.115C320.402 406.465 318.462 413.945 314.012 419.765C309.122 426.185 302.612 431.165 295.962 435.625C295.178 436.126 294.869 437.118 295.23 437.975C295.59 438.832 296.516 439.305 297.422 439.095C306.292 437.225 313.822 431.855 319.562 424.955C324.562 418.955 330.492 410.055 328.192 401.875C328.023 401.291 327.56 400.837 326.972 400.682C326.384 400.526 325.757 400.691 325.322 401.115Z" fill="#231F20"/>
<path fill-rule="evenodd" clip-rule="evenodd" d="M196.782 329.275C210.082 332.155 206.482 363.065 189.682 358.275C172.282 353.305 178.992 323.225 196.722 329.275H196.782ZM193.992 333.115C189.972 334.205 186.762 338.655 186.472 342.655C186.192 346.625 190.302 353.735 195.122 349.945C197.972 347.735 198.052 342.545 197.122 339.485C196.652 337.926 195.862 336.519 195.071 335.111C194.7 334.451 194.33 333.791 193.992 333.115Z" fill="#231F20"/>
<path fill-rule="evenodd" clip-rule="evenodd" d="M226.852 253.255C233.712 265.675 233.792 285.735 220.792 294.255C207.302 303.125 190.552 293.285 186.162 279.185C182.312 266.745 187.692 249.265 200.962 244.745C201.254 244.636 201.578 244.658 201.852 244.805C210.532 241.365 222.022 244.545 226.852 253.255ZM207.702 250.845C204.333 250.914 200.994 251.484 197.792 252.535C193.492 258.745 190.722 265.655 192.262 273.715C194.222 283.915 204.912 294.255 215.692 288.415C225.732 282.965 224.852 267.495 220.852 258.495C218.292 252.785 213.872 250.505 207.702 250.845Z" fill="#231F20"/>
<path fill-rule="evenodd" clip-rule="evenodd" d="M259.693 123.795C265.933 129.935 266.723 143.505 259.613 149.255C252.443 155.065 241.653 150.205 238.893 142.125C237.54 137.904 237.66 133.349 239.233 129.205C240.483 120.655 253.973 118.165 259.693 123.795ZM246.07 130.319C245.479 130.741 244.891 131.162 244.303 131.535C243.86 134.086 244.031 136.705 244.803 139.175C246.353 143.315 252.333 147.145 255.803 142.705C258.323 139.475 257.803 131.695 254.573 128.915C251.602 126.364 248.814 128.357 246.07 130.319Z" fill="#231F20"/>
<path d="M234.541 313.765C234.261 321.765 234.341 329.465 232.121 337.265C229.84 344.871 226.227 352.011 221.451 358.355C221.171 358.735 221.771 359.165 222.081 358.845C233.081 347.905 240.401 328.955 235.981 313.565C235.867 313.229 235.531 313.021 235.179 313.07C234.827 313.118 234.559 313.41 234.541 313.765Z" fill="#231F20"/>
<path d="M230.252 221.715C233.202 213.305 236.422 203.405 243.932 197.975C248.062 194.975 254.742 192.215 255.642 186.555C255.658 186.135 255.41 185.75 255.021 185.591C254.631 185.432 254.184 185.534 253.902 185.845C251.545 189.015 248.659 191.755 245.372 193.945C242.649 195.612 240.194 197.682 238.092 200.085C233.392 205.975 230.812 214.255 229.582 221.555C229.603 221.706 229.714 221.828 229.862 221.864C230.01 221.899 230.165 221.84 230.252 221.715Z" fill="#231F20"/>
<path d="M261.141 176.845C264.491 174.515 268.421 170.935 268.231 166.445C268.231 165.985 267.581 165.615 267.231 166.035C264.671 169.125 263.361 173.035 260.391 175.855C259.901 176.285 260.551 177.205 261.141 176.845Z" fill="#231F20"/>
<path d="M279.761 140.375C278.821 146.375 276.301 151.875 275.171 157.765C275.111 158.095 275.521 158.425 275.781 158.125C283.081 149.745 283.781 134.895 283.501 124.345C283.101 110.815 280.381 96.0153 275.171 83.5053C274.945 83.1054 274.475 82.9111 274.033 83.0342C273.59 83.1573 273.288 83.5661 273.301 84.0253C275.361 97.0253 279.741 109.335 280.531 122.615C280.91 128.546 280.652 134.5 279.761 140.375Z" fill="#231F20"/>
<path d="M197.741 390.485C192.048 396.099 188.888 403.791 188.991 411.785C189.051 416.445 189.901 421.065 189.921 425.735C189.921 430.685 188.491 434.655 186.921 439.235C186.821 439.515 187.191 439.815 187.431 439.635C192.961 435.635 192.681 427.065 192.251 420.965C191.861 415.625 191.061 410.215 192.311 404.965C193.491 399.895 196.961 396.225 199.391 391.795C199.677 391.338 199.574 390.738 199.152 390.403C198.729 390.067 198.122 390.103 197.741 390.485Z" fill="#231F20"/>
<path d="M207.303 376.415C206.403 376.945 205.953 378.275 205.303 379.115C204.536 380.141 203.611 381.039 202.563 381.775C202.287 381.969 202.206 382.341 202.375 382.633C202.544 382.924 202.908 383.038 203.213 382.895C204.449 382.277 205.577 381.463 206.553 380.485C207.303 379.695 208.623 378.255 208.473 377.095C208.463 376.821 208.313 376.571 208.075 376.433C207.838 376.295 207.546 376.288 207.303 376.415Z" fill="#231F20"/>
<path d="M246.952 480.725C244.412 487.345 242.952 494.125 239.762 500.525C236.492 506.8 232.571 512.712 228.062 518.165C227.87 518.412 227.892 518.763 228.113 518.984C228.334 519.205 228.685 519.227 228.932 519.035C238.832 509.895 248.342 494.835 248.732 480.965C248.762 479.845 247.292 479.845 246.952 480.725Z" fill="#231F20"/>
<path d="M264.061 460.405C262.541 460.775 261.561 462.645 260.761 463.875C259.75 465.442 258.922 467.12 258.291 468.875C258.041 469.595 259.111 469.985 259.491 469.375C260.491 467.855 261.411 466.375 262.491 464.875C263.351 463.685 264.731 462.525 264.891 461.015C264.901 460.585 264.431 460.315 264.061 460.405Z" fill="#231F20"/>
<path d="M339.353 290.395C342.273 299.395 344.933 307.715 344.063 317.315C343.163 327.175 338.783 335.845 336.213 345.265C336.188 345.689 336.433 346.082 336.824 346.247C337.216 346.411 337.668 346.31 337.953 345.995C346.953 329.995 352.143 305.935 340.263 289.995C339.953 289.585 339.163 289.845 339.353 290.395Z" fill="#231F20"/>
</svg>
