<svg width="261" height="577" viewBox="0 0 261 577" fill="none" xmlns="http://www.w3.org/2000/svg">
<path d="M66.7777 305.054C69.9044 307.387 73.1211 309.584 76.4277 311.644C81.9211 288.11 87.4077 264.577 92.8877 241.044C99.1977 213.884 104.558 186.254 112.118 159.404L98.3277 159.534C92.1677 159.594 86.0077 159.627 79.8477 159.634C78.3777 159.634 76.9177 159.634 75.4877 159.464C78.9677 183.004 70.2577 206.094 57.9477 226.014C50.1577 238.624 40.3277 249.724 32.1777 261.894C36.0077 279.844 52.6977 294.594 66.7777 305.054Z" fill="#88E0FF"/>
<path d="M58.3476 418.714C58.1361 418.874 57.9082 419.011 57.6676 419.124C57.579 419.632 57.5289 420.147 57.5176 420.664C57.5176 421.144 57.5176 424.824 57.5176 424.784C58.0476 425.374 60.9576 425.224 61.6976 425.164C64.4676 424.914 64.0376 421.694 63.0976 419.634C62.0676 417.374 60.1976 417.364 58.3476 418.714Z" fill="white"/>
<path d="M94.0992 304.753C104.589 256.393 114.099 207.833 123.669 159.293L118.669 159.343C113.839 187.063 106.489 214.513 100.199 241.933C94.5592 266.513 88.8926 291.087 83.1992 315.653C85.7092 317.063 88.2592 318.413 90.8492 319.653C91.9426 314.693 93.0259 309.727 94.0992 304.753Z" fill="#F7941E"/>
<path d="M179.088 12.4434C171.638 9.6434 159.178 5.1134 155.488 14.8034C148.488 33.2334 143.788 52.9634 138.348 71.9034C135.468 81.9034 132.758 91.9034 129.838 101.903C127.838 108.903 126.088 116.243 123.568 123.173C127.728 123.653 131.882 124.163 136.028 124.703C134.328 121.873 135.578 118.993 136.158 115.583C136.998 110.713 137.968 105.873 139.008 101.043C141.148 91.0434 143.828 81.2034 146.548 71.3734C149.268 61.5434 152.208 51.7734 155.308 42.0434C157.538 35.0434 159.548 27.9634 166.698 24.5434C180.398 17.9834 198.358 28.3734 210.278 34.5434C223.775 41.5657 236.481 50.0139 248.178 59.7434C248.228 59.3034 248.278 58.8734 248.308 58.4334C248.378 57.2599 248.889 56.1562 249.738 55.3434C235.008 44.6934 219.838 34.6734 204.138 25.5134C196.008 20.7934 187.888 15.7534 179.088 12.4434Z" fill="#F7941E"/>
<path d="M98.6676 131.593C96.2476 131.793 69.7376 134.683 69.6676 134.593C69.8344 135.871 69.4113 137.155 68.5176 138.083C68.5976 141.563 68.8876 145.283 70.6976 148.083C73.4176 152.293 78.7576 151.203 83.0576 151.083C92.8476 150.833 102.628 150.663 112.418 150.483C131.084 150.143 149.751 149.833 168.418 149.553C168.581 147.657 168.443 145.747 168.008 143.893C167.788 142.893 167.168 138.943 166.418 138.153C165.098 136.773 161.418 137.023 159.618 136.783L151.968 135.783C143.068 134.623 134.168 133.393 125.248 132.333C116.434 131.203 107.53 130.956 98.6676 131.593Z" fill="#88E0FF"/>
<path fill-rule="evenodd" clip-rule="evenodd" d="M162.798 170.728L162.797 170.721C162.22 166.62 161.68 162.784 162.349 158.854C152.443 158.98 142.526 159.097 132.599 159.204C126.359 190.724 119.669 222.144 112.919 253.564C111.118 261.939 109.366 270.333 107.613 278.73C104.716 292.61 101.817 306.498 98.6895 320.324C98.8816 320.294 99.0773 320.294 99.2695 320.324C100.039 320.462 100.796 320.602 101.543 320.739L101.543 320.74H101.543C108.438 322.011 114.459 323.122 121.749 321.904C128.393 320.638 134.919 318.818 141.259 316.464C145.743 314.904 150.22 313.25 154.704 311.593C164.91 307.822 175.156 304.037 185.619 301.314C198.379 297.994 212.519 297.394 223.619 305.504L224.229 305.974C221.851 297.606 218.586 289.517 214.489 281.844C209.589 272.76 203.857 264.221 198.129 255.687C190.615 244.492 183.107 233.307 177.489 220.914C172.759 210.608 168.963 199.898 166.149 188.914C164.762 183.227 163.687 177.468 162.929 171.664C162.886 171.35 162.842 171.038 162.798 170.728ZM178.509 247.664C179.029 248.158 179.553 248.642 180.077 249.126L180.077 249.126C181.195 250.159 182.31 251.19 183.379 252.314C184.957 253.706 186.325 255.319 187.439 257.104C187.839 257.874 187.009 258.844 186.199 258.344C184.509 257.107 183.004 255.636 181.729 253.974C180.66 252.761 179.651 251.508 178.641 250.254L178.641 250.254L178.64 250.253C178.235 249.749 177.829 249.245 177.419 248.744C176.799 247.954 177.779 246.924 178.509 247.594V247.664ZM154.839 209.024C157.079 217.494 160.609 228.324 167.759 233.944V233.904C168.053 234.153 168.48 234.167 168.79 233.939C169.1 233.71 169.211 233.298 169.059 232.944C168.063 230.827 166.848 228.823 165.632 226.818C164.383 224.758 163.133 222.697 162.119 220.514C160.044 216.012 158.397 211.324 157.199 206.514C155.149 198.457 154.105 190.216 153.061 181.979C152.796 179.889 152.531 177.8 152.249 175.714C152.139 174.904 150.839 175.114 150.839 175.904C151.179 187.024 151.999 198.234 154.839 209.024Z" fill="#88E0FF"/>
<path d="M193.789 413.073C191.369 415.263 189.649 418.223 192.219 420.663C195.859 424.143 198.219 417.273 196.449 414.553C195.864 413.648 194.867 413.094 193.789 413.073V413.073Z" fill="white"/>
<path d="M208.659 308.954C194.709 305.844 179.869 312.434 166.889 316.794C153.909 321.154 140.889 326.584 127.439 328.854C123.73 329.501 119.974 329.836 116.209 329.854C116.869 330.064 117.529 330.294 118.209 330.494C138.589 336.764 159.799 339.804 181.059 340.944C190.809 341.464 200.919 341.554 210.259 338.274C214.674 336.762 218.751 334.401 222.259 331.324C223.84 329.839 225.273 328.205 226.539 326.444C225.539 323.344 224.739 320.214 222.539 317.444C219.003 313.128 214.111 310.136 208.659 308.954Z" fill="white"/>
<path fill-rule="evenodd" clip-rule="evenodd" d="M139.428 345.344C157.588 349.164 177.078 352.064 195.678 350.954C205.008 350.394 214.268 348.404 222.308 343.594C225.351 341.778 228.159 339.595 230.668 337.094C231.474 342.759 232.162 348.455 232.85 354.155L232.85 354.157L232.85 354.158L232.85 354.159L232.851 354.161L232.851 354.162L232.851 354.163C232.94 354.9 233.029 355.637 233.118 356.374C236.238 382.38 238.638 408.444 240.318 434.564C241.238 448.897 241.938 463.23 242.418 477.564C242.503 480.105 242.679 482.775 242.86 485.516L242.86 485.517V485.517V485.517V485.518V485.518V485.518C243.467 494.716 244.126 504.709 241.568 513.284C239.91 515.5 238.429 517.827 236.947 520.154C234.66 523.747 232.372 527.341 229.428 530.534C223.788 536.553 217.283 541.699 210.128 545.804C194.948 554.734 177.718 559.864 160.438 562.864C122.918 569.354 80.3282 564.684 46.7082 546.014C37.4582 540.874 28.7682 534.194 22.5582 525.524C19.11 520.506 16.4524 514.988 14.6782 509.164C14.818 508.717 14.8855 508.251 14.8782 507.784C14.7068 499.884 13.9803 491.969 13.2546 484.063C12.7952 479.058 12.3361 474.056 12.0182 469.064C11.2116 456.137 10.6116 443.204 10.2182 430.264C9.45823 404.364 9.60823 378.477 10.6682 352.604C11.6682 329.594 12.9482 306.054 20.6682 284.154C22.3834 279.394 24.5046 274.79 27.0082 270.394C30.0782 281.554 40.6782 292.024 48.0082 299.164C56.082 306.99 64.9653 313.936 74.5082 319.884L73.3082 324.994L73.2063 325.431C71.2225 333.942 68.2804 346.565 78.8182 350.724C87.8482 354.284 92.8882 344.804 94.6482 337.614C95.1416 335.54 95.6349 333.474 96.1282 331.414C110.023 337.589 124.539 342.259 139.428 345.344ZM56.2382 460.894H56.3982C58.0019 460.857 59.5007 460.088 60.4673 458.808C61.4338 457.528 61.762 455.876 61.3582 454.324V454.164C61.1122 453.278 60.6401 452.472 59.9882 451.824C59.3348 451.179 58.5303 450.708 57.6482 450.454C55.5725 449.908 53.3718 450.656 52.0582 452.354C50.8875 453.855 50.6269 455.874 51.3782 457.624C52.1961 459.589 54.1092 460.876 56.2382 460.894ZM63.6582 433.384C60.2582 433.794 55.4982 433.214 52.7382 431.044C49.3382 428.384 49.6082 422.794 50.0782 418.904C50.5182 415.274 51.9782 411.844 55.2182 409.904C56.1093 409.382 57.095 409.042 58.1182 408.904C62.8682 407.764 68.9082 411.014 71.0282 415.574C74.2482 422.454 72.3882 432.324 63.6582 433.384ZM108.438 432.024C107.678 445.684 116.748 459.124 131.938 456.774C149.108 454.104 148.538 435.784 146.628 422.294C146.048 418.154 140.558 419.344 139.368 422.294C138.192 425.208 138.344 428.903 138.496 432.597C138.769 439.235 139.041 445.869 131.608 447.964C121.698 450.754 114.268 440.034 113.058 431.404C112.668 428.654 108.578 429.524 108.438 432.024ZM183.938 423.074C182.011 418.697 183.075 413.579 186.588 410.334C185.498 407.044 190.288 404.144 193.318 403.894C203.798 403.034 208.698 415.034 204.698 423.444C200.368 432.594 188.068 432.394 184.008 423.074H183.938ZM203.468 455.184C204.863 455.167 206.198 454.616 207.198 453.644V453.634C208.698 452.123 209.144 449.859 208.329 447.892C207.514 445.925 205.597 444.64 203.468 444.634C202.072 444.652 200.737 445.207 199.738 446.184C198.238 447.694 197.792 449.958 198.608 451.925C199.423 453.892 201.339 455.177 203.468 455.184ZM232.608 474.434C235.838 479.764 236.748 488.174 234.158 493.934C233.618 495.154 231.848 494.444 231.808 493.294C231.747 491.71 231.891 490.127 232.035 488.541V488.541C232.173 487.012 232.312 485.48 232.268 483.944C232.22 482.281 232.068 480.649 231.917 479.023C231.783 477.588 231.649 476.157 231.588 474.714C231.56 474.444 231.732 474.194 231.993 474.125C232.255 474.055 232.529 474.186 232.638 474.434H232.608ZM226.431 391.653C226.201 391.685 226.025 391.873 226.008 392.104C225.597 399.407 226.166 406.774 226.735 414.146C226.983 417.362 227.231 420.58 227.398 423.794C227.56 426.912 227.672 430.04 227.784 433.169C228.051 440.655 228.319 448.152 229.278 455.564C229.327 456.027 229.718 456.378 230.183 456.378C230.649 456.378 231.039 456.027 231.088 455.564C231.95 445.592 231.266 435.461 230.591 425.471C230.53 424.56 230.468 423.651 230.408 422.744C230.307 421.199 230.214 419.644 230.12 418.083C229.597 409.344 229.062 400.407 226.958 391.974C226.88 391.756 226.66 391.622 226.431 391.653Z" fill="white"/>
<path d="M78.8085 334.874C78.4185 337.494 78.1185 341.934 80.9885 343.414C83.8585 344.894 85.3585 341.704 86.2085 339.614C87.5732 335.89 88.555 332.036 89.1385 328.114L88.3185 327.714C85.9085 326.494 83.5285 325.194 81.1685 323.864C80.2485 327.514 79.3585 331.194 78.8085 334.874Z" fill="#F7941E"/>
<path fill-rule="evenodd" clip-rule="evenodd" d="M258.609 49.9835C241.042 36.9281 222.624 25.0584 203.479 14.4535C194.749 9.64347 185.599 4.95347 175.859 2.60347C168.659 0.873466 158.469 -0.946534 152.429 4.60347C149.699 7.12347 148.429 10.6035 147.359 14.0535C145.939 18.4334 144.628 22.8648 143.324 27.2755L143.32 27.2885L143.315 27.3054C142.996 28.383 142.678 29.4594 142.359 30.5335C139.025 41.5268 135.795 52.5468 132.669 63.5935C129.519 74.5935 126.389 85.6835 123.499 96.8035C123.003 98.7129 122.481 100.642 121.954 102.586L121.953 102.589L121.952 102.594L121.952 102.596L121.952 102.596C120.17 109.171 118.343 115.916 117.379 122.643C105.589 121.943 94.0185 123.023 82.1885 124.283C80.9717 124.412 79.6115 124.482 78.1845 124.555C73.4076 124.799 67.8818 125.082 64.4785 127.753C61.9351 129.521 60.969 132.824 62.1585 135.683C60.8085 143.193 60.9785 151.573 67.6285 156.603C67.6235 156.667 67.6235 156.73 67.6285 156.793C70.3785 180.043 62.5285 201.993 50.3085 221.493C45.8678 228.58 40.8659 235.152 35.893 241.687C27.1813 253.134 18.5587 264.464 13.1985 278.233C5.06851 299.103 3.19851 321.783 1.87851 343.943C0.325179 369.797 -0.264821 395.68 0.108512 421.593C0.315179 435.98 0.825179 450.353 1.63851 464.713C1.78398 467.259 1.91655 469.817 2.04947 472.381C2.68409 484.623 3.32665 497.018 5.41851 509.023C5.50259 509.463 5.65084 509.887 5.85851 510.283C7.85851 524.573 19.5385 538.503 29.8585 546.603C46.3685 559.603 67.3785 567.143 87.6985 571.603C127.969 580.523 173.609 577.163 210.539 557.903C219.723 553.234 228.124 547.161 235.439 539.903C240.539 534.703 245.909 528.343 248.489 521.243C253.784 513.138 253.467 503.036 253.169 493.555C253.136 492.509 253.103 491.471 253.079 490.443C252.745 477.177 252.232 463.917 251.539 450.663C250.125 423.803 247.932 397 244.959 370.253C244.569 366.768 244.201 363.254 243.83 359.723L243.83 359.717L243.829 359.715L243.829 359.713L243.829 359.711L243.829 359.709L243.828 359.707L243.828 359.705C241.516 337.661 239.133 314.951 231.249 294.373C225.457 279.257 216.576 266.129 207.662 252.952C202.724 245.653 197.777 238.338 193.339 230.663C186.61 219.031 181.18 206.693 177.149 193.873C175.149 187.443 173.379 180.873 171.959 174.303C171.578 172.546 171.28 170.767 170.983 168.993C170.398 165.499 169.816 162.02 168.609 158.743L172.319 158.693C174.385 158.657 176.19 157.285 176.779 155.303C178.679 149.303 177.779 143.433 175.929 137.573C174.079 131.713 171.649 129.343 165.509 128.573C159.884 127.87 154.263 127.117 148.644 126.365L148.643 126.365L148.638 126.365L148.634 126.364L148.629 126.364L148.625 126.363L148.62 126.362C145.386 125.93 142.152 125.497 138.919 125.073C140.642 123.821 141.035 122.078 141.514 119.952C141.636 119.413 141.763 118.85 141.919 118.263C142.961 114.565 143.968 110.86 144.975 107.154L145.001 107.057C145.183 106.386 145.366 105.715 145.549 105.043C146.502 101.543 147.431 98.0373 148.361 94.5323L148.362 94.528L148.362 94.5277L148.362 94.5274L148.362 94.5272L148.362 94.5269L148.362 94.5266L148.362 94.5263C149.596 89.8723 150.83 85.2198 152.119 80.5835C154.479 72.1035 156.949 63.6601 159.529 55.2535C160.862 50.8801 162.245 46.5201 163.679 42.1735C163.832 41.7063 163.98 41.2261 164.13 40.7398C165.089 37.6343 166.125 34.2764 168.979 32.4435C174.219 29.0235 181.749 31.2635 187.099 33.2635C194.698 36.2706 202.053 39.8613 209.099 44.0035C223.036 51.8313 236.082 61.1493 248.009 71.7935C249.192 72.9386 250.888 73.3809 252.48 72.9594C254.072 72.5379 255.327 71.3141 255.789 69.7335C256.302 67.8208 256.709 65.8812 257.009 63.9235C257.859 62.4835 258.709 61.0535 259.669 59.6735C260.414 58.7088 260.614 57.4297 260.199 56.2835C261.248 54.0739 260.581 51.4304 258.609 49.9835ZM57.9485 225.983C70.2585 206.063 78.9485 182.983 75.4885 159.433C76.9185 159.573 78.3785 159.603 79.8485 159.603C86.0085 159.603 92.1685 159.57 98.3285 159.503L112.119 159.373C106.884 177.965 102.704 196.931 98.5329 215.855L98.5329 215.856L98.5327 215.856L98.5325 215.857L98.5324 215.858L98.5322 215.859L98.5321 215.859L98.5319 215.86L98.5317 215.861C96.6794 224.265 94.8289 232.662 92.8885 241.013C87.4218 264.553 81.9352 288.087 76.4285 311.613C73.1285 309.547 69.9118 307.35 66.7785 305.023C52.6985 294.593 36.0085 279.843 32.1785 261.893C35.7659 256.537 39.6788 251.381 43.6 246.215L43.6001 246.215C48.5872 239.644 53.5875 233.056 57.9485 226.013V225.983ZM100.199 241.903C94.5652 266.483 88.8985 291.057 83.1985 315.623V315.653C85.7085 317.063 88.2585 318.413 90.8485 319.653C91.9352 314.68 93.0185 309.703 94.0985 304.723C103.635 260.76 112.345 216.632 121.054 172.503C121.926 168.09 122.797 163.677 123.669 159.263L118.669 159.313C115.236 179.011 110.532 198.572 105.839 218.083L105.839 218.083L105.839 218.085C103.928 226.031 102.019 233.968 100.199 241.903ZM89.1385 328.083C88.5556 332.01 87.5739 335.866 86.2085 339.593C85.3585 341.683 83.8985 344.883 80.9885 343.393C78.0785 341.903 78.4185 337.473 78.8085 334.853C79.3585 331.173 80.2485 327.493 81.1685 323.853C83.5285 325.183 85.9085 326.483 88.3185 327.703L89.1385 328.083ZM240.279 434.583C238.592 408.457 236.192 382.393 233.079 356.393L232.908 354.981L232.842 354.435C232.143 348.649 231.444 342.867 230.609 337.133C228.108 339.612 225.314 341.774 222.289 343.573C214.249 348.423 204.939 350.413 195.659 350.973C177.059 352.083 157.569 349.183 139.409 345.363C124.519 342.279 110.003 337.609 96.1085 331.433C95.6218 333.493 95.1285 335.56 94.6285 337.633C92.8685 344.823 87.7985 354.303 78.7985 350.743C68.2176 346.568 71.2076 333.859 73.2101 325.347L73.2885 325.013L74.4885 319.903C64.9386 313.957 56.0485 307.011 47.9685 299.183C40.6785 292.043 30.0785 281.573 26.9685 270.413C24.4649 274.81 22.3437 279.414 20.6285 284.173C12.8885 306.073 11.5685 329.623 10.6285 352.623C9.56851 378.517 9.41851 404.403 10.1785 430.283C10.5685 443.223 11.1185 456.203 11.9785 469.083C12.2993 473.888 12.7397 478.701 13.1805 483.516C13.9213 491.611 14.663 499.715 14.8385 507.803C14.8458 508.271 14.7783 508.737 14.6385 509.183C16.4127 515.008 19.0703 520.525 22.5185 525.543C28.7285 534.214 37.4185 540.893 46.6685 546.033C80.2885 564.703 122.879 569.373 160.399 562.883C177.679 559.893 194.909 554.753 210.089 545.823C217.244 541.719 223.748 536.573 229.389 530.553L229.565 530.362C234.354 525.18 239.019 520.13 241.529 513.303C244.086 504.729 243.427 494.736 242.82 485.538C242.64 482.796 242.463 480.125 242.379 477.583C241.899 463.237 241.199 448.903 240.279 434.583ZM222.199 331.313C218.69 334.391 214.614 336.752 210.199 338.263C200.859 341.543 190.749 341.453 180.999 340.933C159.739 339.793 138.529 336.753 118.149 330.483C117.798 330.377 117.448 330.263 117.095 330.147L117.095 330.147L117.09 330.146C116.779 330.044 116.466 329.942 116.149 329.843C119.913 329.826 123.67 329.491 127.379 328.843C137.63 327.115 147.673 323.541 157.573 320.018C160.672 318.915 163.756 317.818 166.829 316.783C168.655 316.168 170.523 315.508 172.423 314.836L172.425 314.835C183.932 310.765 196.626 306.274 208.599 308.943C214.018 310.145 218.875 313.135 222.389 317.433C224.328 319.834 225.163 322.513 226.005 325.217C226.132 325.622 226.258 326.028 226.389 326.433C225.151 328.191 223.748 329.825 222.199 331.313ZM198.151 255.69C190.643 244.501 183.138 233.319 177.519 220.933C172.798 210.624 169.012 199.911 166.209 188.923C164.811 183.241 163.726 177.485 162.959 171.683C162.893 171.178 162.825 170.678 162.758 170.18C162.234 166.289 161.74 162.624 162.379 158.873C152.465 159.007 142.549 159.123 132.629 159.223C126.389 190.743 119.699 222.163 112.949 253.583C111.133 262.021 109.366 270.477 107.598 278.936C104.71 292.754 101.82 306.58 98.7185 320.343C98.9107 320.314 99.1063 320.314 99.2985 320.343C100.068 320.482 100.825 320.622 101.571 320.759L101.572 320.759L101.572 320.76L101.573 320.76C108.468 322.031 114.488 323.142 121.779 321.923C128.422 320.658 134.948 318.838 141.289 316.483C145.578 314.98 149.861 313.396 154.151 311.811C164.55 307.967 174.986 304.109 185.649 301.333C198.369 298.013 212.509 297.413 223.649 305.523L224.259 305.993C221.88 297.626 218.615 289.537 214.519 281.863C209.618 272.777 203.883 264.232 198.151 255.69ZM152.059 135.763L159.709 136.763C160.155 136.824 160.723 136.854 161.343 136.886C163.196 136.984 165.52 137.107 166.509 138.133C167.135 138.793 167.67 141.627 167.958 143.151C168.015 143.452 168.062 143.702 168.099 143.873C168.534 145.727 168.672 147.637 168.509 149.533C149.842 149.793 131.175 150.103 112.509 150.463L109.294 150.522C100.577 150.682 91.8668 150.841 83.1485 151.063C82.4959 151.08 81.8194 151.119 81.1317 151.159L81.131 151.159C77.2875 151.382 73.0956 151.626 70.7885 148.063C68.9785 145.263 68.6885 141.543 68.6085 138.063C69.5022 137.135 69.9254 135.851 69.7585 134.573C69.7585 134.664 82.7543 133.276 91.4014 132.352L91.4034 132.352C95.1101 131.956 98.0174 131.645 98.7585 131.573C107.65 130.92 116.584 131.158 125.429 132.283C131.672 133.054 137.95 133.89 144.238 134.727C146.844 135.074 149.451 135.421 152.059 135.763ZM248.225 59.3983C248.267 59.0836 248.309 58.7711 248.309 58.4535C248.391 57.2976 248.9 56.2138 249.739 55.4135C235.029 44.7435 219.839 34.7235 204.139 25.5635C203.158 24.9924 202.178 24.4166 201.195 23.8398C194.057 19.6492 186.824 15.403 179.089 12.4935C171.639 9.69347 159.179 5.16347 155.489 14.8535C150.338 28.394 146.44 42.6363 142.577 56.7515C141.182 61.8484 139.792 66.9287 138.349 71.9535C137.06 76.4273 135.806 80.9011 134.551 85.3749C133.002 90.9011 131.452 96.4273 129.839 101.953C129.184 104.189 128.564 106.465 127.94 108.755C126.618 113.605 125.28 118.516 123.569 123.223C127.729 123.703 131.882 124.213 136.029 124.753C134.687 122.521 135.182 120.257 135.736 117.726C135.884 117.049 136.036 116.353 136.159 115.633C137.009 110.763 138.009 105.923 139.009 101.093C141.149 91.1235 143.829 81.2535 146.549 71.4235C149.289 61.5968 152.209 51.8201 155.309 42.0935C155.392 41.8311 155.475 41.5686 155.559 41.3062C157.696 34.5679 159.817 27.8853 166.699 24.5935C179.456 18.5032 195.909 27.0946 207.737 33.2715C208.611 33.7276 209.459 34.1706 210.279 34.5935C223.774 41.6063 236.48 50.0444 248.179 59.7635C248.192 59.6411 248.209 59.5196 248.225 59.3983Z" fill="#231F20"/>
<path fill-rule="evenodd" clip-rule="evenodd" d="M55.2189 409.863C56.1099 409.342 57.0956 409.002 58.1189 408.863C62.8689 407.723 68.9089 410.973 71.0289 415.493C74.2489 422.413 72.3889 432.283 63.6589 433.343C60.2589 433.753 55.4989 433.173 52.7389 431.003C49.3389 428.343 49.6089 422.753 50.0789 418.863C50.5189 415.253 51.9789 411.863 55.2189 409.863ZM57.5189 424.783C58.0489 425.373 60.9589 425.223 61.6989 425.163C64.4689 424.913 64.0089 421.693 63.0989 419.633C62.0689 417.373 60.1989 417.363 58.3489 418.713C58.1375 418.874 57.9095 419.011 57.6689 419.123C57.5803 419.632 57.5302 420.147 57.5189 420.663V424.783Z" fill="#231F20"/>
<path fill-rule="evenodd" clip-rule="evenodd" d="M193.349 403.893C203.829 403.033 208.729 415.033 204.729 423.443C200.369 432.593 188.069 432.393 184.009 423.073C182.072 418.705 183.12 413.588 186.619 410.333C185.529 407.043 190.349 404.143 193.349 403.893ZM193.789 413.073C191.369 415.263 189.649 418.223 192.219 420.663C195.859 424.143 198.219 417.273 196.449 414.553C195.863 413.648 194.866 413.094 193.789 413.073Z" fill="#231F20"/>
<path d="M203.498 444.594C202.101 444.612 200.766 445.167 199.768 446.144C198.268 447.654 197.822 449.918 198.637 451.885C199.452 453.852 201.369 455.137 203.498 455.144C204.892 455.127 206.228 454.576 207.228 453.604C208.728 452.093 209.173 449.829 208.358 447.862C207.543 445.895 205.627 444.61 203.498 444.604V444.594Z" fill="#231F20"/>
<path d="M61.3588 454.173C61.1128 453.288 60.6406 452.481 59.9888 451.833C59.3353 451.189 58.5309 450.718 57.6488 450.463C55.573 449.918 53.3724 450.666 52.0588 452.363C50.8881 453.865 50.6275 455.884 51.3788 457.633C52.1967 459.599 54.1097 460.886 56.2388 460.903H56.3988C58.0073 460.878 59.5153 460.116 60.4905 458.837C61.4656 457.557 61.8004 455.901 61.3988 454.343L61.3588 454.173Z" fill="#231F20"/>
<path d="M139.369 422.293C136.079 430.443 143.179 444.703 131.609 447.963C121.699 450.753 114.269 440.033 113.059 431.403C112.669 428.653 108.579 429.523 108.439 432.023C107.679 445.683 116.749 459.123 131.939 456.773C149.109 454.103 148.539 435.773 146.629 422.293C146.009 418.153 140.559 419.343 139.369 422.293Z" fill="#231F20"/>
<path d="M229.268 455.593C229.317 456.057 229.707 456.408 230.173 456.408C230.639 456.408 231.029 456.057 231.078 455.593C232.018 444.713 231.078 433.593 230.398 422.773C229.728 412.583 229.398 401.943 226.948 392.003C226.87 391.785 226.65 391.652 226.42 391.683C226.191 391.715 226.015 391.902 225.998 392.133C225.418 402.623 226.838 413.343 227.388 423.823C227.938 434.303 227.908 445.053 229.268 455.593Z" fill="#231F20"/>
<path d="M231.839 493.294C231.839 494.444 233.649 495.154 234.189 493.934C236.779 488.174 235.869 479.764 232.639 474.434C232.505 474.242 232.264 474.156 232.039 474.219C231.814 474.282 231.653 474.48 231.639 474.714C231.769 477.794 232.239 480.854 232.319 483.944C232.399 487.034 231.719 490.184 231.839 493.294Z" fill="#231F20"/>
<path d="M157.198 206.473C154.628 196.373 153.638 185.983 152.248 175.673C152.138 174.873 150.808 175.073 150.838 175.863C151.178 186.983 151.998 198.193 154.838 208.983C157.078 217.453 160.608 228.283 167.758 233.903C168.055 234.185 168.512 234.209 168.836 233.96C169.161 233.71 169.255 233.262 169.058 232.903C167.058 228.613 164.138 224.783 162.118 220.473C160.043 215.971 158.395 211.284 157.198 206.473Z" fill="#231F20"/>
<path d="M181.729 253.933C183.004 255.595 184.509 257.067 186.199 258.303C187.009 258.803 187.839 257.833 187.439 257.063C186.324 255.279 184.957 253.666 183.379 252.273C181.809 250.663 180.139 249.173 178.509 247.623C177.779 246.923 176.799 247.953 177.419 248.703C178.849 250.453 180.229 252.233 181.729 253.933Z" fill="#231F20"/>
</svg>
