<svg width="539" height="545" viewBox="0 0 539 545" fill="none" xmlns="http://www.w3.org/2000/svg">
<path d="M471.106 75.5966C467.886 79.1126 464.478 82.4508 460.896 85.5966C460.556 85.8866 459.546 86.6566 458.346 87.5966C458.346 87.7766 458.406 87.9366 458.406 88.1266C458.932 103.607 459.716 119.073 460.756 134.527C462.216 126.027 464.376 117.527 466.026 109.797C468.975 95.8026 472.783 82.0033 477.426 68.4766C475.346 70.8966 473.276 73.2866 471.106 75.5966Z" fill="#00AEEF"/>
<path d="M500.344 219.617C498.344 229.557 496.308 239.48 494.234 249.387C493.544 252.697 492.954 256.117 492.234 259.527L513.324 233.867L513.784 233.327C515.724 223.897 518.274 214.497 520.134 205.177C521.654 197.577 522.914 189.887 524.354 182.237C523.768 175.937 523.214 169.63 522.694 163.317C521.361 146.703 520.308 130.073 519.534 113.427C516.914 129.567 513.994 145.657 511.184 161.627C507.798 181 504.184 200.33 500.344 219.617Z" fill="#00AEEF"/>
<path d="M320.996 299.057C330.706 339.327 332.786 383.827 331.176 425.057C330.176 451.167 323.456 478.417 297.486 489.787C289.906 493.107 279.736 495.787 277.416 504.927C275.176 513.737 281.366 521.997 288.936 525.537C305.266 533.177 324.066 524.127 335.666 512.227C348.666 498.897 355.576 480.767 361.046 463.307C366.712 445.271 370.548 426.711 372.496 407.907C376.286 370.727 372.176 334.307 362.546 298.357C348.699 298.61 334.849 298.843 320.996 299.057Z" fill="#00AEEF"/>
<path d="M525.275 218.797C528.215 213.447 526.985 207.477 526.345 201.707L526.075 203.147C524.875 209.607 523.805 216.317 522.535 222.997C523.539 221.658 524.455 220.255 525.275 218.797Z" fill="#00AEEF"/>
<path d="M510.825 29.6766C506.015 64.8466 496.525 99.6766 489.425 134.427C485.925 151.58 482.545 168.75 479.285 185.937C476.405 201.107 474.525 216.937 470.695 232.027C472.749 246.973 475.042 261.897 477.575 276.797C479.865 273.907 482.335 271.137 484.755 268.397C485.465 260.957 487.865 253.397 489.395 246.207C491.395 236.873 493.332 227.54 495.205 218.207C498.972 199.54 502.535 180.81 505.895 162.017C510.545 136.017 514.155 109.837 518.435 83.7666C518.102 72.1066 517.905 60.4399 517.845 48.7666C517.845 39.6566 517.265 30.2366 517.755 21.0066C515.335 23.5566 512.625 26.0066 510.095 28.4266C510.611 28.6089 510.92 29.1375 510.825 29.6766Z" fill="#00AEEF"/>
<path d="M386.214 182.797C385.843 183.517 385.628 184.308 385.584 185.117C385.698 186.646 386.388 188.076 387.514 189.117C388.368 189.294 389.233 189.408 390.104 189.457C391.059 189.566 391.973 189.91 392.764 190.457C394.054 189.287 394.214 186.607 393.134 184.457C392.547 183.202 391.421 182.283 390.074 181.96C388.727 181.637 387.306 181.945 386.214 182.797Z" fill="white"/>
<path d="M98.0341 194.297C95.4441 194.107 93.2541 199.407 91.4141 202.527C92.8841 206.177 96.9441 209.667 99.9841 205.587C101.514 203.547 101.934 194.587 98.0341 194.297Z" fill="white"/>
<path d="M116.105 92.9466C152.645 91.8566 189.105 89.8466 225.695 88.8266C261.605 87.8266 297.395 88.7366 333.285 89.6366C351.425 90.0966 369.562 90.3033 387.695 90.2566C406.315 90.2066 425.225 88.7566 443.825 89.5666C444.275 85.9666 448.555 82.0266 451.105 79.7966C459.625 72.1377 467.43 63.7197 474.425 54.6466C481.595 45.5866 488.425 36.2266 495.725 27.3166C498.925 23.4366 502.535 18.5466 506.615 14.3766C492.725 14.3766 478.835 13.2766 464.885 14.3766C448.235 15.6566 431.725 18.2066 415.175 20.3766C355.875 28.0066 296.045 27.4666 236.375 27.1166C177.915 26.7666 120.145 28.2966 62.045 34.6966C55.425 46.0766 46.555 56.7966 38.525 67.0966C33.7917 73.2099 28.915 79.2333 23.895 85.1666C22.005 87.3966 20.135 89.8166 18.125 92.0866C50.805 93.1566 83.365 93.9166 116.105 92.9466Z" fill="#8DC63F"/>
<path d="M194.504 502.717C183.724 507.377 151.304 501.837 158.384 521.997C165.594 542.527 195.314 530.597 207.384 522.297C239.054 500.587 249.164 460.477 252.174 424.397C255.624 382.987 254.564 341.347 254.234 299.847C241.401 299.947 228.574 300.02 215.754 300.067C219.974 320.007 223.164 340.227 226.624 360.297C230.004 379.897 233.014 399.787 232.844 419.727C232.664 448.427 224.114 489.897 194.504 502.717Z" fill="#00AEEF"/>
<path fill-rule="evenodd" clip-rule="evenodd" d="M446.785 101.187C446.5 101.269 446.209 101.329 445.915 101.367C431.002 103.106 415.628 102.978 400.465 102.851C396.186 102.816 391.924 102.78 387.695 102.787C369.555 102.787 351.418 102.557 333.285 102.097C296.785 101.097 260.415 100.257 223.895 101.197C205.827 101.666 187.641 102.502 169.4 103.341C116.858 105.757 63.8554 108.194 11.8945 101.937C32.7645 162.117 47.7045 224.937 62.3645 286.937C197.095 289.777 331.845 287.407 466.545 283.827C456.049 223.433 449.448 162.427 446.785 101.187ZM108.585 213.187C100.095 223.187 84.1345 217.787 80.8745 205.907C77.3345 193.027 86.4945 183.017 97.8745 179.187C100.875 178.187 102.645 180.977 102.195 183.397L102.195 183.397L102.195 183.397L102.195 183.397L102.195 183.397C102.555 183.537 102.915 183.677 103.275 183.847C113.545 188.657 115.655 204.887 108.585 213.187ZM155.495 273.047C155.495 273.096 155.535 273.137 155.585 273.137H155.565C155.614 273.142 155.659 273.106 155.665 273.057C155.67 273.007 155.634 272.962 155.585 272.957C155.535 272.957 155.495 272.997 155.495 273.047ZM256.425 247.497C229.425 248.887 219.505 209.017 219.885 188.627C219.985 183.497 227.265 183.687 227.715 188.627C228.689 198.852 231.537 208.811 236.115 218.007C239.925 225.607 245.975 236.557 255.675 236.277C265.965 235.987 271.865 224.407 272.675 215.547C273.13 210.569 272.475 205.679 271.819 200.786C271.338 197.196 270.857 193.604 270.815 189.977C270.745 184.117 278.335 183.977 280.245 188.697C288.485 208.927 284.655 246.047 256.425 247.497ZM383.865 200.317C389.285 203.387 396.125 203.657 400.865 198.977H400.855C405.295 194.597 406.525 187.797 404.665 181.927C400.715 169.287 384.325 165.887 375.995 176.407C371.992 181.386 371.673 188.383 375.205 193.707C377.229 196.855 380.294 199.194 383.865 200.317Z" fill="#009444"/>
<path d="M488.555 54.5966C486.615 57.0966 484.655 59.5833 482.675 62.0566C478.515 77.7366 474.495 93.4666 471.115 109.337C467.855 124.657 467.455 142.087 462.445 156.947C464.039 176.187 466.039 195.393 468.445 214.567C470.065 205.697 472.035 196.857 473.675 188.137C477.009 170.35 480.495 152.583 484.135 134.837C491.245 99.9566 497.275 63.8366 508.505 30.0066C507.505 31.0066 506.505 32.0766 505.605 33.1166C499.655 40.0666 494.145 47.3666 488.555 54.5966Z" fill="#00AEEF"/>
<path fill-rule="evenodd" clip-rule="evenodd" d="M176.295 493.827C187.175 493.197 195.295 489.937 202.295 481.377C215.505 465.257 219.945 443.037 220.705 422.757C221.777 394.218 216.701 365.952 211.64 337.764L211.64 337.764L211.64 337.763C209.383 325.198 207.13 312.648 205.425 300.097C156.172 300.243 106.925 299.74 57.6849 298.587C55.0544 298.548 52.7556 296.801 52.0149 294.277C43.206 256.809 33.0431 219.738 22.8806 182.668L22.8804 182.668C15.3803 155.31 7.88035 127.953 0.924919 100.437C0.779411 99.8825 0.728695 99.3077 0.774919 98.7366C-0.485081 95.9466 1.26492 91.5366 4.97492 91.6566H5.31492C7.02885 88.4411 9.45019 85.6339 11.8767 82.8208C12.6498 81.9245 13.4235 81.0275 14.1749 80.1166C19.5149 73.6366 24.8049 67.1266 29.8949 60.4366C33.8053 55.3082 37.475 49.9756 41.145 44.6425L41.145 44.6424C44.9174 39.1604 48.6901 33.6781 52.7249 28.4166C52.9879 26.957 53.9638 25.7258 55.3249 25.1366L55.9449 24.3466C56.7042 23.3406 57.856 22.7056 59.112 22.6006C60.368 22.4956 61.6092 22.9306 62.5249 23.7966C94.0649 18.5066 126.335 16.8366 158.235 15.9166C186.3 15.1077 214.376 15.2 242.451 15.2923C274.768 15.3986 307.085 15.5049 339.385 14.2366C370.265 13.0266 400.845 10.0266 431.465 5.90663C433.904 5.5775 436.374 5.23532 438.87 4.88952C464.515 1.33743 492.905 -2.59497 517.865 3.34663C519.592 3.67615 521.005 4.91652 521.555 6.58663C521.844 6.73604 522.116 6.91715 522.365 7.12663C525.713 6.82137 528.745 9.11221 529.365 12.4166C530.495 21.4735 530.207 30.9058 529.922 40.2497V40.2509V40.2521V40.2533V40.2545V40.2557V40.2569V40.2581V40.2594C529.778 44.9742 529.635 49.6664 529.675 54.2766C529.782 67.61 530.065 80.9433 530.525 94.2766C531.445 120.963 533.008 147.607 535.215 174.207C535.557 178.197 536.109 182.323 536.667 186.5C537.888 195.634 539.142 205.011 538.305 213.747C537.48 222.371 531.979 228.798 526.558 235.132C525.869 235.937 525.181 236.74 524.505 237.547C521.712 240.88 518.925 244.213 516.145 247.547C516.089 247.686 516.043 247.831 515.996 247.977L515.976 248.042L515.974 248.046L515.973 248.05C515.966 248.073 515.958 248.096 515.951 248.119L515.935 248.167C515.676 248.791 515.163 249.275 514.525 249.497L499.515 267.417C497.567 269.733 495.641 272.246 493.681 274.803L493.681 274.804C489.311 280.506 484.771 286.43 479.435 290.897C478.939 293.727 476.479 295.791 473.605 295.787C440.672 296.673 407.742 297.45 374.815 298.117C387.695 341.347 389.085 388.387 380.935 432.577C374.495 467.477 362.855 511.127 330.765 531.207C317.115 539.747 299.355 543.277 284.245 536.437C271.195 530.527 262.285 516.297 265.925 501.787C268.913 489.863 278.299 485.683 287.923 481.398L287.923 481.398C292.279 479.458 296.683 477.497 300.565 474.787C314.525 465.047 317.985 445.847 319.135 430.047C321.76 394.087 317.786 358.574 313.806 323.007C312.918 315.075 312.03 307.14 311.215 299.197C296.202 299.423 281.185 299.607 266.165 299.747C267.395 326.837 266.995 354.087 266.245 381.177L266.231 381.667V381.667C265.546 405.937 264.853 430.468 260.125 454.357C253.125 489.647 233.985 525.587 199.275 540.107C184.715 546.187 165.035 548.177 153.035 535.687C143.795 526.037 142.165 508.707 153.295 499.887C159.739 494.799 167.696 494.332 175.544 493.871L176.295 493.827ZM361.045 463.277C366.711 445.241 370.547 426.681 372.495 407.877C376.285 370.697 372.175 334.277 362.545 298.297C348.698 298.577 334.848 298.82 320.995 299.027C330.705 339.327 332.785 383.827 331.175 425.027C330.155 451.137 323.485 478.387 297.485 489.757C296.362 490.248 295.182 490.727 293.98 491.214C287.064 494.018 279.391 497.128 277.415 504.897C275.175 513.707 281.365 521.967 288.935 525.507C305.265 533.197 324.065 524.097 335.665 512.197C348.675 498.867 355.575 480.737 361.045 463.277ZM526.345 201.687C526.423 202.387 526.509 203.09 526.595 203.795V203.795C527.222 208.897 527.858 214.076 525.275 218.777C524.455 220.235 523.539 221.638 522.535 222.977C523.223 219.355 523.853 215.725 524.477 212.13C525.003 209.095 525.526 206.084 526.075 203.127L526.345 201.687ZM524.395 182.237C523.808 175.937 523.255 169.63 522.735 163.317C521.408 146.71 520.368 130.077 519.615 113.417C517.625 125.675 515.462 137.888 513.306 150.063L513.304 150.07L513.303 150.075L513.284 150.183L513.22 150.548C512.566 154.241 511.912 157.93 511.265 161.617C507.858 180.997 504.232 200.33 500.385 219.617C498.412 229.557 496.375 239.48 494.275 249.387C493.811 251.492 493.403 253.642 492.993 255.806L492.992 255.808L492.992 255.809C492.757 257.046 492.522 258.287 492.275 259.527L513.365 233.867L513.825 233.327C514.754 228.811 515.823 224.302 516.889 219.806L516.89 219.8C518.05 214.909 519.206 210.032 520.175 205.177C521.081 200.647 521.894 196.085 522.709 191.519C523.261 188.424 523.813 185.327 524.395 182.237ZM517.735 21.0166L517.734 21.039C516.003 22.8609 514.125 24.6268 512.264 26.3769L512.263 26.377L512.262 26.3787C511.527 27.0697 510.794 27.7582 510.075 28.4466C510.587 28.6283 510.894 29.151 510.805 29.6866C507.6 53.1218 502.317 76.3927 497.047 99.6029L497.047 99.6041L497.047 99.6052L497.047 99.6064L497.046 99.6075L497.046 99.6087C494.408 111.229 491.773 122.834 489.405 134.437C485.905 151.59 482.525 168.76 479.265 185.947C478.261 191.233 477.379 196.604 476.493 201.995C474.838 212.074 473.17 222.225 470.675 232.037C472.722 246.997 475.015 261.92 477.555 276.807C479.671 274.136 481.94 271.569 484.182 269.032L484.182 269.032L484.735 268.407C485.218 263.342 486.485 258.221 487.727 253.199L487.727 253.198C488.31 250.844 488.887 248.511 489.375 246.217C491.368 236.883 493.305 227.55 495.185 218.217C498.978 199.523 502.542 180.793 505.875 162.027C508.707 146.212 511.153 130.308 513.599 114.4C515.17 104.186 516.741 93.9707 518.415 83.7766C518.082 72.1033 517.885 60.4366 517.825 48.7766C517.799 46.1607 517.74 43.5191 517.681 40.8638L517.681 40.8584C517.534 34.2761 517.386 27.6095 517.734 21.039L517.755 21.0166H517.735ZM473.655 188.097C477.015 170.303 480.502 152.537 484.115 134.797C485.481 128.103 486.807 121.363 488.138 114.6L488.139 114.591C493.733 86.1574 499.404 57.3344 508.435 29.9666C507.405 31.0066 506.425 32.0766 505.535 33.0766C500.631 38.8529 495.997 44.8709 491.363 50.8895L491.361 50.8911C490.42 52.1136 489.479 53.3361 488.535 54.5566C486.615 57.0633 484.655 59.55 482.655 62.0166C478.495 77.6966 474.475 93.4266 471.095 109.297C469.829 115.246 468.993 121.513 468.151 127.824L468.151 127.824V127.825C466.824 137.766 465.483 147.817 462.425 156.907C464.038 176.16 466.038 195.367 468.425 214.527C469.296 209.755 470.269 204.992 471.237 200.252L471.238 200.25L471.238 200.249L471.238 200.247L471.239 200.243L471.24 200.238C472.071 196.171 472.898 192.121 473.655 188.097ZM460.755 134.407C459.728 118.953 458.945 103.487 458.405 88.0066C458.405 87.9004 458.389 87.8035 458.374 87.7072C458.362 87.6314 458.349 87.556 458.345 87.4766C459.545 86.5766 460.555 85.8066 460.895 85.4766C464.477 82.3309 467.885 78.9926 471.105 75.4766C473.275 73.1666 475.345 70.7766 477.395 68.3566C472.765 81.8578 468.968 95.6304 466.025 109.597C465.404 112.657 464.692 115.803 463.967 119.003C462.823 124.055 461.649 129.243 460.755 134.447V134.407ZM38.5249 67.0966C33.7916 73.2233 28.9149 79.2466 23.8949 85.1666C23.16 86.0338 22.4281 86.9267 21.6886 87.8287L21.6873 87.8302L21.6871 87.8305L21.687 87.8307L21.6867 87.8311C20.5251 89.2481 19.3449 90.6879 18.1049 92.0866C50.8049 93.1566 83.3649 93.9466 116.105 92.9466C133.21 92.4223 150.309 91.7052 167.408 90.988C186.834 90.1732 206.26 89.3585 225.695 88.8266C261.191 87.8283 296.571 88.7157 332.045 89.6055L333.285 89.6366C351.418 90.0966 369.555 90.3033 387.695 90.2566C394.808 90.2375 401.963 90.0141 409.127 89.7905C420.717 89.4286 432.33 89.066 443.825 89.5666C444.275 85.9666 448.555 82.0266 451.105 79.7966C459.625 72.1378 467.43 63.7198 474.425 54.6466C477.476 50.7908 480.466 46.8807 483.457 42.9694L483.458 42.9682L483.459 42.9664C487.495 37.6883 491.532 32.4082 495.725 27.2566C496.603 26.1922 497.511 25.0519 498.452 23.8712L498.454 23.8696C500.942 20.7467 503.655 17.3422 506.615 14.3166C501.987 14.3166 497.365 14.1967 492.74 14.0768C483.485 13.8367 474.22 13.5965 464.885 14.3166C452.465 15.3012 440.124 16.9702 427.785 18.6388L427.785 18.6388C423.582 19.2072 419.38 19.7754 415.175 20.3166C357.217 27.774 298.752 27.4269 240.425 27.0806L236.375 27.0566C177.915 26.7066 120.145 28.2366 62.0449 34.6366C56.594 44.0585 49.6155 52.9465 42.8599 61.5505C41.3986 63.4116 39.9477 65.2595 38.5249 67.0966ZM62.3549 286.917C47.6949 224.977 32.7549 162.117 11.8849 101.917C63.8476 108.174 116.857 105.737 169.401 103.32C187.639 102.482 205.822 101.646 223.885 101.177C260.405 100.237 296.775 101.117 333.275 102.077C351.415 102.557 369.552 102.787 387.685 102.767C391.715 102.767 395.774 102.802 399.848 102.838C415.211 102.973 430.792 103.109 445.905 101.347C446.199 101.309 446.49 101.249 446.775 101.167C449.439 162.404 456.039 223.407 466.535 283.797C331.835 287.387 197.085 289.797 62.3549 286.917ZM224.466 347.324C225.198 351.652 225.93 355.978 226.675 360.297C230.055 379.897 233.065 399.797 232.945 419.717C232.715 448.427 224.165 489.897 194.555 502.717C191.385 504.087 186.345 504.575 180.989 505.094C168.126 506.341 153.437 507.764 158.435 521.997C165.595 542.527 195.315 530.597 207.435 522.297C239.105 500.587 249.225 460.477 252.225 424.397C255.195 388.748 254.823 352.93 254.451 317.177C254.391 311.398 254.331 305.621 254.285 299.847C241.465 299.953 228.638 300.027 215.805 300.067C219.117 315.716 221.794 331.538 224.466 347.324Z" fill="#231F20"/>
<path d="M270.806 189.977C270.906 198.547 273.456 206.917 272.666 215.547C271.856 224.407 265.956 235.987 255.666 236.277C245.966 236.557 239.916 225.607 236.106 218.007C231.528 208.811 228.681 198.852 227.706 188.627C227.256 183.687 219.976 183.497 219.876 188.627C219.496 209.017 229.396 248.887 256.416 247.497C284.656 246.047 288.486 208.927 280.236 188.697C278.326 184.017 270.736 184.117 270.806 189.977Z" fill="#231F20"/>
<path fill-rule="evenodd" clip-rule="evenodd" d="M375.235 193.707C371.703 188.383 372.022 181.386 376.025 176.407C384.355 165.887 400.745 169.287 404.735 181.927C406.565 187.777 405.335 194.597 400.895 198.977C396.115 203.657 389.275 203.387 383.895 200.317C380.324 199.194 377.259 196.855 375.235 193.707ZM390.105 189.407C391.06 189.516 391.974 189.86 392.765 190.407C394.055 189.237 394.215 186.557 393.135 184.437C392.554 183.177 391.43 182.251 390.082 181.922C388.735 181.593 387.311 181.897 386.215 182.747C385.843 183.467 385.629 184.258 385.585 185.067C385.698 186.596 386.388 188.026 387.515 189.067C388.368 189.244 389.234 189.358 390.105 189.407Z" fill="#231F20"/>
<path fill-rule="evenodd" clip-rule="evenodd" d="M102.185 183.397C102.545 183.537 102.905 183.677 103.265 183.847C113.545 188.657 115.655 204.887 108.575 213.187C100.085 223.147 84.1251 217.787 80.8651 205.907C77.3351 193.027 86.4951 183.017 97.8651 179.187C100.815 178.197 102.635 180.977 102.185 183.397ZM91.4151 202.527C92.8851 206.177 96.9851 209.667 99.9851 205.587C101.515 203.547 101.935 194.587 98.0351 194.297C95.9378 194.145 94.1353 197.51 92.5557 200.46C92.162 201.195 91.7822 201.904 91.4151 202.527Z" fill="#231F20"/>
<path d="M155.564 273.137C155.614 273.137 155.654 273.096 155.654 273.047C155.654 272.997 155.614 272.957 155.564 272.957C155.515 272.957 155.474 272.997 155.474 273.047C155.474 273.096 155.515 273.137 155.564 273.137Z" fill="#231F20"/>
</svg>
