<svg width="239" height="572" viewBox="0 0 239 572" fill="none" xmlns="http://www.w3.org/2000/svg">
<path fill-rule="evenodd" clip-rule="evenodd" d="M23.624 481.156C31.664 473.986 40.704 470.676 50.834 469.326C60.204 469.046 68.894 469.026 77.814 473.346C86.2674 477.472 93.2109 484.15 97.664 492.436C107.174 510.146 104.894 533.366 91.174 548.266C76.384 564.326 54.274 565.886 34.104 560.626C14.564 555.496 6.98397 528.426 8.56397 510.496C9.64689 499.15 15.0364 488.65 23.624 481.156ZM84.184 506.346C84.824 499.266 83.024 490.776 78.344 485.266C76.544 483.146 74.804 482.606 72.164 482.146C66.6225 481.101 61.0219 480.4 55.394 480.046C52.314 479.846 51.384 484.226 53.624 485.696C54.0163 487.232 54.4267 488.736 54.8327 490.223C56.517 496.393 58.1245 502.281 58.044 509.066C57.8003 517.673 55.9943 526.165 52.714 534.126C51.924 536.136 53.964 538.716 56.074 538.536C70.954 537.236 82.894 520.486 84.184 506.346Z" fill="#BE1E2D"/>
<path fill-rule="evenodd" clip-rule="evenodd" d="M114.845 230.096L113.915 230.256C113.633 225.535 113.069 220.842 112.506 216.145C111.811 210.355 111.116 204.559 110.945 198.696C110.499 187.099 111.311 175.488 113.365 164.066C117.359 143.218 123.846 122.926 132.685 103.626C141.174 84.9541 151.63 67.2407 163.875 50.7859C170.024 42.3118 176.704 34.2356 183.875 26.6059C187.471 22.7691 191.403 19.2617 195.625 16.1259C196.087 15.7892 196.622 15.3834 197.209 14.9378C198.07 14.285 199.042 13.5469 200.065 12.8159C199.362 14.2941 198.778 15.8526 198.201 17.3895C197.99 17.9529 197.779 18.5133 197.565 19.0659C195.14 25.2378 192.8 31.531 190.471 37.7923L190.225 38.4559C189.156 41.3281 187.98 44.2322 186.793 47.164C183.09 56.3079 179.277 65.7224 178.285 75.2859C177.995 78.0959 181.735 78.3859 183.055 76.5859C188.726 68.8088 192.068 59.0396 195.274 49.6656C196.195 46.9743 197.104 44.3156 198.055 41.7459C200.195 35.9559 202.285 30.1459 204.285 24.3059C204.573 23.4674 204.894 22.6054 205.221 21.7262C206.083 19.4076 206.989 16.9694 207.475 14.5259C207.489 14.6018 207.502 14.6768 207.516 14.7507C207.589 15.1535 207.657 15.5233 207.725 15.8359C208.391 18.7693 208.908 21.7259 209.275 24.7059C209.895 29.4159 210.135 34.1759 210.275 38.9259C210.565 49.0159 210.495 59.1559 210.275 69.2559C209.855 89.2059 208.355 109.296 202.545 128.476C196.735 147.656 185.975 164.576 173.545 180.136C164.378 191.603 154.759 202.731 145.146 213.851C141.137 218.49 137.128 223.126 133.155 227.786C132.922 228.066 132.72 228.371 132.555 228.696C129.585 228.696 126.615 228.836 123.675 229.086C124.669 226.046 125.173 222.612 125.658 219.304C126.008 216.92 126.348 214.602 126.855 212.546C128.733 205.218 131.027 198.003 133.725 190.936C136.411 183.492 139.527 176.21 143.055 169.126C143.984 167.303 144.979 165.497 145.976 163.687C148.562 158.995 151.165 154.271 152.695 149.126C153.285 147.156 150.835 146.016 149.445 147.226C143.574 152.305 140.016 159.452 136.617 166.28L136.515 166.486C132.997 173.515 129.902 180.748 127.245 188.146C124.679 195.604 122.569 203.212 120.925 210.926C120.672 212.051 120.366 213.266 120.044 214.54C118.84 219.316 117.426 224.922 117.845 229.706C117.511 229.749 117.178 229.792 116.844 229.834C116.178 229.918 115.511 230.003 114.845 230.096ZM162.774 115.957C162.192 117.516 161.642 118.993 161.075 120.256V120.306C160.564 121.446 159.936 122.662 159.283 123.927C157.011 128.327 154.436 133.315 155.415 137.766C155.549 138.227 155.915 138.585 156.38 138.708C156.845 138.831 157.34 138.701 157.685 138.366C161.154 134.956 163.371 129.789 165.437 124.974C166.146 123.321 166.837 121.71 167.555 120.226C168.088 119.124 168.737 117.96 169.41 116.754C171.766 112.532 174.411 107.789 173.385 103.356C173.258 102.936 172.949 102.597 172.543 102.432C172.137 102.267 171.678 102.294 171.295 102.506C166.975 104.696 164.705 110.78 162.774 115.957Z" fill="#009444"/>
<path d="M61.5951 529.956C70.0951 525.496 76.3851 512.886 76.9251 504.606C77.2051 500.366 76.5451 491.426 72.4751 488.876C70.6151 487.706 66.2151 487.926 63.9551 487.596L59.9551 487.026C67.5551 498.916 65.8851 516.396 61.5951 529.956Z" fill="#E27683"/>
<path d="M144.205 247.506C144.205 244.306 144.605 240.996 144.205 237.896C144.2 237.819 144.2 237.743 144.205 237.666L142.725 237.606C141.005 237.856 138.575 237.396 136.835 237.336C129.891 237.024 122.933 237.338 116.045 238.276C109.115 239.225 102.277 240.757 95.6051 242.856C89.4151 244.856 79.3851 246.646 76.6051 253.356C76.5611 253.446 76.5109 253.533 76.4551 253.616C76.4869 254.954 76.5904 256.289 76.7651 257.616C77.9751 263.336 85.1951 258.686 88.3351 257.346C94.0951 254.906 100.335 253.956 106.445 252.886C113.915 251.586 121.445 250.456 128.915 249.336C133.925 248.606 139.125 247.356 144.205 247.506Z" fill="#754C29"/>
<path fill-rule="evenodd" clip-rule="evenodd" d="M95.1036 221.848C96.8142 225.745 98.6722 229.979 101.654 232.936C100.474 233.276 99.3041 233.606 98.0741 233.936C96.3938 232.84 94.7082 231.809 93.0359 230.787C88.239 227.854 83.5516 224.988 79.4141 220.836C73.4879 214.777 68.6894 207.709 65.2441 199.966C57.8541 183.716 54.5941 165.196 53.7241 147.466C52.7633 129.922 54.768 112.342 59.6541 95.4658C60.8541 91.4358 62.2141 87.4458 63.7341 83.5358C64.5607 81.4025 65.4441 79.2958 66.3841 77.2158C66.4495 77.0704 66.5689 76.8246 66.7188 76.5162C67.1873 75.5521 67.9531 73.9762 68.2941 72.9458C68.4792 73.1122 68.6437 73.3002 68.7841 73.5058C69.6041 74.5913 70.4926 75.6234 71.4441 76.5958C72.7774 78.1358 74.1107 79.6858 75.4441 81.2458C75.8263 81.7091 76.208 82.1711 76.5892 82.6324C79.4989 86.1539 82.3708 89.6295 85.0941 93.2458C91.0137 100.892 96.1275 109.129 100.354 117.826C103.677 124.927 105.305 132.125 106.971 139.492C107.576 142.166 108.186 144.863 108.884 147.586C108.998 148.074 109.235 148.526 109.574 148.896C107.645 156.631 106.182 164.475 105.194 172.386C102.924 191.036 102.644 213.256 110.644 230.796C109.184 231.066 107.734 231.376 106.284 231.706C105.783 228.206 104.064 224.886 102.395 221.66C101.765 220.443 101.142 219.24 100.594 218.046C97.6919 211.602 95.1677 204.994 93.0341 198.256C91.1172 192.2 89.5316 186.044 88.2841 179.816C87.8428 177.569 87.5199 175.25 87.1953 172.918C86.5488 168.273 85.895 163.576 84.2841 159.296C83.6141 157.516 80.6341 157.046 80.1941 159.296C78.961 165.451 80.1317 171.956 81.2351 178.086C81.2682 178.27 81.3012 178.453 81.3341 178.636C82.6344 185.874 84.3947 193.022 86.6041 200.036C88.6928 206.69 91.1909 213.209 94.0841 219.556C94.4232 220.298 94.7604 221.066 95.1036 221.848ZM75.7241 126.086C74.1241 131.896 75.7741 139.776 77.7241 145.376C78.2241 146.726 80.5341 147.056 80.7641 145.376C81.8841 139.196 82.3141 131.386 79.6441 125.566C78.8441 123.826 76.1941 124.426 75.7241 126.086Z" fill="#009444"/>
<path fill-rule="evenodd" clip-rule="evenodd" d="M195.975 436.376C205.785 438.876 216.345 442.766 222.415 451.376C233.865 467.606 231.055 491.576 220.425 507.466C209.795 523.356 190.065 532.386 171.125 530.736C161.085 529.886 150.445 525.426 144.575 516.886C138.705 508.346 136.605 495.656 136.495 485.476C136.345 472.076 142.205 462.486 150.965 452.876C156.205 447.116 161.455 441.666 167.655 437.436C176.975 433.666 186.165 433.876 195.975 436.376ZM182.615 505.406C187.835 508.226 194.685 509.466 200.415 507.686H200.425C213.295 503.686 213.465 487.846 211.795 476.946C209.625 462.716 202.045 450.146 188.395 444.586C187.706 444.278 186.912 444.315 186.255 444.686C184.775 443.696 182.655 445.316 183.105 447.096C183.465 448.485 183.841 449.859 184.215 451.225C185.891 457.342 187.525 463.306 187.435 469.846C187.362 477.35 185.479 484.726 181.945 491.346C181.855 491.511 181.765 491.676 181.675 491.842C178.995 496.755 176.182 501.914 182.615 505.406Z" fill="#BE1E2D"/>
<path d="M191.854 453.936C194.041 460.149 194.909 466.749 194.404 473.316C193.945 480.608 191.941 487.718 188.524 494.176C187.074 496.916 184.274 499.276 188.274 500.556C194.354 502.506 201.274 501.656 203.874 495.076C205.774 490.216 205.294 484.436 204.644 479.366C203.384 469.606 199.374 460.096 191.854 453.936Z" fill="#E27683"/>
<path fill-rule="evenodd" clip-rule="evenodd" d="M199.954 428.566C213.304 431.736 226.154 438.046 232.634 450.736C243.584 472.206 239.114 499.626 223.784 517.736C208.724 535.606 182.344 543.366 160.024 536.446C148.804 532.966 139.304 525.686 134.664 514.686C129.834 503.246 127.604 489.336 129.424 477.016C131.384 463.786 139.314 454.346 148.314 445.066C154.254 438.976 160.814 432.636 168.644 429.226C165.692 426.677 163.176 423.074 161.037 420.012C160.525 419.278 160.034 418.576 159.564 417.926C155.119 411.662 151.11 405.1 147.564 398.286C140.003 384.021 133.505 369.218 128.124 353.996C122.601 338.406 118.278 322.416 115.194 306.166C112.364 291.286 109.404 275.136 110.054 259.846L109.234 259.946C107.754 264.645 105.132 269.156 102.536 273.622C100.889 276.456 99.2521 279.272 97.9244 282.106C94.3069 289.907 91.171 297.922 88.5344 306.106C83.3344 321.946 79.6544 338.236 76.4644 354.576C73.0444 372.163 69.8944 389.779 67.0144 407.426C65.3644 417.516 63.8644 427.636 62.6144 437.786C62.2581 440.688 62.061 443.73 61.8615 446.808C61.518 452.109 61.1674 457.518 59.9844 462.516C81.4458 462.901 100.578 476.132 108.514 496.076C117.174 518.516 109.694 545.356 90.6344 559.956C81.5003 566.931 70.3849 570.822 58.8944 571.066C47.2244 571.396 31.7344 570.206 21.7344 563.506C12.0544 556.996 6.47442 544.306 3.47442 533.456C0.314424 522.296 -0.255576 510.016 3.31442 498.876C9.53442 479.486 31.1144 460.776 52.5344 463.206L52.8444 463.146C52.1436 456.465 53.2376 449.232 54.2708 442.401C54.5645 440.459 54.8532 438.551 55.0944 436.696C56.3644 426.976 57.8844 417.286 59.5344 407.626C62.6544 389.276 65.9944 370.946 69.6544 352.696C73.0544 335.756 76.9744 318.866 82.5544 302.486C85.2872 294.397 88.479 286.471 92.1144 278.746C92.569 277.798 93.028 276.816 93.4967 275.814C95.8226 270.838 98.3871 265.352 101.824 261.016C99.7344 261.346 97.6544 261.716 95.6044 262.166C93.7502 262.574 91.7658 263.336 89.7224 264.121C84.9 265.972 79.7488 267.951 75.2044 265.696C69.4644 262.816 71.0444 256.546 72.8844 251.696C72.9718 251.483 73.101 251.289 73.2644 251.126C73.1352 244.975 81.4103 241.035 86.2341 238.739L86.3244 238.696C87.8044 237.976 89.2944 237.326 90.8044 236.696C83.5844 233.686 77.0644 227.716 72.1744 222.156C65.5866 214.452 60.4014 205.652 56.8544 196.156C42.4044 159.156 43.4544 113.756 58.7844 77.246C58.9524 76.8463 59.128 76.4174 59.3122 75.9678C61.7266 70.0725 65.5966 60.6235 72.5744 67.016C79.1914 73.0779 85.0166 80.9564 90.4603 88.3191L90.4604 88.3191C91.195 89.3127 91.9227 90.2969 92.6444 91.266C99.0658 99.7225 104.438 108.926 108.644 118.676C110.822 123.642 112.543 128.797 113.784 134.076C115.784 127.706 118.004 121.416 120.394 115.236C132.422 83.7614 149.663 54.5363 171.394 28.786C176.767 22.269 182.71 16.2451 189.154 10.786C189.436 10.5548 189.729 10.3127 190.033 10.0619L190.047 10.0499L190.048 10.0494C194.683 6.22071 201.759 0.375977 207.674 0.375977C214.225 0.402749 215.614 10.0105 216.442 15.7305L216.442 15.7319L216.442 15.7347C216.542 16.4226 216.633 17.0542 216.724 17.606C218.03 26.3328 218.709 35.1421 218.754 43.966C219.444 78.816 219.194 115.206 204.344 147.476C192.208 173.834 172.197 196.386 152.772 218.279C149.468 222.002 146.182 225.706 142.954 229.406C143.188 229.443 143.425 229.476 143.662 229.51L143.662 229.51L143.663 229.51C144.005 229.558 144.348 229.607 144.684 229.666C152.465 231.107 151.725 240.044 151.159 246.87C151.074 247.905 150.992 248.892 150.944 249.796C150.939 251.42 149.735 252.791 148.124 253.006C142.45 255.904 135.34 256.689 128.689 257.424H128.689L128.687 257.424L128.686 257.424L128.684 257.424C126.545 257.661 124.455 257.892 122.474 258.186C120.464 258.476 118.394 258.736 116.394 258.986C117.244 264.988 117.862 271.008 118.48 277.029C119.41 286.094 120.34 295.162 122.064 304.176C124.981 319.444 128.992 334.483 134.064 349.176C139.342 364.507 145.794 379.408 153.364 393.746C156.747 400.286 160.542 406.606 164.724 412.666C167.118 416.059 169.702 419.315 172.464 422.416C173.839 423.813 175.074 425.34 176.154 426.976C176.834 426.876 177.494 426.796 178.154 426.736C178.492 426.71 178.832 426.751 179.154 426.856C186.135 426.257 193.166 426.835 199.954 428.566ZM97.6344 492.436C93.1814 484.15 86.2378 477.472 77.7844 473.346H77.8144C68.8944 469.026 60.2044 469.046 50.8044 469.326C40.6744 470.676 31.5944 473.986 23.5944 481.156C15.0068 488.65 9.61734 499.15 8.53442 510.496C6.95442 528.426 14.5644 555.536 34.0744 560.626C54.2444 565.886 76.3544 564.326 91.1444 548.266C104.864 533.366 107.144 510.146 97.6344 492.436ZM113.284 164.106C117.279 143.258 123.766 122.966 132.604 103.666C141.103 84.9929 151.569 67.2794 163.824 50.826C169.974 42.3519 176.654 34.2757 183.824 26.646C187.435 22.7929 191.384 19.2721 195.624 16.126C196.087 15.7893 196.622 15.3834 197.209 14.9379C198.069 14.2851 199.042 13.547 200.064 12.816C199.35 14.2448 198.789 15.7707 198.235 17.2768L198.235 17.2769L198.235 17.277C198.013 17.879 197.793 18.4778 197.564 19.066C195.054 25.506 192.634 31.976 190.224 38.456C189.156 41.3282 187.98 44.2322 186.793 47.1641C183.089 56.308 179.276 65.7224 178.284 75.286C177.994 78.096 181.734 78.386 183.054 76.586C188.744 68.8022 192.09 59.007 195.297 49.6148L195.297 49.6137C196.211 46.9399 197.113 44.2987 198.054 41.746C200.194 35.956 202.284 30.146 204.284 24.306C204.573 23.4674 204.894 22.6054 205.22 21.7263C206.082 19.4077 206.989 16.9694 207.474 14.526L207.516 14.7507C207.589 15.1535 207.657 15.5233 207.724 15.836C208.391 18.7626 208.898 21.7193 209.244 24.706C209.844 29.416 210.084 34.176 210.244 38.926C210.544 49.016 210.474 59.156 210.244 69.256C209.824 89.206 208.334 109.256 202.514 128.476C196.694 147.696 185.934 164.576 173.514 180.136C164.334 191.612 154.709 202.749 145.091 213.878C141.09 218.507 137.09 223.135 133.124 227.786C132.891 228.066 132.69 228.371 132.524 228.696C129.524 228.696 126.584 228.836 123.644 229.086C124.652 226.004 125.167 222.515 125.661 219.165L125.661 219.165C126.005 216.83 126.34 214.562 126.824 212.546C128.713 205.218 131.016 198.003 133.724 190.936C136.432 183.504 139.567 176.236 143.114 169.166C144.065 167.29 145.084 165.436 146.104 163.58L146.104 163.58L146.104 163.579L146.105 163.579L146.105 163.579C148.668 158.915 151.238 154.237 152.754 149.166C153.344 147.166 150.894 146.056 149.504 147.266C143.612 152.389 140.014 159.618 136.587 166.5L136.574 166.526C133.057 173.555 129.961 180.788 127.304 188.186C124.739 195.645 122.628 203.252 120.984 210.966C120.732 212.09 120.425 213.305 120.104 214.58L120.104 214.58L120.104 214.58L120.104 214.58C118.9 219.356 117.486 224.962 117.904 229.746C117.572 229.789 117.239 229.831 116.906 229.874C116.239 229.958 115.572 230.043 114.904 230.136L113.974 230.296C113.689 225.523 113.117 220.778 112.544 216.032C111.852 210.299 111.16 204.564 110.974 198.776C110.5 187.169 111.284 175.544 113.314 164.106H113.284ZM65.2744 200.026C68.7198 207.77 73.5182 214.837 79.4444 220.896H79.4744C83.5619 224.998 88.1859 227.845 92.922 230.76C94.6514 231.825 96.3958 232.898 98.1344 234.046C99.3044 233.666 100.474 233.326 101.654 232.986C98.6155 229.964 96.7142 225.609 94.9821 221.641C94.6795 220.948 94.3819 220.266 94.0844 219.606C91.2101 213.245 88.732 206.713 86.6644 200.046C84.455 193.032 82.6948 185.884 81.3944 178.646L81.3238 178.256C80.2031 172.079 79.0106 165.505 80.2544 159.306C80.6944 157.056 83.6744 157.526 84.3444 159.306C85.901 163.511 86.5507 168.119 87.1945 172.683L87.1945 172.684C87.5351 175.098 87.8739 177.501 88.3444 179.826C89.5919 186.054 91.1776 192.21 93.0944 198.266C95.228 205.004 97.7523 211.612 100.654 218.056C101.216 219.305 101.865 220.565 102.521 221.839C104.156 225.011 105.838 228.277 106.344 231.716C107.794 231.386 109.244 231.076 110.704 230.806C102.734 213.266 102.984 191.046 105.254 172.396C106.242 164.485 107.705 156.641 109.634 148.906C109.296 148.536 109.058 148.085 108.944 147.596C108.243 144.859 107.632 142.148 107.027 139.459C105.371 132.108 103.753 124.924 100.414 117.836C96.1879 109.139 91.0741 100.902 85.1544 93.256C82.0744 89.126 78.8044 85.166 75.5044 81.256C74.1711 79.696 72.8378 78.146 71.5044 76.606C70.5443 75.6506 69.6459 74.6352 68.8144 73.566C68.6741 73.3604 68.5096 73.1724 68.3244 73.006C67.9835 74.0364 67.2177 75.6122 66.7492 76.5764C66.5993 76.8848 66.4799 77.1306 66.4144 77.276C65.4811 79.3626 64.5978 81.4693 63.7644 83.596C62.2444 87.526 60.8844 91.526 59.6844 95.526C54.7984 112.403 52.7936 129.983 53.7544 147.526C54.6244 165.256 57.8844 183.776 65.2744 200.026ZM106.444 252.896C105.895 252.992 105.344 253.087 104.793 253.182C99.209 254.145 93.577 255.117 88.3344 257.356C87.8614 257.558 87.2958 257.835 86.6721 258.141C83.1555 259.864 77.7921 262.493 76.7644 257.626C76.5897 256.299 76.4863 254.964 76.4544 253.626C76.5103 253.543 76.5604 253.456 76.6044 253.366C78.9259 247.681 86.4808 245.513 92.5236 243.779L92.5237 243.779C93.6129 243.467 94.653 243.168 95.6044 242.866C102.277 240.767 109.114 239.235 116.044 238.286C122.932 237.348 129.89 237.034 136.834 237.346C137.428 237.366 138.103 237.434 138.802 237.503H138.802C140.151 237.637 141.592 237.781 142.724 237.616H144.094C144.09 237.693 144.09 237.769 144.094 237.846C144.426 240.183 144.309 242.639 144.193 245.077V245.077C144.154 245.874 144.117 246.668 144.094 247.456C140.268 247.343 136.373 248.013 132.573 248.667L132.573 248.667H132.573C131.328 248.881 130.093 249.093 128.874 249.276C127.452 249.501 126.026 249.726 124.597 249.951L124.595 249.951C118.598 250.897 112.546 251.85 106.514 252.876L106.444 252.896ZM144.574 516.906C150.444 525.436 161.124 529.876 171.124 530.756C190.064 532.406 209.834 523.306 220.414 507.506C230.994 491.706 233.864 467.626 222.414 451.396C216.344 442.766 205.874 438.906 195.974 436.396C186.074 433.886 176.944 433.686 167.654 437.456C161.454 441.686 156.204 447.136 150.964 452.896C142.204 462.496 136.344 472.096 136.494 485.496C136.574 495.676 138.704 508.376 144.574 516.906Z" fill="#231F20"/>
<path d="M80.8336 145.376C81.9536 139.196 82.3836 131.376 79.7136 125.566C78.9136 123.826 76.2636 124.426 75.7936 126.086C74.1536 131.896 75.7936 139.776 77.7936 145.376C78.2236 146.726 80.5336 147.056 80.8336 145.376Z" fill="#231F20"/>
<path d="M157.724 138.416C162.384 133.836 164.784 126.086 167.594 120.276C169.994 115.276 174.744 109.106 173.424 103.406C173.297 102.987 172.988 102.647 172.582 102.482C172.176 102.317 171.717 102.344 171.334 102.556C165.714 105.406 163.564 114.846 161.114 120.306C158.824 125.416 154.194 132.036 155.454 137.816C155.588 138.278 155.954 138.635 156.419 138.758C156.884 138.881 157.379 138.751 157.724 138.416Z" fill="#231F20"/>
<path fill-rule="evenodd" clip-rule="evenodd" d="M54.863 490.365C54.4461 488.83 54.0249 487.28 53.6246 485.696C51.3846 484.226 52.3146 479.846 55.4046 480.046C61.0325 480.4 66.6331 481.102 72.1746 482.146C74.8146 482.646 76.5546 483.146 78.3546 485.266C83.0346 490.776 84.8346 499.296 84.1946 506.346C82.9046 520.536 70.9646 537.236 56.0846 538.536C53.9746 538.716 51.9346 536.126 52.7246 534.126C56.0015 526.164 57.8041 517.673 58.0446 509.066C58.1246 502.372 56.5285 496.496 54.863 490.365ZM66.479 487.799C65.5273 487.746 64.642 487.697 63.9546 487.596L59.9146 487.026C67.5946 498.956 65.8846 516.396 61.5946 529.956C70.0946 525.496 76.3846 512.886 76.9246 504.606C77.2046 500.366 76.5446 491.426 72.4746 488.876C71.1803 488.062 68.6562 487.921 66.479 487.799Z" fill="#231F20"/>
<path fill-rule="evenodd" clip-rule="evenodd" d="M186.264 444.706C186.921 444.335 187.715 444.298 188.404 444.606C202.054 450.146 209.634 462.716 211.804 476.966C213.424 487.866 213.294 503.706 200.424 507.706C194.694 509.486 187.844 508.246 182.624 505.426C176.207 501.953 178.972 496.86 181.64 491.946C181.745 491.752 181.85 491.559 181.954 491.366C185.488 484.746 187.372 477.37 187.444 469.866C187.535 463.228 185.867 457.17 184.153 450.947C183.804 449.679 183.453 448.404 183.114 447.116C182.664 445.336 184.784 443.706 186.264 444.706ZM188.274 500.576C194.354 502.526 201.304 501.676 203.874 495.096V495.076C205.774 490.216 205.294 484.436 204.644 479.386C203.384 469.586 199.374 460.116 191.854 453.956C194.04 460.169 194.909 466.769 194.404 473.336C193.945 480.627 191.941 487.738 188.524 494.196C188.223 494.765 187.864 495.317 187.52 495.847C186.205 497.869 185.104 499.562 188.274 500.576Z" fill="#231F20"/>
</svg>
