<svg width="566" height="532" viewBox="0 0 566 532" fill="none" xmlns="http://www.w3.org/2000/svg">
<path d="M226.589 108.91C233.909 107.62 240.269 103.58 242.959 96.4C244.959 91.18 244.259 85.75 245.039 80.4C230.528 83.3503 216.338 87.7041 202.669 93.4C199.303 94.84 195.949 96.3567 192.609 97.95C201.859 106 214.289 111.08 226.589 108.91Z" fill="#8DC63F"/>
<path d="M245.46 143C249.86 143.54 251.23 139.15 251.46 135.56C251.7 131.56 249.68 128.68 245.78 127.69C245.511 127.627 245.276 127.467 245.12 127.24C238.68 129.46 237.82 142 245.46 143Z" fill="#8DC63F"/>
<path d="M197.69 170.81C211.29 169.81 215.98 154.97 212.69 143.38C211.147 138.774 208.508 134.611 205 131.25C200.84 127.19 196.56 126.14 191.32 125.93C170.41 132.19 173.41 172.58 197.69 170.81Z" fill="#8DC63F"/>
<path d="M168.94 275.07C165.94 275.26 165.08 277.98 163.67 280.07L163.6 280.14C163.587 281.684 164.335 283.135 165.6 284.02C168.14 285.88 172.68 282.86 173.17 280.02C173.369 278.782 173.015 277.519 172.2 276.566C171.386 275.613 170.194 275.066 168.94 275.07Z" fill="#8DC63F"/>
<path d="M175.849 243C182.289 245.77 190.329 246.26 196.019 241.53C201.399 237.05 202.519 229.86 202.869 223.24C203.549 210.69 201.479 197.52 188.339 192.57C187.851 192.38 187.511 191.932 187.459 191.41C177.619 189.41 167.399 200.24 164.269 209.61C162.209 215.76 160.569 223.5 162.349 229.88C164.129 236.26 169.999 240.52 175.849 243Z" fill="#8DC63F"/>
<path d="M125.501 266.06C132.871 263.9 136.381 255 134.211 248.06C132.111 241.38 125.211 237.12 119.101 239.23C115.181 241.452 112.468 245.318 111.711 249.76C110.431 257.83 116.091 268.82 125.501 266.06Z" fill="#8DC63F"/>
<path d="M312.531 48.27C312.237 47.6533 311.853 47.0837 311.391 46.58C309.931 44.96 306.031 44.1 303.321 44.45C301.582 46.3256 300.314 48.5878 299.621 51.05C299.781 52.94 300.391 54.72 301.361 55.53C306.701 60 312.431 53 312.531 48.27Z" fill="white"/>
<path fill-rule="evenodd" clip-rule="evenodd" d="M15.1199 294.37C7.1199 300.99 6.6299 312.42 9.1199 321.7C17.8999 354.81 48.7099 381.7 80.1199 392.7C80.5955 392.862 81.034 393.117 81.4099 393.45C82.8089 393.827 83.7927 395.08 83.8274 396.529C83.862 397.978 82.9393 399.276 81.5599 399.72C61.7999 406.23 44.0799 417.23 30.7799 433.39C30.5464 433.673 30.2649 434.003 29.9502 434.373C27.3403 437.435 22.4502 443.173 23.7799 446.76C25.6586 451.979 34.7236 446.546 39.2309 443.845L39.2315 443.845L39.2347 443.843C39.9081 443.439 40.4796 443.097 40.9099 442.86C51.247 437.121 61.265 430.825 70.9199 424C73.7899 422 77.7699 426 75.7799 428.86C71.077 435.804 67.374 443.375 64.7799 451.35C63.5899 454.85 62.5199 458.35 61.4699 461.93C61.3079 462.463 61.0934 463.086 60.8584 463.768C59.643 467.297 57.8798 472.416 59.9999 474.93C63.8269 479.572 68.4593 472.418 70.8006 468.802L70.8013 468.801L70.8028 468.798L70.8039 468.796L70.8049 468.795C71.1352 468.285 71.4198 467.845 71.6499 467.52C73.9199 464.32 76.0999 461.05 78.2099 457.74C82.6099 450.8 86.6199 443.64 90.3099 436.31C91.9399 433.07 96.9699 434.7 96.9599 438.11C96.9599 441.396 96.8596 444.728 96.7589 448.073C96.5563 454.806 96.352 461.593 96.9599 468.18C97.3799 472.51 102.86 484.36 108.09 476.35C109.827 473.7 110.445 469.624 110.988 466.047L110.988 466.047C111.177 464.804 111.356 463.622 111.57 462.58C115.61 442.568 117.418 422.17 116.96 401.76C116.9 398.76 120.11 397.37 122.53 398.56C149.342 411.686 180.104 414.27 208.73 405.8C193.23 384.72 183.84 359.15 183.23 332.93C183.12 328.19 190.39 328.23 190.58 332.93C192.58 377.194 217.902 417.079 257.11 437.72C267.522 442.927 278.583 446.72 290 449C291.986 449.43 294.346 449.717 296.855 450.021C304.781 450.983 314.185 452.124 317.93 458.55C319.779 461.744 319.889 465.632 319.995 469.383C320.036 470.846 320.077 472.288 320.22 473.66C320.89 479.931 322.213 486.115 324.17 492.11C326.117 498.116 328.694 503.898 331.86 509.36C332.048 509.687 332.24 510.022 332.435 510.365C334.954 514.772 338.125 520.321 342.69 522.52C351.03 526.52 350.98 516.77 350.86 511.29C350.74 505.54 350.59 499.79 350.2 494.06C349.35 481.34 347.32 468.68 342.2 456.94C340.47 452.94 344.85 449.19 348.28 452.25C360.14 462.81 382.2 471.31 397.28 462.49C417.94 450.49 377.13 431.38 367.76 428.35C363.81 427.08 364.29 420.26 368.76 420.76C374.262 421.469 379.844 421.242 385.27 420.09C385.611 420.013 386.04 419.929 386.523 419.834L386.525 419.833L386.525 419.833C388.729 419.4 392.044 418.749 393.16 417.56C396.933 413.517 390.152 412.407 387.808 412.024L387.612 411.991C387.522 411.976 387.441 411.963 387.37 411.95C378.972 410.419 370.459 409.516 361.958 408.615L361.957 408.615L361.953 408.614L361.949 408.614L361.945 408.613L361.941 408.613L361.937 408.612L361.932 408.612L361.928 408.611L361.924 408.611L361.92 408.611L361.916 408.61L361.912 408.61C358.433 408.241 354.956 407.872 351.49 407.46C331.28 405.08 311.04 401.76 292.49 392.92C275.334 384.951 261.37 371.424 252.86 354.53C244.27 337.33 240.48 318 238.99 298.96C238.71 295.39 244.66 294.61 245.23 298.11L245.243 298.193C248.349 317.277 251.534 336.845 261.01 353.99C266.246 363.496 273.557 371.699 282.4 377.99C284.993 378.358 287.569 378.765 290.14 379.171L290.143 379.171L290.146 379.172L290.149 379.172L290.152 379.173L290.155 379.173L290.157 379.173L290.16 379.174L290.163 379.174L290.166 379.175L290.169 379.175L290.172 379.176C297.864 380.391 305.509 381.598 313.4 381.74C324.77 381.912 336.13 381.008 347.33 379.04C386.49 372.25 422.76 353.32 455.04 330.71C471.8 318.96 481.73 300.16 490.04 281.91C494.398 272.565 498.036 262.9 500.92 253C502.224 248.36 503.167 243.626 503.74 238.84C503.507 238.935 503.261 238.992 503.01 239.01C472.65 240.33 442.26 240.94 411.87 240.59C396.683 240.41 381.493 240.05 366.3 239.51C363.066 239.393 359.764 239.333 356.428 239.271H356.427C345.176 239.065 333.542 238.851 322.86 236.46C322.05 236.27 322.33 235.18 323.05 235.11C328.618 234.518 334.422 234.813 340.129 235.104H340.129H340.13H340.13H340.131H340.131H340.131H340.132H340.132H340.132H340.133H340.133H340.133C342.041 235.201 343.937 235.297 345.81 235.36L347.021 235.401L347.024 235.401L347.029 235.401L347.03 235.401L347.031 235.401L347.033 235.401L347.034 235.401L347.035 235.401L347.036 235.401L347.04 235.401C354.132 235.638 361.405 235.882 368.58 236.08C383.387 236.5 398.197 236.727 413.01 236.76C443.01 236.8 473.01 236.15 503.01 234.81C503.41 234.783 503.808 234.881 504.15 235.09C504.41 232.36 504.6 229.62 504.73 226.84L423.45 226.55C409.323 226.5 395.181 226.584 381.034 226.668H381.031H381.029H381.026H381.024H381.021H381.019H381.016H381.014H381.012H381.009H381.007H381.005C355.224 226.82 329.431 226.972 303.7 226.32C299.61 226.21 299.7 220.32 303.7 220.01C335.249 217.891 367.076 218.166 398.77 218.439H398.771H398.771H398.772H398.773H398.773H398.774H398.774H398.775H398.776H398.776H398.777C407.013 218.51 415.239 218.581 423.45 218.61L540.12 219C538.892 190.297 535.381 161.736 529.62 133.59C524.55 109.59 512.16 78.9901 483.25 78.1601C480.55 78.0801 478.25 74.9201 479.96 72.4401L480.204 72.0857C485.646 64.1861 491.497 55.6936 492.62 45.9101C493.482 37.3817 491.214 28.8309 486.24 21.8501C475.85 7.18007 454.63 4.02007 439.88 14.0101C431.77 19.5101 426.8 28.5901 423.47 37.5701C422.927 39.044 422.497 40.8651 422.042 42.7921C420.806 48.0294 419.386 54.0482 415 56.0001C412.163 57.2839 408.632 57.2798 405.305 57.276C403.942 57.2744 402.613 57.2729 401.38 57.3601C396.19 57.7201 391 58.2201 385.84 58.9001C374.37 60.4345 363.013 62.716 351.84 65.7301C348.41 66.6501 346.45 63.0101 347.47 60.5001C347.244 58.6446 347.224 56.7699 347.41 54.9101C347.809 48.2429 346.951 41.56 344.88 35.2101C342.643 28.2734 338.951 21.8945 334.05 16.5001C328.28 10.2601 321.73 8.15007 313.39 7.84007C298.62 7.29007 284.62 12.5301 275.83 24.8401C267.04 37.1501 266 53.7601 272.25 67.5501C272.634 68.3815 272.695 69.3264 272.42 70.2001C274.19 71.6101 274.15 75.2001 271.42 75.6001C263.78 76.8401 256.22 78.1601 248.74 79.6801C251.64 94.2601 243.27 109.55 228.42 112.57C214.227 115.31 199.662 110.156 190.35 99.1001C178.48 105 167.06 112 157.41 121V121.05C158.62 127.23 159 134.99 154.24 139.88C150.34 143.88 144.83 143.66 140.24 141.43C136.12 147.28 132.24 153.37 128.61 159.56C144.61 168.67 154.89 189.12 142.03 205.5C136.448 212.599 127.18 215.701 118.45 213.39C115.99 212.79 108.08 209.39 104.81 205.61C91.4299 237.24 84.2399 271.54 91.3299 305.76C92.1999 309.93 87.0999 311.83 84.7099 308.55C74.7799 294.94 57.8399 289 41.4599 288.52C32.9199 288.29 21.9999 288.66 15.1199 294.37ZM277.802 432.82L277.804 432.82C281.232 433.55 284.736 434.296 287.93 435.48C288.54 435.71 288.71 436.75 287.93 436.89C283.07 437.81 277.56 436.09 273.45 433.45C273.123 433.239 272.995 432.822 273.149 432.464C273.302 432.105 273.691 431.91 274.07 432C275.291 432.285 276.541 432.551 277.802 432.82ZM531.163 174.769L531.161 174.76C531.062 174.235 530.964 173.715 530.87 173.2C530.6 171.77 528.16 172.08 528.31 173.55C528.495 175.315 528.566 177.123 528.636 178.937V178.939C528.76 182.119 528.885 185.32 529.63 188.35C529.799 188.887 530.297 189.251 530.86 189.251C531.423 189.251 531.92 188.887 532.09 188.35C532.894 183.954 531.998 179.199 531.163 174.769ZM503.87 98.9801C512.34 104.25 517.19 112.82 520.16 122.14C521.822 127.293 522.918 132.613 524.01 137.914L524.01 137.915L524.014 137.933C524.235 139.004 524.455 140.073 524.68 141.14C524.844 141.923 525.012 142.703 525.179 143.483C526.293 148.682 527.398 153.836 527.52 159.14C527.52 160.38 525.91 160.4 525.52 159.41C522.743 152.513 521.282 145.121 519.828 137.762C517.092 123.919 514.38 110.198 502.98 100.13C502.33 99.5801 503.16 98.5401 503.87 99.0001V98.9801ZM467.71 36.4201C465.738 33.5941 462.589 31.8171 459.15 31.5901C451.88 31.1301 445.19 38.7001 445.63 45.8801C445.657 46.225 445.742 46.563 445.88 46.8801C446.517 50.6963 448.535 54.145 451.55 56.5701C456.58 60.7405 463.841 60.828 468.97 56.7801C474.084 52.5915 475.065 45.1504 471.21 39.7801C470.287 38.431 469.095 37.2872 467.71 36.4201ZM295.84 39.5901C299.39 36.3901 306.19 36.4401 310.89 37.8301C316.89 38.0901 320.79 43.8301 320.36 49.7001V49.9601C321.16 61.8101 307.53 68.7501 297.51 63.5401C293.46 61.4301 291.99 57.4101 292.18 53.2201C291.55 48.3801 292.61 42.4701 295.84 39.5601V39.5901ZM164.05 286.9C168.45 289.87 175.16 286.08 176.51 281.32C177.077 279.15 176.707 276.841 175.49 274.957C174.273 273.073 172.321 271.786 170.11 271.41C166.43 270.9 161.52 274.03 161.37 277.9C160.24 281.12 160.83 284.72 164.05 286.9ZM246.4 125.16C257.69 122.7 258.67 148.52 244.99 146.46C233 144.65 235.23 124.91 246.4 125.16ZM258.833 423.986C249.293 418.884 240.219 414.031 232.28 406C222.878 396.318 215.752 384.662 211.42 371.88C211.315 371.502 210.923 371.28 210.545 371.385C210.167 371.49 209.945 371.882 210.05 372.26C213.012 385.688 219.617 398.04 229.14 407.96C238.04 417.41 250.63 427.05 263.84 428.85C264.83 428.99 265.63 427.66 264.58 427.09C262.65 426.028 260.733 425.003 258.835 423.988L258.835 423.987L258.834 423.987L258.833 423.987L258.833 423.986ZM188.41 124C188.09 124.202 187.903 124.557 187.915 124.932C164.581 134.006 171.092 179 199.75 174.81C214.78 172.57 220.05 156.72 216.92 143.3C214.51 133 200.19 116.52 188.41 124ZM189.88 190.2C179.58 185.5 167.01 194.23 162.29 204.7V204.63C158.83 212.29 156.43 222.61 158.64 231C160.64 238.51 167.32 243.71 174.05 246.71C180.78 249.71 188.78 250.45 195.48 246.94C202.74 243.14 205.69 235.56 206.64 227.81C208.22 214.92 206.78 191.82 189.88 190.2ZM108.29 250.46C108.582 247.012 109.934 243.739 112.16 241.09C112.191 240.914 112.252 240.745 112.34 240.59C115.89 234.67 121.89 233.76 127.24 235.77C127.915 235.905 128.583 236.075 129.24 236.28C129.567 236.371 129.793 236.67 129.79 237.01C133 238.856 135.561 241.651 137.12 245.01C141.31 254.37 136.75 266.44 126.73 269.75C115.19 273.47 107.32 260.59 108.26 250.39L108.29 250.46ZM25.6499 318.49C23.0699 334.26 33.0999 353 46.5399 361.46L46.5099 361.37C46.9076 361.765 47.55 361.763 47.9449 361.365C48.3398 360.967 48.3376 360.325 47.9399 359.93C45.9697 356.886 43.5918 354.182 41.2079 351.47C38.752 348.677 36.2897 345.877 34.2599 342.69C29.6537 335.527 27.168 327.206 27.0899 318.69C27.0799 317.89 25.7799 317.66 25.6499 318.49Z" fill="#009344"/>
<path d="M117.76 209.61C121.402 210.76 125.288 210.894 129 210C136.18 208.16 141.2 202.05 143.11 195.08C146.83 181.49 137.94 169.46 126.61 163.02C123.42 168.56 120.36 174.14 117.37 179.66C113.48 186.84 109.81 194.22 106.49 201.76C107.07 205.42 115 208.79 117.76 209.61Z" fill="#8DC63F"/>
<path d="M448.901 344.25C434.6 353.744 419.577 362.102 403.971 369.25C414.659 379.86 427.199 388.425 440.971 394.52C447.181 397.25 455.971 398.19 461.231 402.6C466.681 407.19 464.521 415.18 465.001 421.45C465.662 429.771 467.827 437.902 471.391 445.45C474.671 452.45 479.561 461.3 486.221 465.58C496.481 472.17 502.691 457.45 502.601 449.58C502.501 439.81 499.861 429.81 498.221 420.21C497.541 416.21 503.401 412.93 505.281 417.21C510.281 428.65 516.761 440.15 525.511 449.21C533.611 457.57 549.721 462.7 554.511 448.29C561.221 428.08 542.511 406.81 525.431 399.2C521.951 397.65 523.691 391.76 527.371 392.03C534.931 392.58 543.911 393.58 550.631 389.3C556.861 385.3 559.971 376.79 553.081 371.89C546.921 367.51 538.541 369.02 531.501 369.53C525.209 370.01 518.894 370.11 512.591 369.83C489.561 368.76 464.581 362.22 448.901 344.25Z" fill="#8DC63F"/>
<path d="M457.24 50.6C460.86 53.17 462.91 48.65 462.93 45.54C462.909 44.4602 462.661 43.3968 462.2 42.42C460.204 41.5225 457.861 41.9568 456.32 43.51C454.24 45.52 455 49 457.24 50.6Z" fill="white"/>
<path d="M153.001 136.27C155.331 132.49 154.891 128.17 154.441 123.96C153.361 125.06 152.311 126.18 151.291 127.34C147.891 131.21 144.691 135.28 141.641 139.5C145.871 140.58 150.361 140.54 153.001 136.27Z" fill="#8DC63F"/>
<path fill-rule="evenodd" clip-rule="evenodd" d="M5.2902 332.76C-0.769803 318.53 -2.7398 299.5 10.6402 288.58C22.0002 279.31 41.2602 280.05 54.8602 282.7C65.008 284.594 74.4964 289.071 82.4102 295.7C79.9002 274.55 82.0702 253.08 87.7002 232.47C93.7402 210.37 103.53 189.42 114.8 169.54C125.26 151.07 136.38 131.57 151.7 116.63C166.7 102.03 186.45 92.34 205.7 84.71C224.51 77.24 245.11 71.37 265.51 69.89C253.3 40.97 269.24 5.94005 301.74 1.16005C309.61 4.56572e-05 318.67 4.55379e-05 326.25 2.51005C333.39 4.90005 338.81 10.3 343.18 16.3C347.693 22.4446 350.961 29.4119 352.8 36.81C353.753 40.6584 354.329 44.5902 354.52 48.55C354.587 49.9217 354.384 51.6042 354.173 53.3445C354.006 54.7254 353.834 56.1427 353.79 57.47C363.448 55.0273 373.233 53.1145 383.1 51.74C388.02 51.09 393.02 50.5 398.02 50.09C400.987 49.8434 403.957 49.65 406.93 49.51C410.2 49.35 411.53 49.09 412.81 46C413.974 43.2038 414.922 40.3697 415.868 37.5405C417.403 32.9534 418.933 28.3792 421.37 24C424.782 17.6873 429.566 12.2199 435.37 8.00005C446.93 -0.119954 462.78 -1.47995 475.72 4.00005C488.21 9.26005 497.22 21.24 499.84 34.45C502.35 48.28 497.15 59.97 490.07 71.18C515.22 75.43 529.72 100.24 535.72 123.67C543.89 155.83 547.07 189.91 548.47 222.98C548.47 225.189 546.679 226.98 544.47 226.98L511.76 226.87C512.78 236.95 510.4 247.6 507.61 257.08C504.292 268.168 500.116 278.98 495.12 289.42C486.19 308.28 475.82 325.82 458.44 337.92C457.107 338.827 455.774 339.73 454.44 340.63C465.206 350.223 478.315 356.802 492.44 359.7C506.31 362.714 519.854 362.132 533.783 361.534L533.786 361.534L533.788 361.534L533.791 361.534C535.666 361.453 537.549 361.372 539.44 361.3C551.96 360.81 568.62 367.8 564.44 383.3C561.37 394.59 551.68 398.62 541.37 399.69C548.684 405.271 554.571 412.505 558.55 420.8C563.5 431.23 565.98 444.61 559.98 455.18C553 467.37 537.43 467.6 526.73 460.24C520.26 455.81 514.85 449.58 510.26 442.72C511.45 454.31 510.06 465.67 499.94 472.01C483.59 482.25 470.35 461.01 464.59 448.45C460.778 440.216 458.41 431.387 457.59 422.35C457.497 421.293 457.559 419.923 457.627 418.437V418.436V418.436V418.435V418.435C457.806 414.523 458.022 409.797 455.53 407.79C454.456 406.908 452.549 406.46 450.847 406.061C450.06 405.877 449.317 405.702 448.72 405.5C446.33 404.71 443.97 403.83 441.64 402.89C424.654 396.04 409.315 385.661 396.64 372.44C379.221 379.859 360.905 384.962 342.16 387.62C331.263 389.099 320.247 389.511 309.27 388.85C306.74 388.7 304.15 388.52 301.54 388.29C318.17 395.13 336.91 398.13 354.81 400.13C356.803 400.355 358.796 400.575 360.789 400.795L360.793 400.796L360.797 400.796L360.802 400.797L360.806 400.797L360.81 400.797C368.212 401.615 375.614 402.433 382.99 403.48C383.628 403.572 384.287 403.659 384.961 403.748C391.27 404.583 398.839 405.585 401.73 411.91C406.18 421.73 396.17 426.05 385.73 427.73C402.39 436.52 420.88 451.44 405.59 465.96C397.78 473.4 385.73 474.22 375.59 472.89C367.711 471.848 360.117 469.251 353.25 465.25C355.969 475.298 357.582 485.612 358.06 496.01C358.142 497.354 358.238 498.716 358.334 500.09C358.776 506.406 359.235 512.97 358.52 519.13C357.97 523.94 355.66 528.42 350.92 530.24C339.57 534.58 331.28 523.25 326.21 514.91C319.476 503.789 315.035 491.433 313.15 478.57C312.81 476.15 312.632 473.755 312.455 471.363C312.361 470.099 312.268 468.836 312.15 467.57C311.71 462.87 310.88 460.78 305.88 459.57C302.59 458.775 299.223 458.233 295.855 457.691C292.867 457.21 289.878 456.728 286.94 456.07C274.471 453.431 262.433 449.055 251.18 443.07C236.94 435.22 224.306 424.758 213.94 412.23C184.571 421.681 152.753 420.015 124.53 407.55C124.477 420.149 123.612 432.732 121.94 445.22C121.02 452.033 119.857 458.8 118.45 465.52C118.258 466.445 118.08 467.413 117.897 468.404L117.897 468.405C117.041 473.044 116.091 478.194 113.24 481.77C107.11 489.49 95.8902 485.05 92.1102 477.34C89.7492 472.518 89.7731 466.939 89.7958 461.65C89.798 461.137 89.8002 460.627 89.8002 460.12V452.33C85.7494 459.375 81.3402 466.207 76.5902 472.8C72.3002 478.7 65.5202 487.81 57.3002 482.25C49.2428 476.799 52.592 466.256 55.0958 458.374L55.096 458.374L55.0967 458.371C55.3396 457.607 55.5745 456.867 55.7902 456.16C57.5818 450.149 59.7425 444.255 62.2602 438.51C53.0302 444.6 43.4102 450.39 33.4102 454.6C21.8802 459.47 13.1602 451 18.0002 439.39C22.7002 428.23 33.9102 418.47 43.3302 411.32C51.455 405.116 60.4391 400.127 70.0002 396.51C56.2516 390.666 43.6676 382.394 32.8502 372.09C21.0999 360.977 11.7244 347.598 5.2902 332.76ZM531.55 369.56C525.259 370.04 518.944 370.14 512.64 369.86C489.56 368.76 464.58 362.22 448.95 344.28C434.649 353.774 419.627 362.132 404.02 369.28C414.708 379.891 427.248 388.455 441.02 394.55C443.268 395.53 445.838 396.28 448.452 397.042C453.117 398.402 457.922 399.804 461.28 402.63C465.333 406.043 465.178 411.336 465.029 416.404C464.978 418.152 464.927 419.872 465.05 421.48C465.711 429.801 467.876 437.932 471.44 445.48C474.72 452.45 479.61 461.33 486.27 465.61C496.53 472.19 502.74 457.47 502.65 449.61C502.577 442.475 501.149 435.217 499.746 428.082C499.228 425.447 498.712 422.829 498.27 420.24C497.59 416.24 503.45 412.94 505.33 417.24C510.33 428.72 516.81 440.24 525.56 449.24C533.66 457.6 549.77 462.73 554.56 448.32C561.27 428.11 542.56 406.84 525.48 399.23C522 397.68 523.74 391.79 527.42 392.06C527.895 392.095 528.376 392.131 528.862 392.168C536.1 392.715 544.383 393.341 550.68 389.33C556.91 385.37 560.02 376.82 553.13 371.92C547.779 368.132 540.722 368.76 534.372 369.324C533.413 369.409 532.469 369.493 531.55 369.56ZM202.64 93.47C216.309 87.7742 230.499 83.4204 245.01 80.47C244.733 82.3525 244.637 84.2514 244.54 86.1536C244.364 89.6071 244.188 93.0718 242.93 96.47C240.24 103.65 233.93 107.69 226.56 108.98C214.26 111.15 201.83 106.08 192.56 98.09C195.927 96.4434 199.297 94.9034 202.67 93.47H202.64ZM154.4 123.96C153.32 125.06 152.25 126.18 151.25 127.34H151.28C147.88 131.21 144.68 135.28 141.6 139.5C145.84 140.58 150.33 140.54 152.96 136.27C155.29 132.49 154.85 128.17 154.4 123.96ZM117.33 179.64C117.662 179.029 117.994 178.418 118.327 177.805L118.327 177.805C120.997 172.885 123.689 167.927 126.57 163C137.9 169.44 146.79 181.47 143.07 195.06C141.16 202.06 136.14 208.14 128.96 209.98C125.253 210.879 121.37 210.751 117.73 209.61C115.01 208.79 107.04 205.42 106.45 201.74C109.8 194.2 113.47 186.82 117.36 179.64H117.33ZM91.2802 305.85C92.1502 310.02 87.0502 311.92 84.6602 308.64L84.6902 308.59C74.7802 294.94 57.8402 289 41.5302 288.51C32.9902 288.28 22.0402 288.65 15.1902 294.36C7.2502 300.98 6.7202 312.41 9.1902 321.69C17.9602 354.83 48.7702 381.75 80.1902 392.69C80.6658 392.852 81.1043 393.107 81.4802 393.44C82.8792 393.817 83.863 395.07 83.8977 396.519C83.9323 397.968 83.0095 399.266 81.6302 399.71C61.8502 406.22 44.1502 417.22 30.8502 433.38C30.5998 433.689 30.2914 434.055 29.9446 434.467C27.3415 437.557 22.5707 443.22 23.8502 446.75C25.7067 451.953 34.8256 446.506 39.3285 443.816C39.9919 443.42 40.5552 443.084 40.9802 442.85C51.3341 437.116 61.3689 430.823 71.0402 424C73.9002 421.98 77.9002 425.99 75.9002 428.86C71.1972 435.804 67.4943 443.375 64.9002 451.35C63.7102 454.85 62.5902 458.39 61.5902 461.93C61.4238 462.498 61.198 463.165 60.9506 463.896C59.7557 467.427 58.0573 472.445 60.1202 474.93C63.9472 479.572 68.5795 472.417 70.9209 468.802C71.253 468.289 71.5391 467.847 71.7702 467.52C74.0402 464.32 76.2202 461.05 78.3302 457.74C82.7302 450.8 86.7402 443.64 90.4302 436.31C92.0802 433.11 97.0802 434.7 97.0802 438.11C97.0533 441.065 96.9534 444.057 96.853 447.062C96.6171 454.125 96.3787 461.263 97.0802 468.18C97.5002 472.51 102.98 484.35 108.21 476.35C109.941 473.709 110.562 469.628 111.103 466.063C111.294 464.81 111.474 463.621 111.69 462.58C115.731 442.568 117.538 422.17 117.08 401.76C117.02 398.78 120.23 397.37 122.65 398.56C149.462 411.686 180.224 414.27 208.85 405.8C193.35 384.72 183.96 359.15 183.35 332.93C183.24 328.19 190.51 328.23 190.7 332.93C192.7 377.194 218.022 417.079 257.23 437.72C267.605 442.917 278.625 446.71 290 449C291.973 449.419 294.319 449.698 296.817 449.994C304.751 450.936 314.209 452.059 318.05 458.44C319.899 461.634 320.009 465.522 320.115 469.273C320.156 470.736 320.197 472.178 320.34 473.55C321.01 479.821 322.334 486.005 324.29 492C326.237 498.006 328.815 503.788 331.98 509.25C332.168 509.577 332.36 509.912 332.556 510.255C335.074 514.662 338.245 520.211 342.81 522.41C351.15 526.44 351.1 516.66 350.98 511.18C350.86 505.43 350.71 499.68 350.32 493.95C349.49 481.23 347.46 468.57 342.32 456.83C340.59 452.87 344.97 449.08 348.4 452.14C360.22 462.7 382.28 471.2 397.4 462.38C418.06 450.34 377.25 431.24 367.88 428.24C363.88 426.97 364.38 420.15 368.88 420.65C374.382 421.358 379.964 421.132 385.39 419.98C385.734 419.902 386.168 419.817 386.656 419.72C388.858 419.287 392.167 418.637 393.28 417.45C397.053 413.407 390.272 412.297 387.928 411.914C387.756 411.885 387.608 411.861 387.49 411.84C379.028 410.301 370.505 409.397 361.965 408.491C358.515 408.125 355.063 407.759 351.61 407.35C331.38 404.97 311.14 401.65 292.61 392.81C275.454 384.841 261.491 371.314 252.98 354.42C244.39 337.22 240.6 317.85 239.11 298.85C238.83 295.28 244.78 294.5 245.35 298L245.364 298.083C248.469 317.167 251.654 336.735 261.13 353.88C266.366 363.386 273.678 371.589 282.52 377.88C285.098 378.247 287.661 378.652 290.22 379.057C297.919 380.275 305.587 381.487 313.52 381.63C324.89 381.802 336.251 380.898 347.45 378.93C386.61 372.14 422.88 353.21 455.16 330.6C471.88 318.85 481.81 300.05 490.16 281.8C494.472 272.487 498.069 262.859 500.92 253C502.224 248.36 503.167 243.626 503.74 238.84C503.507 238.935 503.261 238.992 503.01 239.01C472.65 240.33 442.26 240.94 411.87 240.59C396.684 240.417 381.494 240.057 366.3 239.51C363.066 239.393 359.763 239.333 356.427 239.271C345.176 239.065 333.542 238.851 322.86 236.46C322.05 236.27 322.33 235.18 323.05 235.11C328.655 234.544 334.499 234.832 340.242 235.115C342.113 235.207 343.973 235.299 345.81 235.36C353.404 235.633 360.994 235.873 368.58 236.08C383.387 236.533 398.197 236.76 413.01 236.76C443.01 236.847 473.01 236.197 503.01 234.81C503.41 234.783 503.808 234.881 504.15 235.09C504.41 232.36 504.6 229.62 504.73 226.84L423.45 226.55C409.306 226.5 395.145 226.583 380.981 226.665C355.208 226.815 329.423 226.965 303.7 226.32C299.61 226.21 299.7 220.28 303.7 220.01C335.25 217.891 367.077 218.166 398.771 218.439C407.008 218.51 415.237 218.581 423.45 218.61L540.12 219C538.887 190.327 535.376 161.797 529.62 133.68C524.55 109.69 512.16 79.08 483.25 78.25C480.55 78.1701 478.26 75.01 479.96 72.53L480.283 72.0611C485.702 64.1755 491.502 55.7368 492.62 46C493.502 37.4543 491.242 28.8797 486.26 21.88C475.9 7.21005 454.65 4.04005 439.9 14.04C431.79 19.54 426.82 28.6 423.49 37.6C422.944 39.0657 422.509 40.8881 422.047 42.8207C420.803 48.0348 419.367 54.0502 415.04 56.02C412.231 57.3038 408.688 57.2998 405.353 57.2959C403.985 57.2944 402.653 57.2928 401.42 57.38C396.23 57.74 391.04 58.24 385.88 58.92C374.41 60.4544 363.053 62.736 351.88 65.75C348.45 66.67 346.51 63.03 347.51 60.52C347.284 58.6646 347.264 56.7899 347.45 54.93C347.85 48.2628 346.991 41.58 344.92 35.23C342.685 28.2819 338.988 21.8923 334.08 16.49C328.31 10.25 321.76 8.14005 313.42 7.83005C298.65 7.29005 284.75 12.39 275.86 24.83C266.97 37.27 266.03 53.75 272.28 67.54C272.665 68.3714 272.725 69.3163 272.45 70.19C274.18 71.59 274.14 75.15 271.45 75.59C263.77 76.83 256.25 78.15 248.77 79.67C251.67 94.25 243.3 109.56 228.45 112.56C214.257 115.3 199.692 110.146 190.38 99.09C178.45 104.96 167.03 111.98 157.38 121.04V121.09C158.59 127.27 158.97 135.03 154.21 139.92C150.35 143.93 144.84 143.7 140.21 141.47C136.09 147.32 132.24 153.41 128.58 159.6C144.55 168.71 154.86 189.16 142 205.54C136.428 212.666 127.147 215.788 118.4 213.48C115.94 212.88 108.03 209.5 104.76 205.7C91.3802 237.33 84.1902 271.63 91.2802 305.85Z" fill="#231F20"/>
<path fill-rule="evenodd" clip-rule="evenodd" d="M320.39 49.9301C321.19 61.7801 307.54 68.7201 297.54 63.5101C293.49 61.4001 292 57.3801 292.24 53.1901C291.58 48.3801 292.64 42.4701 295.87 39.5601C299.42 36.3601 306.22 36.4101 310.92 37.8001C316.88 38.0601 320.82 43.8001 320.39 49.6701V49.9301ZM311.39 46.5801C309.93 44.9601 306.03 44.1001 303.32 44.4501C301.58 46.3256 300.312 48.5878 299.62 51.0501C299.78 52.9401 300.36 54.7201 301.36 55.5301C306.7 59.9901 312.43 52.9801 312.53 48.2701C312.236 47.6533 311.851 47.0838 311.39 46.5801Z" fill="#231F20"/>
<path fill-rule="evenodd" clip-rule="evenodd" d="M468.97 56.78C463.84 60.828 456.58 60.7405 451.55 56.57C448.524 54.1326 446.505 50.6643 445.88 46.83C445.741 46.5129 445.657 46.175 445.63 45.83C445.15 38.7 451.88 31.13 459.15 31.59C462.588 31.817 465.738 33.594 467.71 36.42C469.095 37.2871 470.287 38.431 471.21 39.78C475.064 45.1504 474.084 52.5914 468.97 56.78ZM462.2 42.42C460.204 41.5225 457.861 41.9568 456.32 43.51C454.24 45.52 455 49 457.24 50.6C460.86 53.17 462.93 48.65 462.93 45.54C462.909 44.4602 462.661 43.3968 462.2 42.42Z" fill="#231F20"/>
<path fill-rule="evenodd" clip-rule="evenodd" d="M137.14 244.91C141.33 254.27 136.75 266.34 126.75 269.65C115.19 273.47 107.32 260.59 108.31 250.36C108.603 246.912 109.955 243.639 112.18 240.99C112.212 240.814 112.273 240.645 112.36 240.49C115.91 234.57 121.91 233.67 127.26 235.67C127.936 235.805 128.603 235.975 129.26 236.18C129.588 236.271 129.814 236.57 129.81 236.91C133.021 238.756 135.581 241.551 137.14 244.91ZM119.14 239.24C115.221 241.462 112.507 245.328 111.75 249.77H111.71C110.43 257.83 116.09 268.82 125.54 266.07C132.91 263.9 136.42 255 134.25 248.07C132.14 241.39 125.21 237.13 119.14 239.24Z" fill="#231F20"/>
<path fill-rule="evenodd" clip-rule="evenodd" d="M195.481 246.87C188.781 250.38 180.781 249.64 174.051 246.64C167.231 243.6 160.641 238.44 158.641 230.93C156.431 222.63 158.831 212.29 162.291 204.63C167.011 194.13 179.581 185.43 189.881 190.13C206.781 191.74 208.221 214.85 206.641 227.74C205.691 235.49 202.741 243.07 195.481 246.87ZM187.461 191.44C177.621 189.41 167.401 200.27 164.271 209.64C162.211 215.79 160.561 223.48 162.351 229.91C164.141 236.34 170.001 240.52 175.851 243.03C182.291 245.8 190.331 246.29 196.021 241.56C201.401 237.08 202.521 229.89 202.871 223.27C203.551 210.72 201.481 197.6 188.341 192.6C187.852 192.41 187.512 191.962 187.461 191.44Z" fill="#231F20"/>
<path fill-rule="evenodd" clip-rule="evenodd" d="M161.37 277.94C161.52 274.07 166.43 270.98 170.11 271.45C172.321 271.826 174.273 273.113 175.49 274.997C176.707 276.881 177.077 279.19 176.51 281.36C175.16 286.12 168.45 289.94 164.05 286.94C160.83 284.72 160.24 281.12 161.37 277.94ZM165.54 284.02C168.11 285.85 172.62 282.83 173.11 280.02L173.13 280C173.324 278.762 172.964 277.501 172.145 276.552C171.327 275.603 170.133 275.061 168.88 275.07C166.52 275.245 165.47 277.009 164.426 278.761C164.161 279.207 163.896 279.652 163.61 280.07L163.54 280.14C163.527 281.684 164.275 283.135 165.54 284.02Z" fill="#231F20"/>
<path fill-rule="evenodd" clip-rule="evenodd" d="M216.921 143.19C220.051 156.61 214.751 172.46 199.751 174.7C171.091 179 164.581 134 187.921 124.89C187.882 124.491 188.071 124.104 188.411 123.89C200.191 116.41 214.511 132.86 216.921 143.19ZM205.021 131.25C200.861 127.19 196.581 126.14 191.341 125.93C170.411 132.19 173.411 172.58 197.671 170.81C211.291 169.82 215.981 154.97 212.671 143.38C211.139 138.778 208.514 134.615 205.021 131.25Z" fill="#231F20"/>
<path fill-rule="evenodd" clip-rule="evenodd" d="M245 146.46C258.68 148.52 257.7 122.7 246.41 125.16C235.23 124.91 233 144.65 245 146.46ZM245.77 127.66C245.502 127.597 245.266 127.437 245.11 127.21H245.1C238.68 129.46 237.82 142 245.45 142.97C249.87 143.53 251.24 139.12 251.45 135.53C251.69 131.52 249.67 128.66 245.77 127.66Z" fill="#231F20"/>
<path d="M525.51 159.42C525.91 160.42 527.51 160.42 527.51 159.15C527.37 153.03 525.93 147.1 524.67 141.15C523.33 134.8 522.12 128.36 520.15 122.15C517.15 112.83 512.33 104.26 503.86 98.99C503.15 98.55 502.32 99.59 502.96 100.15C520.43 115.56 517.46 139.55 525.51 159.42Z" fill="#231F20"/>
<path d="M532.089 188.35C532.989 183.43 531.759 178.06 530.869 173.2C530.599 171.77 528.159 172.08 528.309 173.55C528.819 178.41 528.459 183.55 529.629 188.35C529.799 188.887 530.297 189.251 530.859 189.251C531.422 189.251 531.92 188.887 532.089 188.35Z" fill="#231F20"/>
<path d="M210.049 372.24C213.012 385.668 219.617 398.02 229.139 407.94C238.039 417.39 250.629 427.03 263.839 428.83C264.839 428.97 265.629 427.64 264.579 427.07C252.949 420.67 241.799 415.61 232.279 405.98C222.878 396.297 215.752 384.642 211.419 371.86C211.315 371.482 210.923 371.26 210.544 371.365C210.166 371.47 209.945 371.862 210.049 372.24Z" fill="#231F20"/>
<path d="M273.45 433.47C277.56 436.11 283.07 437.83 287.93 436.91C288.71 436.77 288.54 435.73 287.93 435.5C283.56 433.88 278.61 433.08 274.07 432.02C273.691 431.93 273.302 432.125 273.148 432.484C272.995 432.842 273.123 433.258 273.45 433.47Z" fill="#231F20"/>
<path d="M27.0905 318.69C27.0905 317.89 25.7805 317.69 25.6505 318.49C23.0705 334.26 33.1005 353 46.5105 361.37C46.9021 361.678 47.4608 361.651 47.8206 361.306C48.1804 360.961 48.2315 360.404 47.9405 360C43.9405 353.82 38.2105 349 34.2605 342.76C29.6417 335.576 27.1554 327.23 27.0905 318.69Z" fill="#231F20"/>
</svg>
