<svg width="334" height="568" viewBox="0 0 334 568" fill="none" xmlns="http://www.w3.org/2000/svg">
<path d="M99.8627 78.3601C124.086 85.9121 148.686 92.1972 173.563 97.1901C198.906 102.289 224.512 105.981 250.263 108.25C269.163 109.93 288.003 110.33 306.883 110.72C306.883 110.66 306.883 110.61 306.883 110.55C310.243 94.4743 312.098 78.1202 312.423 61.7001C312.573 53.7001 312.343 45.7001 311.743 37.7001C311.153 29.9201 311.663 21.2901 303.193 18.3401C293.193 14.8601 270.093 8.86013 263.303 19.7701C257.943 28.3801 256.303 38.3401 247.013 44.0101C238.013 49.4701 227.183 48.9001 217.163 47.5001C203.068 45.4418 189.086 42.6682 175.273 39.1901C147.273 32.3501 119.853 23.1901 91.6527 17.1901C84.8327 15.7001 75.9027 12.7001 69.0827 15.4001C63.3727 17.6801 60.4327 23.4001 58.6527 28.9701C55.2527 39.6201 55.6527 50.4901 51.2227 60.6301C56.0827 62.6901 60.8327 64.9201 65.3027 66.5701C76.7227 70.7968 88.2427 74.7268 99.8627 78.3601Z" fill="#754C29"/>
<path fill-rule="evenodd" clip-rule="evenodd" d="M85.9825 281C92.3425 253.07 109.802 228.79 140.423 224.85C169.375 221.209 197.15 237.521 208.073 264.58C219.363 292.31 210.223 324.6 182.493 337.86C157.952 349.59 127.103 346.17 105.833 329.17C93.4925 319.31 85.3125 305.17 85.3125 289.17C85.3224 286.434 85.5464 283.702 85.9825 281ZM144.762 318.92C146.493 320.38 148.802 319.49 149.993 317.85V317.88C167.503 308.8 191.632 289.64 186.592 266.86C184.713 258.29 177.473 253.16 168.792 255.7C164.328 257.096 160.331 259.686 157.232 263.19C155.792 258.27 153.143 253.92 148.533 251.77C140.862 248.19 131.853 252.42 128.052 259.56C122.993 269.05 126.302 281.15 129.423 290.72C132.632 300.55 136.692 312.08 144.762 318.92Z" fill="#BE1E2D"/>
<path d="M173.322 266.36C166.202 265.14 160.902 273.36 158.442 279.29C156.442 284.13 148.562 283.36 148.972 277.62C149.262 273.42 147.882 254.24 139.272 262.37C134.182 267.18 136.882 276.32 138.272 282.06C140.272 290.62 144.552 298.28 147.802 306.26C156.712 300.35 166.022 294.92 172.262 285.9C174.108 283.297 175.544 280.428 176.522 277.39C177.225 275.373 177.596 273.256 177.622 271.12C178.176 267.447 176.742 265.86 173.322 266.36Z" fill="#E27683"/>
<path fill-rule="evenodd" clip-rule="evenodd" d="M113.754 155.041C145.414 163.447 177.354 170.517 209.574 176.251C236.524 181.041 265.354 183.701 292.704 179.431C289.797 187.838 287.334 196.466 284.89 205.025C284.348 206.921 283.808 208.814 283.264 210.701C278.444 227.234 273.657 243.761 268.904 260.281C259.684 292.371 250.364 324.441 240.964 356.481C237.476 368.369 234.002 380.265 230.528 392.162C224.639 412.328 218.75 432.494 212.794 452.621C207.9 469.147 202.997 485.671 198.084 502.191C196.028 509.094 194.013 516.011 192 522.925C191.605 524.284 191.209 525.642 190.814 527.001C190.459 528.207 190.07 529.418 189.68 530.635C188.609 533.975 187.526 537.352 187.094 540.76C183.345 544.469 178.936 547.443 174.094 549.531C166.944 552.411 159.064 552.621 151.464 552.531C134.22 552.272 117.016 550.819 99.9735 548.181C82.8413 545.699 65.9034 542.023 49.2835 537.181C48.0801 536.82 46.8399 536.46 45.5746 536.093C32.8976 532.412 17.7091 528.002 11.9535 515.391C11.9411 515.361 11.9217 515.336 11.9033 515.311C11.8774 515.277 11.8535 515.246 11.8535 515.211C14.9564 494.341 16.9909 473.206 19.0219 452.109C20.0476 441.454 21.0724 430.808 22.2335 420.211C25.7935 387.064 29.4602 353.93 33.2335 320.811C37.0068 287.691 40.7535 254.564 44.4735 221.431C46.2735 205.384 48.0835 189.361 49.9035 173.361C49.9918 172.582 50.0803 171.803 50.1687 171.025C51.0511 163.255 51.9327 155.492 52.7235 147.721C52.8589 146.393 53.0396 145.052 53.2209 143.707C53.5215 141.477 53.8237 139.235 53.9235 137.021C58.1835 138.681 62.5235 140.141 66.8635 141.511C82.3735 146.401 98.0435 150.861 113.754 155.041ZM88.5335 331.821C110.544 357.571 149.824 365.251 181.044 354.251C216.184 341.901 234.494 305.871 224.934 269.861C215.874 235.741 184.954 210.701 149.164 211.941C129.984 212.601 110.214 222.051 96.7535 236.541C96.5411 236.66 96.346 236.808 96.1735 236.981C72.2835 261.151 65.5335 304.911 88.5335 331.821Z" fill="white"/>
<path d="M171.484 108.7C146.143 103.51 121.106 96.937 96.4836 89.0105C83.9303 85.0105 71.4936 80.6271 59.1736 75.8605C49.7536 72.2305 37.7236 69.0205 29.7736 62.2305C27.5136 73.9105 21.7736 84.8605 25.2536 97.1405C29.4036 111.62 43.5136 120.42 56.6736 125.61C81.5336 135.42 108.364 141.66 134.264 148.06C161.734 154.86 189.474 160.8 217.394 165.41C241.394 169.41 266.714 170.68 290.904 167.22C293.28 166.886 295.636 166.425 297.964 165.84L305.424 163.26C311.214 160.59 316.064 156.42 318.704 149.83C322.134 141.28 321.174 132.26 321.454 123.34C271.634 125.54 220.094 118.59 171.484 108.7Z" fill="#754C29"/>
<path fill-rule="evenodd" clip-rule="evenodd" d="M320.363 111.02L324.293 111.12C328.529 111.233 329.328 113.499 330.669 117.302C330.876 117.889 331.095 118.512 331.343 119.17C335.223 131.32 334.253 146.6 328.713 157.52C323.453 167.92 313.993 174.05 303.283 177.2C301.335 187.239 298.649 197.169 295.985 207.018C295.627 208.344 295.269 209.668 294.913 210.99C290.459 227.644 285.899 244.27 281.233 260.87C272.103 293.57 262.873 326.24 253.573 358.87C244.273 391.5 234.693 424.06 225.093 456.6C220.233 473.134 215.333 489.66 210.393 506.18C208.397 512.881 206.342 519.562 204.287 526.245L204.285 526.25L203.542 528.666C203.312 529.414 203.083 530.162 202.853 530.91C202.484 532.103 202.141 533.316 201.796 534.533C200.488 539.154 199.165 543.831 196.363 547.63C194.903 551.48 192.323 554.8 188.133 557.96C180.903 563.45 171.943 565.63 163.063 566.45C142.603 568.34 121.133 565.73 100.923 562.55C79.5918 559.096 58.5953 553.823 38.1628 546.79C25.4428 542.47 10.7028 537.08 4.76281 524.61C2.17281 520.72 0.562811 514.76 0.762811 511.36C2.0527 489.306 4.46989 470.669 7.02676 450.955L7.02681 450.954C8.31548 441.018 9.63962 430.809 10.8728 419.75C14.5861 386.63 18.3295 353.5 22.1028 320.36C25.8761 287.22 29.7628 254.1 33.7628 221C35.6761 204.96 37.6328 188.94 39.6328 172.94C40.6828 164.39 41.7328 155.85 42.9028 147.32C43.0959 145.916 43.2392 144.463 43.3843 142.991L43.3843 142.991L43.3843 142.991C43.7125 139.662 44.0497 136.242 44.9928 133.1C39.2517 130.333 33.9184 126.79 29.1428 122.57C9.95281 105.28 7.37281 73.8003 26.6128 55.0603C27.4928 54.2103 28.9628 54.3603 29.9628 54.5603C30.7346 54.5506 31.5013 54.6863 32.2228 54.9603C35.731 55.4113 39.1872 56.2017 42.5428 57.3203C45.0237 51.5521 45.9575 45.2964 46.8895 39.0525C48.2227 30.1202 49.5524 21.2122 55.4028 13.7903C64.6228 2.09027 78.8528 3.81027 92.0528 5.87027C113.324 9.2032 134.135 14.482 154.952 19.7624L154.952 19.7624L154.952 19.7624C166.176 22.6095 177.402 25.4571 188.703 28.0003C191.089 28.5346 193.573 29.1383 196.124 29.7581C208.466 32.7572 222.372 36.1361 234.273 33.8903C242.37 32.3657 245.475 25.6647 248.63 18.8533C250.525 14.7631 252.439 10.6331 255.463 7.56027C265.323 -2.45973 281.453 0.240272 293.933 2.44027C307.293 4.84027 320.123 8.10027 323.463 22.8403C326.693 37.2103 326.263 53.5603 325.693 68.2103C325.07 82.6004 323.287 96.9168 320.363 111.02ZM69.0628 15.4003C63.3528 17.6803 60.4128 23.3903 58.6328 28.9703C57.1583 33.6163 56.3993 38.3043 55.6461 42.9568C54.6728 48.9692 53.709 54.9226 51.2228 60.6503C52.7929 61.3158 54.3514 61.999 55.8928 62.6747L55.8928 62.6747L55.8929 62.6747C59.1227 64.0906 62.2769 65.4733 65.3028 66.5903C76.7228 70.8236 88.2428 74.7536 99.8628 78.3803C124.086 85.9322 148.686 92.2174 173.563 97.2103C198.906 102.309 224.512 106.002 250.263 108.27C269.163 109.95 288.003 110.35 306.883 110.74V110.57C310.239 94.4807 312.087 78.1131 312.403 61.6803C312.553 53.6803 312.323 45.6803 311.723 37.6803C311.666 36.877 311.62 36.0646 311.574 35.2504L311.574 35.2469C311.174 28.1763 310.767 20.9652 303.173 18.3203C293.193 14.8403 270.073 8.84027 263.283 19.7503C261.617 22.4264 260.312 25.233 259.026 28.0006C256.173 34.1373 253.409 40.0826 246.993 43.9903C238.013 49.4803 227.143 48.8803 217.143 47.4803C203.048 45.4219 189.066 42.6483 175.253 39.1703C163.5 36.2865 151.848 33.0046 140.199 29.723L140.198 29.7228L140.198 29.7228L140.198 29.7227C124.095 25.1868 107.995 20.6516 91.6328 17.1703C90.5198 16.9297 89.3497 16.6481 88.1411 16.3572L88.1405 16.357L88.1403 16.357C81.9649 14.8708 74.783 13.1423 69.0628 15.4003ZM283.263 210.7C278.469 227.254 273.679 243.807 268.893 260.36C259.673 292.454 250.359 324.52 240.953 356.56C237.137 369.549 233.338 382.556 229.538 395.569C223.975 414.615 218.409 433.672 212.783 452.7C207.903 469.227 202.999 485.75 198.073 502.27C196.017 509.173 194.003 516.09 191.99 523.003C191.594 524.362 191.199 525.721 190.803 527.08C190.448 528.287 190.059 529.498 189.669 530.714C188.598 534.055 187.515 537.431 187.083 540.84C183.334 544.549 178.925 547.523 174.083 549.61C166.933 552.5 159.083 552.71 151.453 552.61C134.21 552.352 117.005 550.898 99.9628 548.26C82.8306 545.779 65.8927 542.103 49.2728 537.26C48.0187 536.882 46.7245 536.504 45.4036 536.119C32.7592 532.43 17.6741 528.028 11.9428 515.47C11.9428 515.425 11.914 515.389 11.8854 515.352C11.8694 515.332 11.8536 515.312 11.8428 515.29C14.9421 494.425 16.9755 473.309 19.0041 452.242C20.0322 441.566 21.0591 430.902 22.2228 420.29C25.8428 387.15 29.5095 354.017 33.2228 320.89C36.9361 287.764 40.6828 254.637 44.4628 221.51C46.2628 205.51 48.0728 189.487 49.8928 173.44C50.8928 164.89 51.8428 156.35 52.7128 147.8C52.8509 146.446 53.0302 145.078 53.2101 143.707L53.2102 143.706C53.4991 141.503 53.7895 139.288 53.9128 137.1C58.1728 138.76 62.5128 140.22 66.8528 141.59C82.3628 146.48 98.0328 150.94 113.743 155.12C145.369 163.527 177.309 170.597 209.563 176.33C236.513 181.12 265.343 183.76 292.693 179.49C289.758 187.956 287.269 196.676 284.794 205.349L284.794 205.349L284.794 205.35C284.284 207.136 283.775 208.921 283.263 210.7ZM305.403 163.25C311.193 160.58 316.043 156.41 318.683 149.82V149.8C321.343 143.169 321.363 136.254 321.382 129.333C321.388 127.33 321.393 125.327 321.463 123.33C271.593 125.56 220.073 118.61 171.463 108.69C146.122 103.5 121.085 96.9268 96.4628 89.0003C83.8895 84.9936 71.4528 80.6103 59.1528 75.8503C57.1524 75.0778 55.032 74.3243 52.8567 73.5513C44.8099 70.6919 36.011 67.5653 29.7528 62.2203C29.1245 65.4677 28.224 68.6587 27.327 71.8375C24.9977 80.092 22.6915 88.2645 25.2328 97.1303C29.3828 111.6 43.4928 120.41 56.6528 125.6C79.3384 134.552 103.664 140.531 127.427 146.372C129.705 146.932 131.977 147.49 134.243 148.05C161.713 154.85 189.453 160.79 217.373 165.4C241.383 169.37 266.693 170.67 290.883 167.21C293.259 166.876 295.616 166.415 297.943 165.83L305.403 163.25Z" fill="#231F20"/>
<path fill-rule="evenodd" clip-rule="evenodd" d="M96.7519 236.54C110.212 222.05 129.982 212.6 149.162 211.94C184.952 210.7 215.872 235.7 224.932 269.86C234.492 305.87 216.182 341.9 181.042 354.25C149.822 365.22 110.532 357.57 88.5319 331.82C65.5219 304.91 72.2819 261.15 96.1719 236.98C96.3444 236.808 96.5395 236.66 96.7519 236.54ZM105.832 329.17C127.102 346.16 157.952 349.59 182.492 337.86C210.222 324.6 219.362 292.31 208.072 264.58C197.15 237.52 169.375 221.209 140.422 224.85C109.802 228.79 92.3419 253.07 85.9819 281C85.5458 283.702 85.3218 286.434 85.3119 289.17C85.3019 305.17 93.4919 319.31 105.832 329.17Z" fill="#231F20"/>
<path fill-rule="evenodd" clip-rule="evenodd" d="M157.232 263.19C160.33 259.686 164.328 257.096 168.792 255.7C177.472 253.19 184.712 258.32 186.592 266.85C191.592 289.61 167.502 308.77 149.992 317.85C148.762 319.49 146.492 320.38 144.762 318.92C136.692 312.08 132.632 300.55 129.422 290.72C126.302 281.15 122.992 269.05 128.052 259.56C131.852 252.42 140.862 248.19 148.532 251.77C153.142 253.92 155.792 258.27 157.232 263.19ZM176.532 277.39C177.235 275.373 177.606 273.256 177.632 271.12C178.179 267.447 176.746 265.86 173.332 266.36C166.212 265.14 160.912 273.29 158.452 279.29C156.452 284.13 148.572 283.36 148.982 277.62C149.282 273.42 147.892 254.24 139.282 262.37C134.601 266.829 136.58 275.01 137.969 280.753C138.078 281.205 138.184 281.642 138.282 282.06C139.676 287.997 142.157 293.49 144.631 298.968C145.724 301.39 146.816 303.808 147.812 306.26C148.836 305.581 149.865 304.908 150.895 304.235C158.821 299.051 166.749 293.866 172.272 285.9C174.118 283.298 175.555 280.428 176.532 277.39Z" fill="#231F20"/>
</svg>
