<svg width="384" height="543" viewBox="0 0 384 543" fill="none" xmlns="http://www.w3.org/2000/svg">
<path d="M244.824 449.565C247.204 432.565 249.414 415.465 252.394 398.565C247.744 401.029 242.815 402.926 237.714 404.215C233.61 405.213 229.433 405.882 225.224 406.215C225.28 406.33 225.324 406.451 225.354 406.575C226.834 415.765 224.954 425.525 224.064 434.735L221.214 464.365C219.474 482.315 219.624 501.925 215.684 519.635C222.127 517.003 228.319 513.793 234.184 510.045C235.054 509.485 235.904 508.895 236.764 508.305C236.708 508.066 236.688 507.82 236.704 507.575C238.214 488.195 242.134 468.815 244.824 449.565Z" fill="#754C29"/>
<path d="M74.3322 354.785C69.5994 356.436 64.6428 357.357 59.6328 357.515C60.4028 362.515 60.6328 367.615 61.4127 372.445C62.5527 379.855 63.8526 387.235 65.0926 394.625C67.6725 409.959 70.2491 425.265 72.8223 440.545C75.2122 454.805 76.0922 471.425 81.602 484.875C83.133 488.437 85.2113 491.736 87.7617 494.655C84.3419 472.765 82.8119 450.295 80.572 428.405C78.0721 404.155 74.5722 379.305 74.3322 354.785Z" fill="#603913"/>
<path fill-rule="evenodd" clip-rule="evenodd" d="M68.2605 267.085C55.1006 270.355 38.8807 271.905 28.3507 261.905C18.5108 252.585 11.4808 237.905 14.4608 224.235C17.2908 211.125 28.3807 202.415 41.1206 200.235C45.7006 199.445 47.0206 193.765 45.1906 190.235C39.9307 180.025 42.2806 167.215 52.4306 161.025C63.3405 154.375 74.5905 159.545 84.8604 164.705C89.4104 166.985 95.2204 164.245 95.2204 158.765C95.1204 146.775 95.3004 133.605 102.01 123.175C109.01 112.285 122.37 108.205 134.75 108.805C158.45 109.965 195 127.035 194.33 154.695C194.19 160.505 201 162.295 204.91 159.075C215.02 150.765 231.63 151.005 240.45 161.255C248.13 170.155 248.92 184.955 243.66 195.155C242.21 197.965 244.2 201.245 246.72 202.095C241.87 217.485 233.95 232.055 215.3 231.355C211.72 231.225 209.55 234.295 209.18 237.475C206.72 258.745 184.73 271.105 165.36 273.245C154.7 274.435 143.98 272.995 133.7 269.995C125 267.495 111.55 263.245 110.47 252.545C109.97 247.595 103.17 242.865 99.1704 247.865C91.2604 257.925 80.6405 264.015 68.2605 267.085ZM160.981 141.455C159.361 135.985 154.091 133.035 148.661 132.815C146.591 132.725 146.671 135.775 148.661 135.975C152.895 136.488 156.15 139.967 156.381 144.225C156.45 146.364 155.526 147.98 154.582 149.632C154.026 150.606 153.462 151.592 153.091 152.705C152.591 154.145 154.081 155.215 155.361 154.975C160.871 153.955 162.311 145.985 160.981 141.455ZM111.731 201.375C112.251 200.305 113.941 201.075 113.611 202.165C110.901 211.275 128.611 211.095 132.911 209.825C138.586 208.104 143.15 203.86 145.281 198.325C149.663 187.57 144.122 179.486 138.361 171.079C138.047 170.623 137.734 170.165 137.421 169.705C136.831 168.845 137.831 167.465 138.831 167.865C155.641 174.605 156.151 199.765 142.971 210.275C136.397 215.415 127.648 216.826 119.791 214.015C114.441 212.095 108.781 207.435 111.731 201.375ZM43.2267 217.031C42.7937 216.848 42.2918 216.991 42.0208 217.375L42.0708 217.345C36.7708 226.245 42.2008 238.545 51.5508 242.115C60.9008 245.685 74.2308 240.295 75.2308 229.575C75.3908 227.955 73.2308 227.825 72.4608 228.825C67.9708 235.085 61.1708 240.875 52.9708 238.005C44.7708 235.135 42.3008 225.895 43.8208 218.135C43.9069 217.673 43.6597 217.214 43.2267 217.031Z" fill="#E27683"/>
<path d="M81.7124 148.275C82.4524 135.075 85.1624 121.855 93.7122 111.405C96.7808 107.708 100.457 104.559 104.582 102.095C101.86 97.9819 99.8609 93.433 98.6721 88.6455C73.9226 63.3655 35.4832 101.775 54.1729 129.555C55.7129 131.845 53.1729 134.155 50.923 133.785C38.5232 131.735 35.6632 144.555 42.0931 151.625C54.5529 141.815 68.4227 143.165 81.7124 148.275Z" fill="#E27683"/>
<path d="M148.164 406.245C137.466 408.144 126.44 406.531 116.734 401.645C117.884 420.805 117.014 440.355 117.824 459.445C118.674 479.445 120.754 499.445 121.824 519.385C130.904 523.155 140.564 524.895 150.604 526.325C149.704 506.695 149.194 487.035 148.764 467.385C148.294 447.165 146.994 426.525 148.164 406.245Z" fill="#603913"/>
<path d="M152.551 405.265C154.271 425.845 153.701 446.795 154.321 467.385C154.921 487.295 155.781 507.185 156.471 527.085C164.37 528.024 172.337 528.275 180.28 527.835C179.57 506.835 181.45 485.505 182.09 464.585C182.72 444.345 182.3 423.585 184.35 403.415C178.35 402.495 172.35 401.045 167.71 397.815C163.16 401.213 158.02 403.739 152.551 405.265Z" fill="#754C29"/>
<path d="M111.494 398.625C94.6736 387.625 86.7336 369.345 84.0736 350.235C82.1803 351.385 80.2127 352.407 78.1836 353.295C81.9936 376.875 83.1836 401.095 85.7236 424.775C88.5136 450.365 92.9836 476.125 94.9536 501.825C99.9279 505.976 105.14 509.832 110.564 513.375C112.124 514.435 113.714 515.375 115.314 516.285C113.454 498.035 112.964 479.485 112.314 461.285C111.534 440.805 109.794 419.255 111.494 398.625Z" fill="#754C29"/>
<path d="M218.584 432.875C219.454 424.265 219.584 414.715 222.584 406.565C222.61 406.513 222.64 406.463 222.674 406.415C213.723 406.829 204.753 406.33 195.904 404.925C193.904 404.635 191.654 404.385 189.374 404.105C190.254 424.155 188.694 444.585 188.214 464.585C187.934 476.052 187.657 487.525 187.384 499.005C187.244 504.439 187.094 509.872 186.934 515.305C186.834 518.935 186.054 523.365 185.934 527.305C189.134 526.945 192.334 526.435 195.514 525.765C200.456 524.716 205.326 523.35 210.094 521.675C209.164 502.385 213.594 481.675 215.534 462.455L218.584 432.875Z" fill="#603913"/>
<path fill-rule="evenodd" clip-rule="evenodd" d="M328.941 115.655C324.911 120.865 331.531 127.115 336.831 125.925C356.631 121.445 370.541 140.145 368.781 158.385C367.231 175.635 355.201 188.125 340.781 196.195C339.113 193.614 337.286 191.14 335.311 188.785C316.721 166.565 282.311 156.355 259.151 175.355C258.65 166.811 255.072 158.737 249.081 152.625C238.061 141.205 220.541 138.655 206.241 144.385C201.061 114.185 162.861 95.9455 134.741 94.7355C127.181 94.3909 119.63 95.5781 112.541 98.2255C100.371 72.4655 113.291 38.6755 138.441 25.1155C165.211 10.6755 198.441 33.2255 207.441 58.9155C209.861 65.8055 220.281 64.9055 220.441 57.1555C220.811 39.6155 246.561 27.0355 260.441 20.9255C279.571 12.5055 298.471 9.53546 315.751 23.2955C344.061 45.8555 351.531 86.4155 328.941 115.655ZM163.991 60.7655C172.541 58.7455 180.171 63.1355 187.291 67.2655C187.848 67.5243 188.51 67.364 188.888 66.8789C189.266 66.3939 189.258 65.7124 188.871 65.2355C181.501 56.4855 167.811 53.1455 157.501 58.9155C148.611 63.9155 145.041 75.2255 150.711 83.9155C151.053 84.4981 151.803 84.6929 152.386 84.3505C152.968 84.008 153.163 83.2581 152.821 82.6755C148.071 73.2755 154.281 63.0955 163.991 60.7655ZM263.921 115.265C263.383 114.941 263.09 114.328 263.172 113.706C263.254 113.084 263.697 112.569 264.301 112.395C266.319 112.036 268.402 111.994 270.486 111.951C273.502 111.89 276.522 111.828 279.361 110.805C286.891 108.095 289.581 100.805 287.541 93.5555C285.221 85.2855 270.771 65.3455 260.611 73.4755C259.281 74.5355 257.401 72.7755 258.701 71.5655C271.771 59.4055 289.371 80.0955 292.991 92.0955C298.281 109.595 279.981 123.545 263.921 115.255V115.265ZM306.321 146.335C304.571 145.575 303.041 147.965 304.781 148.965V148.955C315.001 155.005 322.691 134.705 316.811 127.855C315.701 126.555 314.061 128.005 314.261 129.335C314.761 132.755 314.991 135.725 313.911 139.045C312.931 142.035 310.481 148.125 306.321 146.335Z" fill="#E27683"/>
<path d="M257.242 395.695C255.902 413.075 253.572 430.335 251.242 447.615C248.732 466.005 247.022 484.885 243.422 503.145C245.099 501.69 246.688 500.138 248.182 498.495C251.732 494.545 253.852 489.495 257.182 485.495C257.992 476.595 260.862 467.565 262.532 458.915C264.532 448.415 266.682 437.915 268.482 427.365C270.482 415.685 272.225 403.965 273.712 392.205C274.282 387.675 274.502 382.835 274.912 378.025C270.412 385.159 264.375 391.196 257.242 395.695Z" fill="#603913"/>
<path fill-rule="evenodd" clip-rule="evenodd" d="M219.392 244.095C246.832 245.315 259.172 213.285 262.072 190.095C302.342 142.365 371.892 234.735 319.602 256.375C315.952 257.895 313.002 263.245 316.952 266.435C332.382 278.895 331.572 302.275 325.652 319.435C318.782 339.305 299.742 357.045 277.292 352.765C274.532 352.235 270.582 353.515 270.132 356.825C267.702 374.915 252.592 387.395 235.592 391.825C224.962 394.585 213.652 394.455 202.792 393.305C196.872 392.675 190.992 391.685 185.132 390.585C184.456 390.459 183.544 390.354 182.518 390.237C179.007 389.834 174.164 389.278 172.902 387.165C171.973 385.646 170.404 384.63 168.638 384.403C166.871 384.175 165.097 384.761 163.812 385.995C150.842 397.745 129.622 396.565 116.132 386.275C101.572 375.115 95.1324 355.385 96.1324 337.535C96.4824 331.525 88.9324 329.305 84.9324 332.895C68.8024 347.485 44.3124 350.085 29.6024 331.845C15.9624 314.965 23.0624 294.965 36.4124 280.965C57.9824 287.275 84.7824 279.605 101.552 264.605C113.152 282.475 144.372 288.095 163.082 286.525C189.132 284.345 209.952 267.795 219.392 244.095ZM62.482 314.485C69.0016 317.945 76.2911 312.095 78.4809 306.095C78.6485 305.512 78.4427 304.885 77.9619 304.515C77.481 304.144 76.8226 304.105 76.3011 304.415C75.4803 305.009 74.6187 305.838 73.7132 306.711C71.0005 309.324 67.8929 312.317 64.3019 310.465C59.5122 307.995 61.7321 300.845 62.952 296.995C63.7019 294.645 60.0522 293.685 59.2522 295.995C57.1424 302.055 55.5525 310.775 62.482 314.485ZM121.482 332.925C118.634 331.214 116.502 328.528 115.482 325.365C112.372 321.985 112.722 315.215 114.972 311.365C118.482 305.365 125.712 301.885 132.562 303.585C139.199 305.304 144.081 310.95 144.822 317.765C146.072 330.435 132.622 339.635 121.492 332.895L121.482 332.925ZM193.922 354.865C201.526 355.288 208.675 351.225 212.202 344.475L212.212 344.445C215.602 338.095 219.422 327.395 214.592 321.035C212.992 318.915 209.762 318.445 208.252 321.035C206.87 323.412 206.238 326.595 205.595 329.833C204.402 335.845 203.171 342.05 197.022 343.655C186.902 346.295 184.322 335.355 183.652 328.095C183.422 325.565 180.252 323.685 178.252 325.865C167.512 337.535 180.652 354.145 193.922 354.865ZM274.682 332.285C264.792 336.285 251.882 332.285 247.872 321.945C244.732 313.865 249.002 305.505 256.572 303.495C263.082 299.835 272.162 300.625 277.672 305.855C285.532 313.285 285.812 327.785 274.692 332.255L274.682 332.285ZM262.972 262.645C274.762 267.035 289.362 260.515 293.972 248.865L293.982 248.835C299.202 235.635 290.702 225.805 279.022 220.835C277.332 220.115 275.812 222.545 277.542 223.375C287.362 228.105 294.542 237.605 288.542 248.515C283.322 258.075 273.062 258.645 263.462 259.015C262.561 259.053 261.816 259.731 261.696 260.625C261.575 261.519 262.113 262.371 262.972 262.645Z" fill="#E27683"/>
<path d="M266.654 316.215C264.884 315.515 263.574 316.845 262.434 318.025C264.114 319.025 266.034 318.665 268.144 318.755H268.464C268.473 318.534 268.417 318.315 268.304 318.125C267.774 317.435 267.594 316.585 266.654 316.215Z" fill="white"/>
<path d="M128.702 317.655C127.642 318.255 127.312 320.135 126.902 321.755C127.247 322.227 127.772 322.534 128.352 322.604C128.932 322.674 129.515 322.501 129.962 322.125C131.912 320.835 131.232 316.225 128.702 317.655Z" fill="white"/>
<path fill-rule="evenodd" clip-rule="evenodd" d="M251.482 10.3054C273.182 0.265431 297.252 -5.25457 318.482 8.66543C353.072 31.3154 366.262 76.2654 347.722 111.955C366.362 114.725 380.902 130.495 383.362 150.335C386.512 176.125 369.002 197.895 347.512 209.655C350.75 218.073 351.635 227.213 350.072 236.095C348.09 247.469 341.501 257.521 331.862 263.875C346.782 280.705 346.812 306.315 338.162 327.035C329.362 348.085 311.532 362.915 290.042 364.915C290.862 372.639 289.61 380.861 288.408 388.75L288.408 388.753C288.041 391.159 287.679 393.535 287.382 395.855C286.029 406.509 284.466 417.129 282.692 427.715C280.832 438.845 278.842 449.985 276.352 460.985C275.887 463.053 275.448 465.169 275.004 467.307L275.004 467.308L275.004 467.309L275.004 467.31C273.254 475.74 271.433 484.516 267.652 492.045C266.122 502.365 256.012 511.675 248.422 517.545C235.621 527.237 220.996 534.247 205.422 538.155C189.331 542.202 172.626 543.219 156.162 541.155C141.002 539.355 125.112 537.425 111.352 530.425C98.8424 524.045 85.1324 513.755 76.2124 502.855C67.6709 492.408 66.0578 478.454 64.5224 465.171L64.5223 465.171C64.1721 462.141 63.8259 459.146 63.4024 456.235C61.5823 443.745 59.6709 431.264 57.7599 418.785L57.7595 418.783L57.7588 418.778C56.7723 412.336 55.786 405.896 54.8124 399.455C54.3015 396.086 53.581 392.437 52.8307 388.638C50.7909 378.308 48.5319 366.868 49.6724 356.925C38.2897 354.889 28.0494 348.748 20.8924 339.665C6.44245 321.525 7.66245 291.105 26.1324 276.665C21.9012 274.24 18.1165 271.108 14.9424 267.405C3.60245 254.125 -3.17755 235.405 2.11245 218.125C6.41841 204.563 16.8587 193.819 30.2924 189.125C27.0524 177.245 29.5724 164.425 38.2324 155.245C27.9624 147.405 33.5424 130.245 46.7924 128.245C39.4624 112.955 44.7324 93.9054 57.7324 82.9554C68.3624 73.9554 85.9224 70.7354 97.2424 78.9554C96.1624 53.9054 112.922 26.4654 134.162 15.0954C161.962 0.175431 194.852 16.2654 212.002 40.4054C220.402 26.4754 238.122 16.5054 251.482 10.3054ZM54.1721 129.545C55.7121 131.835 53.1621 134.145 50.9222 133.775C38.5224 131.725 35.6625 144.545 42.1124 151.625C54.5721 141.825 68.4418 143.175 81.7315 148.285C82.4515 135.085 85.1615 121.865 93.7313 111.415C96.793 107.716 100.462 104.564 104.581 102.095C101.858 97.9788 99.8588 93.4264 98.6712 88.6354C73.9217 63.3554 35.4825 101.765 54.1721 129.545ZM14.4624 224.185C17.2924 211.115 28.3824 202.405 41.1223 200.185C45.7023 199.405 47.0223 193.725 45.1923 190.185C39.9323 180.025 42.2823 167.185 52.4323 160.975C63.3422 154.325 74.5921 159.495 84.8621 164.655C89.4121 166.935 95.262 164.195 95.222 158.715C95.122 146.715 95.302 133.555 102.012 123.125C109.012 112.235 122.372 108.125 134.752 108.755C158.452 109.915 195.002 126.985 194.332 154.645C194.192 160.455 201.002 162.245 204.911 159.025C215.021 150.715 231.631 150.955 240.451 161.205C248.131 170.115 248.921 184.905 243.661 195.105C242.211 197.915 244.201 201.195 246.721 202.045C241.871 217.435 233.951 232.045 215.301 231.305C211.721 231.175 209.551 234.245 209.181 237.425C206.721 258.695 184.732 271.055 165.362 273.195C154.692 274.385 143.982 272.905 133.702 269.945C125.002 267.445 111.552 263.195 110.472 252.495C109.972 247.545 103.122 242.805 99.172 247.815C91.2321 257.875 80.6421 263.965 68.2622 267.035C55.1022 270.305 38.8823 271.815 28.3524 261.855C18.5124 252.585 11.4825 237.905 14.4624 224.185ZM74.5202 452.293C76.0048 463.403 77.5539 474.994 81.6016 484.875C83.1326 488.437 85.211 491.736 87.7614 494.655C85.3061 478.94 83.825 462.926 82.356 447.041L82.3559 447.041L82.3559 447.04L82.3558 447.04L82.3558 447.04L82.3557 447.039L82.3557 447.039L82.3556 447.038L82.3556 447.038C81.7785 440.798 81.2033 434.579 80.5716 428.405C79.994 422.734 79.3585 417.031 78.7206 411.306L78.7204 411.304C76.6306 392.55 74.5157 373.571 74.3319 354.785C69.599 356.436 64.6424 357.357 59.6324 357.515C60.0334 360.05 60.297 362.648 60.559 365.23C60.8066 367.671 61.0528 370.099 61.4124 372.445C62.242 377.838 63.1565 383.215 64.0708 388.592L64.0709 388.592L64.0709 388.593L64.071 388.593L64.0711 388.594L64.0712 388.594L64.0712 388.595L64.0713 388.595L64.0714 388.596C64.4131 390.605 64.7549 392.615 65.0922 394.625C67.6655 409.905 70.242 425.212 72.8219 440.545C73.4561 444.329 73.984 448.28 74.5202 452.293ZM110.602 513.375C105.179 509.832 99.9668 505.976 94.9924 501.825C93.7942 486.428 91.72 471.008 89.6496 455.617C88.2644 445.319 86.8809 435.034 85.7625 424.775C84.8536 416.434 84.1222 408.025 83.3894 399.6C82.0421 384.111 80.6903 368.569 78.2225 353.295C80.2515 352.407 82.2192 351.385 84.1124 350.235C86.7725 369.345 94.7124 387.575 111.532 398.625C110.175 415.093 110.985 432.147 111.774 448.765L111.774 448.766L111.774 448.767L111.774 448.768L111.774 448.768L111.774 448.769L111.774 448.77L111.774 448.771L111.774 448.772C111.973 452.97 112.171 457.14 112.332 461.265C112.415 463.514 112.495 465.768 112.575 468.026L112.575 468.027C113.144 484.06 113.72 500.286 115.332 516.265C113.712 515.395 112.122 514.435 110.562 513.375H110.602ZM119.903 490.911C120.63 500.394 121.358 509.879 121.832 519.375L121.792 519.385C130.872 523.155 140.532 524.895 150.582 526.315C149.682 506.685 149.172 487.025 148.742 467.375C148.63 462.197 148.461 456.991 148.291 451.77C147.799 436.607 147.302 421.322 148.172 406.235C137.474 408.134 126.448 406.521 116.742 401.635C117.37 412.095 117.396 422.67 117.422 433.224C117.443 442.003 117.465 450.767 117.832 459.435C118.295 469.934 119.099 480.421 119.903 490.911ZM182.131 464.575C181.926 471.302 181.592 478.076 181.257 484.867C180.55 499.199 179.84 513.611 180.321 527.825C172.366 528.274 164.386 528.03 156.472 527.095C156.2 519.231 155.9 511.369 155.601 503.506L155.601 503.505L155.601 503.504L155.601 503.502L155.601 503.501L155.601 503.499C155.143 491.467 154.685 479.435 154.322 467.395C154.11 460.348 154.037 453.258 153.964 446.156C153.824 432.507 153.684 418.811 152.552 405.275C158.022 403.749 163.162 401.223 167.712 397.825C172.312 401.055 178.371 402.505 184.351 403.425C182.923 417.503 182.694 431.834 182.466 446.079V446.079C182.367 452.274 182.268 458.452 182.071 464.585L182.131 464.575ZM195.602 525.795C200.545 524.746 205.415 523.38 210.182 521.705L210.142 521.715C209.489 508.172 211.479 493.933 213.425 480.006L213.425 480.006C214.25 474.097 215.068 468.245 215.672 462.525L218.672 432.905C218.849 431.121 218.995 429.296 219.142 427.451L219.143 427.449L219.143 427.448L219.143 427.447C219.707 420.394 220.295 413.055 222.672 406.595C222.685 406.571 222.698 406.547 222.712 406.524C222.728 406.497 222.745 406.471 222.762 406.445C213.812 406.859 204.842 406.36 195.992 404.955C194.503 404.743 192.911 404.551 191.268 404.354L191.255 404.352C190.664 404.281 190.065 404.209 189.462 404.135C190.047 418.095 189.488 432.24 188.932 446.294C188.69 452.426 188.448 458.541 188.302 464.615C188.029 476.095 187.752 487.569 187.472 499.035C187.332 504.469 187.182 509.902 187.022 515.335C186.962 517.004 186.761 518.851 186.554 520.751C186.316 522.937 186.071 525.195 186.022 527.335C189.222 526.975 192.422 526.465 195.602 525.795ZM234.182 510.025C228.317 513.773 222.126 516.983 215.682 519.615C218.356 507.596 219.147 494.702 219.922 482.046C220.289 476.053 220.653 470.114 221.212 464.345L224.072 434.725C224.267 432.709 224.51 430.665 224.754 428.606L224.754 428.605L224.754 428.604L224.754 428.604C225.625 421.258 226.518 413.719 225.362 406.565C225.333 406.441 225.289 406.32 225.232 406.205C229.442 405.872 233.619 405.203 237.722 404.205C242.824 402.916 247.753 401.019 252.402 398.555C249.983 412.218 248.09 425.958 246.2 439.682L246.2 439.683C245.746 442.975 245.293 446.266 244.832 449.555C243.933 455.99 242.897 462.438 241.859 468.896L241.859 468.897L241.859 468.897L241.859 468.897C239.791 481.76 237.718 494.66 236.712 507.555C236.696 507.8 236.717 508.046 236.772 508.285C236.6 508.405 236.429 508.523 236.258 508.641L236.258 508.642C235.57 509.119 234.896 509.587 234.182 510.035V510.025ZM268.452 427.345C270.478 415.665 272.222 403.945 273.681 392.185V392.195C274.079 389.034 274.307 385.722 274.537 382.367V382.367V382.367C274.636 380.914 274.737 379.454 274.851 377.995C270.362 385.129 264.335 391.169 257.212 395.675C255.902 413.055 253.572 430.315 251.212 447.595C250.449 453.191 249.759 458.831 249.068 464.486L249.067 464.489C247.487 477.419 245.897 490.422 243.392 503.125C245.069 501.67 246.658 500.118 248.152 498.475C250.042 496.378 251.526 493.964 253.003 491.561C254.302 489.449 255.594 487.346 257.152 485.475C257.676 479.721 259.06 473.913 260.425 468.188C261.171 465.058 261.912 461.953 262.502 458.895C262.873 456.985 263.246 455.075 263.62 453.165L263.621 453.16L263.621 453.159C265.3 444.572 266.98 435.982 268.452 427.345ZM319.682 256.365C316.012 257.885 313.082 263.235 317.032 266.425C332.462 278.915 331.652 302.295 325.732 319.425C318.862 339.295 299.822 357.035 277.372 352.755C274.612 352.225 270.662 353.505 270.212 356.815C267.782 374.865 252.702 387.345 235.672 391.815C225.042 394.575 213.732 394.445 202.872 393.295C196.952 392.665 191.072 391.675 185.212 390.575C184.535 390.449 183.624 390.345 182.6 390.227H182.6C179.086 389.824 174.245 389.269 172.982 387.155C172.053 385.636 170.484 384.62 168.718 384.393C166.951 384.165 165.177 384.751 163.892 385.985C150.892 397.735 129.702 396.555 116.212 386.265C101.612 375.105 95.1525 355.375 96.2124 337.525C96.5624 331.525 88.9724 329.295 85.0124 332.885C68.8824 347.475 44.3924 350.075 29.6824 331.835C16.0424 314.925 23.1424 294.975 36.4924 280.955C58.0624 287.265 84.8624 279.575 101.632 264.595C113.232 282.465 144.452 288.085 163.162 286.515C189.162 284.335 210.032 267.785 219.472 244.085C246.912 245.295 259.252 213.265 262.152 190.085C302.342 142.365 371.892 234.735 319.672 256.375L319.682 256.365ZM340.852 196.175C355.222 188.105 367.252 175.615 368.852 158.365L368.842 158.385C370.542 140.145 356.632 121.445 336.822 125.925C331.522 127.115 324.932 120.865 328.932 115.655C351.522 86.4154 344.052 45.8554 315.742 23.2954C298.432 9.53543 279.562 12.5054 260.432 20.9254C246.522 27.0354 220.772 39.6154 220.432 57.1554C220.272 64.9154 209.852 65.8054 207.432 58.9154C198.432 33.2254 165.222 10.6754 138.432 25.1154C113.282 38.6754 100.362 72.4654 112.532 98.2254C119.622 95.578 127.173 94.3909 134.732 94.7354C162.852 95.9454 201.052 114.185 206.232 144.385C220.532 138.625 238.072 141.205 249.072 152.625C255.089 158.72 258.695 166.787 259.222 175.335C282.382 156.355 316.792 166.545 335.382 188.765C337.358 191.12 339.184 193.594 340.852 196.175Z" fill="#231F20"/>
<path fill-rule="evenodd" clip-rule="evenodd" d="M114.951 311.335C118.461 305.355 125.691 301.855 132.541 303.555C139.166 305.284 144.033 310.928 144.771 317.735C146.071 330.435 132.591 339.635 121.461 332.895C118.612 331.184 116.481 328.498 115.461 325.335C112.351 321.955 112.701 315.185 114.951 311.335ZM128.35 322.574C128.93 322.645 129.513 322.471 129.961 322.095C131.911 320.835 131.231 316.225 128.701 317.625C127.769 318.153 127.401 319.67 127.047 321.129C126.999 321.33 126.95 321.53 126.901 321.725C127.246 322.197 127.771 322.504 128.35 322.574Z" fill="#231F20"/>
<path fill-rule="evenodd" clip-rule="evenodd" d="M247.881 321.915C244.741 313.835 249.011 305.465 256.581 303.465C263.071 299.805 272.171 300.595 277.691 305.825C285.531 313.255 285.811 327.785 274.691 332.255C264.801 336.235 251.881 332.225 247.881 321.915ZM266.6 318.744C267.1 318.739 267.614 318.733 268.141 318.755H268.461C268.47 318.534 268.414 318.315 268.301 318.125C268.142 317.919 268.015 317.698 267.89 317.481C267.595 316.97 267.31 316.475 266.651 316.215C264.881 315.515 263.571 316.845 262.431 318.025C263.713 318.776 265.097 318.76 266.6 318.744Z" fill="#231F20"/>
<path d="M208.261 321.015C204.311 327.805 206.491 341.165 197.031 343.635C186.911 346.275 184.331 335.335 183.661 328.075C183.431 325.545 180.271 323.665 178.261 325.845C167.521 337.505 180.661 354.115 193.931 354.845C201.535 355.268 208.683 351.205 212.211 344.455C215.601 338.085 219.421 327.405 214.601 321.025C213.001 318.895 209.771 318.425 208.261 321.015Z" fill="#231F20"/>
<path d="M51.5507 242.095C60.9003 245.665 74.1799 240.275 75.2298 229.555C75.3898 227.935 73.2299 227.755 72.4599 228.805C67.9401 235.065 61.2603 240.875 52.9706 237.985C44.6809 235.095 42.301 225.875 43.8209 218.115C43.9071 217.653 43.6598 217.194 43.2269 217.011C42.7939 216.828 42.2921 216.972 42.021 217.355C36.7712 226.245 42.161 238.505 51.5507 242.095Z" fill="#231F20"/>
<path d="M119.792 214.015C127.649 216.826 136.398 215.415 142.972 210.275C156.152 199.765 155.642 174.605 138.832 167.865C137.832 167.465 136.832 168.865 137.422 169.705C143.492 178.615 149.902 186.985 145.282 198.325C143.152 203.86 138.588 208.104 132.912 209.825C128.642 211.095 110.912 211.275 113.612 202.165C113.942 201.075 112.252 200.305 111.732 201.375C108.782 207.435 114.442 212.095 119.792 214.015Z" fill="#231F20"/>
<path d="M148.663 135.975C152.897 136.488 156.152 139.967 156.383 144.225C156.493 147.625 154.113 149.735 153.093 152.705C152.593 154.145 154.093 155.215 155.363 154.975C160.873 153.975 162.313 145.975 160.983 141.455C159.363 135.985 154.093 133.035 148.663 132.815C146.593 132.725 146.673 135.775 148.663 135.975Z" fill="#231F20"/>
<path d="M157.502 58.8855C148.612 63.8855 145.042 75.2255 150.712 83.8855C151.054 84.4681 151.804 84.6629 152.387 84.3205C152.97 83.978 153.164 83.2281 152.822 82.6455C148.052 73.2455 154.282 63.0155 163.992 60.7355C172.542 58.7355 180.172 63.1055 187.292 67.2355C187.859 67.5248 188.552 67.3681 188.939 66.863C189.327 66.3578 189.298 65.6481 188.872 65.1755C181.482 56.4555 167.812 53.0955 157.502 58.8855Z" fill="#231F20"/>
<path d="M258.704 71.5554C257.404 72.7654 259.284 74.5554 260.614 73.4654C270.774 65.3354 285.224 85.2754 287.544 93.5454C289.544 100.785 286.894 108.085 279.364 110.795C274.564 112.525 269.244 111.505 264.304 112.385C263.701 112.559 263.258 113.074 263.175 113.696C263.093 114.318 263.387 114.93 263.924 115.255C279.984 123.545 298.284 109.595 292.994 92.0454C289.374 80.0954 271.774 59.4054 258.704 71.5554Z" fill="#231F20"/>
<path d="M314.262 129.325C314.762 132.745 314.992 135.715 313.912 139.035C312.912 142.035 310.482 148.115 306.322 146.325C304.572 145.565 303.042 147.925 304.782 148.955C315.002 154.955 322.692 134.705 316.782 127.845C315.702 126.545 314.072 127.995 314.262 129.325Z" fill="#231F20"/>
<path d="M279.074 220.805C277.384 220.085 275.864 222.515 277.594 223.345C287.414 228.075 294.594 237.575 288.594 248.485C283.374 258.045 273.114 258.615 263.514 258.985C262.613 259.023 261.868 259.701 261.747 260.595C261.627 261.489 262.165 262.341 263.024 262.615C274.794 267.005 289.394 260.485 294.024 248.835C299.204 235.635 290.704 225.805 279.074 220.805Z" fill="#231F20"/>
<path d="M76.3224 304.405C73.0624 306.775 69.1224 312.965 64.3224 310.455C59.5224 307.945 61.7524 300.835 62.9724 296.985C63.7224 294.615 60.0724 293.655 59.2724 295.985C57.1624 302.045 55.5724 310.765 62.5024 314.475C68.9824 317.935 76.2724 312.055 78.5024 306.085C78.67 305.502 78.4643 304.875 77.9834 304.505C77.5025 304.134 76.844 304.095 76.3224 304.405Z" fill="#231F20"/>
</svg>
