<svg width="411" height="577" viewBox="0 0 411 577" fill="none" xmlns="http://www.w3.org/2000/svg">
<path d="M33.4058 242.016C42.5258 259.786 49.6458 278.566 57.5558 296.876C58.3958 298.876 57.0158 301.286 54.6658 300.636C45.9209 298.223 37.4022 295.054 29.2058 291.166C31.4058 299.866 44.6658 302.106 51.8558 305.166C59.8861 308.44 65.8664 315.357 67.9458 323.776C69.7858 321.603 71.6891 319.493 73.6558 317.446C69.8558 305.666 66.3858 293.766 62.7858 281.916C58.9558 269.356 54.8558 256.836 51.3258 244.186C47.9158 231.926 48.3258 218.956 46.4258 206.436C44.9512 196.849 42.8635 187.366 40.1758 178.046C40.3258 180.996 40.4058 183.856 40.4758 184.576C40.9091 189.203 41.3358 193.83 41.7558 198.456C42.6558 208.216 43.5591 217.98 44.4658 227.746C44.4595 228.558 44.0778 229.32 43.432 229.811C42.7862 230.303 41.9493 230.467 41.1658 230.256C33.8658 227.586 29.1158 219.506 23.7558 214.256C18.9227 209.526 13.803 205.098 8.42578 200.996C11.2358 207.116 15.0758 212.756 18.8958 218.296C24.2401 225.881 29.087 233.804 33.4058 242.016Z" fill="#754C29"/>
<path d="M365.596 293.306C356.262 307.466 346.549 321.376 336.456 335.036C334.226 338.036 331.896 341.036 329.596 344.036C333.073 347.975 336.092 352.296 338.596 356.916C343.726 366.496 346.916 376.986 349.846 387.406C353.216 399.406 356.586 411.486 357.986 423.926C358.64 429.767 358.74 435.656 358.286 441.516C359.319 440.456 360.369 439.456 361.436 438.516C366.916 433.606 373.286 430.996 379.726 427.606C391.586 421.236 397.546 406.876 400.176 394.316C402.806 381.756 402.436 368.636 400.816 355.966C399.134 342.572 395.691 329.459 390.576 316.966C385.736 305.226 378.996 294.556 371.576 284.336C369.576 287.316 367.582 290.306 365.596 293.306Z" fill="#009344"/>
<path d="M316.386 333.216C310.026 341.606 303.746 350.016 296.876 357.986C296.016 361.696 296.246 365.886 299.486 368.416C302.976 371.136 306.776 369.416 309.316 366.296C311.536 363.596 312.666 360.056 314.236 356.976C315.983 353.651 317.99 350.468 320.236 347.456C337.236 323.836 354.486 300.596 370.076 275.986C377.696 263.986 385.076 251.746 391.076 238.796C396.623 226.373 401.057 213.483 404.326 200.276C403.206 199.566 402.076 198.866 400.946 198.166C396.739 211.017 391.709 223.583 385.886 235.786C380.456 247.356 375.606 260.966 365.756 269.586C364.919 270.374 363.664 270.518 362.669 269.942C361.675 269.365 361.178 268.204 361.446 267.086L364.446 253.306C364.876 251.306 366.336 248.236 364.446 246.906C363.517 246.322 362.505 245.881 361.446 245.596C356.518 266.415 348.337 286.326 337.206 304.596C330.926 314.606 323.486 323.846 316.386 333.216Z" fill="#754C29"/>
<path d="M279.904 269.046C285.064 270.426 290.234 271.796 295.344 273.396C304.754 276.336 315.964 279.936 322.884 287.306C323.146 287.585 323.167 288.013 322.934 288.317C322.7 288.62 322.281 288.709 321.944 288.526C315.944 285.526 310.344 281.926 304.034 279.416C298.213 277.173 292.278 275.237 286.254 273.616C282.034 272.426 277.174 271.556 273.044 269.616C280.404 276.456 288.384 282.496 297.794 286.376C307.204 290.256 319.724 291.606 325.964 300.476C327.374 302.476 324.634 305.006 322.674 303.766C317.898 300.624 312.778 298.037 307.414 296.056C302.091 294.349 296.889 292.284 291.844 289.876C284.234 286.065 277.494 280.723 272.044 274.186C273.973 280.069 275.313 286.129 276.044 292.276C279.354 293.126 282.614 295.366 285.254 297.046C289.454 299.716 293.564 302.586 297.514 305.606C304.804 311.166 311.864 317.526 315.114 326.306C320.974 318.506 326.714 310.636 331.804 302.306C337.21 293.248 341.792 283.724 345.494 273.846C343.994 273.456 342.494 272.846 340.984 272.606C338.734 272.206 336.414 272.156 334.134 271.936C330.134 271.546 326.084 271.096 322.074 270.576C313.994 269.613 305.993 268.069 298.134 265.956C290.155 263.828 282.496 260.64 275.364 256.476C273.07 255.157 270.878 253.67 268.804 252.026C268.724 255.067 268.284 258.088 267.494 261.026C270.074 265.726 274.244 267.526 279.904 269.046Z" fill="#009344"/>
<path d="M157.295 436.336C156.515 436.116 155.405 436.596 154.585 436.616C154.407 436.612 154.23 436.591 154.055 436.556C153.522 437.562 153.231 438.678 153.205 439.816C153.055 441.986 153.715 445.676 156.695 445.056C159.275 444.526 159.845 441.576 159.315 439.386C159.065 438.366 158.465 436.666 157.295 436.336Z" fill="#BE1E2D"/>
<path fill-rule="evenodd" clip-rule="evenodd" d="M101.665 317.156C106.965 323.076 113.395 327.426 119.955 331.826C122.405 333.476 120.955 337.936 117.835 336.826C105.115 332.306 94.595 321.606 87.965 309.436C88.155 327.106 97.485 342.556 113.685 351.266C121.844 355.648 131.06 357.713 140.047 359.727L140.109 359.741C140.475 359.822 140.84 359.904 141.205 359.986C151.516 362.39 161.966 364.153 172.495 365.266C191.495 367.146 210.985 366.086 229.045 359.496C246.565 353.096 260.695 341.336 266.545 323.216C272.315 305.366 269.165 287.296 263.665 269.926C258.305 278.676 249.505 285.846 241.495 292.016C234.415 297.476 223.315 304.626 213.875 301.586C213.022 301.337 212.435 300.555 212.435 299.666C212.435 298.777 213.022 297.995 213.875 297.746C215.524 297.156 217.182 296.708 218.834 296.261C221.55 295.526 224.251 294.795 226.875 293.446C230.893 291.364 234.695 288.889 238.225 286.056C244.955 280.676 252.445 274.536 257.295 267.356C265.355 255.406 262.815 240.926 254.835 230.036C254.009 233.017 252.785 235.873 251.195 238.526C251.136 238.829 251.035 239.122 250.895 239.396C248.175 244.776 242.895 247.466 237.415 249.396C230.565 251.786 223.495 253.656 216.465 255.396C202.076 259 187.469 261.673 172.735 263.396C157.995 265.239 143.049 264.563 128.535 261.396C121.257 259.769 114.086 257.692 107.065 255.176C105.555 254.646 104.065 254.096 102.615 253.486C100.976 253.096 99.3858 252.522 97.875 251.776C97.0965 251.687 96.3813 251.304 95.875 250.706L95.675 250.466C94.9886 249.962 94.3553 249.389 93.785 248.756C92.4412 250.612 91.2886 252.599 90.345 254.686C90.345 255.746 90.3137 256.799 90.2824 257.849V257.849C90.1991 260.645 90.1163 263.428 90.625 266.306C91.9626 274.251 95.8815 281.533 101.775 287.026C103.002 288.191 104.376 289.19 105.745 290.186C107.232 291.267 108.714 292.345 109.995 293.626C110.164 293.811 110.193 294.083 110.067 294.299C109.94 294.515 109.688 294.623 109.445 294.566C101.965 293.096 95.345 284.566 92.095 278.126C89.5983 273.211 88.1123 267.845 87.725 262.346C84.995 273.486 86.165 286.146 89.465 296.146C92.0439 303.914 96.1971 311.066 101.665 317.156ZM217.005 289.886C222.938 287.147 228.402 283.489 233.195 279.046C233.43 278.854 233.767 278.849 234.007 279.036C234.247 279.223 234.325 279.551 234.195 279.826C231.335 286.306 223.725 288.916 217.485 291.056C217.178 291.129 216.864 290.968 216.744 290.677C216.625 290.385 216.735 290.05 217.005 289.886ZM196.315 321.576C178.395 326.466 159.865 325.906 141.795 322.126C141.541 322.049 141.272 322.192 141.195 322.446C141.118 322.7 141.261 322.969 141.515 323.046C159.115 328.816 178.435 328.736 196.305 324.096C204.23 322.033 211.888 319.057 219.125 315.226C226.305 311.416 234.835 306.646 239.965 300.166C240.545 299.466 239.855 298.296 238.965 298.836C235.939 300.682 233.103 302.785 230.263 304.891C226.826 307.441 223.385 309.993 219.595 312.096C212.242 316.175 204.426 319.358 196.315 321.576Z" fill="#009344"/>
<path d="M99.915 164.486C99.6822 164.379 99.437 164.302 99.185 164.256C99.0298 164.332 98.8537 164.353 98.685 164.316C98.5369 164.286 98.3862 164.269 98.235 164.266L97.975 164.346C97.6254 164.596 97.3575 164.944 97.205 165.346C96.7385 166.614 96.8785 168.025 97.585 169.176C98.7535 169.243 99.8679 168.678 100.505 167.696C100.705 167.364 100.828 166.992 100.865 166.606C100.757 166.011 100.579 165.43 100.335 164.876C100.208 164.732 100.068 164.602 99.915 164.486Z" fill="white"/>
<path fill-rule="evenodd" clip-rule="evenodd" d="M101.325 247.246C104.095 248.459 107.123 249.24 110.039 249.993L110.039 249.993L110.04 249.993L110.04 249.993L110.04 249.993L110.04 249.993C111.019 250.246 111.985 250.495 112.925 250.756C119.145 252.486 125.425 254.056 131.755 255.306C145.016 257.839 158.594 258.254 171.985 256.536C185.346 254.956 198.598 252.558 211.665 249.356C217.992 247.816 224.268 246.093 230.495 244.186C230.924 244.055 231.359 243.924 231.798 243.792C236.779 242.295 242.304 240.634 245.355 236.186C245.515 235.957 245.699 235.745 245.905 235.556C246.309 234.114 246.796 232.718 247.284 231.32L247.284 231.319C247.473 230.779 247.661 230.239 247.845 229.696C254.465 209.716 255.025 188.224 249.455 167.926C248.356 163.999 247.048 160.133 245.535 156.346C245.225 155.572 244.879 154.789 244.53 153.998C243.651 152.008 242.747 149.962 242.325 147.866C237.407 149.732 232.31 151.089 227.115 151.916C198.114 156.855 168.476 156.737 139.515 151.566C125.038 148.985 110.835 145.048 97.0951 139.806C96.6501 140.477 96.186 141.142 95.7219 141.806L95.7219 141.807L95.7218 141.807L95.7218 141.807C94.6844 143.293 93.6473 144.778 92.8251 146.326C90.6379 150.608 88.9019 155.105 87.6451 159.746C84.926 169.526 83.4082 179.6 83.1251 189.746C82.4651 210.186 87.5151 230.106 100.645 246.056C100.945 246.406 101.176 246.81 101.325 247.246ZM226.125 185.856C226.197 185.594 226.327 185.351 226.505 185.146C226.619 185.024 226.75 184.919 226.895 184.836C227.311 184.128 228.074 183.697 228.895 183.706C229.825 183.807 230.636 184.38 231.043 185.222C231.45 186.063 231.394 187.055 230.895 187.846C230.432 188.56 229.664 189.019 228.816 189.087C227.968 189.156 227.136 188.827 226.565 188.196C226.029 187.542 225.863 186.66 226.125 185.856ZM211.565 161.166C211.186 161.131 210.804 161.131 210.425 161.166C206.995 161.606 205.275 165.546 206.005 168.696C206.032 169.52 206.237 170.329 206.605 171.066C208.875 175.306 214.875 174.806 216.875 170.576C217.509 169.158 217.602 167.557 217.135 166.076C217.145 165.772 217.125 165.467 217.075 165.166C216.868 162.775 214.779 160.993 212.385 161.166C212.129 161.146 211.871 161.146 211.615 161.166H211.565ZM91.2851 190.396C90.6523 190.739 89.8971 190.773 89.236 190.488C88.5749 190.204 88.0808 189.632 87.8951 188.936C87.8847 188.833 87.8847 188.729 87.8951 188.626C87.6746 188.207 87.6746 187.706 87.8951 187.286C88.2937 186.25 89.3297 185.603 90.4353 185.7C91.5409 185.796 92.4492 186.613 92.6625 187.702C92.8759 188.791 92.3427 189.89 91.3551 190.396H91.2851ZM176.645 195.306C176.185 193.876 173.835 194.046 173.915 195.676C174.235 202.276 174.445 211.246 169.205 216.196C166.322 218.891 162.069 219.513 158.535 217.756C155.817 216.363 154.813 214.115 153.736 211.708L153.736 211.708L153.736 211.707C153.415 210.988 153.087 210.255 152.705 209.526C152.569 209.307 152.318 209.188 152.062 209.22C151.806 209.252 151.593 209.43 151.515 209.676C150.225 213.406 153.045 217.716 156.045 219.786C159.591 222.154 164.112 222.51 167.985 220.726C171.504 218.933 174.161 215.808 175.365 212.046C177.075 207.376 178.185 200.096 176.645 195.306ZM113.915 189.296C114.802 188.784 115.724 188.336 116.675 187.956C117.53 187.555 118.446 187.298 119.385 187.196C123.276 185.648 127.339 184.444 131.326 183.262L131.326 183.262C132.052 183.046 132.776 182.832 133.495 182.616C140.595 180.486 147.815 178.566 155.085 177.096C155.251 177.062 155.417 177.027 155.581 176.993C156.971 176.7 158.301 176.419 159.535 176.866C159.765 176.751 160.044 176.804 160.215 176.996C160.535 177.326 160.835 177.656 161.125 177.996C161.276 178.147 161.416 178.307 161.545 178.476C164.583 182.166 166.279 186.777 166.355 191.556V191.686C166.824 194.135 166.62 196.664 165.765 199.006C165.015 200.706 163.765 201.216 162.005 201.456C158.615 201.766 155.208 201.867 151.805 201.756C145.242 201.933 138.676 201.599 132.165 200.756C126.295 199.916 118.945 198.756 113.905 195.456C111.665 193.876 110.485 190.256 113.945 189.296H113.915ZM97.5451 161.406C94.3851 162.036 92.4451 166.146 93.4451 169.146H93.4751C93.6051 172.366 95.3851 175.446 99.3651 175.046C102.995 174.656 105.385 170.816 104.915 167.376C104.662 165.693 103.84 164.147 102.585 162.996C102.183 162.5 101.687 162.089 101.125 161.786C100.089 161.207 98.8634 161.07 97.7251 161.406H97.5451Z" fill="white"/>
<path d="M156.665 395.076C158.205 393.836 157.815 391.076 156.335 389.976C154.855 388.876 153.175 389.186 151.505 389.596C151.068 390.749 151.019 392.013 151.365 393.196C152.085 395.246 154.725 396.606 156.665 395.076Z" fill="#BE1E2D"/>
<path fill-rule="evenodd" clip-rule="evenodd" d="M40.3348 445.196C43.4329 467.005 51.2847 487.867 63.3348 506.306C75.2648 524.306 91.6448 537.986 111.115 547.236C130.335 556.366 151.375 561.316 172.205 565.236C184.365 567.506 196.705 569.176 209.105 568.776C221.096 568.391 232.843 565.903 244.539 563.425L245.005 563.326C256.135 560.956 267.105 558.386 276.795 552.156C286.07 546.211 294.068 538.243 301.851 530.49L302.065 530.276C317.695 514.716 331.935 497.456 341.195 477.276C346.049 466.896 349.209 455.806 350.555 444.426C351.855 432.426 350.465 420.636 347.745 408.946C345.255 398.196 342.365 387.426 338.935 376.946C335.765 367.296 331.645 357.826 325.215 349.946C324.045 351.606 322.925 353.286 321.865 355.016C320.613 357.063 319.596 359.331 318.573 361.611C316.663 365.872 314.732 370.177 311.215 373.166C306.675 377.258 299.785 377.284 295.215 373.226C290.025 368.676 289.555 361.516 291.745 355.346C291.955 354.715 292.384 354.179 292.955 353.836C293.782 351.91 294.974 350.161 296.465 348.686C298.642 346.179 301.006 343.839 303.535 341.686C306.37 337.825 309.254 333.997 312.135 330.171L312.136 330.169L312.137 330.168L312.138 330.167L313.095 328.896C312.646 328.895 312.223 328.689 311.945 328.336C306.584 321.455 300.344 315.306 293.385 310.046C289.725 307.336 285.945 304.736 282.095 302.316C280.274 301.154 278.388 300.099 276.445 299.156C276.958 310.361 274.906 321.535 270.445 331.826C252.715 371.826 200.445 376.346 162.645 370.906C151.41 369.229 140.284 366.892 129.325 363.906C119.535 361.296 110.325 357.626 102.245 351.336C91.7048 343.096 83.7448 330.336 82.3848 316.976C67.2548 333.486 54.8748 351.976 47.3148 373.236C39.1785 396.3 36.7828 420.999 40.3348 445.196ZM159.935 450.606C154.135 453.126 148.175 449.286 147.315 443.196C146.555 437.746 148.625 431.756 153.905 430.836C155.125 429.989 156.607 429.606 158.085 429.756C161.345 430.076 163.695 432.626 164.925 435.496C167.285 441.046 165.725 448.106 159.935 450.606ZM146.845 385.836C146.643 386.134 146.523 386.478 146.495 386.836V386.876C145.355 388.712 144.862 390.877 145.095 393.026C145.379 396.043 147.033 398.763 149.582 400.402C152.131 402.041 155.292 402.419 158.155 401.426C163.905 399.326 165.745 392.226 162.615 387.176C159.485 382.126 150.465 380.406 146.845 385.836ZM58.8648 477.206C61.2403 483.025 64.3163 488.532 68.0248 493.606C69.7409 495.975 71.7676 498.082 73.7891 500.184C75.8554 502.332 77.9163 504.475 79.6348 506.886C80.0848 507.526 79.2248 508.166 78.6348 507.886C73.3848 505.246 69.2748 499.526 65.9748 494.806C62.3386 489.5 59.464 483.71 57.4348 477.606C57.1148 476.726 58.5148 476.386 58.8648 477.246V477.206ZM48.4048 422.986C47.5995 410.441 48.6508 397.845 51.5248 385.606C51.5997 385.269 51.398 384.932 51.0655 384.839C50.7331 384.746 50.3859 384.929 50.2748 385.256C46.3889 397.669 44.8891 410.705 45.8548 423.676C46.7048 435.746 48.8048 449.596 55.5048 459.926C55.6303 460.113 55.871 460.185 56.0785 460.097C56.286 460.009 56.4019 459.787 56.3548 459.566C55.6333 456.42 54.6911 453.326 53.7484 450.231C52.9534 447.622 52.1582 445.011 51.4948 442.366C49.9066 436.008 48.8728 429.523 48.4048 422.986Z" fill="white"/>
<path d="M211.185 168.736C211.757 168.617 212.272 168.307 212.645 167.856C213.312 166.926 213.336 165.681 212.705 164.726C212.402 164.486 212.065 164.29 211.705 164.146C211.472 164.179 211.244 164.24 211.025 164.326C210.37 164.687 209.84 165.238 209.505 165.906C208.605 167.846 209.835 168.786 211.185 168.736Z" fill="white"/>
<path d="M121.724 195.416C123.134 195.866 124.564 196.246 126.004 196.586C126.074 196.396 126.154 196.206 126.214 196.016C126.379 194.936 126.689 193.884 127.134 192.886C127.266 192.676 127.497 192.549 127.744 192.549C127.992 192.549 128.223 192.676 128.354 192.886C128.791 194.268 128.654 195.767 127.974 197.046C129.584 197.386 131.214 197.656 132.834 197.886C133.01 197.004 133.137 196.112 133.214 195.216C133.274 193.496 132.694 191.846 132.774 190.156C132.774 189.556 133.634 189.066 134.074 189.616C135.524 191.436 135.884 195.516 134.744 198.136C137.224 198.426 139.744 198.606 142.184 198.726C143.994 198.806 145.804 198.846 147.614 198.866C147.614 198.176 147.674 197.476 147.704 196.776C147.589 195.79 147.745 194.791 148.154 193.886C148.262 193.726 148.433 193.619 148.625 193.594C148.817 193.569 149.01 193.628 149.154 193.756C149.784 194.62 150.033 195.704 149.844 196.756C149.824 197.465 149.723 198.17 149.544 198.856C151.464 198.856 153.374 198.856 155.294 198.796H155.724C155.946 197.308 155.881 195.791 155.534 194.326C155.134 192.746 154.194 191.326 154.174 189.676C154.182 189.391 154.357 189.136 154.621 189.028C154.886 188.919 155.189 188.978 155.394 189.176C157.724 191.176 158.674 195.896 157.244 198.826C159.244 198.876 161.344 198.826 162.544 197.576C162.891 197.201 163.157 196.759 163.324 196.276C163.404 195.996 163.484 195.726 163.544 195.456C163.697 193.809 163.582 192.147 163.204 190.536C162.814 188.135 162.101 185.797 161.084 183.586C159.824 180.856 159.134 179.586 155.974 179.916H155.814C156.194 180.276 156.544 180.646 156.814 180.966C157.944 182.256 159.354 184.136 159.184 185.966C159.176 186.282 158.983 186.563 158.691 186.684C158.399 186.805 158.064 186.743 157.834 186.526C156.664 185.426 156.064 183.706 155.044 182.446C154.385 181.726 153.687 181.041 152.954 180.396C150.954 180.796 149.004 181.306 147.044 181.846C147.408 182.526 147.712 183.235 147.954 183.966C148.569 185.204 148.766 186.607 148.514 187.966C148.364 188.456 147.624 188.776 147.254 188.296C146.596 187.225 146.151 186.036 145.944 184.796C145.714 184.006 145.384 183.206 145.174 182.386C144.174 182.666 143.174 182.936 142.174 183.186C140.644 183.576 139.114 184.006 137.574 184.446C140.124 187.206 141.864 191.446 141.014 195.046C140.9 195.414 140.559 195.664 140.174 195.664C139.789 195.664 139.449 195.414 139.334 195.046C139.086 193.169 138.722 191.309 138.244 189.476C137.648 187.871 136.848 186.348 135.864 184.946C133.344 185.686 130.864 186.466 128.304 187.226C128.374 187.366 128.434 187.506 128.514 187.636C128.754 188.026 129.114 188.416 128.934 188.906C128.858 189.165 128.624 189.346 128.354 189.356C127.684 189.356 127.354 188.656 127.184 188.126C127.125 187.955 127.084 187.777 127.064 187.596C125.684 188.006 124.304 188.406 122.924 188.786C122.994 189.156 123.064 189.536 123.144 189.906C123.49 190.7 123.536 191.591 123.274 192.416C123.08 192.734 122.668 192.84 122.344 192.656C121.414 192.266 121.204 191.026 121.074 190.136C121.024 189.856 120.994 189.586 120.964 189.306C120.224 189.496 119.484 189.696 118.744 189.866C118.364 189.996 117.984 190.116 117.634 190.256C116.714 190.606 115.804 191.066 114.874 191.446C113.464 192.336 121.104 195.216 121.724 195.416Z" fill="#F7941E"/>
<path fill-rule="evenodd" clip-rule="evenodd" d="M232.915 100.606C233.16 100.143 233.501 99.7371 233.915 99.4162C234.237 98.0392 234.699 96.6989 235.295 95.4162C235.545 94.6162 235.815 93.8162 236.135 93.0462C237.191 86.6464 238.574 80.2465 239.958 73.8466L239.958 73.8462C240.736 70.2462 241.515 66.6462 242.235 63.0462L246.045 44.1062C246.208 43.3059 246.403 42.4929 246.6 41.6744C246.752 41.0406 246.905 40.4034 247.045 39.7662C243.175 42.0693 238.884 43.5787 234.425 44.2062C225.504 45.4947 216.24 44.2978 207.333 43.147L207.095 43.1162C196.692 41.7859 186.375 39.856 176.195 37.3362C165.839 34.7529 155.661 31.5028 145.725 27.6062C145.332 27.4524 144.936 27.2987 144.538 27.1442L144.537 27.144C140.095 25.4192 135.405 23.5981 131.835 20.6062C131.011 29.1171 130.291 37.6391 129.571 46.1596L129.571 46.1597C127.922 65.6706 126.273 85.1733 123.385 104.516C137.385 118.346 160.915 119.516 179.455 120.016C198.535 120.606 222.645 119.746 232.915 100.606ZM234.205 65.4662C234.541 63.8435 234.829 62.2027 235.118 60.5597C235.689 57.3126 236.262 54.0571 237.205 50.9162C237.294 50.6452 237.564 50.4768 237.847 50.5161C238.129 50.5554 238.343 50.7912 238.355 51.0762C238.439 55.5291 237.538 60.0169 236.661 64.3849C236.599 64.696 236.537 65.0064 236.475 65.3162C236.303 66.1658 236.143 67.0421 235.98 67.9317C235.282 71.7543 234.539 75.8233 232.625 79.0762C232.482 79.2926 232.216 79.3928 231.966 79.3246C231.716 79.2563 231.538 79.0352 231.525 78.7762C231.525 75.7603 232.349 72.6979 233.161 69.6779C233.54 68.2718 233.916 66.8749 234.205 65.4962V65.4662ZM227.896 92.5811C227.775 93.2171 227.655 93.8493 227.515 94.4662V94.4762C226.794 97.1602 226.299 99.8997 226.035 102.666C226.045 102.925 226.222 103.147 226.473 103.214C226.723 103.28 226.988 103.176 227.125 102.956C228.466 100.301 229.4 97.4594 229.895 94.5262C229.96 94.206 230.029 93.8831 230.099 93.5581C230.583 91.2954 231.088 88.9335 230.485 86.6862C230.447 86.5507 230.331 86.4513 230.191 86.4339C230.052 86.4164 229.915 86.4843 229.845 86.6062C228.695 88.3687 228.292 90.4954 227.896 92.5811Z" fill="#BE1E2D"/>
<path d="M102.244 126.006C109.454 128.436 116.714 130.746 124.044 132.806C137.504 136.576 151.314 139.486 165.314 140.046C178.903 140.517 192.508 139.965 206.014 138.396C218.878 137.119 231.518 134.164 243.614 129.606C245.614 128.816 251.674 127.186 252.214 124.786C252.704 122.576 250.874 119.156 249.834 117.346C247.014 112.426 242.514 109.546 238.704 105.596C226.704 125.986 200.854 127.986 179.484 127.196C167.124 126.736 154.624 125.606 142.724 121.906C133.924 119.146 122.634 114.906 118.444 105.966C115.204 106.426 111.574 106.076 108.494 106.346C104.316 106.639 100.184 107.397 96.1744 108.606C91.7644 110.006 87.0044 111.796 85.4844 116.606C89.7244 121.606 96.1444 123.956 102.244 126.006Z" fill="#EF4136"/>
<path d="M211.314 144.476C195.307 146.67 179.123 147.293 162.994 146.336C146.994 145.276 131.434 141.196 116.234 136.166C109.234 133.846 102.104 131.576 95.2345 128.766C91.6507 127.382 88.304 125.449 85.3145 123.036C85.3611 123.336 85.4211 123.636 85.4945 123.936C86.3245 127.556 88.6745 129.836 91.9245 131.466C93.6595 132.326 95.4387 133.094 97.2545 133.766L99.4045 134.546C103.524 135.976 107.794 137.126 111.864 138.306C136.448 145.507 161.96 149.035 187.574 148.776C200.703 148.624 213.797 147.397 226.724 145.106C232.534 144.106 238.494 142.806 243.644 139.816C245.895 138.533 247.883 136.837 249.504 134.816C237.594 140.196 223.984 142.796 211.314 144.476Z" fill="#BE1E2D"/>
<path d="M142.095 19.1762C146.585 20.9762 151.145 22.6162 155.735 24.1762C164.735 27.1762 173.785 29.7662 182.995 31.8462C191.427 33.7685 199.952 35.2638 208.535 36.3262C215.795 37.2162 223.275 38.1662 230.605 37.6562C234.338 37.5058 237.995 36.5507 241.325 34.8562C242.445 34.2262 244.325 33.2162 245.015 32.0562C245.925 30.4462 244.395 28.5562 243.335 27.2362C238.725 21.5062 231.155 19.3162 224.175 18.2362C215.635 16.9762 206.985 16.5162 198.435 15.2362C189.885 13.9562 181.125 12.3562 172.435 10.9362C163.595 9.47621 154.745 8.28621 145.825 7.51621C142.255 7.20621 137.135 5.85621 134.635 9.17621C133.834 10.3023 133.266 11.5773 132.965 12.9262C134.805 16.2162 138.775 17.8362 142.095 19.1762Z" fill="#EF4136"/>
<path fill-rule="evenodd" clip-rule="evenodd" d="M408.715 196.766C409.737 197.39 410.239 198.603 409.955 199.766C406.385 217.726 399.595 235.216 391.145 251.436C386.015 261.236 380.295 270.706 374.295 280.036C384.875 290.756 392.285 304.316 397.745 318.316C407.365 342.906 412.035 372.456 405.815 398.456C402.925 410.726 396.695 424.286 385.925 431.566C383.32 433.322 380.516 434.693 377.714 436.063C374.181 437.791 370.649 439.518 367.515 442.016C362.795 445.772 359.645 450.407 356.358 455.243L356.295 455.336C353.452 468.305 348.596 480.749 341.905 492.216C330.265 512.426 314.055 529.766 296.985 545.486C288.315 553.446 279.065 560.636 267.985 564.866C257.07 569.035 245.077 571.157 233.546 573.198L232.868 573.318C232.456 573.391 232.045 573.463 231.635 573.536C219.221 575.883 206.551 576.579 193.955 575.606C181.458 574.342 169.056 572.275 156.825 569.416C135.165 564.666 113.435 558.036 94.4351 546.306C54.9451 521.916 33.8251 475.066 32.1451 429.716C30.8551 394.246 42.1451 356.896 64.1451 328.446C63.7278 328.095 63.4597 327.598 63.3951 327.056C62.5805 321.326 59.5545 316.143 54.9651 312.616C51.6479 310.156 47.714 308.847 43.8136 307.548L43.8128 307.548L43.8121 307.548C42.4805 307.104 41.1529 306.662 39.8551 306.176C31.7751 303.136 22.7851 296.776 23.8551 286.956C23.8779 286.045 24.3747 285.211 25.1656 284.758C25.9565 284.304 26.9268 284.296 27.7251 284.736C35.2497 288.394 43.0222 291.519 50.9851 294.086C50.2999 292.423 49.616 290.758 48.9317 289.092L48.9291 289.086C42.4839 273.394 36.0062 257.624 28.1151 242.646C24.8613 236.468 20.9247 230.619 16.9876 224.769C10.5189 215.157 4.04903 205.544 0.605088 194.466C0.349866 193.456 0.719379 192.392 1.54522 191.757C2.37105 191.122 3.49511 191.04 4.40509 191.546C11.5681 196.288 18.3066 201.641 24.5451 207.546C27.7951 210.566 30.8451 213.746 33.7951 217.026C34.4147 217.699 35.0284 218.446 35.6553 219.208L35.6565 219.209L35.6567 219.21C36.6685 220.44 37.7146 221.712 38.8751 222.786C38.2891 216.499 37.7196 210.206 37.1497 203.91L37.1496 203.909L37.1495 203.908L37.1494 203.907L37.1493 203.906L37.1493 203.905L37.1492 203.904L37.1491 203.903L37.149 203.902L37.1489 203.9L37.1484 203.895L37.1484 203.895L37.1483 203.894L37.1482 203.893L37.1482 203.893L37.1481 203.892L37.1481 203.892L37.148 203.891L37.148 203.89L37.1479 203.89L37.1478 203.889C36.24 193.859 35.3315 183.821 34.3551 173.786C34.0051 170.196 35.0451 163.066 40.6151 165.376C42.6849 166.241 43.3397 168.973 43.8911 171.274L43.8911 171.274C44.035 171.874 44.1719 172.445 44.3251 172.946C45.4051 176.516 46.4151 180.126 47.3251 183.746C50.9049 198.467 53.1143 213.488 53.9251 228.616C54.7206 240.835 58.5032 252.637 62.2472 264.318C63.2095 267.32 64.1693 270.315 65.0751 273.306C66.4013 277.68 67.7464 282.05 69.0918 286.421L69.0918 286.421L69.0919 286.422L69.092 286.422L69.0921 286.422L69.0922 286.422L69.0923 286.423L69.0924 286.423L69.0925 286.423L69.0926 286.424L69.0927 286.424C71.896 295.531 74.7 304.641 77.3351 313.796C78.5251 312.646 79.7351 311.516 80.9651 310.426C81.3859 310.04 81.911 309.786 82.4751 309.696C82.7023 306.83 83.2662 304.001 84.1551 301.266V301.196C83.5851 299.666 83.0451 298.136 82.5851 296.606C79.7012 286.834 79.0789 276.534 80.7651 266.486C82.0651 258.696 84.5251 249.596 90.9051 244.426C79.8751 228.696 75.7951 208.696 76.5851 189.696C76.9786 178.354 78.9096 167.119 82.3251 156.296C83.803 151.632 85.8448 147.166 88.4051 142.996C89.5112 141.172 90.7584 139.436 92.1351 137.806C88.1751 136.066 84.4051 133.816 82.2251 129.946C80.6086 126.953 79.8834 123.559 80.1351 120.166C80.1849 118.351 80.4535 116.548 80.9351 114.796C82.2251 110.246 85.5751 107.226 89.6551 105.096C94.4871 102.688 99.6896 101.109 105.045 100.426C105.676 100.332 106.338 100.226 107.023 100.116C110.758 99.5174 115.173 98.8099 118.925 99.2662C119.801 81.5782 121.641 63.9239 123.48 46.2781L123.48 46.2777C124.643 35.1126 125.807 23.9509 126.725 12.7862C126.752 11.9075 127.152 11.082 127.825 10.5162C129.625 4.75622 133.505 0.696216 140.935 0.516216C151.232 0.302812 161.774 2.11347 171.984 3.86722C173.257 4.08578 174.524 4.30345 175.785 4.51622C178.446 4.96375 181.105 5.42576 183.764 5.88776L183.765 5.8879C192.156 7.34595 200.546 8.80385 209.005 9.80622C211.235 10.0708 213.494 10.2725 215.76 10.4749C223.515 11.1675 231.363 11.8683 238.475 15.1262C243.035 17.2062 249.865 22.0062 252.035 27.6062C254.625 29.2062 254.765 33.3562 254.265 36.3562C253.48 41.0953 252.47 45.816 251.462 50.5277C250.981 52.7756 250.501 55.0214 250.045 57.2662C249.161 61.6275 248.35 66.0362 247.537 70.4561L247.537 70.4585C245.71 80.3882 243.874 90.3744 241.175 100.006C246.999 102.878 252.045 107.111 255.885 112.346C257.774 115.054 259.098 118.115 259.775 121.346C260.419 123.892 260.349 126.567 259.575 129.076C258.695 137.156 253.265 142.456 246.475 145.986C248.492 148.226 249.757 151.191 250.926 153.931L251.035 154.186C252.79 158.339 254.273 162.601 255.475 166.946C260.157 183.912 260.794 201.739 257.335 218.996L257.243 219.464L257.172 219.828L257.166 219.859C256.927 221.074 256.678 222.349 256.395 223.656C262.975 228.656 266.925 236.416 268.255 244.656C269.99 246.28 271.86 247.752 273.845 249.056C276.973 251.009 280.238 252.734 283.615 254.216C290.904 257.39 298.51 259.78 306.305 261.346C314.37 262.965 322.535 264.038 330.745 264.556C331.699 264.615 332.749 264.644 333.854 264.675C338.528 264.804 344.195 264.96 347.835 267.556C349.509 263.012 351.113 258.431 352.721 253.838C354.138 249.788 355.559 245.729 357.035 241.676C357.433 240.329 358.825 239.538 360.185 239.886C360.872 240.134 361.635 240.367 362.428 240.609C366.402 241.82 371.132 243.263 370.865 248.006C370.744 250.117 370.179 252.264 369.625 254.367C369.399 255.222 369.176 256.071 368.985 256.906L368.595 258.606C372.669 252.8 375.637 245.962 378.473 239.429C379.403 237.286 380.319 235.176 381.255 233.146C387.195 220.256 392.875 207.276 397.005 193.676C397.222 192.926 397.77 192.316 398.494 192.021C399.217 191.727 400.036 191.78 400.715 192.166C402.983 193.53 405.257 194.814 407.533 196.099L407.534 196.099L407.535 196.1L408.27 196.515L408.715 196.766ZM275.335 256.496C273.041 255.177 270.849 253.69 268.775 252.046C268.71 255.079 268.287 258.093 267.515 261.026C270.125 265.706 274.295 267.506 279.955 269.026C285.115 270.376 290.285 271.776 295.395 273.376C304.805 276.286 316.015 279.916 322.935 287.286C323.197 287.565 323.218 287.993 322.985 288.297C322.751 288.6 322.332 288.689 321.995 288.506C319.838 287.428 317.742 286.278 315.651 285.13L315.65 285.13L315.649 285.129C311.887 283.065 308.141 281.01 304.085 279.396C298.264 277.153 292.329 275.217 286.305 273.596C285.165 273.279 283.976 272.987 282.767 272.69C279.511 271.891 276.106 271.055 273.095 269.596C280.455 276.436 288.425 282.456 297.845 286.356C300.393 287.411 303.164 288.279 305.976 289.159L305.976 289.159L305.977 289.159C313.559 291.533 321.434 293.998 326.015 300.476C327.425 302.476 324.725 305.006 322.725 303.766C317.922 300.629 312.775 298.052 307.385 296.086C302.062 294.379 296.86 292.314 291.815 289.906C284.205 286.095 277.465 280.753 272.015 274.216C273.944 280.099 275.284 286.159 276.015 292.306C278.987 293.07 281.92 294.954 284.398 296.547C284.68 296.728 284.956 296.905 285.225 297.076C289.425 299.746 293.535 302.636 297.485 305.636C304.775 311.196 311.835 317.556 315.085 326.336C320.945 318.516 326.685 310.646 331.775 302.336C337.181 293.278 341.763 283.754 345.465 273.876C344.892 273.728 344.328 273.553 343.763 273.377C342.84 273.091 341.917 272.804 340.955 272.636C339.442 272.367 337.897 272.256 336.354 272.146C335.603 272.092 334.852 272.038 334.105 271.966C330.045 271.606 326.045 271.126 322.045 270.606C313.964 269.64 305.964 268.092 298.105 265.976C290.125 263.848 282.467 260.66 275.335 256.496ZM134.725 9.18622C136.841 6.37593 140.835 6.89027 144.176 7.32066C144.782 7.39872 145.367 7.47402 145.915 7.52622C154.835 8.29622 163.685 9.52622 172.525 10.9462C175.606 11.452 178.684 11.978 181.765 12.5045L181.765 12.5046C187.334 13.4562 192.911 14.4093 198.525 15.2462C202.916 15.9008 207.246 16.3349 211.554 16.7666L211.554 16.7666C215.801 17.1923 220.026 17.6157 224.265 18.2462C231.265 19.2462 238.815 21.4762 243.425 27.2462L243.443 27.268C244.502 28.587 246.01 30.4651 245.105 32.0662C244.49 33.1479 242.787 34.0991 241.652 34.7334L241.516 34.8096L241.415 34.8662C238.053 36.5525 234.364 37.4874 230.605 37.6062C223.439 38.1048 216.13 37.208 209.023 36.3361L208.535 36.2762C199.952 35.2138 191.428 33.7185 182.995 31.7962C173.785 29.7162 164.695 27.1162 155.735 24.1262C151.145 22.6062 146.585 20.9662 142.095 19.1262C138.775 17.7862 134.805 16.1262 133.005 12.8862C133.327 11.5511 133.912 10.2933 134.725 9.18622ZM144.511 27.1576C140.104 25.4301 135.475 23.6159 131.915 20.6662H131.865C131.026 29.3147 130.295 37.9863 129.563 46.6624L129.563 46.6642L129.563 46.6661L129.562 46.6681L129.562 46.67L129.562 46.672C127.93 66.0219 126.296 85.3946 123.465 104.586C137.475 118.416 160.995 119.566 179.535 120.086C198.585 120.646 222.695 119.756 232.965 100.646C233.21 100.183 233.551 99.7772 233.965 99.4562C234.287 98.0792 234.75 96.7389 235.345 95.4562C235.595 94.6562 235.865 93.8562 236.185 93.0862C237.241 86.6862 238.625 80.2862 240.008 73.8862C240.787 70.2862 241.565 66.6862 242.285 63.0862L246.095 44.1462C246.281 43.1692 246.523 42.1732 246.767 41.1712C246.878 40.717 246.989 40.2616 247.095 39.8062C243.225 42.1093 238.935 43.6187 234.475 44.2462C225.557 45.5301 216.376 44.3463 207.48 43.1994L207.145 43.1562C196.742 41.8259 186.425 39.896 176.245 37.3762C165.9 34.7982 155.732 31.5548 145.805 27.6662C145.381 27.4987 144.954 27.3313 144.525 27.1631L144.513 27.1583L144.511 27.1576ZM96.2251 108.666C100.247 107.444 104.393 106.676 108.585 106.376C109.921 106.259 111.359 106.259 112.825 106.258H112.825C114.74 106.257 116.7 106.257 118.535 105.996C122.725 114.906 134.015 119.176 142.815 121.936C154.675 125.646 167.175 126.766 179.535 127.226C200.905 128.016 226.735 126.016 238.755 105.626C240.021 106.955 241.363 108.155 242.694 109.345C245.37 111.737 248.002 114.091 249.885 117.376C250.885 119.186 252.755 122.606 252.265 124.816C251.826 126.769 247.743 128.193 245.15 129.097C244.556 129.304 244.041 129.484 243.665 129.636C231.569 134.194 218.928 137.149 206.065 138.426C192.559 139.995 178.954 140.547 165.365 140.076C151.365 139.516 137.555 136.606 124.095 132.836C116.765 130.776 109.505 128.466 102.295 126.036C96.1951 123.986 89.7951 121.666 85.5351 116.646C87.0051 111.826 91.7251 110.036 96.1751 108.606L96.2251 108.666ZM85.5751 123.966C86.4051 127.586 88.7551 129.866 92.0051 131.496L91.9551 131.466C93.7165 132.325 95.5224 133.089 97.3651 133.756L99.5151 134.536C102.76 135.662 106.097 136.615 109.357 137.545C110.237 137.796 111.11 138.046 111.975 138.296C136.558 145.497 162.07 149.025 187.685 148.766C200.787 148.61 213.854 147.382 226.755 145.096C232.565 144.056 238.525 142.806 243.675 139.806C245.926 138.523 247.914 136.827 249.535 134.806C237.675 140.226 224.065 142.826 211.395 144.506C195.388 146.7 179.204 147.323 163.075 146.366C147.045 145.306 131.515 141.196 116.315 136.196C115.354 135.878 114.39 135.56 113.425 135.242L113.424 135.242C107.355 133.243 101.216 131.22 95.3151 128.796C91.7313 127.412 88.3847 125.479 85.3951 123.066C85.4418 123.366 85.5018 123.666 85.5751 123.966ZM83.1751 189.726C83.4581 179.58 84.976 169.506 87.6951 159.726C88.9519 155.085 90.6879 150.588 92.8751 146.306C93.6973 144.758 94.7344 143.273 95.7718 141.787C96.2359 141.122 96.7 140.457 97.1451 139.786C110.867 145.045 125.053 149.003 139.515 151.606C168.476 156.777 198.114 156.895 227.115 151.956C232.31 151.129 237.407 149.772 242.325 147.906C242.747 150.002 243.65 152.048 244.53 154.038L244.53 154.038L244.53 154.039L244.532 154.042C244.88 154.832 245.226 155.614 245.535 156.386C247.048 160.173 248.356 164.039 249.455 167.966C255.065 188.259 254.504 209.763 247.845 229.736C247.665 230.269 247.48 230.801 247.295 231.332L247.295 231.333L247.294 231.336C246.803 232.748 246.312 234.159 245.905 235.596C245.699 235.785 245.515 235.997 245.355 236.226C242.304 240.674 236.779 242.335 231.798 243.832C231.359 243.964 230.924 244.095 230.495 244.226C224.268 246.126 217.992 247.85 211.665 249.396C198.598 252.598 185.346 254.996 171.985 256.576C158.582 258.284 144.994 257.855 131.725 255.306C125.395 254.056 119.115 252.486 112.895 250.756C112.132 250.552 111.351 250.353 110.56 250.151C107.476 249.363 104.24 248.536 101.295 247.246C101.152 246.792 100.921 246.371 100.615 246.006C87.5151 230.056 82.4651 210.136 83.1251 189.696L83.1751 189.726ZM92.1051 278.176C89.5984 273.247 88.1089 267.863 87.7251 262.346C85.0151 273.486 86.1851 286.146 89.4951 296.206C92.0693 303.969 96.2155 311.117 101.675 317.206C106.965 323.126 113.405 327.476 119.965 331.876C122.415 333.506 120.915 337.966 117.845 336.876C105.125 332.356 94.6051 321.656 87.9751 309.486C88.1651 327.156 97.4951 342.606 113.695 351.316C121.87 355.701 131.084 357.766 140.076 359.781C140.456 359.866 140.836 359.951 141.215 360.036C151.526 362.44 161.976 364.203 172.505 365.316C191.505 367.196 210.995 366.136 229.055 359.546C246.555 353.146 260.705 341.386 266.555 323.266C272.325 305.416 269.175 287.346 263.675 269.976C258.315 278.726 249.505 285.896 241.505 292.066C234.425 297.526 223.325 304.636 213.885 301.636C213.032 301.387 212.445 300.605 212.445 299.716C212.445 298.827 213.032 298.045 213.885 297.796C215.534 297.208 217.189 296.76 218.838 296.314C221.56 295.578 224.263 294.848 226.885 293.496C230.904 291.414 234.705 288.939 238.235 286.106C244.965 280.726 252.455 274.586 257.305 267.406C265.365 255.456 262.845 240.976 254.845 230.086C254.019 233.067 252.795 235.923 251.205 238.576C251.146 238.879 251.045 239.171 250.905 239.446C248.185 244.846 242.905 247.536 237.425 249.446C230.575 251.806 223.475 253.676 216.475 255.446C202.086 259.05 187.479 261.723 172.745 263.446C158.005 265.289 143.059 264.613 128.545 261.446C121.267 259.819 114.096 257.742 107.075 255.226C105.565 254.696 104.075 254.146 102.625 253.536C100.986 253.146 99.3959 252.572 97.8851 251.826C97.1066 251.737 96.3914 251.354 95.8851 250.756L95.6851 250.516C94.9986 250.012 94.3654 249.439 93.7951 248.806C92.4512 250.662 91.2987 252.649 90.3551 254.736C90.3455 255.669 90.3162 256.594 90.287 257.516C90.1948 260.43 90.1034 263.318 90.6351 266.356C91.9727 274.301 95.8915 281.583 101.785 287.076C103.012 288.241 104.386 289.24 105.754 290.235L105.755 290.236C107.242 291.317 108.724 292.395 110.005 293.676C110.174 293.861 110.203 294.133 110.077 294.349C109.95 294.565 109.698 294.673 109.455 294.616C101.975 293.176 95.3551 284.576 92.1051 278.176ZM51.8351 305.196C50.2367 304.509 48.3383 303.864 46.3282 303.181C39.2961 300.793 30.896 297.939 29.1851 291.196C37.39 295.065 45.9153 298.213 54.6651 300.606C57.0151 301.256 58.3951 298.796 57.5551 296.846C55.2572 291.527 53.0285 286.168 50.7984 280.806C45.3519 267.71 39.897 254.594 33.4051 241.986C29.0863 233.774 24.2394 225.851 18.8951 218.266C15.0751 212.726 11.2351 207.086 8.42509 200.966C13.7929 205.078 18.9026 209.517 23.7251 214.256C25.3016 215.809 26.8254 217.604 28.3768 219.432C32.0999 223.819 35.9822 228.393 41.1351 230.256C41.9186 230.467 42.7555 230.303 43.4013 229.811C44.0471 229.32 44.4288 228.558 44.4351 227.746C43.5351 217.986 42.6318 208.223 41.7251 198.456C41.2918 193.83 40.8651 189.203 40.4451 184.576C40.4076 184.191 40.3673 183.192 40.3149 181.895L40.3149 181.895C40.2694 180.768 40.2148 179.417 40.1451 178.046C42.8328 187.366 44.9205 196.849 46.3951 206.436C47.1178 211.174 47.5069 215.976 47.8962 220.779C48.5356 228.67 49.1754 236.565 51.2951 244.186C53.7084 252.834 56.3881 261.422 59.0657 270.003L59.0658 270.003L59.066 270.004L59.0662 270.004L59.0671 270.007L59.0675 270.008C60.306 273.977 61.544 277.945 62.7551 281.916C63.7766 285.279 64.7876 288.645 65.7987 292.012C68.3509 300.51 70.9033 309.009 73.6251 317.446C71.6251 319.5 69.7218 321.61 67.9151 323.776C65.8334 315.375 59.8666 308.472 51.8551 305.196H51.8351ZM341.245 477.256C346.099 466.876 349.259 455.786 350.605 444.406C351.905 432.426 350.515 420.606 347.875 408.806C345.385 398.056 342.495 387.286 339.065 376.806C335.895 367.196 331.775 357.726 325.345 349.806C324.175 351.466 323.055 353.146 321.995 354.876C320.743 356.923 319.726 359.191 318.704 361.471C316.793 365.732 314.862 370.037 311.345 373.026C306.805 377.118 299.916 377.143 295.345 373.086C290.155 368.536 289.685 361.376 291.875 355.206C292.085 354.575 292.515 354.039 293.085 353.696C293.913 351.77 295.104 350.021 296.595 348.546C298.773 346.039 301.136 343.699 303.665 341.546C306.501 337.684 309.385 333.855 312.267 330.029L312.267 330.028L312.268 330.027L313.225 328.756C312.776 328.755 312.353 328.549 312.075 328.196C306.714 321.315 300.474 315.166 293.515 309.906C289.855 307.176 286.075 304.596 282.225 302.176C280.405 301.014 278.518 299.959 276.575 299.016C277.089 310.221 275.036 321.395 270.575 331.686C252.845 371.766 200.575 376.206 162.775 370.766C151.541 369.089 140.415 366.752 129.455 363.766C119.665 361.196 110.375 357.486 102.375 351.196C91.8351 342.956 83.8751 330.216 82.5151 316.836C67.3851 333.346 55.0051 351.826 47.4451 373.096C31.7245 417.552 37.6178 466.795 63.3851 506.286C75.3151 524.296 91.6951 537.966 111.165 547.216C130.385 556.366 151.425 561.316 172.255 565.216C184.415 567.486 196.755 569.156 209.155 568.756C221.146 568.371 232.893 565.883 244.589 563.405L245.055 563.306C256.185 560.936 267.155 558.366 276.845 552.136C286.147 546.163 294.165 538.176 301.969 530.402L302.115 530.256C317.745 514.696 331.985 497.436 341.245 477.256ZM390.535 316.886C395.651 329.379 399.094 342.492 400.775 355.886C402.395 368.556 402.775 381.686 400.135 394.236C397.495 406.786 391.545 421.186 379.725 427.606C378.211 428.42 376.698 429.185 375.197 429.944C370.358 432.39 365.649 434.771 361.435 438.526C360.368 439.473 359.318 440.473 358.285 441.526C358.74 435.667 358.639 429.777 357.985 423.936C356.585 411.496 353.215 399.436 349.845 387.416C346.915 376.996 343.725 366.506 338.595 356.926C336.092 352.306 333.072 347.985 329.595 344.046C330.126 343.354 330.659 342.661 331.191 341.968L331.194 341.965C332.967 339.659 334.741 337.352 336.455 335.046C346.555 321.42 356.268 307.506 365.595 293.306C367.595 290.3 369.568 287.283 371.515 284.256C378.955 294.476 385.725 305.146 390.535 316.886ZM328.425 336.106C342.727 316.341 356.977 296.646 370.065 275.986C377.725 263.966 385.055 251.746 391.045 238.816C396.592 226.393 401.026 213.503 404.295 200.296C403.175 199.586 402.045 198.886 400.915 198.186C396.709 211.037 391.678 223.603 385.855 235.806C384.926 237.785 384.014 239.824 383.091 241.888C378.62 251.887 373.89 262.461 365.725 269.606C364.898 270.436 363.617 270.61 362.599 270.03C361.58 269.451 361.075 268.262 361.365 267.126L364.365 253.346C364.45 252.904 364.586 252.414 364.727 251.903C365.234 250.073 365.812 247.986 364.365 246.946C363.436 246.362 362.425 245.921 361.365 245.636C356.437 266.455 348.257 286.366 337.125 304.636C332.165 312.623 326.42 320.106 320.691 327.57C319.247 329.451 317.804 331.33 316.375 333.216C315.891 333.855 315.407 334.494 314.923 335.133C309.055 342.88 303.212 350.595 296.865 357.986C296.005 361.696 296.235 365.886 299.475 368.416C302.965 371.136 306.765 369.376 309.305 366.296C310.846 364.422 311.862 362.143 312.865 359.893C313.306 358.903 313.745 357.918 314.225 356.976C315.973 353.651 317.979 350.468 320.225 347.456C322.955 343.665 325.691 339.884 328.425 336.106Z" fill="#231F20"/>
<path fill-rule="evenodd" clip-rule="evenodd" d="M162.615 387.256C165.745 392.316 163.905 399.406 158.155 401.506C155.298 402.498 152.144 402.126 149.597 400.495C147.05 398.865 145.391 396.156 145.095 393.146C144.844 390.971 145.337 388.775 146.495 386.916C146.523 386.558 146.644 386.214 146.845 385.916C150.465 380.486 159.485 382.196 162.615 387.256ZM156.335 389.986C154.915 388.886 153.175 389.196 151.505 389.606C151.068 390.759 151.019 392.023 151.365 393.206C152.085 395.256 154.765 396.616 156.665 395.086C158.205 393.846 157.755 391.086 156.335 389.986Z" fill="#231F20"/>
<path fill-rule="evenodd" clip-rule="evenodd" d="M153.904 430.876C155.124 430.029 156.607 429.646 158.084 429.796C161.344 430.116 163.724 432.666 164.934 435.536C167.284 441.046 165.734 448.126 159.934 450.646C154.134 453.166 148.174 449.326 147.314 443.236C146.554 437.786 148.624 431.796 153.904 430.876ZM153.234 439.816C153.084 441.986 153.724 445.676 156.724 445.056C159.274 444.526 159.844 441.606 159.324 439.336C159.094 438.336 158.494 436.666 157.324 436.336C156.858 436.205 156.275 436.33 155.706 436.453C155.322 436.535 154.945 436.616 154.614 436.616C154.436 436.612 154.259 436.592 154.084 436.556C153.551 437.562 153.26 438.678 153.234 439.816Z" fill="#231F20"/>
<path d="M232.604 79.1062C234.964 75.1062 235.544 69.8462 236.454 65.3462C237.384 60.6862 238.454 55.8762 238.334 51.1062C238.323 50.8212 238.109 50.5854 237.826 50.5461C237.544 50.5068 237.273 50.6752 237.184 50.9462C235.784 55.6762 235.184 60.6662 234.184 65.4962C233.274 69.8362 231.504 74.3562 231.484 78.8062C231.484 79.078 231.667 79.3161 231.929 79.3864C232.192 79.4568 232.469 79.3418 232.604 79.1062Z" fill="#231F20"/>
<path d="M227.125 102.966C228.467 100.311 229.401 97.4694 229.895 94.5362C230.415 91.9862 231.175 89.2662 230.485 86.6962C230.447 86.5607 230.331 86.4613 230.192 86.4439C230.052 86.4264 229.916 86.4943 229.845 86.6162C228.345 88.9162 228.115 91.8362 227.515 94.4762C226.794 97.1634 226.299 99.9064 226.035 102.676C226.045 102.935 226.223 103.157 226.473 103.224C226.723 103.29 226.988 103.186 227.125 102.966Z" fill="#231F20"/>
<path fill-rule="evenodd" clip-rule="evenodd" d="M216.876 170.606C214.916 174.836 208.836 175.336 206.606 171.096C206.241 170.368 206.037 169.57 206.006 168.756C205.276 165.576 206.996 161.626 210.426 161.196C210.805 161.161 211.186 161.161 211.566 161.196H211.616C211.872 161.176 212.129 161.176 212.386 161.196C214.779 161.023 216.869 162.805 217.076 165.196C217.125 165.497 217.145 165.802 217.136 166.106C217.602 167.588 217.51 169.188 216.876 170.606ZM211.006 164.326C210.351 164.687 209.821 165.238 209.486 165.906C208.606 167.846 209.836 168.786 211.166 168.736C211.738 168.617 212.253 168.306 212.626 167.856C213.293 166.926 213.316 165.681 212.686 164.726C212.382 164.485 212.045 164.29 211.686 164.146C211.453 164.179 211.224 164.24 211.006 164.326Z" fill="#231F20"/>
<path fill-rule="evenodd" clip-rule="evenodd" d="M102.614 162.966C103.869 164.117 104.692 165.663 104.944 167.346C105.414 170.786 103.024 174.606 99.3944 174.986C95.3844 175.416 93.6044 172.336 93.4744 169.116C92.4444 166.116 94.4144 162.006 97.5744 161.376H97.7544C98.8927 161.04 100.118 161.177 101.154 161.756C101.716 162.059 102.213 162.47 102.614 162.966ZM97.5844 169.216C98.7528 169.283 99.8673 168.718 100.504 167.736C100.699 167.416 100.821 167.058 100.864 166.686C100.756 166.091 100.578 165.51 100.334 164.956C100.21 164.799 100.069 164.654 99.9144 164.526C99.6816 164.419 99.4364 164.342 99.1844 164.296C99.0292 164.372 98.8531 164.393 98.6844 164.356C98.5362 164.326 98.3856 164.309 98.2344 164.306L97.9744 164.386C97.6247 164.636 97.3568 164.984 97.2044 165.386C96.7379 166.654 96.8779 168.065 97.5844 169.216Z" fill="#231F20"/>
<path d="M230.945 187.846C231.443 187.055 231.499 186.063 231.093 185.222C230.686 184.38 229.874 183.807 228.945 183.706C228.124 183.697 227.361 184.128 226.945 184.836C226.8 184.919 226.668 185.024 226.555 185.146C226.377 185.352 226.247 185.594 226.175 185.856C225.926 186.669 226.111 187.552 226.665 188.196C227.236 188.807 228.055 189.124 228.889 189.056C229.723 188.987 230.48 188.542 230.945 187.846Z" fill="#231F20"/>
<path d="M87.8255 187.286C87.605 187.706 87.605 188.207 87.8255 188.626C87.8151 188.729 87.8151 188.833 87.8255 188.936C88.0112 189.632 88.5053 190.204 89.1664 190.488C89.8275 190.773 90.5826 190.739 91.2155 190.396C92.2031 189.89 92.7363 188.791 92.5229 187.702C92.3096 186.613 91.4013 185.796 90.2957 185.7C89.1901 185.604 88.1541 186.25 87.7555 187.286H87.8255Z" fill="#231F20"/>
<path fill-rule="evenodd" clip-rule="evenodd" d="M132.246 200.696C126.376 199.856 118.986 198.716 113.986 195.396C111.666 193.876 110.486 190.256 113.996 189.236C114.883 188.724 115.805 188.276 116.756 187.896C117.611 187.495 118.527 187.238 119.466 187.136C123.357 185.588 127.42 184.384 131.407 183.202C132.133 182.987 132.856 182.772 133.576 182.556C140.676 180.426 147.896 178.506 155.166 177.036C155.332 177.002 155.498 176.967 155.662 176.933C157.052 176.64 158.382 176.359 159.616 176.806C159.846 176.691 160.125 176.744 160.296 176.936C160.616 177.276 160.916 177.606 161.206 177.936C161.357 178.087 161.497 178.247 161.626 178.416C164.664 182.106 166.36 186.717 166.436 191.496V191.626C166.905 194.075 166.701 196.604 165.846 198.946C165.086 200.646 163.846 201.156 162.086 201.396C158.695 201.706 155.289 201.807 151.886 201.696C145.323 201.874 138.757 201.539 132.246 200.696ZM116.077 190.938C115.676 191.119 115.273 191.3 114.866 191.466C113.466 192.336 121.106 195.216 121.806 195.436C123.216 195.886 124.646 196.266 126.086 196.606C126.109 196.543 126.134 196.48 126.158 196.416C126.207 196.29 126.256 196.163 126.296 196.036C126.461 194.956 126.77 193.904 127.216 192.906C127.348 192.696 127.578 192.569 127.826 192.569C128.074 192.569 128.304 192.696 128.436 192.906C128.873 194.288 128.736 195.787 128.056 197.066C129.666 197.406 131.296 197.676 132.916 197.906C133.092 197.024 133.218 196.133 133.296 195.236C133.326 194.386 133.199 193.553 133.073 192.724C132.944 191.876 132.816 191.031 132.856 190.176C132.886 189.576 133.716 189.086 134.156 189.636C135.606 191.456 135.966 195.536 134.826 198.156C137.266 198.446 139.786 198.626 142.266 198.746C144.076 198.826 145.886 198.886 147.696 198.886C147.685 198.513 147.712 198.138 147.74 197.761C147.763 197.44 147.786 197.118 147.786 196.796C147.671 195.81 147.826 194.811 148.236 193.906C148.343 193.746 148.515 193.639 148.707 193.614C148.898 193.589 149.091 193.648 149.236 193.776C149.865 194.64 150.115 195.724 149.926 196.776C149.905 197.485 149.805 198.19 149.626 198.876C150.586 198.876 151.544 198.861 152.501 198.846C153.459 198.831 154.416 198.816 155.376 198.816H155.716C155.937 197.328 155.873 195.811 155.526 194.346C155.385 193.727 155.145 193.132 154.906 192.538C154.536 191.618 154.166 190.699 154.166 189.696C154.173 189.411 154.348 189.156 154.613 189.048C154.877 188.94 155.181 188.998 155.386 189.196C157.716 191.226 158.666 195.916 157.236 198.846C159.206 198.896 161.336 198.866 162.536 197.596C162.883 197.221 163.149 196.779 163.316 196.296C163.326 196.261 163.336 196.226 163.346 196.191C163.416 195.948 163.484 195.712 163.536 195.476C163.689 193.829 163.574 192.167 163.196 190.556C162.806 188.155 162.093 185.817 161.076 183.606C159.816 180.876 159.126 179.566 155.966 179.936H155.806C156.166 180.296 156.516 180.666 156.806 180.986C157.936 182.296 159.346 184.176 159.176 185.986C159.168 186.302 158.975 186.583 158.683 186.704C158.391 186.826 158.055 186.764 157.826 186.546C157.14 185.913 156.643 185.053 156.148 184.196C155.799 183.591 155.45 182.988 155.036 182.466C154.377 181.746 153.679 181.062 152.946 180.416C150.966 180.866 149.036 181.326 147.036 181.866C147.399 182.546 147.704 183.255 147.946 183.986C148.561 185.224 148.757 186.627 148.506 187.986C148.356 188.476 147.616 188.796 147.246 188.316C146.588 187.245 146.143 186.057 145.936 184.816C145.837 184.475 145.719 184.132 145.6 183.786C145.443 183.331 145.285 182.872 145.166 182.406C144.166 182.686 143.166 182.956 142.166 183.206C140.636 183.596 139.106 184.026 137.566 184.466C140.116 187.226 141.856 191.476 141.006 195.066C140.891 195.434 140.551 195.684 140.166 195.684C139.781 195.684 139.441 195.434 139.326 195.066C139.078 193.189 138.714 191.329 138.236 189.496C137.64 187.891 136.84 186.368 135.856 184.966C134.149 185.46 132.478 185.971 130.807 186.482C129.972 186.737 129.136 186.993 128.296 187.246C128.316 187.286 128.335 187.327 128.355 187.367C128.402 187.466 128.449 187.564 128.506 187.656C128.546 187.721 128.589 187.785 128.632 187.85C128.85 188.178 129.076 188.517 128.926 188.926C128.849 189.185 128.616 189.366 128.346 189.376C127.676 189.426 127.346 188.676 127.176 188.146C127.116 187.975 127.076 187.797 127.056 187.616C125.676 188.026 124.296 188.426 122.916 188.806C122.926 188.857 122.935 188.908 122.945 188.959C123.005 189.28 123.067 189.607 123.136 189.926C123.481 190.72 123.527 191.611 123.266 192.436C123.072 192.754 122.66 192.861 122.336 192.676C121.406 192.286 121.196 191.046 121.066 190.156C121.058 190.111 121.05 190.066 121.041 190.022C120.998 189.789 120.956 189.561 120.956 189.326C120.771 189.374 120.586 189.422 120.401 189.47C119.846 189.614 119.291 189.759 118.736 189.886C118.641 189.919 118.546 189.951 118.452 189.982C118.168 190.077 117.889 190.171 117.626 190.276C117.108 190.473 116.594 190.705 116.077 190.938Z" fill="#231F20"/>
<path d="M158.536 217.756C155.006 215.946 154.366 212.696 152.706 209.526C152.57 209.307 152.318 209.188 152.063 209.22C151.807 209.252 151.593 209.43 151.516 209.676C150.226 213.406 153.026 217.676 156.046 219.786C159.591 222.155 164.113 222.511 167.986 220.726C171.505 218.933 174.162 215.808 175.366 212.046C177.076 207.376 178.186 200.096 176.646 195.306C176.186 193.876 173.836 194.046 173.916 195.676C174.236 202.276 174.446 211.246 169.206 216.196C166.323 218.891 162.07 219.513 158.536 217.756Z" fill="#231F20"/>
<path d="M141.545 323.046C159.145 328.816 178.465 328.736 196.335 324.096C204.259 322.033 211.917 319.057 219.155 315.226C226.335 311.416 234.865 306.646 239.995 300.166C240.545 299.466 239.855 298.296 238.995 298.836C232.305 302.916 226.545 308.256 219.625 312.096C212.264 316.188 204.438 319.381 196.315 321.606C178.395 326.496 159.865 325.936 141.795 322.156C141.58 322.156 141.391 322.299 141.332 322.506C141.274 322.714 141.361 322.934 141.545 323.046Z" fill="#231F20"/>
<path d="M217.496 291.056C223.736 288.916 231.346 286.306 234.206 279.826C234.335 279.551 234.257 279.223 234.018 279.036C233.778 278.849 233.441 278.854 233.206 279.046C228.413 283.489 222.949 287.147 217.016 289.886C216.746 290.05 216.635 290.385 216.755 290.677C216.875 290.968 217.189 291.129 217.496 291.056Z" fill="#231F20"/>
<path d="M45.8551 423.716C46.7051 435.786 48.8551 449.636 55.5051 459.966C55.6306 460.153 55.8712 460.225 56.0788 460.137C56.2863 460.049 56.4022 459.827 56.3551 459.606C55.0251 453.806 52.9451 448.186 51.4951 442.406C49.9069 436.048 48.873 429.563 48.4051 423.026C47.5958 410.467 48.6471 397.858 51.5251 385.606C51.5999 385.269 51.3983 384.932 51.0658 384.839C50.7333 384.746 50.3861 384.929 50.2751 385.256C46.3841 397.682 44.8843 410.732 45.8551 423.716Z" fill="#231F20"/>
<path d="M65.9856 494.836C69.2856 499.556 73.3956 505.276 78.6456 507.916C79.2256 508.206 80.0856 507.566 79.6456 506.916C76.2456 502.146 71.5056 498.426 68.0356 493.636C64.3271 488.562 61.2511 483.055 58.8756 477.236C58.5256 476.376 57.1256 476.716 57.4456 477.636C59.4748 483.74 62.3494 489.53 65.9856 494.836Z" fill="#231F20"/>
</svg>
