<svg width="393" height="583" viewBox="0 0 393 583" fill="none" xmlns="http://www.w3.org/2000/svg">
<path d="M148.344 136.699C138.244 124.999 138.694 108.129 140.584 93.6195C141.724 84.8495 148.524 81.6195 153.814 75.4395C155.344 73.6395 161.364 62.4395 155.524 65.4395C151.153 67.6818 147.137 70.556 143.604 73.9695C142.73 74.7934 141.417 74.9433 140.38 74.3378C139.342 73.7324 138.827 72.516 139.114 71.3495C140.378 66.1814 141.283 60.9322 141.824 55.6395C142.078 53.1262 142.244 50.6062 142.324 48.0795C142.374 46.8495 142.754 44.2995 142.174 42.6495C133.844 49.3995 131.984 61.3395 130.494 71.4195C130.044 74.4895 125.644 73.4195 125.434 70.7395C124.962 64.3441 124.087 57.9848 122.814 51.6995C122.228 48.9862 121.601 46.2795 120.934 43.5795C120.694 42.6895 120.554 40.5795 119.934 39.9095C119.708 38.3295 119.201 38.3962 118.414 40.1095L117.774 41.2495C112.574 50.7195 115.254 62.7895 117.774 72.6295C118.574 75.8195 114.554 77.0995 112.774 74.7295C111.124 72.5195 107.774 69.4895 104.774 69.5795C102.104 69.6695 102.334 71.1895 103.174 73.3095C105.867 79.9366 111.191 85.1482 117.874 87.6995C119.279 88.1503 120.105 89.6017 119.774 91.0395C116.884 112.877 124.043 134.848 139.244 150.789C142.244 146.063 145.278 141.366 148.344 136.699Z" fill="#8DC63F"/>
<path d="M113.073 229.829C113.333 229.339 115.683 225.679 115.703 225.719C115.503 225.289 111.443 225.389 110.923 225.379C107.917 225.294 104.909 225.428 101.923 225.779C89.7946 227.306 78.2659 231.939 68.4531 239.229C58.7131 246.429 50.0931 256.769 46.2031 268.369C43.3331 276.839 50.6431 282.699 56.9331 287.199C62.3809 291.059 68.429 293.992 74.8331 295.879C79.0231 288.549 83.9831 281.589 88.4031 274.389C93.0698 266.716 97.5964 258.946 101.983 251.079C105.823 244.069 109.373 236.919 113.073 229.829Z" fill="#009444"/>
<path d="M262.113 81.9496C278.113 91.0996 295.743 94.9496 313.963 94.4096C314.233 87.8496 314.333 81.2796 314.223 74.7296C298.023 76.6596 281.003 69.3596 267.603 60.9996C260.713 56.7774 254.804 51.1313 250.273 44.4396C247.363 40.1096 244.093 34.2296 243.383 28.5596C241.537 29.7329 239.717 30.9462 237.923 32.1996C233.393 35.4359 229.135 39.0379 225.193 42.9696C229.643 50.3096 233.713 57.6496 239.673 64.1196C246.192 71.1812 253.761 77.1952 262.113 81.9496Z" fill="#939598"/>
<path d="M255.434 41.4292C259.656 47.3412 265.116 52.262 271.434 55.8492C284.294 63.3892 298.994 69.0292 314.034 67.7592C313.804 61.9192 313.394 56.0792 312.794 50.2792C311.9 40.7427 309.886 31.3447 306.794 22.2792C305.324 18.1292 303.674 13.4392 300.474 10.2792C296.794 6.69923 291.834 6.52923 287.064 7.69923C278.274 9.83923 269.764 14.5892 261.664 18.5292C256.924 20.8492 252.234 23.2992 247.664 25.9592C248.724 28.1792 249.484 30.5792 250.494 32.7792C251.881 35.8033 253.534 38.698 255.434 41.4292Z" fill="#009444"/>
<path d="M116.564 300.5C115.614 305.25 118.314 309.29 121.614 312.42C128.454 318.92 137.474 323.64 145.854 327.81C154.854 332.29 164.134 336.03 173.474 339.68C178.304 341.56 183.644 344.62 188.344 340.91C191.754 338.22 193.074 333.99 194.344 329.91C169.022 318.729 144.651 305.505 121.474 290.37C119.774 293.75 117.314 296.76 116.564 300.5Z" fill="#8DC63F"/>
<path fill-rule="evenodd" clip-rule="evenodd" d="M195.343 115.7C200.353 105.5 209.673 97.4201 221.033 95.7001C236.373 93.3701 252.933 102.85 258.373 117.48C261.65 126.675 262.938 136.46 262.153 146.19C261.323 155.47 256.093 162.42 248.043 166.81C240.395 170.912 231.82 172.978 223.143 172.81C213.493 172.47 205.943 166.59 200.723 158.81C195.706 151.144 192.966 142.211 192.823 133.05C192.694 127.167 193.546 121.303 195.343 115.7ZM210.683 155.12C220.033 163.08 233.113 159.56 240.173 150.38C247.993 140.23 245.023 126.03 236.073 117.47C227.653 109.4 213.843 109.11 206.933 119.18C203.457 124.4 201.574 130.519 201.513 136.79C201.2 142.866 203.669 148.755 208.223 152.79C208.31 152.87 208.417 152.926 208.533 152.95C209.196 153.725 209.915 154.45 210.683 155.12Z" fill="#8DC63F"/>
<path d="M227.773 118.54C222.343 115.73 215.533 116.37 211.463 121.16C210.641 122.132 209.908 123.177 209.273 124.28C206.123 134.5 207.023 150.05 219.503 153.14C224.943 154.49 230.603 151.72 234.223 147.74C238.693 142.86 239.573 137.16 237.503 131C235.813 125.97 232.593 121.04 227.773 118.54Z" fill="#939598"/>
<path fill-rule="evenodd" clip-rule="evenodd" d="M257.874 86.8396C274.244 96.8196 294.264 102.66 313.594 101.43C312.034 124.033 308.961 146.507 304.394 168.7C296.051 210.874 283.431 252.039 270.842 293.104L270.264 294.99C268.061 292.092 265.35 289.619 262.264 287.69C259.464 285.98 256.014 284.45 253.014 286.63C252.004 287.408 251.223 288.444 250.754 289.63C248.762 292.788 247.328 296.29 245.901 299.772L245.901 299.773L245.901 299.773L245.901 299.773L245.9 299.775L245.9 299.776L245.899 299.778L245.899 299.779C245.407 300.98 244.916 302.178 244.404 303.36C242.334 308.15 240.334 312.94 238.334 317.74C235.56 324.366 232.794 330.993 230.034 337.62C229.735 337.366 229.398 337.163 229.034 337.02C205.412 328.239 182.386 317.931 160.104 306.16C138.854 294.95 118.734 282.05 98.8535 268.63C102.12 262.943 105.304 257.206 108.404 251.42C110.524 247.42 112.644 243.38 114.654 239.42C115.147 238.447 115.681 237.458 116.222 236.456L116.222 236.455L116.223 236.455L116.223 236.454C117.883 233.378 119.611 230.177 120.464 226.92C122.328 219.714 112.375 219.962 107.338 220.088L107.335 220.088L107.334 220.088H107.333H107.332C106.996 220.097 106.681 220.105 106.394 220.11C105.204 220.13 104.004 220.2 102.804 220.29C122.384 187.23 142.894 154.89 164.644 123.23C175.85 106.876 187.36 90.7329 199.174 74.7996C199.526 74.3229 199.879 73.8457 200.232 73.3681L200.233 73.3673L200.233 73.3671C206.887 64.3689 213.627 55.2544 221.224 47.0596C224.054 54.4596 229.374 61.3096 234.294 66.9996C241.085 74.7874 249.039 81.4796 257.874 86.8396ZM130.693 187.377C133.335 183.365 136.004 179.31 138.084 175.04C138.364 174.48 137.604 173.76 137.204 174.32C134.339 177.934 131.909 181.939 129.498 185.914L129.498 185.915L129.498 185.915C128.66 187.296 127.824 188.673 126.974 190.03C125.952 191.665 124.9 193.294 123.844 194.927C121.253 198.937 118.646 202.973 116.444 207.18C116.366 207.443 116.474 207.726 116.707 207.871C116.941 208.016 117.242 207.987 117.444 207.8C120.191 204.169 122.63 200.199 125.045 196.268L125.045 196.267L125.045 196.267L125.046 196.267L125.046 196.266C126.023 194.676 126.996 193.092 127.984 191.54C128.866 190.152 129.778 188.767 130.693 187.377ZM152.614 152.98C150.763 156.954 148.071 160.479 144.724 163.31C144.364 163.61 143.724 163.22 144.034 162.77C144.737 161.766 145.518 160.813 146.3 159.859C146.952 159.064 147.604 158.267 148.214 157.44C148.71 156.769 149.186 156.078 149.662 155.385L149.662 155.385L149.662 155.385L149.662 155.385L149.662 155.385L149.662 155.385L149.662 155.385C150.365 154.363 151.069 153.339 151.844 152.38C152.224 151.9 152.824 152.51 152.614 152.98ZM214.474 178.45C224.674 181.68 236.924 179.31 246.614 175.31H246.574C255.294 171.7 263.124 165.7 266.814 156.81C271.174 146.36 269.484 133.64 267.174 122.88C263.034 103.59 246.564 88.8296 226.334 89.2696C215.14 89.6835 204.658 94.8662 197.534 103.51C196.952 103.394 196.355 103.619 195.994 104.09C183.114 118.46 183.834 142.02 192.404 158.26C197.074 167.11 204.724 175.37 214.474 178.45ZM276.614 254.47C276.283 255.568 275.956 256.685 275.625 257.813C273.612 264.673 271.48 271.941 267.874 277.97C267.798 278.068 267.665 278.102 267.552 278.052C267.438 278.002 267.373 277.882 267.394 277.76C268.389 272.587 270.17 267.485 271.941 262.408L271.942 262.407C272.927 259.583 273.91 256.766 274.754 253.95C275.788 250.494 276.671 246.955 277.557 243.405L277.557 243.405C278.69 238.86 279.828 234.299 281.294 229.88C281.494 229.26 282.564 229.33 282.484 230.04C281.596 237.679 279.313 245.293 277.1 252.676C276.921 253.275 276.742 253.873 276.564 254.47H276.614ZM283.874 212.8C283.694 213.3 284.424 213.55 284.694 213.14H284.644C287.16 209.279 288 204.562 286.974 200.07C286.938 199.793 286.685 199.599 286.409 199.635C286.132 199.67 285.938 199.923 285.974 200.2C285.913 204.481 285.205 208.73 283.874 212.8Z" fill="#00AEEF"/>
<path fill-rule="evenodd" clip-rule="evenodd" d="M159.393 366.249C164.393 359.299 168.393 349.249 162.913 342.109L160.493 341.109C154.733 338.699 149.023 336.179 143.443 333.379C135.373 329.379 125.993 324.629 119.033 318.189C109.333 315.059 98.6732 315.699 90.1132 321.589C82.2409 327.167 77.3786 336.062 76.9332 345.699C76.8432 347.559 74.5532 349.479 72.7532 348.099C63.4832 340.949 49.7532 344.409 39.7532 348.149C28.8432 352.219 18.8632 359.379 12.7032 369.379C6.70322 379.089 4.27322 391.149 7.89322 402.159C11.1932 412.229 19.4232 420.699 29.8332 423.159C32.9332 423.899 32.3032 427.829 29.8332 428.829C19.0432 433.199 14.8332 448.719 14.4232 459.209C13.9377 470.64 17.4764 481.879 24.4232 490.969C38.6632 509.109 66.0532 513.119 85.5232 501.399C86.4853 500.855 87.6629 500.859 88.6215 501.409C89.58 501.959 90.1774 502.974 90.1932 504.079C89.1132 532.079 102.443 560.789 129.393 571.799C153.153 581.499 183.223 572.319 193.103 547.329C194.373 544.109 198.923 544.709 199.603 547.239C203.353 554.129 212.263 556.939 219.493 553.969C227.953 550.499 231.743 540.879 231.143 532.289C230.963 529.709 234.143 528.079 236.253 529.359C246.253 535.479 257.003 541.599 269.043 537.939C278.873 534.939 286.863 526.759 290.913 517.469C296.123 505.469 294.003 493.609 285.473 483.859C278.393 475.769 267.283 469.019 256.403 473.229C253.853 474.229 251.233 470.719 252.793 468.529C261.503 456.279 262.113 439.199 253.583 426.649C248.343 418.929 240.713 415.189 231.413 416.959C223.025 418.738 215.003 421.938 207.693 426.419C205.163 427.909 202.433 425.419 202.983 422.799C205.673 409.799 207.033 395.799 196.983 385.529C187.983 376.279 174.583 371.589 161.983 370.689C159.933 370.549 157.993 368.219 159.393 366.249ZM70.0632 385.809C70.3732 385.499 70.7732 385.949 70.5232 386.269C64.8532 393.449 60.4732 403.669 66.1732 412.189C70.9832 419.379 88.1132 423.589 92.0232 413.519C92.2732 412.899 93.3432 412.919 93.2932 413.689C92.4132 425.539 73.4832 421.419 67.6132 416.449C57.6832 408.049 62.0932 393.699 70.0632 385.809ZM110.273 487.179C118.893 483.179 122.933 474.379 124.783 465.529C127.053 454.699 127.073 441.989 122.673 431.629C122.566 431.263 122.185 431.05 121.816 431.151C121.448 431.252 121.229 431.629 121.323 431.999C123.403 442.089 125.003 451.759 123.323 462.089C121.923 470.889 118.783 480.599 110.323 484.989C102.733 488.939 93.5632 488.389 85.4132 486.679C77.2632 484.969 68.5032 481.859 64.1132 474.299C64.0469 474.183 63.8992 474.143 63.7832 474.209C63.6672 474.276 63.6269 474.423 63.6932 474.539C68.0732 482.219 76.0832 485.899 84.4332 487.989C92.7832 490.079 102.273 490.899 110.273 487.179ZM120.563 389.329C115.363 391.819 109.653 390.189 105.713 386.329C105.413 386.039 105.863 385.599 106.173 385.869C110.179 389.434 116.019 390.031 120.663 387.349C124.937 384.722 125.651 380.423 126.404 375.896L126.423 375.779C126.523 375.209 127.293 375.329 127.423 375.779C129.283 380.939 125.193 387.109 120.563 389.329ZM239.793 461.969C238.823 456.369 234.763 450.079 228.353 451.149C227.933 451.219 228.043 451.879 228.453 451.899C235.143 452.079 238.063 459.369 238.063 465.129C238.053 470.389 235.643 474.299 232.713 478.389C232.293 478.969 233.133 479.819 233.713 479.389C238.883 475.579 240.843 468.099 239.793 461.969ZM169.223 541.809C163.363 542.509 160.223 537.239 158.363 532.559C158.213 532.189 158.803 531.969 158.983 532.299C161.543 536.739 165.323 541.669 171.053 539.249C174.785 537.651 176.384 534.022 177.922 530.531L177.923 530.53C178.309 529.653 178.692 528.784 179.103 527.959C179.393 527.369 180.153 527.819 180.103 528.359C179.203 534.129 175.713 541.029 169.223 541.809ZM195.293 484.009C192.143 494.769 183.813 499.319 173.593 502.259C163.493 505.169 150.823 504.199 145.983 493.309C145.843 492.999 145.353 493.219 145.443 493.529C148.533 503.659 159.793 506.739 169.283 505.299C179.973 503.639 191.473 499.079 196.053 488.639C200.413 478.689 200.773 465.519 198.843 454.989C196.993 444.929 190.833 434.079 180.143 431.709C179.433 431.549 178.873 432.619 179.613 432.949C188.623 436.959 194.293 444.689 196.293 454.259C198.299 464.117 197.957 474.308 195.293 484.009Z" fill="white"/>
<path d="M261.513 294.349C260.513 293.559 258.093 291.439 256.773 291.759C255.853 291.979 255.773 293.309 255.383 294.139C254.76 295.582 253.783 296.844 252.543 297.809C250.193 304.579 246.853 311.249 244.203 317.679L233.733 343.079C230.923 349.909 225.813 358.419 230.893 365.359C234.983 370.929 242.333 374.269 248.483 376.969C254.173 379.469 265.013 385.179 269.173 377.969C272.593 372.049 273.593 363.749 274.743 357.119C277.393 341.789 277.413 325.699 272.163 310.909C269.933 304.699 266.673 298.539 261.513 294.349Z" fill="#009444"/>
<path d="M368.454 177.26C365.584 177.1 364.274 173.26 366.944 171.7C369.994 169.94 373.254 169.18 376.574 168.1C379.044 167.29 383.574 165.75 383.444 162.44C383.244 156.35 366.564 161.44 363.504 162.6C361.244 163.45 358.754 160.32 360.244 158.36C362.504 155.36 376.394 133.9 366.424 134.04C362.244 134.04 357.864 138.98 355.104 141.68C351.834 144.89 349.214 148.33 348.334 152.9C347.774 155.84 343.874 155.2 343.004 152.9C342.004 150.28 340.764 146.57 338.104 145.1C337.077 144.455 335.837 144.243 334.654 144.51C332.854 145.19 332.654 147.18 332.574 148.91C332.144 154.8 335.434 160.35 339.654 164.15C340.817 165.32 340.817 167.21 339.654 168.38C329.884 177.16 318.874 185.04 306.594 189.89C304.654 198.35 302.57 206.776 300.344 215.17C310.104 213.839 319.465 210.429 327.794 205.17C332.497 202.191 336.839 198.677 340.734 194.7C343.494 191.88 346.124 186.7 350.194 185.64C354.784 184.48 358.864 188.96 362.684 190.73C367.831 193.22 373.56 194.258 379.254 193.73C384.884 193.01 388.864 188.73 385.254 183.28C381.644 177.83 374.214 177.57 368.454 177.26Z" fill="#8DC63F"/>
<path fill-rule="evenodd" clip-rule="evenodd" d="M380.614 173.05C382.937 173.742 385.106 174.872 387.004 176.38C390.934 179.58 393.584 184.95 392.394 190.07C389.584 202.66 371.584 200.61 362.724 197.21C359.844 196.068 357.09 194.634 354.504 192.93C354.312 192.808 354.134 192.691 353.968 192.582L353.966 192.58L353.965 192.58L353.964 192.579C352.66 191.72 352.043 191.314 350.554 192.44C349.848 192.988 349.218 193.893 348.611 194.766C348.254 195.278 347.905 195.779 347.554 196.19C343.287 201.106 338.368 205.416 332.934 209C322.685 215.718 310.974 219.881 298.784 221.14C291.484 248.09 283.064 274.73 274.484 301.29C275.614 303.448 276.616 305.672 277.484 307.95C284.114 325.5 283.434 344.89 279.674 362.95C279.49 363.823 279.311 364.746 279.124 365.702L279.123 365.711L279.122 365.716L279.121 365.718C277.814 372.429 276.188 380.778 270.844 384.95C264.473 389.917 255.38 386.051 248.692 383.207L248.405 383.085L248.073 382.944C247.919 382.878 247.765 382.814 247.614 382.75C240.364 379.67 232.324 375.88 227.214 369.67C221.534 362.75 222.864 355.16 226.044 347.41C226.397 346.543 226.759 345.676 227.122 344.81C227.303 344.376 227.484 343.943 227.664 343.51L227.304 343.4C218.137 339.966 209.037 336.3 200.004 332.4C197.234 342.27 190.214 351.85 178.614 348.27C175.884 347.4 173.174 346.37 170.494 345.27C170.863 346.385 171.121 347.534 171.264 348.7C172.004 354.6 169.994 360.25 167.064 365.25C180.094 366.96 193.354 372.26 202.304 381.96C211.644 392.07 212.274 404.88 210.404 417.58C217.824 413.79 225.944 410.82 234.104 410.05C243.924 409.12 252.134 413.92 257.924 421.55C267.364 434 268.594 451.51 261.994 465.46C270.804 464.99 279.504 469.37 286.134 475.21C294.314 482.41 300.524 492.57 300.594 503.7C300.664 514.09 296.224 524.31 289.484 532.09C283.114 539.44 274.044 544.78 264.404 545.8C254.764 546.82 245.934 542.86 237.764 538.13C236.514 547.8 230.674 556.97 221.244 560.44C212.693 563.471 203.16 561.232 196.854 554.71C191.979 563.755 184.537 571.156 175.464 575.98C154.644 587.06 129.624 582.95 111.414 568.75C93.2038 554.55 84.2538 531.87 83.9338 509.21C74.8705 513.367 64.8298 514.921 54.9338 513.7C34.1438 511.22 16.9338 497.52 10.7938 477.41C7.73873 467.41 7.56888 456.751 10.3038 446.66C12.3538 439.27 16.1038 431.37 22.2538 426.54C14.5709 422.843 8.35185 416.673 4.59376 409.02C-4.96624 389.6 3.30376 366.3 19.4138 353.15C27.7376 346.514 37.4915 341.905 47.9038 339.69C56.0038 337.91 64.5638 337.44 71.9038 341.07C75.5438 321.64 94.5538 308.13 113.734 312.07C108.786 304.146 110.4 293.792 117.524 287.75C110.324 282.936 103.294 277.913 96.4338 272.68C95.7838 273.83 95.1138 274.99 94.4338 276.13C93.849 277.113 93.2646 278.102 92.6788 279.093L92.6754 279.099C88.3137 286.477 83.8721 293.99 78.5838 300.68C78.369 300.96 78.1004 301.195 77.7938 301.37C77.085 302.072 76.0446 302.323 75.0938 302.02C66.0155 299.545 57.5614 295.184 50.2838 289.22C43.1738 283.4 37.3538 276.38 40.6138 266.79C48.8038 242.47 72.4838 224.61 97.6138 220.79C109.974 198.423 122.974 176.423 136.614 154.79C120.113 138.258 111.89 115.202 114.204 91.9597C106.044 88.1597 97.5238 80.2397 96.9338 70.9597C96.6338 66.0797 100.304 63.7297 104.804 64.3197C106.831 64.5749 108.797 65.1842 110.614 66.1197C109.613 61.1224 109.297 56.0122 109.674 50.9297C110.164 45.6897 111.794 36.8397 117.074 34.1297C123.301 30.9612 125.184 39.3319 126.225 43.9595C126.321 44.3852 126.41 44.7792 126.494 45.1297C127.304 48.4697 127.984 51.7897 128.574 55.1297C130.834 47.7997 134.514 41.2197 141.204 36.7997C142.022 36.32 143.036 36.32 143.854 36.7997C148.203 39.458 147.827 45.0187 147.515 49.623C147.482 50.1108 147.45 50.5879 147.424 51.0497C147.158 55.717 146.62 60.3649 145.814 64.9697C147.992 63.349 150.299 61.9107 152.714 60.6697C155.774 59.1097 159.734 57.5897 162.354 60.7797C167.334 66.8297 160.214 76.9797 156.084 81.3197C155.165 82.2833 154.105 83.1951 153.031 84.1177L153.031 84.1178C150.307 86.4598 147.501 88.8716 146.734 92.3797C145.824 96.4975 145.726 101.119 145.635 105.402L145.634 105.408L145.634 105.415C145.624 105.881 145.615 106.343 145.604 106.8C145.394 115.45 146.344 124.52 151.674 131.52C158.24 121.626 164.907 111.83 171.674 102.13C183.314 85.4597 195.164 68.8097 207.834 52.9097C211.432 48.3624 215.299 44.0347 219.414 39.9497C219.401 39.8478 219.383 39.7459 219.366 39.6436C219.33 39.4348 219.294 39.2245 219.294 39.0097C219.164 37.6197 220.734 37.1497 221.734 37.7197C230.82 29.1497 241.051 21.8805 252.134 16.1197C260.444 11.7897 268.994 7.72967 277.654 4.11967C285.494 0.839666 295.004 -1.63033 302.584 3.63967C309.624 8.52967 312.544 18.2297 314.814 26.0397C317.447 35.5972 319.102 45.3975 319.754 55.2897C320.127 60.1697 320.39 65.0597 320.544 69.9597C320.817 70.664 320.839 71.4414 320.604 72.1597C320.784 79.8297 320.694 87.4997 320.374 95.1597C321.415 96.5671 321.327 98.5116 320.164 99.8197C318.734 126.58 314.534 153.33 308.964 179.33C308.706 180.422 308.454 181.559 308.203 182.691C308.123 183.052 308.044 183.412 307.964 183.77C316.834 178.45 325.384 172.89 333.224 166.09C330.363 162.784 328.397 158.801 327.514 154.52C326.644 150.32 326.174 144.44 329.514 141.13C332.224 138.44 336.684 138.28 339.994 139.86C342.262 140.999 344.136 142.793 345.374 145.01C347.635 141.323 350.474 138.024 353.784 135.24C357.804 131.63 363.374 127.07 369.214 128.69C380.534 131.82 374.914 145.59 369.534 154.69C377.304 152.86 386.974 152.34 389.064 159.75C390.254 163.97 388.284 168.13 384.934 170.7C383.615 171.688 382.16 172.48 380.614 173.05ZM266.085 16.3391C264.599 17.0822 263.125 17.8191 261.664 18.5297C256.934 20.8497 252.234 23.2997 247.674 25.9997C248.245 27.1964 248.732 28.4454 249.217 29.6872C249.631 30.749 250.043 31.8056 250.504 32.8197C251.891 35.8437 253.544 38.7384 255.444 41.4697C259.666 47.3816 265.126 52.3025 271.444 55.8897C284.304 63.4297 299.044 69.0697 314.044 67.7997C313.804 61.9597 313.404 56.1197 312.804 50.3197C311.91 40.7832 309.896 31.3851 306.804 22.3197L306.78 22.2529C305.316 18.1194 303.667 13.4627 300.484 10.3197C296.794 6.69967 291.834 6.52967 287.064 7.69967C279.859 9.45374 272.842 12.9613 266.085 16.3391ZM237.934 32.1997C239.72 30.9397 241.54 29.7263 243.394 28.5597C244.104 34.2297 247.394 40.1097 250.284 44.4397C254.812 51.1303 260.717 56.7764 267.604 60.9997C281.004 69.3597 298.024 76.6997 314.224 74.6997C314.334 81.2497 314.224 87.8197 313.964 94.3797C295.744 94.9697 278.124 91.0697 262.114 81.9197C253.762 77.1653 246.193 71.1513 239.674 64.0897C234.633 58.6542 231.004 52.6047 227.316 46.457L227.314 46.453C226.613 45.2842 225.909 44.112 225.194 42.9397C229.14 39.018 233.401 35.426 237.934 32.1997ZM117.874 87.7197C119.278 88.1705 120.104 89.6218 119.774 91.0597C116.89 112.89 124.049 134.852 139.244 150.79C142.25 146.036 145.284 141.326 148.344 136.66C138.244 124.96 138.694 108.09 140.584 93.5797C141.395 87.3414 145.069 83.9163 149.027 80.2273L149.028 80.2271C150.634 78.73 152.287 77.1894 153.814 75.3997C155.344 73.6397 161.364 62.3997 155.524 65.3997C151.153 67.642 147.136 70.5162 143.604 73.9297C142.729 74.7536 141.417 74.9035 140.379 74.298C139.342 73.6926 138.827 72.4762 139.114 71.3097C140.377 66.1416 141.283 60.8924 141.824 55.5997C142.077 53.093 142.244 50.573 142.324 48.0397C142.334 47.79 142.358 47.486 142.384 47.1461L142.384 47.1451C142.489 45.8106 142.636 43.9244 142.174 42.6097C133.844 49.3797 131.984 61.2997 130.494 71.3797C130.044 74.4497 125.644 73.3697 125.434 70.6997C124.935 64.3296 124.036 57.9971 122.744 51.7397C122.19 48.9663 121.547 46.2463 120.814 43.5797C120.759 43.3461 120.708 43.0307 120.652 42.6797C120.495 41.6931 120.293 40.426 119.814 39.9097C119.58 38.3363 119.074 38.403 118.294 40.1097L117.654 41.2497C112.494 50.7197 115.174 62.7897 117.654 72.6297C118.444 75.8197 114.424 77.0997 112.654 74.7297C111.014 72.5197 107.654 69.4897 104.654 69.5797C101.984 69.6697 102.214 71.1897 103.054 73.3097C105.77 79.9685 111.141 85.1917 117.874 87.7197ZM88.3838 274.39C86.5811 277.326 84.6887 280.223 82.7952 283.121C80.0461 287.328 77.2949 291.539 74.8138 295.88C68.4167 293.99 62.3754 291.057 56.9338 287.2C50.6638 282.72 43.3538 276.84 46.1838 268.37C50.0738 256.77 58.6938 246.43 68.4338 239.23C78.2551 231.935 89.7948 227.302 101.934 225.78C104.92 225.428 107.928 225.295 110.934 225.38C110.986 225.38 111.074 225.379 111.189 225.378C112.229 225.367 115.534 225.333 115.714 225.72C115.714 225.72 113.344 229.34 113.084 229.83C111.897 232.104 110.725 234.385 109.554 236.665L109.553 236.667L109.552 236.669L109.551 236.672L109.549 236.674L109.548 236.676C107.07 241.5 104.593 246.322 101.974 251.08C97.6204 258.953 93.0904 266.723 88.3838 274.39ZM202.984 422.8C205.644 409.81 206.984 395.84 196.984 385.53C188.004 376.28 174.584 371.59 161.964 370.68C159.934 370.54 158.014 368.24 159.414 366.24C164.364 359.29 168.424 349.26 162.934 342.1L160.514 341.1C154.754 338.69 149.044 336.17 143.464 333.37C135.394 329.32 126.054 324.62 119.054 318.18C109.354 315.05 98.6938 315.69 90.1338 321.58C82.2512 327.155 77.3808 336.055 76.9338 345.7C76.8438 347.56 74.5538 349.48 72.7538 348.1C63.4538 340.95 49.7538 344.41 39.7538 348.15C28.8438 352.22 18.8638 359.38 12.7038 369.38C6.71376 379.09 4.27376 391.16 7.89376 402.16C11.1938 412.21 19.4238 420.68 29.8338 423.16C32.9338 423.9 32.3038 427.83 29.8338 428.83C19.0438 433.21 14.8138 448.72 14.4238 459.21C13.9383 470.64 17.477 481.879 24.4238 490.97C38.6638 509.11 66.0538 513.12 85.5238 501.4C86.4858 500.856 87.6635 500.86 88.622 501.41C89.5806 501.96 90.178 502.975 90.1938 504.08C89.1138 532.03 102.394 560.8 129.394 571.8C153.154 581.5 183.224 572.33 193.104 547.33C194.374 544.11 198.924 544.71 199.604 547.24C203.354 554.13 212.264 556.97 219.494 553.97C227.954 550.5 231.744 540.88 231.144 532.29C230.964 529.71 234.164 528.08 236.254 529.36C246.254 535.48 257.044 541.6 269.044 537.94C278.914 534.96 286.864 526.76 290.914 517.47C296.124 505.5 294.004 493.61 285.474 483.86C278.404 475.77 267.284 469.02 256.404 473.23C253.854 474.21 251.234 470.72 252.794 468.53C261.504 456.28 262.114 439.2 253.584 426.65C248.344 418.96 240.714 415.19 231.414 416.96C223.026 418.739 215.004 421.938 207.694 426.42C205.164 427.91 202.434 425.46 202.984 422.8ZM188.344 340.91C184.27 344.125 179.745 342.255 175.44 340.475L175.439 340.474C174.778 340.201 174.122 339.93 173.474 339.68C164.134 336.03 154.824 332.29 145.854 327.81C137.474 323.64 128.454 318.92 121.614 312.42C118.314 309.29 115.614 305.25 116.564 300.5C117.084 297.905 118.428 295.661 119.773 293.415L119.773 293.415C120.366 292.424 120.96 291.432 121.484 290.41C144.661 305.545 169.031 318.768 194.354 329.95L194.324 330.044C193.053 334.055 191.727 338.241 188.344 340.91ZM274.292 359.811C274.444 358.891 274.593 357.991 274.744 357.12C277.394 341.79 277.414 325.7 272.164 310.93C269.974 304.76 266.674 298.56 261.514 294.37C261.446 294.315 261.372 294.254 261.291 294.187C260.209 293.297 258.002 291.482 256.774 291.78C256.113 291.938 255.886 292.668 255.666 293.374C255.579 293.652 255.494 293.926 255.384 294.16C254.76 295.602 253.783 296.864 252.544 297.83C251.046 302.163 249.135 306.455 247.258 310.669C246.202 313.039 245.158 315.385 244.204 317.7L233.734 343.08C233.347 344.01 232.919 344.971 232.48 345.955C229.699 352.198 226.506 359.365 230.894 365.36C234.984 370.97 242.334 374.27 248.484 376.97C248.949 377.174 249.449 377.4 249.977 377.639C255.902 380.317 265.354 384.59 269.174 377.97C272.144 372.828 273.289 365.89 274.292 359.811ZM270.334 294.92C268.131 292.022 265.42 289.549 262.334 287.62C259.534 285.91 256.064 284.38 253.084 286.56C252.074 287.338 251.293 288.374 250.824 289.56C248.748 292.851 247.254 296.514 245.776 300.141L245.776 300.141C245.345 301.197 244.916 302.25 244.474 303.29C243.503 305.614 242.516 307.939 241.528 310.265L241.528 310.267C240.48 312.733 239.433 315.2 238.404 317.67C235.644 324.296 232.877 330.923 230.104 337.55C229.806 337.296 229.468 337.093 229.104 336.95C205.482 328.169 182.457 317.861 160.174 306.09C138.934 294.88 118.804 281.98 98.9238 268.56C102.197 262.873 105.38 257.136 108.474 251.35C110.594 247.39 112.677 243.39 114.724 239.35C115.252 238.294 115.827 237.225 116.409 236.145C118.031 233.133 119.702 230.029 120.534 226.85C122.408 219.644 112.446 219.893 107.408 220.018C107.069 220.027 106.753 220.035 106.464 220.04C105.274 220.04 104.074 220.13 102.874 220.22L102.874 220.22C122.454 187.22 142.964 154.82 164.714 123.16C175.9 106.853 187.387 90.733 199.174 74.7997C199.679 74.1165 200.185 73.4324 200.691 72.7477C207.19 63.9512 213.755 55.0664 221.224 47.0597C224.054 54.4597 229.374 61.3097 234.294 66.9997C241.085 74.7875 249.039 81.4797 257.874 86.8397C274.244 96.8397 294.264 102.66 313.594 101.43C312.055 124.008 309.004 146.459 304.464 168.63C296.121 210.804 283.501 251.97 270.912 293.034L270.334 294.92ZM362.684 190.7C367.831 193.19 373.56 194.228 379.254 193.7C384.934 192.94 388.824 188.59 385.284 183.2C381.843 177.96 374.632 177.578 368.941 177.276C368.777 177.267 368.615 177.258 368.454 177.25C365.584 177.09 364.274 173.23 366.944 171.69C369.32 170.318 371.824 169.554 374.384 168.773C375.11 168.551 375.84 168.328 376.574 168.09C379.044 167.28 383.554 165.74 383.444 162.43C383.244 156.34 366.564 161.43 363.504 162.59C361.244 163.44 358.754 160.35 360.244 158.35C362.504 155.39 376.424 133.89 366.424 134.03C362.7 134.074 358.818 137.96 356.063 140.716C355.726 141.054 355.405 141.375 355.104 141.67C351.834 144.89 349.214 148.32 348.334 152.89C347.774 155.83 343.874 155.19 343.004 152.89C342.943 152.728 342.88 152.562 342.817 152.392C341.854 149.82 340.599 146.469 338.104 145.09C337.077 144.445 335.837 144.233 334.654 144.5C332.854 145.18 332.694 147.17 332.574 148.9C332.144 154.79 335.434 160.34 339.654 164.14C340.817 165.31 340.817 167.2 339.654 168.37C329.884 177.15 318.874 185.03 306.594 189.88C304.647 198.333 302.564 206.76 300.344 215.16C310.104 213.829 319.465 210.419 327.794 205.16C332.498 202.175 336.84 198.654 340.734 194.67C341.555 193.831 342.365 192.777 343.204 191.685C345.186 189.107 347.335 186.312 350.194 185.61C353.416 184.795 356.386 186.76 359.192 188.616C360.383 189.404 361.545 190.172 362.684 190.7Z" fill="#231F20"/>
<path fill-rule="evenodd" clip-rule="evenodd" d="M206.953 119.18C213.863 109.11 227.673 109.4 236.093 117.47C245.023 126.03 247.993 140.23 240.173 150.34C233.113 159.52 220.033 163.08 210.683 155.08C209.915 154.409 209.196 153.684 208.533 152.91C208.417 152.885 208.31 152.83 208.223 152.75C203.669 148.715 201.199 142.826 201.513 136.75C201.587 130.49 203.477 124.386 206.953 119.18ZM219.503 153.1C224.943 154.45 230.603 151.7 234.223 147.7C238.693 142.86 239.573 137.16 237.503 130.96C235.773 125.93 232.593 121 227.773 118.5C222.343 115.69 215.533 116.33 211.463 121.12C210.641 122.092 209.908 123.136 209.273 124.24C206.123 134.46 207.023 150.01 219.503 153.1Z" fill="#231F20"/>
<path fill-rule="evenodd" clip-rule="evenodd" d="M226.333 89.2694C246.563 88.8294 263.033 103.589 267.173 122.879C269.483 133.639 271.143 146.359 266.813 156.809C263.123 165.729 255.293 171.719 246.573 175.309C236.883 179.289 224.633 181.679 214.433 178.449C204.683 175.369 197.033 167.109 192.363 158.259C183.793 142.019 183.073 118.459 195.953 104.089C196.314 103.619 196.911 103.394 197.493 103.509C204.627 94.8557 215.125 89.672 226.333 89.2694ZM248.063 166.779C256.113 162.389 261.343 155.439 262.173 146.159H262.153C262.938 136.43 261.65 126.644 258.373 117.449C252.973 102.849 236.373 93.3694 221.033 95.6994C209.673 97.4694 200.343 105.549 195.343 115.699C193.556 121.294 192.711 127.147 192.843 133.019C192.986 142.181 195.726 151.113 200.743 158.779C205.963 166.579 213.513 172.459 223.163 172.779C231.84 172.947 240.415 170.881 248.063 166.779Z" fill="#231F20"/>
<path d="M137.154 174.32C133.294 179.19 130.224 184.77 126.924 190.03C123.374 195.68 119.494 201.26 116.394 207.18C116.316 207.443 116.424 207.726 116.658 207.871C116.891 208.016 117.193 207.987 117.394 207.8C121.254 202.65 124.494 196.97 127.934 191.54C131.374 186.11 135.234 180.79 138.034 175.04C138.364 174.48 137.604 173.76 137.154 174.32Z" fill="#231F20"/>
<path d="M151.843 152.38C150.543 153.99 149.443 155.78 148.213 157.44C146.873 159.26 145.323 160.93 144.033 162.77C143.723 163.22 144.363 163.61 144.723 163.31C148.071 160.479 150.763 156.954 152.613 152.98C152.823 152.51 152.223 151.9 151.843 152.38Z" fill="#231F20"/>
<path d="M281.244 229.88C278.634 237.75 277.044 245.99 274.704 253.95C272.364 261.91 268.934 269.7 267.344 277.76C267.323 277.882 267.388 278.002 267.502 278.052C267.615 278.102 267.748 278.068 267.824 277.97C272.024 270.97 274.224 262.25 276.564 254.47C278.954 246.53 281.564 238.3 282.434 230.04C282.514 229.33 281.444 229.26 281.244 229.88Z" fill="#231F20"/>
<path d="M285.934 200.2C285.873 204.482 285.165 208.73 283.834 212.8C283.674 213.3 284.384 213.55 284.654 213.14C287.153 209.272 287.975 204.556 286.934 200.07C286.911 199.891 286.794 199.739 286.627 199.67C286.461 199.6 286.271 199.625 286.127 199.735C285.984 199.844 285.911 200.021 285.934 200.2Z" fill="#231F20"/>
<path d="M121.353 432C123.433 442.11 125.033 451.76 123.353 462.09C121.923 470.89 118.783 480.6 110.353 484.99C102.763 488.94 93.5733 488.39 85.4433 486.68C77.3133 484.97 68.5333 481.86 64.1433 474.3C64.077 474.184 63.9293 474.144 63.8133 474.21C63.6973 474.276 63.657 474.424 63.7233 474.54C68.1033 482.22 76.1933 485.92 84.4633 487.99C92.7333 490.06 102.283 490.9 110.303 487.18C118.923 483.18 122.963 474.38 124.813 465.53C127.083 454.67 127.103 441.99 122.733 431.63C122.667 431.383 122.475 431.191 122.228 431.125C121.982 431.059 121.719 431.129 121.538 431.31C121.358 431.49 121.287 431.753 121.353 432Z" fill="#231F20"/>
<path d="M67.6139 416.449C73.4839 421.449 92.4139 425.539 93.2939 413.689C93.2939 412.919 92.2939 412.899 92.0239 413.519C88.1139 423.589 71.0239 419.379 66.1739 412.189C60.4739 403.669 64.8539 393.449 70.5239 386.269C70.7739 385.949 70.3739 385.499 70.0639 385.809C62.0939 393.699 57.6839 408.049 67.6139 416.449Z" fill="#231F20"/>
<path d="M126.424 375.749C125.664 380.289 124.974 384.669 120.664 387.319C116.02 390.001 110.18 389.404 106.174 385.839C105.864 385.569 105.414 386.009 105.714 386.299C109.654 390.189 115.364 391.819 120.564 389.299C125.194 387.079 129.284 380.909 127.444 375.719C127.294 375.299 126.524 375.179 126.424 375.749Z" fill="#231F20"/>
<path d="M146.024 493.31C145.884 493 145.394 493.22 145.484 493.53C148.574 503.7 159.834 506.7 169.324 505.3C180.014 503.68 191.514 499.08 196.094 488.64C200.454 478.69 200.814 465.52 198.884 454.99C197.034 444.93 190.884 434.08 180.184 431.71C179.474 431.55 178.914 432.62 179.654 432.95C188.654 436.95 194.304 444.69 196.334 454.26C198.34 464.117 197.997 474.309 195.334 484.01C192.184 494.77 183.854 499.32 173.634 502.26C163.414 505.2 150.824 504.2 146.024 493.31Z" fill="#231F20"/>
<path d="M228.454 451.899C235.144 452.079 238.084 459.369 238.064 465.129C238.064 470.359 235.644 474.299 232.714 478.389C232.294 478.969 233.134 479.819 233.714 479.389C238.884 475.579 240.844 468.099 239.794 461.969C238.794 456.369 234.794 450.079 228.354 451.149C227.934 451.219 228.044 451.879 228.454 451.899Z" fill="#231F20"/>
<path d="M179.104 527.96C177.034 532.07 175.724 537.28 171.054 539.25C165.324 541.67 161.544 536.74 158.984 532.3C158.804 531.97 158.214 532.19 158.364 532.56C160.244 537.24 163.364 542.51 169.224 541.81C175.714 541.03 179.224 534.13 180.074 528.36C180.154 527.82 179.394 527.37 179.104 527.96Z" fill="#231F20"/>
</svg>
