<svg width="456" height="582" viewBox="0 0 456 582" fill="none" xmlns="http://www.w3.org/2000/svg">
<path d="M422.91 140.036C416.75 143.466 411.48 147.036 404.52 148.806C396.872 150.766 388.88 150.975 381.141 149.416C383.991 154.616 387.091 159.526 391.78 163.666C398.51 169.596 407.37 173.206 416.41 172.746C431.57 171.976 442.149 159.346 446.609 145.746C444.689 137.556 429.43 136.406 422.91 140.036Z" fill="#A97C50"/>
<path fill-rule="evenodd" clip-rule="evenodd" d="M320.933 89.1858C320.693 89.1858 320.463 89.1858 320.233 89.0958C319.372 88.9679 318.682 88.3176 318.503 87.4658C306.615 79.2546 293.46 73.0489 279.563 69.0958C241.473 58.0958 199.713 61.5958 164.163 79.2358C131.543 95.4258 106.373 121.836 89.6831 153.996C80.9931 170.746 74.4831 188.476 68.7731 206.426C62.7731 225.176 58.3731 244.226 57.7731 263.916C57.8086 264.148 57.8086 264.384 57.7731 264.616C56.9177 272.682 67.1438 272.272 73.1867 272.03C73.7141 272.008 74.2096 271.989 74.6631 271.976C81.1777 271.787 87.6825 271.549 94.197 271.311L94.3331 271.306L107.013 270.866C107.903 268.866 110.533 269.166 111.883 270.696L131.373 270.016C154.123 269.256 176.893 268.756 199.643 269.256C211.007 269.507 222.347 270.198 233.686 270.888L233.687 270.888C244.04 271.519 254.392 272.15 264.763 272.446C287.303 273.076 309.853 272.386 332.353 271.106C343.433 270.476 354.493 269.706 365.563 268.886C366.259 268.834 367.405 268.807 368.849 268.772C376.36 268.593 391.932 268.22 394.163 263.246C393.63 259.572 393.107 255.891 392.584 252.206C386.913 212.263 381.178 171.865 361.503 135.976C351.143 117.096 337.523 101.226 320.933 89.1858ZM170.643 199.144L170.643 199.144C164.198 188.623 157.692 178.004 143.013 180.286C128.013 182.626 119.743 196.536 116.783 210.286C116.073 213.606 111.333 212.116 111.783 208.916C114.263 191.976 125.423 176.046 143.393 173.796C160.183 171.696 174.393 185.056 177.933 200.886C178.178 202.152 177.504 203.417 176.316 203.92C175.128 204.422 173.751 204.024 173.013 202.966C172.214 201.709 171.429 200.427 170.643 199.144ZM336.933 195.796C337.653 198.796 341.983 197.996 342.133 195.096C342.813 181.096 329.083 170.606 315.883 171.936C302.683 173.266 292.693 185.756 290.883 198.436C290.513 201.026 294.373 203.436 295.643 200.436C295.885 199.868 296.126 199.295 296.368 198.72C299.85 190.442 303.555 181.636 313.073 178.906C325.583 175.326 334.223 184.686 336.933 195.796Z" fill="#754C29"/>
<path d="M282.234 288.786C281.855 285.825 281.314 282.888 280.614 279.986C274.954 279.986 269.284 279.906 263.613 279.736L261.863 279.666C265.283 284.816 266.373 291.256 266.803 297.666C267.193 303.496 267.223 309.356 267.633 315.196C268.043 321.036 267.073 331.396 273.074 334.596C278.754 337.596 287.444 332.086 291.404 328.536C295.861 324.367 299.309 319.237 301.485 313.536C305.655 302.878 305.914 291.087 302.215 280.256C302.161 280.072 302.121 279.885 302.095 279.696C296.981 279.823 291.868 279.906 286.754 279.946C289.304 286.416 290.054 294.136 288.304 300.616C287.404 303.946 282.584 303.116 282.454 299.826C282.354 296.146 282.644 292.496 282.234 288.786Z" fill="#BE1E2D"/>
<path d="M309.251 279.496C316.251 301.706 307.471 336.326 281.161 341.116C275.851 342.116 269.281 341.576 265.571 337.166C261.861 332.756 261.971 325.886 261.481 320.516C260.771 312.896 260.661 305.276 260.231 297.646C259.841 290.926 258.721 284.466 254.231 279.376C231.411 278.376 208.661 276.476 185.791 276.316C161.131 276.156 136.481 276.986 111.841 277.766C109.371 287.536 103.561 295.876 98.2107 304.416C91.3872 315.306 86.1543 327.116 82.6707 339.486C75.9201 363.865 74.9307 389.479 79.7807 414.306C87.7207 455.136 113.781 493.906 154.661 507.306C176.431 514.476 201.871 515.116 224.541 512.906C244.347 510.89 263.491 504.65 280.681 494.606C315.42 474.486 340.303 440.907 349.441 401.816C354.327 380.639 354.715 358.672 350.581 337.336C346.491 316.426 336.581 298.176 328.911 278.586C322.351 278.926 315.797 279.229 309.251 279.496Z" fill="#754C29"/>
<path d="M436.412 122.726C427.412 122.866 419.202 129.256 411.322 132.836C403.434 136.436 395.22 139.276 386.792 141.316C383.899 142.2 380.961 142.934 377.992 143.516L378.542 144.566C384.196 146.216 390.095 146.863 395.972 146.476C401.693 146.033 407.285 144.549 412.472 142.096C416.312 140.236 419.612 137.326 423.562 135.736C429.762 133.246 438.932 134.096 444.282 138.246C445.68 139.313 446.821 140.68 447.622 142.246C448.712 137.876 449.922 132.246 447.622 128.026C445.452 124.096 440.622 122.666 436.412 122.726Z" fill="#754C29"/>
<path d="M78.3728 162.266C70.0628 166.496 58.7628 165.606 49.8028 164.166C42.5428 162.996 36.0028 160.616 30.2728 155.926C27.1477 153.234 24.2014 150.341 21.4528 147.266C20.2328 145.966 19.0328 144.656 17.7828 143.396C16.9561 142.556 16.1061 141.736 15.2328 140.936C13.1261 138.269 10.7595 138.253 8.13281 140.886C8.79281 152.886 12.3328 164.426 23.3728 171.266C30.4328 175.646 38.9728 177.266 47.1928 176.776C57.1928 176.196 65.5928 171.706 75.1928 169.626C76.1828 167.156 77.2728 164.706 78.3728 162.266Z" fill="#A97C50"/>
<path d="M38.5726 373.496C33.6227 376.366 26.7628 378.236 22.7229 382.336C14.4831 390.676 29.0528 391.566 33.7227 391.546C45.2025 391.486 59.7222 393.746 69.542 386.416C69.632 386.346 69.722 386.306 69.812 386.246C69.5404 371.712 71.1743 357.205 74.6719 343.096C64.7921 355.456 51.7123 365.886 38.5726 373.496Z" fill="#A97C50"/>
<path d="M256.802 513.486C256.811 513.609 256.811 513.733 256.802 513.856C256.802 527.416 254.802 540.926 255.012 554.546C255.092 560.386 254.952 571.386 264.012 568.026C269.662 565.936 272.172 559.186 274.542 554.116C284.001 533.722 292.226 512.777 299.172 491.396C290.04 498.216 280.164 503.976 269.732 508.566C265.452 510.426 261.152 512.096 256.802 513.486Z" fill="#A97C50"/>
<path d="M131.691 504.956C140.061 526.016 145.451 548.286 156.941 567.956C159.051 571.576 161.051 575.646 165.851 573.006C168.171 571.726 169.851 568.836 170.961 566.526C173.291 561.836 174.111 556.426 174.411 551.256C175.021 540.466 174.181 529.876 178.411 519.726C164.411 518.096 150.601 514.786 137.861 508.336C135.781 507.306 133.711 506.156 131.691 504.956Z" fill="#A97C50"/>
<path d="M26.902 148.096C35.3721 156.616 44.2822 160.096 56.1424 161.296C65.8525 162.296 76.7626 161.726 82.6227 153.366C83.0927 152.426 83.5627 151.486 84.0527 150.546C83.2771 150.15 82.738 149.406 82.6027 148.546C68.7225 150.846 54.2123 145.896 42.0222 139.326C34.2321 135.126 27.022 130.046 19.6419 125.126C17.7318 123.846 11.2718 118.036 9.35174 118.486C9.57174 118.436 8.91173 121.366 8.77173 122.736C8.59173 124.546 8.45172 126.356 8.32172 128.166C8.14172 130.666 8.03172 133.166 8.01172 135.776C8.59976 135.528 9.22495 135.379 9.86174 135.336C16.6018 134.956 22.7519 143.916 26.902 148.096Z" fill="#754C29"/>
<path d="M360.502 377.846C374.912 380.036 390.212 379.626 404.192 375.346C407.504 374.452 410.596 372.882 413.272 370.736C415.052 369.206 420.102 363.166 417.572 360.626C416.202 359.256 410.572 359.826 408.452 359.556C405.576 359.209 402.722 358.702 399.902 358.036C382.712 353.936 368.072 343.526 356.652 330.246C358.058 336.385 359.12 342.598 359.832 348.856C360.921 358.48 361.145 368.182 360.502 377.846Z" fill="#A97C50"/>
<path d="M121.961 100.586C115.959 97.758 110.534 93.8418 105.961 89.0356C99.2708 92.6056 92.9608 96.7356 88.1208 102.736C84.9394 106.721 82.5006 111.247 80.9208 116.096C80.2008 118.286 79.9208 120.486 79.0508 122.446C82.7199 127.608 87.343 132.021 92.6708 135.446C100.808 122.551 110.662 110.823 121.961 100.586Z" fill="#F7941E"/>
<path d="M370.994 137.856C375.288 135.054 379.274 131.806 382.885 128.166C377.926 118.862 372.135 110.026 365.584 101.766C359.384 93.9957 352.964 86.9357 344.264 82.3257C340.484 84.9207 336.324 86.9143 331.934 88.2357C348.144 101.596 361.194 118.596 370.994 137.856Z" fill="#F7941E"/>
<path d="M84.4906 48.0958C84.0173 46.2558 83.5806 44.4125 83.1806 42.5658C82.1306 37.7058 81.5706 32.7858 80.6206 27.9158C79.2506 20.9158 74.6206 27.1458 72.9906 30.6158C68.9106 39.1258 68.4506 49.7258 67.4906 58.9458C67.3606 60.1558 67.2506 61.3758 67.1406 62.5858C71.485 56.2554 77.4874 51.2424 84.4906 48.0958Z" fill="#F7941E"/>
<path d="M367.672 98.2559C374.507 106.649 380.558 115.65 385.752 125.146C391.398 118.781 396.05 111.6 399.552 103.846C394.322 97.0259 389.952 89.7559 383.772 83.5459C377.252 76.9959 369.262 72.2759 362.592 66.0259C361.592 67.1559 360.512 68.2859 359.442 69.3759C355.756 73.2009 351.792 76.7473 347.582 79.9859C355.752 83.7259 362.202 91.5559 367.672 98.2559Z" fill="#F7941E"/>
<path d="M91.6826 68.2658C89.0629 62.6829 86.9186 56.889 85.2726 50.9458C77.3487 54.8616 70.8459 61.1546 66.6726 68.9458C66.192 76.1058 66.3527 83.2944 67.1526 90.4258C67.2926 91.6058 67.4626 92.7758 67.6626 93.9458C72.1826 82.9958 81.6326 73.5958 91.6826 68.2658Z" fill="#F7941E"/>
<path d="M103.483 86.3361C99.4663 81.7256 96.0027 76.6612 93.1628 71.2461C81.0728 77.9261 74.0728 87.7361 68.8828 99.7761C70.4634 106.466 73.0602 112.873 76.5828 118.776C77.3528 112.636 81.9828 105.396 84.9228 101.496C89.8028 94.9961 96.3728 90.0961 103.483 86.3361Z" fill="#F7941E"/>
<path d="M401.584 99.0958C402.157 97.6358 402.691 96.1592 403.184 94.6658C405.602 87.2599 407.241 79.6219 408.074 71.8758C403.966 66.0333 398.988 60.8534 393.314 56.5158C390.037 54.0349 386.562 51.8274 382.924 49.9158C381.104 48.9158 379.124 48.1658 377.254 47.2358C373.261 53.3698 368.801 59.187 363.914 64.6358C372.494 67.5458 380.244 74.6358 386.534 80.8158C391.764 85.9958 397.654 92.2958 401.584 99.0958Z" fill="#F7941E"/>
<path d="M396.602 26.3059C400.284 27.8321 403.836 29.6548 407.222 31.7559C406.392 24.1859 404.892 14.5959 399.692 10.0759C394.492 5.5559 392.952 14.8659 391.692 18.4059C390.922 20.4759 390.092 22.5159 389.242 24.5559C391.602 24.3159 395.582 25.8659 396.602 26.3059Z" fill="#F7941E"/>
<path d="M408.531 66.4159C409.14 56.7704 408.902 47.09 407.821 37.4859C400.611 32.3059 389.601 24.5859 388.101 27.4259C388.057 27.4951 387.989 27.5452 387.911 27.5659L387.701 28.0459C385.134 33.7422 382.191 39.2611 378.891 44.5659C385.351 46.2359 392.071 51.0959 396.661 54.6859C401.073 58.1066 405.058 62.0448 408.531 66.4159Z" fill="#F7941E"/>
<path d="M143.443 173.786C125.443 176.036 114.313 191.966 111.833 208.906C111.363 212.106 116.103 213.596 116.833 210.276C119.833 196.536 128.043 182.626 143.063 180.276C159.503 177.716 165.683 191.396 173.063 202.956C173.747 204.154 175.216 204.654 176.488 204.122C177.76 203.591 178.436 202.194 178.063 200.866C174.423 185.096 160.233 171.686 143.443 173.786Z" fill="#231F20"/>
<path d="M315.892 171.906C302.682 173.236 292.692 185.726 290.892 198.406C290.522 200.996 294.382 203.406 295.652 200.406C299.372 191.666 302.902 181.796 313.082 178.876C325.592 175.296 334.232 184.656 336.942 195.766C337.662 198.766 341.992 197.966 342.142 195.066C342.812 181.096 329.192 170.566 315.892 171.906Z" fill="#231F20"/>
<path fill-rule="evenodd" clip-rule="evenodd" d="M427.712 117.466C422.638 119.181 417.86 121.656 413.079 124.133C409.105 126.192 405.13 128.251 400.982 129.876C396.433 131.653 391.789 133.179 387.072 134.446L386.762 134.526C410.212 112.106 417.942 77.3759 415.762 45.1859C415.682 43.9559 415.592 42.7059 415.492 41.4659C415.929 41.0652 416.021 40.4116 415.712 39.9059C415.592 39.6859 415.452 39.4659 415.312 39.2559C414.662 31.3759 413.602 23.2559 410.942 15.9759C408.742 9.97586 403.942 0.365859 396.462 0.175859C389.793 0.00337233 387.63 7.28565 385.917 13.0514C385.545 14.3054 385.194 15.4876 384.822 16.5059C381.409 25.744 377 34.5828 371.672 42.8659C365.69 52.2414 358.561 60.8344 350.452 68.4459C342.722 75.6959 334.862 80.3359 325.172 83.0159C315.916 76.3255 305.832 70.8633 295.172 66.7659C237.372 44.5159 172.852 57.7659 127.092 96.0759C112.292 87.7359 102.072 76.0959 95.6122 59.9559C92.3536 51.3588 90.0074 42.4432 88.6122 33.3559C88.464 32.4813 88.3417 31.496 88.2121 30.4506C87.5457 25.0769 86.6827 18.1183 81.0822 16.4859C75.3322 14.8059 70.1922 21.2059 67.7122 25.4859C63.9403 32.0406 62.9044 39.7611 61.9151 47.1341L61.8222 47.8259C59.3022 66.0959 57.6222 85.0959 62.3722 103.096C66.3721 118.456 75.1522 132.536 88.5822 141.216C88.4025 141.201 88.2218 141.201 88.0422 141.216C64.6622 145.796 45.1722 133.836 26.5522 121.306C25.3455 120.491 24.1382 119.639 22.9236 118.783L22.9212 118.781L22.9207 118.78L22.9206 118.78C19.6671 116.486 16.3621 114.155 12.8822 112.386C10.1422 110.986 7.27215 110.596 4.88215 112.886C0.665374 116.923 0.878033 126.153 1.02497 132.53L1.02497 132.53C1.04948 133.594 1.07215 134.578 1.07215 135.446C0.832152 152.686 5.90215 169.996 22.1722 178.446C29.9131 182.381 38.5647 184.176 47.2322 183.646C55.1122 183.226 64.3022 181.556 71.8322 177.896C69.3988 184.176 67.1455 190.509 65.0722 196.896C58.0722 218.246 52.1622 240.586 52.0722 263.186C51.9978 263.384 51.9409 263.588 51.9022 263.796C50.5622 272.926 58.1222 277.886 66.4322 278.566C75.8658 279.306 85.612 278.835 95.2282 278.37H95.2289L95.2307 278.37L95.2326 278.37L95.2345 278.37L95.2366 278.37L95.2384 278.37L95.2404 278.369L95.2424 278.369L95.2443 278.369L95.2463 278.369L95.2481 278.369L95.2499 278.369L95.2519 278.369L95.2537 278.369L95.2556 278.369L95.2575 278.369L95.2596 278.369L95.2615 278.368L95.2634 278.368L95.2652 278.368C98.6231 278.206 101.965 278.044 105.272 277.936C102.95 284.963 98.9224 291.201 94.8822 297.458L94.8818 297.459C93.5811 299.474 92.279 301.49 91.0322 303.536C86.8912 310.353 83.3576 317.52 80.4722 324.956C79.9056 325.178 79.4133 325.556 79.0522 326.046C70.1322 337.726 61.4021 348.676 49.7522 357.826C43.9289 362.374 37.7223 366.409 31.2022 369.886C30.0561 370.506 28.8553 371.094 27.6429 371.687C22.9946 373.96 18.176 376.316 15.6222 380.956C9.22215 392.576 22.1722 397.956 31.4522 398.256C33.1392 398.313 34.8928 398.398 36.692 398.486C47.7654 399.024 60.5648 399.646 70.1822 394.356C70.3922 397.616 70.6822 400.876 71.0621 404.106C75.5621 441.616 93.3022 478.166 124.232 500.106V500.226C128.072 515.726 133.552 531.076 139.232 545.996C141.786 552.819 144.713 559.495 148.002 565.996C148.363 566.696 148.733 567.448 149.117 568.229L149.119 568.232C151.419 572.906 154.243 578.644 158.792 580.846C169.082 585.846 177.472 570.846 179.592 563.076C181.25 556.997 181.424 550.756 181.598 544.524C181.81 536.925 182.021 529.339 184.922 522.076C185.144 521.548 185.193 520.963 185.062 520.406C191.902 520.956 198.782 521.166 205.622 521.196C220.942 521.347 236.208 519.347 250.972 515.256C249.192 522.836 248.782 530.836 248.412 538.566L248.383 539.179C248.02 546.732 247.635 554.772 248.462 562.366C249.772 574.366 261.832 579.366 271.232 571.366C275.791 567.52 278.375 561.829 280.839 556.404C281.277 555.439 281.711 554.482 282.152 553.546C285.486 546.352 288.659 539.099 291.672 531.786C298.172 516.006 303.962 499.936 308.862 483.586C308.867 483.539 308.867 483.492 308.862 483.446C327.741 466.875 342.24 445.902 351.072 422.386C355.552 410.247 358.518 397.601 359.902 384.736C375.172 386.986 391.242 386.626 406.052 382.106C412.312 380.196 418.482 376.986 422.052 371.286C424.632 367.186 426.672 360.026 423.352 355.716C421.802 353.716 419.532 353.306 417.142 353.166C412.93 353.046 408.731 352.645 404.572 351.966C396.596 350.422 388.943 347.527 381.942 343.406C371.066 336.986 363.455 327.68 355.742 318.25L355.741 318.248L355.74 318.247C354.419 316.632 353.096 315.014 351.752 313.406C351.682 313.211 351.615 313.006 351.548 312.803C351.454 312.515 351.362 312.232 351.262 311.986C348.819 305.292 345.852 298.817 342.887 292.344C340.731 287.637 338.576 282.932 336.622 278.146L336.633 278.145C339.019 278.005 341.406 277.866 343.802 277.706C346.765 277.515 349.732 277.333 352.702 277.15C364.046 276.454 375.424 275.755 386.702 274.566C394.282 273.766 404.342 268.566 401.152 259.986C397.622 227.936 392.962 195.186 382.282 164.596C396.692 180.296 421.882 185.686 439.212 170.246C449.042 161.486 455.982 146.786 455.782 133.526C455.562 118.456 440.382 113.186 427.712 117.466ZM391.652 18.4059C391.865 17.825 392.084 17.0871 392.322 16.2797C393.539 12.1664 395.289 6.24738 399.652 10.0759C404.872 14.6559 406.352 24.1859 407.182 31.7559C403.796 29.6547 400.244 27.8321 396.562 26.3059C395.562 25.8659 391.562 24.3059 389.162 24.5559C390.072 22.5159 390.882 20.4759 391.652 18.4059ZM387.912 27.6159L387.702 28.0959C385.134 33.775 382.191 39.2772 378.892 44.5659C385.352 46.2359 392.072 51.0959 396.662 54.7359C401.074 58.1566 405.059 62.0948 408.532 66.4659C409.141 56.8203 408.904 47.1399 407.822 37.5359C400.612 32.3559 389.602 24.6359 388.102 27.4759C388.059 27.545 387.991 27.5951 387.912 27.6159ZM379.687 48.3852L379.687 48.3853L379.688 48.3855C380.774 48.8759 381.859 49.3652 382.892 49.9159C386.53 51.8275 390.005 54.0349 393.282 56.5159C398.967 60.8511 403.955 66.0311 408.072 71.8759C407.248 79.6141 405.619 87.2453 403.212 94.6459C402.712 96.1392 402.179 97.6159 401.612 99.0759C397.682 92.2959 391.792 85.9959 386.532 80.8159C380.242 74.6259 372.532 67.5459 363.912 64.6359C368.789 59.186 373.239 53.3688 377.222 47.2359C378.03 47.6378 378.859 48.0118 379.687 48.3852ZM362.592 66.0262C361.552 67.1561 360.512 68.286 359.442 69.3759C355.757 73.2009 351.792 76.7473 347.582 79.9859C355.752 83.7259 362.202 91.5559 367.672 98.2559C374.507 106.649 380.559 115.65 385.752 125.146C391.398 118.781 396.05 111.6 399.552 103.846C397.904 101.696 396.341 99.502 394.78 97.3103C391.388 92.5484 388.004 87.7986 383.772 83.5459C380.28 80.0537 376.366 77.0693 372.459 74.0903C369.072 71.5073 365.69 68.9283 362.592 66.0259L362.592 66.0262ZM344.262 82.3759C352.963 86.9859 359.383 94.0459 365.583 101.816C372.134 110.076 377.924 118.912 382.883 128.216C379.273 131.856 375.287 135.104 370.993 137.906C361.193 118.646 348.143 101.646 331.932 88.2859C336.326 86.949 340.485 84.9384 344.262 82.3259V82.3759ZM67.9335 54.517C67.7898 56.0081 67.648 57.4787 67.4921 58.9159C67.3779 59.9532 67.279 61.0446 67.1821 62.1155L67.1422 62.5559C71.4865 56.2255 77.4889 51.2125 84.4921 48.0659C84.0188 46.2325 83.5822 44.3892 83.1822 42.5359C82.5977 39.8308 82.1651 37.1072 81.7325 34.3839C81.3879 32.2144 81.0434 30.0452 80.6221 27.8859C79.2522 20.8459 74.6522 27.1159 72.9921 30.5859C69.5481 37.7694 68.712 46.4422 67.9335 54.517ZM67.1522 90.4059C66.3522 83.2745 66.1916 76.0859 66.6721 68.9259C70.8455 61.1346 77.3483 54.8416 85.2722 50.9259C86.9182 56.8691 89.0625 62.6629 91.6822 68.2459C81.6321 73.5759 72.1822 82.9759 67.6822 93.9059C67.4622 92.7559 67.2922 91.5859 67.1522 90.4059ZM93.1621 71.2459C81.0521 77.9259 74.0722 87.7759 68.8821 99.7759C70.4666 106.452 73.0633 112.846 76.5821 118.736C77.3521 112.596 81.9821 105.356 84.9221 101.456C89.8021 94.9959 96.3721 90.1159 103.482 86.3359C99.4656 81.7254 96.0021 76.661 93.1621 71.2459ZM79.0722 122.426C79.6181 121.226 79.9229 119.969 80.2348 118.682C80.4428 117.824 80.6541 116.952 80.9422 116.076C82.5272 111.233 84.9693 106.715 88.1522 102.736C92.9921 96.7359 99.3022 92.6059 105.992 89.0359C110.565 93.842 115.991 97.7583 121.992 100.586C110.695 110.814 100.841 122.532 92.7021 135.416C87.3717 131.995 82.7452 127.586 79.0722 122.426ZM8.79215 122.716C8.61215 124.526 8.47215 126.336 8.34215 128.146H8.32215C8.14215 130.646 8.07215 133.196 8.07215 135.736C8.66018 135.488 9.28537 135.339 9.92215 135.296C15.2673 135.009 20.2623 140.653 24.1711 145.07C25.1619 146.19 26.0829 147.231 26.9222 148.076C35.3922 156.596 44.3022 160.056 56.1622 161.276C65.8722 162.276 76.7822 161.706 82.6422 153.346C82.9861 152.594 83.3812 151.842 83.7763 151.09L83.7765 151.09C83.8372 150.975 83.8978 150.859 83.9583 150.744L84.0722 150.526C83.2965 150.13 82.7574 149.386 82.6222 148.526C68.7422 150.826 54.2322 145.876 42.0422 139.306C35.4257 135.739 29.1988 131.536 22.9755 127.337C21.8716 126.592 20.7679 125.847 19.6622 125.106C19.1714 124.777 18.3803 124.149 17.443 123.405L17.4429 123.405L17.4428 123.405L17.4426 123.405C14.7319 121.253 10.7988 118.131 9.37215 118.466C9.50235 118.436 9.32434 119.45 9.1283 120.567C8.99308 121.338 8.8493 122.157 8.79215 122.716ZM47.2122 176.776C38.9922 177.256 30.4522 175.646 23.3922 171.266C12.3922 164.426 8.81215 152.866 8.15215 140.886C10.7722 138.219 13.1388 138.236 15.2522 140.936C16.1255 141.736 16.9755 142.556 17.8022 143.396C18.7611 144.363 19.6907 145.359 20.6225 146.357L20.6295 146.365L20.6345 146.37L20.6376 146.373C20.9153 146.671 21.1932 146.969 21.4722 147.266C24.2208 150.341 27.167 153.234 30.2922 155.926C36.0222 160.616 42.5621 162.996 49.8222 164.166C58.8222 165.606 70.0822 166.496 78.3922 162.266C77.2922 164.706 76.2021 167.156 75.1721 169.626C71.4673 170.43 67.9404 171.595 64.429 172.755C58.8606 174.594 53.331 176.42 47.1922 176.776H47.2122ZM69.7232 386.311C69.7396 386.302 69.756 386.292 69.7724 386.283C69.7834 386.276 69.7944 386.269 69.8054 386.262C69.814 386.257 69.8226 386.252 69.8312 386.246H69.8112C69.5487 371.721 71.1893 357.225 74.6911 343.126C64.8113 355.496 51.7315 365.886 38.5918 373.496C36.9019 374.465 34.9847 375.325 33.0333 376.201C29.2687 377.89 25.3765 379.636 22.7421 382.336C14.5023 390.676 29.072 391.546 33.7419 391.546C35.9297 391.534 38.2297 391.607 40.5873 391.682C50.6006 391.999 61.6533 392.349 69.5612 386.416C69.6152 386.374 69.6692 386.343 69.7232 386.311ZM174.432 551.306C174.132 556.476 173.312 561.886 170.982 566.576C169.832 568.886 168.192 571.776 165.872 573.056C161.324 575.557 159.29 572.035 157.294 568.579L157.196 568.41L157.094 568.232C157.05 568.157 157.006 568.081 156.962 568.006C149.251 554.771 144.287 540.382 139.326 526.002C136.895 518.956 134.465 511.912 131.712 505.006C133.712 506.206 135.802 507.356 137.922 508.436C150.662 514.886 164.432 518.196 178.472 519.826C175.165 527.611 174.936 535.687 174.703 543.922C174.633 546.37 174.563 548.833 174.412 551.306H174.432ZM273.74 555.757L273.743 555.751C274 555.185 274.252 554.631 274.502 554.096C283.948 533.701 292.159 512.756 299.092 491.376C289.961 498.196 280.084 503.956 269.652 508.546C265.412 510.406 261.112 512.036 256.762 513.466C256.772 513.589 256.772 513.713 256.762 513.836C256.772 520.336 256.317 526.825 255.862 533.32C255.368 540.374 254.873 547.435 254.972 554.526C254.975 554.697 254.978 554.872 254.981 555.051C255.074 560.997 255.236 571.268 263.972 568.006C269.023 566.137 271.565 560.544 273.74 555.757ZM399.902 358.016C402.722 358.682 405.576 359.189 408.452 359.536C409.103 359.618 410.074 359.622 411.149 359.627C413.611 359.639 416.619 359.652 417.572 360.606C420.102 363.146 415.052 369.186 413.272 370.716C410.596 372.862 407.504 374.432 404.192 375.326C390.192 379.606 374.912 380.016 360.502 377.826C361.145 368.159 360.921 358.453 359.832 348.826C359.12 342.568 358.058 336.355 356.652 330.216C368.072 343.526 382.712 353.936 399.902 358.036V358.016ZM349.422 401.836C354.308 380.659 354.696 358.692 350.562 337.356V337.376C347.662 322.55 341.826 309.061 335.948 295.476L335.948 295.475L335.948 295.474C333.536 289.9 331.118 284.311 328.892 278.606C322.345 278.959 315.799 279.249 309.252 279.476C316.232 301.686 307.472 336.306 281.162 341.096C275.852 342.096 269.222 341.556 265.552 337.186C262.419 333.455 262.012 327.872 261.655 322.978C261.594 322.139 261.534 321.321 261.462 320.536C260.999 315.564 260.791 310.592 260.583 305.617V305.617V305.616V305.615V305.614C260.472 302.966 260.362 300.316 260.212 297.666C259.842 290.946 258.722 284.486 254.212 279.396C246.347 279.055 238.49 278.604 230.634 278.154C215.696 277.297 200.76 276.441 185.772 276.336C162.292 276.183 138.82 276.929 115.358 277.674H115.357H115.355H115.354H115.353L111.822 277.786C109.652 286.37 104.904 293.85 100.154 301.331C99.498 302.365 98.8417 303.399 98.1922 304.436C91.3686 315.326 86.1357 327.135 82.6522 339.506C75.9015 363.885 74.9121 389.499 79.7622 414.326C87.7022 455.116 113.802 493.886 154.642 507.326C176.412 514.496 201.852 515.136 224.522 512.926C244.329 510.91 263.472 504.669 280.662 494.626C315.402 474.506 340.285 440.927 349.422 401.836ZM282.492 299.836C282.622 303.126 287.441 303.956 288.341 300.626C290.091 294.146 289.341 286.426 286.791 279.956C291.898 279.916 297.011 279.833 302.131 279.706C302.158 279.895 302.198 280.082 302.251 280.266C305.95 291.097 305.691 302.888 301.521 313.546C299.345 319.247 295.898 324.377 291.441 328.546C287.441 332.096 278.792 337.596 273.112 334.606C268.111 331.969 267.923 324.453 267.777 318.627V318.625C267.745 317.38 267.716 316.212 267.642 315.186C267.424 312.158 267.314 309.119 267.203 306.081C267.101 303.269 266.999 300.458 266.812 297.656C266.382 291.266 265.292 284.826 261.872 279.656L263.622 279.726C269.282 279.896 274.952 279.966 280.622 279.976C281.321 282.878 281.862 285.815 282.242 288.776C282.488 291.067 282.473 293.332 282.457 295.601V295.601C282.447 297.015 282.438 298.431 282.492 299.856V299.836ZM368.858 268.792C376.37 268.613 391.941 268.24 394.172 263.266C393.639 259.592 393.117 255.911 392.593 252.226C386.923 212.283 381.187 171.885 361.512 135.996C351.142 117.096 337.522 101.186 320.932 89.1859C320.849 89.1755 320.767 89.1615 320.686 89.1477C320.533 89.1215 320.383 89.0959 320.232 89.0959C319.365 88.9653 318.674 88.3054 318.502 87.4459C306.613 79.2417 293.458 73.0428 279.562 69.0959C241.472 58.1659 199.712 61.6159 164.172 79.2559C131.552 95.4459 106.382 121.856 89.6922 154.016C81.0022 170.766 74.4921 188.496 68.7822 206.446C62.8422 225.196 58.4022 244.246 57.7822 263.936C57.8177 264.168 57.8177 264.404 57.7822 264.636C56.9268 272.702 67.1529 272.292 73.1958 272.05C73.7232 272.029 74.2187 272.009 74.6721 271.996C81.1848 271.807 87.6876 271.569 94.2002 271.331L94.3421 271.326L107.022 270.886C107.892 268.926 110.542 269.186 111.892 270.716L131.382 270.036C154.132 269.276 176.902 268.776 199.652 269.276C211.016 269.527 222.356 270.218 233.695 270.908L233.696 270.909C244.049 271.539 254.401 272.17 264.772 272.466C287.312 273.126 309.862 272.406 332.362 271.126C343.442 270.496 354.502 269.726 365.572 268.906C366.268 268.854 367.413 268.827 368.856 268.792L368.858 268.792ZM416.411 172.746C407.412 173.206 398.512 169.596 391.782 163.666C387.092 159.526 383.992 154.666 381.142 149.416C388.882 150.975 396.874 150.766 404.522 148.806C410.158 147.389 414.647 144.792 419.397 142.043C420.547 141.378 421.711 140.704 422.911 140.036C429.431 136.406 444.691 137.556 446.611 145.736C442.151 159.346 431.571 171.976 416.411 172.746ZM444.282 138.246C445.68 139.313 446.821 140.68 447.622 142.246C448.712 137.876 449.922 132.216 447.612 128.056C445.412 124.126 440.622 122.696 436.412 122.756C429.989 122.835 423.922 126.164 418.095 129.36C415.802 130.618 413.547 131.855 411.322 132.866C403.434 136.466 395.22 139.306 386.792 141.346C383.898 142.23 380.961 142.964 377.992 143.546L378.542 144.596C384.196 146.246 390.095 146.893 395.972 146.506C401.695 146.053 407.287 144.559 412.472 142.096C414.171 141.273 415.754 140.245 417.337 139.217C419.334 137.92 421.331 136.623 423.562 135.736C429.762 133.246 438.932 134.096 444.282 138.246Z" fill="#231F20"/>
</svg>
