<svg width="580" height="406" viewBox="0 0 580 406" fill="none" xmlns="http://www.w3.org/2000/svg">
<path d="M529.029 283.976C525.639 305.926 517.189 327.446 498.579 340.906C478.669 355.326 456.059 353.956 435.509 341.906C425.129 335.856 415.099 328.006 402.869 326.306C388.869 324.366 383.869 333.466 375.429 342.186C368.149 349.716 358.429 352.736 348.339 349.316C339.809 346.436 333.879 340.046 329.009 332.866C317.009 349.026 296.859 358.606 276.469 356.126C266.01 354.835 256.092 350.748 247.759 344.296C243.538 341.05 239.786 337.238 236.609 332.966C235.169 331.026 234.099 328.486 232.529 326.706C230.009 323.856 228.309 325.146 225.279 327.546C208.039 341.196 196.189 359.826 171.849 359.976C148.959 360.126 129.399 345.796 117.409 327.186C111.229 317.606 106.839 306.856 103.409 296.026C99.9791 285.196 96.1891 267.226 81.2891 268.626C80.0365 268.763 78.7802 268.404 77.7891 267.626C63.4391 274.796 47.0191 279.626 31.7891 273.326C46.8591 308.656 78.6991 334.326 112.479 351.826C194.229 394.146 291.189 398.956 380.859 386.526C403.569 383.386 426.159 379.116 448.469 373.806C470.779 368.496 493.179 361.746 513.179 350.096C530.499 340.006 545.889 325.956 555.539 308.226C562.939 294.626 565.019 280.166 565.219 265.386L565.079 265.566C556.199 277.006 543.159 284.226 529.029 283.976Z" fill="#F2B879"/>
<path d="M363.17 217.365C362.622 218.118 362.137 218.914 361.72 219.745C361.47 220.195 361.24 220.645 361 221.095C361.071 221.517 361.199 221.928 361.38 222.315C362.38 224.235 365.38 224.055 366.59 222.315C368.42 219.695 365.36 218.015 364.18 216.315C363.823 216.646 363.486 216.996 363.17 217.365Z" fill="white"/>
<path d="M141.279 176.586C143.169 174.086 140.459 171.296 137.979 170.926C135.789 170.606 133.789 171.606 131.809 172.696C131.822 173.061 131.876 173.423 131.969 173.776C132.869 177.156 138.869 179.856 141.279 176.586Z" fill="white"/>
<path fill-rule="evenodd" clip-rule="evenodd" d="M425.307 48.7457C440.937 54.9557 456.517 61.5357 470.997 70.1557C485.453 78.8821 498.397 89.895 509.327 102.766C520.007 115.146 530.447 129.226 536.327 144.616C549.097 178.036 531.457 211.996 503.727 231.616C480.372 248.144 453.308 252.873 426.121 257.623C416.117 259.372 406.096 261.123 396.237 263.466C391.387 264.626 392.657 271.726 397.387 271.956C433.367 273.676 474.047 266.466 505.137 247.546C530.257 232.256 550.997 206.346 554.647 176.626C556.497 182.756 558.147 188.956 559.577 195.186C563.507 212.186 566.727 231.456 560.027 248.186C554.607 261.746 540.437 273.696 525.127 270.616C520.627 269.706 517.307 272.516 516.837 276.926C514.557 298.426 506.727 321.406 487.127 332.926C478.337 338.056 467.977 340.396 457.977 337.926C449.962 335.958 442.891 331.513 435.916 327.127C433.779 325.783 431.651 324.445 429.507 323.186C414.457 314.356 393.927 307.706 378.597 319.706C376.216 321.568 374.062 324.327 371.862 327.143C368.156 331.887 364.321 336.797 359.057 337.876C347.56 340.241 339.818 327.267 334.798 318.854C334.617 318.552 334.44 318.255 334.267 317.966C332.007 314.166 325.717 313.716 323.577 317.966C313.627 337.736 290.987 348.786 269.467 341.786C259.065 338.34 250.213 331.336 244.467 322.006C239.767 314.536 233.717 308.586 224.407 312.876C216.516 316.505 210.41 322.697 204.366 328.826C195.306 338.013 186.385 347.06 171.797 347.126C147.477 347.236 130.287 327.476 121.077 306.946C119.223 302.811 117.611 298.005 115.943 293.035C110.307 276.236 104.04 257.56 85.697 256.596C84.6688 255.462 83.0347 255.104 81.627 255.706C80.2635 256.22 78.8723 256.759 77.4582 257.306L77.4564 257.307L77.4502 257.309L77.438 257.314L77.436 257.315C63.2051 262.825 46.6555 269.234 32.627 260.706C21.127 253.706 15.927 239.626 13.627 227.006C8.31702 197.906 15.927 165.856 28.537 139.586C56.447 81.4757 111.177 43.5457 172.097 26.2557C237.837 7.60569 311.137 8.18569 375.907 30.0857C392.577 35.7457 408.947 42.2457 425.307 48.7457ZM34.827 227.956C35.3985 227.954 35.9658 227.859 36.507 227.676C38.2179 227.653 39.8432 226.924 40.9969 225.66C42.1506 224.396 42.7298 222.712 42.597 221.006C42.177 215.676 35.397 213.236 31.537 216.816C27.827 220.226 29.067 227.896 34.827 227.956ZM470.507 295.956C470.954 293.282 472.85 291.077 475.427 290.236C477.277 289.745 479.251 290.201 480.697 291.456C483.486 292.127 485.549 294.483 485.847 297.336C486.012 298.921 485.573 300.51 484.617 301.786C484.453 302.39 484.207 302.968 483.887 303.506C482.159 306.179 478.726 307.173 475.837 305.836C475.11 305.537 474.435 305.125 473.837 304.616C473.484 304.415 473.15 304.184 472.837 303.926C471.146 302.442 470.216 300.273 470.307 298.026C470.29 297.949 470.271 297.872 470.252 297.795L470.251 297.791L470.251 297.789L470.25 297.787C470.216 297.648 470.183 297.51 470.157 297.376C470.029 296.882 470.14 296.356 470.457 295.956H470.507ZM316.977 42.3456C316.4 42.2734 315.831 42.5326 315.507 43.0156H315.417C314.347 44.6656 315.217 46.8555 316.647 48.1355C317.972 49.4922 319.974 49.9358 321.748 49.2655C325.118 47.8855 326.038 42.2457 322.118 40.8857C321.629 40.7221 321.111 40.6608 320.598 40.7057C319.51 40.5712 318.418 40.9099 317.597 41.6357C317.367 41.851 317.16 42.0889 316.977 42.3456ZM235.337 61.3857C235.749 61.2631 236.184 61.2391 236.607 61.3157C236.942 61.3106 237.276 61.334 237.607 61.3857C239.772 61.7234 241.483 63.3986 241.867 65.5557C242.116 68.0289 240.66 70.357 238.327 71.2157C237.746 71.451 237.124 71.5699 236.497 71.5657C233.437 71.8857 230.057 69.5657 230.227 66.1757C230.297 63.4357 232.797 61.5957 235.247 61.3857H235.337ZM159.666 96.0557C158.247 93.248 155.017 91.8648 152.007 92.7757H151.917C148.788 93.5943 146.902 96.7787 147.687 99.9158C148.017 101.098 148.676 102.163 149.587 102.986C149.694 103.284 149.835 103.569 150.007 103.836C151.767 106.556 155.106 106.826 157.596 104.926C160.252 102.802 161.108 99.1356 159.666 96.0557ZM123.467 163.126C125.108 161.075 127.343 159.583 129.867 158.856C134.677 156.575 140.257 156.575 145.067 158.856C155.947 163.936 159.067 178.546 150.067 186.966C140.777 195.606 123.947 189.866 120.517 178.166C118.884 172.99 119.959 167.341 123.377 163.126H123.467ZM94.007 166.326L94.627 165.476H94.537C95.927 163.576 95.667 160.556 94.627 158.626C93.4077 156.549 91.1799 155.274 88.772 155.274C86.3641 155.274 84.1364 156.549 82.917 158.626C81.787 160.556 81.517 163.576 82.917 165.476L83.537 166.326C84.0674 167.223 84.8177 167.969 85.717 168.496C87.6012 169.61 89.9429 169.61 91.827 168.496C92.7263 167.969 93.4766 167.223 94.007 166.326ZM84.867 108.406C86.571 107.676 88.5087 107.728 90.1716 108.547C91.8345 109.366 93.0565 110.87 93.517 112.666C93.9309 114.307 93.6327 116.046 92.6957 117.455C91.7588 118.864 90.2702 119.812 88.597 120.066C86.6175 120.62 84.4924 120.096 82.997 118.686C81.9619 117.631 81.4969 116.142 81.747 114.686C81.1104 112.111 82.4305 109.454 84.867 108.406ZM200.617 283.286C217.627 284.406 233.407 282.386 250.067 279.196H250.097C252.867 278.676 252.227 274.186 249.407 274.316C234.507 275.006 219.087 273.656 204.267 272.006C188.591 270.254 173.107 267.078 158.007 262.516C143.314 258.083 129.108 252.172 115.607 244.876C110.15 241.925 104.888 238.533 99.6222 235.139L99.622 235.139C91.861 230.137 84.0935 225.13 75.687 221.526C73.037 220.386 69.387 222.906 71.317 225.906C79.877 239.166 94.447 248.026 107.987 255.486C122.419 263.419 137.642 269.821 153.407 274.586C168.762 279.271 184.601 282.19 200.617 283.286ZM237.067 237.836C217.787 238.236 212.787 217.496 218.497 202.616C219.007 201.286 221.157 200.966 221.497 202.616C221.813 204.006 222.098 205.597 222.4 207.288L222.4 207.289L222.4 207.29L222.401 207.29L222.401 207.291C224.138 217.001 226.464 230.004 238.667 227.066C247.177 225.015 249.302 218.521 251.489 211.838C252.576 208.516 253.678 205.148 255.587 202.256C256.527 200.753 258.258 199.936 260.016 200.167C261.774 200.397 263.236 201.631 263.757 203.326C268.407 218.786 252.477 237.516 237.077 237.856L237.067 237.836ZM306.127 299.816C306.357 299.648 306.574 299.464 306.777 299.266H306.787C310.012 297.216 310.965 292.941 308.917 289.716C308.128 288.429 306.863 287.505 305.397 287.146C304.681 286.86 303.918 286.708 303.147 286.696C300.022 286.604 297.35 288.928 297.007 292.036C296.711 292.2 296.499 292.484 296.427 292.816C295.277 298.216 301.297 303.306 306.127 299.816ZM375.777 230.416C369.337 237.956 355.927 237.416 351.317 228.166C349.728 224.861 349.285 221.121 350.057 217.536C350.455 215.098 351.339 212.765 352.657 210.676C356.127 205.186 361.927 202.136 368.267 204.586C378.267 208.426 383.097 221.906 375.867 230.416H375.777ZM312.509 183.251C329.377 182.897 346.82 182.531 362.087 175.466H362.137C374.867 169.566 394.217 160.166 392.427 143.376C390.637 126.586 369.497 116.156 356.077 109.856C339.874 102.392 322.625 97.4511 304.927 95.2057C286.216 92.705 267.276 92.4163 248.497 94.3457C233.527 95.8357 217.777 98.6257 205.217 107.496C190.327 117.966 183.507 135.796 194.157 151.966C195.461 153.947 196.901 155.835 198.467 157.616C207.897 170.566 224.787 178.016 239.897 181.496C257.981 185.666 276.678 184.754 295.071 183.857C296.746 183.775 298.418 183.693 300.087 183.616C304.164 183.427 308.318 183.339 312.508 183.251H312.508H312.509H312.509H312.509ZM419.537 92.0757C419.398 91.6788 419.295 91.2706 419.227 90.8557C418.375 89.5423 418.299 87.8714 419.027 86.4857C419.081 86.3728 419.156 86.271 419.247 86.1857C419.607 84.8414 420.556 83.7323 421.828 83.1689C423.101 82.6055 424.56 82.6484 425.797 83.2857C429.927 85.1357 429.567 91.0757 425.617 92.9357C424.659 93.3862 423.576 93.4956 422.547 93.2457C422.309 93.3871 422.049 93.4853 421.777 93.5357C420.792 93.6355 419.874 93.0236 419.587 92.0757H419.537ZM420.841 235.89C421.584 237.685 423.335 238.856 425.277 238.856C427.906 238.813 430.029 236.695 430.077 234.066C430.081 232.123 428.914 230.37 427.121 229.624C425.328 228.878 423.261 229.286 421.886 230.658C420.512 232.03 420.099 234.095 420.841 235.89ZM434.549 154.406C433.644 157.756 430.227 159.768 426.858 158.936C424.307 158.346 421.087 155.646 421.767 152.776C421.715 151.65 422.004 150.534 422.597 149.576C424.316 146.7 427.982 145.668 430.948 147.226C431.787 147.716 432.494 148.402 433.008 149.226C434.43 150.546 435.02 152.534 434.549 154.416V154.406ZM497.027 174.006C500.424 174.91 503.974 173.215 505.407 170.006V170.016C506.028 168.386 505.973 166.576 505.254 164.988C504.535 163.399 503.211 162.164 501.577 161.556C500.759 161.271 499.885 161.186 499.027 161.306C498.088 160.692 496.938 160.493 495.847 160.756C493.027 161.526 491.807 164.826 492.027 167.456C492.184 170.461 494.17 173.062 497.027 174.006Z" fill="#E27683"/>
<path fill-rule="evenodd" clip-rule="evenodd" d="M304.937 95.2457C322.629 97.4794 339.875 102.406 356.077 109.856C369.497 116.116 390.577 126.516 392.387 143.376C394.197 160.236 374.857 169.606 362.097 175.506C346.877 182.571 329.43 182.937 312.537 183.291C308.342 183.379 304.181 183.467 300.097 183.656C298.418 183.734 296.736 183.816 295.052 183.898C276.646 184.795 257.983 185.704 239.907 181.536C224.797 178.056 207.897 170.606 198.477 157.656C196.911 155.875 195.471 153.987 194.167 152.006C183.517 135.836 190.337 118.036 205.227 107.536C217.787 98.6657 233.507 95.8757 248.507 94.3857C267.286 92.4563 286.226 92.745 304.937 95.2457ZM352.037 164.476C358.999 161.66 365.621 158.067 371.777 153.766V153.726C377.607 149.766 380.337 145.176 375.187 139.186C366.627 129.236 351.357 122.666 339.297 118.186C326.013 113.286 312.192 109.986 298.127 108.356C283.691 106.773 269.153 106.328 254.647 107.026C242.097 107.526 228.787 108.476 217.247 113.896C203.467 120.376 195.537 133.286 203.407 147.096C203.888 147.319 204.336 147.608 204.737 147.956C217.827 159.526 230.997 167.036 248.537 169.576C264.477 171.884 280.715 170.93 296.765 169.987C298.859 169.864 300.95 169.741 303.037 169.626C306.923 169.412 310.951 169.337 315.039 169.261C327.596 169.027 340.721 168.783 352.037 164.476Z" fill="#231F20"/>
<path d="M249.441 274.316C234.541 275.026 219.121 273.656 204.301 272.006C188.625 270.254 173.14 267.078 158.041 262.516C143.347 258.076 129.141 252.159 115.64 244.856C102.14 237.556 89.8301 227.556 75.7199 221.506C73.0699 220.366 69.4199 222.896 71.3499 225.886C79.91 239.146 94.4801 248.006 108.02 255.466C122.453 263.399 137.676 269.801 153.441 274.566C168.796 279.251 184.635 282.17 200.651 283.266C217.651 284.386 233.441 282.366 250.102 279.176C252.872 278.676 252.232 274.186 249.441 274.316Z" fill="#231F20"/>
<path fill-rule="evenodd" clip-rule="evenodd" d="M522.079 95.0456C517.079 89.3656 511.969 84.0456 506.879 79.2456C480.603 54.354 446.705 41.4414 413.43 28.7656C411.854 28.1655 410.28 27.5659 408.709 26.9656C370.709 12.4156 332.709 1.96561 291.869 0.355606C254.809 -1.13439 217.169 2.00561 181.099 10.7656C113.649 27.1556 51.3486 66.9956 19.6286 130.336C4.07861 161.376 -5.13138 199.856 3.04862 234.276C5.45862 244.416 9.87862 254.676 16.8486 262.546C27.0086 301.966 56.5186 332.216 90.3386 353.326C129.979 378.086 176.549 392.166 222.439 399.466C270.919 407.166 320.439 407.246 369.169 401.636C393.949 398.758 418.568 394.623 442.929 389.246C466.619 384.036 490.229 377.636 511.979 366.686C533.439 355.856 552.869 340.016 565.399 319.336C579.969 295.336 580.849 268.056 578.149 240.856C578.013 239.238 577.324 237.716 576.199 236.546C577.15 227.412 576.857 218.191 575.329 209.136C572.069 188.466 565.239 168.226 556.929 149.076C548.769 130.266 538.929 111.366 525.179 96.0756C524.439 95.1505 523.225 94.7469 522.079 95.0456ZM565.159 265.396C564.959 280.176 562.879 294.636 555.479 308.236C545.829 325.966 530.479 340.016 513.119 350.106C493.119 361.756 470.799 368.476 448.409 373.816C426.019 379.156 403.509 383.396 380.799 386.536C291.129 398.966 194.169 394.156 112.419 351.856C78.6386 334.366 46.7986 308.686 31.7286 273.356C46.9686 279.666 63.3886 274.826 77.7286 267.656C78.7197 268.434 79.9761 268.793 81.2286 268.656C94.6931 267.39 99.0689 281.91 102.333 292.741L102.333 292.742C102.681 293.896 103.016 295.009 103.349 296.056C106.799 306.926 111.169 317.636 117.349 327.216C129.349 345.826 148.899 360.156 171.789 360.006C190.058 359.893 201.29 349.37 213.047 338.355C216.954 334.695 220.919 330.98 225.219 327.576C228.219 325.176 229.949 323.886 232.469 326.736C233.359 327.745 234.089 328.999 234.816 330.249C235.371 331.204 235.925 332.156 236.549 332.996C239.726 337.268 243.478 341.08 247.699 344.326C256.031 350.778 265.949 354.865 276.409 356.156C296.799 358.636 316.929 349.056 328.949 332.896C333.819 340.076 339.749 346.466 348.279 349.346C358.379 352.766 368.089 349.746 375.369 342.216C376.769 340.767 378.075 339.308 379.344 337.89C385.712 330.777 391.135 324.718 402.809 326.336C412.505 327.678 420.799 332.867 428.969 337.98C431.146 339.342 433.315 340.699 435.499 341.976C456.049 353.976 478.659 355.356 498.569 340.976C517.179 327.516 525.629 305.976 529.019 284.046C543.149 284.296 556.189 277.046 565.019 265.646L565.159 265.396ZM426.177 257.612C453.373 252.862 480.451 248.132 503.769 231.606C531.499 211.986 549.139 178.026 536.409 144.616C530.529 129.226 520.089 115.146 509.409 102.766C498.468 89.888 485.509 78.8715 471.039 70.1456C456.559 61.5256 440.979 54.9456 425.349 48.7356C424.482 48.392 423.615 48.0483 422.748 47.7046C407.221 41.5477 391.737 35.408 375.949 30.0756C311.139 8.17561 237.879 7.59561 172.139 26.2456C111.219 43.5756 56.4886 81.4656 28.5786 139.576C15.9686 165.836 8.35861 197.896 13.6686 226.996C15.9586 239.616 21.1586 253.696 32.6686 260.696C46.7481 269.286 63.3554 262.816 77.6073 257.265C78.9846 256.728 80.3398 256.201 81.6686 255.696C83.0763 255.094 84.7104 255.452 85.7386 256.586C104.082 257.55 110.348 276.226 115.985 293.025C117.652 297.995 119.265 302.801 121.119 306.936C130.329 327.466 147.449 347.216 171.839 347.116C186.474 347.056 195.388 338.001 204.438 328.808C210.47 322.681 216.562 316.493 224.449 312.866C233.759 308.576 239.809 314.526 244.509 321.996C250.254 331.326 259.107 338.33 269.509 341.776C291.029 348.786 313.669 337.726 323.619 317.956C325.759 313.706 332.049 314.156 334.309 317.956C334.447 318.189 334.588 318.426 334.731 318.668C339.714 327.075 347.521 340.247 359.099 337.866C364.363 336.786 368.198 331.877 371.903 327.133C374.104 324.316 376.258 321.558 378.639 319.696C393.969 307.736 414.499 314.346 429.549 323.176C431.69 324.434 433.816 325.77 435.951 327.112C442.931 331.499 450.009 335.948 458.019 337.916C468.059 340.426 478.379 338.086 487.169 332.916C506.769 321.366 514.599 298.386 516.879 276.916C517.349 272.506 520.669 269.696 525.169 270.606C540.479 273.686 554.649 261.736 560.069 248.176C566.769 231.406 563.549 212.176 559.619 195.176C558.189 188.946 556.539 182.746 554.689 176.616C551.039 206.336 530.299 232.246 505.179 247.536C474.089 266.456 433.429 273.666 397.429 271.946C392.699 271.716 391.389 264.616 396.279 263.456C406.139 261.112 416.166 259.361 426.177 257.612Z" fill="#231F20"/>
<path fill-rule="evenodd" clip-rule="evenodd" d="M145.078 158.866C155.978 163.976 159.138 178.556 150.078 186.976C140.788 195.616 123.958 189.856 120.508 178.156C118.869 172.979 119.939 167.325 123.358 163.106C125.034 161.045 127.314 159.562 129.878 158.866C134.688 156.585 140.268 156.585 145.078 158.866ZM141.278 176.586C143.168 174.086 140.458 171.296 137.978 170.926C135.788 170.606 133.788 171.606 131.808 172.696C131.821 173.06 131.875 173.423 131.968 173.776C132.858 177.156 138.818 179.856 141.278 176.586Z" fill="#231F20"/>
<path d="M88.6787 155.275C86.2896 155.299 84.0865 156.569 82.8693 158.625C81.7394 160.555 81.4695 163.626 82.8693 165.476L83.4892 166.326C84.0196 167.222 84.7698 167.969 85.669 168.496C87.5529 169.61 89.8944 169.61 91.7783 168.496C92.6775 167.969 93.4277 167.222 93.9581 166.326L94.578 165.476C95.9678 163.576 95.7079 160.555 94.578 158.625C93.3444 156.542 91.0998 155.267 88.6787 155.275Z" fill="#231F20"/>
<path d="M255.63 202.256C249.88 210.966 251.45 223.996 238.71 227.066C224.38 230.516 223.71 211.986 221.54 202.616C221.17 200.966 219.02 201.286 218.54 202.616C212.83 217.496 217.83 238.236 237.11 237.836C252.51 237.516 268.44 218.786 263.83 203.326C263.317 201.615 261.848 200.365 260.077 200.134C258.306 199.903 256.564 200.734 255.63 202.256Z" fill="#231F20"/>
<path fill-rule="evenodd" clip-rule="evenodd" d="M352.708 210.675C356.178 205.185 361.978 202.135 368.318 204.585C378.268 208.425 383.098 221.905 375.828 230.415C369.368 237.955 355.978 237.405 351.368 228.165C349.78 224.86 349.336 221.12 350.108 217.535C350.506 215.097 351.39 212.765 352.708 210.675ZM361.378 222.285C362.368 224.235 365.348 224.055 366.588 222.285C367.969 220.309 366.567 218.867 365.283 217.548C364.866 217.119 364.461 216.703 364.168 216.285C363.815 216.616 363.481 216.966 363.168 217.335C362.621 218.088 362.136 218.884 361.718 219.715C361.552 220.015 361.394 220.315 361.236 220.615C361.157 220.765 361.078 220.915 360.998 221.065C361.069 221.487 361.197 221.898 361.378 222.285Z" fill="#231F20"/>
<path d="M425.28 229.275C422.63 229.275 420.48 231.424 420.48 234.075C420.48 236.726 422.63 238.875 425.28 238.875C427.931 238.875 430.08 236.726 430.08 234.075C430.048 231.438 427.918 229.308 425.28 229.275V229.275Z" fill="#231F20"/>
<path d="M430.949 147.235C427.983 145.678 424.317 146.71 422.598 149.585C422.005 150.544 421.716 151.66 421.768 152.786C421.088 155.656 424.308 158.356 426.859 158.946C430.228 159.778 433.645 157.766 434.55 154.416C435.021 152.534 434.43 150.545 433.009 149.225C432.493 148.406 431.786 147.723 430.949 147.235Z" fill="#231F20"/>
<path d="M422.599 93.2455C423.628 93.4954 424.711 93.3861 425.669 92.9355C429.619 91.0755 429.979 85.1355 425.849 83.2855C424.612 82.6483 423.153 82.6053 421.88 83.1687C420.608 83.7321 419.659 84.8412 419.299 86.1855C419.208 86.2709 419.133 86.3726 419.079 86.4855C418.351 87.8713 418.427 89.5421 419.279 90.8555C419.347 91.2704 419.451 91.6786 419.589 92.0755C419.879 93.0438 420.826 93.6611 421.829 93.5355C422.101 93.4851 422.361 93.3869 422.599 93.2455Z" fill="#231F20"/>
<path d="M149.497 102.986C149.604 103.284 149.745 103.569 149.917 103.836C151.677 106.556 155.017 106.836 157.507 104.926C160.163 102.802 161.019 99.1354 159.577 96.0556C158.158 93.2479 154.928 91.8646 151.917 92.7756C150.397 93.1493 149.088 94.1116 148.278 95.4507C147.468 96.7897 147.223 98.3959 147.597 99.9156C147.927 101.098 148.586 102.163 149.497 102.986Z" fill="#231F20"/>
<path d="M236.43 71.5658C237.057 71.5701 237.678 71.4512 238.26 71.2158C240.592 70.3572 242.048 68.029 241.8 65.5558C241.416 63.3988 239.704 61.7235 237.54 61.3858C237.209 61.3342 236.874 61.3108 236.54 61.3158C236.117 61.2392 235.682 61.2632 235.27 61.3858C232.82 61.5958 230.32 63.4358 230.18 66.1758C229.99 69.5558 233.37 71.8558 236.43 71.5658Z" fill="#231F20"/>
<path d="M321.619 49.2657C324.969 47.8757 325.909 42.2657 321.989 40.8857C321.5 40.7221 320.983 40.6608 320.469 40.7057C319.382 40.5712 318.29 40.9099 317.469 41.6357C317.239 41.851 317.032 42.0889 316.849 42.3457C316.272 42.2734 315.703 42.5326 315.379 43.0157C314.309 44.6657 315.179 46.8657 316.479 48.1357C317.811 49.5089 319.834 49.9537 321.619 49.2657Z" fill="#231F20"/>
<path d="M501.618 161.546C500.8 161.261 499.926 161.175 499.068 161.296C498.129 160.682 496.979 160.483 495.888 160.746C493.098 161.516 491.888 164.816 492.068 167.446C492.225 170.451 494.211 173.052 497.068 173.996C500.465 174.9 504.015 173.205 505.448 169.996C506.066 168.367 506.01 166.56 505.291 164.974C504.572 163.388 503.25 162.154 501.618 161.546Z" fill="#231F20"/>
<path d="M83.0302 118.685C84.5256 120.096 86.6507 120.619 88.6302 120.065C90.3034 119.812 91.7919 118.864 92.7289 117.455C93.6658 116.046 93.9641 114.306 93.5502 112.665C93.0913 110.862 91.8645 109.351 90.194 108.531C88.5235 107.711 86.5774 107.665 84.8702 108.405C82.4473 109.451 81.1299 112.09 81.7502 114.655C81.4976 116.127 81.9748 117.629 83.0302 118.685Z" fill="#231F20"/>
<path d="M31.5384 216.856C27.868 220.226 29.0681 227.856 34.8687 227.956C35.4402 227.954 36.0076 227.859 36.5489 227.676C38.26 227.653 39.8854 226.923 41.0392 225.66C42.1931 224.396 42.7723 222.712 42.6395 221.006C42.1795 215.676 35.3988 213.236 31.5384 216.856Z" fill="#231F20"/>
<path d="M305.411 287.176C304.694 286.89 303.932 286.738 303.161 286.726C300.035 286.634 297.363 288.958 297.02 292.066C296.723 292.23 296.512 292.515 296.44 292.846C295.29 298.216 301.31 303.306 306.141 299.846C306.371 299.678 306.588 299.495 306.791 299.296C310.001 297.251 310.957 292.998 308.931 289.776C308.148 288.478 306.882 287.543 305.411 287.176Z" fill="#231F20"/>
<path d="M470.238 298.026C470.147 300.273 471.077 302.442 472.768 303.926C473.08 304.184 473.415 304.415 473.768 304.616C474.366 305.125 475.041 305.536 475.768 305.836C478.657 307.173 482.089 306.179 483.818 303.506C484.138 302.968 484.384 302.389 484.548 301.786C485.503 300.51 485.943 298.921 485.778 297.336C485.48 294.482 483.417 292.127 480.628 291.456C479.182 290.201 477.208 289.744 475.358 290.236C472.781 291.077 470.885 293.281 470.438 295.956C470.096 296.343 469.959 296.87 470.068 297.376C470.128 297.586 470.188 297.856 470.238 298.026Z" fill="#231F20"/>
</svg>
