<svg width="580" height="406" viewBox="0 0 580 406" fill="none" xmlns="http://www.w3.org/2000/svg">
<path d="M529.236 284.216C525.846 306.166 517.396 327.686 498.786 341.146C478.876 355.566 456.266 354.196 435.716 342.146C425.336 336.096 415.306 328.246 403.076 326.546C389.076 324.606 384.076 333.706 375.636 342.426C368.356 349.956 358.636 352.976 348.546 349.556C340.016 346.676 334.086 340.286 329.216 333.106C317.216 349.266 297.066 358.846 276.676 356.366C266.217 355.075 256.299 350.988 247.966 344.536C243.746 341.291 239.993 337.478 236.816 333.206C235.376 331.266 234.306 328.726 232.736 326.946C230.216 324.096 228.516 325.386 225.486 327.786C208.246 341.436 196.396 360.066 172.056 360.216C149.166 360.366 129.606 346.036 117.616 327.426C111.436 317.846 107.046 307.096 103.616 296.266C100.186 285.436 96.3961 267.466 81.4961 268.866C80.2436 269.003 78.9872 268.644 77.9961 267.866C63.6461 275.036 47.2261 279.866 31.9961 273.566C47.0661 308.896 78.9061 334.566 112.686 352.066C194.436 394.386 291.396 399.196 381.066 386.766C403.776 383.626 426.366 379.356 448.676 374.046C470.986 368.736 493.386 361.986 513.386 350.336C530.706 340.246 546.096 326.196 555.746 308.466C563.146 294.866 565.226 280.406 565.426 265.626L565.286 265.806C556.406 277.246 543.366 284.466 529.236 284.216Z" fill="#F2B879"/>
<path d="M363.377 217.606C362.829 218.358 362.344 219.154 361.927 219.986C361.677 220.436 361.447 220.886 361.207 221.336C361.278 221.758 361.406 222.168 361.587 222.556C362.587 224.476 365.587 224.296 366.797 222.556C368.627 219.936 365.567 218.256 364.387 216.556C364.03 216.886 363.693 217.236 363.377 217.606Z" fill="white"/>
<path d="M141.486 176.826C143.376 174.326 140.666 171.536 138.186 171.166C135.996 170.846 133.996 171.846 132.016 172.936C132.029 173.301 132.083 173.663 132.176 174.016C133.076 177.396 139.076 180.096 141.486 176.826Z" fill="white"/>
<path fill-rule="evenodd" clip-rule="evenodd" d="M425.514 48.9859C441.144 55.1959 456.724 61.7759 471.204 70.3959C485.66 79.1223 498.604 90.1353 509.534 103.006C520.214 115.386 530.654 129.466 536.534 144.856C549.304 178.276 531.664 212.236 503.934 231.856C480.579 248.384 453.515 253.113 426.328 257.864C416.324 259.612 406.303 261.363 396.444 263.706C391.594 264.866 392.864 271.966 397.594 272.196C433.574 273.916 474.254 266.706 505.344 247.786C530.464 232.496 551.204 206.586 554.854 176.866C556.704 182.996 558.354 189.196 559.784 195.426C563.714 212.426 566.934 231.696 560.234 248.426C554.814 261.986 540.644 273.936 525.334 270.856C520.834 269.946 517.514 272.756 517.044 277.166C514.764 298.666 506.934 321.646 487.334 333.166C478.544 338.296 468.184 340.636 458.184 338.166C450.169 336.199 443.098 331.753 436.123 327.367C433.986 326.023 431.858 324.685 429.714 323.426C414.664 314.596 394.134 307.946 378.804 319.946C376.423 321.809 374.269 324.567 372.069 327.383C368.363 332.127 364.528 337.037 359.264 338.116C347.767 340.481 340.025 327.508 335.005 319.094C334.824 318.792 334.647 318.495 334.474 318.206C332.214 314.406 325.924 313.956 323.784 318.206C313.834 337.976 291.194 349.026 269.674 342.026C259.272 338.58 250.42 331.576 244.674 322.246C239.974 314.776 233.924 308.826 224.614 313.116C216.723 316.745 210.617 322.937 204.573 329.066C195.513 338.253 186.592 347.3 172.004 347.366C147.684 347.476 130.494 327.716 121.284 307.186C119.43 303.051 117.818 298.246 116.15 293.276C110.514 276.476 104.247 257.801 85.904 256.836C84.8759 255.702 83.2417 255.345 81.834 255.946C80.4705 256.46 79.0793 256.999 77.6652 257.546L77.6634 257.547L77.6572 257.549L77.645 257.554L77.6431 257.555C63.4121 263.065 46.8625 269.474 32.834 260.946C21.334 253.946 16.134 239.866 13.834 227.246C8.52405 198.146 16.134 166.096 28.744 139.826C56.654 81.7159 111.384 43.7859 172.304 26.4959C238.044 7.84592 311.344 8.42592 376.114 30.3259C392.784 35.9859 409.154 42.4859 425.514 48.9859ZM35.034 228.196C35.6055 228.194 36.1728 228.099 36.714 227.916C38.425 227.893 40.0502 227.164 41.204 225.9C42.3577 224.637 42.9369 222.952 42.804 221.246C42.384 215.916 35.604 213.476 31.744 217.056C28.034 220.466 29.274 228.136 35.034 228.196ZM470.714 296.196C471.161 293.522 473.057 291.318 475.634 290.476C477.484 289.985 479.458 290.442 480.904 291.696C483.693 292.367 485.757 294.723 486.054 297.576C486.219 299.161 485.78 300.75 484.824 302.026C484.66 302.63 484.414 303.208 484.094 303.746C482.366 306.419 478.933 307.413 476.044 306.076C475.317 305.777 474.643 305.365 474.044 304.856C473.691 304.656 473.357 304.425 473.044 304.166C471.353 302.682 470.423 300.514 470.514 298.266C470.497 298.189 470.478 298.112 470.459 298.035L470.458 298.031L470.458 298.029L470.457 298.027C470.423 297.888 470.39 297.75 470.364 297.616C470.236 297.122 470.347 296.596 470.664 296.196H470.714ZM317.184 42.5859C316.607 42.5137 316.038 42.7728 315.714 43.2559H315.624C314.554 44.9058 315.424 47.0958 316.854 48.3757C318.179 49.7325 320.181 50.1761 321.955 49.5057C325.325 48.1258 326.245 42.4859 322.325 41.1259C321.836 40.9623 321.318 40.9011 320.805 40.9459C319.717 40.8115 318.625 41.1501 317.804 41.8759C317.574 42.0912 317.367 42.3291 317.184 42.5859ZM235.544 61.6259C235.956 61.5033 236.391 61.4793 236.814 61.5559C237.149 61.5508 237.483 61.5743 237.814 61.6259C239.979 61.9636 241.69 63.6388 242.074 65.7959C242.323 68.2691 240.867 70.5973 238.534 71.4559C237.953 71.6912 237.331 71.8102 236.704 71.8059C233.644 72.1259 230.264 69.8059 230.434 66.4159C230.504 63.6759 233.004 61.8359 235.454 61.6259H235.544ZM159.873 96.296C158.454 93.4882 155.224 92.105 152.214 93.0159H152.124C148.995 93.8345 147.109 97.0189 147.894 100.156C148.224 101.338 148.883 102.403 149.794 103.226C149.901 103.524 150.042 103.809 150.214 104.076C151.974 106.796 155.313 107.066 157.803 105.166C160.459 103.043 161.315 99.3758 159.873 96.296ZM123.674 163.366C125.315 161.315 127.551 159.823 130.074 159.096C134.884 156.815 140.464 156.815 145.274 159.096C156.154 164.176 159.274 178.786 150.274 187.206C140.984 195.846 124.154 190.106 120.724 178.406C119.092 173.23 120.166 167.581 123.584 163.366H123.674ZM94.214 166.566L94.834 165.716H94.744C96.134 163.816 95.874 160.796 94.834 158.866C93.6147 156.79 91.3869 155.514 88.979 155.514C86.5712 155.514 84.3434 156.79 83.124 158.866C81.994 160.796 81.724 163.816 83.124 165.716L83.744 166.566C84.2745 167.463 85.0248 168.21 85.924 168.736C87.8082 169.851 90.1499 169.851 92.034 168.736C92.9333 168.21 93.6836 167.463 94.214 166.566ZM85.074 108.646C86.7781 107.916 88.7158 107.968 90.3786 108.787C92.0415 109.606 93.2635 111.11 93.724 112.906C94.138 114.547 93.8397 116.286 92.9027 117.695C91.9658 119.105 90.4773 120.053 88.804 120.306C86.8245 120.86 84.6995 120.336 83.204 118.926C82.1689 117.871 81.7039 116.383 81.954 114.926C81.3174 112.351 82.6376 109.694 85.074 108.646ZM200.824 283.526C217.834 284.646 233.614 282.626 250.274 279.436H250.304C253.074 278.916 252.434 274.426 249.614 274.556C234.714 275.246 219.294 273.896 204.474 272.246C188.798 270.495 173.314 267.318 158.214 262.756C143.521 258.323 129.315 252.413 115.814 245.116C110.357 242.165 105.095 238.773 99.8293 235.379L99.829 235.379C92.0681 230.377 84.3005 225.37 75.894 221.766C73.244 220.626 69.594 223.146 71.524 226.146C80.084 239.406 94.654 248.266 108.194 255.726C122.626 263.66 137.849 270.061 153.614 274.826C168.969 279.511 184.808 282.43 200.824 283.526ZM237.274 238.076C217.994 238.476 212.994 217.736 218.704 202.856C219.214 201.526 221.364 201.206 221.704 202.856C222.02 204.246 222.305 205.837 222.607 207.529L222.607 207.529L222.607 207.53L222.608 207.53L222.608 207.531C224.345 217.242 226.671 230.244 238.874 227.306C247.384 225.255 249.509 218.761 251.696 212.078C252.783 208.756 253.885 205.388 255.794 202.496C256.734 200.993 258.465 200.177 260.223 200.407C261.981 200.637 263.443 201.872 263.964 203.566C268.614 219.026 252.684 237.756 237.284 238.096L237.274 238.076ZM306.334 300.056C306.564 299.888 306.781 299.705 306.984 299.506H306.994C310.219 297.457 311.172 293.181 309.124 289.956C308.335 288.669 307.07 287.745 305.604 287.386C304.888 287.101 304.125 286.948 303.354 286.936C300.229 286.844 297.557 289.168 297.214 292.276C296.918 292.441 296.706 292.725 296.634 293.056C295.484 298.456 301.504 303.546 306.334 300.056ZM375.984 230.656C369.544 238.196 356.134 237.656 351.524 228.406C349.935 225.101 349.492 221.361 350.264 217.776C350.662 215.338 351.546 213.005 352.864 210.916C356.334 205.426 362.134 202.376 368.474 204.826C378.474 208.666 383.304 222.146 376.074 230.656H375.984ZM312.716 183.492C329.584 183.137 347.027 182.771 362.294 175.706H362.344C375.074 169.806 394.424 160.406 392.634 143.616C390.844 126.826 369.704 116.396 356.284 110.096C340.081 102.632 322.832 97.6913 305.134 95.4459C286.423 92.9452 267.483 92.6566 248.704 94.5859C233.734 96.0759 217.984 98.8659 205.424 107.736C190.534 118.206 183.714 136.036 194.364 152.206C195.668 154.187 197.108 156.075 198.674 157.856C208.104 170.806 224.994 178.256 240.104 181.736C258.188 185.906 276.885 184.994 295.278 184.097C296.953 184.015 298.625 183.934 300.294 183.856C304.371 183.667 308.525 183.58 312.715 183.492H312.715H312.716H312.716H312.716ZM419.744 92.3159C419.606 91.919 419.502 91.5108 419.434 91.0959C418.582 89.7825 418.506 88.1116 419.234 86.7259C419.288 86.613 419.363 86.5113 419.454 86.4259C419.814 85.0816 420.763 83.9725 422.035 83.4091C423.308 82.8457 424.767 82.8887 426.004 83.5259C430.134 85.3759 429.774 91.3159 425.824 93.1759C424.866 93.6265 423.783 93.7358 422.754 93.4859C422.517 93.6273 422.256 93.7255 421.984 93.7759C420.999 93.8758 420.081 93.2638 419.794 92.3159H419.744ZM421.048 236.13C421.791 237.925 423.542 239.096 425.484 239.096C428.113 239.053 430.236 236.935 430.284 234.306C430.288 232.364 429.121 230.61 427.328 229.864C425.535 229.118 423.468 229.526 422.094 230.898C420.719 232.27 420.306 234.336 421.048 236.13ZM434.756 154.646C433.851 157.996 430.434 160.009 427.065 159.176C424.514 158.586 421.294 155.886 421.974 153.016C421.922 151.89 422.211 150.775 422.804 149.816C424.523 146.94 428.189 145.909 431.155 147.466C431.994 147.956 432.701 148.642 433.215 149.466C434.637 150.786 435.227 152.775 434.756 154.656V154.646ZM497.234 174.246C500.631 175.15 504.181 173.455 505.614 170.246V170.256C506.235 168.627 506.18 166.817 505.461 165.228C504.742 163.64 503.418 162.404 501.784 161.796C500.966 161.512 500.092 161.426 499.234 161.546C498.295 160.932 497.145 160.733 496.054 160.996C493.234 161.766 492.014 165.066 492.234 167.696C492.391 170.701 494.377 173.302 497.234 174.246Z" fill="#E27683"/>
<path fill-rule="evenodd" clip-rule="evenodd" d="M305.144 95.4859C322.836 97.7196 340.082 102.647 356.284 110.096C369.704 116.356 390.784 126.756 392.594 143.616C394.404 160.476 375.064 169.846 362.304 175.746C347.084 182.811 329.637 183.177 312.744 183.532C308.549 183.62 304.388 183.707 300.304 183.896C298.625 183.974 296.943 184.056 295.259 184.138C276.853 185.035 258.19 185.944 240.114 181.776C225.004 178.296 208.104 170.846 198.684 157.896C197.118 156.115 195.678 154.227 194.374 152.246C183.724 136.076 190.544 118.276 205.434 107.776C217.994 98.9059 233.714 96.1159 248.714 94.6259C267.493 92.6965 286.433 92.9852 305.144 95.4859ZM352.244 164.716C359.206 161.9 365.828 158.307 371.984 154.006V153.966C377.814 150.006 380.544 145.416 375.394 139.426C366.834 129.476 351.564 122.906 339.504 118.426C326.22 113.526 312.399 110.226 298.334 108.596C283.898 107.013 269.36 106.568 254.854 107.266C242.304 107.766 228.994 108.716 217.454 114.136C203.674 120.616 195.744 133.526 203.614 147.336C204.095 147.559 204.543 147.849 204.944 148.196C218.034 159.766 231.204 167.276 248.744 169.816C264.684 172.125 280.922 171.17 296.972 170.227C299.066 170.104 301.157 169.981 303.244 169.866C307.13 169.652 311.158 169.577 315.246 169.501C327.803 169.268 340.928 169.023 352.244 164.716Z" fill="#231F20"/>
<path d="M249.649 274.556C234.748 275.266 219.328 273.896 204.508 272.246C188.832 270.495 173.348 267.318 158.248 262.756C143.554 258.316 129.348 252.399 115.847 245.096C102.347 237.796 90.0371 227.796 75.927 221.746C73.2769 220.606 69.6269 223.136 71.5569 226.126C80.117 239.386 94.6871 248.246 108.227 255.706C122.66 263.64 137.883 270.041 153.648 274.806C169.003 279.491 184.842 282.41 200.858 283.506C217.858 284.626 233.648 282.606 250.309 279.416C253.079 278.916 252.439 274.426 249.649 274.556Z" fill="#231F20"/>
<path fill-rule="evenodd" clip-rule="evenodd" d="M522.286 95.2858C517.286 89.6058 512.176 84.2858 507.086 79.4858C480.81 54.5943 446.912 41.6816 413.637 29.0058C412.061 28.4057 410.487 27.8061 408.916 27.2058C370.916 12.6558 332.916 2.20584 292.076 0.59584C255.016 -0.89416 217.376 2.24584 181.306 11.0058C113.856 27.3958 51.5556 67.2358 19.8356 130.576C4.28565 161.616 -4.92435 200.096 3.25565 234.516C5.66565 244.656 10.0856 254.916 17.0556 262.786C27.2156 302.206 56.7256 332.456 90.5456 353.566C130.186 378.326 176.756 392.406 222.646 399.706C271.126 407.406 320.646 407.486 369.376 401.876C394.156 398.999 418.775 394.863 443.136 389.486C466.826 384.276 490.436 377.876 512.186 366.926C533.646 356.096 553.076 340.256 565.606 319.576C580.176 295.576 581.056 268.296 578.356 241.096C578.22 239.478 577.531 237.956 576.406 236.786C577.357 227.652 577.065 218.431 575.536 209.376C572.276 188.706 565.446 168.466 557.136 149.316C548.976 130.506 539.136 111.606 525.386 96.3158C524.646 95.3907 523.432 94.9872 522.286 95.2858ZM565.366 265.636C565.166 280.416 563.086 294.876 555.686 308.476C546.036 326.206 530.686 340.256 513.326 350.346C493.326 361.996 471.006 368.716 448.616 374.056C426.226 379.396 403.716 383.636 381.006 386.776C291.336 399.206 194.376 394.396 112.626 352.096C78.8456 334.606 47.0056 308.926 31.9356 273.596C47.1756 279.906 63.5956 275.066 77.9356 267.896C78.9268 268.674 80.1831 269.033 81.4356 268.896C94.9002 267.631 99.2759 282.15 102.54 292.981L102.54 292.982C102.888 294.137 103.223 295.249 103.556 296.296C107.006 307.166 111.376 317.876 117.556 327.456C129.556 346.066 149.106 360.396 171.996 360.246C190.265 360.133 201.497 349.61 213.254 338.595C217.161 334.935 221.126 331.22 225.426 327.816C228.426 325.416 230.156 324.126 232.676 326.976C233.566 327.985 234.296 329.239 235.023 330.49C235.578 331.444 236.132 332.396 236.756 333.236C239.933 337.508 243.685 341.321 247.906 344.566C256.238 351.018 266.156 355.105 276.616 356.396C297.006 358.876 317.136 349.296 329.156 333.136C334.026 340.316 339.956 346.706 348.486 349.586C358.586 353.006 368.296 349.986 375.576 342.456C376.976 341.007 378.282 339.548 379.551 338.13C385.919 331.017 391.342 324.958 403.016 326.576C412.712 327.918 421.006 333.107 429.176 338.22C431.354 339.582 433.522 340.939 435.706 342.216C456.256 354.216 478.866 355.596 498.776 341.216C517.386 327.756 525.836 306.216 529.226 284.286C543.356 284.536 556.396 277.286 565.226 265.886L565.366 265.636ZM426.384 257.853C453.58 253.102 480.658 248.373 503.976 231.846C531.706 212.226 549.346 178.266 536.616 144.856C530.736 129.466 520.296 115.386 509.616 103.006C498.675 90.1283 485.716 79.1117 471.246 70.3858C456.766 61.7658 441.186 55.1858 425.556 48.9758C424.689 48.6322 423.822 48.2885 422.955 47.9448C407.428 41.7879 391.944 35.6482 376.156 30.3158C311.346 8.41584 238.086 7.83584 172.346 26.4858C111.426 43.8158 56.6956 81.7058 28.7856 139.816C16.1756 166.076 8.56565 198.136 13.8756 227.236C16.1656 239.856 21.3656 253.936 32.8756 260.936C46.9551 269.526 63.5624 263.057 77.8144 257.505C79.1916 256.969 80.5468 256.441 81.8756 255.936C83.2833 255.334 84.9175 255.692 85.9456 256.826C104.289 257.79 110.555 276.466 116.192 293.266C117.859 298.236 119.472 303.041 121.326 307.176C130.536 327.706 147.656 347.456 172.046 347.356C186.681 347.296 195.595 338.241 204.645 329.049C210.677 322.922 216.769 316.733 224.656 313.106C233.966 308.816 240.016 314.766 244.716 322.236C250.461 331.566 259.314 338.57 269.716 342.016C291.236 349.026 313.876 337.966 323.826 318.196C325.966 313.946 332.256 314.396 334.516 318.196C334.654 318.429 334.795 318.666 334.938 318.908C339.921 327.315 347.728 340.487 359.306 338.106C364.57 337.027 368.405 332.117 372.11 327.373C374.311 324.557 376.465 321.799 378.846 319.936C394.176 307.976 414.706 314.586 429.756 323.416C431.897 324.674 434.023 326.01 436.158 327.352C443.138 331.74 450.216 336.188 458.226 338.156C468.266 340.666 478.586 338.326 487.376 333.156C506.976 321.606 514.806 298.626 517.086 277.156C517.556 272.746 520.876 269.936 525.376 270.846C540.686 273.926 554.856 261.976 560.276 248.416C566.976 231.646 563.756 212.416 559.826 195.416C558.396 189.186 556.746 182.986 554.896 176.856C551.246 206.576 530.506 232.486 505.386 247.776C474.296 266.696 433.636 273.906 397.636 272.186C392.906 271.956 391.596 264.856 396.486 263.696C406.346 261.352 416.373 259.601 426.384 257.853Z" fill="#231F20"/>
<path fill-rule="evenodd" clip-rule="evenodd" d="M145.285 159.106C156.185 164.216 159.345 178.796 150.285 187.216C140.995 195.856 124.165 190.096 120.715 178.396C119.076 173.219 120.147 167.565 123.565 163.346C125.241 161.286 127.521 159.803 130.085 159.106C134.895 156.825 140.475 156.825 145.285 159.106ZM141.485 176.826C143.375 174.326 140.665 171.536 138.185 171.166C135.995 170.846 133.995 171.846 132.015 172.936C132.028 173.301 132.082 173.663 132.175 174.016C133.065 177.396 139.025 180.096 141.485 176.826Z" fill="#231F20"/>
<path d="M88.8857 155.516C86.4966 155.539 84.2935 156.81 83.0763 158.866C81.9465 160.796 81.6765 163.866 83.0763 165.716L83.6963 166.566C84.2266 167.463 84.9768 168.209 85.876 168.736C87.76 169.85 90.1014 169.85 91.9853 168.736C92.8845 168.209 93.6347 167.463 94.1651 166.566L94.785 165.716C96.1749 163.816 95.9149 160.796 94.785 158.866C93.5514 156.782 91.3069 155.507 88.8857 155.516Z" fill="#231F20"/>
<path d="M255.837 202.496C250.087 211.206 251.657 224.236 238.917 227.306C224.587 230.756 223.917 212.226 221.747 202.856C221.377 201.206 219.227 201.526 218.747 202.856C213.037 217.736 218.037 238.476 237.317 238.076C252.717 237.756 268.647 219.026 264.037 203.566C263.525 201.855 262.055 200.605 260.284 200.374C258.513 200.143 256.771 200.974 255.837 202.496Z" fill="#231F20"/>
<path fill-rule="evenodd" clip-rule="evenodd" d="M352.916 210.916C356.386 205.426 362.186 202.376 368.526 204.826C378.476 208.666 383.306 222.146 376.036 230.656C369.576 238.196 356.186 237.646 351.576 228.406C349.987 225.101 349.543 221.361 350.316 217.776C350.713 215.338 351.597 213.005 352.916 210.916ZM361.586 222.526C362.576 224.476 365.556 224.296 366.796 222.526C368.176 220.549 366.774 219.107 365.49 217.789C365.073 217.359 364.668 216.943 364.376 216.526C364.022 216.856 363.688 217.207 363.376 217.576C362.828 218.328 362.343 219.124 361.926 219.956C361.759 220.256 361.601 220.556 361.443 220.856C361.364 221.006 361.286 221.156 361.206 221.306C361.276 221.728 361.404 222.138 361.586 222.526Z" fill="#231F20"/>
<path d="M425.488 229.516C422.837 229.516 420.688 231.665 420.688 234.316C420.688 236.967 422.837 239.116 425.488 239.116C428.138 239.116 430.288 236.967 430.288 234.316C430.255 231.678 428.125 229.548 425.488 229.516V229.516Z" fill="#231F20"/>
<path d="M431.156 147.476C428.19 145.918 424.524 146.95 422.805 149.826C422.212 150.784 421.923 151.9 421.975 153.026C421.295 155.896 424.515 158.596 427.066 159.186C430.435 160.018 433.852 158.006 434.757 154.656C435.228 152.774 434.638 150.786 433.216 149.466C432.7 148.646 431.993 147.963 431.156 147.476Z" fill="#231F20"/>
<path d="M422.806 93.4858C423.835 93.7357 424.918 93.6263 425.876 93.1758C429.826 91.3158 430.186 85.3758 426.056 83.5258C424.819 82.8885 423.36 82.8456 422.087 83.409C420.815 83.9723 419.866 85.0815 419.506 86.4258C419.415 86.5111 419.34 86.6129 419.286 86.7258C418.558 88.1115 418.634 89.7823 419.486 91.0958C419.554 91.5106 419.658 91.9189 419.796 92.3158C420.086 93.2841 421.033 93.9013 422.036 93.7758C422.308 93.7253 422.569 93.6271 422.806 93.4858Z" fill="#231F20"/>
<path d="M149.704 103.226C149.812 103.524 149.952 103.809 150.124 104.076C151.884 106.796 155.224 107.076 157.714 105.166C160.37 103.042 161.226 99.3756 159.784 96.2958C158.365 93.4881 155.135 92.1049 152.124 93.0158C150.604 93.3895 149.295 94.3518 148.485 95.6909C147.675 97.03 147.43 98.6361 147.804 100.156C148.134 101.338 148.793 102.403 149.704 103.226Z" fill="#231F20"/>
<path d="M236.637 71.8061C237.264 71.8103 237.885 71.6914 238.467 71.4561C240.799 70.5974 242.255 68.2693 242.007 65.7961C241.623 63.639 239.911 61.9638 237.747 61.6261C237.416 61.5744 237.081 61.551 236.747 61.5561C236.324 61.4795 235.889 61.5034 235.477 61.6261C233.027 61.8361 230.527 63.6761 230.387 66.4161C230.197 69.7961 233.577 72.0961 236.637 71.8061Z" fill="#231F20"/>
<path d="M321.826 49.5059C325.176 48.1159 326.116 42.5059 322.196 41.1259C321.707 40.9623 321.19 40.901 320.676 40.9459C319.589 40.8114 318.497 41.1501 317.676 41.8759C317.446 42.0912 317.239 42.3291 317.056 42.5859C316.479 42.5137 315.91 42.7729 315.586 43.2559C314.516 44.9059 315.386 47.1059 316.686 48.3759C318.018 49.7492 320.041 50.194 321.826 49.5059Z" fill="#231F20"/>
<path d="M501.825 161.786C501.007 161.501 500.133 161.416 499.275 161.536C498.336 160.922 497.186 160.723 496.095 160.986C493.305 161.756 492.095 165.056 492.275 167.686C492.433 170.691 494.418 173.292 497.275 174.236C500.672 175.14 504.222 173.445 505.655 170.236C506.274 168.608 506.217 166.8 505.498 165.214C504.779 163.628 503.457 162.394 501.825 161.786Z" fill="#231F20"/>
<path d="M83.2372 118.926C84.7326 120.336 86.8577 120.86 88.8372 120.306C90.5104 120.052 91.9989 119.104 92.9359 117.695C93.8728 116.286 94.1711 114.547 93.7572 112.906C93.2983 111.102 92.0715 109.591 90.401 108.771C88.7305 107.951 86.7845 107.905 85.0772 108.646C82.6543 109.692 81.3369 112.331 81.9572 114.896C81.7046 116.367 82.1818 117.87 83.2372 118.926Z" fill="#231F20"/>
<path d="M31.7454 217.096C28.075 220.466 29.2752 228.096 35.0757 228.196C35.6472 228.194 36.2147 228.099 36.7559 227.916C38.467 227.893 40.0924 227.164 41.2463 225.9C42.4001 224.637 42.9794 222.952 42.8465 221.246C42.3865 215.916 35.6058 213.476 31.7454 217.096Z" fill="#231F20"/>
<path d="M305.618 287.416C304.901 287.131 304.139 286.978 303.368 286.966C300.242 286.874 297.57 289.198 297.227 292.306C296.931 292.471 296.719 292.755 296.647 293.086C295.497 298.456 301.517 303.546 306.348 300.086C306.578 299.919 306.795 299.735 306.998 299.536C310.208 297.491 311.164 293.238 309.138 290.016C308.355 288.718 307.089 287.783 305.618 287.416Z" fill="#231F20"/>
<path d="M470.445 298.266C470.354 300.514 471.284 302.682 472.975 304.166C473.287 304.425 473.622 304.655 473.975 304.856C474.573 305.365 475.248 305.777 475.975 306.076C478.864 307.413 482.296 306.419 484.025 303.746C484.345 303.208 484.591 302.63 484.755 302.026C485.71 300.75 486.15 299.161 485.985 297.576C485.687 294.723 483.624 292.367 480.835 291.696C479.389 290.441 477.415 289.985 475.565 290.476C472.988 291.318 471.092 293.522 470.645 296.196C470.303 296.584 470.166 297.111 470.275 297.616C470.335 297.826 470.395 298.096 470.445 298.266Z" fill="#231F20"/>
</svg>
