<svg width="523" height="567" viewBox="0 0 523 567" fill="none" xmlns="http://www.w3.org/2000/svg">
<path d="M303.015 192.825C287.475 181.495 263.215 193.325 262.215 212.435C260.925 237.225 286.695 249.655 307.075 253.885L307.295 253.955C308.235 252.185 309.155 250.415 310.005 248.625C318.405 231.185 320.715 205.735 303.015 192.825Z" fill="#BE1E2D"/>
<path d="M58.0781 435.905C37.4081 463.565 24.8781 494.515 18.0781 527.385C19.3515 525.105 20.6481 522.842 21.9681 520.595C26.9681 503.315 34.5381 486.595 45.2981 472.595C59.7981 453.665 79.5281 439.595 99.8081 427.515C144.498 400.795 190.978 376.945 236.348 351.435C275.728 329.295 318.888 302.705 336.568 258.845C345.668 236.305 346.718 209.795 332.268 189.245C317.268 167.925 291.648 163.715 267.338 169.125C240.448 175.125 234.108 210.705 240.338 233.515C246.748 256.935 266.448 273.705 289.698 279.175C294.108 274.305 298.105 269.077 301.648 263.545C279.068 258.255 255.928 244.815 252.098 219.905C248.928 199.325 263.758 181.035 284.098 178.135C302.878 175.455 318.228 188.425 324.378 205.385C332.118 226.725 323.518 249.175 311.718 267.185C305.328 276.935 298.208 286.885 289.548 294.735C280.688 302.735 270.048 307.735 259.238 312.555C233.518 324.035 207.928 335.882 182.468 348.095C135.668 370.525 89.8781 393.385 58.0781 435.905Z" fill="#FFF200"/>
<path d="M269.705 338.775C246.705 353.545 222.415 366.255 198.545 379.505C171.615 394.445 144.605 409.265 117.755 424.355C95.4245 436.905 72.9145 450.405 55.6945 469.705C49.0333 477.295 43.463 485.776 39.1445 494.905C44.1521 488.25 49.4922 481.852 55.1445 475.735C78.4845 450.575 107.145 432.735 138.555 419.475C167.365 407.305 197.435 398.475 226.635 387.345C256.875 375.815 286.295 361.585 312.835 342.945C337.195 325.835 360.385 304.225 372.455 276.465C385.865 245.645 382.805 208.635 373.895 176.965C370.075 163.415 364.055 149.725 352.955 140.565C340.735 130.485 323.745 128.245 308.435 128.185C277.745 128.055 246.605 139.545 225.035 161.725C204.385 182.965 192.535 214.015 197.245 243.655C201.762 271.341 219.058 295.281 243.925 308.265C251.415 304.845 258.865 301.335 266.175 297.605C273.581 293.738 280.347 288.753 286.235 282.825C262.672 277.588 243.612 260.325 236.075 237.395C228.975 215.165 232.965 182.055 254.515 168.625C264.335 162.505 277.225 162.055 288.455 161.875C299.685 161.695 310.265 163.745 319.795 169.665C338.155 181.065 348.585 201.895 349.445 223.145C351.485 274.215 309.075 313.465 269.705 338.775Z" fill="#EF4136"/>
<path d="M174.246 340.325C166.432 336.888 159.029 332.585 152.176 327.495C122.526 305.265 103.726 270.185 98.2358 233.845C92.4658 195.675 102.236 157.265 122.836 124.845C144.326 91.0149 176.386 64.0549 212.766 47.4449C234.356 37.5849 257.306 31.7149 281.166 32.8349C305.726 33.9849 329.696 41.0949 352.446 50.0949C393.716 66.3449 428.756 91.8149 450.956 130.815C471.436 166.735 480.076 209.095 477.866 250.275C475.426 295.375 460.466 340.075 432.626 375.895C419.286 393.075 402.956 408.165 383.856 418.725C362.156 430.725 337.616 437.545 313.986 444.615C263.13 459.759 211.331 471.531 158.926 479.855C129.516 484.575 98.7358 489.565 72.9258 504.085C105.626 492.705 141.066 488.965 175.486 488.215C232.686 486.965 292.566 494.885 348.416 479.105C442.226 452.595 503.416 355.335 509.936 261.565C513.276 213.335 502.866 164.565 476.936 123.515C450.076 80.8349 409.016 41.0949 361.276 22.9249C272.276 -10.8551 168.126 34.2449 115.276 109.195C87.0758 149.095 70.7058 200.095 78.4458 249.095C85.6558 294.665 117.036 334.655 162.566 346.035C166.446 344.075 170.339 342.172 174.246 340.325Z" fill="#EF4136"/>
<path d="M338.335 398.275C370.935 381.995 397.975 355.645 415.905 323.995C453.665 257.305 442.775 173.885 391.845 117.095C364.205 86.2549 324.945 61.4749 282.155 68.3449C243.235 74.5849 201.895 89.7649 173.765 118.285C120.655 172.095 112.075 309.485 207.015 324.305C207.252 324.347 207.486 324.407 207.715 324.485C216.325 320.555 225.025 316.745 233.715 312.885C208.565 298.685 191.385 272.785 187.265 243.885C182.435 210.135 196.195 175.175 220.575 151.785C243.325 129.945 274.575 118.485 305.845 117.575C321.235 117.125 337.525 118.895 351.305 126.205C364.455 133.205 373.515 145.345 379.305 158.775C392.045 188.155 396.055 225.315 390.205 256.695C384.205 288.985 363.765 315.975 339.205 336.885C312.605 359.555 281.665 376.615 249.615 390.245C218.075 403.665 185.115 413.145 153.215 425.595C120.565 438.355 90.2145 455.275 65.7045 480.725C59.8341 486.874 54.3058 493.34 49.1445 500.095C92.2045 459.345 148.755 434.045 208.485 425.535C252.075 419.335 298.155 418.345 338.335 398.275Z" fill="#BE1E2D"/>
<path d="M310.758 438.805C333.888 431.925 357.928 425.385 379.268 413.885C399.588 402.885 416.748 386.755 430.428 368.265C456.988 332.365 470.748 287.805 471.918 243.365C472.988 203.015 463.298 161.875 441.918 127.365C417.758 88.365 379.678 65.135 337.058 50.365C314.268 42.485 290.208 36.905 265.948 38.505C242.198 40.165 219.188 49.095 198.608 60.765C164.508 80.095 135.358 109.035 117.978 144.365C100.858 179.165 96.978 218.745 108.688 255.855C119.918 291.445 144.508 322.145 178.618 337.985L178.818 338.105C183.858 335.698 188.908 333.298 193.968 330.905C153.968 322.045 129.088 280.905 124.878 241.655C119.758 193.845 135.578 138.525 171.758 105.725C202.168 78.145 244.978 61.945 285.308 56.725C328.138 51.095 368.078 75.255 396.638 105.485C451.288 163.365 466.218 249.845 430.268 321.365C413.118 355.485 385.748 384.785 352.498 403.665C312.498 426.405 266.498 429.565 221.818 435.185C178.318 440.645 136.998 452.375 99.438 475.475C86.9745 483.14 75.1764 491.837 64.168 501.475C89.388 484.925 121.898 479.295 151.168 474.545C205.078 465.785 258.368 454.385 310.758 438.805Z" fill="#FFF200"/>
<path fill-rule="evenodd" clip-rule="evenodd" d="M43.7064 439.195C30.9855 457.997 21.0588 478.544 14.2364 500.195C9.99638 510.495 7.23638 521.735 4.82638 531.995C3.03122 539.667 1.75169 547.452 0.996385 555.295C0.606385 559.465 0.766385 564.175 4.93638 565.775C6.25548 566.685 7.90502 566.977 9.45638 566.575C11.2826 566.497 12.7674 565.076 12.9264 563.255C17.4707 555.436 22.4589 547.884 27.8664 540.635C66.3564 511.345 116.486 501.885 164.186 499.945C183.655 499.155 203.35 499.56 223.089 499.967H223.09H223.09H223.09H223.091H223.091C264.813 500.825 306.729 501.688 347.106 491.275C444.856 466.095 509.906 368.705 520.476 272.035C525.876 222.625 517.256 171.305 492.836 127.745C467.266 82.095 425.696 39.955 378.016 17.685C287.836 -24.435 178.216 14.505 117.426 88.545C86.4764 126.255 66.3164 173.865 65.8464 223.095C65.3764 271.535 87.2264 320.685 130.846 344.785C136.707 348.035 142.891 350.666 149.296 352.635C144.196 355.235 139.106 357.875 134.066 360.575C97.9364 379.875 66.7464 405.025 43.7064 439.195ZM349.436 223.195C348.576 201.945 338.146 181.115 319.786 169.715C310.256 163.795 299.556 161.715 288.446 161.925C277.336 162.135 264.326 162.555 254.506 168.675C232.956 182.095 228.966 215.165 236.076 237.395C243.616 260.328 262.681 277.591 286.246 282.825C280.358 288.753 273.592 293.738 266.186 297.605C258.876 301.335 251.426 304.845 243.936 308.265C219.07 295.281 201.774 271.341 197.256 243.655C192.546 214.015 204.396 182.965 225.046 161.725C246.616 139.545 277.756 128.055 308.446 128.185C323.756 128.245 340.746 130.485 352.966 140.565C364.066 149.725 370.086 163.415 373.906 176.965C382.816 208.635 385.906 245.645 372.466 276.465C360.396 304.225 337.206 325.835 312.846 342.945C286.306 361.585 256.846 375.815 226.646 387.345C214.659 391.918 202.526 396.107 190.393 400.296L190.391 400.296L190.39 400.296L190.39 400.297L190.39 400.297L190.39 400.297L190.389 400.297C172.968 406.311 155.548 412.325 138.566 419.475C107.106 432.765 78.4964 450.575 55.1564 475.735C49.504 481.852 44.1639 488.25 39.1564 494.905C43.4748 485.776 49.0451 477.295 55.7064 469.705C72.9264 450.405 95.4364 436.905 117.766 424.355C136.18 414.006 154.669 403.784 173.156 393.564C181.626 388.881 190.095 384.199 198.556 379.505C203.684 376.659 208.833 373.835 213.984 371.01L213.985 371.01C232.811 360.685 251.673 350.34 269.716 338.775C309.076 313.465 351.486 274.215 349.436 223.145V223.195ZM153.236 425.645C120.586 438.405 90.2064 455.325 65.7264 480.775C59.8506 486.907 54.3156 493.357 49.1464 500.095C92.2064 459.355 148.756 434.095 208.506 425.635C218.004 424.282 227.618 423.178 237.262 422.069L237.264 422.069L237.265 422.069L237.266 422.069H237.267C271.903 418.088 306.928 414.063 338.356 398.365C370.926 382.085 397.996 355.735 415.926 324.085C453.686 257.395 442.796 173.975 391.866 117.165C364.226 86.325 324.966 61.545 282.176 68.415C243.256 74.655 201.916 89.835 173.786 118.355C120.676 172.155 112.096 309.535 207.036 324.355C207.274 324.397 207.508 324.457 207.736 324.535C213.646 321.847 219.583 319.215 225.516 316.585C228.258 315.37 230.999 314.155 233.736 312.935C208.586 298.685 191.406 272.785 187.286 243.935C182.456 210.185 196.216 175.225 220.596 151.835C243.346 129.995 274.596 118.535 305.866 117.625C321.256 117.175 337.546 118.945 351.326 126.255C364.436 133.225 373.496 145.395 379.326 158.825C392.066 188.205 396.076 225.365 390.226 256.745C384.226 289.035 363.776 316.025 339.226 336.935C312.636 359.605 281.686 376.665 249.636 390.295C231.644 397.95 213.19 404.324 194.734 410.698C180.837 415.497 166.939 420.297 153.236 425.645ZM99.4364 475.475C136.996 452.375 178.316 440.645 221.816 435.185C226.902 434.546 232.004 433.938 237.111 433.331L237.111 433.33L237.112 433.33L237.113 433.33C276.907 428.593 317.011 423.818 352.496 403.665C385.746 384.785 413.116 355.485 430.266 321.365C466.216 249.845 451.266 163.365 396.636 105.485C368.076 75.255 328.136 51.095 285.306 56.695C244.976 61.945 202.166 78.145 171.756 105.695C135.576 138.495 119.756 193.815 124.876 241.625C129.086 280.885 153.996 322.015 193.966 330.875C188.92 333.262 183.87 335.662 178.816 338.075L178.616 337.955C144.506 322.115 119.916 291.415 108.686 255.825C96.9764 218.715 100.856 179.135 117.976 144.335C135.356 109.005 164.506 80.065 198.606 60.735C219.186 49.095 242.196 40.165 265.976 38.585C290.236 36.985 314.296 42.585 337.086 50.445C379.706 65.175 417.786 88.385 441.946 127.445C463.296 161.915 472.946 203.055 471.946 243.445C470.776 287.885 457.016 332.445 430.456 368.345C416.776 386.835 399.616 403.005 379.296 413.965C360.224 424.243 338.994 430.527 318.185 436.687L318.177 436.689C315.706 437.421 313.241 438.151 310.786 438.885C258.396 454.465 205.126 465.885 151.206 474.625C121.926 479.375 89.4164 485.005 64.2064 501.555C75.199 491.891 86.9838 483.167 99.4364 475.475ZM115.236 109.195C87.0764 149.095 70.7064 200.095 78.4464 249.095C85.6564 294.615 117.076 334.605 162.566 345.995C166.453 344.095 170.346 342.208 174.246 340.335C166.432 336.899 159.029 332.595 152.176 327.505C122.526 305.275 103.726 270.195 98.2364 233.855C92.4664 195.675 102.256 157.265 122.836 124.855C144.326 91.025 176.386 64.065 212.766 47.455C234.356 37.595 257.306 31.725 281.166 32.845C305.726 33.985 329.696 41.095 352.516 50.065C393.786 66.315 428.826 91.785 451.026 130.785C471.506 166.735 480.166 209.115 477.936 250.275C475.496 295.375 460.536 340.075 432.696 375.895C419.356 393.075 403.026 408.165 383.926 418.725C363.953 429.77 341.573 436.427 319.711 442.93L319.699 442.933C317.814 443.494 315.932 444.054 314.056 444.615C263.201 459.759 211.402 471.531 158.996 479.855C129.546 484.575 98.7664 489.565 72.9964 504.085C105.696 492.705 141.136 488.965 175.556 488.215C191.482 487.867 207.615 488.23 223.811 488.594H223.811H223.812C265.788 489.538 308.186 490.491 348.486 479.105C442.296 452.565 503.516 355.335 510.006 261.565C513.316 213.335 502.906 164.615 477.006 123.515C450.076 80.835 409.016 41.095 361.236 22.925C272.236 -10.805 168.126 34.245 115.236 109.195ZM182.446 348.155C207.92 335.955 233.543 324.095 259.316 312.575C270.126 307.745 280.766 302.785 289.626 294.755C298.286 286.905 305.406 276.955 311.796 267.205C323.596 249.205 332.196 226.745 324.456 205.405C318.306 188.405 302.956 175.475 284.176 178.155C263.796 181.055 248.966 199.345 252.176 219.925C256.006 244.835 279.176 258.275 301.726 263.565C298.183 269.097 294.186 274.325 289.776 279.195C266.526 273.725 246.826 256.955 240.416 233.535C234.166 210.725 240.506 175.135 267.416 169.145C291.726 163.735 317.356 167.945 332.346 189.265C346.796 209.815 345.746 236.325 336.646 258.865C318.966 302.725 275.806 329.315 236.426 351.455C219.61 360.91 202.64 370.138 185.666 379.368C156.846 395.04 128.012 410.719 99.8864 427.535C79.6064 439.655 59.8864 453.685 45.3764 472.615C34.6164 486.615 27.0664 503.365 22.0464 520.615C20.7131 522.868 19.4164 525.132 18.1564 527.405C24.9264 494.535 37.4564 463.585 58.1564 435.925C89.8764 393.385 135.666 370.525 182.466 348.095L182.446 348.155ZM262.216 212.435C260.926 237.225 286.696 249.655 307.076 253.885L307.306 253.955C308.246 252.185 309.166 250.415 310.016 248.625C318.406 231.185 320.716 205.735 303.016 192.825C287.476 181.495 263.216 193.325 262.216 212.435Z" fill="#231F20"/>
</svg>
