<svg width="322" height="577" viewBox="0 0 322 577" fill="none" xmlns="http://www.w3.org/2000/svg">
<path d="M175.021 260.516C177.736 263.618 179.226 267.603 179.211 271.726C179.371 278.356 176.311 286.406 180.271 292.406C181.193 293.71 182.195 294.956 183.271 296.136C183.092 293.138 183.092 290.133 183.271 287.136C183.711 278.526 184.211 270.136 177.971 263.376C177.031 262.346 176.041 261.416 175.021 260.516Z" fill="#F7941E"/>
<path d="M227.292 447.155C227.872 441.155 229.722 435.315 230.642 429.355C226.352 439.175 220.492 449.685 222.442 460.305C223.442 466.065 226.592 469.695 231.532 472.515C234.742 474.345 237.162 476.695 236.602 480.675C236.222 483.415 234.682 485.815 233.942 488.455C233.06 491.606 233.116 494.946 234.102 498.065C235.802 503.405 240.382 506.865 243.572 511.255C245.664 514.159 247.157 517.449 247.962 520.935C248.444 518.603 248.282 516.183 247.492 513.935C245.962 509.815 242.362 506.835 240.412 502.935C235.952 494.005 242.462 487.785 244.802 479.575C247.082 471.575 237.282 468.765 232.672 464.335C228.062 459.905 226.692 453.465 227.292 447.155Z" fill="#F7941E"/>
<path d="M208.442 408.446C208.222 402.266 205.112 396.586 201.522 391.706C195.202 383.096 186.312 376.166 182.402 365.936C179.942 359.486 179.672 351.936 180.752 344.686C179.35 348.046 178.21 351.509 177.342 355.046C175.385 362.818 176.743 371.053 181.092 377.786C184.992 383.976 190.402 389.046 195.482 394.246C200.932 399.826 206.162 405.246 204.762 413.676C203.982 418.346 201.762 422.676 199.972 427.036L198.872 429.666C199.942 428.286 200.952 426.976 201.822 425.746C205.442 420.636 208.662 414.916 208.442 408.446Z" fill="#F7941E"/>
<path d="M202.342 500.356C202.972 496.096 205.342 492.436 206.702 488.406C208.202 483.876 208.202 478.736 205.532 474.616C201.302 468.056 192.892 465.846 189.792 458.256C189.516 457.582 189.285 456.89 189.102 456.186C188.868 458.198 189.031 460.236 189.582 462.186C191.582 468.806 199.482 471.296 201.032 478.316C202.582 485.336 196.622 491.136 197.122 497.966C197.352 501.256 199.732 503.676 202.602 505.746C202.19 503.979 202.102 502.153 202.342 500.356Z" fill="#F7941E"/>
<path d="M229.823 293.625C231.493 290.115 232.143 286.475 230.313 282.865C228.613 279.485 225.673 276.865 223.313 274.015C220.953 271.165 218.833 268.155 217.983 264.535C216.983 260.135 217.783 255.655 218.763 251.325L219.243 249.325C218.823 243.845 217.513 238.585 213.303 234.375C208.023 229.075 199.673 228.725 194.703 222.975C190.966 218.416 189.293 212.508 190.083 206.665C190.863 200.175 194.663 194.145 195.313 187.745C195.103 187.125 194.863 186.495 194.593 185.865C191.983 179.755 188.163 172.865 191.663 166.535C188.484 165.57 185.537 163.964 183.003 161.815C182.425 163.922 181.564 165.94 180.443 167.815C179.863 175.425 179.443 182.815 180.843 190.415C182.291 198.031 184.606 205.456 187.743 212.545C193.123 225.045 199.983 236.835 205.183 249.425C210.371 262.038 213.364 275.444 214.033 289.065C214.589 302.769 213.301 316.485 210.203 329.845C208.693 336.622 206.773 343.301 204.453 349.845C202.653 354.955 200.753 360.255 195.893 363.195C193.523 364.625 191.453 362.195 191.893 360.115C191.838 359.828 191.838 359.533 191.893 359.245C192.943 352.305 194.943 345.555 195.953 338.595C196.893 331.914 197.334 325.172 197.273 318.425C197.113 293.145 189.573 269.625 176.793 247.975C164.903 227.845 153.903 203.845 157.703 179.905C154.519 179.771 151.384 179.073 148.443 177.845C143.331 183.377 140.62 190.709 140.903 198.235C141.113 206.355 144.803 212.555 150.363 218.235C156.133 224.085 160.363 229.465 160.103 238.045C160.103 238.375 160.103 238.705 160.103 239.045C160.544 241.008 161.215 242.911 162.103 244.715C163.667 247.58 165.757 250.124 168.263 252.215C172.683 256.155 177.843 259.405 181.423 264.215C185.923 270.215 186.063 277.495 185.663 284.705C185.323 288.755 185.323 292.826 185.663 296.875C185.783 297.875 185.963 298.875 186.173 299.785C186.466 300.228 186.737 300.685 186.983 301.155C188.406 303.997 189.3 307.074 189.623 310.235C190.433 317.325 188.773 324.595 186.373 331.235C185.823 332.765 185.223 334.235 184.603 335.795C182.163 347.045 180.693 359.355 186.603 369.605C192.093 379.195 201.303 385.955 206.813 395.535C212.323 405.115 211.753 414.815 205.943 424.055C203.033 428.665 199.383 432.755 196.373 437.295C195.703 438.295 195.103 439.295 194.573 440.295C193.953 441.755 193.263 443.295 192.573 444.885C191.845 447.033 191.267 449.228 190.843 451.455C190.708 455.404 192.172 459.24 194.903 462.095C199.333 466.785 205.903 469.295 208.633 475.485C211.363 481.675 209.693 487.705 207.183 493.535C205.463 497.535 203.733 501.675 205.093 506.065C205.296 506.708 205.55 507.333 205.853 507.935C207.682 509.001 209.427 510.205 211.073 511.535C216.352 516.243 220.019 522.491 221.553 529.395C223.423 538.035 220.713 546.235 220.323 554.845C220.065 558.647 220.839 562.447 222.563 565.845C222.261 561.065 223.322 556.297 225.623 552.095C230.373 543.095 239.483 537.545 244.723 528.945C245.183 528.185 245.623 527.395 246.023 526.575C246.342 524.012 246.058 521.41 245.193 518.975C243.253 513.335 238.953 509.615 235.423 505.035C232.612 501.535 231.087 497.175 231.103 492.685C231.178 490.281 231.686 487.91 232.603 485.685C233.963 482.135 236.133 478.265 232.113 475.375C228.633 472.875 225.203 471.525 222.893 467.635C220.779 463.907 219.795 459.643 220.063 455.365C220.323 449.735 222.253 444.365 224.313 439.165C226.219 433.974 228.505 428.931 231.153 424.075C231.24 421.994 230.92 419.915 230.213 417.955C228.753 414.215 225.423 412.145 222.273 409.955C219.123 407.765 216.043 405.235 214.273 401.605C212.503 397.975 212.073 394.105 211.933 390.215C211.773 385.925 212.143 381.515 211.263 377.275C210.383 373.035 207.673 369.605 207.343 365.275C206.343 351.915 223.273 348.275 226.593 337.115C228.903 329.345 221.713 321.595 221.543 313.785C221.373 305.975 226.683 300.205 229.823 293.625Z" fill="#FFF200"/>
<path fill-rule="evenodd" clip-rule="evenodd" d="M162.353 179.685C161.256 193.722 163.547 207.818 169.033 220.785C172.227 228.548 176.395 235.735 180.569 242.932L180.569 242.932C183.111 247.315 185.655 251.702 187.983 256.225C193.43 266.854 197.465 278.15 199.983 289.825C202.59 301.709 203.646 313.88 203.123 326.035C202.993 328.865 202.813 331.785 202.543 334.725C204.1 328.886 205.345 322.967 206.273 316.995C208.434 303.482 208.492 289.716 206.443 276.185C204.313 262.915 199.493 250.635 193.683 238.595C192.844 236.852 191.994 235.109 191.144 233.364C186.296 223.423 181.418 213.419 178.313 202.785C175.673 193.785 173.733 183.195 175.533 173.595C173.608 175.293 171.436 176.688 169.093 177.735C169.844 178.831 169.85 180.017 169.858 181.319V181.319C169.86 181.751 169.863 182.196 169.893 182.655C170.083 185.635 170.454 188.6 171.003 191.535C171.389 193.559 171.924 195.576 172.46 197.596C173.312 200.806 174.165 204.022 174.423 207.275C174.413 207.614 174.184 207.906 173.857 207.995C173.531 208.085 173.184 207.951 173.003 207.665C170.692 202.796 169.697 196.96 168.796 191.672L168.763 191.475C168.343 188.985 168.013 186.475 167.833 183.975C167.807 183.63 167.77 183.272 167.732 182.905C167.567 181.314 167.387 179.575 168.013 178.185C166.191 178.903 164.291 179.406 162.353 179.685ZM185.603 240.095C189.823 245.305 192.763 251.855 195.473 257.955C198.073 263.825 200.413 270.045 200.903 276.505C200.953 277.045 200.163 277.085 200.013 276.625C198.031 270.05 195.694 263.587 193.013 257.265C192.104 255.262 191.081 253.289 190.055 251.313C188.204 247.744 186.346 244.162 185.143 240.365C185.053 240.115 185.423 239.845 185.603 240.095ZM179.333 222.505C178.189 219.145 176.829 215.861 175.263 212.675C174.953 212.105 174.163 212.515 174.263 213.095C175.145 216.913 176.357 220.647 177.883 224.255C178.135 224.916 178.381 225.598 178.629 226.288C179.591 228.959 180.598 231.758 182.243 233.975C182.359 234.251 182.677 234.381 182.953 234.265C183.229 234.149 183.359 233.831 183.243 233.555C182.853 230.834 181.697 228.133 180.573 225.506C180.14 224.494 179.711 223.493 179.333 222.505Z" fill="#662D91"/>
<path d="M196.373 192.095C195.473 195.665 193.903 199.225 192.873 202.765C190.463 211.125 192.613 220.765 200.703 225.165C204.273 227.095 208.293 228.085 211.703 230.305C214.362 232.069 216.563 234.441 218.123 237.225C219.072 238.913 219.833 240.701 220.393 242.555C220.567 240.699 220.453 238.826 220.053 237.005C219.052 232.627 216.516 228.753 212.903 226.085C206.743 221.625 198.323 219.905 196.033 211.605C194.883 207.425 195.753 203.125 196.343 198.935C196.682 196.669 196.692 194.365 196.373 192.095V192.095Z" fill="#F7941E"/>
<path d="M163.842 250.675C162.103 248.748 160.746 246.508 159.842 244.075C159.74 246.662 160.635 249.189 162.342 251.135C164.462 253.375 167.342 254.735 169.992 256.365C167.788 254.642 165.73 252.739 163.842 250.675Z" fill="#F7941E"/>
<path fill-rule="evenodd" clip-rule="evenodd" d="M209.902 165.346C211.392 164.543 212.776 163.559 214.022 162.416C213.292 178.436 223.432 194.846 232.212 207.126C234.364 210.144 236.595 213.14 238.832 216.146C247.769 228.152 256.816 240.305 261.422 254.646C269.7 280.401 261.049 305.487 252.469 330.366C248.114 342.996 243.777 355.572 241.682 368.156C240.032 378.126 239.482 388.956 241.162 399.256C236.702 391.606 233.312 383.326 232.312 374.466C231.291 364.815 232.435 355.058 235.662 345.906C237.712 339.883 240.461 334.153 243.209 328.427C244.59 325.548 245.971 322.669 247.262 319.756C254.642 303.116 257.502 285.476 254.202 267.426C250.902 249.376 240.902 234.446 230.092 220.026C229.894 219.762 229.695 219.499 229.496 219.236C223.634 211.471 217.781 203.718 213.032 195.226C208.223 186.628 205.069 177.205 203.732 167.446C204.47 167.323 205.201 167.163 205.922 166.966C206.67 166.753 207.405 166.495 208.122 166.196C207.486 169.608 208.78 174.037 209.755 177.371C209.929 177.965 210.092 178.523 210.232 179.036C211.642 184.694 213.808 190.136 216.672 195.216C216.761 195.368 216.949 195.432 217.112 195.363C217.274 195.294 217.36 195.115 217.312 194.946C216.664 191.384 215.508 187.919 214.357 184.467C213.821 182.86 213.285 181.256 212.802 179.646C212.062 177.206 211.429 174.736 210.902 172.236C210.646 171.054 210.508 169.839 210.369 168.628C210.243 167.522 210.117 166.419 209.902 165.346ZM221.922 203.676C220.984 202.255 219.927 200.917 218.762 199.676C218.575 199.41 218.208 199.348 217.942 199.536C217.677 199.723 217.615 200.09 217.802 200.356C218.668 202.004 219.671 203.577 220.802 205.056C221.69 206.516 222.737 207.874 223.922 209.106C224.141 209.351 224.512 209.386 224.773 209.187C225.035 208.989 225.1 208.622 224.922 208.346C224.092 206.686 223.087 205.12 221.922 203.676Z" fill="#662D91"/>
<path fill-rule="evenodd" clip-rule="evenodd" d="M157.349 358.693L157.349 358.693C160.767 344.534 164.149 330.528 163.492 315.666C162.672 297.136 156.762 279.666 147.112 263.876C146.155 262.311 145.182 260.756 144.208 259.2L144.208 259.2C140.41 253.13 136.612 247.06 133.802 240.446C130.468 232.368 128.443 223.811 127.802 215.096C127.159 206.091 127.441 197.043 128.642 188.096C128.701 187.611 128.761 187.125 128.821 186.637L128.821 186.637C129.502 181.079 130.211 175.297 131.452 169.726C130.65 171.029 129.685 172.225 128.582 173.286C126.848 174.913 124.77 176.13 122.502 176.846L122.413 177.39C121.353 183.861 120.314 190.202 120.392 196.846C120.432 200.627 120.941 204.342 121.45 208.053C121.829 210.818 122.208 213.581 122.392 216.366C122.392 216.906 121.562 217.166 121.332 216.656C118.652 210.656 118.202 203.336 118.142 196.846C117.952 190.304 118.693 183.769 120.342 177.436C118.594 177.755 116.809 177.826 115.042 177.646C109.302 196.116 113.822 215.566 121.362 232.886C124.083 239.146 127.135 245.255 130.187 251.362L130.187 251.362C134.817 260.629 139.446 269.893 142.912 279.676C148.912 296.466 150.372 314.506 148.652 332.166C147.735 341.01 146.228 349.782 144.142 358.426C143.86 359.625 143.572 360.825 143.283 362.028C141.429 369.749 139.557 377.545 139.332 385.506C139.013 394.171 141.35 402.727 146.032 410.026C149.013 414.484 152.358 418.688 156.032 422.596C153.89 415.764 152.479 408.725 151.822 401.596C150.902 391.126 152.342 380.746 154.572 370.576C155.443 366.588 156.397 362.635 157.349 358.693ZM126.952 234.326C124.782 231.096 122.622 226.216 122.742 222.266C122.749 222.074 122.881 221.909 123.066 221.859C123.251 221.808 123.448 221.884 123.552 222.046C124.509 223.8 125.261 225.659 125.792 227.586C125.952 228.037 126.116 228.487 126.28 228.936C126.88 230.583 127.477 232.222 127.902 233.936C127.96 234.184 127.829 234.439 127.593 234.536C127.357 234.633 127.085 234.544 126.952 234.326ZM136.302 254.326C138.988 259.572 141.472 264.906 143.752 270.326V270.296C145.952 275.522 147.975 280.829 149.822 286.216C150.449 288.053 151.015 289.927 151.582 291.803C152.57 295.073 153.56 298.352 154.882 301.466C155.048 301.729 155.365 301.853 155.666 301.773C155.966 301.693 156.179 301.426 156.192 301.116C155.565 296.087 153.845 291.066 152.194 286.25C152.053 285.837 151.912 285.425 151.772 285.016C150.032 279.909 148.112 274.876 146.012 269.916C143.785 264.642 141.365 259.466 138.752 254.386C137.402 251.746 136.002 249.126 134.522 246.566C134.322 246.223 134.129 245.871 133.935 245.517C133.055 243.908 132.161 242.275 130.522 241.456C130.474 241.432 130.418 241.434 130.372 241.46C130.326 241.486 130.296 241.533 130.292 241.586C130.238 243.303 131.084 244.738 131.955 246.216C132.22 246.666 132.487 247.119 132.732 247.586C133.942 249.826 135.142 252.066 136.302 254.326Z" fill="#662D91"/>
<path d="M130.973 157.286C131.663 154.766 134.973 155.036 135.813 157.286C139.243 166.916 147.813 174.436 158.373 174.516C168.933 174.596 178.203 166.716 178.373 155.876C178.376 155.6 178.423 155.326 178.513 155.066C178.653 154.072 179.509 153.336 180.513 153.346C181.24 153.142 182.02 153.265 182.649 153.684C183.277 154.103 183.691 154.776 183.783 155.526C185.888 157.384 188.192 159.004 190.653 160.356C194.285 162.181 198.406 162.798 202.413 162.116C210.413 160.666 216.333 153.226 214.023 145.056C213.193 142.136 216.663 140.656 218.723 142.316C224.073 146.656 232.623 151.836 239.853 150.656C248.593 149.216 249.003 137.926 247.333 131.276C246.463 127.786 251.393 126.576 252.623 129.816C252.733 130.096 252.833 130.376 252.923 130.666C260.033 136.026 273.113 130.056 274.183 121.276C274.873 115.576 269.343 113.046 264.893 111.146C261.573 109.716 256.823 110.636 253.703 108.746C247.903 115.246 237.423 117.486 229.463 119.976C209.948 125.958 189.857 129.866 169.523 131.636C148.885 133.457 128.137 133.694 107.463 132.346C97.3229 131.726 87.1929 130.826 77.1129 129.576C68.7929 128.576 60.1129 127.886 52.4829 124.276C52.0587 124.511 51.5777 124.625 51.0929 124.606C50.0772 125.309 48.9873 125.9 47.8429 126.366C45.741 127.383 43.7644 128.642 41.9529 130.116C38.3828 133.054 35.5993 136.834 33.8529 141.116C32.8529 143.656 31.9529 146.836 33.6929 149.256C35.2006 151.049 37.4011 152.115 39.7429 152.186C44.9229 152.566 49.5529 148.756 53.3029 145.686C54.1022 144.946 55.2902 144.815 56.2318 145.361C57.1734 145.908 57.6484 147.005 57.4029 148.066C56.6129 153.556 57.2529 159.546 59.6029 164.206C60.0715 164.413 60.4107 164.834 60.5129 165.336C60.5729 165.566 60.6129 165.806 60.6629 166.046C63.4729 170.286 68.0129 172.986 74.5929 172.376C79.6014 171.851 84.3347 169.826 88.1729 166.566C91.5829 163.706 93.5829 160.266 95.4929 156.456C95.4978 156.406 95.4978 156.355 95.4929 156.306C95.3593 155.501 95.8232 154.716 96.5929 154.446C98.0129 152.806 100.963 154.516 100.473 156.736C100.403 157.056 100.323 157.366 100.243 157.676C102.693 164.946 106.973 171.996 115.413 172.866C125.233 173.846 128.793 165.266 130.973 157.286Z" fill="#FFF200"/>
<path fill-rule="evenodd" clip-rule="evenodd" d="M91.2324 173.973L91.2324 173.973L91.2323 173.973C89.0288 177.768 86.8246 181.565 84.7925 185.445C82.3192 190.086 80.1188 194.868 78.2025 199.765C77.322 202.085 76.6592 204.47 75.9976 206.851C75.3442 209.203 74.692 211.55 73.8325 213.825C73.5525 214.575 72.3325 214.525 72.3625 213.635C72.5281 208.871 74.3928 204.003 76.0885 199.575L76.2225 199.225C77.9805 194.736 79.9835 190.346 82.2225 186.075C84.8325 181.015 87.6225 175.955 90.5925 171.015C88.5836 172.537 86.4059 173.822 84.1025 174.845C84.0859 174.986 84.0523 175.123 84.0025 175.255C82.1354 180.359 79.8152 185.307 77.4998 190.245L77.4998 190.245L77.4998 190.245C76.0948 193.241 74.6916 196.234 73.3925 199.255C69.8525 207.525 66.7325 215.975 64.0225 224.545C61.5725 232.265 59.2025 240.205 58.7025 248.335C58.3236 255.448 59.2697 262.569 61.4925 269.335C66.0825 283.665 75.2225 294.745 84.6625 306.095C93.7925 317.095 97.9425 330.095 97.6025 344.315C97.4299 349.538 96.7941 354.735 95.7025 359.845C99.0002 354.894 101.595 349.51 103.412 343.845C107.822 328.845 105.162 312.445 98.9525 298.365C96.7064 293.259 94.0399 288.395 91.3816 283.546C86.5483 274.729 81.7425 265.963 79.5425 255.885C72.8325 225.645 83.4625 193.885 100.302 168.695C99.1758 167.136 98.2203 165.459 97.4525 163.695C96.9187 164.532 96.3412 165.34 95.7225 166.115C94.2635 168.752 92.7481 171.362 91.2324 173.973ZM71.6625 221.685C71.8525 221.235 72.4225 221.595 72.3725 221.975C72.0062 224.687 71.6649 227.398 71.3236 230.108L71.3236 230.108C70.9475 233.096 70.5715 236.082 70.1625 239.065C70.1035 239.259 69.9249 239.391 69.7225 239.391C69.5201 239.391 69.3415 239.259 69.2825 239.065C68.4822 233.163 69.305 227.155 71.6625 221.685ZM83.5025 290.675C83.8325 291.325 84.8525 290.875 84.6625 290.185H84.6325C83.0724 284.618 80.8029 279.185 78.5311 273.747C74.352 263.743 70.1652 253.721 70.3725 242.805C70.3691 242.568 70.1931 242.369 69.9583 242.337C69.7235 242.304 69.5001 242.448 69.4325 242.675C67.4391 250.485 70.537 258.472 73.3499 265.723C73.458 266.002 73.5656 266.279 73.6725 266.555C74.4264 268.504 75.1621 270.475 75.9 272.451C78.2059 278.626 80.5328 284.857 83.5025 290.675Z" fill="#662D91"/>
<path fill-rule="evenodd" clip-rule="evenodd" d="M60.1124 192.705C57.3119 198.998 53.6502 204.871 49.2324 210.155C48.8024 210.655 47.9824 209.995 48.3324 209.455C51.9758 203.942 55.2432 198.189 58.1124 192.235C59.6481 188.846 60.9837 185.37 62.1124 181.825C62.4116 180.887 62.6649 179.926 62.9187 178.962C63.2332 177.769 63.5484 176.572 63.9524 175.415C62.9002 174.907 61.8961 174.304 60.9524 173.615C60.2924 179.515 57.7524 185.345 54.8224 190.315C50.6548 197.364 45.0508 203.45 39.5019 209.477C38.7532 210.29 38.0055 211.102 37.2624 211.915C15.0824 236.195 1.49242 268.195 7.59242 301.425C9.01844 309.408 11.56 317.15 15.1424 324.425C18.5454 331.231 23.0933 337.102 27.7073 343.058L27.7093 343.061C28.2334 343.737 28.7583 344.415 29.2824 345.095C34.0018 350.965 37.6293 357.634 39.9924 364.785C40.2324 355.215 38.0524 345.455 35.2924 336.245C34.5827 333.88 33.8573 331.522 33.1327 329.167L33.1326 329.166C29.263 316.589 25.4164 304.086 24.1024 290.845C22.5186 276.375 24.7922 261.743 30.6924 248.435C35.3507 238.044 41.8969 228.689 48.4095 219.382C49.6562 217.6 50.9017 215.82 52.1324 214.035C52.7003 213.212 53.2764 212.383 53.8563 211.548C61.0978 201.129 68.9369 189.849 68.9924 177.035C67.9738 176.853 66.9707 176.592 65.9924 176.255C65.2973 181.578 62.6436 187.273 60.4403 192.001C60.3298 192.238 60.2204 192.473 60.1124 192.705ZM27.9024 239.475C26.9472 242.174 25.6657 244.732 24.385 247.289C23.2927 249.47 22.2008 251.65 21.3124 253.915C19.4398 258.699 17.9648 263.629 16.9024 268.655C14.6324 279.425 14.9724 289.865 15.3924 300.765C15.3941 300.917 15.2827 301.045 15.1328 301.066C14.9828 301.086 14.8411 300.992 14.8024 300.845C12.0924 290.555 12.8524 279.055 14.8724 268.705C15.9361 263.289 17.4892 257.981 19.5124 252.845C21.3824 248.115 23.5124 242.785 27.0024 239.005C27.1458 238.785 27.433 238.71 27.6659 238.831C27.8989 238.953 28.0013 239.232 27.9024 239.475ZM38.508 224.312C39.3825 223.408 40.2595 222.502 40.8424 221.415H40.7924C40.9024 221.175 40.7124 220.845 40.4224 220.925C38.5024 221.585 37.0924 223.305 35.8524 224.835C34.5405 226.41 33.5242 228.209 32.8524 230.145C32.7324 230.535 33.2624 230.855 33.5224 230.535C34.1344 229.785 34.7304 228.977 35.317 228.182C35.9572 227.314 36.5862 226.462 37.2124 225.715C37.6175 225.233 38.0624 224.773 38.508 224.312Z" fill="#662D91"/>
<path d="M234.012 72.1456C237.582 69.4256 233.762 65.5656 230.672 64.8156C226.782 63.8756 226.672 66.8156 225.772 69.5556C225.635 70.009 225.359 70.4078 224.982 70.6956C225.235 71.1195 225.544 71.5065 225.902 71.8456C228.233 73.7509 231.547 73.8735 234.012 72.1456Z" fill="white"/>
<path d="M243.721 155.445C243.122 155.667 242.511 155.853 241.891 156.005C244.891 170.665 254.081 181.705 265.721 190.875C277.141 199.875 291.041 207.265 299.271 219.605C299.581 220.075 298.891 220.605 298.521 220.185C292.63 214.331 286.324 208.91 279.651 203.965C273.591 199.475 267.331 195.225 261.541 190.385C251.541 181.985 240.961 170.075 240.441 156.295C238.029 156.631 235.576 156.526 233.201 155.985C238.21 169.495 245.878 181.862 255.751 192.355C260.57 197.407 265.74 202.112 271.221 206.435C276.721 210.805 282.711 214.435 288.281 218.755C293.899 222.838 298.048 228.625 300.111 235.255C302.539 242.928 303.78 250.927 303.791 258.975C303.631 275.235 295.791 289.885 293.621 305.785C292.201 316.045 294.231 327.155 301.251 334.205C296.951 322.565 299.011 309.335 303.431 297.505C306.261 289.895 309.931 282.595 312.131 274.745C314.268 267.078 315.116 259.11 314.641 251.165C313.755 236.598 308.406 222.657 299.321 211.235C294.921 205.674 289.725 200.791 283.901 196.745C277.541 192.355 270.631 188.835 264.541 184.065C255.461 176.965 247.541 166.355 245.051 154.845C244.618 155.067 244.174 155.268 243.721 155.445Z" fill="#662D91"/>
<path d="M69.6028 86.9153C72.6028 87.6753 75.3428 84.3753 75.8228 81.6253C76.5228 77.6253 71.0428 76.4653 68.5828 78.6253C68.4553 78.7411 68.3351 78.8647 68.2228 78.9953C67.6201 80.3009 67.2511 81.7022 67.1328 83.1353C67.5761 84.6063 68.4336 85.9186 69.6028 86.9153Z" fill="white"/>
<path fill-rule="evenodd" clip-rule="evenodd" d="M113.781 127.286C103.201 126.846 92.6512 125.916 82.1212 124.846C80.4258 124.671 78.693 124.519 76.9396 124.366C68.6822 123.644 59.9702 122.882 52.5712 119.426C48.0012 112.426 46.5612 103.606 46.4712 95.4257C46.4379 86.7913 48.0465 78.2293 51.2112 70.1957C57.4312 54.0657 69.3112 40.6957 83.2112 30.6957C97.7054 20.1823 114.133 12.6346 131.551 8.48568C150.211 4.17568 169.771 5.98568 188.211 10.6157C219.901 18.5857 250.961 39.9357 255.381 74.6957C256.468 82.6413 255.676 90.7311 253.071 98.3157C251.651 102.306 249.531 105.706 245.811 107.856C242.296 109.888 238.115 111.222 234.123 112.496L234.123 112.496L234.122 112.496L234.121 112.496L234.121 112.497L234.12 112.497C233.241 112.777 232.372 113.054 231.521 113.336C213.803 119.155 195.545 123.176 177.021 125.336C156.03 127.72 134.879 128.372 113.781 127.286ZM231.481 46.3657C231.171 42.5757 227.781 40.3957 224.431 39.4957C224.261 39.4477 224.082 39.5338 224.014 39.6965C223.945 39.8591 224.008 40.0474 224.161 40.1357C226.303 41.2753 227.795 43.1578 229.273 45.0226L229.273 45.0227C229.728 45.5961 230.181 46.1678 230.651 46.7157C230.792 46.8517 231.001 46.8905 231.182 46.8143C231.362 46.7382 231.48 46.5617 231.481 46.3657ZM231.581 59.7057C237.581 61.0657 243.031 67.4357 239.501 73.5657C236.501 78.7757 228.301 79.6357 223.761 76.1257C221.792 74.7068 220.501 72.5347 220.193 70.1275C219.886 67.7202 220.592 65.2934 222.141 63.4257C224.249 60.3948 227.972 58.9277 231.581 59.7057ZM200.751 21.8457C193.6 18.7365 185.916 17.0387 178.121 16.8457C177.691 16.8457 177.571 17.5557 178.021 17.6457C185.683 18.839 193.167 20.9786 200.301 24.0157C205.094 26.1314 209.235 28.9549 213.421 31.8091C215.349 33.1235 217.286 34.4444 219.301 35.7057C220.061 36.1857 220.721 35.1557 220.201 34.5457C215.341 28.7457 207.601 24.7457 200.751 21.8457ZM139.411 77.6957C139.533 77.5229 139.741 77.4318 139.95 77.4591C140.16 77.4863 140.338 77.6274 140.411 77.8257C140.493 78.3998 140.565 78.9776 140.637 79.5552C141.066 83.0026 141.495 86.4463 144.021 89.0757C147.151 92.3357 151.351 91.9657 154.911 89.6057C157.763 87.6765 159.877 84.8393 160.911 81.5557C161.452 79.853 161.519 78.1536 161.587 76.4498V76.4496C161.636 75.2216 161.685 73.9913 161.911 72.7557C162.191 71.2557 164.151 71.3557 164.911 72.3657C167.541 76.0557 166.111 81.8257 164.321 85.5857C162.249 90.0276 158.503 93.4684 153.901 95.1557C143.481 98.8457 134.571 87.2757 139.411 77.6957ZM81.2712 80.4657C80.9312 73.2557 71.7312 70.1457 66.1912 73.6957V73.6757C61.0612 76.9557 60.0412 84.6457 64.0812 88.8557C64.9738 90.1972 66.3018 91.1897 67.8412 91.6657C74.5812 94.0457 81.5812 87.1857 81.2712 80.4657Z" fill="#662D91"/>
<path fill-rule="evenodd" clip-rule="evenodd" d="M158.052 432.845C159.193 433.979 160.733 434.622 162.342 434.635C163.252 434.632 164.108 434.207 164.66 433.485C165.213 432.762 165.398 431.824 165.162 430.945C161.52 421.935 159.099 412.478 157.962 402.825C157.157 393.392 157.811 383.89 159.902 374.655C160.929 369.715 162.128 364.817 163.325 359.925C166.449 347.153 169.563 334.427 169.592 321.115C169.619 303.582 165.507 286.29 157.592 270.645C155.095 265.725 152.152 261.07 149.208 256.414L149.208 256.414L149.207 256.414C147.27 253.349 145.332 250.285 143.522 247.145C139.002 239.415 135.865 230.954 134.252 222.145C132.452 212.145 132.582 201.905 133.402 191.835C133.745 187.7 134.383 183.562 135.022 179.421L135.022 179.421C135.576 175.831 136.13 172.239 136.492 168.645C138.629 171.373 141.212 173.719 144.132 175.585C135.714 184.896 133.321 198.183 137.962 209.845C139.935 214.745 143.257 218.291 146.663 221.927C148.04 223.396 149.431 224.881 150.752 226.475C153.279 229.335 154.658 233.029 154.622 236.845C154.622 237.987 154.561 239.139 154.5 240.295V240.296C154.346 243.193 154.192 246.115 154.992 248.945C156.496 254.289 160.732 256.906 165.039 259.569L165.04 259.569C166.231 260.305 167.427 261.044 168.572 261.845C174.608 266.049 173.977 272.346 173.333 278.769C173.271 279.39 173.208 280.013 173.152 280.635C172.674 284.087 172.85 287.599 173.672 290.985C174.565 294.154 176.517 296.447 178.584 298.873C178.832 299.165 179.082 299.458 179.332 299.755C184.542 305.935 184.972 313.755 183.332 321.445C182.104 327.208 179.791 332.748 177.483 338.276L177.483 338.277C173.327 348.232 169.188 358.148 171.432 369.245C172.892 376.485 177.162 382.765 181.902 388.245C183.797 390.444 185.943 392.526 188.101 394.619C191.547 397.96 195.021 401.329 197.542 405.245C200.482 409.795 198.762 414.605 196.922 419.245C195.705 422.315 194.409 425.38 193.112 428.447C192.449 430.016 191.785 431.585 191.132 433.155C190.576 434.491 189.993 435.831 189.407 437.179C186.674 443.464 183.871 449.911 183.352 456.745C183.038 460.236 183.696 463.745 185.252 466.885C186.56 469.402 188.541 471.293 190.542 473.202C191.156 473.789 191.773 474.377 192.372 474.985C194.922 477.575 195.962 480.315 195.022 483.985C194.595 485.653 193.992 487.209 193.396 488.748C192.68 490.597 191.974 492.421 191.592 494.385C189.982 502.575 195.162 507.645 201.442 511.855C208.792 516.855 214.272 523.065 215.792 532.095C216.617 536.992 215.881 541.856 215.144 546.723C214.398 551.648 213.652 556.577 214.522 561.545C215.802 568.615 220.522 575.755 228.082 576.915C231.082 577.375 233.132 574.245 231.082 571.815C225.012 564.685 230.292 554.545 235.442 548.665C237.069 546.804 238.809 545.025 240.549 543.246C244.755 538.947 248.964 534.644 251.602 529.155C255.332 521.395 255.292 513.445 250.242 506.345C249.825 505.755 249.364 505.157 248.894 504.548C247.111 502.235 245.196 499.75 245.022 496.845C244.845 493.889 246.368 490.939 247.782 488.199C248.124 487.538 248.459 486.889 248.762 486.255C251.892 479.685 252.762 472.775 246.962 467.395C245.467 466.005 243.733 464.853 242.008 463.707C238.299 461.243 234.635 458.809 233.502 454.105C232.286 449.04 233.618 443.533 234.865 438.378C235.176 437.091 235.482 435.826 235.742 434.595C236.992 428.695 238.132 422.205 236.052 416.355C234.872 413.134 232.827 410.3 230.142 408.165C229.086 407.302 227.932 406.524 226.775 405.743L226.774 405.743L226.774 405.743L226.774 405.743L226.774 405.743L226.773 405.743L226.773 405.742L226.773 405.742L226.773 405.742L226.772 405.742L226.772 405.742L226.772 405.741L226.772 405.741L226.772 405.741L226.771 405.741L226.771 405.741C224.442 404.17 222.098 402.589 220.502 400.285C217.552 396.036 217.591 390.495 217.629 385.096C217.65 382.186 217.67 379.318 217.222 376.715C216.894 374.827 216.078 373.001 215.267 371.186C214.295 369.012 213.331 366.854 213.222 364.625C213.102 361.925 214.602 359.625 216.302 357.625C218.056 355.609 220.045 353.83 222.034 352.051L222.034 352.051C224.444 349.895 226.853 347.741 228.842 345.165C228.97 345.008 229.08 344.85 229.191 344.693C229.228 344.64 229.265 344.588 229.302 344.535C226.215 353.546 224.97 363.085 225.642 372.585C226.596 382.883 229.835 392.838 235.122 401.725C237.74 406.225 240.646 410.55 243.822 414.675C245.663 417.226 247.667 419.654 249.822 421.945C250.122 422.385 250.432 422.825 250.752 423.265C251.214 423.915 251.916 424.354 252.702 424.485L252.802 424.56C253.087 424.775 253.37 424.988 253.702 425.185C255.012 426.085 257.112 424.575 256.512 423.025C256.43 422.811 256.336 422.6 256.242 422.39L256.242 422.389C256.188 422.268 256.133 422.147 256.082 422.025C256.098 421.464 255.956 420.91 255.672 420.425C247.042 405.075 245.182 387.735 248.032 370.515C250.223 357.318 254.544 344.682 258.862 332.058L258.862 332.057L258.862 332.057C260.672 326.764 262.481 321.474 264.132 316.145C269.652 298.335 273.432 279.305 269.772 260.735C266.212 242.635 255.182 227.515 244.232 213.165L243.751 212.535L243.751 212.534C237.698 204.593 231.608 196.601 226.912 187.755C221.542 177.615 219.522 167.365 218.712 156.025V155.965C219.513 154.138 220.009 152.193 220.182 150.205C222.712 151.855 225.39 153.264 228.182 154.415C233.102 182.235 256.862 204.415 278.962 219.795C285.402 224.285 291.192 228.645 293.722 236.415C296.435 244.521 297.638 253.056 297.272 261.595C296.786 269.865 294.418 277.784 292.048 285.712C289.545 294.083 287.04 302.463 286.742 311.275C286.282 324.805 292.942 341.325 307.192 344.375C307.875 344.896 308.776 345.032 309.582 344.735C309.707 344.735 309.833 344.753 309.958 344.771L309.959 344.771C310.064 344.786 310.168 344.801 310.272 344.805C312.842 344.985 313.332 341.585 311.522 340.365C301.612 327.495 305.252 310.835 310.762 296.895C311.508 295.006 312.288 293.128 313.068 291.25L313.069 291.249C315.311 285.853 317.553 280.455 318.992 274.765C324.336 253.687 320.553 231.332 308.572 213.185C300.772 201.495 290.312 193.445 278.342 186.375C270.962 182.015 264.342 177.325 258.702 170.775C254.062 165.335 251.052 159.165 248.142 152.775C252.362 148.875 254.252 142.475 253.982 136.515C256.687 137.322 259.517 137.631 262.332 137.425C268.976 136.835 274.854 132.879 277.902 126.945C284.952 112.795 269.002 104.655 256.722 104.305C259.902 98.4155 261.112 91.1755 261.452 84.7055C262.362 67.7055 255.722 50.8755 245.212 37.7055C233.902 23.5555 217.692 14.0755 200.742 8.25545C182.352 1.93545 161.372 -1.49455 141.982 0.74545C122.792 2.96545 104.172 10.3755 87.782 20.4755C70.152 31.3455 54.782 46.4754 46.652 65.7355C39.652 82.3155 36.652 105.795 47.652 121.425C43.552 122.375 38.772 126.425 36.652 128.425C32.042 132.815 27.652 139.785 27.832 146.365C28.022 152.235 32.972 156.145 38.492 156.875C43.492 157.535 48.052 155.425 52.102 152.625C51.972 157.935 52.842 163.225 55.702 167.855C56.002 168.345 56.332 168.855 56.702 169.275C55.8617 176.61 53.3358 183.65 49.322 189.845C45.408 195.848 40.4934 201.066 35.5843 206.279C34.5232 207.405 33.4624 208.532 32.412 209.665C21.8675 220.88 13.5138 233.969 7.78202 248.255C-3.54798 277.195 -1.81799 311.255 16.032 337.255C17.9134 339.997 19.9959 342.614 22.0786 345.231C25.664 349.736 29.2502 354.243 31.812 359.385C36.092 368.005 35.652 376.455 34.582 385.635C34.4726 385.957 34.4351 386.298 34.472 386.635C34.282 388.205 35.842 389.215 37.272 389.165C38.1998 389.173 39.0565 388.669 39.502 387.855C51.6548 367.859 44.4589 345.259 37.5929 323.696C34.9616 315.432 32.3788 307.32 30.952 299.565C28.102 284.115 28.312 268.135 34.182 253.395C38.6701 242.128 45.6677 232.08 52.5867 222.144C53.7921 220.413 54.9951 218.685 56.182 216.955C60.5815 210.706 64.5892 204.191 68.182 197.445C71.282 191.445 74.522 184.195 73.342 177.285C75.3373 177.214 77.319 176.925 79.252 176.425C75.5427 182.28 72.3443 188.443 69.692 194.845C66.5453 201.905 63.6754 209.082 61.082 216.375C56.082 230.515 51.492 245.185 53.622 260.375C55.562 274.245 62.112 287.165 70.452 298.275C72.195 300.595 74.0817 302.816 75.9691 305.038C78.727 308.285 81.4866 311.533 83.802 315.095C87.7291 321.27 90.1603 328.276 90.902 335.555C91.6925 343.954 91.0603 352.427 89.032 360.615C88.032 364.875 86.792 369.055 85.502 373.235C85.249 374.052 84.987 374.868 84.7248 375.685L84.7244 375.686C84.251 377.161 83.7767 378.639 83.352 380.125C83.352 380.225 83.352 380.325 83.272 380.425C82.2751 382.581 81.4395 384.807 80.772 387.085C79.772 390.675 84.842 391.815 86.192 388.585C88.9829 381.892 92.9571 375.862 96.9271 369.838C100.852 363.882 104.773 357.933 107.542 351.355C113.252 337.735 113.002 322.445 109.112 308.355C106.554 299.078 101.992 290.896 97.4152 282.687L97.415 282.687C94.4782 277.419 91.5354 272.141 89.112 266.555C82.672 251.735 81.772 234.755 84.752 219.005C87.932 202.235 95.272 187.005 103.422 172.175C105.444 174.073 107.823 175.549 110.422 176.515C100.524 202.942 113.149 228.906 125.048 253.378L125.049 253.379L125.049 253.38C128.405 260.282 131.703 267.064 134.422 273.705C141.463 290.981 144.324 309.675 142.772 328.265C141.981 337.856 140.433 347.369 138.142 356.715C137.899 357.747 137.653 358.78 137.407 359.812C135.492 367.849 133.567 375.928 133.142 384.195C132.142 403.915 143.392 420.265 157.842 432.665C157.908 432.73 157.978 432.79 158.052 432.845ZM162.372 251.125C160.666 249.179 159.771 246.652 159.872 244.065C160.776 246.498 162.134 248.738 163.872 250.665C165.77 252.731 167.837 254.634 170.052 256.355C169.412 255.961 168.755 255.583 168.096 255.203L168.095 255.203C166.044 254.022 163.976 252.831 162.372 251.135V251.125ZM183.262 296.125C183.083 293.128 183.083 290.123 183.262 287.125V287.105L183.276 286.829C183.712 278.316 184.135 270.053 177.952 263.335C177.012 262.335 176.012 261.405 175.012 260.505C177.727 263.607 179.217 267.593 179.202 271.715C179.252 273.775 178.987 275.972 178.718 278.202L178.718 278.202C178.121 283.15 177.505 288.26 180.262 292.395C181.184 293.7 182.186 294.945 183.262 296.125ZM199.972 427.055C200.309 426.253 200.659 425.449 201.01 424.643C202.552 421.099 204.118 417.5 204.762 413.695C206.162 405.285 200.932 399.845 195.482 394.265C194.726 393.491 193.962 392.72 193.197 391.947L193.196 391.946L193.195 391.946L193.195 391.945C188.823 387.529 184.411 383.073 181.092 377.805C176.743 371.073 175.385 362.837 177.342 355.065C178.21 351.529 179.35 348.066 180.752 344.705C179.672 351.965 179.942 359.505 182.402 365.955C184.985 372.715 189.743 378.033 194.497 383.348C196.938 386.077 199.378 388.804 201.522 391.725C205.112 396.605 208.222 402.285 208.442 408.465C208.662 414.935 205.442 420.655 201.822 425.765C200.952 426.995 199.942 428.305 198.872 429.685L199.972 427.055ZM199.183 489.083C198.035 492 196.892 494.908 197.122 498.055V497.995C197.352 501.285 199.732 503.705 202.602 505.865C202.187 504.09 202.098 502.253 202.342 500.445C202.737 497.778 203.825 495.334 204.91 492.897C205.558 491.442 206.205 489.991 206.702 488.495C208.202 483.965 208.202 478.825 205.532 474.705C203.653 471.791 200.949 469.735 198.252 467.685C194.878 465.12 191.515 462.564 189.792 458.345C189.516 457.672 189.285 456.98 189.102 456.275C188.868 458.288 189.031 460.326 189.582 462.275C190.533 465.44 192.834 467.637 195.148 469.847C197.675 472.261 200.218 474.689 201.032 478.405C201.873 482.244 200.525 485.67 199.183 489.083ZM232.672 464.405C233.951 465.634 235.629 466.735 237.338 467.857C241.789 470.778 246.45 473.836 244.802 479.645C244.114 482.061 243.064 484.304 242.04 486.494C239.581 491.75 237.264 496.703 240.412 503.005C241.279 504.739 242.471 506.291 243.663 507.841C245.153 509.78 246.642 511.717 247.492 514.005C248.281 516.253 248.444 518.673 247.962 521.005C247.156 517.519 245.664 514.229 243.572 511.325C242.527 509.888 241.333 508.549 240.14 507.212C237.691 504.467 235.245 501.726 234.102 498.135C233.115 495.016 233.059 491.676 233.942 488.525C234.243 487.452 234.676 486.424 235.11 485.396L235.11 485.396L235.11 485.396L235.111 485.395L235.111 485.395L235.111 485.395L235.111 485.395L235.111 485.394L235.111 485.394L235.111 485.394L235.111 485.393L235.111 485.393C235.744 483.894 236.377 482.394 236.602 480.745C237.162 476.745 234.742 474.415 231.532 472.585C226.592 469.765 223.532 466.135 222.442 460.375C220.724 451.252 224.844 442.21 228.759 433.616L228.76 433.614L228.76 433.614L228.76 433.613L228.761 433.611L228.762 433.608C229.403 432.201 230.039 430.807 230.642 429.425C230.251 431.975 229.692 434.483 229.134 436.987C228.379 440.376 227.626 443.758 227.292 447.225C226.692 453.465 227.952 459.845 232.672 464.345V464.405ZM217.131 348.906C221.124 345.491 225.132 342.063 226.572 337.205V337.145C227.916 332.665 226.081 328.148 224.253 323.651C222.912 320.348 221.574 317.056 221.502 313.795C221.38 308.273 224.087 303.672 226.786 299.083C227.851 297.274 228.914 295.466 229.802 293.605C231.472 290.095 232.122 286.455 230.292 282.845C229.106 280.431 227.231 278.378 225.407 276.382L225.406 276.381C224.678 275.583 223.957 274.795 223.292 273.995C220.962 271.195 218.812 268.135 217.962 264.515C216.932 260.115 217.742 255.635 218.742 251.305L219.222 249.305C218.802 243.825 217.492 238.565 213.282 234.355C210.757 231.821 207.537 230.418 204.317 229.016C200.804 227.486 197.291 225.956 194.682 222.955C190.945 218.396 189.272 212.488 190.062 206.645C190.446 203.449 191.563 200.365 192.675 197.293C193.821 194.127 194.962 190.974 195.292 187.725C195.082 187.105 194.842 186.475 194.572 185.845C194.286 185.175 193.985 184.496 193.681 183.809C191.212 178.235 188.526 172.169 191.642 166.515C188.463 165.55 185.516 163.944 182.982 161.795C182.404 163.902 181.543 165.92 180.422 167.795C179.822 175.395 179.462 182.795 180.822 190.395C182.27 198.011 184.586 205.436 187.722 212.525C190.257 218.414 193.12 224.146 195.983 229.878C199.197 236.312 202.412 242.747 205.162 249.405C210.35 262.018 213.344 275.424 214.012 289.045C214.584 302.757 213.309 316.484 210.222 329.855C208.712 336.632 206.792 343.311 204.472 349.855C202.672 354.965 200.772 360.265 195.912 363.205C193.502 364.635 191.432 362.225 191.912 360.125C191.857 359.838 191.857 359.543 191.912 359.255C192.423 355.909 193.153 352.617 193.883 349.319L193.883 349.319C194.668 345.777 195.454 342.23 195.972 338.605C196.912 331.924 197.353 325.182 197.292 318.435C197.132 293.155 189.592 269.635 176.812 247.985C164.942 227.905 153.932 203.905 157.702 179.905C154.518 179.771 151.383 179.073 148.442 177.845C143.286 183.343 140.52 190.662 140.752 198.195C140.962 206.355 144.652 212.555 150.212 218.195C155.952 224.005 160.162 229.425 159.952 238.005V239.005C160.393 240.968 161.064 242.871 161.952 244.675C163.516 247.54 165.606 250.084 168.112 252.175C169.492 253.406 170.944 254.569 172.398 255.733C175.6 258.297 178.81 260.867 181.272 264.175C185.772 270.195 185.912 277.455 185.512 284.665C185.172 288.715 185.172 292.786 185.512 296.835C185.632 297.825 185.812 298.795 186.022 299.745C186.315 300.188 186.586 300.645 186.832 301.115C188.255 303.957 189.149 307.034 189.472 310.195C190.282 317.275 188.622 324.545 186.222 331.195C185.672 332.755 185.072 334.245 184.452 335.755C182.052 347.005 180.582 359.315 186.452 369.565C189.197 374.396 192.919 378.534 196.638 382.668L196.638 382.668C200.302 386.741 203.962 390.811 206.682 395.535C212.162 405.055 211.622 414.815 205.812 424.055C204.26 426.514 202.495 428.825 200.73 431.135C199.186 433.156 197.642 435.177 196.242 437.295C195.572 438.295 194.972 439.295 194.442 440.295C194.276 440.674 194.107 441.057 193.936 441.446L193.935 441.447C193.446 442.557 192.938 443.708 192.442 444.885C191.714 447.033 191.136 449.228 190.712 451.455C190.609 455.421 192.117 459.26 194.892 462.095C196.516 463.815 198.428 465.252 200.333 466.684C203.623 469.158 206.893 471.616 208.622 475.485C211.352 481.595 209.682 487.705 207.172 493.535C205.452 497.535 203.722 501.675 205.082 506.065C205.285 506.708 205.539 507.333 205.842 507.935C207.671 509.001 209.416 510.205 211.062 511.535C216.342 516.243 220.008 522.491 221.542 529.395C222.779 535.109 222.012 540.631 221.239 546.205C220.842 549.06 220.444 551.929 220.312 554.845C220.054 558.647 220.828 562.448 222.552 565.845C222.254 561.06 223.322 556.288 225.632 552.085C228.151 547.314 231.895 543.512 235.638 539.711C238.954 536.343 242.27 532.976 244.732 528.935C245.192 528.175 245.632 527.385 246.032 526.565C246.351 524.002 246.067 521.4 245.202 518.965C243.793 514.868 241.137 511.784 238.437 508.647C237.42 507.466 236.397 506.278 235.432 505.025C232.621 501.525 231.096 497.165 231.112 492.675C231.187 490.271 231.695 487.9 232.612 485.675C232.752 485.31 232.901 484.941 233.05 484.57L233.05 484.569C234.35 481.338 235.71 477.958 232.122 475.365C231.232 474.726 230.345 474.162 229.479 473.611C226.96 472.008 224.621 470.52 222.902 467.625C220.796 463.929 219.803 459.703 220.042 455.455C220.292 449.825 222.232 444.435 224.292 439.255C226.198 434.064 228.484 429.021 231.132 424.165C231.219 422.084 230.9 420.005 230.192 418.045C228.859 414.64 226.035 412.677 223.096 410.634L222.851 410.464L222.655 410.328C222.521 410.234 222.386 410.14 222.252 410.045C219.022 407.775 215.992 405.235 214.252 401.695C212.512 398.155 212.052 394.195 211.912 390.305C211.865 389.033 211.862 387.747 211.859 386.458V386.457C211.853 383.398 211.847 380.32 211.242 377.365C210.862 375.508 210.115 373.783 209.373 372.067C208.437 369.903 207.506 367.752 207.322 365.365C206.733 357.8 211.919 353.365 217.131 348.906ZM167.902 183.975C168.082 186.485 168.412 188.975 168.832 191.475L168.865 191.672C169.766 196.96 170.761 202.796 173.072 207.665C173.253 207.951 173.6 208.085 173.926 207.996C174.253 207.906 174.482 207.614 174.492 207.275C174.221 204.083 173.387 200.927 172.555 197.776C172.006 195.696 171.458 193.619 171.072 191.535C170.523 188.601 170.152 185.635 169.962 182.655C169.932 182.2 169.929 181.759 169.926 181.33V181.329V181.329V181.329V181.329V181.329V181.329V181.328V181.328V181.328C169.916 180.023 169.907 178.834 169.162 177.735C171.505 176.689 173.677 175.293 175.602 173.595C173.802 183.195 175.742 193.745 178.382 202.785C181.487 213.419 186.365 223.423 191.212 233.364L191.212 233.364L191.213 233.365L191.214 233.368C192.064 235.111 192.913 236.853 193.752 238.595C199.562 250.595 204.382 262.915 206.512 276.185C208.561 289.716 208.503 303.482 206.342 316.995C205.414 322.967 204.169 328.886 202.612 334.725C202.882 331.785 203.062 328.865 203.192 326.035C203.703 313.886 202.638 301.721 200.022 289.845C197.504 278.17 193.47 266.874 188.022 256.245C185.694 251.722 183.15 247.335 180.608 242.952L180.608 242.952C176.434 235.755 172.267 228.568 169.072 220.805C163.586 207.838 161.296 193.743 162.392 179.705C164.344 179.429 166.257 178.926 168.092 178.205C167.415 179.619 167.618 181.416 167.803 183.043C167.839 183.362 167.874 183.674 167.902 183.975ZM207.246 222.687C202.426 220.082 197.683 217.519 196.052 211.605H196.022C194.988 207.748 195.624 203.789 196.247 199.908L196.303 199.556C196.336 199.349 196.369 199.142 196.402 198.935C196.731 196.667 196.731 194.364 196.402 192.095C195.914 194.033 195.219 195.968 194.526 197.898C193.942 199.524 193.359 201.147 192.902 202.765C190.492 211.165 192.642 220.785 200.732 225.165C202.273 225.999 203.898 226.657 205.522 227.314L205.522 227.314C207.66 228.18 209.794 229.044 211.732 230.305C214.391 232.069 216.592 234.442 218.152 237.225C219.101 238.914 219.863 240.701 220.422 242.555C220.597 240.699 220.482 238.827 220.082 237.005C219.079 232.626 216.539 228.751 212.922 226.085C211.151 224.797 209.192 223.739 207.246 222.687ZM227.422 314.845C226.982 310.845 228.692 307.275 230.602 303.925C230.997 303.234 231.404 302.54 231.813 301.842C235.043 296.337 238.406 290.605 236.862 283.975C235.843 279.565 232.95 276.33 230.049 273.085C228.253 271.076 226.453 269.063 225.092 266.765C222.262 261.985 223.432 256.765 224.632 251.705C225.832 246.645 226.902 241.645 225.902 236.455C224.182 227.175 217.762 221.705 209.902 217.455C205.682 215.195 201.792 212.865 201.492 207.575C201.349 205.139 201.733 202.732 202.117 200.325C202.51 197.86 202.904 195.394 202.732 192.895C202.449 188.722 200.759 184.928 199.089 181.181L198.962 180.895C198.895 180.745 198.826 180.593 198.757 180.439C198.694 180.3 198.63 180.159 198.566 180.017L198.555 179.993L198.554 179.991C196.902 176.349 195.003 172.16 197.512 168.525C197.688 168.267 197.827 167.984 197.922 167.685C198.164 167.685 198.405 167.704 198.645 167.722C198.842 167.736 199.038 167.751 199.232 167.755C198.712 184.845 209.342 201.485 218.902 214.845C220.44 216.994 222.004 219.134 223.571 221.276L223.572 221.277L223.572 221.278L223.573 221.279L223.573 221.28L223.574 221.28L223.575 221.281L223.575 221.282C233.083 234.284 242.666 247.389 246.752 263.235C251.642 282.235 248.752 301.145 240.682 318.755C239.646 321.011 238.575 323.25 237.505 325.49L237.503 325.493L237.503 325.494L237.502 325.495L237.502 325.496L237.501 325.498L237.501 325.499L237.499 325.502C235.832 328.989 234.165 332.474 232.632 336.015C232.907 332.551 232.376 329.07 231.082 325.845C230.729 324.883 230.335 323.918 229.939 322.947C228.865 320.318 227.773 317.643 227.422 314.845ZM238.831 216.156C236.594 213.15 234.364 210.154 232.212 207.135V207.125C223.432 194.845 213.292 178.435 214.012 162.415C212.762 163.559 211.375 164.544 209.882 165.345C210.107 166.445 210.236 167.577 210.366 168.71C210.501 169.894 210.637 171.08 210.882 172.235C211.409 174.735 212.042 177.205 212.782 179.645C213.271 181.286 213.816 182.921 214.362 184.558L214.362 184.559L214.363 184.559C215.504 187.981 216.65 191.415 217.292 194.945C217.34 195.115 217.254 195.294 217.091 195.363C216.929 195.432 216.74 195.368 216.652 195.215C213.788 190.136 211.622 184.694 210.212 179.035C210.072 178.527 209.91 177.971 209.738 177.382L209.738 177.381C208.763 174.042 207.465 169.595 208.102 166.195C207.385 166.495 206.65 166.752 205.902 166.965C205.181 167.163 204.45 167.323 203.712 167.445C205.049 177.205 208.203 186.628 213.012 195.225C217.552 203.363 223.152 210.816 228.714 218.217L228.721 218.226C229.172 218.826 229.622 219.426 230.072 220.025C240.902 234.425 250.852 249.405 254.202 267.425C257.552 285.445 254.642 303.115 247.262 319.755C245.971 322.669 244.59 325.547 243.209 328.426L243.208 328.427C240.461 334.153 237.712 339.883 235.662 345.905C232.435 355.058 231.29 364.815 232.312 374.465C233.332 383.325 236.702 391.605 241.162 399.255C239.482 388.955 240.032 378.155 241.682 368.155C243.777 355.572 248.114 342.994 252.47 330.364C261.049 305.487 269.7 280.403 261.422 254.655C256.815 240.315 247.769 228.162 238.831 216.156ZM264.542 184.075C268.148 186.9 272.042 189.286 275.939 191.674C278.623 193.319 281.308 194.965 283.902 196.755C289.726 200.801 294.922 205.684 299.322 211.245C308.407 222.667 313.756 236.608 314.642 251.175C315.117 259.12 314.269 267.089 312.132 274.755C310.731 279.754 308.734 284.53 306.737 289.305C305.599 292.028 304.46 294.751 303.432 297.515C299.012 309.345 296.952 322.575 301.252 334.215C294.252 327.165 292.202 316.055 293.622 305.795C294.552 299.044 296.495 292.518 298.437 285.998C301.067 277.164 303.694 268.341 303.792 258.985C303.781 250.937 302.54 242.939 300.112 235.265C298.049 228.635 293.899 222.848 288.282 218.765C285.696 216.778 283.02 214.923 280.344 213.068L280.343 213.067C277.255 210.927 274.168 208.786 271.222 206.445C265.741 202.122 260.571 197.417 255.752 192.365C245.879 181.872 238.211 169.505 233.202 155.995C235.577 156.536 238.03 156.641 240.442 156.305C240.962 170.085 251.502 181.995 261.542 190.395C265.638 193.819 269.968 196.948 274.297 200.075L274.298 200.075L274.298 200.075L274.298 200.075L274.299 200.075L274.299 200.076L274.299 200.076C276.089 201.369 277.879 202.662 279.652 203.975C286.324 208.921 292.631 214.341 298.522 220.195C298.892 220.565 299.582 220.085 299.272 219.615C293.278 210.62 284.276 204.241 275.415 197.961C272.11 195.619 268.824 193.29 265.722 190.845C254.082 181.705 244.902 170.665 241.902 156.005C242.522 155.854 243.133 155.667 243.732 155.445C244.185 155.268 244.629 155.068 245.062 154.845C247.572 166.355 255.462 176.965 264.542 184.065V184.075ZM51.212 70.1954C48.0473 78.229 46.4387 86.791 46.472 95.4254C46.562 103.605 48.002 112.475 52.572 119.445C59.9406 122.896 68.6115 123.647 76.8387 124.359C78.6267 124.514 80.3938 124.667 82.122 124.845C92.652 125.915 103.202 126.805 113.782 127.285C134.88 128.372 156.031 127.719 177.022 125.335C195.546 123.175 213.804 119.155 231.522 113.335C232.387 113.05 233.27 112.768 234.161 112.484C238.135 111.219 242.284 109.897 245.812 107.855C249.532 105.705 251.652 102.315 253.072 98.3154C255.677 90.7308 256.468 82.6411 255.382 74.6954C250.962 39.9355 219.892 18.6154 188.212 10.6154C169.772 5.98545 150.212 4.17545 131.552 8.48545C114.134 12.6344 97.7062 20.1821 83.212 30.6954C69.312 40.7155 57.432 54.0655 51.212 70.1954ZM52.152 214.005C50.9088 215.809 49.6506 217.606 48.3913 219.405C41.8912 228.69 35.3613 238.018 30.712 248.405C24.8065 261.722 22.5328 276.365 24.122 290.845C25.4328 304.054 29.2641 316.515 33.1243 329.069C33.8582 331.456 34.5932 333.846 35.312 336.245C38.072 345.455 40.252 355.245 40.012 364.785C37.6489 357.634 34.0213 350.965 29.302 345.095L28.9801 344.682L28.331 343.85L28.3156 343.831L28.3155 343.831C23.4708 337.623 18.7113 331.524 15.162 324.425C11.5796 317.151 9.03803 309.408 7.61202 301.425C1.51202 268.195 15.102 236.195 37.282 211.915C38.0672 211.056 38.8576 210.199 39.6489 209.34L39.649 209.34C45.1562 203.366 50.7063 197.345 54.842 190.315C57.772 185.315 60.312 179.515 60.972 173.615C61.9157 174.305 62.9198 174.907 63.972 175.415C63.568 176.572 63.2528 177.769 62.9383 178.963L62.9382 178.963C62.6845 179.926 62.4312 180.888 62.132 181.825C61.0033 185.371 59.6677 188.847 58.132 192.235C55.2628 198.189 51.9954 203.942 48.352 209.455C48.002 209.995 48.822 210.655 49.252 210.155C53.6698 204.871 57.3315 198.998 60.132 192.705C60.2754 192.395 60.4214 192.079 60.5692 191.76L60.5707 191.757C62.7513 187.047 65.3285 181.48 66.012 176.255C66.9903 176.593 67.9933 176.853 69.012 177.035C68.9564 189.837 61.0217 201.246 53.8335 211.581C53.267 212.396 52.7051 213.204 52.152 214.005ZM91.3877 283.576C86.5669 274.763 81.7734 265.999 79.542 255.925C72.832 225.685 83.462 193.845 100.282 168.745C99.1554 167.186 98.1999 165.51 97.432 163.745C96.8971 164.568 96.3196 165.363 95.702 166.125C94.2431 168.762 92.7277 171.372 91.212 173.983L91.2118 173.983C89.0083 177.778 86.8042 181.575 84.772 185.455C82.2987 190.097 80.0983 194.878 78.182 199.775C77.3015 202.095 76.6387 204.48 75.9771 206.861L75.977 206.862C75.3237 209.213 74.6715 211.56 73.812 213.835C73.532 214.585 72.342 214.535 72.342 213.645C72.5076 208.881 74.3723 204.013 76.0681 199.585L76.202 199.235C77.96 194.746 79.9631 190.356 82.202 186.085C84.812 181.025 87.572 175.965 90.572 171.025C88.567 172.529 86.3961 173.797 84.102 174.805C84.0854 174.946 84.0519 175.083 84.002 175.215C82.1377 180.341 79.8108 185.295 77.489 190.238C76.0871 193.223 74.6871 196.204 73.392 199.215C69.852 207.505 66.732 215.935 64.022 224.505C61.572 232.225 59.202 240.165 58.702 248.295C58.3231 255.408 59.2692 262.529 61.492 269.295C66.082 283.625 75.222 294.705 84.662 306.055C93.792 317.045 97.942 330.015 97.602 344.275C97.4341 349.525 96.7983 354.749 95.702 359.885C98.9998 354.934 101.595 349.55 103.412 343.885C107.822 328.915 105.162 312.485 98.952 298.405C96.7044 293.296 94.0421 288.429 91.3879 283.576L91.3877 283.576ZM100.192 157.635C100.272 157.325 100.352 157.015 100.422 156.695C100.912 154.475 97.962 152.765 96.542 154.405C95.7724 154.676 95.3084 155.461 95.442 156.265C95.4469 156.315 95.4469 156.366 95.442 156.415C93.532 160.225 91.532 163.665 88.122 166.525C84.2838 169.786 79.5505 171.811 74.542 172.335C67.962 172.945 63.422 170.245 60.612 166.005C60.612 165.821 60.5589 165.637 60.507 165.457C60.4914 165.402 60.4759 165.349 60.462 165.295C60.3598 164.794 60.0206 164.372 59.552 164.165C57.202 159.505 56.552 153.515 57.352 148.025C57.5976 146.965 57.1226 145.868 56.181 145.321C55.2393 144.775 54.0513 144.906 53.252 145.645L53.2048 145.684C49.4632 148.747 44.8503 152.524 39.692 152.145C37.3502 152.074 35.1497 151.009 33.642 149.215C31.902 146.795 32.802 143.615 33.802 141.075C35.5484 136.794 38.3319 133.014 41.902 130.075C43.7135 128.602 45.6901 127.343 47.792 126.325C48.9365 125.859 50.0263 125.269 51.042 124.565C51.5269 124.585 52.0078 124.471 52.432 124.235C59.1234 127.401 66.6223 128.291 73.9777 129.163L73.9781 129.163C75.0098 129.285 76.0386 129.408 77.062 129.535C87.142 130.785 97.272 131.685 107.412 132.305C128.086 133.654 148.834 133.417 169.472 131.595C189.806 129.826 209.897 125.917 229.412 119.935C230.585 119.57 231.811 119.21 233.067 118.842C240.374 116.697 248.703 114.252 253.652 108.705C255.36 109.74 257.557 109.942 259.74 110.142C261.545 110.307 263.34 110.472 264.842 111.105C269.292 113.005 274.842 115.535 274.132 121.235C273.062 130.015 259.982 135.985 252.872 130.625C252.782 130.335 252.682 130.055 252.572 129.775C251.342 126.535 246.412 127.775 247.282 131.235C248.952 137.885 248.542 149.175 239.802 150.615C232.572 151.795 224.022 146.615 218.672 142.275C216.612 140.615 213.142 142.095 213.972 145.015C216.282 153.185 210.352 160.625 202.362 162.075C198.355 162.758 194.234 162.141 190.602 160.315C188.141 158.964 185.837 157.344 183.732 155.485C183.64 154.736 183.226 154.063 182.598 153.644C181.969 153.225 181.189 153.102 180.462 153.305C179.458 153.296 178.603 154.031 178.462 155.025C178.373 155.286 178.325 155.56 178.322 155.835C178.142 166.675 168.892 174.565 158.322 174.475C147.752 174.385 139.192 166.875 135.762 157.245C134.962 154.995 131.612 154.725 130.922 157.245C128.742 165.245 125.182 173.815 115.312 172.785C106.902 171.955 102.642 164.905 100.192 157.635ZM139.332 385.485C139.013 394.151 141.351 402.706 146.032 410.005C149.014 414.46 152.359 418.661 156.032 422.565C153.89 415.734 152.479 408.695 151.822 401.565C150.922 391.115 152.322 380.735 154.552 370.565C155.415 366.634 156.358 362.735 157.297 358.849C160.734 344.633 164.132 330.576 163.472 315.655C162.652 297.125 156.742 279.615 147.092 263.865C146.135 262.301 145.162 260.746 144.189 259.19C140.39 253.12 136.592 247.05 133.782 240.435C130.449 232.358 128.423 223.8 127.782 215.085C127.139 206.08 127.421 197.033 128.622 188.085C128.675 187.655 128.728 187.223 128.781 186.79C129.468 181.159 130.178 175.343 131.432 169.715C130.63 171.019 129.666 172.215 128.562 173.275C126.833 174.897 124.762 176.11 122.502 176.825L122.498 176.85C121.389 183.541 120.312 190.044 120.392 196.825C120.432 200.602 120.94 204.306 121.448 208.009C121.828 210.778 122.208 213.547 122.392 216.345C122.422 216.885 121.562 217.145 121.332 216.635C118.652 210.635 118.202 203.315 118.142 196.825C117.953 190.284 118.693 183.749 120.342 177.415C118.594 177.735 116.81 177.806 115.042 177.625C109.302 196.095 113.822 215.545 121.362 232.865C124.096 239.167 127.164 245.306 130.23 251.44C134.846 260.677 139.457 269.903 142.912 279.655C148.872 296.445 150.372 314.485 148.652 332.145C147.735 340.989 146.229 349.762 144.142 358.405C143.86 359.605 143.572 360.805 143.283 362.008C141.429 369.729 139.557 377.525 139.332 385.485Z" fill="#231F20"/>
<path fill-rule="evenodd" clip-rule="evenodd" d="M81.2729 80.4454C81.5829 87.1654 74.5829 94.0254 67.8429 91.6454C66.3035 91.1694 64.9755 90.1769 64.0829 88.8354C60.0429 84.6754 61.0629 76.9554 66.1929 73.6754C71.7329 70.1254 80.9329 73.2354 81.2729 80.4454ZM68.5829 78.6354C68.4554 78.7512 68.3352 78.8748 68.2229 79.0054C67.6191 80.3142 67.2501 81.7189 67.1329 83.1554C67.5779 84.6229 68.4353 85.9315 69.6029 86.9254C72.6429 87.6354 75.3429 84.3854 75.8229 81.6354C76.5229 77.6354 71.0429 76.4754 68.5829 78.6354Z" fill="#231F20"/>
<path fill-rule="evenodd" clip-rule="evenodd" d="M239.501 73.5654C236.511 78.7754 228.301 79.6354 223.761 76.1254C221.793 74.7065 220.501 72.5345 220.193 70.1272C219.886 67.7199 220.592 65.2931 222.141 63.4254C224.249 60.3945 227.972 58.9274 231.581 59.7054C237.501 61.0654 243.031 67.4354 239.501 73.5654ZM226.144 68.29C226.025 68.7066 225.903 69.1334 225.761 69.5554H225.771C225.62 70.0019 225.334 70.39 224.951 70.6654C225.21 71.1018 225.53 71.4991 225.901 71.8454C228.23 73.7458 231.538 73.8683 234.001 72.1454C237.571 69.4254 233.751 65.5654 230.661 64.8154C227.362 64.0202 226.797 66.0018 226.144 68.29Z" fill="#231F20"/>
<path d="M153.902 95.1556C158.473 93.4505 162.189 90.0119 164.242 85.5856C166.032 81.8256 167.462 76.0556 164.832 72.3656C164.112 71.3656 162.152 71.2556 161.832 72.7556C161.292 75.7556 161.762 78.6256 160.832 81.5556C159.798 84.8392 157.683 87.6764 154.832 89.6056C151.272 91.9656 147.072 92.3356 143.942 89.0756C140.992 86.0056 140.942 81.7756 140.332 77.8256C140.258 77.6274 140.081 77.4862 139.871 77.459C139.661 77.4317 139.454 77.5228 139.332 77.6956C134.572 87.2756 143.482 98.8456 153.902 95.1556Z" fill="#231F20"/>
<path d="M178.021 17.6257C185.683 18.819 193.167 20.9587 200.301 23.9957C207.301 27.0857 212.911 31.6857 219.301 35.6857C220.061 36.1657 220.721 35.1357 220.201 34.5257C215.341 28.7257 207.601 24.7257 200.751 21.8257C193.601 18.7165 185.916 17.0187 178.121 16.8257C177.691 16.8457 177.571 17.5557 178.021 17.6257Z" fill="#231F20"/>
<path d="M224.161 40.1356C226.961 41.6256 228.661 44.3856 230.651 46.7156C230.793 46.8517 231.001 46.8905 231.182 46.8143C231.363 46.7381 231.48 46.5617 231.481 46.3656C231.171 42.5756 227.781 40.3656 224.431 39.4956C224.262 39.4477 224.083 39.5338 224.014 39.6964C223.945 39.8591 224.009 40.0474 224.161 40.1356Z" fill="#231F20"/>
<path d="M220.843 205.065C221.73 206.526 222.777 207.884 223.963 209.115C224.181 209.36 224.552 209.396 224.813 209.197C225.075 208.998 225.14 208.632 224.963 208.355C224.133 206.696 223.127 205.13 221.963 203.685C221.025 202.265 219.967 200.927 218.803 199.685C218.598 199.493 218.284 199.478 218.063 199.65C217.841 199.822 217.777 200.129 217.913 200.375C218.756 202.018 219.736 203.587 220.843 205.065Z" fill="#231F20"/>
<path d="M125.791 227.585C125.261 225.658 124.509 223.799 123.551 222.045C123.447 221.884 123.251 221.808 123.066 221.858C122.88 221.909 122.749 222.073 122.741 222.265C122.621 226.265 124.741 231.095 126.951 234.325C127.084 234.543 127.356 234.632 127.592 234.535C127.829 234.438 127.96 234.184 127.901 233.935C127.361 231.755 126.541 229.695 125.791 227.585Z" fill="#231F20"/>
<path d="M156.182 301.086C155.502 295.626 153.532 290.176 151.762 284.986C149.992 279.796 148.102 274.846 146.002 269.846C143.768 264.572 141.348 259.396 138.742 254.316C137.392 251.676 135.992 249.056 134.512 246.496C133.412 244.596 132.512 242.406 130.512 241.386C130.464 241.362 130.408 241.364 130.362 241.39C130.316 241.416 130.286 241.463 130.282 241.516C130.212 243.776 131.672 245.586 132.722 247.516C133.932 249.756 135.132 251.996 136.292 254.256C138.958 259.482 141.442 264.816 143.742 270.256C145.942 275.489 147.962 280.786 149.802 286.146C151.522 291.146 152.802 296.496 154.862 301.396C155.019 301.663 155.333 301.798 155.636 301.726C155.938 301.655 156.16 301.396 156.182 301.086Z" fill="#231F20"/>
<path d="M177.902 224.255C179.132 227.475 180.192 231.185 182.262 233.975C182.378 234.251 182.696 234.381 182.972 234.265C183.248 234.149 183.378 233.831 183.262 233.555C182.722 229.785 180.712 226.055 179.352 222.505C178.208 219.145 176.848 215.861 175.282 212.675C174.972 212.105 174.182 212.515 174.282 213.095C175.165 216.913 176.376 220.647 177.902 224.255Z" fill="#231F20"/>
<path d="M193.002 257.265C195.684 263.588 198.02 270.05 200.002 276.625C200.152 277.085 200.942 277.045 200.892 276.505C200.402 270.045 198.062 263.825 195.462 257.955C192.752 251.855 189.812 245.305 185.592 240.095C185.412 239.875 185.042 240.095 185.122 240.365C187.032 246.245 190.452 251.645 193.002 257.265Z" fill="#231F20"/>
<path d="M70.1617 239.065C70.9417 233.375 71.6017 227.675 72.3717 221.975C72.4217 221.595 71.8517 221.235 71.6617 221.685C69.3041 227.155 68.4814 233.163 69.2817 239.065C69.3407 239.259 69.5193 239.391 69.7217 239.391C69.9241 239.391 70.1027 239.259 70.1617 239.065Z" fill="#231F20"/>
<path d="M69.4013 242.676C67.3313 250.786 70.7513 259.086 73.6413 266.556C76.7513 274.556 79.5513 282.996 83.4713 290.676C83.8013 291.326 84.8213 290.876 84.6313 290.186C80.2013 274.376 70.0513 259.656 70.3413 242.806C70.3378 242.569 70.1619 242.37 69.9271 242.337C69.6922 242.305 69.4689 242.448 69.4013 242.676Z" fill="#231F20"/>
<path d="M27.0014 238.985C23.5214 242.765 21.3814 248.095 19.5114 252.825C17.4972 257.968 15.9542 263.283 14.9014 268.705C12.9014 279.055 12.1214 290.555 14.8314 300.845C14.8701 300.992 15.0117 301.086 15.1617 301.066C15.3117 301.045 15.423 300.917 15.4214 300.765C15.0014 289.865 14.6614 279.425 16.9314 268.655C17.984 263.63 19.4489 258.7 21.3114 253.915C23.2414 248.995 26.1314 244.435 27.9014 239.475C28.0367 239.227 27.9449 238.916 27.6964 238.78C27.4478 238.645 27.1367 238.737 27.0014 238.985Z" fill="#231F20"/>
<path d="M40.4214 220.925C38.5014 221.585 37.0914 223.305 35.8514 224.835C34.5395 226.41 33.5231 228.209 32.8514 230.145C32.7314 230.515 33.2614 230.855 33.5214 230.535C34.8014 228.965 35.9114 227.275 37.2114 225.715C38.5114 224.155 39.9614 223.055 40.8414 221.415C40.9014 221.175 40.7114 220.845 40.4214 220.925Z" fill="#231F20"/>
</svg>
