<svg width="532" height="587" viewBox="0 0 532 587" fill="none" xmlns="http://www.w3.org/2000/svg">
<path d="M147.192 280.8C147.302 280.88 147.432 280.95 147.562 281.03C148.098 281.038 148.633 280.998 149.162 280.91C149.162 280.69 149.162 280.46 149.162 280.24C149.165 279.649 148.998 279.069 148.682 278.57C148.302 278.105 147.692 277.896 147.106 278.029C146.521 278.163 146.062 278.616 145.922 279.2C146.189 279.84 146.629 280.394 147.192 280.8Z" fill="white"/>
<path d="M430.522 76.5202C433.81 68.4569 436.681 60.2293 439.122 51.8702C441.362 44.1402 443.372 35.5302 441.122 27.5602C438.612 18.5602 430.312 14.1702 422.122 11.1702C413.632 8.05021 403.362 5.27021 394.272 6.71021C389.482 7.47021 384.272 10.3602 383.622 15.7102C383.062 20.5802 387.782 23.8102 391.372 26.1502C395.31 28.7354 399.592 30.7551 404.092 32.1502C407.182 33.1502 410.752 33.4402 413.432 35.4102C419.502 39.8902 416.342 48.1402 414.372 53.9002C412.102 60.5202 409.742 68.3902 403.962 72.8202C390.232 83.3602 374.752 69.7202 361.132 67.0402C355.382 65.9102 347.912 67.9002 351.622 75.1902C353.152 78.1902 355.942 80.4902 358.772 82.1902C364.342 85.6402 370.722 87.4902 376.602 90.3402C381.982 92.9402 387.712 96.7202 390.262 102.34C393.552 109.61 387.812 116.63 384.202 122.63C375.032 137.88 364.812 152.86 352.882 166.11C358.878 170.911 364.573 176.077 369.932 181.58C392.522 148.1 415.322 114.12 430.522 76.5202Z" fill="#754C29"/>
<path fill-rule="evenodd" clip-rule="evenodd" d="M195.951 321.62C185.288 321.326 174.7 319.734 164.421 316.88C154.321 314.05 144.631 309.7 138.391 300.77C127.851 285.52 130.521 263.72 143.851 251.02C144.48 250.476 144.707 249.601 144.421 248.82C162.061 229.28 188.521 217.58 212.971 209.12C246.361 197.59 287.431 193.43 317.631 215.59C331.481 225.7 338.611 241.36 333.971 258.23C329.331 275.1 316.091 287.15 301.231 295.37C285.581 304.03 268.071 309.95 250.841 314.56C232.951 319.34 214.491 322.2 195.951 321.62ZM313.181 249.94C313.276 248.826 312.798 247.741 311.911 247.06C310.6 246.035 308.731 246.146 307.551 247.32C306.52 248.396 306.31 250.017 307.031 251.32C307.643 252.385 308.806 253.009 310.031 252.93C310.247 252.955 310.465 252.955 310.681 252.93C311.32 252.866 311.917 252.583 312.371 252.13C312.926 251.539 313.218 250.75 313.181 249.94ZM292.031 236.7C293.141 231.94 298.101 230.14 302.381 231.7C302.633 231.793 302.87 231.925 303.081 232.09C305.105 233.125 306.632 234.925 307.321 237.09C308.631 241.98 304.201 246.92 299.261 246.65C296.919 246.428 294.784 245.211 293.401 243.307C292.017 241.403 291.519 238.997 292.031 236.7ZM214.821 272.7C207.691 274.47 204.401 265.93 202.821 260.7C202.111 258.31 198.111 258.62 198.341 261.21C199.091 270.69 206.171 281.52 217.091 278.21C228.881 274.63 224.911 258.39 221.021 250.48C219.291 246.96 214.081 250.04 215.771 253.56C217.921 258.04 222.551 270.82 214.821 272.7ZM151.541 302.6C147.261 302.6 147.271 295.95 151.541 295.95C155.811 295.95 155.821 302.58 151.541 302.58V302.6ZM147.391 271.91C143.561 270.74 140.861 273.61 140.141 277V276.98C139.76 278.019 139.606 279.127 139.691 280.23C140.129 283.844 142.938 286.714 146.541 287.23C149.121 288.27 152.001 288.17 153.851 286.1C155.701 284.03 155.521 280.21 154.851 277.69C154.147 275.066 152.128 272.998 149.521 272.23C148.831 272.018 148.113 271.91 147.391 271.91Z" fill="white"/>
<path d="M299.261 240.42C300.161 240.62 301.461 239.6 301.181 238.64C300.901 237.68 299.611 237.47 298.521 237.25C297.631 238.44 297.551 240.04 299.261 240.42Z" fill="white"/>
<path fill-rule="evenodd" clip-rule="evenodd" d="M103.333 277.07C104.163 274.85 101.693 272.82 99.633 273.37C97.0368 274.051 94.5658 275.141 92.313 276.6C104.058 231.999 131.411 193.09 169.403 166.94C170.293 166.364 170.795 165.347 170.713 164.29C171.042 163.291 170.706 162.193 169.873 161.55C163.695 156.134 155.259 154.08 147.283 156.05C159.413 136.77 182.783 125.22 205.673 128.9C206.7 129.163 207.789 128.864 208.538 128.115C209.287 127.366 209.586 126.277 209.323 125.25C208.364 120.738 206.477 116.474 203.783 112.73C215.637 117.25 225.565 125.729 231.883 136.73C232.748 138.163 234.597 138.646 236.053 137.82C257.947 124.848 285.004 124.166 307.523 136.02L299.913 136.7C298.415 136.749 297.172 137.873 296.972 139.358C296.771 140.843 297.672 142.255 299.103 142.7C348.633 160.43 388.333 200.85 406.003 250.19C397.71 246.377 389.436 242.517 381.183 238.61C379.223 237.69 375.993 239.29 376.993 241.83C390.711 275.396 412.412 305.109 440.213 328.39C433.367 327.049 426.744 324.746 420.543 321.55C417.633 320.05 414.463 323.76 416.953 326.21C432.671 341.641 452.247 352.566 473.633 357.84C484.049 360.431 494.763 361.625 505.493 361.39C511.513 361.25 518.183 360.88 523.633 358.32C518.383 379.682 509.067 399.833 496.193 417.67C494.373 420.24 497.893 423.31 500.373 421.85C502.834 420.411 505.175 418.775 507.373 416.96C496.307 447.045 481.231 475.498 462.553 501.55C460.973 503.82 463.603 506.56 465.973 505.99C468.896 505.276 471.74 504.271 474.463 502.99C464.233 516.36 451.633 527.84 438.403 538.36C429.463 545.47 420.293 552.41 410.913 558.93C400.923 565.88 389.903 572.09 377.323 570.57C373.823 570.17 373.333 575.64 376.513 576.57L386.243 579.44C352.011 580.756 317.775 576.94 284.673 568.12C264.783 562.83 245.613 555.46 226.783 547.12C221.37 544.728 215.908 542.393 210.438 540.056C197.368 534.471 184.257 528.868 171.673 522.41C153.533 513.1 136.183 499.28 131.823 478.28C131.193 475.23 126.703 475.5 125.913 478.28C122.971 488.63 121.398 499.321 121.233 510.08C99.093 468.43 91.053 419.43 99.713 372.95C100.283 369.91 95.953 367.53 94.363 370.7L83.233 392.93C82.993 353.47 89.463 314.07 103.333 277.07ZM476.833 386.97C470.003 392.65 462.483 398.17 453.483 399.17H453.473C452.693 399.26 452.633 400.49 453.483 400.4C464.573 399.66 473.023 393.18 481.273 386.31C481.583 385.965 481.666 385.472 481.486 385.044C481.306 384.617 480.896 384.331 480.433 384.31C478.525 384.453 476.603 384.493 474.68 384.534C472.029 384.59 469.378 384.645 466.763 384.97C465.923 385.07 465.543 386.41 466.543 386.61C469.942 387.185 473.402 387.306 476.833 386.97ZM401.973 448.31C412.543 451.31 423.883 447.61 434.413 443.97C432.073 443.97 429.723 443.87 427.413 443.65C426.701 443.65 426.123 443.073 426.123 442.36C426.123 441.648 426.701 441.07 427.413 441.07C431.195 440.814 435.025 440.932 438.832 441.049H438.833H438.833H438.834H438.835H438.835H438.836H438.837H438.837H438.838H438.839H438.839C440.245 441.093 441.647 441.136 443.043 441.16C443.742 441.174 444.328 441.694 444.422 442.388C444.517 443.081 444.093 443.739 443.423 443.94C441.375 444.567 439.277 445.263 437.143 445.971C425.659 449.78 413.127 453.937 401.633 449.56C400.853 449.27 401.143 448.08 401.963 448.31H401.973ZM132.732 348.841L132.732 348.841C133.987 346.229 135.244 343.614 136.113 340.88C136.176 340.642 136.073 340.392 135.862 340.266C135.651 340.141 135.381 340.171 135.203 340.34C132.869 342.969 131.036 346.002 129.793 349.29C129.636 341.974 130.819 334.691 133.283 327.8C133.433 327.38 132.783 327.22 132.633 327.62C129.29 336.128 127.698 345.223 127.953 354.36C127.98 354.892 128.381 355.33 128.909 355.404C129.437 355.477 129.942 355.165 130.113 354.66C130.881 352.691 131.806 350.767 132.732 348.841ZM185.113 402.52C177.023 396.61 171.583 388.26 171.713 377.98C171.757 377.597 172.082 377.307 172.468 377.307C172.854 377.307 173.179 377.597 173.223 377.98C174.133 385.62 177.593 392.98 183.593 397.8C182.593 392.47 182.063 386.8 183.393 381.62C183.733 380.3 185.513 380.71 185.633 381.92C185.838 384.106 185.94 386.262 186.042 388.408C186.238 392.535 186.432 396.622 187.353 400.8C187.633 401.98 186.243 403.36 185.083 402.52H185.113ZM201.193 478.52C204.315 490.13 211.709 500.131 221.893 506.52L221.863 506.55C222.843 507.17 224.433 506.11 223.993 504.86C223.71 504.14 223.43 503.411 223.149 502.679L223.148 502.676L223.147 502.673L223.146 502.673C221.691 498.882 220.196 494.991 217.993 491.64C217.764 491.154 217.192 490.935 216.698 491.145C216.203 491.355 215.963 491.918 216.153 492.42C216.924 495.482 217.989 498.463 219.333 501.32C211.441 495.527 205.509 487.46 202.333 478.2C202.245 477.885 201.918 477.702 201.603 477.79C201.288 477.878 201.105 478.205 201.193 478.52ZM281.653 437.52C269.263 434.8 262.653 419.43 260.653 408.2C260.595 407.838 260.819 407.489 261.173 407.392C261.527 407.294 261.897 407.479 262.033 407.82C264.773 416.92 269.853 429.91 279.503 433.82C277.823 429.64 276.503 425.14 276.783 420.7C276.708 420.148 277.096 419.64 277.648 419.565C278.2 419.491 278.708 419.878 278.783 420.43C279.45 422.456 279.982 424.494 280.512 426.528C281.318 429.616 282.121 432.696 283.393 435.71C283.863 436.88 282.573 437.77 281.633 437.56L281.653 437.52ZM372.433 317.39C368.059 316.555 364.144 314.142 361.433 310.61C360.993 310.05 360.093 310.77 360.453 311.37C363.497 316.453 368.8 319.761 374.703 320.26C375.763 320.37 376.193 319.1 375.813 318.31C375.567 317.791 375.327 317.258 375.087 316.721C374.233 314.819 373.358 312.87 372.063 311.31C371.353 310.46 370.153 311.4 370.353 312.31C370.818 314.088 371.518 315.796 372.433 317.39ZM349.373 213.25C350.785 213.305 351.868 213.937 353.031 214.616L353.032 214.617C353.359 214.808 353.693 215.003 354.043 215.19C354.353 215.352 354.745 215.624 355.137 215.896C355.618 216.23 356.098 216.563 356.423 216.69L356.013 215.89C355.833 215.545 355.643 215.206 355.454 214.867L355.454 214.867L355.343 214.667C355.306 214.602 355.269 214.536 355.233 214.47C354.614 213.386 353.899 212.295 353.173 211.188C351.556 208.721 349.889 206.176 349.123 203.47C349.013 203.09 349.473 202.68 349.823 202.93C352.154 204.556 353.826 207.271 355.347 209.741C355.575 210.111 355.8 210.475 356.023 210.83C356.256 211.201 356.552 211.621 356.872 212.072L356.874 212.075L356.876 212.078L356.877 212.078C358.055 213.741 359.542 215.84 359.283 217.6C359.023 219.39 357.493 219.65 356.013 219.13C353.623 218.29 350.013 216.76 348.593 214.56C348.452 214.284 348.462 213.956 348.621 213.689C348.779 213.423 349.063 213.257 349.373 213.25ZM357.293 497.73C354.08 495.991 351.063 493.913 348.293 491.53C348.013 491.285 347.601 491.269 347.302 491.49C347.004 491.712 346.9 492.111 347.053 492.45C348.713 495.87 351.963 498.1 355.263 499.81C357.121 500.943 359.1 501.866 361.163 502.56C361.616 502.658 362.08 502.698 362.543 502.68L361.953 502.76C361.26 502.857 360.58 502.967 359.901 503.077L359.9 503.077C358.687 503.273 357.475 503.468 356.193 503.59C345.003 504.65 329.903 503.79 320.953 496.18C320.263 495.65 319.303 496.57 319.953 497.18C329.853 506.51 347.043 507.66 359.853 505.89C359.996 505.868 360.16 505.844 360.342 505.817C362.581 505.494 367.385 504.8 364.943 501.59C363.938 500.264 361.7 499.443 359.723 498.717L359.722 498.717C358.807 498.381 357.948 498.065 357.293 497.73ZM336.743 376.9C324.533 371.39 316.263 360.24 312.813 347.55C312.749 347.175 312.98 346.814 313.347 346.713C313.713 346.612 314.096 346.806 314.233 347.16C317.46 357.249 324.114 365.892 333.043 371.59C333.059 371.6 333.077 371.611 333.096 371.623C333.116 371.636 333.138 371.649 333.161 371.664C333.203 371.691 333.25 371.721 333.302 371.754L333.406 371.821C334.957 372.812 339.457 375.691 340.323 374.37C340.498 374.095 338.335 370.934 337.103 369.135C336.72 368.576 336.427 368.148 336.323 367.98L336.266 367.878C334.212 364.155 331.968 360.091 331.413 355.84C331.273 354.77 332.773 354.62 333.263 355.34C334.734 357.473 335.835 359.877 336.935 362.28L336.935 362.28C337.697 363.945 338.459 365.609 339.343 367.18C339.737 367.877 340.298 368.645 340.885 369.448L340.885 369.448C342.117 371.133 343.461 372.971 343.603 374.63C344.023 379.02 339.423 378.11 336.743 376.9ZM284.313 166.22C278.725 162.882 272.798 160.147 266.633 158.06C266.123 157.88 265.923 158.7 266.423 158.97C271.33 160.912 276.069 163.253 280.593 165.97C281.157 166.31 281.802 166.681 282.497 167.079L282.497 167.08C286.192 169.199 291.29 172.124 292.973 175.65C288.211 175.578 283.51 174.576 279.133 172.7C277.963 172.16 277.133 174.14 278.273 174.7C283.309 177.175 288.92 178.243 294.513 177.79C294.852 177.785 295.17 177.625 295.377 177.356C295.583 177.088 295.656 176.739 295.573 176.41C294.474 172.188 289.699 169.389 285.902 167.163L285.902 167.163C285.347 166.837 284.812 166.524 284.313 166.22ZM180.993 184.23C186.018 176.932 193.635 171.822 202.293 169.94C202.682 169.832 203.085 170.061 203.193 170.45C203.301 170.839 203.072 171.242 202.683 171.35C195.914 173.136 189.832 176.9 185.213 182.16C187.888 180.901 190.665 179.871 193.513 179.08C193.839 178.998 194.176 179.167 194.306 179.477C194.436 179.787 194.32 180.145 194.033 180.32C191.18 182.095 188.009 183.372 184.873 184.634C183.964 185 183.058 185.365 182.163 185.74C181.343 186.09 180.513 184.92 181.003 184.23H180.993ZM126.158 271.214C132.331 250.822 147.978 235.467 165.673 224.42C185.273 212.18 208.233 203.12 230.673 197.73C250.263 193.02 270.863 191.78 290.573 196.59C307.763 200.78 325.623 209.85 335.413 225.16C345.053 240.24 342.943 259.16 334.043 274.04C324.333 290.28 307.503 300.31 290.533 307.54C252.843 323.6 209.533 333.84 168.783 324.54C150.353 320.35 133.243 311.54 127.443 292.24C125.574 285.96 125.252 279.322 126.503 272.89C126.08 272.441 125.947 271.793 126.158 271.214Z" fill="#00AEEF"/>
<path d="M27.6315 45.7002C19.8915 52.2702 12.8415 60.0902 9.17154 69.7002C1.10154 90.8602 15.5315 107.91 28.7515 122.91C42.0496 138.011 56.2418 152.3 71.2515 165.7C78.8382 172.5 86.6482 179.064 94.6815 185.39C99.0482 188.85 103.478 192.237 107.972 195.55C111.272 197.99 117.272 204.14 121.812 203.55C124.565 200.03 127.435 196.604 130.422 193.27C107.627 178.274 89.8601 156.779 79.4215 131.57C77.1915 126.14 76.5415 121 81.3315 116.8C86.1215 112.6 91.8215 110.62 93.1415 103.33C93.4815 101.41 93.6615 101.18 92.0415 99.7902C89.9115 97.9502 91.2415 98.9102 89.4115 98.9802C87.5815 99.0502 85.0915 100.57 83.4115 101.35C80.4653 102.722 77.6388 104.338 74.9615 106.18C70.2515 109.39 66.8715 112.63 61.5815 108.51C50.9915 100.33 42.6315 88.3302 36.8115 76.4402C36.1347 75.2214 36.3336 73.7035 37.3015 72.7002C46.3015 65.2002 55.8215 57.4302 63.4515 48.4902C66.9515 44.3902 70.3015 38.2402 67.5415 32.8702C64.9815 27.8702 58.6615 27.3002 53.8215 28.6002C48.6615 29.9802 44.1315 33.4202 39.8215 36.4602C35.5115 39.5002 31.5415 42.3802 27.6315 45.7002Z" fill="#754C29"/>
<path fill-rule="evenodd" clip-rule="evenodd" d="M153.851 286.08C151.921 288.21 149.121 288.21 146.541 287.21C142.938 286.694 140.129 283.824 139.691 280.21C139.609 279.114 139.763 278.012 140.141 276.98C140.861 273.59 143.561 270.72 147.391 271.89C148.113 271.89 148.831 271.998 149.521 272.21C152.128 272.978 154.147 275.046 154.851 277.67C155.521 280.19 155.781 283.95 153.851 286.08ZM149.151 280.24C149.154 279.649 148.988 279.069 148.671 278.57H148.631C148.249 278.123 147.649 277.925 147.075 278.058C146.502 278.19 146.049 278.63 145.901 279.2C146.172 279.842 146.615 280.396 147.181 280.8C147.257 280.855 147.342 280.905 147.429 280.957C147.47 280.981 147.511 281.005 147.551 281.03C148.087 281.038 148.623 280.998 149.151 280.91V280.24Z" fill="#231F20"/>
<path d="M151.542 295.93C147.272 295.93 147.262 302.58 151.542 302.58C155.822 302.58 155.822 295.93 151.542 295.93Z" fill="#231F20"/>
<path fill-rule="evenodd" clip-rule="evenodd" d="M307.323 237.14C308.633 242.03 304.203 246.97 299.263 246.7C296.92 246.478 294.786 245.261 293.402 243.357C292.019 241.453 291.52 239.047 292.033 236.75C293.143 232.03 298.103 230.23 302.383 231.75C302.635 231.843 302.871 231.975 303.083 232.14C305.107 233.175 306.633 234.975 307.323 237.14ZM298.687 237.333C298.632 237.322 298.577 237.311 298.523 237.3V237.25C297.633 238.44 297.553 240.04 299.263 240.47C300.183 240.69 301.463 239.65 301.183 238.69C300.917 237.778 299.739 237.543 298.687 237.333Z" fill="#231F20"/>
<path d="M307.041 251.33C307.652 252.395 308.816 253.019 310.041 252.94C310.257 252.965 310.475 252.965 310.691 252.94C311.33 252.876 311.927 252.593 312.381 252.14C312.936 251.549 313.228 250.76 313.191 249.95C313.299 248.573 312.542 247.274 311.29 246.691C310.038 246.107 308.556 246.362 307.571 247.33C306.537 248.403 306.322 250.025 307.041 251.33Z" fill="#231F20"/>
<path d="M217.073 278.24C228.863 274.66 224.893 258.42 221.003 250.51C219.273 246.99 214.063 250.07 215.753 253.59C217.903 258.07 222.533 270.85 214.803 272.73C207.693 274.45 204.403 265.91 202.803 260.73C202.093 258.36 198.093 258.67 198.303 261.34C199.073 270.7 206.153 281.55 217.073 278.24Z" fill="#231F20"/>
<path fill-rule="evenodd" clip-rule="evenodd" d="M168.782 324.54C150.352 320.35 133.242 311.52 127.442 292.24C125.575 285.971 125.249 279.343 126.492 272.92C126.066 272.468 125.934 271.812 126.152 271.23C132.322 250.83 147.972 235.47 165.672 224.42C185.282 212.18 208.243 203.12 230.673 197.73C250.263 193.02 270.862 191.78 290.572 196.59C307.762 200.78 325.622 209.85 335.412 225.16C345.042 240.24 342.942 259.15 334.042 274.04C324.332 290.28 307.533 300.31 290.533 307.54C252.842 323.54 209.512 333.81 168.782 324.54ZM144.452 248.82C144.738 249.601 144.511 250.477 143.882 251.02C130.552 263.7 127.862 285.52 138.422 300.77C144.582 309.65 154.322 314.05 164.423 316.88C174.701 319.734 185.289 321.326 195.952 321.62C214.492 322.2 232.963 319.34 250.842 314.56C268.072 309.95 285.582 304.03 301.232 295.37C316.092 287.15 329.283 275.17 333.973 258.23C338.662 241.29 331.482 225.74 317.663 215.59C287.462 193.43 246.392 197.57 213.002 209.12C188.552 217.58 162.092 229.28 144.452 248.82Z" fill="#231F20"/>
<path fill-rule="evenodd" clip-rule="evenodd" d="M0.982097 77.4202C2.4921 66.6002 8.1421 56.9502 15.4221 48.9502C23.7652 40.1431 33.3294 32.5793 43.8221 26.4902C51.5621 21.9202 62.2321 19.3202 69.7221 25.9202C77.4321 32.7202 74.8221 43.7602 69.2821 50.9802C62.5954 59.702 53.6131 67.1925 45.0985 74.2929L45.0948 74.296C44.5316 74.7656 43.9704 75.2336 43.4121 75.7002C46.7974 82.2018 50.9249 88.2891 55.7121 93.8402C58.2147 96.7352 60.886 99.48 63.7121 102.06C65.4821 103.69 66.3421 104.28 68.4821 103.15C69.4183 102.653 70.2977 101.959 71.1725 101.269C71.8114 100.765 72.4478 100.262 73.1021 99.8402C79.4421 95.7402 97.7521 85.3502 99.6621 99.2102C100.392 104.53 98.1921 110.22 94.8821 114.29C93.0476 116.394 90.8908 118.193 88.4921 119.62C84.7421 122.04 83.3521 124 85.0121 128.48C94.1321 153.01 113.102 174.42 134.842 188.56C143.526 179.485 153.063 171.267 163.322 164.02C156.673 159.998 148.245 160.429 142.042 165.11C140.022 166.6 136.632 164.08 137.632 161.72C148.372 136.28 175.092 120.34 202.372 122.57C200.429 117.238 196.87 112.644 192.192 109.43C190.974 108.637 190.5 107.086 191.066 105.748C191.631 104.409 193.075 103.669 194.492 103.99C211.38 106.842 226.292 116.662 235.582 131.05C261.84 116.847 293.85 118.598 318.402 135.58C319.546 136.29 320.089 137.666 319.738 138.965C319.388 140.265 318.227 141.181 316.882 141.22L312.712 141.61C325.685 147.376 337.941 154.635 349.232 163.24C350.458 161.579 351.688 159.921 352.918 158.264L352.919 158.262L352.921 158.26L352.921 158.26L352.921 158.259C358.242 151.091 363.556 143.929 368.502 136.49C371.672 131.71 374.752 126.89 377.752 121.98C378.249 121.158 378.897 120.198 379.605 119.151L379.608 119.146L379.608 119.146C382.344 115.093 385.966 109.729 385.172 105.98C383.671 99.1555 374.48 95.5839 367.875 93.0174C366.825 92.6093 365.84 92.2265 364.962 91.8602C358.252 89.0602 351.252 85.7402 347.182 79.4102C343.912 74.3302 343.222 66.6702 348.762 62.8502C355.702 58.0602 365.602 61.6802 372.502 64.5902C373.452 64.9931 374.43 65.427 375.431 65.8709C382.402 68.9637 390.464 72.5409 397.792 69.4802C402.792 67.3502 404.942 62.0202 406.792 57.2302C407.12 56.3763 407.499 55.4661 407.893 54.5206C409.327 51.0814 410.955 47.1751 411.002 43.8102C411.047 39.8062 406.203 38.594 402.149 37.5796C400.827 37.2488 399.589 36.9389 398.632 36.5602C394.789 35.0673 391.121 33.1593 387.692 30.8702C382.112 27.1102 376.462 21.9002 377.742 14.4902C380.952 -4.00984 406.032 0.000160098 418.662 3.70016C426.522 5.99016 435.072 9.20016 440.912 15.2002C446.202 20.6202 448.292 28.0502 448.202 35.4902C448.092 43.9502 445.602 52.2002 443.032 60.2002C440.212 69.0102 436.862 77.6602 433.212 86.1502C417.872 121.82 396.102 154.17 374.492 186.26L374.422 186.34C392.437 206.023 405.878 229.445 413.782 254.93C414.582 257.55 411.662 259.24 409.492 258.24C401.452 254.414 393.409 250.617 385.362 246.85C400.308 279.573 423.023 308.149 451.532 330.09C453.562 331.65 453.272 335.71 450.072 335.5C444.727 335.146 439.427 334.289 434.242 332.94C445.305 340.913 457.659 346.921 470.762 350.7C480.033 353.391 489.604 354.916 499.252 355.24C499.797 355.258 500.366 355.279 500.956 355.301L500.962 355.301C509.126 355.607 521.22 356.059 525.882 348.74C526.688 347.458 528.304 346.948 529.699 347.537C531.095 348.125 531.858 349.638 531.502 351.11C528.175 368.604 522.206 385.491 513.802 401.19C515.952 400.17 519.022 401.83 518.122 404.62C507.606 437.415 492.452 468.537 473.122 497.04C477.363 494.885 481.17 491.966 484.352 488.43C486.712 485.82 490.762 489.18 489.102 492.09C477.042 513.23 459.202 529.93 440.202 544.81C430.762 552.24 421.202 559.64 411.202 566.24C405.662 570.082 399.6 573.113 393.202 575.24L404.712 578.61C408.212 579.61 407.222 584.31 403.892 584.61C380.171 586.773 356.29 586.468 332.632 583.7C312.274 581.32 292.166 577.147 272.542 571.23C252.172 565.08 232.692 556.67 213.302 547.96C208.651 545.87 203.706 543.804 198.622 541.681C171.677 530.426 140.836 517.545 129.302 490.7C127.383 501.132 126.882 511.775 127.812 522.34C128.072 525.5 123.602 526.3 122.122 523.88C97.6928 483.556 86.9946 436.399 91.6321 389.48C88.8054 395.193 85.9721 400.9 83.1321 406.6C81.7221 409.43 77.6421 407.86 77.5121 405.08C75.5521 363.23 81.9821 321.54 95.3321 281.92C92.9174 283.606 90.9171 285.818 89.4821 288.39C87.6821 291.56 83.2321 289.3 83.8821 286.02C89.4709 258.113 101.073 231.758 117.882 208.79C114.699 207.832 111.859 205.694 109.072 203.596L109.072 203.595C108.427 203.11 107.785 202.626 107.142 202.16C101.715 198.28 96.3821 194.28 91.1421 190.16C80.1354 181.493 69.5121 172.397 59.2721 162.87C50.0921 154.324 41.2421 145.45 32.7221 136.25C32.3383 135.836 31.9539 135.421 31.5691 135.006C23.8618 126.694 15.9858 118.2 9.6521 108.79C3.3721 99.4202 -0.597903 88.7702 0.982097 77.4202ZM385.857 120.133C385.301 121.007 384.756 121.863 384.252 122.7C375.082 137.91 364.862 152.89 352.942 166.13C358.939 170.931 364.633 176.097 369.992 181.6C392.532 148.09 415.332 114.11 430.532 76.5102C433.821 68.4469 436.691 60.2193 439.132 51.8602C441.342 44.1302 443.352 35.5502 441.132 27.5502C438.602 18.5602 430.302 14.1602 422.132 11.1602C413.642 8.04016 403.372 5.26016 394.282 6.70016C389.492 7.48016 384.242 10.3702 383.632 15.7002C383.112 20.5602 387.832 23.7902 391.422 26.2202C395.361 28.8054 399.642 30.8251 404.142 32.2202C405.033 32.4969 405.963 32.7188 406.901 32.9424C409.216 33.4944 411.575 34.0567 413.482 35.4802C419.355 39.8242 416.616 47.6784 414.62 53.4008C414.553 53.593 414.487 53.7829 414.422 53.9702C414.268 54.4182 414.114 54.8721 413.959 55.3302L413.957 55.335C411.816 61.6434 409.4 68.7611 404.012 72.8902C394.438 80.2401 384.012 75.8318 373.96 71.5812C369.597 69.7364 365.304 67.9213 361.182 67.1102C355.432 65.9802 347.962 67.9702 351.672 75.2602C353.202 78.2602 355.992 80.5202 358.822 82.2602C362.252 84.3849 365.99 85.9028 369.729 87.4211L369.729 87.4213C372.061 88.3683 374.393 89.3154 376.652 90.4102C382.032 92.9902 387.762 96.7702 390.312 102.41C393.143 108.683 389.288 114.742 385.857 120.133ZM169.402 166.93C170.292 166.354 170.794 165.337 170.712 164.28C171.042 163.281 170.705 162.183 169.872 161.54C163.694 156.124 155.258 154.071 147.282 156.04C159.412 136.76 182.782 125.21 205.672 128.89C206.699 129.153 207.788 128.854 208.537 128.105C209.286 127.356 209.585 126.267 209.322 125.24C208.366 120.721 206.479 116.45 203.782 112.7C215.636 117.22 225.564 125.699 231.882 136.7C232.747 138.133 234.596 138.616 236.052 137.79C257.946 124.818 285.003 124.136 307.522 135.99L299.912 136.67C298.414 136.72 297.171 137.843 296.971 139.328C296.77 140.813 297.671 142.225 299.102 142.67C348.602 160.42 388.332 200.84 406.022 250.18C397.735 246.347 389.462 242.487 381.202 238.6C379.202 237.68 375.982 239.28 377.012 241.82C390.731 275.386 412.431 305.099 440.232 328.38C433.386 327.039 426.764 324.736 420.562 321.54C417.652 320.04 414.482 323.75 416.972 326.2C432.683 341.632 452.252 352.56 473.632 357.84C484.035 360.428 494.735 361.622 505.452 361.39C511.452 361.25 518.142 360.88 523.592 358.32C518.373 379.686 509.088 399.847 496.242 417.7C494.402 420.27 497.942 423.34 500.422 421.88C502.883 420.441 505.224 418.805 507.422 416.99C496.356 447.075 481.28 475.529 462.602 501.58C460.982 503.85 463.652 506.58 466.022 506.02C468.945 505.306 471.789 504.301 474.512 503.02C464.282 516.41 451.682 527.87 438.452 538.39C429.512 545.5 420.342 552.39 410.962 558.96C400.962 565.91 389.962 572.12 377.372 570.6C373.872 570.18 373.372 575.6 376.562 576.6L386.292 579.47C352.032 580.808 317.765 577.006 284.632 568.19C264.712 562.86 245.572 555.49 226.742 547.19C221.329 544.798 215.866 542.463 210.397 540.126C197.327 534.541 184.216 528.938 171.632 522.48C153.492 513.17 136.142 499.31 131.782 478.35C131.152 475.3 126.662 475.57 125.872 478.35C122.93 488.7 121.357 499.391 121.192 510.15C99.0521 468.5 91.0121 419.5 99.6721 373.02C100.242 370.02 95.9121 367.6 94.3221 370.77L83.1821 392.97C82.9421 353.51 89.4121 314.14 103.282 277.11C104.112 274.89 101.642 272.86 99.5821 273.41C96.99 274.089 94.5225 275.176 92.2721 276.63C104.019 232.008 131.387 193.083 169.402 166.93ZM63.4521 48.4502C66.9521 44.3502 70.3021 38.2002 67.5421 32.8302C64.9821 27.8702 58.6321 27.2602 53.8221 28.5802C49.1683 29.8224 44.9439 32.8148 41.0907 35.5443C40.6633 35.8471 40.2404 36.1466 39.8221 36.4402C35.6321 39.3802 31.5321 42.4002 27.6321 45.7002C19.8921 52.2702 12.8421 60.0902 9.1721 69.7002C1.1021 90.8902 15.5321 107.94 28.7121 123.02C42.0108 138.114 56.2029 152.396 71.2121 165.79C78.8321 172.583 86.6421 179.143 94.6421 185.47C99.0088 188.91 103.439 192.297 107.932 195.63C108.646 196.15 109.487 196.845 110.413 197.61C113.761 200.379 118.215 204.061 121.772 203.63C124.525 200.11 127.395 196.683 130.382 193.35C107.588 178.354 89.8207 156.859 79.3821 131.65C77.1521 126.22 76.3721 121.21 81.2921 116.88C82.5575 115.766 83.866 114.817 85.1341 113.897C88.7962 111.239 92.1216 108.825 93.1021 103.41C93.1254 103.278 93.148 103.155 93.1693 103.038C93.4583 101.453 93.5109 101.165 92.0021 99.8702C90.9311 98.9601 90.745 98.7452 90.5869 98.7642C90.4307 98.783 90.3018 99.0303 89.3721 99.0602C87.9531 99.1057 86.2117 99.9976 84.7115 100.766C84.2346 101.01 83.7821 101.242 83.3721 101.43C80.4259 102.802 77.5994 104.418 74.9221 106.26C74.4525 106.58 73.9961 106.901 73.5497 107.214C69.5191 110.043 66.3047 112.299 61.5421 108.59C50.9921 100.37 42.6521 88.3702 36.8121 76.4802C36.1151 75.2517 36.3149 73.7103 37.3021 72.7002C37.8798 72.2168 38.4595 71.7324 39.0406 71.2468C47.5238 64.159 56.3113 56.817 63.4521 48.4502Z" fill="#231F20"/>
<path d="M185.631 381.92C185.511 380.71 183.731 380.3 183.391 381.62C182.061 386.78 182.571 392.47 183.591 397.8C177.591 393 174.131 385.62 173.221 377.98C173.177 377.597 172.852 377.307 172.466 377.307C172.08 377.307 171.755 377.597 171.711 377.98C171.581 388.26 177.021 396.61 185.111 402.52C186.271 403.36 187.611 401.98 187.351 400.8C185.921 394.45 186.201 388.31 185.631 381.92Z" fill="#231F20"/>
<path d="M333.302 355.34C332.812 354.62 331.302 354.77 331.452 355.84C332.012 360.13 334.292 364.23 336.362 367.98C336.762 368.69 340.552 373.98 340.362 374.37C339.412 375.82 334.052 372.21 333.082 371.59C324.153 365.892 317.499 357.249 314.272 347.16C314.135 346.806 313.752 346.612 313.386 346.713C313.019 346.814 312.789 347.175 312.852 347.55C316.302 360.24 324.572 371.39 336.782 376.9C339.462 378.11 344.062 379.02 343.682 374.63C343.472 372.17 340.682 369.34 339.422 367.18C337.222 363.34 335.792 358.95 333.302 355.34Z" fill="#231F20"/>
<path d="M374.702 320.25C375.762 320.36 376.192 319.09 375.812 318.3C374.692 315.95 373.722 313.3 372.062 311.3C371.362 310.45 370.152 311.39 370.352 312.3C370.818 314.078 371.517 315.786 372.432 317.38C368.059 316.545 364.144 314.132 361.432 310.6C360.992 310.04 360.092 310.76 360.432 311.35C363.478 316.442 368.79 319.755 374.702 320.25Z" fill="#231F20"/>
<path d="M278.792 420.51C278.717 419.958 278.209 419.571 277.657 419.645C277.104 419.72 276.717 420.228 276.792 420.78C276.502 425.22 277.792 429.72 279.512 433.9C269.862 429.95 264.782 416.96 262.042 407.9C261.906 407.559 261.535 407.374 261.181 407.472C260.827 407.569 260.603 407.918 260.662 408.28C262.662 419.51 269.252 434.88 281.662 437.6C282.612 437.81 283.902 436.92 283.442 435.83C281.292 430.79 280.472 425.61 278.792 420.51Z" fill="#231F20"/>
<path d="M217.922 491.7C217.693 491.214 217.121 490.995 216.627 491.205C216.132 491.415 215.891 491.978 216.082 492.48C216.853 495.542 217.917 498.523 219.262 501.38C211.37 495.587 205.438 487.52 202.262 478.26C202.173 477.945 201.847 477.762 201.532 477.85C201.217 477.939 201.033 478.265 201.122 478.58C204.244 490.19 211.638 500.191 221.822 506.58C222.822 507.2 224.392 506.14 223.922 504.97C222.172 500.49 220.552 495.7 217.922 491.7Z" fill="#231F20"/>
<path d="M355.262 499.84C357.12 500.973 359.099 501.896 361.162 502.59C361.615 502.688 362.079 502.728 362.542 502.71L361.952 502.79C360.022 503.06 358.162 503.43 356.192 503.62C345.002 504.68 329.902 503.82 320.952 496.21C320.292 495.65 319.332 496.57 319.952 497.21C329.892 506.54 347.042 507.69 359.852 505.92C361.752 505.66 367.582 505.09 364.942 501.62C363.472 499.68 359.362 498.82 357.292 497.76C354.079 496.021 351.062 493.943 348.292 491.56C348.011 491.289 347.574 491.265 347.264 491.502C346.954 491.74 346.864 492.168 347.052 492.51C348.712 495.9 351.962 498.13 355.262 499.84Z" fill="#231F20"/>
<path d="M401.632 449.56C415.262 454.75 430.352 447.94 443.422 443.94C444.092 443.739 444.516 443.081 444.422 442.388C444.327 441.695 443.742 441.174 443.042 441.16C437.862 441.07 432.592 440.72 427.412 441.07C426.7 441.07 426.122 441.648 426.122 442.36C426.122 443.073 426.7 443.65 427.412 443.65C429.732 443.87 432.082 443.95 434.412 443.97C423.882 447.61 412.542 451.3 401.972 448.31C401.142 448.08 400.852 449.27 401.632 449.56Z" fill="#231F20"/>
<path d="M453.473 400.43C464.563 399.69 473.013 393.21 481.263 386.34C481.573 385.995 481.656 385.502 481.476 385.074C481.296 384.647 480.886 384.361 480.423 384.34C475.883 384.68 471.263 384.44 466.753 385C465.913 385.1 465.513 386.44 466.533 386.64C469.932 387.215 473.392 387.336 476.823 387C469.993 392.68 462.483 398.16 453.473 399.2C452.693 399.26 452.633 400.49 453.473 400.43Z" fill="#231F20"/>
<path d="M135.202 340.34C132.868 342.969 131.035 346.002 129.792 349.29C129.635 341.974 130.818 334.691 133.282 327.8C133.432 327.38 132.782 327.22 132.632 327.62C129.272 336.124 127.663 345.219 127.902 354.36C127.929 354.892 128.33 355.33 128.858 355.404C129.386 355.477 129.891 355.165 130.062 354.66C131.922 350.02 134.602 345.66 136.062 340.88C136.099 340.661 136 340.442 135.812 340.323C135.624 340.205 135.383 340.212 135.202 340.34Z" fill="#231F20"/>
<path d="M182.172 185.7C186.172 184.03 190.362 182.57 194.042 180.28C194.329 180.105 194.445 179.747 194.315 179.437C194.185 179.127 193.848 178.958 193.522 179.04C190.673 179.831 187.897 180.862 185.222 182.12C189.841 176.86 195.923 173.096 202.692 171.31C203.081 171.202 203.309 170.8 203.202 170.41C203.094 170.021 202.691 169.792 202.302 169.9C193.643 171.783 186.027 176.892 181.002 184.19C180.512 184.92 181.342 186.09 182.172 185.7Z" fill="#231F20"/>
<path d="M266.422 158.88C271.329 160.822 276.068 163.163 280.592 165.88C284.152 168.03 290.952 171.37 292.972 175.56C288.216 175.517 283.515 174.545 279.132 172.7C277.962 172.21 277.132 174.19 278.272 174.7C283.312 177.173 288.926 178.238 294.522 177.78C294.861 177.775 295.179 177.615 295.385 177.346C295.592 177.078 295.664 176.729 295.582 176.4C294.362 171.56 288.232 168.59 284.322 166.21C278.73 162.875 272.8 160.143 266.632 158.06C266.122 157.88 265.922 158.7 266.422 158.88Z" fill="#231F20"/>
<path d="M356.011 219.17C357.491 219.69 359.011 219.43 359.281 217.64C359.611 215.4 357.111 212.64 356.021 210.87C354.311 208.15 352.501 204.87 349.821 202.97C349.471 202.72 349.011 203.13 349.121 203.51C350.211 207.39 353.251 210.97 355.231 214.51C355.491 214.98 355.761 215.45 356.011 215.93L356.421 216.73C355.831 216.5 354.731 215.59 354.041 215.23C352.451 214.38 351.181 213.36 349.371 213.29C349.05 213.29 348.752 213.461 348.591 213.74C348.431 214.018 348.43 214.362 348.591 214.64C349.971 216.8 353.631 218.33 356.011 219.17Z" fill="#231F20"/>
</svg>
