<svg width="566" height="575" viewBox="0 0 566 575" fill="none" xmlns="http://www.w3.org/2000/svg">
<path d="M266.764 157.19C270.384 171.337 274.21 185.42 278.244 199.44C281.064 209.31 283.954 227.78 294.864 230.17C313.044 234.17 304.774 165.07 303.224 154.08C299.764 129.65 294.224 105.08 292.914 80.2305C280.574 81.0405 268.264 82.1605 256.014 83.7905C253.674 84.1105 251.324 84.4505 249.014 84.7905C252.414 95.0205 254.464 106.04 256.884 116.43C260.034 130.06 263.304 143.7 266.764 157.19Z" fill="#58595B"/>
<path d="M457.674 240.85C457.806 243.515 459.193 245.96 461.414 247.44C467.654 251.19 475.304 241.54 468.824 237.01C465.034 234.36 461.444 238.3 457.674 240.85Z" fill="white"/>
<path d="M204.235 173.971C205.525 178.651 206.375 184.501 208.415 188.821C210.935 194.161 212.095 196.471 213.805 189.551C218.275 171.421 216.895 152.301 214.805 133.871C213.875 125.501 212.805 117.151 211.805 108.791C211.205 103.721 209.915 98.0305 209.575 92.5205C201.328 94.5205 193.122 96.6738 184.955 98.9805C190.445 113.801 192.825 130.921 196.725 145.981C199.165 155.347 201.668 164.677 204.235 173.971Z" fill="#58595B"/>
<path d="M106.164 303.54C107.482 303.768 108.837 303.466 109.934 302.7L110.014 302.65C113.274 300.38 114.714 294.65 112.104 290.98C109.494 287.31 105.234 287.37 102.344 289.66C99.0535 294.7 99.1335 302.28 106.164 303.54Z" fill="white"/>
<path fill-rule="evenodd" clip-rule="evenodd" d="M183.614 553.951C139.844 556.471 88.7842 554.021 57.3042 514.641C42.1442 495.701 34.3642 470.53 28.3042 446.44C21.7008 419.761 17.8473 392.475 16.8042 365.01C14.2342 304.591 22.3242 244.081 33.9342 185.23C34.9204 180.211 35.8773 175.129 36.8403 170.014C41.2379 146.656 45.7629 122.621 53.7942 100.84C55.9762 94.7285 58.8269 88.8764 62.2942 83.3905C62.5832 82.9447 62.8578 82.4754 63.1297 82.0108L63.1298 82.0107L63.1298 82.0106L63.1298 82.0106L63.1299 82.0105L63.1303 82.0098L63.1303 82.0097C64.4013 79.8377 65.6114 77.7697 67.9342 78.7005C69.071 79.1736 70.4873 82.9415 71.3791 85.314L71.3792 85.3143L71.3794 85.3148C71.6563 86.0515 71.8826 86.6535 72.0342 86.9805C78.3737 100.831 83.4704 115.218 87.2642 129.971C89.6642 139.011 100.554 137.441 102.664 130.441C109.156 128.592 115.603 125.426 121.892 122.338C125.436 120.598 128.93 118.882 132.354 117.441C145.474 111.911 158.774 106.97 172.294 102.8L175.474 101.8C176.17 109.612 177.984 117.448 179.741 125.04L179.741 125.04L179.741 125.04L179.741 125.04L179.741 125.04L179.742 125.041L179.742 125.041C180.182 126.944 180.619 128.832 181.034 130.701C183.964 143.921 187.044 157.101 190.394 170.191C190.753 171.591 191.147 173.351 191.594 175.348L191.595 175.35L191.595 175.351C194.935 190.262 201.23 218.371 217.914 208.671C224.448 204.815 226.449 194.55 227.901 187.099L227.984 186.671C230.234 175.15 230.464 163.251 229.824 151.521C229.228 140.796 227.899 130.134 226.572 119.492L226.572 119.491L226.344 117.66C226.008 114.942 225.795 111.827 225.569 108.543C225.137 102.248 224.663 95.3354 223.204 89.4205C228.564 88.3005 233.934 87.2705 239.314 86.3305C239.953 97.676 242.521 109.263 244.968 120.301C245.51 122.747 246.046 125.167 246.554 127.55C250.264 144.98 254.504 162.271 258.984 179.471C259.808 182.632 260.609 185.844 261.416 189.078L261.416 189.078L261.416 189.078L261.416 189.078L261.416 189.079L261.416 189.079L261.416 189.079C264.477 201.349 267.616 213.932 272.364 225.281C277.094 236.54 285.744 245.79 297.434 245.54C309.124 245.29 314.804 235.601 317.074 223.891C320.164 207.98 320.514 191.591 319.334 175.411C318.011 157.258 315.283 139.305 312.554 121.342L312.554 121.342C310.437 107.403 308.318 93.4582 306.854 79.4105C311.944 79.1705 317.034 78.9805 322.124 78.8005C324.275 86.3054 325.516 94.2003 326.759 102.108L326.759 102.109L326.76 102.109L326.76 102.109L326.76 102.11L326.76 102.11L326.76 102.111C327.88 109.238 329.002 116.377 330.794 123.251C333.514 133.681 337.764 146.421 349.224 147.061C359.954 147.661 364.834 136.051 365.514 125.831C365.919 119.705 365.915 113.499 365.911 107.335C365.91 104.824 365.908 102.32 365.934 99.8305C365.951 98.3204 365.987 96.8068 366.024 95.2925V95.292C366.165 89.4863 366.306 83.6692 365.314 77.9905C372.454 78.1505 379.584 78.4305 386.704 78.9905C394.283 79.5887 401.729 81.0607 409.16 82.5299C416.016 83.8853 422.86 85.2383 429.784 85.9005C429.874 85.9055 429.964 85.9055 430.054 85.9005C433.454 88.4105 439.774 86.4305 440.454 80.2305C441.784 67.593 444.589 55.1549 448.814 43.1705C450.821 37.5678 453.179 32.0969 455.874 26.7905C460.224 18.1505 464.284 12.2505 473.064 18.8605C488.982 30.8514 496.663 55.3655 503.099 75.9038L503.099 75.9041C504.006 78.7972 504.888 81.6113 505.764 84.3005C522.514 135.73 533.604 189.44 540.604 243.57C547.194 294.57 554.184 350.51 544.094 401.461C534.724 448.811 506.764 484.6 469.214 507.391C427.984 532.421 380.464 539.251 334.374 543.101C284.184 547.291 233.864 551.06 183.614 553.951ZM487.704 357.65C495.044 357.87 501.524 351.18 500.524 342.701C499.504 334.15 490.664 326.83 483.394 332.19C483.195 332.346 483.005 332.513 482.824 332.69C478.764 333.08 475.824 336.39 474.824 340.79C472.854 349.56 480.364 357.43 487.704 357.65ZM483.934 252.231C475.684 269.871 451.474 268.231 445.324 249.411C442.474 240.681 444.324 229.911 450.424 223.461C453.424 220.321 457.814 218.311 461.864 218.601C478.034 215.011 491.994 235.081 483.934 252.231ZM429.325 135.092C428.478 135.022 427.679 134.956 426.934 134.891H426.984C423.304 134.571 421.854 140.87 425.094 142.701C431.988 146.612 439.141 150.047 446.504 152.98C449.611 154.216 452.53 156.019 455.434 157.813C459.017 160.026 462.578 162.226 466.444 163.331C470.534 164.491 473.514 160.48 472.834 156.161C470.025 138.446 443.272 136.241 429.325 135.092ZM320.054 315.891C328.494 326.48 318.454 336.211 309.344 338.291C307.984 338.601 306.344 338.941 304.564 339.241C305.962 344.133 306.307 349.635 306.625 354.715C306.671 355.45 306.716 356.176 306.764 356.891C306.844 358.131 306.924 359.381 306.994 360.651C308.093 365.05 309.673 369.316 311.704 373.371C314.454 378.621 320.874 385.711 326.834 381.57C328.667 380.284 329.83 377.939 330.964 375.652C331.593 374.383 332.213 373.133 332.934 372.091C334.324 370.091 337.614 370.321 339.054 372.091C344.274 378.491 341.554 387.191 336.054 392.371C329.824 398.211 321.274 398.371 314.134 394.651C310.839 392.9 307.931 390.502 305.584 387.601C302.314 399.701 288.814 411.351 279.224 399.351C277.744 397.491 276.934 394.271 278.384 392.051C280.064 389.491 281.654 388.98 284.454 389.291C285.315 389.386 286.042 389.673 286.726 389.943C288.269 390.551 289.594 391.074 291.734 389.121C294.223 386.842 294.594 381.255 294.838 377.572C294.861 377.23 294.882 376.905 294.904 376.601C295.338 368.837 295.191 361.052 294.464 353.311C294.325 351.557 294.1 349.8 293.875 348.046V348.045V348.045V348.045C293.532 345.377 293.19 342.713 293.154 340.071C289.434 339.871 285.904 339.071 283.284 337.191C282.06 337.794 280.709 338.096 279.344 338.071C276.498 337.913 274.114 335.861 273.534 333.071C269.124 313.381 310.664 304.061 320.104 315.881L320.054 315.891ZM94.0342 398.6C97.5042 402.75 103.864 404.201 108.154 400.75C110.958 398.585 112.68 395.307 112.874 391.771C112.95 390.557 112.859 389.339 112.604 388.15C112.463 387.426 112.228 386.723 111.904 386.06C111.884 384.072 111.112 382.164 109.744 380.72C107.254 378.31 104.414 376.921 101.084 377.431C98.4258 377.802 95.9831 379.098 94.1842 381.09C89.9039 386.122 89.8407 393.496 94.0342 398.6ZM95.7742 188.1C96.0024 187.826 96.2344 187.545 96.4702 187.26C101.123 181.632 107.247 174.224 114.204 173.71C117.044 173.501 119.644 177.201 118.654 180.24C116.968 185.399 112.688 189.333 108.627 193.064C107.028 194.533 105.463 195.971 104.104 197.441C102.962 198.674 101.801 200.09 100.604 201.55L100.604 201.55C97.066 205.866 93.2093 210.571 88.5542 212.111C86.7142 212.721 84.9742 211.051 84.9142 209.001C84.6999 201.401 90.9882 193.849 95.4272 188.517L95.7742 188.1ZM125.004 309.111C133.024 294.451 126.264 274.88 110.874 271.611C94.4442 268.111 80.8642 283.951 84.2442 302.201C86.0842 311.991 92.9742 320.191 101.914 321.801C110.064 323.26 118.264 318.97 123.184 311.861C123.227 311.811 123.263 311.758 123.298 311.706C123.319 311.674 123.341 311.641 123.364 311.611C123.584 311.29 123.794 310.951 124.004 310.611C124.054 310.541 124.104 310.473 124.153 310.404C124.46 309.981 124.754 309.576 125.004 309.111Z" fill="#F7941E"/>
<path d="M344.714 122.931C345.614 125.851 345.944 129.071 348.864 129.931C352.194 130.931 351.484 127.501 351.724 124.191C352.134 118.681 351.804 112.971 351.864 107.441C351.964 97.9105 351.154 87.4405 353.094 78.0205C349.674 78.0205 346.254 78.1105 342.834 78.2005C339.834 78.2705 336.774 78.3705 333.744 78.4505C335.554 82.3405 336.364 86.7905 337.324 91.5805C339.414 102.081 341.574 112.751 344.714 122.931Z" fill="#58595B"/>
<path fill-rule="evenodd" clip-rule="evenodd" d="M123.204 311.87C118.284 318.98 110.084 323.27 101.934 321.81C93.0143 320.2 86.1243 312 84.3043 302.22C80.8943 283.96 94.4643 268.12 110.894 271.62C126.284 274.89 133.024 294.46 125.024 309.12C124.892 309.32 124.757 309.52 124.622 309.72C124.419 310.02 124.216 310.32 124.024 310.62C123.966 310.712 123.907 310.805 123.848 310.898C123.696 311.139 123.543 311.382 123.384 311.62C123.361 311.651 123.34 311.683 123.318 311.716C123.283 311.768 123.247 311.821 123.204 311.87ZM112.114 290.99C109.444 287.25 105.244 287.38 102.354 289.67L102.374 289.7C99.0543 294.7 99.1343 302.28 106.134 303.53C107.461 303.77 108.828 303.471 109.934 302.7L110.024 302.66C113.284 300.39 114.784 294.73 112.114 290.99Z" fill="#231F20"/>
<path fill-rule="evenodd" clip-rule="evenodd" d="M450.495 223.46C453.475 220.32 457.885 218.31 461.935 218.6C478.035 215.01 491.995 235.08 484.005 252.23C475.755 269.87 451.545 268.25 445.395 249.41C442.545 240.68 444.385 229.91 450.495 223.46ZM457.705 240.85C457.837 243.515 459.224 245.96 461.445 247.44H461.415C467.655 251.19 475.305 241.54 468.855 237.01C465.764 234.849 462.807 237.07 459.776 239.346C459.09 239.861 458.401 240.379 457.705 240.85Z" fill="#231F20"/>
<path d="M279.375 338.06C280.739 338.085 282.09 337.783 283.315 337.18C285.935 339.06 289.465 339.86 293.185 340.06C293.245 344.44 294.185 348.88 294.495 353.3C295.221 361.041 295.368 368.826 294.935 376.59C294.675 380.18 294.485 386.59 291.765 389.11C288.675 391.93 287.345 389.59 284.485 389.28C281.625 388.97 280.095 389.48 278.415 392.04C276.965 394.26 277.775 397.48 279.255 399.34C288.845 411.34 302.345 399.69 305.615 387.59C307.961 390.491 310.869 392.889 314.165 394.64C321.305 398.36 329.855 398.2 336.085 392.36C341.605 387.18 344.325 378.48 339.085 372.08C337.645 370.31 334.355 370.08 332.965 372.08C330.965 375 329.715 379.58 326.865 381.56C320.865 385.7 314.485 378.61 311.735 373.36C309.703 369.305 308.124 365.04 307.025 360.64C306.955 359.37 306.875 358.12 306.795 356.88C306.415 351.2 306.195 344.83 304.595 339.23C306.375 338.93 308.015 338.59 309.375 338.28C318.485 336.2 328.525 326.47 320.085 315.88C310.645 304.06 269.085 313.38 273.545 333.1C274.143 335.881 276.533 337.915 279.375 338.06Z" fill="#231F20"/>
<path d="M482.844 332.64C478.764 333.03 475.844 336.34 474.844 340.74C472.844 349.51 480.324 357.38 487.724 357.6C495.124 357.82 501.564 351.13 500.544 342.65C499.524 334.17 490.684 326.83 483.434 332.14C483.228 332.295 483.031 332.462 482.844 332.64Z" fill="#231F20"/>
<path d="M111.934 386.06C111.914 384.071 111.142 382.164 109.774 380.72C107.284 378.31 104.444 376.92 101.114 377.43C98.4557 377.802 96.013 379.098 94.2141 381.09C89.9338 386.122 89.8706 393.496 94.0641 398.6C97.5341 402.77 103.894 404.2 108.184 400.75C110.993 398.58 112.716 395.294 112.904 391.75C112.98 390.537 112.889 389.319 112.634 388.13C112.492 387.413 112.256 386.717 111.934 386.06Z" fill="#231F20"/>
<path d="M88.5535 212.11C94.7835 210.05 99.5535 202.32 104.104 197.44C108.914 192.24 116.304 187.44 118.654 180.24C119.654 177.24 117.044 173.5 114.204 173.71C106.894 174.25 100.504 182.4 95.7735 188.1C91.3235 193.45 84.6935 201.2 84.9135 209C84.9335 211.05 86.7135 212.7 88.5535 212.11Z" fill="#231F20"/>
<path d="M425.094 142.7C432.004 146.613 439.174 150.048 446.554 152.98C453.454 155.74 459.554 161.34 466.494 163.33C470.584 164.49 473.564 160.48 472.884 156.16C469.884 137.37 439.944 136.03 426.984 134.89C423.304 134.57 421.854 140.87 425.094 142.7Z" fill="#231F20"/>
<path fill-rule="evenodd" clip-rule="evenodd" d="M60.1845 543.44C79.0744 559.44 102.184 568.2 125.474 571.83C152.697 576.08 180.124 574.071 207.433 572.069C208.524 571.99 209.614 571.91 210.704 571.83L299.204 565.2C301.088 565.061 302.973 564.922 304.859 564.783C357.079 560.941 410.601 557.003 459.204 533.56C501.674 513.09 538.544 477.42 554.474 427.78C572.284 372.26 564.745 308.65 557.844 251.6C550.334 189.31 537.484 127.88 516.204 69.7001C515.531 67.8529 514.854 65.9708 514.168 64.0642C506.315 42.2322 497.314 17.2063 478.754 4.91012C454.754 -11.0199 442.574 19.8401 435.584 40.8101C432.56 50.0358 430.384 59.5185 429.084 69.1401C417.107 64.4426 403.552 63.2024 391.06 62.0594L390.084 61.9701C375.508 60.7521 360.871 60.4181 346.254 60.9701C315.644 61.9701 284.814 63.4601 254.444 67.9701C225.855 72.0452 197.743 78.9594 170.524 88.6101C156.654 93.6101 142.904 99.1001 129.394 105.23C127.407 106.131 125.333 107.025 123.215 107.937C115.744 111.155 107.724 114.611 100.984 119.48C97.6068 108.091 93.5324 96.9197 88.7845 86.0301C88.3043 84.9389 87.8127 83.7713 87.3016 82.5578C83.4059 73.3073 78.385 61.3847 68.7845 60.2001C58.1645 58.9001 50.7845 71.1201 46.0545 80.0201C39.8545 91.5801 36.0545 104.67 32.8545 117.61C18.2345 176.95 6.35445 238.09 1.98445 299.51C-2.28555 359.51 1.19445 422.93 20.4345 479.66C28.8745 504.55 41.0245 527.18 60.1845 543.44ZM342.834 78.2001C346.254 78.1101 349.674 78.0601 353.094 78.0201C351.634 85.1053 351.732 92.7971 351.827 100.233C351.858 102.673 351.889 105.086 351.864 107.44C351.844 109.343 351.869 111.268 351.895 113.199V113.201V113.203V113.205V113.206C351.944 116.882 351.993 120.579 351.724 124.19C351.679 124.811 351.668 125.436 351.657 126.035C351.609 128.628 351.57 130.734 348.864 129.93C346.435 129.214 345.798 126.864 345.134 124.413L345.134 124.412C345 123.918 344.865 123.42 344.714 122.93C341.574 112.75 339.414 102.08 337.324 91.5801C337.202 90.9958 337.084 90.4165 336.966 89.8427C336.121 85.7128 335.334 81.8656 333.744 78.4501C334.956 78.4181 336.168 78.3829 337.38 78.3477C339.198 78.2949 341.016 78.2421 342.834 78.2001ZM292.914 80.2301C280.574 81.0401 268.264 82.1601 256.014 83.7901C253.674 84.1101 251.324 84.4501 248.984 84.8001C251.533 92.4692 253.323 100.582 255.08 108.541C255.666 111.199 256.249 113.839 256.854 116.44C260.034 130.06 263.304 143.66 266.764 157.19C270.418 171.357 274.244 185.44 278.244 199.44C278.664 200.907 279.084 202.564 279.533 204.33L279.533 204.331C282.101 214.446 285.576 228.135 294.864 230.17C313.044 234.15 304.774 165.08 303.224 154.08C302.101 146.146 300.753 138.193 299.403 130.22L299.403 130.219L299.403 130.218C296.594 113.643 293.772 96.982 292.914 80.2301ZM209.614 92.5201C209.822 95.8812 210.383 99.3092 210.925 102.623L210.925 102.623C211.272 104.741 211.61 106.813 211.844 108.79C212.178 111.577 212.52 114.362 212.862 117.148L212.862 117.148C213.547 122.719 214.231 128.29 214.844 133.87C216.844 152.3 218.264 171.42 213.844 189.55C212.134 196.47 210.974 194.16 208.454 188.82C207.083 185.857 206.233 182.174 205.418 178.643L205.418 178.642C205.045 177.025 204.68 175.44 204.274 173.97C201.714 164.677 199.224 155.343 196.804 145.97C195.435 140.67 194.252 135.12 193.057 129.508L193.057 129.507L193.057 129.507C190.849 119.141 188.596 108.565 185.034 98.9701C193.168 96.6501 201.361 94.5001 209.614 92.5201ZM36.8754 169.852C35.9011 175.021 34.9329 180.158 33.9345 185.23C22.3245 244.08 14.2345 304.59 16.8345 364.9C17.8776 392.365 21.731 419.651 28.3345 446.33C34.3945 470.42 42.1745 495.53 57.3345 514.53C88.8145 553.91 139.874 556.36 183.644 553.84C233.894 550.99 284.214 547.18 334.404 542.99C380.494 539.14 428.014 532.28 469.244 507.28C506.794 484.49 534.754 448.7 544.124 401.35C554.214 350.4 547.224 294.46 540.634 243.46C533.634 189.33 522.544 135.62 505.794 84.1901C504.918 81.501 504.036 78.6869 503.13 75.7939C496.694 55.2555 489.012 30.7411 473.094 18.7501C464.314 12.1401 460.254 18.0401 455.904 26.6801C453.21 31.9866 450.852 37.4574 448.844 43.0601C444.62 55.0445 441.814 67.4826 440.484 80.1201C439.804 86.3201 433.524 88.3001 430.084 85.7901C429.995 85.7951 429.904 85.7951 429.814 85.7901C422.89 85.1279 416.046 83.7749 409.19 82.4195C401.759 80.9503 394.313 79.4783 386.734 78.8801C379.614 78.2701 372.484 77.9901 365.344 77.8801C366.336 83.559 366.195 89.3763 366.054 95.1823C366.018 96.6966 365.981 98.2101 365.964 99.7201C365.938 102.221 365.94 104.734 365.942 107.25C365.946 113.426 365.949 119.624 365.544 125.72C364.864 135.95 359.984 147.55 349.254 146.95C337.824 146.31 333.544 133.57 330.824 123.14C329.032 116.266 327.91 109.127 326.79 101.998C325.547 94.0899 324.305 86.195 322.154 78.6901C317.064 78.8701 311.974 79.0601 306.884 79.3001C308.347 93.327 310.463 107.255 312.579 121.181C315.31 139.154 318.04 157.124 319.364 175.3C320.544 191.48 320.194 207.87 317.104 223.78C314.834 235.49 309.204 245.19 297.464 245.43C285.724 245.67 277.124 236.41 272.394 225.17C267.636 213.874 264.523 201.355 261.485 189.138C260.666 185.847 259.853 182.578 259.014 179.36C254.534 162.16 250.294 144.87 246.584 127.44C246.076 125.056 245.54 122.637 244.998 120.19C242.551 109.152 239.983 97.5656 239.344 86.2201C233.938 87.1601 228.568 88.1901 223.234 89.3101C224.682 95.1851 225.152 102.034 225.58 108.287C225.809 111.624 226.027 114.791 226.374 117.55C226.45 118.16 226.526 118.77 226.602 119.38C227.929 130.022 229.259 140.685 229.854 151.41C230.494 163.14 230.264 175.04 228.014 186.56L227.941 186.942C226.488 194.444 224.493 204.745 217.944 208.56C201.201 218.33 194.889 189.961 191.579 175.084C191.149 173.15 190.77 171.445 190.424 170.08C187.064 156.99 183.994 143.81 181.064 130.59C180.649 128.721 180.212 126.833 179.771 124.929C178.014 117.338 176.2 109.501 175.504 101.69L172.324 102.69C158.804 106.86 145.504 111.8 132.384 117.33C129.053 118.75 125.656 120.422 122.21 122.118C115.83 125.258 109.285 128.479 102.694 130.33C100.584 137.29 89.6844 138.86 87.2944 129.86C83.4951 115.142 78.3984 100.789 72.0645 86.9701C71.9147 86.6472 71.692 86.0558 71.4194 85.3315C70.527 82.9612 69.0987 79.1674 67.9345 78.7001C65.604 77.7843 64.4102 79.8172 63.1448 81.9721C62.8627 82.4525 62.5771 82.9389 62.2745 83.4001C58.8071 88.886 55.9565 94.7382 53.7745 100.85C45.7863 122.572 41.2681 146.545 36.8754 169.852Z" fill="#231F20"/>
</svg>
