<svg width="455" height="582" viewBox="0 0 455 582" fill="none" xmlns="http://www.w3.org/2000/svg">
<path d="M421.945 139.863C415.785 143.293 410.515 146.863 403.555 148.633C395.907 150.594 387.916 150.802 380.176 149.243C383.026 154.443 386.126 159.353 390.816 163.493C397.545 169.423 406.405 173.033 415.445 172.573C430.605 171.803 441.185 159.173 445.645 145.573C443.725 137.383 428.465 136.233 421.945 139.863Z" fill="#A97C50"/>
<path fill-rule="evenodd" clip-rule="evenodd" d="M319.968 89.0129C319.728 89.0129 319.498 89.0129 319.268 88.9229C318.407 88.7951 317.717 88.1447 317.538 87.2929C305.65 79.0818 292.495 72.876 278.598 68.9229C240.508 57.9229 198.748 61.4229 163.198 79.0629C130.578 95.2529 105.408 121.663 88.7182 153.823C80.0282 170.573 73.5182 188.303 67.8082 206.253C61.8082 225.003 57.4082 244.053 56.8082 263.743C56.8438 263.975 56.8438 264.211 56.8082 264.443C55.9529 272.509 66.179 272.099 72.2219 271.857C72.7492 271.836 73.2447 271.816 73.6982 271.803C80.2129 271.614 86.7177 271.376 93.2322 271.138L93.3682 271.133L106.048 270.693C106.938 268.693 109.568 268.993 110.918 270.523L130.408 269.843C153.158 269.083 175.928 268.583 198.678 269.083C210.043 269.334 221.382 270.025 232.722 270.716L232.722 270.716C243.075 271.346 253.428 271.977 263.798 272.273C286.338 272.903 308.888 272.213 331.388 270.933C342.468 270.303 353.528 269.533 364.598 268.713C365.295 268.661 366.44 268.634 367.884 268.599C375.396 268.42 390.967 268.047 393.198 263.073C392.665 259.4 392.143 255.718 391.619 252.033C385.949 212.09 380.213 171.692 360.538 135.803C350.178 116.923 336.558 101.053 319.968 89.0129ZM169.678 198.971L169.678 198.971C163.233 188.45 156.728 177.831 142.048 180.113C127.048 182.453 118.778 196.363 115.818 210.113C115.108 213.433 110.368 211.943 110.818 208.743C113.298 191.803 124.458 175.873 142.428 173.623C159.218 171.523 173.428 184.883 176.968 200.713C177.214 201.979 176.539 203.244 175.351 203.747C174.163 204.249 172.786 203.851 172.048 202.793C171.249 201.536 170.464 200.255 169.678 198.971ZM335.968 195.623C336.688 198.623 341.018 197.823 341.168 194.923C341.848 180.923 328.118 170.433 314.918 171.763C301.718 173.093 291.728 185.583 289.918 198.263C289.548 200.853 293.408 203.263 294.678 200.263C294.92 199.695 295.161 199.122 295.403 198.547C298.885 190.27 302.59 181.463 312.108 178.733C324.618 175.153 333.258 184.513 335.968 195.623Z" fill="#754C29"/>
<path d="M281.269 288.613C280.89 285.653 280.349 282.715 279.649 279.813C273.989 279.813 268.319 279.733 262.648 279.563L260.898 279.493C264.319 284.643 265.409 291.083 265.839 297.493C266.229 303.323 266.259 309.183 266.669 315.023C267.079 320.863 266.109 331.223 272.109 334.423C277.789 337.423 286.479 331.913 290.439 328.363C294.896 324.195 298.344 319.064 300.52 313.363C304.69 302.705 304.949 290.914 301.25 280.083C301.196 279.9 301.156 279.712 301.13 279.523C296.016 279.65 290.903 279.733 285.789 279.773C288.339 286.243 289.089 293.963 287.339 300.443C286.439 303.773 281.619 302.943 281.489 299.653C281.389 295.973 281.679 292.323 281.269 288.613Z" fill="#BE1E2D"/>
<path d="M308.286 279.323C315.286 301.533 306.506 336.153 280.196 340.943C274.886 341.943 268.316 341.403 264.606 336.993C260.896 332.583 261.006 325.713 260.516 320.343C259.806 312.723 259.696 305.103 259.266 297.473C258.876 290.753 257.756 284.293 253.266 279.203C230.446 278.203 207.696 276.303 184.826 276.143C160.166 275.983 135.516 276.813 110.876 277.593C108.406 287.363 102.596 295.703 97.2459 304.243C90.4223 315.133 85.1895 326.943 81.7059 339.313C74.9552 363.692 73.9659 389.306 78.8159 414.133C86.7559 454.963 112.816 493.733 153.696 507.133C175.466 514.303 200.906 514.943 223.576 512.733C243.382 510.717 262.526 504.477 279.716 494.433C314.455 474.313 339.338 440.734 348.476 401.643C353.362 380.466 353.75 358.5 349.616 337.163C345.526 316.253 335.616 298.003 327.946 278.413C321.386 278.753 314.833 279.056 308.286 279.323Z" fill="#754C29"/>
<path d="M435.447 122.553C426.447 122.693 418.237 129.083 410.357 132.663C402.469 136.263 394.255 139.103 385.827 141.143C382.934 142.027 379.996 142.761 377.027 143.343L377.577 144.393C383.231 146.043 389.13 146.69 395.007 146.303C400.728 145.86 406.32 144.376 411.507 141.923C415.347 140.063 418.647 137.153 422.597 135.563C428.797 133.073 437.967 133.923 443.317 138.073C444.715 139.141 445.856 140.507 446.657 142.073C447.747 137.703 448.957 132.073 446.657 127.853C444.487 123.923 439.657 122.493 435.447 122.553Z" fill="#754C29"/>
<path d="M77.408 162.093C69.098 166.323 57.798 165.433 48.838 163.993C41.578 162.823 35.038 160.443 29.308 155.753C26.1828 153.061 23.2366 150.168 20.488 147.093C19.268 145.793 18.068 144.483 16.818 143.223C15.9913 142.383 15.1413 141.563 14.268 140.763C12.1613 138.096 9.79464 138.08 7.16797 140.713C7.82797 152.713 11.368 164.253 22.408 171.093C29.468 175.473 38.008 177.093 46.228 176.603C56.228 176.023 64.628 171.533 74.228 169.453C75.218 166.983 76.308 164.533 77.408 162.093Z" fill="#A97C50"/>
<path d="M37.6077 373.323C32.6578 376.193 25.798 378.063 21.7581 382.163C13.5182 390.503 28.0879 391.393 32.7578 391.373C44.2376 391.313 58.7573 393.573 68.5771 386.243C68.6671 386.173 68.7571 386.133 68.8471 386.073C68.5755 371.539 70.2094 357.032 73.707 342.923C63.8272 355.283 50.7475 365.713 37.6077 373.323Z" fill="#A97C50"/>
<path d="M255.837 513.313C255.846 513.436 255.846 513.56 255.837 513.683C255.837 527.243 253.837 540.753 254.047 554.373C254.127 560.213 253.987 571.213 263.047 567.853C268.697 565.763 271.207 559.013 273.577 553.943C283.036 533.549 291.261 512.604 298.207 491.223C289.075 498.043 279.199 503.803 268.767 508.393C264.487 510.253 260.187 511.923 255.837 513.313Z" fill="#A97C50"/>
<path d="M130.727 504.783C139.097 525.843 144.487 548.113 155.977 567.783C158.087 571.403 160.087 575.473 164.887 572.833C167.207 571.553 168.887 568.663 169.997 566.353C172.327 561.663 173.147 556.253 173.447 551.083C174.057 540.293 173.217 529.703 177.447 519.553C163.447 517.923 149.637 514.613 136.897 508.163C134.817 507.133 132.747 505.983 130.727 504.783Z" fill="#A97C50"/>
<path d="M25.9371 147.923C34.4072 156.443 43.3174 159.923 55.1775 161.123C64.8876 162.123 75.7978 161.553 81.6579 153.193C82.1279 152.253 82.5979 151.313 83.0879 150.373C82.3122 149.977 81.7731 149.233 81.6379 148.373C67.7577 150.673 53.2475 145.723 41.0573 139.153C33.2672 134.953 26.0571 129.873 18.677 124.953C16.767 123.673 10.3069 117.863 8.38689 118.313C8.6069 118.263 7.94689 121.193 7.80689 122.563C7.62688 124.373 7.48688 126.183 7.35688 127.993C7.17688 130.493 7.06688 132.993 7.04688 135.603C7.63491 135.355 8.26011 135.206 8.8969 135.163C15.637 134.783 21.7871 143.743 25.9371 147.923Z" fill="#754C29"/>
<path d="M359.537 377.673C373.948 379.863 389.248 379.453 403.228 375.173C406.54 374.279 409.631 372.709 412.307 370.563C414.087 369.033 419.137 362.993 416.607 360.453C415.237 359.083 409.607 359.653 407.487 359.383C404.611 359.036 401.757 358.529 398.938 357.863C381.747 353.763 367.108 343.353 355.688 330.073C357.093 336.212 358.155 342.426 358.868 348.683C359.956 358.307 360.18 368.009 359.537 377.673Z" fill="#A97C50"/>
<path d="M120.996 100.413C114.994 97.5852 109.569 93.669 104.996 88.8628C98.3059 92.4328 91.9959 96.5628 87.1559 102.563C83.9745 106.549 81.5357 111.074 79.9559 115.923C79.2359 118.113 78.9559 120.313 78.0859 122.273C81.755 127.435 86.3782 131.848 91.7059 135.273C99.843 122.378 109.697 110.651 120.996 100.413Z" fill="#F7941E"/>
<path d="M370.03 137.683C374.324 134.881 378.309 131.633 381.92 127.993C376.961 118.69 371.17 109.854 364.62 101.593C358.419 93.8229 351.999 86.7629 343.299 82.1528C339.519 84.7478 335.359 86.7415 330.969 88.0629C347.179 101.423 360.229 118.423 370.03 137.683Z" fill="#F7941E"/>
<path d="M83.5258 47.9229C83.0524 46.0829 82.6158 44.2396 82.2158 42.3929C81.1658 37.5329 80.6058 32.6129 79.6558 27.7429C78.2858 20.7429 73.6558 26.9729 72.0258 30.4429C67.9458 38.9529 67.4858 49.5529 66.5258 58.7729C66.3958 59.9829 66.2858 61.2029 66.1758 62.4129C70.5201 56.0826 76.5225 51.0696 83.5258 47.9229Z" fill="#F7941E"/>
<path d="M366.707 98.083C373.542 106.476 379.594 115.477 384.787 124.973C390.433 118.608 395.085 111.427 398.587 103.673C393.357 96.853 388.987 89.583 382.807 83.373C376.287 76.823 368.297 72.103 361.627 65.853C360.627 66.983 359.547 68.113 358.477 69.203C354.792 73.028 350.827 76.5744 346.617 79.813C354.787 83.553 361.237 91.383 366.707 98.083Z" fill="#F7941E"/>
<path d="M90.7177 68.0929C88.0981 62.51 85.9538 56.7162 84.3077 50.7729C76.3839 54.6887 69.8811 60.9817 65.7077 68.7729C65.2272 75.9329 65.3878 83.1216 66.1877 90.2529C66.3277 91.4329 66.4977 92.603 66.6977 93.7729C71.2177 82.8229 80.6677 73.4229 90.7177 68.0929Z" fill="#F7941E"/>
<path d="M102.518 86.1632C98.5014 81.5528 95.0379 76.4884 92.198 71.0732C80.108 77.7532 73.108 87.5632 67.918 99.6032C69.4985 106.293 72.0954 112.701 75.618 118.603C76.388 112.463 81.018 105.223 83.958 101.323C88.838 94.8232 95.408 89.9232 102.518 86.1632Z" fill="#F7941E"/>
<path d="M400.619 98.923C401.193 97.463 401.726 95.9863 402.219 94.493C404.637 87.0871 406.276 79.4491 407.109 71.703C403.001 65.8605 398.023 60.6806 392.349 56.343C389.073 53.862 385.598 51.6546 381.959 49.743C380.139 48.743 378.159 47.993 376.289 47.063C372.296 53.197 367.836 59.0142 362.949 64.463C371.529 67.373 379.279 74.463 385.569 80.643C390.799 85.823 396.689 92.123 400.619 98.923Z" fill="#F7941E"/>
<path d="M395.637 26.133C399.319 27.6593 402.871 29.4819 406.257 31.583C405.427 24.013 403.927 14.423 398.727 9.90305C393.527 5.38305 391.987 14.693 390.727 18.233C389.957 20.303 389.127 22.343 388.277 24.383C390.637 24.143 394.617 25.693 395.637 26.133Z" fill="#F7941E"/>
<path d="M407.566 66.2431C408.175 56.5975 407.937 46.9171 406.856 37.3131C399.646 32.1331 388.636 24.4131 387.136 27.2531C387.093 27.3222 387.025 27.3723 386.946 27.3931L386.736 27.8731C384.169 33.5693 381.226 39.0882 377.926 44.3931C384.386 46.0631 391.106 50.9231 395.696 54.5131C400.108 57.9338 404.093 61.872 407.566 66.2431Z" fill="#F7941E"/>
<path d="M142.479 173.613C124.479 175.863 113.349 191.793 110.869 208.733C110.399 211.933 115.139 213.423 115.869 210.103C118.869 196.363 127.079 182.453 142.099 180.103C158.539 177.543 164.719 191.223 172.099 202.783C172.782 203.981 174.251 204.481 175.523 203.95C176.795 203.418 177.471 202.021 177.099 200.693C173.459 184.923 159.269 171.513 142.479 173.613Z" fill="#231F20"/>
<path d="M314.927 171.733C301.717 173.063 291.727 185.553 289.927 198.233C289.557 200.823 293.417 203.233 294.687 200.233C298.407 191.493 301.937 181.623 312.117 178.703C324.627 175.123 333.267 184.483 335.977 195.593C336.697 198.593 341.027 197.793 341.177 194.893C341.847 180.923 328.227 170.393 314.927 171.733Z" fill="#231F20"/>
<path fill-rule="evenodd" clip-rule="evenodd" d="M426.747 117.293C421.673 119.008 416.895 121.484 412.114 123.961C408.141 126.019 404.165 128.078 400.017 129.703C395.468 131.481 390.824 133.006 386.107 134.273L385.797 134.353C409.247 111.933 416.977 77.203 414.797 45.013C414.717 43.783 414.627 42.533 414.527 41.293C414.964 40.8924 415.056 40.2388 414.747 39.733C414.627 39.513 414.487 39.293 414.347 39.083C413.697 31.203 412.637 23.083 409.977 15.803C407.777 9.80301 402.977 0.193007 395.497 0.00300725C388.828 -0.169479 386.665 7.1128 384.952 12.8786C384.58 14.1325 384.229 15.3148 383.857 16.333C380.444 25.5712 376.035 34.41 370.707 42.693C364.725 52.0686 357.596 60.6615 349.487 68.273C341.757 75.523 333.897 80.163 324.207 82.843C314.952 76.1527 304.868 70.6905 294.207 66.593C236.407 44.343 171.887 57.593 126.127 95.903C111.327 87.563 101.107 75.923 94.6473 59.783C91.3888 51.186 89.0426 42.2704 87.6473 33.183C87.4991 32.3085 87.3769 31.3231 87.2473 30.2777C86.5808 24.9041 85.7178 17.9454 80.1173 16.313C74.3673 14.633 69.2273 21.033 66.7473 25.313C62.9754 31.8677 61.9395 39.5882 60.9502 46.9613L60.8573 47.653C58.3373 65.923 56.6573 84.923 61.4073 102.923C65.4073 118.283 74.1873 132.363 87.6173 141.043C87.4376 141.028 87.257 141.028 87.0773 141.043C63.6973 145.623 44.2073 133.663 25.5873 121.133C24.3807 120.318 23.1733 119.466 21.9588 118.61L21.9564 118.608L21.9559 118.608L21.9558 118.608C18.7022 116.313 15.3972 113.982 11.9173 112.213C9.17731 110.813 6.30731 110.423 3.91731 112.713C-0.29947 116.75 -0.0868104 125.98 0.0601271 132.358L0.0601281 132.358C0.0846321 133.421 0.107308 134.405 0.107308 135.273C-0.132692 152.513 4.93731 169.823 21.2073 178.273C28.9483 182.208 37.5999 184.003 46.2673 183.473C54.1473 183.053 63.3373 181.383 70.8673 177.723C68.434 184.003 66.1806 190.336 64.1073 196.723C57.1073 218.073 51.1973 240.413 51.1073 263.013C51.0329 263.211 50.976 263.415 50.9373 263.623C49.5973 272.753 57.1573 277.713 65.4673 278.393C74.901 279.133 84.6471 278.662 94.2633 278.197H94.264L94.2659 278.197L94.2677 278.197L94.2697 278.197L94.2717 278.197L94.2736 278.197L94.2755 278.197L94.2776 278.197L94.2794 278.196L94.2814 278.196L94.2832 278.196L94.2851 278.196L94.2871 278.196L94.2889 278.196L94.2908 278.196L94.2927 278.196L94.2947 278.196L94.2966 278.196L94.2986 278.196L94.3004 278.195C97.6583 278.033 101 277.871 104.307 277.763C101.985 284.79 97.9576 291.028 93.9173 297.286L93.9169 297.286C92.6162 299.301 91.3142 301.317 90.0673 303.363C85.9264 310.18 82.3928 317.347 79.5073 324.783C78.9407 325.005 78.4485 325.383 78.0873 325.873C69.1673 337.553 60.4373 348.503 48.7873 357.653C42.9641 362.201 36.7575 366.237 30.2373 369.713C29.0913 370.334 27.8905 370.921 26.6781 371.514C22.0297 373.787 17.2112 376.143 14.6573 380.783C8.25731 392.403 21.2073 397.783 30.4873 398.083C32.1743 398.14 33.9279 398.226 35.7271 398.313C46.8005 398.851 59.5999 399.473 69.2173 394.183C69.4273 397.443 69.7173 400.703 70.0973 403.933C74.5973 441.443 92.3373 477.993 123.267 499.933V500.053C127.107 515.553 132.587 530.903 138.267 545.823C140.821 552.646 143.748 559.323 147.037 565.823C147.398 566.523 147.768 567.275 148.153 568.056L148.154 568.059C150.454 572.733 153.279 578.471 157.827 580.673C168.117 585.673 176.507 570.673 178.627 562.903C180.286 556.824 180.459 550.583 180.633 544.351C180.845 536.752 181.057 529.166 183.957 521.903C184.179 521.375 184.228 520.791 184.097 520.233C190.937 520.783 197.817 520.993 204.657 521.023C219.977 521.174 235.243 519.174 250.007 515.083C248.227 522.663 247.817 530.663 247.447 538.393L247.418 539.006C247.055 546.559 246.67 554.599 247.497 562.193C248.807 574.193 260.867 579.193 270.267 571.193C274.826 567.347 277.411 561.656 279.874 556.231C280.312 555.266 280.746 554.309 281.187 553.373C284.521 546.18 287.694 538.926 290.707 531.613C297.207 515.833 302.997 499.763 307.897 483.413C307.902 483.366 307.902 483.32 307.897 483.273C326.776 466.702 341.275 445.729 350.107 422.213C354.587 410.074 357.553 397.428 358.937 384.563C374.207 386.813 390.277 386.453 405.087 381.933C411.347 380.023 417.517 376.813 421.087 371.113C423.667 367.013 425.707 359.853 422.387 355.543C420.837 353.543 418.567 353.133 416.177 352.993C411.965 352.873 407.766 352.472 403.607 351.793C395.631 350.25 387.978 347.355 380.977 343.233C370.101 336.813 362.49 327.507 354.778 318.077L354.776 318.076L354.775 318.074C353.454 316.459 352.131 314.841 350.787 313.233C350.717 313.038 350.65 312.833 350.583 312.63C350.49 312.343 350.397 312.059 350.297 311.813C347.854 305.12 344.887 298.644 341.922 292.171C339.766 287.465 337.611 282.76 335.657 277.973L335.668 277.972C338.054 277.833 340.441 277.693 342.837 277.533C345.8 277.342 348.768 277.16 351.737 276.977C363.082 276.281 374.46 275.582 385.737 274.393C393.317 273.593 403.377 268.393 400.187 259.813C396.657 227.763 391.997 195.013 381.317 164.423C395.727 180.123 420.917 185.513 438.247 170.073C448.077 161.313 455.017 146.613 454.817 133.353C454.597 118.283 439.417 113.013 426.747 117.293ZM390.687 18.233C390.901 17.6521 391.119 16.9143 391.358 16.1069C392.574 11.9936 394.324 6.07453 398.687 9.90301C403.907 14.483 405.387 24.013 406.217 31.583C402.831 29.4819 399.279 27.6592 395.597 26.133C394.597 25.693 390.597 24.133 388.197 24.383C389.107 22.343 389.917 20.303 390.687 18.233ZM386.947 27.443L386.737 27.923C384.169 33.6022 381.226 39.1043 377.927 44.393C384.387 46.063 391.107 50.923 395.697 54.563C400.109 57.9837 404.094 61.9219 407.567 66.293C408.176 56.6474 407.939 46.9671 406.857 37.363C399.647 32.183 388.637 24.463 387.137 27.303C387.094 27.3722 387.026 27.4223 386.947 27.443ZM378.722 48.2123L378.722 48.2124L378.723 48.2127C379.81 48.703 380.894 49.1924 381.927 49.743C385.566 51.6546 389.041 53.862 392.317 56.343C398.002 60.6783 402.99 65.8583 407.107 71.703C406.283 79.4412 404.654 87.0725 402.247 94.473C401.747 95.9663 401.214 97.443 400.647 98.903C396.717 92.123 390.827 85.823 385.567 80.643C379.277 74.453 371.567 67.373 362.947 64.463C367.824 59.0131 372.274 53.196 376.257 47.063C377.066 47.465 377.894 47.8389 378.722 48.2123ZM361.627 65.8534C360.587 66.9832 359.547 68.1131 358.477 69.203C354.792 73.028 350.828 76.5744 346.617 79.813C354.787 83.553 361.237 91.383 366.707 98.083C373.542 106.476 379.594 115.477 384.787 124.973C390.433 118.608 395.085 111.427 398.587 103.673C396.939 101.523 395.376 99.3292 393.815 97.1375C390.423 92.3755 387.039 87.6257 382.807 83.373C379.315 79.8809 375.401 76.8965 371.494 73.9174C368.107 71.3344 364.725 68.7555 361.627 65.853L361.627 65.8534ZM343.298 82.203C351.998 86.813 358.418 93.873 364.618 101.643C371.169 109.904 376.959 118.74 381.918 128.043C378.308 131.683 374.322 134.931 370.028 137.733C360.228 118.473 347.178 101.473 330.967 88.113C335.361 86.7761 339.521 84.7655 343.298 82.153V82.203ZM66.9687 54.3441C66.825 55.8352 66.6832 57.3059 66.5273 58.743C66.413 59.7804 66.3142 60.8718 66.2172 61.9426L66.1773 62.383C70.5216 56.0526 76.524 51.0396 83.5273 47.893C83.054 46.0597 82.6173 44.2163 82.2173 42.363C81.6329 39.658 81.2003 36.9343 80.7677 34.211C80.4231 32.0416 80.0785 29.8724 79.6573 27.713C78.2873 20.673 73.6873 26.943 72.0273 30.413C68.5833 37.5965 67.7472 46.2693 66.9687 54.3441ZM66.1873 90.233C65.3874 83.1016 65.2268 75.913 65.7073 68.753C69.8807 60.9618 76.3835 54.6688 84.3073 50.753C85.9534 56.6962 88.0976 62.4901 90.7173 68.073C80.6673 73.403 71.2173 82.803 66.7173 93.733C66.4973 92.583 66.3273 91.413 66.1873 90.233ZM92.1973 71.073C80.0873 77.753 73.1073 87.603 67.9173 99.603C69.5017 106.279 72.0985 112.673 75.6173 118.563C76.3873 112.423 81.0173 105.183 83.9573 101.283C88.8373 94.823 95.4073 89.943 102.517 86.163C98.5008 81.5526 95.0372 76.4881 92.1973 71.073ZM78.1073 122.253C78.6532 121.053 78.958 119.796 79.27 118.509C79.478 117.651 79.6892 116.779 79.9773 115.903C81.5623 111.06 84.0044 106.542 87.1873 102.563C92.0273 96.563 98.3373 92.433 105.027 88.863C109.601 93.6692 115.026 97.5854 121.027 100.413C109.73 110.642 99.8766 122.359 91.7373 135.243C86.4069 131.822 81.7803 127.413 78.1073 122.253ZM7.82731 122.543C7.64731 124.353 7.50731 126.163 7.37731 127.973H7.35731C7.17731 130.473 7.10731 133.023 7.10731 135.563C7.69534 135.315 8.32052 135.166 8.95731 135.123C14.3024 134.836 19.2975 140.48 23.2063 144.897C24.1971 146.017 25.1181 147.058 25.9573 147.903C34.4273 156.423 43.3373 159.883 55.1973 161.103C64.9073 162.103 75.8173 161.533 81.6773 153.173C82.0212 152.421 82.4164 151.669 82.8115 150.917L82.8117 150.917C82.8723 150.802 82.933 150.686 82.9934 150.571L83.1073 150.353C82.3317 149.957 81.7926 149.213 81.6573 148.353C67.7773 150.653 53.2673 145.703 41.0773 139.133C34.4609 135.566 28.234 131.364 22.0106 127.164C20.9068 126.419 19.8031 125.674 18.6973 124.933C18.2066 124.604 17.4154 123.976 16.4781 123.232L16.4781 123.232L16.4779 123.232L16.4778 123.232C13.7671 121.08 9.83393 117.959 8.40731 118.293C8.53751 118.263 8.35949 119.278 8.16345 120.394C8.02824 121.165 7.88445 121.984 7.82731 122.543ZM46.2473 176.603C38.0273 177.083 29.4873 175.473 22.4273 171.093C11.4273 164.253 7.84731 152.693 7.18731 140.713C9.80731 138.046 12.174 138.063 14.2873 140.763C15.1606 141.563 16.0106 142.383 16.8373 143.223C17.7963 144.19 18.7259 145.186 19.6576 146.184L19.6646 146.192L19.6697 146.197L19.6727 146.2C19.9504 146.498 20.2283 146.796 20.5073 147.093C23.2559 150.168 26.2022 153.061 29.3273 155.753C35.0573 160.443 41.5973 162.823 48.8573 163.993C57.8573 165.433 69.1173 166.323 77.4273 162.093C76.3273 164.533 75.2373 166.983 74.2073 169.453C70.5024 170.257 66.9756 171.422 63.4641 172.582C57.8957 174.421 52.3662 176.247 46.2273 176.603H46.2473ZM68.7584 386.138C68.7748 386.129 68.7912 386.12 68.8075 386.11C68.8186 386.103 68.8296 386.097 68.8406 386.09C68.8491 386.084 68.8577 386.079 68.8663 386.073H68.8463C68.5839 371.548 70.2245 357.052 73.7262 342.953C63.8464 355.323 50.7667 365.713 37.6269 373.323C35.9371 374.293 34.0199 375.153 32.0685 376.028C28.3038 377.717 24.4116 379.463 21.7773 382.163C13.5374 390.503 28.1071 391.373 32.777 391.373C34.9648 391.361 37.2648 391.434 39.6225 391.509C49.6358 391.826 60.6884 392.176 68.5963 386.243C68.6503 386.201 68.7044 386.17 68.7584 386.138ZM173.467 551.133C173.167 556.303 172.347 561.713 170.017 566.403C168.867 568.713 167.227 571.603 164.907 572.883C160.359 575.384 158.325 571.862 156.329 568.406L156.232 568.237L156.129 568.06C156.085 567.984 156.041 567.908 155.997 567.833C148.286 554.598 143.322 540.21 138.361 525.829C135.93 518.783 133.5 511.739 130.747 504.833C132.747 506.033 134.837 507.183 136.957 508.263C149.697 514.713 163.467 518.023 177.507 519.653C174.201 527.438 173.971 535.515 173.738 543.749C173.668 546.198 173.599 548.66 173.447 551.133H173.467ZM272.775 555.584L272.778 555.578C273.035 555.013 273.287 554.458 273.537 553.923C282.983 533.528 291.194 512.583 298.127 491.203C288.996 498.023 279.119 503.783 268.687 508.373C264.447 510.233 260.147 511.863 255.797 513.293C255.807 513.416 255.807 513.54 255.797 513.663C255.807 520.163 255.352 526.652 254.897 533.147C254.403 540.201 253.908 547.262 254.007 554.353C254.01 554.524 254.013 554.699 254.016 554.878C254.109 560.824 254.271 571.095 263.007 567.833C268.058 565.965 270.6 560.372 272.775 555.584ZM398.937 357.843C401.757 358.509 404.611 359.016 407.487 359.363C408.138 359.445 409.109 359.45 410.185 359.454C412.646 359.466 415.654 359.479 416.607 360.433C419.137 362.973 414.087 369.013 412.307 370.543C409.631 372.689 406.539 374.259 403.227 375.153C389.227 379.433 373.947 379.843 359.537 377.653C360.181 367.986 359.956 358.28 358.867 348.653C358.155 342.395 357.093 336.182 355.687 330.043C367.107 343.353 381.747 353.763 398.937 357.863V357.843ZM348.457 401.663C353.343 380.486 353.732 358.519 349.597 337.183V337.203C346.697 322.377 340.861 308.888 334.984 295.303L334.983 295.302L334.983 295.301C332.571 289.728 330.153 284.138 327.927 278.433C321.381 278.786 314.834 279.076 308.287 279.303C315.267 301.513 306.507 336.133 280.197 340.923C274.887 341.923 268.257 341.383 264.587 337.013C261.454 333.282 261.047 327.7 260.69 322.805C260.629 321.966 260.569 321.148 260.497 320.363C260.034 315.391 259.826 310.419 259.618 305.445V305.444V305.443V305.442V305.441C259.508 302.793 259.397 300.143 259.247 297.493C258.877 290.773 257.757 284.313 253.247 279.223C245.382 278.882 237.525 278.431 229.669 277.981C214.731 277.124 199.795 276.268 184.807 276.163C161.327 276.011 137.856 276.756 114.393 277.501H114.392H114.391H114.389H114.388L110.857 277.613C108.687 286.197 103.939 293.677 99.1894 301.159C98.5331 302.192 97.8768 303.226 97.2273 304.263C90.4037 315.153 85.1709 326.963 81.6873 339.333C74.9367 363.712 73.9473 389.326 78.7973 414.153C86.7373 454.943 112.837 493.713 153.677 507.153C175.447 514.323 200.887 514.963 223.557 512.753C243.364 510.737 262.508 504.497 279.697 494.453C314.437 474.333 339.32 440.754 348.457 401.663ZM281.527 299.663C281.657 302.953 286.477 303.783 287.377 300.453C289.127 293.973 288.377 286.253 285.827 279.783C290.933 279.743 296.046 279.66 301.166 279.533C301.193 279.722 301.233 279.909 301.286 280.093C304.985 290.924 304.727 302.715 300.556 313.373C298.38 319.074 294.933 324.204 290.477 328.373C286.477 331.923 277.827 337.423 272.147 334.433C267.146 331.797 266.958 324.28 266.812 318.454V318.453C266.78 317.207 266.751 316.039 266.677 315.013C266.459 311.985 266.349 308.946 266.239 305.908C266.137 303.096 266.035 300.285 265.847 297.483C265.417 291.093 264.327 284.653 260.907 279.483L262.657 279.553C268.317 279.723 273.987 279.793 279.657 279.803C280.357 282.705 280.897 285.642 281.277 288.603C281.523 290.894 281.508 293.159 281.492 295.428V295.428C281.483 296.843 281.473 298.258 281.527 299.683V299.663ZM367.893 268.619C375.405 268.44 390.976 268.067 393.207 263.093C392.674 259.42 392.152 255.738 391.628 252.053C385.958 212.11 380.222 171.712 360.547 135.823C350.177 116.923 336.557 101.013 319.967 89.013C319.884 89.0026 319.803 88.9887 319.722 88.9749C319.568 88.9487 319.418 88.923 319.267 88.923C318.401 88.7924 317.709 88.1326 317.537 87.273C305.648 79.0689 292.493 72.8699 278.597 68.923C240.507 57.993 198.747 61.443 163.207 79.083C130.587 95.273 105.417 121.683 88.7273 153.843C80.0373 170.593 73.5273 188.323 67.8173 206.273C61.8773 225.023 57.4373 244.073 56.8173 263.763C56.8529 263.995 56.8529 264.231 56.8173 264.463C55.962 272.529 66.1881 272.119 72.2309 271.877C72.7583 271.856 73.2538 271.836 73.7073 271.823C80.22 271.634 86.7228 271.396 93.2353 271.158L93.3773 271.153L106.057 270.713C106.927 268.753 109.577 269.013 110.927 270.543L130.417 269.863C153.167 269.103 175.937 268.603 198.687 269.103C210.052 269.354 221.391 270.045 232.73 270.736L232.731 270.736C243.084 271.366 253.437 271.997 263.807 272.293C286.347 272.953 308.897 272.233 331.397 270.953C342.477 270.323 353.537 269.553 364.607 268.733C365.303 268.681 366.448 268.654 367.891 268.62L367.893 268.619ZM415.447 172.573C406.447 173.033 397.547 169.423 390.817 163.493C386.127 159.353 383.027 154.493 380.177 149.243C387.917 150.802 395.909 150.593 403.557 148.633C409.193 147.216 413.682 144.619 418.433 141.87C419.582 141.205 420.747 140.531 421.947 139.863C428.466 136.233 443.726 137.383 445.646 145.563C441.186 159.173 430.606 171.803 415.447 172.573ZM443.317 138.073C444.715 139.141 445.856 140.507 446.657 142.073C447.747 137.703 448.957 132.043 446.647 127.883C444.447 123.953 439.657 122.523 435.447 122.583C429.024 122.662 422.957 125.991 417.13 129.187C414.837 130.445 412.582 131.682 410.357 132.693C402.469 136.293 394.255 139.133 385.827 141.173C382.934 142.057 379.996 142.791 377.027 143.373L377.577 144.423C383.231 146.073 389.13 146.72 395.007 146.333C400.73 145.881 406.322 144.386 411.507 141.923C413.206 141.1 414.789 140.072 416.372 139.044C418.369 137.747 420.367 136.45 422.597 135.563C428.797 133.073 437.967 133.923 443.317 138.073Z" fill="#231F20"/>
</svg>
