<svg width="567" height="374" viewBox="0 0 567 374" fill="none" xmlns="http://www.w3.org/2000/svg">
<path d="M105.515 116.96C94.855 131.52 93.785 155.59 95.835 172.82C97.935 190.5 107.095 209.21 124.475 216.22C124.845 216.37 125.235 216.49 125.605 216.63C120.605 211.07 117.465 203.86 116.125 195.83C113.735 181.52 113.355 164.68 116.875 150.54C120.215 137.14 129.125 125.24 138.195 115.08C142.175 110.512 147.281 107.065 153.005 105.08C136.725 100.69 116.235 102.31 105.515 116.96Z" fill="white"/>
<path fill-rule="evenodd" clip-rule="evenodd" d="M332.716 19.79C400.476 26.93 476.926 48.52 522.926 102.24C545.886 129.03 557.526 166.75 543.116 200.57C526.206 240.02 474.986 248.86 436.686 249.49C432.356 249.56 427.926 253.31 428.236 257.94C429.326 273.79 429.186 289.89 426.796 305.62C425.386 314.91 422.856 326.15 415.696 332.84C396.056 351.18 370.166 306.36 363.626 292.69C360.826 286.84 349.846 287.78 348.916 294.61C348.339 298.877 347.789 303.15 347.239 307.422L347.238 307.427L347.238 307.43L347.238 307.431L347.238 307.432C346.117 316.134 344.997 324.837 343.656 333.5C343.569 334.061 343.488 334.684 343.403 335.346C342.959 338.793 342.38 343.294 340.006 345.5C336.146 349.09 328.726 344.08 325.406 341.37C311.442 329.979 307.693 309.254 304.651 292.436L304.556 291.91C303.186 284.31 290.466 284.24 289.136 291.91C287.997 298.526 287.893 305.398 287.789 312.273V312.274C287.653 321.278 287.517 330.287 285.056 338.73C282.246 348.34 272.836 361.91 261.136 356.73C252.073 352.731 248.289 340.758 245.49 331.898L245.486 331.886C245.367 331.511 245.251 331.142 245.136 330.78C242.038 321.008 239.048 311.203 236.057 301.396C234.123 295.055 232.189 288.714 230.226 282.38C228.586 277.08 223.306 275.91 219.306 277.52C214.086 278.551 208.845 279.638 203.585 280.729L203.585 280.729L203.585 280.73L203.584 280.73C169.774 287.743 135.21 294.912 100.916 288.37C64.6657 281.44 35.4657 258.94 22.1357 224.14C8.30568 188.05 13.6957 147.53 29.0057 112.8C36.2557 96.3 45.7257 80.81 59.0457 68.57C72.1257 56.53 87.9757 47.79 104.046 40.41C122.916 31.74 142.846 25.06 163.366 21.67C181.749 18.6391 200.498 17.9796 219.073 17.3262L219.076 17.3262L219.076 17.3262C220.173 17.2876 221.27 17.249 222.366 17.21C259.156 15.89 296.066 15.93 332.716 19.79ZM197.426 208.41C198.182 208.283 198.858 207.862 199.306 207.24V207.15C229.426 167.45 207.146 111.06 163.006 93.73C142.286 85.56 115.756 86.16 98.7557 102.08C80.6957 118.97 78.2657 151.39 81.0157 174.39C83.8057 197.64 96.1057 220.79 118.676 230.06C139.746 238.72 167.176 233.84 185.346 220.58C190.007 217.207 194.087 213.096 197.426 208.41ZM309.626 230.79L308.813 230.837C298.964 231.411 287.035 232.106 277.626 229.09C270.146 226.69 269.706 220.79 271.006 213.9L271.06 213.616C274.197 197.081 277.813 178.024 291.216 166.57C294.346 161.47 301.896 164.1 303.746 168.96C310.448 186.592 314.776 205.037 316.616 223.81C317.006 227.65 313.106 230.5 309.626 230.7V230.79ZM404.966 198.09C443.156 205.7 476.426 174.85 477.706 137.34C478.366 118.15 471.226 97.77 457.296 84.27C447.606 74.87 433.576 69.37 420.486 71.6C414.166 67.24 404.096 69.59 397.756 72.14C381.166 78.79 369.256 93.2999 363.166 109.79C350.706 143.54 366.576 190.44 404.966 198.09Z" fill="white"/>
<path d="M387.625 142.98C385.265 125.78 386.905 101.98 397.885 86.3901C397.384 86.6342 396.897 86.9046 396.425 87.2001C390.749 91.092 385.955 96.1345 382.355 102C374.509 114.305 371.426 129.052 373.685 143.47C376.885 162.67 389.685 179.27 407.395 183.57C395.645 174.34 389.705 158.15 387.625 142.98Z" fill="white"/>
<path d="M402.535 116.69C401.3 124.064 401.112 131.574 401.975 139C401.352 131.565 401.539 124.085 402.535 116.69V116.69Z" fill="white"/>
<path fill-rule="evenodd" clip-rule="evenodd" d="M558.885 128.84C571.145 159.35 568.955 197.44 548.885 224.24C526.005 254.75 482.565 264.47 445.515 266.12C446.175 283 445.405 300.43 441.515 316.76C438.525 329.29 432.345 342.86 420.665 349.48C397.675 362.53 375.685 341.92 361.415 321.03C361.255 322.195 361.098 323.363 360.94 324.53C360.783 325.698 360.625 326.865 360.465 328.03C360.291 329.312 360.133 330.602 359.975 331.896C359.269 337.657 358.556 343.48 356.375 348.87C350.885 362.48 337.685 365.6 324.945 359.8C314.285 354.98 306.895 346.64 301.595 336.8C300.718 342.776 298.795 348.551 295.915 353.86C288.995 366.26 275.745 376.11 260.995 373.26C246.505 370.45 238.275 357.41 233.195 344.66C227.98 331.56 224.031 317.822 220.103 304.158C218.601 298.931 217.101 293.715 215.535 288.55C171.855 302.55 123.905 312.41 79.2854 297.17C38.9954 283.41 10.8854 248.9 2.8854 207.34C-4.9346 166.85 5.3954 123.17 25.9854 87.8502C46.5754 52.5302 82.1554 32.6702 119.335 18.5302C160.105 3.0202 204.265 1.6602 247.405 0.750198C288.275 -0.0998016 329.315 1.6602 369.645 8.6602C441.515 21.1902 529.465 55.8402 558.885 128.84ZM428.175 257.9C427.865 253.27 432.295 249.52 436.625 249.45C474.925 248.82 526.145 239.98 543.055 200.57C557.525 166.79 545.925 129.07 522.925 102.24C477.005 48.4802 400.475 26.8902 332.775 19.7502C296.125 15.8902 259.215 15.8502 222.425 17.1702C221.336 17.2089 220.247 17.2472 219.156 17.2855C200.538 17.9392 181.781 18.5978 163.425 21.6302C142.905 25.0202 122.975 31.7002 104.105 40.3702C88.0454 47.7502 72.1954 56.5302 59.1054 68.5302C45.7554 80.8002 36.2854 96.3002 29.0054 112.8C13.6654 147.53 8.2754 188.05 22.1054 224.14C35.4354 258.94 64.6354 281.44 100.855 288.33C135.15 294.872 169.714 287.703 203.524 280.69C208.784 279.599 214.026 278.511 219.245 277.48C223.235 275.87 228.525 277.04 230.165 282.34C231.834 287.755 233.487 293.175 235.141 298.596C238.414 309.323 241.687 320.051 245.075 330.74C245.204 331.14 245.334 331.548 245.466 331.963C248.289 340.82 252.077 352.707 261.075 356.69C272.775 361.87 282.185 348.3 284.995 338.69C287.456 330.247 287.593 321.238 287.729 312.233C287.833 305.358 287.937 298.486 289.075 291.87C290.405 284.2 303.125 284.27 304.495 291.87L304.591 292.396C307.633 309.215 311.381 329.939 325.345 341.33C328.665 344.04 336.085 349.05 339.945 345.46C342.325 343.283 342.901 338.773 343.346 335.3C343.43 334.642 343.509 334.021 343.595 333.46C344.945 324.721 346.078 315.932 347.213 307.126C347.752 302.943 348.292 298.757 348.855 294.57C349.785 287.74 360.765 286.8 363.565 292.65C370.105 306.32 396.005 351.14 415.635 332.8C422.795 326.11 425.325 314.87 426.735 305.58C429.125 289.85 429.265 273.75 428.175 257.9Z" fill="#231F20"/>
<path d="M303.746 168.87C301.896 164.01 294.346 161.38 291.216 166.48C277.736 178 274.156 197.24 271.006 213.81C269.706 220.7 270.146 226.6 277.626 229C287.296 232.1 299.626 231.28 309.626 230.7C313.106 230.5 317.006 227.7 316.626 223.7C314.781 204.933 310.45 186.495 303.746 168.87Z" fill="#231F20"/>
<path fill-rule="evenodd" clip-rule="evenodd" d="M98.7551 101.99C115.785 86.0703 142.285 85.4703 163.005 93.6403C207.145 111.06 229.425 167.45 199.295 207.15C198.847 207.773 198.171 208.193 197.415 208.32C194.077 213.006 189.996 217.117 185.335 220.49C167.165 233.75 139.735 238.63 118.665 229.97C96.0951 220.7 83.7951 197.55 81.0051 174.3C78.2651 151.24 80.6951 118.88 98.7551 101.99ZM116.875 150.54C120.195 137.14 129.125 125.24 138.195 115.08C142.177 110.52 147.283 107.079 153.005 105.1C136.725 100.69 116.195 102.4 105.515 116.96C94.8351 131.52 93.8351 155.59 95.8351 172.82C97.9351 190.5 107.095 209.22 124.475 216.22C124.689 216.307 124.91 216.384 125.129 216.46C125.289 216.516 125.449 216.571 125.605 216.63C120.565 211.07 117.465 203.83 116.125 195.83C113.735 181.54 113.355 164.68 116.875 150.54Z" fill="#231F20"/>
<path fill-rule="evenodd" clip-rule="evenodd" d="M420.486 71.6004C414.166 67.2404 404.096 69.6004 397.756 72.1404C381.176 78.7904 369.256 93.3004 363.166 109.79C350.706 143.54 366.576 190.44 404.966 198.09C443.156 205.7 476.426 174.85 477.706 137.34C478.366 118.15 471.226 97.7704 457.296 84.2704C447.606 74.8704 433.576 69.3704 420.486 71.6004ZM402.486 116.69C402.418 117.199 402.353 117.708 402.292 118.218C401.261 125.097 401.138 132.085 401.926 139C401.345 132.077 401.468 125.114 402.292 118.218C402.369 117.708 402.45 117.199 402.536 116.69H402.486ZM382.306 102C374.46 114.306 371.377 129.052 373.636 143.47H373.686C376.886 162.67 389.676 179.24 407.396 183.61C395.626 174.38 389.706 158.19 387.626 143.02C385.266 125.82 386.886 101.99 397.886 86.4304C397.386 86.6745 396.898 86.9449 396.426 87.2404C390.736 91.1153 385.925 96.1442 382.306 102Z" fill="#231F20"/>
</svg>
