<svg width="167" height="581" viewBox="0 0 167 581" fill="none" xmlns="http://www.w3.org/2000/svg">
<path d="M76.1973 228.174C73.5773 228.644 70.8073 228.694 68.1973 228.964C65.0673 229.274 61.9173 229.664 58.7773 229.694C59.364 233.354 59.9673 237.02 60.5873 240.694C62.3773 251.244 63.3673 264.514 68.4273 274.134C71.1973 279.384 79.8173 283.994 81.3673 275.134C82.2773 269.964 80.6073 263.894 79.9673 258.764L76.1973 228.174Z" fill="#58595B"/>
<path d="M44.03 33.0638C42.03 30.5638 40.15 27.9938 38.24 25.6238C35.8067 22.5905 33.4033 19.5405 31.03 16.4738C30.2 15.4038 25.38 7.78384 24.4 7.87384C23.42 7.96384 21.4 27.4838 21.16 29.3438C20.56 33.0838 19.97 36.8238 19.25 40.5338C22.4903 38.9268 25.9307 37.7598 29.48 37.0638C33.94 35.9738 39.09 34.1138 44.03 33.0638Z" fill="#939598"/>
<path d="M80.1875 78.0641L61.2778 53.6742L55.5379 46.2942C54.8779 45.4442 53.7079 43.5242 52.6179 42.1542C51.9779 41.6442 51.3679 41.1042 50.7579 40.5542C46.858 38.9142 37.7581 42.7142 33.7582 43.6442C28.5783 44.8542 21.9384 45.6442 18.9284 50.6442C16.3985 54.8142 15.6485 60.7642 14.4585 65.3842C12.1985 74.1341 10.6886 83.3841 8.30859 92.2241C16.3085 85.7441 27.1483 82.8441 37.0282 81.0041C50.6679 78.4841 65.9477 76.5541 80.1875 78.0641Z" fill="#58595B"/>
<path d="M75.2502 220.514C73.8435 209.074 72.4269 197.627 71.0002 186.174L68.9002 169.234C68.2902 164.344 68.9802 155.414 65.1802 151.814C64.85 151.499 64.5761 151.131 64.3702 150.724C59.1202 148.864 51.9702 147.154 49.5702 153.004C47.7902 157.344 49.2102 163.854 49.7002 168.414C51.0102 180.694 53.1102 192.934 54.9702 205.134C55.8569 211.027 56.7635 216.917 57.6902 222.804C60.8502 222.114 64.1002 221.804 67.3202 221.424C69.9602 221.114 72.6102 220.644 75.2502 220.514Z" fill="#58595B"/>
<path d="M106.039 553.544C108.769 562.814 116.759 573.874 127.039 572.934C139.099 571.834 143.419 560.934 145.159 550.614C140.791 551.826 136.343 552.731 131.849 553.324C123.296 554.576 114.612 554.65 106.039 553.544H106.039Z" fill="#58595B"/>
<path fill-rule="evenodd" clip-rule="evenodd" d="M141.528 512.604C135.578 514.889 129.356 516.389 123.018 517.064C116.369 517.717 109.678 517.851 103.008 517.464C101.308 517.384 86.7783 516.594 82.8583 516.164C82.8733 515.829 82.8532 515.494 82.7983 515.164C63.2585 407.177 43.662 299.204 24.0089 191.244C22.6477 183.766 21.3168 176.277 19.9856 168.787L19.9855 168.787C16.0262 146.509 12.0637 124.213 7.28906 102.114C25.2634 85.7151 50.5618 85.9361 74.0519 86.1414C77.6921 86.1732 81.2889 86.2046 84.8083 86.1738C87.2487 103.022 91.0134 119.794 94.7658 136.511L94.7659 136.511C96.764 145.413 98.7587 154.3 100.548 163.174C106.055 190.547 111.328 217.964 116.368 245.424C126.395 300.351 135.488 355.434 143.648 410.674C145.487 423.109 147.07 435.607 148.653 448.109L148.653 448.109L148.653 448.11C150.824 465.245 152.995 482.386 155.828 499.384C155.878 500.948 156.025 502.508 156.268 504.054C155.114 504.78 153.987 505.523 152.866 506.262C149.265 508.636 145.722 510.972 141.528 512.604ZM129.308 407.284C129.498 402.514 127.838 397.044 126.379 392.514V392.534C126.189 391.944 125.229 392.064 125.249 392.664C125.409 397.384 125.689 403.124 127.469 407.534C127.602 407.977 128.037 408.257 128.495 408.195C128.953 408.132 129.298 407.746 129.308 407.284ZM114.209 288.394C117.509 303.194 119.619 318.194 121.499 333.234C122.479 341.08 123.359 348.94 124.139 356.814C124.308 358.513 124.51 360.233 124.713 361.964C125.433 368.108 126.171 374.397 125.539 380.444C125.409 381.684 123.609 382.104 123.259 380.754C121.89 375.5 121.523 369.948 121.16 364.456C121.016 362.285 120.873 360.124 120.669 357.994C119.949 350.474 119.179 343.044 118.329 335.584C117.522 328.555 116.614 321.539 115.705 314.519L115.705 314.518L115.705 314.517C114.588 305.887 113.471 297.252 112.539 288.584C112.439 287.654 114.009 287.484 114.209 288.394ZM63.4691 280.334C67.5691 286.164 75.6391 289.974 82.4691 286.334C90.5175 282.034 89.196 272.196 88.1526 264.43C88.0603 263.743 87.9703 263.073 87.8891 262.424C86.3024 249.524 84.7191 236.617 83.1391 223.704C81.3524 209.184 79.5724 194.664 77.7991 180.144C77.4653 177.421 77.1358 174.699 76.8062 171.976C76.257 167.439 75.7078 162.901 75.1391 158.364C74.5691 153.864 74.0191 149.684 70.5091 146.484C69.7152 145.708 68.6095 145.34 67.5091 145.484C60.7591 142.264 52.7291 140.004 46.3791 145.394C39.7762 150.987 41.3481 161.945 42.5211 170.122C42.6609 171.097 42.7951 172.032 42.9091 172.914C46.1691 198.124 49.9391 223.424 54.4191 248.424C54.7274 250.154 55.0148 251.963 55.3094 253.816C56.7534 262.904 58.3694 273.075 63.4691 280.334Z" fill="#939598"/>
<path d="M115.97 525.334C105.76 525.694 95.4798 524.684 85.3596 523.444C84.7496 523.364 84.1295 523.274 83.5195 523.164C84.2163 526.089 85.0743 528.973 86.0896 531.804C86.8317 534.198 87.8379 536.502 89.0897 538.674C91.4397 542.274 94.2198 543.044 98.0899 544.044C108.784 546.772 119.913 547.346 130.831 545.734C139.761 544.444 154.901 541.924 158.631 532.124C160.881 526.204 159.561 519.434 158.061 512.734C147.051 522.064 129.351 524.864 115.97 525.334Z" fill="#58595B"/>
<path fill-rule="evenodd" clip-rule="evenodd" d="M156.037 441.986C159.084 462.357 162.146 482.829 163.668 503.284C164.996 509.206 165.981 515.199 166.618 521.234C167.368 527.154 167.228 533.264 163.988 538.494C161.398 542.664 157.348 545.644 152.728 547.834C152.723 547.901 152.723 547.967 152.728 548.034C153.488 562.874 143.518 578.844 127.908 580.354C112.608 581.784 101.168 566.274 99.6783 552.354C96.5322 551.628 93.4568 550.624 90.4883 549.354C80.1483 544.964 76.9083 529.754 75.6683 518.964C75.3058 518.482 75.0656 517.919 74.9683 517.324C69.4683 486.924 63.9716 456.524 58.4783 426.124C48.7583 372.124 39.045 318.124 29.3383 264.124C26.5183 248.426 23.5852 232.73 20.6509 217.027C13.5231 178.883 6.38782 140.699 0.848297 102.354C0.255495 101.832 -0.0559361 101.061 0.0082971 100.274C0.397851 88.2973 3.84444 75.8465 7.11961 64.015L7.11966 64.0148C7.79599 61.5716 8.46502 59.1548 9.0983 56.774C9.6345 54.612 10.282 52.4792 11.0383 50.384C11.5385 44.0733 12.5762 37.7931 13.6125 31.5223C14.2544 27.6376 14.8957 23.7565 15.4083 19.874C15.5466 18.8154 15.615 17.4856 15.6905 16.0177C15.9916 10.1639 16.4056 2.1149 21.8183 0.323985C27.8838 -1.68981 33.0931 6.12571 36.7233 11.572L36.7233 11.5721C37.6178 12.9141 38.4164 14.1122 39.1083 14.984C41.0888 17.4754 43.3288 19.9606 45.6036 22.4845C49.1178 26.3834 52.7152 30.3747 55.5683 34.624C56.8685 35.8158 57.9761 37.3654 59.0464 38.8627L59.0464 38.8627L59.0464 38.8628L59.0465 38.8628L59.0465 38.8629C59.5566 39.5766 60.0583 40.2784 60.5683 40.924C70.1683 53.2973 79.775 65.6707 89.3883 78.044C89.8391 78.6223 90.1197 79.3149 90.1983 80.044C91.4097 81.0319 91.7679 82.7311 91.0583 84.124C94.3144 95.0002 96.6104 106.246 98.8925 117.424L98.8926 117.424L98.8926 117.424L98.8926 117.424L98.8926 117.424C99.6383 121.076 100.383 124.721 101.158 128.344C104.485 143.944 107.718 159.564 110.858 175.204C121.832 229.957 131.778 284.891 140.698 340.004C145.158 367.564 149.278 395.184 153.218 422.824C154.124 429.199 155.08 435.587 156.037 441.985L156.037 441.986ZM21.5546 26.0128C21.3625 27.7181 21.2217 28.9674 21.1583 29.374L21.0341 30.1488C20.4762 33.6304 19.9186 37.1102 19.2483 40.564C22.486 38.9397 25.9266 37.7558 29.4783 37.044C31.3745 36.5891 33.3955 35.9877 35.472 35.3698L35.472 35.3698L35.4722 35.3698C38.2797 34.5344 41.1887 33.6688 44.0283 33.094C43.0934 31.9194 42.1805 30.7294 41.2772 29.552L41.2771 29.5517L41.2769 29.5516C40.2578 28.223 39.2508 26.9104 38.2383 25.654C35.8116 22.6273 33.4083 19.5773 31.0283 16.504C30.8274 16.245 30.3963 15.6012 29.8435 14.7755C28.1121 12.1898 25.1866 7.82061 24.3983 7.90399C23.5856 7.98994 22.2417 19.9159 21.5546 26.0128ZM15.309 61.6803L15.309 61.6802C16.1388 57.8701 17.0353 53.7539 18.9281 50.634C21.5606 46.2465 27.0036 45.0853 31.7976 44.0626C32.4668 43.9198 33.1234 43.7798 33.7579 43.634C34.7606 43.4009 36.0838 42.9874 37.5652 42.5244C41.9934 41.1407 47.8354 39.3151 50.7577 40.544C51.3676 41.094 51.9776 41.634 52.6176 42.144C53.25 42.9388 53.9093 43.9188 54.4803 44.7675C54.8935 45.3817 55.2605 45.9271 55.5376 46.284L61.2775 53.664L80.1872 78.0642C65.9474 76.5542 50.6677 78.4842 37.0279 81.0642C27.148 82.9042 16.2582 85.8042 8.3083 92.2842C9.53723 87.66 10.5411 82.9355 11.5402 78.2335C12.4597 73.906 13.3751 69.5976 14.4582 65.4041V65.3741C14.7579 64.2106 15.0297 62.9628 15.309 61.6803ZM24.0083 191.244C43.675 299.191 63.2716 407.164 82.7983 515.164V515.194C82.8545 515.514 82.8779 515.839 82.8683 516.164C86.7883 516.594 101.318 517.384 103.018 517.464C109.685 517.85 116.372 517.717 123.018 517.064C129.362 516.397 135.591 514.904 141.548 512.624C145.743 510.992 149.286 508.656 152.887 506.282C154.008 505.543 155.135 504.8 156.288 504.074C156.046 502.528 155.899 500.968 155.848 499.404C153.015 482.406 150.844 465.264 148.674 448.129C147.09 435.627 145.507 423.129 143.668 410.694C135.548 355.441 126.448 300.351 116.368 245.424C111.342 217.964 106.068 190.547 100.548 163.174C98.7574 154.289 96.7585 145.393 94.7564 136.483C91.0012 119.771 87.2347 103.009 84.8083 86.174C81.3188 86.2046 77.7532 86.1748 74.1446 86.1447H74.1445C50.628 85.9485 25.2865 85.737 7.2883 102.114C12.063 124.214 16.0255 146.509 19.9849 168.787C21.3161 176.277 22.647 183.766 24.0083 191.244ZM127.019 572.904C116.759 573.844 108.768 562.784 106.018 553.514C114.585 554.618 123.263 554.544 131.809 553.294C136.304 552.701 140.751 551.796 145.12 550.584C143.4 560.904 139.08 571.834 127.019 572.934V572.904ZM130.808 545.704C139.738 544.414 154.878 541.894 158.608 532.094V532.124C160.858 526.204 159.538 519.434 158.018 512.754C147.028 522.054 129.328 524.884 115.948 525.354C105.738 525.714 95.4583 524.704 85.3383 523.464C84.7283 523.384 84.1083 523.294 83.4983 523.184C84.195 526.109 85.053 528.994 86.0683 531.824C86.8104 534.218 87.8166 536.522 89.0683 538.694C91.4283 542.294 94.2083 543.064 98.0683 544.064C108.765 546.775 119.894 547.333 130.808 545.704Z" fill="#231F20"/>
<path fill-rule="evenodd" clip-rule="evenodd" d="M83.1601 223.684C81.3668 209.164 79.5868 194.644 77.8201 180.124C77.4864 177.401 77.1568 174.679 76.8273 171.956C76.2781 167.419 75.7289 162.881 75.1601 158.344C74.5901 153.844 74.0401 149.664 70.5301 146.464C69.7363 145.688 68.6305 145.32 67.5301 145.464C60.7801 142.244 52.7501 139.984 46.4001 145.374C39.7972 150.967 41.3692 161.925 42.5422 170.102L42.5422 170.102C42.682 171.077 42.8162 172.012 42.9301 172.894C46.1901 198.104 49.9301 223.374 54.4401 248.404C54.7485 250.134 55.0359 251.942 55.3305 253.796C56.7744 262.884 58.3904 273.055 63.4901 280.314C67.6001 286.154 75.6701 289.964 82.4901 286.314C90.5179 282.025 89.2237 272.227 88.1971 264.454C88.1034 263.745 88.012 263.053 87.9301 262.384C86.3368 249.504 84.7468 236.604 83.1601 223.684ZM54.9701 205.134C54.5275 202.23 54.0689 199.325 53.6101 196.417L53.61 196.416C52.1408 187.105 50.6679 177.771 49.7001 168.414C49.6087 167.563 49.4848 166.644 49.3554 165.683C48.7915 161.499 48.1223 156.534 49.5701 153.004C51.9701 147.154 59.1201 148.864 64.3701 150.724C64.576 151.131 64.85 151.499 65.1801 151.814C68.0673 154.549 68.3625 160.361 68.6053 165.14V165.14C68.6821 166.651 68.7536 168.059 68.9001 169.234L71.0001 186.174C72.4201 197.62 73.8368 209.067 75.2501 220.514C73.4524 220.602 71.65 220.848 69.8492 221.094L69.849 221.094L69.8483 221.095C69.005 221.21 68.162 221.325 67.3201 221.424C66.8121 221.484 66.3034 221.542 65.7944 221.6L65.7888 221.601C63.0732 221.911 60.3498 222.223 57.6901 222.804C56.7635 216.924 55.8568 211.034 54.9701 205.134ZM68.4396 274.134C71.2094 279.354 79.8289 283.964 81.3788 275.134V275.144C82.0639 271.251 81.3149 266.849 80.6128 262.721C80.3823 261.367 80.1569 260.042 79.9889 258.774L76.2091 228.174C74.5015 228.479 72.7349 228.607 70.9941 228.733C70.0539 228.801 69.1213 228.869 68.2096 228.964C67.5687 229.027 66.927 229.095 66.2847 229.163C63.7902 229.428 61.287 229.694 58.7901 229.694C59.3767 233.367 59.98 237.034 60.6 240.694C61.0017 242.997 61.3605 245.43 61.7287 247.927C63.0467 256.864 64.4845 266.614 68.4396 274.134Z" fill="#231F20"/>
<path d="M120.67 357.994C121.39 365.514 121.35 373.424 123.26 380.754C123.61 382.104 125.41 381.684 125.54 380.444C126.35 372.694 124.91 364.544 124.14 356.814C123.37 349.084 122.48 341.084 121.5 333.234C119.62 318.234 117.5 303.234 114.21 288.394C114.01 287.484 112.44 287.654 112.54 288.624C114.23 304.304 116.54 319.914 118.33 335.624C119.176 343.057 119.956 350.514 120.67 357.994Z" fill="#231F20"/>
<path d="M125.246 392.684C125.406 397.404 125.686 403.144 127.466 407.554C127.599 407.997 128.034 408.277 128.492 408.215C128.95 408.153 129.295 407.766 129.305 407.304C129.495 402.494 127.836 397.064 126.376 392.534C126.186 391.944 125.226 392.064 125.246 392.684Z" fill="#231F20"/>
</svg>
