<svg width="516" height="580" viewBox="0 0 516 580" fill="none" xmlns="http://www.w3.org/2000/svg">
<path d="M99.4759 351.587C98.5509 351.262 97.5267 351.396 96.7159 351.947H96.6159C95.9563 351.998 95.3647 352.373 95.0359 352.947C94.38 354.355 94.4933 356.001 95.3359 357.307C96.2187 358.737 97.9268 359.429 99.5559 359.017C101.201 358.5 102.283 356.928 102.176 355.207C102.064 353.575 101.008 352.159 99.4759 351.587Z" fill="white"/>
<path d="M280.155 355.047C279.177 352.986 277.016 351.755 274.745 351.967C273.87 352.076 273.066 352.503 272.485 353.167C271.447 353.764 270.717 354.782 270.485 355.957C269.781 358.26 270.754 360.744 272.835 361.957C274.715 363.275 277.251 363.143 278.985 361.637C280.768 359.929 281.241 357.264 280.155 355.047Z" fill="white"/>
<path d="M112.727 345.267C111.747 343.213 109.594 341.986 107.327 342.187C106.454 342.301 105.651 342.727 105.067 343.387C104.029 343.989 103.3 345.009 103.067 346.187C102.362 348.492 103.34 350.98 105.427 352.187C107.3 353.523 109.848 353.386 111.567 351.857C113.341 350.144 113.809 347.483 112.727 345.267Z" fill="white"/>
<path d="M441.816 527.327C441.202 528.252 440.534 529.14 439.816 529.987C438.694 534.344 436.782 538.459 434.176 542.127C437.176 543.217 440.696 543.807 443.176 541.927C446.176 539.627 443.176 531.587 442.176 528.347C442.036 528.007 441.926 527.667 441.816 527.327Z" fill="#2B3990"/>
<path d="M435.104 522.847C435.829 520.858 436.702 518.926 437.714 517.067C435.836 513.208 433.614 509.526 431.074 506.067C430.074 504.737 428.294 502.347 426.074 499.827C425.192 505.392 423.239 510.734 420.324 515.557C422.27 517.889 423.991 520.4 425.464 523.057C427.049 525.799 428.33 528.706 429.284 531.727C430.673 528.939 432.278 526.264 434.084 523.727C434.369 523.375 434.715 523.077 435.104 522.847Z" fill="#009344"/>
<path d="M418.658 518.347C417.538 520.06 416.351 521.727 415.098 523.347C416.615 525.83 417.985 528.401 419.198 531.047C420.968 534.757 422.488 538.827 422.538 542.967C424.7 540.161 426.576 537.146 428.139 533.967C426.849 530.608 425.249 527.377 423.358 524.317C421.956 522.202 420.384 520.206 418.658 518.347V518.347Z" fill="#8DC63F"/>
<path d="M434.876 499.297C442.746 508.977 449.686 521.947 451.336 534.747C454.173 533.918 457.195 533.977 459.996 534.917C468.616 537.757 470.716 547.107 475.996 553.377C481.096 559.339 488.635 562.652 496.476 562.377C500.066 562.217 504.586 561.127 505.896 557.377C496.546 537.017 487.186 517.127 474.896 498.267C464.326 482.007 449.896 460.317 428.276 466.027C427.926 466.437 427.586 466.857 427.276 467.287C422.736 472.867 418.226 478.447 413.406 483.757C421.556 484.757 430.596 494.037 434.876 499.297Z" fill="#00AEEF"/>
<path d="M418.815 493.537C418.875 493.397 418.945 493.277 419.015 493.147C415.275 490.427 411.475 489.147 408.745 492.097C405.805 495.227 407.205 501.227 408.925 504.557C409.903 506.419 411.18 508.108 412.705 509.557C415.325 504.397 416.685 498.887 418.815 493.537Z" fill="#2B3990"/>
<path d="M450.165 465.777C459.736 470.727 466.396 479.917 472.376 488.577C485.376 507.397 497.587 527.957 506.217 549.387C505.947 547.187 505.517 545.027 505.217 543.197C502.167 526.337 493.436 511.197 483.756 497.287C478.826 490.207 473.556 483.357 468.226 476.577C462.896 469.797 457.006 462.117 448.925 458.577C441.415 455.257 436.085 457.987 431.375 462.697C437.585 461.307 444.535 462.867 450.165 465.777Z" fill="#2B3990"/>
<path d="M335.714 550.667C333.374 550.227 331.054 549.667 328.764 549.087C328.075 551.136 327.257 553.14 326.314 555.087C324.99 558.112 323.257 560.942 321.164 563.497C324.284 564.497 327.444 565.497 330.614 566.307C332.174 563.565 333.447 560.669 334.414 557.667C335.078 555.382 335.514 553.037 335.714 550.667Z" fill="#8DC63F"/>
<path d="M229.525 534.627C233.465 543.157 231.285 554.957 226.375 563.447C233.371 563.62 240.355 562.792 247.116 560.987C250.828 560.007 254.462 558.75 257.986 557.227C257.816 548.107 252.106 539.507 247.776 531.417C241.865 533.306 235.726 534.386 229.525 534.627Z" fill="#009344"/>
<path d="M227.163 534.687H225.573C221.942 534.637 218.321 534.268 214.754 533.587C216.554 538.117 215.324 544.587 214.154 548.997C213.087 553.251 211.157 557.24 208.484 560.717L208.994 560.867C213.92 562.232 218.979 563.06 224.083 563.337C225.913 559.39 227.179 555.206 227.843 550.907C228.643 545.307 227.523 540.177 227.163 534.687Z" fill="#8DC63F"/>
<path d="M257.145 527.167C255.072 528.417 252.897 529.491 250.645 530.377C253.344 534.81 255.598 539.5 257.375 544.377C258.815 548.067 260.375 552.197 260.245 556.207C261.578 555.54 262.911 554.85 264.245 554.137C264.835 553.797 265.415 553.437 265.985 553.077C266.135 549.091 265.659 545.106 264.575 541.267C262.985 535.837 259.945 531.827 257.145 527.167Z" fill="#8DC63F"/>
<path d="M296.415 542.017C298.285 538.887 298.185 535.907 298.615 532.617C297.615 531.717 296.725 530.797 295.816 529.837C294.642 532.719 292.842 535.305 290.546 537.407C288.046 539.757 284.897 541.677 281.547 541.757C284.217 543.957 287.006 546.037 289.886 548.007C292.386 546.397 294.696 544.907 296.415 542.017Z" fill="#8DC63F"/>
<path d="M266.324 537.277C267.803 541.948 268.333 546.868 267.884 551.747C270.414 549.937 272.824 547.917 275.354 546.147C272.181 543.361 269.166 540.4 266.324 537.277Z" fill="#009344"/>
<path d="M325.703 548.197C322.751 547.284 319.854 546.206 317.023 544.967C311.451 542.503 306.264 539.246 301.624 535.297C301.534 540.767 297.484 547.217 292.574 549.787C300.632 554.954 309.238 559.213 318.233 562.487C319.983 559.807 322.233 557.317 323.643 554.487C324.557 552.471 325.248 550.362 325.703 548.197Z" fill="#009344"/>
<path d="M338.924 551.197C338.28 556.817 336.305 562.202 333.164 566.907C341.63 568.943 350.289 570.076 358.994 570.287C362.686 570.356 366.379 570.209 370.054 569.847C370.664 565.307 371.754 560.847 371.734 556.187C371.705 554.174 371.507 552.167 371.144 550.187C360.552 552.456 349.638 552.798 338.924 551.197Z" fill="#009344"/>
<path d="M388.207 558.937C388.207 560.457 388.317 564.077 387.397 566.367C393.963 564.325 400.222 561.406 406.006 557.687C411.522 554.136 416.519 549.838 420.855 544.917C419.546 539.787 418.336 535.007 415.776 530.267C414.966 528.777 413.976 527.327 412.986 525.877C405.821 534.279 396.8 540.9 386.637 545.217C387.821 549.69 388.349 554.312 388.207 558.937Z" fill="#009344"/>
<path fill-rule="evenodd" clip-rule="evenodd" d="M9.11525 330.207C9.78525 343.517 20.3553 354.617 33.1153 357.317C36.3953 358.007 37.6353 362.727 35.1153 364.957C13.1853 384.397 20.5553 418.057 43.7053 432.867C54.2526 439.603 66.7073 441.647 78.8693 443.644C79.8872 443.811 80.903 443.978 81.9155 444.147L127.186 451.697C157.946 456.85 188.709 462 219.476 467.147C228.096 468.577 236.876 469.967 245.706 470.877C246.55 470.634 247.455 470.723 248.236 471.127C266.536 472.807 284.946 472.247 302.306 465.537C325.776 456.457 346.076 433.727 340.146 407.017C339.736 405.167 340.356 402.547 342.306 401.707C359.206 394.447 376.726 384.607 386.006 368.027C394.006 353.797 394.006 333.957 381.526 322.327C379.776 320.697 379.616 317.237 381.526 315.627L382.077 315.162L382.077 315.162C394.97 304.297 408.728 292.703 414.456 276.317C420.396 259.317 418.016 240.677 413.826 223.567C406.516 193.747 390.226 149.297 351.646 153.747C348.566 154.097 347.046 150.747 347.456 148.247C351.336 125.107 344.216 100.247 328.296 82.9167C312.463 65.9412 290.01 56.7199 266.816 57.6667C264.518 57.6249 262.66 55.7838 262.596 53.4867C261.056 35.1967 251.706 9.02673 229.766 8.31673C217.126 7.90673 204.656 15.5867 196.026 24.3167C187.762 32.7022 182.056 43.2675 179.576 54.7767C179.231 55.9942 178.343 56.9842 177.17 57.4592C175.997 57.9343 174.671 57.8411 173.576 57.2067C166.446 52.4867 157.166 56.5767 152.576 63.0667C147.074 70.9177 146.827 81.3412 146.607 90.6342C146.597 91.071 146.586 91.5053 146.576 91.9367C146.533 94.1611 144.74 95.9542 142.516 95.9967C118.876 96.5067 96.1355 109.857 84.6155 130.627C73.4654 150.747 74.0654 175.947 84.8155 196.007C85.9355 196.587 87.0455 197.207 88.1255 197.907C92.4155 200.687 89.0255 207.267 84.7955 205.807C83.5123 205.944 82.263 205.339 81.5754 204.247C81.5485 204.204 81.5231 204.162 81.498 204.12C81.4579 204.054 81.4185 203.988 81.3755 203.927C64.1754 194.927 42.1053 204.597 31.5653 219.777C16.3953 241.607 22.7253 271.687 32.8153 294.177C34.0253 296.867 33.1353 299.887 30.1153 300.817C17.7053 304.607 8.45525 317.007 9.11525 330.207ZM87.7753 414.757C86.7753 420.297 80.5452 422.447 75.6853 420.507C70.3153 418.377 68.0553 413.107 67.9153 407.717C63.1053 408.437 58.6253 405.477 56.8253 400.717C54.4053 394.357 56.5253 387.157 61.2053 382.517C61.9053 381.827 62.8253 382.837 62.2553 383.517C59.5819 387.011 58.2673 391.357 58.5553 395.747C58.9853 401.137 63.1853 406.427 69.0153 404.317C69.459 404.195 69.9339 404.288 70.3003 404.566C70.6667 404.844 70.8829 405.277 70.8853 405.737C70.6853 409.427 71.2953 413.477 74.2552 416.037C78.3253 419.557 83.0553 417.937 85.7353 413.807C85.9976 413.243 86.6669 412.999 87.2303 413.262C87.7936 413.524 88.0376 414.193 87.7753 414.757ZM73.2012 377.743C71.8554 373.464 70.5152 369.202 69.8948 364.617C68.8329 356.88 68.9171 349.029 70.1448 341.317C70.2748 340.547 69.1449 340.197 68.955 340.987C66.9481 348.757 66.342 356.823 67.1652 364.807C67.9951 372.067 69.5249 380.357 73.7543 386.447C74.0373 386.784 74.5072 386.896 74.9119 386.723C75.3167 386.551 75.5611 386.134 75.5141 385.697C74.85 382.987 74.0245 380.362 73.2012 377.743ZM95.6568 411.127C88.0661 410.437 80.2654 402.367 78.1853 395.347C78.0152 394.787 78.8253 394.237 79.1853 394.737C81.3004 397.733 83.6838 400.532 86.306 403.097C88.0302 404.625 89.9427 405.784 91.8555 406.943C93.2711 407.801 94.687 408.659 96.0268 409.667C96.5969 410.077 96.5269 411.207 95.6568 411.127ZM285.905 440.947C290.435 445.077 297.965 446.367 303.265 443.367C310.375 439.377 313.865 429.037 311.585 421.347C311.416 420.81 310.918 420.446 310.355 420.446C309.793 420.446 309.295 420.81 309.125 421.347C308.783 423.036 308.626 424.731 308.471 426.403C308.084 430.59 307.71 434.637 304.465 438.117C299.515 443.437 289.425 442.397 286.045 435.737C285.325 434.327 282.795 434.937 282.965 436.567C283.495 441.667 280.155 446.567 274.795 446.567C272.406 446.575 270.131 445.542 268.565 443.737C268.185 443.347 265.355 436.997 266.355 437.347C267.115 437.607 267.625 436.567 267.115 436.037C265.455 434.287 264.015 435.997 263.665 437.807C262.875 441.857 265.925 446.207 269.175 448.207C276.055 452.487 284.005 447.867 285.905 440.947ZM326.806 387.057C323.775 392.223 320.436 397.202 316.806 401.967C316.712 402.092 316.619 402.217 316.526 402.342L316.394 402.52C313.934 405.833 311.461 409.164 307.605 410.907C307.496 410.932 307.383 410.887 307.32 410.793C307.258 410.7 307.26 410.578 307.325 410.487C313.865 403.667 319.196 394.487 323.826 386.287C326.62 381.466 328.848 376.339 330.466 371.007C331.286 368.192 331.666 365.342 332.046 362.488C332.297 360.606 332.549 358.722 332.926 356.847C333.07 356.387 333.495 356.075 333.976 356.075C334.457 356.075 334.883 356.387 335.026 356.847C337.176 366.877 331.676 378.567 326.806 387.057ZM371.412 329.768C373.059 333.636 374.766 337.649 372.506 341.717C369.916 346.397 364.006 347.147 360.556 343.047C360.135 342.643 359.517 342.521 358.974 342.737C358.432 342.952 358.065 343.464 358.036 344.047C358.376 348.627 358.366 353.747 353.846 356.307C351.818 357.453 349.403 357.7 347.185 356.987L345.085 355.987C344.363 355.062 343.353 354.404 342.215 354.117L342.335 354.047C342.674 353.836 342.789 353.396 342.595 353.047C342.545 352.967 342.485 352.887 342.435 352.797C342.226 352.467 341.845 352.289 341.458 352.341C341.072 352.392 340.75 352.664 340.635 353.037C338.825 357.617 348.145 360.427 351.146 360.117C358.246 359.377 360.706 353.507 361.016 347.437C370.756 353.967 382.806 337.187 372.806 328.077C372.466 327.638 371.835 327.557 371.396 327.897C370.957 328.236 370.876 328.868 371.216 329.307L371.355 329.633L371.357 329.639L371.36 329.646L371.403 329.748L371.412 329.768ZM330.975 276.217C330.824 275.594 331.1 274.946 331.654 274.623C332.207 274.3 332.907 274.379 333.375 274.817C335.702 276.65 337.202 276.267 337.875 273.667C339.569 272.073 339.719 270.25 338.325 268.197C337.825 267.037 338.985 265.197 340.325 266.197C348.185 271.897 355.425 265.537 357.195 257.507C359.075 248.977 356.645 239.117 346.695 238.007C345.97 237.945 345.413 237.339 345.413 236.612C345.413 235.884 345.97 235.278 346.695 235.217C359.095 233.867 362.215 249.217 360.145 258.327C358.145 267.087 350.305 273.967 341.945 270.487C342.285 273.067 341.745 275.697 339.525 277.487C338.089 278.643 336.201 279.074 334.405 278.657C335.015 287.057 325.925 292.377 317.645 290.207C313.141 289.025 309.453 285.797 307.684 281.489C305.915 277.181 306.271 272.293 308.645 268.287C309.015 267.677 310.095 268.087 309.825 268.787C307.315 275.377 308.765 283.287 315.585 286.657C322.935 290.247 334.325 285.817 330.975 276.217ZM270.645 213.207C270.915 212.437 269.665 211.897 269.325 212.647C266.005 219.937 269.925 228.487 278.405 229.177C284.64 229.74 290.192 225.243 290.935 219.027C294.539 220.1 298.418 219.741 301.765 218.027C307.134 214.917 308.944 208.777 307.324 203.227C314.744 204.397 321.754 198.757 322.994 191.137C324.454 182.227 318.264 171.227 309.264 168.827C308.781 168.707 308.276 168.921 308.026 169.351C307.776 169.782 307.841 170.326 308.184 170.687C309.269 171.736 310.389 172.708 311.487 173.662L311.487 173.663C315.845 177.449 319.871 180.946 320.094 187.767C320.364 195.887 313.094 202.747 305.094 199.387C303.784 198.837 302.745 200.587 303.354 201.647C305.494 205.397 305.554 210.207 302.555 213.567C301.125 215.147 293.265 218.557 290.985 215.947C290.883 214.959 290.668 213.986 290.345 213.047C290.125 212.344 289.43 211.903 288.701 212.002C287.972 212.101 287.42 212.711 287.395 213.447C287.221 214.605 287.439 215.787 288.015 216.807C288.245 221.837 284.765 226.507 279.085 226.427C272.295 226.337 268.515 219.207 270.645 213.207ZM194.725 101.347C195.825 101.277 195.935 102.877 194.975 103.187C192.185 104.077 195.345 111.637 196.135 112.927C197.646 115.461 200.033 117.354 202.846 118.247C209.346 120.247 215.656 115.427 215.016 108.547C215.022 107.976 215.33 107.451 215.826 107.167C216.322 106.883 216.93 106.883 217.426 107.167C221.706 109.847 224.286 104.167 224.986 100.927C225.675 97.5898 225.726 94.1526 225.136 90.7967C224.946 89.5867 226.216 88.0867 227.486 88.9967C230.786 91.3767 234.847 88.5367 235.617 84.9967C236.277 81.9967 235.207 78.7467 234.147 75.9167C234.027 75.601 233.895 75.2419 233.751 74.8484L233.75 74.8464C232.232 70.7161 229.327 62.8148 225.356 61.7467C224.186 61.4467 224.546 59.8567 225.626 59.7467C229.673 59.3973 231.554 63.073 233.199 66.2871L233.201 66.2899L233.204 66.2968C233.346 66.5746 233.487 66.8488 233.627 67.1167C235.917 71.5767 238.367 76.5167 238.847 81.5667C239.407 87.4267 234.537 94.5667 228.636 93.0767C229.086 98.0167 228.636 103.457 225.826 107.487C224.215 110.051 221.225 111.401 218.236 110.917C217.466 119.557 207.786 124.277 199.816 120.287C195.316 117.883 192.277 113.432 191.675 108.367C191.325 105.637 191.265 101.587 194.725 101.347ZM177.344 186.122C176.996 186.025 176.634 186.222 176.525 186.567C174.685 192.257 172.935 202.207 181.035 204.157C184.125 204.897 187.595 203.557 189.935 201.257C192.165 209.017 200.005 215.657 207.935 215.947C218.485 216.337 221.955 206.497 222.145 197.607C225.033 199.321 228.348 200.181 231.705 200.087C238.229 199.651 239.881 192.299 241.139 186.704C241.294 186.013 241.443 185.348 241.595 184.727C241.808 183.954 241.353 183.154 240.58 182.942C239.807 182.729 239.008 183.184 238.795 183.957C238.46 184.865 238.153 186.085 237.819 187.409L237.819 187.41C237.041 190.503 236.12 194.164 234.355 195.747C232.105 197.777 222.955 196.597 221.955 192.937L221.865 192.177C221.815 192.037 221.815 191.887 221.815 191.757C221.555 189.907 218.765 190.477 218.695 192.177C218.676 192.697 218.741 193.217 218.885 193.717C219.715 201.497 218.145 213.277 207.945 212.927C200.465 212.627 192.985 205.427 192.155 197.927C192.735 196.472 192.799 194.863 192.335 193.367C192.165 192.787 191.634 192.39 191.03 192.39C190.427 192.39 189.895 192.787 189.725 193.367C189.349 194.832 189.214 196.348 189.325 197.857C188.61 199.208 187.447 200.269 186.035 200.857C182.695 202.147 179.195 201.567 177.615 198.257C175.905 194.697 176.915 190.587 177.815 186.927C177.901 186.576 177.693 186.22 177.344 186.122ZM115.685 150.987C115.867 150.675 116.268 150.569 116.58 150.752C116.892 150.934 116.997 151.335 116.815 151.647C116.602 152.053 116.369 152.487 116.125 152.945L116.124 152.947C114.071 156.785 111.144 162.256 111.385 166.267C111.845 174.087 123.255 173.997 128.325 172.597C129.575 172.247 130.915 173.747 130.105 174.907C126.865 179.547 127.705 186.697 133.155 189.327C138.604 191.957 142.774 188.397 146.474 184.857C146.836 184.523 147.373 184.464 147.799 184.712C148.224 184.96 148.437 185.457 148.324 185.937C146.974 193.027 136.744 195.077 131.175 192.007C125.605 188.937 123.715 181.917 125.835 176.247C120.195 176.917 113.435 175.847 110.045 171.247C105.831 165.458 111.59 157.002 115.078 151.881L115.078 151.88C115.29 151.57 115.493 151.271 115.685 150.987ZM107.525 219.547C107.735 219.217 107.315 218.747 106.975 218.987V219.027C102.325 222.277 98.4152 227.487 100.365 233.347C102.075 238.497 106.865 241.007 111.865 241.567C110.485 248.187 111.615 255.547 117.745 259.487C122.595 262.587 130.475 261.867 132.745 255.977C133.235 254.757 131.505 254.017 130.655 254.757C126.645 258.287 121.935 259.627 117.725 255.347C113.795 251.337 113.925 245.557 115.315 240.557C115.45 240.085 115.356 239.577 115.061 239.185C114.767 238.792 114.306 238.56 113.815 238.557C108.865 238.537 103.505 236.397 102.745 230.857C102.263 227.391 104.282 224.405 106.189 221.584L106.189 221.584C106.654 220.896 107.112 220.219 107.525 219.547ZM92.0452 308.887C105.795 297.467 124.695 290.327 142.655 290.797C144.035 285.347 147.215 280.057 150.355 275.917C156.265 268.097 166.135 261.997 175.735 267.207C177.905 268.397 176.305 271.347 174.155 270.957C164.935 269.297 158.005 275.557 153.495 282.837C149.785 288.837 145.245 297.747 151.715 303.577C163.805 314.477 178.885 299.377 186.765 290.957C188.925 288.647 193.295 290.387 193.135 293.597C193.081 294.653 192.796 296.044 192.484 297.56C191.643 301.655 190.614 306.668 193.445 308.507C198.825 311.997 201.645 301.507 202.515 298.087C203.265 295.147 208.025 294.167 209.395 297.187C212.935 305.037 222.135 306.807 229.995 306.547C236.155 306.347 239.265 304.197 241.205 298.357C243.006 292.796 243.904 286.982 243.865 281.137C243.865 276.307 251.295 276.317 251.365 281.137C251.432 285.106 251.13 289.073 250.465 292.987C270.545 293.707 290.715 300.197 306.725 312.487C313.995 318.067 319.885 325.097 322.645 333.947C325.525 343.147 325.235 353.297 323.885 362.747C321.735 377.877 315.645 392.747 305.355 404.197C293.825 417.027 278.275 422.417 261.355 423.507C240.935 424.827 220.065 424.017 199.645 423.087C179.248 422.298 158.926 420.146 138.815 416.647L138.32 416.557C120.58 413.344 101.556 409.897 89.8152 394.937C80.0393 382.31 74.5338 366.9 74.0952 350.937C73.7353 334.917 79.5752 319.257 92.0452 308.887ZM52.3753 277.307C53.2253 277.127 52.9353 275.967 52.1753 275.887V275.857C49.6432 275.549 47.1139 276.451 45.349 278.293C43.5841 280.135 42.7898 282.7 43.2053 285.217C44.0453 290.157 48.4453 292.067 52.8653 292.957C49.4353 296.227 46.6053 300.337 48.4353 305.337C49.6994 308.84 52.9727 311.218 56.6953 311.337C55.0453 315.507 54.8553 319.617 59.0453 323.037C63.2353 326.457 70.6653 326.577 74.7552 323.037C75.0582 322.725 75.1474 322.264 74.9823 321.862C74.8173 321.461 74.4295 321.195 73.9953 321.187C72.7011 321.232 71.4582 321.504 70.2241 321.773C68.1874 322.218 66.1747 322.658 63.9953 322.067C57.8853 320.427 58.1653 314.937 60.6353 310.427C60.9449 309.866 60.8925 309.175 60.5019 308.667C60.1113 308.159 59.4568 307.931 58.8353 308.087C54.1953 308.997 49.8753 305.027 51.3153 300.247C52.1711 297.406 54.7608 295.283 57.0043 293.443C57.1462 293.326 57.2867 293.211 57.4253 293.097C58.5653 292.157 57.5053 290.597 56.3353 290.477C56.2299 290.466 56.1236 290.454 56.0165 290.443C53.1377 290.143 49.7 289.784 47.6753 287.547C43.7653 283.247 47.4353 278.307 52.3753 277.307Z" fill="#F7941E"/>
<path d="M212.518 539.197C212.33 537.169 212.287 535.131 212.388 533.097C206.125 531.663 200.131 529.243 194.628 525.927C195.348 533.717 188.628 542.927 181.758 546.697C189.041 552.605 197.345 557.13 206.258 560.047C208.534 556.385 210.278 552.419 211.438 548.267C212.187 545.303 212.55 542.254 212.518 539.197Z" fill="#009344"/>
<path d="M372.465 569.587C376.543 569.079 380.58 568.28 384.545 567.197C386.885 564.547 385.355 555.137 384.935 552.197C384.62 550.24 384.166 548.308 383.575 546.417C380.556 547.597 377.471 548.598 374.335 549.417C374.54 551.664 374.62 553.921 374.575 556.177C374.505 560.487 374.075 565.397 372.465 569.587Z" fill="#8DC63F"/>
<path d="M338.775 505.047C346.505 517.517 354.115 530.047 361.775 542.557C362.925 542.417 364.065 542.257 365.195 542.067C366.005 541.937 366.815 541.787 367.625 541.637L367.545 541.537C361.845 532.997 356.162 524.44 350.495 515.867C345.275 507.997 340.415 499.657 334.645 492.177C331.795 488.467 327.815 484.657 322.865 484.337C320.56 484.255 318.296 484.961 316.445 486.337C326.815 486.777 333.715 496.877 338.775 505.047Z" fill="#2B3990"/>
<path d="M322.675 537.957C324.485 538.637 326.335 539.247 328.205 539.797C328.394 539.586 328.682 539.493 328.959 539.553C329.235 539.613 329.459 539.817 329.545 540.087C329.545 540.087 329.545 540.147 329.545 540.177C338.858 542.715 348.539 543.639 358.165 542.907L339.875 513.017C333.525 502.617 327.325 489.317 313.445 488.747C312.385 489.697 311.375 490.677 310.395 491.557C303.815 497.417 297.395 503.607 290.395 508.887C291.275 510.447 292.205 511.977 293.185 513.477C300.375 524.487 310.265 533.277 322.675 537.957Z" fill="#00AEEF"/>
<path d="M261.055 518.657C262.939 521.741 265.034 524.691 267.324 527.487C270.964 531.927 274.978 536.045 279.324 539.797C283.184 539.797 286.714 537.377 289.264 534.607C290.556 533.203 291.634 531.616 292.463 529.897C292.883 529.027 293.173 528.117 293.523 527.247C289.046 522.059 285.177 516.375 281.994 510.307C279.438 512.662 276.521 514.594 273.354 516.027C270.124 517.487 265.215 519.047 261.055 518.657Z" fill="#009344"/>
<path d="M254.676 505.657C256.058 509.272 257.703 512.781 259.596 516.157C264.296 516.667 269.916 514.737 273.697 512.667C276.216 511.221 278.453 509.331 280.297 507.087C278.657 503.708 277.191 500.246 275.907 496.717C271.096 502.377 262.016 505.357 254.676 505.657Z" fill="#8DC63F"/>
<path fill-rule="evenodd" clip-rule="evenodd" d="M109.866 400.527C96.1065 394.167 88.0765 379.477 84.3866 365.327C80.4566 350.237 81.5266 332.627 91.9065 320.237C103.546 306.307 124.086 298.467 142.016 297.467C142.176 299.937 142.916 302.336 144.176 304.467C148.406 311.577 157.666 314.647 165.556 313.697C172.936 312.817 179.216 308.597 184.726 303.597C184.406 309.457 185.446 315.057 192.726 316.457C200.006 317.857 204.546 312.947 207.296 307.117C213.766 313.157 224.056 314.797 232.686 313.977C239.076 313.367 244.036 310.597 246.866 304.677C247.376 303.597 247.826 302.477 248.246 301.337C248.345 301.342 248.446 301.342 248.546 301.337C265.279 301.55 281.631 306.37 295.805 315.267C302.235 319.377 308.295 324.597 311.895 331.437C315.735 338.757 316.135 347.287 315.645 355.387C314.907 368.844 310.502 381.843 302.905 392.977C294.505 405.057 282.025 412.097 267.505 413.977C253.597 415.784 239.088 415.365 224.871 414.954H224.871H224.87H224.87H224.87C221.393 414.853 217.934 414.753 214.506 414.687C196.636 414.347 178.756 413.427 160.996 411.347C151.889 410.293 142.846 408.877 133.866 407.097C133.513 407.028 133.158 406.959 132.803 406.89C125.067 405.387 117.028 403.825 109.866 400.527ZM285.147 350.337C282.764 347.763 279.433 346.274 275.927 346.217C269.627 340.947 262.687 353.047 263.337 358.547C264.297 366.657 273.247 372.517 280.837 368.657C287.367 365.337 290.147 356.147 285.147 350.337ZM264.597 378.727C265.49 377.859 266.681 377.365 267.927 377.347C269.814 377.363 271.509 378.504 272.235 380.247C272.96 381.989 272.575 383.996 271.257 385.347C270.363 386.213 269.171 386.703 267.927 386.717C265.347 386.674 263.265 384.596 263.217 382.017C263.241 380.784 263.734 379.608 264.597 378.727ZM176.992 358.084C176.231 357.981 175.505 358.436 175.267 359.167C171.627 368.717 177.166 380.217 188.306 380.057C198.686 379.877 209.305 368.187 207.125 357.737C206.882 356.896 206.215 356.245 205.369 356.022C204.523 355.799 203.622 356.036 202.995 356.647C201.265 358.549 200.147 360.903 199.036 363.241C197.175 367.159 195.336 371.031 190.676 372.647C181.996 375.657 179.116 366.277 178.366 359.587C178.331 358.819 177.753 358.187 176.992 358.084ZM110.857 376.087C109.147 377.794 106.377 377.794 104.667 376.087C103.42 374.834 103.048 372.955 103.723 371.322C104.399 369.689 105.989 368.622 107.757 368.617C108.915 368.632 110.024 369.09 110.857 369.897C112.564 371.607 112.564 374.377 110.857 376.087ZM117.588 352.647C120.228 346.187 118.228 337.367 110.227 336.427C102.127 335.487 95.6364 343.797 97.8166 351.447C98.1704 352.783 99.2117 353.828 100.547 354.187L100.837 354.277C101.125 354.488 101.482 354.585 101.837 354.547C103.758 356.412 106.268 357.55 108.937 357.767C110.461 357.888 111.992 357.666 113.418 357.117C115.648 356.257 116.698 354.787 117.588 352.647Z" fill="white"/>
<path d="M188.438 535.977C190.628 532.077 190.698 528.107 191.768 524.057C189.664 522.601 187.66 521.008 185.768 519.287C184.658 523.527 180.438 527.707 177.368 530.497C175.058 532.607 172.448 534.437 169.508 534.497C172.616 538.298 176.052 541.818 179.778 545.017C183.208 542.487 186.258 539.877 188.438 535.977Z" fill="#8DC63F"/>
<path d="M162.544 501.337C165.204 499.957 167.353 497.797 169.863 496.247C168.951 494.017 168.157 491.74 167.483 489.427C163.004 492.917 156.584 494.737 151.145 494.917C151.804 497.747 152.524 500.557 153.334 503.347C156.529 503.511 159.708 502.817 162.544 501.337Z" fill="#8DC63F"/>
<path d="M166.514 485.677C165.246 480.126 164.682 474.438 164.834 468.747C164.843 468.303 164.982 467.872 165.234 467.507L143.324 463.857C146.604 473.257 148.404 483.177 150.644 492.957C154.375 492.443 157.989 491.286 161.324 489.537C163.196 488.453 164.938 487.158 166.514 485.677Z" fill="#009344"/>
<path d="M266.118 499.687C269.398 498.037 271.878 495.497 274.738 493.387C273.404 489.346 272.289 485.237 271.398 481.077C264.127 481.364 256.846 481.187 249.598 480.547C249.858 488.313 251.287 495.996 253.838 503.337C258.105 502.81 262.255 501.576 266.118 499.687Z" fill="#009344"/>
<path d="M184.137 517.747C178.72 512.371 174.317 506.064 171.137 499.127C166.937 503.517 159.957 506.707 154.047 505.587C154.607 507.397 155.207 509.187 155.877 510.967C158.812 518.692 162.869 525.943 167.917 532.487C175.707 532.427 179.187 522.187 184.137 517.747Z" fill="#009344"/>
<path fill-rule="evenodd" clip-rule="evenodd" d="M138.321 416.555C120.593 413.342 101.573 409.895 89.8242 394.937C80.0418 382.295 74.5393 366.866 74.1142 350.887C73.7442 334.887 79.5842 319.257 92.0542 308.887C105.804 297.467 124.664 290.327 142.664 290.797C144.044 285.347 147.224 280.057 150.364 275.917C156.274 268.097 166.144 261.997 175.744 267.207C177.914 268.397 176.314 271.347 174.164 270.957C164.944 269.297 158.014 275.557 153.504 282.837C149.794 288.837 145.254 297.747 151.724 303.577C163.774 314.477 178.894 299.377 186.774 290.957C188.934 288.647 193.304 290.387 193.144 293.597C193.09 294.653 192.805 296.044 192.493 297.56C191.652 301.655 190.623 306.668 193.454 308.507C198.834 311.997 201.654 301.467 202.524 298.087C203.274 295.187 208.034 294.187 209.404 297.187C212.944 305.037 222.144 306.807 230.004 306.547C236.164 306.357 239.274 304.197 241.214 298.357C243.015 292.796 243.913 286.982 243.874 281.137C243.894 276.307 251.304 276.317 251.374 281.137C251.44 285.106 251.139 289.073 250.474 292.987C270.554 293.707 290.734 300.197 306.734 312.487C314.004 318.067 319.894 325.097 322.654 333.947C325.534 343.147 325.244 353.297 323.894 362.747C321.744 377.877 315.654 392.747 305.364 404.197C293.814 417.027 278.264 422.417 261.364 423.507C240.944 424.827 220.074 424.017 199.654 423.087C179.257 422.298 158.935 420.146 138.824 416.647L138.321 416.555ZM141.994 297.457C124.064 298.417 103.524 306.297 91.8842 320.227C81.5242 332.627 80.4542 350.237 84.3642 365.317C88.0542 379.467 96.0842 394.157 109.844 400.517C116.85 403.731 124.689 405.279 132.198 406.761C132.748 406.87 133.297 406.978 133.844 407.087C142.831 408.86 151.874 410.277 160.974 411.337C178.734 413.417 196.614 414.327 214.484 414.677C217.901 414.743 221.349 414.843 224.816 414.944C239.018 415.355 253.539 415.775 267.484 413.967C282.004 412.067 294.454 405.027 302.884 392.967C310.481 381.834 314.886 368.834 315.624 355.377C316.114 347.277 315.714 338.747 311.874 331.427C308.274 324.587 302.214 319.367 295.784 315.257C281.61 306.36 265.258 301.541 248.524 301.327C248.424 301.332 248.324 301.332 248.224 301.327C247.844 302.467 247.354 303.587 246.844 304.667C244.014 310.587 239.054 313.357 232.664 313.967C224.034 314.787 213.744 313.107 207.274 307.107C204.524 312.937 199.914 317.827 192.704 316.447C185.494 315.067 184.414 309.487 184.704 303.587C179.194 308.577 172.914 312.807 165.534 313.687C157.644 314.637 148.384 311.567 144.154 304.457C142.894 302.326 142.154 299.927 141.994 297.457Z" fill="#231F20"/>
<path fill-rule="evenodd" clip-rule="evenodd" d="M0.0359236 330.207C0.675924 344.847 10.3259 358.007 23.5159 363.807C8.51592 382.037 9.62592 409.237 24.4259 427.807C32.7959 438.307 44.4259 445.217 57.2659 448.807C68.8146 452.014 80.8648 453.825 92.8291 455.623C97.5028 456.325 102.163 457.026 106.776 457.807L137.006 462.857C137.56 468.783 138.914 474.697 140.252 480.539L140.252 480.54C140.677 482.397 141.1 484.246 141.496 486.087C143.138 494.354 145.275 502.515 147.896 510.527C152.421 523.772 159.837 535.844 169.606 545.867C189.126 565.737 216.896 575.427 244.446 570.537C252.001 569.171 259.313 566.698 266.146 563.197C271.476 560.487 278.146 556.777 282.266 551.837C287.115 555.5 292.229 558.8 297.566 561.707C330.496 579.627 372.856 586.927 406.826 567.607C414.993 563.009 422.273 556.992 428.326 549.837L429.926 547.837C433.086 550.267 437.846 550.417 441.926 549.747C446.006 549.077 448.926 547.277 450.546 544.307C450.586 544.261 450.624 544.214 450.66 544.165C450.698 544.114 450.733 544.061 450.766 544.007C452.906 540.497 457.696 542.077 460.046 544.457C462.066 546.496 463.442 549.104 464.808 551.695C465.66 553.31 466.508 554.918 467.506 556.377C472.152 563.152 479.075 568.034 487.016 570.137C494.386 572.057 503.526 571.867 509.696 566.877C517.006 560.967 515.426 550.597 514.106 542.347C511.056 523.347 501.106 506.167 489.976 490.777C484.316 482.967 478.346 475.347 472.196 467.927C466.316 460.827 459.486 453.807 450.546 450.757C441.196 447.567 432.496 450.757 426.156 457.977C418.867 466.456 412.363 475.58 406.726 485.237C405.383 486.139 404.228 487.293 403.326 488.637C397.766 496.637 401.966 509.057 409.996 514.207C407.357 518.219 404.259 521.911 400.766 525.207C393.629 531.827 385.08 536.738 375.766 539.567C375.787 538.715 375.531 537.88 375.036 537.187C368.289 527.087 361.513 517.01 354.706 506.957C353.408 505.028 352.131 503.003 350.837 500.951C346.409 493.928 341.776 486.579 335.376 481.627C328.226 476.087 319.096 475.257 311.766 480.877C308.447 483.426 305.377 486.346 302.324 489.249L302.324 489.25L302.324 489.25L302.324 489.25L302.323 489.25L302.323 489.251L302.323 489.251L302.322 489.251L302.322 489.251L302.322 489.252L302.322 489.252L302.321 489.252L302.321 489.253L302.321 489.253L302.321 489.253L302.32 489.253C301.088 490.426 299.858 491.595 298.616 492.737C297.925 493.372 297.233 494.005 296.542 494.637L296.533 494.645C293.441 497.472 290.358 500.289 287.476 503.327C284.782 497.888 282.481 492.264 280.177 486.635C279.36 484.637 278.542 482.638 277.706 480.647C286.491 479.89 295.142 478.004 303.446 475.037C331.296 464.897 354.446 439.357 349.976 408.567C368.506 400.267 387.326 388.237 396.026 369.227C403.336 353.277 403.026 333.127 391.766 319.367C402.026 310.637 412.136 301.367 418.766 289.517C426.306 276.127 428.316 260.517 426.896 245.397C425.476 230.277 421.406 215.047 416.396 200.567C411.496 186.407 405.026 172.307 394.296 161.567C384.296 151.567 370.756 144.717 356.576 144.767C358.936 120.697 351.576 96.2067 335.386 77.9367C319.196 59.6667 294.956 49.1467 270.556 49.1267C267.556 27.3467 255.896 2.2067 231.506 0.126699C216.846 -1.1333 202.096 7.1867 191.786 16.9767C182.912 25.436 176.415 36.0777 172.946 47.8367C164.476 45.1567 154.796 48.6667 148.606 55.0967C140.226 63.8067 138.936 76.4167 138.606 88.0967C113.706 90.1467 90.1959 104.677 78.0859 126.757C67.0859 146.897 66.3759 171.667 75.3359 192.557C56.9459 188.557 36.7759 198.117 25.3359 213.187C7.70592 236.447 12.6159 268.437 22.9959 293.907C9.21592 300.247 -0.674076 314.677 0.0359236 330.207ZM143.326 463.857L165.236 467.487C164.984 467.852 164.845 468.283 164.836 468.727C164.683 474.418 165.248 480.106 166.516 485.657C164.952 487.135 163.224 488.43 161.366 489.517C158.03 491.266 154.417 492.423 150.686 492.937C150.183 490.746 149.702 488.546 149.222 486.347L149.222 486.346L149.221 486.345L149.221 486.344L149.221 486.344L149.221 486.343L149.221 486.342L149.22 486.341L149.22 486.34L149.22 486.339L149.22 486.339L149.22 486.338L149.22 486.337L149.219 486.336L149.219 486.335L149.219 486.334L149.219 486.334L149.219 486.333L149.218 486.332L149.218 486.331L149.218 486.33L149.218 486.329L149.218 486.329L149.217 486.328L149.217 486.327L149.217 486.326L149.217 486.325L149.217 486.325C147.558 478.734 145.898 471.139 143.326 463.857ZM167.446 489.427C162.966 492.917 156.546 494.737 151.106 494.917H151.146C151.806 497.747 152.526 500.557 153.296 503.337C156.489 503.504 159.669 502.813 162.506 501.337C164.02 500.551 165.369 499.513 166.714 498.478L166.714 498.477C167.731 497.695 168.745 496.914 169.826 496.247C168.914 494.017 168.119 491.74 167.446 489.427ZM253.796 520.277C245.066 523.777 237.006 526.967 227.176 527.157C217.008 527.435 206.964 524.869 198.176 519.747C190.117 515.049 183.461 508.282 178.896 500.147C175.441 493.91 173.903 487.241 172.357 480.533C171.402 476.388 170.443 472.229 169.026 468.147L210.456 475.067C211.178 475.187 211.901 475.308 212.626 475.429L212.626 475.429L212.627 475.429L212.627 475.429L212.628 475.429L212.628 475.429L212.629 475.429L212.629 475.429L212.63 475.43L212.63 475.43L212.631 475.43L212.632 475.43L212.632 475.43L212.633 475.43L212.633 475.43L212.634 475.43L212.634 475.43L212.635 475.43L212.635 475.43L212.636 475.431L212.636 475.431L212.637 475.431L212.638 475.431L212.638 475.431L212.639 475.431L212.639 475.431C222.742 477.118 233.041 478.838 243.376 479.957C242.836 494.487 246.836 508.107 253.836 520.277H253.796ZM249.596 480.55L249.556 480.547H249.596L249.596 480.55ZM249.596 480.55C256.83 481.188 264.098 481.364 271.355 481.077C272.246 485.237 273.361 489.346 274.695 493.387C273.768 494.071 272.881 494.8 271.993 495.529L271.993 495.529C270.143 497.05 268.292 498.572 266.075 499.687C262.213 501.576 258.063 502.81 253.796 503.337C251.259 495.995 249.844 488.314 249.596 480.55ZM155.816 510.967C155.146 509.187 154.546 507.397 153.986 505.587C159.896 506.707 166.876 503.517 171.076 499.127C174.256 506.064 178.659 512.371 184.076 517.747C182.459 519.197 180.999 521.267 179.494 523.399C176.392 527.795 173.101 532.459 167.856 532.527C162.819 525.968 158.775 518.704 155.856 510.967H155.816ZM177.356 530.487C175.046 532.577 172.436 534.407 169.496 534.487C172.6 538.294 176.033 541.821 179.756 545.027C183.196 542.507 186.236 539.887 188.426 535.967C189.917 533.297 190.426 530.59 190.936 527.872C191.175 526.598 191.415 525.323 191.756 524.047C189.652 522.591 187.648 520.998 185.756 519.277C184.646 523.487 180.426 527.697 177.356 530.487ZM181.746 546.657C188.626 542.907 195.336 533.657 194.616 525.887C200.119 529.203 206.113 531.623 212.376 533.057C212.275 535.091 212.318 537.129 212.506 539.157C212.534 542.211 212.168 545.256 211.416 548.217C210.256 552.369 208.512 556.335 206.236 559.997C197.329 557.091 189.029 552.58 181.746 546.687V546.657ZM208.486 560.697L208.996 560.847V560.877C213.922 562.235 218.982 563.057 224.085 563.327C225.915 559.38 227.18 555.196 227.845 550.897C228.414 546.904 228.011 543.155 227.601 539.346C227.435 537.802 227.268 536.25 227.165 534.667H225.575C221.943 534.617 218.323 534.248 214.756 533.567C216.555 538.097 215.325 544.577 214.156 548.977C213.089 553.231 211.159 557.22 208.486 560.697ZM247.117 560.957C240.359 562.785 233.375 563.637 226.376 563.487C231.286 554.997 233.466 543.197 229.526 534.667C235.727 534.426 241.866 533.346 247.777 531.457C248.447 532.709 249.149 533.973 249.859 535.25L249.863 535.257L249.865 535.262C253.736 542.23 257.81 549.563 257.987 557.267C254.462 558.777 250.828 560.02 247.117 560.987V560.957ZM264.236 554.087C264.826 553.747 265.406 553.387 265.976 553.027V553.057C266.128 549.053 265.649 545.051 264.556 541.197C263.319 536.962 261.188 533.585 258.977 530.082L258.976 530.08L258.975 530.079L258.974 530.077L258.973 530.076C258.361 529.106 257.743 528.127 257.136 527.117C255.063 528.367 252.889 529.441 250.636 530.327C253.335 534.76 255.589 539.45 257.366 544.327C258.806 548.017 260.356 552.157 260.236 556.157C261.569 555.51 262.903 554.82 264.236 554.087ZM267.886 551.717C268.331 546.847 267.8 541.939 266.326 537.277C269.158 540.399 272.163 543.36 275.326 546.147C274.042 547.056 272.782 548.03 271.518 549.009C270.319 549.936 269.117 550.866 267.886 551.747V551.717ZM290.545 537.367C288.045 539.717 284.896 541.637 281.546 541.717V541.757C284.216 543.957 287.005 546.037 289.885 547.977C292.415 546.357 294.695 544.867 296.414 541.977C297.904 539.483 298.144 537.085 298.397 534.549C298.461 533.902 298.527 533.246 298.614 532.577L298.425 532.398C297.54 531.559 296.664 530.73 295.815 529.797C294.641 532.679 292.841 535.265 290.545 537.367ZM292.546 549.717C297.456 547.147 301.546 540.717 301.596 535.227C306.236 539.176 311.423 542.433 316.995 544.897C319.825 546.136 322.723 547.214 325.675 548.127C325.214 550.265 324.523 552.347 323.615 554.337C322.72 556.197 321.447 557.898 320.186 559.584L320.185 559.585C319.501 560.499 318.82 561.409 318.205 562.337C309.226 559.109 300.631 554.9 292.576 549.787L292.546 549.717ZM326.316 555.077C324.992 558.102 323.259 560.932 321.166 563.487C324.326 564.537 327.446 565.487 330.616 566.297C332.176 563.555 333.449 560.659 334.416 557.657C335.08 555.372 335.515 553.027 335.716 550.657C333.376 550.217 331.056 549.697 328.766 549.077C328.077 551.127 327.259 553.131 326.316 555.077ZM422.536 542.937C422.536 538.797 420.966 534.727 419.196 531.017C417.983 528.371 416.614 525.8 415.096 523.317C416.349 521.717 417.536 520.05 418.656 518.317C420.384 520.185 421.956 522.192 423.357 524.317C425.247 527.378 426.848 530.608 428.137 533.967C426.573 537.135 424.697 540.14 422.536 542.937ZM425.506 523.057C427.091 525.799 428.372 528.707 429.327 531.727C430.714 528.95 432.315 526.285 434.117 523.757C434.394 523.4 434.733 523.095 435.117 522.857C435.842 520.868 436.714 518.936 437.727 517.077C435.849 513.218 433.627 509.536 431.087 506.077L430.944 505.887L430.944 505.886C429.922 504.526 428.204 502.241 426.086 499.837C425.212 505.397 423.27 510.735 420.366 515.557C422.312 517.889 424.033 520.4 425.506 523.057ZM443.126 541.927C440.696 543.807 437.126 543.217 434.126 542.127C436.732 538.459 438.644 534.344 439.766 529.987C440.484 529.14 441.152 528.252 441.766 527.327L441.771 527.344C441.833 527.533 441.894 527.722 441.953 527.908L442.005 528.069L442.053 528.223L442.086 528.327C442.128 528.464 442.174 528.61 442.222 528.763L442.246 528.839L442.291 528.979C442.338 529.125 442.386 529.277 442.437 529.434L442.437 529.435L442.441 529.446L442.443 529.453C443.632 533.156 445.785 539.86 443.116 541.927H443.126ZM467.794 476.023C462.599 469.422 456.777 462.025 448.906 458.547H448.896C441.386 455.227 436.056 457.957 431.326 462.637C437.566 461.277 444.516 462.837 450.146 465.747C459.716 470.697 466.356 479.887 472.356 488.547C485.356 507.357 497.566 527.927 506.196 549.357C505.995 547.523 505.661 545.703 505.364 544.085L505.363 544.083L505.359 544.058L505.348 544.002C505.296 543.716 505.245 543.438 505.196 543.167C502.146 526.307 493.416 511.157 483.736 497.257C478.806 490.177 473.506 483.277 468.206 476.547L467.794 476.023ZM427.246 467.307C427.596 466.877 427.936 466.457 428.246 466.047C449.826 460.337 464.296 482.047 474.866 498.287C487.136 517.147 496.496 537.037 505.866 557.397C504.556 561.167 500.036 562.257 496.446 562.397C488.605 562.672 481.066 559.359 475.966 553.397C474.261 551.365 472.888 549.009 471.517 546.657C468.658 541.75 465.806 536.856 459.966 534.937C457.164 533.997 454.142 533.938 451.306 534.767C449.656 521.967 442.716 508.997 434.846 499.317C430.566 494.057 421.526 484.777 413.336 483.797C417.825 478.882 422.023 473.718 426.223 468.552L426.305 468.452L426.756 467.897L427.236 467.307H427.246ZM408.746 492.097C405.806 495.227 407.206 501.227 408.926 504.557C409.906 506.411 411.183 508.094 412.706 509.537C414.372 506.306 415.516 502.929 416.665 499.538L416.665 499.537C417.344 497.533 418.025 495.524 418.816 493.537C418.838 493.485 418.862 493.436 418.886 493.388C418.914 493.333 418.943 493.28 418.972 493.227L418.979 493.215C418.991 493.193 419.003 493.17 419.016 493.147C415.276 490.427 411.476 489.197 408.746 492.097ZM404.615 534.187C407.623 531.645 410.422 528.866 412.985 525.877C413.985 527.327 414.985 528.777 415.775 530.267C418.315 534.97 419.526 539.713 420.824 544.798L420.855 544.917C416.518 549.838 411.521 554.136 406.005 557.687C400.222 561.406 393.962 564.325 387.396 566.367C388.185 564.403 388.194 561.461 388.2 559.704C388.201 559.412 388.202 559.153 388.206 558.937C388.349 554.312 387.82 549.69 386.636 545.217C393.127 542.421 399.182 538.706 404.615 534.187ZM383.567 546.427C380.548 547.607 377.463 548.608 374.326 549.427C374.532 551.677 374.612 553.937 374.566 556.197C374.456 560.497 374.066 565.407 372.456 569.597C376.535 569.089 380.572 568.29 384.538 567.207C386.762 564.65 385.49 556.024 384.998 552.685L384.994 552.663C384.97 552.497 384.948 552.344 384.928 552.207C384.613 550.25 384.158 548.318 383.567 546.427ZM371.726 556.187C371.726 559.461 371.202 562.617 370.679 565.773C370.454 567.128 370.229 568.483 370.046 569.847C366.371 570.209 362.678 570.356 358.986 570.287C350.281 570.076 341.622 568.943 333.156 566.907C336.297 562.202 338.272 556.817 338.916 551.197C349.629 552.801 360.543 552.463 371.136 550.197C371.502 552.173 371.703 554.177 371.736 556.187H371.726ZM334.636 492.177C331.786 488.467 327.806 484.657 322.856 484.337H322.866C320.556 484.256 318.288 484.965 316.436 486.347C326.766 486.777 333.706 496.877 338.766 505.047C344.491 514.311 350.149 523.565 355.812 532.824L355.844 532.876L355.875 532.928L355.907 532.98C357.858 536.171 359.811 539.363 361.766 542.557C362.916 542.417 364.056 542.257 365.186 542.067C365.996 541.937 366.806 541.787 367.616 541.637L367.536 541.537C361.849 532.983 356.166 524.427 350.486 515.867C348.86 513.416 347.27 510.92 345.676 508.418L345.675 508.417C342.15 502.885 338.609 497.327 334.636 492.177ZM310.396 491.547C310.962 491.049 311.527 490.52 312.102 489.981C312.543 489.568 312.99 489.15 313.446 488.737C325.811 489.244 332.081 499.853 337.791 509.516L337.793 509.519C338.493 510.702 339.184 511.872 339.877 513.007L358.167 542.896C348.541 543.629 338.861 542.705 329.547 540.167V540.077C329.461 539.807 329.237 539.603 328.961 539.543C328.684 539.483 328.396 539.576 328.206 539.786C326.336 539.237 324.486 538.627 322.676 537.947C310.266 533.267 300.376 524.477 293.166 513.457C292.186 511.957 291.256 510.427 290.376 508.867C295.689 504.901 300.623 500.414 305.543 495.939L305.544 495.938L305.548 495.934C307.164 494.464 308.779 492.995 310.406 491.547H310.396ZM293.352 527.567C293.389 527.47 293.427 527.373 293.466 527.277H293.476C289.003 522.079 285.141 516.385 281.966 510.307C279.41 512.662 276.493 514.594 273.326 516.027C270.146 517.467 265.236 519.017 261.076 518.627C262.953 521.72 265.041 524.681 267.326 527.487C270.945 531.935 274.939 536.063 279.266 539.827C283.126 539.797 286.656 537.407 289.206 534.637C290.499 533.233 291.577 531.646 292.406 529.927C292.683 529.353 292.903 528.763 293.121 528.177L293.122 528.177C293.198 527.972 293.274 527.769 293.352 527.567ZM280.327 507.087C278.483 509.331 276.246 511.221 273.727 512.667C269.947 514.737 264.326 516.667 259.626 516.157C257.733 512.781 256.088 509.272 254.706 505.657C262.046 505.357 271.127 502.377 275.937 496.717C277.221 500.246 278.687 503.708 280.327 507.087ZM32.8859 294.117C34.0959 296.807 33.1859 299.827 30.1859 300.757C17.7059 304.607 8.42592 316.897 9.11592 330.207C9.80592 343.517 20.3759 354.617 33.1159 357.317C36.3759 357.957 37.6159 362.727 35.1159 364.957C13.1859 384.397 20.5559 418.057 43.7059 432.867C54.2809 439.602 66.7732 441.655 78.9656 443.659C79.9514 443.821 80.9352 443.983 81.9159 444.147L127.186 451.697C157.946 456.89 188.719 462.04 219.506 467.147C228.126 468.577 236.906 469.967 245.736 470.877C246.58 470.634 247.485 470.723 248.266 471.127C266.566 472.807 284.976 472.247 302.336 465.537C325.806 456.457 346.106 433.727 340.176 407.017C339.766 405.167 340.336 402.547 342.336 401.707C359.236 394.447 376.756 384.607 386.036 368.027C394.006 353.797 394.066 333.957 381.556 322.327C379.806 320.697 379.646 317.237 381.556 315.627L381.975 315.274C394.906 304.396 408.738 292.759 414.486 276.317C420.426 259.317 418.046 240.677 413.856 223.567C406.546 193.747 390.256 149.297 351.676 153.747C348.596 154.097 347.076 150.697 347.486 148.247C351.326 125.107 344.246 100.227 328.326 82.9167C312.487 65.9294 290.022 56.7035 266.816 57.6567C264.499 57.6139 262.633 55.7434 262.596 53.4267C261.056 35.1367 251.706 8.9667 229.766 8.2567C217.126 7.8567 204.656 15.5367 196.026 24.2567C187.787 32.6508 182.106 43.2152 179.646 54.7167C179.301 55.9342 178.413 56.9242 177.24 57.3992C176.067 57.8742 174.741 57.781 173.646 57.1467C166.486 52.4267 157.206 56.5167 152.646 63.0067C147.104 70.8878 146.876 81.3611 146.672 90.6811C146.664 91.0818 146.655 91.4805 146.646 91.8767C146.603 94.1011 144.81 95.8941 142.586 95.9367C118.946 96.4467 96.2059 109.797 84.6859 130.567C73.5359 150.687 74.1359 175.887 84.8859 195.947C86.0059 196.527 87.1159 197.147 88.1959 197.847C92.4859 200.627 89.0959 207.207 84.8659 205.747C83.5828 205.884 82.3335 205.279 81.6459 204.187C81.5759 204.077 81.5159 203.967 81.4459 203.867C64.2459 194.867 42.1759 204.537 31.6359 219.717C16.4659 241.547 22.7959 271.627 32.8859 294.117Z" fill="#231F20"/>
<path fill-rule="evenodd" clip-rule="evenodd" d="M97.5368 346.797C98.3568 340.807 103.767 335.657 110.227 336.427C118.217 337.367 120.327 346.187 117.617 352.647C117.179 353.811 116.497 354.868 115.617 355.747C113.807 358.237 111.317 358.957 108.037 358.877C104.187 358.777 100.607 357.667 98.5368 354.167C97.3568 352.167 96.6468 349.117 97.5368 346.797ZM106.577 345.567C105.978 346.722 106.192 348.131 107.107 349.057C108.757 350.687 111.397 348.807 111.367 346.797C111.324 345.96 110.862 345.201 110.138 344.78C109.414 344.358 108.526 344.331 107.777 344.707C107.287 344.841 106.862 345.146 106.577 345.567Z" fill="#231F20"/>
<path fill-rule="evenodd" clip-rule="evenodd" d="M285.257 348.677C286.447 350.294 287.142 352.222 287.257 354.227C288.722 359.946 286.059 365.922 280.827 368.657C273.237 372.547 264.327 366.637 263.327 358.547C262.837 354.367 266.727 346.367 271.397 345.097C274.917 342.467 283.077 345.997 285.257 348.677ZM272.857 359.901C273.693 360.692 274.83 361.084 275.976 360.977C278.026 360.699 279.545 358.935 279.516 356.867C279.457 355.801 278.931 354.816 278.08 354.172C277.229 353.529 276.138 353.293 275.096 353.527C273.225 353.504 271.677 354.977 271.607 356.847C271.564 357.997 272.02 359.11 272.857 359.901Z" fill="#231F20"/>
<path d="M188.326 380.037C198.706 379.857 209.326 368.167 207.146 357.717C206.903 356.876 206.236 356.225 205.39 356.002C204.544 355.779 203.643 356.016 203.016 356.627C198.386 361.737 198.136 370.067 190.696 372.627C182.016 375.627 179.136 366.257 178.386 359.567C178.351 358.799 177.772 358.167 177.011 358.064C176.25 357.961 175.524 358.417 175.286 359.147C171.626 368.717 177.166 380.217 188.326 380.037Z" fill="#231F20"/>
<path d="M107.755 368.617C105.983 368.613 104.384 369.679 103.707 371.316C103.03 372.954 103.408 374.838 104.665 376.087C106.375 377.794 109.145 377.794 110.855 376.087C112.103 374.833 112.474 372.952 111.796 371.318C111.118 369.684 109.524 368.618 107.755 368.617Z" fill="#231F20"/>
<path d="M267.925 386.757C269.169 386.743 270.361 386.253 271.255 385.387C272.573 384.036 272.958 382.029 272.233 380.287C271.508 378.544 269.812 377.403 267.925 377.387C265.324 377.387 263.215 379.495 263.215 382.097C263.284 384.661 265.36 386.715 267.925 386.757Z" fill="#231F20"/>
<path d="M111.876 241.577C110.496 248.197 111.626 255.577 117.756 259.497C122.596 262.597 130.476 261.877 132.756 255.987C133.246 254.727 131.516 253.987 130.666 254.767C126.666 258.297 121.946 259.637 117.736 255.357C113.806 251.357 113.936 245.617 115.326 240.567C115.461 240.095 115.367 239.587 115.073 239.195C114.778 238.802 114.317 238.57 113.826 238.567C108.826 238.567 103.516 236.407 102.756 230.867C102.156 226.557 105.426 222.987 107.536 219.557C107.746 219.227 107.326 218.757 106.986 218.997C102.366 222.247 98.4265 227.427 100.386 233.327C102.086 238.487 106.846 241.017 111.876 241.577Z" fill="#231F20"/>
<path d="M52.8473 292.987C49.3872 296.257 46.5871 300.397 48.4172 305.367C49.6813 308.87 52.9548 311.248 56.6774 311.367C54.9974 315.537 54.9674 319.757 59.0275 323.067C63.0876 326.377 70.6479 326.587 74.738 323.067C75.0409 322.755 75.1301 322.294 74.9651 321.892C74.8 321.491 74.4122 321.225 73.978 321.217C70.5679 321.337 67.4978 323.047 63.9776 322.097C57.8675 320.427 58.1475 314.967 60.6175 310.457C60.9272 309.896 60.8748 309.205 60.4842 308.697C60.0935 308.189 59.439 307.961 58.8175 308.117C54.1773 309.027 49.8172 305.057 51.2972 300.277C52.2073 297.277 55.0774 295.047 57.4074 293.127C58.5475 292.187 57.4874 290.627 56.3174 290.507C53.3773 290.197 49.7572 289.897 47.6571 287.577C43.747 283.277 47.4171 278.367 52.3573 277.337C53.2073 277.157 52.9173 275.997 52.1573 275.917C49.6141 275.596 47.0691 276.498 45.2954 278.348C43.5217 280.199 42.7286 282.779 43.157 285.307C44.027 290.187 48.4272 292.097 52.8473 292.987Z" fill="#231F20"/>
<path d="M85.7351 413.897C83.0551 418.027 78.3251 419.647 74.2551 416.127C71.2551 413.567 70.6851 409.517 70.8851 405.827C70.8827 405.367 70.6665 404.934 70.3001 404.656C69.9338 404.377 69.4588 404.285 69.0151 404.407C63.1851 406.517 59.0151 401.227 58.5551 395.837C58.2671 391.446 59.5817 387.101 62.2551 383.607C62.8251 382.887 61.9051 381.877 61.2051 382.607C56.5251 387.247 54.4051 394.447 56.8251 400.807C58.6251 405.517 63.1051 408.477 67.9151 407.807C68.0551 413.197 70.3151 418.467 75.6851 420.597C80.5451 422.537 86.8151 420.387 87.7751 414.847C88.0374 414.283 87.7934 413.614 87.2301 413.352C86.6667 413.089 85.9974 413.333 85.7351 413.897Z" fill="#231F20"/>
<path d="M309.125 421.377C307.925 427.297 309.005 433.277 304.465 438.147C299.515 443.467 289.465 442.427 286.045 435.767C285.325 434.357 282.795 434.967 282.965 436.597C283.495 441.667 280.155 446.597 274.795 446.597C272.406 446.605 270.131 445.572 268.565 443.767C268.185 443.357 265.345 437.027 266.355 437.377C267.125 437.637 267.625 436.597 267.115 436.067C265.455 434.317 264.015 436.067 263.665 437.837C262.875 441.887 265.925 446.217 269.175 448.237C276.055 452.517 284.005 447.897 285.905 440.977C290.435 445.107 297.965 446.367 303.265 443.397C310.375 439.397 313.865 429.067 311.585 421.397C311.42 420.859 310.925 420.49 310.363 420.485C309.8 420.481 309.299 420.841 309.125 421.377Z" fill="#231F20"/>
<path d="M358.038 344.077C358.378 348.657 358.368 353.777 353.848 356.337C351.82 357.484 349.405 357.73 347.188 357.017L345.088 356.017C344.366 355.092 343.356 354.434 342.218 354.147L342.338 354.077C342.677 353.866 342.791 353.426 342.598 353.077C342.598 352.997 342.488 352.917 342.438 352.827C342.229 352.497 341.848 352.319 341.461 352.371C341.074 352.422 340.753 352.694 340.638 353.067C338.828 357.647 348.128 360.457 351.148 360.147C358.248 359.407 360.708 353.537 361.018 347.467C370.758 353.997 382.848 337.217 372.808 328.107C372.468 327.668 371.837 327.587 371.398 327.927C370.959 328.266 370.878 328.898 371.218 329.337C372.918 333.337 374.858 337.517 372.508 341.747C369.918 346.427 364.008 347.177 360.558 343.057C360.134 342.651 359.512 342.531 358.968 342.751C358.424 342.971 358.06 343.49 358.038 344.077Z" fill="#231F20"/>
<path d="M315.588 286.627C308.768 283.257 307.318 275.347 309.828 268.757C310.098 268.057 309.018 267.647 308.648 268.257C306.274 272.263 305.918 277.151 307.686 281.459C309.455 285.767 313.143 288.995 317.648 290.177C325.928 292.347 335.018 287.027 334.408 278.627C336.199 279.052 338.086 278.632 339.528 277.487C341.748 275.727 342.288 273.097 341.948 270.487C350.308 273.967 358.158 267.087 360.148 258.327C362.218 249.227 359.098 233.867 346.698 235.217C345.973 235.278 345.416 235.884 345.416 236.612C345.416 237.339 345.973 237.945 346.698 238.007C356.648 239.117 359.078 249.007 357.198 257.507C355.428 265.507 348.198 271.897 340.328 266.197C338.988 265.197 337.828 267.037 338.328 268.197C339.714 270.257 339.564 272.08 337.878 273.667C337.211 276.267 335.711 276.65 333.378 274.817C332.91 274.379 332.21 274.3 331.656 274.623C331.103 274.946 330.827 275.594 330.978 276.217C334.328 285.817 322.938 290.247 315.588 286.627Z" fill="#231F20"/>
<path d="M278.386 229.207C284.621 229.77 290.173 225.273 290.916 219.057C294.52 220.13 298.399 219.771 301.746 218.057C307.116 214.947 308.926 208.807 307.306 203.257C314.726 204.427 321.736 198.787 322.976 191.167C324.436 182.257 318.226 171.257 309.246 168.857C308.763 168.737 308.258 168.951 308.008 169.381C307.758 169.812 307.822 170.356 308.166 170.717C313.556 175.927 319.796 179.257 320.076 187.797C320.346 195.917 313.076 202.797 305.076 199.417C303.766 198.867 302.726 200.617 303.336 201.677C305.476 205.427 305.556 210.237 302.536 213.597C301.106 215.177 293.246 218.597 290.966 215.977C290.864 214.989 290.649 214.016 290.326 213.077C290.106 212.374 289.412 211.933 288.682 212.032C287.953 212.131 287.401 212.741 287.376 213.477C287.202 214.635 287.421 215.817 287.996 216.837C288.226 221.837 284.746 226.537 279.066 226.457C272.276 226.367 268.496 219.267 270.626 213.237C270.896 212.467 269.626 211.927 269.306 212.677C266.006 219.937 269.926 228.487 278.386 229.207Z" fill="#231F20"/>
<path d="M181.027 204.127C184.117 204.867 187.587 203.527 189.927 201.227C192.177 208.987 200.018 215.627 207.928 215.917C218.478 216.307 221.928 206.467 222.138 197.577C225.026 199.291 228.341 200.151 231.698 200.057C239.028 199.567 240.208 190.347 241.588 184.697C241.801 183.924 241.346 183.124 240.573 182.912C239.8 182.699 239.001 183.154 238.788 183.927C237.668 186.927 236.868 193.457 234.348 195.717C232.098 197.717 222.958 196.567 221.948 192.907L221.858 192.147C221.858 192.007 221.858 191.857 221.808 191.727C221.548 189.877 218.758 190.447 218.688 192.147C218.669 192.667 218.733 193.187 218.878 193.687C219.708 201.467 218.138 213.247 207.938 212.897C200.458 212.637 192.938 205.437 192.148 197.897C192.728 196.442 192.791 194.833 192.328 193.337C192.158 192.757 191.626 192.36 191.022 192.36C190.419 192.36 189.887 192.757 189.717 193.337C189.341 194.802 189.206 196.318 189.317 197.827C188.602 199.178 187.439 200.239 186.027 200.827C182.687 202.117 179.187 201.537 177.607 198.227C175.897 194.667 176.907 190.557 177.807 186.897C177.893 186.546 177.685 186.19 177.337 186.092C176.988 185.995 176.626 186.192 176.517 186.537C174.687 192.257 172.937 202.207 181.027 204.127Z" fill="#231F20"/>
<path d="M199.795 120.267C207.795 124.267 217.445 119.537 218.215 110.897C221.205 111.381 224.194 110.03 225.805 107.467C228.615 103.467 229.065 97.9967 228.615 93.0567C234.515 94.5467 239.385 87.4067 238.825 81.5467C238.345 76.5467 235.895 71.5467 233.605 67.0967C231.865 63.7067 230.025 59.3467 225.605 59.7267C224.525 59.8167 224.165 61.4067 225.335 61.7267C229.685 62.8467 232.755 72.2667 234.125 75.8967C235.185 78.7267 236.255 81.8967 235.595 84.9767C234.825 88.5567 230.765 91.3967 227.465 88.9767C226.195 88.0667 224.925 89.5667 225.115 90.7767C225.705 94.1326 225.654 97.5698 224.965 100.907C224.265 104.127 221.685 109.827 217.405 107.147C216.91 106.863 216.301 106.863 215.805 107.147C215.31 107.43 215.001 107.956 214.995 108.527C215.635 115.407 209.325 120.187 202.825 118.227C200.013 117.334 197.626 115.441 196.115 112.907C195.325 111.617 192.165 104.057 194.955 103.167C195.955 102.857 195.805 101.257 194.705 101.327C191.245 101.567 191.275 105.617 191.635 108.327C192.235 113.403 195.283 117.864 199.795 120.267Z" fill="#231F20"/>
<path d="M125.837 176.247C123.717 181.917 125.607 188.937 131.177 192.007C136.747 195.077 146.977 193.007 148.327 185.937C148.44 185.457 148.227 184.96 147.802 184.712C147.376 184.464 146.839 184.523 146.477 184.857C142.777 188.397 138.617 191.957 133.157 189.327C127.697 186.697 126.867 179.547 130.107 174.907C130.917 173.747 129.577 172.247 128.327 172.597C123.257 173.997 111.847 174.087 111.387 166.267C111.117 161.777 114.857 155.457 116.817 151.647C116.999 151.335 116.894 150.934 116.582 150.752C116.27 150.569 115.869 150.675 115.687 150.987C112.307 155.987 105.577 165.107 110.047 171.217C113.437 175.847 120.197 176.917 125.837 176.247Z" fill="#231F20"/>
<path d="M332.883 356.847C331.933 361.567 331.783 366.337 330.423 371.007C328.805 376.338 326.577 381.466 323.784 386.287C319.154 394.477 313.784 403.667 307.285 410.487C307.193 410.584 307.186 410.734 307.269 410.839C307.351 410.944 307.499 410.973 307.615 410.907C311.684 409.067 314.214 405.457 316.814 401.967C320.444 397.202 323.783 392.223 326.814 387.057C331.683 378.567 337.183 366.877 334.993 356.847C334.855 356.379 334.426 356.058 333.938 356.058C333.451 356.058 333.021 356.379 332.883 356.847Z" fill="#231F20"/>
<path d="M68.9546 340.987C66.9477 348.757 66.3417 356.823 67.1649 364.807C67.9948 372.067 69.5246 380.357 73.754 386.447C74.037 386.784 74.5069 386.896 74.9116 386.723C75.3163 386.551 75.5608 386.134 75.5138 385.697C73.764 378.557 70.8944 372.007 69.8945 364.617C68.8326 356.88 68.9168 349.029 70.1445 341.317C70.3245 340.547 69.1446 340.197 68.9546 340.987Z" fill="#231F20"/>
<path d="M86.3276 403.097C83.7055 400.532 81.3222 397.733 79.2071 394.737C78.8171 394.237 78.007 394.787 78.207 395.347C80.2872 402.347 88.0877 410.437 95.6783 411.127C96.5483 411.207 96.6183 410.077 96.0783 409.667C92.9081 407.297 89.3278 405.757 86.3276 403.097Z" fill="#231F20"/>
</svg>
