<svg width="422" height="580" viewBox="0 0 422 580" fill="none" xmlns="http://www.w3.org/2000/svg">
<path d="M113.498 146.144C113.924 145.917 114.218 145.502 114.289 145.024C114.36 144.547 114.2 144.064 113.858 143.724C113.218 143.114 112.608 143.314 111.858 143.424L111.358 143.494C111.212 143.823 111.147 144.183 111.168 144.544C111.228 145.674 112.358 146.754 113.498 146.144Z" fill="white"/>
<path d="M84.6584 73.4336C88.7784 73.0736 92.9884 73.0336 97.1584 73.0136C97.1584 71.1036 97.2684 69.2236 97.4384 67.4236C97.1484 66.1336 99.5784 65.6236 99.7084 67.3036C99.8484 69.1836 100.038 71.0836 100.228 73.0036C102.298 73.0036 104.358 73.0036 106.368 72.9036L113.148 72.6736C113.098 70.5536 113.058 68.4436 112.978 66.4136C112.978 65.3436 114.708 65.0836 114.858 66.1536C115.148 68.2536 115.498 70.4036 115.858 72.5836C122.352 72.3636 128.842 72.1436 135.328 71.9236C135.408 70.8436 135.508 69.7736 135.648 68.7836C135.788 67.7936 137.258 67.9336 137.368 68.7836C137.508 69.7836 137.608 70.7836 137.688 71.8436L156.418 71.2536C156.338 70.0736 156.258 68.8936 156.138 67.7236C156.018 66.5536 157.868 66.4036 158.038 67.4636C158.208 68.5236 158.458 69.9036 158.698 71.1836L176.558 70.6536C176.398 68.4336 176.228 66.2236 175.988 64.0436C175.888 63.0436 177.498 62.8736 177.698 63.8136C178.148 66.0036 178.618 68.2836 179.028 70.5836C184.875 70.4169 190.728 70.2636 196.588 70.1236L199.508 70.0536C199.508 68.1636 199.598 66.3136 199.728 64.5736C199.778 64.0945 200.182 63.7304 200.663 63.7304C201.145 63.7304 201.549 64.0945 201.598 64.5736C201.798 66.3536 202.068 68.1636 202.358 69.9836C209.678 69.8136 216.988 69.6136 224.278 69.2636C224.038 67.3236 223.788 65.4036 223.438 63.5336C223.188 62.2336 225.118 61.6636 225.438 62.9836C225.948 64.9836 226.528 66.9836 227.058 69.1236C233.508 68.7736 239.938 68.2936 246.358 67.5836C246.188 65.5836 246.038 63.5836 245.868 61.7236C245.778 60.7236 247.328 60.5736 247.588 61.4936C248.088 63.3436 248.588 65.2936 249.058 67.2836C251.565 66.9702 254.072 66.6369 256.578 66.2836L263.018 65.2836C262.589 63.0777 262.589 60.8095 263.018 58.6036C263.258 57.6036 264.918 57.8336 264.778 58.8436C264.632 60.8632 264.835 62.8929 265.378 64.8436C271.828 63.8436 278.278 62.7036 284.728 61.6536L288.208 61.0636C287.778 59.0636 287.328 57.0636 286.778 55.1436C286.468 54.0536 288.148 53.3036 288.628 54.3536C289.508 56.2936 290.378 58.3536 291.108 60.5536C298.868 59.1836 306.708 57.7936 314.548 57.8036C314.733 57.8049 314.917 57.8216 315.098 57.8536C314.558 56.1536 314.005 54.4569 313.438 52.7636C310.818 44.9836 308.018 37.2636 304.928 29.6636C302.168 22.8536 298.928 16.1836 291.928 12.9236C284.928 9.66357 276.278 8.92357 268.588 8.53357C260.102 8.14007 251.599 8.32717 243.138 9.09357C208.678 11.8836 174.268 16.9036 139.938 21.0036C126.758 22.5736 112.458 23.7336 100.678 30.4436C87.2884 38.0936 83.8984 52.0036 83.8984 66.4936C83.8984 68.7802 83.9284 71.0636 83.9884 73.3436L84.6584 73.4336Z" fill="#F7941E"/>
<path d="M305.248 273.424C306.358 273.274 307.568 273.174 308.848 273.124C308.848 271.854 308.918 270.584 308.928 269.314C309.008 260.954 307.508 251.644 308.778 243.234C302.778 234.404 295.508 225.374 285.228 224.604L281.028 224.704C274.806 225.515 268.821 227.605 263.448 230.844L261.028 232.304C255.565 235.779 250.544 239.906 246.078 244.594C236.588 254.594 230.588 268.094 234.848 281.804C239.368 296.364 251.848 308.904 261.848 319.954C272.307 331.507 283.558 342.32 295.518 352.314L296.518 353.104C297.068 351.234 297.708 349.374 298.198 347.544C298.688 345.714 299.108 344.054 299.548 342.304C296.96 341.663 294.407 340.892 291.898 339.994C291.482 339.836 291.255 339.387 291.374 338.958C291.494 338.53 291.92 338.263 292.358 338.344C294.978 338.714 297.568 339.194 300.158 339.704C300.748 337.254 301.318 334.804 301.838 332.344C302.544 329.01 303.211 325.677 303.838 322.344C302.389 322.084 300.967 321.696 299.588 321.184C299.23 321.066 299.008 320.709 299.059 320.336C299.111 319.963 299.421 319.68 299.798 319.664C301.299 319.543 302.809 319.564 304.308 319.724C305.438 313.354 306.378 306.944 307.068 300.504L307.158 299.584C305.157 299.055 303.117 298.687 301.058 298.484C300.714 298.463 300.433 298.202 300.387 297.862C300.341 297.521 300.542 297.195 300.868 297.084C303.002 296.489 305.246 296.407 307.418 296.844C308.108 289.754 308.588 282.644 308.808 275.524C307.558 275.284 306.318 274.994 305.098 274.634C304.856 274.508 304.718 274.246 304.751 273.976C304.785 273.706 304.983 273.486 305.248 273.424Z" fill="#F7941E"/>
<path d="M224.06 236.774C223.36 238.584 225.94 240.164 227.2 241.484C228.46 242.804 229.51 243.884 230.64 245.094C231.38 245.88 232.1 246.68 232.8 247.494C233.7 246.134 234.65 244.824 235.66 243.544C231.59 239.344 225.31 233.544 224.06 236.774Z" fill="white"/>
<path d="M281.897 132.684C282.036 132.344 282.156 132.054 282.186 131.954C282.711 130.741 282.711 129.366 282.186 128.154C282.081 127.943 281.923 127.763 281.727 127.634C281.107 127.824 280.567 128.764 279.938 129.464C280.015 130.046 280.191 130.61 280.457 131.134C280.833 131.738 281.321 132.265 281.897 132.684Z" fill="white"/>
<path d="M159.899 220.814C159.052 221.864 158.296 222.985 157.639 224.164C156.621 226.189 155.804 228.309 155.199 230.494C157.696 230.635 160.172 231.03 162.589 231.674C162.827 230.903 163.018 230.118 163.159 229.324C163.519 226.964 163.899 221.974 162.319 219.994C161.289 218.714 160.999 219.494 159.899 220.814Z" fill="white"/>
<path d="M202.489 249.634C200.759 246.344 195.759 251.484 192.488 255.414C193.448 257.02 194.332 258.67 195.139 260.364L197.569 257.604C198.809 256.124 203.72 251.974 202.489 249.634Z" fill="white"/>
<path d="M276.96 212.414C276.355 210.777 275.647 209.181 274.84 207.634C274.432 206.791 273.981 205.97 273.49 205.174C272.91 203.587 272.18 203.517 271.3 204.964C268.3 206.964 271.58 212.674 272.78 217.664C274.522 217.158 276.292 216.754 278.08 216.454C277.796 215.084 277.422 213.734 276.96 212.414Z" fill="white"/>
<path d="M185.568 227.494C183.778 226.494 179.928 231.574 178.988 233.074C178.016 234.756 177.34 236.593 176.988 238.504C177.188 238.644 177.408 238.774 177.598 238.924C178.778 239.794 179.898 240.704 180.988 241.644C181.698 239.644 182.858 237.784 183.638 235.834C184.148 234.434 187.038 228.264 185.568 227.494Z" fill="white"/>
<path d="M254.441 226.494C253.441 225.304 252.441 224.134 251.441 222.934C250.441 221.734 249.491 220.054 248.251 219.154C246.25 217.674 243.76 216.954 244.25 220.234C244.78 224.004 247.09 227.174 249.031 230.434C250.741 229.034 252.571 227.714 254.441 226.494Z" fill="white"/>
<path fill-rule="evenodd" clip-rule="evenodd" d="M68.6984 236.112L68.6986 236.112C69.8321 236.583 70.9601 237.052 72.0795 237.464L73.9295 238.104C75.1665 235.473 76.6962 232.991 78.4895 230.704C79.1795 229.854 80.5495 230.784 80.2695 231.704C79.4249 234.265 78.3644 236.751 77.0995 239.134C80.1995 240.134 83.3295 241.034 86.4895 241.794C87.4895 242.044 88.5695 242.274 89.6195 242.494C90.6529 240.128 92.0647 237.946 93.7995 236.034C94.1199 235.808 94.5423 235.791 94.8803 235.989C95.2182 236.187 95.4094 236.564 95.3695 236.954C94.6592 239.061 93.8176 241.122 92.8495 243.124C95.9828 243.697 99.1328 244.17 102.299 244.544C103.234 244.653 104.207 244.723 105.193 244.793C108.425 245.024 111.798 245.265 114.449 246.974C114.981 247.286 115.308 247.857 115.308 248.474C115.308 249.09 114.981 249.661 114.449 249.974C110.74 252.283 105.732 251.694 101.443 251.189C101.263 251.168 101.085 251.147 100.908 251.126C100.754 251.108 100.601 251.091 100.449 251.074C97.0162 250.694 93.6162 250.157 90.2495 249.464C89.7162 250.853 88.8179 252.072 87.6495 252.994C86.9995 253.474 86.1395 252.674 86.3295 251.994C86.6095 250.994 86.9295 249.894 87.2695 248.814C87.2068 248.8 87.1443 248.786 87.0819 248.772L86.9502 248.743L86.9367 248.74C86.511 248.647 86.0902 248.555 85.6695 248.444C81.944 247.502 78.272 246.36 74.6695 245.024C74.1445 246.513 73.6684 248.012 73.191 249.515L73.1909 249.515L73.1908 249.516L73.1908 249.516C72.8315 250.647 72.4716 251.78 72.0895 252.914C71.9631 253.319 71.5629 253.573 71.1424 253.517C70.7218 253.46 70.4037 253.108 70.3895 252.684C70.3483 249.691 70.7941 246.713 71.7095 243.864C71.5553 243.803 71.4004 243.742 71.245 243.682C70.8662 243.535 70.4853 243.387 70.1095 243.224C69.7625 243.076 69.4117 242.928 69.0583 242.78L69.0557 242.779C66.2017 241.578 63.1836 240.308 60.7195 238.414C59.5007 240.578 58.2727 242.737 57.0455 244.895C55.7151 247.235 54.3855 249.573 53.0695 251.914C37.2595 280.084 22.0695 308.994 13.6495 340.344C6.19949 368.074 4.28949 400.074 28.2695 420.344C38.2095 428.754 50.6095 433.914 62.8895 437.824C69.0295 439.824 75.2695 441.474 81.5495 442.964C86.1995 444.054 89.5995 444.194 93.4195 440.964C95.4848 439.207 97.415 437.256 99.3372 435.313L99.3375 435.313L99.3386 435.311L99.3391 435.311L99.3396 435.311L99.3401 435.31C100.032 434.61 100.723 433.912 101.419 433.224C124.243 410.709 145.277 386.448 164.329 360.664C180.949 337.954 198.509 310.254 193.639 280.754C191.719 269.064 186.639 257.564 178.219 249.114C169.529 240.394 153.839 232.594 142.219 240.324C136.715 244.007 133.161 250.14 129.907 255.755L129.809 255.924C127.502 259.893 125.213 263.875 122.926 267.851C120.991 271.216 119.059 274.577 117.119 277.924C113.664 283.929 110.233 289.947 106.803 295.966L106.801 295.968L106.801 295.969L106.8 295.97C101.743 304.842 96.6851 313.714 91.5495 322.544C89.6195 325.874 84.5495 322.884 86.3995 319.544C91.8255 309.882 97.3303 300.27 102.835 290.66L102.836 290.658L102.837 290.655L102.839 290.652L102.841 290.649C106.535 284.199 110.229 277.748 113.899 271.284C115.211 268.975 116.503 266.651 117.795 264.327L117.795 264.326C120.819 258.887 123.844 253.445 127.129 248.184C130.539 242.714 134.629 237.364 140.209 233.974C142.967 232.317 146.026 231.226 149.209 230.764C149.479 224.134 154.949 212.044 162.339 212.414C170.999 212.834 170.339 227.414 168.779 233.834C170.296 234.491 171.775 235.232 173.209 236.054C173.604 232.907 174.746 229.9 176.539 227.284C178.769 224.004 183.409 219.894 187.729 221.014C192.049 222.134 192.629 227.014 191.939 230.604C191.222 233.721 190.187 236.757 188.849 239.664C188.704 240.003 188.563 240.34 188.424 240.674L188.423 240.677C187.605 242.636 186.836 244.482 185.409 245.934C186.869 247.52 188.234 249.189 189.499 250.934C193.029 245.104 199.879 240.074 205.379 243.874C214.039 249.874 203.689 261.134 197.829 267.064C202.35 280.549 203.097 295.014 199.989 308.894C192.908 341.023 170.313 368.481 149.888 393.301L149.639 393.604C138.299 407.434 126.409 420.784 113.899 433.494C112.559 434.864 111.199 436.294 109.839 437.744C113.889 451.304 117.989 464.864 122.369 478.334C123.328 478.072 124.349 477.901 125.391 477.726C125.904 477.639 126.422 477.553 126.939 477.454C130.609 476.774 134.269 475.934 137.889 475.024C139.079 474.724 140.27 474.394 141.449 474.024C140.803 472.256 140.268 470.449 139.849 468.614C139.762 468.264 139.942 467.903 140.274 467.763C140.606 467.623 140.991 467.747 141.179 468.054C142.392 469.674 143.437 471.413 144.299 473.244C147.356 472.365 150.394 471.432 153.432 470.5L153.436 470.499L153.44 470.498L153.441 470.497C155.449 469.881 157.457 469.264 159.469 468.664C159.279 467.115 159.198 465.554 159.229 463.994C159.229 463.134 160.519 462.674 160.929 463.524C161.576 464.896 162.124 466.313 162.569 467.764C169.248 465.901 176.03 464.559 182.795 463.22C183.293 463.121 183.791 463.022 184.289 462.924C184.029 460.924 183.869 459.004 183.809 457.214C183.83 456.569 184.312 456.034 184.951 455.947C185.59 455.86 186.198 456.248 186.389 456.864C186.959 458.614 187.389 460.414 187.799 462.214C193.853 461.059 199.839 459.573 205.729 457.764C208.529 456.874 210.249 460.484 208.459 462.444C203.641 467.724 196.638 468.711 189.874 469.665L189.529 469.714C190.216 472.104 190.616 474.568 190.719 477.054C190.69 477.477 190.396 477.836 189.987 477.949C189.577 478.061 189.141 477.903 188.899 477.554C187.552 475.278 186.513 472.833 185.809 470.284C178.69 471.507 171.645 473.133 164.709 475.154C165.775 478.15 166.52 481.25 166.929 484.404C167.029 485.534 165.469 485.764 164.929 484.944C163.239 482.227 161.933 479.289 161.049 476.214L159.943 476.535C155.693 477.768 151.449 479 147.179 480.114C148.309 483.014 149.41 486.114 149.339 489.114C149.319 489.586 148.995 489.991 148.54 490.116C148.084 490.242 147.599 490.059 147.339 489.664C145.963 487.526 145.198 485.019 144.444 482.55L144.444 482.549C144.277 482.004 144.111 481.461 143.939 480.924C141.939 481.404 139.939 481.864 137.939 482.284C137.202 482.436 136.414 482.614 135.59 482.8C132.138 483.579 128.051 484.502 124.329 484.284C125.679 488.344 127.049 492.404 128.469 496.444C132.089 506.917 135.899 517.314 139.899 527.634C143.009 535.634 146.249 543.854 151.299 550.904C155.609 556.904 161.949 562.424 169.579 563.194C179.389 564.194 182.509 555.894 183.719 547.754C184.388 543.257 184.872 538.728 185.356 534.201C185.893 529.173 186.43 524.146 187.219 519.164C188.339 512.164 191.749 507.534 199.089 506.514C208.089 505.254 217.679 505.444 226.789 505.634C228.186 505.663 229.699 505.653 231.281 505.643H231.283H231.285H231.287C238.449 505.597 247.025 505.542 252.609 509.014C258.944 512.929 261.548 522.777 263.382 529.716C263.459 530.007 263.535 530.293 263.609 530.574C265.072 535.907 265.697 541.282 266.325 546.68C266.667 549.622 267.01 552.571 267.49 555.524C269 564.914 274.09 569.894 283.77 570.334C293.16 570.764 299.469 567.624 302.999 558.704C308.83 543.861 311.573 527.748 314.263 511.949L314.263 511.949L314.263 511.949L314.263 511.949C314.803 508.78 315.34 505.624 315.899 502.494C320.213 478.38 324.509 454.267 328.789 430.154C324.644 430.269 320.495 430.072 316.379 429.564C311.479 429.164 306.599 428.654 301.719 428.084C301.513 429.202 301.219 430.302 300.839 431.374C300.672 431.934 300.122 432.29 299.542 432.213C298.962 432.136 298.524 431.649 298.509 431.064C298.381 429.952 298.348 428.831 298.409 427.714C292.589 426.98 286.786 426.164 280.999 425.264C280.543 427.141 279.872 428.96 278.999 430.684C278.808 430.981 278.445 431.119 278.104 431.025C277.763 430.931 277.522 430.627 277.509 430.274C277.477 428.421 277.621 426.569 277.939 424.744C273.279 423.974 268.639 423.154 264.009 422.224C262.149 421.854 260.299 421.464 258.449 421.074C257.67 422.994 256.726 424.845 255.629 426.604C255.347 427.037 254.794 427.206 254.317 427.005C253.84 426.803 253.576 426.289 253.689 425.784C254.053 423.947 254.537 422.136 255.139 420.364C249.139 419.054 243.229 417.654 237.329 416.114C236.835 419.314 236.021 422.456 234.899 425.494C234.777 425.877 234.396 426.118 233.997 426.063C233.598 426.009 233.295 425.676 233.279 425.274C233.124 421.893 233.315 418.505 233.849 415.164C228.436 413.704 223.056 412.124 217.709 410.424C217.255 412.415 216.543 414.338 215.589 416.144C215.049 417.144 213.239 416.754 213.389 415.544C213.692 413.504 214.177 411.496 214.839 409.544C207.839 407.234 200.919 404.704 194.069 401.884C193.648 401.767 193.32 401.435 193.21 401.012C193.1 400.589 193.224 400.139 193.535 399.832C193.846 399.525 194.298 399.407 194.719 399.524C201.859 401.277 209.009 403.014 216.169 404.734C216.646 402.688 217.277 400.682 218.059 398.734C218.41 397.924 219.609 398.404 219.629 399.164C219.652 401.264 219.417 403.36 218.929 405.404C224.309 406.67 229.696 407.9 235.089 409.094C235.489 407.504 235.939 405.944 236.419 404.454C236.544 404.059 236.936 403.811 237.347 403.868C237.757 403.925 238.067 404.269 238.079 404.684C238.079 406.314 238.079 408.004 237.969 409.684C244.356 411.064 250.766 412.347 257.199 413.534C257.675 411.565 258.345 409.649 259.199 407.814C259.428 407.373 259.932 407.15 260.412 407.277C260.892 407.404 261.219 407.848 261.199 408.344C261.206 410.294 260.998 412.239 260.579 414.144L264.949 414.914C269.71 415.714 274.479 416.454 279.259 417.164C279.469 415.137 280.18 413.195 281.329 411.514C281.68 411.064 282.329 411.384 282.459 411.804C283.027 413.707 283.068 415.729 282.579 417.654C288.033 418.42 293.496 419.11 298.969 419.724C299.062 418.344 299.26 416.973 299.559 415.624C299.559 415.071 300.007 414.624 300.559 414.624C301.112 414.624 301.559 415.071 301.559 415.624C301.89 417.09 302.097 418.582 302.179 420.084C307.913 420.697 313.646 421.247 319.379 421.734C322.973 421.914 326.551 422.332 330.089 422.984C332.229 411.024 334.383 399.07 336.549 387.124C330.973 385.323 325.558 383.058 320.359 380.354C305.56 372.644 292.359 361.934 280.059 350.804C267.287 339.28 255.403 326.808 244.509 313.494C234.719 301.494 224.249 288.094 224.629 271.774C224.862 265.068 226.634 258.505 229.809 252.594C225.846 249.498 222.27 245.936 219.159 241.984C216.539 238.684 216.159 234.314 219.649 231.424C225.989 226.244 234.789 232.224 240.299 238.254C241.119 237.394 241.949 236.564 242.809 235.754L244.219 234.464C242.499 232.07 241.06 229.486 239.929 226.764C238.089 222.614 236.489 217.704 239.389 213.624C245.659 204.824 255.069 215.924 260.529 222.784C262.726 221.588 264.99 220.52 267.309 219.584C267.242 219.407 267.179 219.23 267.115 219.051C267.093 218.989 267.07 218.927 267.048 218.864C267.029 218.811 267.009 218.757 266.99 218.704C265.67 215.392 264.614 211.981 263.829 208.504C262.889 203.704 264.449 197.624 269.899 196.404C278.489 194.484 284.459 206.934 286.149 216.014C299.539 217.084 308.339 227.954 316.089 238.444C337.421 267.474 356.618 298.014 373.529 329.824C376.379 335.134 368.299 339.824 365.449 334.544C357.943 320.544 350.026 306.764 341.699 293.204C333.319 279.554 324.49 266.204 315.329 253.054C315.735 257.457 315.746 261.973 315.756 266.211V266.212C315.759 267.614 315.762 268.986 315.779 270.314V273.374C319.28 273.648 322.705 274.535 325.899 275.994C326.839 276.474 326.299 277.764 325.399 277.834C322.879 278.037 320.346 277.56 317.843 277.089L317.843 277.089L317.842 277.089C317.148 276.959 316.457 276.829 315.77 276.714C315.699 283.904 315.379 291.094 314.77 298.254C317.44 298.691 320.042 299.474 322.509 300.584C323.43 301.024 322.93 302.374 322.02 302.394C319.476 302.422 316.939 302.126 314.469 301.514C314.469 301.757 314.437 302 314.404 302.248L314.404 302.248L314.401 302.265C314.395 302.309 314.389 302.354 314.384 302.399C314.379 302.437 314.374 302.475 314.369 302.514C313.736 308.607 312.93 314.677 311.949 320.724C313.949 320.933 315.92 321.356 317.829 321.984C318.187 322.034 318.49 322.27 318.626 322.605C318.761 322.939 318.707 323.32 318.486 323.605C318.264 323.889 317.907 324.034 317.549 323.984C315.51 324.064 313.468 323.923 311.459 323.564C310.833 327.184 310.123 330.787 309.329 334.374C308.84 336.634 308.329 338.874 307.749 341.124C309.484 341.433 311.166 341.981 312.749 342.754C313.609 343.204 313.099 344.314 312.309 344.404C310.528 344.55 308.734 344.425 306.99 344.034C306.43 346.194 305.87 348.354 305.27 350.504C304.618 353.112 303.833 355.685 302.919 358.214C324.18 374.424 350.259 387.494 377.379 381.494C443.6 366.744 398.146 289.7 373.229 247.466L373.229 247.465C370.069 242.108 367.239 237.312 365.009 233.274C357.986 220.847 351.816 207.957 346.539 194.694C342.32 183.438 339.068 171.842 336.819 160.034C334.023 161.046 331.117 161.853 328.235 162.653C327.046 162.983 325.861 163.312 324.689 163.654C325.129 165.05 325.428 166.487 325.579 167.944C325.699 169.214 323.779 169.654 323.209 168.584C322.55 167.297 321.995 165.959 321.549 164.584C316.289 166.164 311.02 167.704 305.74 169.244C304.49 169.614 303.219 170.004 301.929 170.424C302.701 172.169 303.281 173.993 303.659 175.864C303.886 176.416 303.622 177.047 303.069 177.274C302.517 177.5 301.886 177.236 301.659 176.684C300.6 175.002 299.731 173.208 299.069 171.334L298.828 171.413C294.433 172.858 289.886 174.354 285.329 175.464C286.208 177.929 287.247 180.334 288.439 182.664C288.644 183.017 288.586 183.463 288.297 183.751C288.009 184.04 287.562 184.098 287.209 183.894C284.519 182.304 283.399 179.544 282.379 176.704C282.332 176.554 282.279 176.411 282.225 176.265L282.224 176.265L282.224 176.264C282.209 176.224 282.194 176.184 282.179 176.144C278.795 176.833 275.34 177.112 271.889 176.974C270.15 176.874 269.599 174.184 271.459 173.794C274.545 173.13 277.596 172.313 280.599 171.344C279.949 169.216 279.494 167.034 279.24 164.824C279.244 164.375 279.547 163.985 279.98 163.868C280.413 163.752 280.871 163.938 281.099 164.324C281.999 166.324 282.769 168.324 283.499 170.394C286.564 169.35 289.615 168.224 292.655 167.102C294.129 166.559 295.6 166.016 297.069 165.484C296.628 163.796 296.025 162.155 295.27 160.584C295.111 160.278 295.195 159.903 295.468 159.694C295.742 159.484 296.126 159.501 296.379 159.734C297.762 161.108 298.807 162.786 299.429 164.634C300.949 164.094 302.479 163.554 303.99 163.064L304.988 162.74L304.991 162.739L304.992 162.739L304.993 162.738C309.777 161.187 314.555 159.638 319.349 158.124C318.312 155.733 317.531 153.239 317.02 150.684C316.804 150.173 317.044 149.584 317.554 149.369C318.065 149.153 318.654 149.393 318.869 149.904C320.372 152.142 321.541 154.588 322.339 157.164C323.659 156.74 324.989 156.284 326.325 155.826C329.343 154.792 332.399 153.744 335.469 153.024C335.219 151.634 334.97 150.234 334.74 148.834L334.442 147.064C329.656 118.591 324.937 90.5223 316.619 62.9336C316.258 63.3183 315.808 63.6099 315.309 63.7836C308.099 66.2336 300.469 67.4436 292.879 68.5936C292.979 69.6137 293.009 70.6394 292.969 71.6636C292.939 72.1893 292.541 72.6199 292.019 72.6906C291.497 72.7613 290.999 72.4523 290.829 71.9536C290.52 70.9536 290.24 70.0136 289.979 69.0336C288.24 69.2936 286.513 69.5669 284.799 69.8536C278.799 70.8536 272.799 71.8536 266.849 72.8536C267.055 74.1969 267.152 75.5547 267.139 76.9136C267.109 77.4393 266.711 77.8699 266.189 77.9406C265.667 78.0113 265.168 77.7023 264.999 77.2036C264.579 75.9316 264.265 74.6272 264.059 73.3036C260.973 73.7903 257.88 74.2569 254.779 74.7036C253.621 74.8726 252.455 75.0157 251.289 75.1589C251.006 75.1937 250.723 75.2284 250.439 75.2636C250.726 77.5519 250.799 79.8617 250.659 82.1636C250.615 82.626 250.258 82.9969 249.798 83.0589C249.337 83.1209 248.895 82.8578 248.729 82.4236C248.075 80.2047 247.577 77.9424 247.239 75.6536C240.999 76.3436 234.759 76.8336 228.509 77.1736C228.644 78.6572 228.644 80.15 228.509 81.6336C228.556 81.9909 228.408 82.3458 228.122 82.5646C227.836 82.7835 227.455 82.833 227.122 82.6946C226.789 82.5562 226.556 82.2509 226.509 81.8936C226.011 80.3978 225.61 78.8712 225.309 77.3236C218.02 77.6736 210.719 77.8736 203.409 78.0436C203.705 80.2749 203.859 82.5228 203.869 84.7736C203.869 85.7736 202.399 86.2536 201.959 85.2936C200.986 83 200.314 80.5899 199.959 78.1236L197.519 78.1736C191.659 78.3003 185.803 78.4169 179.949 78.5236C180.09 80.5211 180.09 82.5261 179.949 84.5236C179.869 85.5236 178.269 85.9136 178.039 84.7836C177.619 82.7836 177.329 80.6736 177.099 78.5836C171.293 78.6969 165.483 78.7936 159.669 78.8736C159.846 80.8453 159.714 82.8324 159.279 84.7636C159.155 85.1525 158.793 85.4162 158.384 85.4162C157.976 85.4162 157.614 85.1525 157.489 84.7636C156.941 82.8624 156.668 80.8923 156.679 78.9136L138.239 79.1936C138.521 81.0399 138.655 82.9059 138.639 84.7736C138.621 85.3203 138.209 85.7734 137.667 85.8452C137.125 85.917 136.61 85.5865 136.449 85.0636C135.825 83.1732 135.423 81.2168 135.249 79.2336L116.619 79.4636C116.926 82.1857 117 84.929 116.839 87.6636C116.81 88.2156 116.392 88.6684 115.844 88.7418C115.296 88.8151 114.773 88.4883 114.599 87.9636C113.928 85.1864 113.503 82.3554 113.329 79.5036L106.239 79.5936C104.638 79.5936 103.014 79.6555 101.372 79.7181L101.372 79.7181C101.148 79.7266 100.924 79.7352 100.699 79.7436C100.879 82.2336 100.989 84.7436 100.959 87.1436C100.878 87.5657 100.536 87.8885 100.109 87.9452C99.6833 88.0019 99.2685 87.7798 99.0795 87.3936C98.2311 84.9619 97.6575 82.4429 97.3695 79.8836C92.9395 80.0636 88.4495 80.2336 84.0595 80.0136C84.1917 83.8279 84.3551 87.6423 84.5185 91.457C84.8618 99.4733 85.2053 107.491 85.2595 115.514C85.3595 132.424 85.0795 149.384 84.0295 166.274C83.0295 181.924 80.3595 196.924 74.2595 211.434C70.9569 219.159 67.245 226.703 63.1395 234.034C64.9972 234.572 66.8549 235.345 68.6984 236.112ZM90.2095 392.494C91.7195 384.644 95.4395 377.494 100.149 370.804C99.6888 370.484 99.2006 370.161 98.7019 369.831L98.7007 369.83L98.6996 369.83L98.6989 369.829L98.6986 369.829C96.9683 368.685 95.1119 367.458 93.8395 365.984C93.6331 365.91 93.4785 365.737 93.4295 365.524V365.364C93.3491 365.034 93.4905 364.691 93.7795 364.514L94.0395 364.344C94.3523 364.178 94.7267 364.178 95.0395 364.344C97.3895 365.564 99.6195 367.004 101.839 368.454C104.449 364.954 107.309 361.564 110.209 358.254C109.64 357.684 109.1 357.117 108.573 356.565L108.573 356.564L108.572 356.564C108.128 356.098 107.694 355.643 107.259 355.204C106.309 354.244 107.629 353.274 108.499 353.954C109.599 354.794 110.709 355.624 111.819 356.444C112.731 355.424 113.644 354.41 114.554 353.398C118.11 349.449 121.612 345.557 124.709 341.704C125.248 341.043 125.771 340.372 126.294 339.701L126.296 339.699L126.297 339.697C126.501 339.435 126.705 339.174 126.909 338.914C126.031 338.244 125.152 337.564 124.27 336.881L124.269 336.88L124.267 336.878C123.925 336.614 123.583 336.349 123.239 336.084C122.389 335.424 123.489 334.084 124.369 334.624L128.369 337.034C130.903 333.794 133.389 330.524 135.829 327.224L135.829 327.223C134.099 325.943 132.369 324.663 130.669 323.344C129.839 322.684 130.909 321.504 131.749 321.944C133.669 322.944 135.529 324.034 137.349 325.194C140.363 321.114 143.326 316.997 146.239 312.844C146.702 312.187 147.157 311.523 147.614 310.859C147.978 310.331 148.342 309.801 148.709 309.274C147.157 308.31 145.671 307.244 144.259 306.084C143.559 305.494 144.309 304.134 145.179 304.494C146.899 305.254 148.569 306.122 150.179 307.094C152.179 304.214 154.123 301.317 156.009 298.404C156.663 297.405 157.3 296.38 157.939 295.351C160.175 291.752 162.445 288.097 165.609 285.314C166.416 284.558 167.622 284.421 168.577 284.977C169.532 285.533 170.008 286.65 169.749 287.724C168.52 292.422 165.708 296.559 162.979 300.574L162.978 300.576C162.489 301.295 162.003 302.01 161.529 302.724C159.789 305.344 158.029 307.95 156.249 310.544C157.638 311.293 158.875 312.294 159.899 313.494C160.123 313.812 160.141 314.232 159.946 314.569C159.751 314.906 159.377 315.099 158.989 315.064C157.392 314.677 155.88 313.999 154.529 313.064C154.339 313.337 154.149 313.61 153.96 313.884L153.772 314.156C153.267 314.885 152.763 315.614 152.249 316.334C149.229 320.594 146.119 324.79 142.919 328.924L143.101 329.05C145.627 330.812 148.282 332.663 150.059 335.164C150.489 335.764 149.759 336.764 149.059 336.464C146.508 335.4 144.239 333.607 142.023 331.856C141.738 331.631 141.453 331.406 141.169 331.184C138.749 334.284 136.296 337.367 133.809 340.434C133.904 340.492 133.998 340.55 134.093 340.608L134.33 340.754L134.33 340.755C136.33 341.984 138.421 343.27 139.809 345.064C140.389 345.794 139.889 347.064 138.809 346.754C136.485 346.071 134.432 344.528 132.448 343.037C132.281 342.912 132.115 342.787 131.949 342.664C128.572 346.776 125.07 350.782 121.573 354.783L121.572 354.784C120.027 356.552 118.482 358.319 116.949 360.094C117.469 360.434 118.003 360.767 118.54 361.101C120.192 362.128 121.866 363.17 123.209 364.514C123.561 364.91 123.617 365.487 123.348 365.943C123.079 366.399 122.546 366.63 122.029 366.514C119.426 365.626 117.006 364.27 114.889 362.514C112.239 365.624 109.639 368.754 107.149 371.964C108.49 372.862 109.733 373.898 110.859 375.054C111.549 375.794 110.859 377.344 109.769 376.914C108.185 376.25 106.67 375.429 105.249 374.464C100.646 380.51 96.6659 387.006 93.3695 393.854C92.5195 395.754 89.8995 394.294 90.2095 392.494ZM289.209 123.134C285.77 117.984 278.499 117.784 275.139 121.984C273.218 123.703 272.098 126.145 272.049 128.724C271.779 134.714 276.679 142.064 283.229 141.924C287.49 141.834 289.569 137.324 290.569 133.784C291.706 130.206 291.208 126.31 289.209 123.134ZM182.689 133.164C183.043 132.603 183.69 132.3 184.347 132.385C185.004 132.471 185.552 132.931 185.749 133.564C186.112 134.518 186.434 135.784 186.786 137.165C188.222 142.797 190.144 150.337 197.219 146.434C202.653 143.435 202.65 137.549 202.648 131.967C202.647 130.009 202.646 128.089 202.879 126.344C203.119 124.574 205.879 123.064 206.879 125.274C211.049 135.024 209.179 151.134 196.929 153.974C185.999 156.494 176.399 142.414 182.689 133.164ZM105.059 138.404C104.788 138.848 104.617 139.346 104.559 139.864C103.53 141.4 102.973 143.204 102.959 145.054C102.869 151.754 109.709 156.484 116.019 154.654C119.081 153.686 121.528 151.366 122.658 148.361C123.788 145.356 123.475 141.998 121.809 139.254C120.183 136.616 117.51 134.798 114.459 134.254C110.756 133.431 106.947 135.113 105.059 138.404Z" fill="#F7941E"/>
<path fill-rule="evenodd" clip-rule="evenodd" d="M122.656 148.321C121.526 151.326 119.079 153.646 116.017 154.614C109.707 156.494 102.897 151.714 102.957 144.974C102.979 143.138 103.535 141.348 104.557 139.824C104.615 139.306 104.786 138.808 105.057 138.364C106.945 135.073 110.754 133.391 114.457 134.214C117.508 134.758 120.181 136.576 121.807 139.214C123.473 141.958 123.786 145.316 122.656 148.321ZM111.817 143.424L111.317 143.494C111.157 143.82 111.079 144.18 111.087 144.544C111.187 145.674 112.317 146.754 113.457 146.144C113.884 145.917 114.178 145.502 114.249 145.025C114.32 144.547 114.16 144.064 113.817 143.724C113.294 143.192 112.763 143.276 112.112 143.379C112.016 143.394 111.918 143.41 111.817 143.424Z" fill="#231F20"/>
<path fill-rule="evenodd" clip-rule="evenodd" d="M290.57 133.784C289.56 137.324 287.49 141.834 283.23 141.924C276.68 142.064 271.78 134.714 272.05 128.724C272.098 126.145 273.218 123.703 275.14 121.984C278.5 117.784 285.77 118.034 289.21 123.134C291.208 126.31 291.706 130.206 290.57 133.784ZM282.14 128.154C282.035 127.943 281.876 127.763 281.68 127.634C281.227 127.772 280.816 128.312 280.386 128.877C280.228 129.085 280.067 129.297 279.9 129.494C279.978 130.065 280.15 130.619 280.41 131.134C280.785 131.738 281.274 132.265 281.85 132.684C281.896 132.572 281.943 132.466 281.985 132.37C282.072 132.174 282.14 132.021 282.14 131.954C282.665 130.741 282.665 129.366 282.14 128.154Z" fill="#231F20"/>
<path d="M196.899 153.974C209.148 151.134 211.018 135.024 206.848 125.274C205.908 123.064 203.128 124.574 202.848 126.344C201.948 133.064 204.528 142.344 197.189 146.434C188.379 151.294 187.559 138.434 185.719 133.564C185.521 132.931 184.974 132.471 184.317 132.385C183.66 132.3 183.013 132.603 182.659 133.164C176.4 142.414 185.999 156.494 196.899 153.974Z" fill="#231F20"/>
<path fill-rule="evenodd" clip-rule="evenodd" d="M383.636 247.321L383.636 247.321C391.683 261.195 399.73 275.07 406.499 289.624C418.729 315.914 432.439 353.304 406.979 376.404C389.999 391.834 366.929 394.354 345.419 389.544C343.886 398.207 342.362 406.872 340.838 415.537L340.838 415.538L340.838 415.539L340.838 415.54L340.837 415.541L340.837 415.542L340.837 415.543L340.837 415.544L340.822 415.63C334.238 453.068 327.652 490.515 320.349 527.844C318.437 538.347 315.801 548.705 312.459 558.844C310.039 565.864 306.709 572.914 299.819 576.524C286.059 583.734 265.509 579.414 259.969 563.984C258.225 559.114 257.732 553.908 257.24 548.713C256.914 545.268 256.588 541.828 255.899 538.494C254.881 533.586 253.463 528.77 251.659 524.094C251.52 523.734 251.385 523.362 251.247 522.984L251.243 522.972L251.243 522.971L251.242 522.97C250.606 521.222 249.926 519.356 248.729 517.994C246.904 515.95 244.302 515.737 241.727 515.527L241.723 515.527L241.718 515.526C241.36 515.497 241.003 515.468 240.649 515.434C230.353 514.34 220 513.88 209.649 514.054C208.902 514.073 208.074 514.06 207.202 514.045C202.786 513.971 197.259 513.878 195.589 518.054C194.42 520.964 194.177 524.649 193.948 528.12C193.849 529.61 193.754 531.06 193.589 532.394C193.374 534.109 193.191 535.957 193.001 537.882L193.001 537.885L193.001 537.886C191.655 551.487 189.928 568.94 173.969 570.964C158.379 572.954 146.389 559.664 139.909 547.124C132.427 532.61 127.322 516.489 122.362 500.827C121.693 498.716 121.027 496.613 120.359 494.524C114.809 477.204 109.699 459.764 105.519 442.074C102.674 445.041 99.5231 447.7 96.1186 450.004C89.5626 454.212 82.4919 452.353 75.5269 450.522L75.4186 450.494C49.2986 443.664 19.8786 432.914 7.09857 407.064C-7.37143 377.724 2.99857 341.574 14.0986 312.904C22.4739 291.273 33.5634 271.179 44.6758 251.043C50.5067 240.477 56.3439 229.9 61.7986 219.084C69.8982 203.218 74.6628 185.861 75.7986 168.084C77.0686 149.214 77.2986 130.204 77.0686 111.294C76.9932 105.024 76.642 98.6945 76.29 92.3509L76.29 92.3503C76.0351 87.756 75.7798 83.1545 75.6286 78.5636C74.8886 77.6856 74.8514 76.4135 75.5386 75.4936C75.4042 69.9131 75.5511 64.3294 75.9786 58.7636C77.1186 44.2736 83.0886 31.3636 95.9786 23.7636C107.933 16.7165 122.176 15.0292 135.71 13.426L135.899 13.4036C144.646 12.3675 153.419 11.3062 162.185 10.2456L162.187 10.2454C172.541 8.99275 182.885 7.74121 193.169 6.53364C198.398 5.9195 203.632 5.24695 208.87 4.57386L208.87 4.57385C222.651 2.80292 236.462 1.02824 250.309 0.303643C259.784 -0.293772 269.295 -0.00921525 278.719 1.15364C285.749 2.08364 293.169 3.37364 299.209 7.36364C305.249 11.3536 308.839 17.4336 311.629 23.9536C315.089 32.0436 318.129 40.3336 320.989 48.6536C326.858 65.7311 331.71 83.1417 335.519 100.794C337.757 111.145 339.426 121.592 341.095 132.039C342.326 139.75 343.558 147.461 345.019 155.134C348.146 172.233 353.386 188.877 360.619 204.684C367.419 219.359 375.527 233.34 383.636 247.32L383.636 247.321ZM136.603 21.4467C124.388 22.8595 111.493 24.351 100.709 30.4936C87.2886 38.0936 83.8986 52.0036 83.8986 66.4936C83.8986 68.8003 83.9419 71.1103 84.0286 73.4236L84.6886 73.4836C88.8086 73.1236 93.0186 73.0636 97.1886 73.0636C97.2086 71.1536 97.3086 69.2736 97.4686 67.4736C97.1786 66.1836 99.6086 65.6736 99.7386 67.3536C99.8731 69.1594 100.054 70.9837 100.236 72.8264L100.259 73.0536C102.329 73.0436 104.399 73.0136 106.399 72.9536L113.179 72.7236L113.163 72.0504L113.15 71.4896L113.15 71.4833L113.15 71.4812C113.111 69.7736 113.073 68.0733 113.009 66.4636C112.969 65.3936 114.739 65.1336 114.889 66.2036C115.101 67.6425 115.332 69.1049 115.566 70.5843C115.674 71.264 115.782 71.9473 115.889 72.6336C122.375 72.4003 128.865 72.1803 135.359 71.9736C135.439 70.8936 135.539 69.8336 135.679 68.8336C135.795 68.4563 136.144 68.199 136.539 68.199C136.933 68.199 137.282 68.4563 137.399 68.8336C137.539 69.8936 137.639 70.8936 137.719 71.8936L156.449 71.3036C156.369 70.1236 156.269 68.8536 156.169 67.7736C156.069 66.6936 157.889 66.3236 158.069 67.5136C158.23 68.5802 158.439 69.695 158.654 70.8364L158.729 71.2336L176.589 70.7036C176.429 68.4836 176.259 66.2736 176.019 64.0936C175.919 63.1136 177.529 62.9236 177.729 63.8636L177.76 64.015C178.2 66.1586 178.658 68.3866 179.059 70.6336C184.912 70.467 190.765 70.3136 196.619 70.1736L199.539 70.1036C199.549 68.2136 199.629 66.3636 199.759 64.6236C199.808 64.1445 200.212 63.7805 200.694 63.7805C201.175 63.7805 201.579 64.1445 201.629 64.6236C201.829 66.4036 202.099 68.2136 202.389 70.0336C209.709 69.8636 217.019 69.6636 224.309 69.3136C224.069 67.3736 223.819 65.4536 223.469 63.5836C223.199 62.2836 225.129 61.7136 225.469 63.0336C225.695 63.9117 225.935 64.8056 226.178 65.7117L226.179 65.7155L226.179 65.7172L226.18 65.7197C226.485 66.8541 226.794 68.0077 227.089 69.1736C233.539 68.8236 239.969 68.3436 246.389 67.6336C246.315 66.7725 246.244 65.9133 246.175 65.0601L246.175 65.0587C246.084 63.9506 245.995 62.8525 245.899 61.7736C245.809 60.7636 247.359 60.6236 247.619 61.5436C247.772 62.1459 247.932 62.7576 248.095 63.3778L248.096 63.3831C248.433 64.6666 248.779 65.9865 249.089 67.3336C251.602 67.047 254.109 66.7136 256.609 66.3336L263.049 65.3336C262.619 63.1277 262.619 60.8596 263.049 58.6536C263.289 57.6836 264.949 57.8936 264.809 58.8936C264.667 60.9132 264.87 62.9421 265.409 64.8936C267.932 64.4828 270.456 64.0581 272.98 63.6335L272.981 63.6333L272.982 63.6332L272.982 63.6332L272.982 63.6332L272.983 63.6331L272.983 63.6331L272.983 63.633L272.983 63.633C276.908 62.9726 280.833 62.3122 284.759 61.7036L288.239 61.1136C287.809 59.1136 287.359 57.1336 286.809 55.1936C286.499 54.1036 288.179 53.3536 288.659 54.4036C289.539 56.3436 290.409 58.4436 291.139 60.6036C298.899 59.2336 306.739 57.8536 314.579 57.8536C314.763 57.855 314.947 57.8717 315.129 57.9036C314.589 56.197 314.035 54.5003 313.469 52.8136C310.849 45.0336 308.049 37.3136 304.959 29.7136C302.169 22.9036 299.049 16.2836 291.959 12.9736C284.869 9.66364 276.309 9.01364 268.619 8.58364C260.132 8.19014 251.629 8.37724 243.169 9.14364C218.674 11.1268 194.205 14.2367 169.771 17.342C159.831 18.6054 149.896 19.868 139.969 21.0536C138.854 21.1864 137.732 21.3162 136.604 21.4466L136.603 21.4467ZM377.377 381.494C350.257 387.494 324.177 374.494 302.947 358.274C303.864 355.722 304.648 353.126 305.297 350.494C305.897 348.344 306.457 346.184 307.017 344.024C308.762 344.415 310.555 344.54 312.337 344.394C313.127 344.304 313.637 343.194 312.777 342.744C311.194 341.971 309.512 341.423 307.777 341.114C308.327 338.864 308.867 336.624 309.357 334.364C310.151 330.784 310.861 327.18 311.487 323.554C313.496 323.913 315.538 324.054 317.577 323.974C318.13 324.051 318.64 323.666 318.717 323.114C318.795 322.561 318.41 322.051 317.857 321.974C315.948 321.346 313.977 320.924 311.977 320.714C312.971 314.674 313.777 308.604 314.397 302.504C314.397 302.26 314.43 302.017 314.463 301.77L314.464 301.765L314.48 301.644C314.486 301.598 314.492 301.551 314.497 301.504C316.966 302.116 319.503 302.412 322.047 302.384C322.957 302.384 323.457 301.014 322.537 300.574C320.069 299.464 317.468 298.681 314.797 298.244C315.427 291.084 315.747 283.894 315.797 276.704C316.486 276.819 317.177 276.949 317.871 277.08C320.373 277.551 322.906 278.027 325.427 277.824C326.327 277.754 326.867 276.464 325.927 275.984C322.728 274.516 319.296 273.622 315.787 273.344V270.284C315.77 268.956 315.767 267.585 315.763 266.182V266.181C315.754 261.943 315.743 257.427 315.337 253.024C324.497 266.164 333.337 279.524 341.707 293.174C350.077 306.824 357.897 320.494 365.447 334.494C368.297 339.804 376.377 335.084 373.527 329.774C356.616 297.964 337.419 267.424 316.087 238.394C308.337 227.904 299.537 217.034 286.147 215.964C284.457 206.884 278.487 194.434 269.897 196.354C264.448 197.574 262.898 203.654 263.828 208.454C264.612 211.931 265.668 215.342 266.988 218.654C267.011 218.719 267.035 218.784 267.058 218.848L267.113 219.001C267.177 219.18 267.24 219.357 267.308 219.534C264.988 220.47 262.724 221.538 260.528 222.734C255.068 215.874 245.658 204.734 239.388 213.574C236.488 217.654 238.088 222.574 239.928 226.714C241.062 229.434 242.501 232.017 244.218 234.414L242.808 235.704C241.948 236.514 241.118 237.344 240.298 238.204C234.788 232.204 225.988 226.204 219.648 231.374C216.128 234.264 216.538 238.634 219.158 241.934C222.268 245.886 225.844 249.448 229.808 252.544C226.632 258.455 224.86 265.018 224.628 271.724C224.248 288.044 234.718 301.454 244.508 313.444C255.394 326.764 267.271 339.243 280.037 350.774C292.377 361.904 305.537 372.614 320.337 380.324C325.536 383.028 330.951 385.293 336.527 387.094C334.361 399.04 332.207 410.994 330.067 422.954C326.529 422.302 322.951 421.885 319.357 421.704C313.617 421.224 307.887 420.674 302.167 420.054C302.077 418.553 301.866 417.061 301.537 415.594C301.537 415.041 301.09 414.594 300.537 414.594C299.985 414.594 299.537 415.041 299.537 415.594C299.237 416.944 299.04 418.314 298.947 419.694C293.467 419.08 288.004 418.39 282.557 417.624C283.046 415.699 283.005 413.677 282.437 411.774C282.287 411.354 281.647 411.034 281.307 411.484C280.158 413.165 279.447 415.108 279.237 417.134C274.457 416.424 269.688 415.684 264.928 414.884L260.558 414.114C260.976 412.209 261.184 410.264 261.178 408.314C261.197 407.818 260.87 407.375 260.39 407.247C259.91 407.12 259.406 407.343 259.178 407.784C258.323 409.62 257.653 411.536 257.178 413.504C250.744 412.324 244.334 411.04 237.948 409.654C238.038 407.944 238.078 406.254 238.058 404.654C238.045 404.24 237.735 403.895 237.325 403.838C236.914 403.781 236.523 404.029 236.398 404.424C235.918 405.914 235.468 407.474 235.068 409.054C229.668 407.874 224.281 406.647 218.908 405.374C219.395 403.33 219.63 401.235 219.608 399.134C219.608 398.374 218.388 397.894 218.038 398.704C217.256 400.653 216.624 402.658 216.148 404.704C208.988 402.99 201.838 401.254 194.698 399.494C194.046 399.314 193.372 399.697 193.193 400.349C193.013 401 193.396 401.674 194.048 401.854C200.948 404.694 207.898 407.224 214.898 409.494C214.235 411.446 213.75 413.454 213.448 415.494C213.298 416.704 215.108 417.054 215.648 416.094C216.601 414.288 217.314 412.365 217.768 410.374C223.101 412.08 228.481 413.66 233.908 415.114C233.373 418.456 233.182 421.843 233.338 425.224C233.386 425.583 233.662 425.869 234.019 425.931C234.376 425.992 234.731 425.816 234.898 425.494C236.001 422.441 236.795 419.285 237.268 416.074C243.168 417.614 249.098 419.014 255.078 420.324C254.475 422.097 253.991 423.907 253.628 425.744C253.514 426.249 253.778 426.763 254.255 426.965C254.732 427.166 255.285 426.998 255.568 426.564C256.664 424.805 257.608 422.955 258.388 421.034L258.397 421.036C260.244 421.425 262.091 421.814 263.948 422.184C268.578 423.114 273.217 423.934 277.877 424.704C277.559 426.529 277.415 428.381 277.447 430.234C277.46 430.587 277.701 430.892 278.042 430.985C278.383 431.079 278.746 430.941 278.937 430.644C279.81 428.92 280.481 427.101 280.937 425.224C286.724 426.137 292.527 426.954 298.347 427.674C298.286 428.791 298.319 429.912 298.447 431.024C298.462 431.609 298.9 432.096 299.48 432.173C300.06 432.251 300.61 431.895 300.777 431.334C301.157 430.262 301.451 429.162 301.657 428.044C306.537 428.614 311.417 429.124 316.317 429.524C320.433 430.032 324.582 430.23 328.727 430.114C324.454 454.247 320.177 478.374 315.897 502.494C315.328 505.679 314.783 508.89 314.236 512.114L314.235 512.118L314.234 512.122L314.234 512.125L314.233 512.129L314.232 512.133L314.232 512.137L314.231 512.141C311.56 527.878 308.838 543.921 302.997 558.704C299.467 567.624 293.157 570.764 283.767 570.334C274.087 569.894 268.997 564.914 267.488 555.524C267.008 552.571 266.665 549.622 266.323 546.68C265.695 541.282 265.07 535.907 263.608 530.574C263.549 530.357 263.489 530.136 263.429 529.913L263.33 529.546C261.454 522.585 258.844 512.899 252.608 509.014C246.99 505.542 238.436 505.597 231.283 505.643C229.7 505.653 228.186 505.663 226.788 505.634C217.678 505.444 208.128 505.254 199.088 506.514C191.748 507.514 188.338 512.134 187.218 519.164C186.42 524.168 185.882 529.217 185.343 534.267L185.343 534.268L185.343 534.269C184.863 538.774 184.383 543.279 183.718 547.754C182.508 555.894 179.388 564.194 169.578 563.194C161.948 562.424 155.578 556.914 151.298 550.904C146.298 543.904 143.008 535.674 139.898 527.634C135.898 517.327 132.095 506.95 128.488 496.504C127.068 492.504 125.698 488.404 124.348 484.344C128.012 484.553 132.103 483.638 135.556 482.866L135.556 482.866L135.557 482.866C136.401 482.677 137.206 482.497 137.958 482.344C139.958 481.924 141.958 481.464 143.958 480.984C144.12 481.495 144.277 482.011 144.434 482.526C145.197 485.036 145.964 487.559 147.358 489.724C147.618 490.119 148.102 490.302 148.558 490.176C149.014 490.051 149.337 489.646 149.358 489.174C149.428 486.114 148.358 483.054 147.198 480.174C151.467 479.06 155.711 477.829 159.961 476.595L161.068 476.274C161.951 479.349 163.257 482.287 164.948 485.004C165.488 485.824 167.048 485.594 166.948 484.464C166.538 481.31 165.794 478.21 164.728 475.214C171.664 473.193 178.708 471.567 185.828 470.344C186.531 472.893 187.571 475.338 188.918 477.614C189.16 477.963 189.596 478.122 190.005 478.009C190.415 477.897 190.709 477.538 190.738 477.114C190.634 474.629 190.234 472.165 189.548 469.774L190.124 469.69C196.815 468.72 203.686 467.724 208.478 462.504C210.268 460.504 208.548 456.934 205.748 457.824C199.857 459.633 193.871 461.119 187.818 462.274C187.418 460.474 186.978 458.674 186.408 456.924C186.217 456.308 185.609 455.92 184.97 456.007C184.331 456.094 183.848 456.629 183.828 457.274C183.888 459.064 184.048 461.004 184.308 462.984C183.846 463.075 183.384 463.167 182.922 463.258L182.133 463.414L182.132 463.414L182.131 463.414L182.13 463.414C175.592 464.704 169.041 465.997 162.588 467.824C162.142 466.373 161.594 464.956 160.948 463.584C160.538 462.734 159.268 463.194 159.248 464.054C159.217 465.614 159.297 467.175 159.488 468.724C157.476 469.324 155.468 469.941 153.46 470.557L153.459 470.558L153.458 470.558L153.456 470.558L153.455 470.559L153.454 470.559L153.453 470.559L153.452 470.56C150.414 471.492 147.375 472.425 144.318 473.304C143.456 471.473 142.41 469.734 141.198 468.114C141.009 467.807 140.625 467.683 140.293 467.823C139.961 467.963 139.78 468.324 139.868 468.674C140.287 470.509 140.821 472.316 141.468 474.084L140.688 474.302L140.685 474.303C139.762 474.56 138.835 474.819 137.908 475.084C134.288 475.994 130.638 476.834 126.958 477.514C126.462 477.606 125.973 477.688 125.493 477.769H125.492C124.414 477.95 123.377 478.124 122.388 478.394C118.008 464.924 113.908 451.394 109.858 437.804C111.218 436.354 112.568 434.924 113.918 433.554C126.478 420.854 138.368 407.504 149.728 393.704L149.977 393.401C170.402 368.581 192.997 341.123 200.078 308.994C203.192 295.09 202.438 280.599 197.898 267.094C203.758 261.164 214.108 249.884 205.448 243.904C199.948 240.104 193.098 245.134 189.568 250.964C188.303 249.219 186.937 247.55 185.478 245.964C186.945 244.471 187.732 242.561 188.566 240.54L188.567 240.539C188.682 240.259 188.799 239.977 188.918 239.694C190.255 236.787 191.29 233.751 192.008 230.634C192.698 227.014 192.008 222.134 187.798 221.044C183.588 219.954 178.798 224.044 176.608 227.314C174.815 229.93 173.673 232.937 173.278 236.084C171.843 235.262 170.365 234.521 168.848 233.864C170.388 227.434 171.068 212.864 162.408 212.444C155.018 212.074 149.548 224.164 149.278 230.794C146.095 231.256 143.035 232.347 140.278 234.004C134.698 237.394 130.608 242.744 127.198 248.214C123.913 253.474 120.888 258.917 117.865 264.355L117.864 264.355C116.572 266.68 115.28 269.005 113.968 271.314C110.297 277.781 106.601 284.234 102.905 290.687L102.903 290.691C97.3988 300.301 91.8941 309.912 86.4683 319.574C84.5783 322.924 89.6882 325.914 91.6182 322.574C96.5048 314.172 101.314 305.733 106.125 297.291L106.126 297.289L106.127 297.288L106.127 297.286L106.128 297.284L106.129 297.283L106.13 297.281L106.131 297.28C109.804 290.834 113.478 284.386 117.188 277.954C118.334 275.963 119.478 273.97 120.621 271.978L120.623 271.975L120.624 271.973L120.625 271.972L120.625 271.97L120.626 271.969C123.702 266.611 126.774 261.258 129.878 255.954L129.976 255.785L129.976 255.785L129.976 255.784C133.229 250.17 136.783 244.037 142.288 240.354C153.878 232.624 169.568 240.424 178.288 249.144C186.728 257.594 191.788 269.084 193.708 280.784C198.578 310.284 181.018 337.984 164.398 360.694C145.346 386.479 124.312 410.739 101.488 433.254C100.826 433.911 100.168 434.577 99.5085 435.245L99.5078 435.246C97.5574 437.221 95.5954 439.208 93.4882 440.994C89.6682 444.244 86.2683 444.104 81.6183 442.994C75.3383 441.504 69.0983 439.814 62.9584 437.854C50.6784 433.944 38.2785 428.784 28.3385 420.374C4.33859 400.094 6.26858 368.094 13.7186 340.374C22.1485 309.024 37.3285 280.114 53.1384 251.944C54.5439 249.444 55.9649 246.944 57.3858 244.444C58.5226 242.444 59.6595 240.444 60.7884 238.444C63.2525 240.339 66.2705 241.608 69.1245 242.809L69.5707 242.997C69.7744 243.082 69.977 243.168 70.1783 243.254C70.5541 243.417 70.935 243.565 71.3138 243.712L71.3144 243.712L71.3148 243.712L71.3283 243.718L71.5566 243.807L71.6642 243.849L71.7783 243.894C70.8677 246.744 70.422 249.722 70.4583 252.714C70.4726 253.138 70.7907 253.49 71.2112 253.547C71.6317 253.604 72.0319 253.349 72.1583 252.944C72.5404 251.81 72.9004 250.677 73.2596 249.546C73.7371 248.043 74.2133 246.543 74.7383 245.054C78.3408 246.391 82.0128 247.532 85.7383 248.474C86.1578 248.585 86.5774 248.677 87.0019 248.77L87.0028 248.77L87.0033 248.77L87.0039 248.77L87.0051 248.77C87.1158 248.795 87.2268 248.819 87.3382 248.844C86.9982 249.934 86.6783 251.004 86.3983 252.024C86.2083 252.724 87.0683 253.524 87.7183 253.024C88.8867 252.102 89.7849 250.883 90.3182 249.494C93.6849 250.16 97.0849 250.697 100.518 251.104C100.852 251.141 101.19 251.181 101.534 251.221C105.832 251.725 110.814 252.31 114.518 250.004C115.05 249.691 115.376 249.12 115.376 248.504C115.376 247.887 115.05 247.316 114.518 247.004C111.82 245.264 108.373 245.022 105.089 244.79C104.162 244.725 103.249 244.661 102.368 244.564C99.1949 244.19 96.0449 243.72 92.9182 243.154C93.8863 241.152 94.728 239.091 95.4382 236.984C95.4782 236.594 95.2869 236.217 94.949 236.019C94.6111 235.821 94.1886 235.838 93.8682 236.064C92.1335 237.976 90.7216 240.158 89.6882 242.524C88.6382 242.304 87.5982 242.074 86.5583 241.824C83.3983 241.064 80.2683 240.164 77.1683 239.164C78.4332 236.781 79.4936 234.296 80.3383 231.734C80.6183 230.734 79.2483 229.844 78.5583 230.734C76.765 233.021 75.2354 235.503 73.9983 238.134L72.1483 237.494C70.957 237.065 69.7831 236.573 68.6096 236.081L68.6088 236.081L68.6086 236.081C66.8272 235.334 65.0469 234.588 63.2084 234.064C67.3603 226.713 71.1156 219.146 74.4583 211.394C80.5583 196.884 83.2483 181.884 84.2283 166.234C85.2783 149.344 85.5583 132.384 85.4583 115.474C85.4041 107.451 85.0606 99.4333 84.7172 91.4169C84.5538 87.6023 84.3905 83.788 84.2583 79.9736C87.9117 80.1567 91.6345 80.0351 95.3342 79.9142C96.0801 79.8898 96.825 79.8655 97.5682 79.8437C97.8563 82.4029 98.4298 84.9219 99.2782 87.3537C99.4672 87.7398 99.882 87.9619 100.308 87.9052C100.734 87.8486 101.077 87.5258 101.158 87.1037C101.158 84.6637 101.078 82.1936 100.898 79.7037C102.768 79.6336 104.618 79.5736 106.438 79.5536L113.528 79.4636C113.702 82.3155 114.127 85.1465 114.798 87.9237C114.972 88.4484 115.495 88.7752 116.042 88.7018C116.59 88.6284 117.008 88.1756 117.038 87.6236C117.199 84.889 117.125 82.1457 116.818 79.4236L135.448 79.1936C135.621 81.1768 136.024 83.1333 136.648 85.0237C136.809 85.5466 137.323 85.877 137.866 85.8052C138.408 85.7334 138.819 85.2804 138.838 84.7337C138.859 82.8658 138.725 80.9994 138.438 79.1536L156.878 78.8736C156.867 80.8524 157.139 82.8225 157.688 84.7236C157.813 85.1125 158.175 85.3763 158.583 85.3763C158.991 85.3763 159.353 85.1125 159.478 84.7236C159.913 82.7925 160.044 80.8053 159.868 78.8336C165.675 78.7403 171.485 78.6436 177.298 78.5436C177.528 80.6337 177.818 82.7137 178.238 84.7437C178.468 85.8736 180.068 85.5237 180.148 84.4837C180.288 82.4861 180.288 80.4812 180.148 78.4837C186.001 78.3836 191.858 78.267 197.718 78.1336L200.158 78.0836C200.512 80.55 201.184 82.96 202.158 85.2536C202.598 86.2536 204.058 85.6836 204.068 84.7337C204.057 82.4828 203.904 80.235 203.608 78.0036C210.918 77.8336 218.218 77.6336 225.508 77.2836C225.809 78.8313 226.209 80.3578 226.708 81.8536C226.779 82.4059 227.285 82.7954 227.838 82.7236C228.39 82.6519 228.779 82.1459 228.708 81.5937C228.843 80.11 228.843 78.6173 228.708 77.1336C234.958 76.7936 241.198 76.3036 247.438 75.6136C247.775 77.9025 248.273 80.1647 248.928 82.3837C249.093 82.8178 249.535 83.081 249.996 83.019C250.456 82.957 250.813 82.5861 250.858 82.1236C250.997 79.8218 250.924 77.5119 250.638 75.2236C250.919 75.1887 251.201 75.1541 251.483 75.1195L251.487 75.119C252.653 74.9758 253.819 74.8327 254.978 74.6636C258.078 74.2236 261.171 73.757 264.258 73.2636C264.463 74.5873 264.777 75.8917 265.198 77.1637C265.367 77.6624 265.865 77.9714 266.387 77.9006C266.909 77.8299 267.307 77.3994 267.338 76.8736C267.302 75.504 267.155 74.1394 266.898 72.7936L266.909 72.7918C272.905 71.7924 278.901 70.793 284.847 69.7936C286.554 69.507 288.281 69.2336 290.027 68.9736C290.287 69.9736 290.567 70.9736 290.877 71.8936C291.046 72.3924 291.545 72.7014 292.067 72.6306C292.589 72.5599 292.987 72.1293 293.017 71.6036C293.057 70.5795 293.027 69.5537 292.927 68.5336C300.517 67.3836 308.147 66.1736 315.357 63.7236C315.856 63.5499 316.305 63.2583 316.667 62.8736C324.985 90.4624 329.703 118.531 334.49 147.004L334.787 148.774C335.017 150.174 335.267 151.574 335.517 152.964C332.459 153.654 329.414 154.707 326.407 155.747C325.059 156.213 323.718 156.676 322.387 157.104C321.589 154.528 320.42 152.082 318.917 149.844C318.702 149.333 318.113 149.093 317.602 149.309C317.091 149.524 316.852 150.113 317.067 150.624C317.578 153.179 318.36 155.673 319.397 158.064C314.599 159.579 309.818 161.129 305.03 162.682L304.037 163.004C302.527 163.494 301.037 164.004 299.477 164.574C298.855 162.726 297.81 161.048 296.427 159.674C296.174 159.441 295.79 159.424 295.516 159.634C295.243 159.843 295.159 160.218 295.317 160.524C296.073 162.095 296.676 163.736 297.117 165.424C295.646 165.957 294.175 166.5 292.701 167.045L292.701 167.045C289.667 168.166 286.623 169.291 283.547 170.334C282.817 168.334 282.047 166.254 281.147 164.264C280.919 163.878 280.461 163.692 280.028 163.808C279.595 163.925 279.292 164.315 279.287 164.764C279.542 166.974 279.997 169.156 280.647 171.284C277.644 172.253 274.593 173.071 271.507 173.734C269.647 174.124 270.198 176.814 271.938 176.914C275.388 177.052 278.843 176.773 282.227 176.084C282.243 176.125 282.258 176.165 282.273 176.206L282.273 176.207L282.273 176.207L282.274 176.208L282.274 176.209C282.297 176.27 282.319 176.331 282.341 176.392C282.371 176.475 282.4 176.558 282.427 176.644C283.427 179.484 284.567 182.244 287.257 183.834C287.61 184.038 288.057 183.98 288.345 183.691C288.634 183.403 288.692 182.957 288.487 182.604C287.295 180.274 286.256 177.869 285.377 175.404C289.748 174.358 294.11 172.922 298.337 171.53L299.117 171.274C299.779 173.148 300.648 174.942 301.707 176.624C301.934 177.176 302.565 177.44 303.117 177.214C303.67 176.987 303.934 176.356 303.707 175.804C303.301 173.94 302.694 172.127 301.897 170.394C303.187 169.974 304.457 169.584 305.707 169.214C310.987 167.674 316.257 166.134 321.517 164.554C321.963 165.929 322.518 167.267 323.177 168.554C323.474 169.037 324.054 169.267 324.601 169.119C325.149 168.971 325.534 168.481 325.547 167.914C325.395 166.457 325.097 165.02 324.657 163.624C325.844 163.276 327.047 162.942 328.255 162.607C331.118 161.812 334.009 161.009 336.787 160.004C339.031 171.813 342.283 183.409 346.507 194.664C351.783 207.927 357.954 220.817 364.977 233.244C367.201 237.265 370.02 242.039 373.167 247.369C398.096 289.588 443.633 366.71 377.377 381.494ZM299.509 342.304C296.936 341.661 294.396 340.891 291.899 339.994C291.571 339.8 291.409 339.414 291.502 339.044C291.594 338.675 291.919 338.41 292.299 338.394C294.919 338.754 297.509 339.244 300.099 339.754C300.689 337.304 301.259 334.854 301.779 332.394C302.493 329.06 303.16 325.727 303.78 322.394C302.331 322.134 300.909 321.746 299.529 321.234C299.172 321.116 298.95 320.759 299.001 320.386C299.053 320.013 299.363 319.73 299.739 319.714C301.241 319.594 302.751 319.614 304.25 319.774C305.38 313.404 306.32 306.994 307.01 300.554L307.1 299.634C305.099 299.105 303.059 298.737 300.999 298.534C300.656 298.513 300.375 298.253 300.329 297.912C300.283 297.571 300.484 297.245 300.809 297.134C302.944 296.539 305.188 296.457 307.36 296.894C308.05 289.804 308.53 282.694 308.75 275.574C307.5 275.334 306.26 275.044 305.04 274.684C304.751 274.58 304.574 274.289 304.615 273.985C304.656 273.681 304.904 273.447 305.21 273.424C306.32 273.274 307.53 273.174 308.81 273.124C308.89 271.854 308.89 270.584 308.89 269.314C308.918 266.308 308.743 263.179 308.565 260.014C308.249 254.375 307.926 248.62 308.74 243.234C302.75 234.404 295.469 225.374 285.189 224.604L280.989 224.704C274.768 225.515 268.782 227.605 263.409 230.844L260.989 232.304C255.526 235.779 250.506 239.906 246.039 244.594C236.549 254.554 230.549 268.094 234.809 281.804C238.913 294.996 249.536 306.571 258.934 316.811L258.937 316.814L258.939 316.817L258.98 316.861C259.939 317.906 260.884 318.937 261.809 319.954C272.269 331.507 283.52 342.32 295.479 352.314L296.479 353.104C296.702 352.345 296.944 351.574 297.183 350.808L297.184 350.805C297.534 349.685 297.88 348.577 298.159 347.544C298.629 345.804 299.069 344.054 299.509 342.304ZM232.799 247.494C232.132 246.68 231.412 245.88 230.639 245.094C229.736 244.128 228.815 243.168 227.895 242.21L227.586 241.888L227.199 241.484C226.949 241.223 226.628 240.94 226.284 240.637C225.042 239.541 223.51 238.191 224.059 236.774C225.309 233.544 231.589 239.344 235.659 243.544C234.649 244.824 233.699 246.134 232.799 247.494ZM248.219 219.124C246.219 217.644 243.749 216.924 244.219 220.204C244.656 223.314 246.305 226.016 247.941 228.698C248.288 229.266 248.635 229.833 248.969 230.404C250.709 229.034 252.539 227.724 254.409 226.464C254.208 226.225 254.006 225.986 253.804 225.746C253.591 225.494 253.378 225.241 253.164 224.988L253.132 224.95L253.125 224.942L253.125 224.941C252.544 224.254 251.966 223.571 251.409 222.904C251.101 222.536 250.793 222.112 250.475 221.676C249.791 220.736 249.066 219.738 248.219 219.124ZM271.299 204.964C272.179 203.517 272.909 203.587 273.489 205.174C273.98 205.97 274.43 206.792 274.839 207.634C275.645 209.181 276.353 210.777 276.959 212.414C277.419 213.721 277.793 215.057 278.079 216.414C276.29 216.714 274.52 217.118 272.779 217.624C272.46 216.312 271.999 214.947 271.548 213.612L271.548 213.612C270.296 209.911 269.123 206.441 271.299 204.964ZM192.439 255.414C193.399 257.027 194.282 258.677 195.089 260.364L197.439 257.634C197.679 257.359 198.039 256.996 198.458 256.573L198.462 256.569L198.463 256.568C200.348 254.667 203.444 251.546 202.439 249.634C200.759 246.344 195.759 251.484 192.439 255.414ZM183.599 235.784C183.232 236.723 182.782 237.625 182.334 238.522C181.828 239.536 181.325 240.544 180.949 241.594C179.859 240.654 178.739 239.744 177.559 238.874C177.436 238.781 177.309 238.697 177.183 238.612C177.104 238.56 177.026 238.507 176.949 238.454C177.3 236.543 177.977 234.706 178.949 233.024C179.889 231.524 183.739 226.444 185.529 227.444C186.868 228.171 184.746 233.106 183.865 235.155C183.793 235.324 183.728 235.473 183.675 235.599C183.646 235.668 183.621 235.73 183.599 235.784ZM162.589 231.694C162.827 230.923 163.017 230.138 163.159 229.344C163.519 226.984 163.899 221.994 162.319 219.994C161.428 218.87 161.091 219.308 160.331 220.293C160.212 220.448 160.082 220.616 159.939 220.794C159.091 221.844 158.335 222.965 157.679 224.144C156.645 226.174 155.815 228.301 155.199 230.494C157.696 230.642 160.172 231.044 162.589 231.694Z" fill="#231F20"/>
<path d="M93.4268 393.834C96.7261 387.004 100.706 380.524 105.307 374.494C106.728 375.46 108.242 376.28 109.827 376.944C110.927 377.374 111.607 375.824 110.917 375.084C109.79 373.928 108.547 372.893 107.207 371.994C109.697 368.784 112.297 365.654 114.947 362.544C117.064 364.3 119.483 365.656 122.087 366.544C122.603 366.66 123.136 366.429 123.405 365.973C123.674 365.517 123.618 364.94 123.267 364.544C121.487 362.764 119.127 361.544 117.007 360.124C122.007 354.334 127.137 348.624 132.007 342.694C134.147 344.294 136.347 346.044 138.867 346.784C139.927 347.104 140.427 345.784 139.867 345.094C138.337 343.144 135.997 341.794 133.867 340.464C136.353 337.404 138.807 334.32 141.227 331.214C143.717 333.164 146.227 335.294 149.117 336.494C149.827 336.794 150.557 335.794 150.117 335.194C148.297 332.634 145.557 330.754 142.977 328.954C146.163 324.814 149.273 320.617 152.307 316.364C153.077 315.284 153.827 314.184 154.587 313.094C155.938 314.029 157.45 314.707 159.047 315.094C159.435 315.113 159.799 314.907 159.981 314.564C160.163 314.221 160.13 313.804 159.897 313.494C158.883 312.301 157.66 311.305 156.287 310.554C158.067 307.96 159.827 305.354 161.567 302.734C164.687 298.014 168.337 293.254 169.787 287.734C170.046 286.66 169.569 285.543 168.614 284.987C167.659 284.431 166.453 284.568 165.647 285.324C161.577 288.904 158.987 293.924 156.047 298.414C154.133 301.334 152.19 304.23 150.217 307.104C148.607 306.132 146.937 305.264 145.217 304.504C144.347 304.144 143.597 305.504 144.297 306.094C145.708 307.254 147.195 308.32 148.747 309.284C147.917 310.474 147.107 311.674 146.277 312.854C143.357 317.007 140.393 321.124 137.387 325.204C135.567 324.044 133.707 322.954 131.787 321.954C130.947 321.514 129.877 322.694 130.707 323.354C132.407 324.674 134.137 325.954 135.867 327.234C133.413 330.534 130.927 333.804 128.407 337.044L124.407 334.634C123.527 334.114 122.407 335.434 123.277 336.094C124.507 337.044 125.727 337.994 126.947 338.924C126.217 339.854 125.497 340.794 124.747 341.714C120.837 346.554 116.327 351.424 111.857 356.454C110.747 355.634 109.637 354.804 108.537 353.964C107.667 353.284 106.537 354.354 107.297 355.214C108.057 356.074 109.197 357.214 110.247 358.264C107.347 361.574 104.487 364.964 101.877 368.464C99.6568 367.014 97.4268 365.574 95.0768 364.354C94.764 364.188 94.3896 364.188 94.0768 364.354L93.8168 364.524C93.5278 364.701 93.3864 365.044 93.4668 365.374C93.4668 365.434 93.4668 365.484 93.4668 365.534C93.5158 365.747 93.6705 365.921 93.8768 365.994C95.5168 367.894 98.1268 369.384 100.187 370.814C95.4768 377.514 91.7568 384.654 90.2468 392.504C89.8968 394.294 92.5168 395.754 93.4268 393.834Z" fill="#231F20"/>
</svg>
