<svg width="577" height="258" viewBox="0 0 577 258" fill="none" xmlns="http://www.w3.org/2000/svg">
<path fill-rule="evenodd" clip-rule="evenodd" d="M197.074 77.9252C178.614 79.8352 160.074 74.0152 143.974 64.9252C135.347 59.93 127.098 54.3082 119.294 48.1052C112.294 42.6252 105.514 36.6652 100.174 29.4552C97.5442 25.9224 95.3704 22.072 93.704 17.9952C93.6214 17.7888 93.5422 17.5585 93.4591 17.3171C93.0188 16.038 92.4717 14.4484 90.764 14.4652C90.2189 14.4652 89.2058 15.1288 88.3849 15.6664L88.3847 15.6665C88.0611 15.8784 87.7674 16.0708 87.544 16.1952C85.9242 17.1085 84.3221 18.0572 82.7201 19.006L82.7197 19.0062C81.9185 19.4807 81.1174 19.9552 80.314 20.4252C79.0131 21.1853 77.7116 21.9443 76.41 22.7032L76.4077 22.7045C69.2855 26.8573 62.164 31.0098 55.164 35.3552C39.044 45.3552 23.314 56.6652 11.324 71.5652C9.57645 73.5096 8.02245 75.6195 6.68399 77.8652C6.49186 78.2392 6.32747 78.5166 6.20273 78.7272C6.00924 79.0538 5.91114 79.2194 5.95284 79.3342C5.99573 79.4523 6.18651 79.5167 6.57351 79.6473C6.74187 79.7041 6.94738 79.7735 7.19399 79.8652C8.56891 80.2396 10.0087 80.3113 11.414 80.0752C15.9143 79.6727 20.3226 77.8312 24.4935 76.0888L24.4935 76.0888L24.4943 76.0885C24.883 75.9261 25.2696 75.7646 25.654 75.6052C35.5869 71.4218 45.1307 66.3689 54.174 60.5052C56.824 58.7952 59.704 62.6752 57.494 64.8052C49.2873 72.7452 41.384 80.9752 33.784 89.4952C33.1323 90.2297 32.4712 90.968 31.8054 91.7114C25.473 98.7828 18.7248 106.318 15.784 115.385C15.7483 115.495 15.7052 115.621 15.6577 115.761L15.6576 115.761C15.1855 117.144 14.2715 119.821 15.734 120.675C16.2429 120.97 17.4375 120.683 18.1218 120.518L18.1232 120.518C18.2047 120.498 18.279 120.48 18.344 120.465C20.4693 119.964 22.4717 118.747 24.3575 117.6C24.6899 117.398 25.0188 117.199 25.344 117.005C29.9522 114.259 34.366 111.198 38.554 107.845C46.774 101.295 54.294 93.9352 61.794 86.5852C63.924 84.5052 67.794 87.2952 66.014 89.8452C60.504 97.7152 55.014 105.645 50.684 114.265C48.5377 118.513 46.8128 122.961 45.534 127.545C44.8866 129.799 44.4119 132.099 44.114 134.425C43.654 138.475 46.754 139.135 49.914 137.555C53.369 135.812 56.1267 132.713 58.742 129.774L58.7427 129.773C59.3518 129.089 59.9533 128.413 60.554 127.765C64.034 124.019 67.5107 120.265 70.984 116.505L92.434 93.3652C94.284 91.3652 97.674 93.4552 96.934 95.9852C94.424 104.645 92.254 113.395 90.484 122.235L90.4495 122.408L90.4495 122.408C89.5808 126.761 88.7063 131.144 88.124 135.545L88.0939 135.768C87.6439 139.097 87.0116 143.775 89.564 146.405C94.9653 151.945 105.149 142.916 109.962 138.649C110.361 138.294 110.724 137.973 111.044 137.695C117.258 132.291 122.907 126.27 127.904 119.725C129.704 117.375 133.584 118.655 132.844 121.815C130.629 131.125 129.479 140.656 129.414 150.225C129.414 150.951 129.406 151.712 129.398 152.499C129.333 159.001 129.249 167.256 133.344 172.225C136.414 175.955 141.404 175.325 144.824 172.355C148.044 169.575 149.384 165.355 150.224 161.355C150.656 159.294 150.973 157.224 151.289 155.167V155.166C152.115 149.788 152.928 144.49 155.734 139.615C157.124 137.205 160.444 138.455 160.654 140.945C161.101 146.445 161.547 151.949 161.994 157.455C162.034 157.937 162.037 158.601 162.04 159.342V159.343C162.05 161.383 162.062 164.014 162.854 165.085C164.324 167.085 166.204 166.085 167.154 164.505C167.748 163.455 168.173 162.318 168.414 161.135C168.491 160.812 168.631 160.506 168.824 160.235C167.855 155.92 167.187 151.543 166.824 147.135C165.934 136.285 166.724 123.835 170.824 113.135C174.494 98.6552 184.644 86.7752 197.074 77.9252ZM98.964 80.5152C96.094 83.2952 91.154 82.1052 88.604 79.3652C87.0833 77.6402 86.291 75.3925 86.394 73.0952C86.4261 72.1876 86.5706 71.2874 86.824 70.4152C86.9087 70.1282 87.3234 69.4049 87.7324 68.6913C88.1926 67.8886 88.6458 67.0982 88.614 66.9552C88.4824 66.3246 87.3675 66.0669 86.168 65.7895C85.1801 65.5611 84.1347 65.3195 83.534 64.8452C81.8604 63.4135 80.8511 61.3551 80.744 59.1552C80.284 54.2852 82.044 46.7152 86.324 43.9352C86.4308 43.8775 86.5614 43.8874 86.6583 43.9606C86.7551 44.0338 86.8003 44.1567 86.774 44.2752C86.418 46.1822 85.7287 47.9384 85.0413 49.69L85.0413 49.69C84.0489 52.2186 83.0604 54.7373 83.084 57.6852L83.364 60.2652L87.364 63.6852C87.6648 63.763 88.0301 63.6929 88.3959 63.6227C88.7353 63.5575 89.0752 63.4923 89.364 63.5452C90.0354 63.5722 90.6701 63.859 91.134 64.3452C92.4167 65.7946 91.4621 67.244 90.5577 68.6173C90.2141 69.139 89.8777 69.6497 89.674 70.1452C88.534 72.8452 88.734 76.1452 91.114 78.0952C93.194 79.8352 95.544 79.3852 97.954 78.8152C98.4121 78.6293 98.9373 78.806 99.1898 79.231C99.4423 79.6561 99.3464 80.2018 98.964 80.5152ZM152.734 112.705C155.324 116.615 161.254 116.235 163.324 111.295C163.904 109.905 161.664 109.025 160.974 110.265C157.414 113.205 155.257 113.009 154.504 109.675C154.34 109.14 153.879 108.749 153.323 108.676C152.768 108.602 152.221 108.86 151.924 109.335C151.896 109.375 151.866 109.417 151.835 109.461C151.159 110.415 149.812 112.315 148.684 112.535L143.374 110.435C142.947 109.728 142.582 108.985 142.284 108.215C141.391 106.122 140.75 103.93 140.374 101.685C140.237 101.208 139.86 100.838 139.38 100.711C138.9 100.584 138.389 100.719 138.034 101.065C137.928 101.179 137.821 101.293 137.713 101.41C135.266 104.042 132.211 107.329 128.284 106.965C123.003 106.49 123.358 100.529 123.593 96.5674C123.6 96.4481 123.607 96.3307 123.614 96.2152C123.956 90.2893 125.894 85.4235 127.954 80.2494C128.488 78.9099 129.03 77.5498 129.554 76.1452C129.714 75.5952 128.934 75.1952 128.554 75.5952C122.384 82.0252 118.764 95.9752 121.384 104.595C122.388 107.823 125.459 109.954 128.834 109.765C132.604 109.745 135.574 107.495 138.144 104.955C139.094 108.825 140.754 113.395 144.094 115.145C147.434 116.895 150.454 115.125 152.734 112.705Z" fill="white"/>
<path d="M355.154 202.235C355.154 199.025 352.764 196.535 350.414 194.655C345.836 191.169 340.695 188.493 335.214 186.745C323.974 182.915 312.024 182.035 300.214 181.915C286.983 181.761 273.756 182.449 260.614 183.975C247.184 185.545 234.104 188.535 220.854 191.075C223.744 195.085 226.998 198.821 230.574 202.235C237.202 208.638 245.051 213.64 253.654 216.945C262.214 220.165 270.524 220.525 279.514 221.095C280.094 219.095 282.564 217.665 284.174 219.725C286.644 222.905 290.104 224.625 294.174 223.885C295.051 223.674 295.976 223.869 296.694 224.416C297.411 224.963 297.844 225.804 297.874 226.705C297.874 234.385 305.614 237.815 311.584 233.435C313.094 232.335 315.514 233.435 315.904 235.195C317.284 241.265 320.394 247.195 326.384 249.815C332.146 252.514 339.015 250.339 342.174 244.815C345.704 239.085 345.464 232.075 345.174 225.595C344.884 219.115 344.514 212.835 344.174 206.445C344.014 203.545 348.334 202.395 349.664 204.955C351.634 208.745 355.184 205.015 355.154 202.235Z" fill="#BE1E2D"/>
<path d="M205.522 116.115C203.522 115.495 202.522 117.495 201.742 118.945C201.755 119.025 201.778 119.102 201.812 119.175C202.432 120.775 205.302 121.675 206.452 120.175C207.322 119.015 207.032 116.595 205.522 116.115Z" fill="white"/>
<path d="M348.902 109.375C348.168 109.358 347.433 109.421 346.712 109.565C346.33 110.665 346.267 111.851 346.532 112.985C347.272 115.605 349.872 114.795 351.462 113.235C353.562 111.185 351.002 109.465 348.902 109.375Z" fill="white"/>
<path fill-rule="evenodd" clip-rule="evenodd" d="M361.903 88.0853C344.959 70.972 322.629 60.2306 298.683 57.6753C284.813 56.3035 271.051 59.031 257.498 61.7171L257.498 61.7171L257.498 61.7172L257.497 61.7173L257.497 61.7173L257.497 61.7174C256.725 61.8704 255.953 62.0233 255.183 62.1753C242.093 64.7653 228.933 67.7253 216.603 72.9353C202.533 78.9353 189.263 88.7453 181.153 101.615C181.172 101.86 181.138 102.105 181.053 102.335C180.672 103.324 180.289 104.307 179.907 105.287L179.907 105.287C177.112 112.459 174.391 119.442 173.133 127.175C173.127 127.272 173.127 127.369 173.133 127.465V128.415C173.134 128.735 173.059 129.051 172.913 129.335C171.848 137.609 172.027 145.995 173.443 154.215C178.713 185.385 200.023 213.905 223.443 234.275C236.053 245.275 251.923 250.325 268.443 251.375C276.447 251.838 284.477 251.61 292.443 250.695C297.016 250.205 301.53 249.376 306.041 248.548C308.888 248.025 311.733 247.502 314.593 247.065C313.223 244.97 312.127 242.709 311.333 240.335C307.429 241.86 303.05 241.569 299.382 239.542C295.714 237.515 293.138 233.962 292.353 229.845C288.283 229.879 284.366 228.297 281.463 225.445C281.132 225.778 280.705 225.999 280.243 226.075C269.913 228.205 258.243 225.215 248.713 221.135C238.751 216.774 229.848 210.314 222.613 202.195C215.374 194.142 209.597 184.886 205.543 174.845C204.633 172.615 200.003 159.255 202.183 154.515C202.247 153.438 203.106 152.579 204.183 152.515C213.265 151.365 222.676 151.471 231.968 151.575H231.968C235.444 151.614 238.903 151.652 242.323 151.625C250.418 151.552 258.508 151.514 266.6 151.476L266.605 151.476L266.609 151.476L266.614 151.476L266.618 151.476L266.623 151.476C270.659 151.457 274.695 151.439 278.733 151.415C303.573 151.289 328.419 151.185 353.273 151.105C354.868 151.122 356.156 152.41 356.173 154.005C355.25 164.491 352.209 174.68 347.233 183.955C347.026 184.356 346.724 184.699 346.353 184.955C353.903 188.845 361.903 194.675 361.063 203.405C360.553 208.935 355.213 212.905 350.463 212.335C350.514 213.033 350.566 213.732 350.619 214.433L350.62 214.451C350.926 218.543 351.236 222.674 351.313 226.775C361.636 220.39 370.223 211.555 376.313 201.055C383.963 187.615 385.983 172.345 386.473 157.055C386.923 143.055 385.713 128.945 380.473 115.875C376.165 105.484 369.856 96.0409 361.903 88.0853ZM212.063 210.955C213.383 211.955 214.713 212.955 216.063 213.955C217.41 214.766 218.667 215.718 219.813 216.795C219.978 216.998 219.998 217.282 219.864 217.506C219.729 217.73 219.469 217.846 219.213 217.795C216.213 216.935 213.413 214.005 211.403 211.795C211.043 211.365 211.563 210.575 212.063 210.955ZM204.318 201.25C204.594 201.043 204.65 200.651 204.443 200.375C203.592 198.85 202.73 197.34 201.871 195.835C198.146 189.309 194.472 182.872 191.953 175.615C188.853 166.685 187.623 157.695 186.543 148.345C186.506 148.073 186.273 147.869 185.998 147.869C185.722 147.869 185.49 148.073 185.453 148.345C184.763 157.895 186.803 167.945 189.903 176.945C192.903 185.615 197.053 194.445 203.443 201.125C203.65 201.401 204.042 201.457 204.318 201.25ZM210.173 124.205C206.173 128.145 199.013 126.205 197.003 121.205C195.173 116.625 198.723 110.975 203.463 110.605C205.037 110.282 206.674 110.471 208.133 111.145C212.953 113.435 213.903 120.505 210.173 124.205ZM310.643 70.1253C310.073 70.0053 309.813 70.8653 310.393 71.0053C317.681 72.8348 324.662 75.7221 331.113 79.5753C335.171 81.9732 338.743 84.9267 342.326 87.8896C344.182 89.4243 346.041 90.9614 347.973 92.4253C348.573 92.8253 349.333 91.9953 348.973 91.4253C340.973 79.1253 324.553 72.3853 310.643 70.1253ZM350.963 119.845C344.573 121.845 340.373 116.315 341.123 110.295C340.478 110.014 340.012 109.435 339.874 108.745C339.737 108.056 339.945 107.342 340.433 106.835C342.185 105.347 344.3 104.35 346.563 103.945C346.89 103.864 347.225 103.818 347.563 103.805C350.959 103.315 354.36 104.667 356.493 107.355C360.303 112.365 356.183 118.175 350.963 119.845ZM377.303 138.005C377.493 138.705 378.493 138.505 378.493 137.845C378.993 128.705 375.173 117.755 368.593 111.295C368.449 111.171 368.237 111.165 368.086 111.282C367.936 111.398 367.888 111.605 367.973 111.775C368.587 113.033 369.228 114.267 369.866 115.496C371.471 118.587 373.062 121.65 374.193 125.005C375.495 129.271 376.533 133.612 377.303 138.005Z" fill="#FFF200"/>
<path fill-rule="evenodd" clip-rule="evenodd" d="M558.583 47.0552C561.193 48.5752 563.733 50.1952 566.193 51.9352C569.273 54.1252 572.983 56.7652 568.833 60.3752C554.322 72.884 534.155 68.8034 515.776 65.0846C509.838 63.8832 504.087 62.7195 498.773 62.1652C495.633 61.8352 495.223 66.6452 498.043 67.5052C507.138 70.2168 515.869 74.0247 524.043 78.8452C527.683 80.9952 549.533 94.4152 544.303 98.7752C540.813 101.675 533.633 101.835 529.353 101.775C524.096 101.65 518.889 100.719 513.913 99.0152C504.459 95.8963 495.889 90.659 487.442 85.4977L486.783 85.0952C484.583 83.7452 481.323 86.5852 483.033 88.8452C488.456 95.9193 492.638 103.862 495.403 112.335L495.517 112.691C497.461 118.802 501.799 132.436 493.553 135.465C486.331 138.12 476.864 130.007 471.148 125.11C470.619 124.657 470.123 124.232 469.663 123.845C462.679 117.972 456.342 111.367 450.763 104.145C449.103 102.015 445.163 104.335 446.163 106.825C448.854 113.239 451.191 119.795 453.163 126.465C453.222 126.677 453.293 126.93 453.375 127.221L453.375 127.223C454.689 131.885 458.68 146.052 453.343 147.765C448.396 149.353 442.391 140.763 439.24 136.255L439.239 136.254C438.779 135.596 438.38 135.025 438.053 134.585C433.982 129.067 430.255 123.303 426.893 117.325C425.673 115.105 421.653 115.945 421.893 118.695C422.116 121.267 422.361 123.839 422.605 126.412L422.605 126.412L422.605 126.412C423.161 132.265 423.718 138.123 424.023 143.985C424.333 150.095 424.543 158.225 419.153 162.585C413.763 166.945 404.133 154.945 401.323 150.945C397.396 145.387 394.432 139.212 391.486 133.073L391.323 132.735C390.819 129.556 390.151 126.406 389.323 123.295C386.105 111.634 380.519 100.762 372.913 91.3552C370.381 88.1961 367.663 85.1908 364.773 82.3552C380.313 81.1052 395.953 73.1052 408.023 64.1052C422.182 53.6571 433.539 39.8717 441.083 23.9752C441.776 22.4817 442.366 20.9142 442.956 19.3441C443.789 17.1295 444.624 14.9098 445.753 12.8852C448.49 7.95844 455.057 7.33518 460.478 6.82071C461.219 6.75041 461.938 6.68214 462.623 6.6052C474.093 5.3252 485.683 5.7852 497.153 6.8652C509.033 7.9952 520.853 9.7652 532.623 11.6652C538.243 12.5785 543.857 13.5385 549.463 14.5452C550.591 14.7479 551.746 14.9299 552.912 15.1136L552.912 15.1137C556.867 15.7368 560.955 16.3808 564.553 17.9252C565.706 18.2981 566.752 18.9429 567.603 19.8052C568.671 21.3571 568.258 21.4511 567.156 21.7016C566.824 21.7771 566.429 21.8669 565.993 22.0152C563.223 22.9675 560.371 23.6637 557.473 24.0952C551.558 24.8066 545.592 24.994 539.643 24.6552C538.678 24.6258 537.713 24.5938 536.747 24.5619C526.206 24.2127 515.646 23.863 505.413 26.8952C504.123 27.301 503.312 28.5769 503.492 29.9176C503.672 31.2583 504.792 32.2746 506.143 32.3252C518.486 32.5608 530.698 34.9011 542.253 39.2452C547.911 41.3736 553.375 43.9866 558.583 47.0552ZM430.683 104.615C433.443 104.315 436.923 103.495 439.093 101.615C443.673 97.6352 440.903 89.5452 438.503 85.1352C437.843 83.9852 435.743 84.7752 436.283 86.0752C437.478 88.6401 438.306 91.36 438.743 94.1552C439.223 98.3152 436.653 100.555 432.923 101.505C429.193 102.455 427.203 101.975 423.853 100.455C423.644 100.359 423.445 100.258 423.251 100.16C422.361 99.7102 421.586 99.3185 420.493 99.6552C419.623 99.9305 419.289 100.387 418.812 101.039L418.744 101.132C418.705 101.185 418.665 101.239 418.623 101.295C416.863 103.695 415.443 105.365 412.323 105.995C405.683 107.315 400.963 101.675 398.683 96.1952C398.612 95.9191 398.33 95.7534 398.053 95.8252C397.777 95.897 397.612 96.1791 397.683 96.4552C398.673 102.045 402.653 107.165 408.423 108.295C410.742 108.742 413.14 108.488 415.313 107.565C416.156 107.217 417.17 106.265 418.212 105.288C419.743 103.851 421.333 102.36 422.523 102.645C423.127 102.785 423.706 103.154 424.298 103.531C424.891 103.909 425.497 104.295 426.153 104.465C427.642 104.79 429.177 104.841 430.683 104.615ZM465.253 48.1852C463.983 53.6652 458.973 56.2952 453.993 55.4952C455.82 60.787 453.279 66.5946 448.153 68.8452C441.153 72.0152 434.153 68.3752 429.983 62.6452C429.593 62.1052 430.463 61.4452 430.893 61.9352C434.423 65.9352 439.653 68.8652 445.093 67.4752C451.093 65.9452 454.223 59.3552 450.453 54.1252C449.643 53.0052 451.163 51.9352 452.173 52.4052C458.513 55.4052 464.963 49.4952 462.243 43.0152C460.723 39.3752 457.133 37.1352 453.783 35.3552C452.383 34.6152 453.453 32.8252 454.783 33.0152C456.625 33.3696 458.499 33.5205 460.373 33.4652C463.593 33.2252 466.523 31.3252 467.173 27.8852C467.703 25.0452 463.843 19.0752 460.543 17.8852C460.543 17.9792 460.516 18.0772 460.488 18.1766C460.471 18.2358 460.455 18.2955 460.443 18.3552C460.173 19.5352 458.573 19.1352 458.443 18.0952L458.293 16.3952C458.299 15.6999 458.858 15.136 459.553 15.1252C465.273 15.1252 470.653 24.1852 469.553 29.4652C468.483 34.4652 463.933 35.8252 459.403 35.8852C463.313 38.8452 466.453 42.9852 465.253 48.1852ZM484.413 60.7652C487.663 60.6652 489.883 57.2752 490.253 53.6652H490.283C490.793 48.7752 488.513 42.3452 483.683 40.4352C483.307 40.3551 482.918 40.4984 482.683 40.8036C482.448 41.1088 482.409 41.5217 482.583 41.8652C483.053 42.4973 483.554 43.0821 484.05 43.6616C485.084 44.8697 486.098 46.0543 486.773 47.5952C487.623 49.5652 489.373 61.2752 482.773 58.0052C482.241 57.7118 481.574 57.8516 481.204 58.334C480.834 58.8165 480.872 59.497 481.293 59.9352C484.123 63.3752 481.213 67.8352 477.823 69.1452C474.433 70.4552 470.823 69.7952 467.343 69.1452C467.029 69.0596 466.704 69.2454 466.618 69.5602C466.533 69.875 466.719 70.1996 467.033 70.2852C471.943 72.1352 478.463 73.0652 482.413 68.7652C484.476 66.6553 485.24 63.5974 484.413 60.7652Z" fill="white"/>
<path fill-rule="evenodd" clip-rule="evenodd" d="M568.363 46.7452C562.152 42.4517 555.522 38.7997 548.573 35.8452C542.789 33.3958 536.812 31.4291 530.703 29.9652C532.568 30.0152 534.436 30.0852 536.303 30.1552L536.304 30.1552C538.171 30.2252 540.038 30.2952 541.903 30.3452C547.118 30.5539 552.341 30.3466 557.523 29.7252C562.143 29.1052 567.903 28.2952 571.843 25.6352C575.093 23.4352 575.033 20.1152 572.843 17.1752C570.233 13.6352 565.843 12.0352 561.733 11.0652C551.347 8.64209 540.661 7.06685 530.08 5.50714L530.073 5.50619L530.071 5.50589C528.603 5.28942 527.136 5.07326 525.673 4.85516C501.493 1.24516 476.143 -2.33484 451.903 2.85516C447.653 3.76516 444.083 5.30516 441.693 9.09516C440.111 11.6058 439.027 14.4633 437.948 17.3097L437.948 17.3105L437.947 17.3112L437.947 17.3118C437.213 19.2491 436.48 21.1811 435.593 22.9952C431.32 31.7232 425.806 39.7868 419.223 46.9352C411.761 55.0498 403.039 61.9078 393.393 67.2452C383.333 72.8452 371.593 77.5752 359.903 77.8452C345.787 65.7695 328.879 57.4099 310.713 53.5252C295.123 50.1952 279.993 51.5252 264.483 54.5252C249.653 57.3852 234.683 60.2952 220.483 65.5952C215.941 67.2906 211.521 69.2952 207.253 71.5952C206.736 71.3367 206.142 71.2762 205.583 71.4252C181.943 76.9452 158.523 68.0252 138.823 55.2752C129.609 49.4737 120.949 42.8357 112.953 35.4452C109.18 31.9581 105.825 28.0453 102.953 23.7852C101.681 21.8531 100.552 19.8311 99.5731 17.7352C99.2384 17.002 98.9574 16.2094 98.6732 15.4078L98.6731 15.4077C98.1084 13.8147 97.5309 12.1857 96.4931 10.9152C93.8931 7.73516 90.0031 8.55516 86.7731 10.2152C83.0634 12.1226 79.4749 14.2983 75.8851 16.4748C74.0172 17.6073 72.1489 18.74 70.2631 19.8352C61.3531 25.0452 52.4531 30.2852 43.8531 35.9952C35.46 41.4659 27.4998 47.5739 20.0431 54.2652C16.2006 57.7593 12.5833 61.4935 9.21313 65.4452C8.69926 66.0491 8.14392 66.6805 7.5688 67.3343C4.88706 70.3832 1.7753 73.921 0.433134 77.4452C-1.19687 81.7252 2.01313 84.5152 6.06313 85.3452C11.7131 86.5052 17.4931 84.6852 22.7231 82.6952C28.398 80.5308 33.9556 78.0707 39.3731 75.3252C33.9531 81.0452 28.6731 86.9052 23.5931 92.9352C19.6631 97.6152 15.7831 102.475 13.0231 107.935C11.0231 111.855 7.93313 118.035 9.96313 122.445C14.9631 133.365 34.2231 119.225 48.8431 106.275C46.7365 109.937 44.8628 113.728 43.2331 117.625L43.1285 117.879C40.5691 124.091 33.7395 140.666 43.5031 143.625C52.015 146.249 59.865 137.073 65.4983 130.489C66.5427 129.268 67.511 128.136 68.3931 127.185L88.9031 105.105C86.8131 113.295 85.0331 121.565 83.6231 129.915L83.5718 130.22L83.4971 130.661C82.2741 137.876 80.5898 147.813 88.2231 152.055C95.8631 156.305 104.543 149.815 110.303 145.275C115.796 140.91 120.905 136.082 125.573 130.845C124.252 139.193 123.753 147.65 124.083 156.095C124.403 163.555 124.933 173.325 131.683 178.095C138.433 182.865 147.223 179.215 151.493 172.855C154.746 168.027 155.514 162.409 156.281 156.794C156.351 156.281 156.421 155.768 156.493 155.255C156.583 156.255 156.663 157.255 156.743 158.255C156.794 158.871 156.83 159.515 156.867 160.175L156.867 160.176L156.867 160.177L156.867 160.178C157.051 163.444 157.257 167.104 159.303 169.615C163.243 174.475 167.893 171.935 170.823 167.965C173.667 177.119 177.591 185.9 182.513 194.125C191.233 208.845 202.513 222.235 214.793 234.125C226.78 246.014 242.293 253.704 259.013 256.045C268.33 257.34 277.762 257.581 287.133 256.765C297.303 255.945 308.333 254.765 317.983 251.215C319.192 252.371 320.535 253.379 321.983 254.215C328.193 257.775 336.183 257.965 342.073 253.665C347.963 249.365 350.453 242.255 351.073 235.295C351.073 234.956 351.104 234.613 351.134 234.27C351.146 234.139 351.157 234.008 351.167 233.877C351.173 233.796 351.179 233.716 351.183 233.635C375.363 221.385 388.933 196.635 391.713 170.255C392.551 162.639 392.869 154.975 392.663 147.315C394.732 151.034 397.131 154.558 399.833 157.845C404.053 162.845 412.683 171.575 419.953 168.415C426.713 165.485 429.043 156.985 429.443 150.315C429.692 143.607 429.378 136.89 428.503 130.235C431.503 134.795 434.743 139.235 438.193 143.485C442.133 148.345 448.733 155.745 455.843 152.575C462.663 149.575 461.343 140.265 460.463 134.345C459.657 129.218 458.402 124.172 456.713 119.265C461.178 123.846 465.982 128.085 471.083 131.945C478.033 137.205 488.763 145.135 497.683 139.555C505.413 134.705 504.033 124.165 502.243 116.605C500.514 109.346 497.792 102.36 494.153 95.8452C501.833 100.215 509.833 104.055 518.503 105.945C524.336 107.281 530.362 107.559 536.293 106.765C540.743 106.135 547.563 104.955 550.073 100.645C552.443 96.5752 549.863 92.0952 547.003 89.0952C542.843 84.7152 537.483 81.0152 532.483 77.6652C529.263 75.5152 525.943 73.5552 522.543 71.7352C530.103 73.1652 537.683 74.2852 545.403 73.9352C551.736 73.7646 557.981 72.4079 563.813 69.9352C568.303 67.9352 574.733 64.4952 576.323 59.4852C578.163 53.6252 572.483 49.6052 568.363 46.7452ZM170.753 113.065C166.683 123.815 165.893 136.265 166.753 147.065C167.116 151.473 167.784 155.85 168.753 160.165C168.56 160.436 168.42 160.742 168.343 161.065C168.102 162.248 167.677 163.385 167.083 164.435C166.133 166.025 164.253 166.995 162.783 165.015C161.991 163.944 161.979 161.313 161.97 159.272V159.272C161.966 158.531 161.963 157.867 161.923 157.385C161.483 151.878 161.036 146.375 160.583 140.875C160.373 138.385 157.053 137.135 155.663 139.545C152.813 144.518 151.992 149.895 151.158 155.351L151.158 155.352L151.158 155.352L151.158 155.352C150.857 157.324 150.554 159.307 150.153 161.285C149.313 165.285 147.973 169.545 144.753 172.285C141.333 175.285 136.343 175.885 133.273 172.155C129.07 167.037 129.21 158.473 129.318 151.913L129.318 151.911C129.328 151.307 129.337 150.721 129.343 150.155C129.428 140.618 130.592 131.121 132.813 121.845C133.553 118.685 129.673 117.405 127.873 119.755C122.884 126.288 117.245 132.299 111.043 137.695C110.72 137.975 110.354 138.301 109.949 138.659L109.949 138.66L109.946 138.662C105.128 142.937 94.959 151.958 89.5631 146.405C87.0107 143.774 87.643 139.097 88.093 135.768L88.1231 135.545C88.7054 131.143 89.5799 126.761 90.4486 122.408L90.4487 122.408L90.4831 122.235C92.2531 113.395 94.4231 104.645 96.9331 95.9852C97.6731 93.4552 94.2831 91.3752 92.4331 93.3652L70.9831 116.475C67.5165 120.235 64.0398 123.988 60.5531 127.735C59.9522 128.383 59.3505 129.059 58.7411 129.744C56.1258 132.683 53.3681 135.781 49.9131 137.525C46.7531 139.105 43.6531 138.445 44.1131 134.395C44.411 132.069 44.8857 129.769 45.5331 127.515C46.812 122.931 48.5369 118.483 50.6831 114.235C54.9831 105.615 60.5031 97.6852 66.0131 89.8152C67.8031 87.2652 63.9231 84.4752 61.7931 86.5552L61.6475 86.6979L61.6473 86.6981L61.6473 86.6981L61.6472 86.6981C54.1958 94.0006 46.7397 101.308 38.5531 107.815C34.3596 111.179 29.9391 114.25 25.3231 117.005C24.9859 117.205 24.6451 117.411 24.3007 117.62L24.2997 117.62C22.4178 118.761 20.4276 119.967 18.3231 120.465C18.3055 120.469 18.2871 120.474 18.2679 120.479C18.2334 120.487 18.1965 120.496 18.1576 120.506L18.1545 120.507L18.1522 120.507C17.5003 120.67 16.2696 120.976 15.7131 120.675C14.2506 119.821 15.1646 117.144 15.6367 115.761C15.6843 115.621 15.7274 115.495 15.7631 115.385C18.722 106.364 25.4405 98.8325 31.7343 91.7769L31.7367 91.7741C32.419 91.0093 33.0962 90.2501 33.7631 89.4952C41.3565 80.9685 49.2665 72.7518 57.4931 64.8452C59.7031 62.7152 56.8231 58.8452 54.1731 60.5452C45.1298 66.4088 35.586 71.4618 25.6531 75.6452C25.3225 75.7822 24.9903 75.9207 24.6565 76.0598C20.4373 77.8185 15.9725 79.6796 11.4131 80.1152C10.0078 80.3512 8.56805 80.2796 7.19313 79.9052C6.94944 79.8074 6.74589 79.7325 6.57866 79.671C6.18402 79.5258 5.99156 79.455 5.95083 79.3334C5.91205 79.2177 6.01076 79.0558 6.20345 78.7399C6.328 78.5358 6.49181 78.2672 6.68313 77.9052C8.02159 75.6595 9.57559 73.5495 11.3231 71.6052C23.3231 56.7052 39.0431 45.4252 55.1631 35.3952C61.8906 31.2189 68.7304 27.2275 75.5751 23.2332L75.5771 23.232C77.156 22.3106 78.7351 21.3891 80.3131 20.4652C81.1165 19.9951 81.9176 19.5207 82.7188 19.0462L82.719 19.0461L82.7191 19.046C84.3212 18.0972 85.9233 17.1484 87.5431 16.2352C87.7662 16.1109 88.0593 15.9198 88.3824 15.7091C89.2036 15.1736 90.2177 14.5123 90.7631 14.5052C92.4577 14.5052 93.018 16.106 93.4659 17.3857C93.5466 17.6164 93.6237 17.8366 93.7031 18.0352C95.3695 22.1119 97.5433 25.9623 100.173 29.4952C105.513 36.7052 112.243 42.6652 119.293 48.1452C127.101 54.3069 135.35 59.8885 143.973 64.8452C160.113 73.9852 178.613 79.8452 197.073 77.8452C184.643 86.7752 174.493 98.6552 170.753 113.065ZM344.39 210.047C344.324 208.86 344.258 207.673 344.193 206.485C344.033 203.585 348.353 202.435 349.733 204.995C351.683 208.745 355.203 205.015 355.203 202.235C355.173 199.025 352.813 196.535 350.463 194.655C345.886 191.169 340.745 188.493 335.263 186.745C324.003 182.915 312.053 182.035 300.263 181.915C287.033 181.761 273.806 182.449 260.663 183.975C250.526 185.16 240.589 187.154 230.627 189.153L230.625 189.154L230.624 189.154C227.389 189.803 224.151 190.453 220.903 191.075C223.783 195.098 227.026 198.847 230.593 202.275C237.221 208.677 245.071 213.68 253.673 216.985C261.76 220.027 269.615 220.517 278.047 221.042C278.54 221.073 279.036 221.104 279.533 221.135C280.113 219.105 282.583 217.705 284.193 219.765C286.653 222.925 290.113 224.665 294.193 223.925C295.07 223.714 295.996 223.909 296.713 224.456C297.431 225.003 297.864 225.844 297.893 226.745C297.853 234.475 305.603 237.855 311.603 233.475C313.113 232.375 315.533 233.515 315.923 235.235C317.303 241.305 320.403 247.275 326.403 249.855C332.166 252.554 339.034 250.379 342.193 244.855C345.723 239.125 345.473 232.015 345.193 225.635C344.965 220.443 344.678 215.251 344.39 210.053L344.39 210.047ZM386.473 157.095C385.983 172.345 383.963 187.615 376.313 201.095C370.223 211.595 361.636 220.43 351.313 226.815C351.236 222.713 350.927 218.582 350.62 214.491C350.567 213.784 350.515 213.079 350.463 212.375C355.213 212.945 360.553 208.975 361.063 203.445C361.873 194.715 353.863 188.835 346.353 185.065C346.724 184.809 347.026 184.466 347.233 184.065C352.209 174.79 355.25 164.601 356.173 154.115C356.157 152.52 354.868 151.231 353.273 151.215C328.42 151.308 303.573 151.412 278.733 151.525C274.688 151.548 270.643 151.567 266.599 151.586C258.507 151.624 250.418 151.662 242.323 151.735C238.904 151.762 235.445 151.724 231.969 151.685H231.969C222.677 151.581 213.266 151.475 204.183 152.625C203.106 152.689 202.247 153.548 202.183 154.625C200.003 159.365 204.633 172.725 205.543 174.955C209.602 184.982 215.378 194.224 222.613 202.265C229.848 210.384 238.751 216.844 248.713 221.205C258.213 225.285 269.913 228.275 280.243 226.145C280.706 226.069 281.133 225.848 281.463 225.515C284.367 228.367 288.284 229.949 292.353 229.915C293.137 234.022 295.703 237.57 299.359 239.6C303.015 241.629 307.383 241.932 311.283 240.425C312.078 242.799 313.173 245.06 314.543 247.155C311.684 247.592 308.838 248.115 305.991 248.638L305.991 248.638C301.48 249.466 296.967 250.295 292.393 250.785C284.427 251.7 276.398 251.928 268.393 251.465C251.893 250.465 236.023 245.325 223.393 234.365C199.963 213.995 178.653 185.475 173.393 154.305C171.977 146.085 171.799 137.699 172.863 129.425C173.009 129.14 173.084 128.825 173.083 128.505V127.555C173.078 127.459 173.078 127.362 173.083 127.265C174.341 119.531 177.062 112.549 179.857 105.377C180.239 104.397 180.622 103.414 181.003 102.425C181.089 102.195 181.123 101.95 181.103 101.705C189.213 88.8352 202.483 78.9752 216.553 73.0252C228.883 67.8152 242.043 64.8552 255.133 62.2652C256.024 62.0896 256.915 61.9126 257.807 61.7354C271.244 59.0673 284.886 56.3586 298.633 57.7652C322.585 60.2849 344.934 70.9946 361.903 88.0852C369.846 96.0561 376.142 105.513 380.433 115.915C385.713 128.985 386.903 143.125 386.473 157.095ZM515.845 65.0246C534.224 68.7433 554.391 72.8239 568.903 60.3152C572.983 56.7652 569.273 54.1252 566.193 51.9752C563.733 50.2352 561.183 48.6152 558.583 47.0952C553.375 44.0266 547.911 41.4136 542.253 39.2852C530.698 34.941 518.486 32.6008 506.143 32.3652C504.791 32.3145 503.672 31.2982 503.492 29.9575C503.312 28.6168 504.123 27.341 505.413 26.9352C515.646 23.9029 526.206 24.2527 536.747 24.6018C537.712 24.6338 538.678 24.6658 539.643 24.6952C545.591 25.034 551.558 24.8466 557.473 24.1352C560.371 23.7037 563.223 23.0074 565.993 22.0552C566.425 21.9082 566.817 21.8177 567.149 21.7412C568.262 21.4845 568.689 21.386 567.603 19.8452C566.755 18.9633 565.704 18.301 564.543 17.9152C560.942 16.3464 556.881 15.7153 552.914 15.0987C551.748 14.9174 550.589 14.7374 549.453 14.5352C543.846 13.5285 538.233 12.5685 532.613 11.6552C520.843 9.75516 509.023 7.98516 497.143 6.85516C485.673 5.77516 474.083 5.31516 462.613 6.59516C461.928 6.6721 461.208 6.74037 460.468 6.81067C455.047 7.32514 448.479 7.9484 445.743 12.8752C444.614 14.8997 443.779 17.1195 442.946 19.334C442.356 20.9041 441.766 22.4716 441.073 23.9652C433.528 39.8617 422.172 53.6471 408.013 64.0952C395.943 73.0952 380.303 81.1352 364.763 82.3452C367.653 85.1808 370.371 88.1861 372.903 91.3452C380.516 100.75 386.109 111.623 389.333 123.285C390.161 126.396 390.828 129.546 391.333 132.725C394.283 138.935 397.333 145.275 401.333 150.935C404.163 154.895 413.923 166.825 419.163 162.575C424.403 158.325 424.343 150.085 424.033 143.975C423.727 138.113 423.171 132.255 422.615 126.403C422.37 123.829 422.126 121.257 421.903 118.685C421.623 115.935 425.643 115.095 426.903 117.315C430.277 123.294 434.018 129.058 438.103 134.575C438.426 135.011 438.822 135.576 439.278 136.228C442.433 140.734 448.474 149.363 453.393 147.755C458.738 146.008 454.673 131.623 453.392 127.092C453.324 126.851 453.264 126.637 453.213 126.455C451.241 119.785 448.904 113.229 446.213 106.815C445.223 104.325 449.153 102.005 450.813 104.135C456.375 111.362 462.695 117.973 469.663 123.855C470.12 124.24 470.614 124.663 471.139 125.112C476.855 130.009 486.336 138.131 493.553 135.475C501.789 132.41 497.471 118.843 495.523 112.723L495.403 112.345C492.641 103.85 488.455 95.8867 483.023 88.7952C481.313 86.5352 484.573 83.6952 486.773 85.0452L487.432 85.4477C495.878 90.6091 504.449 95.8463 513.903 98.9652C518.905 100.673 524.139 101.601 529.423 101.715C533.703 101.785 540.883 101.625 544.373 98.7152C549.603 94.3552 527.753 80.9352 524.113 78.7852C515.938 73.9647 507.208 70.1567 498.113 67.4452C495.293 66.5852 495.703 61.7752 498.843 62.1052C504.157 62.6595 509.908 63.8231 515.845 65.0246Z" fill="#231F20"/>
<path fill-rule="evenodd" clip-rule="evenodd" d="M203.464 110.605C205.038 110.282 206.674 110.471 208.134 111.145C212.954 113.435 213.904 120.505 210.174 124.205C206.204 128.145 199.004 126.205 197.004 121.205C195.174 116.605 198.724 110.975 203.464 110.605ZM201.814 119.145C202.454 120.755 205.304 121.655 206.454 120.145V120.165C207.324 119.015 207.034 116.595 205.524 116.085C203.574 115.465 202.494 117.465 201.744 118.915C201.756 118.995 201.78 119.072 201.814 119.145Z" fill="#231F20"/>
<path fill-rule="evenodd" clip-rule="evenodd" d="M346.564 103.905C346.891 103.824 347.226 103.777 347.564 103.765C350.96 103.275 354.361 104.627 356.494 107.315C360.304 112.365 356.184 118.175 350.964 119.805C344.574 121.795 340.374 116.255 341.124 110.255C340.479 109.974 340.013 109.395 339.876 108.705C339.738 108.016 339.946 107.302 340.434 106.795C342.186 105.307 344.301 104.31 346.564 103.905ZM346.544 112.985C347.284 115.605 349.884 114.795 351.474 113.235C353.564 111.185 351.004 109.465 348.914 109.375C348.179 109.358 347.444 109.422 346.724 109.565C346.341 110.665 346.279 111.851 346.544 112.985Z" fill="#231F20"/>
<path d="M97.9726 78.8453C95.5626 79.4153 93.2126 79.8453 91.1326 78.1253C88.7526 76.1253 88.5526 72.8753 89.6926 70.1753C90.4326 68.3953 92.9226 66.3353 91.1526 64.3753C90.6887 63.8891 90.054 63.6022 89.3826 63.5753C88.7426 63.4653 87.9226 63.8653 87.3826 63.7153L83.3826 60.2953L83.1026 57.7153C83.1026 52.7153 85.9226 48.9653 86.7926 44.3053C86.8189 44.1868 86.7737 44.0638 86.6769 43.9906C86.58 43.9175 86.4494 43.9075 86.3426 43.9653C82.0626 46.7453 80.3426 54.3153 80.7626 59.1853C80.8727 61.3714 81.8738 63.417 83.5326 64.8453C84.8626 65.8953 88.3726 65.8453 88.6126 66.9553C88.6726 67.2253 87.0026 69.8053 86.8226 70.4153C86.5692 71.2874 86.4247 72.1876 86.3926 73.0953C86.2896 75.3926 87.0819 77.6403 88.6026 79.3653C91.1526 82.1053 96.0926 83.2953 98.9626 80.5153C99.2901 80.1927 99.3555 79.6883 99.1211 79.2929C98.8867 78.8974 98.4128 78.7127 97.9726 78.8453Z" fill="#231F20"/>
<path d="M160.903 110.285C157.343 113.199 155.186 113.002 154.433 109.695C154.269 109.16 153.808 108.769 153.252 108.696C152.697 108.622 152.15 108.88 151.853 109.355C151.213 110.255 149.793 112.355 148.613 112.555L143.303 110.455C142.876 109.748 142.511 109.005 142.213 108.235C141.32 106.142 140.679 103.95 140.303 101.705C140.166 101.228 139.788 100.858 139.309 100.731C138.829 100.604 138.318 100.739 137.963 101.085C135.463 103.765 132.313 107.365 128.213 106.985C122.773 106.495 123.313 100.185 123.543 96.2352C123.973 88.7752 126.933 82.9952 129.483 76.1652C129.683 75.6152 128.903 75.2152 128.483 75.6152C122.273 82.0252 118.693 95.9752 121.313 104.615C122.317 107.843 125.388 109.974 128.763 109.785C132.533 109.785 135.503 107.515 138.073 104.975C138.983 108.845 140.643 113.395 144.023 115.165C147.403 116.935 150.383 115.165 152.663 112.725C155.263 116.635 161.183 116.255 163.253 111.315C163.903 109.905 161.663 109.025 160.903 110.285Z" fill="#231F20"/>
<path d="M436.234 86.1051C437.428 88.67 438.256 91.3899 438.694 94.1851C439.174 98.3451 436.594 100.555 432.874 101.535C429.154 102.515 427.154 102.005 423.804 100.485C422.634 99.9451 421.804 99.2751 420.444 99.6851C419.444 99.9951 419.164 100.535 418.574 101.325C416.814 103.725 415.394 105.395 412.274 106.025C405.624 107.345 400.914 101.705 398.634 96.2251C398.562 95.949 398.28 95.7833 398.004 95.8551C397.728 95.9269 397.562 96.209 397.634 96.4851C398.634 102.075 402.634 107.195 408.374 108.325C410.692 108.772 413.091 108.518 415.264 107.595C417.344 106.735 420.484 102.195 422.474 102.675C423.684 102.955 424.794 104.155 426.104 104.495C427.592 104.82 429.127 104.87 430.634 104.645C433.394 104.315 436.874 103.495 439.044 101.645C443.624 97.6451 440.894 89.5751 438.404 85.1951C437.794 84.0151 435.694 84.8451 436.234 86.1051Z" fill="#231F20"/>
<path d="M459.383 35.8452C463.913 35.7852 468.463 34.4652 469.533 29.4252C470.663 24.1452 465.283 15.1352 459.533 15.0852C458.838 15.096 458.279 15.6599 458.273 16.3552L458.423 18.0552C458.523 19.0552 460.123 19.4952 460.423 18.3152C460.423 18.1552 460.493 17.9952 460.523 17.8452C463.823 19.0352 467.683 25.0052 467.153 27.8452C466.503 31.2852 463.573 33.1852 460.353 33.4252C458.479 33.4805 456.605 33.3296 454.763 32.9752C453.453 32.7852 452.383 34.5752 453.763 35.3152C457.113 37.0952 460.703 39.3152 462.223 42.9752C464.943 49.4552 458.493 55.3452 452.153 52.3652C451.153 51.8952 449.623 52.9652 450.433 54.0852C454.203 59.3152 451.033 65.9052 445.073 67.4352C439.633 68.8252 434.403 65.8752 430.873 61.8952C430.443 61.4052 429.573 62.0652 429.963 62.6052C434.153 68.3352 441.153 71.9752 448.133 68.8052C453.239 66.5561 455.775 60.7751 453.973 55.4952C458.973 56.2952 463.973 53.6652 465.233 48.1852C466.453 42.9852 463.313 38.8452 459.383 35.8452Z" fill="#231F20"/>
<path d="M483.684 40.3852C483.307 40.3051 482.918 40.4484 482.683 40.7536C482.448 41.0588 482.41 41.4717 482.584 41.8152C484.034 43.7652 485.784 45.2652 486.774 47.5452C487.624 49.5452 489.374 61.2252 482.774 57.9552C482.241 57.6618 481.574 57.8015 481.204 58.284C480.834 58.7665 480.872 59.447 481.294 59.8852C484.124 63.3252 481.214 67.7352 477.824 69.0952C474.434 70.4552 470.824 69.7852 467.344 69.0952C467.029 69.0096 466.704 69.1954 466.619 69.5102C466.533 69.825 466.719 70.1496 467.034 70.2352C471.944 72.0852 478.464 73.0152 482.414 68.7152C484.476 66.6052 485.24 63.5473 484.414 60.7152C487.664 60.5952 489.884 57.2252 490.254 53.6152C490.794 48.7752 488.514 42.3452 483.684 40.3852Z" fill="#231F20"/>
<path d="M348.973 91.4252C340.973 79.1252 324.553 72.4252 310.643 70.1252C310.073 70.0252 309.813 70.8652 310.393 71.0052C317.69 72.8226 324.681 75.6998 331.143 79.5452C337.303 83.1852 342.343 88.1052 348.003 92.3952C348.573 92.8452 349.333 91.9952 348.973 91.4252Z" fill="#231F20"/>
<path d="M367.973 111.765C370.133 116.185 372.613 120.305 374.193 124.995C375.495 129.261 376.533 133.602 377.303 137.995C377.453 138.695 378.453 138.495 378.493 137.835C378.993 128.725 375.173 117.775 368.593 111.305C368.451 111.194 368.252 111.191 368.107 111.298C367.962 111.406 367.907 111.597 367.973 111.765Z" fill="#231F20"/>
<path d="M186.553 148.345C186.515 148.072 186.283 147.869 186.008 147.869C185.732 147.869 185.5 148.072 185.463 148.345C184.773 157.895 186.813 167.965 189.913 176.945C192.913 185.615 197.053 194.445 203.473 201.125C203.68 201.401 204.071 201.457 204.348 201.25C204.624 201.043 204.68 200.651 204.473 200.375C199.923 192.235 195.073 184.495 191.993 175.615C188.913 166.735 187.633 157.695 186.553 148.345Z" fill="#231F20"/>
<path d="M219.233 217.845C219.489 217.895 219.749 217.78 219.884 217.556C220.018 217.332 219.998 217.048 219.833 216.845C218.687 215.768 217.43 214.816 216.083 214.005C214.713 213.005 213.383 212.005 212.083 211.005C211.583 210.625 211.083 211.415 211.443 211.835C213.433 214.035 216.243 216.965 219.233 217.845Z" fill="#231F20"/>
</svg>
