<svg width="577" height="257" viewBox="0 0 577 257" fill="none" xmlns="http://www.w3.org/2000/svg">
<path fill-rule="evenodd" clip-rule="evenodd" d="M197.074 77.6733C178.614 79.5833 160.074 73.7633 143.974 64.6733C135.347 59.6781 127.098 54.0563 119.294 47.8533C112.294 42.3733 105.514 36.4133 100.174 29.2033C97.5442 25.6704 95.3704 21.82 93.704 17.7433C93.6214 17.5369 93.5422 17.3065 93.4591 17.0651C93.0188 15.786 92.4717 14.1964 90.764 14.2133C90.2189 14.2133 89.2058 14.8768 88.3849 15.4144L88.3847 15.4145C88.0611 15.6265 87.7674 15.8189 87.544 15.9433C85.9242 16.8565 84.3221 17.8053 82.7201 18.7541L82.7197 18.7543C81.9185 19.2288 81.1174 19.7032 80.314 20.1733C79.0131 20.9334 77.7116 21.6923 76.41 22.4512L76.4077 22.4526C69.2855 26.6054 62.164 30.7578 55.164 35.1033C39.044 45.1033 23.314 56.4133 11.324 71.3133C9.57645 73.2576 8.02245 75.3676 6.68399 77.6133C6.49186 77.9872 6.32747 78.2647 6.20273 78.4752C6.00924 78.8018 5.91114 78.9674 5.95284 79.0822C5.99573 79.2003 6.18651 79.2647 6.57351 79.3953C6.74187 79.4521 6.94738 79.5215 7.19399 79.6133C8.56891 79.9877 10.0087 80.0593 11.414 79.8233C15.9143 79.4208 20.3226 77.5792 24.4935 75.8369L24.4935 75.8369L24.4943 75.8365C24.883 75.6742 25.2696 75.5127 25.654 75.3533C35.5869 71.1699 45.1307 66.1169 54.174 60.2533C56.824 58.5433 59.704 62.4233 57.494 64.5533C49.2873 72.4933 41.384 80.7233 33.784 89.2433C33.1323 89.9777 32.4712 90.716 31.8054 91.4595C25.473 98.5309 18.7248 106.067 15.784 115.133C15.7483 115.243 15.7052 115.369 15.6577 115.509L15.6576 115.509C15.1855 116.892 14.2715 119.569 15.734 120.423C16.2429 120.718 17.4375 120.431 18.1218 120.266L18.1232 120.266C18.2047 120.246 18.279 120.228 18.344 120.213C20.4693 119.712 22.4717 118.495 24.3575 117.349C24.6899 117.146 25.0188 116.947 25.344 116.753C29.9522 114.007 34.366 110.946 38.554 107.593C46.774 101.043 54.294 93.6833 61.794 86.3333C63.924 84.2533 67.794 87.0433 66.014 89.5933C60.504 97.4633 55.014 105.393 50.684 114.013C48.5377 118.261 46.8128 122.709 45.534 127.293C44.8866 129.547 44.4119 131.847 44.114 134.173C43.654 138.223 46.754 138.883 49.914 137.303C53.369 135.56 56.1267 132.461 58.742 129.522L58.7427 129.521C59.3518 128.837 59.9533 128.161 60.554 127.513C64.034 123.767 67.5107 120.013 70.984 116.253L92.434 93.1133C94.284 91.1133 97.674 93.2033 96.934 95.7333C94.424 104.393 92.254 113.143 90.484 121.983L90.4495 122.156L90.4495 122.156C89.5808 126.509 88.7063 130.892 88.124 135.293L88.0939 135.516C87.6439 138.845 87.0116 143.523 89.564 146.153C94.9653 151.693 105.149 142.664 109.962 138.397C110.361 138.043 110.724 137.721 111.044 137.443C117.258 132.039 122.907 126.019 127.904 119.473C129.704 117.123 133.584 118.403 132.844 121.563C130.629 130.873 129.479 140.404 129.414 149.973C129.414 150.699 129.406 151.46 129.398 152.247C129.333 158.749 129.249 167.004 133.344 171.973C136.414 175.703 141.404 175.073 144.824 172.103C148.044 169.323 149.384 165.103 150.224 161.103C150.656 159.042 150.973 156.972 151.289 154.915V154.914C152.115 149.536 152.928 144.238 155.734 139.363C157.124 136.953 160.444 138.203 160.654 140.693C161.101 146.193 161.547 151.697 161.994 157.203C162.034 157.686 162.037 158.349 162.04 159.09V159.091C162.05 161.131 162.062 163.762 162.854 164.833C164.324 166.833 166.204 165.833 167.154 164.253C167.748 163.203 168.173 162.066 168.414 160.883C168.491 160.56 168.631 160.254 168.824 159.983C167.855 155.668 167.187 151.291 166.824 146.883C165.934 136.033 166.724 123.583 170.824 112.883C174.494 98.4033 184.644 86.5233 197.074 77.6733ZM98.964 80.2633C96.094 83.0433 91.154 81.8533 88.604 79.1133C87.0833 77.3883 86.291 75.1406 86.394 72.8433C86.4261 71.9356 86.5706 71.0354 86.824 70.1633C86.9087 69.8762 87.3234 69.1529 87.7324 68.4394C88.1926 67.6366 88.6458 66.8462 88.614 66.7033C88.4824 66.0727 87.3675 65.8149 86.168 65.5376C85.1801 65.3092 84.1347 65.0675 83.534 64.5933C81.8604 63.1615 80.8511 61.1031 80.744 58.9033C80.284 54.0333 82.044 46.4633 86.324 43.6833C86.4308 43.6256 86.5614 43.6355 86.6583 43.7086C86.7551 43.7818 86.8003 43.9048 86.774 44.0233C86.418 45.9302 85.7287 47.6865 85.0413 49.438L85.0413 49.4381C84.0489 51.9666 83.0604 54.4853 83.084 57.4333L83.364 60.0133L87.364 63.4333C87.6648 63.5111 88.0301 63.4409 88.3959 63.3707C88.7353 63.3055 89.0752 63.2403 89.364 63.2933C90.0354 63.3202 90.6701 63.6071 91.134 64.0933C92.4167 65.5427 91.4621 66.9921 90.5577 68.3654C90.2141 68.887 89.8777 69.3977 89.674 69.8933C88.534 72.5933 88.734 75.8933 91.114 77.8433C93.194 79.5833 95.544 79.1333 97.954 78.5633C98.4121 78.3773 98.9373 78.554 99.1898 78.9791C99.4423 79.4041 99.3464 79.9499 98.964 80.2633ZM152.734 112.453C155.324 116.363 161.254 115.983 163.324 111.043C163.904 109.653 161.664 108.773 160.974 110.013C157.414 112.953 155.257 112.757 154.504 109.423C154.34 108.888 153.879 108.497 153.323 108.424C152.768 108.35 152.221 108.608 151.924 109.083C151.896 109.123 151.866 109.165 151.835 109.209C151.159 110.163 149.812 112.063 148.684 112.283L143.374 110.183C142.947 109.476 142.582 108.733 142.284 107.963C141.391 105.87 140.75 103.678 140.374 101.433C140.237 100.956 139.86 100.587 139.38 100.459C138.9 100.332 138.389 100.467 138.034 100.813C137.928 100.927 137.821 101.041 137.713 101.158C135.266 103.791 132.211 107.077 128.284 106.713C123.003 106.238 123.358 100.277 123.593 96.3155C123.6 96.1962 123.607 96.0787 123.614 95.9633C123.956 90.0374 125.894 85.1716 127.954 79.9975C128.488 78.658 129.03 77.2978 129.554 75.8933C129.714 75.3433 128.934 74.9433 128.554 75.3433C122.384 81.7733 118.764 95.7233 121.384 104.343C122.388 107.571 125.459 109.702 128.834 109.513C132.604 109.493 135.574 107.243 138.144 104.703C139.094 108.573 140.754 113.143 144.094 114.893C147.434 116.643 150.454 114.873 152.734 112.453Z" fill="white"/>
<path d="M355.154 201.983C355.154 198.773 352.764 196.283 350.414 194.403C345.836 190.917 340.695 188.242 335.214 186.493C323.974 182.663 312.024 181.783 300.214 181.663C286.983 181.509 273.756 182.197 260.614 183.723C247.184 185.293 234.104 188.283 220.854 190.823C223.744 194.833 226.998 198.569 230.574 201.983C237.202 208.386 245.051 213.388 253.654 216.693C262.214 219.913 270.524 220.273 279.514 220.843C280.094 218.843 282.564 217.413 284.174 219.473C286.644 222.653 290.104 224.373 294.174 223.633C295.051 223.422 295.976 223.617 296.694 224.164C297.411 224.711 297.844 225.552 297.874 226.453C297.874 234.133 305.614 237.563 311.584 233.183C313.094 232.083 315.514 233.183 315.904 234.943C317.284 241.013 320.394 246.943 326.384 249.563C332.146 252.262 339.015 250.087 342.174 244.563C345.704 238.833 345.464 231.823 345.174 225.343C344.884 218.863 344.514 212.583 344.174 206.193C344.014 203.293 348.334 202.143 349.664 204.703C351.634 208.493 355.184 204.763 355.154 201.983Z" fill="#BE1E2D"/>
<path d="M205.522 115.863C203.522 115.243 202.522 117.243 201.742 118.693C201.755 118.773 201.778 118.85 201.812 118.923C202.432 120.523 205.302 121.423 206.452 119.923C207.322 118.763 207.032 116.343 205.522 115.863Z" fill="white"/>
<path d="M348.902 109.123C348.168 109.106 347.433 109.17 346.712 109.313C346.33 110.413 346.267 111.599 346.532 112.733C347.272 115.353 349.872 114.543 351.462 112.983C353.562 110.933 351.002 109.213 348.902 109.123Z" fill="white"/>
<path fill-rule="evenodd" clip-rule="evenodd" d="M361.903 87.8333C344.959 70.72 322.629 59.9787 298.683 57.4233C284.813 56.0515 271.051 58.779 257.498 61.4651L257.498 61.4652L257.498 61.4653L257.497 61.4653L257.497 61.4654L257.497 61.4654C256.725 61.6185 255.953 61.7713 255.183 61.9233C242.093 64.5133 228.933 67.4733 216.603 72.6833C202.533 78.6833 189.263 88.4933 181.153 101.363C181.172 101.608 181.138 101.853 181.053 102.083C180.672 103.072 180.289 104.055 179.907 105.035L179.907 105.035C177.112 112.207 174.391 119.19 173.133 126.923C173.127 127.02 173.127 127.117 173.133 127.213V128.163C173.134 128.483 173.059 128.799 172.913 129.083C171.848 137.357 172.027 145.743 173.443 153.963C178.713 185.133 200.023 213.653 223.443 234.023C236.053 245.023 251.923 250.073 268.443 251.123C276.447 251.586 284.477 251.358 292.443 250.443C297.016 249.953 301.53 249.124 306.041 248.296C308.888 247.773 311.733 247.251 314.593 246.813C313.223 244.719 312.127 242.457 311.333 240.083C307.429 241.608 303.05 241.317 299.382 239.29C295.714 237.263 293.138 233.71 292.353 229.593C288.283 229.627 284.366 228.045 281.463 225.193C281.132 225.526 280.705 225.747 280.243 225.823C269.913 227.953 258.243 224.963 248.713 220.883C238.751 216.523 229.848 210.062 222.613 201.943C215.374 193.89 209.597 184.634 205.543 174.593C204.633 172.363 200.003 159.003 202.183 154.263C202.247 153.186 203.106 152.327 204.183 152.263C213.265 151.113 222.676 151.219 231.968 151.323H231.968C235.444 151.362 238.903 151.401 242.323 151.373C250.418 151.3 258.508 151.262 266.6 151.224L266.605 151.224L266.609 151.224L266.614 151.224L266.618 151.224L266.623 151.224C270.659 151.205 274.695 151.187 278.733 151.163C303.573 151.037 328.419 150.933 353.273 150.853C354.868 150.87 356.156 152.158 356.173 153.753C355.25 164.239 352.209 174.428 347.233 183.703C347.026 184.104 346.724 184.447 346.353 184.703C353.903 188.593 361.903 194.423 361.063 203.153C360.553 208.683 355.213 212.653 350.463 212.083C350.514 212.781 350.566 213.48 350.619 214.181L350.62 214.2C350.926 218.291 351.236 222.422 351.313 226.523C361.636 220.138 370.223 211.303 376.313 200.803C383.963 187.363 385.983 172.093 386.473 156.803C386.923 142.803 385.713 128.693 380.473 115.623C376.165 105.232 369.856 95.7889 361.903 87.8333ZM212.063 210.703C213.383 211.703 214.713 212.703 216.063 213.703C217.41 214.514 218.667 215.466 219.813 216.543C219.978 216.746 219.998 217.03 219.864 217.254C219.729 217.478 219.469 217.594 219.213 217.543C216.213 216.683 213.413 213.753 211.403 211.543C211.043 211.113 211.563 210.323 212.063 210.703ZM204.318 200.998C204.594 200.791 204.65 200.399 204.443 200.123C203.592 198.598 202.73 197.088 201.871 195.583C198.146 189.057 194.472 182.62 191.953 175.363C188.853 166.433 187.623 157.443 186.543 148.093C186.506 147.821 186.273 147.617 185.998 147.617C185.722 147.617 185.49 147.821 185.453 148.093C184.763 157.643 186.803 167.693 189.903 176.693C192.903 185.363 197.053 194.193 203.443 200.873C203.65 201.149 204.042 201.205 204.318 200.998ZM210.173 123.953C206.173 127.893 199.013 125.953 197.003 120.953C195.173 116.373 198.723 110.723 203.463 110.353C205.037 110.03 206.674 110.22 208.133 110.893C212.953 113.183 213.903 120.253 210.173 123.953ZM310.643 69.8733C310.073 69.7533 309.813 70.6133 310.393 70.7533C317.681 72.5829 324.662 75.4702 331.113 79.3233C335.171 81.7213 338.743 84.6747 342.326 87.6376C344.182 89.1723 346.041 90.7095 347.973 92.1733C348.573 92.5733 349.333 91.7433 348.973 91.1733C340.973 78.8733 324.553 72.1333 310.643 69.8733ZM350.963 119.593C344.573 121.593 340.373 116.063 341.123 110.043C340.478 109.762 340.012 109.183 339.874 108.493C339.737 107.804 339.945 107.09 340.433 106.583C342.185 105.095 344.3 104.098 346.563 103.693C346.89 103.612 347.225 103.566 347.563 103.553C350.959 103.063 354.36 104.415 356.493 107.103C360.303 112.113 356.183 117.923 350.963 119.593ZM377.303 137.753C377.493 138.453 378.493 138.253 378.493 137.593C378.993 128.453 375.173 117.503 368.593 111.043C368.449 110.919 368.237 110.913 368.086 111.03C367.936 111.146 367.888 111.353 367.973 111.523C368.587 112.781 369.228 114.015 369.866 115.244C371.471 118.335 373.062 121.398 374.193 124.753C375.495 129.019 376.533 133.36 377.303 137.753Z" fill="#FFF200"/>
<path fill-rule="evenodd" clip-rule="evenodd" d="M558.583 46.8032C561.193 48.3232 563.733 49.9432 566.193 51.6832C569.273 53.8732 572.983 56.5132 568.833 60.1232C554.322 72.632 534.155 68.5514 515.776 64.8326C509.838 63.6312 504.087 62.4675 498.773 61.9132C495.633 61.5832 495.223 66.3932 498.043 67.2532C507.138 69.9648 515.869 73.7728 524.043 78.5932C527.683 80.7432 549.533 94.1632 544.303 98.5232C540.813 101.423 533.633 101.583 529.353 101.523C524.096 101.398 518.889 100.467 513.913 98.7632C504.459 95.6444 495.889 90.4071 487.442 85.2458L486.783 84.8432C484.583 83.4932 481.323 86.3332 483.033 88.5932C488.456 95.6673 492.638 103.61 495.403 112.083L495.517 112.439C497.461 118.55 501.799 132.184 493.553 135.213C486.331 137.868 476.864 129.756 471.148 124.858C470.619 124.405 470.123 123.98 469.663 123.593C462.679 117.72 456.342 111.115 450.763 103.893C449.103 101.763 445.163 104.083 446.163 106.573C448.854 112.987 451.191 119.544 453.163 126.213C453.222 126.425 453.293 126.678 453.375 126.969L453.375 126.971C454.689 131.633 458.68 145.8 453.343 147.513C448.396 149.101 442.391 140.511 439.24 136.003L439.239 136.002C438.779 135.344 438.38 134.773 438.053 134.333C433.982 128.815 430.255 123.051 426.893 117.073C425.673 114.853 421.653 115.693 421.893 118.443C422.116 121.015 422.361 123.587 422.605 126.16L422.605 126.16L422.605 126.16C423.161 132.013 423.718 137.871 424.023 143.733C424.333 149.843 424.543 157.973 419.153 162.333C413.763 166.693 404.133 154.693 401.323 150.693C397.396 145.135 394.432 138.96 391.486 132.821L391.323 132.483C390.819 129.304 390.151 126.154 389.323 123.043C386.105 111.382 380.519 100.51 372.913 91.1032C370.381 87.9442 367.663 84.9388 364.773 82.1032C380.313 80.8532 395.953 72.8532 408.023 63.8532C422.182 53.4052 433.539 39.6198 441.083 23.7232C441.776 22.2298 442.366 20.6623 442.956 19.0922C443.789 16.8776 444.624 14.6578 445.753 12.6332C448.49 7.70649 455.057 7.08322 460.478 6.56876C461.219 6.49846 461.938 6.43019 462.623 6.35325C474.093 5.07325 485.683 5.53325 497.153 6.61325C509.033 7.74325 520.853 9.51325 532.623 11.4132C538.243 12.3266 543.857 13.2866 549.463 14.2932C550.591 14.496 551.746 14.6779 552.912 14.8617L552.912 14.8617C556.867 15.4848 560.955 16.1288 564.553 17.6732C565.706 18.0461 566.752 18.6909 567.603 19.5532C568.671 21.1051 568.258 21.1992 567.156 21.4496C566.824 21.5252 566.429 21.6149 565.993 21.7632C563.223 22.7155 560.371 23.4117 557.473 23.8432C551.558 24.5547 545.592 24.742 539.643 24.4032C538.678 24.3739 537.713 24.3419 536.747 24.3099C526.206 23.9608 515.646 23.611 505.413 26.6432C504.123 27.0491 503.312 28.3249 503.492 29.6656C503.672 31.0063 504.792 32.0226 506.143 32.0732C518.486 32.3088 530.698 34.6491 542.253 38.9932C547.911 41.1217 553.375 43.7347 558.583 46.8032ZM430.683 104.363C433.443 104.063 436.923 103.243 439.093 101.363C443.673 97.3832 440.903 89.2933 438.503 84.8832C437.843 83.7332 435.743 84.5232 436.283 85.8232C437.478 88.3881 438.306 91.108 438.743 93.9033C439.223 98.0632 436.653 100.303 432.923 101.253C429.193 102.203 427.203 101.723 423.853 100.203C423.644 100.107 423.445 100.006 423.251 99.9082C422.361 99.4583 421.586 99.0665 420.493 99.4033C419.623 99.6785 419.289 100.135 418.812 100.787L418.744 100.88C418.705 100.933 418.665 100.988 418.623 101.043C416.863 103.443 415.443 105.113 412.323 105.743C405.683 107.063 400.963 101.423 398.683 95.9433C398.612 95.6671 398.33 95.5014 398.053 95.5732C397.777 95.645 397.612 95.9271 397.683 96.2032C398.673 101.793 402.653 106.913 408.423 108.043C410.742 108.491 413.14 108.236 415.313 107.313C416.156 106.965 417.17 106.013 418.212 105.036C419.743 103.599 421.333 102.108 422.523 102.393C423.127 102.533 423.706 102.902 424.298 103.279C424.891 103.657 425.497 104.043 426.153 104.213C427.642 104.538 429.177 104.589 430.683 104.363ZM465.253 47.9332C463.983 53.4132 458.973 56.0432 453.993 55.2432C455.82 60.535 453.279 66.3426 448.153 68.5932C441.153 71.7632 434.153 68.1232 429.983 62.3932C429.593 61.8532 430.463 61.1932 430.893 61.6832C434.423 65.6832 439.653 68.6132 445.093 67.2232C451.093 65.6932 454.223 59.1032 450.453 53.8732C449.643 52.7532 451.163 51.6832 452.173 52.1532C458.513 55.1532 464.963 49.2432 462.243 42.7632C460.723 39.1232 457.133 36.8832 453.783 35.1032C452.383 34.3632 453.453 32.5732 454.783 32.7632C456.625 33.1177 458.499 33.2686 460.373 33.2132C463.593 32.9732 466.523 31.0732 467.173 27.6332C467.703 24.7932 463.843 18.8232 460.543 17.6332C460.543 17.7273 460.516 17.8252 460.488 17.9246C460.471 17.9838 460.455 18.0435 460.443 18.1032C460.173 19.2832 458.573 18.8832 458.443 17.8432L458.293 16.1432C458.299 15.448 458.858 14.8841 459.553 14.8732C465.273 14.8732 470.653 23.9332 469.553 29.2132C468.483 34.2132 463.933 35.5732 459.403 35.6332C463.313 38.5932 466.453 42.7332 465.253 47.9332ZM484.413 60.5132C487.663 60.4132 489.883 57.0232 490.253 53.4132H490.283C490.793 48.5232 488.513 42.0932 483.683 40.1832C483.307 40.1032 482.918 40.2465 482.683 40.5517C482.448 40.8569 482.409 41.2697 482.583 41.6132C483.053 42.2454 483.554 42.8302 484.05 43.4096C485.084 44.6177 486.098 45.8023 486.773 47.3432C487.623 49.3132 489.373 61.0232 482.773 57.7532C482.241 57.4599 481.574 57.5996 481.204 58.0821C480.834 58.5646 480.872 59.245 481.293 59.6832C484.123 63.1232 481.213 67.5832 477.823 68.8932C474.433 70.2032 470.823 69.5432 467.343 68.8932C467.029 68.8076 466.704 68.9934 466.618 69.3082C466.533 69.623 466.719 69.9476 467.033 70.0332C471.943 71.8832 478.463 72.8132 482.413 68.5132C484.476 66.4033 485.24 63.3454 484.413 60.5132Z" fill="white"/>
<path fill-rule="evenodd" clip-rule="evenodd" d="M568.363 46.4932C562.152 42.1998 555.522 38.5477 548.573 35.5932C542.789 33.1438 536.812 31.1771 530.703 29.7132C532.568 29.7632 534.436 29.8332 536.303 29.9032L536.304 29.9032C538.171 29.9732 540.038 30.0432 541.903 30.0932C547.118 30.302 552.341 30.0947 557.523 29.4732C562.143 28.8532 567.903 28.0432 571.843 25.3832C575.093 23.1832 575.033 19.8632 572.843 16.9232C570.233 13.3832 565.843 11.7832 561.733 10.8132C551.347 8.39014 540.661 6.81489 530.08 5.25518L530.073 5.25424L530.071 5.25393C528.603 5.03747 527.136 4.8213 525.673 4.60321C501.493 0.993207 476.143 -2.58679 451.903 2.60321C447.653 3.51321 444.083 5.05321 441.693 8.84321C440.111 11.3538 439.027 14.2113 437.948 17.0577L437.948 17.0586L437.947 17.0593L437.947 17.0599C437.213 18.9971 436.48 20.9292 435.593 22.7432C431.32 31.4713 425.806 39.5349 419.223 46.6832C411.761 54.7978 403.039 61.6559 393.393 66.9932C383.333 72.5932 371.593 77.3232 359.903 77.5932C345.787 65.5175 328.879 57.158 310.713 53.2732C295.123 49.9432 279.993 51.2732 264.483 54.2732C249.653 57.1332 234.683 60.0432 220.483 65.3432C215.941 67.0386 211.521 69.0433 207.253 71.3432C206.736 71.0847 206.142 71.0242 205.583 71.1732C181.943 76.6932 158.523 67.7732 138.823 55.0232C129.609 49.2218 120.949 42.5837 112.953 35.1932C109.18 31.7062 105.825 27.7934 102.953 23.5332C101.681 21.6012 100.552 19.5792 99.5731 17.4832C99.2384 16.75 98.9574 15.9575 98.6732 15.1558L98.6731 15.1558C98.1084 13.5628 97.5309 11.9338 96.4931 10.6632C93.8931 7.48321 90.0031 8.30321 86.7731 9.96321C83.0634 11.8707 79.4749 14.0464 75.8851 16.2228C74.0172 17.3553 72.1489 18.488 70.2631 19.5832C61.3531 24.7932 52.4531 30.0332 43.8531 35.7432C35.46 41.214 27.4998 47.322 20.0431 54.0132C16.2006 57.5074 12.5833 61.2415 9.21313 65.1932C8.69926 65.7971 8.14392 66.4285 7.5688 67.0824C4.88706 70.1312 1.7753 73.669 0.433134 77.1932C-1.19687 81.4732 2.01313 84.2632 6.06313 85.0932C11.7131 86.2532 17.4931 84.4332 22.7231 82.4432C28.398 80.2788 33.9556 77.8188 39.3731 75.0732C33.9531 80.7932 28.6731 86.6532 23.5931 92.6832C19.6631 97.3632 15.7831 102.223 13.0231 107.683C11.0231 111.603 7.93313 117.783 9.96313 122.193C14.9631 133.113 34.2231 118.973 48.8431 106.023C46.7365 109.685 44.8628 113.476 43.2331 117.373L43.1285 117.627C40.5691 123.839 33.7395 140.415 43.5031 143.373C52.015 145.997 59.865 136.821 65.4983 130.237C66.5427 129.016 67.511 127.884 68.3931 126.933L88.9031 104.853C86.8131 113.043 85.0331 121.313 83.6231 129.663L83.5718 129.968L83.4971 130.409C82.2741 137.624 80.5898 147.561 88.2231 151.803C95.8631 156.053 104.543 149.563 110.303 145.023C115.796 140.658 120.905 135.83 125.573 130.593C124.252 138.941 123.753 147.398 124.083 155.843C124.403 163.303 124.933 173.073 131.683 177.843C138.433 182.613 147.223 178.963 151.493 172.603C154.746 167.775 155.514 162.157 156.281 156.542C156.351 156.029 156.421 155.516 156.493 155.003C156.583 156.003 156.663 157.003 156.743 158.003C156.794 158.619 156.83 159.263 156.867 159.924L156.867 159.924L156.867 159.925L156.867 159.926C157.051 163.192 157.257 166.852 159.303 169.363C163.243 174.223 167.893 171.683 170.823 167.713C173.667 176.867 177.591 185.649 182.513 193.873C191.233 208.593 202.513 221.983 214.793 233.873C226.78 245.762 242.293 253.452 259.013 255.793C268.33 257.088 277.762 257.329 287.133 256.513C297.303 255.693 308.333 254.513 317.983 250.963C319.192 252.12 320.535 253.127 321.983 253.963C328.193 257.523 336.183 257.713 342.073 253.413C347.963 249.113 350.453 242.003 351.073 235.043C351.073 234.704 351.104 234.361 351.134 234.019C351.146 233.887 351.157 233.756 351.167 233.625C351.173 233.544 351.179 233.464 351.183 233.383C375.363 221.133 388.933 196.383 391.713 170.003C392.551 162.387 392.869 154.723 392.663 147.063C394.732 150.782 397.131 154.306 399.833 157.593C404.053 162.593 412.683 171.323 419.953 168.163C426.713 165.233 429.043 156.733 429.443 150.063C429.692 143.355 429.378 136.638 428.503 129.983C431.503 134.543 434.743 138.983 438.193 143.233C442.133 148.093 448.733 155.493 455.843 152.323C462.663 149.323 461.343 140.013 460.463 134.093C459.657 128.966 458.402 123.92 456.713 119.013C461.178 123.594 465.982 127.833 471.083 131.693C478.033 136.953 488.763 144.883 497.683 139.303C505.413 134.453 504.033 123.913 502.243 116.353C500.514 109.094 497.792 102.108 494.153 95.5932C501.833 99.9632 509.833 103.803 518.503 105.693C524.336 107.029 530.362 107.307 536.293 106.513C540.743 105.883 547.563 104.703 550.073 100.393C552.443 96.3232 549.863 91.8432 547.003 88.8432C542.843 84.4632 537.483 80.7632 532.483 77.4132C529.263 75.2632 525.943 73.3032 522.543 71.4832C530.103 72.9132 537.683 74.0332 545.403 73.6832C551.736 73.5127 557.981 72.1559 563.813 69.6832C568.303 67.6832 574.733 64.2432 576.323 59.2332C578.163 53.3732 572.483 49.3532 568.363 46.4932ZM170.753 112.813C166.683 123.563 165.893 136.013 166.753 146.813C167.116 151.221 167.784 155.598 168.753 159.913C168.56 160.184 168.42 160.49 168.343 160.813C168.102 161.996 167.677 163.133 167.083 164.183C166.133 165.773 164.253 166.743 162.783 164.763C161.991 163.692 161.979 161.061 161.97 159.021V159.02C161.966 158.279 161.963 157.615 161.923 157.133C161.483 151.627 161.036 146.123 160.583 140.623C160.373 138.133 157.053 136.883 155.663 139.293C152.813 144.266 151.992 149.643 151.158 155.099L151.158 155.1L151.158 155.1L151.158 155.1C150.857 157.072 150.554 159.055 150.153 161.033C149.313 165.033 147.973 169.293 144.753 172.033C141.333 175.033 136.343 175.633 133.273 171.903C129.07 166.785 129.21 158.221 129.318 151.661L129.318 151.659C129.328 151.055 129.337 150.469 129.343 149.903C129.428 140.366 130.592 130.869 132.813 121.593C133.553 118.433 129.673 117.153 127.873 119.503C122.884 126.037 117.245 132.047 111.043 137.443C110.72 137.724 110.354 138.049 109.949 138.408L109.949 138.408L109.946 138.41C105.128 142.685 94.959 151.706 89.5631 146.153C87.0107 143.523 87.643 138.845 88.093 135.516L88.1231 135.293C88.7054 130.892 89.5799 126.509 90.4486 122.156L90.4487 122.156L90.4831 121.983C92.2531 113.143 94.4231 104.393 96.9331 95.7332C97.6731 93.2032 94.2831 91.1232 92.4331 93.1132L70.9831 116.223C67.5165 119.983 64.0398 123.737 60.5531 127.483C59.9522 128.131 59.3505 128.807 58.7411 129.492C56.1258 132.431 53.3681 135.529 49.9131 137.273C46.7531 138.853 43.6531 138.193 44.1131 134.143C44.411 131.817 44.8857 129.517 45.5331 127.263C46.812 122.679 48.5369 118.231 50.6831 113.983C54.9831 105.363 60.5031 97.4332 66.0131 89.5632C67.8031 87.0132 63.9231 84.2232 61.7931 86.3032L61.6475 86.4459L61.6473 86.4461L61.6473 86.4461L61.6472 86.4462C54.1958 93.7486 46.7397 101.056 38.5531 107.563C34.3596 110.927 29.9391 113.998 25.3231 116.753C24.9859 116.953 24.6451 117.159 24.3007 117.368L24.2997 117.368C22.4178 118.509 20.4276 119.715 18.3231 120.213C18.3055 120.217 18.2871 120.222 18.2679 120.227C18.2334 120.235 18.1965 120.244 18.1576 120.254L18.1545 120.255L18.1522 120.255C17.5003 120.418 16.2696 120.724 15.7131 120.423C14.2506 119.569 15.1646 116.892 15.6367 115.509C15.6843 115.369 15.7274 115.243 15.7631 115.133C18.722 106.112 25.4405 98.5805 31.7343 91.5249L31.7367 91.5222C32.419 90.7574 33.0962 89.9981 33.7631 89.2432C41.3565 80.7165 49.2665 72.4999 57.4931 64.5932C59.7031 62.4632 56.8231 58.5932 54.1731 60.2932C45.1298 66.1568 35.586 71.2098 25.6531 75.3932C25.3225 75.5303 24.9903 75.6688 24.6565 75.8079C20.4373 77.5666 15.9725 79.4277 11.4131 79.8632C10.0078 80.0993 8.56805 80.0276 7.19313 79.6532C6.94944 79.5554 6.74589 79.4806 6.57866 79.4191C6.18402 79.2739 5.99156 79.2031 5.95083 79.0815C5.91205 78.9657 6.01076 78.8039 6.20345 78.488C6.328 78.2838 6.49181 78.0153 6.68313 77.6532C8.02159 75.4075 9.57559 73.2976 11.3231 71.3532C23.3231 56.4532 39.0431 45.1732 55.1631 35.1432C61.8906 30.9669 68.7304 26.9755 75.5751 22.9812L75.5771 22.98C77.156 22.0587 78.7351 21.1372 80.3131 20.2132C81.1165 19.7432 81.9176 19.2687 82.7188 18.7943L82.719 18.7941L82.7191 18.7941C84.3212 17.8453 85.9233 16.8965 87.5431 15.9832C87.7662 15.859 88.0593 15.6678 88.3824 15.4572C89.2036 14.9217 90.2177 14.2604 90.7631 14.2532C92.4577 14.2532 93.018 15.8541 93.4659 17.1338C93.5466 17.3644 93.6237 17.5847 93.7031 17.7832C95.3695 21.86 97.5433 25.7103 100.173 29.2432C105.513 36.4532 112.243 42.4132 119.293 47.8932C127.101 54.055 135.35 59.6366 143.973 64.5932C160.113 73.7332 178.613 79.5932 197.073 77.5932C184.643 86.5232 174.493 98.4032 170.753 112.813ZM344.39 209.795C344.324 208.608 344.258 207.421 344.193 206.233C344.033 203.333 348.353 202.183 349.733 204.743C351.683 208.493 355.203 204.763 355.203 201.983C355.173 198.773 352.813 196.283 350.463 194.403C345.886 190.917 340.745 188.241 335.263 186.493C324.003 182.663 312.053 181.783 300.263 181.663C287.033 181.509 273.806 182.197 260.663 183.723C250.526 184.908 240.589 186.902 230.627 188.901L230.625 188.902L230.624 188.902C227.389 189.551 224.151 190.201 220.903 190.823C223.783 194.846 227.026 198.595 230.593 202.023C237.221 208.426 245.071 213.428 253.673 216.733C261.76 219.775 269.615 220.265 278.047 220.79C278.54 220.821 279.036 220.852 279.533 220.883C280.113 218.853 282.583 217.453 284.193 219.513C286.653 222.673 290.113 224.413 294.193 223.673C295.07 223.462 295.996 223.657 296.713 224.204C297.431 224.751 297.864 225.592 297.893 226.493C297.853 234.223 305.603 237.603 311.603 233.223C313.113 232.123 315.533 233.263 315.923 234.983C317.303 241.053 320.403 247.023 326.403 249.603C332.166 252.302 339.034 250.127 342.193 244.603C345.723 238.873 345.473 231.763 345.193 225.383C344.965 220.191 344.678 214.999 344.39 209.801L344.39 209.795ZM386.473 156.843C385.983 172.093 383.963 187.363 376.313 200.843C370.223 211.343 361.636 220.178 351.313 226.563C351.236 222.461 350.927 218.33 350.62 214.239C350.567 213.532 350.515 212.827 350.463 212.123C355.213 212.693 360.553 208.723 361.063 203.193C361.873 194.463 353.863 188.583 346.353 184.813C346.724 184.557 347.026 184.214 347.233 183.813C352.209 174.538 355.25 164.349 356.173 153.863C356.157 152.268 354.868 150.979 353.273 150.963C328.42 151.057 303.573 151.16 278.733 151.273C274.688 151.297 270.643 151.315 266.599 151.334C258.507 151.372 250.418 151.41 242.323 151.483C238.904 151.51 235.445 151.472 231.969 151.433H231.969C222.677 151.329 213.266 151.223 204.183 152.373C203.106 152.437 202.247 153.296 202.183 154.373C200.003 159.113 204.633 172.473 205.543 174.703C209.602 184.73 215.378 193.972 222.613 202.013C229.848 210.132 238.751 216.592 248.713 220.953C258.213 225.033 269.913 228.023 280.243 225.893C280.706 225.817 281.133 225.596 281.463 225.263C284.367 228.115 288.284 229.697 292.353 229.663C293.137 233.77 295.703 237.318 299.359 239.348C303.015 241.377 307.383 241.68 311.283 240.173C312.078 242.547 313.173 244.808 314.543 246.903C311.684 247.34 308.838 247.863 305.991 248.386L305.991 248.386C301.48 249.214 296.967 250.043 292.393 250.533C284.427 251.448 276.398 251.676 268.393 251.213C251.893 250.213 236.023 245.073 223.393 234.113C199.963 213.743 178.653 185.223 173.393 154.053C171.977 145.833 171.799 137.447 172.863 129.173C173.009 128.889 173.084 128.573 173.083 128.253V127.303C173.078 127.207 173.078 127.11 173.083 127.013C174.341 119.28 177.062 112.297 179.857 105.125C180.239 104.145 180.622 103.162 181.003 102.173C181.089 101.943 181.123 101.698 181.103 101.453C189.213 88.5832 202.483 78.7232 216.553 72.7732C228.883 67.5632 242.043 64.6032 255.133 62.0132C256.024 61.8376 256.915 61.6606 257.807 61.4835C271.244 58.8153 284.886 56.1066 298.633 57.5132C322.585 60.033 344.934 70.7427 361.903 87.8332C369.846 95.8042 376.142 105.261 380.433 115.663C385.713 128.733 386.903 142.873 386.473 156.843ZM515.845 64.7726C534.224 68.4914 554.391 72.572 568.903 60.0632C572.983 56.5132 569.273 53.8732 566.193 51.7232C563.733 49.9832 561.183 48.3632 558.583 46.8432C553.375 43.7746 547.911 41.1616 542.253 39.0332C530.698 34.6891 518.486 32.3488 506.143 32.1132C504.791 32.0626 503.672 31.0463 503.492 29.7056C503.312 28.3649 504.123 27.089 505.413 26.6832C515.646 23.651 526.206 24.0007 536.747 24.3499C537.712 24.3819 538.678 24.4138 539.643 24.4432C545.591 24.782 551.558 24.5946 557.473 23.8832C560.371 23.4517 563.223 22.7555 565.993 21.8032C566.425 21.6563 566.817 21.5657 567.149 21.4892C568.262 21.2326 568.689 21.134 567.603 19.5932C566.755 18.7114 565.704 18.049 564.543 17.6632C560.942 16.0945 556.881 15.4633 552.914 14.8468C551.748 14.6655 550.589 14.4854 549.453 14.2832C543.846 13.2765 538.233 12.3165 532.613 11.4032C520.843 9.50321 509.023 7.73321 497.143 6.60321C485.673 5.52321 474.083 5.06321 462.613 6.34321C461.928 6.42015 461.208 6.48842 460.468 6.55872C455.047 7.07318 448.479 7.69645 445.743 12.6232C444.614 14.6478 443.779 16.8675 442.946 19.082C442.356 20.6522 441.766 22.2197 441.073 23.7132C433.528 39.6097 422.172 53.3951 408.013 63.8432C395.943 72.8432 380.303 80.8832 364.763 82.0932C367.653 84.9288 370.371 87.9341 372.903 91.0932C380.516 100.498 386.109 111.371 389.333 123.033C390.161 126.144 390.828 129.294 391.333 132.473C394.283 138.683 397.333 145.023 401.333 150.683C404.163 154.643 413.923 166.573 419.163 162.323C424.403 158.073 424.343 149.833 424.033 143.723C423.727 137.861 423.171 132.003 422.615 126.151C422.37 123.577 422.126 121.005 421.903 118.433C421.623 115.683 425.643 114.843 426.903 117.063C430.277 123.042 434.018 128.806 438.103 134.323C438.426 134.759 438.822 135.324 439.278 135.976C442.433 140.482 448.474 149.111 453.393 147.503C458.738 145.756 454.673 131.371 453.392 126.84C453.324 126.599 453.264 126.385 453.213 126.203C451.241 119.533 448.904 112.977 446.213 106.563C445.223 104.073 449.153 101.753 450.813 103.883C456.375 111.11 462.695 117.721 469.663 123.603C470.12 123.988 470.614 124.411 471.139 124.861C476.855 129.757 486.336 137.879 493.553 135.223C501.789 132.158 497.471 118.591 495.523 112.471L495.403 112.093C492.641 103.598 488.455 95.6348 483.023 88.5432C481.313 86.2832 484.573 83.4432 486.773 84.7932L487.432 85.1958C495.878 90.3571 504.449 95.5943 513.903 98.7132C518.905 100.421 524.139 101.349 529.423 101.463C533.703 101.533 540.883 101.373 544.373 98.4632C549.603 94.1032 527.753 80.6832 524.113 78.5332C515.938 73.7127 507.208 69.9048 498.113 67.1932C495.293 66.3332 495.703 61.5232 498.843 61.8532C504.157 62.4075 509.908 63.5712 515.845 64.7726Z" fill="#231F20"/>
<path fill-rule="evenodd" clip-rule="evenodd" d="M203.464 110.353C205.038 110.03 206.674 110.219 208.134 110.893C212.954 113.183 213.904 120.253 210.174 123.953C206.204 127.893 199.004 125.953 197.004 120.953C195.174 116.353 198.724 110.723 203.464 110.353ZM201.814 118.893C202.454 120.503 205.304 121.403 206.454 119.893V119.913C207.324 118.763 207.034 116.343 205.524 115.833C203.574 115.213 202.494 117.213 201.744 118.663C201.756 118.743 201.78 118.82 201.814 118.893Z" fill="#231F20"/>
<path fill-rule="evenodd" clip-rule="evenodd" d="M346.564 103.653C346.891 103.572 347.226 103.525 347.564 103.513C350.96 103.023 354.361 104.375 356.494 107.063C360.304 112.113 356.184 117.923 350.964 119.553C344.574 121.543 340.374 116.003 341.124 110.003C340.479 109.722 340.013 109.143 339.876 108.453C339.738 107.764 339.946 107.05 340.434 106.543C342.186 105.055 344.301 104.058 346.564 103.653ZM346.544 112.733C347.284 115.353 349.884 114.543 351.474 112.983C353.564 110.933 351.004 109.213 348.914 109.123C348.179 109.106 347.444 109.17 346.724 109.313C346.341 110.413 346.279 111.599 346.544 112.733Z" fill="#231F20"/>
<path d="M97.9726 78.5933C95.5626 79.1633 93.2126 79.5933 91.1326 77.8733C88.7526 75.8733 88.5526 72.6233 89.6926 69.9233C90.4326 68.1433 92.9226 66.0833 91.1526 64.1233C90.6887 63.6371 90.054 63.3503 89.3826 63.3233C88.7426 63.2133 87.9226 63.6133 87.3826 63.4633L83.3826 60.0433L83.1026 57.4633C83.1026 52.4633 85.9226 48.7133 86.7926 44.0533C86.8189 43.9348 86.7737 43.8119 86.6769 43.7387C86.58 43.6655 86.4494 43.6556 86.3426 43.7133C82.0626 46.4933 80.3426 54.0633 80.7626 58.9333C80.8727 61.1195 81.8738 63.1651 83.5326 64.5933C84.8626 65.6433 88.3726 65.5933 88.6126 66.7033C88.6726 66.9733 87.0026 69.5533 86.8226 70.1633C86.5692 71.0355 86.4247 71.9356 86.3926 72.8433C86.2896 75.1406 87.0819 77.3883 88.6026 79.1133C91.1526 81.8533 96.0926 83.0433 98.9626 80.2633C99.2901 79.9407 99.3555 79.4364 99.1211 79.0409C98.8867 78.6455 98.4128 78.4608 97.9726 78.5933Z" fill="#231F20"/>
<path d="M160.903 110.033C157.343 112.947 155.186 112.75 154.433 109.443C154.269 108.908 153.808 108.517 153.252 108.444C152.697 108.37 152.15 108.628 151.853 109.103C151.213 110.003 149.793 112.103 148.613 112.303L143.303 110.203C142.876 109.496 142.511 108.753 142.213 107.983C141.32 105.89 140.679 103.698 140.303 101.453C140.166 100.976 139.788 100.607 139.309 100.479C138.829 100.352 138.318 100.487 137.963 100.833C135.463 103.513 132.313 107.113 128.213 106.733C122.773 106.243 123.313 99.9333 123.543 95.9833C123.973 88.5233 126.933 82.7433 129.483 75.9133C129.683 75.3633 128.903 74.9633 128.483 75.3633C122.273 81.7733 118.693 95.7233 121.313 104.363C122.317 107.591 125.388 109.722 128.763 109.533C132.533 109.533 135.503 107.263 138.073 104.723C138.983 108.593 140.643 113.143 144.023 114.913C147.403 116.683 150.383 114.913 152.663 112.473C155.263 116.383 161.183 116.003 163.253 111.063C163.903 109.653 161.663 108.773 160.903 110.033Z" fill="#231F20"/>
<path d="M436.234 85.8532C437.428 88.418 438.256 91.1379 438.694 93.9332C439.174 98.0932 436.594 100.303 432.874 101.283C429.154 102.263 427.154 101.753 423.804 100.233C422.634 99.6932 421.804 99.0232 420.444 99.4332C419.444 99.7432 419.164 100.283 418.574 101.073C416.814 103.473 415.394 105.143 412.274 105.773C405.624 107.093 400.914 101.453 398.634 95.9732C398.562 95.697 398.28 95.5314 398.004 95.6032C397.728 95.675 397.562 95.957 397.634 96.2332C398.634 101.823 402.634 106.943 408.374 108.073C410.692 108.52 413.091 108.266 415.264 107.343C417.344 106.483 420.484 101.943 422.474 102.423C423.684 102.703 424.794 103.903 426.104 104.243C427.592 104.568 429.127 104.618 430.634 104.393C433.394 104.063 436.874 103.243 439.044 101.393C443.624 97.3932 440.894 89.3232 438.404 84.9432C437.794 83.7632 435.694 84.5932 436.234 85.8532Z" fill="#231F20"/>
<path d="M459.383 35.5933C463.913 35.5333 468.463 34.2133 469.533 29.1733C470.663 23.8933 465.283 14.8833 459.533 14.8333C458.838 14.8441 458.279 15.408 458.273 16.1033L458.423 17.8033C458.523 18.8033 460.123 19.2433 460.423 18.0633C460.423 17.9033 460.493 17.7433 460.523 17.5933C463.823 18.7833 467.683 24.7533 467.153 27.5933C466.503 31.0333 463.573 32.9333 460.353 33.1733C458.479 33.2286 456.605 33.0777 454.763 32.7233C453.453 32.5333 452.383 34.3233 453.763 35.0633C457.113 36.8433 460.703 39.0633 462.223 42.7233C464.943 49.2033 458.493 55.0933 452.153 52.1133C451.153 51.6432 449.623 52.7133 450.433 53.8333C454.203 59.0633 451.033 65.6533 445.073 67.1833C439.633 68.5732 434.403 65.6233 430.873 61.6433C430.443 61.1533 429.573 61.8133 429.963 62.3533C434.153 68.0833 441.153 71.7233 448.133 68.5533C453.239 66.3041 455.775 60.5232 453.973 55.2433C458.973 56.0433 463.973 53.4132 465.233 47.9333C466.453 42.7332 463.313 38.5933 459.383 35.5933Z" fill="#231F20"/>
<path d="M483.684 40.1332C483.307 40.0532 482.918 40.1965 482.683 40.5017C482.448 40.8068 482.41 41.2197 482.584 41.5632C484.034 43.5132 485.784 45.0132 486.774 47.2932C487.624 49.2932 489.374 60.9732 482.774 57.7032C482.241 57.4098 481.574 57.5496 481.204 58.0321C480.834 58.5146 480.872 59.195 481.294 59.6332C484.124 63.0732 481.214 67.4832 477.824 68.8432C474.434 70.2032 470.824 69.5332 467.344 68.8432C467.029 68.7576 466.704 68.9434 466.619 69.2582C466.533 69.573 466.719 69.8976 467.034 69.9832C471.944 71.8332 478.464 72.7632 482.414 68.4632C484.476 66.3533 485.24 63.2954 484.414 60.4632C487.664 60.3432 489.884 56.9732 490.254 53.3632C490.794 48.5232 488.514 42.0932 483.684 40.1332Z" fill="#231F20"/>
<path d="M348.973 91.1732C340.973 78.8732 324.553 72.1732 310.643 69.8732C310.073 69.7732 309.813 70.6132 310.393 70.7532C317.69 72.5706 324.681 75.4479 331.143 79.2932C337.303 82.9332 342.343 87.8532 348.003 92.1432C348.573 92.5932 349.333 91.7432 348.973 91.1732Z" fill="#231F20"/>
<path d="M367.973 111.513C370.133 115.933 372.613 120.053 374.193 124.743C375.495 129.009 376.533 133.35 377.303 137.743C377.453 138.443 378.453 138.243 378.493 137.583C378.993 128.473 375.173 117.523 368.593 111.053C368.451 110.942 368.252 110.939 368.107 111.046C367.962 111.154 367.907 111.345 367.973 111.513Z" fill="#231F20"/>
<path d="M186.553 148.093C186.515 147.821 186.283 147.617 186.008 147.617C185.732 147.617 185.5 147.821 185.463 148.093C184.773 157.643 186.813 167.713 189.913 176.693C192.913 185.363 197.053 194.193 203.473 200.873C203.68 201.149 204.071 201.205 204.348 200.998C204.624 200.791 204.68 200.399 204.473 200.123C199.923 191.983 195.073 184.243 191.993 175.363C188.913 166.483 187.633 157.443 186.553 148.093Z" fill="#231F20"/>
<path d="M219.233 217.593C219.489 217.643 219.749 217.528 219.884 217.304C220.018 217.08 219.998 216.796 219.833 216.593C218.687 215.516 217.43 214.564 216.083 213.753C214.713 212.753 213.383 211.753 212.083 210.753C211.583 210.373 211.083 211.163 211.443 211.583C213.433 213.783 216.243 216.713 219.233 217.593Z" fill="#231F20"/>
</svg>
