<svg width="342" height="586" viewBox="0 0 342 586" fill="none" xmlns="http://www.w3.org/2000/svg">
<path d="M310.633 319.846C297.053 320.298 283.61 316.997 271.783 310.306C264.893 339.086 252.453 366.796 241.783 394.306C230.203 424.112 218.643 453.959 207.103 483.846C206.862 484.495 206.426 485.054 205.853 485.446C202.443 490.446 193.473 490.106 188.123 490.216C178.533 490.416 168.633 489.266 159.643 485.806C151.803 482.948 144.767 478.242 139.133 472.086C135.433 467.846 131.003 461.846 131.903 455.906C131.524 455.283 131.472 454.514 131.763 453.846C135.153 445.356 138.263 436.646 141.893 428.246C143.043 422.439 144.903 416.797 147.433 411.446C147.411 411.347 147.394 411.247 147.383 411.146C135.383 413.436 122.383 414.046 112.023 409.256C108.421 407.546 105.059 405.371 102.023 402.786C105.178 419.963 109.822 436.834 115.903 453.206C128.173 486.136 145.383 516.966 163.253 547.136C167.373 554.136 171.253 561.436 176.493 567.666C180.433 572.386 190.493 582.536 197.123 577.336C202.363 573.206 201.223 563.526 201.123 557.706C200.963 549.236 200.513 540.706 200.733 532.206C198.249 533.556 196.147 535.514 194.623 537.896C193.153 540.236 188.983 538.726 189.993 535.946C192.433 529.246 198.453 525.856 204.933 523.736C214.303 520.736 224.353 518.946 234.063 517.366C243.996 515.682 254.041 514.75 264.113 514.576C273.993 514.476 285.573 514.636 294.923 518.116C298.053 519.286 297.923 524.646 294.073 524.356C291.353 524.146 288.653 523.826 285.963 523.466C287.733 532.716 288.713 542.166 291.143 551.246C292.563 556.576 294.933 561.856 300.143 564.316C302.773 565.546 305.453 566.086 306.763 563.316C307.713 561.316 307.633 558.046 307.993 555.856C314.433 516.246 319.993 476.376 321.453 436.226C322.928 397.121 319.403 357.988 310.963 319.776L310.633 319.846Z" fill="#00AEEF"/>
<path d="M258.562 184.146C248.752 193.296 239.562 203.476 228.172 210.146C229.282 213.506 231.092 216.856 234.362 218.446C238.362 220.386 243.282 218.446 244.072 214.016C244.582 211.106 249.422 211.116 249.952 214.016C250.792 218.716 253.062 223.076 257.572 225.156C262.43 227.455 268.238 225.565 270.812 220.846C272.612 217.656 276.952 219.966 276.372 223.196C275.462 228.196 280.942 229.466 284.262 228.196C286.563 227.206 288.47 225.479 289.682 223.286C289.926 222.874 290.27 222.53 290.682 222.286C287.418 211.335 283.171 200.702 277.992 190.516C271.782 193.846 262.052 190.306 258.562 184.146Z" fill="#F2B879"/>
<path d="M138.212 453.516C138.456 454.156 138.488 454.857 138.302 455.516C138.225 455.806 138.085 456.076 137.892 456.306C137.632 462.306 144.182 468.456 148.412 471.846C153.033 475.495 158.283 478.267 163.902 480.026C174.672 483.466 191.092 485.876 201.522 480.306C203.522 475.236 205.462 470.166 207.442 465.096C201.942 466.876 195.292 464.576 189.862 463.496C182.382 462.006 174.752 460.746 167.532 458.196C158.312 454.926 148.382 448.116 144.452 438.736C142.673 443.784 140.589 448.72 138.212 453.516Z" fill="#E27683"/>
<path d="M260.113 104.936C260.603 107.076 263.683 106.216 264.873 105.226C265.519 104.693 265.963 103.956 266.133 103.136C265.692 102.733 265.16 102.445 264.583 102.296C263.449 102.006 262.249 102.122 261.193 102.626C261.071 103.26 260.65 103.796 260.063 104.066C260.052 104.202 260.052 104.339 260.063 104.476C260.065 104.63 260.082 104.784 260.113 104.936Z" fill="white"/>
<path d="M81.1031 141.846C80.9931 142.196 80.8431 142.676 80.7031 143.186C81.3346 143.864 82.2544 144.195 83.1731 144.076C85.2831 143.806 85.4231 141.216 84.5531 139.686C82.9031 136.756 81.7031 139.946 81.1031 141.846Z" fill="white"/>
<path d="M154.903 409.486C153.663 413.486 151.953 417.326 150.673 421.306C149.753 424.166 149.053 427.076 148.283 429.976C150.443 435.646 152.393 440.876 157.163 445.076C158.682 446.398 160.331 447.564 162.083 448.556C166.223 432.816 171.083 416.816 177.573 401.916C172.514 404.114 167.324 405.997 162.033 407.556C159.763 408.216 157.363 408.846 154.903 409.486Z" fill="#F7941E"/>
<path fill-rule="evenodd" clip-rule="evenodd" d="M164.982 399.886C151.442 404.416 134.372 408.476 120.152 405.296C104.452 401.776 93.2125 384.706 86.2025 371.406C77.3725 354.566 72.9225 335.666 71.4925 316.796C70.3196 301.41 71.5326 286.313 72.7529 271.125L72.753 271.124C73.1245 266.5 73.4967 261.867 73.8025 257.216C81.5823 262.857 89.7156 267.995 98.1525 272.596C114.072 281.536 132.132 290.746 150.842 290.596C153.212 290.576 153.892 286.816 151.422 286.336C130.382 282.246 112.072 274.036 93.7625 263.036C76.6925 252.776 61.1025 240.666 51.4325 222.876C41.2625 204.176 34.5125 182.656 28.5925 162.286C25.3499 151.487 22.9461 140.455 21.4025 129.286C20.673 123.617 20.2624 117.911 20.1725 112.196C20.1381 109.741 20.2849 107.272 20.4316 104.805C20.6261 101.535 20.8205 98.2677 20.5925 95.0359C20.5487 94.2852 20.1844 93.5896 19.5925 93.1259C19.5368 92.665 19.3292 92.2358 19.0025 91.9059C18.5371 91.4262 18.0618 90.9745 17.5908 90.5269L17.5905 90.5266C16.4222 89.4163 15.2804 88.3313 14.3825 86.9059C13.1267 84.9372 12.2778 82.5746 11.469 80.3233L11.469 80.3233L11.469 80.3231C11.2795 79.7958 11.0922 79.2745 10.9025 78.7659C8.80906 73.4958 7.28051 68.0185 6.34246 62.4259C4.83246 52.2059 6.50246 40.8159 13.8325 33.0359C17.6425 28.9959 23.1025 25.8659 28.7725 27.5659C33.6125 29.0259 38.1225 32.7559 41.7025 36.1859C49.1825 43.3559 52.6525 51.6059 56.3925 60.9859C56.4875 61.2181 56.6012 61.4421 56.7325 61.6559C53.7045 64.2516 50.9012 67.0984 48.3525 70.1659C46.9025 71.9259 48.8625 75.2759 51.0325 73.6359C53.2104 71.9919 55.3456 70.3105 57.4773 68.632L57.4774 68.6319C62.4122 64.746 67.3283 60.8749 72.7125 57.5159C80.7484 52.5404 89.2239 48.3127 98.0325 44.8859C116.312 37.7459 135.772 33.7859 155.232 31.5559C174.742 29.3133 194.378 28.3679 214.012 28.7259C233.112 29.1159 251.902 31.9859 268.402 42.1859C272.222 44.5459 275.632 38.6059 271.902 36.1859C268.971 34.2754 265.907 32.5777 262.732 31.1059L262.612 31.0159C261.402 30.2759 265.772 18.0859 266.402 16.8459C268.791 12.1239 273.214 8.75874 278.402 7.71592C287.582 5.54592 302.132 5.75592 309.582 12.0359C317.762 18.9259 320.632 30.9159 320.232 41.1659C319.978 47.2883 318.506 53.2987 315.902 58.8459C315.205 60.3849 314.43 61.8666 313.659 63.3413L313.658 63.342L313.658 63.343L313.657 63.3443L313.656 63.3457C312.219 66.0952 310.794 68.8203 309.902 71.8459C309.07 72.4591 308.677 73.5064 308.902 74.5159C309.449 77.2646 310.01 80.0012 310.571 82.7323L310.572 82.7359L310.572 82.7373L310.572 82.7387L310.573 82.7401L310.573 82.7411C312.896 94.0566 315.199 105.278 316.302 116.876C317.61 130.751 317.834 144.706 316.972 158.616C315.212 187.176 308.302 214.236 298.412 240.966C298.184 241.679 298.25 242.454 298.595 243.119C298.941 243.784 299.537 244.283 300.252 244.506C300.442 244.769 300.672 245.002 300.932 245.196C315.412 255.746 333.112 272.856 334.282 291.966C335.682 314.876 306.992 314.756 291.562 310.676C282.407 308.294 273.842 304.049 266.402 298.206C259.292 292.546 251.532 283.316 253.592 273.496C255.362 265.056 263.862 259.786 271.922 258.496C282.702 256.766 293.642 261.216 303.342 265.346C307.412 267.076 310.952 261.096 306.852 259.346C300.36 256.437 293.602 254.16 286.672 252.546C287.605 249.547 288.536 246.549 289.467 243.55L289.476 243.52C291.336 237.528 293.195 231.537 295.072 225.546C295.879 225.353 296.569 224.836 296.98 224.116C297.391 223.396 297.486 222.538 297.242 221.746C291.958 202.95 283.693 185.124 272.762 168.946C271.866 167.455 269.943 166.953 268.432 167.816C260.062 173.536 252.732 180.536 245.432 187.536C238.519 194.091 231.269 200.283 223.712 206.086C222.977 206.299 222.351 206.786 221.962 207.446L221.572 207.746C220.678 208.355 220.408 209.551 220.952 210.486C216.472 225.586 211.892 240.586 206.892 255.486C204.342 263.156 201.672 270.786 198.942 278.396C198.091 280.774 197.104 283.189 196.108 285.63L196.108 285.631C194.251 290.18 192.358 294.816 191.232 299.456C185.303 303.229 179.706 307.502 174.502 312.226C160.209 325.267 149.313 341.6 142.762 359.806C141.232 364.026 147.972 365.856 149.492 361.656C159.952 332.776 183.212 307.316 212.382 296.776C220.612 293.796 229.852 291.886 238.612 293.546C248.432 295.396 250.442 303.136 248.612 311.896C245.812 325.276 239.142 338.236 231.502 349.456C215.373 373.024 192.03 390.72 164.982 399.886ZM290.772 127.946C290.148 128.099 289.542 128.317 288.962 128.596C287.864 129.15 287.172 130.276 287.172 131.506C287.172 132.736 287.864 133.861 288.962 134.416C289.549 134.68 290.154 134.901 290.772 135.076C292.279 135.494 293.886 134.921 294.787 133.642C295.688 132.364 295.688 130.658 294.787 129.379C293.886 128.101 292.279 127.527 290.772 127.946ZM255.272 99.8459C255.9 98.4947 256.803 97.2891 257.922 96.3059C257.939 96.2874 257.955 96.2688 257.971 96.2502L257.997 96.2198C258.05 96.1577 258.104 96.0941 258.172 96.0259C259.863 94.3806 262.168 93.5238 264.522 93.6659C268.324 94.0815 271.417 96.9151 272.162 100.666C276.732 108.536 267.372 117.426 259.582 113.156C258.352 112.496 257.264 111.599 256.382 110.516C255.227 109.45 254.431 108.053 254.102 106.516C253.458 104.23 253.889 101.776 255.272 99.8459ZM68.1158 189.625C69.1959 190.444 70.6629 190.531 71.8325 189.846C73.3954 188.888 73.9247 186.867 73.0325 185.266C72.349 184.096 71.0277 183.452 69.6849 183.636C68.3421 183.82 67.2424 184.795 66.8989 186.106C66.5554 187.417 67.0357 188.806 68.1158 189.625ZM91.9925 141.786C90.8225 146.296 86.9925 153.536 81.4925 153.296C79.1587 153.289 76.9978 152.064 75.7925 150.066C72.3125 147.996 70.8625 143.066 72.1925 139.066C73.9325 133.796 79.6825 126.966 85.8325 128.926C91.2525 130.596 93.3325 136.636 91.9925 141.746V141.786ZM142.219 127.981C141.047 128.304 140.353 129.51 140.662 130.686V130.646C143.302 142.976 150.902 161.636 166.822 155.856C180.732 150.766 182.402 131.776 178.592 119.606C178.235 118.434 177.081 117.695 175.867 117.859C174.653 118.022 173.737 119.042 173.702 120.266C173.605 122.375 173.698 124.66 173.792 127.009C174.127 135.286 174.492 144.342 166.702 149.156C155.098 156.348 148.614 139.209 145.323 130.509C145.191 130.16 145.064 129.825 144.942 129.506C144.605 128.338 143.391 127.658 142.219 127.981Z" fill="#00AEEF"/>
<path d="M274.903 184.636C273.113 181.406 271.233 178.216 269.223 175.086C267.023 176.726 264.893 178.486 262.803 180.316C264.261 182.21 266.193 183.686 268.403 184.596C270.51 185.299 272.787 185.313 274.903 184.636Z" fill="#58595B"/>
<path d="M279.403 234.706C276.047 234.105 273.155 231.992 271.563 228.976L271.403 229.086C270.453 233.156 268.403 237.256 267.293 241.086C266.103 245.136 265.113 249.216 264.193 253.326C269.448 251.484 275.055 250.871 280.583 251.536C282.457 245.676 284.32 239.823 286.173 233.976C284.038 234.881 281.683 235.135 279.403 234.706Z" fill="#F7941E"/>
<path d="M212.113 258.066C209.383 266.066 206.633 274.066 203.793 282.006C202.333 286.076 201.043 290.506 199.473 294.776C205.794 291.501 212.519 289.071 219.473 287.546C219.53 287.482 219.598 287.428 219.673 287.386C222.153 285.866 223.443 278.776 224.363 275.996C225.429 272.756 226.496 269.519 227.563 266.286L233.263 249.026C235.883 241.086 238.183 232.826 241.003 224.856C239.276 225.321 237.471 225.423 235.703 225.156C231.043 224.446 227.593 221.526 225.173 217.806C221.039 231.299 216.686 244.719 212.113 258.066Z" fill="#F7941E"/>
<path d="M180.904 400.426C180.908 400.486 180.908 400.546 180.904 400.606C175.734 417.126 169.904 433.386 164.854 449.946C167.121 450.995 169.46 451.881 171.854 452.596C177.072 454.051 182.362 455.232 187.704 456.136C188.884 456.366 190.244 456.706 191.704 457.076C192.874 448.206 197.244 439.026 200.254 430.646C203.414 421.826 206.71 413.056 210.144 404.336C213.364 396.156 216.697 388.026 220.144 379.946C221.884 375.886 223.584 371.746 225.414 367.656C212.892 381.417 197.763 392.556 180.904 400.426Z" fill="#F7941E"/>
<path d="M249.642 291.006C250.555 291.739 251.38 292.574 252.102 293.496C252.102 293.336 252.102 293.166 252.102 292.996C244.942 281.996 243.632 268.066 255.302 258.496C256.91 257.17 258.649 256.011 260.492 255.036C261.554 249.727 262.889 244.477 264.492 239.306C265.262 236.806 265.962 234.006 266.932 231.306C263.944 232.305 260.73 232.413 257.682 231.616C252.682 230.189 248.526 226.702 246.252 222.026C246.02 222.23 245.776 222.42 245.522 222.596C244.602 225.786 242.952 229.056 242.182 231.436C239.949 238.276 237.715 245.116 235.482 251.956L228.392 273.536C227.122 277.396 226.312 282.766 224.172 286.686C224.772 286.606 225.382 286.506 225.992 286.436C233.662 285.676 243.352 285.946 249.642 291.006Z" fill="#F7941E"/>
<path d="M232.723 358.846C230.183 365.526 226.993 372.026 224.183 378.576C220.263 387.716 216.473 396.916 212.813 406.176C209.266 415.236 205.856 424.349 202.583 433.516C199.813 441.326 197.923 450.336 193.953 457.636C198.573 458.766 203.683 459.696 207.063 457.796C208.045 457.166 209.298 457.142 210.303 457.736C218.783 436.002 227.25 414.266 235.703 392.526C246.703 364.176 257.583 335.996 266.343 306.866C263.687 305.056 261.17 303.05 258.813 300.866C257.467 299.617 256.204 298.281 255.033 296.866C254.915 297.147 254.712 297.385 254.453 297.546C255.898 301.637 256.276 306.028 255.553 310.306C253.553 325.246 245.553 340.396 237.163 352.696C235.743 354.846 234.253 356.846 232.723 358.846Z" fill="#F7941E"/>
<path fill-rule="evenodd" clip-rule="evenodd" d="M94.3527 398.336C94.2174 397.466 94.4137 396.578 94.9027 395.846C88.1727 388.096 82.7927 378.846 78.7927 370.356C71.0027 353.846 66.9327 335.976 65.4927 317.846C63.7261 296.469 64.8835 274.95 68.9327 253.886C68.9719 253.737 69.0186 253.59 69.0727 253.446C65.5108 250.551 62.1498 247.417 59.0127 244.066C47.5527 231.766 41.0027 216.406 35.1927 200.856C28.6227 183.256 22.3627 165.426 18.3627 147.036C16.4341 138.364 15.1308 129.565 14.4627 120.706L14.4342 120.307C13.8603 112.273 13.2083 103.145 15.3527 95.2758C11.1983 94.1862 8.9844 88.9788 7.38483 85.2164L7.2527 84.9058C4.1027 77.4958 1.4627 69.8458 0.462701 61.8458C-1.0973 50.0558 1.5127 36.9558 10.2627 28.2958C20.2227 18.4358 31.4727 20.2358 41.8627 28.2358C50.8327 35.1358 59.5427 45.9858 62.0327 57.4158C72.0427 49.9858 83.7327 44.2558 94.6727 39.7258C113.673 31.8558 133.773 27.4558 154.143 24.9858C175.267 22.3091 196.568 21.2726 217.853 21.8858C231.083 22.3458 244.643 24.1158 257.083 28.7858C257.583 21.5458 263.313 10.4058 265.743 8.01584C274.653 -0.764158 291.153 -0.244159 302.503 2.13584C315.903 4.92584 323.453 17.8458 325.713 30.4458C328.503 46.1958 323.373 61.2858 314.503 74.1958L314.433 74.2758C323.213 101.106 324.793 131.756 323.043 159.696C321.293 187.206 315.633 215.216 305.043 240.766C321.363 251.666 338.643 270.036 340.853 290.256C342.643 306.596 331.023 316.466 316.703 319.126C323.283 342.496 326.383 366.906 327.703 391.126C330.173 436.776 325.523 482.496 318.923 527.626C317.253 539.056 315.443 550.456 313.563 561.856C313.45 562.541 313.367 563.214 313.286 563.866C312.879 567.156 312.536 569.927 308.823 571.146C305.262 572.225 301.432 571.987 298.033 570.476C289.993 567.106 286.283 559.106 284.423 551.106C282.263 541.776 280.583 532.106 279.263 522.576C275.311 522.026 271.331 521.692 267.343 521.576C258.463 521.437 249.586 521.955 240.783 523.126C231.563 524.306 222.433 526.126 213.373 528.126C211.073 528.636 208.743 529.156 206.493 529.846C207.575 541.516 207.962 553.24 207.653 564.956C207.463 571.586 206.043 579.836 199.803 583.586C185.963 591.906 170.993 572.476 164.803 562.666C154.073 545.736 144.203 528.126 134.803 510.446C116.173 475.386 100.023 437.916 94.3527 398.336ZM307.993 555.906C314.453 516.276 319.993 476.426 321.453 436.276L321.473 436.236C322.942 397.151 319.417 358.038 310.983 319.846H310.633C297.052 320.287 283.613 316.976 271.793 310.276C266.407 332.769 257.648 354.586 248.993 376.141C246.559 382.203 244.133 388.245 241.793 394.276C230.199 424.129 218.636 453.999 207.103 483.886C206.862 484.536 206.425 485.095 205.853 485.486C202.741 490.076 194.998 490.169 189.602 490.234C189.085 490.24 188.59 490.246 188.123 490.256C178.533 490.456 168.643 489.306 159.643 485.846C151.793 482.976 144.754 478.252 139.123 472.076C135.423 467.856 130.993 461.796 131.913 455.906C131.533 455.283 131.481 454.514 131.773 453.846C133.001 450.769 134.193 447.663 135.386 444.554L135.387 444.552L135.388 444.55L135.388 444.548L135.389 444.546L135.39 444.544L135.391 444.542L135.392 444.54L135.392 444.538L135.393 444.536L135.394 444.534C137.49 439.07 139.591 433.595 141.903 428.246C143.049 422.457 144.903 416.832 147.423 411.496C147.4 411.397 147.384 411.297 147.373 411.196C135.353 413.486 122.373 414.096 112.013 409.306C108.41 407.596 105.048 405.421 102.013 402.836C105.17 420.014 109.818 436.884 115.903 453.256C128.173 486.186 145.383 517.016 163.253 547.186C163.999 548.447 164.738 549.72 165.48 550.996L165.482 551C168.833 556.771 172.227 562.615 176.493 567.716C180.433 572.386 190.533 582.586 197.123 577.386C201.716 573.773 201.418 565.911 201.198 560.103L201.198 560.102C201.166 559.272 201.136 558.484 201.123 557.756C201.074 555.189 201 552.62 200.925 550.051L200.925 550.05C200.752 544.113 200.579 538.175 200.733 532.256C198.248 533.606 196.146 535.564 194.623 537.946C193.153 540.286 188.993 538.776 189.993 535.996C192.433 529.296 198.453 525.906 204.933 523.786C214.303 520.736 224.353 518.996 234.063 517.416C243.995 515.733 254.04 514.8 264.113 514.626C273.993 514.526 285.573 514.686 294.923 518.166C298.073 519.336 297.883 524.696 294.073 524.406C291.353 524.196 288.653 523.876 285.963 523.516C286.587 526.777 287.113 530.064 287.639 533.35C288.604 539.384 289.57 545.417 291.143 551.296C292.533 556.626 294.903 561.906 300.143 564.366C302.763 565.586 305.453 566.126 306.763 563.366C307.41 562.017 307.579 560.061 307.735 558.258C307.808 557.414 307.878 556.604 307.993 555.906ZM278.033 190.506C283.212 200.692 287.459 211.325 290.723 222.276C290.311 222.52 289.967 222.864 289.723 223.276C288.511 225.469 286.604 227.196 284.303 228.186C280.983 229.456 275.503 228.186 276.413 223.186C276.993 219.956 272.653 217.646 270.853 220.836C268.283 225.558 262.473 227.454 257.613 225.156C253.103 223.076 250.833 218.716 249.993 214.016C249.463 211.116 244.623 211.106 244.113 214.016C243.323 218.496 238.393 220.386 234.403 218.446C231.133 216.856 229.323 213.506 228.213 210.146C237.08 204.969 244.614 197.652 252.145 190.338C254.288 188.257 256.43 186.177 258.603 184.146C262.053 190.306 271.783 193.846 278.033 190.506ZM269.223 175.086C267.023 176.726 264.893 178.486 262.803 180.316C264.256 182.224 266.188 183.715 268.403 184.636C270.514 185.325 272.791 185.325 274.903 184.636C273.113 181.406 271.223 178.216 269.223 175.086ZM286.173 234.026C284.313 239.873 282.449 245.726 280.583 251.586C275.054 250.921 269.447 251.533 264.193 253.376C265.113 249.266 266.103 245.186 267.293 241.136C267.788 239.448 268.451 237.716 269.119 235.967L269.119 235.967L269.119 235.966L269.119 235.966L269.119 235.966L269.12 235.965C269.988 233.693 270.866 231.395 271.403 229.136L271.563 229.026C273.154 232.041 276.046 234.155 279.403 234.756C281.682 235.185 284.037 234.931 286.173 234.026ZM240.983 224.856C239.256 225.321 237.451 225.423 235.683 225.156C231.023 224.446 227.573 221.526 225.093 217.806C220.973 231.313 216.639 244.733 212.093 258.066L212.036 258.23C209.325 266.116 206.593 274.061 203.773 282.006C203.096 283.893 202.455 285.857 201.807 287.847L201.807 287.848L201.806 287.848L201.806 287.848L201.806 287.849L201.806 287.849L201.806 287.85C201.056 290.151 200.294 292.486 199.453 294.776C205.775 291.502 212.499 289.071 219.453 287.546C219.51 287.482 219.578 287.428 219.653 287.386C221.572 286.209 222.779 281.696 223.653 278.427C223.908 277.473 224.135 276.624 224.343 275.996C225.416 272.756 226.483 269.519 227.543 266.286L233.243 249.026C234.315 245.776 235.334 242.477 236.357 239.166L236.357 239.166L236.357 239.166L236.357 239.165L236.357 239.165L236.357 239.165L236.357 239.165C237.833 234.386 239.317 229.581 240.983 224.856ZM228.423 273.586L235.513 252.006C237.753 245.166 239.986 238.326 242.213 231.486C242.539 230.479 243.022 229.312 243.541 228.06L243.541 228.06C244.249 226.352 245.022 224.486 245.553 222.646C245.807 222.47 246.051 222.28 246.283 222.076C248.556 226.752 252.713 230.239 257.713 231.666C260.761 232.462 263.975 232.355 266.963 231.356C266.277 233.174 265.746 235.063 265.232 236.893L265.231 236.893C264.996 237.731 264.764 238.555 264.523 239.356C262.92 244.527 261.585 249.777 260.523 255.086C258.68 256.061 256.941 257.22 255.333 258.546C243.663 268.116 244.973 282.036 252.133 293.046V293.546C251.411 292.624 250.586 291.788 249.673 291.056C243.383 285.996 233.673 285.726 226.053 286.536C225.676 286.579 225.299 286.634 224.925 286.688L224.923 286.688C224.692 286.722 224.462 286.755 224.233 286.786C225.63 284.176 226.458 280.926 227.226 277.906C227.618 276.368 227.994 274.889 228.423 273.586ZM254.453 297.616C255.897 301.707 256.276 306.098 255.553 310.376C253.503 325.316 245.563 340.466 237.163 352.816C235.723 354.916 234.253 356.916 232.723 358.916C231.085 363.224 229.176 367.457 227.274 371.677L227.273 371.678L227.273 371.678L227.273 371.678L227.273 371.678C226.226 374.001 225.18 376.32 224.183 378.646C220.243 387.786 216.453 396.986 212.813 406.246C209.259 415.313 205.849 424.426 202.583 433.586C201.686 436.114 200.884 438.769 200.075 441.45L200.075 441.451L200.075 441.452L200.074 441.452L200.074 441.453C198.383 447.052 196.657 452.77 193.953 457.706C198.573 458.866 203.683 459.766 207.063 457.866C208.045 457.236 209.298 457.213 210.303 457.806C218.783 436.073 227.249 414.336 235.703 392.596C246.723 364.246 257.583 336.066 266.343 306.936C263.687 305.126 261.17 303.121 258.813 300.936C257.466 299.687 256.203 298.351 255.033 296.936C254.915 297.217 254.712 297.455 254.453 297.616ZM220.113 379.946C216.653 388.026 213.319 396.156 210.113 404.336C206.639 413.056 203.336 421.826 200.203 430.646C199.432 432.798 198.571 435.003 197.696 437.242C195.165 443.721 192.522 450.484 191.653 457.076C190.213 456.706 188.853 456.366 187.653 456.136C182.311 455.232 177.021 454.051 171.803 452.596C169.409 451.881 167.07 450.995 164.803 449.946C167.528 441.026 170.474 432.194 173.42 423.361C175.944 415.794 178.467 408.228 180.853 400.606C180.858 400.546 180.858 400.486 180.853 400.426C197.716 392.557 212.848 381.418 225.373 367.656C224.364 369.923 223.407 372.193 222.45 374.464L222.449 374.466C221.68 376.292 220.91 378.119 220.113 379.946ZM162.087 448.541L162.113 448.556H162.083L162.087 448.541ZM177.603 401.916C171.115 416.841 166.226 432.836 162.087 448.541C160.344 447.552 158.704 446.391 157.193 445.076C152.485 440.931 150.524 435.782 148.397 430.197L148.313 429.976C148.496 429.287 148.675 428.597 148.854 427.908C149.428 425.696 150.001 423.486 150.703 421.306C151.315 419.394 152.027 417.52 152.739 415.65L152.739 415.649L152.739 415.648L152.739 415.648C153.516 413.606 154.291 411.568 154.933 409.486C157.393 408.866 159.793 408.216 162.063 407.556C167.354 405.997 172.544 404.114 177.603 401.916ZM186.313 462.796L186.313 462.796L186.315 462.796C187.51 463.028 188.703 463.259 189.893 463.496C190.963 463.709 192.08 463.969 193.227 464.236L193.228 464.236C197.9 465.324 203.057 466.525 207.473 465.096C206.273 468.138 205.094 471.18 203.916 474.222C203.13 476.25 202.345 478.278 201.553 480.306C191.123 485.876 174.703 483.466 163.933 480.026C158.303 478.271 153.043 475.498 148.413 471.846C144.183 468.456 137.633 462.326 137.893 456.306C138.086 456.076 138.226 455.806 138.303 455.516C138.488 454.857 138.457 454.156 138.213 453.516C140.589 448.72 142.673 443.784 144.453 438.736C148.383 448.116 158.313 454.926 167.533 458.196H167.563C173.634 460.34 179.995 461.572 186.313 462.796ZM98.2027 272.576C89.7658 267.975 81.6325 262.837 73.8527 257.196L73.8227 257.186C73.5168 261.84 73.1443 266.476 72.7725 271.102C71.5524 286.286 70.34 301.374 71.5127 316.726C72.9427 335.596 77.3927 354.496 86.2227 371.336C93.2127 384.666 104.453 401.736 120.153 405.256C134.373 408.436 151.443 404.376 164.983 399.846C192.034 390.708 215.39 373.04 231.543 349.496C239.183 338.276 245.853 325.316 248.653 311.936C250.443 303.176 248.433 295.436 238.653 293.586C229.893 291.926 220.683 293.816 212.423 296.816C183.253 307.356 159.993 332.856 149.533 361.696C148.013 365.896 141.273 364.066 142.803 359.846C149.367 341.647 160.272 325.325 174.573 312.296C179.776 307.572 185.373 303.299 191.303 299.526C192.416 294.883 194.314 290.244 196.177 285.692C197.174 283.254 198.162 280.841 199.013 278.466C201.743 270.856 204.413 263.226 206.963 255.556C211.923 240.616 216.543 225.616 221.023 210.556C220.478 209.621 220.749 208.425 221.643 207.816L222.033 207.516C222.421 206.856 223.047 206.369 223.783 206.156C231.339 200.353 238.589 194.161 245.503 187.606C252.813 180.576 260.143 173.646 268.503 167.886C270.013 167.023 271.936 167.525 272.833 169.016C283.763 185.194 292.028 203.02 297.313 221.816C297.556 222.608 297.462 223.466 297.051 224.186C296.639 224.906 295.949 225.423 295.143 225.616C293.262 231.617 291.4 237.619 289.537 243.62C288.606 246.619 287.676 249.617 286.743 252.616C293.672 254.23 300.43 256.507 306.923 259.416C311.023 261.166 307.483 267.146 303.413 265.416C293.713 261.286 282.773 256.836 271.993 258.566C263.933 259.826 255.433 265.096 253.663 273.566C251.603 283.386 259.363 292.616 266.473 298.276C273.912 304.119 282.477 308.364 291.633 310.746C307.063 314.826 335.753 314.946 334.353 292.036C333.183 272.926 315.483 255.816 301.003 245.266C300.742 245.072 300.513 244.839 300.323 244.576C299.608 244.353 299.011 243.854 298.665 243.189C298.32 242.524 298.254 241.749 298.483 241.036C308.373 214.306 315.283 187.246 317.043 158.686C317.905 144.776 317.681 130.821 316.373 116.946C315.235 105.281 312.917 93.9465 310.581 82.5237C310.041 79.8842 309.5 77.2399 308.973 74.5858C308.717 73.5541 309.113 72.4703 309.973 71.8458C310.883 68.6604 312.379 65.821 313.887 62.9579C314.6 61.6055 315.315 60.2478 315.973 58.8458C318.581 53.2863 320.053 47.2618 320.303 41.1258C320.703 30.8758 317.833 18.8858 309.653 11.9958C302.203 5.67584 287.693 5.50584 278.473 7.67584C273.255 8.70337 268.801 12.0792 266.403 16.8258C265.773 18.0658 261.383 30.2558 262.613 30.9958L262.733 31.0858C265.903 32.5483 268.964 34.236 271.893 36.1358C275.623 38.5658 272.213 44.5058 268.393 42.1358C251.903 31.9458 233.113 29.0758 214.013 28.6858C194.378 28.3278 174.742 29.2732 155.233 31.5158C135.773 33.7458 116.313 37.7058 98.0327 44.8458C89.2124 48.2837 80.7268 52.5249 72.6827 57.5158C67.3125 60.8792 62.3823 64.756 57.434 68.6471C55.3057 70.3206 53.1741 71.9968 51.0027 73.6358C48.8327 75.2758 46.8727 71.9258 48.3227 70.1658C50.8715 67.0983 53.6748 64.2515 56.7027 61.6558C56.5715 61.442 56.4578 61.218 56.3627 60.9858C52.6227 51.6058 49.1527 43.3558 41.6727 36.1858C38.0927 32.7558 33.5827 29.0258 28.7427 27.5658C23.0727 25.8658 17.6127 29.0358 13.8027 33.0358C6.4727 40.8158 4.7927 52.2058 6.3127 62.4258C7.26044 68.0195 8.79906 73.4969 10.9027 78.7658C11.0475 79.1539 11.1923 79.5493 11.3387 79.9491C12.2034 82.3103 13.1242 84.8248 14.4327 86.8858C15.3399 88.3258 16.4959 89.4237 17.6768 90.5452C18.1361 90.9813 18.5991 91.421 19.0527 91.8858C19.3794 92.2157 19.587 92.6449 19.6427 93.1058C20.2347 93.5695 20.5989 94.2652 20.6427 95.0158C20.8707 98.2476 20.6763 101.515 20.4818 104.785C20.3351 107.252 20.1883 109.72 20.2227 112.176C20.3126 117.891 20.7232 123.597 21.4527 129.266C22.9963 140.435 25.4001 151.467 28.6427 162.266C34.5627 182.636 41.3127 204.156 51.4827 222.856C61.1527 240.646 76.7427 252.756 93.8127 263.016C112.123 274.016 130.473 282.226 151.473 286.316C153.943 286.796 153.263 290.576 150.893 290.576C132.203 290.736 114.123 281.526 98.2027 272.576Z" fill="#231F20"/>
<path fill-rule="evenodd" clip-rule="evenodd" d="M72.1931 138.986C73.9331 133.716 79.6831 126.846 85.8331 128.846C91.2531 130.596 93.3331 136.636 91.9931 141.706C90.8231 146.216 86.9531 153.456 81.4931 153.216C79.1593 153.209 76.9984 151.984 75.7931 149.986C72.3131 147.986 70.8631 143.056 72.1931 138.986ZM80.7031 143.176C81.3345 143.854 82.2544 144.185 83.1731 144.066V144.086C85.2831 143.846 85.4231 141.226 84.5531 139.676C82.8931 136.736 81.7031 139.926 81.1031 141.836C80.9931 142.176 80.8431 142.666 80.7031 143.176Z" fill="#231F20"/>
<path d="M166.843 155.846C180.753 150.756 182.423 131.766 178.613 119.596C178.255 118.424 177.101 117.684 175.887 117.848C174.674 118.012 173.757 119.031 173.723 120.256C173.263 129.796 176.723 142.966 166.723 149.146C154.653 156.626 148.123 137.786 144.963 129.496C144.626 128.328 143.412 127.648 142.24 127.971C141.068 128.294 140.374 129.5 140.683 130.676C143.303 142.976 150.903 161.636 166.843 155.846Z" fill="#231F20"/>
<path fill-rule="evenodd" clip-rule="evenodd" d="M259.583 113.176C258.353 112.516 257.265 111.619 256.383 110.536C255.223 109.462 254.426 108.053 254.103 106.506C253.469 104.229 253.899 101.788 255.273 99.8656C255.901 98.5145 256.804 97.3089 257.923 96.3256C257.949 96.297 257.973 96.2684 257.998 96.2395C258.051 96.1774 258.105 96.1139 258.173 96.0456C259.864 94.4004 262.169 93.5436 264.523 93.6856C268.325 94.1012 271.418 96.9348 272.163 100.686C276.733 108.556 267.373 117.446 259.583 113.176ZM261.193 102.626C261.071 103.26 260.65 103.796 260.063 104.066C260.045 104.208 260.039 104.352 260.043 104.496C260.054 104.644 260.077 104.791 260.113 104.936C260.603 107.076 263.683 106.226 264.873 105.226C265.519 104.693 265.964 103.956 266.133 103.136C265.693 102.733 265.161 102.445 264.583 102.296C263.45 102.006 262.25 102.122 261.193 102.626Z" fill="#231F20"/>
<path d="M288.962 134.416C289.549 134.68 290.154 134.901 290.772 135.076C292.279 135.494 293.886 134.92 294.787 133.642C295.688 132.364 295.688 130.658 294.787 129.379C293.886 128.101 292.279 127.527 290.772 127.946C290.148 128.099 289.542 128.317 288.962 128.596C287.864 129.15 287.172 130.276 287.172 131.506C287.172 132.736 287.864 133.861 288.962 134.416Z" fill="#231F20"/>
<path d="M68.533 183.976C67.4712 184.555 66.8041 185.661 66.7874 186.87C66.7708 188.08 67.4072 189.204 68.4526 189.812C69.498 190.42 70.79 190.418 71.833 189.806C73.3959 188.847 73.9252 186.827 73.033 185.226C72.1185 183.66 70.124 183.106 68.533 183.976Z" fill="#231F20"/>
</svg>
