<svg width="482" height="581" viewBox="0 0 482 581" fill="none" xmlns="http://www.w3.org/2000/svg">
<path d="M260.892 393.761C259.186 393.786 257.61 394.679 256.712 396.131C255.462 398.131 255.872 401.221 258.202 402.211C262.802 404.181 265.722 395.411 260.892 393.761Z" fill="white"/>
<path d="M80.1913 397.681H80.1213C79.4289 399.573 79.8709 401.694 81.2613 403.151C83.5813 405.391 84.8113 402.961 84.8413 400.571C84.8813 397.311 82.7713 397.171 80.1913 397.681Z" fill="white"/>
<path fill-rule="evenodd" clip-rule="evenodd" d="M408.921 323.241C409.801 339.571 400.301 355.311 382.801 356.241C367.031 357.081 349.351 342.601 352.351 325.791C354.241 315.181 364.351 305.221 375.451 300.931C376.287 301.135 377.168 301.039 377.941 300.661C379.182 300.043 380.478 299.54 381.811 299.161C384.502 298.668 387.254 298.617 389.961 299.011C390.427 299.083 390.904 299.042 391.351 298.891C401.261 301.331 408.331 312.121 408.921 323.241ZM383.171 312.241C379.783 311.873 376.398 312.964 373.861 315.241V315.271C365.141 318.511 363.011 331.231 366.741 339.011C371.191 348.371 382.411 350.871 390.811 345.311C399.211 339.751 402.541 328.311 395.541 320.311C392.401 316.711 388.101 312.831 383.171 312.241Z" fill="#58595B"/>
<path d="M385.782 338.341C389.622 335.871 392.322 330.581 389.342 326.531C387.904 324.591 386.133 322.922 384.112 321.601C380.362 319.471 378.502 322.141 376.192 324.601C375.414 325.456 374.268 325.878 373.122 325.731C372.032 329.391 372.562 334.001 374.252 336.361C377.032 340.251 381.822 340.891 385.782 338.341Z" fill="white"/>
<path fill-rule="evenodd" clip-rule="evenodd" d="M300.961 222.691C300.408 223.448 300.079 224.345 300.011 225.281C296.434 269.043 300.487 312.761 304.537 356.452V356.453V356.453V356.454V356.454C308.854 403.016 313.168 449.547 308.241 496.071C266.852 490.438 225.006 491.225 183.335 492.009L180.071 492.071C141.058 492.81 101.809 489.16 62.8813 485.539C58.6338 485.144 54.3902 484.749 50.1511 484.361C46.6511 397.121 42.8078 309.924 38.6211 222.771C59.8211 225.031 81.4211 224.201 102.621 222.491C126.036 220.513 149.538 219.769 173.031 220.261C185.021 220.544 197.003 221.053 208.984 221.562C220.256 222.041 231.526 222.52 242.801 222.811C254.411 223.111 266.041 223.181 277.651 222.881C283.461 222.721 289.251 222.441 295.051 222.091C295.341 222.076 295.727 222.023 296.166 221.962C297.756 221.744 300.03 221.433 300.861 222.491C300.901 222.541 300.961 222.631 300.961 222.691ZM72.3811 393.751C68.8611 400.861 72.4811 410.571 80.2911 412.861C89.3511 415.531 95.2911 405.951 93.9311 397.921C93.6093 395.948 92.8169 394.082 91.6211 392.481C91.7547 391.545 91.4268 390.602 90.7411 389.951C85.0811 384.701 75.7211 387.011 72.3811 393.751ZM175.481 456.311C163.481 457.761 152.601 443.081 154.021 431.931C154.541 427.791 160.591 427.521 160.681 431.931C160.811 438.311 170.111 451.931 177.031 445.931C181.178 442.319 181.592 436.907 181.994 431.646V431.645C182.186 429.143 182.374 426.675 182.961 424.451C183.961 420.601 189.041 421.111 190.271 424.451C194.051 434.781 187.931 454.791 175.481 456.311ZM255.341 411.421C263.241 414.271 270.971 408.761 272.841 401.001C274.581 393.791 270.161 383.681 261.811 385.371C256.503 384.671 251.29 387.205 248.561 391.811C244.341 398.891 247.441 408.571 255.341 411.421ZM288.481 320.951C286.232 312.132 286.336 302.3 286.439 292.677C286.491 287.71 286.543 282.798 286.271 278.111C285.95 272.612 285.401 267.073 284.852 261.523V261.523C283.897 251.883 282.939 242.208 283.161 232.651C283.166 232.279 283.442 231.967 283.81 231.917C284.178 231.867 284.527 232.094 284.631 232.451C288.84 245.557 289.813 260.187 290.73 273.98V273.981C290.787 274.837 290.844 275.691 290.901 276.541C291.079 279.162 291.316 281.882 291.559 284.662V284.662C292.612 296.731 293.763 309.921 290.561 320.951C290.419 321.405 289.997 321.714 289.521 321.714C289.045 321.714 288.624 321.405 288.481 320.951ZM293.546 364.362C294.267 364.264 294.823 363.676 294.881 362.951V362.981C295.677 356.088 294.116 348.33 292.702 341.301C292.5 340.295 292.3 339.303 292.111 338.331C291.921 337.331 290.391 337.561 290.391 338.561C290.369 339.47 290.342 340.395 290.315 341.332C290.104 348.581 289.871 356.551 291.881 363.361C292.132 364.044 292.825 364.461 293.546 364.362Z" fill="#88E0FF"/>
<path d="M429.792 404.091C429.982 400.661 430.152 396.191 429.392 395.411C428.042 394.021 418.962 394.991 416.882 394.941C408.022 394.734 399.159 394.801 390.292 395.141C374.292 395.751 357.472 399.391 341.502 397.201C341.752 400.281 341.992 403.361 342.202 406.451C371.336 410.375 400.912 409.578 429.792 404.091Z" fill="#58595B"/>
<path fill-rule="evenodd" clip-rule="evenodd" d="M398.583 517.55C393.92 517.69 389.316 517.829 384.831 518.071C267.481 524.401 150.471 521.511 33.2313 514.721C31.5717 514.545 29.9772 515.418 29.2313 516.911C29.14 516.904 29.0473 516.892 28.9537 516.881C28.7913 516.861 28.6263 516.841 28.4613 516.841C20.8013 515.821 18.8813 511.351 18.3413 504.141C17.6253 494.676 17.4249 485.107 17.2253 475.577C17.1295 471.001 17.0338 466.433 16.8813 461.891C16.4871 450.626 16.044 439.36 15.6009 428.095L15.6008 428.094L15.6008 428.093L15.6007 428.091L15.6007 428.091L15.6007 428.09C15.0212 413.357 14.4417 398.624 13.9713 383.891C13.1822 359.022 12.4686 334.153 11.755 309.283L11.7549 309.283L11.7549 309.283L11.7549 309.282L11.7549 309.282C10.9764 282.152 10.1979 255.021 9.32135 227.891C9.26996 226.33 9.1597 224.627 9.04381 222.837C8.37042 212.436 7.50653 199.092 16.8913 193.581C24.4781 189.143 35.4369 188.868 45.1529 188.624H45.153C48.1795 188.548 51.0855 188.476 53.7313 188.281C79.1514 186.431 104.611 185.491 130.091 185.031C156.779 184.555 183.467 184.601 210.154 184.648C234.467 184.691 258.779 184.734 283.091 184.381C309.601 184.031 336.141 183.201 362.601 181.381C374.241 180.581 385.871 179.601 397.471 178.381C400.229 178.09 402.995 177.751 405.765 177.41C414.255 176.366 422.794 175.316 431.321 175.671C441.001 176.071 450.941 178.771 456.461 187.411C461.799 195.763 462.294 206.635 462.75 216.627C462.84 218.598 462.928 220.534 463.051 222.411C464.745 248.077 466.158 273.767 467.291 299.481C469.541 350.891 470.601 402.341 470.901 453.791C470.918 456.71 471.04 459.745 471.163 462.834L471.163 462.837V462.837C471.543 472.351 471.943 482.377 469.391 491.111C466.461 501.131 458.681 507.251 449.211 510.741C433.538 516.499 415.668 517.036 398.583 517.55H398.583ZM440.241 492.561C442.205 492.014 443.565 490.229 443.571 488.191C443.547 487.016 443.611 485.651 443.678 484.19C443.95 478.3 444.295 470.843 439.311 467.951C436.934 466.564 434.052 466.513 431.302 466.464H431.301H431.299C430.719 466.454 430.144 466.443 429.581 466.421C423.848 466.181 418.111 466.061 412.371 466.061C401.931 466.041 391.511 466.414 381.111 467.181C377.949 467.413 374.757 467.781 371.553 468.151C362.75 469.166 353.852 470.193 345.201 468.441C344.105 468.197 342.957 468.391 342.001 468.981C341.007 468.89 340.023 469.247 339.318 469.954C338.612 470.662 338.258 471.646 338.351 472.641C338.529 477.627 338.83 482.605 339.13 487.589C339.184 488.482 339.238 489.377 339.291 490.271C339.381 491.871 340.461 493.861 342.241 494.141C374.741 499.465 407.931 498.93 440.241 492.561ZM441.131 448.031C441.122 450.073 439.758 451.861 437.791 452.411C405.481 458.78 372.291 459.315 339.791 453.991C338.001 453.701 336.931 451.721 336.841 450.111C336.787 449.191 336.731 448.272 336.675 447.352L336.675 447.339L336.674 447.336C336.376 442.391 336.077 437.444 335.891 432.491C335.798 431.494 336.153 430.507 336.861 429.797C337.568 429.088 338.554 428.73 339.551 428.821C340.508 428.234 341.656 428.044 342.751 428.291C351.394 430.041 360.284 429.013 369.079 427.995L369.079 427.995C372.292 427.624 375.491 427.254 378.661 427.021C389.061 426.261 399.481 425.887 409.921 425.901C415.661 425.901 421.395 426.024 427.121 426.271C427.689 426.294 428.267 426.304 428.851 426.314C431.603 426.363 434.477 426.413 436.861 427.791C441.854 430.684 441.51 438.143 441.238 444.034C441.17 445.494 441.108 446.857 441.131 448.031ZM362.771 299.091C353.101 305.091 345.411 314.611 343.871 326.091C340.841 348.601 364.141 366.981 385.291 365.121C409.281 362.991 421.751 339.341 417.751 317.121C414.351 298.121 393.711 281.681 375.931 293.011C371.292 294.439 366.866 296.484 362.771 299.091ZM337.121 388.681C338.081 388.091 339.232 387.898 340.331 388.141C348.984 389.893 357.883 388.866 366.683 387.85L366.684 387.85C369.885 387.481 373.073 387.113 376.231 386.881C386.631 386.114 397.055 385.741 407.501 385.761C413.235 385.761 418.968 385.881 424.701 386.121C425.265 386.143 425.84 386.154 426.421 386.164C429.172 386.213 432.054 386.264 434.431 387.651C439.412 390.541 439.064 397.991 438.79 403.879C438.721 405.344 438.657 406.713 438.681 407.891C438.675 409.929 437.315 411.714 435.351 412.261C403.041 418.63 369.851 419.165 337.351 413.841C335.571 413.561 334.501 411.571 334.401 409.971C334.333 408.784 334.263 407.598 334.192 406.412L334.192 406.411C333.914 401.72 333.637 397.034 333.461 392.341C333.368 391.344 333.723 390.358 334.431 389.65C335.138 388.942 336.125 388.587 337.121 388.681ZM85.0366 496.205C116.148 498.885 147.295 501.567 178.491 501.061C183.469 500.975 188.444 500.868 193.417 500.762C210.484 500.396 227.531 500.031 244.621 500.511C262.701 501.016 280.671 502.525 298.671 504.037C303.112 504.41 307.555 504.783 312.001 505.141C314.461 505.341 316.051 503.021 316.261 500.881C321.001 453.348 317.224 406.021 313.446 358.697C310.099 316.765 306.752 274.836 309.331 232.771C311.971 226.351 312.131 215.981 304.811 212.711C301.728 211.331 298.055 211.679 294.61 212.006C293.685 212.094 292.777 212.18 291.901 212.231C285.571 212.611 279.231 212.831 272.901 212.951C251.326 213.359 229.756 212.537 208.199 211.716C202.819 211.511 197.44 211.307 192.061 211.121C165.761 210.221 139.511 210.081 113.271 212.281C87.2781 214.455 61.1911 215.306 35.1113 214.831C34.1744 214.736 33.2418 215.048 32.5497 215.686C31.8576 216.325 31.4723 217.229 31.4913 218.171C31.0957 218.798 30.8972 219.53 30.9213 220.271C32.4113 309.611 35.7613 399.311 41.2013 488.501C41.2695 490.99 43.2717 492.993 45.7613 493.061C58.8475 493.95 71.9389 495.077 85.0366 496.205Z" fill="#754C29"/>
<path d="M419.352 435.091C410.492 434.891 401.629 434.958 392.762 435.291C376.762 435.901 359.942 439.541 343.982 437.351C344.222 440.431 344.462 443.521 344.682 446.611C373.813 450.534 403.385 449.738 432.262 444.251C432.452 440.821 432.622 436.351 431.862 435.561C430.482 434.181 421.402 435.141 419.352 435.091Z" fill="#58595B"/>
<path d="M385.602 527.901C386.122 536.131 386.672 544.321 388.002 552.481C388.732 557.001 390.472 575.791 399.642 570.091C404.912 566.811 403.922 552.191 403.972 546.881C404.032 540.231 404.082 533.721 405.462 527.241C398.792 527.521 392.142 527.681 385.602 527.901Z" fill="#58595B"/>
<path d="M85.0113 569.061C93.4413 567.191 93.5413 551.971 94.2813 545.401C94.9013 539.831 95.2813 534.241 95.6113 528.641C87.2647 528.161 78.9313 527.631 70.6113 527.051C71.5813 537.391 73.7913 571.541 85.0113 569.061Z" fill="#58595B"/>
<path d="M305.351 174.601C311.891 174.434 318.431 174.221 324.971 173.961C323.221 165.961 310.661 158.541 304.971 154.301C298.473 149.426 291.628 145.031 284.491 141.151C268.329 132.361 250.12 128.03 231.731 128.601C197.251 129.511 158.531 140.511 145.781 175.661C198.991 174.981 252.201 175.991 305.351 174.601Z" fill="#58595B"/>
<path d="M421.773 475.251C412.899 475.045 404.036 475.111 395.183 475.451C379.183 476.061 362.363 479.701 346.393 477.511C346.646 480.591 346.879 483.675 347.093 486.761C376.223 490.684 405.796 489.888 434.673 484.401C434.863 480.981 435.033 476.501 434.273 475.721C432.923 474.331 423.843 475.301 421.773 475.251Z" fill="#58595B"/>
<path fill-rule="evenodd" clip-rule="evenodd" d="M67.7616 561.561C70.0716 569.761 73.9716 578.941 84.0416 578.311C93.0416 577.761 98.5016 570.151 100.712 562.091C103.592 551.611 104.292 540.091 104.772 529.151C195.252 533.911 286.272 532.851 376.562 528.281C376.57 540.416 377.939 552.511 380.642 564.341C382.592 572.901 386.822 579.061 396.052 580.231C413.247 582.402 413.788 558.322 414.176 541.107C414.3 535.565 414.409 530.735 415.052 527.721C415.12 527.392 415.157 527.057 415.162 526.721C426.282 525.951 437.282 524.541 447.692 521.531C466.832 516.011 479.062 503.111 480.642 482.881C482.281 461.939 481.61 440.479 480.947 419.256L480.947 419.251C480.736 412.516 480.527 405.804 480.392 399.141C479.825 370.741 478.918 342.344 477.672 313.951C476.425 285.031 474.838 256.128 472.912 227.241C472.772 225.137 472.66 222.962 472.545 220.742C471.607 202.576 470.515 181.433 453.192 171.631C438.285 163.192 419.331 165.812 402.141 168.189C397.801 168.789 393.573 169.374 389.552 169.761C371.282 171.531 352.962 172.761 334.622 173.571C333.902 165.571 327.492 160.191 321.472 155.151C314.019 148.823 306.144 143.009 297.902 137.751C314.153 114.577 329.474 90.707 344.787 66.8487L344.789 66.8466C352.749 54.4449 360.706 42.0465 368.792 29.751C369.639 30.0048 370.517 30.1361 371.402 30.141C381.732 33.741 395.902 18.691 387.142 6.14098C376.142 -9.66903 354.632 8.29097 362.092 23.511C355.773 33.1598 349.378 42.7793 342.98 52.4045L342.98 52.4053L342.979 52.4061C325.168 79.2011 307.327 106.04 291.002 133.681C273.662 124.141 254.812 118.911 234.772 119.191C213.242 119.501 187.372 124.061 167.452 135.891C159.676 124.917 151.352 114.301 143.031 103.687L143.031 103.686L143.03 103.686L143.03 103.686L143.03 103.685C136.026 94.7522 129.024 85.821 122.352 76.681C118.698 71.661 115.078 66.6143 111.492 61.541C110.785 60.5464 109.84 59.4167 108.824 58.2031C105.817 54.609 102.195 50.2788 102.322 46.541C102.365 45.2261 102.882 43.9803 103.415 42.6934C104.099 41.0442 104.811 39.3275 104.592 37.311C104.214 33.7709 102.628 30.4691 100.102 27.961C88.9316 16.961 71.1016 29.091 73.0416 43.281C74.5716 54.531 87.6616 59.531 95.0916 53.971C95.6543 54.7913 96.2611 55.5784 96.857 56.3512C97.3943 57.0481 97.9227 57.7334 98.4016 58.421C102.622 64.321 106.875 70.191 111.162 76.031C114.095 80.0271 117.019 84.0586 119.952 88.1015L119.953 88.103C132.908 105.963 146.025 124.046 160.752 140.281C149.162 148.831 140.412 160.391 137.102 175.761H136.422C107.772 176.241 79.0916 177.231 50.5216 179.521C48.6376 179.672 46.6951 179.801 44.7192 179.933L44.7183 179.933C25.9186 181.184 4.09443 182.636 0.791622 205.131C-0.510621 214.042 0.0604567 223.37 0.621374 232.533C0.827159 235.894 1.03158 239.233 1.14162 242.521C1.62829 257.141 2.12162 271.764 2.62162 286.391C3.17152 302.179 3.78795 317.963 4.40438 333.748L4.4044 333.748C4.90895 346.668 5.41352 359.589 5.88162 372.511C6.48506 389.169 6.9168 405.828 7.34874 422.494L7.34875 422.494C7.66124 434.551 7.97383 446.613 8.35162 458.681C8.56174 465.081 8.75844 471.482 8.95514 477.884L8.95516 477.885C9.20782 486.108 9.4605 494.331 9.74162 502.551C10.0316 511.361 11.6016 519.681 20.5116 523.441C26.2816 525.881 32.7516 525.661 38.9316 524.671C46.9316 525.338 54.9616 525.971 63.0216 526.571C62.4116 538.181 64.6216 550.411 67.7616 561.561ZM94.2816 545.401C94.1874 546.237 94.1036 547.214 94.0116 548.286C93.3811 555.63 92.3683 567.429 85.0116 569.061C74.6068 571.361 71.9503 542.16 70.8138 529.667C70.7247 528.688 70.645 527.811 70.5716 527.061C78.9116 527.641 87.245 528.171 95.5716 528.651C95.3516 534.241 94.9016 539.831 94.2816 545.401ZM388.215 553.928C389.083 560.033 391.255 575.304 399.642 570.091C404.224 567.239 404.073 555.815 403.989 549.391C403.976 548.426 403.965 547.574 403.972 546.881L403.973 546.749V546.748C404.032 540.154 404.091 533.678 405.462 527.241C401.103 527.424 396.752 527.556 392.435 527.686C390.147 527.756 387.868 527.825 385.602 527.901C386.122 536.131 386.672 544.321 388.002 552.481C388.064 552.867 388.134 553.358 388.215 553.928ZM231.752 128.601C250.14 128.03 268.35 132.361 284.512 141.151C291.649 145.031 298.493 149.426 304.992 154.301C305.925 154.995 307.042 155.775 308.265 156.63C314.514 160.994 323.536 167.296 324.992 173.961C318.452 174.214 311.912 174.428 305.372 174.601C274.166 175.417 242.949 175.406 211.733 175.395C189.751 175.388 167.77 175.38 145.792 175.661C158.552 140.511 197.272 129.511 231.752 128.601ZM29.2316 516.871C29.9775 515.378 31.572 514.505 33.2316 514.681C150.472 521.511 267.482 524.401 384.832 518.031C389.336 517.788 393.96 517.651 398.643 517.512C415.711 517.006 433.557 516.476 449.212 510.701C458.682 507.211 466.462 501.071 469.392 491.071C471.943 482.337 471.543 472.311 471.163 462.797C471.04 459.707 470.919 456.671 470.902 453.751C470.602 402.301 469.542 350.851 467.292 299.441C466.165 273.728 464.752 248.038 463.052 222.371C462.928 220.496 462.84 218.56 462.75 216.588C462.294 206.604 461.798 195.722 456.462 187.371C450.942 178.731 441.002 176.031 431.322 175.631C422.794 175.277 414.256 176.326 405.766 177.37C402.995 177.711 400.23 178.051 397.472 178.341C385.872 179.551 374.242 180.531 362.602 181.341C336.142 183.131 309.612 183.961 283.092 184.341C258.779 184.694 234.467 184.651 210.155 184.608C183.467 184.562 156.779 184.515 130.092 184.991C104.612 185.451 79.1516 186.391 53.7316 188.241C51.0861 188.436 48.1834 188.509 45.1609 188.585C35.4562 188.828 24.5168 189.103 16.8916 193.541C7.48619 199.045 8.35814 212.358 9.03894 222.752C9.15726 224.559 9.2698 226.277 9.32162 227.851C10.1216 253.063 10.8464 278.275 11.5712 303.487C12.3412 330.275 13.1113 357.063 13.9716 383.851C14.4032 397.371 14.9403 410.891 15.4773 424.411C15.9731 436.891 16.4688 449.371 16.8816 461.851C17.0278 466.312 17.1214 470.789 17.2152 475.272C17.4165 484.899 17.6184 494.549 18.3416 504.101C18.8816 511.311 20.8016 515.801 28.4616 516.801C28.7216 516.871 28.9816 516.871 29.2316 516.871Z" fill="#231F20"/>
<path fill-rule="evenodd" clip-rule="evenodd" d="M313.437 358.717C317.214 406.041 320.992 453.368 316.252 500.901C316.042 503.041 314.452 505.361 311.982 505.181C307.631 504.831 303.285 504.467 298.939 504.103C280.843 502.588 262.778 501.075 244.602 500.551C227.623 500.058 210.679 500.419 193.717 500.78C188.641 500.888 183.563 500.996 178.482 501.081C147.275 501.574 116.117 498.895 84.9952 496.219C71.9082 495.094 58.8275 493.969 45.7521 493.081C43.2625 493.013 41.2602 491.011 41.1921 488.521C35.7521 399.291 32.4021 309.631 30.9121 220.291C30.888 219.55 31.0865 218.818 31.4821 218.191C31.463 217.249 31.8483 216.345 32.5405 215.706C33.2326 215.068 34.1652 214.756 35.1021 214.851C61.1818 215.326 87.2689 214.475 113.262 212.301C139.502 210.141 165.752 210.241 192.052 211.141C197.437 211.327 202.822 211.532 208.206 211.737C229.748 212.558 251.291 213.379 272.892 212.971C279.232 212.851 285.572 212.631 291.892 212.251C292.769 212.2 293.677 212.114 294.601 212.026C298.041 211.699 301.704 211.352 304.802 212.731C312.122 216.001 311.962 226.371 309.322 232.791C306.743 274.857 310.09 316.785 313.437 358.717ZM308.242 496.11C308.246 496.11 308.249 496.111 308.252 496.111H308.242C308.242 496.111 308.242 496.11 308.242 496.11ZM182.602 492.061C224.516 491.235 266.61 490.405 308.242 496.11C313.169 449.568 308.855 403.029 304.54 356.47C300.491 312.777 296.44 269.067 300.022 225.321C300.09 224.386 300.419 223.488 300.972 222.731C300.932 222.671 300.872 222.581 300.872 222.531C300.041 221.473 297.767 221.785 296.177 222.003C295.738 222.063 295.352 222.116 295.062 222.131C289.262 222.481 283.472 222.761 277.662 222.921C266.052 223.221 254.422 223.151 242.812 222.851C231.472 222.558 220.137 222.078 208.8 221.598C196.884 221.093 184.967 220.588 173.042 220.301C149.549 219.809 126.047 220.553 102.632 222.531C81.4321 224.241 59.8321 225.071 38.6321 222.811C42.8988 310.011 46.7421 397.208 50.1621 484.401C54.4012 484.79 58.6449 485.184 62.8923 485.579C101.82 489.2 141.069 492.85 180.082 492.111L182.602 492.061Z" fill="#231F20"/>
<path fill-rule="evenodd" clip-rule="evenodd" d="M395.542 320.361C402.502 328.361 399.212 339.771 390.812 345.361C382.352 351.001 371.192 348.421 366.742 339.081C363.012 331.291 365.142 318.531 373.862 315.291C376.399 313.014 379.784 311.923 383.172 312.291C388.102 312.881 392.402 316.761 395.542 320.361ZM376.192 324.601C375.415 325.456 374.269 325.878 373.122 325.731C372.032 329.391 372.562 334.001 374.252 336.341C377.032 340.251 381.942 340.811 385.782 338.341C389.622 335.871 392.342 330.531 389.342 326.531C387.904 324.591 386.134 322.922 384.112 321.601C380.71 319.668 378.863 321.687 376.825 323.915C376.617 324.143 376.406 324.373 376.192 324.601Z" fill="#231F20"/>
<path fill-rule="evenodd" clip-rule="evenodd" d="M417.751 317.111C421.731 339.341 409.291 362.991 385.291 365.111C364.141 366.981 340.841 348.601 343.871 326.131C345.411 314.601 353.101 305.131 362.771 299.131C366.865 296.524 371.291 294.479 375.931 293.051C393.751 281.711 414.341 298.111 417.751 317.111ZM375.451 300.961C364.351 305.221 354.241 315.181 352.351 325.791C349.351 342.601 367.031 357.081 382.801 356.271C400.301 355.271 409.791 339.571 408.921 323.271C408.351 312.151 401.261 301.361 391.351 298.921C390.904 299.073 390.427 299.114 389.961 299.041C387.254 298.647 384.501 298.698 381.811 299.191C380.477 299.571 379.182 300.073 377.941 300.691C377.168 301.07 376.287 301.165 375.451 300.961Z" fill="#231F20"/>
<path fill-rule="evenodd" clip-rule="evenodd" d="M90.7407 389.951C91.4264 390.602 91.7543 391.545 91.6207 392.481C92.8165 394.082 93.6089 395.948 93.9307 397.921C95.2907 405.951 89.3507 415.531 80.2907 412.861C72.4807 410.571 68.8607 400.861 72.3807 393.751C75.7407 387.011 85.0807 384.701 90.7407 389.951ZM80.1207 397.701C79.4282 399.592 79.8702 401.713 81.2607 403.171C83.5807 405.411 84.8107 402.981 84.8407 400.601C84.8807 397.321 82.7707 397.181 80.1907 397.701H80.1207Z" fill="#231F20"/>
<path fill-rule="evenodd" clip-rule="evenodd" d="M248.562 391.811C251.291 387.205 256.505 384.671 261.812 385.371C270.162 383.681 274.582 393.791 272.842 401.001C270.972 408.761 263.122 414.251 255.342 411.421C247.562 408.591 244.342 398.891 248.562 391.811ZM256.712 396.131C255.462 398.121 255.872 401.211 258.202 402.211C262.802 404.181 265.722 395.411 260.892 393.761C259.186 393.786 257.61 394.679 256.712 396.131Z" fill="#231F20"/>
<path d="M182.961 424.421C181.141 431.321 183.151 440.571 177.031 445.901C170.111 451.901 160.811 438.311 160.681 431.901C160.591 427.491 154.541 427.761 154.021 431.901C152.601 443.051 163.511 457.731 175.481 456.281C187.931 454.761 194.051 434.751 190.271 424.391C189.041 421.081 183.971 420.571 182.961 424.421Z" fill="#231F20"/>
<path fill-rule="evenodd" clip-rule="evenodd" d="M435.352 412.251C403.041 418.62 369.851 419.155 337.352 413.831C335.582 413.551 334.512 411.561 334.412 409.961C334.343 408.775 334.273 407.589 334.203 406.403C333.925 401.712 333.647 397.025 333.472 392.331C333.378 391.336 333.733 390.352 334.438 389.645C335.143 388.937 336.127 388.58 337.122 388.671C338.081 388.081 339.232 387.888 340.332 388.131C348.984 389.883 357.884 388.856 366.684 387.841C369.885 387.471 373.073 387.103 376.232 386.871C386.652 386.124 397.075 385.751 407.502 385.751C413.235 385.751 418.968 385.871 424.702 386.111C425.265 386.134 425.84 386.144 426.422 386.154C429.172 386.203 432.054 386.254 434.432 387.641C439.43 390.528 439.075 397.964 438.794 403.849C438.723 405.322 438.658 406.698 438.682 407.881C438.676 409.919 437.315 411.705 435.352 412.251ZM416.872 394.941C408.005 394.734 399.142 394.801 390.282 395.141H390.292C384.898 395.347 379.396 395.901 373.859 396.458C363.031 397.547 352.064 398.65 341.492 397.201C341.742 400.281 341.982 403.361 342.192 406.451C371.326 410.374 400.901 409.578 429.782 404.091C429.972 400.661 430.142 396.191 429.382 395.411C428.368 394.367 422.997 394.654 419.503 394.841C418.343 394.903 417.39 394.953 416.872 394.941Z" fill="#231F20"/>
<path fill-rule="evenodd" clip-rule="evenodd" d="M428.871 426.314C431.623 426.363 434.497 426.413 436.881 427.791C441.843 430.675 441.512 438.099 441.25 443.981C441.185 445.461 441.123 446.843 441.151 448.031C441.142 450.073 439.778 451.861 437.811 452.411C405.5 458.78 372.31 459.315 339.811 453.991C338.021 453.701 336.951 451.721 336.861 450.111C336.806 449.187 336.75 448.263 336.694 447.339C336.395 442.393 336.097 437.445 335.911 432.491C335.818 431.494 336.173 430.507 336.88 429.797C337.588 429.088 338.574 428.73 339.571 428.821C340.528 428.234 341.676 428.044 342.771 428.291C351.414 430.041 360.304 429.013 369.099 427.995C372.311 427.624 375.511 427.254 378.681 427.021C389.094 426.274 399.514 425.901 409.941 425.901C415.674 425.908 421.408 426.031 427.141 426.271C427.708 426.294 428.287 426.304 428.871 426.314ZM344.651 446.611C373.782 450.534 403.354 449.737 432.231 444.251C432.421 440.821 432.591 436.351 431.831 435.561C430.777 434.484 425.013 434.802 421.545 434.993C420.57 435.047 419.777 435.091 419.321 435.091C410.454 434.884 401.591 434.951 392.731 435.291C387.315 435.498 381.805 436.052 376.264 436.61C365.456 437.699 354.529 438.799 343.951 437.351C344.191 440.431 344.431 443.521 344.651 446.611Z" fill="#231F20"/>
<path fill-rule="evenodd" clip-rule="evenodd" d="M431.341 466.464C434.092 466.513 436.974 466.564 439.351 467.951C444.297 470.84 443.953 478.283 443.679 484.19C443.611 485.664 443.547 487.043 443.571 488.231C443.565 490.269 442.205 492.055 440.241 492.601C407.93 498.97 374.741 499.505 342.241 494.181C340.461 493.901 339.381 491.911 339.291 490.311C339.238 489.417 339.184 488.523 339.13 487.629C338.83 482.645 338.529 477.667 338.351 472.681C338.243 471.672 338.597 470.669 339.313 469.95C340.029 469.232 341.032 468.876 342.041 468.981C342.997 468.391 344.145 468.197 345.241 468.441C353.892 470.193 362.79 469.167 371.593 468.151C374.797 467.781 377.989 467.413 381.151 467.181C391.565 466.434 401.985 466.061 412.411 466.061C418.145 466.061 423.881 466.181 429.621 466.421C430.185 466.444 430.76 466.454 431.341 466.464ZM347.121 486.761C376.252 490.684 405.824 489.887 434.701 484.401H434.671C434.861 480.981 435.031 476.501 434.301 475.721C433.287 474.677 427.913 474.964 424.423 475.151C423.266 475.213 422.317 475.263 421.801 475.251C412.935 475.044 404.071 475.111 395.211 475.451C389.791 475.658 384.277 476.213 378.734 476.771C367.923 477.859 356.997 478.959 346.421 477.511C346.668 480.591 346.901 483.674 347.121 486.761Z" fill="#231F20"/>
<path d="M290.561 320.951C294.501 307.381 291.851 290.501 290.901 276.541C289.901 262.011 289.101 246.371 284.631 232.451C284.527 232.094 284.178 231.867 283.81 231.918C283.442 231.968 283.166 232.28 283.161 232.651C282.811 247.711 285.391 263.061 286.271 278.111C287.071 291.881 285.071 307.581 288.481 320.951C288.624 321.405 289.045 321.715 289.521 321.715C289.998 321.715 290.419 321.405 290.561 320.951Z" fill="#231F20"/>
<path d="M290.352 338.591C290.162 346.531 289.572 355.701 291.842 363.391C292.093 364.074 292.786 364.491 293.507 364.392C294.228 364.294 294.784 363.707 294.842 362.981C295.752 355.101 293.582 346.091 292.052 338.361C291.902 337.361 290.352 337.681 290.352 338.591Z" fill="#231F20"/>
</svg>
