<svg width="425" height="582" viewBox="0 0 425 582" fill="none" xmlns="http://www.w3.org/2000/svg">
<path d="M391.268 200.59C380.558 202.81 367.108 202.77 357.838 196.41C358.232 199.267 358.452 202.146 358.498 205.03C368.818 209.03 378.328 212.26 389.928 209.61C395.652 208.298 401.06 205.864 405.838 202.45C409.758 199.65 412.608 195.81 416.188 192.75C416.188 191.53 416.188 190.3 416.188 189.08L415.518 189.6C408.341 195.002 400.061 198.754 391.268 200.59Z" fill="#A97C50"/>
<path d="M146.467 574.09C149.327 577.99 158.747 570.18 160.747 568.35C186.337 544.93 202.337 512.28 208.397 478.4C196.187 480.34 183.937 482.4 171.647 484.04C176.757 500.22 171.647 519.56 165.517 534.57C161.679 543.634 157.373 552.493 152.617 561.11C151.407 563.37 145.267 572.46 146.467 574.09Z" fill="#A97C50"/>
<path d="M71.0082 385.8C68.8182 387.3 69.1182 389.32 70.3382 390.59C70.9013 390.854 71.5165 390.987 72.1382 390.98C77.8182 391 74.2882 383.54 71.0082 385.8Z" fill="white"/>
<path fill-rule="evenodd" clip-rule="evenodd" d="M214.797 470.05C213.241 469.283 211.371 469.562 210.107 470.75C207.22 471.168 204.33 471.567 201.444 471.965L201.442 471.965L201.441 471.965L201.441 471.965C196.321 472.671 191.219 473.375 186.187 474.18C185.033 474.349 183.879 474.519 182.726 474.689L182.699 474.693L182.671 474.697C170.536 476.483 158.407 478.268 146.187 479.18C120.487 481 95.417 478 72.717 465.18C72.0659 464.789 71.2937 464.65 70.547 464.79C62.3579 459.366 55.4728 452.194 50.387 443.79C50.1734 443.456 49.975 443.101 49.7773 442.747C49.6974 442.604 49.6176 442.461 49.537 442.32C50.5725 442.123 51.6163 441.929 52.6659 441.735C55.0726 441.288 57.5098 440.836 59.947 440.32C63.137 439.65 62.217 435.07 59.217 434.89C54.913 434.662 50.5972 434.965 46.367 435.79C45.1209 432.729 44.1471 429.563 43.457 426.33C45.2051 426.33 46.9522 426.349 48.7011 426.368C52.2044 426.406 55.7151 426.444 59.257 426.33C62.337 426.22 63.207 421.55 60.007 420.79C54.2336 419.487 48.3055 419.002 42.397 419.35C41.307 407.71 43.467 395.71 47.007 383.71C50.1306 373.034 54.062 362.61 58.767 352.53C63.317 342.84 68.237 332.71 76.317 325.53C91.424 312.125 114.096 312.223 133.21 312.306L134.167 312.31C166.837 312.4 201.707 317.8 225.247 340.4C225.618 341.889 226.766 343.06 228.247 343.46C231.887 347.369 235.13 351.63 237.927 356.18C248.547 373.48 253.447 394.15 252.987 414.37C252.845 420.555 252.139 426.714 250.877 432.77C244.783 430.804 238.352 430.099 231.977 430.7C229.577 430.98 228.477 434.82 231.347 435.35C232.485 435.559 233.616 435.759 234.741 435.958L234.742 435.958C239.695 436.833 244.524 437.687 249.267 439.21C248.657 441.34 247.987 443.44 247.207 445.52C246.557 447.27 245.847 449.05 245.067 450.8C239.857 447.15 233.977 444.68 227.237 444.8C224.047 444.86 224.097 449.52 227.237 449.72C232.827 450.07 237.837 452.78 242.237 456.38C241.433 457.781 240.548 459.133 239.587 460.43C235.857 465.36 230.707 467.25 224.797 468.36C221.464 468.967 218.13 469.53 214.797 470.05ZM216.487 377.3C215.879 376.216 214.569 375.739 213.407 376.18C208.235 378.164 204.945 383.271 205.277 388.8V388.98C205.423 392.767 207.769 396.118 211.277 397.55C212.754 398.25 214.389 398.546 216.017 398.41C219.675 398.322 222.992 396.243 224.667 392.99C226.997 388.718 226.096 383.405 222.487 380.14C220.771 378.684 218.701 377.705 216.487 377.3ZM82.857 392.52C78.997 402.34 63.017 400.81 61.907 390C61.897 389.894 61.897 389.787 61.907 389.68C60.907 384.08 63.777 377.6 70.157 376.68C70.919 376.565 71.696 376.748 72.327 377.19C74.4221 377.126 76.4954 377.631 78.327 378.65C83.007 381.42 84.807 387.56 82.857 392.52ZM141.517 437.59C146.067 440.85 155.867 440.82 157.607 434.24C157.868 433.276 157.588 432.246 156.874 431.547C156.161 430.849 155.125 430.59 154.167 430.87C153.399 431.103 152.657 431.439 151.922 431.771C149.941 432.668 148.014 433.54 145.767 432.3C143.227 430.88 142.297 426.89 143.467 424.3C143.779 423.49 143.725 422.585 143.318 421.817C142.912 421.05 142.193 420.497 141.347 420.3C141.964 416.867 142.298 413.389 142.347 409.9C145.527 409.615 147.926 406.89 147.807 403.7C147.677 399.94 144.647 397.36 141.047 397.02C139.281 396.895 137.51 397.186 135.877 397.87C135.592 397.988 135.297 398.104 134.997 398.222C133.489 398.815 131.865 399.454 130.797 400.58C129.566 401.8 129.509 403.771 130.667 405.06C130.843 405.524 131.093 405.956 131.407 406.34C132.635 407.643 134.194 408.587 135.917 409.07C135.75 410.344 135.61 411.621 135.47 412.897C135.242 414.979 135.014 417.06 134.667 419.13C134.307 421.3 133.887 423.47 133.397 425.61C133.137 426.8 132.837 427.98 132.497 429.16C132.497 429.923 132.189 430.654 131.644 431.187C131.098 431.719 130.36 432.009 129.597 431.99C129.567 428.35 124.667 427.95 123.497 431.16C120.667 439.1 132.027 441.65 136.497 436.43C137.169 435.618 137.737 434.724 138.187 433.77C138.99 435.282 140.129 436.588 141.517 437.59Z" fill="#754C29"/>
<path d="M216.148 390.72C216.181 390.725 216.215 390.725 216.248 390.72L216.408 390.67C218.818 389.54 216.948 384.67 214.068 386.67C211.688 388.31 214.068 391.13 216.148 390.72Z" fill="white"/>
<path d="M72.3977 520.46C67.3177 529.46 62.0277 538.28 56.8077 547.17L49.1477 560.17C47.9877 562.17 42.3377 568.89 47.7777 570.46C49.4477 570.94 52.5377 568.72 53.7777 567.9C82.6577 549.25 104.908 518.39 117.288 486.58C105.706 485.695 94.3416 482.957 83.6277 478.47C86.4577 492.74 79.2077 508.44 72.3977 520.46Z" fill="#A97C50"/>
<path d="M390.137 213.75C380.217 215.69 367.437 214.67 358.487 208.75C358.397 212.43 358.107 216.14 357.717 219.89C356.597 230.78 355.477 244.64 367.007 250.48C389.677 261.96 407.077 235.48 412.517 217.14C414.209 211.386 415.318 205.476 415.827 199.5C409.757 207.06 398.427 212.14 390.137 213.75Z" fill="#A97C50"/>
<path d="M240.327 275.8C239.847 273.43 238.907 271.05 238.207 268.68C236.946 280.759 232.102 292.185 224.297 301.49C219.137 307.71 212.007 313.88 204.137 317.34C205.727 318.06 207.317 318.81 208.877 319.61C216.116 323.33 222.801 328.042 228.737 333.61C235.904 322.757 240.28 310.301 241.477 297.35C242.112 290.149 241.724 282.893 240.327 275.8Z" fill="#754C29"/>
<path d="M82.0083 313.5C86.7384 311.135 91.7243 309.319 96.8683 308.09C83.5983 294.25 76.5983 273.52 76.1983 254.77C76.1983 254.49 76.1983 254.22 76.1983 253.98L73.3983 258.14C72.6859 260.422 72.1904 262.766 71.9183 265.14C71.1583 270.96 70.8383 276.91 70.5583 282.77C69.9783 294.88 70.4483 306.89 74.3683 318.42C76.7458 316.532 79.3051 314.884 82.0083 313.5Z" fill="#754C29"/>
<path d="M234.008 339C241.101 346.892 246.845 355.9 251.008 365.66C251.828 367.56 252.568 369.49 253.288 371.44C259.288 363.23 264.228 355.76 265.508 345.08C266.838 334.02 266.088 322.15 264.688 311.14C263.328 300.42 260.568 289.73 255.258 280.26C252.814 275.874 249.838 271.807 246.398 268.15C247.098 271.25 247.548 274.29 247.918 276.52C249.248 284.309 249.487 292.246 248.628 300.1C247.16 314.104 242.127 327.497 234.008 339Z" fill="#A97C50"/>
<path d="M146.398 305.46C162.948 306.15 179.758 308.34 195.398 313.86C201.848 310.52 208.038 307.68 213.528 302.51C218.997 297.384 223.413 291.239 226.528 284.42C230.078 276.58 230.198 269.23 231.138 260.92C231.548 257.31 234.078 254.38 237.238 254.62C237.486 254.581 237.739 254.581 237.988 254.62C238.748 248.46 239.988 242.29 240.718 236.3C241.918 226.79 243.018 217.3 243.958 207.72C245.728 189.72 245.868 171.51 247.528 153.51C235.208 157.76 223.448 163.62 210.788 166.87C191.788 171.74 166.718 169.35 156.878 149.79C156.286 148.603 156.716 147.161 157.86 146.491C159.005 145.821 160.473 146.153 161.218 147.25C177.668 172.25 210.928 160.1 232.708 151.25C257.868 140.98 285.308 134.66 311.878 143.79C332.288 150.79 348.878 165.99 355.638 186.79C356.255 188.707 356.766 190.657 357.168 192.63C364.568 197.63 374.168 198.89 383.058 198.11C389.866 197.497 396.515 195.704 402.708 192.81C404.708 191.81 413.068 187.81 415.938 184.63C415.14 173.574 412.409 162.743 407.868 152.63C389.358 111.63 341.288 90.1502 298.048 101.84C254.048 113.73 213.398 161.38 164.218 141.47C159.548 139.58 161.598 131.93 166.318 133.84C194.778 145.34 223.448 130.68 248.198 116.64C248.014 116.219 247.906 115.769 247.878 115.31C246.746 95.3543 244 75.5229 239.668 56.0102C237.494 46.2702 234.928 36.6302 231.968 27.0902C230.428 22.0902 228.888 15.0902 224.968 10.9302C225.728 24.1102 225.968 37.3202 225.528 50.5202C225.148 62.2302 223.938 74.3402 216.728 84.0302C215.628 85.5002 213.258 86.7502 211.498 85.4002C188.558 67.6902 158.878 73.1902 133.198 80.8802C131.408 81.4102 128.938 80.2302 128.598 78.2702C126.609 66.2578 122.408 54.719 116.208 44.2402C113.021 38.8875 109.313 33.863 105.138 29.2402C102.918 26.7902 98.5377 21.3602 94.4277 18.8802C100.882 38.3677 106.224 58.2064 110.428 78.3002C118.49 116.648 122.372 155.756 122.008 194.94C121.588 232.17 118.478 271.09 105.738 306.4C119.238 304.41 133.408 304.91 146.398 305.46Z" fill="#754C29"/>
<path d="M69.0082 323.24C68.4556 322.811 68.0389 322.231 67.8082 321.57C62.5482 306.98 62.7382 291.57 63.9282 276.32C63.9882 275.59 64.0382 274.79 64.0982 273.96C61.2697 279.88 58.9286 286.02 57.0982 292.32C52.7582 307.18 48.7582 327.42 55.9982 341.98C59.414 335.142 63.7956 328.831 69.0082 323.24Z" fill="#A97C50"/>
<path fill-rule="evenodd" clip-rule="evenodd" d="M72.3472 377.22C74.4423 377.156 76.5156 377.661 78.3472 378.68C83.0072 381.42 84.8072 387.56 82.8772 392.55C79.0172 402.37 63.0372 400.84 61.9272 390.03C61.9172 389.924 61.9172 389.817 61.9272 389.71C60.8872 384.08 63.7972 377.6 70.1772 376.71C70.9392 376.595 71.7162 376.778 72.3472 377.22ZM70.2972 390.59C70.8603 390.854 71.4755 390.987 72.0972 390.98C77.8172 391 74.2872 383.54 70.9672 385.8C68.7772 387.3 69.0772 389.32 70.2972 390.59Z" fill="#231F20"/>
<path fill-rule="evenodd" clip-rule="evenodd" d="M211.267 397.55C207.76 396.117 205.413 392.766 205.267 388.98C205.263 388.956 205.262 388.932 205.262 388.908C205.26 388.872 205.259 388.836 205.247 388.8C204.918 383.265 208.217 378.157 213.397 376.18C214.56 375.739 215.87 376.216 216.477 377.3C218.692 377.705 220.761 378.684 222.477 380.14C226.086 383.405 226.987 388.718 224.657 392.99C222.983 396.243 219.665 398.322 216.007 398.41C214.379 398.546 212.744 398.25 211.267 397.55ZM216.407 390.63C218.817 389.51 216.947 384.63 214.067 386.63C211.687 388.31 214.067 391.13 216.147 390.68C216.18 390.685 216.214 390.685 216.247 390.68L216.407 390.63Z" fill="#231F20"/>
<path d="M154.247 430.86C151.407 431.72 148.927 433.99 145.847 432.29C143.307 430.89 142.377 426.9 143.547 424.29C143.859 423.48 143.804 422.574 143.398 421.807C142.991 421.04 142.272 420.487 141.427 420.29C142.044 416.857 142.378 413.378 142.427 409.89C145.606 409.605 148.006 406.88 147.887 403.69C147.757 399.93 144.727 397.35 141.127 397.01C139.361 396.885 137.59 397.176 135.957 397.86C134.237 398.54 132.157 399.22 130.877 400.57C129.646 401.79 129.589 403.761 130.747 405.05C130.923 405.514 131.173 405.946 131.487 406.33C132.714 407.633 134.274 408.576 135.997 409.06C135.557 412.41 135.307 415.78 134.747 419.12C134.387 421.29 133.967 423.46 133.477 425.6C133.217 426.79 132.917 427.97 132.577 429.15C132.577 429.913 132.269 430.644 131.723 431.177C131.177 431.709 130.439 431.999 129.677 431.98C129.677 428.34 124.747 427.98 123.577 431.15C120.697 439.09 132.057 441.64 136.577 436.42C137.249 435.608 137.817 434.714 138.267 433.76C139.07 435.271 140.209 436.578 141.597 437.58C146.147 440.84 155.947 440.81 157.687 434.23C157.948 433.266 157.668 432.236 156.954 431.537C156.241 430.838 155.205 430.579 154.247 430.86Z" fill="#231F20"/>
<path fill-rule="evenodd" clip-rule="evenodd" d="M157.087 535.78C153.622 543.619 149.566 551.191 145.516 558.751L145.487 558.805L144.948 559.811L144.51 560.629L144.167 561.27C143.725 562.095 143.178 562.998 142.597 563.956L142.596 563.957C139.762 568.632 136.149 574.593 140.257 578.9C144.377 583.22 151.667 582.34 156.537 580.1C163.617 576.832 169.264 570.599 174.421 564.907L174.421 564.907L174.617 564.69C196.774 540.234 211.247 509.801 216.237 477.18L218.747 476.8C229.627 475.17 239.617 473.38 246.257 463.8C246.757 463.08 247.257 462.32 247.677 461.58C249.167 463.15 250.567 464.77 251.887 466.34C258.247 473.96 262.887 482.59 267.297 491.43C268.687 494.2 273.117 492.26 272.297 489.33C269.047 478.09 262.547 468.01 254.617 459.48C253.437 458.22 252.207 456.98 250.947 455.78C253.077 451.391 254.817 446.824 256.147 442.13C262.484 445.317 267.587 449.61 272.94 454.115C273.585 454.658 274.233 455.203 274.887 455.75C277.287 457.75 281.707 455.09 279.577 452.13C274.647 445.27 266.667 439.36 257.847 435.46C258.117 434.23 258.367 433 258.587 431.78C261.722 414.183 260.75 396.1 255.747 378.94C256.028 378.846 256.291 378.707 256.527 378.53C276.527 363.13 274.857 332.41 271.927 310.2C270.347 298.2 267.157 286.39 260.987 275.92C257.207 269.52 251.497 261.78 244.547 257.48C245.572 252.708 246.217 247.792 246.85 242.967C247.1 241.059 247.348 239.165 247.617 237.3C248.951 227.867 250.121 218.41 251.127 208.93C251.362 206.713 251.604 204.483 251.846 202.245L251.846 202.244V202.244L251.846 202.244V202.244L251.846 202.244V202.243L251.846 202.243V202.243L251.847 202.243C253.67 185.415 255.549 168.071 255.037 151.24C267.106 147.702 279.724 146.421 292.257 147.46C318.377 149.97 342.417 166.38 349.137 192.56C351.352 201.184 350.626 209.493 349.887 217.94C349.525 222.079 349.16 226.251 349.137 230.51C349.137 240.85 352.547 251.02 361.757 256.61C380.757 268.17 402.047 254.91 412.057 238.08C423.487 218.88 426.257 195.08 422.437 173.32C414.437 127.5 375.517 94.4603 329.557 91.0503C302.237 89.0503 278.557 99.5603 255.377 112.59C253.97 90.6608 250.675 68.8934 245.527 47.5303C242.947 36.9003 240.207 26.0403 236.257 15.8303C233.567 8.83025 229.467 2.28025 221.777 0.460254C219.517 -0.0797459 216.777 1.56025 216.947 4.13025C217.947 18.0403 218.347 31.9703 218.057 45.9103L218.056 45.9655C217.837 56.4986 217.608 67.4464 212.427 76.7003C189.427 61.1403 160.557 65.2002 135.097 72.5703C132.26 59.1345 126.791 46.3931 119.007 35.0803C114.944 29.1766 110.29 23.7018 105.117 18.7403L104.907 18.5403C100.099 13.9678 95.0145 9.13154 87.9574 10.5903C85.9945 11.149 84.842 13.1782 85.3674 15.1503C110.277 88.5103 120.057 167.31 112.427 244.5C110.515 264.185 106.69 283.637 101.007 302.58C93.4174 292.37 87.4874 281.76 84.7374 268.96C84.034 265.7 83.8974 262.36 83.7617 259.044C83.6332 255.902 83.5056 252.782 82.8974 249.77C82.5785 247.663 81.2542 245.842 79.3474 244.89C78.7603 244.497 78.0433 244.346 77.3474 244.47C76.41 244.481 75.4872 244.704 74.6474 245.12C70.7874 246.96 68.4374 250.65 66.9574 255C58.5874 266.24 52.9574 280.55 49.5074 293.22C45.0774 309.47 41.2674 331.5 50.4274 346.75C50.9399 347.681 51.8643 348.312 52.9174 348.45C49.8274 355.25 47.2474 362.21 44.9174 368.73C38.9174 385.36 34.2074 402.82 35.9174 419.93C23.8174 421.45 11.7174 425.38 1.41743 429.86C-0.892569 430.86 0.777431 434.86 3.14743 433.96C12.2424 430.391 21.7561 427.998 31.4574 426.84C33.2674 426.62 35.0674 426.5 36.8674 426.42C37.5837 430.134 38.6347 433.776 40.0074 437.3C26.5474 441.3 13.8074 449.67 4.38743 458.81C2.13743 460.99 5.46743 464.21 7.78743 462.21C15.3542 455.678 23.9549 450.45 33.2374 446.74C36.4248 445.517 39.6925 444.515 43.0174 443.74C49.8822 456.737 60.7481 467.178 74.0074 473.52C74.6065 473.878 75.2117 474.218 75.8182 474.558L75.819 474.559L75.8198 474.559L75.8205 474.56L75.8213 474.56L75.8221 474.56L75.8229 474.561L75.824 474.562C75.9951 474.658 76.1663 474.754 76.3374 474.85C77.8535 482.924 77.2961 491.251 74.7174 499.05C72.0241 507.175 67.5898 514.631 63.2091 521.997C62.7103 522.836 62.2122 523.673 61.7174 524.51C56.8774 532.7 51.8774 541.18 46.9874 549.51C46.2041 550.844 45.4141 552.177 44.6241 553.51L44.6237 553.511C43.0438 556.177 41.464 558.844 39.9374 561.51C38.3874 564.21 36.7574 567.13 37.5874 570.36C38.9474 575.69 44.8374 578.27 49.8974 577.36C55.5947 576.376 60.7467 572.091 65.3236 568.284L65.3291 568.28L65.3411 568.27L65.3567 568.257L65.3639 568.251L65.3687 568.247C66.2147 567.543 67.041 566.856 67.8474 566.21C79.9173 556.472 90.7213 545.261 100.007 532.84C110.427 518.823 118.841 503.421 125.007 487.08C129.787 487.27 134.547 487.25 139.237 487.08C147.987 486.72 156.717 485.91 165.447 484.85C166.187 493.02 166.797 500.9 165.447 509.19C163.789 518.37 160.98 527.303 157.087 535.78ZM247.897 276.52C247.832 276.129 247.765 275.712 247.694 275.275C247.362 273.221 246.955 270.706 246.377 268.15C249.817 271.801 252.792 275.861 255.237 280.24C260.547 289.71 263.307 300.4 264.667 311.12C266.067 322.12 266.817 334 265.487 345.06C264.207 355.74 259.227 363.21 253.267 371.42C252.547 369.47 251.807 367.54 250.987 365.64C246.825 355.88 241.081 346.872 233.987 338.98C242.103 327.476 247.133 314.083 248.597 300.08C249.458 292.232 249.223 284.303 247.897 276.52ZM208.877 319.65C216.117 323.37 222.801 328.082 228.737 333.65C235.898 322.808 240.274 310.368 241.477 297.43C242.116 290.215 241.729 282.946 240.327 275.84C240.011 274.279 239.496 272.714 238.98 271.15C238.713 270.339 238.446 269.529 238.207 268.72C236.947 280.799 232.102 292.226 224.297 301.53C219.137 307.75 212.007 313.92 204.137 317.38C205.727 318.1 207.317 318.85 208.877 319.65ZM412.517 217.18C407.077 235.47 389.677 262 367.007 250.52C355.477 244.68 356.597 230.82 357.717 219.93C358.107 216.18 358.397 212.47 358.487 208.79C367.437 214.67 380.217 215.69 390.137 213.79C398.427 212.18 409.757 207.1 415.827 199.58C415.315 205.543 414.206 211.439 412.517 217.18ZM411.96 196.853C413.329 195.438 414.695 194.026 416.187 192.75C416.197 191.53 416.187 190.3 416.157 189.07L415.487 189.59C408.32 194.992 400.051 198.747 391.267 200.59C380.557 202.81 367.107 202.77 357.837 196.41C358.232 199.268 358.452 202.146 358.497 205.03C368.817 209.01 378.327 212.26 389.927 209.61C395.652 208.298 401.059 205.865 405.837 202.45C408.123 200.818 410.045 198.832 411.96 196.853ZM122.007 194.94C122.362 155.772 118.472 116.681 110.407 78.3503C106.204 58.2565 100.862 38.4178 94.4074 18.9303C97.8474 21.0059 101.476 25.1481 103.87 27.88L103.87 27.8803C104.336 28.4124 104.756 28.8909 105.117 29.2903C109.297 33.8964 113.012 38.9041 116.207 44.2403C122.415 54.7078 126.626 66.2362 128.627 78.2402C128.967 80.2402 131.437 81.3802 133.227 80.8503C158.907 73.1602 188.587 67.6603 211.527 85.3703C213.287 86.7203 215.657 85.4703 216.757 84.0003C223.967 74.3103 225.177 62.2003 225.557 50.4903C225.987 37.2903 225.757 24.0803 224.997 10.9003C228.235 14.3541 229.845 19.8166 231.199 24.4113L231.199 24.4138C231.472 25.339 231.734 26.229 231.997 27.0603C234.957 36.5869 237.524 46.2269 239.697 55.9803C244.03 75.4929 246.776 95.3244 247.907 115.28C247.936 115.739 248.044 116.189 248.227 116.61C223.477 130.61 194.807 145.31 166.347 133.81C161.627 131.9 159.577 139.55 164.247 141.44C196.575 154.549 225.208 138.421 253.542 122.463C268.285 114.158 282.948 105.9 298.007 101.83C341.247 90.1403 389.317 111.58 407.827 152.62C412.369 162.733 415.1 173.564 415.897 184.62C413.027 187.85 404.697 191.85 402.667 192.8C396.475 195.694 389.825 197.488 383.017 198.1C374.127 198.88 364.527 197.62 357.127 192.62C356.725 190.647 356.215 188.697 355.597 186.78C348.877 166 332.247 150.78 311.837 143.78C285.267 134.65 257.837 140.97 232.667 151.24C210.887 160.12 177.667 172.24 161.177 147.24C160.432 146.143 158.964 145.811 157.82 146.481C156.675 147.151 156.246 148.593 156.837 149.78C166.677 169.34 191.757 171.73 210.747 166.86C218.574 164.851 226.057 161.844 233.541 158.837L233.541 158.837C238.162 156.98 242.784 155.123 247.487 153.5C246.686 162.189 246.239 170.924 245.792 179.663L245.792 179.663L245.792 179.664L245.792 179.665L245.792 179.665L245.792 179.666L245.791 179.666C245.312 189.029 244.833 198.395 243.917 207.71C242.977 217.25 241.917 226.78 240.677 236.29C240.319 239.116 239.855 241.977 239.388 244.858L239.387 244.859L239.387 244.86L239.387 244.861L239.387 244.861L239.387 244.862C238.862 248.096 238.333 251.353 237.947 254.61C237.699 254.571 237.446 254.571 237.197 254.61C234.037 254.37 231.507 257.3 231.097 260.91C230.931 262.378 230.791 263.817 230.653 265.233L230.652 265.235C230.008 271.834 229.41 277.956 226.487 284.41C223.373 291.229 218.957 297.374 213.487 302.5C208.686 307.022 203.349 309.754 197.771 312.609C196.971 313.018 196.166 313.43 195.357 313.85C179.687 308.33 162.877 306.14 146.357 305.45C133.357 304.9 119.197 304.4 105.707 306.39C118.487 271.09 121.597 232.17 122.007 194.94ZM71.9174 265.1C71.1574 270.92 70.8374 276.87 70.5574 282.73H70.5674C70.0074 294.84 70.4574 306.85 74.3974 318.38C76.7672 316.507 79.3163 314.872 82.0074 313.5C86.7358 311.121 91.7218 309.292 96.8674 308.05C83.5974 294.21 76.5974 273.48 76.1974 254.73V253.94L73.3974 258.1C72.685 260.382 72.1895 262.726 71.9174 265.1ZM57.0974 292.24C58.9278 285.94 61.2689 279.8 64.0974 273.88L64.0768 274.17L64.0604 274.405L64.0375 274.735L64.0375 274.736C64.0013 275.26 63.9665 275.765 63.9274 276.24C62.7374 291.5 62.5474 306.9 67.8074 321.49C68.0242 322.18 68.4421 322.789 69.0074 323.24C63.7983 328.832 59.4202 335.143 56.0074 341.98C48.7574 327.38 52.7574 307.14 57.0974 292.24ZM53.4248 568.17L53.4404 568.16L53.4594 568.148C53.5865 568.064 53.7031 567.988 53.8074 567.92C82.6874 549.24 104.937 518.41 117.347 486.59C105.766 485.705 94.4013 482.967 83.6874 478.48C86.4874 492.76 79.2374 508.48 72.4274 520.48C68.6176 527.208 64.6896 533.867 60.7616 540.527C59.4521 542.747 58.1426 544.968 56.8374 547.19L49.1774 560.19C49.0153 560.464 48.7655 560.832 48.4706 561.266C46.6549 563.938 43.1277 569.13 47.8074 570.48C49.3006 570.881 51.9957 569.11 53.4248 568.17ZM146.097 479.11C120.397 480.97 95.3274 477.97 72.6274 465.11C71.9763 464.719 71.2041 464.58 70.4574 464.72C62.2683 459.296 55.3832 452.124 50.2974 443.72C50.1299 443.447 49.9717 443.167 49.8158 442.891L49.8156 442.891C49.6926 442.673 49.571 442.458 49.4474 442.25C50.9763 441.948 52.5111 441.66 54.0518 441.37L54.0561 441.369C55.9806 441.008 57.9144 440.644 59.8574 440.25C63.0474 439.58 62.1074 435 59.1274 434.82C54.8234 434.592 50.5077 434.895 46.2774 435.72C45.0314 432.659 44.0576 429.493 43.3674 426.26C45.1156 426.26 46.8626 426.285 48.6115 426.309H48.6125C52.1155 426.358 55.6259 426.407 59.1674 426.26C62.2474 426.15 63.1674 421.48 59.9174 420.72C54.144 419.417 48.2159 418.932 42.3074 419.28C41.2174 407.61 43.3774 395.65 46.9174 383.64C50.0411 372.964 53.9724 362.54 58.6774 352.46C63.1874 342.81 68.1474 332.68 76.2274 325.46C91.3345 312.055 114.006 312.153 133.12 312.236L134.077 312.24C166.747 312.37 201.617 317.73 225.157 340.33C225.529 341.819 226.677 342.99 228.157 343.39C231.811 347.339 235.061 351.644 237.857 356.24C248.477 373.54 253.377 394.24 252.917 414.43C252.776 420.615 252.069 426.774 250.807 432.83C244.713 430.863 238.283 430.159 231.907 430.76C229.507 431.04 228.407 434.88 231.277 435.41C232.393 435.615 233.503 435.812 234.606 436.007L234.607 436.007C239.583 436.889 244.434 437.748 249.197 439.27C248.587 441.4 247.917 443.5 247.137 445.58C246.487 447.33 245.777 449.11 244.997 450.86C239.787 447.17 233.907 444.7 227.167 444.86C223.977 444.92 224.027 449.58 227.167 449.78C232.807 450.13 237.817 452.84 242.167 456.44C241.364 457.841 240.479 459.193 239.517 460.49C235.787 465.44 230.637 467.31 224.727 468.42C221.394 469.034 218.061 469.597 214.727 470.11C213.171 469.343 211.302 469.622 210.037 470.81C206.353 471.345 202.658 471.847 198.967 472.349L198.966 472.349L198.964 472.349C194.642 472.937 190.325 473.524 186.037 474.16C185.025 474.305 184.013 474.452 183.001 474.598C182.237 474.709 181.473 474.82 180.71 474.931L180.709 474.931C169.224 476.598 157.702 478.27 146.097 479.11ZM200.954 479.592C191.21 481.156 181.442 482.725 171.647 484.04C176.757 500.24 171.617 519.56 165.517 534.55C161.679 543.614 157.373 552.472 152.617 561.09C152.351 561.593 151.845 562.425 151.231 563.436C149.058 567.013 145.532 572.819 146.467 574.09C149.327 577.99 158.747 570.18 160.747 568.35C186.337 544.93 202.337 512.28 208.397 478.4C205.918 478.794 203.436 479.193 200.954 479.592Z" fill="#231F20"/>
</svg>
