<svg width="535" height="581" viewBox="0 0 535 581" fill="none" xmlns="http://www.w3.org/2000/svg">
<path d="M402.588 472.986C382.418 487.366 359.208 488.486 335.238 488.186C296.468 487.696 254.558 486.326 220.838 466.186C221.358 473.286 220.838 480.646 220.838 487.486C220.838 496.486 221.128 506.356 218.988 515.306C231.268 525.816 250.098 527.176 265.608 528.806C281.737 530.471 297.99 530.571 314.138 529.106C347.698 526.106 383.448 515.956 411.538 496.916C444.008 474.916 467.128 439.916 486.348 406.376C500.098 382.376 509.348 357.656 516.678 331.966C501.448 365.706 479.318 397.166 454.768 423.876C438.818 441.246 421.818 459.246 402.588 472.986Z" fill="#009444"/>
<path d="M187.251 275.365C187.451 283.915 183.301 291.795 180.581 299.705C177.581 308.525 175.381 317.625 173.011 326.645C169.071 341.645 165.391 356.735 160.931 371.585C172.801 360.445 183.751 347.935 196.041 337.335C206.571 328.235 222.041 309.875 236.791 308.255C246.241 307.255 256.311 313.205 264.701 316.745C273.695 320.545 282.621 324.479 291.481 328.545C305.611 335.065 319.531 342.005 333.291 349.255C330.131 335.355 326.995 321.449 323.881 307.535L316.591 274.695C315.151 268.225 312.591 261.105 312.971 254.375C313.731 239.085 330.971 234.025 342.401 228.375C352.628 223.315 362.858 218.265 373.091 213.225C341.391 209.275 309.671 205.395 277.921 201.915C274.241 201.515 270.921 199.665 269.921 195.815C262.748 168.975 255.695 142.102 248.761 115.195C232.911 145.265 219.241 176.115 204.841 207.015C197.211 223.395 185.471 223.825 168.531 226.115C155.891 227.835 143.201 229.295 130.531 230.795C141.251 236.055 151.591 242.135 162.051 247.965C173.651 254.435 186.901 260.245 187.251 275.365Z" fill="#FFF200"/>
<path d="M204.82 487.486C204.82 481.916 204.47 476.006 204.61 470.166C193.02 480.376 177.28 488.496 164.88 495.796C148.88 505.226 132.18 513.666 114.71 519.986C87.3697 529.876 52.8397 535.476 23.4297 528.046C27.1697 534.106 30.9397 540.156 34.9397 546.046C38.4397 551.216 41.4297 557.356 44.9397 562.756C58.1297 561.886 71.4397 565.206 84.6797 565.506C100.824 565.931 116.967 564.59 132.82 561.506C149.447 558.256 165.609 552.966 180.94 545.756C187.52 542.636 194.24 539.286 200.11 534.926C203.82 532.166 206.78 528.806 210.11 525.806C209.219 524.18 208.61 522.415 208.31 520.586C204.37 510.366 204.81 498.246 204.82 487.486Z" fill="#009444"/>
<path d="M82.1994 409.355C51.3294 387.625 29.4894 357.895 16.3594 324.605C24.1694 365.435 42.3594 403.165 76.2994 432.135C77.7888 424.426 79.7593 416.818 82.1994 409.355Z" fill="#009444"/>
<path fill-rule="evenodd" clip-rule="evenodd" d="M99.2719 407.726C99.8119 401.706 94.8519 399.416 90.2719 400.346C21.7419 346.916 -3.27808 256.406 27.4019 175.116C58.7719 91.9757 136.852 39.7157 222.852 26.5357C271.692 19.0557 315.572 30.0157 360.502 48.6457C381.272 57.2457 401.922 67.0657 420.062 80.4257C437.856 93.4936 451.678 110.863 465.327 128.016C465.946 128.793 466.564 129.57 467.182 130.346C496.452 167.086 516.002 204.946 514.002 253.086C512.122 297.576 493.502 339.786 467.752 375.576C453.102 395.896 435.812 414.436 417.862 431.896C398.852 450.386 381.872 466.196 354.042 467.456C307.402 469.576 257.152 467.046 216.332 442.236C212.251 439.754 208.754 442.955 204.417 446.925C202.409 448.763 200.221 450.766 197.712 452.446C184.294 462.163 178.68 465.789 169.25 471.879C167.773 472.833 166.201 473.848 164.492 474.956C149.102 484.926 133.192 494.176 116.322 501.446C99.8919 508.536 82.2219 514.926 64.4519 517.536C52.4519 519.296 40.4519 519.096 28.4519 518.416C45.2419 510.036 59.1419 498.246 72.1419 483.336C89.2719 463.636 96.9719 433.316 99.2719 407.726ZM135.238 215.445C126.279 217.077 117.321 218.709 108.352 220.246C101.662 221.396 102.482 232.246 108.452 233.266C118.802 241.706 130.162 248.456 141.802 255.266C143.853 256.462 145.912 257.647 147.971 258.832C152.298 261.321 156.624 263.811 160.872 266.406C171.592 272.956 171.142 278.796 169.372 290.796C166.921 307.456 162.611 323.765 158.3 340.078C154.487 354.511 150.672 368.948 148.142 383.636C147.502 387.336 152.272 391.456 155.272 387.786C163.691 377.406 174.904 368.701 185.729 360.297C188.597 358.071 191.438 355.865 194.192 353.656C201.852 347.546 209.582 341.386 217.492 335.546C218.62 334.714 219.829 333.753 221.101 332.74C226.852 328.162 233.913 322.542 240.832 323.206C247.088 323.805 254.555 327.813 261.226 331.395C263.906 332.834 266.459 334.204 268.752 335.256C276.165 338.682 283.539 342.206 290.872 345.826C307.965 354.299 324.795 363.266 341.362 372.726C348.012 376.526 355.262 370.286 353.752 363.206C347.484 333.966 341.032 304.785 334.579 275.601C333.97 272.846 333.361 270.091 332.752 267.336C330.812 258.526 330.022 253.996 338.472 249.746C343.561 247.185 348.686 244.69 353.807 242.197C356.364 240.952 358.921 239.708 361.472 238.456C376.792 230.936 392.112 223.406 407.372 215.746C415.862 211.486 410.692 200.416 402.992 199.566C400.917 199.339 398.841 199.112 396.766 198.885C359.341 194.793 321.922 190.702 284.592 186.136C276.479 153.956 268.259 121.806 259.932 89.6857C258.082 82.5357 247.822 81.2157 244.182 87.6257C227.15 117.377 211.867 148.095 198.412 179.626C197.487 181.812 196.671 184.163 195.847 186.541C194.318 190.95 192.757 195.449 190.412 199.146C185.252 207.299 177.483 208.386 168.98 209.575C167.399 209.796 165.792 210.021 164.172 210.296C154.516 211.933 144.877 213.689 135.238 215.445Z" fill="#8DC63F"/>
<path fill-rule="evenodd" clip-rule="evenodd" d="M25.8401 141.716C8.49492 176.223 0.176052 214.563 1.66007 253.156C-6.14993 323.566 13.0901 397.536 70.1701 443.866C71.0615 444.582 72.1221 445.057 73.2501 445.246C70.6601 455.086 67.1201 464.556 60.4301 473.026C59.7864 473.841 59.1308 474.673 58.4636 475.521L58.4494 475.539C46.9282 490.173 31.9423 509.208 15.0101 517.486L9.30007 519.936C5.49986 522.838 7.83635 526.325 9.21915 528.388C9.4847 528.785 9.71508 529.128 9.86007 529.406C14.3303 537.823 19.2369 546 24.5601 553.906C25.21 554.88 25.7986 555.823 26.3713 556.741C29.3235 561.469 31.8518 565.519 40.1601 569.766C52.1054 577.92 67.348 579.091 81.5808 580.185L82.2401 580.236C101.391 581.629 120.643 580.421 139.47 576.646C157.52 573.093 175.045 567.256 191.62 559.276C201.75 554.406 216.51 546.976 222.62 536.106C228.403 538.534 234.412 540.383 240.56 541.626C259.183 545.772 278.212 547.818 297.29 547.726C337.57 547.586 376.72 537.556 410.66 515.726C447.61 491.946 471.37 456.376 493.18 419.006C514.88 381.826 522.25 359.006 530.64 293.286C530.733 292.289 530.827 291.294 530.92 290.302L531.052 288.906L531.19 287.433C535.679 239.887 539.699 197.297 513.72 154.016C488.28 111.636 453.28 69.5556 409.65 45.4356C365.06 20.8356 311.72 -0.394438 260.25 0.00556237C163.79 0.745562 69.8201 55.1156 25.8401 141.716ZM16.3601 324.606C29.4901 357.896 51.3601 387.606 82.2001 409.356C79.76 416.818 77.7895 424.427 76.3001 432.136C42.3601 403.166 24.1701 365.436 16.3601 324.606ZM180.91 545.746C187.49 542.626 194.21 539.276 200.08 534.916C202.571 533.063 204.724 530.939 206.859 528.833C207.904 527.802 208.945 526.775 210.02 525.786C209.129 524.16 208.521 522.395 208.22 520.566C204.702 511.309 204.744 500.506 204.782 490.528C204.786 489.501 204.79 488.483 204.79 487.476C204.794 485.135 204.733 482.733 204.671 480.303V480.302V480.301V480.3V480.3C204.586 476.948 204.499 473.54 204.58 470.156C195.264 478.363 183.266 485.219 172.476 491.385L172.471 491.388C169.84 492.892 167.281 494.354 164.85 495.786C148.86 505.216 132.15 513.656 114.68 519.976C87.3401 529.866 52.8101 535.466 23.4001 528.036C27.1401 534.096 30.9101 540.146 34.9101 546.036C36.8344 548.854 38.5982 551.96 40.3685 555.078L40.3691 555.079L40.3693 555.08C41.8462 557.681 43.3274 560.29 44.9101 562.746C52.5733 562.24 60.277 563.149 67.984 564.058L67.9854 564.058C73.5433 564.714 79.1028 565.37 84.6501 565.496C100.795 565.921 116.937 564.58 132.79 561.496C149.417 558.246 165.579 552.956 180.91 545.746ZM486.33 406.376C467.11 439.946 443.99 474.906 411.52 496.916C383.43 515.916 347.68 526.096 314.12 529.106C297.972 530.571 281.719 530.47 265.59 528.806C264.708 528.713 263.815 528.621 262.912 528.528L262.87 528.524C247.925 526.987 230.54 525.199 218.97 515.306C220.912 507.185 220.869 498.299 220.83 490.007C220.826 489.16 220.822 488.319 220.82 487.486C220.82 485.234 220.879 482.926 220.938 480.59V480.589C221.059 475.828 221.182 470.948 220.82 466.186C254.54 486.326 296.45 487.696 335.22 488.186C359.22 488.486 382.4 487.366 402.57 472.986C421.82 459.246 438.82 441.246 454.75 423.876C479.3 397.166 501.43 365.706 516.66 331.966C509.34 357.656 500.08 382.356 486.33 406.376ZM360.499 48.6455C315.569 30.0156 271.69 19.0556 222.85 26.5356C136.85 39.7156 58.77 91.9755 27.4 175.115C-3.2799 256.405 21.7401 346.915 90.3099 400.345C94.8899 399.415 99.8499 401.725 99.3099 407.725C97.0099 433.335 89.3499 463.635 72.1799 483.335C59.18 498.245 45.28 510.035 28.49 518.415C40.49 519.095 52.49 519.295 64.49 517.535C82.2599 514.925 99.9299 508.525 116.36 501.445C133.23 494.175 149.14 484.955 164.53 474.955C166.239 473.847 167.811 472.832 169.288 471.878C178.718 465.789 184.332 462.163 197.75 452.445C200.26 450.764 202.446 448.76 204.452 446.921C208.781 442.953 212.269 439.755 216.37 442.235C257.19 467.045 307.439 469.575 354.079 467.455C381.899 466.195 398.899 450.385 417.899 431.895C435.849 414.435 453.139 395.935 467.789 375.575C493.539 339.785 512.159 297.605 514.039 253.085C516.079 204.945 496.489 167.065 467.219 130.345C466.652 129.633 466.085 128.919 465.517 128.205C451.818 110.974 437.959 93.5422 420.099 80.4255C401.919 67.0655 381.269 57.2555 360.499 48.6455Z" fill="#231F20"/>
<path fill-rule="evenodd" clip-rule="evenodd" d="M141.762 255.246C130.122 248.466 118.812 241.716 108.412 233.246C102.482 232.246 101.662 221.396 108.332 220.206C117.301 218.669 126.259 217.037 135.218 215.405C144.857 213.649 154.496 211.893 164.152 210.256C165.772 209.981 167.379 209.756 168.96 209.535C177.463 208.346 185.232 207.259 190.392 199.106C192.737 195.409 194.298 190.91 195.827 186.501C196.652 184.123 197.467 181.772 198.392 179.586C211.847 148.055 227.13 117.336 244.162 87.5857C247.802 81.1757 258.062 82.4957 259.912 89.6457C268.259 121.766 276.479 153.916 284.572 186.096C319.643 190.424 354.825 194.284 389.991 198.143C394.312 198.617 398.633 199.091 402.953 199.566C410.653 200.416 415.823 211.486 407.333 215.746C392.073 223.406 376.753 230.936 361.433 238.456C359.01 239.643 356.584 240.824 354.158 242.004C348.902 244.561 343.646 247.118 338.432 249.746C329.982 253.996 330.772 258.526 332.712 267.336C339.802 299.276 346.883 331.206 353.713 363.206C355.223 370.286 347.973 376.526 341.322 372.726C324.776 363.232 307.946 354.266 290.832 345.826C283.506 342.199 276.132 338.676 268.712 335.256C266.438 334.21 263.904 332.849 261.241 331.419C254.56 327.832 247.063 323.806 240.792 323.206C233.873 322.542 226.813 328.162 221.061 332.74C219.789 333.752 218.581 334.714 217.452 335.546C209.542 341.386 201.812 347.506 194.152 353.656C191.32 355.935 188.397 358.206 185.448 360.498C174.695 368.855 163.59 377.485 155.232 387.766C152.252 391.436 147.462 387.316 148.102 383.616C150.632 368.928 154.447 354.491 158.26 340.058C162.571 323.745 166.881 307.436 169.332 290.776C171.102 278.756 171.552 272.936 160.832 266.386C156.584 263.791 152.257 261.301 147.931 258.812C145.872 257.627 143.813 256.442 141.762 255.246ZM171.85 225.676C170.764 225.818 169.654 225.963 168.522 226.116V226.106C159.251 227.367 149.953 228.467 140.653 229.568C137.272 229.968 133.892 230.368 130.512 230.776C138.713 234.8 146.691 239.304 154.672 243.809C157.123 245.192 159.574 246.576 162.032 247.946C163.053 248.515 164.087 249.08 165.124 249.645C175.881 255.516 186.932 261.546 187.252 275.356C187.404 281.869 185.032 287.993 182.691 294.038C181.959 295.928 181.23 297.811 180.582 299.696C178.148 306.804 176.26 314.106 174.378 321.384C173.925 323.137 173.472 324.889 173.012 326.636C171.955 330.642 170.917 334.664 169.878 338.691C167.042 349.68 164.196 360.708 160.932 371.576C165.838 366.971 170.586 362.133 175.338 357.292C182.082 350.421 188.831 343.545 196.042 337.326C198.37 335.318 200.941 332.855 203.693 330.219C213.382 320.936 225.311 309.507 236.792 308.246C244.327 307.448 252.257 311.102 259.414 314.4C261.233 315.238 263.002 316.053 264.702 316.766C273.695 320.552 282.622 324.486 291.482 328.566C305.612 335.086 319.532 342.026 333.292 349.276C330.112 335.382 326.975 321.476 323.882 307.556L316.592 274.716C316.234 273.108 315.809 271.46 315.378 269.788C314.076 264.731 312.716 259.453 312.972 254.396C313.615 241.464 326.048 235.852 336.796 231.001C338.747 230.121 340.642 229.265 342.402 228.396C352.622 223.322 362.852 218.272 373.092 213.246C341.392 209.246 309.672 205.386 277.912 201.916C274.242 201.516 270.912 199.666 269.912 195.816C262.778 168.969 255.725 142.096 248.752 115.196C236.353 138.718 225.288 162.717 214.165 186.845C211.068 193.561 207.967 200.287 204.832 207.016C197.712 222.3 187.013 223.697 171.85 225.676Z" fill="#231F20"/>
</svg>
