<svg width="175" height="581" viewBox="0 0 175 581" fill="none" xmlns="http://www.w3.org/2000/svg">
<path fill-rule="evenodd" clip-rule="evenodd" d="M18.9975 342.62L13.3275 341.85C12.3221 340.651 11.4998 339.31 10.8875 337.87C5.4671 326.384 6.36852 311.181 7.14624 298.065C7.27244 295.937 7.39538 293.863 7.48753 291.87C8.0074 281.142 8.69015 270.419 9.3728 259.698C9.66185 255.158 9.95088 250.619 10.2275 246.08L10.4836 241.883L10.4836 241.883C12.3477 211.325 14.2099 180.799 16.2275 150.2C16.5471 145.393 16.8389 140.566 17.1315 135.727C18.6152 111.189 20.117 86.3507 25.3375 62.4198C28.2575 48.9898 32.5275 33.5598 41.3375 22.6598C49.7175 12.2798 64.0175 8.46976 76.9175 8.97976C101.558 9.95976 121.808 25.5598 130.278 48.3898C140.988 77.2398 146.788 109.11 149.788 139.65C151.973 161.979 153.693 184.369 155.413 206.752L155.413 206.752L155.413 206.753L155.413 206.753L155.413 206.754L155.413 206.754L155.413 206.755L155.413 206.755L155.413 206.756L155.413 206.757L155.413 206.757L155.413 206.758L155.413 206.758L155.413 206.759L155.413 206.759C156.086 215.509 156.758 224.257 157.458 233C158.851 250.693 160.311 268.38 161.838 286.06C162.349 291.981 162.833 297.902 163.318 303.826C163.553 306.706 163.789 309.587 164.028 312.47C164.239 315.064 164.531 317.7 164.825 320.354L164.825 320.355C165.504 326.478 166.193 332.694 165.928 338.7C165.698 342.93 164.118 349.86 158.698 350.23C155.348 350.46 152.748 347.46 150.998 345.04C146.058 338.21 143.458 328.81 141.588 320.73C141.218 319.124 140.882 317.496 140.545 315.867C138.515 306.041 136.475 296.159 126.988 290.73C125.348 289.79 123.318 290.73 122.188 291.95C118.158 296.26 116.438 301.75 116.238 307.57C116.103 311.612 117.066 315.57 118.025 319.506C118.989 323.467 119.948 327.407 119.778 331.39C119.775 331.442 119.775 331.514 119.777 331.603C119.777 331.656 119.779 331.716 119.78 331.781C119.803 332.854 119.858 335.352 118.428 335.49C116.297 335.701 114.841 331.928 114.072 329.938C113.968 329.667 113.876 329.43 113.798 329.24C112.431 325.804 111.266 322.291 110.308 318.72C108.997 314.082 107.978 309.366 107.258 304.6C107.129 303.766 107.035 302.902 106.94 302.028C106.68 299.633 106.411 297.167 105.408 295.05C104.532 293.016 102.834 291.449 100.736 290.74C98.6383 290.03 96.338 290.245 94.4075 291.33C89.0875 294.33 87.9175 301.04 87.0275 306.54C85.057 318.671 85.5161 331.082 85.971 343.381C86.0471 345.438 86.1231 347.491 86.1875 349.54C86.6475 364.27 86.6875 379.59 80.8975 393.42C80.7845 393.689 80.6683 393.973 80.5476 394.268C79.4295 397.005 77.9287 400.677 75.0675 401.58C71.6775 402.67 67.9275 400 65.6775 397.77C59.4975 391.69 58.5675 381.56 58.7975 373.32C59.0303 365.188 60.0968 357.133 61.164 349.073C62.2519 340.856 63.3406 332.634 63.5475 324.32C63.7794 316.35 63.5557 308.374 62.8775 300.43C62.2875 294.17 61.4075 287.28 56.8775 282.51C49.8275 275.07 41.1075 278.07 35.2575 284.26C34.4517 284.296 33.72 284.741 33.3175 285.44C32.0556 287.515 31.0069 289.713 30.1875 292C29.9006 292.686 29.6503 293.387 29.4375 294.1C29.1175 295.16 28.8575 296.26 28.6375 297.37C27.5433 303.163 26.9842 309.044 26.9675 314.94L26.947 315.561C26.7853 320.461 26.6213 325.433 25.5275 330.23C25.0024 332.756 24.1344 335.199 22.9475 337.49C22.2775 338.75 20.4375 342.08 18.9975 342.62ZM104.968 164.83C103.738 170 107.568 175.3 112.648 176.3C118.118 177.38 123.618 172.49 122.588 166.82C121.818 162.63 115.798 157.94 111.638 160.08C111.178 159.957 110.702 159.906 110.228 159.93C107.558 160.08 105.568 162.32 104.968 164.83ZM126.858 128.3C125.946 129.482 124.601 130.252 123.12 130.439C121.64 130.627 120.145 130.217 118.968 129.3C116.516 127.395 116.069 123.866 117.968 121.41C119.884 118.969 123.416 118.544 125.858 120.46C128.308 122.361 128.755 125.887 126.858 128.34V128.3ZM127.088 77.4098C126.618 73.1998 122.188 70.4098 118.008 71.2998C112.658 72.4398 109.738 78.6798 111.088 83.6498C112.438 88.6198 117.878 92.5098 123.088 91.3398C129.328 89.9498 129.168 82.2298 127.088 77.4098ZM107.508 42.0298C112.818 41.3898 113.808 49.6398 108.508 50.2798C103.208 50.9198 102.198 42.6698 107.508 42.0298ZM47.5775 86.3598C52.4675 85.7598 53.3775 93.3598 48.4975 93.9498C43.6175 94.5398 42.6875 86.9498 47.5775 86.3598ZM69.4175 204.89C63.9175 210.49 53.8575 209.66 49.1875 203.43C47.7328 201.534 46.9138 199.228 46.8475 196.84C46.5468 196.258 46.4184 195.602 46.4775 194.95C46.7875 190.57 51.9075 187.18 55.5975 185.6C59.3887 183.822 63.8161 184.047 67.4075 186.2C73.5975 190.24 74.5675 199.65 69.4175 204.89ZM73.2575 169.7C74.0886 169.848 74.9452 169.732 75.7075 169.37C77.1509 168.748 78.0134 167.25 77.8275 165.69C77.5946 164.158 76.4052 162.948 74.8775 162.69C74.0514 162.516 73.1918 162.603 72.4175 162.94C70.9704 163.568 70.0966 165.061 70.2575 166.63C70.4982 168.189 71.704 169.423 73.2575 169.7ZM98.5775 197.37C93.5075 197.99 92.5775 190.11 97.5775 189.5C102.578 188.89 103.638 196.79 98.5775 197.4V197.37ZM99.7475 139.68C104.298 139.13 103.448 132.06 98.8975 132.61V132.64C94.3475 133.24 95.1975 140.23 99.7475 139.68ZM93.5575 102.09C88.9775 102.65 88.1175 95.5298 92.6975 94.9798C97.2775 94.4298 98.1375 101.57 93.5575 102.12V102.09ZM77.8819 24.0866C77.583 21.5824 75.312 19.7936 72.8075 20.0898V20.0998C70.328 20.4471 68.5635 22.688 68.8075 25.1798C69.1119 27.6833 71.3868 29.467 73.8907 29.1653C76.3946 28.8637 78.1808 26.5908 77.8819 24.0866ZM68.7275 63.5098C69.4175 58.4398 75.1175 52.7298 80.2675 54.2398C87.1275 53.5898 93.1975 60.2398 93.3475 66.8698C93.5075 73.7298 87.2075 79.8698 80.2775 79.3698C72.7675 78.7798 67.7475 70.6398 68.7275 63.5198V63.5098ZM74.3675 127.77C73.5375 124.37 71.5875 121.08 68.2575 119.63V119.64C65.9788 118.547 63.2991 118.698 61.1575 120.04C56.6575 119.62 53.0675 123.64 52.9975 128.98C52.9075 135.74 58.1875 142.61 65.3675 142.25C73.1575 141.87 76.0175 134.59 74.3675 127.77ZM37.0075 44.4798C42.1675 40.5898 50.7275 40.3698 55.2275 45.3498C57.1365 47.3497 57.9661 50.1461 57.4568 52.8635C56.9474 55.5809 55.1612 57.887 52.6575 59.0598C48.1075 61.2898 40.4875 61.1498 37.1775 56.8298C35.4334 54.4532 35.1375 51.31 36.4075 48.6498C35.9009 48.0297 35.6774 47.2256 35.7915 46.433C35.9055 45.6404 36.3466 44.9319 37.0075 44.4798ZM43.3792 152.788C43.1124 150.563 41.093 148.975 38.8675 149.24C36.6552 149.536 35.0811 151.54 35.3175 153.76C35.5872 155.985 37.6088 157.57 39.8339 157.302C42.059 157.034 43.6459 155.013 43.3792 152.788Z" fill="#00AEEF"/>
<path d="M139.309 339.57C139.539 343.24 139.739 346.91 139.959 350.57C140.869 365.62 141.889 380.66 142.749 395.71C143.419 407.43 145.359 419.58 144.349 431.32C144.349 431.79 144.249 432.26 144.189 432.72C145.618 431.837 146.991 430.865 148.299 429.81C154.619 424.55 159.109 417.86 159.449 409.46C160.109 392.56 157.509 375.53 157.349 358.6C148.519 357.9 142.549 347.51 139.309 339.57Z" fill="#009444"/>
<path d="M133.948 375.24C133.428 363.34 132.871 351.44 132.278 339.54C131.958 333.19 131.798 326.84 131.568 320.48C131.458 317.2 131.198 313.94 131.308 310.69C130.378 306.81 129.028 302.88 126.308 300.13C122.878 306.61 124.888 314.5 126.408 321.55C127.688 327.55 130.658 337.39 124.658 341.97C120.178 345.38 113.738 343.66 110.238 339.74C104.928 333.8 102.998 323.99 101.148 316.45C100.099 312.124 99.2675 307.749 98.6577 303.34C98.6577 303.51 98.4277 298.96 97.6577 299.17C96.1677 299.61 95.6577 304.56 95.4577 305.81C94.1774 313.104 93.608 320.505 93.7577 327.91C93.8377 341.96 95.3177 355.97 94.6377 370.03C94.0677 381.7 92.2977 400.26 82.4377 408.24C72.7777 416.05 59.6377 408.11 54.3777 398.96C46.2277 384.81 49.0077 367.34 51.1577 351.96C53.6574 334.894 54.398 317.617 53.3677 300.4C52.9177 293.55 50.1677 282.26 41.5477 289.4C35.2377 294.65 34.7777 304.04 34.4277 311.62C33.8877 323.7 33.7977 336.01 26.4277 345.62C28.7277 357.93 27.8477 371.51 28.3377 383.93C28.8677 397.49 29.4877 411.05 29.9777 424.62C30.1677 430.06 29.4777 436.31 33.5877 440.5C37.0077 443.99 42.1177 445.95 46.6477 447.5C56.1871 450.69 66.227 452.12 76.2777 451.72C86.3053 451.401 96.2925 450.298 106.148 448.42C114.528 446.87 128.838 446.42 133.498 438.19C137.908 430.38 135.988 419.33 135.658 410.83C135.198 399.03 134.478 387.14 133.948 375.24Z" fill="#8DC63F"/>
<path d="M48.5685 53.0596C50.7785 52.2196 50.9485 50.3896 48.6385 49.2996C46.5585 48.2996 44.2185 49.0896 41.9585 49.6496C41.5399 50.6058 41.5399 51.6934 41.9585 52.6496C43.0985 54.2896 47.0085 53.6496 48.5685 53.0596Z" fill="#FFF200"/>
<path d="M111.207 165.34C110.863 166.082 110.863 166.938 111.207 167.68C111.697 168.83 112.987 170.13 114.287 169.41C115.377 168.8 115.427 168.02 114.507 167.31C113.437 166.45 112.217 166.08 111.207 165.34Z" fill="#FFF200"/>
<path d="M112.398 457.01C107.618 457.83 102.828 458.44 98.2984 459.01C93.3584 459.68 88.3784 460.14 83.3984 460.35C88.5184 478.68 86.5184 499.15 87.4784 517.88C88.0051 528.373 88.7851 538.843 89.8184 549.29C90.5484 556.72 90.0284 574.46 101.168 573.85C111.548 573.29 114.728 561.93 115.168 553.39C115.688 542.59 114.598 531.57 114.258 520.78C113.568 499.55 112.748 478.24 112.398 457.01Z" fill="#F7941E"/>
<path d="M81.668 71.1495C84.0763 70.5024 85.5483 68.074 85.008 65.6395C84.298 62.7195 81.378 61.1695 78.938 59.8295L78.818 59.7495C76.885 61.082 75.9709 63.4664 76.518 65.7495C76.918 68.1495 78.708 71.8095 81.668 71.1495Z" fill="#FFF200"/>
<path d="M64.5877 135.5C70.4077 135.44 68.5277 123.63 62.2477 125.43C61.5141 125.663 60.7147 125.557 60.0677 125.14C59.2025 126.785 58.9374 128.68 59.3177 130.5C60.0077 132.88 61.8577 135.52 64.5877 135.5Z" fill="#FFF200"/>
<path d="M59.847 193.29C57.597 193.93 55.847 195.66 53.957 196.95C54.5566 198.741 55.9645 200.145 57.757 200.74C60.297 201.36 63.757 200.17 64.257 197.36C64.59 196.142 64.2167 194.84 63.2891 193.984C62.3615 193.128 61.0341 192.86 59.847 193.29Z" fill="#FFF200"/>
<path d="M121.158 84.2399C121.182 84.1144 121.182 83.9854 121.158 83.8599C121.097 83.2147 121.097 82.5652 121.158 81.9199C121.088 80.6399 121.018 79.3499 120.878 78.0699C120.878 78.0699 120.878 77.9899 120.878 77.9399H120.628C119.837 78.0171 119.112 78.4121 118.618 79.0342C118.124 79.6564 117.904 80.4524 118.008 81.2399C118.343 82.7913 119.592 83.9805 121.158 84.2399Z" fill="#FFF200"/>
<path fill-rule="evenodd" clip-rule="evenodd" d="M10.1876 347.24C13.4876 350 16.5776 350.37 19.3376 349.33C19.4778 349.442 19.6247 349.546 19.7776 349.64C19.3246 357.108 19.8348 364.835 20.3352 372.413C20.5859 376.209 20.8342 379.969 20.9576 383.64C21.1315 388.932 21.294 394.217 21.4563 399.499L21.4564 399.5L21.4564 399.5L21.4564 399.501C21.7235 408.192 21.9905 416.875 22.3076 425.57C22.6976 436.05 23.7476 444.09 33.4076 449.8C42.7676 455.33 53.6876 458.33 64.4076 459.66C68.479 460.161 72.5757 460.428 76.6776 460.46C79.3157 474.231 79.688 488.097 80.0623 502.041C80.1903 506.808 80.3185 511.585 80.5376 516.37C81.011 526.47 81.711 536.556 82.6376 546.63C82.7846 548.229 82.8978 549.881 83.0128 551.562L83.0129 551.562L83.0129 551.563L83.013 551.564C83.485 558.459 83.9889 565.818 86.9876 571.84C92.9876 583.9 108.278 582.84 116.458 573.61C125.184 563.74 124.068 547.565 123.135 534.049C122.934 531.132 122.741 528.339 122.658 525.76C122.462 519.731 122.28 513.702 122.097 507.671L122.097 507.669L122.097 507.667L122.097 507.665L122.097 507.665L122.097 507.664L122.097 507.663C121.568 490.229 121.04 472.791 120.208 455.37C123.66 454.589 127.047 453.542 130.338 452.24C134.833 450.436 138.574 447.147 140.938 442.92C145.938 441.08 150.728 437.35 154.268 434.26C159.928 429.32 164.588 423.07 166.268 415.63C167.753 409.029 167.22 401.757 166.708 394.765L166.708 394.765C166.53 392.339 166.355 389.948 166.268 387.63C166.14 384.37 166.049 381.099 165.958 377.826C165.764 370.848 165.569 363.856 165.018 356.92C176.396 351.11 174.985 336.409 173.897 325.073C173.76 323.647 173.628 322.275 173.528 320.98C172.108 302.56 170.714 284.133 169.348 265.7C167.478 240.88 165.496 216.065 163.513 191.248V191.248V191.248V191.248C162.601 179.829 161.689 168.41 160.788 156.99C158.189 122.602 152.033 88.5773 142.418 55.4597C138.268 41.2297 132.418 27.9697 121.418 17.7697C112.278 9.54764 101.075 3.9652 89.0076 1.61972C76.8785 -0.901253 64.2742 0.229719 52.7876 4.86972C38.5676 10.7797 30.7876 22.1797 25.2176 36.0597C14.2596 63.1452 12.4111 93.3076 10.6292 122.383C10.4257 125.705 10.223 129.012 10.0076 132.3C8.60471 153.976 7.36129 175.634 6.11804 197.289L6.11802 197.29C5.29648 211.6 4.47502 225.908 3.60764 240.22C3.32221 244.953 3.01583 249.688 2.70939 254.424L2.70935 254.424C1.72749 269.598 0.744873 284.783 0.447644 299.98C0.43615 300.545 0.424167 301.112 0.412163 301.68L0.412158 301.681C0.236177 310.006 0.0557785 318.54 1.34764 326.75C2.44764 333.59 4.57764 342.58 10.1876 347.24ZM115.188 553.4C114.778 561.94 111.598 573.3 101.188 573.86C91.4943 574.391 90.6292 561.028 90.0871 552.653C90.0062 551.403 89.9324 550.265 89.8376 549.3C88.8176 538.846 88.0376 528.376 87.4976 517.89C87.1997 512.309 87.1681 506.574 87.1361 500.788C87.0609 487.152 86.9841 473.229 83.4176 460.36C88.4176 460.15 93.4176 459.69 98.3176 459.02C99.04 458.922 99.769 458.825 100.503 458.727L100.589 458.716L100.624 458.711C104.459 458.2 108.442 457.669 112.418 457.02C112.679 472.888 113.201 488.756 113.724 504.624C113.902 510.026 114.08 515.428 114.248 520.83C114.351 524.296 114.533 527.786 114.716 531.286C115.102 538.673 115.49 546.102 115.138 553.43L115.188 553.4ZM111.087 447.761C119.297 446.586 129.676 445.101 133.508 438.3C137.097 431.943 136.5 423.441 135.975 415.973C135.855 414.265 135.739 412.611 135.678 411.05C135.41 404.279 135.062 397.514 134.714 390.75C134.45 385.617 134.186 380.484 133.958 375.35C133.444 363.45 132.888 351.55 132.288 339.65C132.065 335.226 131.919 330.803 131.774 326.376L131.774 326.372L131.774 326.367C131.711 324.442 131.647 322.516 131.578 320.59C131.546 319.638 131.501 318.689 131.457 317.741V317.74V317.74C131.348 315.419 131.24 313.107 131.318 310.8C130.378 306.92 129.028 302.99 126.318 300.24C123.081 306.354 124.688 313.724 126.157 320.459L126.239 320.837C126.299 321.113 126.359 321.387 126.418 321.66C126.544 322.261 126.687 322.903 126.838 323.574C128.181 329.565 130.063 337.961 124.668 342.08C120.188 345.49 113.748 343.77 110.248 339.85C105.454 334.487 103.415 325.969 101.702 318.816L101.701 318.812C101.517 318.044 101.337 317.291 101.158 316.56C100.109 312.234 99.2775 307.859 98.6676 303.45C98.6676 303.47 98.6638 303.423 98.6557 303.323C98.5962 302.596 98.3101 299.095 97.6676 299.28C96.4174 299.649 95.8853 303.194 95.6046 305.063C95.5508 305.422 95.5063 305.719 95.4676 305.92C94.1873 313.214 93.618 320.615 93.7676 328.02C93.7991 333.546 94.0471 339.065 94.2951 344.584L94.2952 344.585L94.2952 344.585C94.6777 353.098 95.0602 361.61 94.6476 370.14C94.0776 381.81 92.3076 400.35 82.4476 408.35C72.7876 416.16 59.6476 408.22 54.3876 399.07C46.4868 385.313 48.8579 368.475 50.9691 353.482C51.0356 353.009 51.1019 352.539 51.1676 352.07C53.6673 335.004 54.4079 317.727 53.3776 300.51C52.9276 293.65 50.1776 282.36 41.5576 289.51C35.2476 294.73 34.7876 304.15 34.4376 311.73C34.4109 312.374 34.3854 313.019 34.3598 313.665L34.3597 313.668C33.907 325.1 33.4511 336.615 26.4376 345.73C28.0438 354.326 28.0992 363.542 28.1533 372.55C28.1767 376.441 28.1998 380.293 28.3476 384.04C28.5641 389.576 28.7955 395.113 29.0269 400.651C29.3623 408.675 29.6977 416.701 29.9876 424.73C30.0172 425.576 30.0255 426.442 30.0338 427.316C30.0791 432.064 30.1269 437.071 33.5976 440.61C37.0176 444.06 42.1276 446.02 46.6576 447.61C56.197 450.8 66.2369 452.23 76.2876 451.83C86.3152 451.511 96.3024 450.408 106.158 448.53C107.641 448.254 109.313 448.015 111.086 447.761L111.087 447.761ZM159.448 409.47C159.108 417.87 154.618 424.56 148.298 429.82C146.99 430.875 145.617 431.846 144.188 432.73C144.248 432.27 144.308 431.8 144.348 431.33C145.051 423.076 144.305 414.619 143.568 406.251C143.257 402.717 142.947 399.2 142.748 395.72C142.238 386.809 141.673 377.902 141.108 368.995L141.108 368.99C140.718 362.854 140.329 356.718 139.958 350.58C139.871 349.13 139.787 347.681 139.703 346.233L139.703 346.226L139.703 346.221C139.575 344.005 139.447 341.791 139.308 339.58C142.548 347.52 148.518 357.91 157.308 358.58C157.392 365.774 157.909 372.982 158.426 380.186V380.186C159.127 389.965 159.828 399.739 159.448 409.47ZM9.31037 259.922C8.62641 270.555 7.94236 281.19 7.44764 291.83H7.46764C7.37588 293.815 7.25358 295.88 7.12804 297.999C6.35063 311.121 5.44911 326.339 10.9076 337.85C11.5244 339.298 12.3535 340.646 13.3676 341.85L19.0376 342.62C20.4776 342.08 22.3176 338.75 22.9876 337.49C24.1745 335.199 25.0425 332.756 25.5676 330.23C26.6617 325.422 26.8255 320.457 26.9872 315.557C26.994 315.351 27.0008 315.145 27.0076 314.94C26.991 309.027 27.5199 303.125 28.5876 297.31C28.8076 296.2 29.0676 295.1 29.3876 294.04C29.6004 293.327 29.8508 292.626 30.1376 291.94C30.957 289.653 32.0057 287.455 33.2676 285.38C33.6702 284.681 34.4018 284.236 35.2076 284.2C41.0576 278.01 49.7776 275.01 56.8276 282.45C61.3876 287.22 62.2676 294.11 62.8276 300.37C63.5059 308.314 63.7296 316.29 63.4976 324.26C63.2906 332.582 62.2012 340.81 61.1129 349.029C60.0461 357.087 58.9803 365.137 58.7476 373.26C58.5176 381.5 59.4476 391.63 65.6276 397.71C67.8776 399.94 71.6176 402.61 75.0176 401.52C77.8864 400.588 79.3874 396.92 80.5065 394.186C80.6241 393.899 80.7374 393.622 80.8476 393.36C86.6376 379.48 86.5976 364.21 86.1376 349.48C86.0733 347.442 85.9976 345.399 85.9218 343.352C85.4666 331.072 85.0062 318.651 86.9776 306.48C87.8676 300.98 89.0376 294.27 94.3576 291.27C96.2881 290.185 98.5884 289.97 100.686 290.68C102.784 291.389 104.482 292.956 105.358 294.99C106.361 297.107 106.63 299.573 106.89 301.968C106.985 302.842 107.079 303.706 107.208 304.54C107.928 309.306 108.947 314.021 110.258 318.66C111.231 322.239 112.413 325.758 113.798 329.2C113.859 329.355 113.93 329.541 114.009 329.751C114.744 331.696 116.244 335.666 118.428 335.45C119.918 335.306 119.82 332.6 119.785 331.613C119.781 331.501 119.778 331.411 119.778 331.35C119.948 327.367 118.989 323.427 118.025 319.466C117.067 315.53 116.103 311.572 116.238 307.53C116.438 301.71 118.188 296.22 122.188 291.91C123.318 290.69 125.348 289.75 126.988 290.69C136.46 296.12 138.502 305.98 140.532 315.785C140.873 317.428 141.213 319.07 141.588 320.69C143.458 328.77 146.058 338.17 150.998 345C152.748 347.42 155.348 350.42 158.698 350.19C164.118 349.82 165.738 342.89 165.928 338.66C166.193 332.654 165.504 326.438 164.826 320.315C164.532 317.661 164.239 315.024 164.028 312.43C163.789 309.546 163.553 306.663 163.317 303.781C162.833 297.859 162.349 291.939 161.838 286.02C160.338 268.34 158.878 250.653 157.458 232.96C156.772 224.387 156.109 215.81 155.446 207.231C153.704 184.676 151.961 162.111 149.788 139.61C146.808 109.07 141.008 77.2397 130.278 48.3497C121.808 25.5197 101.558 9.93972 76.9176 8.93972C64.0076 8.42972 49.7176 12.2397 41.2976 22.6197C32.4976 33.5197 28.2276 48.9497 25.2976 62.3797C20.0771 86.3106 18.5753 111.149 17.0916 135.687C16.7991 140.526 16.5072 145.353 16.1876 150.16C14.7701 171.727 13.4437 193.285 12.1161 214.861C11.477 225.249 10.8376 235.641 10.1876 246.04C9.90565 250.667 9.60802 255.294 9.31037 259.922Z" fill="#231F20"/>
<path fill-rule="evenodd" clip-rule="evenodd" d="M55.5969 185.64C59.3881 183.862 63.8155 184.087 67.4069 186.24C73.5969 190.24 74.5669 199.65 69.4169 204.93C63.9169 210.53 53.8569 209.7 49.1869 203.47C47.7322 201.574 46.9132 199.268 46.8469 196.88C46.5462 196.298 46.4178 195.642 46.4769 194.99C46.7869 190.64 51.9069 187.22 55.5969 185.64ZM57.7569 200.78C60.2569 201.4 63.7169 200.21 64.2569 197.4V197.36C64.5708 196.148 64.1891 194.862 63.265 194.017C62.3409 193.173 61.0257 192.908 59.8469 193.33C58.2228 193.806 56.8696 194.83 55.524 195.847C55.0055 196.239 54.4882 196.631 53.9569 196.99C54.5565 198.781 55.9644 200.185 57.7569 200.78Z" fill="#231F20"/>
<path fill-rule="evenodd" clip-rule="evenodd" d="M110.228 159.93C110.703 159.906 111.179 159.957 111.638 160.08C115.798 157.94 121.818 162.63 122.588 166.82C123.648 172.49 118.118 177.38 112.648 176.3C107.568 175.3 103.738 170 104.968 164.83C105.568 162.32 107.558 160.08 110.228 159.93ZM111.238 167.68C111.728 168.83 113.018 170.13 114.318 169.41C115.408 168.8 115.458 168.02 114.568 167.34C113.968 166.854 113.329 166.523 112.71 166.203C112.194 165.936 111.692 165.676 111.238 165.34C110.894 166.082 110.894 166.938 111.238 167.68Z" fill="#231F20"/>
<path d="M97.6181 189.53C92.5581 190.14 93.5081 198.02 98.6181 197.4C103.728 196.78 102.698 188.92 97.6181 189.53Z" fill="#231F20"/>
<path d="M99.7474 139.71C104.297 139.16 103.447 132.09 98.8974 132.64C94.3474 133.19 95.1874 140.24 99.7474 139.71Z" fill="#231F20"/>
<path d="M39.8369 157.24C41.4671 157.042 42.8175 155.881 43.2582 154.299C43.699 152.717 43.1434 151.026 41.8506 150.013C40.5577 149.001 38.7822 148.866 37.352 149.674C35.9218 150.481 35.1186 152.07 35.3169 153.7C35.6278 155.903 37.6239 157.466 39.8369 157.24Z" fill="#231F20"/>
<path fill-rule="evenodd" clip-rule="evenodd" d="M65.377 142.26C58.197 142.62 52.917 135.75 53.007 128.99C53.057 123.65 56.647 119.63 61.157 120.05C63.2993 118.701 65.9839 118.546 68.267 119.64C71.597 121.09 73.547 124.38 74.377 127.78C76.037 134.6 73.177 141.88 65.377 142.26ZM62.267 125.43C61.5335 125.663 60.734 125.557 60.087 125.14H60.067C59.2087 126.787 58.9506 128.682 59.337 130.5C60.027 132.88 61.877 135.5 64.607 135.5C70.427 135.43 68.547 123.63 62.267 125.43Z" fill="#231F20"/>
<path d="M93.557 102.12C98.137 101.57 97.287 94.4499 92.697 95.0099C88.107 95.5699 89.007 102.68 93.557 102.12Z" fill="#231F20"/>
<path d="M48.4976 93.9499C53.3776 93.3499 52.4976 85.7599 47.5776 86.3599C42.6576 86.9599 43.5976 94.5399 48.4976 93.9499Z" fill="#231F20"/>
<path fill-rule="evenodd" clip-rule="evenodd" d="M93.3475 66.8799C93.5075 73.7399 87.2075 79.9199 80.2775 79.3799C72.7675 78.7799 67.7475 70.6399 68.7275 63.5099C69.4175 58.4399 75.1175 52.7299 80.2675 54.2399C87.1275 53.5999 93.1975 60.2399 93.3475 66.8799ZM78.9575 59.8299L78.8375 59.7499C76.9005 61.0838 75.986 63.4736 76.5375 65.7599C76.9175 68.1499 78.6675 71.8099 81.6675 71.1499C84.0839 70.5114 85.5663 68.0804 85.0275 65.6399C84.3319 62.779 81.5149 61.2332 79.1063 59.9116C79.0565 59.8842 79.0069 59.857 78.9575 59.8299Z" fill="#231F20"/>
<path fill-rule="evenodd" clip-rule="evenodd" d="M52.6185 59.0596C48.0685 61.2896 40.4485 61.1496 37.1385 56.8296C35.3943 54.4531 35.0984 51.3099 36.3685 48.6496C35.8619 48.0295 35.6384 47.2254 35.7524 46.4328C35.8665 45.6402 36.3076 44.9317 36.9685 44.4796C42.1285 40.5896 50.6885 40.3496 55.1885 45.3496C57.0974 47.3495 57.9271 50.146 57.4177 52.8634C56.9083 55.5807 55.1221 57.8869 52.6185 59.0596ZM42.6966 49.4752C42.4666 49.5341 42.2371 49.5929 42.0085 49.6496C41.6141 50.5998 41.6286 51.6704 42.0485 52.6096C43.1485 54.2896 47.0585 53.6496 48.6185 53.0596C50.8285 52.2196 50.9985 50.3896 48.6885 49.2996C46.8189 48.4188 44.7393 48.9517 42.6966 49.4752Z" fill="#231F20"/>
<path d="M73.9072 29.1798C76.4107 28.8754 78.1944 26.6005 77.8928 24.0966C77.5911 21.5927 75.3182 19.8065 72.814 20.1054C70.3098 20.4043 68.5211 22.6753 68.8172 25.1798C69.1449 27.6748 71.4054 29.4512 73.9072 29.1798Z" fill="#231F20"/>
<path d="M108.507 50.24C113.807 49.6 112.817 41.35 107.507 41.99C102.197 42.63 103.187 50.92 108.507 50.24Z" fill="#231F20"/>
<path fill-rule="evenodd" clip-rule="evenodd" d="M123.068 91.3399C117.888 92.5099 112.448 88.6499 111.068 83.6499C109.658 78.5999 112.658 72.4399 117.988 71.2999C122.168 70.4099 126.598 73.1999 127.068 77.4099C129.138 82.2299 129.298 89.9499 123.068 91.3399ZM120.778 77.9499H120.528C119.757 78.052 119.059 78.4559 118.586 79.0729C118.114 79.69 117.906 80.4695 118.008 81.2399C118.326 82.766 119.528 83.9524 121.058 84.2499C121.082 84.1244 121.082 83.9955 121.058 83.8699C120.997 83.2247 120.997 82.5752 121.058 81.9299L121.056 81.9005C120.987 80.6301 120.917 79.3501 120.778 78.0799V77.9499Z" fill="#231F20"/>
<path d="M125.898 120.39C123.457 118.474 119.925 118.899 118.008 121.34C116.109 123.796 116.557 127.325 119.008 129.23C120.186 130.147 121.681 130.557 123.161 130.37C124.642 130.182 125.987 129.412 126.898 128.23C128.796 125.777 128.349 122.251 125.898 120.35V120.39Z" fill="#231F20"/>
<path d="M74.8968 162.69C74.0707 162.516 73.211 162.603 72.4368 162.94C70.9897 163.568 70.1159 165.06 70.2768 166.63C70.5175 168.189 71.7232 169.423 73.2768 169.7C74.1079 169.848 74.9645 169.732 75.7268 169.37C77.1665 168.758 78.0356 167.275 77.8668 165.72C77.6434 164.17 76.4416 162.944 74.8968 162.69Z" fill="#231F20"/>
</svg>
